<svg xmlns="http://www.w3.org/2000/svg" viewBox="0 0 1137.11 621.06"><defs><style>.cls-1{opacity:0.7;}.cls-2{fill:#dad8e8;}.cls-3{fill:#aad0e0;}.cls-4{fill:#45add6;}.cls-5{fill:#3482a1;}.cls-6{fill:#323071;}.cls-7{fill:#d2fad6;}.cls-8{fill:#85b4c7;}.cls-9{fill:#9dc3d2;}.cls-10{fill:#b0b9f2;}.cls-11{fill:#5b598d;}.cls-12{fill:#5d548c;}.cls-13{fill:#f9a9b6;}.cls-14{fill:#7d99be;}.cls-15{fill:#474661;}.cls-16{fill:#dbfbde;}.cls-17{fill:none;stroke:#6fdcca;stroke-miterlimit:10;stroke-width:8px;}.cls-18{fill:#5d7fae;}.cls-19{fill:#b5deef;}.cls-20{fill:#6abdde;}.cls-21{fill:#6fdcca;}.cls-22{fill:#fff;}.cls-23{fill:#f8b0bc;}</style></defs><title>Artboard 23</title><g id="Step6"><path class="cls-2" d="M123.88,515l95.34-7s180.66-9,207.66-8,159,7.46,159,7.46l110-14.1,132-8.18s70,8,121,14.91,37.12,17.58-5.94,37.25S916.88,571,877.88,571s-101,16-146,0S674.2,519.63,621.54,537.3s-96.71,11.23-136.32,16-59.34,14.33-117.34,6S123.88,515,123.88,515Z"/><polygon class="cls-3" points="530.8 61.63 530.8 221.93 712.29 221.93 712.29 65.94 530.8 61.63"/><polygon class="cls-4" points="470.03 100.77 511.3 94.44 530.8 61.63 530.8 221.93 473.8 221.93 470.88 109.62 470.03 100.77"/><polygon class="cls-5" points="464.88 68.3 464.88 99.3 508.88 91.96 525.55 61.63 464.88 68.3"/><path class="cls-6" d="M489.77,104.53s-1.55,11.36,1.45,12.36,12,1.41,14.66-.93,4.34-9,2.34-11.66-11-.67-11-.67Z"/><polygon class="cls-5" points="461.88 217.96 621.54 221.93 621.54 384.63 457.21 370.63 461.88 217.96"/><polygon class="cls-7" points="695.88 365.3 621.54 384.63 621.54 225.3 643.22 253.96 695.88 249.96 695.88 365.3"/><polygon class="cls-2" points="623.22 221.93 646.22 251.63 704.22 247.3 702.88 221.93 623.22 221.93"/><path class="cls-6" d="M648.22,261.46l-.84,10.34s20.5-.34,22.5-.84,3-4.16,3-6,1.17-5.83,0-6.16-9.16,0-9.16,0Z"/><polygon class="cls-7" points="753.22 353.96 761.88 334.63 805.22 325.3 805.22 351.3 771.88 359.3 753.22 353.96"/><polygon class="cls-7" points="948.55 342.3 937.88 374.63 980.55 358.46 980.55 334.63 948.55 342.3"/><polygon class="cls-8" points="804.55 325.96 980.55 333.3 947.88 342.3 942.94 359.3 805.88 350.63 804.55 325.96"/><polygon class="cls-9" points="763.76 363.66 805.88 350.63 942.94 359.3 937.88 377.3 877.88 371.96 763.76 363.66"/><polygon class="cls-10" points="885.88 397.96 885.88 559.3 933.22 525.96 933.22 377.3 885.88 397.96"/><polygon class="cls-11" points="905.22 427.3 918.55 420.63 918.55 433.3 905.22 441.3 905.22 427.3"/><polygon class="cls-12" points="885.88 397.96 881.88 559.3 690.55 535.96 690.55 384.63 885.88 397.96"/><path class="cls-13" d="M767.88,364c-4.11,4.68-14.66,13.34-14.66,13.34s-6.67,27.33-8.67,43.33-6.67,46-6.67,54-1.33,13.33,0,35.33,3.34,35.34,3.34,35.34l14.71-1.37,7.83,9.37h50.79v-32s22.67-10.67,24.67-13.34,9.33-6.66,9.33-6.66-.92-100.17,4.8-102.67,28.51-.94,28.51-.94l8.6-1.73s-7.27-19.79-12.58-24c-10.86-8.61-41.33-10.66-54-12.66S776.67,354,767.88,364Z"/><path class="cls-14" d="M750.57,388.73l-13.28,2.57-6.07,20-12,52.66H690.55s-16,13.34-21.33,8-8.34-10.66-5.5-20.66,9.68-40.67,9.68-40.67v-16l-9.68,10.67-3.33-16.57,23.74-20.38s3.09-7.72,16.42-9.05,22.67-3,26.67-2.18,2.81-1.82,10.07-2.49,24.59,1,30.59,2.49l6,1.51S753.73,373.71,750.57,388.73Z"/><polygon class="cls-15" points="877.88 371.96 933.22 377.3 890.46 395.96 877.88 371.96"/><polygon class="cls-11" points="464.88 377.3 548.55 377.3 621.54 384.63 653.88 380.96 663.72 380.96 663.72 531.3 522.55 531.3 464.88 531.3 464.88 377.3"/><polygon class="cls-11" points="219.22 420.63 222.55 537.3 423.21 531.3 423.21 416.63 219.22 420.63"/><polygon class="cls-14" points="213.22 387.96 213.22 420.63 423.21 416.63 423.21 383.96 213.22 387.96"/><polygon class="cls-16" points="229.88 363.96 420.55 363.96 423.21 383.96 213.22 387.96 229.88 363.96"/><polygon class="cls-14" points="637.32 382.84 663.72 380.96 663.72 373.66 637.32 380.53 637.32 382.84"/><polygon class="cls-14" points="467.88 371.54 464.88 377.3 530.8 378.25 467.88 371.54"/><path class="cls-17" d="M423.22,99.3l7.66,11V123l11,18.82V152s10,15,10,22-7,15-7,15,23,7,20,18S470,285,470,285l9.85,79V454.3"/><path class="cls-18" d="M451.55,477l-6.67,11s21,7,44.49,5,30.51-7.82,30.51-7.82L509.1,477Z"/><path class="cls-13" d="M451.55,559.3,444.88,488s44.43,11.72,64.22,5.36L528.88,487l-9,72.34S483.22,571,451.55,564"/><ellipse class="cls-5" cx="452.38" cy="448.8" rx="21.5" ry="28.17" transform="translate(-151.52 245.4) rotate(-26.16)"/><ellipse class="cls-19" cx="463.5" cy="415.09" rx="21.5" ry="42.42" transform="translate(-135.52 246.85) rotate(-26.16)"/><ellipse class="cls-20" cx="467.65" cy="441.3" rx="21.5" ry="42.42" transform="translate(-146.65 251.37) rotate(-26.16)"/><ellipse class="cls-21" cx="489.67" cy="454.78" rx="31.16" ry="21.5" transform="translate(-89.46 788.25) rotate(-72.82)"/><circle class="cls-21" cx="497.88" cy="247.3" r="22"/><ellipse class="cls-21" cx="485.22" cy="189.96" rx="15.19" ry="6"/><ellipse class="cls-21" cx="474.36" cy="171.46" rx="10.86" ry="12.5"/><ellipse class="cls-21" cx="502.55" cy="247.38" rx="17.33" ry="29.42"/><circle class="cls-21" cx="483.94" cy="215.87" r="13.9"/><circle class="cls-21" cx="423.21" cy="110.3" r="13.9"/><circle class="cls-21" cx="446.87" cy="232.27" r="10.34"/><ellipse class="cls-21" cx="444.05" cy="256.62" rx="20.83" ry="24.34"/><ellipse class="cls-21" cx="423.21" cy="205.91" rx="13.33" ry="9.95"/><ellipse class="cls-21" cx="444.05" cy="199.91" rx="13.17" ry="15.95"/><ellipse class="cls-21" cx="446.87" cy="116.13" rx="16.83" ry="10.34" transform="translate(91.24 410.58) rotate(-54.19)"/><ellipse class="cls-21" cx="417.21" cy="156.62" rx="14.84" ry="19.33" transform="translate(166.74 525.21) rotate(-76.38)"/><ellipse class="cls-21" cx="452.38" cy="185.41" rx="14.84" ry="19.33" transform="translate(165.65 581.4) rotate(-76.38)"/><ellipse class="cls-21" cx="451.55" cy="141.78" rx="19.33" ry="14.84" transform="translate(44.65 383.5) rotate(-48.14)"/><ellipse class="cls-22" cx="492.49" cy="239.41" rx="16.61" ry="12.22"/><ellipse class="cls-22" cx="479.88" cy="194.46" rx="22.67" ry="4.5"/><ellipse class="cls-22" cx="442.05" cy="213.92" rx="15.17" ry="8.01"/><ellipse class="cls-22" cx="492.49" cy="172.96" rx="16.61" ry="6"/><ellipse class="cls-22" cx="479.85" cy="256.62" rx="15.14" ry="10.09"/><ellipse class="cls-22" cx="479.85" cy="230.65" rx="9.82" ry="16.73"/><circle class="cls-23" cx="475.64" cy="178.57" r="5.61"/><ellipse class="cls-23" cx="462.95" cy="150.37" rx="11.41" ry="8.59"/><ellipse class="cls-23" cx="446.87" cy="111.23" rx="10.34" ry="4.9"/><circle class="cls-23" cx="432.72" cy="141.09" r="4.39"/><circle class="cls-23" cx="413.26" cy="170.91" r="3.95"/><circle class="cls-23" cx="431.32" cy="192.66" r="7.25"/><circle class="cls-23" cx="454.22" cy="221.26" r="7.34"/><circle class="cls-23" cx="487.18" cy="246.71" r="7.3"/><circle class="cls-23" cx="437.88" cy="253.71" r="7"/><circle class="cls-23" cx="508.42" cy="213.92" r="8.01"/></g></svg>