<svg xmlns="http://www.w3.org/2000/svg" viewBox="0 0 1116.11 669.07"><defs><style>.cls-1{opacity:0.7;}.cls-2,.cls-4,.cls-6,.cls-7,.cls-8{fill:none;stroke-miterlimit:10;}.cls-2{stroke:#3482a1;stroke-width:11px;}.cls-3{fill:#6abdde;}.cls-4{stroke:#d2fad6;}.cls-4,.cls-6,.cls-7,.cls-8{stroke-width:8px;}.cls-5{fill:#45add6;}.cls-6{stroke:#503ea7;}.cls-7{stroke:#fff;}.cls-8{stroke:#6abdde;}.cls-9{fill:#f9a9b6;}.cls-10{fill:#fff;}</style></defs><title>Artboard 22</title><g id="Step5"><rect class="cls-2" x="84.94" y="107.04" width="311.11" height="458" rx="12" ry="12"/><rect class="cls-3" x="151.49" y="80.04" width="178" height="60" rx="12" ry="12"/><rect class="cls-4" x="125.88" y="209.04" width="59" height="59" rx="12" ry="12"/><rect class="cls-4" x="126" y="311.03" width="59" height="59" rx="12" ry="12"/><rect class="cls-4" x="125.88" y="413.03" width="59" height="59" rx="12" ry="12"/><rect class="cls-5" x="444.05" y="107.04" width="590.72" height="214" rx="12.26" ry="12.26"/><line class="cls-6" x1="223.88" y1="209.04" x2="341.88" y2="209.04"/><line class="cls-6" x1="223.88" y1="238.54" x2="341.88" y2="238.54"/><line class="cls-6" x1="223.88" y1="268.04" x2="341.88" y2="268.04"/><line class="cls-6" x1="223.88" y1="311.03" x2="341.88" y2="311.03"/><line class="cls-6" x1="223.88" y1="340.53" x2="341.88" y2="340.53"/><line class="cls-6" x1="223.88" y1="370.03" x2="341.88" y2="370.03"/><line class="cls-6" x1="223.88" y1="413.03" x2="341.88" y2="413.03"/><line class="cls-6" x1="223.88" y1="442.53" x2="341.88" y2="442.53"/><line class="cls-6" x1="223.88" y1="472.03" x2="341.88" y2="472.03"/><path class="cls-7" d="M529.21,263.68c50.65-52,108.5-86.69,102.57-48.72s31.81-23.11,36.94,0,74-133.75,57.55-38,40.61,130.44,54.1,86.69S808,195.15,842.9,215s59,14.87,85-9.9"/><polyline class="cls-8" points="126 238.54 155.38 268.04 197.88 183.04"/><polyline class="cls-8" points="126 347.53 155.38 377.03 197.88 292.03"/><polyline class="cls-8" points="126 449.52 155.38 479.02 197.88 394.02"/><path class="cls-9" d="M453,439.85,497.85,412H783.58s56.27-48.81,74.83-55.79,58.76-8.71,85.06,0,46.5,27.22,55,38.89,20.41,42.18,19.39,79.66c-.72,26.35-33.39,53.85-42.47,62.76-13,12.76-73.15,15.69-84.46,12.2S813,511.33,813,511.33l-11.92-13.95L775.3,507.84H739.64l-24.2-12.2-10.69-17.43L675.28,462.5l-23.93,12.22L635.7,462.5l-7.43,8.73H602.55l-26.08-8.73L550.21,473l-28.32,13.94H501.58Z"/><circle class="cls-10" cx="937.88" cy="450.66" r="33.01"/></g></svg>