<svg id="Layer_1" data-name="Layer 1" xmlns="http://www.w3.org/2000/svg" xmlns:xlink="http://www.w3.org/1999/xlink" viewBox="0 0 605.22 432.97"><defs><style>.cls-1{fill:url(#linear-gradient);}.cls-2{fill:#23146b;opacity:0.7;isolation:isolate;}</style><linearGradient id="linear-gradient" x1="-218.14" y1="651.77" x2="-218.14" y2="650.77" gradientTransform="matrix(604.87, 74.31, 53.34, -434.18, 97521.55, 299240.91)" gradientUnits="userSpaceOnUse"><stop offset="0" stop-color="#c9d2f5"/><stop offset="0.5" stop-color="#bee1ec"/><stop offset="1" stop-color="#b4ece4"/></linearGradient></defs><title>404Blob</title><g id="blob-shape"><path id="Path_937" data-name="Path 937" class="cls-1" d="M526.09,116.64c57.2,39.44,94.95,95.06,96,147.34s-34.73,101.25-85.69,130.86S419.1,434.69,348.75,448.17s-144.78,30.37-197.92,12-84.89-72-106-121.72S13.06,242.52,18.1,192,44,86.54,96.11,58.9,231.85,31,312.05,42.37,468.89,77.2,526.09,116.64Z" transform="translate(-16.85 -35.3)"/></g><path class="cls-2" d="M101.76,158.67c1.4.3,3,.8,4.5,1.1.3,0,.5.2.3.5a16.35,16.35,0,0,1-3.7,8,15.29,15.29,0,0,1-9.6,4.8,20.83,20.83,0,0,1-7.5-.6,24.3,24.3,0,0,1-8.5-3.5c-4.5-2.8-6.9-6.8-6.6-12a12.19,12.19,0,0,1,4-8.4,17.44,17.44,0,0,1,5.5-3.1c1.8-.6,3.7-1.4,5.5-2a5.66,5.66,0,0,0,3.4-3.7c0-.2.2-.3.2-.5.3-.6.3-.6,1-.5,2.6.6,5,1.2,7.5,1.8.3.2.5.3.3.6-.8,3.8-2.6,6.8-6.6,8.3a34.5,34.5,0,0,0-4.8,2,7.74,7.74,0,0,0-4.3,4.9,5.19,5.19,0,0,0,2.2,5.8,9.13,9.13,0,0,0,7.9,1.1,5.33,5.33,0,0,0,3.5-3.5,5.78,5.78,0,0,0,.6-1.7c.2-.3.3-.3.6-.3,1.4.2,3,.6,4.6.9Z" transform="translate(-16.85 -35.3)"/><path class="cls-2" d="M94.66,136.17a5.89,5.89,0,0,1-3.5-2.3,3.08,3.08,0,0,1,1.3-4.5,6.32,6.32,0,0,1,6.6.8,4.25,4.25,0,0,1,1.4,2.3,3.1,3.1,0,0,1-2.2,3.4A9.23,9.23,0,0,1,94.66,136.17Z" transform="translate(-16.85 -35.3)"/><path class="cls-2" d="M198.55,103.5c-.8,1.4-1.4,2.6-2.2,4-.2.3-.3.3-.6.2a16,16,0,0,1-7.2-5.2,14,14,0,0,1-2.6-10,20,20,0,0,1,2.2-6.9,24.21,24.21,0,0,1,5.5-7.2c3.9-3.5,8.5-4.9,13.6-3.4a12.8,12.8,0,0,1,7.7,5.7,14.71,14.71,0,0,1,1.9,5.8c.3,1.8.5,3.7.8,5.5a5.44,5.44,0,0,0,2.9,4,1.33,1.33,0,0,0,.5.3c.6.3.6.3.3.9-1.1,2.1-2.4,4.5-3.5,6.6-.2.3-.3.3-.6.2-3.7-1.5-6.3-4-6.9-8a45.91,45.91,0,0,0-1-5.1,7.38,7.38,0,0,0-4-5.1,5.21,5.21,0,0,0-6.4.8,7.79,7.79,0,0,0-2.9,7.1,5.84,5.84,0,0,0,2.7,4.1,7.64,7.64,0,0,1,1.6,1.1c.3.2.3.3.2.6a37.29,37.29,0,0,1-2,4Z" transform="translate(-16.85 -35.3)"/><path class="cls-2" d="M223.15,102.2a5.82,5.82,0,0,1,3.2-2.8,3.17,3.17,0,0,1,4.2,2.1,5.74,5.74,0,0,1-2.4,6,4.12,4.12,0,0,1-2.7.8,3.5,3.5,0,0,1-2.9-2.9A5.75,5.75,0,0,1,223.15,102.2Z" transform="translate(-16.85 -35.3)"/><path class="cls-2" d="M102.75,247.72c-.3-1.5-.6-2.9-1-4.5,0-.3,0-.5.3-.6a17.63,17.63,0,0,1,9.1-.5,14.7,14.7,0,0,1,8.8,6,21.84,21.84,0,0,1,2.9,6.8,22.13,22.13,0,0,1,.6,8.9,13.46,13.46,0,0,1-8,11.2,13.7,13.7,0,0,1-15.1-2.7l-4.3-3.7a6.33,6.33,0,0,0-5-1.2h-.6c-.6,0-.6,0-.8-.6-.6-2.5-1.1-4.8-1.8-7.2-.2-.3,0-.5.3-.6,3.9-1.1,7.5-.9,10.8,1.7,1.3,1.1,2.7,2.1,4.2,3.2a7.75,7.75,0,0,0,6.6,1.4,5.31,5.31,0,0,0,4.3-4.6,7.92,7.92,0,0,0-2.6-7.1,6.38,6.38,0,0,0-4.8-1.4,12.5,12.5,0,0,0-1.9.3c-.3,0-.5,0-.5-.3-.7-1.6-1-3.1-1.5-4.5Z" transform="translate(-16.85 -35.3)"/><path class="cls-2" d="M85,264a5.25,5.25,0,0,1-.5,4.1,3.2,3.2,0,0,1-4.7.9,5.41,5.41,0,0,1-2.2-6,4.25,4.25,0,0,1,1.4-2.3,3.33,3.33,0,0,1,4.2.3A5.08,5.08,0,0,1,85,264Z" transform="translate(-16.85 -35.3)"/><path class="cls-2" d="M135.79,380.14l-4,2.38a.48.48,0,0,1-.69-.18,16.31,16.31,0,0,1-3-8.23,15.49,15.49,0,0,1,3.4-10,21.52,21.52,0,0,1,5.86-4.83,21.19,21.19,0,0,1,8.56-3.4c5.26-1.12,9.64,0,13.25,3.81a11.68,11.68,0,0,1,3.11,8.84,15.55,15.55,0,0,1-1.7,6c-.82,1.76-1.7,3.43-2.43,5.14a6.31,6.31,0,0,0,.1,4.92l.31.52c.13.62.13.62-.39.92l-6.64,3.9a.47.47,0,0,1-.68-.18c-2.1-3.17-3-6.61-1.19-10.32.65-1.65,1.49-3.19,2.05-4.8a7.31,7.31,0,0,0-.44-6.46,5.13,5.13,0,0,0-5.77-2.53,8.56,8.56,0,0,0-6.36,4.78,6.31,6.31,0,0,0-.06,5,5.65,5.65,0,0,0,.74,1.66.47.47,0,0,1-.18.68c-1.07.74-2.45,1.56-3.83,2.37Z" transform="translate(-16.85 -35.3)"/><path class="cls-2" d="M156.85,391.31a5.21,5.21,0,0,1,4.16-.82,3,3,0,0,1,2.33,4,6.33,6.33,0,0,1-5.29,4,4.82,4.82,0,0,1-2.55-.59,3.12,3.12,0,0,1-.8-3.94A4.43,4.43,0,0,1,156.85,391.31Z" transform="translate(-16.85 -35.3)"/><path class="cls-2" d="M307.32,122.93c-1.48-.15-3.1-.33-4.51-.4-.36,0-.42-.06-.52-.36-.1-3.16.27-6,2-8.71a14.11,14.11,0,0,1,8.17-6.27,20.07,20.07,0,0,1,7.39-.6,24,24,0,0,1,8.88,2.27c4.88,2.24,8,5.93,8.77,11.06a11.79,11.79,0,0,1-2.18,9.18,17.23,17.23,0,0,1-4.53,4c-1.57.91-3.16,2-4.72,2.86a5.43,5.43,0,0,0-2.58,4.26c0,.28-.06.42-.22.54-.11.7-.11.7-.89.65-2.4-.22-5-.54-7.55-.64-.36,0-.54-.22-.36-.48-.05-3.94,1.16-7.19,4.56-9.32a44.86,44.86,0,0,0,4.28-2.79,7,7,0,0,0,3.07-5.61,5.39,5.39,0,0,0-3.32-5.51c-2.67-1.26-5.23-1.36-7.62.28a5.78,5.78,0,0,0-2.75,4c-.11.7-.25,1.18-.36,1.88,0,.28-.06.42-.48.36a12.35,12.35,0,0,0-4.56-.62Z" transform="translate(-16.85 -35.3)"/><path class="cls-2" d="M318.46,144.78a6.17,6.17,0,0,1,3.81,1.79,3.05,3.05,0,0,1-.42,4.66,5.46,5.46,0,0,1-6.38.11,4.24,4.24,0,0,1-1.76-2.06,3.18,3.18,0,0,1,1.43-3.79A4.94,4.94,0,0,1,318.46,144.78Z" transform="translate(-16.85 -35.3)"/><path class="cls-2" d="M414.52,139.37c-.48,1.55-1,2.88-1.5,4.52-.14.27-.23.44-.5.3-2.84-.83-5.59-1.84-7.77-4.13a14.86,14.86,0,0,1-4-9.72,25.9,25.9,0,0,1,1.18-7.53,29.16,29.16,0,0,1,4.2-8.31c3.28-4.25,7.37-6.38,12.63-5.85a11,11,0,0,1,8.2,4.6,14.29,14.29,0,0,1,2.59,5.57,48.51,48.51,0,0,0,1.65,5.41,5.68,5.68,0,0,0,3.48,3.67l.53.28c.53.28.53.28.43.91-.78,2.53-1.7,4.87-2.56,7.36-.15.26-.24.44-.55.39-3.74-.86-6.59-3-7.79-6.87-.45-1.71-1.08-3.29-1.62-4.83a7.58,7.58,0,0,0-4.54-4.46,5.29,5.29,0,0,0-6.08,1.86,8.1,8.1,0,0,0-1.67,7.61A5.6,5.6,0,0,0,414,133.9a5.74,5.74,0,0,0,1.68.67c.27.14.44.23.3.5a40.07,40.07,0,0,0-1.5,4.3Z" transform="translate(-16.85 -35.3)"/><path class="cls-2" d="M437.89,133.8a4.72,4.72,0,0,1,2.68-3.33,3.17,3.17,0,0,1,4.43,1.45,6.25,6.25,0,0,1-1.42,6.5,3.6,3.6,0,0,1-2.36,1.23,3.21,3.21,0,0,1-3.24-2.41A4.76,4.76,0,0,1,437.89,133.8Z" transform="translate(-16.85 -35.3)"/><path class="cls-2" d="M200.44,183.57c-1.3-.8-2.6-1.7-4-2.5-.3-.2-.3-.3-.2-.6a15.65,15.65,0,0,1,6.1-6.4,16.73,16.73,0,0,1,10.8-1.7,22.89,22.89,0,0,1,7.1,2.8,28.23,28.23,0,0,1,7.1,5.8c3.4,4,4.3,8.4,2.4,13.4a13.08,13.08,0,0,1-6.6,6.9,14.47,14.47,0,0,1-6.3,1.2c-1.9,0-3.9.2-5.8.3a6.41,6.41,0,0,0-4.5,2.5c-.2.2-.3.3-.3.5-.5.5-.5.5-1,.2-2.2-1.4-4.3-2.6-6.6-4-.3-.2-.3-.3-.2-.6,1.9-3.4,4.7-5.7,8.8-6,1.8-.2,3.5-.2,5.3-.5a7.45,7.45,0,0,0,5.6-3.4,5.12,5.12,0,0,0-.2-6.3,7.91,7.91,0,0,0-7.1-3.2,5.59,5.59,0,0,0-4.5,2.3,6.73,6.73,0,0,0-1.1,1.4c-.2.3-.3.3-.6.2-1.4-.8-2.9-1.6-4.2-2.3Z" transform="translate(-16.85 -35.3)"/><path class="cls-2" d="M199.64,207.07a5.46,5.46,0,0,1,2.6,3.2,3,3,0,0,1-2.6,3.8,5.58,5.58,0,0,1-5.9-2.8,3.5,3.5,0,0,1-.6-2.6,3.44,3.44,0,0,1,3.2-2.6A10.64,10.64,0,0,1,199.64,207.07Z" transform="translate(-16.85 -35.3)"/><path class="cls-2" d="M525.07,207.08c1.3.8,2.7,1.5,4,2.3.3.2.3.3.2.6a15.66,15.66,0,0,1-5.9,6.6,15,15,0,0,1-10.6,2,20.27,20.27,0,0,1-7.1-2.6,29.9,29.9,0,0,1-7.2-5.5c-3.5-3.8-4.7-8.3-2.9-13.2a12.22,12.22,0,0,1,6.3-7.1,16.11,16.11,0,0,1,6.1-1.5c1.9-.2,3.9-.3,5.8-.6a5.47,5.47,0,0,0,4.3-2.6,1.33,1.33,0,0,0,.3-.5c.5-.5.5-.5,1-.2,2.2,1.2,4.5,2.5,6.7,3.7.3.2.3.3.2.6-1.8,3.4-4.5,5.8-8.7,6.3-1.8.2-3.5.3-5.3.6a7.77,7.77,0,0,0-5.5,3.5c-1.1,2-1.3,4.1.5,6.1a8.8,8.8,0,0,0,7.2,3.1,6.41,6.41,0,0,0,4.5-2.5c.3-.5.8-.9,1.1-1.5.2-.3.3-.3.6-.2a42,42,0,0,0,4.4,2.6Z" transform="translate(-16.85 -35.3)"/><path class="cls-2" d="M525,183.48a4.76,4.76,0,0,1-2.7-3.2,3.17,3.17,0,0,1,2.4-4,6,6,0,0,1,6.1,2.5,3.5,3.5,0,0,1,.6,2.6,3.09,3.09,0,0,1-3.2,2.6A3.62,3.62,0,0,1,525,183.48Z" transform="translate(-16.85 -35.3)"/><path class="cls-2" d="M553.64,287.41c1.48-.38,3-.9,4.44-1.28.35-.08.42,0,.57.27a15.8,15.8,0,0,1,.65,8.83,15,15,0,0,1-5.92,9,20.27,20.27,0,0,1-6.8,3.3,29.88,29.88,0,0,1-9,1.36c-5.17-.12-9.24-2.38-11.51-7.07a12.24,12.24,0,0,1-.74-9.47,16,16,0,0,1,3.16-5.43c1.17-1.51,2.49-3,3.59-4.59a5.47,5.47,0,0,0,1.12-4.9,1.48,1.48,0,0,0-.15-.56c0-.71,0-.71.55-.86,2.39-.75,4.92-1.5,7.31-2.25.35-.08.43,0,.57.27,1.2,3.66,1.05,7.26-1.5,10.63-1.11,1.44-2.22,2.73-3.25,4.23a7.76,7.76,0,0,0-1.3,6.39c.67,2.18,2,3.79,4.73,3.88a8.8,8.8,0,0,0,7.23-3,6.41,6.41,0,0,0,1.33-5,17.39,17.39,0,0,0-.32-1.84c-.07-.35,0-.42.28-.57a41.44,41.44,0,0,0,4.92-1.36Z" transform="translate(-16.85 -35.3)"/><path class="cls-2" d="M536.59,271.1a4.79,4.79,0,0,1-4.18-.28,3.18,3.18,0,0,1-1.21-4.51,6,6,0,0,1,6-2.65,3.46,3.46,0,0,1,2.28,1.37,3.09,3.09,0,0,1-.35,4.11A3.6,3.6,0,0,1,536.59,271.1Z" transform="translate(-16.85 -35.3)"/><path class="cls-2" d="M209.87,305.09l-4.55,1.21a.47.47,0,0,1-.61-.36,16.27,16.27,0,0,1-.85-8.67,15.5,15.5,0,0,1,6-8.72,21.58,21.58,0,0,1,6.94-3.08,24.92,24.92,0,0,1,9.11-1.17c5.36.34,9.47,2.56,11.84,7.21a11.65,11.65,0,0,1,.81,9.3,15.46,15.46,0,0,1-3.25,5.31c-1.27,1.47-2.56,2.85-3.73,4.3a6.28,6.28,0,0,0-1.16,5l.15.58c.15.58.15.58-.62.79-2.51.66-4.93,1.3-7.39,2.16a.46.46,0,0,1-.61-.35,10.24,10.24,0,0,1,1.57-10.45c1.07-1.43,2.29-2.68,3.27-4.08a7.38,7.38,0,0,0,1.32-6.35,5.15,5.15,0,0,0-4.89-4,8.54,8.54,0,0,0-7.4,2.89,6.29,6.29,0,0,0-1.41,4.83,5.62,5.62,0,0,0,.26,1.79.47.47,0,0,1-.35.61c-1.33.46-2.88.86-4.42,1.27Z" transform="translate(-16.85 -35.3)"/><path class="cls-2" d="M227.34,321.47a5.22,5.22,0,0,1,4.23.32,3,3,0,0,1,1.17,4.45,6.31,6.31,0,0,1-6.17,2.46,4.69,4.69,0,0,1-2.3-1.25,3.11,3.11,0,0,1,.29-4A4.24,4.24,0,0,1,227.34,321.47Z" transform="translate(-16.85 -35.3)"/><path class="cls-2" d="M345.21,313.16c.2-1.5.3-2.9.6-4.5a.47.47,0,0,1,.5-.5,17.89,17.89,0,0,1,8.7,2.5,14.29,14.29,0,0,1,6.1,8.4,19.5,19.5,0,0,1,.3,7.2,23.06,23.06,0,0,1-2.6,8.6c-2.4,4.6-6.1,7.4-11.6,7.8a12.47,12.47,0,0,1-9.3-2.8,14.22,14.22,0,0,1-3.9-4.8c-1-1.7-1.8-3.2-2.9-4.9a6.16,6.16,0,0,0-4.2-2.8c-.2,0-.3-.2-.5-.2-.6-.2-.6-.2-.6-.8.3-2.5.6-4.9,1-7.4a.47.47,0,0,1,.5-.5c4,.3,7.4,1.5,9.5,5.1.8,1.5,1.8,2.9,2.7,4.3a7.74,7.74,0,0,0,5.6,3.4,5.36,5.36,0,0,0,5.8-2.9,7.45,7.45,0,0,0,0-7.5,5.78,5.78,0,0,0-4-2.9c-.6-.2-1.3-.3-1.9-.5-.3,0-.5-.2-.3-.5a27.28,27.28,0,0,0,.5-3.8Z" transform="translate(-16.85 -35.3)"/><path class="cls-2" d="M322.61,322.66a5.56,5.56,0,0,1-1.9,3.7,3.38,3.38,0,0,1-4.8-.6,5.58,5.58,0,0,1,0-6.3,4.56,4.56,0,0,1,2.2-1.7,3.46,3.46,0,0,1,3.9,1.7A5,5,0,0,1,322.61,322.66Z" transform="translate(-16.85 -35.3)"/><path class="cls-2" d="M416.31,207.21c1.3-.8,2.7-1.5,4-2.3.3-.2.5-.2.6.2a17.61,17.61,0,0,1,3.4,8.1,13.11,13.11,0,0,1-3.2,9.8,21,21,0,0,1-5.8,4.8,24.1,24.1,0,0,1-8.5,3.4c-5.3,1.1-9.9,0-13.6-3.8a12.2,12.2,0,0,1-1.9-14.6c.8-1.7,1.6-3.4,2.2-5.1a6,6,0,0,0-.3-4.9.55.55,0,0,1-.2-.5c-.3-.6-.3-.6.3-.9,2.2-1.2,4.3-2.6,6.6-3.8.3-.2.5-.2.6.2,2.2,3.2,3.2,6.4,1.6,10.3-.6,1.5-1.3,3.1-1.9,4.8a7.75,7.75,0,0,0,.6,6.3,5.39,5.39,0,0,0,5.9,2.6,8.18,8.18,0,0,0,6.3-4.6,5.31,5.31,0,0,0-.2-4.9c-.3-.6-.5-1.1-.8-1.7-.2-.3-.2-.5.2-.6,1.5-1.1,2.8-1.9,4.1-2.8Z" transform="translate(-16.85 -35.3)"/><path class="cls-2" d="M394.61,196.11a5.31,5.31,0,0,1-4.2.8,3.13,3.13,0,0,1-2.4-4,6.13,6.13,0,0,1,5.3-4,6,6,0,0,1,2.7.6,3.19,3.19,0,0,1,1,4A6.08,6.08,0,0,1,394.61,196.11Z" transform="translate(-16.85 -35.3)"/><path class="cls-2" d="M442.26,292.57c-1.16,1-2.43,1.91-3.58,2.91-.27.25-.46.28-.63-.1a17.69,17.69,0,0,1-4.66-7.44A13.13,13.13,0,0,1,435,277.75a21.07,21.07,0,0,1,4.95-5.67,24.25,24.25,0,0,1,7.84-4.73c5.06-1.94,9.78-1.59,14,1.56A12.21,12.21,0,0,1,466,283c-.52,1.81-1,3.62-1.35,5.39a6,6,0,0,0,1.08,4.79.54.54,0,0,1,.28.46c.39.54.39.54-.15.94-2,1.54-3.82,3.26-5.9,4.81-.27.25-.46.28-.63-.1-2.68-2.8-4.19-5.8-3.23-9.91.35-1.57.78-3.27,1.1-5a7.75,7.75,0,0,0-1.61-6.12,5.38,5.38,0,0,0-6.24-1.62,8.2,8.2,0,0,0-5.48,5.56,5.31,5.31,0,0,0,1,4.8c.39.55.67,1,1.06,1.55.25.26.28.46-.1.62-1.3,1.33-2.46,2.33-3.59,3.43Z" transform="translate(-16.85 -35.3)"/><path class="cls-2" d="M465.46,300a5.3,5.3,0,0,1,4-1.47,3.13,3.13,0,0,1,3,3.56,6.12,6.12,0,0,1-4.59,4.8,5.92,5.92,0,0,1-2.76-.15,3.19,3.19,0,0,1-1.63-3.79A6.07,6.07,0,0,1,465.46,300Z" transform="translate(-16.85 -35.3)"/><path class="cls-2" d="M425.76,391.69c.82,1.33,1.44,2.6,2.24,4,.15.24.23.36-.13.58a16.75,16.75,0,0,1-8.18,3.33,13.63,13.63,0,0,1-9.84-3.12,19.86,19.86,0,0,1-4.63-5.71,29.35,29.35,0,0,1-3.25-8.46c-1-5.15.24-9.81,4.09-13.53a12.22,12.22,0,0,1,14.64-2c1.68.7,3.42,1.62,5.13,2.22a5.63,5.63,0,0,0,5-.27,1.28,1.28,0,0,1,.56-.17c.6-.38.6-.38,1,.44,1.22,2.24,2.47,4.38,3.79,6.64.22.36.08.53-.14.58-3.19,2.23-6.62,3.28-10.35,1.69-1.59-.68-3.18-1.36-4.79-1.94a6.94,6.94,0,0,0-6.42.65,5.38,5.38,0,0,0-2.62,6,7.69,7.69,0,0,0,4.51,6.19,6,6,0,0,0,5-.17c.55-.18,1-.58,1.61-.75.34-.13.53-.09.58.13a20.66,20.66,0,0,0,2.22,3.7Z" transform="translate(-16.85 -35.3)"/><path class="cls-2" d="M437.1,370a5.48,5.48,0,0,1-.75-4.29,3.05,3.05,0,0,1,4-2.34,5.89,5.89,0,0,1,3.82,5.21,3.16,3.16,0,0,1-.81,2.58,3.24,3.24,0,0,1-4,.91A5.58,5.58,0,0,1,437.1,370Z" transform="translate(-16.85 -35.3)"/><path class="cls-2" d="M273.64,419.78c1.3.9,2.4,1.8,3.7,2.8.3.2.3.3.2.6a16.29,16.29,0,0,1-6.7,5.8,15.45,15.45,0,0,1-10.8.6,26.41,26.41,0,0,1-6.7-3.4,25.94,25.94,0,0,1-6.4-6.4c-2.9-4.3-3.4-8.9-1-13.5a12.84,12.84,0,0,1,7.2-6.3,17.09,17.09,0,0,1,6.3-.8,56.2,56.2,0,0,0,5.8.2,6.74,6.74,0,0,0,4.7-2l.5-.5c.5-.5.5-.5,1.1,0,2.1,1.5,4,3.1,6.1,4.5.3.2.3.5.2.6a10.78,10.78,0,0,1-9.5,5.1,46.85,46.85,0,0,0-5.3,0c-2.4.2-4.5.9-5.9,2.9a5.23,5.23,0,0,0-.5,6.3,7.78,7.78,0,0,0,6.7,4,6.17,6.17,0,0,0,4.8-1.8,8.31,8.31,0,0,0,1.3-1.4c.2-.2.3-.3.6,0a24.16,24.16,0,0,0,3.6,2.7Z" transform="translate(-16.85 -35.3)"/><path class="cls-2" d="M276.84,396.38a4.51,4.51,0,0,1-2.2-3.5,3,3,0,0,1,3-3.5,5.81,5.81,0,0,1,5.6,3.2,3.94,3.94,0,0,1,.3,2.6c-.3,1.4-1.9,2.3-3.5,2.3A4.47,4.47,0,0,1,276.84,396.38Z" transform="translate(-16.85 -35.3)"/><path class="cls-2" d="M311.67,227c1.3-.8,2.6-1.7,3.9-2.5q.45-.3.6,0a14.82,14.82,0,0,1,3.7,8,13.23,13.23,0,0,1-2.7,10,20.64,20.64,0,0,1-5.5,5.1,26,26,0,0,1-8.3,3.8,13.8,13.8,0,0,1-13.8-3.2,11.49,11.49,0,0,1-4-8.6,13,13,0,0,1,1.3-6c.6-1.7,1.3-3.5,1.9-5.2a5.65,5.65,0,0,0-.6-4.9,1.33,1.33,0,0,1-.3-.5c-.3-.6-.3-.6.3-.9,2.1-1.4,4.3-2.8,6.4-4.1.3-.2.5-.2.6.2,2.4,3.1,3.5,6.3,2.2,10.1-.6,1.5-1.1,3.2-1.6,4.9a6.79,6.79,0,0,0,1,6.3,5.67,5.67,0,0,0,6.1,2.3,7.49,7.49,0,0,0,5.9-4.9,6,6,0,0,0-.3-4.9,15.05,15.05,0,0,0-1-1.7c-.2-.3-.2-.5.2-.6a35.06,35.06,0,0,0,4-2.7Z" transform="translate(-16.85 -35.3)"/><path class="cls-2" d="M289.37,217.14a6.36,6.36,0,0,1-4.2,1.1,3.09,3.09,0,0,1-2.6-3.8,5.69,5.69,0,0,1,5-4.1,3.6,3.6,0,0,1,2.7.5,2.92,2.92,0,0,1,1.1,3.8A6.72,6.72,0,0,1,289.37,217.14Z" transform="translate(-16.85 -35.3)"/></svg>