<?xml version="1.0" encoding="utf-8"?>
<!-- Generator: Adobe Illustrator 22.1.0, SVG Export Plug-In . SVG Version: 6.00 Build 0)  -->
<svg version="1.1" id="Layer_1" xmlns="http://www.w3.org/2000/svg" xmlns:xlink="http://www.w3.org/1999/xlink" x="0px" y="0px"
	 viewBox="0 0 864.1 1254.6" style="enable-background:new 0 0 864.1 1254.6;" xml:space="preserve">
<style type="text/css">
	.st0{fill:#E1E0ED;}
	.st1{fill:#FBBFC8;}
	.st2{opacity:0.5;fill:url(#WallGrain2_2_);enable-background:new    ;}
	.st3{opacity:5.000000e-02;}
	.st4{opacity:0.1;}
	.st5{display:none;opacity:0.3;fill:#191839;enable-background:new    ;}
	.st6{fill:url(#StandNeck_2_);}
	.st7{fill:url(#SVGID_1_);}
	.st8{opacity:0.3;enable-background:new    ;}
	.st9{opacity:0.2;enable-background:new    ;}
	.st10{opacity:0.5;fill:#191839;enable-background:new    ;}
	.st11{opacity:0.2;fill:#191839;enable-background:new    ;}
	.st12{fill:#474661;}
	.st13{fill:#5D7FAE;}
	.st14{fill:#9CA7EF;}
	.st15{fill:#F9F8FE;}
	.st16{opacity:0.4;fill:url(#SVGID_2_);enable-background:new    ;}
	.st17{opacity:0.1;fill:#191839;enable-background:new    ;}
	.st18{opacity:0.5;}
	.st19{opacity:0.8;fill:#191839;enable-background:new    ;}
	.st20{fill:#D2FAD6;}
	.st21{fill:#35296F;}
	.st22{fill:#9CA8EF;}
	.st23{opacity:0.5;fill:#5D7FAE;enable-background:new    ;}
	.st24{opacity:0.5;fill:#323071;enable-background:new    ;}
	.st25{opacity:0.2;fill:#323071;enable-background:new    ;}
	.st26{fill:#323071;}
	.st27{fill:#23576B;}
	.st28{opacity:0.5;fill:#FFFFFF;enable-background:new    ;}
	.st29{opacity:0.8;}
	.st30{fill:#6FDCCA;}
	.st31{fill:#FFFFFF;}
	.st32{fill:#191839;}
	.st33{fill:#DAD8E8;}
	.st34{fill:#FCD4DB;}
	.st35{fill:#CCC4F4;}
	.st36{fill:#6ABDDE;}
	.st37{fill:url(#ComputerFarSide_6_);}
	.st38{fill:#DBFBDE;}
	.st39{fill:#7D99BE;}
	.st40{fill:#5B598D;}
	.st41{opacity:0.5;fill:url(#WallGrain2_3_);}
	.st42{display:none;opacity:0.3;fill:#191839;}
	.st43{fill:url(#StandNeck_3_);}
	.st44{display:none;opacity:5.000000e-02;}
	.st45{fill:url(#SVGID_3_);}
	.st46{display:none;opacity:0.3;}
	.st47{opacity:0.2;}
	.st48{opacity:0.5;fill:#191839;}
	.st49{opacity:0.2;fill:#191839;}
	.st50{opacity:0.4;fill:url(#SVGID_4_);}
	.st51{opacity:0.1;fill:#191839;}
	.st52{opacity:0.8;fill:#191839;}
	.st53{opacity:0.5;fill:#5D7FAE;}
	.st54{opacity:0.5;fill:#323071;}
	.st55{opacity:0.2;fill:#323071;}
	.st56{opacity:0.5;fill:#FFFFFF;}
	.st57{fill:url(#ComputerFarSide_8_);}
</style>
<title>Algorithm</title>
<g>
	<path class="st0" d="M-907.4,614.9c-10.1-1.6-44-7.7-49-1.2s-16,11.5,61.2,56.7c43.8,25.6,49,34.2,49,34.2l8.7-25.6l62.6,35.8
		l-33.1-62.9C-808,651.9-897.3,616.4-907.4,614.9z"/>
	<path class="st0" d="M-722.5,876.1c0,0,22.7,20.9,47.1,10.5c24.4-10.5,40.1-43.6,62.8-34.9s40.1,15.7,71.5,38.4
		s62.8,57.5,87.2,50.6c24.4-7,27.9-32.3,24.4-37.5s-50.4-43.3-50.4-43.3l-112-70l-17-5.8L-722.5,876.1z"/>
	<path class="st0" d="M-862,1004.2c0,0,57.5,55.1,73.2,76c15.7,20.9,47.1,24.4,66.3,22.7c19.2-1.7,34.9-14,43.6-7
		c8.7,7,34.9,15.7,33.1,33.1s3.5,40.1,22.7,55.8c19.2,15.7,14,10.3,36.2,15.4c22.7,5.2,40.1-16,42.9-34.6
		c3.6-24.1,15.2-72.7,8.3-98.8s-38.2-45.2-46.1-45.9c-7.8-0.8-70.9,34-80.5,26.6s-22.5-16.5-0.3-30.3s44.8-17.2,36.1-27.7
		s-31.4-29.6-31.4-29.6L-862,1004.2z"/>
	<path id="Wall" class="st1" d="M-989.3,543.1l47.1-19.2l7-150c0,0,101.4-3.3,113.6-3.3c12.2,0,19-8.9,19-8.9V285l148.2,15.7v-42.4
		l-326.2-193L-989.3,543.1z"/>
	<g id="WallGrain_1_">
		
			<linearGradient id="WallGrain2_2_" gradientUnits="userSpaceOnUse" x1="-803.7275" y1="1226.548" x2="-899.057" y2="644.1082" gradientTransform="matrix(1 0 0 -1 0 1254)">
			<stop  offset="0" style="stop-color:#FFFFFF;stop-opacity:0"/>
			<stop  offset="1" style="stop-color:#23146B"/>
		</linearGradient>
		<path id="WallGrain2_1_" class="st2" d="M-989.3,543.1l48.8-19.2l5.2-150c0,0,99.4-12.2,111.6-12.2s20.9,0,20.9,0V285l125.6,12.2
			v-52.3L-980.6,65.3L-989.3,543.1z"/>
		<g id="WallGrain_2_" class="st3">
			
				<image style="overflow:visible;enable-background:new    ;" width="385" height="390" xlink:href="../33C180EE.png"  transform="matrix(1 0 0 1 -1026 189.55)">
			</image>
		</g>
		<g class="st4">
			
				<image style="overflow:visible;enable-background:new    ;" width="385" height="551" xlink:href="../33C180ED.png"  transform="matrix(1 0 0 1 -1026 28.55)">
			</image>
		</g>
		<path id="Wall_shadow" class="st5" d="M-972.8,535.2c0,0,20.1-21.8,20.1-53.2s-1.7-59.3,0-76.7c1.7-17.4,0-48.8,0-48.8l134.3-10.5
			l1.7-80.2l127.3,14v-43.6l11.3,4.4v55.8l-125.6-12.2v76.7l-132.5,14l-5.2,150L-972.8,535.2z"/>
	</g>
	<g>
		
			<linearGradient id="StandNeck_2_" gradientUnits="userSpaceOnUse" x1="-889.6346" y1="604.2567" x2="-614.1092" y2="411.5632" gradientTransform="matrix(1 0 0 -1 0 1254)">
			<stop  offset="0" style="stop-color:#5D7FAE"/>
			<stop  offset="1" style="stop-color:#191839"/>
		</linearGradient>
		<polygon id="StandNeck_1_" class="st6" points="-837.6,684.3 -841.1,726.2 -811.5,766.3 -743.5,797.7 -677.2,797.7 -645.8,783.7 
			-653.9,754.1 -706.8,715.7 -753.1,735.8 		"/>
		<g id="StandGrain_1_" class="st3">
			
				<image style="overflow:visible;enable-background:new    ;" width="269" height="187" xlink:href="../33C180EA.png"  transform="matrix(1 0 0 1 -878 647.55)">
			</image>
		</g>
	</g>
	<g id="StandBottom_1_">
		
			<linearGradient id="SVGID_1_" gradientUnits="userSpaceOnUse" x1="-912.6" y1="484.5" x2="-613.4" y2="484.5" gradientTransform="matrix(1 0 0 -1 0 1254)">
			<stop  offset="0" style="stop-color:#5D7FAE"/>
			<stop  offset="1" style="stop-color:#23146B"/>
		</linearGradient>
		<path class="st7" d="M-857,673.3l-55.6,54.6l190.1,137.8l109.1-82.7l-43.7-31.5c0,0,14,24.4-1.7,31.4s-59.3,20.9-118.6-12.2
			c-59.3-33.1-63.6-37.5-61.9-60.2s1.7-26.2,1.7-26.2L-857,673.3z"/>
		<g class="st3">
			
				<image style="overflow:visible;enable-background:new    ;" width="372" height="266" xlink:href="../33C180E5.png"  transform="matrix(1 0 0 1 -949 636.55)">
			</image>
		</g>
		<path id="MonitorShadow_1_" class="st8" d="M-722.5,722.7c0,0,36.6,27.9,40.1,47.1c3.5,19.2-5.2,26.2,7,38.4
			c12.2,12.2,12.2,22.7,12.2,22.7l59.9-40.7l-105.3-84.9L-722.5,722.7z"/>
	</g>
	<g id="StandShadow_2_">
		<path id="StandShadow_3_" class="st9" d="M-736.5,727.9c0,0,24.4,34.9,20.9,62.8s12.2,61,12.2,61l88.9-68l-94.2-68L-736.5,727.9z"
			/>
		<path id="StandShadow_1_" class="st10" d="M-834.1,693c0,0-26.2,24.4,0,41.9c26.2,17.4,68,41.9,90.7,48.8
			c22.7,7,31.4,10.5,43.6,8.7c12.2-1.8,0.9-6.1-14.8-9.6c-15.7-3.5-59.3-26.2-73.2-31.4s-38.4-19.2-45.3-31.4
			C-840.2,707.9-834.1,693-834.1,693z"/>
		<polygon class="st11" points="-851.6,675.6 -862,687.8 -752.2,757.6 -689.4,727.9 -708.6,715.7 -848.1,675.6 		"/>
	</g>
	<g id="Standledge_1_">
		<polygon id="StandSide_1_" class="st12" points="-752.2,719.2 -752.2,734.9 -707.7,714.8 -707.7,706.1 -705,708.1 -665,684.3 
			-678.7,677.1 		"/>
		<g id="StandFrontBar_1_">
			<polygon class="st13" points="-862,652.9 -752.2,719.2 -752.2,734.9 -862,670.4 			"/>
			<g class="st3">
				
					<image style="overflow:visible;enable-background:new    ;" width="183" height="155" xlink:href="../33C180E4.png"  transform="matrix(1 0 0 1 -899 616.55)">
				</image>
			</g>
		</g>
	</g>
	<g id="Standbottom_lip_1_">
		<polygon class="st12" points="-722.5,865.7 -722.5,876.1 -603.3,790.1 -613.4,782.9 		"/>
		<polygon class="st14" points="-912.6,727.9 -912.6,741.9 -722.5,876.1 -722.5,865.7 		"/>
	</g>
	<g id="RoadRight_1_">
		<polygon class="st15" points="-708.6,707 -665,684.3 -440,827.3 -443.5,895.3 		"/>
		
			<linearGradient id="SVGID_2_" gradientUnits="userSpaceOnUse" x1="-707.7" y1="464.2" x2="-440" y2="464.2" gradientTransform="matrix(1 0 0 -1 0 1254)">
			<stop  offset="0" style="stop-color:#FFFFFF;stop-opacity:0"/>
			<stop  offset="1" style="stop-color:#5D7FAE"/>
		</linearGradient>
		<polygon class="st16" points="-707.7,706.1 -665,684.3 -440,827.3 -443.5,895.3 		"/>
		<path class="st17" d="M-682.4,693l41.9,29.6c0,0,50.6,34.9,59.3,45.3c8.7,10.5,15.7,19.2,43.6,34.9c27.9,15.7,47.1,15.7,71.5,27.9
			s10.5,54.1,10.5,54.1l12.2,10.5l3.5-69.8L-665,684.3L-682.4,693z"/>
		<polygon class="st10" points="-665,684.3 -440,830.8 -440,851.7 -671,687.5 		"/>
	</g>
	<g id="RoadLeft_1_" class="st18">
		<polygon class="st15" points="-989.3,543.1 -942.3,523.9 -917.8,548.3 -893.4,536.1 -893.4,564 -825.4,612.8 -825.4,628.5 
			-841.1,637.2 		"/>
		<path class="st17" d="M-989.3,543.1l47.1-19.2l24.4,24.4l24.4-12.2V564l68,48.8v15.7c0,0-15.7-8.7-31.4-22.7
			c-15.7-14-33.1-14-50.6-24.4c-17.4-10.5-26.2-26.2-34.9-33.1C-946.6,544.9-989.3,543.1-989.3,543.1z"/>
		<path class="st19" d="M-973.4,536.6c0,0,16.7-7.5,30.6-0.5c14,7,17.9,17.5,24.9,22.8c7,5.2,13.2-4.9,17.4-3.5
			c3.4,1.1,0.4,12,3.5,14c27.9,17.4,71.5,52.9,71.5,52.9V613l-68-48.8v-27.9l-24.4,12.2l-24.4-24.4L-973.4,536.6z"/>
	</g>
	<g id="LightGreenHouse_1_">
		<path id="Housefront_1_" class="st20" d="M-935.3,373.9l-7,150l24.4,24.4V436.7l24.4,12.2V564l68,48.8v-31.4l-26.2-14l34.9-24.4
			l0.9-52.9c0,0-4.9-37.6-9.6-42c-11.3-10.6-37.8-1.5-45.3-15c-5-8.9-27.7-34.7-34.9-41.9C-912.9,384.2-935.3,373.9-935.3,373.9z"/>
		<polygon id="Innerdoor_1_" class="st21" points="-917.8,548.3 -893.4,537.8 -893.4,448.9 -917.8,436.7 		"/>
		<polygon id="innerdoor_shadow_1_" class="st10" points="-907.4,441.9 -905.6,543.1 -893.4,537.8 -893.4,448.9 		"/>
		<polygon id="Side_1_" class="st22" points="-821.8,486.8 -816.7,543.1 -794,534.3 -794,492.5 -694.6,457.6 -690.3,424.9 
			-776.6,441.9 -825.4,466.3 		"/>
		<polygon id="Side_Shadow_1_" class="st23" points="-821.8,486.8 -816.7,543.1 -794,534.3 -794,492.5 -696.4,454.1 -695.4,424.9 
			-776.6,441.9 -825.4,466.3 		"/>
		<path id="Roof_1_" class="st12" d="M-935.3,373.9l129-12.2c2.2-3.4,111.6,64.5,111.6,64.5s-80.2,26.2-87.2,27.9
			c-7,1.7-36.8,8.3-37.6,24.8c-0.8,16.5-4.2,14.3-6.8,14.4c-2.6,0.1-8.7,0-17.4-10.5c-8.7-10.5-10.5-24.4-26.2-47.1
			s-22.7-34.9-34.9-43.6C-917,383.5-935.3,373.9-935.3,373.9z"/>
	</g>
	<g id="SecondGreenHouse_1_">
		<path id="FrontHouse_1_" class="st20" d="M-808,283.2v78.5l92.7,54.2l19.8,11.2l-0.9,27c0,0,10.5,19.2,20.9,17.4
			s17.4-3.5,17.4-3.5l3.5-167.4L-808,283.2z"/>
		<path id="WindowRight_1_" class="st24" d="M-714.7,320.7l36.6,5.2l-3.5,139.5c0,0-17.4-2.9-14.8-11.3l0.9-27l-19.8-11.2
			L-714.7,320.7z"/>
		<polygon id="WindowLeft_2_" class="st24" points="-789.7,306.8 -790,374.7 -743.5,400.1 -743.9,358.8 -744,345.4 -744.3,315.5 		
			"/>
		<polygon class="st14" points="-654.5,300.7 -658,468.1 -645.8,466.3 -645.8,436.7 -645.8,414 -651,410.5 -551.6,365.2 
			-542.9,369.8 -542.9,324.4 -569.9,308.3 		"/>
		<path id="WindowLeft_1_" class="st25" d="M-767.9,311.1c0,0-6.8,13.7-7,19.2c-0.3,7.2,10,23.1,7,29.6c-8.5,18.6-10.5,19.2,0,26.2
			l24.4,14l-0.4-41.3l-0.1-13.4l-0.3-29.9L-767.9,311.1z"/>
		<polygon class="st26" points="-714.9,356.5 -678.8,356.5 -679.1,367.8 		"/>
		<polygon class="st26" points="-715.3,402.2 -679.7,392.8 -680.3,414.8 		"/>
		<polygon class="st26" points="-790,372.5 -743.5,399.4 -743.7,376.8 		"/>
		<polygon class="st26" points="-789.9,346 -743.9,354.6 -744,346 		"/>
	</g>
	<g id="Backwall_1_">
		<polygon class="st1" points="-654.5,300.7 -654.5,258.3 -569.9,308.3 		"/>
		<polygon class="st1" points="-542.9,319.9 -542.9,370.4 -485.4,400.1 -454.9,377.5 		"/>
	</g>
	<g id="GreenHouseBlackRoofBack_1_">
		<polygon class="st20" points="-584.8,419.3 -584.8,487.3 -504.6,458.2 -504.6,435.8 		"/>
		<polygon class="st27" points="-600.5,421 -602.9,483.8 -583,490.8 -577.8,414 		"/>
		<polygon class="st28" points="-645.8,414 -645.8,476.8 -607.4,492.5 -602.2,485.5 -600.5,421 		"/>
		<path class="st12" d="M-654.5,410.5l102.9-45.3l66.3,34.9l-19.2,14l0.8,40.1l-81-34.9c0,0-11.6,4.6-15.7,5.2
			c-4.7,0.8-7,1.7-19.2,1.7S-654.5,410.5-654.5,410.5z"/>
		<polygon class="st13" points="-640.6,471.6 -640.6,428 -612.7,441.9 -612.7,479.1 		"/>
		<g class="st29">
			<path class="st30" d="M-539.4,377.4c17.4,8.7,52.5,27.7,52.5,27.7l-9.8,4.6l-47.9-32.3L-539.4,377.4L-539.4,377.4z"/>
			<path class="st30" d="M-548.2,408.8c17.4,8.7,52.5,27.7,52.5,27.7l-9.8,4.6l-47.9-32.3L-548.2,408.8L-548.2,408.8z"/>
			<path class="st30" d="M-548.2,389.6c17.4,8.7,52.5,27.7,52.5,27.7l-9.8,4.6l-47.9-32.3L-548.2,389.6L-548.2,389.6z"/>
		</g>
	</g>
	<g id="White_House_front_1_">
		<polygon class="st31" points="-794,498.6 -794,534.3 -769.6,523.9 -698.1,605.8 -698.1,675.6 -689.4,670.4 -658,687.8 -658,543.1 
			-689.4,518.7 		"/>
		<path class="st1" d="M-794,492.5l97.7-38.4c0,0,6.2,4.3,14,10.5c4.2,3.4,9.2,4.7,14.6,4.6c4.8-0.1,9.6-1.2,14.3-1.9
			c8.3-1.2,17-1,24.7,2.3c4.7,2.1,8.8,5.2,13.1,7.9c4.3,2.6,9,4.9,13.8,6.7c4.9,1.9,10.7,3.8,16.1,3.2c0.4,0,0.7-0.1,1.1-0.2
			l-73.4,55.9c0,0-5.2-5.2-33.1-14c-28.7-9-45.6-11.2-61-10.5C-790.5,520.4-794,492.5-794,492.5z"/>
	</g>
	<g id="PurplefrontHouse_1_">
		<polygon class="st21" points="-658,688.7 -658,543.1 -567.3,593.6 -578,741 -595.3,729.7 -590,618 -638.8,586.7 -640.6,700 		"/>
		<polygon class="st13" points="-658,543.1 -567.3,593.6 -488.9,476.8 -534.2,448.9 		"/>
		<polygon class="st31" points="-633.6,543.1 -577.8,576.2 -509.8,476.8 -534.2,464.6 		"/>
		<path class="st32" d="M-520.3,523.9c8.7-14,31.4-47.1,31.4-47.1l-3.5,52C-492.4,528.8-506.3,522.1-520.3,523.9z"/>
		<polygon class="st19" points="-640.6,700 -614.4,661.6 -614.4,602.4 -638.8,586.7 		"/>
		<polygon class="st32" points="-614.4,602.4 -614.4,661.6 -592.8,673.9 -590,618 		"/>
		<polyline class="st33" points="-640.6,700 -614.4,661.6 -592.7,672 -595.3,729.7 		"/>
	</g>
	<g id="WhiteHouseBack_1_">
		<polygon class="st31" points="-505.4,466.7 -507.7,416.2 -417.6,452.2 -420.2,589.5 -507.1,545.3 		"/>
		<polygon class="st20" points="-454,373.9 -507.7,416.2 -417.6,452.2 -408.6,400.1 		"/>
		<g>
			<polygon class="st13" points="-440.6,470.7 -446.3,565.8 -429,575.5 -424.6,478.7 			"/>
			<polygon class="st13" points="-469.2,456.3 -474.8,551.4 -457.6,561.1 -453.1,464.3 			"/>
			<polygon class="st13" points="-496.1,441.8 -501.7,536.9 -484.4,546.6 -480,449.8 			"/>
		</g>
	</g>
	<g id="PinkHouseFront_1_">
		<path class="st20" d="M-567.3,593.6l47.1-69.8c0,0,22.7-7,50.6,24.4s55.4,32.6,54.1,41.9c-3.5,24.4-8.7,36.6-8.7,36.6v62.8
			l-5.2,15.7l-69.8-29.6l-62.8-76.7"/>
		<path class="st34" d="M-567.3,593.6L-578,741l138,89.8l10.4-137.8c0,0-19.2,5.2-43.6-17.4s-27.9-36.6-40.1-47.1
			C-525.5,618-553.4,581.4-567.3,593.6z"/>
		<polygon class="st21" points="-558.6,652.9 -562.1,734.9 -530.7,757.6 -522,673.9 		"/>
		<polygon class="st21" points="-499.3,693 -509.8,769.8 -466.2,797.7 -459.2,715.7 		"/>
	</g>
	<g id="BlueLineRoofHouse_1_">
		<polygon class="st15" points="-825.4,628.5 -862,652.9 -752.2,719.2 -677.2,675.6 -658,688.7 -658,675.6 -682.4,666.9 
			-694.6,675.6 		"/>
		<polygon class="st21" points="-736.5,637.2 -731.3,693 -692.9,673 -698.1,605.8 -708.6,593.8 -746.8,631 		"/>
		<path class="st12" d="M-851.6,567.5c0,0,12.2-15.7,34.9-24.4s47.1-19.2,47.1-19.2l71.5,82l-38.4,31.4l-83.4-50.6L-851.6,567.5z"/>
		<polyline class="st35" points="-825.4,632.9 -731.3,693 -736.5,637.2 -825.4,583.3 		"/>
		<path class="st36" d="M-825.4,565.7c0,0,4.1-2.8,10.5-6.4c9.5-5.5,24-13.1,36.6-16.2l0,0C-757.4,537.8-825.4,565.7-825.4,565.7z"
			/>
		<path class="st36" d="M-808,577.9c0,0,4.1-2.8,10.5-6.4c9.5-5.5,24-13.1,36.6-16.2l0,0C-740,550-808,577.9-808,577.9z"/>
		<path class="st36" d="M-795.8,588.4c0,0,4.1-2.8,10.5-6.4c9.5-5.5,24-13.1,36.6-16.2l0,0C-727.8,560.5-795.8,588.4-795.8,588.4z"
			/>
		<path class="st36" d="M-780.1,600.6c0,0,3.9-2.6,9.7-5.9c8.9-5.1,22.4-12.1,34.1-15l0,0C-716.7,574.8-780.1,600.6-780.1,600.6z"/>
		<path class="st36" d="M-762.6,611.1c0,0,3.6-2.4,9-5.5c8.2-4.7,20.7-11.1,31.6-13.8l0,0C-703.9,587.3-762.6,611.1-762.6,611.1z"/>
		<path class="st32" d="M-756.7,625l-4.2,68c0,0,1.7,1.7,5.2,0s3.5-65.3,3.5-65.3L-756.7,625z"/>
		<polygon class="st32" points="-799.3,649.4 -799.3,614.6 -769.6,630.3 -774.9,665.1 		"/>
		<path class="st32" d="M-816.7,663.4v-74.8l8.8,5.4l-3.5,74.2C-814.5,668.5-815.9,666.3-816.7,663.4z"/>
	</g>
	<g id="ComputerFarSide_2_">
		
			<linearGradient id="ComputerFarSide_6_" gradientUnits="userSpaceOnUse" x1="-993.7668" y1="898.0153" x2="-841" y2="898.0153" gradientTransform="matrix(1 0 0 -1 0 1254)">
			<stop  offset="0" style="stop-color:#5D7FAE"/>
			<stop  offset="1" style="stop-color:#23146B"/>
		</linearGradient>
		<path id="ComputerFarSide_3_" class="st37" d="M-844.6,635.5l-143-94.2l8.7-474.3c0,0-7-7-8.7,17.4c-1.7,24.4-8.7,462.1-5.2,465.6
			s99.4,66.3,99.4,66.3l41.9,29.6l10.5-8.7L-844.6,635.5z"/>
		<g id="ComputerFarSide_1_" class="st3">
			
				<image style="overflow:visible;enable-background:new    ;" width="225" height="653" xlink:href="../33C180E3.png"  transform="matrix(1 0 0 1 -1030 29.55)">
			</image>
		</g>
	</g>
	<g id="ComputerSide_2_">
		<polygon id="ComputerSide_3_" class="st26" points="-413,404.4 -444.4,892.7 -708.6,707 -708.6,715.2 -444.4,903.2 -413,892.7 
			-385.1,394 		"/>
		<g id="ComputerSide_1_" class="st3">
			
				<image style="overflow:visible;enable-background:new    ;" width="396" height="582" xlink:href="../33C180F8.png"  transform="matrix(1 0 0 1 -745 357.55)">
			</image>
		</g>
	</g>
	<g id="ComputerTop_2_">
		<path id="ComputerTop_3_" class="st13" d="M-986.2,74c0,0,2.7-9.7,7.3-7c66.1,37.5,569.1,334.2,565.9,337.4
			c-3.5,3.5,27.9-8.7,27.9-8.7s-226.7-137.8-282.5-167.4C-723.4,198.7-939.5,72.4-948.8,67C-968.7,57.7-984.5,60.8-986.2,74z"/>
		<g id="ComputerTop_1_" class="st3">
			
				<image style="overflow:visible;enable-background:new    ;" width="669" height="416" xlink:href="../33C180FB.png"  transform="matrix(1 0 0 1 -1018 25.55)">
			</image>
		</g>
	</g>
	<path class="st13" d="M-967.5,718.1c-5.9-1.5-32.4,9.2-42.2,24.1c-10.4,15.7-18.5,31.2-29.8,48c-2.7,4-23.9,34-34,36
		s-2.3,14.2,9.1,25.6c13.6,13.6,291.2,218,306.9,230.2c5.3,4.1,10.3,1.1,14.1-1.7c7.6-5.6,12.7-18,20.8-26.2
		c12.2-12.2,34.9-54.1,47.1-69.8s41.9-22.7,41.9-22.7S-961.6,719.6-967.5,718.1z"/>
	<path class="st12" d="M-734.2,1076.4c15.4-12.3,34.3-41.6,53.5-55.6s27.9-22.7,40.1-34.9c12.2-12.2,7-24.4,7-24.4
		s-32.7,7-44.3,24.6c-10.4,15.7-18.5,31.2-29.8,48c-3.5,5.2-20.7,35.9-53.8,44.6C-752.8,1087.5-745.1,1085.2-734.2,1076.4z"/>
	<polygon class="st30" points="-978.9,750.6 -971.9,740.1 -752.2,902.3 -762.6,916.2 	"/>
	<polygon class="st30" points="-992.8,768 -985.9,757.6 -766.1,919.7 -776.6,933.7 	"/>
	<polygon class="st30" points="-1026,808.1 -1019,797.7 -799.3,959.8 -809.7,973.8 	"/>
	<polygon class="st30" points="-1012,787.2 -1005,776.7 -785.3,938.9 -795.8,952.9 	"/>
	<polygon class="st30" points="-1012,858.7 -1007.4,851.7 -862,959.3 -869,968.6 	"/>
	<polygon class="st20" points="-736.5,911 -745.2,921.5 -682.4,968.6 -672,956.4 	"/>
	<polygon class="st20" points="-750.4,925 -759.2,935.4 -696.4,982.5 -685.9,970.3 	"/>
	<polygon class="st20" points="-760.9,942.4 -769.6,952.9 -706.8,999.9 -696.4,987.7 	"/>
	<polygon class="st20" points="-773.1,959.8 -781.8,970.3 -719.1,1017.4 -708.6,1005.2 	"/>
	<path class="st38" d="M-654.5,1172.6c0,0-59-161.9,52.3-155.2c87.2,5.2,29.6,155.2,29.6,155.2H-654.5z"/>
	<path class="st39" d="M-599.4,1017.6c28.1,33.9,31.4,90.2,22.7,114.3c-14.7,40.9-77.8,40.7-77.8,40.7h82
		C-572.6,1172.6-516.3,1025.9-599.4,1017.6z"/>
	<path class="st12" d="M-654.5,1172.6c0,0,12.8-20.9,42.5-20.9c28.4,0,39.5,20.9,39.5,20.9H-654.5z"/>
	<path class="st40" d="M-565.6,1080.1c-0.7-0.4-22-13.1-45.2-13.1s-49.9,12.7-50.7,13.1c0.4-0.7,14.5-24.4,48.8-26.1l0,0l0.3-36.7
		c1.5-0.1,3.1-0.1,4.6-0.1l0.3,36.8C-577.1,1055.1-565.9,1079.4-565.6,1080.1z"/>
</g>
<g>
	<path class="st0" d="M240.3,614.6c-10-1.5-43.9-7.7-48.8-1.2s-15.9,11.5,61,56.5c43.6,25.6,48.8,34.1,48.8,34.1l8.7-25.5l62.5,35.7
		l-33-62.7C339.5,651.4,250.4,616.1,240.3,614.6z"/>
	<path class="st0" d="M424.7,875.1c0,0,22.6,20.9,46.9,10.4c24.3-10.4,40-43.5,62.6-34.8c22.6,8.7,40,15.6,71.3,38.3
		s62.6,57.4,86.9,50.4s27.8-32.2,24.3-37.4c-3.5-5.2-50.3-43.2-50.3-43.2L554.8,789l-17-5.8L424.7,875.1z"/>
	<path class="st0" d="M285.6,1002.7c0,0,57.4,54.9,73,75.8c15.6,20.9,46.9,24.3,66.1,22.6c19.1-1.7,34.8-13.9,43.5-7
		c8.7,7,34.8,15.6,33,33c-1.7,17.4,3.5,40,22.6,55.6c19.1,15.6,14,10.3,36.1,15.4c22.6,5.2,40-15.9,42.7-34.5
		c3.6-24.1,15.2-72.4,8.2-98.5c-7-26.1-38.1-45-45.9-45.8c-7.8-0.8-70.7,33.9-80.3,26.5c-9.6-7.4-22.4-16.5-0.3-30.2
		c22.1-13.7,44.7-17.2,36-27.6S489,958.5,489,958.5L285.6,1002.7z"/>
	<path id="Wall_1_" class="st1" d="M158.6,543l46.9-19.1l7-149.5c0,0,101.1-3.3,113.2-3.3c12.2,0,18.9-8.9,18.9-8.9v-76.5
		l147.8,15.6V259L167.3,66.5L158.6,543z"/>
	<g id="WallGrain_3_">
		<linearGradient id="WallGrain2_3_" gradientUnits="userSpaceOnUse" x1="343.6881" y1="28.8225" x2="248.6326" y2="609.5882">
			<stop  offset="0" style="stop-color:#FFFFFF;stop-opacity:0"/>
			<stop  offset="1" style="stop-color:#23146B"/>
		</linearGradient>
		<path id="WallGrain2" class="st41" d="M158.6,543l48.7-19.1l5.2-149.5c0,0,99.1-12.2,111.3-12.2c12.2,0,20.9,0,20.9,0v-76.5
			l125.2,12.2v-52.2L167.3,66.5L158.6,543z"/>
		<g id="WallGrain" class="st3">
			<image style="overflow:visible;" width="384" height="390" xlink:href="409B37BE.png"  transform="matrix(1 0 0 1 122 189.6)">
			</image>
		</g>
		<g class="st4">
			<image style="overflow:visible;" width="384" height="550" xlink:href="566F0C71.png"  transform="matrix(1 0 0 1 122 29.6)">
			</image>
		</g>
		<path id="Wall_shadow_1_" class="st42" d="M175.1,535.1c0,0,20-21.7,20-53s-1.7-59.1,0-76.5s0-48.7,0-48.7L329,346.5l1.7-80
			l126.9,13.9v-43.5l11.3,4.3v55.6l-125.2-12.2v76.5l-132.2,13.9l-5.2,149.5L175.1,535.1z"/>
	</g>
	<g>
		<linearGradient id="StandNeck_3_" gradientUnits="userSpaceOnUse" x1="258.1106" y1="649.2326" x2="532.8441" y2="841.3722">
			<stop  offset="0" style="stop-color:#5D7FAE"/>
			<stop  offset="1" style="stop-color:#191839"/>
		</linearGradient>
		<polygon id="StandNeck" class="st43" points="309.9,683.8 306.4,725.5 336,765.5 403.8,796.8 469.9,796.8 501.2,782.9 
			493.1,753.4 438.6,713.6 395.1,734.2 		"/>
		<g id="StandGrain" class="st44">
			
				<image style="display:inline;overflow:visible;" width="268" height="186" xlink:href="566F0C77.png"  transform="matrix(1 0 0 1 270 647.6)">
			</image>
		</g>
	</g>
	<g id="StandBottom">
		<linearGradient id="SVGID_3_" gradientUnits="userSpaceOnUse" x1="235.129" y1="768.7413" x2="533.4846" y2="768.7413">
			<stop  offset="0" style="stop-color:#5D7FAE"/>
			<stop  offset="1" style="stop-color:#23146B"/>
		</linearGradient>
		<path class="st45" d="M290.6,672.8l-55.5,54.4l189.5,137.4l108.8-82.5l-43.6-31.4c0,0,13.9,24.3-1.7,31.3s-59.1,20.9-118.2-12.2
			c-59.1-33-63.5-37.4-61.7-60s1.7-26.1,1.7-26.1L290.6,672.8z"/>
		<g class="st44">
			
				<image style="display:inline;overflow:visible;" width="371" height="265" xlink:href="566F0C70.png"  transform="matrix(1 0 0 1 199 636.6)">
			</image>
		</g>
		<path id="MonitorShadow" class="st46" d="M424.7,722.1c0,0,36.5,27.8,40,46.9s-5.2,26.1,7,38.3c12.2,12.2,12.2,22.6,12.2,22.6
			l59.8-40.6l-105-84.6L424.7,722.1z"/>
	</g>
	<g id="StandShadow_4_">
		<path id="StandShadow" class="st47" d="M410.7,727.3c0,0,24.3,34.8,20.9,62.6c-3.5,27.8,12.2,60.9,12.2,60.9l88.7-67.8l-93.9-67.8
			L410.7,727.3z"/>
		<path id="StandShadow_5_" class="st48" d="M313.4,692.5c0,0-26.1,24.3,0,41.7c26.1,17.4,67.8,41.7,90.4,48.7
			c22.6,7,31.3,10.4,43.5,8.7c12.2-1.7,0.9-6.1-14.8-9.6s-59.1-26.1-73-31.3c-13.9-5.2-38.3-19.1-45.2-31.3
			C307.3,707.3,313.4,692.5,313.4,692.5z"/>
		<polygon class="st49" points="296,675.1 285.6,687.3 395.1,756.8 457.7,727.3 438.6,715.1 299.5,675.1 		"/>
	</g>
	<g id="Standledge">
		<polygon id="StandSide" class="st12" points="395.1,718.6 395.1,734.2 438.6,715.1 438.6,706.4 482,683.8 468.4,676.6 		"/>
		<g id="StandFrontBar">
			<polygon class="st13" points="285.6,652.5 395.1,718.6 395.1,734.2 285.6,669.9 			"/>
			<g class="st3">
				<image style="overflow:visible;" width="183" height="155" xlink:href="566F0C73.png"  transform="matrix(1 0 0 1 249 615.6)">
				</image>
			</g>
		</g>
	</g>
	<g id="Standbottom_lip">
		<polygon class="st12" points="424.7,864.6 424.7,875.1 543.6,789.3 533.5,782.1 		"/>
		<polygon class="st14" points="235.1,727.3 235.1,741.2 424.7,875.1 424.7,864.6 		"/>
	</g>
	<g id="RoadRight">
		<polygon class="st15" points="438.6,706.4 482,683.8 706.3,826.4 702.9,894.2 		"/>
		<linearGradient id="SVGID_4_" gradientUnits="userSpaceOnUse" x1="438.5709" y1="788.999" x2="706.3491" y2="788.999">
			<stop  offset="0" style="stop-color:#FFFFFF;stop-opacity:0"/>
			<stop  offset="1" style="stop-color:#5D7FAE"/>
		</linearGradient>
		<polygon class="st50" points="438.6,706.4 482,683.8 706.3,826.4 702.9,894.2 		"/>
		<path class="st51" d="M464.7,692.5l41.7,29.6c0,0,50.4,34.8,59.1,45.2s15.6,19.1,43.5,34.8c27.8,15.6,46.9,15.6,71.3,27.8
			c24.3,12.2,10.4,53.9,10.4,53.9l12.2,10.4l3.5-69.6L482,683.8L464.7,692.5z"/>
		<polygon class="st48" points="482,683.8 706.3,829.9 706.3,850.7 476,686.9 		"/>
	</g>
	<g id="RoadLeft" class="st18">
		<polygon class="st15" points="158.6,543 205.6,523.8 229.9,548.2 254.3,536 254.3,563.8 322.1,612.5 322.1,628.2 306.4,636.9 		
			"/>
		<path class="st51" d="M158.6,543l46.9-19.1l24.3,24.3l24.3-12.2v27.8l67.8,48.7v15.6c0,0-15.6-8.7-31.3-22.6
			c-15.6-13.9-33-13.9-50.4-24.3c-17.4-10.4-26.1-26.1-34.8-33C201.3,544.7,158.6,543,158.6,543z"/>
		<path class="st52" d="M174.6,536.5c0,0,16.7-7.5,30.6-0.5s17.8,17.5,24.8,22.7c7,5.2,13.2-4.9,17.4-3.5c3.4,1.1,0.4,12,3.5,13.9
			c27.8,17.4,71.3,52.7,71.3,52.7v-9.3l-67.8-48.7V536l-24.3,12.2l-24.3-24.3L174.6,536.5z"/>
	</g>
	<g id="LightGreenHouse">
		<path id="Housefront" class="st20" d="M212.5,374.3l-7,149.5l24.3,24.3V436.9l24.3,12.2v114.8l67.8,48.7v-31.3L296,567.3
			l34.8-24.3l0.9-52.7c0,0-4.9-37.5-9.6-41.9c-11.3-10.5-37.7-1.5-45.2-14.9c-5-8.8-27.6-34.6-34.8-41.7S212.5,374.3,212.5,374.3z"
			/>
		<polygon id="Innerdoor" class="st21" points="229.9,548.2 254.3,537.7 254.3,449.1 229.9,436.9 		"/>
		<polygon id="innerdoor_shadow" class="st48" points="240.3,442.1 242.1,543 254.3,537.7 254.3,449.1 		"/>
		<polygon id="Side" class="st22" points="325.7,486.9 330.8,543 353.4,534.3 353.4,492.5 452.5,457.8 456.8,425.2 370.8,442.1 
			322.1,466.4 		"/>
		<polygon id="Side_Shadow" class="st53" points="325.7,486.9 330.8,543 353.4,534.3 353.4,492.5 450.7,454.3 451.7,425.2 
			370.8,442.1 322.1,466.4 		"/>
		<path id="Roof" class="st12" d="M212.5,374.3l128.7-12.2c2.2-3.4,111.3,64.3,111.3,64.3s-80,26.1-86.9,27.8s-36.7,8.3-37.5,24.8
			c-0.9,16.5-4.2,14.3-6.8,14.3c-2.6,0.1-8.7,0-17.4-10.4s-10.4-24.3-26.1-46.9c-15.6-22.6-22.6-34.8-34.8-43.5
			S212.5,374.3,212.5,374.3z"/>
	</g>
	<g id="SecondGreenHouse">
		<path id="FrontHouse" class="st20" d="M339.5,283.9v78.2l92.4,54l19.7,11.2l-0.9,27c0,0,10.4,19.1,20.9,17.4
			c10.4-1.7,17.4-3.5,17.4-3.5l3.5-166.9L339.5,283.9z"/>
		<path id="WindowRight" class="st54" d="M432.5,321.3l36.5,5.2l-3.5,139.1c0,0-17.4-2.9-14.8-11.3l0.9-27l-19.7-11.2L432.5,321.3z"
			/>
		<polygon id="WindowLeft" class="st54" points="357.7,307.3 357.4,375.1 403.8,400.4 403.4,359.2 403.2,345.9 402.9,316 		"/>
		<polygon class="st14" points="492.5,301.3 489,468.2 501.2,466.4 501.2,436.9 501.2,414.3 496,410.8 595.1,365.6 603.8,370.2 
			603.8,324.9 576.8,308.9 		"/>
		<path id="WindowLeft_3_" class="st55" d="M379.5,311.7c0,0-6.7,13.6-7,19.1c-0.3,7.2,9.9,23,7,29.6c-8.5,18.5-10.4,19.1,0,26.1
			l24.3,13.9l-0.4-41.2l-0.1-13.3l-0.3-29.9L379.5,311.7z"/>
		<polygon class="st26" points="432.3,356.9 468.2,356.9 468,368.2 		"/>
		<polygon class="st26" points="431.9,402.5 467.3,393.2 466.8,415 		"/>
		<polygon class="st26" points="357.4,372.8 403.8,399.7 403.6,377.2 		"/>
		<polygon class="st26" points="357.5,346.5 403.3,355.1 403.2,346.5 		"/>
	</g>
	<g id="Backwall">
		<polygon class="st1" points="492.5,301.3 492.5,259 576.8,308.9 		"/>
		<polygon class="st1" points="603.8,320.4 603.8,370.8 661.1,400.4 691.5,377.8 		"/>
	</g>
	<g id="GreenHouseBlackRoofBack">
		<polygon class="st20" points="562,419.5 562,487.3 642,458.3 642,436 		"/>
		<polygon class="st27" points="546.4,421.2 544,483.9 563.8,490.8 569,414.3 		"/>
		<polygon class="st56" points="501.2,414.3 501.2,476.9 539.4,492.5 544.6,485.6 546.4,421.2 		"/>
		<path class="st12" d="M492.5,410.8l102.6-45.2l66.1,34.8L642,414.3l0.8,40L562,419.5c0,0-11.6,4.6-15.6,5.2
			c-4.7,0.8-7,1.7-19.1,1.7C515.1,426.5,492.5,410.8,492.5,410.8z"/>
		<polygon class="st13" points="506.4,471.7 506.4,428.2 534.2,442.1 534.2,479.2 		"/>
		<g class="st29">
			<path class="st30" d="M607.2,377.8c17.4,8.7,52.3,27.6,52.3,27.6l-9.8,4.6L602,377.8H607.2z"/>
			<path class="st30" d="M598.5,409.1c17.4,8.7,52.3,27.6,52.3,27.6l-9.8,4.6l-47.7-32.2H598.5z"/>
			<path class="st30" d="M598.5,389.9c17.4,8.7,52.3,27.6,52.3,27.6l-9.8,4.6l-47.7-32.2H598.5z"/>
		</g>
	</g>
	<g id="White_House_front">
		<polygon class="st31" points="353.4,498.6 353.4,534.3 377.7,523.8 449,605.6 449,675.1 457.7,669.9 489,687.3 489,543 
			457.7,518.6 		"/>
		<path class="st1" d="M353.4,492.5l97.4-38.3c0,0,6.2,4.3,13.9,10.4c4.2,3.4,9.2,4.7,14.5,4.6c4.8-0.1,9.5-1.2,14.3-1.9
			c8.3-1.2,17-1,24.7,2.3c4.7,2.1,8.7,5.2,13.1,7.9c4.3,2.6,9,4.9,13.7,6.7c4.9,1.9,10.7,3.8,16,3.2c0.4,0,0.7-0.1,1.1-0.2L489,543
			c0,0-5.2-5.2-33-13.9c-28.7-9-45.4-11.1-60.9-10.4C356.8,520.4,353.4,492.5,353.4,492.5z"/>
	</g>
	<g id="PurplefrontHouse">
		<polygon class="st21" points="489,688.2 489,543 579.4,593.4 568.8,740.3 551.5,729 556.8,617.7 508.1,586.4 506.4,699.4 		"/>
		<polygon class="st13" points="489,543 579.4,593.4 657.7,476.9 612.5,449.1 		"/>
		<polygon class="st31" points="513.3,543 569,576 636.8,476.9 612.5,464.7 		"/>
		<path class="st32" d="M626.4,523.8c8.7-13.9,31.3-46.9,31.3-46.9l-3.5,51.9C654.2,528.8,640.3,522.1,626.4,523.8z"/>
		<polygon class="st52" points="506.4,699.4 532.5,661.2 532.5,602.1 508.1,586.4 		"/>
		<polygon class="st32" points="532.5,602.1 532.5,661.2 554,673.4 556.8,617.7 		"/>
		<polyline class="st33" points="506.4,699.4 532.5,661.2 554.1,671.5 551.5,729 		"/>
	</g>
	<g id="WhiteHouseBack">
		<polygon class="st31" points="641.2,466.8 638.9,416.4 728.7,452.4 726.1,589.3 639.5,545.2 		"/>
		<polygon class="st20" points="692.4,374.3 638.9,416.4 728.7,452.4 737.6,400.4 		"/>
		<g>
			<polygon class="st13" points="705.8,470.8 700.1,565.6 717.4,575.3 721.8,478.8 			"/>
			<polygon class="st13" points="677.3,456.5 671.6,551.2 688.9,560.9 693.3,464.4 			"/>
			<polygon class="st13" points="650.5,442 644.9,536.8 662.1,546.5 666.5,450 			"/>
		</g>
	</g>
	<g id="PinkHouseFront">
		<path class="st20" d="M579.4,593.4l46.9-69.6c0,0,22.6-7,50.4,24.3s55.2,32.5,53.9,41.7c-3.5,24.3-8.7,36.5-8.7,36.5V689
			l-5.2,15.6l-69.6-29.6l-62.6-76.5"/>
		<path class="st34" d="M579.4,593.4l-10.6,146.9L706,829.6l8.8-136.8c0,0-17.1,4.9-41.5-17.7c-24.3-22.6-27.8-36.5-40-46.9
			C621.1,617.7,593.3,581.2,579.4,593.4z"/>
		<polygon class="st21" points="588.1,652.5 584.6,734.2 615.9,756.8 624.6,673.4 		"/>
		<polygon class="st21" points="647.2,692.5 636.8,769 680.3,796.8 687.2,715.1 		"/>
	</g>
	<g id="BlueLineRoofHouse">
		<polygon class="st15" points="322.1,628.2 285.6,652.5 395.1,718.6 469.9,675.1 489,688.2 489,675.1 464.7,666.4 452.5,675.1 		
			"/>
		<polygon class="st21" points="410.7,636.9 416,692.5 454.2,672.5 449,605.6 438.6,593.6 400.4,630.6 		"/>
		<path class="st12" d="M296,567.3c0,0,12.2-15.6,34.8-24.3c22.6-8.7,46.9-19.1,46.9-19.1l71.3,81.7l-38.3,31.3l-83.2-50.4
			L296,567.3z"/>
		<polyline class="st35" points="322.1,632.5 416,692.5 410.7,636.9 322.1,583.1 		"/>
		<path class="st36" d="M322.1,565.6c0,0,4.1-2.8,10.4-6.4c9.5-5.5,24-13.1,36.5-16.2l0,0C389.9,537.7,322.1,565.6,322.1,565.6z"/>
		<path class="st36" d="M339.5,577.7c0,0,4.1-2.8,10.4-6.4c9.5-5.5,24-13.1,36.5-16.2h0C407.3,549.9,339.5,577.7,339.5,577.7z"/>
		<path class="st36" d="M351.6,588.2c0,0,4.1-2.8,10.4-6.4c9.5-5.5,24-13.1,36.5-16.2l0,0C419.4,560.3,351.6,588.2,351.6,588.2z"/>
		<path class="st36" d="M367.3,600.3c0,0,3.9-2.6,9.7-5.9c8.9-5.1,22.3-12.1,34-15c0,0,0,0,0,0C430.5,574.6,367.3,600.3,367.3,600.3
			z"/>
		<path class="st36" d="M384.7,610.8c0,0,3.6-2.3,9-5.4c8.2-4.7,20.7-11.1,31.5-13.8l0,0C443.2,587.1,384.7,610.8,384.7,610.8z"/>
		<path class="st32" d="M390.6,624.6l-4.2,67.8c0,0,1.7,1.7,5.2,0c3.5-1.7,3.5-65.1,3.5-65.1L390.6,624.6z"/>
		<polygon class="st32" points="348.2,649 348.2,614.2 377.7,629.9 372.5,664.7 		"/>
		<path class="st32" d="M330.8,662.9v-74.6l8.8,5.3l-3.5,74C332.9,668,331.6,665.8,330.8,662.9z"/>
	</g>
	<g id="ComputerFarSide_4_">
		<linearGradient id="ComputerFarSide_8_" gradientUnits="userSpaceOnUse" x1="154.183" y1="356.4426" x2="306.4206" y2="356.4426">
			<stop  offset="0" style="stop-color:#5D7FAE"/>
			<stop  offset="1" style="stop-color:#23146B"/>
		</linearGradient>
		<path id="ComputerFarSide" class="st57" d="M302.9,635.1l-142.6-93.9l8.7-473c0,0-7-7-8.7,17.4c-1.7,24.3-8.7,460.8-5.2,464.3
			c3.5,3.5,99.1,66.1,99.1,66.1l41.7,29.6l10.4-8.7L302.9,635.1z"/>
		<g id="ComputerFarSide_5_" class="st3">
			<image style="overflow:visible;" width="225" height="651" xlink:href="566F0C6F.png"  transform="matrix(1 0 0 1 118 30.6)">
			</image>
		</g>
	</g>
	<g id="ComputerSide_4_">
		<polygon id="ComputerSide" class="st26" points="733.3,404.7 702,891.6 438.6,706.4 438.6,714.6 702,902 733.3,891.6 761.1,394.3 
					"/>
		<g id="ComputerSide_5_" class="st3">
			<image style="overflow:visible;" width="396" height="581" xlink:href="566F0C8F.png"  transform="matrix(1 0 0 1 402 357.6)">
			</image>
		</g>
	</g>
	<g id="ComputerTop_4_">
		<path id="ComputerTop" class="st13" d="M161.8,75.3c0,0,2.7-9.6,7.3-7c65.9,37.4,567.5,333.2,564.2,336.5
			c-3.5,3.5,27.8-8.7,27.8-8.7s-226-137.4-281.7-166.9S208.3,73.6,199,68.3C179.2,59,163.5,62.1,161.8,75.3z"/>
		<g id="ComputerTop_5_" class="st3">
			<image style="overflow:visible;" width="668" height="415" xlink:href="566F0C91.png"  transform="matrix(1 0 0 1 130 26.6)">
			</image>
		</g>
	</g>
	<path class="st13" d="M180.4,717.5c-5.9-1.5-32.3,9.1-42.1,24c-10.4,15.7-18.4,31.2-29.7,47.8c-2.7,4-24.1,32.9-33.9,35.9
		c-6.5,2-9.2,10.2,9.1,25.5c14.7,12.4,290.4,217.4,306,229.5c5.2,4.1,10.2,1.1,14.1-1.7c7.6-5.6,12.6-18,20.7-26.1
		c12.2-12.2,34.8-53.9,46.9-69.6c12.2-15.6,41.7-22.6,41.7-22.6S186.3,719,180.4,717.5z"/>
	<path class="st12" d="M413.1,1074.8c15.4-12.3,34.2-41.5,53.3-55.4s27.8-22.6,40-34.8s7-24.3,7-24.3s-32.6,7-44.2,24.5
		c-10.4,15.7-18.4,31.2-29.7,47.8c-3.5,5.2-20.7,35.8-53.7,44.5C394.4,1085.8,402.2,1083.5,413.1,1074.8z"/>
	<polygon class="st30" points="169.1,749.9 176,739.4 395.1,901.2 384.7,915.1 	"/>
	<polygon class="st30" points="155.1,767.3 162.1,756.8 381.2,918.5 370.8,932.5 	"/>
	<polygon class="st30" points="122.1,807.3 129.1,796.8 348.2,958.5 337.7,972.4 	"/>
	<polygon class="st30" points="136,786.4 143,776 362.1,937.7 351.6,951.6 	"/>
	<polygon class="st30" points="136,857.6 140.6,850.7 285.6,958 278.7,967.2 	"/>
	<polygon class="st20" points="410.7,909.8 402.1,920.3 464.7,967.2 475.1,955.1 	"/>
	<polygon class="st20" points="396.8,923.8 388.1,934.2 450.7,981.1 461.2,969 	"/>
	<polygon class="st20" points="386.4,941.1 377.7,951.6 440.3,998.5 450.7,986.4 	"/>
	<polygon class="st20" points="374.2,958.5 365.5,969 428.1,1015.9 438.6,1003.7 	"/>
	<path class="st38" d="M492.5,1170.7c0,0-58.8-161.4,52.2-154.8c86.9,5.2,29.6,154.8,29.6,154.8H492.5z"/>
	<path class="st39" d="M547.4,1016.2c28.1,33.8,31.3,89.9,22.6,114c-14.7,40.8-77.6,40.6-77.6,40.6h81.7
		C574.2,1170.7,630.3,1024.4,547.4,1016.2z"/>
	<path class="st12" d="M492.5,1170.7c0,0,12.8-20.9,42.4-20.9c28.3,0,39.4,20.9,39.4,20.9H492.5z"/>
	<path class="st40" d="M581.1,1078.5c-0.7-0.4-22-13.1-45.1-13.1c-23.1,0-49.7,12.7-50.5,13.1c0.4-0.7,14.4-24.4,48.7-26.1h0
		l0.3-36.6c1.5-0.1,3-0.1,4.6-0.1l0.3,36.7C569.7,1053.5,580.8,1077.7,581.1,1078.5z"/>
</g>
</svg>
