<?xml version="1.0" encoding="utf-8"?>
<!-- Generator: Adobe Illustrator 22.1.0, SVG Export Plug-In . SVG Version: 6.00 Build 0)  -->
<svg version="1.1" id="Layer_1" xmlns="http://www.w3.org/2000/svg" xmlns:xlink="http://www.w3.org/1999/xlink" x="0px" y="0px"
	 viewBox="0 0 297 350" style="enable-background:new 0 0 297 350;" xml:space="preserve">
<style type="text/css">
	.st0{fill:none;}
	.st1{fill:#D2FAD6;}
	.st2{fill:none;stroke:#D2FAD6;stroke-width:8;stroke-miterlimit:10;}
	.st3{fill:#4B4A68;}
</style>
<title>Artboard 37</title>
<path class="st0" d="M25.1,19h192.4c4.4,0,8,3.6,8,8v300c0,4.4-3.6,8-8,8H25.1c-4.4,0-8-3.6-8-8V27C17.1,22.6,20.7,19,25.1,19z"/>
<path class="st1" d="M217.5,23c2.2,0,4,1.8,4,4v300c0,2.2-1.8,4-4,4H25.1c-2.2,0-4-1.8-4-4V27c0-2.2,1.8-4,4-4H217.5 M217.5,15H25.1
	c-6.6,0-12,5.4-12,12v300c0,6.6,5.4,12,12,12h192.4c6.6,0,12-5.4,12-12V27C229.5,20.4,224.1,15,217.5,15z"/>
<line class="st2" x1="43" y1="71" x2="128" y2="71"/>
<line class="st2" x1="43" y1="55" x2="128" y2="55"/>
<line class="st2" x1="43" y1="109" x2="200" y2="109"/>
<line class="st2" x1="43" y1="127" x2="200" y2="127"/>
<line class="st2" x1="43" y1="145" x2="200" y2="145"/>
<line class="st2" x1="200" y1="174" x2="43" y2="174"/>
<line class="st2" x1="43" y1="192" x2="200" y2="192"/>
<line class="st2" x1="43" y1="210" x2="200" y2="210"/>
<line class="st2" x1="43" y1="239" x2="200" y2="239"/>
<line class="st2" x1="43" y1="257" x2="200" y2="257"/>
<line class="st2" x1="43" y1="275" x2="200" y2="275"/>
<path class="st3" d="M126.7,103h146.7c4.8,0,8.6,3.9,8.6,8.7v165.7c0,4.8-3.9,8.6-8.6,8.6H126.7c-4.8,0-8.7-3.9-8.7-8.6V111.7
	C118,106.9,121.9,103,126.7,103z"/>
<path class="st1" d="M273.4,107c2.6,0,4.6,2.1,4.6,4.7v165.7c0,2.6-2.1,4.6-4.6,4.6H126.7c-2.6,0-4.6-2.1-4.7-4.6V111.7
	c0-2.6,2.1-4.6,4.7-4.7H273.4 M273.4,99H126.7c-7,0-12.6,5.7-12.7,12.7v165.7c0,7,5.7,12.6,12.7,12.6h146.7c7,0,12.6-5.7,12.6-12.6
	V111.7C286,104.7,280.3,99,273.4,99z"/>
<path class="st3" d="M148.7,127h100.6c4.8,0,8.7,3.9,8.7,8.7v63.6c0,4.8-3.9,8.7-8.7,8.7H148.7c-4.8,0-8.7-3.9-8.7-8.7v-63.6
	C140,130.9,143.9,127,148.7,127z"/>
<path class="st1" d="M249.3,131c2.6,0,4.7,2.1,4.7,4.7v63.6c0,2.6-2.1,4.7-4.7,4.7H148.7c-2.6,0-4.7-2.1-4.7-4.7v-63.6
	c0-2.6,2.1-4.7,4.7-4.7H249.3 M249.3,123H148.7c-7,0-12.7,5.7-12.7,12.7v63.6c0,7,5.7,12.7,12.7,12.7h100.6c7,0,12.7-5.7,12.7-12.7
	v-63.6C262,128.7,256.3,123,249.3,123z"/>
<polygon class="st1" points="159,177 182,144 192,160.5 202,177 218,150 242,177 "/>
<line class="st2" x1="142" y1="232" x2="259" y2="232"/>
<line class="st2" x1="142" y1="253.5" x2="259" y2="253.5"/>
</svg>
