<svg xmlns="http://www.w3.org/2000/svg" xmlns:xlink="http://www.w3.org/1999/xlink" viewBox="0 0 782.89 602.82"><defs><style>.cls-1,.cls-11,.cls-2,.cls-32,.cls-6{fill:none;}.cls-2{stroke:#231f20;stroke-width:0.75px;}.cls-3{fill:#d2fad6;}.cls-12,.cls-26,.cls-28,.cls-4,.cls-43{fill:#85b4c7;}.cls-12,.cls-5{opacity:0.5;}.cls-25,.cls-5{fill:url(#linear-gradient);}.cls-37,.cls-40,.cls-43,.cls-6{stroke:#3482a1;}.cls-31,.cls-32,.cls-37,.cls-40,.cls-6{stroke-miterlimit:10;}.cls-37,.cls-38,.cls-45,.cls-49,.cls-7{fill:#3482a1;}.cls-8{fill:url(#linear-gradient-2);}.cls-9{fill:url(#linear-gradient-3);}.cls-10{fill:url(#linear-gradient-4);}.cls-11{stroke:#85b4c7;}.cls-11,.cls-43{stroke-linejoin:round;}.cls-13{fill:url(#linear-gradient-5);}.cls-14{fill:url(#linear-gradient-6);}.cls-15,.cls-31,.cls-44,.cls-46,.cls-47{fill:#fff;}.cls-16,.cls-44{opacity:0.3;}.cls-17{fill:url(#linear-gradient-7);}.cls-18{fill:url(#linear-gradient-8);}.cls-19{fill:url(#linear-gradient-9);}.cls-20,.cls-27{fill:#191839;}.cls-21{fill:url(#linear-gradient-10);}.cls-22{fill:url(#linear-gradient-11);}.cls-23{fill:url(#linear-gradient-12);}.cls-24{fill:url(#linear-gradient-13);}.cls-26,.cls-27,.cls-38,.cls-48{opacity:0.2;}.cls-28,.cls-35,.cls-45,.cls-47,.cls-50,.cls-51{opacity:0.1;}.cls-29{fill:url(#linear-gradient-18);}.cls-30{fill:url(#linear-gradient-19);}.cls-31{stroke:url(#linear-gradient-20);}.cls-32{stroke:url(#linear-gradient-21);}.cls-33{fill:#f8b0bc;}.cls-34{fill:url(#linear-gradient-22);}.cls-35{fill:url(#linear-gradient-23);}.cls-36{opacity:0;fill:url(#linear-gradient-24);}.cls-39{fill:#35296f;}.cls-40,.cls-42{fill:#323071;}.cls-41{fill:url(#linear-gradient-25);}.cls-46{opacity:0.06;}.cls-48{fill:url(#linear-gradient-26);}.cls-49{opacity:0.05;}.cls-51{fill:url(#Ripple);}</style><linearGradient id="linear-gradient" x1="32.72" y1="209.99" x2="101.05" y2="209.99" gradientUnits="userSpaceOnUse"><stop offset="0" stop-color="#323071"/><stop offset="1" stop-color="#191839"/></linearGradient><linearGradient id="linear-gradient-2" x1="67.61" y1="238.49" x2="67.62" y2="238.49" gradientUnits="userSpaceOnUse"><stop offset="0" stop-color="#85b4c7"/><stop offset="0.21" stop-color="#80b1c5"/><stop offset="0.44" stop-color="#73a9bf"/><stop offset="0.68" stop-color="#5d9bb4"/><stop offset="0.93" stop-color="#3e88a6"/><stop offset="1" stop-color="#3482a1"/></linearGradient><linearGradient id="linear-gradient-3" x1="76.74" y1="174.34" x2="101.06" y2="174.34" xlink:href="#linear-gradient-2"/><linearGradient id="linear-gradient-4" x1="10.08" y1="210.11" x2="62.77" y2="210.11" xlink:href="#linear-gradient"/><linearGradient id="linear-gradient-5" x1="54.79" y1="413.26" x2="175.1" y2="413.26" xlink:href="#linear-gradient"/><linearGradient id="linear-gradient-6" x1="95.81" y1="430.34" x2="174.89" y2="430.34" xlink:href="#linear-gradient"/><linearGradient id="linear-gradient-7" x1="103.26" y1="113.16" x2="147.26" y2="113.16" xlink:href="#linear-gradient"/><linearGradient id="linear-gradient-8" x1="195.25" y1="339.77" x2="198.18" y2="339.77" xlink:href="#linear-gradient"/><linearGradient id="linear-gradient-9" x1="195.21" y1="337" x2="195.29" y2="337" xlink:href="#linear-gradient"/><linearGradient id="linear-gradient-10" x1="171.38" y1="236.47" x2="207.54" y2="236.47" xlink:href="#linear-gradient"/><linearGradient id="linear-gradient-11" x1="132.89" y1="217.99" x2="200.02" y2="217.99" xlink:href="#linear-gradient"/><linearGradient id="linear-gradient-12" x1="147.89" y1="100.8" x2="148.07" y2="100.8" xlink:href="#linear-gradient-2"/><linearGradient id="linear-gradient-13" x1="132.89" y1="172.56" x2="162.72" y2="172.56" xlink:href="#linear-gradient-2"/><linearGradient id="linear-gradient-18" x1="205.38" y1="413.65" x2="284.39" y2="413.65" gradientUnits="userSpaceOnUse"><stop offset="0" stop-color="#191839"/><stop offset="1" stop-color="#323071"/></linearGradient><linearGradient id="linear-gradient-19" x1="222.78" y1="422.09" x2="333.48" y2="402.57" gradientUnits="userSpaceOnUse"><stop offset="0" stop-color="#323071"/><stop offset="0.31" stop-color="#28275b"/><stop offset="0.74" stop-color="#1d1c42"/><stop offset="1" stop-color="#191839"/></linearGradient><linearGradient id="linear-gradient-20" x1="241.33" y1="256.86" x2="253.67" y2="256.86" xlink:href="#linear-gradient-18"/><linearGradient id="linear-gradient-21" x1="246.5" y1="259.86" x2="248.42" y2="259.86" xlink:href="#linear-gradient-18"/><linearGradient id="linear-gradient-22" x1="291.91" y1="292.91" x2="245.17" y2="164.46" gradientUnits="userSpaceOnUse"><stop offset="0" stop-color="#3482a1"/><stop offset="0.22" stop-color="#4e92ad"/><stop offset="0.54" stop-color="#6ca5bb"/><stop offset="0.81" stop-color="#7eb0c4"/><stop offset="1" stop-color="#85b4c7"/></linearGradient><linearGradient id="linear-gradient-23" x1="318.29" y1="255.95" x2="266" y2="193.63" gradientUnits="userSpaceOnUse"><stop offset="0.02" stop-color="#3482a1"/><stop offset="0.09" stop-color="#3e88a6"/><stop offset="0.33" stop-color="#5d9bb4"/><stop offset="0.57" stop-color="#73a9bf"/><stop offset="0.8" stop-color="#80b1c5"/><stop offset="1" stop-color="#85b4c7"/></linearGradient><linearGradient id="linear-gradient-24" x1="251.81" y1="218.64" x2="204.99" y2="257.92" xlink:href="#linear-gradient-2"/><linearGradient id="linear-gradient-25" x1="380.87" y1="52.85" x2="439.46" y2="52.85" xlink:href="#linear-gradient"/><linearGradient id="linear-gradient-26" x1="595.99" y1="241.05" x2="610.27" y2="241.05" xlink:href="#linear-gradient-22"/><pattern id="Ripple" data-name="Ripple" width="72" height="72" patternTransform="translate(18.87 19.09) scale(0.3)" patternUnits="userSpaceOnUse" viewBox="0 0 72 72"><rect class="cls-1" width="72" height="72"/><path class="cls-2" d="M80.4,64.14s1,4.06-2.92,4S73.54,70,74.35,72.43,74.17,77.05,71,77"/><path class="cls-2" d="M13.35,15.53s3.79-1.74,4.5,2.08,2.61,3.5,4.82,2.22,4.56-.73,5.14,2.38"/><path class="cls-2" d="M66,28.74s-2.6,3.26-5,.17-3.91-1.94-5.31.2-3.74,2.72-5.65.2"/><path class="cls-2" d="M39,29.05s-3.82-1.67-1.45-4.74S38.45,20,36,19.24s-3.59-2.92-1.66-5.42"/><path class="cls-2" d="M41.14,24.82s4.08-.88,2.36-4.36,0-4.36,2.52-4.67,4.1-2.14,2.7-5"/><path class="cls-2" d="M55.12,14.87s4.08-.88,2.36-4.36,0-4.36,2.52-4.66,4.1-2.15,2.7-5"/><path class="cls-2" d="M27.39,34.19s3.68-2,1.07-4.84-1.21-4.19,1.15-5.18S33,21,30.83,18.64"/><path class="cls-2" d="M10.39,22.94s1.29,4-2.58,4.23S4,29.36,5.05,31.7s.21,4.62-2.94,4.84"/><path class="cls-2" d="M7.56,41.16s-2-3.64,1.72-4.64,3.29-2.87,1.85-5-1.09-4.49,2-5.3"/><path class="cls-2" d="M20.44,17s1.35-3.95,4.61-1.83,4.33.52,4.93-2,2.6-3.82,5.26-2.09"/><path class="cls-2" d="M12.33,44.48S10.57,40.7,14.38,40s3.48-2.63,2.19-4.83S15.8,30.57,18.91,30"/><path class="cls-2" d="M24,38.67s-3.43-2.38-.51-4.93,1.68-4-.55-5.28-3-3.55-.58-5.64"/><path class="cls-2" d="M11,59.64s.31-4.16,4-2.94,4.32-.6,4.28-3.15,1.55-4.36,4.55-3.36"/><path class="cls-2" d="M29.5,52.86s-.38,4.15-4,2.87-4.33.52-4.33,3.07-1.64,4.33-4.62,3.27"/><path class="cls-2" d="M19.67,27.31s-4.17.18-3.38-3.62-1.09-4.23-3.62-3.88-4.51-1-3.87-4.14"/><path class="cls-2" d="M32.71,28s-1.49,3.89,2.36,4.35,3.66,2.37,2.54,4.66-.44,4.6,2.7,5"/><path class="cls-2" d="M3.32,45.67s1.92,3.71,4.82,1.13,4.21-1.15,5.17,1.21,3.15,3.39,5.52,1.29"/><path class="cls-2" d="M51,83.38S49.16,79.64,53,78.81,56.36,76.1,55,73.93s-.89-4.54,2.21-5.22"/><path class="cls-2" d="M64.56,10S67,13.34,63.44,14.8s-2.9,3.26-1.21,5.17,1.65,4.32-1.29,5.51"/><path class="cls-2" d="M60,14.27s-4.09.83-2.41,4.33,0,4.36-2.57,4.64-4.12,2.1-2.75,5"/><path class="cls-2" d="M17.08.72s4.16.2,3,3.91.71,4.31,3.26,4.2,4.39,1.44,3.47,4.47"/><path class="cls-2" d="M39.44,15.71s-4-1-2.23-4.42.13-4.36-2.4-4.74-4-2.26-2.55-5"/><path class="cls-2" d="M18,7.9s-4-1.27-4.22,2.6-2.17,3.78-4.52,2.78-4.62-.18-4.82,3"/><path class="cls-2" d="M8.4,64.14s1,4.06-2.92,4S1.54,70,2.35,72.43,2.17,77.05-1,77"/><path class="cls-2" d="M70.32,33.48s-2.27,3.5-4.91.65-4.08-1.56-5.26.7-3.46,3.07-5.62.75"/><path class="cls-2" d="M50.38,1.6s1,4.06-2.92,4-4,1.86-3.14,4.28S44.15,14.5,41,14.45"/><path class="cls-2" d="M43.88,31.8s-1.63-3.83,2.2-4.44,3.57-2.51,2.35-4.75S47.82,18,51,17.53"/><path class="cls-2" d="M74.88,33.61s-4.15-.44-2.81-4.08-.45-4.34-3-4.38-4.3-1.69-3.2-4.66"/><path class="cls-2" d="M62.12,38.22s3.47-2.32,4.77,1.34S70,42.6,72,41s4.39-1.45,5.45,1.53"/><path class="cls-2" d="M71.68,62.73s-.76,4.1-4.29,2.49-4.36.12-4.59,2.66-2,4.16-4.9,2.84"/><path class="cls-2" d="M28.78,44s4.13.55,2.7,4.15.33,4.35,2.88,4.46,4.26,1.81,3.09,4.75"/><path class="cls-2" d="M14.79,43.43s1.2,4,4.54,2,4.34-.36,4.85,2.14,2.46,3.92,5.18,2.29"/><path class="cls-2" d="M1.79,60S3,64,6.33,62s4.34-.36,4.85,2.15,2.46,3.91,5.18,2.29"/><path class="cls-2" d="M37.88,69s4.15-.36,2.88-4,.54-4.33,3.1-4.31,4.33-1.61,3.29-4.6"/><path class="cls-2" d="M34.49,60.09s3.21,2.66.08,5-2,3.87.09,5.31,2.65,3.79.1,5.66"/><path class="cls-2" d="M50.83,63.59s-3.38-2.45-.39-4.93,1.77-4-.42-5.3-2.88-3.62-.44-5.64"/><path class="cls-2" d="M55.94,59.43s2.82-3.07,5,.17,3.76,2.22,5.31.18,3.92-2.45,5.65.2"/><path class="cls-2" d="M40.17,32.48s4.16.24,3,3.94.67,4.31,3.22,4.23,4.38,1.48,3.43,4.5"/><path class="cls-2" d="M31.67,40.41s-.38,4.16,3.45,3.56,4.17,1.31,3.69,3.82.82,4.55,3.94,4.07"/><path class="cls-2" d="M19.47,42.71s1.07-4,4.47-2.16,4.35.21,4.77-2.31,2.33-4,5.1-2.46"/><path class="cls-2" d="M1.21,13.18s4.16-.22,3-3.93S4.92,5,7.47,5.05,11.86,3.59,10.93.57"/><path class="cls-2" d="M35.69,57.65S31.87,56,31.22,59.8s-2.54,3.54-4.78,2.3-4.57-.66-5.1,2.46"/><path class="cls-2" d="M83.79,52.82s-1.58-3.86-4.7-1.55-4.3.78-5-1.65S71.21,46,68.67,47.85"/><path class="cls-2" d="M67.72,48.84s-1,4-4.44,2.21-4.36-.16-4.75,2.36-2.28,4-5.07,2.52"/><path class="cls-2" d="M59.64,60.81s-.13,4.17-3.86,3.11-4.29.78-4.13,3.33-1.37,4.42-4.41,3.55"/><path class="cls-2" d="M51.35,47.94s2-3.65,4.86-1,4.17,1.27,5.19-1.07,3.24-3.3,5.55-1.14"/><path class="cls-2" d="M41.29,59.08s-2-3.68,1.81-4.61,3.33-2.81,1.93-4.95S44,45,47.09,44.25"/><path class="cls-2" d="M62,83.53s-1.29-4,2.58-4.23,3.78-2.19,2.76-4.53-.21-4.62,3-4.84"/><path class="cls-2" d="M46.41,34s4.1-.82,3.89,3.06,1.73,4,4.18,3.28,4.61.34,4.45,3.51"/><path class="cls-2" d="M66.59,12.82s4.13-.53,3.67,3.32,1.45,4.12,3.94,3.56,4.58.65,4.2,3.79"/><path class="cls-2" d="M65.07,53.84s2.41,3.4,4.93.45,4-1.73,5.29.48,3.58,2.93,5.64.52"/><path class="cls-2" d="M45.46,62.83s-3.72,1.88-1.18,4.81S45.39,71.86,43,72.8s-3.42,3.11-1.35,5.5"/><path class="cls-2" d="M28.23,80.31s-3.57-2.15-.81-4.88,1.43-4.13-.87-5.24-3.18-3.36-.92-5.59"/><path class="cls-2" d="M20,65.69s1.2,4-2.68,4.17S13.46,72,14.42,74.32s.1,4.62-3.06,4.76"/><path class="cls-2" d="M2.88,33.61s-4.15-.44-2.81-4.08-.45-4.34-3-4.38-4.3-1.69-3.2-4.66"/><path class="cls-2" d="M-9.88,38.22s3.47-2.32,4.77,1.34S-2,42.6,0,41s4.39-1.45,5.45,1.53"/><path class="cls-2" d="M-.32,62.73s-.76,4.1-4.29,2.49S-9,65.34-9.2,67.88s-2,4.16-4.9,2.84"/><path class="cls-2" d="M-16.06,59.43s2.82-3.07,4.95.17,3.76,2.22,5.31.18,3.92-2.45,5.65.2"/><path class="cls-2" d="M11.79,52.82S10.21,49,7.09,51.27s-4.3.78-5-1.65S-.79,46-3.33,47.85"/><path class="cls-2" d="M-5.41,12.82s4.13-.53,3.67,3.32S-.29,20.26,2.2,19.7s4.58.65,4.2,3.79"/><path class="cls-2" d="M-6.93,53.84s2.41,3.4,4.93.45,4-1.73,5.29.48,3.58,2.93,5.64.52"/><path class="cls-2" d="M80.4-7.86s1,4.06-2.92,4S73.54-2,74.35.43,74.17,5.05,71,5"/><path class="cls-2" d="M51,11.38S49.16,7.64,53,6.81,56.36,4.1,55,1.93s-.89-4.54,2.21-5.22"/><path class="cls-2" d="M8.4-7.86s1,4.06-2.92,4S1.54-2,2.35.43,2.17,5.05-1,5"/><path class="cls-2" d="M34.49-11.91s3.21,2.66.08,5-2,3.87.09,5.31,2.65,3.79.1,5.66"/><path class="cls-2" d="M62,11.53s-1.29-4,2.58-4.23,3.78-2.19,2.76-4.53-.21-4.62,3-4.84"/><path class="cls-2" d="M45.46-9.17s-3.72,1.88-1.18,4.81S45.39-.14,43,.8s-3.42,3.11-1.35,5.5"/><path class="cls-2" d="M28.23,8.31s-3.57-2.15-.81-4.88,1.43-4.13-.87-5.24-3.18-3.36-.92-5.59"/><path class="cls-2" d="M20-6.31s1.2,4-2.68,4.17S13.46,0,14.42,2.32s.1,4.62-3.06,4.76"/></pattern></defs><title>youngprofessionals</title><g id="Left_Man" data-name="Left Man"><path class="cls-3" d="M103.75,51S99,52.25,99.29,55.75s-2.58,6.69,0,10.51a39.11,39.11,0,0,0,4,4.93,2.69,2.69,0,0,1,.39.5,2.88,2.88,0,0,1,.28,1c.49,3.17.3,7.69,2.24,10.31,1.33,1.81,2.75,3.56,4.21,5.27,2.49,2.9,7.15,9.18,11.54,8.92,5.41-.32,13.69,1.91,20.06-5.1a60.44,60.44,0,0,0,9.55-14s4.09.92,5.74-.32,3.5-6,4.45-9.55a16.44,16.44,0,0,0,0-7.32l-8,4.14s5.42-18.16,2.55-23.89-5.09-13.69-18.15-14-15.61-1.27-20.7,2.55-11.78,25.47-11.78,25.47Z" transform="translate(-10.08 -13.66)"/><path class="cls-4" d="M149.05,609.84c.16,2.2-1.58,3.81-6.48,4.24-18,1.58-29.47-3.64-31.63-4.72a1.81,1.81,0,0,0-.82-.2h-3l-9.58-.7a1.83,1.83,0,0,1-1.7-1.83l.27-5.82c-.61-2.81-.31-14.37.22-19.25a1.82,1.82,0,0,1,.89-1.37c3.28-1.94,16.16-9,24-5,2.27,1.15,4,1.13,5.4.41a1.83,1.83,0,0,1,2.72,1.78c-.27,2.39-1.24,5.24,2.76,10.06C140.12,597.08,151.22,605.42,149.05,609.84Z" transform="translate(-10.08 -13.66)"/><path class="cls-5" d="M92.89,160.05c2.75,26.94-7.75,67.19-13,84.94s-25.16,77.42-25.16,77.42c-16.62,2-22-6.55-22-6.55,1-3.65,2.18-9.11,3.41-15.37.41.67.83,1.34,1.26,2l25.38-20.75s-5.41-8.42-10.33-16.61c-2.46-4.1-4.8-8.15-6.26-11l.21-.6c.08-.21.15-.43.22-.65s.15-.45.22-.68l.21-.71c.09-.3.17-.61.25-.92s.17-.64.25-1c3.18-13.17,3.74-36.64,3.83-43.07,0-1.07,0-1.67,0-1.67,4.5-42.16-6.08-87.08-6.08-87.08a9.15,9.15,0,0,1,2.46-.85c3.59-.89,9.73-1.72,13.29-2.73,4.66-1.34,13.33-6.67,25-8.67,11.22-1.92,14.74-7.78,15-8.21C100.79,98.47,91.66,139.3,92.89,160.05Z" transform="translate(-10.08 -13.66)"/><ellipse class="cls-6" cx="62.43" cy="245.46" rx="1.63" ry="2.12"/><ellipse class="cls-6" cx="70.81" cy="213.96" rx="1.63" ry="2.38"/><path class="cls-7" d="M48.25,250.81l11.59,3.36L57.43,263c-.23.83-1.25,1.25-3,1.25a13.28,13.28,0,0,1-1.35-.07c-2.58-4.33-4.53-7.74-5.77-10.18l.06-.17c.08-.22.16-.46.22-.66s.16-.48.24-.73l.21-.71c.09-.3.17-.6.25-.93m-.71-1.25h0l-.24,1c-.08.31-.16.62-.25.92l-.21.71c-.07.23-.14.46-.22.68s-.14.44-.22.65l-.21.6c1.46,2.89,3.8,6.94,6.26,11a16.94,16.94,0,0,0,2,.13c2,0,3.6-.52,4-2l2.67-9.78-13.52-3.93Z" transform="translate(-10.08 -13.66)"/><polygon class="cls-8" points="67.61 238.49 67.61 238.49 67.61 238.49 67.61 238.49"/><path class="cls-9" d="M90.49,104.41v0c-2,4.18-8.92,10.37-8.92,10.37l4.82,6.69H79.61s-6.22,30.33-.34,69.72c5.25,35.25-.15,56.2-1.35,60.22.78-2.5,1.45-4.68,2-6.44,5.25-17.75,15.75-58,13-84.94-1.25-21.06,8.17-62.8,8.17-62.8S98.58,101.85,90.49,104.41Z" transform="translate(-10.08 -13.66)"/><path class="cls-10" d="M62.77,281.74,37.39,302.49c-.43-.66-.85-1.33-1.26-2h0c-5.81-9.58-9-19.89-13.36-27.24-4.63-7.87-.63-11.13-5.88-17.13s-4.62-18.24-4.62-18.24-.76-21-2-26,4.24-9,4.24-9,.88-7.76,2.38-9.88,6.25-16.12,6.25-16.12a20.37,20.37,0,0,1,7.13-15.63c-1.88-8.75,2.45-11.63,2.45-11.63,0-4.74.42-11.12,4.17-14.74s3.62-11.5,3.5-14,4.92-3.13,4.92-3.13,10.58,44.92,6.08,87.08c0,0,0,.6,0,1.67L43.72,224s-2.71,7.12,0,8.88.79,13.87.92,17.37a13.47,13.47,0,0,0,1.54,3.85c1.46,2.89,3.8,6.94,6.26,11C57.36,273.32,62.77,281.74,62.77,281.74Z" transform="translate(-10.08 -13.66)"/><path class="cls-7" d="M186.27,546.11c-.13-11.75.12-9.37.12-9.37l3.75-.2s3-19.43.25-24.68-3.87-4.87-9.5-4.62a1.1,1.1,0,0,0-.66.3c1.38.83,2.13,2.11,3,4.2,2,4.62-.75,29.87-.88,35.37s7.25,13.63,7.25,32.5A39.81,39.81,0,0,1,176.89,609h-.06c1.62.77,3,1.21,3.44.8,1.37-1.25,12.5-12,12.5-32S186.39,557.86,186.27,546.11Z" transform="translate(-10.08 -13.66)"/><path class="cls-4" d="M182.39,547.11c.13-5.5,2.88-30.75.88-35.37s-3.22-5.31-12.36-5.84l2.73,1.84s4.47,6.75-2.26,21a25.64,25.64,0,0,1-21,14.75s-.75,8.12,5.13,13.93,9.25,11.82,10.25,22.82.87,27.43,11.12,28.71a39.81,39.81,0,0,0,12.75-29.34C189.64,560.74,182.27,552.61,182.39,547.11Z" transform="translate(-10.08 -13.66)"/><polygon class="cls-11" points="137.99 87.46 137.99 87.46 137.99 87.46 137.99 87.46 137.99 87.46"/><path class="cls-11" d="M132.89,240.21s2.25-53.29,7.25-74.13c4.81-20,10.3-54.27,8.06-64.46l-.13-.5h0l-1.28-2.6a94.28,94.28,0,0,1-20.4,19.31v12c-3.33,1.31-8,15.35-8,15.35-3.67-7-3.45-26-3.45-26a123.25,123.25,0,0,1-12.3-23.41L101,97.63c-.92,4.17-9.26,42.52-8.08,62.42,2.75,26.94-7.75,67.19-13,84.94-2.06,6.95-6.36,20.34-10.84,34.05,8.83-1.84,29.59-10.93,29.59-10.93,4.32.9,25.57,1.09,37.12,1.12C133.89,256.09,132.82,244.62,132.89,240.21Z" transform="translate(-10.08 -13.66)"/><polygon class="cls-11" points="137.99 87.46 137.99 87.46 137.99 87.46 137.99 87.46 137.99 87.46"/><path class="cls-11" d="M132.89,240.21s2.25-53.29,7.25-74.13c4.81-20,10.3-54.27,8.06-64.46l-.13-.5h0l-1.28-2.6a94.28,94.28,0,0,1-20.4,19.31v12c-3.33,1.31-8,15.35-8,15.35-3.67-7-3.45-26-3.45-26a123.25,123.25,0,0,1-12.3-23.41L101,97.63c-.92,4.17-9.26,42.52-8.08,62.42,2.75,26.94-7.75,67.19-13,84.94-2.06,6.95-6.36,20.34-10.84,34.05,8.83-1.84,29.59-10.93,29.59-10.93,4.32.9,25.57,1.09,37.12,1.12C133.89,256.09,132.82,244.62,132.89,240.21Z" transform="translate(-10.08 -13.66)"/><path class="cls-12" d="M140.14,166.08c3.7-15.44,7.81-39.32,8.48-54.12l-2.43,6.91c-5.08,28-8.12,58.49-8.12,58.49h0C138.7,173.06,139.39,169.2,140.14,166.08Z" transform="translate(-10.08 -13.66)"/><path class="cls-13" d="M173.64,507.74l-13-8.75c.5-7.25-5.75-10.75-5.75-10.75-9.25-8.75-11-16.75-11-16.75-7.65-28.21-31-56-31-56L115,414.2l-2.86-5.71.75-2.5-1-4.75s0-13,.75-18.1,4.52-35,5.15-40S135,317.74,135,317.74l-11.79-32.81c-25.73,1.47-44.49-.59-53.15-1.9-4.51,4.29-11.46,11.48-13.92,17.21C52.39,309,57.64,337,57.64,337c2.92,10.33,1.58,16.33,3.42,40.66s4.58,30.84,4.58,30.84c-2.25,3.75,2,5.16,2,5.16l1.5,4.84c-3.75,5,2,6.5,2,6.5s5.75,12.5,12,25,26.75,37.75,35.75,48.75,31.5,44.75,31.5,44.75a25.64,25.64,0,0,0,21-14.75C178.11,514.49,173.64,507.74,173.64,507.74Z" transform="translate(-10.08 -13.66)"/><path class="cls-14" d="M174.89,279.31l-30.82.74.65,2.94c-9.78,1.21-18.87,1.89-27.16,2.22,2.73,5.91,6.08,15.48,6.08,32,0,20.25-5.5,23.12-5.5,23.12L115,365.24s.14,3.25,0,9,1.89,14.5,0,19.75,0,20.21,0,20.21-7.86,86-9.11,103.54-2.75,27.25-7.5,35.75c-3.39,6.06-2.71,19.61-2,26.89.18,1.89.13.62,1.59-.19,3.33-1.84,16.16-9,24-5,2.27,1.15,4,1.13,5.4.41a1.91,1.91,0,0,1,1-.22,32.47,32.47,0,0,1,2.65-9.2c2.09-4.3,6.28-6.76,9.08-11,6.5-9.84,12.75-66.66,12.75-66.66,1.25-7.75,3.75-46.25,3.75-46.25,2.75-5.5,6-22.5,5.25-26.75s6.75-33,8-43.75S174.89,279.31,174.89,279.31Z" transform="translate(-10.08 -13.66)"/><polygon class="cls-15" points="137.99 87.46 137.99 87.46 137.99 87.46 137.99 87.46 137.99 87.46"/><path class="cls-15" d="M132.89,240.21s2.25-53.29,7.25-74.13c4.81-20,10.3-54.27,8.06-64.46l-.13-.5h0l-1.28-2.6a94.28,94.28,0,0,1-20.4,19.31v12c-3.33,1.31-8,15.35-8,15.35-3.67-7-3.45-26-3.45-26-5.74-8.33-12.26-21.16-12.3-23.41L101,97.63c-.92,4.17-9.26,42.52-8.08,62.42,2.75,26.94-7.75,67.19-13,84.94-2.06,6.95-6.36,20.34-10.84,34.05,8.83-1.84,29.59-10.93,29.59-10.93,4.32.9,25.57,1.09,37.12,1.12C133.89,256.09,132.82,244.62,132.89,240.21Z" transform="translate(-10.08 -13.66)"/><g class="cls-16"><path class="cls-4" d="M102.11,97.85c.65,1.57,2,4.31,4.68,9.28,2,3.74,4.11,7.4,5,9-4.2,3.2-8.2,8.4-10.21,11.22a91.33,91.33,0,0,0-3.46-10.47l3.79-18.74.21-.24m.53-2.11s-.06,0-.08.09l.08-.09Zm-.08.09L101,97.63l-3.9,19.28c1.65,4.28,3.45,9.42,4,12.89,0,0,6-9.22,12-13.44,0,0-10.94-19-10.53-20.53Z" transform="translate(-10.08 -13.66)"/></g><g class="cls-16"><path class="cls-4" d="M146.6,100.35a20.86,20.86,0,0,1,1.12,9.35,59.62,59.62,0,0,1-9,21.62c-.19-3.65-1.51-9.64-7.13-16a109.13,109.13,0,0,0,15-14.94m.19-1.84a107.65,107.65,0,0,1-16.62,16.68c9.47,10.17,7.39,19.55,7.39,19.55a61.25,61.25,0,0,0,11.15-24.91c.33-4.74-.27-8.55-1.92-11.32Z" transform="translate(-10.08 -13.66)"/></g><path class="cls-17" d="M145,88.46l-.26.33c-.32.41-.66.83-1,1.24l-.36.44c-.45.52-.91,1-1.39,1.58-6.37,7-14.65,4.78-20.06,5.1a3.17,3.17,0,0,1-.53,0c-4.23-.24-8.62-6.12-11-8.9h0c-.66-.78-1.28-1.53-1.85-2.23l-.6-.76c-.71-.89-1.31-1.67-1.74-2.26h0c-.51-.68-.8-1.1-.8-1.1l-.11-.69c.26,6.07-1.17,9.29-2,16.11,2.38,5.08,7.89,16.38,11.68,21.87,0,0-.22,19,3.45,26,0,0,4.67-14,8-15.35v-12a94.71,94.71,0,0,0,20.34-19.23l.53-13.27h0C146.57,86.32,145.81,87.37,145,88.46Z" transform="translate(-10.08 -13.66)"/><path class="cls-3" d="M195.53,337.25c-3.49-3.16-10.65-7.3-23.09-5.33-1.87,4.58-4,12-4.22,15.4-.33,4.5-2.16,5.17-4.5,12.33s5.67,2.5,5.67,2.5c3-2.78,5.27-9.22,6.44-13.18.58-2,2.39,2,2.39,2,6.38,10-6.66,15-11.77,23s3.27,4,11.44,1.33,11-7.83,12.83-12.17,4.84-8,4.5-14.83A103.63,103.63,0,0,1,195.53,337.25Z" transform="translate(-10.08 -13.66)"/><path class="cls-18" d="M195.25,342.28a12.34,12.34,0,0,0,2.93-2,15.28,15.28,0,0,0-2.65-3C195.41,338.87,195.31,340.59,195.25,342.28Z" transform="translate(-10.08 -13.66)"/><path class="cls-19" d="M195.29,337l-.08-.07h0Z" transform="translate(-10.08 -13.66)"/><path class="cls-20" d="M141.72,269.49s-14.21-.11-26.68-.48c-7.52-.16-14.18-.44-16.4-.9,0,0-20.76,9.09-29.59,10.93v0l-1.2,3.66c9.1,1.53,37.34,5.2,76.86.31Z" transform="translate(-10.08 -13.66)"/><path class="cls-21" d="M204,173.61a101.64,101.64,0,0,0-.81-13.56c1.82-6.18,0-19.34,0-19.34C203,134,200,132.57,200,132.57a247.78,247.78,0,0,0-16.73,46.33s-6.15,16.84-8.15,22.59-2.75,24-2,34.75,5.08,15,5.5,29c.36,12-5.51,54.48-7.26,66.83,20-3.64,26.84,8.27,26.84,8.27s8.17-55.37,9.17-68S203.89,180.36,204,173.61Z" transform="translate(-10.08 -13.66)"/><path class="cls-22" d="M170.89,335.49s-8.9,0-20.33-11c-9.67-8.63-17.87-72.34-17.67-84.28,0,0,2.25-53.29,7.25-74.13s10.75-57.09,7.75-65.59a13.88,13.88,0,0,0,7.5,8.75c6.25,3,10,2.25,24.25,12,0,0,7.63,2.62,11.79,5.29s8.59,6,8.59,6a247.78,247.78,0,0,0-16.73,46.33s-6.15,16.84-8.15,22.59-2.75,24-2,34.75,5.08,15,5.5,29S170.89,335.49,170.89,335.49Z" transform="translate(-10.08 -13.66)"/><path class="cls-23" d="M148.07,101.11a5.61,5.61,0,0,0-.18-.62S147.94,100.72,148.07,101.11Z" transform="translate(-10.08 -13.66)"/><path class="cls-24" d="M154.39,108.71a14.11,14.11,0,0,1-6.32-7.6c2.56,9.51-3,44.59-7.93,65-5,20.84-7.25,74.13-7.25,74.13,0,.95,0,2.24.11,3.8,1.28-10.11,3.92-25.38,9.14-38.89,8.75-22.63,18.48-58.13,20-76.38l-6.32-1.09,6.91-3.16S157.88,116.37,154.39,108.71Z" transform="translate(-10.08 -13.66)"/><path class="cls-7" d="M177.14,259a58,58,0,0,1,.5,6.25c.05,1.69,0,4.11-.23,7.21-2.94.1-5.16.21-6.6.32h-.07c-2.12,0-3.79-6.62-4.36-11.6L177.14,259m.83-1.19-12.68,2.57s1.24,13.4,5.45,13.4h.15c1.83-.14,4.72-.26,7.46-.36.24-3.39.35-6.22.29-8.2a57.61,57.61,0,0,0-.67-7.41Z" transform="translate(-10.08 -13.66)"/><path class="cls-7" d="M175.39,165.24v3.84l-21.08,2c.14-.52.28-1,.43-1.55a144.74,144.74,0,0,1,20.65-4.28m1-1.14a146.67,146.67,0,0,0-22.47,4.63c-.32,1.16-.64,2.31-1,3.47L176.39,170V164.1Z" transform="translate(-10.08 -13.66)"/><path class="cls-25" d="M92.89,160.05c2.75,26.94-7.75,67.19-13,84.94s-25.16,77.42-25.16,77.42c-16.62,2-22-6.55-22-6.55,1-3.65,2.18-9.11,3.41-15.37.41.67.83,1.34,1.26,2l25.38-20.75s-5.41-8.42-10.33-16.61c-2.46-4.1-4.8-8.15-6.26-11l.21-.6c.08-.21.15-.43.22-.65s.15-.45.22-.68l.21-.71c.09-.3.17-.61.25-.92s.17-.64.25-1c3.18-13.17,3.74-36.64,3.83-43.07,0-1.07,0-1.67,0-1.67,4.5-42.16-6.08-87.08-6.08-87.08a9.15,9.15,0,0,1,2.46-.85c3.59-.89,9.73-1.72,13.29-2.73,4.66-1.34,13.33-6.67,25-8.67,11.22-1.92,14.74-7.78,15-8.21C100.79,98.47,91.66,139.3,92.89,160.05Z" transform="translate(-10.08 -13.66)"/><ellipse class="cls-6" cx="62.43" cy="245.46" rx="1.63" ry="2.12"/><ellipse class="cls-6" cx="70.81" cy="213.96" rx="1.63" ry="2.38"/><path class="cls-7" d="M48.25,250.81l11.59,3.36L57.43,263c-.23.83-1.25,1.25-3,1.25a13.28,13.28,0,0,1-1.35-.07c-2.58-4.33-4.53-7.74-5.77-10.18l.06-.17c.08-.22.16-.46.22-.66s.16-.48.24-.73l.21-.71c.09-.3.17-.6.25-.93m-.71-1.25h0l-.24,1c-.08.31-.16.62-.25.92l-.21.71c-.07.23-.14.46-.22.68s-.14.44-.22.65l-.21.6c1.46,2.89,3.8,6.94,6.26,11a16.94,16.94,0,0,0,2,.13c2,0,3.6-.52,4-2l2.67-9.78-13.52-3.93Z" transform="translate(-10.08 -13.66)"/><polygon class="cls-8" points="67.61 238.49 67.61 238.49 67.61 238.49 67.61 238.49"/><path class="cls-9" d="M90.49,104.41v0c-2,4.18-8.92,10.37-8.92,10.37l4.82,6.69H79.61s-6.22,30.33-.34,69.72c5.25,35.25-.15,56.2-1.35,60.22.78-2.5,1.45-4.68,2-6.44,5.25-17.75,15.75-58,13-84.94-1.25-21.06,8.17-62.8,8.17-62.8S98.58,101.85,90.49,104.41Z" transform="translate(-10.08 -13.66)"/><path class="cls-10" d="M62.77,281.74,37.39,302.49c-.43-.66-.85-1.33-1.26-2h0c-5.81-9.58-9-19.89-13.36-27.24-4.63-7.87-.63-11.13-5.88-17.13s-4.62-18.24-4.62-18.24-.76-21-2-26,4.24-9,4.24-9,.88-7.76,2.38-9.88,6.25-16.12,6.25-16.12a20.37,20.37,0,0,1,7.13-15.63c-1.88-8.75,2.45-11.63,2.45-11.63,0-4.74.42-11.12,4.17-14.74s3.62-11.5,3.5-14,4.92-3.13,4.92-3.13,10.58,44.92,6.08,87.08c0,0,0,.6,0,1.67L43.72,224s-2.71,7.12,0,8.88.79,13.87.92,17.37a13.47,13.47,0,0,0,1.54,3.85c1.46,2.89,3.8,6.94,6.26,11C57.36,273.32,62.77,281.74,62.77,281.74Z" transform="translate(-10.08 -13.66)"/><path class="cls-26" d="M103.28,245.11a40.44,40.44,0,0,1-4.23-4L98.13,240c-.29-.37-.56-.75-.84-1.13a11.94,11.94,0,0,1-.74-1.16l-.81-1.3a19.9,19.9,0,0,0-4.56-5.28,15.88,15.88,0,0,0-2.83-1.83,23.39,23.39,0,0,0-3.07-1.18c-.24-.08-.48-.14-.73-.21q-.72,2.9-1.43,5.56c1.67.87,3.26,1.75,4.85,2.53a24.94,24.94,0,0,1,2.34,1.25l1,.76a6.82,6.82,0,0,1,.9.88c.15.17.29.28.46.49l.52.66a13.19,13.19,0,0,0,1.09,1.25c.38.4.75.8,1.14,1.17l1.2,1.08a42.83,42.83,0,0,0,5.11,3.68,67.49,67.49,0,0,0,11.08,5.4l.39-.92A58.11,58.11,0,0,1,103.28,245.11Z" transform="translate(-10.08 -13.66)"/><path class="cls-26" d="M113.25,251.69s.86-38.45,0-41.58-3.11-12.37-1.11-30.12,5.44-37,.35-43.25-8.74-10-8.74-10l9.64-9.91,1.55,2.32c.16,10,.58,19.58,3.42,26l1,7.81a250,250,0,0,1-2.5,30.66c-2.25,13.86,1,22.11.75,30.86s-1,37.66-1,37.66Z" transform="translate(-10.08 -13.66)"/><path class="cls-26" d="M136.14,124.38s-11.25,21-14.25,44.73a211,211,0,0,0-.62,44.75s1.56-60.79,16.48-81.29A25.34,25.34,0,0,0,136.14,124.38Z" transform="translate(-10.08 -13.66)"/><path class="cls-26" d="M136.67,188.44c-2.53.87-9.78-16.33-9.78-13.33s2.33,24,7.89,34C135.3,202.33,135.93,195.18,136.67,188.44Z" transform="translate(-10.08 -13.66)"/><path class="cls-26" d="M134.54,212.28c-7.84-3.7-10.46-23.17-10.4-18.92s-.5,12.25,3.5,18c2.76,4,5.1,7.85,6.29,9.87C134.11,218.42,134.31,215.41,134.54,212.28Z" transform="translate(-10.08 -13.66)"/><path class="cls-26" d="M132.89,240.21s.19-4.46.58-11.3c-6.77-4.26-10.33-15-10.33-15s-1.37,4.38,2.18,12-2.8,8.63-4.95,17.5S130.52,257,130.52,257a11.79,11.79,0,0,0,3.68.17A161.75,161.75,0,0,1,132.89,240.21Z" transform="translate(-10.08 -13.66)"/><path class="cls-26" d="M80,260.49l-5.72,2.35c-.85,2.65-1.75,5.43-2.67,8.27a114.06,114.06,0,0,1,45.51-12.5C121.27,257.41,100.64,252,80,260.49Z" transform="translate(-10.08 -13.66)"/><path class="cls-26" d="M83.78,230.94c-.38,1.45-.75,2.87-1.11,4.22-.21.74-.4,1.47-.6,2.19-.39,1.42-.77,2.78-1.14,4.05s-.71,2.48-1,3.59l-.38,1.27-.07.24L79,247.9l0,.11c-.15.5-.31,1-.48,1.55l0,.09-.55,1.76v0h0c-.8,2.59-1.73,5.52-2.74,8.68,4.18-5.17,10-12.8,10.88-16.09,1.33-5.19-2.28-13.07-2.28-13.07ZM77.7,252.15Z" transform="translate(-10.08 -13.66)"/><path class="cls-26" d="M88.88,208.64c4.22,11.1,9.23,22.9,9.31,16.6.07-6.78-3.52-23.57-6.26-35.35C91.14,196.17,90.08,202.51,88.88,208.64Z" transform="translate(-10.08 -13.66)"/><path class="cls-3" d="M62.77,281.74h0L40.66,299.82A54.42,54.42,0,0,1,45.45,309c1.27,3.26,6,8.43,10,12.34-.8-8-1.12-16.82.71-21.09,2.44-5.7,9.34-12.86,13.86-17.15Z" transform="translate(-10.08 -13.66)"/><path class="cls-7" d="M163.29,556.87a.5.5,0,0,0-.61.16c-.55.75-3.79,1.27-5.91,1.41h-.25c.3.31.59.63.87.94a19.56,19.56,0,0,0,4.7-.89,10.71,10.71,0,0,1-2.41,3.37l-.15.13.59.82.23-.21a11.89,11.89,0,0,0,3.21-5.16A.51.51,0,0,0,163.29,556.87Z" transform="translate(-10.08 -13.66)"/><path class="cls-7" d="M165.56,562.15a.5.5,0,0,0-.64.23c-.54,1.09-3.21,1.19-4.1,1.15h-.24c.22.33.43.67.64,1a10.29,10.29,0,0,0,2.31-.24,6.27,6.27,0,0,1-1.83,1.08h0c.16.29.31.59.46.89a6.32,6.32,0,0,0,3.68-3.51A.49.49,0,0,0,165.56,562.15Z" transform="translate(-10.08 -13.66)"/><path class="cls-7" d="M149.05,609.84c-.67-.5-11.74,2.19-22.41,2.36s-13-3.88-15.75-6.21-12-5-13.6-5.42a1.11,1.11,0,0,0-1.22.25l-.26,5.81a1.83,1.83,0,0,0,1.7,1.83l9.58.7h3a1.81,1.81,0,0,1,.82.2c2.16,1.08,13.67,6.3,31.63,4.72C147.47,613.65,149.21,612,149.05,609.84Z" transform="translate(-10.08 -13.66)"/><path class="cls-7" d="M162.13,35.05c-2.44-2.23-6.79-1.27-6.79-2.73s0-4.59-8.92-12.55-15.61-5.74-23.25-6-7.32,11.46-7.32,11.46h-6.37c-3.82,0-5.73,11.46-5.73,11.46V51l1.91,4.14s6.68-21.65,11.78-25.47,7.64-2.87,20.7-2.55,15.28,8.28,18.15,14S153.74,65,153.74,65l8-4.14a84,84,0,0,1,4.14-8.28C168.39,48.11,164.57,37.28,162.13,35.05Z" transform="translate(-10.08 -13.66)"/><path class="cls-26" d="M153,66.74,151.51,78a60.6,60.6,0,0,1-9.55,14c-6.37,7-14.65,4.77-20.06,5.09-4.39.26-9.05-6-11.54-8.92-1.46-1.7-2.88-3.46-4.21-5.27-1.94-2.62-1.75-7.14-2.24-10.31a2.88,2.88,0,0,0-.28-1,3.07,3.07,0,0,0-.39-.5c1.4-3.58,2-8.26,2.27-13.54,0,0,3.36,12.09,3.37,17.84a8.36,8.36,0,0,0,.57,3.2h0s2,1,2.11-4,1-6.67,3.32-6.5,7.5.5,11.83.66,8.39,3.67,11,4,5.81,3.06,4.14,6-.44,5.46.46,4.86l.07,0c2.25-1.42,4.15-3.13,4.83-4.6C148.64,76,153,66.74,153,66.74ZM119.39,85.82c3.33,1-.5-3.67,2.67-4.65s8,1,8.11,2.15-.78,3.67,1.22,4.5,5.42-2,6.75-3.64c.42-.53.33-1.56.53-2.6.44-2.27,1.35-3.87.81-5.59-.25-.81-10.59-3.67-18.42-4.5s-7.17.33-7.17,2.16-1.16,7.74-.8,8.34A14.27,14.27,0,0,0,119.39,85.82Z" transform="translate(-10.08 -13.66)"/><path class="cls-27" d="M126.39,129.8v-12a94.71,94.71,0,0,0,20.34-19.23l.53-13.27h0c-.68,1-1.44,2.05-2.28,3.14l-.26.33c-.32.41-.66.83-1,1.24l-.36.44c-.45.52-.91,1-1.39,1.58-4.58,5-10.15,5.3-14.93,5.17-1.33,3.51-3.78,9.06-6.66,11.27-4.35,3.33-2.7,35-2.7,35l1.26.12C120.25,139.93,123.74,130.84,126.39,129.8Z" transform="translate(-10.08 -13.66)"/><path class="cls-7" d="M161.61,552.47a.49.49,0,0,0,0-.7.5.5,0,0,0-.7,0c-1.78,1.59-6.7,1.72-8.35,1.71.18.34.38.68.59,1a19.13,19.13,0,0,0,5.83-.88c-1.45,1.4-3.26,3.13-3.71,3.59.08.08.14.16.23.24l.46.48C156.7,557.18,161.56,552.52,161.61,552.47Z" transform="translate(-10.08 -13.66)"/><path class="cls-7" d="M132.12,587.41c-.23-.27-.43-.53-.63-.79a18.26,18.26,0,0,0-10,2.89c1.75-2.19,4.64-4.87,8.47-5.3a11.25,11.25,0,0,1-.53-1.31,64.34,64.34,0,0,0-7.57.42,28.34,28.34,0,0,1,7.21-2.11,8.72,8.72,0,0,1,0-1.61c-4.09-.47-11.89-.91-14.68,2.07a.7.7,0,0,0,0,.87.45.45,0,0,0,.71.09c2-2.09,6.91-2.29,10.88-2.06a49.5,49.5,0,0,0-10.15,4.35.67.67,0,0,0-.2.82.5.5,0,0,0,.68.31c2.05-1.18,6.11-1.64,9.5-1.82a19,19,0,0,0-7.12,7.53.76.76,0,0,0,.11.79.53.53,0,0,0,.44.17.47.47,0,0,0,.21-.11,17.6,17.6,0,0,1,13.07-4.7C132.39,587.74,132.25,587.58,132.12,587.41Z" transform="translate(-10.08 -13.66)"/></g><g id="Left_Woman" data-name="Left Woman"><path class="cls-28" d="M266.14,263c-7-.71-10.92-1.31-13.06-1.74a5.45,5.45,0,0,1-4.19-.26c-8-5-27-44-27-44l-3.43-38.09a33.37,33.37,0,0,0-6.85,5.38c-6.22,7.21-24.22,16.21-4.72,70.21s70.5,11,70.5,11l3.29-2.77A66.28,66.28,0,0,1,266.14,263Z" transform="translate(-10.08 -13.66)"/><path class="cls-28" d="M328.55,224.05c-.33,22.32-6,29.66-11.5,32.79V271.3l-4.25,7v7c-15.78-7.78-32.94-10.7-47.62-11.45-1.35.74-2.78,1.49-4.28,2.21l-.75.36c-1,.48-2.08.94-3.16,1.39l-1.58.62c-1.09.41-2.2.8-3.32,1.15l-.85.26q-.86.26-1.71.48l-.86.22-1.74.39q-1.86.38-3.75.6l-.67.07c-13.3,1.29-27.2-4.18-35.46-27.05-6.49-18-8.83-31-8.83-40.56,0-.6,0-1.18,0-1.75q0-1.73.21-3.3c0-.45.09-.9.15-1.33s.13-1,.21-1.45.11-.66.17-1,.14-.72.22-1.07a31.29,31.29,0,0,1,3.2-8.64c.16-.3.33-.58.5-.86a26.83,26.83,0,0,1,1.63-2.42c.18-.25.37-.49.56-.73a37.87,37.87,0,0,1,2.88-3.23c.16-.17.31-.33.47-.48.71-.73,1.4-1.39,2-2,.16-.16.31-.31.45-.47.3-.31.58-.61.84-.91a33.71,33.71,0,0,1,6.85-5.38c6-6,19.43-11.91,19.43-11.91,1,2,10,11,23,6s15-13,15-13l29,1s5.12-1,12,8C317.05,169.05,329.05,190.3,328.55,224.05Z" transform="translate(-10.08 -13.66)"/><path class="cls-29" d="M230.64,274.49c-1.82.11-5,7.63-5.8,9.19-2.14,4.43-5.33,8.28-7.59,12.72-2.89,5.7-7,12-8.48,18.21-1.11,4.61-1.93,9.58-2.6,14.31-1.8,12.76-.69,25.85,5,37.57,10.75,22.25,9.75,48.75,9.75,54.75s2.5,26,1.75,30-2.75,4.5,1,31.5,6.75,36.75,7,46.25a79.48,79.48,0,0,0,3.25,19v5.5l13.5-1.5,12.5-127,23.25-71.75,1.25-76.87S266.64,272.24,230.64,274.49Z" transform="translate(-10.08 -13.66)"/><path class="cls-30" d="M312.8,285.3,313,302s1.31,2.56,1.37,10.62,1.44,13.88-1.19,23.69-1.48,16.85-6.14,29.19-19.1,47.66-26.38,58a23.36,23.36,0,0,0-3,11.12s1.88,3.75,0,6.19,1.32,1,1.44,3.19-1.31,5.31-1.31,6.75,2.31,17.75,2.31,28.75-4.25,41-4.25,42.25v32s-12.25,4.25-30.25-2c0,0-3-87.75-2.5-91s-3.86-29-.06-39.25,11.56-36.75,11.81-42.25,1-18.25,4.5-27-11.62-13.1-8.79-31.44,3-28.65,7.81-43.73l7.54-3.81S294.88,275,312.8,285.3Z" transform="translate(-10.08 -13.66)"/><path class="cls-31" d="M242.22,253.24l8.34-1.09,2.52,9.1a4.89,4.89,0,0,1-5.59-1.37C245,257.07,242.22,253.24,242.22,253.24Z" transform="translate(-10.08 -13.66)"/><path class="cls-1" d="M304.79,164.1l-.06,2C304.75,165.36,304.77,164.69,304.79,164.1Z" transform="translate(-10.08 -13.66)"/><path class="cls-1" d="M304.79,164.1l-.06,2C304.75,165.36,304.77,164.69,304.79,164.1Z" transform="translate(-10.08 -13.66)"/><path class="cls-32" d="M248.11,260.42a14.13,14.13,0,0,1-1.25-1.15A14,14,0,0,0,248.11,260.42Z" transform="translate(-10.08 -13.66)"/><path class="cls-33" d="M214,182.22a54.32,54.32,0,0,1,4.58-3.26c6-6,19.43-11.91,19.43-11.91a14.16,14.16,0,0,0,4.34,4.13l.32-27.05c-2.69-2.31-5-5.18-5.7-8.2a7.51,7.51,0,0,1-.15-1.16c-.44-6.15-1.74-11.63-.29-17.61.07-.33.15-.67.25-1l.48-1.66c3-10.89,5.35-23.71,13.53-25.35L259.27,87a18.37,18.37,0,0,1,.68-2.5l1.19-2.74v5.82s13-.85,15.5,26.6c.67,7.37.44,15.17-2.28,22.14a19.61,19.61,0,0,1-4.28,6.74,18,18,0,0,1-1.52,1.36l-2,26c8.11-4.76,9.51-10.38,9.51-10.38l17.13.59a77.29,77.29,0,0,1-2.79-17.31c-1.25-18.34-3.5-36.71-3.75-41.4s-.47-14.44-20.49-23.19a5.57,5.57,0,0,0-2-.36c-3-1.85-11.25-1.38-21.24,3.49s-18.25,33.87-19.75,49.67-4.5,18.45-4,29.42C219.38,166.22,216.79,174.76,214,182.22Z" transform="translate(-10.08 -13.66)"/><path class="cls-34" d="M328.55,224.05c-.33,22.32-6,29.66-11.5,32.79V271.3l-4.25,7v7c-15.78-7.78-32.94-10.7-47.62-11.45-1.35.74-2.78,1.49-4.28,2.21l-.75.36c-1,.48-2.08.94-3.16,1.39l-1.58.62c-1.09.41-2.2.8-3.32,1.15l-.85.26q-.86.26-1.71.48l-.86.22-1.74.39q-1.86.38-3.75.6l-.67.07c-13.3,1.29-27.2-4.18-35.46-27.05-6.49-18-8.83-31-8.83-40.56,0-.6,0-1.18,0-1.75q0-1.73.21-3.3c0-.45.09-.9.15-1.33s.13-1,.21-1.45.11-.66.17-1,.14-.72.22-1.07a31.29,31.29,0,0,1,3.2-8.64c.16-.3.33-.58.5-.86a26.83,26.83,0,0,1,1.63-2.42c.18-.25.37-.49.56-.73a37.87,37.87,0,0,1,2.88-3.23c.16-.17.31-.33.47-.48.71-.73,1.4-1.39,2-2,.16-.16.31-.31.45-.47.3-.31.58-.61.84-.91a33.71,33.71,0,0,1,6.85-5.38c6-6,19.43-11.91,19.43-11.91,1,2,10,11,23,6s15-13,15-13l29,1s5.12-1,12,8C317.05,169.05,329.05,190.3,328.55,224.05Z" transform="translate(-10.08 -13.66)"/><path class="cls-7" d="M271.16,235.74h0a5.44,5.44,0,0,0,2.36-1.63l.21-.29c-1.21-11.75-4.81-40.37-12.84-60.83a22.79,22.79,0,0,1-2.31.74l.48.75A238,238,0,0,1,271.16,235.74Z" transform="translate(-10.08 -13.66)"/><path class="cls-35" d="M316.89,169s12,21.25,11.5,55-13.25,33.25-19,35.75-15,0-15,0-13.53,4.72-28.25,3.25-15.66-2.5-15.66-2.5.91-15.37-2.09-21.31c0,0-.54-.65,1.13-1.11,0,0,8.75-2.31,13.12-1.76s9,.18,10.88-2.2,1-4.73,8.5-3.8S302.39,229,306.39,224s-4.06-1-3.5-8.5,2-54.5,2-54.5S310,160,316.89,169Z" transform="translate(-10.08 -13.66)"/><path class="cls-15" d="M265,262.87c-.59-9.16-2-20.85-2.78-26.59-4.49-.38-12.72,1.79-12.72,1.79-1.67.46-1.13,1.11-1.13,1.11,3,5.94,2.09,21.31,2.09,21.31S251.38,261.46,265,262.87Z" transform="translate(-10.08 -13.66)"/><path class="cls-36" d="M266.14,263c-7-.71-10.92-1.31-13.06-1.74-1.71.42-3.2.46-4.19-.26-5.54-4.07-24.32-43-27-44-5.15-8.8-3.07-24.63-3.43-38.09a33.37,33.37,0,0,0-6.85,5.38c-6.22,7.21-24.22,16.21-4.72,70.21s70.5,11,70.5,11l3.29-2.77A66.28,66.28,0,0,1,266.14,263Z" transform="translate(-10.08 -13.66)"/><path class="cls-3" d="M270.08,143.07a19.61,19.61,0,0,0,4.28-6.74c2.72-7,2.95-14.77,2.28-22.14-2.5-27.45-15.5-26.6-15.5-26.6V81.77L260,84.51a18.37,18.37,0,0,0-.68,2.5l-8.44,2.13c-8.61,1.73-10.76,15.85-14,27.06-1.84,6.36-.43,12.1,0,18.57a7.51,7.51,0,0,0,.15,1.16c1.32,5.33,7.3,10.17,12.12,12.28a16.42,16.42,0,0,0,11,.43A22,22,0,0,0,270.08,143.07Z" transform="translate(-10.08 -13.66)"/><path class="cls-37" d="M336.9,318.35s-2.61,3.14-2.62,4.41.3,1.84,2.24,2.11a14.62,14.62,0,0,0,5-.7S337.5,319.42,336.9,318.35Z" transform="translate(-10.08 -13.66)"/><path class="cls-3" d="M262.89,562.74v-7.63a59.46,59.46,0,0,1-15.56-2.81c-.68,3.68-4.69,12.07-4.69,16.69s-3.75,8-4,13.75-4.5,19-4.5,19c7-1.25,21.75,3.75,25.75,0s3-29,3-29A19.47,19.47,0,0,0,262.89,562.74Z" transform="translate(-10.08 -13.66)"/><path class="cls-3" d="M278.72,579.15c-.16-7.83-2-9-3.16-10.5-.75-1-3.55-8.49-5.47-13.78a49.71,49.71,0,0,1-9.6.09c-.07,13.92.05,41,1.9,43.36,2.5,3.17,10.5,1.5,15.5,0s3.33-4.66,3.33-4.66A52.71,52.71,0,0,1,278.72,579.15Z" transform="translate(-10.08 -13.66)"/><path class="cls-4" d="M260.17,601.43a2.8,2.8,0,0,1-.28.31c-4,3.75-18.75-1.25-25.75,0,0,0-2.75,9.08,3.58,12.58s22.5,2.17,23.67,0a10.63,10.63,0,0,0,.55-3.41c-.55-.08-1.05-.16-1.46-.26C258.5,610.19,259,605.89,260.17,601.43Z" transform="translate(-10.08 -13.66)"/><path class="cls-4" d="M281.49,594.82h0c0,1-.54,2.58-3.6,3.5-5,1.5-13,3.17-15.5,0a6.65,6.65,0,0,1-.54-1.58h0s.41,9,.09,14.17c5.7,5.14,15.14,0,18-1.23C282.4,608.62,281.49,594.82,281.49,594.82Z" transform="translate(-10.08 -13.66)"/><path class="cls-4" d="M239.05,168.8a19.92,19.92,0,0,0,21.82,4.49c13-5,15.18-13.24,15.18-13.24s-1.09-7.26-2.93-8.38c-.23-.15-2.19-2-2.33-1.46a3.59,3.59,0,0,0,.32,1.15,4.15,4.15,0,0,1-.26,2.74,6.66,6.66,0,0,1-1.1,2.33,19.2,19.2,0,0,1-1.84,1.88,29.43,29.43,0,0,1-5.16,3.7,26.28,26.28,0,0,1-5.45,2.41c-6.62,2-18.56-1.25-17.56-7,0,0-2.87-.13-2.75,1.62s.88,8.25.88,8.25Z" transform="translate(-10.08 -13.66)"/><path class="cls-4" d="M261.85,596.74h0a11.85,11.85,0,0,1-1.68,4.69c-1.14,4.46-1.67,8.76.31,9.22.41.1.91.18,1.46.26C262.26,605.69,261.85,596.74,261.85,596.74Z" transform="translate(-10.08 -13.66)"/><circle class="cls-7" cx="248.69" cy="154.76" r="2.34"/><path class="cls-7" d="M271.16,235.74h0a5.44,5.44,0,0,0,2.36-1.63l.21-.29c-1.21-11.75-4.81-40.37-12.84-60.83a22.79,22.79,0,0,1-2.31.74l.48.75A238,238,0,0,1,271.16,235.74Z" transform="translate(-10.08 -13.66)"/><path class="cls-15" d="M265,262.87c-.59-9.16-2-20.85-2.78-26.59-4.49-.38-12.72,1.79-12.72,1.79-1.67.46-1.13,1.11-1.13,1.11,3,5.94,2.09,21.31,2.09,21.31S251.38,261.46,265,262.87Z" transform="translate(-10.08 -13.66)"/><path class="cls-3" d="M300.77,210c4.5-6,12.62-5.25,13.62-4s1,2.25,2.5,2.5,4.75,1.62,5,3.12,2,2.13,1.13,3.5-3.38.93-4.25,2.28-.12,2.6-7.88,2c0,0-2.44.18-5.16,5.34-1.88,2-6.26,4.08-11.85,5C293.87,229.62,296.27,216,300.77,210Z" transform="translate(-10.08 -13.66)"/><path class="cls-38" d="M276.05,160.05s-.25-1.64-.71-3.49a4,4,0,0,0-.57,1.05c-.5,1.41-2.8,2.75-3.09,5.09a4.93,4.93,0,0,1-3.79,3.87c-1,0-3.54,1.58-5.21,3.49s-6,2.18-7.87,1-5.54,1-7.67.5-3.58-2.83-5.79-3.5c-1.5-.45-3-2.17-3.76-3.23.15,1.4.28,2.49.28,2.49l1.18,1.51a19.92,19.92,0,0,0,21.82,4.49C273.87,168.29,276.05,160.05,276.05,160.05Z" transform="translate(-10.08 -13.66)"/><path class="cls-38" d="M237,261.61s6,0,5.23-5.37S234,251,216,213.11A71.35,71.35,0,0,0,206.17,198l.56,3a42.48,42.48,0,0,1,5.91,9.5c11.88,27.31,8.75,21.81,17.13,36.68S234.09,260,237,261.61Z" transform="translate(-10.08 -13.66)"/><path class="cls-38" d="M208.84,187.14a110.83,110.83,0,0,0,7.88,14,27.69,27.69,0,0,0-6.1-15.8C210.07,185.92,209.47,186.51,208.84,187.14Z" transform="translate(-10.08 -13.66)"/><path class="cls-38" d="M229.64,185.35c-.16-6.68,2.76-13,4.81-16.59-1.85.92-4.23,2.15-6.67,3.58a84.36,84.36,0,0,0-1.39,13c-.12,8.51-.88,17.34-4.12,24.14C222.27,209.49,229.89,195.6,229.64,185.35Z" transform="translate(-10.08 -13.66)"/><path class="cls-38" d="M221.89,217c1.86.7,11.39,19.49,18.93,32.38l3.07-29.26c-1.12,11.5-7.5,15.63-7.5,15.63L235,217.42s-1.25,10.44-4.13,10.07c-1.7-.22-7.26-9.86-11.54-17.71A23.45,23.45,0,0,0,221.89,217Z" transform="translate(-10.08 -13.66)"/><path class="cls-38" d="M309.39,259.74a12,12,0,0,1-2.36.73c-.43,4.74-1.61,11.76-4.89,16.64A54.76,54.76,0,0,0,313,258.48C311.66,258.94,310.41,259.29,309.39,259.74Z" transform="translate(-10.08 -13.66)"/><path class="cls-38" d="M268.64,254s23-7.88,22.63-11.25,1.87-1.13,1.87,1.25S276.89,253.24,268.64,254Z" transform="translate(-10.08 -13.66)"/><path class="cls-38" d="M294.39,259.74a74,74,0,0,1-15.05,3.13l-6.11,5.76s4.79-2.53,8.54-.83c0,0,11.87-6.17,18-4.93l2-2.05A38.27,38.27,0,0,1,294.39,259.74Z" transform="translate(-10.08 -13.66)"/><path class="cls-38" d="M300.64,249.55C292,237.61,290,233.61,290,233.61s10.15,26.21,17,26.86a12,12,0,0,0,2.36-.73c1.44-.63,3.33-1.07,5.35-1.91a19.23,19.23,0,0,0,3.9-4.22L316,252.15S309.27,261.5,300.64,249.55Z" transform="translate(-10.08 -13.66)"/><path class="cls-38" d="M239.54,170.06s8.85,18.28,7.75,26.34c0,0,4.37,1,8.14,10.39C255.43,206.79,249.21,182.34,239.54,170.06Z" transform="translate(-10.08 -13.66)"/><path class="cls-38" d="M282,230.31a40.46,40.46,0,0,0,11.86-.6c0-.13,2.39-13.73,6.89-19.72a11.59,11.59,0,0,1,1.6-1.73,48.25,48.25,0,0,1,1.09-5c.07-1.7.14-3.49.2-5.36a128.78,128.78,0,0,0-7.14,16c-5.13,13.88-10.38,14.63-12.75,14.13-1.06-.22-2.42.87-3.6,2.15C280.73,230.17,281.33,230.22,282,230.31Z" transform="translate(-10.08 -13.66)"/><path class="cls-38" d="M304.79,167.49s-4.07,18-2.65,23.78.23,17,.23,17,2.85-14.44,7.35-18.27c0,0-4.79,3.5-5.39,5s-1.4-7.34,3.25-11.84,5.22-8.23,5.43-11c0,0-4.33,8.74-7.62,10C305.39,182.22,303.52,179.65,304.79,167.49Z" transform="translate(-10.08 -13.66)"/><path class="cls-3" d="M248.84,240.21l-.53,0a129.37,129.37,0,0,0-14.54,1.62c-6.88,1.25-10.63-1.12-16.88,2.13s-8.5,3.5-8.87,6.87-3.13,5.63-1.13,8.75,4.88,14.13,10,9.88,19.22-7.52,24.25-12.75c3.13-3.25,9.46-2.37,9.46-2.37C250.57,249.85,250.22,243.88,248.84,240.21Z" transform="translate(-10.08 -13.66)"/><path class="cls-15" d="M275.89,203l-.83-7.67s11-3,14.66-1.33,5.34,3.82,9.17-.51,5-3.16,4,9.51Z" transform="translate(-10.08 -13.66)"/><path class="cls-39" d="M145,88.46l-.26.33c-.32.41-.66.83-1,1.24l-.36.44c-.45.52-.91,1-1.39,1.58-6.37,7-14.65,4.78-20.06,5.1a3.17,3.17,0,0,1-.53,0c-4.23-.24-8.62-6.12-11-8.9h0c-.66-.78-1.28-1.53-1.85-2.23l-.6-.76c-.71-.89-1.31-1.67-1.74-2.26h0c-.51-.68-.8-1.1-.8-1.1l-.11-.69c.26,6.07-1.17,9.29-2,16.11,2.38,5.08,7.89,16.38,11.68,21.87,0,0-.22,19,3.45,26,0,0,4.67-14,8-15.35v-12a94.71,94.71,0,0,0,20.34-19.23l.53-13.27h0C146.57,86.32,145.81,87.37,145,88.46Z" transform="translate(-10.08 -13.66)"/><path class="cls-39" d="M269.87,143.27a22.11,22.11,0,0,1-9.78,5.37,16.42,16.42,0,0,1-11-.43,26.16,26.16,0,0,1-9.36-7.09V158l0,.64c.58,5.5,11.54,8.45,17.81,6.42,5.12-1.66,13.85-6.72,14-12.36C270.82,150.47,269.66,146.48,269.87,143.27Z" transform="translate(-10.08 -13.66)"/></g><g id="Layer_4" data-name="Layer 4"><path class="cls-4" d="M338.39,316.65c6.14-6.57,12.5-9,17.21-9.84l.15-.81a17.79,17.79,0,0,0,.38-3.33,19.49,19.49,0,0,0-.64-4.22q-1.26-5.56-2.53-11.12c-.26-1.14-2.45-7.05-1.78-8h0c-3.88-7.84-7-33.82-7-33.82l3.5-.5c3.5-.5,1-8.67,6.17-19.5,1.39-2.92,3.07-8.82,4.78-15.88-.94-13.69-2.46-25.63-3-28.87-1-5.75-10.5-45.5-10.5-45.5-1.73,1-4.25,4.08-4.08,9.41s-7.17,16.3-7.17,16.3.75,6.29-.5,10.87-.83,6.58-1,9.58-3.42,4.09-2.92,6.34-3.22,9.36-3.22,9.36c-12.47,21.94-11.86,63.72-9.2,71.72s2,17,3,21,7,6.33,6.66,14,4,5.93,4,5.93l-.5,14.2s-.37,1.76,5,2.58a9.92,9.92,0,0,0,7-1.59l-.66-.77C337.22,325.33,329.38,326.3,338.39,316.65Z" transform="translate(-10.08 -13.66)"/><path class="cls-4" d="M434.39,107s4.33,3.75,4.33,14,3.25,40.25,3.42,50.5,2.67,36.5,4.08,43.41,14.17,76.09,14.42,91.34c0,0,16,5.75,19.25,17.25s5.5-17.5,3-27-9.5-31.05-7.75-66.78,1.75-43.22,3-49,5.82-54,5.82-54C482.77,124.74,452.64,125.57,434.39,107Z" transform="translate(-10.08 -13.66)"/><path class="cls-7" d="M482.68,323.65c2.2.65,6.31,1.94,9,.28,0,0,3.13-6.22-7.74-11.1C484,312.83,483.21,320.79,482.68,323.65Z" transform="translate(-10.08 -13.66)"/><path class="cls-4" d="M510.39,255.33C509,232.53,498,152.49,484,126.74c0,0-4.57,48.25-5.82,54-1.17,5.38-1.24,12.3-2.69,42.5,2.65,14.07,4.41,31.31,1.28,45.19a209.7,209.7,0,0,0,6.16,28.06c1,3.67,1.22,10.27,1,16.3,4.64,2.2,9.05,5.74,7.5,10.71.5-.26,3.54-4.6,6.26-11.64C503.45,296.88,511.36,271.15,510.39,255.33Z" transform="translate(-10.08 -13.66)"/><path class="cls-4" d="M383.56,190.49c-10.5-26-18.17-55.25-18.17-55.25l10.16-4.59-3.49-3,7-5.83h0a15.77,15.77,0,0,1-3.91,1.93c-6.5,2-28.5,10-30,11.5,0,0,9.5,39.75,10.5,45.5s5,38.75,3.5,60.5-2.21,29.82-8,38.07c-.67,1,1.52,6.88,1.78,8q1.28,5.57,2.53,11.12a19.49,19.49,0,0,1,.64,4.22,17.79,17.79,0,0,1-.38,3.33l-.15.81a65.24,65.24,0,0,1-3.84,13.53c-1.38,3.26.39,4.52,3.63,3.48,0,0,14.75-9.08,27.25-28.58,9-14.06,17-24.22,18.3-49.79C399.65,224.6,394.06,216.49,383.56,190.49Z" transform="translate(-10.08 -13.66)"/><path class="cls-7" d="M379.05,121.82l-7,5.83,3.49,3-10.16,4.59c.07.18,8,30.08,18.17,55.25,10.53,26,16.09,34.11,17.38,55,0,.78-.09,1.53-.14,2.28.71-10.29.3-23.15-1.66-40-6.5-56-10.5-95-10.5-95a47.26,47.26,0,0,1-9.59,9.07Z" transform="translate(-10.08 -13.66)"/><path class="cls-15" d="M387.31,288a96,96,0,0,1,17.08,2.14c15.67,3.67,23.67,3.75,42.5,1.59a62.53,62.53,0,0,1,12.29-.22c-3.44-25.73-11.82-71.08-13-76.62-1.41-6.91-3.91-33.16-4.08-43.41s-3.42-40.25-3.42-50.5c0-9.18-3.46-13.14-4.19-13.87l-.14-.13s1.75,13.62-2,22.81-6.5,8.69-10,11.44-3.5,22.47-3.5,22.86-1.25-19.45-7.25-23.9-11.5-4.71-15.5-13.46-6-7.5-5.75-15.5l-1.75,1.5s2.58,25.11,6.95,64c1.08,9.56,2.27,20,3.55,31C404.81,256.57,397.55,272,387.31,288Z" transform="translate(-10.08 -13.66)"/><path class="cls-40" d="M459.18,291.52a62.53,62.53,0,0,0-12.29.22c-18.83,2.16-26.83,2.08-42.5-1.59A96,96,0,0,0,387.31,288c-1.5,2.36-3.07,4.73-4.67,7.23-.72,1.12-1.44,2.19-2.17,3.24,21.81.77,35.18,7.55,59.3,5.26a101.11,101.11,0,0,1,20.75,0C460.31,300.64,459.83,296.44,459.18,291.52Z" transform="translate(-10.08 -13.66)"/><path class="cls-3" d="M360.28,320.26a54.89,54.89,0,0,1-4.89,3.56c-3.24,1-5-.22-3.63-3.48a66.7,66.7,0,0,0,4-14.34l-.15.81c-4.71.83-11.07,3.27-17.21,9.84-.57.62-1.05,1.17-1.49,1.7.06.09.11.2.18.29.87,1.27,2.39,3.14,4.22,5.3l.71.83c6.64,7.73,16.66,18.38,16.66,18.38l1.63,2.22A173.91,173.91,0,0,1,360.28,320.26Z" transform="translate(-10.08 -13.66)"/><path class="cls-15" d="M396.14,126.74c-4-8.75-6-7.5-5.75-15.5l-1.75,1.5s.91,8.84,2.56,24.14a35.69,35.69,0,0,0,3.36-5.39c.16-1.17,1.23,4.66,13.36,6.33C403.39,135.26,399.3,133.64,396.14,126.74Z" transform="translate(-10.08 -13.66)"/><path class="cls-15" d="M436.14,128.74a12.87,12.87,0,0,0,3.48,8.25c-.51-6.6-.9-12.47-.9-16,0-9.18-3.46-13.14-4.19-13.87l-.14-.13s1.75,13.62-2,22.81c-3.07,7.53-5.47,8.55-8.16,10.19h0C436.32,135.86,436.14,128.74,436.14,128.74Z" transform="translate(-10.08 -13.66)"/><path class="cls-4" d="M479.89,323.49c-3.25-11.5-19.25-17.25-19.25-17.25,0-.73-.05-1.58-.12-2.53a101.11,101.11,0,0,0-20.75,0c-24.12,2.29-37.49-4.49-59.3-5.26h0a103.06,103.06,0,0,1-20.2,21.79c-.81,12.39-.8,27.83,2.44,40.06,6.5,24.5,6.67,41.5,6.67,44.67s2.83,33.66,4.17,45,4.33,45.16,5.16,53.5,2.34,24,6.17,27.5,6.48,10,6.48,10c5.73-23.24,13.07-44.77,23.23-73.73l.12-5c.34-11.83-.83-35.5,0-45.17s1.46-33.83.07-48,4.93-12,9.43-17.83,42.63-9.17,51.23-8.83a100.65,100.65,0,0,0,5-17.32A12,12,0,0,1,479.89,323.49Z" transform="translate(-10.08 -13.66)"/><path class="cls-4" d="M460.12,299.26l0-.31h0Z" transform="translate(-10.08 -13.66)"/><path class="cls-4" d="M460.45,302.77c0,.23,0,.45.05.67C460.49,303.22,460.47,303,460.45,302.77Z" transform="translate(-10.08 -13.66)"/><path class="cls-4" d="M460.2,300l.06.6Z" transform="translate(-10.08 -13.66)"/><path class="cls-4" d="M460.35,301.63l.06.65Z" transform="translate(-10.08 -13.66)"/><path class="cls-4" d="M481.19,326.1c-.4-.18-.84-1-1.3-2.61-3.25-11.5-19.25-17.25-19.25-17.25,0-.73-.05-1.58-.12-2.53a101.11,101.11,0,0,0-20.75,0,104.46,104.46,0,0,1-24.25-.54h0a107.45,107.45,0,0,0-4.59,32c.37,17-1.81,21.5,3.46,29.75S422,418.86,422,423.24s-3.5,11.12-1.86,13.12,1.86,7.38,3.11,10,0,8.38-3.88,11.25-24.67,64.54-27.17,79-10,35.5-10,35.5,1.84,3.34,10.67,3.67,21.5,10.67,21.5,10.67c5.17-8,12.5-27.5,12.5-27.5s26.5-76,28.83-82.67,4.17-13.67,6.67-17.5,1.83-27.17,1.83-27.17c4.34-3.33,2.84-12.83,2.84-12.83,6-21.67,4.16-49.67,4.16-49.67,1.67-4.5-.83-13.66-.83-13.66l2.5-.84S474,349,476,341,481.87,326.41,481.19,326.1Z" transform="translate(-10.08 -13.66)"/><path class="cls-7" d="M438.72,121c0,10.25,3.25,40.25,3.42,50.5s2.67,36.5,4.08,43.41c.58,2.8,3,15.74,5.7,31.19-2.31-20.23,1.14-28.77,2-50.94s6.83-64.5,6.83-64.5l-9.5-2.83,2.34-3.29c-3.53-1.88-7.17-6.08-10.24-10.39a50,50,0,0,1-8.79-7C435.26,107.85,438.72,111.81,438.72,121Z" transform="translate(-10.08 -13.66)"/><path class="cls-7" d="M434.53,107.12l-.14-.13Z" transform="translate(-10.08 -13.66)"/><polygon class="cls-38" points="413.16 152.42 414.14 264.33 419.56 270.08 413.16 152.42"/><path class="cls-3" d="M439.62,78.16c-.27,6-6.23,5-6.4,11.5s-1.33,10.66-6.78,16.33-8.55,5.5-18.52,5.25-17.7-10.92-18.78-16.58-2.51-10.84-2.51-10.84c-3.3-.64-3.51-7.56-3.44-10.67,0-.91.07-1.49.07-1.49.49-2.39,2.14-1.87,3.91-.42-.44-3.9-1-8,.14-10.25,1.91-3.67,6.75-8,6.75-8h7.06s9.44-.83,15.58,0,6.54,3.33,6.54,3.33l4.48-.66v3.83l1.92.33c3.08,2,4.75,13.17,4.75,13.17C439.72,67.49,439.89,72.16,439.62,78.16Z" transform="translate(-10.08 -13.66)"/><path class="cls-41" d="M383.26,71.66c.49-2.39,2.14-1.87,3.91-.42-.44-3.9-1-8,.14-10.25,1.91-3.67,6.75-8,6.75-8h7.06s9.44-.83,15.58,0,6.54,3.33,6.54,3.33l4.48-.66v3.83l1.92.33c3.08,2,4.75,13.17,4.75,13.17,2.62-2.7,4-2.95,4.68-1.79,1.17-20.62-.68-19.71-.68-19.71s.17-4.84-.67-5.67A6.41,6.41,0,0,1,435.89,42c0-1.34-1.67-1.84-9.45-7.5s-9.88-3.84-18.52-4-12.2,5.16-12.2,5.16h-5.35L389.14,39s-4.42-.17-7.08,12.16,0,21.5,0,21.5l1.14,2.71C383.23,74.47,383.26,71.66,383.26,71.66Z" transform="translate(-10.08 -13.66)"/><path class="cls-39" d="M433.22,89.66c-.16,6.5-1.33,10.66-6.78,16.33s-8.55,5.5-18.52,5.25c-8.15-.21-14.8-7.37-17.55-13.08v13.09h0c0,.4,0,.76,0,1.12v.38c.05,6.37,2,5.84,5.77,14,4,8.75,9.5,9,15.5,13.46s7.25,24.29,7.25,23.9,0-20.11,3.5-22.86,6.25-2.25,10-11.44,2-22.81,2-22.81Z" transform="translate(-10.08 -13.66)"/><path class="cls-3" d="M481.05,328.58l8.39-12.15a17.67,17.67,0,0,0-5.09-3.41c-.07,6.78-1.47,13-2.61,13.55A13.23,13.23,0,0,1,481.05,328.58Z" transform="translate(-10.08 -13.66)"/><polygon class="cls-3" points="468.44 306.5 468.44 306.5 468.44 306.5 468.44 306.5"/><path class="cls-7" d="M431.7,292.51l-1.61,14.14-21.45-2.45,1.61-14.14Zm-3.56,12.37,1.28-11.23-17.21-2-1.28,11.23Z" transform="translate(-10.08 -13.66)"/><path class="cls-42" d="M383.39,606l-14.75-25.75S356.64,583.74,383.39,606Z" transform="translate(-10.08 -13.66)"/><polygon class="cls-20" points="378.94 586.47 373.31 592.33 358.56 566.58 364.06 563.84 378.94 586.47"/><path class="cls-42" d="M392.64,610.91s-15.75-15.4-18.5-33.41l25,11.49,6.94,14L403,609.11l-1.56,1.59C399.86,611.67,397.29,612,392.64,610.91Z" transform="translate(-10.08 -13.66)"/><path class="cls-43" d="M433.39,561.82l-6.53-2.76c-.44,1.17-6.56,17.27-11.43,25.71l18,.05S442.06,565.49,433.39,561.82Z" transform="translate(-10.08 -13.66)"/><path class="cls-7" d="M401.51,610.66l0,0Z" transform="translate(-10.08 -13.66)"/><path class="cls-7" d="M409.91,583.08c-4.49-3.06-11.52-7.05-17-7.26-8.83-.33-10.67-3.67-10.67-3.67l.16-.45c-5.45,1.89-9.84,6.59-9.84,6.59,2,3,4,11.26,16.79,12.26,7,.55,17.64,9.45,15.19,14.63-2.1,4.43-2.84,5.32-3,5.48,9.62-8.19,5.57-15.3,5.63-18.67C407.18,589.9,408.76,585.82,409.91,583.08Z" transform="translate(-10.08 -13.66)"/><path class="cls-42" d="M432.64,584.82h0l-17.19-.05h0c-.36.62-.71,1.2-1.05,1.73l-4.54-3.33c-1.15,2.75-2.67,6.74-2.71,8.83,0,.1,0,.21,0,.32v.1c0,.08,0,.16,0,.24s0,.08,0,.12a1.94,1.94,0,0,0,0,.24.51.51,0,0,1,0,.13,2,2,0,0,1,0,.26l0,.08c.4,2.49,1.41,6.11-.41,10.35h0c-.09.21-.19.42-.29.63l0,0c-.1.21-.21.42-.33.62l0,.06c-.11.2-.23.41-.36.61l0,.07-.41.61,0,.08-.46.62-.06.07-.5.63-.06.07c-.18.21-.37.43-.58.64l0,0c-.21.22-.42.45-.65.68h0c-.07,1.22,0,2.05.31,2.3,2,1.7,22.41,1.72,27.62-.9s.79-16.46.13-19S432.64,584.82,432.64,584.82Z" transform="translate(-10.08 -13.66)"/><path class="cls-7" d="M409.85,583.16h0" transform="translate(-10.08 -13.66)"/><path class="cls-7" d="M433.43,605.07c.15-5.05-1.93-11.67-2.37-13.33-.67-2.49,1.58-6.92,1.58-6.92h0l-17.19-.05h0c-.36.62-.71,1.2-1.05,1.73,0,0-1.81-1.48-4.54-3.33-1.15,2.75-2.67,6.74-2.71,8.83,0,.1,0,.21,0,.32v.1c0,.08,0,.16,0,.24s0,.08,0,.12a1.94,1.94,0,0,0,0,.24.51.51,0,0,1,0,.13,2,2,0,0,1,0,.26l0,.08c.4,2.49,1.41,6.11-.41,10.35h0c-.09.21-.19.42-.29.63l0,0c-.1.21-.21.42-.33.62l0,.06c-.11.2-.23.41-.36.61l0,.07-.41.61,0,.08-.46.62-.06.07-.5.63-.06.07c-.18.21-.37.43-.58.64l0,0c-.21.22-.42.45-.65.68C403,609.3,419.14,617.32,433.43,605.07Z" transform="translate(-10.08 -13.66)"/><polygon class="cls-7" points="392.91 595.64 392.91 595.64 392.91 595.64 392.91 595.64"/><path class="cls-38" d="M446.22,214.9c-.32-1.59-.7-4.2-1.1-7.41h0c-3.78,62.25,13.81,82.21,13.81,82.21h0C455.35,263.7,447.33,220.31,446.22,214.9Z" transform="translate(-10.08 -13.66)"/><path class="cls-7" d="M395.64,191.21" transform="translate(-10.08 -13.66)"/><path class="cls-26" d="M397.58,129.43c-.17-.28-.34-.58-.51-.88C397.24,128.85,397.41,129.15,397.58,129.43Z" transform="translate(-10.08 -13.66)"/><path class="cls-26" d="M411.64,140.2a75.46,75.46,0,0,0-7.44-4.47c1.2.72,2.44,1.37,3.72,2.09-12.13-1.67-13.2-7.5-13.36-6.33a35.69,35.69,0,0,1-3.36,5.39c0,.34.07.67.11,1,1.54-1.35,3.4-2.58,4.45-1.8,2.12,1.56,8.44,4.34,12.57,4.46,2.83.09,5.12,5.25,8.37,9.77C415.14,144.11,413.19,141.35,411.64,140.2Z" transform="translate(-10.08 -13.66)"/><path class="cls-26" d="M396.14,126.74c.23.5.46,1,.7,1.41C396.6,127.7,396.37,127.24,396.14,126.74Z" transform="translate(-10.08 -13.66)"/><path class="cls-26" d="M391.19,136.81l-.57-5.31Z" transform="translate(-10.08 -13.66)"/><path class="cls-26" d="M395.56,125.51l.1.21Z" transform="translate(-10.08 -13.66)"/><path class="cls-26" d="M390.57,131h0l0,.42Z" transform="translate(-10.08 -13.66)"/><path class="cls-26" d="M403.13,135.07c-.31-.21-.63-.42-.94-.65C402.5,134.65,402.82,134.86,403.13,135.07Z" transform="translate(-10.08 -13.66)"/><path class="cls-26" d="M401.08,133.54l-.62-.55Z" transform="translate(-10.08 -13.66)"/><path class="cls-26" d="M402.09,134.34c-.26-.19-.51-.38-.76-.59C401.58,134,401.83,134.15,402.09,134.34Z" transform="translate(-10.08 -13.66)"/><path class="cls-26" d="M404.1,135.68l-.93-.59Z" transform="translate(-10.08 -13.66)"/><path class="cls-26" d="M398.39,130.63c-.19-.26-.37-.52-.56-.8C398,130.11,398.2,130.37,398.39,130.63Z" transform="translate(-10.08 -13.66)"/><path class="cls-26" d="M399.39,131.88c-.27-.3-.53-.62-.79-1C398.86,131.26,399.12,131.58,399.39,131.88Z" transform="translate(-10.08 -13.66)"/><path class="cls-26" d="M399.5,132c.24.26.47.5.71.74C400,132.51,399.74,132.27,399.5,132Z" transform="translate(-10.08 -13.66)"/><path class="cls-26" d="M439.72,138.27c0-.43-.07-.86-.1-1.28a12.87,12.87,0,0,1-3.48-8.25s.18,7.12-11.91,11.25h0a16.67,16.67,0,0,0-1.84,1.25c-3.28,2.58-3.49,20.07-3.5,22.57,0,0,1-15.95,3.25-19.51,1.18-1.87,2.91-2.52,5-2.9a15.68,15.68,0,0,0,5.22-2c.34-.2,4.45-3.72,3.7-4.32A20.63,20.63,0,0,0,439.72,138.27Z" transform="translate(-10.08 -13.66)"/><path class="cls-26" d="M439.41,134.19l0,.25Z" transform="translate(-10.08 -13.66)"/><path class="cls-38" d="M385.72,240.21s-19.12-17.14-27.25-33.45c.85,11.28,1.38,24.15.67,34.48-1.5,21.75-2.21,29.82-8,38.07-.53.77.74,4.64,1.41,6.78,16.76-6,12-6.24,17.8-5.94C376.72,280.49,374.06,249.26,385.72,240.21Z" transform="translate(-10.08 -13.66)"/><path class="cls-38" d="M336.9,244c4.84,2.86,4.6,8.49,4.6,8.49a11.73,11.73,0,0,0,3.57-.62c-.54-3.79-.85-6.39-.85-6.39l3.5-.5c3.5-.5,1-8.67,6.17-19.5,1.39-2.92,3.07-8.82,4.78-15.88-.94-13.69-2.46-25.63-3-28.87-.31-1.8-1.45-6.92-2.88-13.1,4.37,25.15-5.7,70.51-13,71.11S332.06,241.15,336.9,244Z" transform="translate(-10.08 -13.66)"/><path class="cls-38" d="M476.18,207.6c-.26-.62-.51-.93-.73-.84-3.18,1.27-8.56,11.73-9.81,18.15a22.56,22.56,0,0,1-4.92,10.33c3.39,12.09,13.44,36.33,19.15,49.75-2.83-11.84-6-30-4.73-55.28C475.58,220.68,475.91,213.45,476.18,207.6Z" transform="translate(-10.08 -13.66)"/><path class="cls-38" d="M495.75,251.66c-4.11-2.67-10.84-4.67-8.35-8.42s6.59-10.25,2-9.63-3.94-6.68-3.24-13-2.54-3.34-4.93-9.34-1.62-41.09-.63-51.17c-1,9.76-2,18.43-2.5,20.67-1.17,5.38-1.24,12.3-2.69,42.5,2.65,14.07,4.41,31.31,1.28,45.19.8,5.66,1.76,10.56,2.72,14.75a8,8,0,0,1,5.79-2.69c6.9,0,6.36-.46,0-7.23s3.05-10.79,5-14.78S499.86,254.34,495.75,251.66Z" transform="translate(-10.08 -13.66)"/><path class="cls-38" d="M380.48,298.47a103.06,103.06,0,0,1-20.2,21.79c-.81,12.39-.8,27.83,2.44,40.06,6.5,24.5,6.67,41.5,6.67,44.67s2.83,33.66,4.17,45,4.33,45.16,5.16,53.5,2.34,24,6.17,27.5,6.48,10,6.48,10c3.26-13.23,7-25.9,11.57-39.7q0-.88.06-1.74c1.1-21.88-8.61-58.61-7.11-66.11s-.5-38.5-4.66-47-4.34-33.5,0-44.21,0-37.4,0-37.4a37.19,37.19,0,0,0-1-5.65c-3.09-.36-6.3-.63-9.73-.75Z" transform="translate(-10.08 -13.66)"/><path class="cls-4" d="M792.92,304.89c0,.23,0,.45.05.67C793,305.34,792.94,305.12,792.92,304.89Z" transform="translate(-10.08 -13.66)"/><path class="cls-38" d="M428.89,442.15c-7.15-1-4-11.54-2.45-18.54s3.45-28.5,0-24.5,5.45-23.5-.1-18.27,7.05-17.23,3.08-16.73,10.35-60.37,10.35-60.37l-41.38-5.45c24.85,21.86,9.81,45.44,12.5,58.49a20.39,20.39,0,0,0,3.5,10.33c5.28,8.25,7.63,53.88,7.63,58.25s-3.5,11.13-1.86,13.13,1.86,7.37,3.11,10,0,8.37-3.88,11.25-24.67,64.54-27.17,79-10,35.5-10,35.5a4.1,4.1,0,0,0,1,1.05,41.29,41.29,0,0,1,8-13.38c7.85-9,15.66-2.84,9.71-16.34s11.45-31.5,7.7-37.59,10.25-16.91,7-25.41S421.21,462,423.24,454,436,443.15,428.89,442.15Z" transform="translate(-10.08 -13.66)"/><path class="cls-38" d="M410.89,356.78c0-.23-.08-.46-.13-.69a15.69,15.69,0,0,0-13.37-1s5.78.65,14.52,7A20.92,20.92,0,0,1,410.89,356.78Z" transform="translate(-10.08 -13.66)"/><path class="cls-26" d="M417.89,189.49c4.22,4.94,1.68,93.05,0,92.23-5.68-20.05-30,5.7-30.57,6.29l10.08-20.7v0a87.68,87.68,0,0,0,3.39-19.58l.06-1c0-.33.05-.66.06-1,0-.06,0-.13,0-.19a0,0,0,0,1,0,0,203.46,203.46,0,0,0-.84-28.55c2.8-3.93,5.51-7.33,6.18-6.81,1.5,1.17,2.5,10.51-1.88,14.84-2.81,2.78-.47,9.09,1,17.24.82,4.55-4.27,22-4.27,22,.55-2.85,9.29-12.43,9.87-15.56.75-4-3.09-18.26-2.35-22.27.84-4.57,4.18,1.73,4.92-2.33.61-3.36-3.19-14.51-2.57-19.5.3-2.34,5.28,3.91,5.9,2.14C419,200.58,412.59,178.49,417.89,189.49Z" transform="translate(-10.08 -13.66)"/><path class="cls-38" d="M475.45,309.49c-8.89-6.84-22.64-58.22-22.64-58.22h0c3.75,21.73,7.69,46.55,7.83,55,0,0,16,5.75,19.25,17.25.93,3.28,1.77,3.26,2.45,1.34C481.61,319.17,479.78,312.81,475.45,309.49Z" transform="translate(-10.08 -13.66)"/><path class="cls-26" d="M440.45,147.19c-.17-2-.33-4-.49-5.91-12.39,17.11-6.75,12.79-6.75,12.79S438.71,147.91,440.45,147.19Z" transform="translate(-10.08 -13.66)"/><path class="cls-26" d="M440.58,148.74a42.15,42.15,0,0,1-2.45,4.53c-8.55,14.32,1.18,4.11,2.75,2.85s-3.79,7.83-1.69,5.8c.55-.54,1.69-1.32,2.46.35C441.36,158.21,441,153.52,440.58,148.74Z" transform="translate(-10.08 -13.66)"/><path class="cls-38" d="M394.73,169h0c-.27-2.43-.53-4.78-.79-7.07h0Q394.33,165.39,394.73,169Z" transform="translate(-10.08 -13.66)"/><path class="cls-26" d="M391.41,138.84v.06c.71,6.62,1.56,14.37,2.52,23,.22-3.13,1.82-2.4,2.55-1.88,2.4,1.67-4.35-6.46-2.6-5.46s13,9.5,2.25-3.25,5,0,5,0S407.68,154.87,391.41,138.84Z" transform="translate(-10.08 -13.66)"/><path class="cls-4" d="M491.56,197.24" transform="translate(-10.08 -13.66)"/></g><g id="Layer_5" data-name="Layer 5"><path class="cls-33" d="M652.72,488.82s-2-20.67-11.33-37.67-8.33-34.33-8.67-50-8.66-67.69-11.66-74.51c0,0,1-1-2.54-5,0,0-1.57-2.38-.5-4.07s-.07-2.87-1.69-4.81,2.5-.75,2.69-1.56-2.57-3.94-3.07-6.63,1.14-39.75-2.74-44.53l-7.13-8.8a15.06,15.06,0,0,0-8.69,4.71c-6.5,6.5-19.52,3.5-22.76,2.75s-8,.75-12.24-2.75-12,.5-20.75-.25c0,0-.87.08-1.84-2.12h0a24.59,24.59,0,0,1-10.65-2.47,23,23,0,0,1-8.17,1.93c-2.37,2.59-5,6.29-5.41,10.41-.84,7.83-6.84,36.16-8.17,40.16s-8,24,0,45.34,11.33,48.83,15,58,3.83,24.5,3.33,24.83-1,3,.84,4.5,1.16,6.17,1.16,6.17.67,16.66.5,23.5,6.67,53.16,10.67,65.83a180.71,180.71,0,0,0,26.83-1.67s-.66-35-.33-36.33,3.83-20.5-1-32.33c0,0-2-6.17.67-19.34s-.5-19.16-.5-29.16.16-62.5.16-62.5,12.67,40.5,21.67,56c0,0,7.83,30.5,11.17,36s10.66,19.16,11.66,26.16,2,19.5,14,38.34l11.84,27.83s20,3,24.33-3.33Z" transform="translate(-10.08 -13.66)"/><path class="cls-3" d="M537.9,245.05a1.52,1.52,0,0,0-.35.26,23.37,23.37,0,0,1-2.89,2.41,31.54,31.54,0,0,1-4.91,3.08l-.61.35a24.59,24.59,0,0,0,10.65,2.47A30.87,30.87,0,0,1,537.9,245.05Z" transform="translate(-10.08 -13.66)"/><path class="cls-3" d="M543.36,102.16s.25,21.79,3,24.89,9.75,12.86,16.75,13.11,20.5-8.07,22-17.16.75-29.59-5.5-34.59-18.5-5-21.25-6.26S545.36,86.16,543.36,102.16Z" transform="translate(-10.08 -13.66)"/><path class="cls-15" d="M629.14,167.24c-5.5-17-33.75-20.75-33.75-20.75l-13.86.8c-.37,9.28-5.73,20.42-5.73,20.42-5-8.31-13.54-13.32-15.47-14.37-.29.11-.68.28-1.15.5l-3.63,2.21a30.11,30.11,0,0,0-10,13.32s-3.1-5.12-1.49-18.91l-33.57,10c-9.86,2.94-11.52,16.12-11.52,16.12-11.45,75.12,11.52,76.88,11.52,76.88a84.75,84.75,0,0,0,13.42-.75c7.25-1,14-7.75,14-7.75,1.25,11,3.75,10.75,3.75,10.75,8.75.75,16.5-3.25,20.75.25s9,2,12.24,2.75,16.26,3.75,22.76-2.75,11-4.25,20.5-6,7.5-8.75,9.5-11.24,3.25-34.51,3-38.67S634.64,184.24,629.14,167.24Z" transform="translate(-10.08 -13.66)"/><path class="cls-3" d="M576.39,215a12.59,12.59,0,0,1,11.25-2c6.5,2,12.13-.25,12.5,1s-10.25,9.44-13.44,10.06-8.32,4.69-8.32,4.69Z" transform="translate(-10.08 -13.66)"/><path class="cls-15" d="M541.64,255.74c8.75.75,16.5-3.25,20.75.25s9,2,12.24,2.75,16.26,3.75,22.76-2.75,11-4.25,20.5-6,7.5-8.75,9.5-11.24,3.25-34.51,3-38.67,4.25-15.84-1.25-32.84a20.6,20.6,0,0,0-4.92-8,24.88,24.88,0,0,0-7.83,6.64A93.94,93.94,0,0,0,606.64,184c-3.5,9.25-5.5,26.25-6.5,30s-21.76,14.75-21.76,14.75-17.29,5.67-22.64,10.9c-1.83,1.78-9.07,3.73-17.81,5.53v.06C539.18,256,541.64,255.74,541.64,255.74Z" transform="translate(-10.08 -13.66)"/><polygon class="cls-15" points="603.13 246.43 610.27 235.68 596 237.62 603.13 246.43"/><path class="cls-33" d="M573.39,606.32s-.67-16.17,1.17-24.67,3.88-11.16-.65-15.33-6-5.87-6-5.87,4.71,15.08,2.59,19.08S569,591,569,591s.91,5.5-3.13,6.91S547,600.11,545.56,597c0,0-6.63,10-1.46,12.5s16.5,1.41,25.62-1.46c0,0,1,.92,1.42-12.25a42.8,42.8,0,0,1,.58-6.42l-.54,18.21Z" transform="translate(-10.08 -13.66)"/><path class="cls-3" d="M548.39,573.82s.31,16.28-2.83,23.17c1.41,3.12,16.29,2.29,20.33.87S569,591,569,591s-.63-7.42,1.5-11.42-2.59-19.08-2.59-19.08-2.74,1.42-2.54-14.59c.08-6.61.31-11.88.33-15.71a181.88,181.88,0,0,1-26.83,1.67s5.31,15.17,6.5,18.67S545.39,570.65,548.39,573.82Z" transform="translate(-10.08 -13.66)"/><path class="cls-3" d="M673.39,591.82c-4-8.33-3.5-2.17-4.67-11.83s-5.16-10.84-4.66-13.84a30,30,0,0,0-3.34-17.5l-1.33-17.16c-4.33,6.33-24.33,3.33-24.33,3.33l7.66,17.67s-.66,7.66,2.17,11.33c0,0-1.33,10.83,1,16.33s-.5,17.67,6.67,19S677.39,600.15,673.39,591.82Z" transform="translate(-10.08 -13.66)"/><path class="cls-33" d="M674,594.15v0c-.08,6.07-15,6.22-21.4,5-7.17-1.33-4.34-13.5-6.67-19s-1-16.33-1-16.33a6.76,6.76,0,0,1-.68-1.1c-2,2.55-3.91,5.75-3.15,8.27,1.5,5,4.37,9.41,4.75,13.75,1.46,9.71-.25,21.58,4.91,25.41s20.17,4.34,23.25,0S675,597.36,674,594.15Z" transform="translate(-10.08 -13.66)"/><path class="cls-44" d="M578.38,228.74l-2-13.75-13.32,1.58c-13.33,1.57-26.18-2-26.18-2-3.37-1.62-10.62-1.12-10.62-1.12s-6.91,3.31-8.38,1c-5.22-8.2-2.43-27.06-2.62-40.13-.1-6.85-1.13-11.51-2.3-14.62l-2.5.75c-9.86,2.94-11.52,16.12-11.52,16.12-1.61,10.57-2.54,19.69-2.95,27.55-2.49,48,14.47,49.33,14.47,49.33a84.75,84.75,0,0,0,13.42-.75c7.25-1,14-7.75,14-7.75s14-1.75,19-6.24S578.38,228.74,578.38,228.74Z" transform="translate(-10.08 -13.66)"/><path class="cls-15" d="M575.8,167.71c-5-8.31-13.54-13.32-15.47-14.37-2.24.88-10.23,4.72-14.8,16,0,0-4.4-7.24,0-27.75l14.9,11.13,19.12-14.09C585.68,147.2,575.8,167.71,575.8,167.71Z" transform="translate(-10.08 -13.66)"/><path class="cls-45" d="M538.89,459c2.25-17,8-11.25,0-21.25s-4-41.25-5.5-46.75-3.75-32.5-10.25-45.62,10-12.63.13-30.41,15.37-22.6,12.12-33.1c-1.77-5.73-.16-14.88,1.67-22,.61-2.38,1.25-4.53,1.79-6.27a23.54,23.54,0,0,1-9.71-2.42,23,23,0,0,1-8.17,1.93c-2.37,2.59-5,6.29-5.41,10.41-.84,7.83-6.84,36.16-8.17,40.16s-8,24,0,45.34,11.33,48.83,15,58,3.83,24.5,3.33,24.83-1,3,.84,4.5,1.16,6.17,1.16,6.17.67,16.66.5,23.5,6.67,53.16,10.67,65.83q3.38,0,6.8,0l.2-.29S536.64,476,538.89,459Z" transform="translate(-10.08 -13.66)"/><path class="cls-45" d="M535.49,452.83c2.28.28,4.58.48,6.88.61s4.59.21,6.87.14A52.53,52.53,0,0,0,556,453c2.25-.34,4.3-1,6.67-1.18h0a.52.52,0,0,1,.37.92c-1.91,1.67-4.41,2.07-6.74,2.45a45.78,45.78,0,0,1-7.1.41,65.9,65.9,0,0,1-7-.54,58.5,58.5,0,0,1-6.92-1.29.5.5,0,0,1-.36-.61.51.51,0,0,1,.55-.37Z" transform="translate(-10.08 -13.66)"/><path class="cls-45" d="M535.4,462c2.37-.11,4.75-.3,7.12-.55s4.71-.6,7-1a40.89,40.89,0,0,0,6.79-1.81,44.17,44.17,0,0,0,6.21-3l0,0a.51.51,0,0,1,.69.19.52.52,0,0,1,0,.55c-1.52,2.14-4,3.24-6.25,4a41.44,41.44,0,0,1-7.12,1.78,65.45,65.45,0,0,1-7.23.78,67.61,67.61,0,0,1-7.26,0,.51.51,0,0,1-.47-.53.49.49,0,0,1,.48-.47Z" transform="translate(-10.08 -13.66)"/><path class="cls-46" d="M627.56,358.51c-2.42-15-5.07-28.61-6.5-31.87,0,0,1-1-2.54-5,0,0-1.57-2.38-.5-4.07s-.07-2.87-1.69-4.81,2.5-.75,2.69-1.56-2.57-3.94-3.07-6.63c-.4-2.14.56-26-1-38.12a63.83,63.83,0,0,1-9.23,16.69c-9.67,12.31,2.45,9.28-2.93,16.83s-14.43,9.86-3.09,18.34,2.89,8.18,9.45,13.49,4.2,15.35,14.21,22.17A15.25,15.25,0,0,1,627.56,358.51Z" transform="translate(-10.08 -13.66)"/><path class="cls-47" d="M618,315a17.45,17.45,0,0,0-1.69-2.21c-.51-.6-.46-.9-.14-1.05l-.76-.18a61.64,61.64,0,0,0-13.29-1.17c-4.41,0-8.8.32-13.15.61-2.18.16-4.35.33-6.51.41-1.08,0-2.15.05-3.21,0a10,10,0,0,1-3-.47h0a.5.5,0,0,0-.62.27.49.49,0,0,0,.25.66,11.24,11.24,0,0,0,3.34.81c1.12.13,2.22.18,3.33.21,2.21.05,4.4,0,6.59,0,4.37-.13,8.71-.27,13-.13a65.77,65.77,0,0,1,12.75,1.41C615.93,314.38,617,314.67,618,315Z" transform="translate(-10.08 -13.66)"/><polygon class="cls-48" points="603.13 246.43 610.27 235.68 596 237.62 603.13 246.43"/><path class="cls-47" d="M614.83,319.44c1,.29,2.07.61,3.08,1a3.28,3.28,0,0,1,.09-2.77c-.83-.27-1.66-.52-2.49-.74a57.58,57.58,0,0,0-6.59-1.27c-2.2-.33-4.41-.52-6.62-.63a126.92,126.92,0,0,0-13.23,0A131.4,131.4,0,0,0,576,316.39a.5.5,0,0,0,.12,1h0c4.34-.32,8.7-.53,13-.52a125,125,0,0,1,13,.46A74.67,74.67,0,0,1,614.83,319.44Z" transform="translate(-10.08 -13.66)"/><path class="cls-47" d="M621.06,326.64s.56-.59-.81-2.71a39.14,39.14,0,0,0-4.74-1.55,59.82,59.82,0,0,0-6.59-1.27c-2.2-.33-4.41-.52-6.62-.63a129.73,129.73,0,0,0-13.23,0A131.4,131.4,0,0,0,576,321.87a.5.5,0,0,0,.12,1h0c4.34-.32,8.7-.53,13-.52a127.84,127.84,0,0,1,13,.46,74.67,74.67,0,0,1,12.7,2.12,36.09,36.09,0,0,1,5.93,2.15l.58.29C621.24,327.08,621.15,326.84,621.06,326.64Z" transform="translate(-10.08 -13.66)"/><path class="cls-45" d="M558.84,341.46a43.39,43.39,0,0,1-7.56-1.7q-3.69-1.08-7.44-1.93c-2.49-.55-5-1.06-7.53-1.36a35,35,0,0,0-7.58-.24h0a.49.49,0,0,1-.54-.45.49.49,0,0,1,.4-.53l2-.38c.66-.1,1.32-.13,2-.19s1.32-.06,2-.08,1.32,0,2,0a54,54,0,0,1,7.83,1c2.59.47,5.13,1.12,7.65,1.83a25.19,25.19,0,0,1,7.24,3.07.51.51,0,0,1-.34.94Z" transform="translate(-10.08 -13.66)"/><path class="cls-45" d="M560.85,331.84a98.51,98.51,0,0,1-11.62-2.7q-5.75-1.5-11.59-2.63c-3.9-.74-7.81-1.38-11.74-1.83A114.52,114.52,0,0,0,514,324h0a.5.5,0,0,1-.5-.5.51.51,0,0,1,.47-.5c2-.12,4-.3,6-.26s4,.06,6,.18c4,.31,8,.74,12,1.44s7.89,1.54,11.79,2.51a46.05,46.05,0,0,1,11.36,4,.51.51,0,0,1-.31.95Z" transform="translate(-10.08 -13.66)"/><path class="cls-47" d="M613.1,303.59a2.71,2.71,0,0,1-1.9.16l-1.8-.32c-1.21-.18-2.41-.38-3.63-.53-2.43-.32-4.87-.54-7.33-.77a.51.51,0,0,1-.46-.55.5.5,0,0,1,.45-.45A42.09,42.09,0,0,1,606,301c1.25.1,2.51.21,3.75.4.63.09,1.25.19,1.87.3a2.62,2.62,0,0,1,1.75.92.61.61,0,0,1-.08.87.42.42,0,0,1-.12.08Z" transform="translate(-10.08 -13.66)"/><path class="cls-47" d="M613.1,292.18c-1.26.68-2.24.12-3.32,0l-3.2-.6c-2.13-.39-4.26-.73-6.41-1h0a.5.5,0,0,1-.44-.56.51.51,0,0,1,.41-.44,26.71,26.71,0,0,1,6.74-.11c1.11.12,2.22.25,3.32.45s2.26.12,3.14,1.3a.64.64,0,0,1-.13.91l-.08.05Z" transform="translate(-10.08 -13.66)"/><path class="cls-49" d="M639.32,466.72a.5.5,0,0,0-.67-.22h0c-3,1.54-6.53,1.95-10,2.26a95.61,95.61,0,0,1-10.44.13c-3-.11-6-.32-9.08-.58,0,.11.05.23.06.33.09.61.18,1.25.27,1.94,2.89.22,5.8.37,8.71.4a82.67,82.67,0,0,0,10.65-.53,38.33,38.33,0,0,0,5.28-1,17.38,17.38,0,0,0,5-2.1A.5.5,0,0,0,639.32,466.72Z" transform="translate(-10.08 -13.66)"/><path class="cls-49" d="M643.56,455.45c-.41-.89-.84-1.77-1.29-2.65-1.62,1.49-3.29,2.92-5,4.27a47.17,47.17,0,0,1-5.81,3.95,24.45,24.45,0,0,1-6.44,2.63h0a.51.51,0,0,0-.39.5.5.5,0,0,0,.51.49,19.17,19.17,0,0,0,7.29-1.72,34.62,34.62,0,0,0,6.45-3.71A50.39,50.39,0,0,0,643.56,455.45Z" transform="translate(-10.08 -13.66)"/><path class="cls-49" d="M634.87,433.15a1.62,1.62,0,0,1-.22,0,66.74,66.74,0,0,0-7.06.34c-1.18.13-2.35.28-3.52.51a34.8,34.8,0,0,0-3.46.83.51.51,0,0,0-.35.55.5.5,0,0,0,.56.43h0a63.22,63.22,0,0,1,6.87-.45c2.3,0,4.6,0,6.91.11l.78,0C635.2,434.72,635,433.94,634.87,433.15Z" transform="translate(-10.08 -13.66)"/><path class="cls-49" d="M633.92,427.52l-1.32,0q-3-.12-6,.06a39.51,39.51,0,0,0-6,.76,20.09,20.09,0,0,0-5.76,2,.41.41,0,0,0-.19.47.4.4,0,0,0,.5.28h0a29.06,29.06,0,0,1,5.7-1c1.93-.18,3.87-.22,5.82-.22s3.9.07,5.85.16l1.8.09C634.16,429.23,634,428.38,633.92,427.52Z" transform="translate(-10.08 -13.66)"/><path class="cls-49" d="M623.37,441.83a.49.49,0,0,0-.49-.51,32.65,32.65,0,0,0-7.56.63c-1.26.21-2.47.61-3.7.94a35.06,35.06,0,0,0-3.58,1.35,38.24,38.24,0,0,0-6.66,3.74l-.51.36c.36.66.72,1.35,1.09,2.05l.73-.55a42.88,42.88,0,0,1,6.24-3.67c1.08-.54,2.21-1,3.32-1.45s2.28-.83,3.46-1.1a43.33,43.33,0,0,1,7.19-1.3h0A.5.5,0,0,0,623.37,441.83Z" transform="translate(-10.08 -13.66)"/><g class="cls-50"><path class="cls-7" d="M564.71,354.88c0-2.75,0-4.39,0-4.39C564.69,351.94,564.69,353.4,564.71,354.88Z" transform="translate(-10.08 -13.66)"/><path class="cls-7" d="M640.89,535.39s-4-14.9-9-25.4a84.94,84.94,0,0,1-7.64-28c-.65-7-9.86-20.5-12.13-26.35s-9.73-15.65-12.41-24.59-.32-36.06-11.44-44.56-23.55-36-23.55-36,12.67,40.5,21.67,56c0,0,7.83,30.5,11.17,36s10.66,19.16,11.66,26.16,2,19.5,14,38.34l11.84,27.83S637.51,535.19,640.89,535.39Z" transform="translate(-10.08 -13.66)"/></g><path class="cls-45" d="M555,589.82c-2.75-6-.26-13,0-17.88s-3.59-3.12-2.92-9.22-2.94-13.23-2.94-13.23L546,531.76c-2.38.07-4.77.09-7.15.06,0,0,5.31,15.17,6.5,18.67s0,20.16,3,23.33c0,0,.31,16.28-2.83,23.17.62,1.36,3.81,2,7.55,2.11C554.88,596.54,556.45,593,555,589.82Z" transform="translate(-10.08 -13.66)"/><path class="cls-45" d="M655.52,585.67c-1.88-4.83-2-10.93-2-13.06s-3.75-3.87-4-10.87a16.72,16.72,0,0,0-4-10.75L640.9,535.4c-3.38-.21-5.84-.58-5.84-.58l7.66,17.67s-.66,7.66,2.17,11.33c0,0-1.33,10.83,1,16.33s-.5,17.67,6.67,19c.79.15,1.72.28,2.73.38C656,595.22,656.71,588.74,655.52,585.67Z" transform="translate(-10.08 -13.66)"/><path class="cls-47" d="M565.06,442.15c2.66-13.16-.5-19.16-.5-29.16v-3.57c-.41,13.51-1.63,30.51-5.14,35.42-6.07,8.52,1.37,3.26,4.4,19.8a147,147,0,0,1,1.84,27.77c.84-4.86,2.93-20.65-1.27-30.92C564.39,461.49,562.39,455.32,565.06,442.15Z" transform="translate(-10.08 -13.66)"/><path class="cls-47" d="M601.77,307.82a91.71,91.71,0,0,1,11.42,1.28,38.34,38.34,0,0,1,5.65,1.44c-.27-.57-.77-1.35-1.29-2.23a31.56,31.56,0,0,0-4-1,94.08,94.08,0,0,0-11.66-1.21c-3.88-.22-7.76-.25-11.61-.42a58.86,58.86,0,0,1-11.39-1.26l-.29,1a32.15,32.15,0,0,0,5.78,1.22c1.93.26,3.88.44,5.82.56Z" transform="translate(-10.08 -13.66)"/><path class="cls-47" d="M652.72,488.82s-2-20.67-11.33-37.67c-8.35-15.2-8.43-30.68-8.59-45-1.54,7.83-3.34,14.43-5.24,16.33-5.53,5.52,6.26,2.95,7.05,13s-4.22,23.89.78,26c3.71,1.53,11.84,14.79,18.23,33.12Z" transform="translate(-10.08 -13.66)"/><path class="cls-45" d="M587.64,213c6.5,2,12.13-.25,12.5,1,.79-3,2.2-14.15,4.48-23.29-2.65.71-6.35,15.54-8.1,11.16s-.88,11-8.75,9.13c-5.1-1.22-11,2-14.5,4.37l3.12-.37A12.59,12.59,0,0,1,587.64,213Z" transform="translate(-10.08 -13.66)"/><path class="cls-45" d="M517.89,214.49c1.47,2.31,8.38-1,8.38-1s7.25-.5,10.62,1.12c0,0,2,.55,5.25,1.12-4.14-4.18-8.74-8.15-11.86-8.84-4.82-1.06-11.71-9.28-15.53-14.3C514.53,201.34,514.85,209.72,517.89,214.49Z" transform="translate(-10.08 -13.66)"/><path class="cls-45" d="M505.49,199.11c-1.16-1.88-2.18-3.84-3.19-5.81s-1.93-4-2.88-6c-.52-1.1-1-2.21-1.52-3.32-.18,1.38-.35,2.73-.5,4.06,0,.07.07.13.1.2,1,2,2.13,4,3.29,5.89.56,1,1.2,1.92,1.84,2.85l1,1.38,1.06,1.33a.5.5,0,0,0,.81-.58Z" transform="translate(-10.08 -13.66)"/><path class="cls-45" d="M510.51,172.91a15.08,15.08,0,0,0-.84-2.48,26.7,26.7,0,0,0-2.47-4.52c-.58-.86-1.19-1.69-1.81-2.52a17,17,0,0,0-1.6,1.69c.56.69,1.1,1.38,1.63,2.09a35.14,35.14,0,0,1,2.67,4,12.43,12.43,0,0,1,1.68,4.38v.06a.5.5,0,0,0,1-.08l0-1.34Z" transform="translate(-10.08 -13.66)"/><path class="cls-45" d="M505.26,179.66a49.76,49.76,0,0,1-2.55-7.36c-.36-1.31-.69-2.6-1.08-3.92a27,27,0,0,0-2.16,5.68,40.86,40.86,0,0,0,2.74,7c1.22,2.49,2.64,4.83,4,7.12a52.49,52.49,0,0,1,3.75,7v0a.53.53,0,0,0,.53.32A.51.51,0,0,0,511,195a28.35,28.35,0,0,0-2.44-8Z" transform="translate(-10.08 -13.66)"/><path class="cls-45" d="M512.83,214.79a.51.51,0,0,0,.61.1.52.52,0,0,0,.2-.69,30.34,30.34,0,0,0-4.47-6.11,43.52,43.52,0,0,0-5.68-5,56.68,56.68,0,0,0-6.37-4.06c-.25-.13-.51-.24-.76-.36-.09,1.13-.17,2.24-.23,3.33,1.94,1.09,3.83,2.25,5.69,3.46s3.92,2.78,5.78,4.3a57.28,57.28,0,0,1,5.21,5Z" transform="translate(-10.08 -13.66)"/><path class="cls-45" d="M517.41,232.08a22.36,22.36,0,0,1,2-2.48c.68-.76,1.38-1.49,2.07-2.21a26.08,26.08,0,0,0,1.89-2.24,7.61,7.61,0,0,0,1.3-2.47h0l-.24-.9,1.06.49a10.59,10.59,0,0,1,2.39,1.59,14.87,14.87,0,0,1,2,2.07,13.49,13.49,0,0,1,1.58,2.49,7.36,7.36,0,0,1,.46,1.51,4.57,4.57,0,0,1,0,.84,4.2,4.2,0,0,1-.2.85h0l-.63-.61c1.72-1.17,3.48-2.14,5-3.31a11.4,11.4,0,0,0,2-1.93,8.26,8.26,0,0,0,1.25-2.46l0,0a.51.51,0,0,1,1,.06,5.63,5.63,0,0,1-.55,3.48,8.42,8.42,0,0,1-2.24,2.69,11.12,11.12,0,0,1-2.9,1.71,9.84,9.84,0,0,1-3.23.76l-.93,0,.3-.66h0a4.4,4.4,0,0,0-.88-2.08,25.24,25.24,0,0,0-1.61-2c-.57-.67-1.19-1.31-1.77-2a21.54,21.54,0,0,1-1.66-2.18l.82-.41h0a5.43,5.43,0,0,1-.43,3.56,11.76,11.76,0,0,1-1.84,2.89,13.39,13.39,0,0,1-2.42,2.28,10.21,10.21,0,0,1-3,1.53.53.53,0,0,1-.6-.79Z" transform="translate(-10.08 -13.66)"/><path class="cls-45" d="M506.88,234a33.21,33.21,0,0,1,2-4.1c.74-1.32,1.56-2.58,2.36-3.85s1.61-2.52,2.37-3.79a19.18,19.18,0,0,0,1.93-3.8l0-.11a.5.5,0,0,1,.62-.33.52.52,0,0,1,.35.44,7,7,0,0,1-.29,2.49,18.11,18.11,0,0,1-.79,2.25,34.93,34.93,0,0,1-2.1,4.14,36.52,36.52,0,0,1-2.55,3.84,22.9,22.9,0,0,1-3.14,3.4.51.51,0,0,1-.82-.57Z" transform="translate(-10.08 -13.66)"/><path class="cls-45" d="M549.72,223.86a11.47,11.47,0,0,1-.2,4,14.12,14.12,0,0,1-1.46,3.79,11,11,0,0,1-2.61,3.2,6.81,6.81,0,0,1-3.82,1.57.55.55,0,0,1-.59-.5.52.52,0,0,1,.09-.34l0,0c.75-1.16,1.53-2,2.23-2.86a24.37,24.37,0,0,0,2.09-2.63,14.26,14.26,0,0,0,.92-1.45c.3-.49.57-1,.84-1.53.54-1.05,1-2.18,1.5-3.3l0-.05a.51.51,0,0,1,.67-.27A.5.5,0,0,1,549.72,223.86Z" transform="translate(-10.08 -13.66)"/><path class="cls-45" d="M543.41,190.86a32,32,0,0,1,2.78-4.31,43.92,43.92,0,0,1,7-7.37c.65-.56,1.33-1.07,2-1.6a5.5,5.5,0,0,1,2.29-1.18.53.53,0,0,1,.63.42.58.58,0,0,1-.06.39l0,0a6.06,6.06,0,0,1-1.83,1.71c-.66.5-1.32,1-2,1.51-1.29,1-2.5,2.16-3.68,3.31a46.26,46.26,0,0,0-3.37,3.63,42.76,42.76,0,0,0-3,3.94l0,0a.5.5,0,0,1-.69.15A.52.52,0,0,1,543.41,190.86Z" transform="translate(-10.08 -13.66)"/><path class="cls-38" d="M561.51,154l-1.18-.67s9.48,8.48,9.73,10.9,5.08,3.75,5.74,3.47C571.53,160.55,564.59,155.85,561.51,154Z" transform="translate(-10.08 -13.66)"/><path class="cls-39" d="M547.75,139.2v4.08l12.68,9.47,18-13.23v-6.18l.06-.05c-4.85,4.2-11.21,7-15.33,6.87-6.62-.23-13.24-9-16.26-12.54l.9,1.39Z" transform="translate(-10.08 -13.66)"/><path class="cls-15" d="M558.43,154.19c-.32,4.87-.83,13.31-.65,16.94A60.42,60.42,0,0,1,556,190.38c-1.83,6.6.54,24.69.54,24.69H561s-2-11.6-1.55-18.63,3.5-18.19,2.75-25.06c-.53-4.86-.31-14.28-.14-19.4Z" transform="translate(-10.08 -13.66)"/><path class="cls-38" d="M553.86,157.39l-.45.41-.43.4c-.25.23-.5.48-.74.73l-.23.24c-.23.23-.45.47-.67.72s-.37.42-.55.64l-.33.38a32.71,32.71,0,0,0-4.93,8.46c.68.21,5.38-1.8,5.39-4.23s9.41-11.8,9.41-11.8l-1.41.63A24.88,24.88,0,0,0,553.86,157.39Z" transform="translate(-10.08 -13.66)"/><path class="cls-7" d="M629,137.64c-6.84-4-4.43-4.75-7.68-10.83s-5-3.17-6.16-8.5-.92-4.83-4.84-6.67-.5-6-2.58-8.91-2.75-9.42-3.25-11.84-5.25-2.33-8.25-7.25-11-13.83-15.5-15.08-24-9.92-32.33,2.83c0,0-15.17,10.09-17.5,14.42s4.33,1.42,2.08,9.75S526,109.31,525,111.89s0,4.5-2.5,8.59,1.09,6-1,7.66,1.17,9-1.33,10.17.5,5.25-2.33,7.83-2.59,12.92-2.59,12.92,5.79-3.91,6.84-.42c1.86,6.19,2.58-.93,5.66,3.62s-.33,8.55,7.92,9.22-3.25-2.42.92-5.59,1.58-3.58,7.83-6.08,3.31-14,3.31-14V129l-1.39-2.13c-2.75-3.11-3-24.9-3-24.9,2-16,12.25-21.25,15-20s15,1.26,21.25,6.26,7,25.5,5.5,34.59c-.62,3.76-3.31,7.58-6.73,10.52v6.49l1.39.15s-.16,7.16-1.41,10.25,7.5-.5,3.41,5.66,0,3.59,3.5,10.25,6.75-2,10.34-.91-.92-5.92,2.5-6.67,14.41-.17,14-2.58,13.36.78,15.28,7.41c0,0,5.47-5.25-1-7.5s6.5-.5,7-5S635.79,141.64,629,137.64Z" transform="translate(-10.08 -13.66)"/><path class="cls-51" d="M629,137.64c-6.84-4-4.43-4.75-7.68-10.83s-5-3.17-6.16-8.5-.92-4.83-4.84-6.67-.5-6-2.58-8.91-2.75-9.42-3.25-11.84-5.25-2.33-8.25-7.25-11-13.83-15.5-15.08-24-9.92-32.33,2.83c0,0-15.17,10.09-17.5,14.42s4.33,1.42,2.08,9.75S526,109.31,525,111.89s0,4.5-2.5,8.59,1.09,6-1,7.66,1.17,9-1.33,10.17.5,5.25-2.33,7.83-2.59,12.92-2.59,12.92,5.75-3.82,6.84-.42c2,6.15,2.58-.93,5.66,3.62s-.33,8.55,7.92,9.22-3.25-2.42.92-5.59,1.58-3.58,7.83-6.08,3.31-14,3.31-14V129l-1.39-2.13c-2.75-3.11-3-24.9-3-24.9,2-16,12.25-21.25,15-20s15,1.26,21.25,6.26,7,25.5,5.5,34.59c-.62,3.76-3.31,7.58-6.73,10.52v6.49l1.39.15s-.16,7.16-1.41,10.25,7.5-.5,3.41,5.66,0,3.59,3.5,10.25,6.75-2,10.34-.91-.92-5.92,2.5-6.67,14.41-.17,14-2.58,13.36.78,15.28,7.41c0,0,5.47-5.25-1-7.5s6.5-.5,7-5S635.79,141.64,629,137.64Z" transform="translate(-10.08 -13.66)"/><path class="cls-3" d="M517.89,214.49c-1.18-4.12-5-6.36-6.25-7.86-4.5-5.39,3.25-4.14,6.75-1.64,1.51,1.08,4.19,4.95,6.75,9C518,216.9,517.89,214.49,517.89,214.49Z" transform="translate(-10.08 -13.66)"/></g></svg>