<?xml version="1.0" encoding="utf-8"?>
<!-- Generator: Adobe Illustrator 22.1.0, SVG Export Plug-In . SVG Version: 6.00 Build 0)  -->
<svg version="1.1" id="Layer_1" xmlns="http://www.w3.org/2000/svg" xmlns:xlink="http://www.w3.org/1999/xlink" x="0px" y="0px"
	 viewBox="0 0 673 602.8" style="enable-background:new 0 0 673 602.8;" xml:space="preserve">
<style type="text/css">
	.st0{fill:none;}
	.st1{fill:none;stroke:#231F20;stroke-width:0.75;}
	.st2{fill:#D2FAD6;}
	.st3{fill:#85B4C7;}
	.st4{opacity:0.5;fill:url(#SVGID_1_);enable-background:new    ;}
	.st5{fill:none;stroke:#3482A1;stroke-miterlimit:10;}
	.st6{fill:#3482A1;}
	.st7{fill:url(#SVGID_2_);}
	.st8{fill:url(#SVGID_3_);}
	.st9{fill:url(#SVGID_4_);}
	.st10{fill:none;stroke:#85B4C7;stroke-linejoin:round;}
	.st11{opacity:0.5;fill:#85B4C7;enable-background:new    ;}
	.st12{fill:url(#SVGID_5_);}
	.st13{fill:url(#SVGID_6_);}
	.st14{fill:#FFFFFF;}
	.st15{opacity:0.3;}
	.st16{fill:url(#SVGID_7_);}
	.st17{fill:url(#SVGID_8_);}
	.st18{fill:url(#SVGID_9_);}
	.st19{fill:#191839;}
	.st20{fill:url(#SVGID_10_);}
	.st21{fill:url(#SVGID_11_);}
	.st22{fill:url(#SVGID_12_);}
	.st23{fill:url(#SVGID_13_);}
	.st24{fill:url(#SVGID_14_);}
	.st25{fill:url(#SVGID_15_);}
	.st26{fill:url(#SVGID_16_);}
	.st27{fill:url(#SVGID_17_);}
	.st28{opacity:0.2;fill:#85B4C7;enable-background:new    ;}
	.st29{opacity:0.2;fill:#191839;enable-background:new    ;}
	.st30{opacity:0.1;fill:#85B4C7;enable-background:new    ;}
	.st31{fill:url(#SVGID_18_);}
	.st32{fill:url(#SVGID_19_);}
	.st33{fill:#FFFFFF;stroke:url(#SVGID_20_);stroke-miterlimit:10;}
	.st34{fill:none;stroke:url(#SVGID_21_);stroke-miterlimit:10;}
	.st35{fill:#F8B0BC;}
	.st36{fill:url(#SVGID_22_);}
	.st37{opacity:0.1;fill:url(#SVGID_23_);enable-background:new    ;}
	.st38{fill:url(#SVGID_24_);fill-opacity:0;}
	.st39{fill:#3482A1;stroke:#3482A1;stroke-miterlimit:10;}
	.st40{opacity:0.2;fill:#3482A1;enable-background:new    ;}
	.st41{fill:#35296F;}
	.st42{fill:#323071;stroke:#3482A1;stroke-miterlimit:10;}
	.st43{fill:url(#SVGID_25_);}
	.st44{fill:#323071;}
	.st45{fill:#85B4C7;stroke:#3482A1;stroke-linejoin:round;}
	.st46{opacity:0.3;fill:#FFFFFF;enable-background:new    ;}
	.st47{opacity:0.1;fill:#3482A1;enable-background:new    ;}
	.st48{opacity:6.000000e-02;fill:#FFFFFF;enable-background:new    ;}
	.st49{opacity:0.1;fill:#FFFFFF;enable-background:new    ;}
	.st50{opacity:0.2;fill:url(#SVGID_26_);enable-background:new    ;}
	.st51{opacity:5.000000e-02;fill:#3482A1;enable-background:new    ;}
	.st52{opacity:0.1;}
	.st53{opacity:0.1;fill:url(#SVGID_27_);enable-background:new    ;}
</style>
<pattern  y="602.8" width="72" height="72" patternUnits="userSpaceOnUse" id="Ripple" viewBox="16.3 -84.2 72 72" style="overflow:visible;">
	<g>
		<rect x="16.3" y="-84.2" class="st0" width="72" height="72"/>
		<rect x="16.3" y="-84.2" class="st0" width="72" height="72"/>
		<path class="st1" d="M96.7-76.3c0,0,1-4.1-2.9-4s-3.9-1.9-3.1-4.3s-0.2-4.6-3.3-4.6"/>
		<path class="st1" d="M29.7-27.7c0,0,3.8,1.7,4.5-2.1c0.7-3.8,2.6-3.5,4.8-2.2c2.2,1.3,4.6,0.7,5.1-2.4"/>
		<path class="st1" d="M82.3-40.9c0,0-2.6-3.3-5-0.2s-3.9,1.9-5.3-0.2c-1.4-2.1-3.7-2.7-5.7-0.2"/>
		<path class="st1" d="M55.3-41.2c0,0-3.8,1.7-1.5,4.7s0.9,4.3-1.5,5.1s-3.6,2.9-1.7,5.4"/>
		<path class="st1" d="M57.5-37c0,0,4.1,0.9,2.4,4.4s0,4.4,2.5,4.7c2.5,0.3,4.1,2.1,2.7,5"/>
		<path class="st1" d="M71.5-27.1c0,0,4.1,0.9,2.4,4.4c-1.7,3.5,0,4.4,2.5,4.7c2.5,0.3,4.1,2.2,2.7,5"/>
		<path class="st1" d="M43.7-46.4c0,0,3.7,2,1.1,4.8s-1.2,4.2,1.2,5.2c2.4,1,3.4,3.2,1.2,5.5"/>
		<path class="st1" d="M26.7-35.1c0,0,1.3-4-2.6-4.2s-3.8-2.2-2.8-4.5c1-2.3,0.2-4.6-2.9-4.8"/>
		<path class="st1" d="M23.9-53.4c0,0-2,3.6,1.7,4.6s3.3,2.9,1.9,5c-1.4,2.1-1.1,4.5,2,5.3"/>
		<path class="st1" d="M36.8-29.2c0,0,1.3,4,4.6,1.8c3.3-2.1,4.3-0.5,4.9,2c0.6,2.5,2.6,3.8,5.3,2.1"/>
		<path class="st1" d="M28.7-56.7c0,0-1.8,3.8,2.1,4.5s3.5,2.6,2.2,4.8s-0.8,4.6,2.3,5.2"/>
		<path class="st1" d="M40.3-50.9c0,0-3.4,2.4-0.5,4.9c2.9,2.5,1.7,4-0.5,5.3c-2.2,1.3-3,3.5-0.6,5.6"/>
		<path class="st1" d="M27.3-71.8c0,0,0.3,4.2,4,2.9s4.3,0.6,4.3,3.2c0,2.5,1.5,4.4,4.5,3.4"/>
		<path class="st1" d="M45.8-65.1c0,0-0.4-4.2-4-2.9c-3.6,1.3-4.3-0.5-4.3-3.1c0-2.6-1.6-4.3-4.6-3.3"/>
		<path class="st1" d="M36-39.5c0,0-4.2-0.2-3.4,3.6c0.8,3.8-1.1,4.2-3.6,3.9s-4.5,1-3.9,4.1"/>
		<path class="st1" d="M49-40.2c0,0-1.5-3.9,2.4-4.3s3.7-2.4,2.5-4.7s-0.4-4.6,2.7-5"/>
		<path class="st1" d="M19.7-57.9c0,0,1.9-3.7,4.8-1.1s4.2,1.2,5.2-1.2c1-2.4,3.2-3.4,5.5-1.3"/>
		<path class="st1" d="M67.3-95.6c0,0-1.8,3.7,2,4.6c3.8,0.8,3.4,2.7,2,4.9s-0.9,4.5,2.2,5.2"/>
		<path class="st1" d="M80.9-22.2c0,0,2.4-3.3-1.1-4.8c-3.6-1.5-2.9-3.3-1.2-5.2s1.7-4.3-1.3-5.5"/>
		<path class="st1" d="M76.3-26.5c0,0-4.1-0.8-2.4-4.3s0-4.4-2.6-4.6s-4.1-2.1-2.8-5"/>
		<path class="st1" d="M33.4-12.9c0,0,4.2-0.2,3-3.9s0.7-4.3,3.3-4.2c2.6,0.1,4.4-1.4,3.5-4.5"/>
		<path class="st1" d="M55.8-27.9c0,0-4,1-2.2,4.4s0.1,4.4-2.4,4.7c-2.5,0.4-4,2.3-2.5,5"/>
		<path class="st1" d="M34.3-20.1c0,0-4,1.3-4.2-2.6s-2.2-3.8-4.5-2.8s-4.6,0.2-4.8-3"/>
		<path class="st1" d="M24.7-76.3c0,0,1-4.1-2.9-4s-3.9-1.9-3.1-4.3s-0.2-4.6-3.3-4.6"/>
		<path class="st1" d="M86.7-45.7c0,0-2.3-3.5-4.9-0.7s-4.1,1.6-5.3-0.7s-3.5-3.1-5.6-0.8"/>
		<path class="st1" d="M66.7-13.8c0,0,1-4.1-2.9-4c-3.9,0.1-4-1.9-3.1-4.3s-0.2-4.6-3.3-4.6"/>
		<path class="st1" d="M60.2-44c0,0-1.6,3.8,2.2,4.4s3.6,2.5,2.4,4.8c-1.2,2.2-0.6,4.6,2.6,5.1"/>
		<path class="st1" d="M91.2-45.8c0,0-4.2,0.4-2.8,4.1c1.3,3.6-0.4,4.3-3,4.4c-2.6,0-4.3,1.7-3.2,4.7"/>
		<path class="st1" d="M78.5-50.4c0,0,3.5,2.3,4.8-1.3s3.1-3,5.1-1.4s4.4,1.5,5.4-1.5"/>
		<path class="st1" d="M88-74.9c0,0-0.8-4.1-4.3-2.5s-4.4-0.1-4.6-2.7c-0.2-2.5-2-4.2-4.9-2.8"/>
		<path class="st1" d="M45.1-56.2c0,0,4.1-0.5,2.7-4.2c-1.4-3.6,0.3-4.3,2.9-4.5s4.3-1.8,3.1-4.8"/>
		<path class="st1" d="M31.1-55.6c0,0,1.2-4,4.5-2s4.3,0.4,4.8-2.1c0.5-2.5,2.5-3.9,5.2-2.3"/>
		<path class="st1" d="M18.1-72.2c0,0,1.2-4,4.5-2s4.3,0.4,4.9-2.2s2.5-3.9,5.2-2.3"/>
		<path class="st1" d="M54.2-81.2c0,0,4.2,0.4,2.9,4s0.5,4.3,3.1,4.3c2.6,0,4.3,1.6,3.3,4.6"/>
		<path class="st1" d="M50.8-72.3c0,0,3.2-2.7,0.1-5s-2-3.9,0.1-5.3s2.7-3.8,0.1-5.7"/>
		<path class="st1" d="M67.2-75.8c0,0-3.4,2.4-0.4,4.9c3,2.5,1.8,4-0.4,5.3c-2.2,1.3-2.9,3.6-0.4,5.6"/>
		<path class="st1" d="M72.3-71.6c0,0,2.8,3.1,5-0.2S81-74,82.6-72s3.9,2.5,5.7-0.2"/>
		<path class="st1" d="M56.5-44.7c0,0,4.2-0.2,3-3.9s0.7-4.3,3.2-4.2c2.6,0.1,4.4-1.5,3.4-4.5"/>
		<path class="st1" d="M48-52.6c0,0-0.4-4.2,3.4-3.6s4.2-1.3,3.7-3.8s0.8-4.5,3.9-4.1"/>
		<path class="st1" d="M35.8-54.9c0,0,1.1,4,4.5,2.2c3.4-1.8,4.4-0.2,4.8,2.3c0.4,2.5,2.3,4,5.1,2.5"/>
		<path class="st1" d="M17.5-25.4c0,0,4.2,0.2,3,3.9s0.7,4.3,3.3,4.2c2.5-0.1,4.4,1.5,3.5,4.5"/>
		<path class="st1" d="M52-69.8c0,0-3.8,1.7-4.5-2.1c-0.7-3.8-2.5-3.5-4.8-2.3c-2.2,1.2-4.6,0.7-5.1-2.5"/>
		<path class="st1" d="M100.1-65c0,0-1.6,3.9-4.7,1.5s-4.3-0.8-5,1.7c-0.7,2.4-2.9,3.6-5.4,1.8"/>
		<path class="st1" d="M84.1-61c0,0-1-4-4.4-2.2c-3.4,1.8-4.4,0.2-4.8-2.4c-0.4-2.5-2.3-4-5.1-2.5"/>
		<path class="st1" d="M76-73c0,0-0.1-4.2-3.9-3.1c-3.7,1.1-4.3-0.8-4.1-3.3c0.2-2.5-1.4-4.4-4.4-3.6"/>
		<path class="st1" d="M67.7-60.1c0,0,2,3.7,4.9,1s4.2-1.3,5.2,1.1c1,2.3,3.2,3.3,5.6,1.1"/>
		<path class="st1" d="M57.6-71.3c0,0-2,3.7,1.8,4.6s3.3,2.8,1.9,5s-1,4.5,2.1,5.3"/>
		<path class="st1" d="M78.3-95.7c0,0-1.3,4,2.6,4.2s3.8,2.2,2.8,4.5s-0.2,4.6,3,4.8"/>
		<path class="st1" d="M62.7-46.2c0,0,4.1,0.8,3.9-3.1s1.7-4,4.2-3.3c2.5,0.7,4.6-0.3,4.5-3.5"/>
		<path class="st1" d="M82.9-25c0,0,4.1,0.5,3.7-3.3s1.4-4.1,3.9-3.6s4.6-0.6,4.2-3.8"/>
		<path class="st1" d="M81.4-66c0,0,2.4-3.4,4.9-0.5c2.5,3,4,1.7,5.3-0.5s3.6-2.9,5.6-0.5"/>
		<path class="st1" d="M61.8-75c0,0-3.7-1.9-1.2-4.8s1.1-4.2-1.3-5.2s-3.4-3.1-1.3-5.5"/>
		<path class="st1" d="M44.6-92.5c0,0-3.6,2.2-0.8,4.9c2.8,2.7,1.4,4.1-0.9,5.2c-2.3,1.1-3.2,3.4-0.9,5.6"/>
		<path class="st1" d="M36.3-77.9c0,0,1.2-4-2.7-4.2s-3.9-2.1-2.9-4.5c1-2.3,0.1-4.6-3.1-4.8"/>
		<path class="st1" d="M19.2-45.8c0,0-4.2,0.4-2.8,4.1c1.3,3.6-0.5,4.3-3,4.4c-2.6,0-4.3,1.7-3.2,4.7"/>
		<path class="st1" d="M6.5-50.4c0,0,3.5,2.3,4.8-1.3s3.1-3,5.1-1.4s4.4,1.5,5.5-1.5"/>
		<path class="st1" d="M16-74.9c0,0-0.8-4.1-4.3-2.5s-4.4-0.1-4.6-2.7s-2-4.2-4.9-2.8"/>
		<path class="st1" d="M0.3-71.6c0,0,2.8,3.1,4.9-0.2S9-74,10.5-72s3.9,2.5,5.6-0.2"/>
		<path class="st1" d="M28.1-65c0,0-1.6,3.8-4.7,1.5s-4.3-0.8-5,1.7c-0.7,2.4-2.9,3.6-5.4,1.8"/>
		<path class="st1" d="M10.9-25c0,0,4.1,0.5,3.7-3.3s1.4-4.1,3.9-3.6c2.5,0.6,4.6-0.6,4.2-3.8"/>
		<path class="st1" d="M9.4-66c0,0,2.4-3.4,4.9-0.5c2.5,3,4,1.7,5.3-0.5c1.3-2.2,3.6-2.9,5.6-0.5"/>
		<path class="st1" d="M96.7-4.3c0,0,1-4.1-2.9-4c-3.9,0.1-3.9-1.9-3.1-4.3s-0.2-4.6-3.3-4.6"/>
		<path class="st1" d="M67.3-23.6c0,0-1.8,3.7,2,4.6c3.8,0.8,3.4,2.7,2,4.9s-0.9,4.5,2.2,5.2"/>
		<path class="st1" d="M24.7-4.3c0,0,1-4.1-2.9-4c-3.9,0.1-3.9-1.9-3.1-4.3s-0.2-4.6-3.3-4.6"/>
		<path class="st1" d="M50.8-0.3c0,0,3.2-2.7,0.1-5s-2-3.9,0.1-5.3s2.7-3.8,0.1-5.7"/>
		<path class="st1" d="M78.3-23.7c0,0-1.3,4,2.6,4.2s3.8,2.2,2.8,4.5s-0.2,4.6,3,4.8"/>
		<path class="st1" d="M61.8-3c0,0-3.7-1.9-1.2-4.8s1.1-4.2-1.3-5.2c-2.4-0.9-3.4-3.1-1.3-5.5"/>
		<path class="st1" d="M44.6-20.5c0,0-3.6,2.1-0.8,4.9c2.8,2.7,1.4,4.1-0.9,5.2C40.6-9.3,39.7-7,42-4.8"/>
		<path class="st1" d="M36.3-5.9c0,0,1.2-4-2.7-4.2s-3.9-2.1-2.9-4.5c1-2.3,0.1-4.6-3.1-4.8"/>
	</g>
</pattern>
<title>youngprofessionals</title>
<g id="Left_Man">
	<path class="st2" d="M93.7,37.3c0,0-4.8,1.3-4.5,4.8s-2.6,6.7,0,10.5c1.2,1.7,2.5,3.4,4,4.9c0.1,0.2,0.3,0.3,0.4,0.5
		c0.2,0.3,0.2,0.7,0.3,1c0.5,3.2,0.3,7.7,2.2,10.3c1.3,1.8,2.8,3.6,4.2,5.3c2.5,2.9,7.2,9.2,11.5,8.9c5.4-0.3,13.7,1.9,20.1-5.1
		c3.8-4.2,7-8.9,9.6-14c0,0,4.1,0.9,5.7-0.3c1.7-1.2,3.5-6,4.4-9.6c0.6-2.4,0.6-4.9,0-7.3l-8,4.1c0,0,5.4-18.2,2.6-23.9
		s-5.1-13.7-18.1-14s-15.6-1.3-20.7,2.5S95.6,41.5,95.6,41.5L93.7,37.3z"/>
	<path class="st3" d="M139,596.2c0.2,2.2-1.6,3.8-6.5,4.2c-18,1.6-29.5-3.6-31.6-4.7c-0.3-0.1-0.5-0.2-0.8-0.2h-3l-9.6-0.7
		c-1-0.1-1.7-0.9-1.7-1.8l0.3-5.8c-0.6-2.8-0.3-14.4,0.2-19.3c0.1-0.6,0.4-1.1,0.9-1.4c3.3-1.9,16.2-9,24-5c2.3,1.2,4,1.1,5.4,0.4
		c0.9-0.5,2-0.2,2.5,0.7c0.2,0.3,0.3,0.7,0.2,1.1c-0.3,2.4-1.2,5.2,2.8,10.1C130,583.4,141.1,591.8,139,596.2z"/>
	
		<linearGradient id="SVGID_1_" gradientUnits="userSpaceOnUse" x1="32.73" y1="393.9984" x2="101.05" y2="393.9984" gradientTransform="matrix(1 0 0 -1 -10.08 590.34)">
		<stop  offset="0" style="stop-color:#323071"/>
		<stop  offset="1" style="stop-color:#191839"/>
	</linearGradient>
	<path class="st4" d="M82.8,146.4c2.8,26.9-7.8,67.2-13,84.9s-25.2,77.4-25.2,77.4c-16.6,2-22-6.5-22-6.5c1-3.6,2.2-9.1,3.4-15.4
		c0.4,0.7,0.8,1.3,1.3,2l25.4-20.8c0,0-5.4-8.4-10.3-16.6c-2.5-4.1-4.8-8.1-6.3-11l0.2-0.6c0.1-0.2,0.2-0.4,0.2-0.6s0.2-0.4,0.2-0.7
		l0.2-0.7c0.1-0.3,0.2-0.6,0.3-0.9s0.2-0.6,0.3-1c3.2-13.2,3.7-36.6,3.8-43.1c0-1.1,0-1.7,0-1.7c4.5-42.2-6.1-87.1-6.1-87.1
		c0.8-0.4,1.6-0.7,2.5-0.8c3.6-0.9,9.7-1.7,13.3-2.7c4.7-1.3,13.3-6.7,25-8.7c11.2-1.9,14.7-7.8,15-8.2
		C90.7,84.8,81.6,125.6,82.8,146.4z"/>
	<ellipse class="st5" cx="62.4" cy="245.5" rx="1.6" ry="2.1"/>
	<ellipse class="st5" cx="70.8" cy="214" rx="1.6" ry="2.4"/>
	<path class="st6" d="M38.2,237.1l11.6,3.4l-2.4,8.8c-0.2,0.8-1.3,1.3-3,1.3c-0.5,0-0.9,0-1.3-0.1c-2.6-4.3-4.5-7.7-5.8-10.2
		l0.1-0.2c0.1-0.2,0.2-0.5,0.2-0.7c0.1-0.2,0.2-0.5,0.2-0.7l0.2-0.7C38.1,237.8,38.1,237.5,38.2,237.1 M37.5,235.9L37.5,235.9
		l-0.2,1c-0.1,0.3-0.2,0.6-0.3,0.9l-0.2,0.7c-0.1,0.2-0.1,0.5-0.2,0.7s-0.1,0.4-0.2,0.6l-0.2,0.6c1.5,2.9,3.8,6.9,6.3,11
		c0.7,0.1,1.3,0.1,2,0.1c2,0,3.6-0.5,4-2l2.7-9.8L37.5,235.9L37.5,235.9z"/>
	
		<linearGradient id="SVGID_2_" gradientUnits="userSpaceOnUse" x1="67.61" y1="365.51" x2="67.61" y2="365.51" gradientTransform="matrix(1 0 0 -1 0 604)">
		<stop  offset="0" style="stop-color:#85B4C7"/>
		<stop  offset="0.21" style="stop-color:#80B1C5"/>
		<stop  offset="0.44" style="stop-color:#73A9BF"/>
		<stop  offset="0.68" style="stop-color:#5D9BB4"/>
		<stop  offset="0.93" style="stop-color:#3E88A6"/>
		<stop  offset="1" style="stop-color:#3482A1"/>
	</linearGradient>
	<polygon class="st7" points="67.6,238.5 67.6,238.5 67.6,238.5 	"/>
	
		<linearGradient id="SVGID_3_" gradientUnits="userSpaceOnUse" x1="76.742" y1="429.68" x2="101.062" y2="429.68" gradientTransform="matrix(1 0 0 -1 -10.08 590.34)">
		<stop  offset="0" style="stop-color:#85B4C7"/>
		<stop  offset="0.21" style="stop-color:#80B1C5"/>
		<stop  offset="0.44" style="stop-color:#73A9BF"/>
		<stop  offset="0.68" style="stop-color:#5D9BB4"/>
		<stop  offset="0.93" style="stop-color:#3E88A6"/>
		<stop  offset="1" style="stop-color:#3482A1"/>
	</linearGradient>
	<path class="st8" d="M80.4,90.8L80.4,90.8c-2,4.2-8.9,10.4-8.9,10.4l4.8,6.7h-6.8c0,0-6.2,30.3-0.3,69.7
		c5.3,35.3-0.2,56.2-1.3,60.2c0.8-2.5,1.4-4.7,2-6.4c5.3-17.8,15.8-58,13-84.9C81.6,125.3,91,83.6,91,83.6S88.5,88.2,80.4,90.8z"/>
	
		<linearGradient id="SVGID_4_" gradientUnits="userSpaceOnUse" x1="10.0874" y1="393.88" x2="62.77" y2="393.88" gradientTransform="matrix(1 0 0 -1 -10.08 590.34)">
		<stop  offset="0" style="stop-color:#323071"/>
		<stop  offset="1" style="stop-color:#191839"/>
	</linearGradient>
	<path class="st9" d="M52.7,268.1l-25.4,20.8c-0.4-0.7-0.8-1.3-1.3-2l0,0c-5.8-9.6-9-19.9-13.4-27.2c-4.6-7.9-0.6-11.1-5.9-17.1
		s-4.6-18.2-4.6-18.2s-0.8-21-2-26s4.2-9,4.2-9s0.9-7.8,2.4-9.9s6.3-16.1,6.3-16.1c0-6,2.6-11.7,7.1-15.6
		c-1.9-8.8,2.5-11.6,2.5-11.6c0-4.7,0.4-11.1,4.2-14.7s3.6-11.5,3.5-14s4.9-3.1,4.9-3.1s10.6,44.9,6.1,87.1c0,0,0,0.6,0,1.7
		l-7.7,17.5c0,0-2.7,7.1,0,8.9s0.8,13.9,0.9,17.4c0.3,1.4,0.8,2.7,1.5,3.9c1.5,2.9,3.8,6.9,6.3,11C47.3,259.7,52.7,268.1,52.7,268.1
		z"/>
	<path class="st6" d="M176.2,532.5c-0.1-11.8,0.1-9.4,0.1-9.4l3.8-0.2c0,0,3-19.4,0.3-24.7s-3.9-4.9-9.5-4.6c-0.2,0-0.5,0.1-0.7,0.3
		c1.4,0.8,2.1,2.1,3,4.2c2,4.6-0.8,29.9-0.9,35.4s7.3,13.6,7.3,32.5c0.1,11.1-4.5,21.8-12.7,29.4h-0.1c1.6,0.8,3,1.2,3.4,0.8
		c1.4-1.3,12.5-12,12.5-32S176.3,544.2,176.2,532.5z"/>
	<path class="st3" d="M172.3,533.5c0.1-5.5,2.9-30.8,0.9-35.4s-3.2-5.3-12.4-5.8l2.7,1.8c0,0,4.5,6.8-2.3,21
		c-3.9,8.3-11.9,13.9-21,14.8c0,0-0.8,8.1,5.1,13.9s9.3,11.8,10.3,22.8s0.9,27.4,11.1,28.7c8.2-7.6,12.8-18.2,12.8-29.3
		C179.6,547.1,172.2,539,172.3,533.5z"/>
	<polygon class="st10" points="138,87.5 138,87.5 138,87.5 138,87.5 	"/>
	<path class="st10" d="M122.8,226.6c0,0,2.3-53.3,7.3-74.1c4.8-20,10.3-54.3,8.1-64.5l-0.1-0.5l0,0l-1.3-2.6
		c-5.8,7.4-12.7,13.9-20.4,19.3v12c-3.3,1.3-8,15.4-8,15.4c-3.7-7-3.4-26-3.4-26c-4.9-7.3-9.1-15.2-12.3-23.4L90.9,84
		c-0.9,4.2-9.3,42.5-8.1,62.4c2.8,26.9-7.8,67.2-13,84.9c-2.1,6.9-6.4,20.3-10.8,34c8.8-1.8,29.6-10.9,29.6-10.9
		c4.3,0.9,25.6,1.1,37.1,1.1C123.8,242.4,122.7,231,122.8,226.6z"/>
	<polygon class="st10" points="138,87.5 138,87.5 138,87.5 138,87.5 	"/>
	<path class="st10" d="M122.8,226.6c0,0,2.3-53.3,7.3-74.1c4.8-20,10.3-54.3,8.1-64.5l-0.1-0.5l0,0l-1.3-2.6
		c-5.8,7.4-12.7,13.9-20.4,19.3v12c-3.3,1.3-8,15.4-8,15.4c-3.7-7-3.4-26-3.4-26c-4.9-7.3-9.1-15.2-12.3-23.4L90.9,84
		c-0.9,4.2-9.3,42.5-8.1,62.4c2.8,26.9-7.8,67.2-13,84.9c-2.1,6.9-6.4,20.3-10.8,34c8.8-1.8,29.6-10.9,29.6-10.9
		c4.3,0.9,25.6,1.1,37.1,1.1C123.8,242.4,122.7,231,122.8,226.6z"/>
	<path class="st11" d="M130.1,152.4c3.7-15.4,7.8-39.3,8.5-54.1l-2.4,6.9c-5.1,28-8.1,58.5-8.1,58.5l0,0
		C128.6,159.4,129.3,155.5,130.1,152.4z"/>
	
		<linearGradient id="SVGID_5_" gradientUnits="userSpaceOnUse" x1="54.7896" y1="190.735" x2="175.0968" y2="190.735" gradientTransform="matrix(1 0 0 -1 -10.08 590.34)">
		<stop  offset="0" style="stop-color:#323071"/>
		<stop  offset="1" style="stop-color:#191839"/>
	</linearGradient>
	<path class="st12" d="M163.6,494.1l-13-8.8c0.5-7.3-5.8-10.8-5.8-10.8c-9.3-8.8-11-16.8-11-16.8c-7.6-28.2-31-56-31-56l2.1-1.3
		l-2.9-5.7l0.8-2.5l-1-4.8c0,0,0-13,0.8-18.1s4.5-35,5.2-40s17.2-25.4,17.2-25.4l-11.8-32.8c-25.7,1.5-44.5-0.6-53.2-1.9
		c-4.5,4.3-11.5,11.5-13.9,17.2c-3.8,8.8,1.5,36.8,1.5,36.8c2.9,10.3,1.6,16.3,3.4,40.7s4.6,30.8,4.6,30.8c-2.3,3.8,2,5.2,2,5.2
		l1.5,4.8c-3.8,5,2,6.5,2,6.5s5.8,12.5,12,25s26.8,37.8,35.8,48.8s31.5,44.8,31.5,44.8c9.1-0.8,17.1-6.4,21-14.8
		C168,500.8,163.6,494.1,163.6,494.1z"/>
	
		<linearGradient id="SVGID_6_" gradientUnits="userSpaceOnUse" x1="95.8102" y1="173.6628" x2="174.89" y2="173.6628" gradientTransform="matrix(1 0 0 -1 -10.08 590.34)">
		<stop  offset="0" style="stop-color:#323071"/>
		<stop  offset="1" style="stop-color:#191839"/>
	</linearGradient>
	<path class="st13" d="M164.8,265.6l-30.8,0.7l0.6,2.9c-9.8,1.2-18.9,1.9-27.2,2.2c2.7,5.9,6.1,15.5,6.1,32
		c0,20.3-5.5,23.1-5.5,23.1l-3.1,24.9c0,0,0.1,3.3,0,9s1.9,14.5,0,19.8s0,20.2,0,20.2s-7.9,86-9.1,103.5
		c-1.3,17.5-2.8,27.3-7.5,35.8c-3.4,6.1-2.7,19.6-2,26.9c0.2,1.9,0.1,0.6,1.6-0.2c3.3-1.8,16.2-9,24-5c2.3,1.2,4,1.1,5.4,0.4
		c0.3-0.2,0.7-0.2,1-0.2c0.4-3.2,1.3-6.3,2.6-9.2c2.1-4.3,6.3-6.8,9.1-11c6.5-9.8,12.8-66.7,12.8-66.7c1.3-7.8,3.8-46.3,3.8-46.3
		c2.8-5.5,6-22.5,5.3-26.8s6.8-33,8-43.8S164.8,265.6,164.8,265.6z"/>
	<polygon class="st14" points="138,87.5 138,87.5 138,87.5 138,87.5 	"/>
	<path class="st14" d="M122.8,226.6c0,0,2.3-53.3,7.3-74.1c4.8-20,10.3-54.3,8.1-64.5l-0.1-0.5l0,0l-1.3-2.6
		c-5.8,7.4-12.7,13.9-20.4,19.3v12c-3.3,1.3-8,15.4-8,15.4c-3.7-7-3.4-26-3.4-26c-5.7-8.3-12.3-21.2-12.3-23.4L90.9,84
		c-0.9,4.2-9.3,42.5-8.1,62.4c2.8,26.9-7.8,67.2-13,84.9c-2.1,6.9-6.4,20.3-10.8,34c8.8-1.8,29.6-10.9,29.6-10.9
		c4.3,0.9,25.6,1.1,37.1,1.1C123.8,242.4,122.7,231,122.8,226.6z"/>
	<g class="st15">
		<path class="st3" d="M92,84.2c0.7,1.6,2,4.3,4.7,9.3c2,3.7,4.1,7.4,5,9c-4.2,3.2-8.2,8.4-10.2,11.2c-0.9-3.6-2.1-7.1-3.5-10.5
			l3.8-18.7L92,84.2 M92.6,82.1C92.6,82.1,92.5,82.1,92.6,82.1L92.6,82.1z M92.5,82.2L90.9,84L87,103.3c1.7,4.3,3.4,9.4,4,12.9
			c0,0,6-9.2,12-13.4C103,102.7,92.1,83.7,92.5,82.2L92.5,82.2z"/>
	</g>
	<g class="st15">
		<path class="st3" d="M136.5,86.7c1.1,3,1.5,6.2,1.1,9.3c-1.5,7.7-4.6,15.1-9,21.6c-0.2-3.6-1.5-9.6-7.1-16
			C127,97.2,132,92.2,136.5,86.7 M136.7,84.9c-4.9,6.2-10.5,11.7-16.6,16.7c9.5,10.2,7.4,19.5,7.4,19.5c5.5-7.4,9.4-15.9,11.1-24.9
			C138.9,91.5,138.3,87.6,136.7,84.9z"/>
	</g>
	
		<linearGradient id="SVGID_7_" gradientUnits="userSpaceOnUse" x1="103.3" y1="490.8" x2="147.3" y2="490.8" gradientTransform="matrix(1 0 0 -1 -10.08 590.34)">
		<stop  offset="0" style="stop-color:#323071"/>
		<stop  offset="1" style="stop-color:#191839"/>
	</linearGradient>
	<path class="st16" d="M134.9,74.8l-0.3,0.3c-0.3,0.4-0.7,0.8-1,1.2l-0.4,0.4c-0.4,0.5-0.9,1-1.4,1.6c-6.4,7-14.7,4.8-20.1,5.1
		c-0.2,0-0.4,0-0.5,0c-4.2-0.2-8.6-6.1-11-8.9l0,0c-0.7-0.8-1.3-1.5-1.8-2.2l-0.6-0.8c-0.7-0.9-1.3-1.7-1.7-2.3l0,0
		c-0.5-0.7-0.8-1.1-0.8-1.1l-0.1-0.7c0.3,6.1-1.2,9.3-2,16.1c2.4,5.1,7.9,16.4,11.7,21.9c0,0-0.2,19,3.4,26c0,0,4.7-14,8-15.4v-12
		c7.7-5.4,14.5-11.8,20.3-19.2l0.5-13.3l0,0C136.5,72.7,135.7,73.7,134.9,74.8z"/>
	<path class="st2" d="M185.4,323.6c-3.5-3.2-10.6-7.3-23.1-5.3c-1.9,4.6-4,12-4.2,15.4c-0.3,4.5-2.2,5.2-4.5,12.3s5.7,2.5,5.7,2.5
		c3-2.8,5.3-9.2,6.4-13.2c0.6-2,2.4,2,2.4,2c6.4,10-6.7,15-11.8,23s3.3,4,11.4,1.3s11-7.8,12.8-12.2s4.8-8,4.5-14.8
		C185,331,185.2,327.3,185.4,323.6z"/>
	
		<linearGradient id="SVGID_8_" gradientUnits="userSpaceOnUse" x1="195.25" y1="264.22" x2="198.18" y2="264.22" gradientTransform="matrix(1 0 0 -1 -10.08 590.34)">
		<stop  offset="0" style="stop-color:#323071"/>
		<stop  offset="1" style="stop-color:#191839"/>
	</linearGradient>
	<path class="st17" d="M185.2,328.6c1.1-0.5,2.1-1.2,2.9-2c-0.7-1.1-1.6-2.1-2.6-3C185.3,325.2,185.2,326.9,185.2,328.6z"/>
	
		<linearGradient id="SVGID_9_" gradientUnits="userSpaceOnUse" x1="195.21" y1="267.035" x2="195.29" y2="267.035" gradientTransform="matrix(1 0 0 -1 -10.08 590.34)">
		<stop  offset="0" style="stop-color:#323071"/>
		<stop  offset="1" style="stop-color:#191839"/>
	</linearGradient>
	<path class="st18" d="M185.2,323.3L185.2,323.3L185.2,323.3L185.2,323.3z"/>
	<path class="st19" d="M131.6,255.8c0,0-14.2-0.1-26.7-0.5c-7.5-0.2-14.2-0.4-16.4-0.9c0,0-20.8,9.1-29.6,10.9l0,0l-1.2,3.7
		c9.1,1.5,37.3,5.2,76.9,0.3L131.6,255.8z"/>
	
		<linearGradient id="SVGID_10_" gradientUnits="userSpaceOnUse" x1="171.36" y1="367.545" x2="207.5157" y2="367.545" gradientTransform="matrix(1 0 0 -1 -10.08 590.34)">
		<stop  offset="0" style="stop-color:#323071"/>
		<stop  offset="1" style="stop-color:#191839"/>
	</linearGradient>
	<path class="st20" d="M193.9,159.9c0-4.5-0.2-9.1-0.8-13.6c1.8-6.2,0-19.3,0-19.3c-0.2-6.7-3.2-8.1-3.2-8.1
		c-7.1,14.8-12.7,30.4-16.7,46.3c0,0-6.1,16.8-8.1,22.6s-2.8,24-2,34.8s5.1,15,5.5,29c0.4,12-5.5,54.5-7.3,66.8
		c20-3.6,26.8,8.3,26.8,8.3s8.2-55.4,9.2-68S193.8,166.7,193.9,159.9z"/>
	
		<linearGradient id="SVGID_11_" gradientUnits="userSpaceOnUse" x1="132.8864" y1="386.01" x2="200.02" y2="386.01" gradientTransform="matrix(1 0 0 -1 -10.08 590.34)">
		<stop  offset="0" style="stop-color:#323071"/>
		<stop  offset="1" style="stop-color:#191839"/>
	</linearGradient>
	<path class="st21" d="M160.8,321.8c0,0-8.9,0-20.3-11c-9.7-8.6-17.9-72.3-17.7-84.3c0,0,2.3-53.3,7.3-74.1s10.8-57.1,7.8-65.6
		c1.1,3.9,3.9,7.1,7.5,8.8c6.3,3,10,2.3,24.3,12c0,0,7.6,2.6,11.8,5.3c4.2,2.7,8.6,6,8.6,6c-7.1,14.8-12.7,30.4-16.7,46.3
		c0,0-6.1,16.8-8.1,22.6s-2.8,24-2,34.8s5.1,15,5.5,29C169,265.5,160.8,321.8,160.8,321.8z"/>
	
		<linearGradient id="SVGID_12_" gradientUnits="userSpaceOnUse" x1="147.89" y1="503.2" x2="148.07" y2="503.2" gradientTransform="matrix(1 0 0 -1 -10.08 590.34)">
		<stop  offset="0" style="stop-color:#85B4C7"/>
		<stop  offset="0.21" style="stop-color:#80B1C5"/>
		<stop  offset="0.44" style="stop-color:#73A9BF"/>
		<stop  offset="0.68" style="stop-color:#5D9BB4"/>
		<stop  offset="0.93" style="stop-color:#3E88A6"/>
		<stop  offset="1" style="stop-color:#3482A1"/>
	</linearGradient>
	<path class="st22" d="M138,87.4c0-0.2-0.1-0.4-0.2-0.6C137.8,86.8,137.9,87.1,138,87.4z"/>
	
		<linearGradient id="SVGID_13_" gradientUnits="userSpaceOnUse" x1="132.89" y1="431.425" x2="162.73" y2="431.425" gradientTransform="matrix(1 0 0 -1 -10.08 590.34)">
		<stop  offset="0" style="stop-color:#85B4C7"/>
		<stop  offset="0.21" style="stop-color:#80B1C5"/>
		<stop  offset="0.44" style="stop-color:#73A9BF"/>
		<stop  offset="0.68" style="stop-color:#5D9BB4"/>
		<stop  offset="0.93" style="stop-color:#3E88A6"/>
		<stop  offset="1" style="stop-color:#3482A1"/>
	</linearGradient>
	<path class="st23" d="M144.3,95.1c-3-1.7-5.2-4.4-6.3-7.6c2.6,9.5-3,44.6-7.9,65c-5,20.8-7.3,74.1-7.3,74.1c0,0.9,0,2.2,0.1,3.8
		c1.3-10.1,3.9-25.4,9.1-38.9c8.8-22.6,18.5-58.1,20-76.4l-6.3-1.1l6.9-3.2C152.6,110.9,147.8,102.7,144.3,95.1z"/>
	<path class="st6" d="M167.1,245.3c0.3,2.1,0.4,4.2,0.5,6.3c0.1,1.7,0,4.1-0.2,7.2c-2.9,0.1-5.2,0.2-6.6,0.3h-0.1
		c-2.1,0-3.8-6.6-4.4-11.6L167.1,245.3 M167.9,244.1l-12.7,2.6c0,0,1.2,13.4,5.4,13.4h0.1c1.8-0.1,4.7-0.3,7.5-0.4
		c0.2-3.4,0.4-6.2,0.3-8.2C168.5,249.1,168.3,246.6,167.9,244.1z"/>
	<path class="st6" d="M165.3,151.6v3.8l-21.1,2c0.1-0.5,0.3-1,0.4-1.6C151.4,153.9,158.3,152.5,165.3,151.6 M166.3,150.4
		c-7.6,1-15.1,2.5-22.5,4.6c-0.3,1.2-0.6,2.3-1,3.5l23.5-2.2L166.3,150.4L166.3,150.4z"/>
	
		<linearGradient id="SVGID_14_" gradientUnits="userSpaceOnUse" x1="32.73" y1="393.9984" x2="101.05" y2="393.9984" gradientTransform="matrix(1 0 0 -1 -10.08 590.34)">
		<stop  offset="0" style="stop-color:#323071"/>
		<stop  offset="1" style="stop-color:#191839"/>
	</linearGradient>
	<path class="st24" d="M82.8,146.4c2.8,26.9-7.8,67.2-13,84.9s-25.2,77.4-25.2,77.4c-16.6,2-22-6.5-22-6.5c1-3.6,2.2-9.1,3.4-15.4
		c0.4,0.7,0.8,1.3,1.3,2l25.4-20.8c0,0-5.4-8.4-10.3-16.6c-2.5-4.1-4.8-8.1-6.3-11l0.2-0.6c0.1-0.2,0.2-0.4,0.2-0.6s0.2-0.4,0.2-0.7
		l0.2-0.7c0.1-0.3,0.2-0.6,0.3-0.9s0.2-0.6,0.3-1c3.2-13.2,3.7-36.6,3.8-43.1c0-1.1,0-1.7,0-1.7c4.5-42.2-6.1-87.1-6.1-87.1
		c0.8-0.4,1.6-0.7,2.5-0.8c3.6-0.9,9.7-1.7,13.3-2.7c4.7-1.3,13.3-6.7,25-8.7c11.2-1.9,14.7-7.8,15-8.2
		C90.7,84.8,81.6,125.6,82.8,146.4z"/>
	<ellipse class="st5" cx="62.4" cy="245.5" rx="1.6" ry="2.1"/>
	<ellipse class="st5" cx="70.8" cy="214" rx="1.6" ry="2.4"/>
	<path class="st6" d="M38.2,237.1l11.6,3.4l-2.4,8.8c-0.2,0.8-1.3,1.3-3,1.3c-0.5,0-0.9,0-1.3-0.1c-2.6-4.3-4.5-7.7-5.8-10.2
		l0.1-0.2c0.1-0.2,0.2-0.5,0.2-0.7c0.1-0.2,0.2-0.5,0.2-0.7l0.2-0.7C38.1,237.8,38.1,237.5,38.2,237.1 M37.5,235.9L37.5,235.9
		l-0.2,1c-0.1,0.3-0.2,0.6-0.3,0.9l-0.2,0.7c-0.1,0.2-0.1,0.5-0.2,0.7s-0.1,0.4-0.2,0.6l-0.2,0.6c1.5,2.9,3.8,6.9,6.3,11
		c0.7,0.1,1.3,0.1,2,0.1c2,0,3.6-0.5,4-2l2.7-9.8L37.5,235.9L37.5,235.9z"/>
	
		<linearGradient id="SVGID_15_" gradientUnits="userSpaceOnUse" x1="67.61" y1="365.51" x2="67.61" y2="365.51" gradientTransform="matrix(1 0 0 -1 0 604)">
		<stop  offset="0" style="stop-color:#85B4C7"/>
		<stop  offset="0.21" style="stop-color:#80B1C5"/>
		<stop  offset="0.44" style="stop-color:#73A9BF"/>
		<stop  offset="0.68" style="stop-color:#5D9BB4"/>
		<stop  offset="0.93" style="stop-color:#3E88A6"/>
		<stop  offset="1" style="stop-color:#3482A1"/>
	</linearGradient>
	<polygon class="st25" points="67.6,238.5 67.6,238.5 67.6,238.5 	"/>
	
		<linearGradient id="SVGID_16_" gradientUnits="userSpaceOnUse" x1="76.742" y1="429.68" x2="101.062" y2="429.68" gradientTransform="matrix(1 0 0 -1 -10.08 590.34)">
		<stop  offset="0" style="stop-color:#85B4C7"/>
		<stop  offset="0.21" style="stop-color:#80B1C5"/>
		<stop  offset="0.44" style="stop-color:#73A9BF"/>
		<stop  offset="0.68" style="stop-color:#5D9BB4"/>
		<stop  offset="0.93" style="stop-color:#3E88A6"/>
		<stop  offset="1" style="stop-color:#3482A1"/>
	</linearGradient>
	<path class="st26" d="M80.4,90.8L80.4,90.8c-2,4.2-8.9,10.4-8.9,10.4l4.8,6.7h-6.8c0,0-6.2,30.3-0.3,69.7
		c5.3,35.3-0.2,56.2-1.3,60.2c0.8-2.5,1.4-4.7,2-6.4c5.3-17.8,15.8-58,13-84.9C81.6,125.3,91,83.6,91,83.6S88.5,88.2,80.4,90.8z"/>
	
		<linearGradient id="SVGID_17_" gradientUnits="userSpaceOnUse" x1="10.0874" y1="393.88" x2="62.77" y2="393.88" gradientTransform="matrix(1 0 0 -1 -10.08 590.34)">
		<stop  offset="0" style="stop-color:#323071"/>
		<stop  offset="1" style="stop-color:#191839"/>
	</linearGradient>
	<path class="st27" d="M52.7,268.1l-25.4,20.8c-0.4-0.7-0.8-1.3-1.3-2l0,0c-5.8-9.6-9-19.9-13.4-27.2c-4.6-7.9-0.6-11.1-5.9-17.1
		s-4.6-18.2-4.6-18.2s-0.8-21-2-26s4.2-9,4.2-9s0.9-7.8,2.4-9.9s6.3-16.1,6.3-16.1c0-6,2.6-11.7,7.1-15.6
		c-1.9-8.8,2.5-11.6,2.5-11.6c0-4.7,0.4-11.1,4.2-14.7s3.6-11.5,3.5-14s4.9-3.1,4.9-3.1s10.6,44.9,6.1,87.1c0,0,0,0.6,0,1.7
		l-7.7,17.5c0,0-2.7,7.1,0,8.9s0.8,13.9,0.9,17.4c0.3,1.4,0.8,2.7,1.5,3.9c1.5,2.9,3.8,6.9,6.3,11C47.3,259.7,52.7,268.1,52.7,268.1
		z"/>
	<path class="st28" d="M93.2,231.4c-1.5-1.2-2.9-2.6-4.2-4l-0.9-1.1c-0.3-0.4-0.6-0.8-0.8-1.1c-0.3-0.4-0.5-0.8-0.7-1.2l-0.8-1.3
		c-1.2-2-2.7-3.8-4.6-5.3c-0.9-0.7-1.8-1.3-2.8-1.8c-1-0.5-2-0.9-3.1-1.2c-0.2-0.1-0.5-0.1-0.7-0.2c-0.5,1.9-1,3.8-1.4,5.6
		c1.7,0.9,3.3,1.8,4.8,2.5c0.8,0.4,1.6,0.8,2.3,1.3l1,0.8c0.3,0.3,0.6,0.6,0.9,0.9c0.2,0.2,0.3,0.3,0.5,0.5l0.5,0.7
		c0.3,0.4,0.7,0.9,1.1,1.3c0.4,0.4,0.8,0.8,1.1,1.2l1.2,1.1c1.6,1.4,3.3,2.6,5.1,3.7c3.5,2.1,7.2,3.9,11.1,5.4l0.4-0.9
		C99.6,236.2,96.3,234,93.2,231.4z"/>
	<path class="st28" d="M103.2,238c0,0,0.9-38.4,0-41.6s-3.1-12.4-1.1-30.1s5.4-37,0.3-43.3s-8.7-10-8.7-10l9.6-9.9l1.6,2.3
		c0.2,10,0.6,19.6,3.4,26l1,7.8c-0.2,10.3-1,20.5-2.5,30.7c-2.3,13.9,1,22.1,0.8,30.9s-1,37.7-1,37.7L103.2,238z"/>
	<path class="st28" d="M126.1,110.7c0,0-11.3,21-14.3,44.7c-1.8,14.9-2,29.9-0.6,44.8c0,0,1.6-60.8,16.5-81.3
		C127.6,116.1,127,113.3,126.1,110.7z"/>
	<path class="st28" d="M126.6,174.8c-2.5,0.9-9.8-16.3-9.8-13.3s2.3,24,7.9,34C125.2,188.7,125.8,181.5,126.6,174.8z"/>
	<path class="st28" d="M124.5,198.6c-7.8-3.7-10.5-23.2-10.4-18.9s-0.5,12.3,3.5,18c2.8,4,5.1,7.9,6.3,9.9
		C124,204.8,124.2,201.8,124.5,198.6z"/>
	<path class="st28" d="M122.8,226.6c0,0,0.2-4.5,0.6-11.3c-6.8-4.3-10.3-15-10.3-15s-1.4,4.4,2.2,12c3.5,7.6-2.8,8.6-4.9,17.5
		s10.2,13.6,10.2,13.6c1.2,0.2,2.5,0.3,3.7,0.2C123.4,237.9,122.9,232.2,122.8,226.6z"/>
	<path class="st28" d="M69.9,246.8l-5.7,2.4c-0.8,2.6-1.8,5.4-2.7,8.3c14.1-7.3,29.6-11.6,45.5-12.5
		C111.2,243.8,90.6,238.3,69.9,246.8z"/>
	<path class="st28" d="M73.7,217.3c-0.4,1.4-0.8,2.9-1.1,4.2c-0.2,0.7-0.4,1.5-0.6,2.2c-0.4,1.4-0.8,2.8-1.1,4.1s-0.7,2.5-1,3.6
		l-0.4,1.3l-0.1,0.2l-0.5,1.4v0.1c-0.2,0.5-0.3,1-0.5,1.6v0.1l-0.6,1.8l0,0l0,0c-0.8,2.6-1.7,5.5-2.7,8.7c4.2-5.2,10-12.8,10.9-16.1
		C77.4,225.1,73.7,217.3,73.7,217.3L73.7,217.3z"/>
	<path class="st28" d="M78.8,195c4.2,11.1,9.2,22.9,9.3,16.6c0.1-6.8-3.5-23.6-6.3-35.3C81.1,182.5,80,188.8,78.8,195z"/>
	<path class="st2" d="M52.7,268.1L52.7,268.1l-22.1,18.1c1.9,2.9,3.5,6,4.8,9.2c1.3,3.3,6,8.4,10,12.3c-0.8-8-1.1-16.8,0.7-21.1
		c2.4-5.7,9.3-12.9,13.9-17.1L52.7,268.1z"/>
	<path class="st6" d="M153.2,543.2c-0.2-0.1-0.5,0-0.6,0.2c-0.6,0.8-3.8,1.3-5.9,1.4h-0.3c0.3,0.3,0.6,0.6,0.9,0.9
		c1.6-0.1,3.2-0.4,4.7-0.9c-0.6,1.3-1.4,2.4-2.4,3.4l-0.1,0.1l0.6,0.8l0.2-0.2c1.5-1.4,2.6-3.2,3.2-5.2
		C153.5,543.6,153.4,543.3,153.2,543.2z"/>
	<path class="st6" d="M155.5,548.5c-0.2-0.1-0.5,0-0.6,0.2c-0.5,1.1-3.2,1.2-4.1,1.2h-0.2c0.2,0.3,0.4,0.7,0.6,1
		c0.8,0,1.6-0.1,2.3-0.2c-0.5,0.5-1.2,0.8-1.8,1.1l0,0c0.2,0.3,0.3,0.6,0.5,0.9c1.7-0.6,3-1.9,3.7-3.5
		C155.8,548.8,155.7,548.6,155.5,548.5z"/>
	<path class="st6" d="M139,596.2c-0.7-0.5-11.7,2.2-22.4,2.4s-13-3.9-15.8-6.2s-12-5-13.6-5.4c-0.4-0.2-0.9-0.1-1.2,0.3l-0.3,5.8
		c0,1,0.7,1.8,1.7,1.8l9.6,0.7h3c0.3,0,0.6,0.1,0.8,0.2c2.2,1.1,13.7,6.3,31.6,4.7C137.4,600,139.1,598.3,139,596.2z"/>
	<path class="st6" d="M152.1,21.4c-2.4-2.2-6.8-1.3-6.8-2.7s0-4.6-8.9-12.5s-15.6-5.7-23.3-6s-7.3,11.5-7.3,11.5h-6.4
		c-3.8,0-5.7,11.5-5.7,11.5v14.3l1.9,4.1c0,0,6.7-21.7,11.8-25.5s7.6-2.9,20.7-2.5s15.3,8.3,18.1,14s-2.6,23.9-2.6,23.9l8-4.1
		c1.2-2.8,2.6-5.6,4.1-8.3C158.3,34.5,154.5,23.6,152.1,21.4z"/>
	<path class="st28" d="M142.9,53.1l-1.5,11.3c-2.5,5.1-5.7,9.8-9.6,14c-6.4,7-14.7,4.8-20.1,5.1c-4.4,0.3-9.1-6-11.5-8.9
		c-1.5-1.7-2.9-3.5-4.2-5.3c-1.9-2.6-1.8-7.1-2.2-10.3c0-0.3-0.1-0.7-0.3-1c-0.1-0.2-0.2-0.3-0.4-0.5c1.4-3.6,2-8.3,2.3-13.5
		c0,0,3.4,12.1,3.4,17.8c0,1.1,0.2,2.2,0.6,3.2l0,0c0,0,2,1,2.1-4s1-6.7,3.3-6.5s7.5,0.5,11.8,0.7c4.3,0.2,8.4,3.7,11,4
		s5.8,3.1,4.1,6c-1.7,2.9-0.4,5.5,0.5,4.9h0.1c2.3-1.4,4.1-3.1,4.8-4.6C138.6,62.3,142.9,53.1,142.9,53.1z M109.3,72.2
		c3.3,1-0.5-3.7,2.7-4.7c3.2-1,8,1,8.1,2.2c0.1,1.1-0.8,3.7,1.2,4.5s5.4-2,6.8-3.6c0.4-0.5,0.3-1.6,0.5-2.6c0.4-2.3,1.4-3.9,0.8-5.6
		c-0.3-0.8-10.6-3.7-18.4-4.5s-7.2,0.3-7.2,2.2s-1.2,7.7-0.8,8.3C104.7,70.1,106.9,71.5,109.3,72.2z"/>
	<path class="st29" d="M116.3,116.1v-12c7.7-5.4,14.5-11.8,20.3-19.2l0.5-13.3l0,0c-0.7,1-1.4,2.1-2.3,3.1l-0.3,0.3
		c-0.3,0.4-0.7,0.8-1,1.2l-0.4,0.4c-0.4,0.5-0.9,1-1.4,1.6c-4.6,5-10.1,5.3-14.9,5.2c-1.3,3.5-3.8,9.1-6.7,11.3
		c-4.3,3.3-2.7,35-2.7,35l1.3,0.1C110.2,126.3,113.7,117.2,116.3,116.1z"/>
	<path class="st6" d="M151.5,538.8c0.2-0.2,0.2-0.5,0-0.7c0,0,0,0,0,0c-0.2-0.2-0.5-0.2-0.7,0c-1.8,1.6-6.7,1.7-8.4,1.7
		c0.2,0.3,0.4,0.7,0.6,1c2,0,3.9-0.3,5.8-0.9c-1.4,1.4-3.3,3.1-3.7,3.6c0.1,0.1,0.1,0.2,0.2,0.2l0.5,0.5
		C146.6,543.5,151.5,538.9,151.5,538.8z"/>
	<path class="st6" d="M122,573.8c-0.2-0.3-0.4-0.5-0.6-0.8c-3.5,0-7,1-10,2.9c1.8-2.2,4.6-4.9,8.5-5.3c-0.2-0.4-0.4-0.9-0.5-1.3
		c-2.5,0-5.1,0.1-7.6,0.4c2.3-1,4.7-1.7,7.2-2.1c0-0.5,0-1.1,0-1.6c-4.1-0.5-11.9-0.9-14.7,2.1c-0.2,0.3-0.2,0.6,0,0.9
		c0.1,0.2,0.4,0.3,0.6,0.2c0,0,0.1,0,0.1-0.1c2-2.1,6.9-2.3,10.9-2.1c-3.5,1.1-6.9,2.5-10.2,4.3c-0.3,0.2-0.3,0.5-0.2,0.8
		c0.1,0.3,0.4,0.4,0.6,0.3c0,0,0,0,0.1,0c2.1-1.2,6.1-1.6,9.5-1.8c-3,1.8-5.5,4.4-7.1,7.5c-0.1,0.3-0.1,0.6,0.1,0.8
		c0.1,0.1,0.3,0.2,0.4,0.2c0.1,0,0.2-0.1,0.2-0.1c3.5-3.3,8.3-5,13.1-4.7C122.3,574.1,122.2,573.9,122,573.8z"/>
</g>
<g id="Left_Woman">
	<path class="st30" d="M256.1,249.3c-7-0.7-10.9-1.3-13.1-1.7c-1.4,0.5-2.9,0.4-4.2-0.3c-8-5-27-44-27-44l-3.4-38.1
		c-2.5,1.5-4.8,3.3-6.9,5.4c-6.2,7.2-24.2,16.2-4.7,70.2s70.5,11,70.5,11l3.3-2.8C265.8,249.7,260.9,249.8,256.1,249.3z"/>
	<path class="st30" d="M318.5,210.4c-0.3,22.3-6,29.7-11.5,32.8v14.5l-4.3,7v7c-15.8-7.8-32.9-10.7-47.6-11.5
		c-1.4,0.7-2.8,1.5-4.3,2.2l-0.8,0.4c-1,0.5-2.1,0.9-3.2,1.4l-1.6,0.6c-1.1,0.4-2.2,0.8-3.3,1.1l-0.9,0.3c-0.6,0.2-1.1,0.3-1.7,0.5
		l-0.9,0.2l-1.7,0.4c-1.2,0.3-2.5,0.5-3.8,0.6l-0.7,0.1c-13.3,1.3-27.2-4.2-35.5-27.1c-6.5-18-8.8-31-8.8-40.6c0-0.6,0-1.2,0-1.8
		c0-1.2,0.1-2.3,0.2-3.3c0-0.4,0.1-0.9,0.1-1.3s0.1-1,0.2-1.4s0.1-0.7,0.2-1s0.1-0.7,0.2-1.1c0.6-3,1.7-5.9,3.2-8.6
		c0.2-0.3,0.3-0.6,0.5-0.9c0.5-0.8,1-1.6,1.6-2.4c0.2-0.3,0.4-0.5,0.6-0.7c0.9-1.1,1.9-2.2,2.9-3.2c0.2-0.2,0.3-0.3,0.5-0.5
		c0.7-0.7,1.4-1.4,2-2c0.2-0.2,0.3-0.3,0.4-0.5c0.3-0.3,0.6-0.6,0.8-0.9c2-2.1,4.3-3.9,6.9-5.4c6-6,19.4-11.9,19.4-11.9
		c1,2,10,11,23,6c13-5,15-13,15-13l29,1c0,0,5.1-1,12,8C307,155.4,319,176.6,318.5,210.4z"/>
	
		<linearGradient id="SVGID_18_" gradientUnits="userSpaceOnUse" x1="205.3787" y1="190.3455" x2="284.42" y2="190.3455" gradientTransform="matrix(1 0 0 -1 -10.08 590.34)">
		<stop  offset="0" style="stop-color:#191839"/>
		<stop  offset="1" style="stop-color:#323071"/>
	</linearGradient>
	<path class="st31" d="M220.6,260.8c-1.8,0.1-5,7.6-5.8,9.2c-2.1,4.4-5.3,8.3-7.6,12.7c-2.9,5.7-7,12-8.5,18.2
		c-1.1,4.6-1.9,9.6-2.6,14.3c-1.8,12.8-0.7,25.9,5,37.6c10.8,22.3,9.8,48.8,9.8,54.8s2.5,26,1.8,30s-2.8,4.5,1,31.5s6.8,36.8,7,46.3
		c0.3,6.4,1.4,12.8,3.3,19v5.5l13.5-1.5l12.5-127l23.3-71.8l1.3-76.9C274.3,262.7,256.6,258.6,220.6,260.8z"/>
	
		<linearGradient id="SVGID_19_" gradientUnits="userSpaceOnUse" x1="222.7381" y1="181.9024" x2="333.4786" y2="201.4295" gradientTransform="matrix(1 0 0 -1 -10.08 590.34)">
		<stop  offset="0" style="stop-color:#323071"/>
		<stop  offset="0.31" style="stop-color:#28275B"/>
		<stop  offset="0.74" style="stop-color:#1D1C42"/>
		<stop  offset="1" style="stop-color:#191839"/>
	</linearGradient>
	<path class="st32" d="M302.7,271.6l0.2,16.7c0,0,1.3,2.6,1.4,10.6s1.4,13.9-1.2,23.7s-1.5,16.9-6.1,29.2s-19.1,47.7-26.4,58
		c-1.9,3.4-2.9,7.2-3,11.1c0,0,1.9,3.8,0,6.2s1.3,1,1.4,3.2s-1.3,5.3-1.3,6.8s2.3,17.8,2.3,28.8s-4.3,41-4.3,42.3v32
		c0,0-12.3,4.3-30.3-2c0,0-3-87.8-2.5-91s-3.9-29-0.1-39.3s11.6-36.8,11.8-42.3s1-18.3,4.5-27s-11.6-13.1-8.8-31.4s3-28.6,7.8-43.7
		l7.5-3.8C255.8,259.6,284.8,261.3,302.7,271.6z"/>
	
		<linearGradient id="SVGID_20_" gradientUnits="userSpaceOnUse" x1="241.3214" y1="347.1434" x2="253.6614" y2="347.1434" gradientTransform="matrix(1 0 0 -1 -10.08 590.34)">
		<stop  offset="0" style="stop-color:#191839"/>
		<stop  offset="1" style="stop-color:#323071"/>
	</linearGradient>
	<path class="st33" d="M232.1,239.6l8.3-1.1l2.5,9.1c-2,0.8-4.2,0.3-5.6-1.4C234.9,243.4,232.1,239.6,232.1,239.6z"/>
	<path class="st0" d="M294.7,150.4l-0.1,2C294.7,151.7,294.7,151,294.7,150.4z"/>
	<path class="st0" d="M294.7,150.4l-0.1,2C294.7,151.7,294.7,151,294.7,150.4z"/>
	
		<linearGradient id="SVGID_21_" gradientUnits="userSpaceOnUse" x1="246.4998" y1="344.1346" x2="248.4198" y2="344.1346" gradientTransform="matrix(1 0 0 -1 -10.08 590.34)">
		<stop  offset="0" style="stop-color:#191839"/>
		<stop  offset="1" style="stop-color:#323071"/>
	</linearGradient>
	<path class="st34" d="M238,246.8c-0.4-0.4-0.9-0.7-1.3-1.1C237.2,246,237.6,246.4,238,246.8z"/>
	<path class="st35" d="M203.9,168.6c1.5-1.2,3-2.3,4.6-3.3c6-6,19.4-11.9,19.4-11.9c1.1,1.7,2.6,3.1,4.3,4.1l0.3-27.1
		c-2.7-2.3-5-5.2-5.7-8.2c-0.1-0.4-0.1-0.8-0.1-1.2c-0.4-6.1-1.7-11.6-0.3-17.6c0.1-0.3,0.1-0.7,0.3-1l0.5-1.7
		c3-10.9,5.4-23.7,13.5-25.3l8.5-2.2c0.2-0.8,0.4-1.7,0.7-2.5l1.2-2.7v5.8c0,0,13-0.8,15.5,26.6c0.7,7.4,0.4,15.2-2.3,22.1
		c-0.9,2.5-2.4,4.8-4.3,6.7c-0.5,0.5-1,0.9-1.5,1.4l-2,26c8.1-4.8,9.5-10.4,9.5-10.4l17.1,0.6c-1.6-5.6-2.5-11.5-2.8-17.3
		c-1.3-18.3-3.5-36.7-3.8-41.4s-0.5-14.4-20.5-23.2c-0.6-0.2-1.3-0.4-2-0.4c-3-1.9-11.3-1.4-21.2,3.5s-18.3,33.9-19.8,49.7
		s-4.5,18.4-4,29.4C209.3,152.6,206.7,161.1,203.9,168.6z"/>
	
		<linearGradient id="SVGID_22_" gradientUnits="userSpaceOnUse" x1="291.8977" y1="311.0941" x2="245.1564" y2="439.5477" gradientTransform="matrix(1 0 0 -1 -10.08 590.34)">
		<stop  offset="0" style="stop-color:#3482A1"/>
		<stop  offset="0.22" style="stop-color:#4E92AD"/>
		<stop  offset="0.54" style="stop-color:#6CA5BB"/>
		<stop  offset="0.81" style="stop-color:#7EB0C4"/>
		<stop  offset="1" style="stop-color:#85B4C7"/>
	</linearGradient>
	<path class="st36" d="M318.5,210.4c-0.3,22.3-6,29.7-11.5,32.8v14.5l-4.3,7v7c-15.8-7.8-32.9-10.7-47.6-11.5
		c-1.4,0.7-2.8,1.5-4.3,2.2l-0.8,0.4c-1,0.5-2.1,0.9-3.2,1.4l-1.6,0.6c-1.1,0.4-2.2,0.8-3.3,1.1l-0.9,0.3c-0.6,0.2-1.1,0.3-1.7,0.5
		l-0.9,0.2l-1.7,0.4c-1.2,0.3-2.5,0.5-3.8,0.6l-0.7,0.1c-13.3,1.3-27.2-4.2-35.5-27.1c-6.5-18-8.8-31-8.8-40.6c0-0.6,0-1.2,0-1.8
		c0-1.2,0.1-2.3,0.2-3.3c0-0.4,0.1-0.9,0.1-1.3s0.1-1,0.2-1.4s0.1-0.7,0.2-1s0.1-0.7,0.2-1.1c0.6-3,1.7-5.9,3.2-8.6
		c0.2-0.3,0.3-0.6,0.5-0.9c0.5-0.8,1-1.6,1.6-2.4c0.2-0.3,0.4-0.5,0.6-0.7c0.9-1.1,1.9-2.2,2.9-3.2c0.2-0.2,0.3-0.3,0.5-0.5
		c0.7-0.7,1.4-1.4,2-2c0.2-0.2,0.3-0.3,0.4-0.5c0.3-0.3,0.6-0.6,0.8-0.9c2-2.1,4.3-3.9,6.9-5.4c6-6,19.4-11.9,19.4-11.9
		c1,2,10,11,23,6c13-5,15-13,15-13l29,1c0,0,5.1-1,12,8C307,155.4,319,176.6,318.5,210.4z"/>
	<path class="st6" d="M261.1,222.1L261.1,222.1c0.9-0.3,1.7-0.9,2.4-1.6l0.2-0.3c-1.2-11.8-4.8-40.4-12.8-60.8
		c-0.8,0.3-1.5,0.5-2.3,0.7l0.5,0.8C255.7,180.6,259.8,201.2,261.1,222.1z"/>
	
		<linearGradient id="SVGID_23_" gradientUnits="userSpaceOnUse" x1="318.2878" y1="348.0405" x2="265.9945" y2="410.3644" gradientTransform="matrix(1 0 0 -1 -10.08 590.34)">
		<stop  offset="2.000000e-02" style="stop-color:#3482A1"/>
		<stop  offset="9.000000e-02" style="stop-color:#3E88A6"/>
		<stop  offset="0.33" style="stop-color:#5D9BB4"/>
		<stop  offset="0.57" style="stop-color:#73A9BF"/>
		<stop  offset="0.8" style="stop-color:#80B1C5"/>
		<stop  offset="1" style="stop-color:#85B4C7"/>
	</linearGradient>
	<path class="st37" d="M306.8,155.3c0,0,12,21.3,11.5,55s-13.3,33.3-19,35.8s-15,0-15,0s-13.5,4.7-28.3,3.3
		c-14.7-1.5-15.7-2.5-15.7-2.5s0.9-15.4-2.1-21.3c0,0-0.5-0.6,1.1-1.1c0,0,8.8-2.3,13.1-1.8c4.4,0.6,9,0.2,10.9-2.2s1-4.7,8.5-3.8
		s20.4-1.3,24.4-6.3s-4.1-1-3.5-8.5s2-54.5,2-54.5S299.9,146.3,306.8,155.3z"/>
	<path class="st14" d="M254.9,249.2c-0.6-9.2-2-20.9-2.8-26.6c-4.5-0.4-12.7,1.8-12.7,1.8c-1.7,0.5-1.1,1.1-1.1,1.1
		c3,5.9,2.1,21.3,2.1,21.3S241.3,247.8,254.9,249.2z"/>
	
		<linearGradient id="SVGID_24_" gradientUnits="userSpaceOnUse" x1="251.8074" y1="385.3414" x2="204.9918" y2="346.065" gradientTransform="matrix(1 0 0 -1 -10.08 590.34)">
		<stop  offset="0" style="stop-color:#85B4C7"/>
		<stop  offset="0.21" style="stop-color:#80B1C5"/>
		<stop  offset="0.44" style="stop-color:#73A9BF"/>
		<stop  offset="0.68" style="stop-color:#5D9BB4"/>
		<stop  offset="0.93" style="stop-color:#3E88A6"/>
		<stop  offset="1" style="stop-color:#3482A1"/>
	</linearGradient>
	<path class="st38" d="M256.1,249.3c-7-0.7-10.9-1.3-13.1-1.7c-1.7,0.4-3.2,0.5-4.2-0.3c-5.5-4.1-24.3-43-27-44
		c-5.1-8.8-3.1-24.6-3.4-38.1c-2.5,1.5-4.8,3.3-6.9,5.4c-6.2,7.2-24.2,16.2-4.7,70.2s70.5,11,70.5,11l3.3-2.8
		C265.8,249.7,260.9,249.8,256.1,249.3z"/>
	<path class="st2" d="M260,129.4c1.9-1.9,3.3-4.2,4.3-6.7c2.7-7,3-14.8,2.3-22.1c-2.5-27.4-15.5-26.6-15.5-26.6v-5.8l-1.1,2.7
		c-0.3,0.8-0.5,1.7-0.7,2.5l-8.4,2.1c-8.6,1.7-10.8,15.9-14,27.1c-1.8,6.4-0.4,12.1,0,18.6c0,0.4,0.1,0.8,0.1,1.2
		c1.3,5.3,7.3,10.2,12.1,12.3c3.5,1.4,7.4,1.6,11,0.4C253.8,134,257.2,132.1,260,129.4z"/>
	<path class="st39" d="M326.8,304.7c0,0-2.6,3.1-2.6,4.4s0.3,1.8,2.2,2.1c1.7,0.1,3.4-0.2,5-0.7
		C331.4,310.5,327.4,305.8,326.8,304.7z"/>
	<path class="st2" d="M252.8,549.1v-7.6c-5.3-0.2-10.5-1.2-15.6-2.8c-0.7,3.7-4.7,12.1-4.7,16.7s-3.8,8-4,13.8s-4.5,19-4.5,19
		c7-1.3,21.8,3.8,25.8,0s3-29,3-29C253.7,555.8,253.7,552.4,252.8,549.1z"/>
	<path class="st2" d="M268.6,565.5c-0.2-7.8-2-9-3.2-10.5c-0.8-1-3.5-8.5-5.5-13.8c-3.2,0.3-6.4,0.4-9.6,0.1
		c-0.1,13.9,0,41,1.9,43.4c2.5,3.2,10.5,1.5,15.5,0s3.3-4.7,3.3-4.7C269.6,575.3,268.8,570.4,268.6,565.5z"/>
	<path class="st3" d="M250.1,587.8c-0.1,0.1-0.2,0.2-0.3,0.3c-4,3.8-18.8-1.3-25.8,0c0,0-2.8,9.1,3.6,12.6s22.5,2.2,23.7,0
		c0.4-1.1,0.6-2.3,0.5-3.4c-0.5-0.1-1-0.2-1.5-0.3C248.4,596.5,248.9,592.2,250.1,587.8z"/>
	<path class="st3" d="M271.4,581.2L271.4,581.2c0,1-0.5,2.6-3.6,3.5c-5,1.5-13,3.2-15.5,0c-0.2-0.5-0.4-1-0.5-1.6l0,0
		c0,0,0.4,9,0.1,14.2c5.7,5.1,15.1,0,18-1.2C272.3,595,271.4,581.2,271.4,581.2z"/>
	<path class="st3" d="M229,155.1c5.7,5.8,14.3,7.6,21.8,4.5c13-5,15.2-13.2,15.2-13.2s-1.1-7.3-2.9-8.4c-0.2-0.1-2.2-2-2.3-1.5
		c0,0.4,0.1,0.8,0.3,1.1c0.2,0.9,0.1,1.9-0.3,2.7c-0.2,0.8-0.6,1.6-1.1,2.3c-0.6,0.7-1.2,1.3-1.8,1.9c-1.6,1.4-3.3,2.7-5.2,3.7
		c-1.7,1-3.5,1.8-5.5,2.4c-6.6,2-18.6-1.3-17.6-7c0,0-2.9-0.1-2.8,1.6s0.9,8.3,0.9,8.3L229,155.1z"/>
	<path class="st3" d="M251.8,583.1L251.8,583.1c-0.2,1.7-0.8,3.3-1.7,4.7c-1.1,4.5-1.7,8.8,0.3,9.2c0.4,0.1,0.9,0.2,1.5,0.3
		C252.2,592,251.8,583.1,251.8,583.1z"/>
	<circle class="st6" cx="248.7" cy="154.8" r="2.3"/>
	<path class="st6" d="M261.1,222.1L261.1,222.1c0.9-0.3,1.7-0.9,2.4-1.6l0.2-0.3c-1.2-11.8-4.8-40.4-12.8-60.8
		c-0.8,0.3-1.5,0.5-2.3,0.7l0.5,0.8C255.7,180.6,259.8,201.2,261.1,222.1z"/>
	<path class="st14" d="M254.9,249.2c-0.6-9.2-2-20.9-2.8-26.6c-4.5-0.4-12.7,1.8-12.7,1.8c-1.7,0.5-1.1,1.1-1.1,1.1
		c3,5.9,2.1,21.3,2.1,21.3S241.3,247.8,254.9,249.2z"/>
	<path class="st2" d="M290.7,196.3c4.5-6,12.6-5.3,13.6-4s1,2.3,2.5,2.5s4.8,1.6,5,3.1s2,2.1,1.1,3.5s-3.4,0.9-4.3,2.3
		s-0.1,2.6-7.9,2c0,0-2.4,0.2-5.2,5.3c-1.9,2-6.3,4.1-11.9,5C283.8,216,286.2,202.3,290.7,196.3z"/>
	<path class="st40" d="M266,146.4c0,0-0.3-1.6-0.7-3.5c-0.2,0.3-0.4,0.7-0.6,1.1c-0.5,1.4-2.8,2.8-3.1,5.1c-0.4,1.9-1.9,3.5-3.8,3.9
		c-1,0-3.5,1.6-5.2,3.5s-6,2.2-7.9,1s-5.5,1-7.7,0.5s-3.6-2.8-5.8-3.5c-1.5-0.4-3-2.2-3.8-3.2c0.1,1.4,0.3,2.5,0.3,2.5l1.2,1.5
		c5.7,5.8,14.3,7.6,21.8,4.5C263.8,154.6,266,146.4,266,146.4z"/>
	<path class="st40" d="M226.9,247.9c0,0,6,0,5.2-5.4s-8.2-5.2-26.2-43.1c-2.6-5.4-5.9-10.5-9.8-15.1l0.6,3c2.4,2.9,4.4,6.1,5.9,9.5
		c11.9,27.3,8.8,21.8,17.1,36.7S224,246.3,226.9,247.9z"/>
	<path class="st40" d="M198.8,173.5c2.3,4.9,4.9,9.5,7.9,14c-0.3-5.8-2.5-11.3-6.1-15.8C200,172.3,199.4,172.8,198.8,173.5z"/>
	<path class="st40" d="M219.6,171.7c-0.2-6.7,2.8-13,4.8-16.6c-1.9,0.9-4.2,2.1-6.7,3.6c-0.8,4.3-1.3,8.6-1.4,13
		c-0.1,8.5-0.9,17.3-4.1,24.1C212.2,195.8,219.8,181.9,219.6,171.7z"/>
	<path class="st40" d="M211.8,203.3c1.9,0.7,11.4,19.5,18.9,32.4l3.1-29.3c-1.1,11.5-7.5,15.6-7.5,15.6l-1.4-18.3
		c0,0-1.3,10.4-4.1,10.1c-1.7-0.2-7.3-9.9-11.5-17.7C209.7,198.7,210.6,201.1,211.8,203.3z"/>
	<path class="st40" d="M299.3,246.1c-0.8,0.3-1.6,0.6-2.4,0.7c-0.4,4.7-1.6,11.8-4.9,16.6c4.8-5.4,8.5-11.8,10.9-18.6
		C301.6,245.3,300.3,245.6,299.3,246.1z"/>
	<path class="st40" d="M258.6,240.3c0,0,23-7.9,22.6-11.3s1.9-1.1,1.9,1.3S266.8,239.6,258.6,240.3z"/>
	<path class="st40" d="M284.3,246.1c-4.9,1.6-9.9,2.6-15,3.1l-6.1,5.8c0,0,4.8-2.5,8.5-0.8c0,0,11.9-6.2,18-4.9l2-2
		C289.2,247,286.7,246.7,284.3,246.1z"/>
	<path class="st40" d="M290.6,235.9c-8.6-11.9-10.6-15.9-10.6-15.9s10.1,26.2,17,26.9c0.8-0.2,1.6-0.4,2.4-0.7
		c1.4-0.6,3.3-1.1,5.4-1.9c1.5-1.2,2.8-2.6,3.9-4.2l-2.6-1.5C305.9,238.5,299.2,247.8,290.6,235.9z"/>
	<path class="st40" d="M229.5,156.4c0,0,8.9,18.3,7.8,26.3c0,0,4.4,1,8.1,10.4C245.3,193.1,239.1,168.7,229.5,156.4z"/>
	<path class="st40" d="M271.9,216.6c4,0.4,8,0.2,11.9-0.6c0-0.1,2.4-13.7,6.9-19.7c0.5-0.6,1-1.2,1.6-1.7c0.3-1.7,0.6-3.4,1.1-5
		c0.1-1.7,0.1-3.5,0.2-5.4c-2.7,5.2-5.1,10.5-7.1,16c-5.1,13.9-10.4,14.6-12.8,14.1c-1.1-0.2-2.4,0.9-3.6,2.1
		C270.7,216.5,271.3,216.6,271.9,216.6z"/>
	<path class="st40" d="M294.7,153.8c0,0-4.1,18-2.6,23.8s0.2,17,0.2,17s2.9-14.4,7.4-18.3c0,0-4.8,3.5-5.4,5s-1.4-7.3,3.3-11.8
		s5.2-8.2,5.4-11c0,0-4.3,8.7-7.6,10C295.3,168.6,293.4,166,294.7,153.8z"/>
	<path class="st2" d="M238.8,226.6h-0.5c-4.9,0.3-9.7,0.8-14.5,1.6c-6.9,1.3-10.6-1.1-16.9,2.1s-8.5,3.5-8.9,6.9s-3.1,5.6-1.1,8.8
		s4.9,14.1,10,9.9s19.2-7.5,24.3-12.8c3.1-3.3,9.5-2.4,9.5-2.4C240.5,236.2,240.1,230.2,238.8,226.6z"/>
	<path class="st14" d="M265.8,189.3l-0.8-7.7c0,0,11-3,14.7-1.3s5.3,3.8,9.2-0.5s5-3.2,4,9.5H265.8z"/>
	<path class="st41" d="M134.9,74.8l-0.3,0.3c-0.3,0.4-0.7,0.8-1,1.2l-0.4,0.4c-0.4,0.5-0.9,1-1.4,1.6c-6.4,7-14.7,4.8-20.1,5.1
		c-0.2,0-0.4,0-0.5,0c-4.2-0.2-8.6-6.1-11-8.9l0,0c-0.7-0.8-1.3-1.5-1.8-2.2l-0.6-0.8c-0.7-0.9-1.3-1.7-1.7-2.3l0,0
		c-0.5-0.7-0.8-1.1-0.8-1.1l-0.1-0.7c0.3,6.1-1.2,9.3-2,16.1c2.4,5.1,7.9,16.4,11.7,21.9c0,0-0.2,19,3.4,26c0,0,4.7-14,8-15.4v-12
		c7.7-5.4,14.5-11.8,20.3-19.2l0.5-13.3l0,0C136.5,72.7,135.7,73.7,134.9,74.8z"/>
	<path class="st41" d="M259.8,129.6c-2.7,2.6-6.1,4.4-9.8,5.4c-3.6,1.1-7.5,1-11-0.4c-3.6-1.6-6.8-4-9.4-7.1v16.9v0.6
		c0.6,5.5,11.5,8.4,17.8,6.4c5.1-1.7,13.9-6.7,14-12.4C260.7,136.8,259.6,132.8,259.8,129.6z"/>
</g>
<g id="Layer_4">
	<path class="st3" d="M328.3,303c6.1-6.6,12.5-9,17.2-9.8l0.1-0.8c0.2-1.1,0.4-2.2,0.4-3.3c-0.1-1.4-0.3-2.8-0.6-4.2
		c-0.8-3.7-1.7-7.4-2.5-11.1c-0.3-1.1-2.5-7-1.8-8l0,0c-3.9-7.8-7-33.8-7-33.8l3.5-0.5c3.5-0.5,1-8.7,6.2-19.5
		c1.4-2.9,3.1-8.8,4.8-15.9c-0.9-13.7-2.5-25.6-3-28.9c-1-5.8-10.5-45.5-10.5-45.5c-1.7,1-4.3,4.1-4.1,9.4s-7.2,16.3-7.2,16.3
		s0.8,6.3-0.5,10.9s-0.8,6.6-1,9.6s-3.4,4.1-2.9,6.3s-3.2,9.4-3.2,9.4c-12.5,21.9-11.9,63.7-9.2,71.7s2,17,3,21s7,6.3,6.7,14
		s4,5.9,4,5.9l-0.5,14.2c0,0-0.4,1.8,5,2.6c2.5,0.4,4.9-0.2,7-1.6l-0.7-0.8C327.1,311.7,319.3,312.6,328.3,303z"/>
	<path class="st3" d="M424.3,93.3c0,0,4.3,3.8,4.3,14s3.3,40.3,3.4,50.5s2.7,36.5,4.1,43.4s14.2,76.1,14.4,91.3
		c0,0,16,5.8,19.3,17.3s5.5-17.5,3-27s-9.5-31-7.8-66.8s1.8-43.2,3-49s5.8-54,5.8-54C472.7,111.1,442.6,111.9,424.3,93.3z"/>
	<path class="st6" d="M472.6,310c2.2,0.6,6.3,1.9,9,0.3c0,0,3.1-6.2-7.7-11.1C473.9,299.2,473.1,307.1,472.6,310z"/>
	<path class="st3" d="M500.3,241.7c-1.4-22.8-12.4-102.8-26.4-128.6c0,0-4.6,48.2-5.8,54c-1.2,5.4-1.2,12.3-2.7,42.5
		c2.6,14.1,4.4,31.3,1.3,45.2c1.4,9.5,3.5,18.9,6.2,28.1c1,3.7,1.2,10.3,1,16.3c4.6,2.2,9,5.7,7.5,10.7c0.5-0.3,3.5-4.6,6.3-11.6
		C493.4,283.2,501.3,257.5,500.3,241.7z"/>
	<path class="st3" d="M373.5,176.8c-10.5-26-18.2-55.3-18.2-55.3l10.2-4.6l-3.5-3l7-5.8l0,0c-1.2,0.8-2.5,1.5-3.9,1.9
		c-6.5,2-28.5,10-30,11.5c0,0,9.5,39.8,10.5,45.5s5,38.8,3.5,60.5s-2.2,29.8-8,38.1c-0.7,1,1.5,6.9,1.8,8c0.9,3.7,1.7,7.4,2.5,11.1
		c0.4,1.4,0.6,2.8,0.6,4.2c0,1.1-0.1,2.2-0.4,3.3l-0.1,0.8c-0.8,4.6-2.1,9.2-3.8,13.5c-1.4,3.3,0.4,4.5,3.6,3.5
		c0,0,14.8-9.1,27.3-28.6c9-14.1,17-24.2,18.3-49.8C389.6,210.9,384,202.8,373.5,176.8z"/>
	<path class="st6" d="M369,108.2l-7,5.8l3.5,3l-10.2,4.6c0.1,0.2,8,30.1,18.2,55.3c10.5,26,16.1,34.1,17.4,55c0,0.8-0.1,1.5-0.1,2.3
		c0.7-10.3,0.3-23.1-1.7-40c-6.5-56-10.5-95-10.5-95C375.8,102.6,372.6,105.6,369,108.2L369,108.2z"/>
	<path class="st14" d="M377.2,274.3c5.7,0.2,11.5,0.9,17.1,2.1c15.7,3.7,23.7,3.8,42.5,1.6c4.1-0.5,8.2-0.6,12.3-0.2
		c-3.4-25.7-11.8-71.1-13-76.6c-1.4-6.9-3.9-33.2-4.1-43.4s-3.4-40.3-3.4-50.5c0-9.2-3.5-13.1-4.2-13.9l-0.1-0.1
		c0,0,1.8,13.6-2,22.8c-3.8,9.2-6.5,8.7-10,11.4s-3.5,22.5-3.5,22.9s-1.3-19.4-7.3-23.9s-11.5-4.7-15.5-13.5c-4-8.8-6-7.5-5.8-15.5
		l-1.8,1.5c0,0,2.6,25.1,7,64c1.1,9.6,2.3,20,3.5,31C394.7,242.9,387.5,258.3,377.2,274.3z"/>
	<path class="st42" d="M449.1,277.9c-4.1-0.3-8.2-0.3-12.3,0.2c-18.8,2.2-26.8,2.1-42.5-1.6c-5.6-1.2-11.3-1.9-17.1-2.1
		c-1.5,2.4-3.1,4.7-4.7,7.2c-0.7,1.1-1.4,2.2-2.2,3.2c21.8,0.8,35.2,7.5,59.3,5.3c6.9-0.7,13.9-0.7,20.8,0
		C450.2,287,449.8,282.8,449.1,277.9z"/>
	<path class="st2" d="M350.2,306.6c-1.6,1.3-3.2,2.5-4.9,3.6c-3.2,1-5-0.2-3.6-3.5c1.9-4.6,3.2-9.4,4-14.3l-0.1,0.8
		c-4.7,0.8-11.1,3.3-17.2,9.8c-0.6,0.6-1,1.2-1.5,1.7c0.1,0.1,0.1,0.2,0.2,0.3c0.9,1.3,2.4,3.1,4.2,5.3l0.7,0.8
		c6.6,7.7,16.7,18.4,16.7,18.4l1.6,2.2C349.6,323.4,349.6,315,350.2,306.6z"/>
	<path class="st14" d="M386.1,113.1c-4-8.8-6-7.5-5.8-15.5l-1.8,1.5c0,0,0.9,8.8,2.6,24.1c1.3-1.7,2.4-3.5,3.4-5.4
		c0.2-1.2,1.2,4.7,13.4,6.3C393.3,121.6,389.2,120,386.1,113.1z"/>
	<path class="st14" d="M426.1,115.1c0.1,3.1,1.4,6,3.5,8.3c-0.5-6.6-0.9-12.5-0.9-16c0-9.2-3.5-13.1-4.2-13.9l-0.1-0.1
		c0,0,1.8,13.6-2,22.8c-3.1,7.5-5.5,8.6-8.2,10.2l0,0C426.2,122.2,426.1,115.1,426.1,115.1z"/>
	<path class="st3" d="M469.8,309.8c-3.3-11.5-19.3-17.3-19.3-17.3c0-0.7,0-1.6-0.1-2.5c-6.9-0.7-13.9-0.7-20.8,0
		c-24.1,2.3-37.5-4.5-59.3-5.3l0,0c-5.6,8.2-12.4,15.5-20.2,21.8c-0.8,12.4-0.8,27.8,2.4,40.1c6.5,24.5,6.7,41.5,6.7,44.7
		s2.8,33.7,4.2,45s4.3,45.2,5.2,53.5s2.3,24,6.2,27.5s6.5,10,6.5,10c5.7-23.2,13.1-44.8,23.2-73.7l0.1-5c0.3-11.8-0.8-35.5,0-45.2
		s1.5-33.8,0.1-48s4.9-12,9.4-17.8s42.6-9.2,51.2-8.8c2.2-5.6,3.9-11.4,5-17.3C470.1,310.9,470,310.4,469.8,309.8z"/>
	<path class="st3" d="M450,285.6v-0.3l0,0V285.6z"/>
	<path class="st3" d="M450.4,289.1c0,0.2,0,0.5,0,0.7C450.4,289.6,450.4,289.3,450.4,289.1z"/>
	<path class="st3" d="M450.1,286.3l0.1,0.6L450.1,286.3z"/>
	<path class="st3" d="M450.3,288l0.1,0.6L450.3,288z"/>
	<path class="st3" d="M471.1,312.4c-0.4-0.2-0.8-1-1.3-2.6c-3.3-11.5-19.3-17.3-19.3-17.3c0-0.7,0-1.6-0.1-2.5
		c-6.9-0.7-13.9-0.7-20.8,0c-8.1,0.8-16.2,0.6-24.3-0.5l0,0c-3.1,10.4-4.7,21.2-4.6,32c0.4,17-1.8,21.5,3.5,29.8s7.6,53.9,7.6,58.3
		s-3.5,11.1-1.9,13.1s1.9,7.4,3.1,10s0,8.4-3.9,11.3s-24.7,64.5-27.2,79c-2.5,14.5-10,35.5-10,35.5s1.8,3.3,10.7,3.7
		s21.5,10.7,21.5,10.7c5.2-8,12.5-27.5,12.5-27.5s26.5-76,28.8-82.7s4.2-13.7,6.7-17.5s1.8-27.2,1.8-27.2c4.3-3.3,2.8-12.8,2.8-12.8
		c6-21.7,4.2-49.7,4.2-49.7c1.7-4.5-0.8-13.7-0.8-13.7l2.5-0.8c0,0,1.1-5.6,3.1-13.6S471.8,312.8,471.1,312.4z"/>
	<path class="st6" d="M428.6,107.3c0,10.3,3.3,40.3,3.4,50.5s2.7,36.5,4.1,43.4c0.6,2.8,3,15.7,5.7,31.2c-2.3-20.2,1.1-28.8,2-50.9
		s6.8-64.5,6.8-64.5l-9.5-2.8l2.3-3.3c-3.5-1.9-7.2-6.1-10.2-10.4c-3.2-2-6.1-4.3-8.8-7C425.2,94.2,428.6,98.1,428.6,107.3z"/>
	<path class="st6" d="M424.5,93.5l-0.1-0.1L424.5,93.5z"/>
	<polygon class="st40" points="413.2,152.4 414.1,264.3 419.6,270.1 	"/>
	<path class="st2" d="M429.5,64.5c-0.3,6-6.2,5-6.4,11.5s-1.3,10.7-6.8,16.3s-8.5,5.5-18.5,5.3S380.1,86.7,379.1,81
		s-2.5-10.8-2.5-10.8c-3.3-0.6-3.5-7.6-3.4-10.7c0-0.9,0.1-1.5,0.1-1.5c0.5-2.4,2.1-1.9,3.9-0.4c-0.4-3.9-1-8,0.1-10.3
		c1.9-3.7,6.8-8,6.8-8h7.1c0,0,9.4-0.8,15.6,0s6.5,3.3,6.5,3.3l4.5-0.7v3.8l1.9,0.3c3.1,2,4.8,13.2,4.8,13.2
		C429.6,53.8,429.8,58.5,429.5,64.5z"/>
	
		<linearGradient id="SVGID_25_" gradientUnits="userSpaceOnUse" x1="380.8778" y1="551.1432" x2="439.4579" y2="551.1432" gradientTransform="matrix(1 0 0 -1 -10.08 590.34)">
		<stop  offset="0" style="stop-color:#323071"/>
		<stop  offset="1" style="stop-color:#191839"/>
	</linearGradient>
	<path class="st43" d="M373.2,58c0.5-2.4,2.1-1.9,3.9-0.4c-0.4-3.9-1-8,0.1-10.3c1.9-3.7,6.8-8,6.8-8h7.1c0,0,9.4-0.8,15.6,0
		s6.5,3.3,6.5,3.3l4.5-0.7v3.8l1.9,0.3c3.1,2,4.8,13.2,4.8,13.2c2.6-2.7,4-2.9,4.7-1.8c1.2-20.6-0.7-19.7-0.7-19.7s0.2-4.8-0.7-5.7
		c-1-1-1.7-2.4-1.8-3.8c0-1.3-1.7-1.8-9.5-7.5s-9.9-3.8-18.5-4S385.6,22,385.6,22h-5.4l-1.2,3.3c0,0-4.4-0.2-7.1,12.2s0,21.5,0,21.5
		l1.1,2.7C373.2,60.8,373.2,58,373.2,58z"/>
	<path class="st41" d="M423.1,76c-0.2,6.5-1.3,10.7-6.8,16.3s-8.5,5.5-18.5,5.3c-8.1-0.2-14.8-7.4-17.5-13.1v13.1l0,0
		c0,0.4,0,0.8,0,1.1v0.4c0,6.4,2,5.8,5.8,14c4,8.8,9.5,9,15.5,13.5s7.3,24.3,7.3,23.9s0-20.1,3.5-22.9s6.3-2.3,10-11.4
		s2-22.8,2-22.8L423.1,76z"/>
	<path class="st2" d="M471,314.9l8.4-12.1c-1.5-1.4-3.2-2.6-5.1-3.4c-0.1,6.8-1.5,13-2.6,13.5C471.5,313.6,471.3,314.3,471,314.9z"
		/>
	<polygon class="st2" points="468.4,306.5 468.4,306.5 468.4,306.5 	"/>
	<path class="st6" d="M421.6,278.9L420,293l-21.5-2.5l1.6-14.1L421.6,278.9z M418.1,291.2l1.3-11.2l-17.2-2l-1.3,11.2L418.1,291.2z"
		/>
	<path class="st44" d="M373.3,592.3l-14.8-25.8C358.6,566.6,346.6,570.1,373.3,592.3z"/>
	<polygon class="st19" points="378.9,586.5 373.3,592.3 358.6,566.6 364.1,563.8 	"/>
	<path class="st44" d="M382.6,597.3c0,0-15.8-15.4-18.5-33.4l25,11.5l6.9,14l-3.1,6.1l-1.6,1.6C389.8,598,387.2,598.3,382.6,597.3z"
		/>
	<path class="st45" d="M423.3,548.2l-6.5-2.8c-0.4,1.2-6.6,17.3-11.4,25.7l18,0C423.4,571.2,432,551.8,423.3,548.2z"/>
	<path class="st6" d="M391.4,597L391.4,597z"/>
	<path class="st6" d="M399.8,569.4c-4.5-3.1-11.5-7-17-7.3c-8.8-0.3-10.7-3.7-10.7-3.7l0.2-0.5c-5.5,1.9-9.8,6.6-9.8,6.6
		c2,3,4,11.3,16.8,12.3c7,0.5,17.6,9.5,15.2,14.6c-2.1,4.4-2.8,5.3-3,5.5c9.6-8.2,5.6-15.3,5.6-18.7
		C397.1,576.2,398.7,572.2,399.8,569.4z"/>
	<path class="st44" d="M422.6,571.2L422.6,571.2l-17.2,0l0,0c-0.4,0.6-0.7,1.2-1,1.7l-4.5-3.3c-1.1,2.8-2.7,6.7-2.7,8.8
		c0,0.1,0,0.2,0,0.3v0.1c0,0.1,0,0.2,0,0.2s0,0.1,0,0.1c0,0.1,0,0.2,0,0.2c0,0,0,0.1,0,0.1c0,0.1,0,0.2,0,0.3v0.1
		c0.4,2.5,1.4,6.1-0.4,10.3l0,0c-0.1,0.2-0.2,0.4-0.3,0.6l0,0c-0.1,0.2-0.2,0.4-0.3,0.6v0.1c-0.1,0.2-0.2,0.4-0.4,0.6v0.1l-0.4,0.6
		v0.1l-0.5,0.6l-0.1,0.1l-0.5,0.6l-0.1,0.1c-0.2,0.2-0.4,0.4-0.6,0.6l0,0c-0.2,0.2-0.4,0.5-0.6,0.7l0,0c-0.1,1.2,0,2,0.3,2.3
		c2,1.7,22.4,1.7,27.6-0.9s0.8-16.5,0.1-19S422.6,571.2,422.6,571.2z"/>
	<path class="st6" d="M399.8,569.5L399.8,569.5"/>
	<path class="st6" d="M423.4,591.4c0.1-5-1.9-11.7-2.4-13.3c-0.7-2.5,1.6-6.9,1.6-6.9l0,0l-17.2,0l0,0c-0.4,0.6-0.7,1.2-1,1.7
		c0,0-1.8-1.5-4.5-3.3c-1.1,2.8-2.7,6.7-2.7,8.8c0,0.1,0,0.2,0,0.3v0.1c0,0.1,0,0.2,0,0.2s0,0.1,0,0.1c0,0.1,0,0.2,0,0.2
		c0,0,0,0.1,0,0.1c0,0.1,0,0.2,0,0.3v0.1c0.4,2.5,1.4,6.1-0.4,10.3l0,0c-0.1,0.2-0.2,0.4-0.3,0.6l0,0c-0.1,0.2-0.2,0.4-0.3,0.6v0.1
		c-0.1,0.2-0.2,0.4-0.4,0.6v0.1l-0.4,0.6v0.1l-0.5,0.6l-0.1,0.1l-0.5,0.6l-0.1,0.1c-0.2,0.2-0.4,0.4-0.6,0.6l0,0
		c-0.2,0.2-0.4,0.5-0.6,0.7C392.9,595.6,409.1,603.7,423.4,591.4z"/>
	<polygon class="st6" points="392.9,595.6 392.9,595.6 392.9,595.6 	"/>
	<path class="st40" d="M436.1,201.2c-0.3-1.6-0.7-4.2-1.1-7.4l0,0c-3.8,62.3,13.8,82.2,13.8,82.2l0,0
		C445.3,250,437.3,206.6,436.1,201.2z"/>
	<path class="st6" d="M385.6,177.6"/>
	<path class="st28" d="M387.5,115.8c-0.2-0.3-0.3-0.6-0.5-0.9C387.2,115.2,387.3,115.5,387.5,115.8z"/>
	<path class="st28" d="M401.6,126.5c-2.4-1.6-4.9-3.1-7.4-4.5c1.2,0.7,2.4,1.4,3.7,2.1c-12.1-1.7-13.2-7.5-13.4-6.3
		c-1,1.9-2.1,3.7-3.4,5.4c0,0.3,0.1,0.7,0.1,1c1.5-1.4,3.4-2.6,4.5-1.8c2.1,1.6,8.4,4.3,12.6,4.5c2.8,0.1,5.1,5.3,8.4,9.8
		C405.1,130.4,403.1,127.7,401.6,126.5z"/>
	<path class="st28" d="M386.1,113.1c0.2,0.5,0.5,1,0.7,1.4C386.5,114,386.3,113.6,386.1,113.1z"/>
	<path class="st28" d="M381.1,123.1l-0.6-5.3L381.1,123.1z"/>
	<path class="st28" d="M385.5,111.9l0.1,0.2L385.5,111.9z"/>
	<path class="st28" d="M380.5,117.3L380.5,117.3v0.4V117.3z"/>
	<path class="st28" d="M393.1,121.4c-0.3-0.2-0.6-0.4-0.9-0.6C392.4,121,392.7,121.2,393.1,121.4z"/>
	<path class="st28" d="M391,119.9l-0.6-0.6L391,119.9z"/>
	<path class="st28" d="M392,120.7c-0.3-0.2-0.5-0.4-0.8-0.6C391.5,120.3,391.8,120.5,392,120.7z"/>
	<path class="st28" d="M394,122l-0.9-0.6L394,122z"/>
	<path class="st28" d="M388.3,117c-0.2-0.3-0.4-0.5-0.6-0.8C387.9,116.4,388.1,116.7,388.3,117z"/>
	<path class="st28" d="M389.3,118.2c-0.3-0.3-0.5-0.6-0.8-1C388.8,117.6,389,117.9,389.3,118.2z"/>
	<path class="st28" d="M389.4,118.3c0.2,0.3,0.5,0.5,0.7,0.7C389.9,118.8,389.7,118.6,389.4,118.3z"/>
	<path class="st28" d="M429.6,124.6c0-0.4-0.1-0.9-0.1-1.3c-2.1-2.2-3.3-5.2-3.5-8.3c0,0,0.2,7.1-11.9,11.3l0,0
		c-0.6,0.4-1.3,0.8-1.8,1.3c-3.3,2.6-3.5,20.1-3.5,22.6c0,0,1-15.9,3.3-19.5c1.2-1.9,2.9-2.5,5-2.9c1.8-0.3,3.6-1,5.2-2
		c0.3-0.2,4.5-3.7,3.7-4.3C427.1,122.6,428.3,123.7,429.6,124.6z"/>
	<path class="st28" d="M429.3,120.5v0.3V120.5z"/>
	<path class="st40" d="M375.6,226.6c0,0-19.1-17.1-27.3-33.4c0.9,11.3,1.4,24.1,0.7,34.5c-1.5,21.7-2.2,29.8-8,38.1
		c-0.5,0.8,0.7,4.6,1.4,6.8c16.8-6,12-6.2,17.8-5.9C366.6,266.8,364,235.6,375.6,226.6z"/>
	<path class="st40" d="M326.8,230.3c4.8,2.9,4.6,8.5,4.6,8.5c1.2,0,2.4-0.2,3.6-0.6c-0.5-3.8-0.9-6.4-0.9-6.4l3.5-0.5
		c3.5-0.5,1-8.7,6.2-19.5c1.4-2.9,3.1-8.8,4.8-15.9c-0.9-13.7-2.5-25.6-3-28.9c-0.3-1.8-1.5-6.9-2.9-13.1c4.4,25.1-5.7,70.5-13,71.1
		S322,227.5,326.8,230.3z"/>
	<path class="st40" d="M466.1,193.9c-0.3-0.6-0.5-0.9-0.7-0.8c-3.2,1.3-8.6,11.7-9.8,18.1c-0.7,3.8-2.4,7.4-4.9,10.3
		c3.4,12.1,13.4,36.3,19.1,49.7c-2.8-11.8-6-30-4.7-55.3C465.5,207,465.8,199.8,466.1,193.9z"/>
	<path class="st40" d="M485.7,238c-4.1-2.7-10.8-4.7-8.4-8.4s6.6-10.3,2-9.6s-3.9-6.7-3.2-13s-2.5-3.3-4.9-9.3s-1.6-41.1-0.6-51.2
		c-1,9.8-2,18.4-2.5,20.7c-1.2,5.4-1.2,12.3-2.7,42.5c2.6,14.1,4.4,31.3,1.3,45.2c0.8,5.7,1.8,10.6,2.7,14.8
		c1.5-1.7,3.6-2.6,5.8-2.7c6.9,0,6.4-0.5,0-7.2s3-10.8,5-14.8S489.8,240.7,485.7,238z"/>
	<path class="st40" d="M370.4,284.8c-5.6,8.2-12.4,15.5-20.2,21.8c-0.8,12.4-0.8,27.8,2.4,40.1c6.5,24.5,6.7,41.5,6.7,44.7
		s2.8,33.7,4.2,45s4.3,45.2,5.2,53.5s2.3,24,6.2,27.5s6.5,10,6.5,10c3.3-13.2,7-25.9,11.6-39.7c0-0.6,0-1.2,0.1-1.7
		c1.1-21.9-8.6-58.6-7.1-66.1s-0.5-38.5-4.7-47s-4.3-33.5,0-44.2s0-37.4,0-37.4c-0.2-1.9-0.5-3.8-1-5.6
		C377.1,285.2,373.9,284.9,370.4,284.8L370.4,284.8z"/>
	<path class="st3" d="M782.8,291.2c0,0.2,0,0.5,0,0.7C782.9,291.7,782.9,291.5,782.8,291.2z"/>
	<path class="st40" d="M418.8,428.5c-7.1-1-4-11.5-2.5-18.5s3.5-28.5,0-24.5s5.5-23.5-0.1-18.3s7-17.2,3.1-16.7s10.4-60.4,10.4-60.4
		l-41.4-5.5c24.9,21.9,9.8,45.4,12.5,58.5c0.2,3.7,1.4,7.3,3.5,10.3c5.3,8.3,7.6,53.9,7.6,58.3s-3.5,11.1-1.9,13.1s1.9,7.4,3.1,10
		s0,8.4-3.9,11.3s-24.7,64.5-27.2,79c-2.5,14.5-10,35.5-10,35.5c0.3,0.4,0.6,0.8,1,1c1.8-4.9,4.5-9.5,8-13.4
		c7.9-9,15.7-2.8,9.7-16.3s11.5-31.5,7.7-37.6s10.3-16.9,7-25.4s5.6-20.6,7.6-28.6S425.9,429.5,418.8,428.5z"/>
	<path class="st40" d="M400.8,343.1c0-0.2-0.1-0.5-0.1-0.7c-4.1-2.3-9-2.7-13.4-1c0,0,5.8,0.6,14.5,7
		C401.3,346.7,400.9,344.9,400.8,343.1z"/>
	<path class="st28" d="M407.8,175.8c4.2,4.9,1.7,93.1,0,92.2c-5.7-20-30,5.7-30.6,6.3l10.1-20.7l0,0c1.9-6.4,3-12.9,3.4-19.6l0.1-1
		c0-0.3,0-0.7,0.1-1c0-0.1,0-0.1,0-0.2l0,0c0.4-9.5,0.1-19.1-0.8-28.6c2.8-3.9,5.5-7.3,6.2-6.8c1.5,1.2,2.5,10.5-1.9,14.8
		c-2.8,2.8-0.5,9.1,1,17.2c0.8,4.6-4.3,22-4.3,22c0.5-2.9,9.3-12.4,9.9-15.6c0.8-4-3.1-18.3-2.4-22.3c0.8-4.6,4.2,1.7,4.9-2.3
		c0.6-3.4-3.2-14.5-2.6-19.5c0.3-2.3,5.3,3.9,5.9,2.1C408.9,186.9,402.5,164.8,407.8,175.8z"/>
	<path class="st40" d="M465.4,295.8c-8.9-6.8-22.6-58.2-22.6-58.2l0,0c3.8,21.7,7.7,46.5,7.8,55c0,0,16,5.8,19.3,17.3
		c0.9,3.3,1.8,3.3,2.5,1.3C471.5,305.5,469.7,299.1,465.4,295.8z"/>
	<path class="st28" d="M430.4,133.5c-0.2-2-0.3-4-0.5-5.9c-12.4,17.1-6.8,12.8-6.8,12.8S428.6,134.3,430.4,133.5z"/>
	<path class="st28" d="M430.5,135.1c-0.7,1.6-1.5,3.1-2.5,4.5c-8.5,14.3,1.2,4.1,2.8,2.9s-3.8,7.8-1.7,5.8c0.5-0.5,1.7-1.3,2.5,0.4
		C431.3,144.6,430.9,139.9,430.5,135.1z"/>
	<path class="st40" d="M384.7,155.3L384.7,155.3c-0.3-2.4-0.5-4.8-0.8-7.1l0,0C384.1,150.6,384.4,152.9,384.7,155.3z"/>
	<path class="st28" d="M381.3,125.2L381.3,125.2c0.7,6.7,1.6,14.4,2.5,23.1c0.2-3.1,1.8-2.4,2.5-1.9c2.4,1.7-4.4-6.5-2.6-5.5
		s13,9.5,2.3-3.3s5,0,5,0S397.6,141.2,381.3,125.2z"/>
	<path class="st3" d="M481.5,183.6"/>
</g>
<g id="Layer_5">
	<path class="st35" d="M642.6,475.2c0,0-2-20.7-11.3-37.7s-8.3-34.3-8.7-50S614,319.8,611,313c0,0,1-1-2.5-5c0,0-1.6-2.4-0.5-4.1
		s-0.1-2.9-1.7-4.8s2.5-0.8,2.7-1.6s-2.6-3.9-3.1-6.6s1.1-39.8-2.7-44.5l-7.1-8.8c-3.3,0.5-6.4,2.2-8.7,4.7
		c-6.5,6.5-19.5,3.5-22.8,2.8s-8,0.8-12.2-2.8s-12,0.5-20.8-0.3c0,0-0.9,0.1-1.8-2.1l0,0c-3.7,0-7.3-0.9-10.7-2.5
		c-2.6,1.1-5.4,1.8-8.2,1.9c-2.4,2.6-5,6.3-5.4,10.4c-0.8,7.8-6.8,36.2-8.2,40.2s-8,24,0,45.3c8,21.3,11.3,48.8,15,58
		c3.7,9.2,3.8,24.5,3.3,24.8s-1,3,0.8,4.5s1.2,6.2,1.2,6.2s0.7,16.7,0.5,23.5s6.7,53.2,10.7,65.8c9,0.1,17.9-0.4,26.8-1.7
		c0,0-0.7-35-0.3-36.3s3.8-20.5-1-32.3c0,0-2-6.2,0.7-19.3s-0.5-19.2-0.5-29.2s0.2-62.5,0.2-62.5s12.7,40.5,21.7,56
		c0,0,7.8,30.5,11.2,36s10.7,19.2,11.7,26.2s2,19.5,14,38.3l11.8,27.8c0,0,20,3,24.3-3.3L642.6,475.2z"/>
	<path class="st2" d="M527.8,231.4c-0.1,0.1-0.2,0.2-0.3,0.3c-0.9,0.9-1.9,1.7-2.9,2.4c-1.5,1.2-3.2,2.2-4.9,3.1l-0.6,0.4
		c3.3,1.6,7,2.5,10.7,2.5C528.7,237.2,528,234.3,527.8,231.4z"/>
	<path class="st2" d="M533.3,88.5c0,0,0.3,21.8,3,24.9s9.8,12.9,16.8,13.1s20.5-8.1,22-17.2s0.8-29.6-5.5-34.6s-18.5-5-21.3-6.3
		C545.5,67.2,535.3,72.5,533.3,88.5z"/>
	<path class="st14" d="M619.1,153.6c-5.5-17-33.8-20.8-33.8-20.8l-13.9,0.8c-0.4,9.3-5.7,20.4-5.7,20.4c-5-8.3-13.5-13.3-15.5-14.4
		c-0.3,0.1-0.7,0.3-1.2,0.5l-3.6,2.2c-4.5,3.4-8,8-10,13.3c0,0-3.1-5.1-1.5-18.9l-33.6,10c-9.9,2.9-11.5,16.1-11.5,16.1
		c-11.5,75.1,11.5,76.9,11.5,76.9c4.5,0.1,9-0.1,13.4-0.8c7.3-1,14-7.8,14-7.8c1.3,11,3.8,10.8,3.8,10.8c8.8,0.8,16.5-3.3,20.8,0.3
		s9,2,12.2,2.8s16.3,3.8,22.8-2.8s11-4.3,20.5-6s7.5-8.8,9.5-11.2s3.3-34.5,3-38.7S624.6,170.6,619.1,153.6z"/>
	<path class="st2" d="M566.3,201.3c3.2-2.4,7.4-3.2,11.3-2c6.5,2,12.1-0.3,12.5,1s-10.3,9.4-13.4,10.1s-8.3,4.7-8.3,4.7L566.3,201.3
		z"/>
	<path class="st14" d="M531.6,242.1c8.8,0.7,16.5-3.3,20.8,0.3c4.3,3.5,9,2,12.2,2.7s16.3,3.8,22.8-2.8s11-4.3,20.5-6
		s7.5-8.8,9.5-11.2s3.3-34.5,3-38.7s4.3-15.8-1.3-32.8c-1-3-2.7-5.7-4.9-8c-3,1.6-5.7,3.9-7.8,6.6c-3.9,5.7-7.2,11.7-9.8,18.1
		c-3.5,9.3-5.5,26.3-6.5,30s-21.8,14.8-21.8,14.8s-17.3,5.7-22.6,10.9c-1.8,1.8-9.1,3.7-17.8,5.5v0.1
		C529.1,242.3,531.6,242.1,531.6,242.1z"/>
	<polygon class="st14" points="603.1,246.4 610.3,235.7 596,237.6 	"/>
	<path class="st35" d="M563.3,592.7c0,0-0.7-16.2,1.2-24.7s3.9-11.2-0.7-15.3s-6-5.9-6-5.9s4.7,15.1,2.6,19.1s-1.5,11.5-1.5,11.5
		s0.9,5.5-3.1,6.9s-18.9,2.2-20.3-0.9c0,0-6.6,10-1.5,12.5s16.5,1.4,25.6-1.5c0,0,1,0.9,1.4-12.3c0-2.2,0.2-4.3,0.6-6.4l-0.5,18.2
		L563.3,592.7z"/>
	<path class="st2" d="M538.3,560.2c0,0,0.3,16.3-2.8,23.2c1.4,3.1,16.3,2.3,20.3,0.9s3.1-6.9,3.1-6.9s-0.6-7.4,1.5-11.4
		s-2.6-19.1-2.6-19.1s-2.7,1.4-2.5-14.6c0.1-6.6,0.3-11.9,0.3-15.7c-8.9,1.2-17.9,1.8-26.8,1.7c0,0,5.3,15.2,6.5,18.7
		S535.3,557,538.3,560.2z"/>
	<path class="st2" d="M663.3,578.2c-4-8.3-3.5-2.2-4.7-11.8s-5.2-10.8-4.7-13.8c0.7-6-0.5-12.1-3.3-17.5l-1.3-17.2
		c-4.3,6.3-24.3,3.3-24.3,3.3l7.7,17.7c0,0-0.7,7.7,2.2,11.3c0,0-1.3,10.8,1,16.3s-0.5,17.7,6.7,19S667.3,586.5,663.3,578.2z"/>
	<path class="st35" d="M663.9,580.5L663.9,580.5c-0.1,6.1-15,6.2-21.4,5c-7.2-1.3-4.3-13.5-6.7-19s-1-16.3-1-16.3
		c-0.3-0.3-0.5-0.7-0.7-1.1c-2,2.5-3.9,5.8-3.2,8.3c1.5,5,4.4,9.4,4.8,13.8c1.5,9.7-0.3,21.6,4.9,25.4s20.2,4.3,23.3,0
		S664.9,583.7,663.9,580.5z"/>
	<path class="st46" d="M568.3,215.1l-2-13.8l-13.3,1.6c-13.3,1.6-26.2-2-26.2-2c-3.4-1.6-10.6-1.1-10.6-1.1s-6.9,3.3-8.4,1
		c-5.2-8.2-2.4-27.1-2.6-40.1c-0.1-6.9-1.1-11.5-2.3-14.6l-2.5,0.8c-9.9,2.9-11.5,16.1-11.5,16.1c-1.6,10.6-2.5,19.7-3,27.6
		c-2.5,48,14.5,49.3,14.5,49.3c4.5,0.1,9-0.1,13.4-0.8c7.3-1,14-7.8,14-7.8s14-1.8,19-6.2S568.3,215.1,568.3,215.1z"/>
	<path class="st14" d="M565.7,154.1c-5-8.3-13.5-13.3-15.5-14.4c-2.2,0.9-10.2,4.7-14.8,16c0,0-4.4-7.2,0-27.8l14.9,11.1l19.1-14.1
		C575.6,133.5,565.7,154.1,565.7,154.1z"/>
	<path class="st47" d="M528.8,445.3c2.3-17,8-11.3,0-21.3s-4-41.3-5.5-46.8s-3.8-32.5-10.3-45.6c-6.5-13.1,10-12.6,0.1-30.4
		c-9.9-17.8,15.4-22.6,12.1-33.1c-1.8-5.7-0.2-14.9,1.7-22c0.6-2.4,1.3-4.5,1.8-6.3c-3.4-0.1-6.7-0.9-9.7-2.4
		c-2.6,1.1-5.4,1.8-8.2,1.9c-2.4,2.6-5,6.3-5.4,10.4c-0.8,7.8-6.8,36.2-8.2,40.2s-8,24,0,45.3c8,21.3,11.3,48.8,15,58
		c3.7,9.2,3.8,24.5,3.3,24.8s-1,3,0.8,4.5s1.2,6.2,1.2,6.2s0.7,16.7,0.5,23.5s6.7,53.2,10.7,65.8c2.3,0,4.5,0,6.8,0l0.2-0.3
		C535.8,517.9,526.6,462.3,528.8,445.3z"/>
	<path class="st47" d="M525.4,439.2c2.3,0.3,4.6,0.5,6.9,0.6s4.6,0.2,6.9,0.1c2.3,0,4.5-0.2,6.8-0.6c2.3-0.3,4.3-1,6.7-1.2l0,0
		c0.3,0,0.5,0.2,0.6,0.5c0,0.2-0.1,0.3-0.2,0.4c-1.9,1.7-4.4,2.1-6.7,2.5c-2.4,0.3-4.7,0.5-7.1,0.4c-2.3-0.1-4.7-0.2-7-0.5
		c-2.3-0.3-4.6-0.7-6.9-1.3c-0.3-0.1-0.4-0.3-0.4-0.6c0,0,0,0,0,0C524.9,439.3,525.1,439.1,525.4,439.2L525.4,439.2z"/>
	<path class="st47" d="M525.3,448.3c2.4-0.1,4.8-0.3,7.1-0.5s4.7-0.6,7-1c2.3-0.4,4.6-1,6.8-1.8c2.1-0.8,4.2-1.8,6.2-3l0,0
		c0.2-0.1,0.6-0.1,0.7,0.2c0.1,0.2,0.1,0.4,0,0.5c-1.5,2.1-4,3.2-6.3,4c-2.3,0.8-4.7,1.4-7.1,1.8c-2.4,0.4-4.8,0.7-7.2,0.8
		c-2.4,0.1-4.8,0.1-7.3,0c-0.3,0-0.5-0.3-0.5-0.5C524.8,448.5,525,448.3,525.3,448.3L525.3,448.3z"/>
	<path class="st48" d="M617.5,344.9c-2.4-15-5.1-28.6-6.5-31.9c0,0,1-1-2.5-5c0,0-1.6-2.4-0.5-4.1s-0.1-2.9-1.7-4.8s2.5-0.8,2.7-1.6
		s-2.6-3.9-3.1-6.6c-0.4-2.1,0.6-26-1-38.1c-2.2,6-5.3,11.6-9.2,16.7c-9.7,12.3,2.5,9.3-2.9,16.8s-14.4,9.9-3.1,18.3
		s2.9,8.2,9.5,13.5s4.2,15.4,14.2,22.2C615,341.5,616.4,343.1,617.5,344.9z"/>
	<path class="st49" d="M607.9,301.3c-0.5-0.8-1.1-1.5-1.7-2.2c-0.5-0.6-0.5-0.9-0.1-1l-0.8-0.2c-4.4-0.9-8.8-1.3-13.3-1.2
		c-4.4,0-8.8,0.3-13.2,0.6c-2.2,0.2-4.3,0.3-6.5,0.4c-1.1,0-2.2,0-3.2,0c-1,0-2-0.2-3-0.5l0,0c-0.2-0.1-0.5,0-0.6,0.3
		c-0.1,0.2,0,0.5,0.2,0.7c0,0,0,0,0,0c1.1,0.4,2.2,0.7,3.3,0.8c1.1,0.1,2.2,0.2,3.3,0.2c2.2,0,4.4,0,6.6,0c4.4-0.1,8.7-0.3,13-0.1
		c4.3,0.1,8.6,0.5,12.8,1.4C605.8,300.7,606.9,301,607.9,301.3z"/>
	
		<linearGradient id="SVGID_26_" gradientUnits="userSpaceOnUse" x1="596" y1="362.945" x2="610.27" y2="362.945" gradientTransform="matrix(1 0 0 -1 0 604)">
		<stop  offset="0" style="stop-color:#3482A1"/>
		<stop  offset="0.22" style="stop-color:#4E92AD"/>
		<stop  offset="0.54" style="stop-color:#6CA5BB"/>
		<stop  offset="0.81" style="stop-color:#7EB0C4"/>
		<stop  offset="1" style="stop-color:#85B4C7"/>
	</linearGradient>
	<polygon class="st50" points="603.1,246.4 610.3,235.7 596,237.6 	"/>
	<path class="st49" d="M604.8,305.8c1,0.3,2.1,0.6,3.1,1c-0.4-0.9-0.3-1.9,0.1-2.8c-0.8-0.3-1.7-0.5-2.5-0.7c-2.2-0.6-4.4-1-6.6-1.3
		c-2.2-0.3-4.4-0.5-6.6-0.6c-4.4-0.2-8.8-0.2-13.2,0c-4.4,0.2-8.7,0.7-13.1,1.4c-0.3,0-0.5,0.3-0.4,0.6s0.3,0.5,0.6,0.4l0,0
		c4.3-0.3,8.7-0.5,13-0.5c4.3-0.1,8.7,0.1,13,0.5C596.3,304,600.6,304.7,604.8,305.8z"/>
	<path class="st49" d="M611,313c0,0,0.6-0.6-0.8-2.7c-1.5-0.6-3.1-1.1-4.7-1.5c-2.2-0.5-4.4-1-6.6-1.3c-2.2-0.3-4.4-0.5-6.6-0.6
		c-4.4-0.2-8.8-0.2-13.2,0c-4.4,0.2-8.7,0.7-13.1,1.4c-0.3,0-0.5,0.3-0.4,0.6s0.3,0.5,0.6,0.4l0,0c4.3-0.3,8.7-0.5,13-0.5
		c4.3-0.1,8.7,0.1,13,0.5c4.3,0.3,8.5,1,12.7,2.1c2,0.5,4,1.3,5.9,2.1l0.6,0.3C611.2,313.4,611.1,313.2,611,313z"/>
	<path class="st47" d="M548.8,327.8c-2.6-0.3-5.1-0.9-7.6-1.7c-2.5-0.7-4.9-1.4-7.4-1.9c-2.5-0.5-5-1.1-7.5-1.4
		c-2.5-0.4-5.1-0.4-7.6-0.2l0,0c-0.3,0-0.5-0.2-0.5-0.4c0,0,0,0,0,0c0-0.3,0.1-0.5,0.4-0.5l2-0.4c0.7-0.1,1.3-0.1,2-0.2
		s1.3-0.1,2-0.1s1.3,0,2,0c2.6,0.1,5.2,0.5,7.8,1c2.6,0.5,5.1,1.1,7.7,1.8c2.6,0.6,5,1.7,7.2,3.1c0.2,0.1,0.3,0.5,0.2,0.7
		c-0.1,0.2-0.3,0.3-0.5,0.2L548.8,327.8z"/>
	<path class="st47" d="M550.8,318.2c-3.9-0.7-7.8-1.6-11.6-2.7c-3.8-1-7.7-1.9-11.6-2.6c-3.9-0.7-7.8-1.4-11.7-1.8
		c-4-0.4-7.9-0.7-11.9-0.7l0,0c-0.3,0-0.5-0.2-0.5-0.5c0-0.3,0.2-0.5,0.5-0.5c2-0.1,4-0.3,6-0.3s4,0.1,6,0.2c4,0.3,8,0.7,12,1.4
		s7.9,1.5,11.8,2.5c3.9,0.8,7.8,2.2,11.4,4c0.2,0.1,0.3,0.5,0.2,0.7C551.1,318.1,550.9,318.2,550.8,318.2L550.8,318.2z"/>
	<path class="st49" d="M603,289.9c-0.6,0.3-1.3,0.3-1.9,0.2l-1.8-0.3c-1.2-0.2-2.4-0.4-3.6-0.5c-2.4-0.3-4.9-0.5-7.3-0.8
		c-0.3,0-0.5-0.3-0.5-0.5c0-0.2,0.2-0.4,0.5-0.5c2.5-0.3,5-0.3,7.6-0.1c1.3,0.1,2.5,0.2,3.8,0.4c0.6,0.1,1.3,0.2,1.9,0.3
		c0.7,0.1,1.3,0.4,1.8,0.9c0.2,0.3,0.2,0.6-0.1,0.9c0,0,0,0,0,0C603.2,289.9,603.1,289.9,603,289.9L603,289.9z"/>
	<path class="st49" d="M603,278.5c-1.3,0.7-2.2,0.1-3.3,0l-3.2-0.6c-2.1-0.4-4.3-0.7-6.4-1l0,0c-0.3,0-0.5-0.3-0.4-0.6c0,0,0,0,0,0
		c0-0.2,0.2-0.4,0.4-0.4c2.2-0.3,4.5-0.4,6.7-0.1c1.1,0.1,2.2,0.3,3.3,0.5s2.3,0.1,3.1,1.3c0.2,0.3,0.2,0.7-0.1,0.9c0,0,0,0,0,0
		L603,278.5L603,278.5z"/>
	<path class="st51" d="M629.2,453.1c-0.1-0.2-0.4-0.3-0.7-0.2l0,0c-3,1.5-6.5,2-10,2.3c-3.5,0.2-7,0.3-10.4,0.1
		c-3-0.1-6-0.3-9.1-0.6c0,0.1,0,0.2,0.1,0.3c0.1,0.6,0.2,1.3,0.3,1.9c2.9,0.2,5.8,0.4,8.7,0.4c3.6,0.1,7.1-0.1,10.7-0.5
		c1.8-0.2,3.5-0.5,5.3-1c1.8-0.4,3.5-1.1,5-2.1C629.2,453.6,629.3,453.3,629.2,453.1z"/>
	<path class="st51" d="M633.5,441.8c-0.4-0.9-0.8-1.8-1.3-2.6c-1.6,1.5-3.3,2.9-5,4.3c-1.8,1.5-3.8,2.8-5.8,4
		c-2,1.2-4.2,2.1-6.4,2.6l0,0c-0.2,0.1-0.4,0.3-0.4,0.5c0,0.3,0.2,0.5,0.5,0.5c0,0,0,0,0,0c2.5-0.1,5-0.7,7.3-1.7
		c2.3-1,4.4-2.2,6.5-3.7C630.4,444.4,632,443.1,633.5,441.8z"/>
	<path class="st51" d="M624.8,419.5c-0.1,0-0.1,0-0.2,0c-2.4,0-4.7,0.1-7.1,0.3c-1.2,0.1-2.3,0.3-3.5,0.5c-1.2,0.2-2.3,0.5-3.5,0.8
		c-0.2,0.1-0.4,0.3-0.3,0.5c0,0.3,0.3,0.5,0.6,0.4l0,0c2.3-0.3,4.6-0.4,6.9-0.5c2.3,0,4.6,0,6.9,0.1h0.8
		C625.1,421.1,624.9,420.3,624.8,419.5z"/>
	<path class="st51" d="M623.8,413.9h-1.3c-2-0.1-4-0.1-6,0.1c-2,0.1-4,0.4-6,0.8c-2,0.4-4,1-5.8,2c-0.2,0.1-0.2,0.3-0.2,0.5
		c0.1,0.2,0.3,0.3,0.5,0.3c0,0,0,0,0,0l0,0c1.9-0.5,3.8-0.9,5.7-1c1.9-0.2,3.9-0.2,5.8-0.2s3.9,0.1,5.8,0.2l1.8,0.1
		C624.1,415.6,623.9,414.7,623.8,413.9z"/>
	<path class="st51" d="M613.3,428.2c0-0.3-0.2-0.5-0.5-0.5c0,0,0,0,0,0c-2.5-0.1-5.1,0.1-7.6,0.6c-1.3,0.2-2.5,0.6-3.7,0.9
		c-1.2,0.4-2.4,0.8-3.6,1.4c-2.3,1-4.6,2.3-6.7,3.7l-0.5,0.4c0.4,0.7,0.7,1.4,1.1,2l0.7-0.5c2-1.4,4.1-2.6,6.2-3.7
		c1.1-0.5,2.2-1,3.3-1.5s2.3-0.8,3.5-1.1c2.4-0.6,4.8-1.1,7.2-1.3l0,0C613.1,428.6,613.3,428.4,613.3,428.2z"/>
	<g class="st52">
		<path class="st6" d="M554.6,341.2c0-2.8,0-4.4,0-4.4C554.6,338.3,554.6,339.7,554.6,341.2z"/>
		<path class="st6" d="M630.8,521.7c0,0-4-14.9-9-25.4c-4.1-8.8-6.7-18.3-7.6-28c-0.7-7-9.9-20.5-12.1-26.4s-9.7-15.6-12.4-24.6
			s-0.3-36.1-11.4-44.6s-23.5-36-23.5-36s12.7,40.5,21.7,56c0,0,7.8,30.5,11.2,36s10.7,19.2,11.7,26.2s2,19.5,14,38.3l11.8,27.8
			C625,521.2,627.4,521.5,630.8,521.7z"/>
	</g>
	<path class="st47" d="M544.9,576.2c-2.8-6-0.3-13,0-17.9s-3.6-3.1-2.9-9.2s-2.9-13.2-2.9-13.2l-3.1-17.7c-2.4,0.1-4.8,0.1-7.2,0.1
		c0,0,5.3,15.2,6.5,18.7s0,20.2,3,23.3c0,0,0.3,16.3-2.8,23.2c0.6,1.4,3.8,2,7.5,2.1C544.8,582.9,546.4,579.3,544.9,576.2z"/>
	<path class="st47" d="M645.4,572c-1.9-4.8-2-10.9-2-13.1s-3.8-3.9-4-10.9c0-3.9-1.4-7.8-4-10.8l-4.6-15.6c-3.4-0.2-5.8-0.6-5.8-0.6
		l7.7,17.7c0,0-0.7,7.7,2.2,11.3c0,0-1.3,10.8,1,16.3s-0.5,17.7,6.7,19c0.8,0.2,1.7,0.3,2.7,0.4C645.9,581.6,646.6,575.1,645.4,572z
		"/>
	<path class="st49" d="M555,428.5c2.7-13.2-0.5-19.2-0.5-29.2v-3.6c-0.4,13.5-1.6,30.5-5.1,35.4c-6.1,8.5,1.4,3.3,4.4,19.8
		c1.5,9.2,2.1,18.5,1.8,27.8c0.8-4.9,2.9-20.6-1.3-30.9C554.3,447.8,552.3,441.7,555,428.5z"/>
	<path class="st49" d="M591.7,294.2c3.8,0.2,7.6,0.6,11.4,1.3c1.9,0.3,3.8,0.8,5.7,1.4c-0.3-0.6-0.8-1.4-1.3-2.2
		c-1.3-0.4-2.6-0.8-4-1c-3.9-0.6-7.8-1-11.7-1.2c-3.9-0.2-7.8-0.3-11.6-0.4c-3.8,0-7.6-0.5-11.4-1.3l-0.3,1c1.9,0.6,3.8,1,5.8,1.2
		c1.9,0.3,3.9,0.4,5.8,0.6L591.7,294.2z"/>
	<path class="st49" d="M642.6,475.2c0,0-2-20.7-11.3-37.7c-8.3-15.2-8.4-30.7-8.6-45c-1.5,7.8-3.3,14.4-5.2,16.3
		c-5.5,5.5,6.3,3,7,13s-4.2,23.9,0.8,26c3.7,1.5,11.8,14.8,18.2,33.1L642.6,475.2z"/>
	<path class="st47" d="M577.6,199.3c6.5,2,12.1-0.3,12.5,1c0.8-3,2.2-14.1,4.5-23.3c-2.7,0.7-6.3,15.5-8.1,11.2s-0.9,11-8.8,9.1
		c-5.1-1.2-11,2-14.5,4.4l3.1-0.4C569.5,198.9,573.7,198.2,577.6,199.3z"/>
	<path class="st47" d="M507.8,200.8c1.5,2.3,8.4-1,8.4-1s7.3-0.5,10.6,1.1c0,0,2,0.6,5.3,1.1c-4.1-4.2-8.7-8.1-11.9-8.8
		c-4.8-1.1-11.7-9.3-15.5-14.3C504.5,187.7,504.8,196.1,507.8,200.8z"/>
	<path class="st47" d="M495.4,185.4c-1.2-1.9-2.2-3.8-3.2-5.8s-1.9-4-2.9-6c-0.5-1.1-1-2.2-1.5-3.3c-0.2,1.4-0.4,2.7-0.5,4.1
		c0,0.1,0.1,0.1,0.1,0.2c1,2,2.1,4,3.3,5.9c0.6,1,1.2,1.9,1.8,2.9l1,1.4l1.1,1.3c0.2,0.2,0.5,0.2,0.7,0.1
		C495.5,185.9,495.5,185.7,495.4,185.4L495.4,185.4z"/>
	<path class="st47" d="M500.4,159.3c-0.2-0.8-0.5-1.7-0.8-2.5c-0.7-1.6-1.5-3.1-2.5-4.5c-0.6-0.9-1.2-1.7-1.8-2.5
		c-0.6,0.5-1.1,1.1-1.6,1.7c0.6,0.7,1.1,1.4,1.6,2.1c1,1.3,1.9,2.6,2.7,4c0.8,1.3,1.4,2.8,1.7,4.4v0.1c0,0.3,0.3,0.5,0.5,0.5
		c0.3,0,0.5-0.3,0.5-0.5l0,0v-1.3L500.4,159.3z"/>
	<path class="st47" d="M495.2,166c-1-2.4-1.9-4.8-2.5-7.4c-0.4-1.3-0.7-2.6-1.1-3.9c-0.9,1.8-1.7,3.7-2.2,5.7c0.7,2.4,1.6,4.8,2.7,7
		c1.2,2.5,2.6,4.8,4,7.1c1.4,2.2,2.7,4.6,3.8,7l0,0c0.1,0.2,0.3,0.3,0.5,0.3c0.3,0,0.5-0.2,0.5-0.5c-0.4-2.8-1.2-5.5-2.4-8
		L495.2,166z"/>
	<path class="st47" d="M502.8,201.1c0.2,0.2,0.4,0.2,0.6,0.1c0.2-0.1,0.3-0.4,0.2-0.7c-1.2-2.2-2.7-4.3-4.5-6.1
		c-1.7-1.8-3.6-3.5-5.7-5c-2-1.5-4.2-2.8-6.4-4.1c-0.3-0.1-0.5-0.2-0.8-0.4c-0.1,1.1-0.2,2.2-0.2,3.3c1.9,1.1,3.8,2.3,5.7,3.5
		s3.9,2.8,5.8,4.3C499.4,197.7,501.1,199.3,502.8,201.1L502.8,201.1z"/>
	<path class="st47" d="M507.3,218.4c0.6-0.9,1.3-1.7,2-2.5c0.7-0.8,1.4-1.5,2.1-2.2c0.7-0.7,1.3-1.5,1.9-2.2c0.6-0.7,1-1.6,1.3-2.5
		l0,0l-0.2-0.9l1.1,0.5c0.9,0.4,1.7,1,2.4,1.6c0.7,0.6,1.4,1.3,2,2.1c0.6,0.8,1.1,1.6,1.6,2.5c0.2,0.5,0.4,1,0.5,1.5
		c0,0.3,0,0.6,0,0.8c0,0.3-0.1,0.6-0.2,0.9l0,0l-0.6-0.6c1.7-1.2,3.5-2.1,5-3.3c0.7-0.6,1.4-1.2,2-1.9c0.6-0.7,1-1.6,1.3-2.5l0,0
		c0.1-0.3,0.3-0.4,0.6-0.4c0.2,0.1,0.4,0.2,0.4,0.4c0.2,1.2,0,2.4-0.5,3.5c-0.5,1-1.3,2-2.2,2.7c-0.9,0.7-1.9,1.3-2.9,1.7
		c-1,0.4-2.1,0.7-3.2,0.8h-0.9l0.3-0.7l0,0c-0.1-0.8-0.4-1.5-0.9-2.1c-0.5-0.7-1-1.4-1.6-2c-0.6-0.7-1.2-1.3-1.8-2
		c-0.6-0.7-1.2-1.4-1.7-2.2l0.8-0.4l0,0c0.3,1.2,0.1,2.5-0.4,3.6c-0.5,1-1.1,2-1.8,2.9c-0.7,0.9-1.5,1.6-2.4,2.3
		c-0.9,0.7-1.9,1.2-3,1.5c-0.3,0.1-0.6-0.1-0.7-0.4C507.2,218.8,507.2,218.6,507.3,218.4L507.3,218.4z"/>
	<path class="st47" d="M496.8,220.3c0.6-1.4,1.2-2.8,2-4.1c0.7-1.3,1.6-2.6,2.4-3.9s1.6-2.5,2.4-3.8c0.8-1.2,1.4-2.5,1.9-3.8v-0.1
		c0.1-0.3,0.4-0.4,0.6-0.3c0.2,0.1,0.3,0.2,0.3,0.4c0.1,0.8,0,1.7-0.3,2.5c-0.2,0.8-0.5,1.5-0.8,2.3c-0.6,1.4-1.3,2.8-2.1,4.1
		c-0.8,1.3-1.6,2.6-2.5,3.8c-0.9,1.2-2,2.4-3.1,3.4c-0.2,0.2-0.5,0.2-0.7,0C496.7,220.8,496.7,220.5,496.8,220.3L496.8,220.3z"/>
	<path class="st47" d="M539.6,210.2c0.2,1.3,0.1,2.7-0.2,4c-0.3,1.3-0.8,2.6-1.5,3.8c-0.7,1.2-1.5,2.3-2.6,3.2
		c-1.1,0.9-2.4,1.5-3.8,1.6c-0.3,0-0.6-0.2-0.6-0.5c0-0.1,0-0.2,0.1-0.3l0,0c0.8-1.2,1.5-2,2.2-2.9c0.8-0.8,1.5-1.7,2.1-2.6
		c0.3-0.5,0.6-0.9,0.9-1.4c0.3-0.5,0.6-1,0.8-1.5c0.5-1.1,1-2.2,1.5-3.3v-0.1c0.1-0.3,0.4-0.4,0.7-0.3c0,0,0,0,0,0
		C539.5,209.9,539.6,210,539.6,210.2z"/>
	<path class="st47" d="M533.3,177.2c0.8-1.5,1.7-3,2.8-4.3c2-2.7,4.4-5.2,7-7.4c0.7-0.6,1.3-1.1,2-1.6c0.7-0.6,1.4-1,2.3-1.2
		c0.3-0.1,0.6,0.1,0.6,0.4c0,0,0,0,0,0c0,0.1,0,0.3-0.1,0.4l0,0c-0.5,0.7-1.1,1.3-1.8,1.7c-0.7,0.5-1.3,1-2,1.5
		c-1.3,1-2.5,2.2-3.7,3.3c-1.2,1.1-2.3,2.4-3.4,3.6c-1.1,1.3-2.1,2.6-3,3.9l0,0c-0.1,0.2-0.5,0.3-0.7,0.1
		C533.3,177.6,533.2,177.4,533.3,177.2z"/>
	<path class="st40" d="M551.4,140.3l-1.2-0.7c0,0,9.5,8.5,9.7,10.9s5.1,3.8,5.7,3.5C561.5,146.9,554.5,142.2,551.4,140.3z"/>
	<path class="st41" d="M537.7,125.5v4.1l12.7,9.5l18-13.2v-6.2l0.1-0.1c-4.8,4.2-11.2,7-15.3,6.9c-6.6-0.2-13.2-9-16.3-12.5l0.9,1.4
		L537.7,125.5z"/>
	<path class="st14" d="M548.3,140.5c-0.3,4.9-0.8,13.3-0.7,16.9c0.4,6.5-0.2,13-1.8,19.3c-1.8,6.6,0.5,24.7,0.5,24.7h4.5
		c0,0-2-11.6-1.5-18.6s3.5-18.2,2.8-25.1c-0.5-4.9-0.3-14.3-0.1-19.4L548.3,140.5z"/>
	<path class="st40" d="M543.8,143.7l-0.5,0.4l-0.4,0.4c-0.3,0.2-0.5,0.5-0.7,0.7l-0.2,0.2c-0.2,0.2-0.5,0.5-0.7,0.7
		s-0.4,0.4-0.5,0.6l-0.3,0.4c-2.1,2.6-3.7,5.4-4.9,8.5c0.7,0.2,5.4-1.8,5.4-4.2s9.4-11.8,9.4-11.8l-1.4,0.6
		C547,141.2,545.3,142.4,543.8,143.7z"/>
	<path class="st6" d="M618.9,124c-6.8-4-4.4-4.8-7.7-10.8s-5-3.2-6.2-8.5s-0.9-4.8-4.8-6.7s-0.5-6-2.6-8.9s-2.8-9.4-3.3-11.8
		s-5.3-2.3-8.3-7.3s-11-13.8-15.5-15.1s-24-9.9-32.3,2.8c0,0-15.2,10.1-17.5,14.4s4.3,1.4,2.1,9.8s-7,13.8-8,16.3s0,4.5-2.5,8.6
		c-2.5,4.1,1.1,6-1,7.7c-2.1,1.7,1.2,9-1.3,10.2c-2.5,1.2,0.5,5.3-2.3,7.8s-2.6,12.9-2.6,12.9s5.8-3.9,6.8-0.4
		c1.9,6.2,2.6-0.9,5.7,3.6s-0.3,8.6,7.9,9.2s-3.3-2.4,0.9-5.6s1.6-3.6,7.8-6.1s3.3-14,3.3-14v-16.8l-1.4-2.1c-2.8-3.1-3-24.9-3-24.9
		c2-16,12.3-21.3,15-20s15,1.3,21.3,6.3s7,25.5,5.5,34.6c-0.6,3.8-3.3,7.6-6.7,10.5v6.5l1.4,0.1c0,0-0.2,7.2-1.4,10.3
		s7.5-0.5,3.4,5.7s0,3.6,3.5,10.3s6.8-2,10.3-0.9s-0.9-5.9,2.5-6.7s14.4-0.2,14-2.6s13.4,0.8,15.3,7.4c0,0,5.5-5.3-1-7.5
		s6.5-0.5,7-5S625.7,128,618.9,124z"/>
	<pattern  id="SVGID_27_" xlink:href="#Ripple" patternTransform="matrix(0.3 0 0 -0.3 -5429.5747 -10370.3545)">
	</pattern>
	<path class="st53" d="M618.9,124c-6.8-4-4.4-4.8-7.7-10.8s-5-3.2-6.2-8.5s-0.9-4.8-4.8-6.7s-0.5-6-2.6-8.9s-2.8-9.4-3.3-11.8
		s-5.3-2.3-8.3-7.3s-11-13.8-15.5-15.1s-24-9.9-32.3,2.8c0,0-15.2,10.1-17.5,14.4s4.3,1.4,2.1,9.8s-7,13.8-8,16.3s0,4.5-2.5,8.6
		c-2.5,4.1,1.1,6-1,7.7c-2.1,1.7,1.2,9-1.3,10.2c-2.5,1.2,0.5,5.3-2.3,7.8s-2.6,12.9-2.6,12.9s5.8-3.8,6.8-0.4
		c2,6.1,2.6-0.9,5.7,3.6s-0.3,8.6,7.9,9.2s-3.3-2.4,0.9-5.6s1.6-3.6,7.8-6.1s3.3-14,3.3-14v-16.8l-1.4-2.1c-2.8-3.1-3-24.9-3-24.9
		c2-16,12.3-21.3,15-20s15,1.3,21.3,6.3s7,25.5,5.5,34.6c-0.6,3.8-3.3,7.6-6.7,10.5v6.5l1.4,0.1c0,0-0.2,7.2-1.4,10.3
		s7.5-0.5,3.4,5.7s0,3.6,3.5,10.3s6.8-2,10.3-0.9s-0.9-5.9,2.5-6.7s14.4-0.2,14-2.6s13.4,0.8,15.3,7.4c0,0,5.5-5.3-1-7.5
		s6.5-0.5,7-5S625.7,128,618.9,124z"/>
	<path class="st2" d="M507.8,200.8c-1.2-4.1-5-6.4-6.3-7.9c-4.5-5.4,3.3-4.1,6.8-1.6c1.5,1.1,4.2,4.9,6.7,9
		C507.9,203.2,507.8,200.8,507.8,200.8z"/>
</g>
</svg>
