<?xml version="1.0" encoding="utf-8"?>
<!-- Generator: Adobe Illustrator 22.1.0, SVG Export Plug-In . SVG Version: 6.00 Build 0)  -->
<svg version="1.1" id="Layer_1" xmlns="http://www.w3.org/2000/svg" xmlns:xlink="http://www.w3.org/1999/xlink" x="0px" y="0px"
	 viewBox="0 0 1920 691.6" style="enable-background:new 0 0 1920 691.6;" xml:space="preserve">
<style type="text/css">
	.st0{fill:#F5F7F9;}
	.st1{opacity:0.6;}
	.st2{fill:#FFFFFF;}
</style>
<title>StepsBG</title>
<g>
	<g>
		<path class="st0" d="M1920,0v606.1c-38.4,2.6-174.9-22-356,2c-141.7,18.8-216,74.6-491.8,67C871.5,669.5,747.1,624.2,530,576
			C207.8,504.3,35.2,643.3,0,645.4l0.4-537.8H0C151.6,55.2,336.8,20,544.8,51.8c382.6,58.3,599.9-75.1,834.3-34.6
			C1667.2,67.1,1914.6,3.2,1920,0z"/>
	</g>
</g>
<g class="st1">
	<path class="st2" d="M217.2,128.9c0.7-0.8,0.9-1.8,1-2.8c0.2-1.1-1.3-2.9-0.8-3.9c0.1-0.5,0.9-0.7,1.7-0.8c0.2-0.1,0.4-0.1,0.5-0.1
		c0.2-0.1,0.3-0.1,0.5-0.1c0.3-0.2,0.4-0.4,0.4-0.6c0.3-1.1-1.2-2.9-0.8-3.9c0.3-1.1,2.5-0.9,3-1.8c0.1-0.2,0.2-0.5,0.1-0.8
		c-0.1-0.4-0.2-0.7-0.5-1.1c-0.5-0.8-0.7-1.5-0.5-2c0.3-0.9,2.4-0.9,3-1.8c0.7-0.8,1.2-1.5,1.3-2.7l2.4,1.3c-0.7,0.8-0.9,1.8-1,2.8
		c-0.2,1.1,1.1,2.8,0.8,3.9c-0.1,0.5-0.8,0.8-1.6,0.9c-0.4,0.1-0.7,0.1-1,0.4c-0.3,0.2-0.4,0.4-0.4,0.6c-0.3,1.1,1.2,2.9,0.8,3.9
		c-0.3,1.1-2.5,0.9-3,1.8c-0.1,0.2-0.2,0.5-0.1,0.7c0,0.1,0.1,0.4,0.1,0.6c0.1,0.2,0.2,0.4,0.2,0.6c0.4,0.8,0.7,1.5,0.5,2
		c-0.3,1.1-2.4,0.9-3,1.8c-0.7,0.8-1.2,1.5-1.3,2.7L217.2,128.9z"/>
</g>
<g>
	<path class="st2" d="M1569.5,511.7c-0.9-1.2-2.1-1.8-3.5-2.2c-1.3-0.5-3.4,0.7-4.5-0.2c-0.3-0.2-0.5-0.5-0.7-0.9s-0.3-0.9-0.5-1.4
		c-0.3-1.1-0.6-1.8-1.3-2c-0.6-0.4-1.4-0.2-2.2,0c-0.8,0.2-1.6,0.2-2.1-0.2c-0.5-0.5-1-1.2-1.3-2.1c-0.3-0.9-0.6-1.9-1.2-2.4
		c-0.3-0.2-0.5-0.5-0.9-0.5s-0.8,0.1-1.2,0.2c-0.9,0.4-1.7,0.5-2.2,0c-1.2-0.7-1.3-3.4-2.3-4.4c-1-1.2-2-2.1-3.3-2.4l1.3-2.7
		c1,1.2,2.1,1.8,3.5,2.2c1.3,0.5,3.3-0.6,4.5,0.2c0.6,0.4,0.9,1.2,1.2,2.4c0.1,0.5,0.3,1.1,0.5,1.4c0.2,0.5,0.4,0.6,0.8,0.7
		c0.6,0.4,1.4,0.1,2.2,0c0.8-0.2,1.6-0.2,2.1,0.2c0.5,0.5,1,1.2,1.3,2.1c0.3,0.9,0.6,1.9,1.2,2.4c0.5,0.5,1.3,0.5,2.1,0.2
		c0.4-0.1,0.9-0.2,1.2-0.4c0.4,0,0.7,0,1,0.2c1.3,0.6,1.3,3.4,2.3,4.4c1,1.2,2,2.1,3.3,2.4L1569.5,511.7z"/>
</g>
<g>
	<path class="st2" d="M1629.1,538.6c-0.9-1.2-2.1-1.8-3.5-2.2c-1.3-0.5-3.4,0.7-4.5-0.2c-0.3-0.2-0.5-0.5-0.7-0.9s-0.3-0.9-0.5-1.4
		c-0.3-1.1-0.6-1.8-1.3-2c-0.6-0.4-1.4-0.2-2.2,0c-0.8,0.2-1.6,0.2-2.1-0.2c-0.5-0.5-1-1.2-1.3-2.1s-0.6-1.9-1.2-2.4
		c-0.3-0.2-0.5-0.5-0.9-0.5s-0.8,0.1-1.2,0.2c-0.9,0.4-1.7,0.5-2.2,0c-1.2-0.7-1.3-3.4-2.3-4.4c-1-1.2-2-2.1-3.3-2.4l1.3-2.7
		c1,1.2,2.1,1.8,3.5,2.2c1.3,0.5,3.3-0.6,4.5,0.2c0.6,0.4,0.9,1.2,1.2,2.4c0.1,0.5,0.3,1.1,0.5,1.4c0.2,0.5,0.4,0.6,0.8,0.7
		c0.6,0.4,1.4,0.1,2.2,0c0.8-0.2,1.6-0.2,2.1,0.2c0.5,0.5,1,1.2,1.3,2.1s0.6,1.9,1.2,2.4c0.5,0.5,1.3,0.5,2.1,0.2
		c0.4-0.1,0.9-0.2,1.2-0.4c0.4,0,0.7,0,1,0.2c1.3,0.6,1.3,3.4,2.3,4.4c1,1.2,2,2.1,3.3,2.4L1629.1,538.6z"/>
</g>
<g>
	<path class="st2" d="M1577.6,531.1c-1.2,2.5-1.9,5.3-2.3,8.1c-0.6,2.7,0.5,6.4-0.5,8.9c-0.2,0.6-0.5,1.3-1,1.9
		c-0.5,0.6-0.9,1.2-1.4,1.6c-1.1,1.1-1.8,2.4-2,3.6c-0.4,1.4-0.3,2.9-0.2,4.5c0.1,1.5,0.1,3.1-0.3,4.5c-0.4,1.4-1.2,2.5-2.1,3.6
		c-0.9,1.2-1.8,2.2-2.3,3.5c-0.5,1.3-0.6,2.7-0.3,4.5c0.3,1.5,0.3,3.2-0.2,4.5c-0.8,2.7-3.4,4.6-4.4,7.2c-0.5,1.3-1.1,2.5-1.5,3.9
		c-0.4,1.4-0.8,2.6-1.1,4.1l-2.5-1.1c0.6-1.3,1.1-2.6,1.4-4c0.3-1.4,0.7-2.7,0.9-4.2c0.6-2.7-0.4-6.2,0.5-8.9
		c0.3-1.4,1.2-2.5,2.2-3.5c1.1-1.1,1.9-2.2,2.1-3.6c0.4-1.4,0.3-2.9,0.2-4.5c-0.1-1.5-0.1-3.1,0.3-4.5s1.2-2.5,2.1-3.6
		c0.9-1.2,1.8-2.2,2.3-3.5c0.5-1.3,0.6-2.7,0.4-4.5c-0.1-0.8-0.2-1.5-0.2-2.4c0-0.7,0.1-1.5,0.3-2.1c0.7-2.7,3.4-4.6,4.4-7.2
		c1.2-2.5,2.1-5.2,2.6-8L1577.6,531.1z"/>
</g>
<g>
	<path class="st2" d="M1493.1,563.4c2.9,1.9,5.6,3.3,8.3,4.8c2.8,1.4,5.5,2.9,8.3,3.6c1.4,0.5,2.9,0.7,4.4,1.3
		c1.5,0.5,3,1.2,4.6,2.1c1.5,0.8,3,2,4.2,3.3c1.3,1.3,2.5,2.6,3.8,3.8l2.8,2.5l-2.6,1.2c-2.9,1.3-5.3,3.5-7.4,6
		c-1.1,1.3-2.1,2.6-3.2,3.9c-1.1,1.3-2.3,2.4-3.6,3.3c-1.2,0.9-2.6,1.8-4,2.5c-1.4,0.7-2.9,1.3-4.4,1.9c-2.9,1.3-5.5,2.8-7.8,5.5
		l-2,2.4l-0.9-4.1c-0.4-1.8-1-3.6-1.4-5.7c-0.5-1.9-0.6-3.9-0.6-5.9c0-1.9,0.1-3.9,0.3-5.7c0.3-1.8,0.6-3.5,0.8-5.3
		c0.5-3.4,0.5-6.9,0.6-10.4C1493.4,570.8,1493.4,567.2,1493.1,563.4z M1494.5,566.1c0.1,3.2,0.3,6.7,0.6,10.2
		c0.4,3.5,0.6,7.1,1.5,10.7c0.4,1.8,0.8,3.6,1.3,5.3c0.4,1.6,0.6,3.4,0.8,4.9c0.2,1.5,0.1,3.2-0.3,4.7c-0.3,1.5-0.7,3.3-1,4.9
		l-2.9-1.8c2.9-1.3,5.3-3.4,7.5-6c1.1-1.3,2.1-2.6,3.2-3.9s2.3-2.4,3.6-3.3c1.2-0.9,2.6-1.8,4-2.5c1.4-0.6,2.9-1.3,4.4-1.9
		c2.9-1.3,5.5-2.9,7.8-5.4l0.2,3.8c-1.4-0.5-2.9-0.7-4.2-1.1c-1.3-0.4-2.6-0.8-3.8-1.6c-1.2-0.7-2.3-1.6-3.5-2.8
		c-1.2-1.2-2.3-2.4-3.6-3.5c-2.5-2.5-5.1-4.2-7.7-6.1C1499.6,569.1,1497,567.4,1494.5,566.1z"/>
</g>
<g>
	<path class="st2" d="M1510.6,537.6c0-2.8,0.5-5.8,1.5-8.4c1-2.6,2.2-5.2,3.8-7.4c1.6-2.2,3.4-4.4,5.6-6.1c2.2-1.8,4.9-2.8,7.7-2.8
		c0.7,0,1.3,0.1,2.1,0.2c0.7,0.2,1.3,0.5,2,0.6c0.6,0.4,1.3,0.6,1.9,1.1s1.2,0.8,1.7,1.3c2.1,1.9,3.9,3.9,5.8,5.8
		c1.8,2,3.7,4.1,5.2,6.7c1.5,2.6,2.5,5.8,2.4,9.1c0,3.3-0.9,6.4-2.4,9.1c-1.5,2.6-3.4,4.7-5.2,6.7c-0.4,0.5-0.9,0.9-1.3,1.5
		c-0.4,0.5-0.9,0.9-1.4,1.5c-0.4,0.5-1,0.9-1.4,1.5c-0.5,0.5-1,0.9-1.5,1.5c-0.5,0.5-1.1,0.9-1.7,1.3c-0.6,0.4-1.2,0.7-1.9,1.1
		c-0.6,0.2-1.3,0.5-2,0.6c-0.7,0.1-1.3,0.1-2.1,0.2c-2.8,0-5.4-1.2-7.7-2.9c-2.3-1.8-4-3.9-5.7-6.1c-1.6-2.2-3-4.6-3.9-7.3
		C1511.2,543.4,1510.7,540.5,1510.6,537.6z M1513.3,537.6c0,2.5,0.4,4.9,1.2,7.3c0.8,2.4,2.1,4.4,3.7,6c1.6,1.5,3.7,2.5,5.6,2.8
		c2,0.4,3.8,0.2,5.6,0.2c0.4,0,0.9-0.1,1.3,0c0.4,0,0.9,0,1.4,0c0.4,0,1,0,1.4,0c0.5,0,1,0,1.5,0c0.5-0.1,1-0.1,1.5-0.2
		s1-0.4,1.5-0.6c0.4-0.4,0.9-0.6,1.3-0.9c0.4-0.5,0.8-0.8,1.2-1.3c1.4-1.8,2.1-4.2,2.4-6.6c0.2-2.4,0.2-4.5,0.2-6.6
		c0-2.1,0-4.4-0.2-6.6c-0.3-2.4-1-4.7-2.4-6.6c-1.3-1.9-3.4-2.9-5.5-3.2c-0.5,0-1-0.1-1.5-0.1s-1,0-1.4,0c-0.4,0.1-1,0.1-1.4,0.1
		s-0.9,0.1-1.3,0c-1.8,0-3.7,0-5.6,0.4c-2,0.4-4,1.2-5.6,2.7s-2.8,3.6-3.6,6C1513.6,532.6,1513.3,535.1,1513.3,537.6z"/>
</g>
<g>
	<path class="st2" d="M1663.3,437.3c-0.8,1.3-1.1,2.8-1.1,4.5c-0.2,1.5,1.3,3.8,0.6,5.2c-0.1,0.4-0.4,0.6-0.6,0.9
		c-0.4,0.4-0.7,0.5-1.2,0.7c-0.8,0.5-1.4,1.1-1.5,1.8c-0.2,0.7,0.1,1.6,0.4,2.6c0.3,0.9,0.5,1.8,0.2,2.5c-0.2,0.7-0.8,1.3-1.5,1.8
		s-1.4,1.1-1.7,1.6c-0.2,0.4-0.3,0.7-0.2,1.2c0,0.5,0.2,0.9,0.5,1.4c0.4,1.1,0.7,1.9,0.4,2.6c-0.4,1.5-2.7,2.1-3.3,3.5
		c-0.8,1.3-1.3,2.7-1.4,4.4l-2.5-1.1c0.8-1.3,1.1-2.8,1.2-4.5c0.3-1.5-1.1-3.8-0.6-5.2c0.1-0.7,0.8-1.3,1.7-1.6
		c0.4-0.2,0.8-0.5,1.1-0.7s0.4-0.6,0.4-1.1c0.2-0.7-0.1-1.6-0.4-2.6s-0.5-1.8-0.2-2.5c0.2-0.7,0.8-1.3,1.5-1.8s1.4-1.1,1.7-1.6
		c0.4-0.6,0.3-1.5-0.2-2.5c-0.2-0.5-0.4-0.9-0.5-1.4c-0.1-0.5-0.1-0.8,0-1.3c0.3-1.5,2.7-2.1,3.3-3.5c0.8-1.3,1.4-2.6,1.5-4.4
		L1663.3,437.3z"/>
</g>
<g>
	<path class="st2" d="M1647.4,498.3c1.2,1.6,2.7,2.8,4.3,3.8c1.6,1.1,4.2,0.5,5.5,2c0.4,0.4,0.6,0.7,0.8,1.3
		c0.2,0.6,0.4,1.2,0.5,1.8c0.3,1.3,0.8,2.2,1.6,2.8c0.7,0.6,1.8,0.7,2.9,0.9c1.1,0.1,2,0.5,2.7,1.2c0.7,0.6,1.2,1.6,1.5,2.8
		c0.4,1.2,0.7,2.4,1.4,3.1c0.4,0.5,0.7,0.6,1.2,0.8c0.4,0.2,1,0.2,1.5,0.2c1.2,0,2.1,0.2,2.8,0.9c1.4,1.3,1.7,4.4,3,5.9
		c1.2,1.6,2.5,3.2,4.1,4.1l-1.6,2.5c-1.2-1.6-2.7-2.8-4.3-3.8c-1.5-1.2-4.1-0.7-5.5-2c-0.8-0.5-1.2-1.6-1.4-3.1
		c-0.2-0.6-0.3-1.3-0.5-1.6c-0.3-0.5-0.5-0.8-1-1.2c-0.7-0.6-1.8-0.7-2.9-0.9c-1.1-0.1-2-0.5-2.7-1.2c-0.7-0.6-1.2-1.6-1.5-2.8
		c-0.4-1.2-0.7-2.4-1.4-3.1c-0.6-0.7-1.5-1.2-2.7-1.2c-0.5-0.1-1.1-0.1-1.6-0.2s-0.9-0.4-1.3-0.6c-1.5-1.2-1.7-4.4-3-5.9
		c-1.2-1.6-2.5-3.2-4.1-4.1L1647.4,498.3z"/>
</g>
<g>
	<path class="st2" d="M1516.4,584.3c-0.6,0.8-0.8,1.9-0.8,2.9c-0.1,1.1,1.5,2.8,1.1,3.8c-0.1,0.5-0.8,0.7-1.6,0.9
		c-0.2,0.1-0.4,0.1-0.5,0.2c-0.2,0.1-0.3,0.1-0.4,0.2c-0.3,0.2-0.4,0.5-0.4,0.6c-0.2,1.1,1.4,2.8,1.1,3.8c-0.2,1.1-2.4,1.2-2.9,2.1
		c-0.1,0.2-0.2,0.5-0.1,0.8s0.3,0.6,0.5,1.1c0.5,0.7,0.8,1.4,0.6,1.9c-0.3,0.9-2.3,1.2-2.9,2.1c-0.6,0.8-1.1,1.6-1.1,2.8l-2.5-1.1
		c0.6-0.8,0.8-1.9,0.8-2.9c0.1-1.1-1.3-2.7-1.1-3.8c0.1-0.5,0.7-0.8,1.5-1.1c0.4-0.1,0.7-0.2,1-0.5c0.3-0.2,0.4-0.5,0.4-0.6
		c0.2-1.1-1.4-2.8-1.1-3.8c0.2-1.1,2.4-1.2,2.9-2.1c0.1-0.2,0.2-0.5,0.1-0.7c0-0.1-0.1-0.4-0.2-0.5s-0.2-0.4-0.3-0.5
		c-0.4-0.7-0.8-1.4-0.6-1.9c0.2-1.1,2.3-1.2,2.9-2.1c0.6-0.8,1.1-1.6,1.1-2.8L1516.4,584.3z"/>
</g>
<g>
	<path class="st2" d="M1620.5,550.3c0.2,3.4,0.5,6.5,0.9,9.7c0.2,1.5,0.4,3.1,0.6,4.6c0.3,1.5,0.5,3.1,0.9,4.5
		c0.8,2.8,2,5.9,2.4,9.2c0.3,1.6,0.4,3.4,0.3,5.2c-0.1,1.8-0.3,3.4-0.6,5.2l-0.8,5.8l-2.5-3.3c-2.2-2.7-4.8-4.5-7.8-5.7
		c-1.5-0.5-3-1.1-4.6-1.5c-1.5-0.5-2.9-1.3-4.2-2.2c-1.3-0.9-2.6-2-3.8-3.3c-1.2-1.3-2.2-2.6-3.4-3.8c-1.2-1.3-2.4-2.4-3.8-3.2
		c-1.3-0.8-2.9-1.4-4.4-1.9l-3.7-0.9l3.8-3.9c1.1-1.2,2.2-2.4,3.5-3.3c1.2-0.9,2.6-1.6,3.9-2.2c2.8-1.2,5.5-1.5,8-2.1
		c1.2-0.4,2.5-0.7,3.7-1.4c1.2-0.6,2.5-1.1,3.7-1.6C1615.5,553.1,1618,551.8,1620.5,550.3z M1619.3,553.1c-2.2,1.1-4.5,2.5-6.9,3.9
		c-1.2,0.7-2.3,1.5-3.5,2.4c-1.2,0.7-2.3,1.5-3.5,2.6c-2.3,1.9-4.3,4.2-6.4,5.7c-1.1,0.7-2,1.4-3.2,1.6c-1.2,0.2-2.4,0.6-3.7,0.6
		l0.2-4.8c1.1,1.4,2.2,2.6,3.6,3.5s2.7,1.6,4.2,2.2c1.5,0.5,3,1.1,4.6,1.5c1.5,0.5,2.9,1.3,4.2,2.2c1.3,0.9,2.6,2,3.8,3.3
		c1.2,1.3,2.2,2.6,3.4,3.8c2.3,2.4,5,4.2,8.1,5.1l-3.4,2.6c-0.5-1.4-1.1-2.7-1.4-4.1c-0.4-1.4-0.5-2.7-0.5-4.1c-0.1-2.8,0.6-6,1-9.3
		c0.2-1.6,0.2-3.3,0.2-4.8c0-1.5,0-3.2-0.1-4.7C1619.8,558.9,1619.6,555.8,1619.3,553.1z"/>
</g>
<g>
	<path class="st2" d="M1698.7,465.5c2.9,1.9,5.6,3.3,8.3,4.8c2.8,1.4,5.5,2.9,8.3,3.6c1.4,0.5,2.9,0.7,4.4,1.3
		c1.5,0.5,3,1.2,4.6,2.1c1.5,0.8,3,2,4.2,3.3c1.3,1.3,2.5,2.6,3.8,3.8l2.8,2.5l-2.6,1.2c-2.9,1.3-5.3,3.5-7.4,6
		c-1.1,1.3-2.1,2.6-3.2,3.9c-1.1,1.3-2.3,2.4-3.6,3.3c-1.2,0.9-2.6,1.8-4,2.5s-2.9,1.3-4.4,1.9c-2.9,1.3-5.5,2.8-7.8,5.5l-2,2.4
		l-0.9-4.1c-0.4-1.8-1-3.6-1.4-5.7c-0.5-1.9-0.6-3.9-0.6-5.9c0-1.9,0.1-3.9,0.3-5.7c0.3-1.8,0.6-3.5,0.8-5.3
		c0.5-3.4,0.5-6.9,0.6-10.4C1698.9,473,1698.9,469.4,1698.7,465.5z M1700.1,468.1c0.1,3.2,0.3,6.7,0.6,10.2
		c0.4,3.5,0.6,7.1,1.5,10.7c0.4,1.8,0.8,3.6,1.3,5.3c0.4,1.6,0.6,3.4,0.8,4.9c0.2,1.5,0.1,3.2-0.3,4.7c-0.3,1.5-0.7,3.3-1,4.9
		l-2.9-1.8c2.9-1.3,5.3-3.4,7.5-6c1.1-1.3,2.1-2.6,3.2-3.9c1.1-1.3,2.3-2.4,3.6-3.3c1.2-0.9,2.6-1.8,4-2.5c1.4-0.6,2.9-1.3,4.4-1.9
		c2.9-1.3,5.5-2.9,7.8-5.4l0.2,3.8c-1.4-0.5-2.9-0.7-4.2-1.1c-1.3-0.4-2.6-0.8-3.8-1.6c-1.2-0.7-2.3-1.6-3.5-2.8
		c-1.2-1.2-2.3-2.4-3.6-3.5c-2.5-2.5-5.1-4.2-7.7-6.1C1705.1,471.3,1702.5,469.7,1700.1,468.1z"/>
</g>
<g>
	<path class="st2" d="M1598.5,485.9c0-2.2,0.4-4.5,1.1-6.4c0.7-2,1.7-3.9,2.9-5.7c1.2-1.6,2.6-3.5,4.3-5.1c1.7-1.5,3.8-2.6,6-2.5
		c0.5,0,1.1,0.1,1.6,0.2c0.5,0.1,1.1,0.4,1.5,0.5c0.5,0.2,1,0.5,1.4,0.9c0.4,0.4,0.9,0.7,1.3,1.2c1.6,1.6,3,3.2,4.4,4.6
		s3,3.1,4.2,5.1c1.3,2,2.2,4.5,2.2,7.1c0,2.5-0.8,5.2-2.1,7.1c-1.3,2-2.8,3.5-4.2,5.1c-0.4,0.4-0.7,0.7-1.1,1.2
		c-0.4,0.4-0.7,0.7-1.1,1.2c-0.4,0.5-0.7,0.8-1.1,1.3c-0.4,0.5-0.7,0.8-1.2,1.3c-0.4,0.5-0.8,0.7-1.3,1.2c-0.4,0.4-1,0.6-1.4,0.8
		c-0.5,0.2-1.1,0.5-1.6,0.6c-0.5,0.1-1.1,0.1-1.6,0.1c-2.1,0-4.3-1.1-6-2.5s-3-3.3-4.3-4.9c-1.3-1.8-2.2-3.5-3-5.7
		C1599,490.4,1598.6,488.1,1598.5,485.9z M1601.2,485.9c0,1.8,0.3,3.5,0.8,5.4c0.5,1.6,1.5,3.3,2.7,4.4c1.2,1.2,2.8,1.6,4.2,1.6
		s2.8-0.2,4-0.2c1.2-0.1,2.5,0.2,4,0.4c0.4,0,0.8,0,1.2,0c0.4-0.1,0.7-0.2,1.2-0.4c0.4-0.2,0.7-0.5,1-0.6c0.3-0.4,0.5-0.6,0.8-0.9
		c1-1.4,1.4-3.3,1.4-4.9c0-1.8-0.2-3.3-0.1-4.7c0-1.4,0.1-2.9,0.1-4.7c0-1.6-0.5-3.5-1.4-4.9s-2.5-2.1-4.1-2c-0.4,0-0.7,0-1.2,0.1
		c-0.4,0.1-0.7,0.1-1.1,0.2c-0.4,0.1-0.6,0.1-1,0.1c-0.4,0.1-0.6,0.1-1,0c-1.3,0-2.5-0.1-4-0.1c-1.4,0-3,0.6-4.2,1.6
		c-1.2,1.2-2.1,2.6-2.8,4.4C1601.5,482.3,1601.2,484.1,1601.2,485.9z"/>
</g>
<g>
	<path class="st2" d="M958.8,638.9c1,1.1,2.2,1.5,3.7,1.9c1.3,0.4,3.3-1.1,4.5-0.2c0.3,0.2,0.5,0.5,0.8,0.8c0.3,0.4,0.4,0.9,0.6,1.4
		c0.4,1.1,0.7,1.6,1.4,1.9c0.6,0.2,1.4,0.1,2.2-0.2c0.8-0.4,1.6-0.4,2.1,0c0.5,0.5,1.1,1.1,1.5,2c0.4,0.9,0.7,1.8,1.4,2.2
		c0.3,0.2,0.5,0.5,0.9,0.4c0.4,0,0.8-0.2,1.2-0.4c0.9-0.5,1.7-0.6,2.2-0.2c1.2,0.6,1.5,3.3,2.6,4.1c1.1,1.1,2.2,1.9,3.5,2l-1.1,2.8
		c-1.1-1.1-2.2-1.5-3.7-1.9c-1.3-0.4-3.2,0.9-4.5,0.2c-0.6-0.2-1-1.1-1.4-2.2c-0.1-0.5-0.4-1.1-0.6-1.4c-0.2-0.5-0.4-0.6-0.8-0.6
		c-0.6-0.2-1.4,0-2.2,0.2c-0.8,0.4-1.6,0.4-2.1,0c-0.5-0.5-1.1-1.1-1.5-2s-0.7-1.8-1.4-2.2c-0.5-0.5-1.3-0.4-2.1,0
		c-0.4,0.1-0.9,0.4-1.2,0.5c-0.4,0-0.7,0.1-1-0.1c-1.3-0.5-1.5-3.3-2.6-4.1c-1.1-1.1-2.2-1.9-3.5-2L958.8,638.9z"/>
</g>
<g>
	<path class="st2" d="M1031.1,579.5c-3-1.5-5.8-2.7-8.6-4c-2.9-1.1-5.7-2.4-8.5-2.8c-1.4-0.4-2.9-0.4-4.5-0.8
		c-1.5-0.4-3.1-0.8-4.7-1.6c-1.6-0.7-3.1-1.6-4.4-2.8c-1.4-1.2-2.7-2.4-4.1-3.4l-3-2.1l2.5-1.4c2.8-1.6,5-4.1,6.9-6.7
		c1-1.4,1.9-2.8,2.9-4.2s2.1-2.6,3.3-3.6s2.5-2,3.8-2.8c1.4-0.7,2.8-1.6,4.2-2.4c2.8-1.6,5.3-3.4,7.4-6.4l1.8-2.6l1.2,4
		c0.5,1.8,1.3,3.5,1.8,5.5c0.6,1.8,0.9,3.8,1,5.8c0.1,1.9,0.2,3.9,0.1,5.7c-0.2,1.8-0.3,3.5-0.4,5.4c-0.2,3.4,0,6.9,0.2,10.4
		C1030.2,572.3,1030.5,575.7,1031.1,579.5z M1029.4,577.1c-0.3-3.2-0.8-6.7-1.4-10.1c-0.7-3.5-1.1-6.9-2.3-10.5
		c-0.5-1.8-1.1-3.5-1.7-5.2c-0.5-1.6-0.9-3.3-1.2-4.8c-0.3-1.5-0.3-3.2-0.1-4.7s0.5-3.4,0.6-5.1l3,1.4c-2.8,1.6-5,4-7,6.7
		c-1,1.4-1.9,2.8-2.9,4.2s-2.1,2.6-3.3,3.6c-1.1,1.1-2.5,2-3.8,2.8c-1.4,0.7-2.8,1.6-4.2,2.4c-2.8,1.6-5.3,3.5-7.4,6.2l-0.5-3.8
		c1.4,0.4,2.9,0.4,4.3,0.6c1.3,0.2,2.7,0.6,3.9,1.3c1.2,0.6,2.4,1.4,3.7,2.5s2.5,2.1,3.8,3.2c2.7,2.2,5.4,3.6,8.1,5.3
		C1024.1,574.5,1026.8,576.1,1029.4,577.1z"/>
</g>
<g>
	<path class="st2" d="M1022.4,613.9c0.2,2.8-0.1,5.8-0.9,8.5c-0.8,2.7-1.8,5.4-3.2,7.8c-1.4,2.4-3.1,4.7-5.1,6.7
		c-2.1,2-4.7,3.3-7.5,3.6c-0.7,0.1-1.3,0-2.1,0c-0.7-0.1-1.3-0.4-2-0.4c-0.6-0.2-1.3-0.5-2-0.8c-0.6-0.4-1.3-0.7-1.8-1.1
		c-2.2-1.6-4.2-3.4-6.2-5.2c-1.9-1.8-4-3.8-5.7-6.1s-2.9-5.5-3.1-8.8c-0.2-3.3,0.4-6.5,1.7-9.3c1.3-2.7,3-5.1,4.7-7.2
		c0.4-0.5,0.8-1.1,1.2-1.6c0.4-0.5,0.8-1.1,1.3-1.6c0.4-0.5,0.9-1.1,1.3-1.6c0.5-0.5,0.9-1.1,1.4-1.6c0.5-0.5,1-1.1,1.6-1.4
		c0.6-0.5,1.1-0.8,1.8-1.3c0.6-0.4,1.3-0.6,1.9-0.8c0.7-0.2,1.3-0.2,2.1-0.5c2.8-0.2,5.5,0.6,7.9,2.1s4.3,3.4,6.1,5.5
		s3.3,4.2,4.4,6.8C1021.4,608.1,1022.1,611,1022.4,613.9z M1019.7,614.1c-0.2-2.5-0.8-4.8-1.7-7.2c-0.9-2.4-2.4-4.1-4.1-5.7
		c-1.7-1.4-3.9-2.1-5.8-2.2c-2-0.1-3.8,0.1-5.6,0.4c-0.4,0-0.9,0.2-1.3,0.1c-0.4,0-0.9,0.1-1.4,0.1c-0.4,0-1,0.1-1.4,0.1
		c-0.5,0-1,0.1-1.5,0.1c-0.5,0.1-1,0.2-1.5,0.4c-0.5,0.1-1,0.5-1.5,0.7c-0.4,0.4-0.9,0.7-1.2,1.1c-0.4,0.5-0.7,0.9-1.1,1.4
		c-1.3,1.9-1.8,4.5-1.9,6.8c0,2.4,0.1,4.5,0.3,6.6s0.3,4.4,0.7,6.6c0.5,2.4,1.3,4.6,2.9,6.4c1.4,1.8,3.6,2.6,5.7,2.6
		c0.5,0,1,0,1.5,0s1-0.1,1.4-0.1c0.4-0.1,1-0.2,1.4-0.2s0.9-0.2,1.3-0.1c1.8-0.2,3.7-0.4,5.6-0.9c2-0.6,3.9-1.5,5.4-3.3
		c1.5-1.6,2.5-3.9,3.1-6.4C1019.8,619,1019.9,616.7,1019.7,614.1z"/>
</g>
<g>
	<path class="st2" d="M1462.2,556.7c-0.8,1.3-1.1,2.8-1.1,4.5c-0.2,1.5,1.3,3.8,0.6,5.2c-0.1,0.4-0.4,0.6-0.6,0.9
		c-0.4,0.4-0.7,0.5-1.2,0.7c-0.8,0.5-1.4,1.1-1.5,1.8c-0.2,0.7,0.1,1.6,0.4,2.6c0.3,0.9,0.5,1.8,0.2,2.5c-0.2,0.7-0.8,1.3-1.5,1.8
		c-0.7,0.5-1.4,1.1-1.7,1.6c-0.2,0.4-0.3,0.7-0.2,1.2c0,0.5,0.2,0.9,0.5,1.4c0.4,1.1,0.7,1.9,0.4,2.6c-0.4,1.5-2.7,2.1-3.3,3.5
		c-0.8,1.3-1.3,2.7-1.4,4.4l-2.5-1.1c0.8-1.3,1.1-2.8,1.2-4.5c0.3-1.5-1.1-3.8-0.6-5.2c0.1-0.7,0.8-1.3,1.7-1.6
		c0.4-0.2,0.8-0.5,1.1-0.7c0.3-0.4,0.4-0.6,0.4-1.1c0.2-0.7-0.1-1.6-0.4-2.6c-0.3-0.9-0.5-1.8-0.2-2.5c0.2-0.7,0.8-1.3,1.5-1.8
		c0.7-0.5,1.4-1.1,1.7-1.6c0.4-0.6,0.3-1.5-0.2-2.5c-0.2-0.5-0.4-0.9-0.5-1.4s-0.1-0.8,0-1.3c0.3-1.5,2.7-2.1,3.3-3.5
		c0.8-1.3,1.4-2.6,1.5-4.4L1462.2,556.7z"/>
</g>
<g>
	<path class="st2" d="M1435.2,481.4c-0.8,1.3-1.1,2.8-1.1,4.5c-0.2,1.5,1.3,3.8,0.6,5.2c-0.1,0.4-0.4,0.6-0.6,0.9
		c-0.4,0.4-0.7,0.5-1.2,0.7c-0.8,0.5-1.4,1.1-1.5,1.8c-0.2,0.7,0.1,1.6,0.4,2.6c0.3,0.9,0.5,1.8,0.2,2.5c-0.2,0.7-0.8,1.3-1.5,1.8
		c-0.7,0.5-1.4,1.1-1.7,1.6c-0.2,0.4-0.3,0.7-0.2,1.2c0,0.5,0.2,0.9,0.5,1.4c0.4,1.1,0.7,1.9,0.4,2.6c-0.4,1.5-2.7,2.1-3.3,3.5
		c-0.8,1.3-1.3,2.7-1.4,4.4l-2.5-1.1c0.8-1.3,1.1-2.8,1.2-4.5c0.3-1.5-1.1-3.8-0.6-5.2c0.1-0.7,0.8-1.3,1.7-1.6
		c0.4-0.2,0.8-0.5,1.1-0.7c0.3-0.2,0.4-0.6,0.4-1.1c0.2-0.7-0.1-1.6-0.4-2.6c-0.3-0.9-0.5-1.8-0.2-2.5c0.2-0.7,0.8-1.3,1.5-1.8
		c0.7-0.5,1.4-1.1,1.7-1.6c0.4-0.6,0.3-1.5-0.2-2.5c-0.2-0.5-0.4-0.9-0.5-1.4c-0.1-0.5-0.1-0.8,0-1.3c0.3-1.5,2.7-2.1,3.3-3.5
		c0.8-1.3,1.4-2.6,1.5-4.4L1435.2,481.4z"/>
</g>
<g>
	<path class="st2" d="M1517.2,495.6c-0.4-1.5-1.3-2.7-2.2-3.8c-0.9-1.2-3.3-1.2-3.8-2.5c-0.2-0.4-0.3-0.7-0.3-1.2
		c0-0.5,0.1-0.9,0.2-1.5c0.2-1.1,0.2-1.9-0.4-2.5c-0.4-0.6-1.3-0.9-2.1-1.3c-0.8-0.4-1.5-0.7-1.9-1.4s-0.4-1.5-0.3-2.5
		s0.2-2-0.1-2.6c-0.2-0.4-0.4-0.6-0.6-0.8c-0.3-0.2-0.7-0.4-1.2-0.5c-0.9-0.2-1.7-0.5-2-1.3c-0.7-1.3,0.2-3.8-0.4-5.3
		c-0.5-1.4-1-2.9-2-4l2.2-1.6c0.4,1.5,1.3,2.7,2.2,3.8c0.9,1.2,3.2,1.3,3.8,2.5c0.4,0.6,0.4,1.5,0.1,2.6c-0.1,0.5-0.2,1.1-0.2,1.5
		s0.2,0.7,0.4,1.1c0.4,0.6,1.3,0.9,2.1,1.3c0.8,0.4,1.5,0.7,1.9,1.4c0.4,0.6,0.4,1.5,0.3,2.5c-0.1,0.9-0.2,2,0.1,2.6
		c0.3,0.7,0.9,1.2,1.8,1.4c0.4,0.1,0.9,0.2,1.3,0.5c0.4,0.2,0.6,0.5,0.8,0.7c0.8,1.2-0.2,3.8,0.4,5.3c0.5,1.4,1,2.9,2,4
		L1517.2,495.6z"/>
</g>
<g>
	<path class="st2" d="M1394,526c1.5,1.3,3.2,1.9,5,2.5c1.8,0.5,4.1-0.8,5.8,0.2c0.4,0.1,0.8,0.6,1,0.9c0.3,0.5,0.6,1.1,0.9,1.5
		c0.6,1.2,1.2,1.9,2.2,2.2c0.9,0.4,1.9,0.2,3,0c1.1-0.1,2-0.1,2.8,0.4c0.9,0.4,1.5,1.3,2.1,2.2c0.6,1.1,1.2,2,2,2.6
		c0.4,0.4,0.9,0.4,1.3,0.5s1-0.1,1.6-0.2c1.2-0.4,2.2-0.5,2.9,0.1c1.7,0.8,2.6,3.8,4.1,4.8c1.5,1.3,3.2,2.2,4.8,2.7l-1.1,2.8
		c-1.5-1.3-3.2-1.9-5-2.5c-1.7-0.6-4.1,0.5-5.8-0.2c-0.9-0.2-1.5-1.3-2-2.6c-0.3-0.5-0.6-1.2-0.8-1.5c-0.4-0.5-0.7-0.7-1.2-0.8
		c-0.9-0.4-1.9-0.2-3,0c-1.1,0.1-2,0.1-2.8-0.4c-0.9-0.4-1.5-1.3-2.1-2.2c-0.6-1.1-1.2-2-2-2.6s-1.7-0.6-2.8-0.4
		c-0.5,0-1.1,0.1-1.6,0.4c-0.5,0-0.9,0-1.3-0.2c-1.7-0.6-2.6-3.6-4.1-4.8c-1.5-1.3-3.2-2.2-4.8-2.7L1394,526z"/>
</g>
<g>
	<path class="st2" d="M1420.4,583.7c0.2,3.4,0.5,6.5,0.9,9.7c0.2,1.5,0.4,3.1,0.6,4.6c0.3,1.5,0.5,3.1,0.9,4.5
		c0.8,2.8,2,5.9,2.4,9.2c0.3,1.6,0.4,3.4,0.3,5.2c-0.1,1.8-0.3,3.4-0.6,5.2l-0.8,5.8l-2.5-3.3c-2.2-2.7-4.8-4.5-7.8-5.7
		c-1.5-0.5-3-1.1-4.6-1.5c-1.5-0.5-2.9-1.3-4.2-2.2c-1.3-0.9-2.6-2-3.8-3.3c-1.2-1.3-2.2-2.6-3.4-3.8c-1.2-1.3-2.4-2.4-3.8-3.2
		c-1.3-0.8-2.9-1.4-4.4-1.9l-3.7-0.9l3.8-3.9c1.1-1.2,2.2-2.4,3.5-3.3c1.2-0.9,2.6-1.6,3.9-2.2c2.8-1.2,5.5-1.5,8-2.1
		c1.2-0.4,2.5-0.7,3.7-1.4c1.2-0.6,2.5-1.1,3.7-1.6C1415.4,586.4,1417.8,585.1,1420.4,583.7z M1419.1,586.3
		c-2.2,1.1-4.5,2.5-6.9,3.9c-1.2,0.7-2.3,1.5-3.5,2.4c-1.2,0.7-2.3,1.5-3.5,2.6c-2.3,1.9-4.3,4.2-6.4,5.7c-1.1,0.7-2,1.4-3.2,1.6
		c-1.2,0.4-2.4,0.6-3.7,0.6l0.2-4.8c1.1,1.4,2.2,2.6,3.6,3.5s2.7,1.6,4.2,2.2c1.5,0.5,3,1.1,4.6,1.5c1.5,0.5,2.9,1.3,4.2,2.2
		c1.3,0.9,2.6,2,3.8,3.3c1.2,1.3,2.2,2.6,3.4,3.8c2.3,2.4,5,4.2,8.1,5.1l-3.4,2.6c-0.5-1.4-1.1-2.7-1.4-4.1
		c-0.4-1.4-0.5-2.7-0.5-4.1c-0.1-2.8,0.6-6,1-9.3c0.2-1.6,0.2-3.3,0.2-4.8c0-1.5,0-3.2-0.1-4.7
		C1419.6,592.2,1419.4,589.1,1419.1,586.3z"/>
</g>
<g>
	<path class="st2" d="M1458.1,481.1c2.9,1.9,5.6,3.3,8.3,4.8c2.8,1.4,5.5,2.9,8.3,3.6c1.4,0.5,2.9,0.7,4.4,1.3
		c1.5,0.5,3,1.2,4.6,2.1c1.5,0.8,3,2,4.2,3.3c1.3,1.3,2.5,2.6,3.8,3.8l2.8,2.5l-2.6,1.2c-2.9,1.3-5.3,3.5-7.4,6
		c-1.1,1.3-2.1,2.6-3.2,3.9c-1.1,1.3-2.3,2.4-3.6,3.3c-1.2,0.9-2.6,1.8-4,2.5c-1.4,0.6-2.9,1.3-4.4,1.9c-2.9,1.3-5.5,2.8-7.8,5.5
		l-2,2.4l-0.9-4.1c-0.4-1.8-1-3.6-1.4-5.7c-0.5-1.9-0.6-3.9-0.6-5.9c0-1.9,0.1-3.9,0.3-5.7c0.3-1.8,0.6-3.5,0.8-5.3
		c0.5-3.4,0.5-6.9,0.6-10.4C1458.3,488.4,1458.3,484.8,1458.1,481.1z M1459.6,483.7c0.1,3.2,0.3,6.7,0.6,10.2
		c0.4,3.5,0.6,7.1,1.5,10.7c0.4,1.8,0.8,3.6,1.3,5.3c0.4,1.6,0.6,3.4,0.8,4.9c0.2,1.5,0.1,3.2-0.3,4.7c-0.3,1.5-0.7,3.3-1,4.9
		l-2.9-1.8c2.9-1.3,5.3-3.4,7.5-6c1.1-1.3,2.1-2.6,3.2-3.9c1.1-1.3,2.3-2.4,3.6-3.3c1.2-0.9,2.6-1.8,4-2.5c1.4-0.6,2.9-1.3,4.4-1.9
		c2.9-1.3,5.5-2.9,7.8-5.4l0.2,3.8c-1.4-0.5-2.9-0.7-4.2-1.1s-2.6-0.8-3.8-1.6c-1.2-0.7-2.3-1.6-3.5-2.8c-1.2-1.2-2.3-2.4-3.6-3.5
		c-2.5-2.5-5.1-4.2-7.7-6.1C1464.6,486.7,1462,485,1459.6,483.7z"/>
</g>
<g>
	<path class="st2" d="M1744.9,578.7c1.2-0.7,1.9-2,2.6-3.5c0.7-1.4,0.2-4,1.2-5.1c0.3-0.2,0.5-0.5,0.9-0.6c0.4-0.1,0.8-0.1,1.3-0.2
		c0.9-0.1,1.6-0.2,2-1.1c0.4-0.6,0.5-1.5,0.5-2.5c0-0.9,0.2-1.9,0.7-2.4s1.2-0.8,2-1.1c0.8-0.1,1.7-0.2,2.2-0.8
		c0.3-0.2,0.5-0.5,0.6-0.9s0.1-0.9,0.1-1.4c-0.1-1.1,0-2,0.5-2.5c0.9-1.2,3.1-0.7,4.1-1.6c1.2-0.8,2.2-1.8,2.7-3.3l1.9,2.1
		c-1.2,0.8-1.9,2-2.6,3.5c-0.7,1.4-0.3,3.9-1.2,5.1c-0.4,0.6-1.2,0.7-2.2,0.8c-0.4,0-0.9,0.1-1.3,0.2c-0.4,0.1-0.6,0.4-0.8,0.7
		c-0.4,0.6-0.4,1.5-0.5,2.5c0,0.9-0.2,1.9-0.7,2.4s-1.2,0.8-2,1.1c-0.8,0.1-1.7,0.2-2.2,0.8c-0.5,0.5-0.7,1.4-0.7,2.4
		c0,0.5,0,1.1,0,1.4c-0.1,0.5-0.2,0.8-0.4,1.1c-0.8,1.4-3.1,0.7-4.1,1.6c-1.2,0.8-2.2,1.8-2.7,3.3L1744.9,578.7z"/>
</g>
<g>
	<path class="st2" d="M1884.5,492.5c0-2.1,0.3-4.2,1.1-6.1c0.7-1.9,1.6-3.6,2.8-5.4c1.2-1.5,2.4-3.4,4-4.8c1.6-1.5,3.7-2.5,5.7-2.5
		c0.5,0,1.1,0.1,1.5,0.2c0.5,0.1,1,0.4,1.5,0.5c0.4,0.2,0.9,0.5,1.3,0.8c0.4,0.4,0.8,0.7,1.3,1.1c1.5,1.5,2.8,3.1,4.1,4.5
		c1.3,1.4,2.8,2.8,4,4.7s2.1,4.4,2.1,6.7c0,2.5-0.8,4.8-2,6.7c-1.2,1.9-2.7,3.4-4,4.7c-0.4,0.4-0.7,0.7-1,1.1
		c-0.4,0.4-0.6,0.7-1,1.2c-0.4,0.4-0.7,0.7-1,1.2c-0.4,0.5-0.7,0.8-1.1,1.3c-0.4,0.4-0.8,0.7-1.2,1.2c-0.4,0.4-0.9,0.6-1.3,0.8
		s-1,0.5-1.5,0.6c-0.5,0.1-1.1,0.1-1.5,0.1c-2.1,0-4.1-1.1-5.7-2.4c-1.6-1.4-2.9-3.2-4-4.7c-1.2-1.6-2.1-3.4-2.8-5.3
		C1884.8,496.7,1884.5,494.6,1884.5,492.5z M1887.1,492.5c0,1.6,0.3,3.4,0.7,4.9c0.5,1.5,1.4,3.1,2.6,4c1.1,1.1,2.6,1.5,3.9,1.5
		s2.6-0.2,3.7-0.2c1.2-0.1,2.3,0.2,3.8,0.4c0.4,0,0.7,0,1.1,0s0.7-0.2,1.1-0.4c0.4-0.2,0.6-0.4,1-0.6c0.3-0.2,0.5-0.5,0.8-0.8
		c1-1.3,1.3-3.1,1.2-4.6c0-1.6-0.2-3.1-0.2-4.4c0-1.4,0.2-2.7,0.2-4.4c0-1.5-0.4-3.4-1.3-4.6c-0.9-1.2-2.4-1.9-3.8-1.8
		c-0.4,0-0.7,0.1-1.1,0.1c-0.4,0.1-0.6,0.1-1,0.2c-0.4,0.1-0.6,0.1-0.9,0.1c-0.3,0.1-0.6,0.1-0.9,0c-1.2,0-2.3-0.1-3.7-0.2
		c-1.3,0-2.9,0.5-4,1.5c-1.2,1.1-2,2.5-2.6,4C1887.3,489.2,1887,490.9,1887.1,492.5z"/>
</g>
<g>
	<path class="st2" d="M1863.4,502.3c-0.8,1.3-1.1,2.8-1.1,4.5c-0.2,1.5,1.3,3.8,0.6,5.2c-0.1,0.4-0.4,0.6-0.6,0.9
		c-0.4,0.4-0.7,0.5-1.2,0.7c-0.8,0.5-1.4,1.1-1.5,1.8c-0.2,0.7,0.1,1.6,0.4,2.6c0.3,0.9,0.5,1.8,0.2,2.5c-0.2,0.7-0.8,1.3-1.5,1.8
		c-0.7,0.5-1.4,1.1-1.7,1.6c-0.2,0.4-0.3,0.7-0.2,1.2c0,0.5,0.2,0.9,0.5,1.4c0.4,1.1,0.7,1.9,0.4,2.6c-0.4,1.5-2.7,2.1-3.3,3.5
		c-0.8,1.3-1.3,2.7-1.4,4.4l-2.5-1.1c0.8-1.3,1.1-2.8,1.2-4.5c0.3-1.5-1.1-3.8-0.6-5.2c0.1-0.7,0.8-1.3,1.7-1.6
		c0.4-0.2,0.8-0.5,1.1-0.7c0.3-0.4,0.4-0.6,0.4-1.1c0.2-0.7-0.1-1.6-0.4-2.6c-0.3-0.9-0.5-1.8-0.2-2.5c0.2-0.7,0.8-1.3,1.5-1.8
		c0.7-0.5,1.4-1.1,1.7-1.6c0.4-0.6,0.3-1.5-0.2-2.5c-0.2-0.5-0.4-0.9-0.5-1.4s-0.1-0.8,0-1.3c0.3-1.5,2.7-2.1,3.3-3.5
		c0.8-1.3,1.4-2.6,1.5-4.4L1863.4,502.3z"/>
</g>
<g>
	<path class="st2" d="M1847.6,563.4c1.2,1.6,2.7,2.8,4.3,3.8c1.6,1.1,4.2,0.5,5.5,2c0.4,0.4,0.6,0.7,0.8,1.3s0.4,1.2,0.5,1.8
		c0.3,1.3,0.8,2.2,1.6,2.8c0.7,0.6,1.8,0.7,2.9,0.9c1.1,0.1,2,0.5,2.7,1.2c0.7,0.6,1.2,1.6,1.5,2.8c0.4,1.2,0.7,2.4,1.4,3.1
		c0.4,0.5,0.7,0.6,1.2,0.8c0.4,0.2,1,0.2,1.5,0.2c1.2,0,2.1,0.2,2.8,0.9c1.4,1.3,1.7,4.4,3,5.9c1.2,1.6,2.5,3.2,4.1,4.1l-1.6,2.5
		c-1.2-1.6-2.7-2.8-4.3-3.8c-1.5-1.2-4.1-0.7-5.5-2c-0.8-0.5-1.2-1.6-1.4-3.1c-0.2-0.6-0.3-1.3-0.5-1.6c-0.3-0.5-0.5-0.8-1-1.2
		c-0.7-0.6-1.8-0.7-2.9-0.9c-1.1-0.1-2-0.5-2.7-1.2c-0.7-0.6-1.2-1.6-1.5-2.8c-0.4-1.2-0.7-2.4-1.4-3.1c-0.6-0.7-1.5-1.2-2.7-1.2
		c-0.5-0.1-1.1-0.1-1.6-0.2c-0.5-0.1-0.9-0.4-1.3-0.6c-1.5-1.2-1.7-4.4-3-5.9c-1.2-1.6-2.5-3.2-4.1-4.1L1847.6,563.4z"/>
</g>
<g>
	<path class="st2" d="M1886.3,527.6c2.9,1.9,5.6,3.3,8.3,4.8c2.8,1.4,5.5,2.9,8.3,3.6c1.4,0.5,2.9,0.7,4.4,1.3
		c1.5,0.5,3,1.2,4.6,2.1c1.5,0.8,3,2,4.2,3.3c1.3,1.3,2.5,2.6,3.8,3.8l2.8,2.5l-2.6,1.2c-2.9,1.3-5.3,3.5-7.4,6
		c-1.1,1.3-2.1,2.6-3.2,3.9s-2.3,2.4-3.6,3.3c-1.2,0.9-2.6,1.8-4,2.5c-1.4,0.6-2.9,1.3-4.4,1.9c-2.9,1.3-5.5,2.8-7.8,5.5l-2,2.4
		l-0.9-4.1c-0.4-1.8-1-3.6-1.4-5.7c-0.5-1.9-0.6-3.9-0.6-5.9c0-1.9,0.1-3.9,0.3-5.7c0.3-1.8,0.6-3.5,0.8-5.3
		c0.5-3.4,0.5-6.9,0.6-10.4C1886.5,534.9,1886.5,531.5,1886.3,527.6z M1887.8,530.2c0.1,3.2,0.3,6.7,0.6,10.2
		c0.4,3.5,0.6,7.1,1.5,10.7c0.4,1.8,0.8,3.6,1.3,5.3c0.4,1.6,0.6,3.4,0.8,4.9c0.2,1.5,0.1,3.2-0.3,4.7c-0.3,1.5-0.7,3.3-1,4.9
		l-2.9-1.8c2.9-1.3,5.3-3.4,7.5-6c1.1-1.3,2.1-2.6,3.2-3.9s2.3-2.4,3.6-3.3c1.2-0.9,2.6-1.8,4-2.5c1.4-0.6,2.9-1.3,4.4-1.9
		c2.9-1.3,5.5-2.9,7.8-5.4l0.2,3.8c-1.4-0.5-2.9-0.7-4.2-1.1s-2.6-0.8-3.8-1.6c-1.2-0.7-2.3-1.6-3.5-2.8c-1.2-1.2-2.3-2.4-3.6-3.5
		c-2.5-2.5-5.1-4.2-7.7-6.1C1892.8,533.3,1890.2,531.6,1887.8,530.2z"/>
</g>
<g>
	<path class="st2" d="M1798.7,551c0-2.2,0.4-4.5,1.1-6.4c0.7-2,1.7-3.9,2.9-5.7c1.2-1.6,2.6-3.5,4.3-5.1c1.7-1.5,3.8-2.6,6-2.5
		c0.5,0,1.1,0.1,1.6,0.2s1.1,0.4,1.5,0.5c0.5,0.2,1,0.5,1.4,0.9c0.4,0.4,0.9,0.7,1.3,1.2c1.6,1.6,3,3.2,4.4,4.6s3,3.1,4.2,5.1
		c1.3,2,2.2,4.5,2.2,7.1c0,2.5-0.8,5.2-2.1,7.1c-1.3,2-2.8,3.5-4.2,5.1c-0.4,0.4-0.7,0.7-1.1,1.2c-0.4,0.4-0.7,0.7-1.1,1.2
		s-0.7,0.8-1.1,1.3s-0.7,0.8-1.2,1.3c-0.4,0.5-0.8,0.7-1.3,1.2c-0.4,0.4-1,0.6-1.4,0.8c-0.5,0.2-1.1,0.5-1.6,0.6s-1.1,0.1-1.6,0.1
		c-2.1,0-4.3-1.1-6-2.5s-3-3.3-4.3-4.9c-1.3-1.8-2.2-3.5-3-5.7C1799.1,555.4,1798.8,553.1,1798.7,551z M1801.4,550.9
		c0,1.8,0.3,3.5,0.8,5.4c0.5,1.6,1.5,3.3,2.7,4.4c1.2,1.2,2.8,1.6,4.2,1.6c1.4,0,2.8-0.2,4-0.2c1.2-0.1,2.5,0.2,4,0.4
		c0.4,0,0.8,0,1.2,0c0.4-0.1,0.7-0.2,1.2-0.4c0.4-0.2,0.7-0.5,1-0.6c0.3-0.4,0.5-0.6,0.8-0.9c1-1.4,1.4-3.3,1.4-4.9
		c0-1.8-0.2-3.3-0.1-4.7c0-1.4,0.1-2.9,0.1-4.7c0-1.6-0.5-3.5-1.4-4.9c-0.9-1.4-2.5-2.1-4.1-2c-0.4,0-0.7,0-1.2,0.1
		c-0.4,0.1-0.7,0.1-1.1,0.2c-0.4,0.1-0.6,0.1-1,0.1c-0.4,0.1-0.6,0.1-1,0c-1.3,0-2.5-0.1-4-0.1c-1.4,0-3,0.6-4.2,1.6
		c-1.2,1.2-2.1,2.6-2.8,4.4C1801.6,547.2,1801.4,549.1,1801.4,550.9z"/>
</g>
<g>
	<path class="st2" d="M1726.9,559c-0.4-1.5-1.3-2.7-2.2-3.8c-0.9-1.2-3.3-1.2-3.8-2.5c-0.2-0.4-0.3-0.7-0.3-1.2s0.1-0.9,0.2-1.5
		c0.2-1.1,0.2-1.9-0.4-2.5c-0.4-0.6-1.3-0.9-2.1-1.3c-0.8-0.4-1.5-0.7-1.9-1.4c-0.4-0.7-0.4-1.5-0.3-2.5c0.1-0.9,0.2-2-0.1-2.6
		c-0.2-0.4-0.4-0.6-0.6-0.8c-0.3-0.2-0.7-0.4-1.2-0.5c-0.9-0.2-1.7-0.5-2-1.3c-0.7-1.3,0.2-3.8-0.4-5.3c-0.5-1.4-1-2.9-2-4l2.2-1.6
		c0.4,1.5,1.3,2.7,2.2,3.8c0.9,1.2,3.2,1.3,3.8,2.5c0.4,0.6,0.4,1.5,0.1,2.6c-0.1,0.5-0.2,1.1-0.2,1.5s0.2,0.7,0.4,1.1
		c0.4,0.6,1.3,0.9,2.1,1.3c0.8,0.4,1.5,0.7,1.9,1.4c0.4,0.6,0.4,1.5,0.3,2.5s-0.2,2,0.1,2.6c0.3,0.7,0.9,1.2,1.8,1.4
		c0.4,0.1,0.9,0.2,1.3,0.5s0.6,0.5,0.8,0.7c0.8,1.2-0.2,3.8,0.4,5.3c0.5,1.4,1,2.9,2,4L1726.9,559z"/>
</g>
<g>
	<path class="st2" d="M1658.3,546.1c2.9,1.9,5.6,3.3,8.3,4.8c2.8,1.4,5.5,2.9,8.3,3.6c1.4,0.5,2.9,0.7,4.4,1.3
		c1.5,0.5,3,1.2,4.6,2.1c1.5,0.8,3,2,4.2,3.3c1.3,1.3,2.5,2.6,3.8,3.8l2.8,2.5l-2.6,1.2c-2.9,1.3-5.3,3.5-7.4,6
		c-1.1,1.3-2.1,2.6-3.2,3.9c-1.1,1.3-2.3,2.4-3.6,3.3c-1.2,0.9-2.6,1.8-4,2.5c-1.4,0.6-2.9,1.3-4.4,1.9c-2.9,1.3-5.5,2.8-7.8,5.5
		l-2,2.4l-0.9-4.1c-0.4-1.8-1-3.6-1.4-5.7c-0.5-1.9-0.6-3.9-0.6-5.9c0-1.9,0.1-3.9,0.3-5.7c0.3-1.8,0.6-3.5,0.8-5.3
		c0.5-3.4,0.5-6.9,0.6-10.4C1658.5,553.5,1658.5,549.8,1658.3,546.1z M1659.7,548.6c0.1,3.2,0.3,6.7,0.6,10.2
		c0.4,3.5,0.6,7.1,1.5,10.7c0.4,1.8,0.8,3.6,1.3,5.3c0.4,1.6,0.6,3.4,0.8,4.9c0.2,1.5,0.1,3.2-0.3,4.7c-0.3,1.5-0.7,3.3-1,4.9
		l-2.9-1.8c2.9-1.3,5.3-3.4,7.5-6c1.1-1.3,2.1-2.6,3.2-3.9s2.3-2.4,3.6-3.3c1.2-0.9,2.6-1.8,4-2.5c1.4-0.6,2.9-1.3,4.4-1.9
		c2.9-1.3,5.5-2.9,7.8-5.4l0.2,3.8c-1.4-0.5-2.9-0.7-4.2-1.1c-1.3-0.4-2.6-0.8-3.8-1.6c-1.2-0.7-2.3-1.6-3.5-2.8
		c-1.2-1.2-2.3-2.4-3.6-3.5c-2.5-2.5-5.1-4.2-7.7-6.1C1664.7,551.7,1662.1,550.1,1659.7,548.6z"/>
</g>
<g>
	<path class="st2" d="M1361,563.9c0-2.2,0.4-4.5,1.1-6.4c0.7-2,1.7-3.9,2.9-5.7c1.2-1.6,2.6-3.5,4.3-5.1c1.7-1.5,3.8-2.6,6-2.5
		c0.5,0,1.1,0.1,1.6,0.2s1.1,0.4,1.5,0.5c0.5,0.2,1,0.5,1.4,0.9c0.4,0.4,0.9,0.7,1.3,1.2c1.6,1.6,3,3.2,4.4,4.6
		c1.4,1.4,3,3.1,4.2,5.1c1.3,2,2.2,4.5,2.2,7.1c0,2.5-0.8,5.2-2.1,7.1c-1.3,2-2.8,3.5-4.2,5.1c-0.4,0.4-0.7,0.7-1.1,1.2
		c-0.4,0.4-0.7,0.7-1.1,1.2c-0.4,0.5-0.7,0.8-1.1,1.3s-0.7,0.8-1.2,1.3c-0.4,0.5-0.8,0.7-1.3,1.2c-0.4,0.4-1,0.6-1.4,0.8
		c-0.5,0.2-1.1,0.5-1.6,0.6s-1.1,0.1-1.6,0.1c-2.1,0-4.3-1.1-6-2.5s-3-3.3-4.3-4.9c-1.3-1.8-2.2-3.6-3-5.7
		C1361.4,568.4,1361.1,566.3,1361,563.9z M1363.6,563.9c0,1.8,0.3,3.5,0.8,5.4c0.5,1.6,1.5,3.3,2.7,4.4c1.2,1.2,2.8,1.6,4.2,1.6
		s2.8-0.2,4-0.2c1.2-0.1,2.5,0.2,4,0.4c0.4,0,0.8,0,1.2,0c0.4-0.1,0.7-0.2,1.2-0.4c0.4-0.2,0.7-0.5,1-0.6c0.3-0.4,0.5-0.6,0.8-0.9
		c1-1.4,1.4-3.3,1.4-4.9c0-1.8-0.2-3.3-0.1-4.7c0-1.4,0.1-2.9,0.1-4.7c0-1.6-0.5-3.5-1.4-4.9c-1-1.4-2.5-2.1-4.1-2
		c-0.4,0-0.7,0-1.2,0.1c-0.4,0.1-0.7,0.1-1.1,0.2c-0.4,0.1-0.6,0.1-1,0.1c-0.4,0.1-0.6,0.1-1,0c-1.3,0-2.5-0.1-4-0.1
		c-1.4,0-3,0.6-4.2,1.6c-1.2,1.2-2.1,2.6-2.8,4.4C1363.9,560.3,1363.6,562.2,1363.6,563.9z"/>
</g>
<g>
	<path class="st2" d="M1733,441.6c1.1,0.9,2.4,1.2,3.8,1.3c1.3,0.1,3.2-1.5,4.4-0.8c0.3,0.1,0.5,0.4,0.8,0.7
		c0.3,0.4,0.5,0.8,0.7,1.3c0.4,0.9,0.9,1.6,1.6,1.8c0.6,0.2,1.4-0.1,2.2-0.5c0.8-0.4,1.5-0.6,2.1-0.2c0.6,0.2,1.1,0.9,1.6,1.8
		c0.5,0.8,0.9,1.6,1.5,2c0.3,0.2,0.6,0.4,1,0.2c0.4,0,0.8-0.2,1.1-0.6c0.9-0.6,1.6-0.9,2.2-0.5c1.3,0.5,1.9,3.1,3,3.8
		c1.1,0.9,2.4,1.5,3.7,1.5l-0.8,2.9c-1.1-0.9-2.4-1.2-3.8-1.4c-1.3-0.2-3.2,1.4-4.4,0.8c-0.6-0.1-1.1-0.9-1.5-2
		c-0.2-0.5-0.4-0.9-0.7-1.3c-0.3-0.4-0.5-0.5-0.9-0.5c-0.6-0.2-1.4,0.1-2.2,0.5c-0.8,0.4-1.5,0.6-2.1,0.2c-0.6-0.2-1.1-0.9-1.6-1.8
		s-0.9-1.6-1.5-2c-0.5-0.4-1.3-0.2-2.1,0.2c-0.4,0.2-0.8,0.5-1.2,0.6c-0.4,0.1-0.7,0.1-1.1,0c-1.3-0.2-1.9-3.1-3-3.8
		c-1.1-0.9-2.3-1.6-3.7-1.6L1733,441.6z"/>
</g>
<g>
	<path class="st2" d="M1796.5,473.9c0.1-2.1-0.5-4.2-1.1-6.1c-0.6-2-2.9-3.6-3.1-5.8c-0.1-0.5-0.1-1.1,0.1-1.5
		c0.2-0.6,0.4-1.2,0.6-1.8c0.5-1.2,0.6-2.2,0.4-3.4c-0.2-1.1-0.9-1.9-1.6-2.9c-0.8-0.9-1.3-1.9-1.4-2.9c-0.2-1.1,0.1-2.1,0.4-3.3
		c0.3-1.2,0.7-2.4,0.6-3.4c0-0.6-0.2-1.1-0.4-1.5c-0.2-0.5-0.6-0.9-1-1.3c-0.9-0.9-1.5-1.8-1.6-2.8c-0.4-2,1.2-4.6,1-6.7
		c0.1-2.1-0.1-4.4-0.8-6.2l2.6-0.6c-0.1,2.1,0.5,4.2,1.1,6.1c0.5,2,2.7,3.8,3.1,5.8c0.3,1.1-0.1,2.1-0.6,3.4
		c-0.2,0.6-0.5,1.2-0.5,1.6c-0.1,0.6-0.1,1.1,0.1,1.6c0.2,1.1,0.9,1.9,1.6,2.9c0.8,0.9,1.3,1.9,1.4,2.9c0.2,1.1-0.1,2.1-0.4,3.3
		c-0.4,1.2-0.7,2.4-0.6,3.4s0.5,2,1.4,2.9c0.3,0.5,0.8,0.9,1.1,1.4c0.3,0.5,0.5,0.9,0.6,1.4c0.5,2-1.1,4.6-1,6.7
		c-0.1,2.1,0.1,4.4,0.8,6.2L1796.5,473.9z"/>
</g>
<g>
	<path class="st2" d="M1815.1,467.2c2.9-0.4,5.5-0.7,8.2-1.3c1.3-0.2,2.6-0.5,3.9-0.8c1.3-0.4,2.6-0.7,3.8-1.2
		c2.4-1.1,4.9-2.5,7.8-3.1c1.4-0.4,2.9-0.5,4.4-0.5s3,0.4,4.4,0.6l4.9,0.8l-2.7,3.1c-2.3,2.6-3.7,5.8-4.6,9.3
		c-0.4,1.8-0.8,3.6-1.2,5.4c-0.4,1.8-1,3.5-1.8,4.9c-0.8,1.6-1.6,3.1-2.7,4.5c-1,1.4-2.2,2.7-3.1,4.1c-1,1.4-1.9,2.9-2.6,4.5
		c-0.7,1.6-1.2,3.4-1.5,5.2l-0.7,4.4l-3.4-4.5c-1-1.2-2-2.6-2.9-4c-0.8-1.4-1.5-3.1-2-4.6c-1.1-3.2-1.4-6.5-2-9.4
		c-0.3-1.4-0.7-2.9-1.3-4.4c-0.5-1.4-1-2.9-1.5-4.4C1817.5,473,1816.4,470.1,1815.1,467.2z M1817.3,468.5c1,2.6,2.2,5.3,3.5,8
		c0.7,1.3,1.3,2.7,2.1,4c0.7,1.3,1.4,2.7,2.3,4c1.7,2.7,3.7,4.9,5,7.4c0.7,1.3,1.2,2.4,1.5,3.8s0.5,2.8,0.6,4.4l-4.1-0.1
		c1.1-1.3,2.2-2.7,2.9-4.2c0.8-1.6,1.4-3.2,1.8-4.9s0.8-3.6,1.2-5.4s1-3.4,1.8-4.9s1.6-3.1,2.7-4.5c1-1.4,2.2-2.7,3.1-4.1
		c2-2.8,3.5-6,4.1-9.7l2.2,3.9c-1.2,0.6-2.3,1.3-3.4,1.6c-1.2,0.5-2.3,0.6-3.5,0.6c-2.4,0.2-5.1-0.6-8-0.9c-1.4-0.1-2.8-0.1-4.1-0.1
		c-1.3,0-2.7,0.1-4,0.2C1822.3,467.8,1819.7,468,1817.3,468.5z"/>
</g>
<g>
	<path class="st2" d="M1769.7,525.2c-1.9,0-3.8-0.4-5.5-1.2s-3.3-1.9-4.9-3.3c-1.5-1.4-3-2.9-4.4-4.9c-1.4-2-2.2-4.5-2.2-6.9
		c0-0.6,0.1-1.3,0.1-1.9c0.1-0.6,0.2-1.3,0.4-1.8c0.2-0.6,0.4-1.2,0.8-1.6c0.3-0.6,0.6-1.1,0.9-1.6c1.4-1.9,2.6-3.5,3.8-5.3
		c1.2-1.8,2.5-3.5,4.2-5.1c1.7-1.6,3.8-2.6,5.9-2.7c2.1-0.1,4.4,0.8,6,2.4c1.7,1.5,3.1,3.3,4.4,4.8c0.3,0.5,0.6,0.8,1,1.2
		c0.3,0.5,0.6,0.8,1,1.2c0.4,0.4,0.7,0.8,1.1,1.2s0.7,0.8,1.1,1.3c0.4,0.5,0.6,0.9,1,1.5c0.3,0.5,0.6,1.2,0.8,1.6
		c0.2,0.6,0.4,1.3,0.5,1.9c0.1,0.6,0.1,1.3,0.1,1.9c0.1,2.5-0.8,5.1-2,7.1c-1.2,2-2.7,3.6-4.1,5.2c-1.5,1.5-3.1,2.7-4.7,3.6
		C1773.6,524.5,1771.7,525,1769.7,525.2z M1769.7,522c1.5,0,3-0.4,4.5-1.1c1.4-0.7,2.7-1.9,3.6-3.3c1-1.4,1.4-3.3,1.3-4.9
		c-0.1-1.6-0.3-3.3-0.3-4.7c-0.1-1.4,0.1-2.9,0.2-4.7c0-0.5,0-0.9,0-1.4c-0.1-0.5-0.2-0.8-0.3-1.4c-0.2-0.5-0.4-0.8-0.6-1.2
		c-0.3-0.4-0.5-0.6-0.8-0.9c-1.2-1.2-2.8-1.6-4.2-1.5c-1.5,0-2.8,0.4-4,0.2c-1.2,0-2.5,0-4,0c-1.4,0-3,0.6-4.2,1.8
		c-1.1,1.2-1.7,2.9-1.6,4.9c0,0.5,0,0.8,0.1,1.4c0.1,0.5,0.1,0.8,0.2,1.3s0.1,0.7,0.1,1.2c0.1,0.5,0.1,0.7,0,1.2c0,1.4,0,2.9,0,4.7
		c0,1.6,0.5,3.5,1.5,4.9s2.3,2.5,3.7,3.2C1766.6,521.8,1768.1,522,1769.7,522z"/>
</g>
<g>
	<path class="st2" d="M1075.5,618.8c1,1.1,2.2,1.5,3.7,1.9c1.3,0.4,3.3-1.1,4.5-0.2c0.3,0.2,0.5,0.5,0.8,0.8
		c0.2,0.5,0.4,0.9,0.6,1.4c0.4,1.1,0.7,1.6,1.4,1.9c0.6,0.2,1.4,0.1,2.2-0.2c0.8-0.4,1.6-0.4,2.1,0c0.5,0.5,1.1,1.1,1.5,2
		c0.4,0.9,0.7,1.8,1.4,2.2c0.3,0.2,0.5,0.5,0.9,0.4c0.4,0,0.8-0.2,1.2-0.4c0.9-0.5,1.7-0.6,2.2-0.2c1.2,0.6,1.5,3.3,2.6,4.1
		c1.1,1.1,2.2,1.9,3.5,2l-1.1,2.8c-1.1-1.1-2.2-1.5-3.7-1.9c-1.3-0.4-3.2,0.9-4.5,0.2c-0.6-0.2-1-1.1-1.4-2.2
		c-0.1-0.5-0.4-1.1-0.6-1.4c-0.2-0.5-0.4-0.6-0.8-0.6c-0.6-0.2-1.4,0-2.2,0.2c-0.8,0.4-1.6,0.4-2.1,0c-0.5-0.5-1.1-1.1-1.5-2
		s-0.7-1.8-1.4-2.2c-0.5-0.5-1.3-0.4-2.1,0c-0.4,0.1-0.9,0.4-1.2,0.5c-0.4,0-0.7,0.1-1-0.1c-1.3-0.5-1.5-3.3-2.6-4.1
		c-1.1-1.1-2.2-1.9-3.5-2L1075.5,618.8z"/>
</g>
<g>
	<path class="st2" d="M1065.8,600.3c1-2.6,1.5-5.4,1.7-8.4c0.4-2.7-1-6.2-0.2-8.9c0.2-0.6,0.4-1.3,0.9-2c0.5-0.6,0.8-1.3,1.3-1.8
		c1-1.2,1.6-2.6,1.7-3.9c0.3-1.4,0.1-2.9-0.1-4.5s-0.3-3.1,0-4.5c0.3-1.4,1-2.6,1.8-3.9s1.6-2.5,2-3.8s0.4-2.7,0-4.5
		c-0.4-1.5-0.5-3.2-0.1-4.5c0.6-2.8,3-4.9,3.8-7.7c0.4-1.3,0.9-2.6,1.2-4c0.3-1.4,0.6-2.7,0.8-4.2l2.6,0.8c-0.5,1.3-0.9,2.7-1.1,4.1
		s-0.5,2.8-0.6,4.4c-0.4,2.7,0.9,6.1,0.2,8.9c-0.2,1.4-1,2.6-1.9,3.8c-1,1.2-1.7,2.5-1.8,3.9c-0.3,1.4-0.1,2.9,0.1,4.5
		s0.3,3.1,0,4.5c-0.3,1.4-1,2.6-1.8,3.9c-0.8,1.3-1.6,2.5-2,3.8s-0.4,2.7-0.1,4.5c0.2,0.8,0.3,1.5,0.4,2.4c0.1,0.7,0,1.5-0.1,2.1
		c-0.5,2.8-3,4.9-3.8,7.7c-1,2.6-1.7,5.4-2,8.2L1065.8,600.3z"/>
</g>
<g>
	<path class="st2" d="M1033,674.6c1.2-3.5,2.3-6.8,3.3-10.1c1-3.3,1.9-6.7,2.3-10c0.3-1.6,0.3-3.4,0.7-5.3c0.3-1.8,0.7-3.8,1.3-5.4
		c0.6-1.8,1.3-3.6,2.2-5.2c0.9-1.6,2-3.2,2.9-4.8l1.8-3.5l1.2,2.8c1.4,3.2,3.4,5.8,5.8,8c1.2,1.2,2.4,2.2,3.6,3.4s2.2,2.5,3.1,3.9
		c0.9,1.3,1.7,2.9,2.4,4.5c0.7,1.5,1.4,3.3,2,4.8c1.4,3.3,3.1,6.2,5.4,8.6l2.2,2.1l-3.4,1.4c-1.5,0.6-3,1.5-4.7,2.1
		c-1.6,0.6-3.2,1.1-4.9,1.3c-1.6,0.1-3.3,0.2-4.9,0.1c-1.5-0.1-3-0.2-4.6-0.5c-2.8-0.4-5.9,0-8.9,0.4
		C1039.2,673.7,1036.3,674,1033,674.6z M1035.1,672.8c2.7-0.4,5.7-0.9,8.6-1.8c3-0.8,5.9-1.4,9-2.7c1.5-0.6,3-1.4,4.4-2
		s2.7-1.1,4.1-1.4c1.4-0.2,2.7-0.4,4-0.2c1.3,0.2,2.8,0.6,4.3,0.7l-1.2,3.5c-1.4-3.3-3.4-5.8-5.8-8.1c-1.2-1.2-2.4-2.2-3.6-3.4
		c-1.2-1.2-2.2-2.5-3.1-3.9c-0.9-1.3-1.7-2.9-2.4-4.5c-0.7-1.5-1.4-3.3-2-4.8c-1.4-3.3-3.1-6.2-5.4-8.6l3.2-0.6
		c-0.3,1.6-0.3,3.4-0.4,5.1c-0.2,1.6-0.5,3.2-1,4.6s-1.3,2.8-2.1,4.4c-0.9,1.5-1.8,2.9-2.7,4.5c-1.9,3.2-3,6.5-4.4,9.7
		C1037.3,666.5,1036,669.8,1035.1,672.8z"/>
</g>
<g>
	<path class="st2" d="M1132.1,587.1c0.2,2.8-0.1,5.8-0.9,8.5s-1.8,5.4-3.2,7.8c-1.4,2.4-3.1,4.7-5.1,6.7s-4.7,3.3-7.5,3.6
		c-0.7,0.1-1.3,0-2.1,0c-0.7-0.1-1.3-0.4-2-0.4c-0.6-0.2-1.3-0.5-2-0.8c-0.6-0.4-1.3-0.7-1.8-1.1c-2.2-1.6-4.2-3.4-6.2-5.2
		c-1.9-1.8-4-3.8-5.7-6.1c-1.7-2.5-2.9-5.5-3.1-8.8c-0.2-3.3,0.4-6.5,1.7-9.3c1.3-2.7,3-5.1,4.7-7.2c0.4-0.5,0.8-1.1,1.2-1.6
		c0.4-0.5,0.8-1.1,1.3-1.6c0.4-0.5,0.9-1.1,1.3-1.6c0.5-0.5,0.9-1.1,1.4-1.6c0.5-0.5,1-1.1,1.6-1.4c0.6-0.5,1.1-0.8,1.8-1.3
		c0.6-0.4,1.3-0.6,1.9-0.8c0.7-0.2,1.3-0.2,2.1-0.5c2.8-0.2,5.5,0.6,7.9,2.1c2.3,1.5,4.3,3.4,6.1,5.5c1.8,2.1,3.3,4.2,4.4,6.8
		C1131.2,581.3,1131.8,584.2,1132.1,587.1z M1129.5,587.4c-0.2-2.5-0.8-4.8-1.7-7.2s-2.4-4.1-4.1-5.7c-1.7-1.4-3.9-2.1-5.8-2.2
		c-2-0.1-3.8,0.1-5.6,0.4c-0.4,0-0.9,0.2-1.3,0.1c-0.4,0-0.9,0.1-1.4,0.1c-0.4,0-1,0.1-1.4,0.1c-0.5,0-1,0.1-1.5,0.1
		c-0.5,0.1-1,0.2-1.5,0.4c-0.5,0.1-1,0.5-1.5,0.7c-0.4,0.4-0.9,0.7-1.2,1.1c-0.4,0.5-0.7,0.9-1.1,1.4c-1.3,1.9-1.8,4.5-1.9,6.8
		c0,2.4,0.1,4.5,0.3,6.6c0.2,2.1,0.3,4.4,0.7,6.6c0.5,2.4,1.3,4.6,2.9,6.4c1.4,1.8,3.6,2.6,5.7,2.6c0.5,0,1,0,1.5,0s1-0.1,1.4-0.1
		c0.4-0.1,1-0.2,1.4-0.2s0.9-0.2,1.3-0.1c1.8-0.2,3.7-0.4,5.6-0.9c2-0.6,3.9-1.5,5.4-3.3c1.5-1.6,2.5-3.9,3.1-6.4
		C1129.5,592.3,1129.7,589.7,1129.5,587.4z"/>
</g>
<g>
	<path class="st2" d="M1326.6,596.8c1.3,0.2,2.6-0.1,3.9-0.8c1.3-0.6,2.3-3.1,3.7-3.1c0.4,0,0.6,0,1,0.2s0.7,0.5,1.1,0.7
		c0.8,0.6,1.4,0.9,2.1,0.6c0.7-0.1,1.2-0.8,1.7-1.6c0.5-0.8,1.1-1.3,1.8-1.3c0.6,0,1.4,0.2,2.1,0.7s1.5,1.1,2.2,0.9
		c0.4,0,0.6,0,1-0.2c0.4-0.2,0.6-0.7,0.8-1.1c0.5-0.9,1.1-1.6,1.7-1.6c1.3-0.4,2.8,1.8,4.1,1.8c1.4,0.2,2.7,0.2,3.8-0.6l0.4,3.1
		c-1.4-0.2-2.6,0.1-3.9,0.8c-1.3,0.6-2.3,2.8-3.7,3.1c-0.7,0.1-1.3-0.2-2.2-0.9c-0.3-0.4-0.8-0.6-1.1-0.7c-0.4-0.2-0.6-0.1-1,0
		c-0.7,0.1-1.2,0.9-1.7,1.6c-0.5,0.8-1.1,1.3-1.8,1.3c-0.6,0-1.4-0.2-2.1-0.7s-1.5-1.1-2.2-0.9c-0.6,0-1.3,0.6-1.8,1.3
		c-0.3,0.4-0.6,0.8-0.8,1.2c-0.3,0.2-0.5,0.5-0.9,0.6c-1.3,0.5-2.8-1.8-4.1-1.8c-1.4-0.2-2.7-0.2-3.8,0.6L1326.6,596.8z"/>
</g>
<g>
	<path class="st2" d="M1213.3,660.7c0.7-1.4,0.9-2.9,0.8-4.6c0.1-1.5-1.6-3.6-1-5.1c0.1-0.4,0.4-0.6,0.5-0.9
		c0.4-0.4,0.7-0.6,1.1-0.8c0.8-0.6,1.3-1.2,1.4-1.9s-0.2-1.6-0.6-2.6s-0.6-1.8-0.4-2.5c0.1-0.7,0.7-1.4,1.4-1.9
		c0.7-0.5,1.3-1.2,1.6-1.8c0.2-0.4,0.2-0.7,0.1-1.2c0-0.5-0.3-0.9-0.6-1.4c-0.5-1.1-0.8-1.8-0.6-2.6c0.3-1.5,2.5-2.4,3-3.9
		c0.7-1.4,1.1-2.8,1.1-4.5l2.6,0.8c-0.7,1.4-0.9,2.9-0.9,4.6c-0.2,1.5,1.4,3.6,1,5.1c0,0.7-0.7,1.4-1.6,1.8c-0.4,0.2-0.8,0.6-1,0.8
		c-0.3,0.4-0.4,0.6-0.3,1.1c-0.1,0.7,0.2,1.6,0.6,2.6c0.4,0.9,0.6,1.8,0.4,2.5c-0.1,0.7-0.7,1.4-1.4,1.9c-0.7,0.6-1.3,1.2-1.6,1.8
		c-0.4,0.6-0.2,1.5,0.4,2.5c0.2,0.5,0.5,0.9,0.6,1.4s0.2,0.8,0.1,1.3c-0.2,1.5-2.5,2.4-3,3.9c-0.7,1.4-1.2,2.7-1.2,4.5L1213.3,660.7
		z"/>
</g>
<g>
	<path class="st2" d="M1128.8,629.6c0.5,1.5,1.5,2.6,2.5,3.5c1,1.1,3.4,0.8,4,2.1c0.2,0.4,0.4,0.7,0.4,1.2c0,0.5,0,0.9-0.1,1.5
		c-0.1,1.1-0.1,1.9,0.6,2.5c0.4,0.6,1.4,0.8,2.2,1.1c0.8,0.2,1.5,0.6,2,1.2c0.5,0.7,0.5,1.5,0.5,2.5c0,0.9-0.1,2,0.3,2.6
		c0.2,0.4,0.4,0.6,0.7,0.7c0.3,0.2,0.7,0.2,1.2,0.4c0.9,0.1,1.7,0.2,2.1,1.1c0.8,1.2,0.1,3.8,0.8,5.2c0.6,1.4,1.2,2.8,2.3,3.8
		l-2.1,1.9c-0.5-1.5-1.5-2.6-2.5-3.5c-1-1.1-3.3-0.9-4-2.1c-0.4-0.6-0.5-1.5-0.3-2.6c0.1-0.5,0.1-1.1,0.1-1.5c0-0.5-0.3-0.7-0.5-1.1
		c-0.4-0.6-1.4-0.8-2.2-1.1c-0.8-0.2-1.5-0.6-2-1.2c-0.5-0.7-0.5-1.5-0.5-2.5c0-0.9,0.1-2-0.3-2.6c-0.4-0.7-1-1.1-1.9-1.2
		c-0.4-0.1-0.9-0.1-1.3-0.4s-0.6-0.4-0.8-0.6c-0.9-1.1-0.1-3.8-0.8-5.2c-0.6-1.4-1.2-2.8-2.3-3.8L1128.8,629.6z"/>
</g>
<g>
	<path class="st2" d="M1237.8,599.1c-1.3-1.5-2.9-2.6-4.6-3.3c-1.7-0.9-4.2,0-5.6-1.4c-0.4-0.4-0.7-0.6-0.9-1.2
		c-0.2-0.5-0.5-1.2-0.6-1.8c-0.4-1.3-1-2.1-1.8-2.7c-0.7-0.5-1.8-0.5-3-0.6c-1.1,0-2-0.2-2.8-0.9c-0.7-0.5-1.3-1.5-1.7-2.7
		c-0.5-1.2-0.9-2.2-1.6-2.9c-0.4-0.5-0.7-0.5-1.3-0.7c-0.4-0.2-1-0.1-1.5-0.1c-1.2,0.1-2.1,0-2.9-0.7c-1.5-1.2-2-4.1-3.4-5.5
		c-1.3-1.5-2.7-2.9-4.4-3.6l1.4-2.6c1.3,1.5,2.9,2.6,4.6,3.3c1.6,1.1,4.1,0.2,5.6,1.4c0.8,0.4,1.3,1.5,1.6,2.9
		c0.2,0.6,0.4,1.3,0.6,1.6c0.3,0.5,0.6,0.8,1.1,1.1c0.7,0.5,1.8,0.5,3,0.6c1.1,0,2,0.2,2.8,0.9c0.7,0.5,1.3,1.5,1.7,2.7
		c0.5,1.2,0.9,2.2,1.6,2.9c0.7,0.6,1.6,1.1,2.8,0.9c0.5,0.1,1.1,0,1.6,0.1c0.5,0.1,0.9,0.2,1.3,0.5c1.6,1.1,2,4.1,3.4,5.5
		c1.3,1.5,2.7,2.9,4.4,3.6L1237.8,599.1z"/>
</g>
<g>
	<path class="st2" d="M1193.5,631.2c-3-1.5-5.8-2.7-8.6-4c-2.9-1.1-5.7-2.4-8.5-2.8c-1.4-0.4-2.9-0.4-4.5-0.8
		c-1.5-0.4-3.1-0.8-4.7-1.6c-1.6-0.7-3.1-1.6-4.4-2.8c-1.4-1.2-2.7-2.4-4.1-3.4l-3-2.1l2.5-1.4c2.8-1.6,5-4.1,6.9-6.7
		c1-1.4,1.9-2.8,2.9-4.2s2.1-2.6,3.3-3.6c1.1-1.1,2.5-2,3.8-2.8c1.4-0.7,2.8-1.6,4.2-2.4c2.8-1.6,5.3-3.4,7.4-6.4l1.8-2.6l1.2,4
		c0.5,1.8,1.3,3.5,1.8,5.5c0.6,1.8,0.9,3.8,1,5.8c0.1,1.9,0.2,3.9,0.1,5.7c-0.2,1.8-0.3,3.5-0.4,5.4c-0.2,3.4,0,6.9,0.2,10.4
		C1192.8,624,1193,627.5,1193.5,631.2z M1191.8,628.8c-0.3-3.2-0.8-6.7-1.4-10.1c-0.7-3.5-1.1-6.9-2.3-10.5
		c-0.5-1.8-1.1-3.5-1.7-5.2c-0.5-1.6-0.9-3.3-1.2-4.8c-0.3-1.5-0.3-3.2-0.1-4.7c0.2-1.5,0.5-3.4,0.6-5.1l3,1.4c-2.8,1.6-5,4-7,6.7
		c-1,1.4-1.9,2.8-2.9,4.2s-2.1,2.6-3.3,3.6c-1.1,1.1-2.5,2-3.8,2.8c-1.4,0.7-2.8,1.6-4.2,2.4c-2.8,1.6-5.3,3.5-7.4,6.2l-0.5-3.8
		c1.4,0.4,2.9,0.4,4.3,0.6c1.3,0.2,2.7,0.6,3.9,1.3c1.2,0.6,2.4,1.4,3.7,2.5c1.3,1.1,2.5,2.1,3.8,3.2c2.7,2.2,5.4,3.6,8.1,5.3
		C1186.6,626.2,1189.4,627.7,1191.8,628.8z"/>
</g>
<g>
	<path class="st2" d="M1288.7,592.9c0.2,2.2-0.1,4.5-0.6,6.5c-0.5,2.1-1.4,4-2.5,5.9c-1.1,1.8-2.3,3.8-3.9,5.5
		c-1.6,1.6-3.6,2.9-5.8,3.1c-0.5,0-1.1,0-1.6-0.1s-1.1-0.2-1.5-0.4c-0.5-0.2-1-0.4-1.5-0.8c-0.4-0.4-0.9-0.6-1.4-1.1
		c-1.7-1.5-3.2-2.8-4.7-4.1c-1.5-1.3-3.2-2.7-4.6-4.6c-1.4-1.9-2.5-4.2-2.7-6.8c-0.2-2.5,0.4-5.3,1.6-7.3c1.1-2.1,2.5-3.8,3.8-5.5
		c0.4-0.4,0.6-0.8,1-1.3c0.4-0.4,0.6-0.8,1-1.3s0.6-0.9,1-1.4c0.4-0.5,0.6-0.9,1.1-1.4s0.7-0.8,1.2-1.3c0.4-0.4,1-0.7,1.3-0.9
		c0.5-0.2,1.1-0.6,1.5-0.7s1.1-0.2,1.6-0.2c2.1-0.2,4.4,0.6,6.2,1.9c1.8,1.2,3.2,2.9,4.7,4.5c1.4,1.6,2.5,3.4,3.4,5.3
		C1288,588.6,1288.5,590.8,1288.7,592.9z M1286.2,593.3c-0.1-1.8-0.6-3.5-1.2-5.3c-0.6-1.6-1.7-3.2-3-4c-1.3-1.1-2.9-1.3-4.3-1.2
		c-1.4,0.1-2.8,0.5-4,0.7c-1.2,0.2-2.5,0-4,0.1c-0.4,0-0.8,0.1-1.2,0.1c-0.4,0.1-0.7,0.4-1.2,0.5c-0.4,0.2-0.7,0.6-1,0.7
		c-0.3,0.4-0.5,0.6-0.7,1.1c-0.9,1.5-1.1,3.4-1,5.1c0.1,1.8,0.4,3.3,0.5,4.7s0.1,2.9,0.3,4.7c0.1,1.6,0.8,3.4,1.8,4.8
		s2.6,1.9,4.2,1.5c0.4,0,0.7-0.1,1.2-0.2c0.4-0.1,0.7-0.2,1.1-0.4s0.6-0.2,1-0.2c0.4-0.1,0.6-0.2,1-0.1c1.3-0.1,2.5-0.1,4-0.4
		c1.4-0.1,2.9-0.9,4.1-2.1c1.1-1.3,1.9-2.8,2.5-4.6C1286.1,596.9,1286.3,595.1,1286.2,593.3z"/>
</g>
<g>
	<path class="st2" d="M1340.9,644.9c-1.3-1.5-2.9-2.6-4.6-3.3c-1.7-0.9-4.2,0-5.6-1.4c-0.4-0.4-0.7-0.6-0.9-1.2
		c-0.2-0.5-0.5-1.2-0.6-1.8c-0.4-1.3-1-2.1-1.8-2.7c-0.7-0.5-1.8-0.5-3-0.6c-1.1,0-2-0.2-2.8-0.9c-0.7-0.5-1.3-1.5-1.7-2.7
		c-0.5-1.2-0.9-2.2-1.6-2.9c-0.4-0.5-0.7-0.5-1.3-0.7c-0.4-0.2-1-0.1-1.5-0.1c-1.2,0.1-2.1,0-2.9-0.7c-1.5-1.2-2-4.1-3.4-5.5
		c-1.3-1.5-2.7-2.9-4.4-3.6l1.4-2.6c1.3,1.5,2.9,2.6,4.6,3.3c1.6,1.1,4.1,0.2,5.6,1.4c0.8,0.4,1.3,1.5,1.6,2.9
		c0.2,0.6,0.4,1.3,0.6,1.6c0.3,0.5,0.6,0.8,1.1,1.1c0.7,0.5,1.8,0.5,3,0.6c1.1,0,2,0.2,2.8,0.9c0.7,0.5,1.3,1.5,1.7,2.7
		c0.5,1.2,0.9,2.2,1.6,2.9c0.7,0.6,1.6,1.1,2.8,0.9c0.5,0.1,1.1,0,1.6,0.1s0.9,0.2,1.3,0.5c1.6,1.1,2,4.1,3.4,5.5
		c1.3,1.5,2.7,2.9,4.4,3.6L1340.9,644.9z"/>
</g>
<g>
	<path class="st2" d="M1296.6,676.8c-3-1.5-5.8-2.7-8.6-4c-2.9-1.1-5.7-2.4-8.5-2.8c-1.4-0.4-2.9-0.4-4.5-0.8
		c-1.5-0.4-3.1-0.8-4.7-1.6c-1.6-0.7-3.1-1.6-4.4-2.8c-1.4-1.2-2.7-2.4-4.1-3.4l-3-2.1l2.5-1.4c2.8-1.6,5-4.1,6.9-6.7
		c1-1.4,1.9-2.8,2.9-4.2c1-1.4,2.1-2.6,3.3-3.6c1.1-1.1,2.5-2,3.8-2.8c1.4-0.7,2.8-1.6,4.2-2.4c2.8-1.6,5.3-3.4,7.4-6.4l1.8-2.6
		l1.2,4c0.5,1.8,1.3,3.5,1.8,5.5c0.6,1.8,0.9,3.8,1,5.8c0.1,1.9,0.2,3.9,0.1,5.7c-0.2,1.8-0.3,3.5-0.4,5.4c-0.2,3.4,0,6.9,0.2,10.4
		C1295.8,669.7,1296.1,673.2,1296.6,676.8z M1294.9,674.5c-0.3-3.2-0.8-6.7-1.4-10.1c-0.7-3.5-1.1-6.9-2.3-10.5
		c-0.5-1.8-1.1-3.5-1.7-5.2c-0.5-1.6-0.9-3.3-1.2-4.8c-0.3-1.5-0.3-3.2-0.1-4.7c0.2-1.5,0.5-3.4,0.6-5.1l3,1.4c-2.8,1.6-5,4-7,6.7
		c-1,1.4-1.9,2.8-2.9,4.2s-2.1,2.6-3.3,3.6c-1.1,1.1-2.5,2-3.8,2.8c-1.4,0.7-2.8,1.6-4.2,2.4c-2.8,1.6-5.3,3.5-7.4,6.2l-0.5-3.8
		c1.4,0.4,2.9,0.4,4.3,0.6c1.3,0.2,2.7,0.6,3.9,1.3c1.2,0.6,2.4,1.4,3.7,2.5s2.5,2.1,3.8,3.2c2.7,2.2,5.4,3.6,8.1,5.3
		C1289.7,671.9,1292.4,673.4,1294.9,674.5z"/>
</g>
<g>
	<path class="st2" d="M634.7,643.2c1,1.1,2.2,1.5,3.7,1.9c1.3,0.4,3.3-1.1,4.5-0.2c0.3,0.2,0.5,0.5,0.8,0.8c0.2,0.5,0.4,0.9,0.6,1.4
		c0.4,1.1,0.7,1.6,1.4,1.9c0.6,0.2,1.4,0.1,2.2-0.2c0.8-0.4,1.6-0.4,2.1,0c0.5,0.5,1.1,1.1,1.5,2c0.4,0.9,0.7,1.8,1.4,2.2
		c0.3,0.2,0.5,0.5,0.9,0.4c0.4,0,0.8-0.2,1.2-0.4c0.9-0.5,1.7-0.6,2.2-0.2c1.2,0.6,1.5,3.3,2.6,4.1c1.1,1.1,2.2,1.9,3.5,2l-1.1,2.8
		c-1.1-1.1-2.2-1.5-3.7-1.9c-1.3-0.4-3.2,0.9-4.5,0.2c-0.6-0.2-1-1.1-1.4-2.2c-0.1-0.5-0.4-1.1-0.6-1.4c-0.2-0.5-0.4-0.6-0.8-0.6
		c-0.6-0.2-1.4,0-2.2,0.2c-0.8,0.4-1.6,0.4-2.1,0c-0.5-0.4-1.1-1.1-1.5-2s-0.7-1.8-1.4-2.2c-0.5-0.5-1.3-0.4-2.1,0
		c-0.4,0.1-0.9,0.4-1.2,0.5c-0.4,0-0.7,0.1-1-0.1c-1.3-0.5-1.5-3.3-2.6-4.1c-1.1-1.1-2.2-1.9-3.5-2L634.7,643.2z"/>
</g>
<g>
	<path class="st2" d="M743.1,598.6c-3-1.5-5.8-2.7-8.6-4c-2.9-1.1-5.7-2.4-8.5-2.8c-1.4-0.4-2.9-0.4-4.5-0.8
		c-1.5-0.4-3.1-0.8-4.7-1.6c-1.6-0.7-3.1-1.6-4.4-2.8c-1.4-1.2-2.7-2.4-4.1-3.4l-3-2.1l2.5-1.4c2.8-1.6,5-4.1,6.9-6.7
		c1-1.4,1.9-2.8,2.9-4.2s2.1-2.6,3.3-3.6s2.5-2,3.8-2.8c1.4-0.7,2.8-1.6,4.2-2.4c2.8-1.6,5.3-3.4,7.4-6.4l1.8-2.6l1.2,4
		c0.5,1.8,1.3,3.5,1.8,5.5c0.6,1.8,0.9,3.8,1,5.8c0.1,1.9,0.2,3.9,0.1,5.7c-0.2,1.8-0.3,3.5-0.4,5.4c-0.2,3.4,0,6.9,0.2,10.4
		C742.3,591.3,742.6,594.8,743.1,598.6z M741.5,596.1c-0.3-3.2-0.8-6.7-1.4-10.1c-0.7-3.5-1.1-6.9-2.3-10.5
		c-0.5-1.8-1.1-3.5-1.7-5.2c-0.5-1.6-0.9-3.3-1.2-4.8s-0.3-3.2-0.1-4.7s0.5-3.4,0.6-5.1l3,1.4c-2.8,1.6-5,4-7,6.7
		c-1,1.4-1.9,2.8-2.9,4.2s-2.1,2.6-3.3,3.6c-1.1,1.1-2.5,2-3.8,2.8c-1.4,0.7-2.8,1.6-4.2,2.4c-2.8,1.6-5.3,3.5-7.4,6.2l-0.5-3.8
		c1.4,0.4,2.9,0.4,4.3,0.6c1.3,0.2,2.7,0.6,3.9,1.3c1.2,0.6,2.4,1.4,3.7,2.5c1.3,1.1,2.5,2.1,3.8,3.2c2.7,2.2,5.4,3.6,8.1,5.3
		C736.1,593.6,738.9,595.1,741.5,596.1z"/>
</g>
<g>
	<path class="st2" d="M698.3,618.1c0.2,2.8-0.1,5.8-0.9,8.5s-1.8,5.4-3.2,7.8c-1.4,2.4-3.1,4.7-5.1,6.7s-4.7,3.3-7.5,3.6
		c-0.7,0.1-1.3,0-2.1,0c-0.7-0.1-1.3-0.4-2-0.4c-0.6-0.2-1.3-0.5-2-0.8c-0.6-0.4-1.3-0.7-1.8-1.1c-2.2-1.6-4.2-3.4-6.2-5.2
		c-1.9-1.8-4-3.8-5.7-6.1s-2.9-5.5-3.1-8.8c-0.2-3.3,0.4-6.5,1.7-9.3c1.3-2.7,3-5.1,4.7-7.2c0.4-0.5,0.8-1.1,1.2-1.6
		c0.4-0.5,0.8-1.1,1.3-1.6c0.4-0.5,0.9-1.1,1.3-1.6c0.5-0.5,0.9-1.1,1.4-1.6c0.5-0.5,1-1.1,1.6-1.4c0.6-0.5,1.1-0.8,1.8-1.3
		c0.6-0.4,1.3-0.6,1.9-0.8c0.7-0.2,1.3-0.2,2.1-0.5c2.8-0.2,5.5,0.6,7.9,2.1c2.4,1.5,4.3,3.4,6.1,5.5c1.8,2.1,3.3,4.2,4.4,6.8
		C697.4,612.3,698,615.3,698.3,618.1z M695.6,618.3c-0.2-2.5-0.8-4.8-1.7-7.2c-0.9-2.4-2.4-4.1-4.1-5.7c-1.7-1.4-3.9-2.1-5.8-2.2
		c-2-0.1-3.8,0.1-5.6,0.4c-0.4,0-0.9,0.2-1.3,0.1c-0.4,0-0.9,0.1-1.4,0.1c-0.4,0-1,0.1-1.4,0.1c-0.5,0-1,0.1-1.5,0.1
		c-0.5,0.1-1,0.2-1.5,0.4s-1,0.5-1.5,0.7c-0.4,0.4-0.9,0.7-1.2,1.1c-0.4,0.5-0.7,0.9-1.1,1.4c-1.3,1.9-1.8,4.5-1.9,6.8
		c0,2.4,0.1,4.5,0.3,6.6s0.3,4.4,0.7,6.6c0.5,2.4,1.3,4.6,2.9,6.4c1.4,1.8,3.6,2.6,5.7,2.6c0.5,0,1,0,1.5,0s1-0.1,1.4-0.1
		c0.4-0.1,1-0.2,1.4-0.2s0.9-0.2,1.3-0.1c1.8-0.2,3.7-0.4,5.6-0.9c2-0.6,3.9-1.5,5.4-3.3c1.5-1.6,2.5-3.9,3.1-6.4
		C695.7,623.3,695.8,620.9,695.6,618.3z"/>
</g>
<g>
	<path class="st2" d="M751.4,623c1,1.1,2.2,1.5,3.7,1.9c1.3,0.4,3.3-1.1,4.5-0.2c0.3,0.2,0.5,0.5,0.8,0.8c0.3,0.4,0.4,0.9,0.6,1.4
		c0.4,1.1,0.7,1.6,1.4,1.9c0.6,0.2,1.4,0.1,2.2-0.2c0.8-0.4,1.6-0.4,2.1,0c0.5,0.5,1.1,1.1,1.5,2c0.4,0.9,0.7,1.8,1.4,2.2
		c0.3,0.2,0.5,0.5,0.9,0.4s0.8-0.2,1.2-0.4c0.9-0.5,1.7-0.6,2.2-0.2c1.2,0.6,1.5,3.3,2.6,4.1c1.1,1.1,2.2,1.9,3.5,2l-1.1,2.8
		c-1.1-1.1-2.2-1.5-3.7-1.9c-1.3-0.4-3.2,0.9-4.5,0.2c-0.6-0.2-1-1.1-1.4-2.2c-0.1-0.5-0.4-1.1-0.6-1.4c-0.2-0.5-0.4-0.6-0.8-0.6
		c-0.6-0.2-1.4,0-2.2,0.2c-0.8,0.4-1.6,0.4-2.1,0c-0.5-0.4-1.1-1.1-1.5-2s-0.7-1.8-1.4-2.2c-0.5-0.5-1.3-0.4-2.1,0
		c-0.4,0.1-0.9,0.4-1.2,0.5c-0.4,0-0.7,0.1-1-0.1c-1.3-0.5-1.5-3.3-2.6-4.1c-1.1-1.1-2.2-1.9-3.5-2L751.4,623z"/>
</g>
<g>
	<path class="st2" d="M709,678.8c1.2-3.5,2.3-6.8,3.3-10.1c1-3.3,1.9-6.7,2.3-10c0.3-1.6,0.3-3.4,0.7-5.3c0.3-1.8,0.7-3.8,1.3-5.4
		c0.6-1.8,1.3-3.6,2.2-5.2c0.9-1.6,2-3.2,2.9-4.8l1.8-3.5l1.2,2.8c1.4,3.2,3.4,5.8,5.8,8c1.2,1.2,2.4,2.2,3.6,3.4
		c1.2,1.2,2.2,2.5,3.1,3.9c0.9,1.3,1.7,2.9,2.4,4.5s1.4,3.3,2,4.8c1.4,3.3,3.1,6.2,5.4,8.6l2.2,2.1l-3.4,1.4c-1.5,0.6-3,1.5-4.7,2.1
		c-1.6,0.6-3.2,1.1-4.9,1.3c-1.6,0.1-3.3,0.2-4.9,0.1c-1.5-0.1-3-0.2-4.6-0.5c-2.8-0.4-5.9,0-8.9,0.4
		C715.1,677.9,712.2,678.2,709,678.8z M711,677.1c2.7-0.4,5.7-0.9,8.6-1.8c3-0.8,5.9-1.4,9-2.7c1.5-0.6,3-1.4,4.4-2s2.7-1.1,4.1-1.4
		c1.4-0.2,2.7-0.4,4-0.2c1.3,0.2,2.8,0.6,4.3,0.7l-1.2,3.5c-1.4-3.3-3.4-5.8-5.8-8.1c-1.2-1.2-2.4-2.2-3.6-3.4
		c-1.2-1.2-2.2-2.5-3.1-3.9c-0.9-1.3-1.7-2.9-2.4-4.5s-1.4-3.3-2-4.8c-1.4-3.3-3.1-6.2-5.4-8.6l3.2-0.6c-0.3,1.6-0.3,3.4-0.4,5.1
		c-0.2,1.6-0.5,3.2-1,4.6s-1.3,2.8-2.1,4.4c-0.9,1.5-1.8,2.9-2.7,4.5c-1.9,3.2-3,6.5-4.4,9.7C713.2,670.6,711.9,674,711,677.1z"/>
</g>
<g>
	<path class="st2" d="M808,591.4c0.2,2.8-0.1,5.8-0.9,8.5c-0.8,2.7-1.8,5.4-3.2,7.8c-1.4,2.4-3.1,4.7-5.1,6.7
		c-2.1,2-4.7,3.3-7.5,3.6c-0.7,0.1-1.3,0-2.1,0c-0.7-0.1-1.3-0.4-2-0.4c-0.6-0.2-1.3-0.5-2-0.8c-0.7-0.4-1.3-0.7-1.8-1.1
		c-2.2-1.6-4.2-3.4-6.2-5.2c-1.9-1.8-4-3.8-5.7-6.1c-1.7-2.5-2.9-5.5-3.1-8.8c-0.2-3.3,0.4-6.5,1.7-9.3c1.3-2.7,3-5.1,4.7-7.2
		c0.4-0.5,0.8-1.1,1.2-1.6c0.4-0.5,0.8-1.1,1.3-1.6c0.4-0.5,0.9-1.1,1.3-1.6c0.5-0.5,0.9-1.1,1.4-1.6c0.5-0.5,1-1.1,1.6-1.4
		c0.6-0.5,1.1-0.8,1.8-1.3c0.6-0.4,1.3-0.6,1.9-0.8c0.6-0.2,1.3-0.2,2.1-0.5c2.8-0.2,5.5,0.6,7.9,2.1c2.3,1.5,4.3,3.4,6.1,5.5
		c1.8,2.1,3.3,4.2,4.4,6.8C807.1,585.5,807.7,588.4,808,591.4z M805.4,591.6c-0.2-2.5-0.8-4.8-1.7-7.2c-0.9-2.4-2.4-4.1-4.1-5.7
		c-1.7-1.4-3.9-2.1-5.8-2.2c-2-0.1-3.8,0.1-5.6,0.4c-0.4,0-0.9,0.2-1.3,0.1c-0.4,0-0.9,0.1-1.4,0.1c-0.4,0-1,0.1-1.4,0.1
		c-0.5,0-1,0.1-1.5,0.1c-0.5,0.1-1,0.2-1.5,0.4s-1,0.5-1.5,0.7c-0.4,0.4-0.9,0.7-1.2,1.1c-0.4,0.5-0.7,0.9-1.1,1.4
		c-1.3,1.9-1.8,4.5-1.9,6.8c0,2.4,0.1,4.5,0.3,6.6s0.3,4.4,0.7,6.6c0.5,2.4,1.3,4.6,2.9,6.4c1.4,1.8,3.6,2.6,5.7,2.6
		c0.5,0,1,0,1.5,0s1-0.1,1.4-0.1c0.4-0.1,1-0.2,1.4-0.2s0.9-0.2,1.3-0.1c1.8-0.2,3.7-0.4,5.6-0.9c2-0.6,3.9-1.5,5.4-3.3
		c1.5-1.6,2.5-3.9,3.1-6.4C805.4,596.6,805.6,594,805.4,591.6z"/>
</g>
<g>
	<path class="st2" d="M889.2,664.9c0.7-1.4,0.9-2.9,0.8-4.6c0.1-1.5-1.6-3.6-1-5.1c0.1-0.4,0.4-0.6,0.5-0.9c0.4-0.4,0.7-0.6,1.1-0.8
		c0.8-0.6,1.3-1.2,1.4-1.9c0.1-0.7-0.2-1.6-0.6-2.6c-0.4-0.9-0.6-1.8-0.4-2.5c0.1-0.7,0.7-1.4,1.4-1.9c0.7-0.5,1.3-1.2,1.6-1.8
		c0.2-0.4,0.2-0.7,0.1-1.2c0-0.5-0.3-0.9-0.6-1.4c-0.5-1.1-0.8-1.8-0.6-2.6c0.3-1.5,2.5-2.4,3-3.9c0.7-1.4,1.1-2.8,1.1-4.5l2.6,0.8
		c-0.7,1.4-0.9,2.9-0.9,4.6c-0.2,1.5,1.4,3.6,1,5.1c0,0.7-0.7,1.4-1.6,1.8c-0.4,0.2-0.8,0.6-1,0.8c-0.3,0.4-0.4,0.6-0.3,1.1
		c-0.1,0.7,0.2,1.6,0.6,2.6c0.4,0.9,0.6,1.8,0.4,2.5c-0.1,0.7-0.7,1.4-1.4,1.9c-0.7,0.6-1.3,1.2-1.6,1.8c-0.4,0.6-0.2,1.5,0.4,2.5
		c0.2,0.5,0.5,0.9,0.6,1.4s0.2,0.8,0.1,1.3c-0.2,1.5-2.5,2.4-3,3.9c-0.7,1.4-1.2,2.7-1.2,4.5L889.2,664.9z"/>
</g>
<g>
	<path class="st2" d="M804.7,633.9c0.5,1.5,1.5,2.6,2.5,3.5c1,1.1,3.4,0.8,4,2.1c0.2,0.4,0.4,0.7,0.4,1.2c0,0.5,0,0.9-0.1,1.5
		c-0.1,1.1-0.1,1.9,0.6,2.5c0.4,0.6,1.4,0.8,2.2,1.1c0.8,0.2,1.5,0.6,2,1.2s0.5,1.5,0.5,2.5c0,0.9-0.1,2,0.3,2.6
		c0.2,0.4,0.4,0.6,0.7,0.7c0.3,0.2,0.7,0.2,1.2,0.4c0.9,0.1,1.7,0.2,2.1,1.1c0.8,1.2,0.1,3.8,0.8,5.2c0.6,1.4,1.2,2.8,2.3,3.8
		l-2.1,1.9c-0.5-1.5-1.5-2.6-2.5-3.5c-1-1.1-3.3-0.9-4-2.1c-0.4-0.6-0.5-1.5-0.3-2.6c0.1-0.5,0.1-1.1,0.1-1.5s-0.3-0.7-0.5-1.1
		c-0.4-0.6-1.4-0.8-2.2-1.1c-0.8-0.2-1.5-0.6-2-1.2s-0.5-1.5-0.5-2.5c0-0.9,0.1-2-0.3-2.6c-0.4-0.7-1-1.1-1.9-1.2
		c-0.4-0.1-0.9-0.1-1.3-0.4c-0.4-0.2-0.6-0.4-0.8-0.6c-0.9-1.1-0.1-3.8-0.8-5.2c-0.6-1.4-1.2-2.8-2.3-3.8L804.7,633.9z"/>
</g>
<g>
	<path class="st2" d="M913.7,603.4c-1.3-1.5-2.9-2.6-4.6-3.3c-1.7-0.9-4.2,0-5.6-1.4c-0.4-0.4-0.7-0.6-0.9-1.2
		c-0.2-0.5-0.5-1.2-0.6-1.8c-0.4-1.3-1-2.1-1.8-2.7c-0.7-0.5-1.8-0.5-3-0.6c-1.1,0-2-0.2-2.8-0.9c-0.7-0.5-1.3-1.5-1.7-2.7
		c-0.5-1.2-0.9-2.2-1.6-2.9c-0.4-0.5-0.7-0.5-1.3-0.7c-0.4-0.2-1-0.1-1.5-0.1c-1.2,0.1-2.1,0-2.9-0.7c-1.5-1.2-2-4.1-3.4-5.5
		c-1.3-1.5-2.7-2.9-4.4-3.6l1.4-2.6c1.3,1.5,2.9,2.6,4.6,3.3c1.6,1.1,4.1,0.2,5.6,1.4c0.8,0.4,1.3,1.5,1.6,2.9
		c0.2,0.6,0.4,1.3,0.6,1.6c0.3,0.5,0.6,0.8,1.1,1.1c0.7,0.5,1.8,0.5,3,0.6c1.1,0,2,0.2,2.8,0.9c0.7,0.5,1.3,1.5,1.7,2.7
		c0.5,1.2,0.9,2.2,1.6,2.9c0.7,0.6,1.6,1.1,2.8,0.9c0.5,0.1,1.1,0,1.6,0.1s0.9,0.2,1.3,0.5c1.6,1.1,2,4.1,3.4,5.5
		c1.3,1.5,2.7,2.9,4.4,3.6L913.7,603.4z"/>
</g>
<g>
	<path class="st2" d="M869.5,635.4c-3-1.5-5.8-2.7-8.6-4c-2.9-1.1-5.7-2.4-8.5-2.8c-1.4-0.4-2.9-0.4-4.5-0.8
		c-1.5-0.4-3.1-0.8-4.7-1.6c-1.6-0.7-3.1-1.6-4.4-2.8c-1.4-1.2-2.7-2.4-4.1-3.4l-3-2.1l2.5-1.4c2.8-1.6,5-4.1,6.9-6.7
		c1-1.4,1.9-2.8,2.9-4.2c1-1.4,2.1-2.6,3.3-3.6c1.1-1.1,2.5-2,3.8-2.8c1.4-0.7,2.8-1.6,4.2-2.4c2.8-1.6,5.3-3.4,7.4-6.4l1.8-2.6
		l1.2,4c0.5,1.8,1.3,3.5,1.8,5.5c0.6,1.8,0.9,3.8,1,5.8c0.1,1.9,0.2,3.9,0.1,5.7c-0.2,1.8-0.3,3.5-0.4,5.4c-0.2,3.4,0,6.9,0.2,10.4
		C868.7,628.2,869,631.8,869.5,635.4z M867.8,633c-0.3-3.2-0.8-6.7-1.4-10.1c-0.7-3.5-1.1-6.9-2.3-10.5c-0.5-1.8-1.1-3.5-1.7-5.2
		c-0.5-1.6-0.9-3.3-1.2-4.8s-0.3-3.2-0.1-4.7s0.5-3.4,0.6-5.1l3,1.4c-2.8,1.6-5,4-7,6.7c-1,1.4-1.9,2.8-2.9,4.2s-2.1,2.6-3.3,3.6
		c-1.1,1.1-2.5,2-3.8,2.8c-1.4,0.7-2.8,1.6-4.2,2.4c-2.8,1.6-5.3,3.5-7.4,6.2l-0.5-3.8c1.4,0.4,2.9,0.4,4.3,0.6
		c1.3,0.2,2.7,0.6,3.9,1.3c1.2,0.6,2.4,1.4,3.7,2.5s2.5,2.1,3.8,3.2c2.7,2.2,5.4,3.6,8.1,5.3C862.6,630.5,865.3,632,867.8,633z"/>
</g>
<g>
	<path class="st2" d="M964.7,597.1c0.2,2.2-0.1,4.5-0.6,6.5c-0.5,2.1-1.4,4-2.5,5.9c-1.1,1.8-2.3,3.8-3.9,5.5
		c-1.6,1.6-3.6,2.9-5.8,3.1c-0.5,0-1.1,0-1.6-0.1s-1.1-0.2-1.5-0.4c-0.5-0.2-1-0.4-1.5-0.8c-0.4-0.4-0.9-0.6-1.4-1.1
		c-1.7-1.5-3.2-2.8-4.7-4.1s-3.2-2.7-4.6-4.6c-1.4-1.9-2.5-4.2-2.7-6.8c-0.2-2.5,0.4-5.3,1.6-7.3c1.1-2.1,2.5-3.8,3.8-5.5
		c0.4-0.4,0.6-0.8,1-1.3c0.4-0.4,0.6-0.8,1-1.3s0.6-0.9,1-1.4s0.6-0.9,1.1-1.4s0.7-0.8,1.2-1.3c0.4-0.4,1-0.7,1.3-0.9
		c0.5-0.2,1.1-0.6,1.5-0.7c0.4-0.1,1.1-0.2,1.6-0.2c2.1-0.2,4.4,0.6,6.2,1.9c1.8,1.2,3.2,2.9,4.7,4.5c1.4,1.6,2.5,3.4,3.4,5.3
		C963.9,592.8,964.4,595,964.7,597.1z M962.1,597.5c-0.1-1.8-0.6-3.5-1.2-5.3c-0.6-1.6-1.7-3.2-3-4c-1.3-1.1-2.9-1.3-4.3-1.2
		c-1.4,0.1-2.8,0.5-4,0.7c-1.2,0.2-2.5,0-4,0.1c-0.4,0-0.8,0.1-1.2,0.1c-0.4,0.1-0.7,0.4-1.2,0.5c-0.4,0.2-0.7,0.6-1,0.7
		c-0.3,0.4-0.5,0.6-0.7,1.1c-0.9,1.5-1.1,3.4-1,5.1c0.1,1.8,0.4,3.3,0.5,4.7s0.1,2.9,0.3,4.7c0.1,1.6,0.8,3.4,1.8,4.8
		s2.6,1.9,4.2,1.5c0.4,0,0.7-0.1,1.2-0.2c0.4-0.1,0.7-0.2,1.1-0.4c0.4-0.1,0.6-0.2,1-0.2c0.4-0.1,0.6-0.2,1-0.1
		c1.3-0.1,2.5-0.1,4-0.4c1.4-0.1,2.9-0.9,4.1-2.1c1.1-1.3,1.9-2.8,2.5-4.6C962.1,601.1,962.2,599.4,962.1,597.5z"/>
</g>
<g>
	<path class="st2" d="M972.5,681.1c-3-1.5-5.8-2.7-8.6-4c-2.9-1.1-5.7-2.4-8.5-2.8c-1.4-0.4-2.9-0.4-4.5-0.8
		c-1.5-0.4-3.1-0.8-4.7-1.6c-1.6-0.7-3.1-1.6-4.4-2.8c-1.4-1.2-2.7-2.4-4.1-3.4l-3-2.1l2.5-1.4c2.8-1.6,5-4.1,6.9-6.7
		c1-1.4,1.9-2.8,2.9-4.2c1-1.4,2.1-2.6,3.3-3.6c1.1-1.1,2.5-2,3.8-2.8c1.4-0.7,2.8-1.6,4.2-2.4c2.8-1.6,5.3-3.4,7.4-6.4l1.8-2.6
		l1.2,4c0.5,1.8,1.3,3.5,1.8,5.5c0.6,1.8,0.9,3.8,1,5.8c0.1,1.9,0.2,3.9,0.1,5.7c-0.2,1.8-0.3,3.5-0.4,5.4c-0.2,3.4,0,6.9,0.2,10.4
		C971.8,673.9,972,677.4,972.5,681.1z M970.8,678.7c-0.3-3.2-0.8-6.7-1.4-10.1c-0.7-3.5-1.1-6.9-2.3-10.5c-0.5-1.8-1.1-3.5-1.7-5.2
		c-0.5-1.6-0.9-3.3-1.2-4.8s-0.3-3.2-0.1-4.7s0.5-3.4,0.6-5.1l3,1.4c-2.8,1.6-5,4-7,6.7c-1,1.4-1.9,2.8-2.9,4.2s-2.1,2.6-3.3,3.6
		c-1.1,1.1-2.5,2-3.8,2.8c-1.4,0.7-2.8,1.6-4.2,2.4c-2.8,1.6-5.3,3.5-7.4,6.2l-0.5-3.8c1.4,0.4,2.9,0.4,4.3,0.6
		c1.4,0.2,2.7,0.6,3.9,1.3c1.2,0.6,2.4,1.4,3.7,2.5s2.5,2.1,3.8,3.2c2.7,2.2,5.4,3.6,8.1,5.3C965.6,676.1,968.3,677.7,970.8,678.7z"
		/>
</g>
<g>
	<path class="st2" d="M1391.8,638.7c0.2,2.2-0.1,4.5-0.6,6.5c-0.5,2.1-1.4,4-2.5,5.9c-1.1,1.8-2.3,3.8-3.9,5.5
		c-1.6,1.8-3.6,2.9-5.8,3.1c-0.5,0-1.1,0-1.6-0.1c-0.5-0.1-1.1-0.2-1.5-0.4c-0.5-0.2-1-0.4-1.5-0.8c-0.4-0.4-0.9-0.6-1.4-1.1
		c-1.7-1.5-3.2-2.8-4.7-4.1c-1.5-1.3-3.2-2.7-4.6-4.6c-1.4-1.9-2.5-4.2-2.7-6.8c-0.2-2.5,0.4-5.3,1.6-7.3c1.1-2.1,2.5-3.8,3.8-5.5
		c0.4-0.4,0.6-0.8,1-1.3c0.4-0.4,0.6-0.8,1-1.3c0.4-0.5,0.6-0.9,1-1.4c0.4-0.5,0.6-0.9,1.1-1.4c0.5-0.5,0.7-0.8,1.2-1.3
		c0.4-0.4,1-0.7,1.3-0.9c0.5-0.2,1.1-0.6,1.5-0.7c0.5-0.1,1.1-0.2,1.6-0.2c2.1-0.2,4.4,0.6,6.2,1.9c1.8,1.2,3.2,2.9,4.7,4.5
		c1.4,1.6,2.5,3.4,3.4,5.3C1391.1,634.2,1391.5,636.5,1391.8,638.7z M1389.2,638.9c-0.1-1.8-0.6-3.5-1.2-5.3c-0.6-1.6-1.7-3.2-3-4
		c-1.3-1.1-2.9-1.3-4.3-1.2s-2.8,0.5-4,0.7c-1.2,0.2-2.5,0-4,0.1c-0.4,0-0.8,0.1-1.2,0.1c-0.4,0.1-0.7,0.4-1.2,0.5
		c-0.4,0.2-0.7,0.6-1,0.7c-0.3,0.4-0.5,0.6-0.7,1.1c-0.9,1.5-1.1,3.4-1,5.1c0.1,1.8,0.4,3.3,0.5,4.7s0.1,2.9,0.3,4.7
		c0.1,1.6,0.8,3.4,1.8,4.8c1,1.3,2.6,1.9,4.2,1.5c0.4,0,0.7-0.1,1.2-0.2c0.4-0.1,0.7-0.2,1.1-0.4c0.4-0.1,0.6-0.2,1-0.2
		c0.4-0.1,0.6-0.2,1-0.1c1.3-0.1,2.5-0.1,4-0.4c1.4-0.1,2.9-0.9,4.1-2.1c1.1-1.3,1.9-2.8,2.5-4.6
		C1389.2,642.6,1389.3,640.8,1389.2,638.9z"/>
</g>
</svg>
