<?xml version="1.0" encoding="utf-8"?>
<!-- Generator: Adobe Illustrator 22.1.0, SVG Export Plug-In . SVG Version: 6.00 Build 0)  -->
<svg version="1.1" id="Layer_1" xmlns="http://www.w3.org/2000/svg" xmlns:xlink="http://www.w3.org/1999/xlink" x="0px" y="0px"
	 viewBox="0 0 384 361" style="enable-background:new 0 0 384 361;" xml:space="preserve">
<style type="text/css">
	.st0{fill:#EDEDED;}
	.st1{fill:none;stroke:#6A52DE;stroke-width:13;stroke-linecap:round;stroke-miterlimit:10;}
	.st2{fill:#FFFFFF;stroke:#6A52DE;stroke-width:7.566;stroke-linecap:round;stroke-miterlimit:10;}
	.st3{fill:#6A52DE;stroke:#FFFFFF;stroke-width:7.566;stroke-linecap:round;stroke-miterlimit:10;}
	.st4{fill:#6A52DE;}
	.st5{fill:#FFFFFF;stroke:#6A52DE;stroke-width:7.566;stroke-linejoin:bevel;stroke-miterlimit:10;}
	.st6{fill:none;stroke:#6A52DE;stroke-width:7.566;stroke-linejoin:bevel;stroke-miterlimit:10;}
</style>
<g>
	<path class="st0" d="M355.6,196.2c-3.6,48.8-23.9,96.6-60,129.2c-16.9,16.4-40.5,18.9-59.7,3.8c-18-13.9-33.7-30.1-55.1-32.6
		c-46.1-5-103.6,28.9-140-17.7c-4.5-6.6-8.1-14-10.8-21.6c-10.8-30.6-7.3-66.6,9.1-97.6C74.1,94.4,130.3,50.5,190,27.9
		C227.2,14,264.2,30.4,294,60c7.4,7.4,14.5,15.7,20.9,24.4c19.1,25,32.5,55.2,39.7,87.6C355.6,179.6,355.9,187.8,355.6,196.2z"/>
	<polyline class="st1" points="19.8,247.9 80.3,203.7 157.4,200.2 238.3,141.3 318.9,130.9 359.7,94.7 	"/>
	<polygon class="st2" points="95.2,53.3 286.8,74.6 215.3,110 23.7,88.7 	"/>
	<polygon class="st3" points="95.2,45.7 286.8,67.1 215.3,102.4 23.7,81 	"/>
	<polygon class="st2" points="95.2,38 286.8,59.4 215.3,94.8 23.7,73.5 	"/>
	<polygon class="st3" points="95.2,30.5 286.8,51.8 215.3,87.3 23.7,65.9 	"/>
	<polygon class="st2" points="95.2,22.9 286.8,44.3 215.3,79.6 23.7,58.2 	"/>
	<ellipse transform="matrix(0.9466 -0.3223 0.3223 0.9466 -8.2509 52.7807)" class="st4" cx="155.3" cy="51.3" rx="27.6" ry="6.9"/>
	<path class="st5" d="M73.5,127.2c-21-0.7-37.4-18.3-36.7-39.3s18.3-37.4,39.3-36.7c21,0.7,37.4,18.3,36.7,39.2
		C112.1,111.5,94.5,127.9,73.5,127.2z"/>
	<g>
		<path class="st6" d="M87.8,104.1H64.3c0,0,6.6-7.3,4.5-16.1c-2.1-8.7-1.6-16.7,6.1-17.7c7.7-0.9,10.5,1.6,10.6,10.5"/>
		<line class="st6" x1="61.7" y1="88.8" x2="80.1" y2="88.8"/>
	</g>
	<g>
		<polygon class="st2" points="163.9,265.2 355.5,286.6 284.1,322 92.5,300.6 		"/>
		<polygon class="st3" points="163.9,257.7 355.5,278.9 284.1,314.4 92.5,293 		"/>
		<polygon class="st2" points="163.9,250 355.5,271.4 284.1,306.8 92.5,285.5 		"/>
		<polygon class="st3" points="163.9,242.4 355.5,263.8 284.1,299.2 92.5,277.8 		"/>
		<polygon class="st2" points="163.9,234.9 355.5,256.2 284.1,291.6 92.5,270.2 		"/>
		<ellipse transform="matrix(0.9466 -0.3223 0.3223 0.9466 -72.875 86.2546)" class="st4" cx="224" cy="263.2" rx="27.6" ry="6.9"/>
		<path class="st5" d="M142.3,339.2c-21-0.7-37.4-18.3-36.7-39.3c0.7-21,18.3-37.4,39.3-36.7c21,0.7,37.4,18.3,36.7,39.2
			C180.9,323.4,163.3,339.8,142.3,339.2z"/>
		<path class="st6" d="M156.6,316.1H133c0,0,6.6-7.3,4.5-16.1c-2.1-8.6-1.6-16.7,6.1-17.7c7.7-0.9,10.5,2.6,10.6,10.5"/>
		<line class="st6" x1="130.4" y1="300.7" x2="148.8" y2="300.7"/>
	</g>
</g>
</svg>
