<svg xmlns="http://www.w3.org/2000/svg" viewBox="0 0 600 600"><defs><style>.cls-1{opacity:0.7;}.cls-2{fill:#ededed;}.cls-3,.cls-5{fill:none;stroke:#6a52de;stroke-miterlimit:10;stroke-width:8px;}.cls-4{fill:#6a52de;}.cls-5{stroke-linecap:round;}</style></defs><title>LL icon - tenancy</title><g id="Housemates"><path class="cls-2" d="M597.44,308.78c15.31,115.45-38.29,260.07-154.12,288.59-67,16.29-109.12-46.85-159.86-86.57-10.53-8.15-22-15.28-35.42-12.22-25.84,6.11-45.95,31.57-73.71,24.44C71.91,494.5-10.41,389.6,1.07,273.49c7.66-69.26,75.63-95.74,132.1-96.76,23.93,0,41.16-19.35,52.65-40.74C204,101.37,216.45,64.7,244.21,38.22c59.35-58,154.12-47.87,203.9,16.3C503.63,124.79,562,192,590.75,276.38A217.51,217.51,0,0,1,597.44,308.78Z"/><path class="cls-3" d="M501.34,106.83c1.36-2.1,3.87-5.85,3.87-5.85,2.83-4.43,5.44-8.41,8-12.16a3.21,3.21,0,0,1,3.24-1,87.22,87.22,0,0,1,18,6.29,78.25,78.25,0,0,1,15.55,10.64,2.74,2.74,0,0,1,1.06,2.94c-1.75,3.83-3.7,8.11-6.2,12.69,0,0-2.06,4.5-3.52,6.83-18.33,35.75-46.84,85.91-70.68,127.58l-3.64,6.24c-3.13,5.1-5.94,10.36-8.53,15.16-30.08,52.72-72.63,124-97.28,159.55-13.75,19.59-23.45,32.05-30.32,40.08-3.08-1.14-6.72-2.8-10.37-4.46-3.54-1.89-6.74-3.63-9.52-5.44,2.89-9.85,8.72-24.35,18.26-46.13,17.81-39,56.49-112.28,86.56-165,2.7-5,5.83-10.14,8.64-15.39l3.44-5.78C451.75,191.76,480,141.22,501.34,106.83Z"/><path class="cls-3" d="M501.34,106.83q-1.8,2.91-3.65,5.94c-20.82,34.1-47.29,81.34-69.88,120.89l-3.44,5.78c-2,3.74-4.16,7.41-6.21,11a144.38,144.38,0,0,0,41.06,24.25c2.36-4.39,4.9-9.07,7.71-13.65l3.64-6.24c23.84-41.67,52.35-91.83,70.68-127.58.87-1.38,1.94-3.52,2.68-5a145.22,145.22,0,0,0-39.55-20C503.53,103.51,502.2,105.5,501.34,106.83Z"/><path class="cls-3" d="M553.16,88A36.85,36.85,0,0,0,529.4,76.08c-1.1-.23-1.84.52-2.59,1.27-2.28,3.47-4.72,7.29-7.25,11.3a84.37,84.37,0,0,1,14.8,5.49,75.52,75.52,0,0,1,13,8.52c2.22-4.23,4.16-8.36,6.18-12A2,2,0,0,0,553.16,88Z"/><path class="cls-3" d="M320.43,471.39c-3.53-1.89-6.74-3.63-9.51-5.44-.86,2.7-1.54,5-2,6.92-.22.48.24,1.27.92,1.59a79,79,0,0,0,6.95,3.75l7.17,3.27c.68.31,1.58.14,1.8-.34,1.43-1.46,3.31-3.22,5.07-5.29C327.72,474.71,324.08,473.05,320.43,471.39Z"/><path class="cls-3" d="M330.88,475.75l.12-.13h0Z"/><path class="cls-3" d="M316.76,478.21c-2-.9-3.86-2-5.75-3.07-3.21,10.79-4.07,17.15-2.3,18.46,2,.92,6.83-3.51,14.12-12.62Z"/><path class="cls-4" d="M497.67,111.73c-1.84,0-4.74,5.4-3.85,5.54,7.38,3.1,15.88,7,25.08,11.45q12,5.88,21.22,11.33s6.67,3.59,8.69,5.6-63.12,112.51-63.12,112.51c-8.94,2.46-7.46,7.76-4.73,9.28a4.31,4.31,0,0,0,2.43.71c1.45,0,3.43-.67,5.6-3.3,0,0,63.39-106.68,66.06-111.45,2.87-5.22,3.39-7.44,2.8-9.34-.2-1.72-14.55-9.91-14.55-9.91-6.16-3.63-13.23-7.41-20.82-11.14-9.2-4.48-17.69-8.36-24.67-11.27Z"/><path class="cls-5" d="M308.71,493.6s-14.11-17.67-40.77,3.2c-61.32,57.95-74,14.7-64-50.22s20-65.08-91.4,40.93-8.6-74-.6-208-66,46.95-66,46.95"/></g></svg>