<svg xmlns="http://www.w3.org/2000/svg" viewBox="0 0 600 600"><defs><style>.cls-1{opacity:0.7;}.cls-2{fill:#ededed;}.cls-3{fill:none;stroke-width:8px;}.cls-10,.cls-3,.cls-4,.cls-5,.cls-6{stroke:#8875e5;}.cls-10,.cls-3,.cls-4,.cls-5,.cls-6,.cls-8,.cls-9{stroke-miterlimit:10;}.cls-4,.cls-7{fill:#6a52de;}.cls-10,.cls-4,.cls-5,.cls-6,.cls-8,.cls-9{stroke-width:0;}.cls-5,.cls-8{fill:#fff;}.cls-6,.cls-9{fill:#d2fad6;}.cls-8,.cls-9{stroke:#6a52de;}.cls-10,.cls-11{fill:#8875e5;}</style></defs><title>LL icon split com</title><g id="Housemates"><path class="cls-2" d="M598.89,308.78C614.2,424.23,560.6,568.85,444.77,597.37c-67,16.29-109.13-46.85-159.86-86.57-10.53-8.15-22-15.28-35.42-12.22-25.85,6.11-46,31.57-73.71,24.44C73.36,494.5-9,389.6,2.52,273.49c7.66-69.26,75.62-95.74,132.1-96.76,23.93,0,41.16-19.35,52.65-40.74,18.19-34.62,30.63-71.29,58.39-97.77,59.35-58,154.12-47.87,203.9,16.3C505.08,124.79,563.47,192,592.2,276.38A218.78,218.78,0,0,1,598.89,308.78Z"/><polyline class="cls-3" points="20.59 406.91 119.95 334.31 246.7 328.65 379.63 231.65 511.93 214.73 579.12 155.07"/><polygon class="cls-4" points="397.93 149.1 288.22 203.45 18.64 173.42 128.36 119.07 397.93 149.1"/><polygon class="cls-5" points="129.22 123.92 381.4 152.01 287.36 198.6 35.18 170.51 129.22 123.92"/><polygon class="cls-6" points="364.87 154.93 286.5 193.75 51.71 167.59 130.07 128.77 364.87 154.93"/><ellipse class="cls-5" cx="208.29" cy="161.26" rx="36.32" ry="9.06" transform="translate(-40.87 75.78) rotate(-18.81)"/><polygon class="cls-4" points="398.14 142.67 288.43 197.02 18.86 166.99 128.57 112.64 398.14 142.67"/><polygon class="cls-5" points="129.43 117.49 381.61 145.59 287.57 192.17 35.39 164.08 129.43 117.49"/><polygon class="cls-6" points="365.08 148.5 286.71 187.32 51.92 161.17 130.29 122.34 365.08 148.5"/><ellipse class="cls-5" cx="208.5" cy="154.83" rx="36.32" ry="9.06" transform="translate(-38.79 75.51) rotate(-18.81)"/><polygon class="cls-4" points="398.36 136.24 288.64 190.59 19.07 160.57 128.78 106.22 398.36 136.24"/><polygon class="cls-5" points="129.64 111.07 381.82 139.16 287.78 185.74 35.6 157.65 129.64 111.07"/><polygon class="cls-6" points="365.29 142.07 286.93 180.89 52.13 154.74 130.5 115.92 365.29 142.07"/><ellipse class="cls-5" cx="208.71" cy="148.41" rx="36.32" ry="9.06" transform="translate(-36.71 75.23) rotate(-18.81)"/><polygon class="cls-4" points="398.57 129.82 288.86 184.17 19.28 154.14 128.99 99.79 398.57 129.82"/><polygon class="cls-5" points="129.85 104.64 382.03 132.73 288 179.32 35.81 151.22 129.85 104.64"/><polygon class="cls-6" points="365.5 135.64 287.14 174.47 52.34 148.31 130.71 109.49 365.5 135.64"/><ellipse class="cls-5" cx="208.92" cy="141.98" rx="36.32" ry="9.06" transform="translate(-34.62 74.96) rotate(-18.81)"/><polygon class="cls-7" points="398.78 123.39 289.07 177.74 19.49 147.71 129.2 93.36 398.78 123.39"/><polygon class="cls-8" points="130.06 98.21 382.25 126.3 288.21 172.89 36.02 144.8 130.06 98.21"/><polygon class="cls-9" points="365.71 129.22 287.35 168.04 52.55 141.88 130.92 103.06 365.71 129.22"/><ellipse class="cls-8" cx="209.13" cy="135.55" rx="36.32" ry="9.06" transform="translate(-32.54 74.68) rotate(-18.81)"/><polygon class="cls-4" points="398.99 116.96 289.28 171.31 19.7 141.28 129.41 86.94 398.99 116.96"/><polygon class="cls-5" points="130.27 91.79 382.46 119.88 288.42 166.46 36.23 138.37 130.27 91.79"/><polygon class="cls-6" points="365.93 122.79 287.56 161.61 52.77 135.46 131.13 96.64 365.93 122.79"/><ellipse class="cls-5" cx="209.35" cy="129.12" rx="36.32" ry="9.06" transform="matrix(0.95, -0.32, 0.32, 0.95, -30.46, 74.41)"/><polygon class="cls-4" points="399.2 110.54 289.49 164.89 19.91 134.86 129.63 80.51 399.2 110.54"/><polygon class="cls-5" points="130.48 85.36 382.67 113.45 288.63 160.04 36.45 131.94 130.48 85.36"/><polygon class="cls-10" points="366.14 116.36 287.77 155.19 52.98 129.03 131.34 90.21 366.14 116.36"/><ellipse class="cls-5" cx="209.56" cy="122.7" rx="36.32" ry="9.06" transform="translate(-28.37 74.13) rotate(-18.81)"/><circle class="cls-4" cx="103.24" cy="171.63" r="60.02"/><path class="cls-5" d="M101.59,221.62a50,50,0,1,1,51.64-48.35A50.07,50.07,0,0,1,101.59,221.62Z"/><path class="cls-11" d="M99.83,185.28a16.81,16.81,0,0,1-4.14,5.37l24.54.81-.2,6.25-32.18-1.06L87,192.57a23.4,23.4,0,0,0,5-6,16.11,16.11,0,0,0,1.79-7.27,16.87,16.87,0,0,0-.37-3.52l-8.11-.27.17-5.36,6.4.21c-.58-2-1-3.87-1.34-5.51a23.41,23.41,0,0,1-.38-5.14,14,14,0,0,1,2.14-7.3,12.88,12.88,0,0,1,5.48-4.74,17.24,17.24,0,0,1,8-1.49q7.21.24,11.21,4.43a16.5,16.5,0,0,1,4.39,10.74l-7.29-.24a9.35,9.35,0,0,0-2.41-6,8,8,0,0,0-5.84-2.46,7.72,7.72,0,0,0-5.71,2,8.38,8.38,0,0,0-2.4,6.15,16,16,0,0,0,.44,4.28c.35,1.43.87,3.29,1.57,5.56l12.45.41-.18,5.36L101.06,176a18.81,18.81,0,0,1,.23,3.38A14.81,14.81,0,0,1,99.83,185.28Z"/><polygon class="cls-4" points="578.02 435.7 468.3 490.05 198.73 460.02 308.44 405.67 578.02 435.7"/><polygon class="cls-5" points="309.3 410.52 561.48 438.61 467.44 485.2 215.26 457.11 309.3 410.52"/><polygon class="cls-6" points="544.95 441.53 466.59 480.35 231.79 454.19 310.16 415.37 544.95 441.53"/><ellipse class="cls-5" cx="388.37" cy="447.86" rx="36.32" ry="9.06" transform="translate(-123.68 149.17) rotate(-18.81)"/><polygon class="cls-4" points="578.23 429.27 468.52 483.62 198.94 453.6 308.65 399.25 578.23 429.27"/><polygon class="cls-5" points="309.51 404.1 561.7 432.19 467.66 478.77 215.47 450.68 309.51 404.1"/><polygon class="cls-6" points="545.16 435.1 466.8 473.92 232 447.77 310.37 408.95 545.16 435.1"/><ellipse class="cls-5" cx="388.58" cy="441.43" rx="36.32" ry="9.06" transform="translate(-121.59 148.89) rotate(-18.81)"/><polygon class="cls-4" points="578.44 422.85 468.73 477.2 199.15 447.17 308.86 392.82 578.44 422.85"/><polygon class="cls-5" points="309.72 397.67 561.91 425.76 467.87 472.35 215.68 444.25 309.72 397.67"/><polygon class="cls-6" points="545.37 428.67 467.01 467.5 232.22 441.34 310.58 402.52 545.37 428.67"/><ellipse class="cls-5" cx="388.8" cy="435.01" rx="36.32" ry="9.06" transform="translate(-119.51 148.62) rotate(-18.81)"/><polygon class="cls-4" points="578.65 416.42 468.94 470.77 199.36 440.74 309.07 386.39 578.65 416.42"/><polygon class="cls-5" points="309.93 391.24 562.12 419.33 468.08 465.92 215.9 437.83 309.93 391.24"/><polygon class="cls-6" points="545.59 422.25 467.22 461.07 232.43 434.91 310.79 396.09 545.59 422.25"/><ellipse class="cls-5" cx="389.01" cy="428.58" rx="36.32" ry="9.06" transform="translate(-117.42 148.34) rotate(-18.81)"/><polygon class="cls-7" points="578.86 409.99 469.15 464.34 199.57 434.31 309.29 379.96 578.86 409.99"/><polygon class="cls-8" points="310.14 384.81 562.33 412.91 468.29 459.49 216.11 431.4 310.14 384.81"/><polygon class="cls-9" points="545.8 415.82 467.43 454.64 232.64 428.49 311 389.67 545.8 415.82"/><ellipse class="cls-8" cx="389.22" cy="422.15" rx="36.32" ry="9.06" transform="translate(-115.34 148.07) rotate(-18.81)"/><polygon class="cls-4" points="579.07 403.57 469.36 457.92 199.79 427.89 309.5 373.54 579.07 403.57"/><polygon class="cls-5" points="310.36 378.39 562.54 406.48 468.5 453.06 216.32 424.97 310.36 378.39"/><polygon class="cls-6" points="546.01 409.39 467.64 448.21 232.85 422.06 311.22 383.24 546.01 409.39"/><ellipse class="cls-5" cx="389.43" cy="415.73" rx="36.32" ry="9.06" transform="translate(-113.26 147.79) rotate(-18.81)"/><polygon class="cls-4" points="579.28 397.14 469.57 451.49 200 421.46 309.71 367.11 579.28 397.14"/><polygon class="cls-5" points="310.57 371.96 562.75 400.05 468.71 446.64 216.53 418.55 310.57 371.96"/><polygon class="cls-10" points="546.22 402.97 467.85 441.79 233.06 415.63 311.43 376.81 546.22 402.97"/><ellipse class="cls-5" cx="389.64" cy="409.3" rx="36.32" ry="9.06" transform="translate(-111.17 147.51) rotate(-18.81)"/><circle class="cls-4" cx="283.32" cy="458.23" r="60.02"/><path class="cls-5" d="M281.68,508.22a50,50,0,1,1,51.63-48.35A50.07,50.07,0,0,1,281.68,508.22Z"/><path class="cls-11" d="M279.91,471.88a16.57,16.57,0,0,1-4.14,5.37l24.55.81-.21,6.26-32.17-1.06-.83-4.09a23.23,23.23,0,0,0,5-6,16,16,0,0,0,1.79-7.27,16.27,16.27,0,0,0-.37-3.52l-8.11-.27.18-5.36L272,457c-.57-2-1-3.87-1.33-5.51a23.36,23.36,0,0,1-.38-5.14,14.06,14.06,0,0,1,2.13-7.3,12.9,12.9,0,0,1,5.49-4.74,17.17,17.17,0,0,1,8-1.49q7.21.24,11.21,4.43a16.53,16.53,0,0,1,4.4,10.74l-7.29-.24a9.3,9.3,0,0,0-2.42-6,8,8,0,0,0-5.84-2.46,7.72,7.72,0,0,0-5.7,2,8.35,8.35,0,0,0-2.41,6.15,16.44,16.44,0,0,0,.44,4.28q.52,2.16,1.57,5.56l12.45.41-.17,5.36-10.94-.36a18,18,0,0,1,.23,3.38A14.81,14.81,0,0,1,279.91,471.88Z"/></g></svg>