<svg xmlns="http://www.w3.org/2000/svg" viewBox="0 0 600 600"><defs><style>.cls-1{opacity:0.7;}.cls-2{fill:#ededed;}.cls-3,.cls-4{fill:none;stroke:#6a52de;}.cls-3,.cls-4,.cls-6{stroke-miterlimit:10;}.cls-3{stroke-width:14.45px;}.cls-4{stroke-width:8px;}.cls-5,.cls-6{fill:#6a52de;}.cls-6{stroke:#d2fad6;}</style></defs><title>LL icon make your money</title><g id="Housemates"><path class="cls-2" d="M597.44,308.78c15.31,115.45-38.29,260.07-154.12,288.59-67,16.29-109.12-46.85-159.86-86.57-10.53-8.15-22-15.28-35.42-12.22-25.84,6.11-45.95,31.57-73.71,24.44C71.91,494.5-10.41,389.6,1.07,273.49c7.66-69.26,75.63-95.74,132.1-96.76,23.93,0,41.16-19.35,52.65-40.74C204,101.37,216.45,64.7,244.21,38.22c59.35-58,154.12-47.87,203.9,16.3C503.63,124.79,562,192,590.75,276.38A217.51,217.51,0,0,1,597.44,308.78Z"/><rect class="cls-3" x="41" y="76.63" width="7" height="443.4"/><rect class="cls-3" x="87" y="512.02" width="472" height="11.34"/><rect class="cls-4" x="99" y="332.02" width="82" height="180"/><rect class="cls-4" x="261.75" y="219.02" width="93" height="293"/><rect class="cls-4" x="437" y="84.65" width="93" height="427.38"/><path class="cls-5" d="M136.11,440.11a22.11,22.11,0,0,1-5.2,7.24h32.28v8.22H120.88l-1.27-5.33a30.49,30.49,0,0,0,6.28-8.1,21.06,21.06,0,0,0,2-9.63,21.94,21.94,0,0,0-.63-4.61H116.63v-7H125c-.84-2.65-1.51-5.05-2-7.19a30.14,30.14,0,0,1-.73-6.74,18.44,18.44,0,0,1,2.49-9.67,16.79,16.79,0,0,1,7-6.47,22.7,22.7,0,0,1,10.41-2.31q9.5,0,14.92,5.34a21.71,21.71,0,0,1,6.23,13.93h-9.58a12.22,12.22,0,0,0-3.44-7.78,10.5,10.5,0,0,0-7.77-3,10.13,10.13,0,0,0-7.42,2.85q-2.9,2.85-2.89,8.18a20.84,20.84,0,0,0,.77,5.61c.51,1.87,1.28,4.29,2.3,7.24h16.37v7H137.33a24.71,24.71,0,0,1,.45,4.43A19.51,19.51,0,0,1,136.11,440.11Z"/><path class="cls-5" d="M304.36,440.11a22.11,22.11,0,0,1-5.2,7.24h32.28v8.22H289.13l-1.27-5.33a30.49,30.49,0,0,0,6.28-8.1,21.06,21.06,0,0,0,2-9.63,21.94,21.94,0,0,0-.63-4.61H284.88v-7h8.4c-.84-2.65-1.51-5.05-2-7.19a30.14,30.14,0,0,1-.73-6.74,18.44,18.44,0,0,1,2.49-9.67,16.79,16.79,0,0,1,7-6.47,22.7,22.7,0,0,1,10.41-2.31q9.5,0,14.92,5.34a21.71,21.71,0,0,1,6.23,13.93H322A12.22,12.22,0,0,0,318.6,400a10.5,10.5,0,0,0-7.77-3,10.13,10.13,0,0,0-7.42,2.85q-2.9,2.85-2.89,8.18a20.84,20.84,0,0,0,.77,5.61c.51,1.87,1.28,4.29,2.3,7.24H320v7H305.58a24.71,24.71,0,0,1,.45,4.43A19.51,19.51,0,0,1,304.36,440.11Z"/><path class="cls-6" d="M479.61,440.11a22.11,22.11,0,0,1-5.2,7.24h32.28v8.22H464.38l-1.27-5.33a30.49,30.49,0,0,0,6.28-8.1,21.06,21.06,0,0,0,2-9.63,21.94,21.94,0,0,0-.63-4.61H460.13v-7h8.4c-.84-2.65-1.51-5.05-2-7.19a30.14,30.14,0,0,1-.73-6.74,18.44,18.44,0,0,1,2.49-9.67,16.79,16.79,0,0,1,7-6.47,22.7,22.7,0,0,1,10.41-2.31q9.5,0,14.92,5.34a21.71,21.71,0,0,1,6.23,13.93h-9.58a12.22,12.22,0,0,0-3.44-7.78,10.5,10.5,0,0,0-7.77-3,10.13,10.13,0,0,0-7.42,2.85q-2.9,2.85-2.89,8.18a20.84,20.84,0,0,0,.77,5.61c.51,1.87,1.28,4.29,2.3,7.24h16.37v7H480.83a24.71,24.71,0,0,1,.45,4.43A19.51,19.51,0,0,1,479.61,440.11Z"/><path class="cls-5" d="M304.36,313.41a22.11,22.11,0,0,1-5.2,7.24h32.28v8.22H289.13l-1.27-5.33a30.49,30.49,0,0,0,6.28-8.1,21.06,21.06,0,0,0,2-9.63,21.94,21.94,0,0,0-.63-4.61H284.88v-7.05h8.4c-.84-2.65-1.51-5-2-7.19a30.14,30.14,0,0,1-.73-6.74,18.5,18.5,0,0,1,2.49-9.68,16.84,16.84,0,0,1,7-6.46,22.57,22.57,0,0,1,10.41-2.31q9.5,0,14.92,5.34A21.71,21.71,0,0,1,331.62,281H322a12.22,12.22,0,0,0-3.44-7.78,10.5,10.5,0,0,0-7.77-3,10.13,10.13,0,0,0-7.42,2.85q-2.9,2.85-2.89,8.18a20.84,20.84,0,0,0,.77,5.61q.76,2.8,2.3,7.24H320v7.05H305.58a24.71,24.71,0,0,1,.45,4.43A19.51,19.51,0,0,1,304.36,313.41Z"/><path class="cls-5" d="M479.61,313.41a22.11,22.11,0,0,1-5.2,7.24h32.28v8.22H464.38l-1.27-5.33a30.49,30.49,0,0,0,6.28-8.1,21.06,21.06,0,0,0,2-9.63,21.94,21.94,0,0,0-.63-4.61H460.13v-7.05h8.4c-.84-2.65-1.51-5-2-7.19a30.14,30.14,0,0,1-.73-6.74,18.5,18.5,0,0,1,2.49-9.68,16.84,16.84,0,0,1,7-6.46,22.57,22.57,0,0,1,10.41-2.31q9.5,0,14.92,5.34A21.71,21.71,0,0,1,506.87,281h-9.58a12.22,12.22,0,0,0-3.44-7.78,10.5,10.5,0,0,0-7.77-3,10.13,10.13,0,0,0-7.42,2.85q-2.9,2.85-2.89,8.18a20.84,20.84,0,0,0,.77,5.61q.76,2.8,2.3,7.24h16.37v7.05H480.83a24.71,24.71,0,0,1,.45,4.43A19.51,19.51,0,0,1,479.61,313.41Z"/><path class="cls-5" d="M479.61,186.71a22.11,22.11,0,0,1-5.2,7.24h32.28v8.22H464.38l-1.27-5.33a30.49,30.49,0,0,0,6.28-8.1,21.06,21.06,0,0,0,2-9.63,21.94,21.94,0,0,0-.63-4.61H460.13v-7.06h8.4c-.84-2.64-1.51-5-2-7.19a30,30,0,0,1-.73-6.73,18.5,18.5,0,0,1,2.49-9.68,16.84,16.84,0,0,1,7-6.46,22.57,22.57,0,0,1,10.41-2.31q9.5,0,14.92,5.34a21.71,21.71,0,0,1,6.23,13.93h-9.58a12.22,12.22,0,0,0-3.44-7.78,10.46,10.46,0,0,0-7.77-3,10.13,10.13,0,0,0-7.42,2.85q-2.9,2.85-2.89,8.18a20.84,20.84,0,0,0,.77,5.61q.76,2.81,2.3,7.23h16.37v7.06H480.83a24.71,24.71,0,0,1,.45,4.43A19.51,19.51,0,0,1,479.61,186.71Z"/></g></svg>