<?xml version="1.0" encoding="utf-8"?>
<!-- Generator: Adobe Illustrator 22.1.0, SVG Export Plug-In . SVG Version: 6.00 Build 0)  -->
<svg version="1.1" id="Layer_1" xmlns="http://www.w3.org/2000/svg" xmlns:xlink="http://www.w3.org/1999/xlink" x="0px" y="0px"
	 viewBox="0 0 384 361" style="enable-background:new 0 0 384 361;" xml:space="preserve">
<style type="text/css">
	.st0{fill:#EDEDED;}
	.st1{fill:#FFFFFF;stroke:#6A52DE;stroke-width:10;stroke-linejoin:round;stroke-miterlimit:10;}
	.st2{fill:none;stroke:#6A52DE;stroke-width:10;stroke-miterlimit:10;}
	.st3{fill:none;stroke:#6A52DE;stroke-width:10;stroke-linecap:round;stroke-miterlimit:10;}
</style>
<g>
	<path class="st0" d="M352.4,182.7c8.1,61.4-20.4,138.3-81.9,153.4c-35.6,8.7-58-24.9-85-46c-5.6-4.3-11.7-8.1-18.8-6.5
		c-13.7,3.2-24.4,16.8-39.2,13c-54.5-15.2-98.2-71-92.1-132.7c4-36.8,40.2-50.9,70.2-51.4c12.7,0,21.9-10.3,28-21.7
		c9.7-18.4,16.3-37.9,31-52C196.2,8,246.5,13.3,273,47.5c29.5,37.4,60.6,73.1,75.8,118C350.5,171.1,351.7,176.8,352.4,182.7z"/>
	<path class="st1" d="M333.9,45.3c1-1.5,2.8-4.1,2.8-4.1c2-3.1,3.8-5.9,5.6-8.5c0.6-0.7,1.5-0.9,2.3-0.7c4.3,1,8.5,2.5,12.6,4.4
		c3.9,2.1,7.6,4.5,10.9,7.5c0.7,0.5,1,1.3,0.8,2.1c-1.2,2.7-2.6,5.7-4.3,8.8c0,0-1.5,3.1-2.5,4.8c-13,25.1-32.9,60.1-49.6,89.3
		l-2.6,4.3c-2.2,3.5-4.1,7.3-6,10.6c-21,36.8-50.8,86.7-68.1,111.6c-9.6,13.8-16.4,22.4-21.2,28c-2.2-0.8-4.7-2-7.3-3.1
		c-2.5-1.3-4.7-2.6-6.7-3.8c2.1-6.9,6.1-17,12.8-32.3c12.5-27.3,39.5-78.6,60.5-115.4c1.9-3.5,4.1-7.1,6.1-10.8l2.4-4
		C299.1,104.7,318.9,69.4,333.9,45.3z"/>
	<path class="st2" d="M333.9,45.3c-0.9,1.4-1.7,2.8-2.6,4.1c-14.5,23.9-33.1,56.9-48.9,84.6l-2.4,4c-1.4,2.7-2.9,5.2-4.3,7.7
		c8.5,7.2,18.3,13,28.7,17c1.7-3,3.4-6.4,5.4-9.5l2.6-4.3c16.7-29.2,36.6-64.2,49.4-89.3c0.6-1,1.4-2.5,1.9-3.5
		c-8.4-6.1-17.8-10.8-27.7-13.9C335.3,43,334.5,44.4,333.9,45.3z"/>
	<path class="st2" d="M214.6,303.5L214.6,303.5L214.6,303.5L214.6,303.5z"/>
	<path class="st2" d="M204.7,305.1c-1.4-0.6-2.7-1.4-4-2.2c-2.3,7.6-2.8,12-1.6,12.9c1.4,0.7,4.8-2.5,9.9-8.8L204.7,305.1z"/>
	<path class="st3" d="M319.7,49.1c5.2,2.2,16.8,8.8,23.3,12c5.6,2.8,10.5,5.4,14.8,8c6.5,3.8,12.9,7.8,14.2,9.1
		c1.4,1.4-44.2,78.7-44.2,78.7"/>
	<path class="st3" d="M199.1,315.9c0,0-10-12.6-29,2.3c-43.7,41.3-52.7,10.5-45.6-35.8c7.1-46.2,14.2-46.3-65.1,29.1
		s-6.1-52.7-0.4-148.1s-47,33.4-47,33.4"/>
</g>
</svg>
