<?xml version="1.0" encoding="utf-8"?>
<!-- Generator: Adobe Illustrator 22.1.0, SVG Export Plug-In . SVG Version: 6.00 Build 0)  -->
<svg version="1.1" id="Layer_1" xmlns="http://www.w3.org/2000/svg" xmlns:xlink="http://www.w3.org/1999/xlink" x="0px" y="0px"
	 viewBox="0 0 384 361" style="enable-background:new 0 0 384 361;" xml:space="preserve">
<style type="text/css">
	.st0{fill:#EDEDED;}
	.st1{fill:none;stroke:#6A52DE;stroke-width:9.8476;stroke-miterlimit:10;}
	.st2{fill:none;stroke:#6A52DE;stroke-width:10;stroke-miterlimit:10;}
	.st3{fill:#FFFFFF;stroke:#6A52DE;stroke-width:9.8476;stroke-miterlimit:10;}
	.st4{fill:none;stroke:#6A52DE;stroke-width:9.8476;stroke-linejoin:bevel;stroke-miterlimit:10;}
</style>
<g>
	<path class="st0" d="M358,178.2c7,25.3,18.3,51.6,7,76.9c-21.6,50.7-80.8,66.7-130.6,79.8c-30.1,8.5-59.2-4.7-81.7-25.4
		c-28.2-26.3-60.1-43.2-93-61.1c-64.9-34.6-63-135.1-19.8-197.1C70,8.1,126.3,11.8,166.7,38.1c20.7,13.2,38.5,45.1,62.9,33.8
		c18.8-8.5,37.6-22.5,59.2-11.3c35.7,19.7,55.4,56.4,62.2,94.7C353.3,162.8,355.5,170.4,358,178.2z"/>
	<line class="st1" x1="26" y1="337.6" x2="375" y2="337.6"/>
	<line class="st2" x1="31.1" y1="337.5" x2="31.1" y2="45"/>
	<g>
		<polyline class="st1" points="87.1,218.5 138.9,128.3 191.9,157.8 242.9,62.1 293.8,89.8 325.8,31.2 		"/>
		<polygon class="st1" points="327.2,46.3 313.6,37.3 327.2,28.4 		"/>
	</g>
	<g>
		<rect x="73.8" y="238.4" class="st3" width="58.7" height="97.1"/>
		<rect x="262.3" y="107" class="st3" width="66.5" height="230.6"/>
		<g>
			<path class="st4" d="M116.3,304H92.5c0,0,6.7-7.4,4.6-16.2s-1.7-16.8,6.1-17.8s10.9,3.8,10.7,10.6"/>
			<line class="st4" x1="89.9" y1="288.5" x2="108.4" y2="288.5"/>
		</g>
		<g>
			<path class="st4" d="M308.8,306H285c0,0,6.7-7.4,4.6-16.2s-1.7-16.8,6.1-17.8s10.8,2.5,10.8,10.7"/>
			<line class="st4" x1="282.4" y1="290.5" x2="300.9" y2="290.5"/>
		</g>
		<g>
			<rect x="164.1" y="179.5" class="st3" width="66.5" height="158.1"/>
			<g>
				<path class="st4" d="M210.5,306h-23.8c0,0,6.7-7.4,4.6-16.2c-2.1-8.7-1.7-16.8,6.1-17.8c7.8-0.9,10.8,4.4,10.7,10.6"/>
				<line class="st4" x1="184.1" y1="290.5" x2="202.7" y2="290.5"/>
			</g>
			<g>
				<path class="st4" d="M210.5,237.1h-23.8c0,0,6.7-7.4,4.6-16.2c-2.1-8.7-1.7-16.8,6.1-17.8c7.8-0.9,10.8,4.1,10.7,10.6"/>
				<line class="st4" x1="184.1" y1="221.6" x2="202.7" y2="221.6"/>
			</g>
		</g>
		<g>
			<path class="st4" d="M308.8,237.1H285c0,0,6.7-7.4,4.6-16.2s-1.7-16.8,6.1-17.8c7.8-0.9,10.7,3.9,10.7,10.6"/>
			<line class="st4" x1="282.4" y1="221.6" x2="300.9" y2="221.6"/>
		</g>
		<g>
			<path class="st4" d="M308.8,168.2H285c0,0,6.7-7.4,4.6-16.2s-1.7-16.8,6.1-17.8c7.8-0.9,10.7,3.3,10.7,10.6"/>
			<line class="st4" x1="282.4" y1="152.7" x2="300.9" y2="152.7"/>
		</g>
	</g>
</g>
</svg>
