<svg id="Layer_1" data-name="Layer 1" xmlns="http://www.w3.org/2000/svg" viewBox="0 0 1922.7 578.6"><defs><style>.cls-1{fill:#f5f7f9;}.cls-2{opacity:0.6;}.cls-3{fill:#fff;}</style></defs><title>HousemateBG</title><path class="cls-1" d="M1920,0V514.9c-38.4,2.2-174.9-18.7-356,1.7-141.7,16-216,63.4-491.8,56.9-200.7-4.7-325.1-43.2-542.2-84.2-322.2-60.9-494.8,57.2-530,59L.4,91.4H0C151.6,46.9,336.8,17,544.8,44c382.6,49.5,599.9-63.8,834.3-29.4C1667.2,57,1914.6,2.7,1920,0Z" transform="translate(0)"/><g class="cls-2"><path class="cls-3" d="M217.2,109.5a3.69,3.69,0,0,0,1-2.4c.2-.9-1.3-2.5-.8-3.3.1-.4.9-.6,1.7-.7a1.09,1.09,0,0,1,.5-.1.9.9,0,0,1,.5-.1c.3-.2.4-.3.4-.5.3-.9-1.2-2.5-.8-3.3s2.5-.8,3-1.5a.82.82,0,0,0,.1-.7,2,2,0,0,0-.5-.9c-.5-.7-.7-1.3-.5-1.7.3-.8,2.4-.8,3-1.5a3.6,3.6,0,0,0,1.3-2.3l2.4,1.1a3.69,3.69,0,0,0-1,2.4c-.2.9,1.1,2.4.8,3.3-.1.4-.8.7-1.6.8a2.93,2.93,0,0,0-1,.3c-.3.2-.4.3-.4.5-.3.9,1.2,2.5.8,3.3s-2.5.8-3,1.5a.66.66,0,0,0-.1.6,4.33,4.33,0,0,1,.1.5c.1.2.2.3.2.5.4.7.7,1.3.5,1.7-.3.9-2.4.8-3,1.5a3.6,3.6,0,0,0-1.3,2.3Z" transform="translate(0)"/></g><g class="cls-2"><path class="cls-3" d="M1569.5,434.7a7,7,0,0,0-3.5-1.9c-1.3-.4-3.4.6-4.5-.2a1.85,1.85,0,0,1-.7-.8c-.2-.4-.3-.8-.5-1.2-.3-.9-.6-1.5-1.3-1.7a3.31,3.31,0,0,0-2.2,0,2.47,2.47,0,0,1-2.1-.2,4.2,4.2,0,0,1-1.3-1.8,4,4,0,0,0-1.2-2,1.49,1.49,0,0,0-.9-.4,5,5,0,0,0-1.2.2,2.4,2.4,0,0,1-2.2,0c-1.2-.6-1.3-2.9-2.3-3.7a6.06,6.06,0,0,0-3.3-2l1.3-2.3a7.5,7.5,0,0,0,3.5,1.9c1.3.4,3.3-.5,4.5.2.6.3.9,1,1.2,2a4.33,4.33,0,0,0,.5,1.2,1,1,0,0,0,.8.6,4.09,4.09,0,0,0,2.2,0,2.47,2.47,0,0,1,2.1.2,4.2,4.2,0,0,1,1.3,1.8,4,4,0,0,0,1.2,2,2.47,2.47,0,0,0,2.1.2c.4-.1.9-.2,1.2-.3a1.64,1.64,0,0,1,1,.2c1.3.5,1.3,2.9,2.3,3.7a6.06,6.06,0,0,0,3.3,2Z" transform="translate(0)"/></g><g class="cls-2"><path class="cls-3" d="M1629.1,457.6a7,7,0,0,0-3.5-1.9c-1.3-.4-3.4.6-4.5-.2a1.85,1.85,0,0,1-.7-.8c-.2-.4-.3-.8-.5-1.2-.3-.9-.6-1.5-1.3-1.7a3.31,3.31,0,0,0-2.2,0,2.47,2.47,0,0,1-2.1-.2,4.2,4.2,0,0,1-1.3-1.8,4,4,0,0,0-1.2-2,1.49,1.49,0,0,0-.9-.4,5,5,0,0,0-1.2.2,2.4,2.4,0,0,1-2.2,0c-1.2-.6-1.3-2.9-2.3-3.7a6.06,6.06,0,0,0-3.3-2l1.3-2.3a7.5,7.5,0,0,0,3.5,1.9c1.3.4,3.3-.5,4.5.2.6.3.9,1,1.2,2a4.33,4.33,0,0,0,.5,1.2,1,1,0,0,0,.8.6,4.09,4.09,0,0,0,2.2,0,2.47,2.47,0,0,1,2.1.2,4.2,4.2,0,0,1,1.3,1.8,4,4,0,0,0,1.2,2,2.47,2.47,0,0,0,2.1.2c.4-.1.9-.2,1.2-.3a1.64,1.64,0,0,1,1,.2c1.3.5,1.3,2.9,2.3,3.7a6.06,6.06,0,0,0,3.3,2Z" transform="translate(0)"/></g><g class="cls-2"><path class="cls-3" d="M1577.6,451.2a20.81,20.81,0,0,0-2.3,6.9c-.6,2.3.5,5.4-.5,7.6a4.69,4.69,0,0,1-1,1.6,18.48,18.48,0,0,1-1.4,1.4,5.39,5.39,0,0,0-2,3.1,9.66,9.66,0,0,0-.2,3.8,9.66,9.66,0,0,1-.3,3.8,9,9,0,0,1-2.1,3.1,12.65,12.65,0,0,0-2.3,3,6,6,0,0,0-.3,3.8,6.11,6.11,0,0,1-.2,3.8c-.8,2.3-3.4,3.9-4.4,6.1a33.1,33.1,0,0,0-1.5,3.3,35.8,35.8,0,0,0-1.1,3.5l-2.5-.9a14.34,14.34,0,0,0,1.4-3.4c.3-1.2.7-2.3.9-3.6.6-2.3-.4-5.3.5-7.6a6.35,6.35,0,0,1,2.2-3,5.28,5.28,0,0,0,2.1-3.1,9.66,9.66,0,0,0,.2-3.8,9.66,9.66,0,0,1,.3-3.8,9,9,0,0,1,2.1-3.1,12.65,12.65,0,0,0,2.3-3,6.71,6.71,0,0,0,.4-3.8,13.55,13.55,0,0,1-.2-2,5.23,5.23,0,0,1,.3-1.8c.7-2.3,3.4-3.9,4.4-6.1a23.36,23.36,0,0,0,2.6-6.8Z" transform="translate(0)"/></g><g class="cls-2"><path class="cls-3" d="M1493.1,478.6c2.9,1.6,5.6,2.8,8.3,4.1a46.64,46.64,0,0,0,8.3,3.1c1.4.4,2.9.6,4.4,1.1a24.23,24.23,0,0,1,4.6,1.8,17.11,17.11,0,0,1,4.2,2.8c1.3,1.1,2.5,2.2,3.8,3.2l2.8,2.1-2.6,1a21.32,21.32,0,0,0-7.4,5.1c-1.1,1.1-2.1,2.2-3.2,3.3a19.35,19.35,0,0,1-3.6,2.8,25.24,25.24,0,0,1-4,2.1c-1.4.6-2.9,1.1-4.4,1.6a20.92,20.92,0,0,0-7.8,4.7l-2,2-.9-3.5c-.4-1.5-1-3.1-1.4-4.8a16.72,16.72,0,0,1-.6-5,37.49,37.49,0,0,1,.3-4.8c.3-1.5.6-3,.8-4.5a65.06,65.06,0,0,0,.6-8.8A74.53,74.53,0,0,0,1493.1,478.6Zm1.4,2.3c.1,2.7.3,5.7.6,8.7a59.51,59.51,0,0,0,1.5,9.1c.4,1.5.8,3.1,1.3,4.5a34.29,34.29,0,0,1,.8,4.2,9.08,9.08,0,0,1-.3,4c-.3,1.3-.7,2.8-1,4.2l-2.9-1.5a21.28,21.28,0,0,0,7.5-5.1c1.1-1.1,2.1-2.2,3.2-3.3a19.35,19.35,0,0,1,3.6-2.8,25.24,25.24,0,0,1,4-2.1c1.4-.5,2.9-1.1,4.4-1.6a23.66,23.66,0,0,0,7.8-4.6l.2,3.2c-1.4-.4-2.9-.6-4.2-.9a13.41,13.41,0,0,1-3.8-1.4,18.23,18.23,0,0,1-3.5-2.4c-1.2-1-2.3-2-3.6-3a61.26,61.26,0,0,0-7.7-5.2C1499.6,483.5,1497,482,1494.5,480.9Z" transform="translate(0)"/></g><g class="cls-2"><path class="cls-3" d="M1510.6,456.7a17.4,17.4,0,0,1,1.5-7.1,27.11,27.11,0,0,1,3.8-6.3,27.88,27.88,0,0,1,5.6-5.2,13.76,13.76,0,0,1,7.7-2.4,16.46,16.46,0,0,1,2.1.2,14.62,14.62,0,0,0,2,.5,16.32,16.32,0,0,1,1.9.9c.6.4,1.2.7,1.7,1.1,2.1,1.6,3.9,3.3,5.8,4.9a35.62,35.62,0,0,1,5.2,5.7,13,13,0,0,1,2.4,7.7,14,14,0,0,1-2.4,7.7,35.62,35.62,0,0,1-5.2,5.7,15.93,15.93,0,0,0-1.3,1.3c-.4.4-.9.8-1.4,1.3a16.61,16.61,0,0,0-1.4,1.3,17.38,17.38,0,0,0-1.5,1.3,9.91,9.91,0,0,1-1.7,1.1c-.6.3-1.2.6-1.9.9a11.7,11.7,0,0,1-2,.5c-.7.1-1.3.1-2.1.2a14.11,14.11,0,0,1-7.7-2.5,28.48,28.48,0,0,1-5.7-5.2,22.35,22.35,0,0,1-3.9-6.2A24.38,24.38,0,0,1,1510.6,456.7Zm2.7,0a16.68,16.68,0,0,0,1.2,6.2,13.42,13.42,0,0,0,3.7,5.1,12.12,12.12,0,0,0,5.6,2.4,35.79,35.79,0,0,0,5.6.2,5.65,5.65,0,0,1,1.3,0h4.3c.5-.1,1-.1,1.5-.2a8.8,8.8,0,0,0,1.5-.5c.4-.3.9-.5,1.3-.8s.8-.7,1.2-1.1a10.47,10.47,0,0,0,2.4-5.6,54.3,54.3,0,0,0,.2-5.6,53.34,53.34,0,0,0-.2-5.6,10.81,10.81,0,0,0-2.4-5.6,8.08,8.08,0,0,0-5.5-2.7c-.5,0-1-.1-1.5-.1h-1.4a6.6,6.6,0,0,1-1.4.1,5.65,5.65,0,0,1-1.3,0,35.68,35.68,0,0,0-5.6.3,11.55,11.55,0,0,0-5.6,2.3,12.48,12.48,0,0,0-3.6,5.1A12.91,12.91,0,0,0,1513.3,456.7Z" transform="translate(0)"/></g><g class="cls-2"><path class="cls-3" d="M1663.3,371.5a6.28,6.28,0,0,0-1.1,3.8c-.2,1.3,1.3,3.2.6,4.4-.1.3-.4.5-.6.8a4.49,4.49,0,0,1-1.2.6c-.8.4-1.4.9-1.5,1.5a3.71,3.71,0,0,0,.4,2.2,2.65,2.65,0,0,1,.2,2.1,3.11,3.11,0,0,1-1.5,1.5,4.91,4.91,0,0,0-1.7,1.4,1.16,1.16,0,0,0-.2,1,2.08,2.08,0,0,0,.5,1.2c.4.9.7,1.6.4,2.2-.4,1.3-2.7,1.8-3.3,3a7,7,0,0,0-1.4,3.7l-2.5-.9a7.13,7.13,0,0,0,1.2-3.8c.3-1.3-1.1-3.2-.6-4.4.1-.6.8-1.1,1.7-1.4a10.91,10.91,0,0,0,1.1-.6,1,1,0,0,0,.4-.9,3.71,3.71,0,0,0-.4-2.2,2.65,2.65,0,0,1-.2-2.1,3.11,3.11,0,0,1,1.5-1.5,4.91,4.91,0,0,0,1.7-1.4,1.85,1.85,0,0,0-.2-2.1,6.12,6.12,0,0,1-.5-1.2,2.05,2.05,0,0,1,0-1.1c.3-1.3,2.7-1.8,3.3-3a6.8,6.8,0,0,0,1.5-3.7Z" transform="translate(0)"/></g><g class="cls-2"><path class="cls-3" d="M1647.4,423.3a13.43,13.43,0,0,0,4.3,3.2c1.6.9,4.2.4,5.5,1.7a2.26,2.26,0,0,1,.8,1.1,8.8,8.8,0,0,1,.5,1.5,3.83,3.83,0,0,0,1.6,2.4,7.66,7.66,0,0,0,2.9.8,4.65,4.65,0,0,1,2.7,1,4.52,4.52,0,0,1,1.5,2.4,6.47,6.47,0,0,0,1.4,2.6,2.92,2.92,0,0,0,1.2.7,3.64,3.64,0,0,0,1.5.2,4.07,4.07,0,0,1,2.8.8c1.4,1.1,1.7,3.7,3,5a13.66,13.66,0,0,0,4.1,3.5l-1.6,2.1a13.43,13.43,0,0,0-4.3-3.2c-1.5-1-4.1-.6-5.5-1.7a3.34,3.34,0,0,1-1.4-2.6,10.87,10.87,0,0,0-.5-1.4,3.18,3.18,0,0,0-1-1,7.66,7.66,0,0,0-2.9-.8,4.65,4.65,0,0,1-2.7-1,4.52,4.52,0,0,1-1.5-2.4,6.47,6.47,0,0,0-1.4-2.6,3.7,3.7,0,0,0-2.7-1c-.5-.1-1.1-.1-1.6-.2a5,5,0,0,1-1.3-.5c-1.5-1-1.7-3.7-3-5a13.66,13.66,0,0,0-4.1-3.5Z" transform="translate(0)"/></g><g class="cls-2"><path class="cls-3" d="M1516.4,496.4a3.75,3.75,0,0,0-.8,2.5c-.1.9,1.5,2.4,1.1,3.2-.1.4-.8.6-1.6.8-.2.1-.4.1-.5.2s-.3.1-.4.2c-.3.2-.4.4-.4.5-.2.9,1.4,2.4,1.1,3.2s-2.4,1-2.9,1.8a.82.82,0,0,0-.1.7,9,9,0,0,0,.5.9c.5.6.8,1.2.6,1.6-.3.8-2.3,1-2.9,1.8a3.59,3.59,0,0,0-1.1,2.4l-2.5-.9a3.75,3.75,0,0,0,.8-2.5c.1-.9-1.3-2.3-1.1-3.2.1-.4.7-.7,1.5-.9a3,3,0,0,0,1-.4c.3-.2.4-.4.4-.5.2-.9-1.4-2.4-1.1-3.2s2.4-1,2.9-1.8a.66.66,0,0,0,.1-.6.76.76,0,0,0-.2-.4c-.1-.1-.2-.3-.3-.4-.4-.6-.8-1.2-.6-1.6.2-.9,2.3-1,2.9-1.8a3.59,3.59,0,0,0,1.1-2.4Z" transform="translate(0)"/></g><g class="cls-2"><path class="cls-3" d="M1620.5,467.5c.2,2.9.5,5.5.9,8.2l.6,3.9c.3,1.3.5,2.6.9,3.8.8,2.4,2,5,2.4,7.8a16,16,0,0,1,.3,4.4,33.21,33.21,0,0,1-.6,4.4l-.8,4.9-2.5-2.8a18.6,18.6,0,0,0-7.8-4.8c-1.5-.4-3-.9-4.6-1.3a15.93,15.93,0,0,1-4.2-1.9,24.74,24.74,0,0,1-3.8-2.8c-1.2-1.1-2.2-2.2-3.4-3.2a16.47,16.47,0,0,0-3.8-2.7,20.92,20.92,0,0,0-4.4-1.6l-3.7-.8,3.8-3.3a23.87,23.87,0,0,1,3.5-2.8,20.07,20.07,0,0,1,3.9-1.9,53.13,53.13,0,0,1,8-1.8,17.72,17.72,0,0,0,3.7-1.2c1.2-.5,2.5-.9,3.7-1.4A34.19,34.19,0,0,0,1620.5,467.5Zm-1.2,2.4c-2.2.9-4.5,2.1-6.9,3.3-1.2.6-2.3,1.3-3.5,2a22.46,22.46,0,0,0-3.5,2.2c-2.3,1.6-4.3,3.6-6.4,4.8a10.08,10.08,0,0,1-3.2,1.4,22,22,0,0,1-3.7.5l.2-4.1a14.75,14.75,0,0,0,3.6,3,22.58,22.58,0,0,0,4.2,1.9c1.5.4,3,.9,4.6,1.3a15.93,15.93,0,0,1,4.2,1.9,24.74,24.74,0,0,1,3.8,2.8c1.2,1.1,2.2,2.2,3.4,3.2a18.69,18.69,0,0,0,8.1,4.3l-3.4,2.2a25.54,25.54,0,0,1-1.4-3.5,10.6,10.6,0,0,1-.5-3.5c-.1-2.4.6-5.1,1-7.9a28.84,28.84,0,0,0,.2-4.1c0-1.3,0-2.7-.1-4C1619.8,474.8,1619.6,472.2,1619.3,469.9Z" transform="translate(0)"/></g><g class="cls-2"><path class="cls-3" d="M1698.7,395.5c2.9,1.6,5.6,2.8,8.3,4.1a46.64,46.64,0,0,0,8.3,3.1c1.4.4,2.9.6,4.4,1.1a24.23,24.23,0,0,1,4.6,1.8,17.11,17.11,0,0,1,4.2,2.8c1.3,1.1,2.5,2.2,3.8,3.2l2.8,2.1-2.6,1a21.32,21.32,0,0,0-7.4,5.1c-1.1,1.1-2.1,2.2-3.2,3.3a19.35,19.35,0,0,1-3.6,2.8,25.24,25.24,0,0,1-4,2.1c-1.4.6-2.9,1.1-4.4,1.6a20.92,20.92,0,0,0-7.8,4.7l-2,2-.9-3.5c-.4-1.5-1-3.1-1.4-4.8a16.72,16.72,0,0,1-.6-5,37.49,37.49,0,0,1,.3-4.8c.3-1.5.6-3,.8-4.5a65.06,65.06,0,0,0,.6-8.8C1698.9,401.8,1698.9,398.8,1698.7,395.5Zm1.4,2.2c.1,2.7.3,5.7.6,8.7a59.51,59.51,0,0,0,1.5,9.1c.4,1.5.8,3.1,1.3,4.5a34.29,34.29,0,0,1,.8,4.2,9.08,9.08,0,0,1-.3,4c-.3,1.3-.7,2.8-1,4.2l-2.9-1.5a21.28,21.28,0,0,0,7.5-5.1c1.1-1.1,2.1-2.2,3.2-3.3a19.35,19.35,0,0,1,3.6-2.8,25.24,25.24,0,0,1,4-2.1c1.4-.5,2.9-1.1,4.4-1.6a23.66,23.66,0,0,0,7.8-4.6l.2,3.2c-1.4-.4-2.9-.6-4.2-.9a13.41,13.41,0,0,1-3.8-1.4,18.23,18.23,0,0,1-3.5-2.4c-1.2-1-2.3-2-3.6-3a61.26,61.26,0,0,0-7.7-5.2C1705.1,400.4,1702.5,399,1700.1,397.7Z" transform="translate(0)"/></g><g class="cls-2"><path class="cls-3" d="M1598.5,412.8a13.71,13.71,0,0,1,1.1-5.4,19.83,19.83,0,0,1,2.9-4.8,29.1,29.1,0,0,1,4.3-4.3,9.34,9.34,0,0,1,6-2.1,8.75,8.75,0,0,1,1.6.2c.5.1,1.1.3,1.5.4a3.92,3.92,0,0,1,1.4.8,11.32,11.32,0,0,1,1.3,1c1.6,1.4,3,2.7,4.4,3.9a24.53,24.53,0,0,1,4.2,4.3,10,10,0,0,1,2.2,6,9.94,9.94,0,0,1-2.1,6,34.35,34.35,0,0,1-4.2,4.3,10,10,0,0,0-1.1,1,10,10,0,0,0-1.1,1l-1.1,1.1a13.07,13.07,0,0,1-1.2,1.1,14.7,14.7,0,0,1-1.3,1,9.14,9.14,0,0,1-1.4.7,9.83,9.83,0,0,1-1.6.5,8.6,8.6,0,0,1-1.6.1,10.89,10.89,0,0,1-6-2.1,28.57,28.57,0,0,1-4.3-4.2,18.43,18.43,0,0,1-3-4.8A37.51,37.51,0,0,1,1598.5,412.8Zm2.7,0a15.36,15.36,0,0,0,.8,4.6,8.29,8.29,0,0,0,2.7,3.7,6.64,6.64,0,0,0,4.2,1.4c1.4,0,2.8-.2,4-.2a30.23,30.23,0,0,1,4,.3h1.2c.4-.1.7-.2,1.2-.3a9.25,9.25,0,0,1,1-.5l.8-.8a6.64,6.64,0,0,0,1.4-4.2c0-1.5-.2-2.8-.1-4s.1-2.5.1-4a7.29,7.29,0,0,0-1.4-4.2,4.74,4.74,0,0,0-4.1-1.7,5.28,5.28,0,0,0-1.2.1c-.4.1-.7.1-1.1.2a3.4,3.4,0,0,1-1,.1,1.7,1.7,0,0,1-1,0c-1.3,0-2.5-.1-4-.1a7.29,7.29,0,0,0-4.2,1.4,10.38,10.38,0,0,0-2.8,3.7A32.6,32.6,0,0,0,1601.2,412.8Z" transform="translate(0)"/></g><g class="cls-2"><path class="cls-3" d="M958.8,542.8a7.36,7.36,0,0,0,3.7,1.6c1.3.3,3.3-.9,4.5-.2a5,5,0,0,1,.8.7,4.49,4.49,0,0,1,.6,1.2c.4.9.7,1.4,1.4,1.6a3.46,3.46,0,0,0,2.2-.2,2.54,2.54,0,0,1,2.1,0,5.08,5.08,0,0,1,1.5,1.7,4,4,0,0,0,1.4,1.9c.3.2.5.4.9.3a5.27,5.27,0,0,0,1.2-.3,2.53,2.53,0,0,1,2.2-.2c1.2.5,1.5,2.8,2.6,3.5a6.4,6.4,0,0,0,3.5,1.7l-1.1,2.4a7.76,7.76,0,0,0-3.7-1.6c-1.3-.3-3.2.8-4.5.2-.6-.2-1-.9-1.4-1.9a4.49,4.49,0,0,0-.6-1.2.75.75,0,0,0-.8-.5,4.32,4.32,0,0,0-2.2.2,2.54,2.54,0,0,1-2.1,0,5.08,5.08,0,0,1-1.5-1.7,4,4,0,0,0-1.4-1.9,2.21,2.21,0,0,0-2.1,0c-.4.1-.9.3-1.2.4s-.7.1-1-.1c-1.3-.4-1.5-2.8-2.6-3.5a6.4,6.4,0,0,0-3.5-1.7Z" transform="translate(0)"/></g><g class="cls-2"><path class="cls-3" d="M1031.1,492.3c-3-1.3-5.8-2.3-8.6-3.4a57.34,57.34,0,0,0-8.5-2.4c-1.4-.3-2.9-.3-4.5-.7a22.64,22.64,0,0,1-4.7-1.4,17,17,0,0,1-4.4-2.4c-1.4-1-2.7-2-4.1-2.9l-3-1.8,2.5-1.2a22.66,22.66,0,0,0,6.9-5.7c1-1.2,1.9-2.4,2.9-3.6a19.28,19.28,0,0,1,3.3-3.1,30.3,30.3,0,0,1,3.8-2.4c1.4-.6,2.8-1.4,4.2-2a21.74,21.74,0,0,0,7.4-5.4l1.8-2.2,1.2,3.4c.5,1.5,1.3,3,1.8,4.7a15.83,15.83,0,0,1,1,4.9,38.86,38.86,0,0,1,.1,4.8c-.2,1.5-.3,3-.4,4.6a64.66,64.66,0,0,0,.2,8.8A73.09,73.09,0,0,0,1031.1,492.3Zm-1.7-2c-.3-2.7-.8-5.7-1.4-8.6a58.27,58.27,0,0,0-2.3-8.9c-.5-1.5-1.1-3-1.7-4.4a37.13,37.13,0,0,1-1.2-4.1,10.77,10.77,0,0,1-.1-4c.2-1.3.5-2.9.6-4.3l3,1.2a22.8,22.8,0,0,0-7,5.7c-1,1.2-1.9,2.4-2.9,3.6a19.28,19.28,0,0,1-3.3,3.1,24.45,24.45,0,0,1-3.8,2.4c-1.4.6-2.8,1.4-4.2,2a24.45,24.45,0,0,0-7.4,5.3l-.5-3.2c1.4.3,2.9.3,4.3.5a13.36,13.36,0,0,1,3.9,1.1,20.22,20.22,0,0,1,3.7,2.1c1.3.9,2.5,1.8,3.8,2.7a65.54,65.54,0,0,0,8.1,4.5C1024.1,488.1,1026.8,489.4,1029.4,490.3Z" transform="translate(0)"/></g><g class="cls-2"><path class="cls-3" d="M1022.4,521.5a17.66,17.66,0,0,1-.9,7.2,26.86,26.86,0,0,1-3.2,6.6,30.24,30.24,0,0,1-5.1,5.7,14.35,14.35,0,0,1-7.5,3.1,14.7,14.7,0,0,1-2.1,0,13.8,13.8,0,0,0-2-.3c-.6-.2-1.3-.4-2-.7s-1.3-.6-1.8-.9c-2.2-1.4-4.2-2.9-6.2-4.4a39.44,39.44,0,0,1-5.7-5.2,13.29,13.29,0,0,1-3.1-7.5,14.33,14.33,0,0,1,1.7-7.9,31.89,31.89,0,0,1,4.7-6.1,17.41,17.41,0,0,0,1.2-1.4c.4-.4.8-.9,1.3-1.4a17.88,17.88,0,0,0,1.3-1.4,18.48,18.48,0,0,0,1.4-1.4,9.55,9.55,0,0,1,1.6-1.2c.6-.4,1.1-.7,1.8-1.1a14.58,14.58,0,0,1,1.9-.7c.7-.2,1.3-.2,2.1-.4a14.4,14.4,0,0,1,7.9,1.8,26.07,26.07,0,0,1,6.1,4.7,22.25,22.25,0,0,1,4.4,5.8A20.21,20.21,0,0,1,1022.4,521.5Zm-2.7.2a19.19,19.19,0,0,0-1.7-6.1,12.7,12.7,0,0,0-4.1-4.8,11.41,11.41,0,0,0-5.8-1.9,33.83,33.83,0,0,0-5.6.3,5.7,5.7,0,0,1-1.3.1c-.4,0-.9.1-1.4.1s-1,.1-1.4.1-1,.1-1.5.1l-1.5.3a9.38,9.38,0,0,0-1.5.6,12.49,12.49,0,0,0-1.2.9c-.4.4-.7.8-1.1,1.2a10.05,10.05,0,0,0-1.9,5.8,49.83,49.83,0,0,0,.3,5.6c.2,1.8.3,3.7.7,5.6a10.61,10.61,0,0,0,2.9,5.4,7.84,7.84,0,0,0,5.7,2.2h1.5c.5,0,1-.1,1.4-.1a6.75,6.75,0,0,1,1.4-.2,5.7,5.7,0,0,1,1.3-.1,37.75,37.75,0,0,0,5.6-.8,11.24,11.24,0,0,0,5.4-2.8,11.65,11.65,0,0,0,3.1-5.4A12.41,12.41,0,0,0,1019.7,521.7Z" transform="translate(0)"/></g><g class="cls-2"><path class="cls-3" d="M1462.2,472.9a6.28,6.28,0,0,0-1.1,3.8c-.2,1.3,1.3,3.2.6,4.4-.1.3-.4.5-.6.8a4.49,4.49,0,0,1-1.2.6c-.8.4-1.4.9-1.5,1.5a3.71,3.71,0,0,0,.4,2.2,2.65,2.65,0,0,1,.2,2.1,3.11,3.11,0,0,1-1.5,1.5,4.91,4.91,0,0,0-1.7,1.4,1.16,1.16,0,0,0-.2,1,2.08,2.08,0,0,0,.5,1.2c.4.9.7,1.6.4,2.2-.4,1.3-2.7,1.8-3.3,3a7,7,0,0,0-1.4,3.7l-2.5-.9a7.13,7.13,0,0,0,1.2-3.8c.3-1.3-1.1-3.2-.6-4.4.1-.6.8-1.1,1.7-1.4a10.91,10.91,0,0,0,1.1-.6,1.09,1.09,0,0,0,.4-.9,3.71,3.71,0,0,0-.4-2.2,2.65,2.65,0,0,1-.2-2.1,3.11,3.11,0,0,1,1.5-1.5,4.91,4.91,0,0,0,1.7-1.4,1.85,1.85,0,0,0-.2-2.1,6.12,6.12,0,0,1-.5-1.2,2.05,2.05,0,0,1,0-1.1c.3-1.3,2.7-1.8,3.3-3a6.8,6.8,0,0,0,1.5-3.7Z" transform="translate(0)"/></g><g class="cls-2"><path class="cls-3" d="M1435.2,409a6.28,6.28,0,0,0-1.1,3.8c-.2,1.3,1.3,3.2.6,4.4-.1.3-.4.5-.6.8a4.49,4.49,0,0,1-1.2.6c-.8.4-1.4.9-1.5,1.5a3.71,3.71,0,0,0,.4,2.2,2.65,2.65,0,0,1,.2,2.1,3.11,3.11,0,0,1-1.5,1.5,4.91,4.91,0,0,0-1.7,1.4,1.16,1.16,0,0,0-.2,1,2.08,2.08,0,0,0,.5,1.2c.4.9.7,1.6.4,2.2-.4,1.3-2.7,1.8-3.3,3a7,7,0,0,0-1.4,3.7l-2.5-.9a7.13,7.13,0,0,0,1.2-3.8c.3-1.3-1.1-3.2-.6-4.4.1-.6.8-1.1,1.7-1.4a10.91,10.91,0,0,0,1.1-.6,1,1,0,0,0,.4-.9,3.71,3.71,0,0,0-.4-2.2,2.65,2.65,0,0,1-.2-2.1,3.11,3.11,0,0,1,1.5-1.5,4.91,4.91,0,0,0,1.7-1.4,1.85,1.85,0,0,0-.2-2.1,6.12,6.12,0,0,1-.5-1.2,2.05,2.05,0,0,1,0-1.1c.3-1.3,2.7-1.8,3.3-3a6.8,6.8,0,0,0,1.5-3.7Z" transform="translate(0)"/></g><g class="cls-2"><path class="cls-3" d="M1517.2,421a8,8,0,0,0-2.2-3.2c-.9-1-3.3-1-3.8-2.1a1.69,1.69,0,0,1-.3-1,6.88,6.88,0,0,1,.2-1.3c.2-.9.2-1.6-.4-2.1a5.2,5.2,0,0,0-2.1-1.1,3.68,3.68,0,0,1-1.9-1.2,3,3,0,0,1-.3-2.1,4,4,0,0,0-.1-2.2,4.35,4.35,0,0,0-.6-.7,3.37,3.37,0,0,0-1.2-.4c-.9-.2-1.7-.4-2-1.1-.7-1.1.2-3.2-.4-4.5a9,9,0,0,0-2-3.4l2.2-1.4a8,8,0,0,0,2.2,3.2c.9,1,3.2,1.1,3.8,2.1a2.36,2.36,0,0,1,.1,2.2,5.85,5.85,0,0,0-.2,1.3,1.49,1.49,0,0,0,.4.9,5.2,5.2,0,0,0,2.1,1.1,3.68,3.68,0,0,1,1.9,1.2,2.88,2.88,0,0,1,.3,2.1,4,4,0,0,0,.1,2.2,2.45,2.45,0,0,0,1.8,1.2,6.47,6.47,0,0,1,1.3.4,2.76,2.76,0,0,1,.8.6c.8,1-.2,3.2.4,4.5a9,9,0,0,0,2,3.4Z" transform="translate(0)"/></g><g class="cls-2"><path class="cls-3" d="M1394,446.9a14.77,14.77,0,0,0,5,2.1c1.8.4,4.1-.7,5.8.2a2,2,0,0,1,1,.8c.3.4.6.9.9,1.3a3.7,3.7,0,0,0,2.2,1.9,6.08,6.08,0,0,0,3,0,5.07,5.07,0,0,1,2.8.3,4.78,4.78,0,0,1,2.1,1.9,7.13,7.13,0,0,0,2,2.2,3.26,3.26,0,0,0,1.3.4,5,5,0,0,0,1.6-.2c1.2-.3,2.2-.4,2.9.1,1.7.7,2.6,3.2,4.1,4.1a14.12,14.12,0,0,0,4.8,2.3l-1.1,2.4a14.77,14.77,0,0,0-5-2.1c-1.7-.5-4.1.4-5.8-.2-.9-.2-1.5-1.1-2-2.2-.3-.4-.6-1-.8-1.3a2.13,2.13,0,0,0-1.2-.7,6.08,6.08,0,0,0-3,0,5.07,5.07,0,0,1-2.8-.3,4.78,4.78,0,0,1-2.1-1.9,7.13,7.13,0,0,0-2-2.2,3.76,3.76,0,0,0-2.8-.3,4.53,4.53,0,0,0-1.6.3,2.74,2.74,0,0,1-1.3-.2c-1.7-.5-2.6-3.1-4.1-4.1a14.12,14.12,0,0,0-4.8-2.3Z" transform="translate(0)"/></g><g class="cls-2"><path class="cls-3" d="M1420.4,495.9c.2,2.9.5,5.5.9,8.2l.6,3.9c.3,1.3.5,2.6.9,3.8.8,2.4,2,5,2.4,7.8a16,16,0,0,1,.3,4.4,33.21,33.21,0,0,1-.6,4.4l-.8,4.9-2.5-2.8a18.6,18.6,0,0,0-7.8-4.8c-1.5-.4-3-.9-4.6-1.3a15.93,15.93,0,0,1-4.2-1.9,24.74,24.74,0,0,1-3.8-2.8c-1.2-1.1-2.2-2.2-3.4-3.2a16.47,16.47,0,0,0-3.8-2.7,20.92,20.92,0,0,0-4.4-1.6l-3.7-.8,3.8-3.3a23.87,23.87,0,0,1,3.5-2.8,20.07,20.07,0,0,1,3.9-1.9,53.13,53.13,0,0,1,8-1.8,17.72,17.72,0,0,0,3.7-1.2c1.2-.5,2.5-.9,3.7-1.4A49.9,49.9,0,0,0,1420.4,495.9Zm-1.3,2.2c-2.2.9-4.5,2.1-6.9,3.3-1.2.6-2.3,1.3-3.5,2a22.46,22.46,0,0,0-3.5,2.2c-2.3,1.6-4.3,3.6-6.4,4.8a10.08,10.08,0,0,1-3.2,1.4,15,15,0,0,1-3.7.5l.2-4.1a14.75,14.75,0,0,0,3.6,3,22.58,22.58,0,0,0,4.2,1.9c1.5.4,3,.9,4.6,1.3a15.93,15.93,0,0,1,4.2,1.9,24.74,24.74,0,0,1,3.8,2.8c1.2,1.1,2.2,2.2,3.4,3.2a18.69,18.69,0,0,0,8.1,4.3l-3.4,2.2a25.54,25.54,0,0,1-1.4-3.5,10.6,10.6,0,0,1-.5-3.5c-.1-2.4.6-5.1,1-7.9a28.84,28.84,0,0,0,.2-4.1c0-1.3,0-2.7-.1-4C1419.6,503.1,1419.4,500.5,1419.1,498.1Z" transform="translate(0)"/></g><g class="cls-2"><path class="cls-3" d="M1458.1,408.7c2.9,1.6,5.6,2.8,8.3,4.1a46.64,46.64,0,0,0,8.3,3.1c1.4.4,2.9.6,4.4,1.1a24.23,24.23,0,0,1,4.6,1.8,17.11,17.11,0,0,1,4.2,2.8c1.3,1.1,2.5,2.2,3.8,3.2l2.8,2.1-2.6,1a21.32,21.32,0,0,0-7.4,5.1c-1.1,1.1-2.1,2.2-3.2,3.3a19.35,19.35,0,0,1-3.6,2.8,25.24,25.24,0,0,1-4,2.1c-1.4.5-2.9,1.1-4.4,1.6a20.92,20.92,0,0,0-7.8,4.7l-2,2-.9-3.5c-.4-1.5-1-3.1-1.4-4.8a16.72,16.72,0,0,1-.6-5,37.49,37.49,0,0,1,.3-4.8c.3-1.5.6-3,.8-4.5a65.06,65.06,0,0,0,.6-8.8C1458.3,414.9,1458.3,411.9,1458.1,408.7Zm1.5,2.2c.1,2.7.3,5.7.6,8.7a59.51,59.51,0,0,0,1.5,9.1c.4,1.5.8,3.1,1.3,4.5a34.29,34.29,0,0,1,.8,4.2,9.08,9.08,0,0,1-.3,4c-.3,1.3-.7,2.8-1,4.2l-2.9-1.5a21.28,21.28,0,0,0,7.5-5.1c1.1-1.1,2.1-2.2,3.2-3.3a19.35,19.35,0,0,1,3.6-2.8,25.24,25.24,0,0,1,4-2.1c1.4-.5,2.9-1.1,4.4-1.6a23.66,23.66,0,0,0,7.8-4.6l.2,3.2c-1.4-.4-2.9-.6-4.2-.9a13.41,13.41,0,0,1-3.8-1.4,18.23,18.23,0,0,1-3.5-2.4c-1.2-1-2.3-2-3.6-3a61.26,61.26,0,0,0-7.7-5.2C1464.6,413.5,1462,412,1459.6,410.9Z" transform="translate(0)"/></g><g class="cls-2"><path class="cls-3" d="M1744.9,491.6a6.43,6.43,0,0,0,2.6-3c.7-1.2.2-3.4,1.2-4.3a2.62,2.62,0,0,1,.9-.5c.4-.1.8-.1,1.3-.2.9-.1,1.6-.2,2-.9a3.46,3.46,0,0,0,.5-2.1,2.58,2.58,0,0,1,.7-2,5.28,5.28,0,0,1,2-.9,3.84,3.84,0,0,0,2.2-.7,1.24,1.24,0,0,0,.6-.8,4.87,4.87,0,0,0,.1-1.2,2.32,2.32,0,0,1,.5-2.1c.9-1,3.1-.6,4.1-1.4a5.65,5.65,0,0,0,2.7-2.8l1.9,1.8a7,7,0,0,0-2.6,3c-.7,1.2-.3,3.3-1.2,4.3-.4.5-1.2.6-2.2.7a5.85,5.85,0,0,0-1.3.2,1.24,1.24,0,0,0-.8.6,4.34,4.34,0,0,0-.5,2.1,2.58,2.58,0,0,1-.7,2,5.28,5.28,0,0,1-2,.9,3.84,3.84,0,0,0-2.2.7,2.58,2.58,0,0,0-.7,2v1.2a1.88,1.88,0,0,1-.4.9c-.8,1.2-3.1.6-4.1,1.4a5.65,5.65,0,0,0-2.7,2.8Z" transform="translate(0)"/></g><g class="cls-2"><path class="cls-3" d="M1884.5,418.4a11.58,11.58,0,0,1,1.1-5.2,20.25,20.25,0,0,1,2.8-4.6,30.75,30.75,0,0,1,4-4.1,9.31,9.31,0,0,1,5.7-2.1,6.8,6.8,0,0,1,1.5.2c.5.1,1,.3,1.5.4a8.26,8.26,0,0,1,1.3.7,14.63,14.63,0,0,0,1.3.9c1.5,1.3,2.8,2.6,4.1,3.8a30.21,30.21,0,0,1,4,4,10,10,0,0,1,2.1,5.7,9.61,9.61,0,0,1-2,5.7,25.19,25.19,0,0,1-4,4,9,9,0,0,0-1,.9,9.43,9.43,0,0,0-1,1,4.74,4.74,0,0,0-1,1l-1.1,1.1a10.59,10.59,0,0,0-1.2,1,8.26,8.26,0,0,1-1.3.7,6.61,6.61,0,0,1-1.5.5,8.08,8.08,0,0,1-1.5.1,10.33,10.33,0,0,1-5.7-2,25.19,25.19,0,0,1-4-4,17.76,17.76,0,0,1-2.8-4.5A9.59,9.59,0,0,1,1884.5,418.4Zm2.6,0a14.78,14.78,0,0,0,.7,4.2,7.26,7.26,0,0,0,2.6,3.4,6.31,6.31,0,0,0,3.9,1.3c1.3,0,2.6-.2,3.7-.2a27.48,27.48,0,0,1,3.8.3h1.1a4.51,4.51,0,0,0,1.1-.3l1-.5a5,5,0,0,0,.8-.7,5.2,5.2,0,0,0,1.2-3.9c0-1.4-.2-2.6-.2-3.7s.2-2.3.2-3.7a6.12,6.12,0,0,0-1.3-3.9,4.84,4.84,0,0,0-3.8-1.5c-.4,0-.7.1-1.1.1s-.6.1-1,.2a3.08,3.08,0,0,1-.9.1,1.39,1.39,0,0,1-.9,0c-1.2,0-2.3-.1-3.7-.2a6.6,6.6,0,0,0-4,1.3,8.62,8.62,0,0,0-2.6,3.4A13.13,13.13,0,0,0,1887.1,418.4Z" transform="translate(0)"/></g><g class="cls-2"><path class="cls-3" d="M1863.4,426.7a6.28,6.28,0,0,0-1.1,3.8c-.2,1.3,1.3,3.2.6,4.4-.1.3-.4.5-.6.8a4.49,4.49,0,0,1-1.2.6c-.8.4-1.4.9-1.5,1.5a3.71,3.71,0,0,0,.4,2.2,2.65,2.65,0,0,1,.2,2.1,3.11,3.11,0,0,1-1.5,1.5,4.91,4.91,0,0,0-1.7,1.4,1.16,1.16,0,0,0-.2,1,2.08,2.08,0,0,0,.5,1.2c.4.9.7,1.6.4,2.2-.4,1.3-2.7,1.8-3.3,3a7,7,0,0,0-1.4,3.7l-2.5-.9a7.13,7.13,0,0,0,1.2-3.8c.3-1.3-1.1-3.2-.6-4.4.1-.6.8-1.1,1.7-1.4a10.91,10.91,0,0,0,1.1-.6,1.09,1.09,0,0,0,.4-.9,3.71,3.71,0,0,0-.4-2.2,2.65,2.65,0,0,1-.2-2.1,3.11,3.11,0,0,1,1.5-1.5,4.91,4.91,0,0,0,1.7-1.4,1.85,1.85,0,0,0-.2-2.1,6.12,6.12,0,0,1-.5-1.2,2.05,2.05,0,0,1,0-1.1c.3-1.3,2.7-1.8,3.3-3a6.8,6.8,0,0,0,1.5-3.7Z" transform="translate(0)"/></g><g class="cls-2"><path class="cls-3" d="M1847.6,478.6a13.43,13.43,0,0,0,4.3,3.2c1.6.9,4.2.4,5.5,1.7a2.26,2.26,0,0,1,.8,1.1,8.8,8.8,0,0,1,.5,1.5,3.83,3.83,0,0,0,1.6,2.4,7.66,7.66,0,0,0,2.9.8,4.65,4.65,0,0,1,2.7,1,4.52,4.52,0,0,1,1.5,2.4,6.47,6.47,0,0,0,1.4,2.6,2.92,2.92,0,0,0,1.2.7,3.64,3.64,0,0,0,1.5.2,4.07,4.07,0,0,1,2.8.8c1.4,1.1,1.7,3.7,3,5a13.66,13.66,0,0,0,4.1,3.5l-1.6,2.1a13.43,13.43,0,0,0-4.3-3.2c-1.5-1-4.1-.6-5.5-1.7a3.34,3.34,0,0,1-1.4-2.6,10.87,10.87,0,0,0-.5-1.4,3.18,3.18,0,0,0-1-1,7.66,7.66,0,0,0-2.9-.8,4.65,4.65,0,0,1-2.7-1,4.52,4.52,0,0,1-1.5-2.4,6.47,6.47,0,0,0-1.4-2.6,3.7,3.7,0,0,0-2.7-1c-.5-.1-1.1-.1-1.6-.2a5,5,0,0,1-1.3-.5c-1.5-1-1.7-3.7-3-5a13.66,13.66,0,0,0-4.1-3.5Z" transform="translate(0)"/></g><g class="cls-2"><path class="cls-3" d="M1886.3,448.2c2.9,1.6,5.6,2.8,8.3,4.1a46.64,46.64,0,0,0,8.3,3.1c1.4.4,2.9.6,4.4,1.1a24.23,24.23,0,0,1,4.6,1.8,17.11,17.11,0,0,1,4.2,2.8c1.3,1.1,2.5,2.2,3.8,3.2l2.8,2.1-2.6,1a21.32,21.32,0,0,0-7.4,5.1c-1.1,1.1-2.1,2.2-3.2,3.3a19.35,19.35,0,0,1-3.6,2.8,25.24,25.24,0,0,1-4,2.1c-1.4.5-2.9,1.1-4.4,1.6a20.92,20.92,0,0,0-7.8,4.7l-2,2-.9-3.5c-.4-1.5-1-3.1-1.4-4.8a16.72,16.72,0,0,1-.6-5,37.49,37.49,0,0,1,.3-4.8c.3-1.5.6-3,.8-4.5a65.06,65.06,0,0,0,.6-8.8C1886.5,454.4,1886.5,451.5,1886.3,448.2Zm1.5,2.2c.1,2.7.3,5.7.6,8.7a59.51,59.51,0,0,0,1.5,9.1c.4,1.5.8,3.1,1.3,4.5a34.29,34.29,0,0,1,.8,4.2,9.08,9.08,0,0,1-.3,4c-.3,1.3-.7,2.8-1,4.2l-2.9-1.5a21.28,21.28,0,0,0,7.5-5.1c1.1-1.1,2.1-2.2,3.2-3.3a19.35,19.35,0,0,1,3.6-2.8,25.24,25.24,0,0,1,4-2.1c1.4-.5,2.9-1.1,4.4-1.6a23.66,23.66,0,0,0,7.8-4.6l.2,3.2c-1.4-.4-2.9-.6-4.2-.9a13.41,13.41,0,0,1-3.8-1.4,18.23,18.23,0,0,1-3.5-2.4c-1.2-1-2.3-2-3.6-3a61.26,61.26,0,0,0-7.7-5.2C1892.8,453.1,1890.2,451.6,1887.8,450.4Z" transform="translate(0)"/></g><g class="cls-2"><path class="cls-3" d="M1798.7,468.1a13.71,13.71,0,0,1,1.1-5.4,19.83,19.83,0,0,1,2.9-4.8,29.1,29.1,0,0,1,4.3-4.3,9.34,9.34,0,0,1,6-2.1,8.75,8.75,0,0,1,1.6.2c.5.1,1.1.3,1.5.4a3.92,3.92,0,0,1,1.4.8,11.32,11.32,0,0,1,1.3,1c1.6,1.4,3,2.7,4.4,3.9a24.53,24.53,0,0,1,4.2,4.3,10,10,0,0,1,2.2,6,9.94,9.94,0,0,1-2.1,6,34.35,34.35,0,0,1-4.2,4.3,14449347255140.62,14449347255140.62,0,0,1-2.2,2l-1.1,1.1a13.07,13.07,0,0,1-1.2,1.1,14.7,14.7,0,0,1-1.3,1,9.14,9.14,0,0,1-1.4.7,9.83,9.83,0,0,1-1.6.5,8.6,8.6,0,0,1-1.6.1,10.89,10.89,0,0,1-6-2.1,28.57,28.57,0,0,1-4.3-4.2,18.43,18.43,0,0,1-3-4.8A30.54,30.54,0,0,1,1798.7,468.1Zm2.7-.1a15.36,15.36,0,0,0,.8,4.6,8.29,8.29,0,0,0,2.7,3.7,6.64,6.64,0,0,0,4.2,1.4c1.4,0,2.8-.2,4-.2a30.23,30.23,0,0,1,4,.3h1.2c.4-.1.7-.2,1.2-.3a9.25,9.25,0,0,1,1-.5l.8-.8a6.64,6.64,0,0,0,1.4-4.2c0-1.5-.2-2.8-.1-4s.1-2.5.1-4a7.29,7.29,0,0,0-1.4-4.2,4.74,4.74,0,0,0-4.1-1.7,5.28,5.28,0,0,0-1.2.1c-.4.1-.7.1-1.1.2a3.4,3.4,0,0,1-1,.1,1.7,1.7,0,0,1-1,0c-1.3,0-2.5-.1-4-.1a7.29,7.29,0,0,0-4.2,1.4,10.38,10.38,0,0,0-2.8,3.7A22.15,22.15,0,0,0,1801.4,468Z" transform="translate(0)"/></g><g class="cls-2"><path class="cls-3" d="M1726.9,474.9a8,8,0,0,0-2.2-3.2c-.9-1-3.3-1-3.8-2.1a1.69,1.69,0,0,1-.3-1,6.88,6.88,0,0,1,.2-1.3c.2-.9.2-1.6-.4-2.1a5.2,5.2,0,0,0-2.1-1.1,3.68,3.68,0,0,1-1.9-1.2,3,3,0,0,1-.3-2.1,4,4,0,0,0-.1-2.2,4.35,4.35,0,0,0-.6-.7,3.37,3.37,0,0,0-1.2-.4c-.9-.2-1.7-.4-2-1.1-.7-1.1.2-3.2-.4-4.5a9,9,0,0,0-2-3.4l2.2-1.4a8,8,0,0,0,2.2,3.2c.9,1,3.2,1.1,3.8,2.1a2.36,2.36,0,0,1,.1,2.2,5.85,5.85,0,0,0-.2,1.3,1.49,1.49,0,0,0,.4.9,5.2,5.2,0,0,0,2.1,1.1,3.68,3.68,0,0,1,1.9,1.2,2.88,2.88,0,0,1,.3,2.1,4,4,0,0,0,.1,2.2,2.45,2.45,0,0,0,1.8,1.2,6.47,6.47,0,0,1,1.3.4,2.76,2.76,0,0,1,.8.6c.8,1-.2,3.2.4,4.5a9,9,0,0,0,2,3.4Z" transform="translate(0)"/></g><g class="cls-2"><path class="cls-3" d="M1658.3,463.9c2.9,1.6,5.6,2.8,8.3,4.1a46.64,46.64,0,0,0,8.3,3.1c1.4.4,2.9.6,4.4,1.1a24.23,24.23,0,0,1,4.6,1.8,17.11,17.11,0,0,1,4.2,2.8c1.3,1.1,2.5,2.2,3.8,3.2l2.8,2.1-2.6,1a21.32,21.32,0,0,0-7.4,5.1c-1.1,1.1-2.1,2.2-3.2,3.3a19.35,19.35,0,0,1-3.6,2.8,25.24,25.24,0,0,1-4,2.1c-1.4.5-2.9,1.1-4.4,1.6a20.92,20.92,0,0,0-7.8,4.7l-2,2-.9-3.5c-.4-1.5-1-3.1-1.4-4.8a16.72,16.72,0,0,1-.6-5,37.49,37.49,0,0,1,.3-4.8c.3-1.5.6-3,.8-4.5a65.06,65.06,0,0,0,.6-8.8C1658.5,470.2,1658.5,467.1,1658.3,463.9Zm1.4,2.2c.1,2.7.3,5.7.6,8.7a59.51,59.51,0,0,0,1.5,9.1c.4,1.5.8,3.1,1.3,4.5a34.29,34.29,0,0,1,.8,4.2,9.08,9.08,0,0,1-.3,4c-.3,1.3-.7,2.8-1,4.2l-2.9-1.5a21.28,21.28,0,0,0,7.5-5.1c1.1-1.1,2.1-2.2,3.2-3.3a19.35,19.35,0,0,1,3.6-2.8,25.24,25.24,0,0,1,4-2.1c1.4-.5,2.9-1.1,4.4-1.6a23.66,23.66,0,0,0,7.8-4.6l.2,3.2c-1.4-.4-2.9-.6-4.2-.9a13.41,13.41,0,0,1-3.8-1.4,18.23,18.23,0,0,1-3.5-2.4c-1.2-1-2.3-2-3.6-3a61.26,61.26,0,0,0-7.7-5.2C1664.7,468.7,1662.1,467.3,1659.7,466.1Z" transform="translate(0)"/></g><g class="cls-2"><path class="cls-3" d="M1361,479.1a13.71,13.71,0,0,1,1.1-5.4,19.83,19.83,0,0,1,2.9-4.8,29.1,29.1,0,0,1,4.3-4.3,9.34,9.34,0,0,1,6-2.1,8.75,8.75,0,0,1,1.6.2c.5.1,1.1.3,1.5.4a3.92,3.92,0,0,1,1.4.8,11.32,11.32,0,0,1,1.3,1c1.6,1.4,3,2.7,4.4,3.9a24.53,24.53,0,0,1,4.2,4.3,10,10,0,0,1,2.2,6,9.94,9.94,0,0,1-2.1,6,34.35,34.35,0,0,1-4.2,4.3,10,10,0,0,0-1.1,1,10,10,0,0,0-1.1,1l-1.1,1.1a13.07,13.07,0,0,1-1.2,1.1,14.7,14.7,0,0,1-1.3,1,9.14,9.14,0,0,1-1.4.7,9.83,9.83,0,0,1-1.6.5,8.6,8.6,0,0,1-1.6.1,10.89,10.89,0,0,1-6-2.1,28.57,28.57,0,0,1-4.3-4.2,20.25,20.25,0,0,1-3-4.8A27.1,27.1,0,0,1,1361,479.1Zm2.6,0a15.36,15.36,0,0,0,.8,4.6,8.29,8.29,0,0,0,2.7,3.7,6.64,6.64,0,0,0,4.2,1.4c1.4,0,2.8-.2,4-.2a30.23,30.23,0,0,1,4,.3h1.2c.4-.1.7-.2,1.2-.3a9.25,9.25,0,0,1,1-.5l.8-.8a6.64,6.64,0,0,0,1.4-4.2c0-1.5-.2-2.8-.1-4s.1-2.5.1-4a7.29,7.29,0,0,0-1.4-4.2,4.86,4.86,0,0,0-4.1-1.7,5.28,5.28,0,0,0-1.2.1c-.4.1-.7.1-1.1.2a3.4,3.4,0,0,1-1,.1,1.7,1.7,0,0,1-1,0c-1.3,0-2.5-.1-4-.1a7.29,7.29,0,0,0-4.2,1.4,10.38,10.38,0,0,0-2.8,3.7A32.6,32.6,0,0,0,1363.6,479.1Z" transform="translate(0)"/></g><g class="cls-2"><path class="cls-3" d="M1733,375.2a7,7,0,0,0,3.8,1.1c1.3.1,3.2-1.3,4.4-.7a2.1,2.1,0,0,1,.8.6,4.13,4.13,0,0,1,.7,1.1c.4.8.9,1.4,1.6,1.5a3.71,3.71,0,0,0,2.2-.4,2.65,2.65,0,0,1,2.1-.2,3.75,3.75,0,0,1,1.6,1.5,5.08,5.08,0,0,0,1.5,1.7,1.16,1.16,0,0,0,1,.2,1.61,1.61,0,0,0,1.1-.5c.9-.5,1.6-.8,2.2-.4,1.3.4,1.9,2.6,3,3.2a6.4,6.4,0,0,0,3.7,1.3l-.8,2.5a8.11,8.11,0,0,0-3.8-1.2c-1.3-.2-3.2,1.2-4.4.7-.6-.1-1.1-.8-1.5-1.7a4.13,4.13,0,0,0-.7-1.1,1.09,1.09,0,0,0-.9-.4,3.71,3.71,0,0,0-2.2.4,2.65,2.65,0,0,1-2.1.2,3.75,3.75,0,0,1-1.6-1.5,5.08,5.08,0,0,0-1.5-1.7,2.31,2.31,0,0,0-2.1.2,6.12,6.12,0,0,1-1.2.5,2.05,2.05,0,0,1-1.1,0c-1.3-.2-1.9-2.6-3-3.2a6.27,6.27,0,0,0-3.7-1.4Z" transform="translate(0)"/></g><g class="cls-2"><path class="cls-3" d="M1796.5,402.6a13.1,13.1,0,0,0-1.1-5.2c-.6-1.7-2.9-3.1-3.1-4.9a2,2,0,0,1,.1-1.3l.6-1.5a4.25,4.25,0,0,0,.4-2.9,7,7,0,0,0-1.6-2.5,4.26,4.26,0,0,1-1.4-2.5,5.63,5.63,0,0,1,.4-2.8,7.92,7.92,0,0,0,.6-2.9,2.84,2.84,0,0,0-.4-1.3,3.46,3.46,0,0,0-1-1.1,4,4,0,0,1-1.6-2.4c-.4-1.7,1.2-3.9,1-5.7a11.82,11.82,0,0,0-.8-5.3l2.6-.5a13.1,13.1,0,0,0,1.1,5.2c.5,1.7,2.7,3.2,3.1,4.9.3.9-.1,1.8-.6,2.9a4.76,4.76,0,0,0-.5,1.4,2.25,2.25,0,0,0,.1,1.4,7,7,0,0,0,1.6,2.5,4.26,4.26,0,0,1,1.4,2.5,5.63,5.63,0,0,1-.4,2.8,6.3,6.3,0,0,0-.6,2.9,3.78,3.78,0,0,0,1.4,2.5c.3.4.8.8,1.1,1.2a3.38,3.38,0,0,1,.6,1.2c.5,1.7-1.1,3.9-1,5.7a11.82,11.82,0,0,0,.8,5.3Z" transform="translate(0)"/></g><g class="cls-2"><path class="cls-3" d="M1815.1,396.9c2.9-.3,5.5-.6,8.2-1.1,1.3-.2,2.6-.4,3.9-.7s2.6-.6,3.8-1a42,42,0,0,1,7.8-2.6,21.19,21.19,0,0,1,4.4-.4,31.16,31.16,0,0,1,4.4.5l4.9.7-2.7,2.6a17.58,17.58,0,0,0-4.6,7.9c-.4,1.5-.8,3.1-1.2,4.6a14.41,14.41,0,0,1-1.8,4.2,20.17,20.17,0,0,1-2.7,3.8c-1,1.2-2.2,2.3-3.1,3.5a23.29,23.29,0,0,0-2.6,3.8,17.61,17.61,0,0,0-1.5,4.4l-.7,3.7-3.4-3.8a32.37,32.37,0,0,1-2.9-3.4,20.54,20.54,0,0,1-2-3.9c-1.1-2.7-1.4-5.5-2-8a18.16,18.16,0,0,0-1.3-3.7c-.5-1.2-1-2.5-1.5-3.7A81.14,81.14,0,0,0,1815.1,396.9Zm2.2,1.1c1,2.2,2.2,4.5,3.5,6.8.7,1.1,1.3,2.3,2.1,3.4a33.92,33.92,0,0,0,2.3,3.4c1.7,2.3,3.7,4.2,5,6.3a10.36,10.36,0,0,1,1.5,3.2,22,22,0,0,1,.6,3.7l-4.1-.1a16.38,16.38,0,0,0,2.9-3.6,17.17,17.17,0,0,0,1.8-4.2c.4-1.5.8-3.1,1.2-4.6a15.67,15.67,0,0,1,1.8-4.2,24,24,0,0,1,2.7-3.8c1-1.2,2.2-2.3,3.1-3.5a18.19,18.19,0,0,0,4.1-8.2l2.2,3.3a30.68,30.68,0,0,1-3.4,1.4,10.6,10.6,0,0,1-3.5.5c-2.4.2-5.1-.5-8-.8-1.4-.1-2.8-.1-4.1-.1s-2.7.1-4,.2C1822.3,397.4,1819.7,397.6,1817.3,398Z" transform="translate(0)"/></g><g class="cls-2"><path class="cls-3" d="M1769.7,446.2a14.51,14.51,0,0,1-5.5-1,22,22,0,0,1-4.9-2.8,28.68,28.68,0,0,1-4.4-4.2,9.38,9.38,0,0,1-2.2-5.9c0-.5.1-1.1.1-1.6a6.58,6.58,0,0,1,.4-1.5,3.92,3.92,0,0,1,.8-1.4c.3-.5.6-.9.9-1.4,1.4-1.6,2.6-3,3.8-4.5a24.29,24.29,0,0,1,4.2-4.3,10.11,10.11,0,0,1,5.9-2.3,9.25,9.25,0,0,1,6,2,44.21,44.21,0,0,1,4.4,4.1,4.74,4.74,0,0,0,1,1,4.74,4.74,0,0,0,1,1c.4.3.7.7,1.1,1a11.41,11.41,0,0,1,1.1,1.1,14.7,14.7,0,0,1,1,1.3,10,10,0,0,1,.8,1.4,9.83,9.83,0,0,1,.5,1.6,8.6,8.6,0,0,1,.1,1.6,10.06,10.06,0,0,1-2,6,28.84,28.84,0,0,1-4.1,4.4,22.44,22.44,0,0,1-4.7,3.1A15.85,15.85,0,0,1,1769.7,446.2Zm0-2.7a12,12,0,0,0,4.5-.9,9,9,0,0,0,3.6-2.8,6,6,0,0,0,1.3-4.2c-.1-1.4-.3-2.8-.3-4a28.87,28.87,0,0,1,.2-4v-1.2c-.1-.4-.2-.7-.3-1.2a8.79,8.79,0,0,0-.6-1l-.8-.8a6,6,0,0,0-4.2-1.3c-1.5,0-2.8.3-4,.2h-4a6.76,6.76,0,0,0-4.2,1.5,5.16,5.16,0,0,0-1.6,4.2,5.28,5.28,0,0,0,.1,1.2c.1.4.1.7.2,1.1a3.4,3.4,0,0,1,.1,1,1.7,1.7,0,0,1,0,1v4a6.76,6.76,0,0,0,1.5,4.2,9.84,9.84,0,0,0,3.7,2.7C1766.6,443.3,1768.1,443.5,1769.7,443.5Z" transform="translate(0)"/></g><g class="cls-2"><path class="cls-3" d="M1075.5,525.7a7.36,7.36,0,0,0,3.7,1.6c1.3.3,3.3-.9,4.5-.2a5,5,0,0,1,.8.7l.6,1.2c.4.9.7,1.4,1.4,1.6a3.46,3.46,0,0,0,2.2-.2,2.54,2.54,0,0,1,2.1,0,5.08,5.08,0,0,1,1.5,1.7,4,4,0,0,0,1.4,1.9c.3.2.5.4.9.3a5.27,5.27,0,0,0,1.2-.3,2.53,2.53,0,0,1,2.2-.2c1.2.5,1.5,2.8,2.6,3.5a6.4,6.4,0,0,0,3.5,1.7l-1.1,2.4a7.76,7.76,0,0,0-3.7-1.6c-1.3-.3-3.2.8-4.5.2-.6-.2-1-.9-1.4-1.9a4.49,4.49,0,0,0-.6-1.2.75.75,0,0,0-.8-.5,4.32,4.32,0,0,0-2.2.2,2.54,2.54,0,0,1-2.1,0,5.08,5.08,0,0,1-1.5-1.7,4,4,0,0,0-1.4-1.9,2.21,2.21,0,0,0-2.1,0c-.4.1-.9.3-1.2.4s-.7.1-1-.1c-1.3-.4-1.5-2.8-2.6-3.5a6.4,6.4,0,0,0-3.5-1.7Z" transform="translate(0)"/></g><g class="cls-2"><path class="cls-3" d="M1065.8,510a21.11,21.11,0,0,0,1.7-7.1c.4-2.3-1-5.3-.2-7.6a5.65,5.65,0,0,1,.9-1.7c.5-.5.8-1.1,1.3-1.5a5.57,5.57,0,0,0,1.7-3.3,9.78,9.78,0,0,0-.1-3.8,7.65,7.65,0,0,1,1.8-7.1,14,14,0,0,0,2-3.2,6.13,6.13,0,0,0,0-3.8,6.2,6.2,0,0,1-.1-3.8c.6-2.4,3-4.2,3.8-6.5a34,34,0,0,0,1.2-3.4c.3-1.2.6-2.3.8-3.6l2.6.7a14.25,14.25,0,0,0-1.1,3.5c-.2,1.2-.5,2.4-.6,3.7-.4,2.3.9,5.2.2,7.6a6.68,6.68,0,0,1-1.9,3.2,5.47,5.47,0,0,0-1.8,3.3,9.78,9.78,0,0,0,.1,3.8,7.65,7.65,0,0,1-1.8,7.1,14,14,0,0,0-2,3.2,6.88,6.88,0,0,0-.1,3.8,14.16,14.16,0,0,1,.4,2,5.31,5.31,0,0,1-.1,1.8c-.5,2.4-3,4.2-3.8,6.5a24.4,24.4,0,0,0-2,7Z" transform="translate(0)"/></g><g class="cls-2"><path class="cls-3" d="M1033,573.1c1.2-3,2.3-5.8,3.3-8.6a44.73,44.73,0,0,0,2.3-8.5c.3-1.4.3-2.9.7-4.5a24.17,24.17,0,0,1,1.3-4.6,22.61,22.61,0,0,1,2.2-4.4c.9-1.4,2-2.7,2.9-4.1l1.8-3,1.2,2.4a21,21,0,0,0,5.8,6.8c1.2,1,2.4,1.9,3.6,2.9a19.28,19.28,0,0,1,3.1,3.3,24.45,24.45,0,0,1,2.4,3.8c.7,1.3,1.4,2.8,2,4.1a23.14,23.14,0,0,0,5.4,7.3l2.2,1.8-3.4,1.2c-1.5.5-3,1.3-4.7,1.8a26.78,26.78,0,0,1-4.9,1.1,40.08,40.08,0,0,1-4.9.1c-1.5-.1-3-.2-4.6-.4a44.68,44.68,0,0,0-8.9.3C1039.2,572.3,1036.3,572.6,1033,573.1Zm2.1-1.5a70.66,70.66,0,0,0,8.6-1.5,79.33,79.33,0,0,0,9-2.3c1.5-.5,3-1.2,4.4-1.7a31.73,31.73,0,0,1,4.1-1.2,18.19,18.19,0,0,1,4-.2c1.3.2,2.8.5,4.3.6l-1.2,3a21.39,21.39,0,0,0-5.8-6.9c-1.2-1-2.4-1.9-3.6-2.9a19.28,19.28,0,0,1-3.1-3.3,24.45,24.45,0,0,1-2.4-3.8c-.7-1.3-1.4-2.8-2-4.1a23.14,23.14,0,0,0-5.4-7.3l3.2-.5a31.25,31.25,0,0,0-.4,4.3,15.94,15.94,0,0,1-1,3.9,28.51,28.51,0,0,1-2.1,3.7c-.9,1.3-1.8,2.5-2.7,3.8a65.58,65.58,0,0,0-4.4,8.2C1037.3,566.2,1036,569,1035.1,571.6Z" transform="translate(0)"/></g><g class="cls-2"><path class="cls-3" d="M1132.1,498.8a17.66,17.66,0,0,1-.9,7.2,26.86,26.86,0,0,1-3.2,6.6,30.24,30.24,0,0,1-5.1,5.7,14,14,0,0,1-7.5,3.1,14.7,14.7,0,0,1-2.1,0,13.8,13.8,0,0,0-2-.3c-.6-.2-1.3-.4-2-.7s-1.3-.6-1.8-.9c-2.2-1.4-4.2-2.9-6.2-4.4a39.44,39.44,0,0,1-5.7-5.2,13.59,13.59,0,0,1-3.1-7.5,14.33,14.33,0,0,1,1.7-7.9,31.89,31.89,0,0,1,4.7-6.1,17.41,17.41,0,0,0,1.2-1.4c.4-.4.8-.9,1.3-1.4a17.88,17.88,0,0,0,1.3-1.4,18.48,18.48,0,0,0,1.4-1.4,9.55,9.55,0,0,1,1.6-1.2c.6-.4,1.1-.7,1.8-1.1a14.58,14.58,0,0,1,1.9-.7c.7-.2,1.3-.2,2.1-.4a14.4,14.4,0,0,1,7.9,1.8,28.32,28.32,0,0,1,6.1,4.7,22.25,22.25,0,0,1,4.4,5.8A17.35,17.35,0,0,1,1132.1,498.8Zm-2.6.2a19.19,19.19,0,0,0-1.7-6.1,12.7,12.7,0,0,0-4.1-4.8,11.41,11.41,0,0,0-5.8-1.9,33.83,33.83,0,0,0-5.6.3,5.7,5.7,0,0,1-1.3.1c-.4,0-.9.1-1.4.1s-1,.1-1.4.1-1,.1-1.5.1l-1.5.3a9.38,9.38,0,0,0-1.5.6,12.49,12.49,0,0,0-1.2.9c-.4.4-.7.8-1.1,1.2a10.05,10.05,0,0,0-1.9,5.8,49.83,49.83,0,0,0,.3,5.6c.2,1.8.3,3.7.7,5.6a10.61,10.61,0,0,0,2.9,5.4,7.84,7.84,0,0,0,5.7,2.2h1.5c.5,0,1-.1,1.4-.1a6.75,6.75,0,0,1,1.4-.2,5.7,5.7,0,0,1,1.3-.1,37.75,37.75,0,0,0,5.6-.8,11.24,11.24,0,0,0,5.4-2.8,11.65,11.65,0,0,0,3.1-5.4A14,14,0,0,0,1129.5,499Z" transform="translate(0)"/></g><g class="cls-2"><path class="cls-3" d="M1326.6,507a6.79,6.79,0,0,0,3.9-.7c1.3-.5,2.3-2.6,3.7-2.6a1.8,1.8,0,0,1,1,.2c.4.2.7.4,1.1.6.8.5,1.4.8,2.1.5.7-.1,1.2-.7,1.7-1.4a2.24,2.24,0,0,1,1.8-1.1,4.5,4.5,0,0,1,2.1.6,4,4,0,0,0,2.2.8,1.8,1.8,0,0,0,1-.2,2.28,2.28,0,0,0,.8-.9c.5-.8,1.1-1.4,1.7-1.4,1.3-.3,2.8,1.5,4.1,1.5a5.43,5.43,0,0,0,3.8-.5l.4,2.6a6.65,6.65,0,0,0-3.9.7c-1.3.5-2.3,2.4-3.7,2.6a3.16,3.16,0,0,1-2.2-.8,3,3,0,0,0-1.1-.6c-.4-.2-.6-.1-1,0-.7.1-1.2.8-1.7,1.4a2.24,2.24,0,0,1-1.8,1.1,4.5,4.5,0,0,1-2.1-.6,4,4,0,0,0-2.2-.8,2.72,2.72,0,0,0-1.8,1.1,7,7,0,0,0-.8,1,2.62,2.62,0,0,1-.9.5c-1.3.4-2.8-1.5-4.1-1.5a5.43,5.43,0,0,0-3.8.5Z" transform="translate(0)"/></g><g class="cls-2"><path class="cls-3" d="M1213.3,561.3a6.57,6.57,0,0,0,.8-3.9c.1-1.3-1.6-3.1-1-4.3.1-.3.4-.5.5-.8a6.73,6.73,0,0,1,1.1-.7c.8-.5,1.3-1,1.4-1.6a4.07,4.07,0,0,0-.6-2.2,2.83,2.83,0,0,1-.4-2.1,2.67,2.67,0,0,1,1.4-1.6,4.67,4.67,0,0,0,1.6-1.5,1.15,1.15,0,0,0,.1-1,2.27,2.27,0,0,0-.6-1.2c-.5-.9-.8-1.5-.6-2.2.3-1.3,2.5-2,3-3.3a7.3,7.3,0,0,0,1.1-3.8l2.6.7a7.48,7.48,0,0,0-.9,3.9c-.2,1.3,1.4,3.1,1,4.3,0,.6-.7,1.2-1.6,1.5a4.31,4.31,0,0,0-1,.7.81.81,0,0,0-.3.9,4.07,4.07,0,0,0,.6,2.2,2.83,2.83,0,0,1,.4,2.1,2.67,2.67,0,0,1-1.4,1.6,5.85,5.85,0,0,0-1.6,1.5c-.4.5-.2,1.3.4,2.1a6.72,6.72,0,0,1,.6,1.2,2.08,2.08,0,0,1,.1,1.1c-.2,1.3-2.5,2-3,3.3a7.13,7.13,0,0,0-1.2,3.8Z" transform="translate(0)"/></g><g class="cls-2"><path class="cls-3" d="M1128.8,534.9a7.35,7.35,0,0,0,2.5,3c1,.9,3.4.7,4,1.8a1.78,1.78,0,0,1,.4,1,6.15,6.15,0,0,1-.1,1.3c-.1.9-.1,1.6.6,2.1a4.44,4.44,0,0,0,2.2.9,4.21,4.21,0,0,1,2,1,3,3,0,0,1,.5,2.1c0,.8-.1,1.7.3,2.2a1.34,1.34,0,0,0,.7.6,3.5,3.5,0,0,0,1.2.3c.9.1,1.7.2,2.1.9.8,1,.1,3.2.8,4.4a8.21,8.21,0,0,0,2.3,3.2l-2.1,1.6a7.35,7.35,0,0,0-2.5-3c-1-.9-3.3-.8-4-1.8a2.63,2.63,0,0,1-.3-2.2,5.7,5.7,0,0,0,.1-1.3c0-.4-.3-.6-.5-.9a4.44,4.44,0,0,0-2.2-.9,4.21,4.21,0,0,1-2-1,3,3,0,0,1-.5-2.1c0-.8.1-1.7-.3-2.2a2.39,2.39,0,0,0-1.9-1,6.11,6.11,0,0,1-1.3-.3,2.77,2.77,0,0,1-.8-.5c-.9-.9-.1-3.2-.8-4.4a8.21,8.21,0,0,0-2.3-3.2Z" transform="translate(0)"/></g><g class="cls-2"><path class="cls-3" d="M1237.8,509a12.15,12.15,0,0,0-4.6-2.8c-1.7-.8-4.2,0-5.6-1.2a2.19,2.19,0,0,1-.9-1,6.71,6.71,0,0,1-.6-1.5,4.27,4.27,0,0,0-1.8-2.3,8.13,8.13,0,0,0-3-.5,4.41,4.41,0,0,1-2.8-.8,4.64,4.64,0,0,1-1.7-2.3,7.69,7.69,0,0,0-1.6-2.5c-.4-.4-.7-.4-1.3-.6a3.69,3.69,0,0,0-1.5-.1,3.94,3.94,0,0,1-2.9-.6c-1.5-1-2-3.5-3.4-4.7a12.18,12.18,0,0,0-4.4-3.1l1.4-2.2a12.15,12.15,0,0,0,4.6,2.8c1.6.9,4.1.2,5.6,1.2a3.37,3.37,0,0,1,1.6,2.5,9.75,9.75,0,0,0,.6,1.4,2.44,2.44,0,0,0,1.1.9,8.13,8.13,0,0,0,3,.5,4.41,4.41,0,0,1,2.8.8,4.64,4.64,0,0,1,1.7,2.3,7.69,7.69,0,0,0,1.6,2.5,4.07,4.07,0,0,0,2.8.8c.5.1,1.1,0,1.6.1a5,5,0,0,1,1.3.4c1.6.9,2,3.5,3.4,4.7a12.18,12.18,0,0,0,4.4,3.1Z" transform="translate(0)"/></g><g class="cls-2"><path class="cls-3" d="M1193.5,536.2c-3-1.3-5.8-2.3-8.6-3.4a57.34,57.34,0,0,0-8.5-2.4c-1.4-.3-2.9-.3-4.5-.7a22.64,22.64,0,0,1-4.7-1.4,17,17,0,0,1-4.4-2.4c-1.4-1-2.7-2-4.1-2.9l-3-1.8,2.5-1.2a22.66,22.66,0,0,0,6.9-5.7c1-1.2,1.9-2.4,2.9-3.6a19.28,19.28,0,0,1,3.3-3.1,24.45,24.45,0,0,1,3.8-2.4c1.4-.6,2.8-1.4,4.2-2a21.74,21.74,0,0,0,7.4-5.4l1.8-2.2,1.2,3.4c.5,1.5,1.3,3,1.8,4.7a15.83,15.83,0,0,1,1,4.9,38.86,38.86,0,0,1,.1,4.8c-.2,1.5-.3,3-.4,4.6a64.66,64.66,0,0,0,.2,8.8C1192.8,530.1,1193,533.1,1193.5,536.2Zm-1.7-2c-.3-2.7-.8-5.7-1.4-8.6a58.27,58.27,0,0,0-2.3-8.9c-.5-1.5-1.1-3-1.7-4.4a37.13,37.13,0,0,1-1.2-4.1,10.77,10.77,0,0,1-.1-4c.2-1.3.5-2.9.6-4.3l3,1.2a22.8,22.8,0,0,0-7,5.7c-1,1.2-1.9,2.4-2.9,3.6a19.28,19.28,0,0,1-3.3,3.1,24.45,24.45,0,0,1-3.8,2.4c-1.4.6-2.8,1.4-4.2,2a24.45,24.45,0,0,0-7.4,5.3l-.5-3.2c1.4.3,2.9.3,4.3.5a13.36,13.36,0,0,1,3.9,1.1,20.22,20.22,0,0,1,3.7,2.1c1.3.9,2.5,1.8,3.8,2.7a65.54,65.54,0,0,0,8.1,4.5C1186.6,532,1189.4,533.3,1191.8,534.2Z" transform="translate(0)"/></g><g class="cls-2"><path class="cls-3" d="M1288.7,503.7a14.35,14.35,0,0,1-.6,5.5,16.75,16.75,0,0,1-2.5,5,32.34,32.34,0,0,1-3.9,4.7,9.67,9.67,0,0,1-5.8,2.6,8.6,8.6,0,0,1-1.6-.1c-.5-.1-1.1-.2-1.5-.3a5.07,5.07,0,0,1-1.5-.7c-.4-.3-.9-.5-1.4-.9-1.7-1.3-3.2-2.4-4.7-3.5a27.24,27.24,0,0,1-4.6-3.9,10.42,10.42,0,0,1-2.7-5.8,9.66,9.66,0,0,1,1.6-6.2,35.44,35.44,0,0,1,3.8-4.7,23883218604546.55,23883218604546.55,0,0,0,2-2.2c.4-.4.6-.8,1-1.2a12,12,0,0,1,1.1-1.2c.5-.4.7-.7,1.2-1.1s1-.6,1.3-.8a15.57,15.57,0,0,1,1.5-.6,7.77,7.77,0,0,1,1.6-.2,10.5,10.5,0,0,1,6.2,1.6,28.94,28.94,0,0,1,4.7,3.8,20.5,20.5,0,0,1,3.4,4.5A26.27,26.27,0,0,1,1288.7,503.7Zm-2.5.3a15,15,0,0,0-1.2-4.5,7.12,7.12,0,0,0-3-3.4,6.7,6.7,0,0,0-4.3-1c-1.4.1-2.8.4-4,.6s-2.5,0-4,.1c-.4,0-.8.1-1.2.1s-.7.3-1.2.4-.7.5-1,.6a3.11,3.11,0,0,0-.7.9,6.7,6.7,0,0,0-1,4.3c.1,1.5.4,2.8.5,4s.1,2.5.3,4a7.55,7.55,0,0,0,1.8,4.1,4.3,4.3,0,0,0,4.2,1.3,6,6,0,0,0,1.2-.2l1.1-.3a3.55,3.55,0,0,1,1-.2,1.73,1.73,0,0,1,1-.1c1.3-.1,2.5-.1,4-.3a7.55,7.55,0,0,0,4.1-1.8,11.35,11.35,0,0,0,2.5-3.9C1286.1,507.1,1286.3,505.6,1286.2,504Z" transform="translate(0)"/></g><g class="cls-2"><path class="cls-3" d="M1340.9,547.9a12.15,12.15,0,0,0-4.6-2.8c-1.7-.8-4.2,0-5.6-1.2a2.19,2.19,0,0,1-.9-1,6.71,6.71,0,0,1-.6-1.5,4.27,4.27,0,0,0-1.8-2.3,8.13,8.13,0,0,0-3-.5,4.41,4.41,0,0,1-2.8-.8,4.64,4.64,0,0,1-1.7-2.3,7.69,7.69,0,0,0-1.6-2.5c-.4-.4-.7-.4-1.3-.6a3.69,3.69,0,0,0-1.5-.1,3.94,3.94,0,0,1-2.9-.6c-1.5-1-2-3.5-3.4-4.7a12.18,12.18,0,0,0-4.4-3.1l1.4-2.2a12.15,12.15,0,0,0,4.6,2.8c1.6.9,4.1.2,5.6,1.2a3.37,3.37,0,0,1,1.6,2.5,9.75,9.75,0,0,0,.6,1.4,2.44,2.44,0,0,0,1.1.9,8.13,8.13,0,0,0,3,.5,4.41,4.41,0,0,1,2.8.8,4.64,4.64,0,0,1,1.7,2.3,7.69,7.69,0,0,0,1.6,2.5,4.07,4.07,0,0,0,2.8.8c.5.1,1.1,0,1.6.1a5,5,0,0,1,1.3.4c1.6.9,2,3.5,3.4,4.7a12.18,12.18,0,0,0,4.4,3.1Z" transform="translate(0)"/></g><g class="cls-2"><path class="cls-3" d="M1296.6,575c-3-1.3-5.8-2.3-8.6-3.4a57.34,57.34,0,0,0-8.5-2.4c-1.4-.3-2.9-.3-4.5-.7a22.64,22.64,0,0,1-4.7-1.4,17,17,0,0,1-4.4-2.4c-1.4-1-2.7-2-4.1-2.9l-3-1.8,2.5-1.2a22.66,22.66,0,0,0,6.9-5.7c1-1.2,1.9-2.4,2.9-3.6a19.28,19.28,0,0,1,3.3-3.1,24.45,24.45,0,0,1,3.8-2.4c1.4-.6,2.8-1.4,4.2-2a21.74,21.74,0,0,0,7.4-5.4l1.8-2.2,1.2,3.4c.5,1.5,1.3,3,1.8,4.7a15.83,15.83,0,0,1,1,4.9,38.86,38.86,0,0,1,.1,4.8c-.2,1.5-.3,3-.4,4.6a64.66,64.66,0,0,0,.2,8.8C1295.8,568.9,1296.1,571.9,1296.6,575Zm-1.7-2c-.3-2.7-.8-5.7-1.4-8.6a58.27,58.27,0,0,0-2.3-8.9c-.5-1.5-1.1-3-1.7-4.4a37.13,37.13,0,0,1-1.2-4.1,10.77,10.77,0,0,1-.1-4c.2-1.3.5-2.9.6-4.3l3,1.2a22.8,22.8,0,0,0-7,5.7c-1,1.2-1.9,2.4-2.9,3.6a19.28,19.28,0,0,1-3.3,3.1,24.45,24.45,0,0,1-3.8,2.4c-1.4.6-2.8,1.4-4.2,2a24.45,24.45,0,0,0-7.4,5.3l-.5-3.2c1.4.3,2.9.3,4.3.5a13.36,13.36,0,0,1,3.9,1.1,20.22,20.22,0,0,1,3.7,2.1c1.3.9,2.5,1.8,3.8,2.7a65.54,65.54,0,0,0,8.1,4.5C1289.7,570.8,1292.4,572.1,1294.9,573Z" transform="translate(0)"/></g><g class="cls-2"><path class="cls-3" d="M634.7,546.4a7.36,7.36,0,0,0,3.7,1.6c1.3.3,3.3-.9,4.5-.2a5,5,0,0,1,.8.7l.6,1.2c.4.9.7,1.4,1.4,1.6a3.46,3.46,0,0,0,2.2-.2,2.54,2.54,0,0,1,2.1,0,5.08,5.08,0,0,1,1.5,1.7,4,4,0,0,0,1.4,1.9c.3.2.5.4.9.3a5.27,5.27,0,0,0,1.2-.3,2.53,2.53,0,0,1,2.2-.2c1.2.5,1.5,2.8,2.6,3.5a6.4,6.4,0,0,0,3.5,1.7l-1.1,2.4a7.76,7.76,0,0,0-3.7-1.6c-1.3-.3-3.2.8-4.5.2-.6-.2-1-.9-1.4-1.9a4.49,4.49,0,0,0-.6-1.2.75.75,0,0,0-.8-.5,4.32,4.32,0,0,0-2.2.2,2.54,2.54,0,0,1-2.1,0,4.26,4.26,0,0,1-1.5-1.7,4,4,0,0,0-1.4-1.9,2.21,2.21,0,0,0-2.1,0c-.4.1-.9.3-1.2.4s-.7.1-1-.1c-1.3-.4-1.5-2.8-2.6-3.5a6.4,6.4,0,0,0-3.5-1.7Z" transform="translate(0)"/></g><g class="cls-2"><path class="cls-3" d="M743.1,508.5c-3-1.3-5.8-2.3-8.6-3.4a57.34,57.34,0,0,0-8.5-2.4c-1.4-.3-2.9-.3-4.5-.7a22.64,22.64,0,0,1-4.7-1.4,17,17,0,0,1-4.4-2.4c-1.4-1-2.7-2-4.1-2.9l-3-1.8,2.5-1.2a22.66,22.66,0,0,0,6.9-5.7c1-1.2,1.9-2.4,2.9-3.6a19.28,19.28,0,0,1,3.3-3.1,30.3,30.3,0,0,1,3.8-2.4c1.4-.6,2.8-1.4,4.2-2a21.74,21.74,0,0,0,7.4-5.4l1.8-2.2,1.2,3.4c.5,1.5,1.3,3,1.8,4.7a15.83,15.83,0,0,1,1,4.9,38.86,38.86,0,0,1,.1,4.8c-.2,1.5-.3,3-.4,4.6a64.66,64.66,0,0,0,.2,8.8C742.3,502.3,742.6,505.3,743.1,508.5Zm-1.6-2.1c-.3-2.7-.8-5.7-1.4-8.6a58.27,58.27,0,0,0-2.3-8.9c-.5-1.5-1.1-3-1.7-4.4a37.13,37.13,0,0,1-1.2-4.1,10.77,10.77,0,0,1-.1-4c.2-1.3.5-2.9.6-4.3l3,1.2a22.8,22.8,0,0,0-7,5.7c-1,1.2-1.9,2.4-2.9,3.6a19.28,19.28,0,0,1-3.3,3.1,24.45,24.45,0,0,1-3.8,2.4c-1.4.6-2.8,1.4-4.2,2a24.45,24.45,0,0,0-7.4,5.3l-.5-3.2c1.4.3,2.9.3,4.3.5a13.36,13.36,0,0,1,3.9,1.1,20.22,20.22,0,0,1,3.7,2.1c1.3.9,2.5,1.8,3.8,2.7a65.54,65.54,0,0,0,8.1,4.5C736.1,504.3,738.9,505.6,741.5,506.4Z" transform="translate(0)"/></g><g class="cls-2"><path class="cls-3" d="M698.3,525.1a17.66,17.66,0,0,1-.9,7.2,26.86,26.86,0,0,1-3.2,6.6,30.24,30.24,0,0,1-5.1,5.7,14,14,0,0,1-7.5,3.1,14.7,14.7,0,0,1-2.1,0,13.8,13.8,0,0,0-2-.3c-.6-.2-1.3-.4-2-.7s-1.3-.6-1.8-.9c-2.2-1.4-4.2-2.9-6.2-4.4a39.44,39.44,0,0,1-5.7-5.2,13.29,13.29,0,0,1-3.1-7.5,14.33,14.33,0,0,1,1.7-7.9,31.89,31.89,0,0,1,4.7-6.1,17.41,17.41,0,0,0,1.2-1.4c.4-.4.8-.9,1.3-1.4a17.88,17.88,0,0,0,1.3-1.4,18.48,18.48,0,0,0,1.4-1.4,9.55,9.55,0,0,1,1.6-1.2c.6-.4,1.1-.7,1.8-1.1a14.58,14.58,0,0,1,1.9-.7c.7-.2,1.3-.2,2.1-.4a14.4,14.4,0,0,1,7.9,1.8,26.07,26.07,0,0,1,6.1,4.7,22.25,22.25,0,0,1,4.4,5.8A18.34,18.34,0,0,1,698.3,525.1Zm-2.7.2a19.19,19.19,0,0,0-1.7-6.1,12.7,12.7,0,0,0-4.1-4.8,11.41,11.41,0,0,0-5.8-1.9,33.83,33.83,0,0,0-5.6.3,5.7,5.7,0,0,1-1.3.1c-.4,0-.9.1-1.4.1s-1,.1-1.4.1-1,.1-1.5.1l-1.5.3a9.38,9.38,0,0,0-1.5.6,12.49,12.49,0,0,0-1.2.9c-.4.4-.7.8-1.1,1.2a10.05,10.05,0,0,0-1.9,5.8,49.83,49.83,0,0,0,.3,5.6c.2,1.8.3,3.7.7,5.6a10.61,10.61,0,0,0,2.9,5.4,7.84,7.84,0,0,0,5.7,2.2h1.5c.5,0,1-.1,1.4-.1a6.75,6.75,0,0,1,1.4-.2,5.7,5.7,0,0,1,1.3-.1,37.75,37.75,0,0,0,5.6-.8,11.24,11.24,0,0,0,5.4-2.8,11.65,11.65,0,0,0,3.1-5.4A12.41,12.41,0,0,0,695.6,525.3Z" transform="translate(0)"/></g><g class="cls-2"><path class="cls-3" d="M751.4,529.3a7.36,7.36,0,0,0,3.7,1.6c1.3.3,3.3-.9,4.5-.2a5,5,0,0,1,.8.7,4.49,4.49,0,0,1,.6,1.2c.4.9.7,1.4,1.4,1.6a3.46,3.46,0,0,0,2.2-.2,2.54,2.54,0,0,1,2.1,0,5.08,5.08,0,0,1,1.5,1.7,4,4,0,0,0,1.4,1.9c.3.2.5.4.9.3l1.2-.3a2.53,2.53,0,0,1,2.2-.2c1.2.5,1.5,2.8,2.6,3.5a6.4,6.4,0,0,0,3.5,1.7l-1.1,2.4a7.76,7.76,0,0,0-3.7-1.6c-1.3-.3-3.2.8-4.5.2-.6-.2-1-.9-1.4-1.9a4.49,4.49,0,0,0-.6-1.2.75.75,0,0,0-.8-.5,4.32,4.32,0,0,0-2.2.2,2.54,2.54,0,0,1-2.1,0,4.26,4.26,0,0,1-1.5-1.7,4,4,0,0,0-1.4-1.9,2.21,2.21,0,0,0-2.1,0c-.4.1-.9.3-1.2.4s-.7.1-1-.1c-1.3-.4-1.5-2.8-2.6-3.5a6.4,6.4,0,0,0-3.5-1.7Z" transform="translate(0)"/></g><g class="cls-2"><path class="cls-3" d="M709,576.7c1.2-3,2.3-5.8,3.3-8.6a44.73,44.73,0,0,0,2.3-8.5c.3-1.4.3-2.9.7-4.5a24.17,24.17,0,0,1,1.3-4.6,22.61,22.61,0,0,1,2.2-4.4c.9-1.4,2-2.7,2.9-4.1l1.8-3,1.2,2.4a21,21,0,0,0,5.8,6.8c1.2,1,2.4,1.9,3.6,2.9a19.28,19.28,0,0,1,3.1,3.3,24.45,24.45,0,0,1,2.4,3.8c.7,1.3,1.4,2.8,2,4.1a23.14,23.14,0,0,0,5.4,7.3l2.2,1.8-3.4,1.2c-1.5.5-3,1.3-4.7,1.8a26.78,26.78,0,0,1-4.9,1.1,40.08,40.08,0,0,1-4.9.1c-1.5-.1-3-.2-4.6-.4a44.68,44.68,0,0,0-8.9.3C715.1,575.9,712.2,576.2,709,576.7Zm2-1.5a70.66,70.66,0,0,0,8.6-1.5,79.33,79.33,0,0,0,9-2.3c1.5-.5,3-1.2,4.4-1.7a31.73,31.73,0,0,1,4.1-1.2,18.19,18.19,0,0,1,4-.2c1.3.2,2.8.5,4.3.6l-1.2,3a21.39,21.39,0,0,0-5.8-6.9c-1.2-1-2.4-1.9-3.6-2.9a19.28,19.28,0,0,1-3.1-3.3,24.45,24.45,0,0,1-2.4-3.8c-.7-1.3-1.4-2.8-2-4.1a23.14,23.14,0,0,0-5.4-7.3l3.2-.5a31.25,31.25,0,0,0-.4,4.3,15.94,15.94,0,0,1-1,3.9,28.51,28.51,0,0,1-2.1,3.7c-.9,1.3-1.8,2.5-2.7,3.8a65.58,65.58,0,0,0-4.4,8.2A80.65,80.65,0,0,0,711,575.2Z" transform="translate(0)"/></g><g class="cls-2"><path class="cls-3" d="M808,502.4a17.66,17.66,0,0,1-.9,7.2,26.86,26.86,0,0,1-3.2,6.6,30.24,30.24,0,0,1-5.1,5.7,14.35,14.35,0,0,1-7.5,3.1,14.7,14.7,0,0,1-2.1,0,13.8,13.8,0,0,0-2-.3c-.6-.2-1.3-.4-2-.7a15,15,0,0,1-1.8-.9c-2.2-1.4-4.2-2.9-6.2-4.4a39.44,39.44,0,0,1-5.7-5.2,13.59,13.59,0,0,1-3.1-7.5,14.33,14.33,0,0,1,1.7-7.9,31.89,31.89,0,0,1,4.7-6.1,17.41,17.41,0,0,0,1.2-1.4c.4-.4.8-.9,1.3-1.4a17.88,17.88,0,0,0,1.3-1.4,18.48,18.48,0,0,0,1.4-1.4,9.55,9.55,0,0,1,1.6-1.2c.6-.4,1.1-.7,1.8-1.1a14.58,14.58,0,0,1,1.9-.7c.6-.2,1.3-.2,2.1-.4a14.4,14.4,0,0,1,7.9,1.8,28.32,28.32,0,0,1,6.1,4.7,22.25,22.25,0,0,1,4.4,5.8A17.35,17.35,0,0,1,808,502.4Zm-2.6.2a19.19,19.19,0,0,0-1.7-6.1,12.7,12.7,0,0,0-4.1-4.8,11.41,11.41,0,0,0-5.8-1.9,33.83,33.83,0,0,0-5.6.3,5.7,5.7,0,0,1-1.3.1c-.4,0-.9.1-1.4.1s-1,.1-1.4.1-1,.1-1.5.1l-1.5.3a9.38,9.38,0,0,0-1.5.6,12.49,12.49,0,0,0-1.2.9c-.4.4-.7.8-1.1,1.2a10.05,10.05,0,0,0-1.9,5.8,49.83,49.83,0,0,0,.3,5.6c.2,1.8.3,3.7.7,5.6a10.61,10.61,0,0,0,2.9,5.4,7.84,7.84,0,0,0,5.7,2.2h1.5c.5,0,1-.1,1.4-.1a6.75,6.75,0,0,1,1.4-.2,5.7,5.7,0,0,1,1.3-.1,37.75,37.75,0,0,0,5.6-.8,11.24,11.24,0,0,0,5.4-2.8,11.65,11.65,0,0,0,3.1-5.4A14,14,0,0,0,805.4,502.6Z" transform="translate(0)"/></g><g class="cls-2"><path class="cls-3" d="M889.2,564.9a6.57,6.57,0,0,0,.8-3.9c.1-1.3-1.6-3.1-1-4.3.1-.3.4-.5.5-.8a6.73,6.73,0,0,1,1.1-.7c.8-.5,1.3-1,1.4-1.6a4.07,4.07,0,0,0-.6-2.2,2.83,2.83,0,0,1-.4-2.1,2.67,2.67,0,0,1,1.4-1.6,4.67,4.67,0,0,0,1.6-1.5,1.15,1.15,0,0,0,.1-1,2.27,2.27,0,0,0-.6-1.2c-.5-.9-.8-1.5-.6-2.2.3-1.3,2.5-2,3-3.3a7.3,7.3,0,0,0,1.1-3.8l2.6.7a7.48,7.48,0,0,0-.9,3.9c-.2,1.3,1.4,3.1,1,4.3,0,.6-.7,1.2-1.6,1.5a4.31,4.31,0,0,0-1,.7.81.81,0,0,0-.3.9,4.07,4.07,0,0,0,.6,2.2,2.83,2.83,0,0,1,.4,2.1,2.67,2.67,0,0,1-1.4,1.6,5.85,5.85,0,0,0-1.6,1.5c-.4.5-.2,1.3.4,2.1a6.72,6.72,0,0,1,.6,1.2,2.08,2.08,0,0,1,.1,1.1c-.2,1.3-2.5,2-3,3.3a7.13,7.13,0,0,0-1.2,3.8Z" transform="translate(0)"/></g><g class="cls-2"><path class="cls-3" d="M804.7,538.5a7.35,7.35,0,0,0,2.5,3c1,.9,3.4.7,4,1.8a1.78,1.78,0,0,1,.4,1,6.15,6.15,0,0,1-.1,1.3c-.1.9-.1,1.6.6,2.1a4.44,4.44,0,0,0,2.2.9,4.21,4.21,0,0,1,2,1,2.89,2.89,0,0,1,.5,2.1c0,.8-.1,1.7.3,2.2a1.34,1.34,0,0,0,.7.6,3.5,3.5,0,0,0,1.2.3c.9.1,1.7.2,2.1.9.8,1,.1,3.2.8,4.4a8.21,8.21,0,0,0,2.3,3.2l-2.1,1.6a7.35,7.35,0,0,0-2.5-3c-1-.9-3.3-.8-4-1.8a2.63,2.63,0,0,1-.3-2.2,5.7,5.7,0,0,0,.1-1.3c0-.4-.3-.6-.5-.9a4.44,4.44,0,0,0-2.2-.9,4.21,4.21,0,0,1-2-1,2.89,2.89,0,0,1-.5-2.1c0-.8.1-1.7-.3-2.2a2.39,2.39,0,0,0-1.9-1,6.11,6.11,0,0,1-1.3-.3,2.77,2.77,0,0,1-.8-.5c-.9-.9-.1-3.2-.8-4.4a8.21,8.21,0,0,0-2.3-3.2Z" transform="translate(0)"/></g><g class="cls-2"><path class="cls-3" d="M913.7,512.6a12.15,12.15,0,0,0-4.6-2.8c-1.7-.8-4.2,0-5.6-1.2a2.19,2.19,0,0,1-.9-1,6.71,6.71,0,0,1-.6-1.5,4.27,4.27,0,0,0-1.8-2.3,8.13,8.13,0,0,0-3-.5,4.41,4.41,0,0,1-2.8-.8,4.64,4.64,0,0,1-1.7-2.3,7.69,7.69,0,0,0-1.6-2.5c-.4-.4-.7-.4-1.3-.6a3.69,3.69,0,0,0-1.5-.1,3.94,3.94,0,0,1-2.9-.6c-1.5-1-2-3.5-3.4-4.7a12.18,12.18,0,0,0-4.4-3.1l1.4-2.2a12.15,12.15,0,0,0,4.6,2.8c1.6.9,4.1.2,5.6,1.2a3.37,3.37,0,0,1,1.6,2.5,9.75,9.75,0,0,0,.6,1.4,2.44,2.44,0,0,0,1.1.9,8.13,8.13,0,0,0,3,.5,4.41,4.41,0,0,1,2.8.8,4.64,4.64,0,0,1,1.7,2.3,7.69,7.69,0,0,0,1.6,2.5,4.07,4.07,0,0,0,2.8.8c.5.1,1.1,0,1.6.1a5,5,0,0,1,1.3.4c1.6.9,2,3.5,3.4,4.7a12.18,12.18,0,0,0,4.4,3.1Z" transform="translate(0)"/></g><g class="cls-2"><path class="cls-3" d="M869.5,539.8c-3-1.3-5.8-2.3-8.6-3.4a57.34,57.34,0,0,0-8.5-2.4c-1.4-.3-2.9-.3-4.5-.7a22.64,22.64,0,0,1-4.7-1.4,17,17,0,0,1-4.4-2.4c-1.4-1-2.7-2-4.1-2.9l-3-1.8,2.5-1.2a22.66,22.66,0,0,0,6.9-5.7c1-1.2,1.9-2.4,2.9-3.6a19.28,19.28,0,0,1,3.3-3.1,24.45,24.45,0,0,1,3.8-2.4c1.4-.6,2.8-1.4,4.2-2a21.74,21.74,0,0,0,7.4-5.4l1.8-2.2,1.2,3.4c.5,1.5,1.3,3,1.8,4.7a15.83,15.83,0,0,1,1,4.9,38.86,38.86,0,0,1,.1,4.8c-.2,1.5-.3,3-.4,4.6a64.66,64.66,0,0,0,.2,8.8C868.7,533.7,869,536.7,869.5,539.8Zm-1.7-2c-.3-2.7-.8-5.7-1.4-8.6a58.27,58.27,0,0,0-2.3-8.9c-.5-1.5-1.1-3-1.7-4.4a37.13,37.13,0,0,1-1.2-4.1,10.77,10.77,0,0,1-.1-4c.2-1.3.5-2.9.6-4.3l3,1.2a22.8,22.8,0,0,0-7,5.7c-1,1.2-1.9,2.4-2.9,3.6a19.28,19.28,0,0,1-3.3,3.1,24.45,24.45,0,0,1-3.8,2.4c-1.4.6-2.8,1.4-4.2,2a24.45,24.45,0,0,0-7.4,5.3l-.5-3.2c1.4.3,2.9.3,4.3.5a13.36,13.36,0,0,1,3.9,1.1,20.22,20.22,0,0,1,3.7,2.1c1.3.9,2.5,1.8,3.8,2.7a65.54,65.54,0,0,0,8.1,4.5C862.6,535.6,865.3,536.9,867.8,537.8Z" transform="translate(0)"/></g><g class="cls-2"><path class="cls-3" d="M964.7,507.3a14.35,14.35,0,0,1-.6,5.5,16.75,16.75,0,0,1-2.5,5,32.34,32.34,0,0,1-3.9,4.7,9.67,9.67,0,0,1-5.8,2.6,8.6,8.6,0,0,1-1.6-.1c-.5-.1-1.1-.2-1.5-.3a5.07,5.07,0,0,1-1.5-.7c-.4-.3-.9-.5-1.4-.9-1.7-1.3-3.2-2.4-4.7-3.5a27.24,27.24,0,0,1-4.6-3.9,10.42,10.42,0,0,1-2.7-5.8,9.66,9.66,0,0,1,1.6-6.2,35.44,35.44,0,0,1,3.8-4.7,47766437206862.92,47766437206862.92,0,0,1,2-2.2c.4-.4.6-.8,1-1.2a12,12,0,0,1,1.1-1.2c.5-.4.7-.7,1.2-1.1s1-.6,1.3-.8a15.57,15.57,0,0,1,1.5-.6,7.77,7.77,0,0,1,1.6-.2,10.5,10.5,0,0,1,6.2,1.6,28.94,28.94,0,0,1,4.7,3.8,20.5,20.5,0,0,1,3.4,4.5A47.12,47.12,0,0,1,964.7,507.3Zm-2.6.3a15,15,0,0,0-1.2-4.5,7.12,7.12,0,0,0-3-3.4,6.7,6.7,0,0,0-4.3-1c-1.4.1-2.8.4-4,.6s-2.5,0-4,.1c-.4,0-.8.1-1.2.1s-.7.3-1.2.4-.7.5-1,.6a3.11,3.11,0,0,0-.7.9,6.7,6.7,0,0,0-1,4.3c.1,1.5.4,2.8.5,4s.1,2.5.3,4a7.55,7.55,0,0,0,1.8,4.1,4.3,4.3,0,0,0,4.2,1.3,6,6,0,0,0,1.2-.2l1.1-.3a3.55,3.55,0,0,1,1-.2,1.73,1.73,0,0,1,1-.1c1.3-.1,2.5-.1,4-.3a7.55,7.55,0,0,0,4.1-1.8,11.35,11.35,0,0,0,2.5-3.9C962.1,510.7,962.2,509.2,962.1,507.6Z" transform="translate(0)"/></g><g class="cls-2"><path class="cls-3" d="M972.5,578.6c-3-1.3-5.8-2.3-8.6-3.4a57.34,57.34,0,0,0-8.5-2.4c-1.4-.3-2.9-.3-4.5-.7a22.64,22.64,0,0,1-4.7-1.4,17,17,0,0,1-4.4-2.4c-1.4-1-2.7-2-4.1-2.9l-3-1.8,2.5-1.2a22.66,22.66,0,0,0,6.9-5.7c1-1.2,1.9-2.4,2.9-3.6a19.28,19.28,0,0,1,3.3-3.1,24.45,24.45,0,0,1,3.8-2.4c1.4-.6,2.8-1.4,4.2-2a21.74,21.74,0,0,0,7.4-5.4l1.8-2.2,1.2,3.4c.5,1.5,1.3,3,1.8,4.7a15.83,15.83,0,0,1,1,4.9,38.86,38.86,0,0,1,.1,4.8c-.2,1.5-.3,3-.4,4.6a64.66,64.66,0,0,0,.2,8.8C971.8,572.5,972,575.5,972.5,578.6Zm-1.7-2c-.3-2.7-.8-5.7-1.4-8.6a58.27,58.27,0,0,0-2.3-8.9c-.5-1.5-1.1-3-1.7-4.4a37.13,37.13,0,0,1-1.2-4.1,10.77,10.77,0,0,1-.1-4c.2-1.3.5-2.9.6-4.3l3,1.2a22.8,22.8,0,0,0-7,5.7c-1,1.2-1.9,2.4-2.9,3.6a19.28,19.28,0,0,1-3.3,3.1,24.45,24.45,0,0,1-3.8,2.4c-1.4.6-2.8,1.4-4.2,2a24.45,24.45,0,0,0-7.4,5.3l-.5-3.2c1.4.3,2.9.3,4.3.5a12.54,12.54,0,0,1,3.9,1.1,20.22,20.22,0,0,1,3.7,2.1c1.3.9,2.5,1.8,3.8,2.7a65.54,65.54,0,0,0,8.1,4.5C965.6,574.4,968.3,575.7,970.8,576.6Z" transform="translate(0)"/></g><g class="cls-2"><path class="cls-3" d="M1391.8,542.6a14.35,14.35,0,0,1-.6,5.5,16.75,16.75,0,0,1-2.5,5,32.34,32.34,0,0,1-3.9,4.7,9.13,9.13,0,0,1-5.8,2.6,8.6,8.6,0,0,1-1.6-.1c-.5-.1-1.1-.2-1.5-.3a5.07,5.07,0,0,1-1.5-.7c-.4-.3-.9-.5-1.4-.9-1.7-1.3-3.2-2.4-4.7-3.5a27.24,27.24,0,0,1-4.6-3.9,10.42,10.42,0,0,1-2.7-5.8,9.66,9.66,0,0,1,1.6-6.2,35.44,35.44,0,0,1,3.8-4.7,23883218603859.89,23883218603859.89,0,0,0,2-2.2c.4-.4.6-.8,1-1.2a12,12,0,0,1,1.1-1.2c.5-.4.7-.7,1.2-1.1s1-.6,1.3-.8a15.57,15.57,0,0,1,1.5-.6,8.75,8.75,0,0,1,1.6-.2,10.5,10.5,0,0,1,6.2,1.6,28.94,28.94,0,0,1,4.7,3.8,20.5,20.5,0,0,1,3.4,4.5A29.63,29.63,0,0,1,1391.8,542.6Zm-2.6.2a15,15,0,0,0-1.2-4.5,7.12,7.12,0,0,0-3-3.4,6.7,6.7,0,0,0-4.3-1c-1.4.1-2.8.4-4,.6s-2.5,0-4,.1c-.4,0-.8.1-1.2.1s-.7.3-1.2.4-.7.5-1,.6a3.11,3.11,0,0,0-.7.9,6.7,6.7,0,0,0-1,4.3c.1,1.5.4,2.8.5,4s.1,2.5.3,4a7.55,7.55,0,0,0,1.8,4.1,4.53,4.53,0,0,0,4.2,1.3,6,6,0,0,0,1.2-.2l1.1-.3a3.55,3.55,0,0,1,1-.2,1.73,1.73,0,0,1,1-.1c1.3-.1,2.5-.1,4-.3a7.55,7.55,0,0,0,4.1-1.8,11.35,11.35,0,0,0,2.5-3.9C1389.2,545.9,1389.3,544.4,1389.2,542.8Z" transform="translate(0)"/></g></svg>