<svg id="Layer_1" data-name="Layer 1" xmlns="http://www.w3.org/2000/svg" xmlns:xlink="http://www.w3.org/1999/xlink" viewBox="0 0 1093.17 891.08">
  <defs>
    <style>
      .cls-1, .cls-11, .cls-2, .cls-20, .cls-28, .cls-3 {
        fill: none;
      }

      .cls-2, .cls-3 {
        stroke: #231f20;
      }

      .cls-2 {
        stroke-linecap: square;
        stroke-width: 0.3px;
      }

      .cls-3 {
        stroke-linecap: round;
        stroke-width: 0.75px;
      }

      .cls-13, .cls-15, .cls-26, .cls-29, .cls-33, .cls-39, .cls-4 {
        fill: #323071;
      }

      .cls-14, .cls-4, .cls-41, .cls-7 {
        opacity: 0.1;
      }

      .cls-12, .cls-13, .cls-15, .cls-16, .cls-18, .cls-25, .cls-26, .cls-29, .cls-30, .cls-31, .cls-36, .cls-37, .cls-38, .cls-39, .cls-4, .cls-40, .cls-41, .cls-42, .cls-7 {
        isolation: isolate;
      }

      .cls-25, .cls-41, .cls-42, .cls-5 {
        fill: #fff;
      }

      .cls-6 {
        fill: #d6e6ec;
      }

      .cls-7 {
        fill: url(#SVGID_3_);
      }

      .cls-10, .cls-8 {
        fill: #6fdcca;
      }

      .cls-9 {
        fill: #dad8e8;
      }

      .cls-10 {
        stroke: #d6e6ec;
      }

      .cls-10, .cls-11, .cls-20, .cls-28 {
        stroke-miterlimit: 10;
        stroke-width: 2.48px;
      }

      .cls-11 {
        stroke: #f8b0bc;
      }

      .cls-12, .cls-27, .cls-31 {
        fill: #191839;
      }

      .cls-12 {
        opacity: 0.89;
      }

      .cls-13 {
        opacity: 0.02;
      }

      .cls-15, .cls-16, .cls-30, .cls-35 {
        opacity: 0.2;
      }

      .cls-16, .cls-34, .cls-37, .cls-38 {
        fill: #f9f8fe;
      }

      .cls-17 {
        fill: #503ea7;
      }

      .cls-18 {
        fill: #9ca7ef;
      }

      .cls-18, .cls-36, .cls-38, .cls-40 {
        opacity: 0.4;
      }

      .cls-19 {
        fill: #f894a4;
      }

      .cls-20 {
        stroke: #f9f8fe;
      }

      .cls-21 {
        fill: #45add6;
      }

      .cls-22 {
        fill: #d2fad6;
      }

      .cls-23, .cls-40 {
        fill: #35296f;
      }

      .cls-24 {
        fill: #f8b0bc;
      }

      .cls-25, .cls-26, .cls-37 {
        opacity: 0.05;
      }

      .cls-28 {
        stroke: #fff;
      }

      .cls-29 {
        opacity: 0.3;
      }

      .cls-30, .cls-36 {
        fill: #23146b;
      }

      .cls-31 {
        opacity: 0.5;
      }

      .cls-32 {
        fill: #b5deef;
      }

      .cls-39 {
        opacity: 0.15;
      }

      .cls-42 {
        opacity: 0.15;
      }

      .cls-43 {
        fill: #d88293;
      }
    </style>
    <pattern id="SVGID_3_" data-name="SVGID 3 " width="65.2" height="65.2" patternTransform="matrix(2.48, 0, 0, -2.48, 43964.65, -72374.36)" patternUnits="userSpaceOnUse" viewBox="0 0 65.2 65.2">
      <rect class="cls-1" width="65.2" height="65.2"/>
      <g>
        <rect class="cls-1" width="65.2" height="65.2"/>
        <rect class="cls-1" width="65.2" height="65.2"/>
        <g>
          <rect class="cls-1" width="65.2" height="65.2"/>
          <rect class="cls-1" width="65.2" height="65.2"/>
          <rect class="cls-1" width="65.2" height="65.2"/>
          <g>
            <rect class="cls-1" width="65.2" height="65.2"/>
            <g>
              <rect class="cls-1" width="65.2" height="65.2"/>
              <g>
                <line class="cls-2" x1="67.6" y1="3.6" x2="62" y2="-0.7"/>
                <line class="cls-2" x1="70" y1="0.5" x2="64.5" y2="-3.8"/>
                <line class="cls-2" x1="47.2" y1="2.7" x2="43.5" y2="-2.8"/>
                <line class="cls-2" x1="49.9" y1="-0.2" x2="44.8" y2="-5"/>
                <line class="cls-2" x1="53.1" y1="0.7" x2="55.5" y2="-5"/>
                <line class="cls-2" x1="56.3" y1="2" x2="59" y2="-4.8"/>
                <line class="cls-2" x1="28" y1="1.5" x2="22.3" y2="-2.9"/>
                <line class="cls-2" x1="32" y1="0.5" x2="25.3" y2="-5.6"/>
                <line class="cls-2" x1="9.3" y1="0.7" x2="9" y2="-0.8"/>
                <line class="cls-2" x1="14.2" y1="2.5" x2="18.5" y2="-3.3"/>
                <line class="cls-2" x1="17.1" y1="5.4" x2="21.3" y2="-0.5"/>
                <line class="cls-2" x1="38.8" y1="2.5" x2="39.3" y2="-4"/>
                <line class="cls-2" x1="36" y1="3.2" x2="34.5" y2="-3.5"/>
              </g>
              <g>
                <line class="cls-2" x1="2.3" y1="3.6" x2="-3.2" y2="-0.7"/>
                <line class="cls-2" x1="4.8" y1="0.5" x2="-0.8" y2="-3.8"/>
              </g>
              <g>
                <line class="cls-2" x1="22.5" y1="42.2" x2="19.3" y2="36"/>
                <line class="cls-2" x1="36.4" y1="21.8" x2="44" y2="19.7"/>
                <line class="cls-2" x1="37.5" y1="24.7" x2="45.3" y2="23.5"/>
                <line class="cls-2" x1="30" y1="4.5" x2="32.8" y2="9.7"/>
                <line class="cls-2" x1="26.5" y1="5" x2="29.5" y2="10.7"/>
                <line class="cls-2" x1="46" y1="9.7" x2="41.3" y2="6.2"/>
                <line class="cls-2" x1="47.3" y1="7.2" x2="43.5" y2="3.2"/>
                <line class="cls-2" x1="49.9" y1="18.9" x2="50.8" y2="12"/>
                <line class="cls-2" x1="46" y1="18" x2="47.5" y2="11.5"/>
                <line class="cls-2" x1="14.2" y1="2.5" x2="18.5" y2="-3.3"/>
                <line class="cls-2" x1="17.1" y1="5.4" x2="21.3" y2="-0.5"/>
                <line class="cls-2" x1="20.5" y1="16.6" x2="24" y2="10.5"/>
                <line class="cls-2" x1="24.2" y1="18.1" x2="26.9" y2="11.6"/>
                <line class="cls-2" x1="33" y1="20.7" x2="27.8" y2="17.7"/>
                <line class="cls-2" x1="35.5" y1="17.5" x2="29.8" y2="15.5"/>
                <line class="cls-2" x1="47.2" y1="2.7" x2="43.5" y2="-2.8"/>
                <line class="cls-2" x1="49.9" y1="-0.2" x2="44.8" y2="-5"/>
                <line class="cls-2" x1="53.1" y1="0.7" x2="55.5" y2="-5"/>
                <line class="cls-2" x1="28" y1="1.5" x2="22.3" y2="-2.9"/>
                <line class="cls-2" x1="32" y1="0.5" x2="25.3" y2="-5.6"/>
                <line class="cls-2" x1="21.5" y1="7" x2="22" y2="5.7"/>
                <line class="cls-2" x1="37.8" y1="5" x2="38.8" y2="4"/>
                <line class="cls-2" x1="38.8" y1="2.5" x2="39.3" y2="-4"/>
                <line class="cls-2" x1="36" y1="3.2" x2="34.5" y2="-3.5"/>
                <line class="cls-2" x1="53.3" y1="15.2" x2="54.5" y2="15.7"/>
                <line class="cls-2" x1="32.5" y1="14.7" x2="32.8" y2="13.2"/>
                <line class="cls-2" x1="50.5" y1="3.2" x2="51.8" y2="3.2"/>
                <line class="cls-2" x1="33.8" y1="5.2" x2="32.8" y2="3.5"/>
                <line class="cls-2" x1="38" y1="18" x2="39.3" y2="18.5"/>
                <line class="cls-2" x1="40.2" y1="9.7" x2="35.8" y2="12.5"/>
                <line class="cls-2" x1="43" y1="12.1" x2="36.6" y2="15.1"/>
                <line class="cls-2" x1="35.5" y1="9.5" x2="36.8" y2="9.2"/>
                <line class="cls-2" x1="42.3" y1="16.2" x2="43.5" y2="16"/>
                <line class="cls-2" x1="18.6" y1="11" x2="20.3" y2="11.5"/>
                <line class="cls-2" x1="27" y1="56.8" x2="27.1" y2="49.8"/>
                <line class="cls-2" x1="31" y1="56.8" x2="30.3" y2="50.2"/>
                <line class="cls-2" x1="43.7" y1="37.5" x2="50.1" y2="34.8"/>
                <line class="cls-2" x1="45.2" y1="41.2" x2="51.6" y2="38.5"/>
                <line class="cls-2" x1="27.1" y1="41.6" x2="31.9" y2="45.3"/>
                <line class="cls-2" x1="24.1" y1="43.6" x2="30" y2="47.4"/>
                <line class="cls-2" x1="18.5" y1="23.8" x2="11.7" y2="22.1"/>
                <line class="cls-2" x1="19.3" y1="20.2" x2="12.5" y2="18.4"/>
                <line class="cls-2" x1="19.7" y1="44" x2="16.5" y2="37.8"/>
                <line class="cls-2" x1="8.7" y1="55.3" x2="10.1" y2="48.4"/>
                <line class="cls-2" x1="12.7" y1="56.1" x2="14" y2="49.2"/>
                <line class="cls-2" x1="0.6" y1="58.2" x2="6.8" y2="55"/>
                <line class="cls-2" x1="3.5" y1="48.7" x2="2.3" y2="42.7"/>
                <line class="cls-2" x1="7.6" y1="48.8" x2="6.3" y2="42"/>
                <line class="cls-2" x1="56.4" y1="21" x2="58.8" y2="13.5"/>
                <line class="cls-2" x1="60.5" y1="21" x2="61.3" y2="14.5"/>
                <line class="cls-2" x1="53" y1="28.7" x2="49" y2="23"/>
                <line class="cls-2" x1="55.8" y1="27.4" x2="54" y2="22"/>
                <line class="cls-2" x1="27" y1="37.4" x2="27.8" y2="30.5"/>
                <line class="cls-2" x1="29.9" y1="38.2" x2="31.6" y2="31.4"/>
                <line class="cls-2" x1="52.8" y1="60.3" x2="46.5" y2="57.4"/>
                <line class="cls-2" x1="54.3" y1="57.5" x2="48.2" y2="53.7"/>
                <line class="cls-2" x1="17.7" y1="52.7" x2="19.3" y2="46.2"/>
                <line class="cls-2" x1="19.7" y1="55" x2="22.8" y2="48.7"/>
                <line class="cls-2" x1="37.5" y1="51" x2="34" y2="44.7"/>
                <line class="cls-2" x1="40.1" y1="49.8" x2="36.2" y2="44"/>
                <line class="cls-2" x1="50" y1="49.5" x2="43.8" y2="47"/>
                <line class="cls-2" x1="50.5" y1="45" x2="44.3" y2="44.7"/>
                <line class="cls-2" x1="56.2" y1="47.8" x2="54.5" y2="41.5"/>
                <line class="cls-2" x1="59" y1="45.3" x2="55.5" y2="39.2"/>
                <line class="cls-2" x1="57.2" y1="12" x2="50.8" y2="9.1"/>
                <line class="cls-2" x1="58.8" y1="8.4" x2="52.5" y2="5.5"/>
                <line class="cls-2" x1="47.3" y1="28.2" x2="43" y2="33"/>
                <line class="cls-2" x1="44.5" y1="27.5" x2="39.7" y2="31.9"/>
                <line class="cls-2" x1="30.5" y1="26" x2="34.5" y2="31"/>
                <line class="cls-2" x1="32.9" y1="22.8" x2="37.3" y2="28.7"/>
                <line class="cls-2" x1="22.4" y1="33.7" x2="15.5" y2="34.4"/>
                <line class="cls-2" x1="21.5" y1="30.5" x2="14.7" y2="31.9"/>
                <line class="cls-2" x1="6.8" y1="28.5" x2="12.4" y2="24.3"/>
                <line class="cls-2" x1="9.2" y1="31.7" x2="14.8" y2="27.5"/>
                <line class="cls-2" x1="14" y1="15.7" x2="13.4" y2="8.7"/>
                <line class="cls-2" x1="17.8" y1="15.2" x2="16.8" y2="7.8"/>
                <line class="cls-2" x1="20.2" y1="24.9" x2="25.1" y2="19.9"/>
                <line class="cls-2" x1="23" y1="27.7" x2="28" y2="22.8"/>
                <line class="cls-2" x1="8.5" y1="19" x2="3.9" y2="14.7"/>
                <line class="cls-2" x1="10.8" y1="16.5" x2="5.3" y2="12.2"/>
                <line class="cls-2" x1="56.1" y1="50.6" x2="63.1" y2="51.2"/>
                <line class="cls-2" x1="56.3" y1="54" x2="62.8" y2="55.2"/>
                <line class="cls-2" x1="36.3" y1="42" x2="37" y2="35"/>
                <line class="cls-2" x1="40.3" y1="42" x2="39.8" y2="36.5"/>
                <line class="cls-2" x1="12" y1="64.1" x2="9.1" y2="59.1"/>
                <line class="cls-2" x1="6.5" y1="33" x2="12.2" y2="37"/>
                <line class="cls-2" x1="4.2" y1="36.3" x2="9.9" y2="40.3"/>
                <line class="cls-2" x1="4.1" y1="7" x2="8.5" y2="2.7"/>
                <line class="cls-2" x1="6.6" y1="8.6" x2="10.5" y2="5.2"/>
                <line class="cls-2" x1="60.8" y1="43" x2="65.1" y2="37.4"/>
                <line class="cls-2" x1="63.4" y1="45.2" x2="67.7" y2="39.7"/>
                <line class="cls-2" x1="58.5" y1="36.6" x2="51.7" y2="34.8"/>
                <line class="cls-2" x1="59.5" y1="32.7" x2="52.7" y2="30.9"/>
                <line class="cls-2" x1="15.8" y1="45.7" x2="8.9" y2="46.1"/>
                <line class="cls-2" x1="16.3" y1="43" x2="9.3" y2="42.2"/>
                <line class="cls-2" x1="60.3" y1="9.5" x2="64.2" y2="3.7"/>
                <line class="cls-2" x1="63.6" y1="11.7" x2="67.5" y2="6"/>
                <line class="cls-2" x1="63.8" y1="34.5" x2="60.1" y2="30.1"/>
                <line class="cls-2" x1="67.1" y1="33.9" x2="63.4" y2="28"/>
                <line class="cls-2" x1="67.6" y1="3.6" x2="62" y2="-0.7"/>
                <line class="cls-2" x1="56.3" y1="2" x2="59" y2="-4.8"/>
                <line class="cls-2" x1="64" y1="54.7" x2="70.1" y2="51.4"/>
                <line class="cls-2" x1="16.6" y1="55.7" x2="21" y2="58.5"/>
                <line class="cls-2" x1="13.8" y1="58.1" x2="20.2" y2="61.1"/>
                <line class="cls-2" x1="36.1" y1="57.1" x2="40.9" y2="52.3"/>
                <line class="cls-2" x1="39.3" y1="59.5" x2="43.6" y2="54"/>
                <line class="cls-2" x1="67.7" y1="25.7" x2="62.5" y2="23.2"/>
                <line class="cls-2" x1="70.6" y1="23.1" x2="64.5" y2="19.7"/>
                <line class="cls-2" x1="30" y1="61.5" x2="31.3" y2="61.2"/>
                <line class="cls-2" x1="29.3" y1="58.5" x2="29" y2="59.2"/>
                <line class="cls-2" x1="34" y1="53" x2="34.8" y2="53.5"/>
                <line class="cls-2" x1="45" y1="55.2" x2="46.3" y2="55.2"/>
                <line class="cls-2" x1="51.8" y1="50.7" x2="52.5" y2="50"/>
                <line class="cls-2" x1="60.8" y1="47.2" x2="61.5" y2="48"/>
                <line class="cls-2" x1="62.3" y1="59.5" x2="61.8" y2="58.5"/>
                <line class="cls-2" x1="6" y1="51.7" x2="6.8" y2="51.2"/>
                <line class="cls-2" x1="12.3" y1="34.5" x2="12.3" y2="33.7"/>
                <line class="cls-2" x1="5.5" y1="30.5" x2="4" y2="30.5"/>
                <line class="cls-2" x1="9.8" y1="10.7" x2="10.3" y2="12"/>
                <line class="cls-2" x1="18.3" y1="27.5" x2="17.5" y2="28.5"/>
                <line class="cls-2" x1="49.3" y1="31" x2="50" y2="31.7"/>
                <line class="cls-2" x1="39.3" y1="28.2" x2="39.8" y2="27.2"/>
                <line class="cls-2" x1="25.5" y1="46.5" x2="26.3" y2="47.2"/>
                <line class="cls-2" x1="23.3" y1="37.5" x2="24.5" y2="36.7"/>
                <line class="cls-2" x1="9.3" y1="0.7" x2="9" y2="-0.8"/>
                <line class="cls-2" x1="38.3" y1="31.5" x2="37.8" y2="32.7"/>
                <line class="cls-2" x1="67.6" y1="68.9" x2="62" y2="64.6"/>
                <line class="cls-2" x1="70" y1="65.7" x2="64.5" y2="61.4"/>
                <line class="cls-2" x1="47.2" y1="67.9" x2="43.5" y2="62.5"/>
                <line class="cls-2" x1="49.9" y1="65" x2="44.8" y2="60.2"/>
                <line class="cls-2" x1="53.1" y1="66" x2="55.5" y2="60.2"/>
                <line class="cls-2" x1="56.3" y1="67.2" x2="59" y2="60.5"/>
                <line class="cls-2" x1="28" y1="66.7" x2="22.3" y2="62.3"/>
                <line class="cls-2" x1="32" y1="65.7" x2="25.3" y2="59.7"/>
                <line class="cls-2" x1="9.3" y1="66" x2="9" y2="64.5"/>
                <line class="cls-2" x1="14.2" y1="67.8" x2="18.5" y2="62"/>
                <line class="cls-2" x1="17.1" y1="70.6" x2="21.3" y2="64.8"/>
                <line class="cls-2" x1="58.5" y1="5.7" x2="59" y2="4.5"/>
                <line class="cls-2" x1="38.8" y1="67.7" x2="39.3" y2="61.2"/>
                <line class="cls-2" x1="36" y1="68.5" x2="34.5" y2="61.7"/>
                <line class="cls-2" x1="45.8" y1="51.5" x2="46.5" y2="50.7"/>
                <line class="cls-2" x1="32.8" y1="39.7" x2="34" y2="39.5"/>
                <line class="cls-2" x1="63.5" y1="14.2" x2="64.3" y2="15"/>
                <line class="cls-2" x1="8.3" y1="63.5" x2="4.9" y2="59.1"/>
                <line class="cls-2" x1="61.5" y1="27" x2="62.8" y2="26.7"/>
                <line class="cls-2" x1="23.3" y1="55.2" x2="24.3" y2="54.5"/>
                <line class="cls-2" x1="36.3" y1="60.7" x2="36.5" y2="59.5"/>
                <line class="cls-2" x1="11" y1="56.7" x2="11.5" y2="58.2"/>
                <line class="cls-3" x1="3.3" y1="61.5" x2="3.3" y2="61.5"/>
                <line class="cls-3" x1="6.3" y1="58.2" x2="6.3" y2="58.2"/>
                <line class="cls-3" x1="13" y1="63.7" x2="13" y2="63.7"/>
                <line class="cls-3" x1="23.3" y1="56.7" x2="23.3" y2="56.7"/>
                <line class="cls-3" x1="17" y1="50" x2="17" y2="50"/>
                <line class="cls-3" x1="14.5" y1="40.2" x2="14.5" y2="40.2"/>
                <line class="cls-3" x1="3.8" y1="41.2" x2="3.8" y2="41.2"/>
                <line class="cls-3" x1="20.5" y1="29.2" x2="20.5" y2="29.2"/>
                <line class="cls-3" x1="25.8" y1="33.5" x2="25.8" y2="33.5"/>
                <line class="cls-3" x1="33.5" y1="42" x2="33.5" y2="42"/>
                <line class="cls-3" x1="28" y1="25" x2="28" y2="25"/>
                <line class="cls-3" x1="32.8" y1="22.2" x2="32.8" y2="22.2"/>
                <line class="cls-3" x1="18.8" y1="18" x2="18.8" y2="18"/>
                <line class="cls-3" x1="42" y1="40.5" x2="42" y2="40.5"/>
                <line class="cls-3" x1="41.8" y1="49" x2="41.8" y2="49"/>
                <line class="cls-3" x1="58.3" y1="57.7" x2="58.3" y2="57.7"/>
                <line class="cls-3" x1="50.3" y1="61.2" x2="50.3" y2="61.2"/>
                <line class="cls-3" x1="61" y1="38" x2="61" y2="38"/>
                <line class="cls-3" x1="59.5" y1="27" x2="59.5" y2="27"/>
                <line class="cls-3" x1="54" y1="20.2" x2="54" y2="20.2"/>
                <line class="cls-3" x1="57.5" y1="10.2" x2="57.5" y2="10.2"/>
                <line class="cls-3" x1="50" y1="5.5" x2="50" y2="5.5"/>
                <line class="cls-3" x1="28.5" y1="4.2" x2="28.5" y2="4.2"/>
                <line class="cls-3" x1="39.5" y1="1.7" x2="39.5" y2="1.7"/>
                <line class="cls-3" x1="25.3" y1="49.5" x2="25.3" y2="49.5"/>
                <line class="cls-3" x1="10.8" y1="2.5" x2="10.8" y2="2.5"/>
                <line class="cls-3" x1="0.8" y1="13.7" x2="0.8" y2="13.7"/>
                <line class="cls-3" x1="3.8" y1="21" x2="3.8" y2="21"/>
                <line class="cls-3" x1="9" y1="24.7" x2="9" y2="24.7"/>
                <line class="cls-3" x1="9.8" y1="21" x2="9.8" y2="21"/>
                <line class="cls-3" x1="50.8" y1="42.7" x2="50.8" y2="42.7"/>
                <line class="cls-3" x1="48" y1="33" x2="48" y2="33"/>
                <line class="cls-3" x1="46.3" y1="24.7" x2="46.3" y2="24.7"/>
                <line class="cls-3" x1="27.8" y1="40.5" x2="27.8" y2="40.5"/>
                <line class="cls-3" x1="24.3" y1="9.7" x2="24.3" y2="9.7"/>
                <line class="cls-3" x1="24.3" y1="1.7" x2="24.3" y2="1.7"/>
                <line class="cls-3" x1="18.9" y1="5.7" x2="18.9" y2="5.7"/>
                <line class="cls-3" x1="26.6" y1="28.2" x2="26.6" y2="28.2"/>
                <line class="cls-3" x1="61" y1="3.2" x2="61" y2="3.2"/>
                <line class="cls-3" x1="4.5" y1="9.2" x2="4.5" y2="9.2"/>
                <line class="cls-3" x1="33.8" y1="35.5" x2="33.8" y2="35.5"/>
                <line class="cls-3" x1="33.3" y1="50.5" x2="33.3" y2="50.5"/>
                <line class="cls-3" x1="34.5" y1="57.2" x2="34.5" y2="57.2"/>
                <line class="cls-3" x1="49.8" y1="9.5" x2="49.8" y2="9.5"/>
                <line class="cls-3" x1="49" y1="20.5" x2="49" y2="20.5"/>
                <line class="cls-3" x1="62.8" y1="18" x2="62.8" y2="18"/>
                <line class="cls-3" x1="52.3" y1="47.7" x2="52.3" y2="47.7"/>
                <line class="cls-3" x1="53" y1="46" x2="53" y2="46"/>
                <line class="cls-3" x1="53.3" y1="54.7" x2="53.3" y2="54.7"/>
                <line class="cls-3" x1="40" y1="45.5" x2="40" y2="45.5"/>
                <line class="cls-3" x1="49" y1="38" x2="49" y2="38"/>
                <line class="cls-3" x1="59.5" y1="41.2" x2="59.5" y2="41.2"/>
                <line class="cls-3" x1="61" y1="34" x2="61" y2="34"/>
                <line class="cls-3" x1="1" y1="49" x2="1" y2="49"/>
              </g>
              <g>
                <line class="cls-2" x1="-4.5" y1="43" x2="-0.2" y2="37.4"/>
                <line class="cls-2" x1="-1.8" y1="45.2" x2="2.5" y2="39.7"/>
                <line class="cls-2" x1="-1.7" y1="11.7" x2="2.3" y2="6"/>
                <line class="cls-2" x1="1.9" y1="33.9" x2="-1.8" y2="28"/>
                <line class="cls-2" x1="2.3" y1="3.6" x2="-3.2" y2="-0.7"/>
                <line class="cls-2" x1="-1.3" y1="54.7" x2="4.9" y2="51.4"/>
                <line class="cls-2" x1="2.5" y1="25.7" x2="-2.7" y2="23.2"/>
                <line class="cls-2" x1="5.3" y1="23.1" x2="-0.8" y2="19.7"/>
                <line class="cls-2" x1="2.3" y1="68.9" x2="-3.2" y2="64.6"/>
                <line class="cls-2" x1="4.8" y1="65.7" x2="-0.8" y2="61.4"/>
              </g>
              <g>
                <line class="cls-2" x1="14.2" y1="67.8" x2="18.5" y2="62"/>
                <line class="cls-2" x1="17.1" y1="70.6" x2="21.3" y2="64.8"/>
                <line class="cls-2" x1="47.2" y1="67.9" x2="43.5" y2="62.5"/>
                <line class="cls-2" x1="49.9" y1="65" x2="44.8" y2="60.2"/>
                <line class="cls-2" x1="53.1" y1="66" x2="55.5" y2="60.2"/>
                <line class="cls-2" x1="28" y1="66.7" x2="22.3" y2="62.3"/>
                <line class="cls-2" x1="32" y1="65.7" x2="25.3" y2="59.7"/>
                <line class="cls-2" x1="38.8" y1="67.7" x2="39.3" y2="61.2"/>
                <line class="cls-2" x1="36" y1="68.5" x2="34.5" y2="61.7"/>
                <line class="cls-2" x1="67.6" y1="68.9" x2="62" y2="64.6"/>
                <line class="cls-2" x1="56.3" y1="67.2" x2="59" y2="60.5"/>
                <line class="cls-2" x1="9.3" y1="66" x2="9" y2="64.5"/>
              </g>
              <line class="cls-2" x1="2.3" y1="68.9" x2="-3.2" y2="64.6"/>
            </g>
          </g>
        </g>
      </g>
    </pattern>
  </defs>
  <title>Housemates</title>
  <path class="cls-4" d="M784.2,196.9a26.32,26.32,0,0,1,9.3-3.9c4.7-.9,22.8-1.1,25.3-.9s-.8,3.5-6.8,3.3-15,1.7-17.5,2.3S772.4,204.1,784.2,196.9Z" transform="translate(-0.03 0.03)"/>
  <path class="cls-4" d="M756.7,201.2c-3.9-2.9-6.2-3.5-9.8-3.5a127.81,127.81,0,0,0-16.4,1c-4.1.7-6,5.9-.3,3.9a25.31,25.31,0,0,1,15.4-.7C749.7,203.2,762.3,205.3,756.7,201.2Z" transform="translate(-0.03 0.03)"/>
  <path class="cls-5" d="M618.3,759.2c-40.5,8.2-101.4,23.3-143.6,21.6-16.6-.7-33.7-5-49.8-10.9.9-26.9,6.4-114.7,10.2-157.4,4.2-45.8,7.5-80.5,21.9-111s-1.7-12,7.8-39.2a23.52,23.52,0,0,0,1-5.9c18.2,6.2,36.8,8,52.2.1,15.8-8.1,34.5-21.4,41-33.9s10.8-19.1,13.3-51.5c2.8,6.7,5.4,13.7,5.4,16.2a8.46,8.46,0,0,1-4.1,7.5c-.6,1.2-1.1,2.5-1.7,3.8,0,.1-.1.2-.1.4a67.42,67.42,0,0,0-3,8.6c0,.1-.1.3-.1.4-.4,1.6-.9,3.2-1.2,4.9-.3,1.4-.6,2.8-.8,4.3a78.67,78.67,0,0,0-1.2,11.9h-.1a96.79,96.79,0,0,0,2.2,24.6c10.3,49.5,8.2,40.1,17.3,84.2s26.4,67.3,24.3,94.1,1.7,18.9,0,43.7,8.7,19,5.8,41.3C612.5,735.4,616.1,748.1,618.3,759.2Z" transform="translate(-0.03 0.03)"/>
  <path class="cls-6" d="M418.6,344.1s-9.9,4.5-39.2,13.5c-15.3,4.7-38.5,19.5-57.7,33,3.7,27.9,12.3,62,3.7,111.4,0,0,1.2,31.7.8,54-.3,18.5,7.1,67.3,5.3,121.1,19.4,2.3,34.8,1.7,38.8,18,6.6,26.9-9.9,109.3-9.9,109.3s12-4.5,58.6,34.7a75.51,75.51,0,0,0-3.3-23.1,43.54,43.54,0,0,1-1.2-21.5s10.1-.8,10.3-19.6,6.2-116.5,10.3-162.3,7.4-80.4,21.9-111-1.7-12,7.8-39.2S418.6,344.1,418.6,344.1Z" transform="translate(-0.03 0.03)"/>
  <path class="cls-7" d="M465.3,460.7c-2.5,1.6-4.7,4.7-6.3,9.8-3.3,10.5-10.1-67.6-29.5-25.3-8.9,19.4,1.5-43.1-16.4-33.8s-2.2-37.6-16.1-21.8c-14.2,16.1-41.5,38-31.5,16.2,9.1-19.8-19.2-9.2-10.9-21.7,10.5-15.8,2.1-13.7-5.8-10.3h0c-.3.1-.5.2-.8.3-1.1.5-2.2,1-3.2,1.4a3.55,3.55,0,0,1-.9.4c-.5.2-.9.4-1.3.6-7.1,4.5-14.2,9.3-20.8,13.9,3.7,27.9,12.3,62,3.7,111.4,0,0,1.2,31.7.8,54-.2,12.9,3.3,40.3,4.8,73.8a38.43,38.43,0,0,1,8.1,7.5c63.7,75.5,52.5,111,43.5,175.1,8.7,5.1,20.6,13.4,36.4,26.7a75.51,75.51,0,0,0-3.3-23.1,43.54,43.54,0,0,1-1.2-21.5s10.1-.8,10.3-19.6,6.2-116.5,10.3-162.3,7.4-80.4,21.9-111-1.7-12,7.8-39.2C465,461.9,465.1,461.3,465.3,460.7Z" transform="translate(-0.03 0.03)"/>
  <polygon class="cls-8" points="377.68 791.13 397.68 800.73 395.88 814.93 373.77 803.03 377.68 791.13"/>
  <path class="cls-9" d="M315.6,889.8s58-13.3,67-77.4,20.2-99.6-43.5-175.1S206.7,882.4,315.6,889.8Z" transform="translate(-0.03 0.03)"/>
  <path class="cls-10" d="M326.8,713.4c-38.3-17.9-56.7,65.8-64.2,115.6,7.1,33.8,23.5,58.8,53,60.8a93.42,93.42,0,0,0,40.3-23.2l.2-2.8S380.6,738.6,326.8,713.4Z" transform="translate(-0.03 0.03)"/>
  <path class="cls-8" d="M372.6,360.1c-10,40.4-26.6,140.3-16.8,337.2-.3,9.5-2.1,19-8.6,28.3l-20.5,67.6,15.5,6.2,21.7-66.8s9.2-11.8,7.5-30.6a8.75,8.75,0,0,0-.2-1.6c-2.4-19.8-2.2-190.5.4-236.3,1.3-23.1,8.7-75.4,13.7-108.3A118.6,118.6,0,0,0,372.6,360.1Z" transform="translate(-0.03 0.03)"/>
  <path class="cls-6" d="M660.3,367.5c-37.1-7.1-71.7-32.3-88.8-44-4.5.1-12.6-1.4-12.6-1.4l-.3,16c.3,1.8,19.1,43.9,19.1,49.2a8.46,8.46,0,0,1-4.1,7.5c-.6,1.2-1.1,2.5-1.7,3.8,0,.1-.1.2-.1.4a67.42,67.42,0,0,0-3,8.6c0,.1-.1.3-.1.4-.4,1.6-.9,3.2-1.2,4.9-.3,1.4-.6,2.8-.8,4.3a98,98,0,0,0,.9,36.6c10.3,49.5,8.3,40,17.3,84.2s26.4,67.2,24.3,94.1,1.7,19,0,43.7,8.7,19,5.8,41.3,2.9,36.3,4.5,49.1c1.6,12.2-7,56.2-7.8,60.4,2,.1,4.4.2,7.4.3,30.9,1.2,45-19,45-19s2.9-74.7-5.4-93.6-6.6-28.5-8.7-54-10.7-63.5-10.7-63.5c8.7-39.6,52-173.3,52-173.3S712.3,377.4,660.3,367.5Z" transform="translate(-0.03 0.03)"/>
  <circle class="cls-11" cx="349.87" cy="752.43" r="0.9"/>
  <circle class="cls-11" cx="362.77" cy="679.03" r="0.9"/>
  <circle class="cls-11" cx="361.87" cy="652.83" r="0.9"/>
  <polyline class="cls-11" points="371.57 704.53 355.88 697.33 347.27 725.73 363.88 732.63"/>
  <path class="cls-12" d="M577.8,387.4a8.46,8.46,0,0,1-4.1,7.5,89.13,89.13,0,0,0-6.2,18c-.5,2.1-.9,4.3-1.2,6.5-12.6,13.3-28.9,27.4-48.2,37.3a3.13,3.13,0,0,1-1,.5,3.13,3.13,0,0,1-1,.5,52.41,52.41,0,0,1-16,4.1c-2.1-10.4-9.6-24.9,8.5-14.6,4.5,2.6,12.5,6.2,8.7-2.1-3.9-8.6-10.1-17.4-15.7-24.9-9.3-12.5-21.8-22.6-29.1-36.4-5.7-10.8-7.9-23.3-7.9-35.5-.1-16.4,2.6-33.3,5.3-49.4q1.5-9.75,3.6-19.5c.6-2.6,2.3-6.4,2.3-9v-.1l3.2,7.5L559.3,315l-.6,23.1,12.4,29.8v.1l.2.5.3.7c.2.4.4.9.6,1.3a4.18,4.18,0,0,1,.4,1l.1.4v.1c.2.4.3.8.5,1.3v.1l.3.6a6.94,6.94,0,0,1,.5,1.3v.1c.1.2.2.5.3.7a6.89,6.89,0,0,1,.3.8,2.57,2.57,0,0,0,.2.5c.1.4.3.8.4,1.1v.1c.1.4.3.8.4,1.1a4.88,4.88,0,0,0,.3.7v.1a6.47,6.47,0,0,1,.4,1.3.6.6,0,0,1,.1.4c0,.2.1.3.2.5a.9.9,0,0,1,.1.5c0,.2.1.3.1.4l.3,1.2a3.55,3.55,0,0,1,.2,1,.37.37,0,0,0,.1.3v.1c0,.2.1.3.1.5v.5C577.8,387.1,577.8,387.3,577.8,387.4Z" transform="translate(-0.03 0.03)"/>
  <path class="cls-4" d="M614.2,726.6c.1-3,.3-6.2.7-9.6,2.9-22.3-7.4-16.5-5.8-41.3s-2.1-16.9,0-43.7c1.8-23.5-11.3-44.1-20.6-78.6-.7,14.3-13,18.7-8.4,30.4,5.8,14.8-3.3,13.1,7,50s-5.6,38.8,5.2,55.5,8,25.6,0,28.5,15.6,1.5,8.3,10.3C593.3,736.7,608.3,724.7,614.2,726.6Z" transform="translate(-0.03 0.03)"/>
  <path class="cls-13" d="M615.7,746.1c-30.5,3-94.8,18.2-123.7,19.1-27.1.8-54.8-9.2-66.3-13.9-.4,7.7-.7,14.1-.8,18.7,16.1,5.9,33.2,10.2,49.8,10.9,42.2,1.7,103.1-13.4,143.6-21.6C617.5,755.2,616.5,750.9,615.7,746.1Z" transform="translate(-0.03 0.03)"/>
  <path class="cls-4" d="M462.3,737.3s.5-8.2,7.5-2,15.8,20.6,29,19.2,21-.2,14.4,1.9S479,767.2,462.3,737.3Z" transform="translate(-0.03 0.03)"/>
  <g class="cls-14">
    <path class="cls-15" d="M440.7,756.8h0a59.93,59.93,0,0,1-14.4-16.9q-.3,6.15-.6,11.4C429.3,752.8,434.5,754.8,440.7,756.8Z" transform="translate(-0.03 0.03)"/>
    <path class="cls-15" d="M425.5,755.4v.6h0Z" transform="translate(-0.03 0.03)"/>
    <path class="cls-15" d="M425.6,753.1a7.57,7.57,0,0,1,.1-1.5C425.7,752.2,425.6,752.7,425.6,753.1Z" transform="translate(-0.03 0.03)"/>
  </g>
  <path class="cls-4" d="M431.6,656.9a55.85,55.85,0,0,0,12.8-14.6c6.7-10.7-.6-8.2-11.4-4C432.5,644.3,432,650.5,431.6,656.9Z" transform="translate(-0.03 0.03)"/>
  <path class="cls-4" d="M429.3,690.6c28.8-14.1,46.2-64.9,25-37.8-8.5,10.9-16.8,17.3-23.9,21C430,679.4,429.6,685.1,429.3,690.6Z" transform="translate(-0.03 0.03)"/>
  <path class="cls-4" d="M427.6,718.2v.3c28.5-5.7,56.7-18.3,72-32.3,16.2-14.9,24.7-73,9.6-27.5C496.5,697,444.1,713.8,427.6,718.2Z" transform="translate(-0.03 0.03)"/>
  <path class="cls-4" d="M520.3,722.5c-17.5-7-31.4-.2-58.4,3.1a135.12,135.12,0,0,1-34.8,0c-.1,1.4-.2,2.8-.2,4.2,11.8,1.8,24.2.9,30.9-1,10.3-2.9,37.5,0,55.1,0S537.8,729.5,520.3,722.5Z" transform="translate(-0.03 0.03)"/>
  <ellipse class="cls-8" cx="416.77" cy="766.33" rx="3.4" ry="6.5"/>
  <path class="cls-16" d="M571.6,744.6c-28.9,4.5-64.4,3.9-64.4,3.9,20.4,4.3,77.6-2.3,90-7.6,4.7-2,11.4-3.3,17.2-4.2-.1-1-.1-2.1-.2-3.1-10.9-.5-9.9.4-2.2-3.4a18,18,0,0,1,2.1-.8,13.4,13.4,0,0,1,.1-2C601.7,730.3,595,740.9,571.6,744.6Z" transform="translate(-0.03 0.03)"/>
  <path class="cls-8" d="M641.7,788.3s14.1-3.1,22.8-10.5v17.9s-9.1,10.5-35.2,18.3Z" transform="translate(-0.03 0.03)"/>
  <path class="cls-17" d="M405.3,841.7c2.9-12.7,7.2-18.9,7.2-18.9-4.6-10.5-9.5-18.5-14.9-22.1-3.3,4.2-5.1,22.4-7.5,21.6s-3,2.3-4.2,4.8,1.4,4,1.4,4a13.56,13.56,0,0,0-.6,2.9c-3.4,1.4-6.4,11.8-7.6,15.9-1.4,4.6,5.1,6.8,5.1,6.8s8.3,3.9,13.4,6.1,9-10.1,10.4-14.4C409.1,844.9,406.4,842.5,405.3,841.7Zm-13.2,12.4-9-4a1.11,1.11,0,0,1-.6-1.4h0l3.2-7.6a1.21,1.21,0,0,1,1.3-.7l.1.1,5,2.1Zm11.9-5.4-3.5,7.9a1.21,1.21,0,0,1-1.3.7l-.1-.1-3.1-1.4-.1-11.6,7.5,3.1a1.21,1.21,0,0,1,.7,1.3Z" transform="translate(-0.03 0.03)"/>
  <path class="cls-4" d="M329,453.9s3.4-10.1,13.7,52.6,18.4,82.1,18.4,82.1l-78-16.7C283,572,297.2,444.6,329,453.9Z" transform="translate(-0.03 0.03)"/>
  <path class="cls-18" d="M397.3,626.4c.5-9.1,1.3-16.3,1.9-20.9-.7,7.3-1.2,13.8-1.9,20.3Z" transform="translate(-0.03 0.03)"/>
  <path class="cls-18" d="M441.2,557.2c-.6,3.7-1.1,7.4-1.6,11.3C440.1,564.7,440.6,560.9,441.2,557.2Z" transform="translate(-0.03 0.03)"/>
  <path class="cls-19" d="M666.5,577.5" transform="translate(-0.03 0.03)"/>
  <path class="cls-19" d="M641.1,703.5" transform="translate(-0.03 0.03)"/>
  <path class="cls-1" d="M655.2,618.4" transform="translate(-0.03 0.03)"/>
  <path class="cls-20" d="M655.2,619.3" transform="translate(-0.03 0.03)"/>
  <path class="cls-21" d="M491.2,468.1c4.4,2.4,7.8,3.4,9.1,0a10,10,0,0,0,.2-4.2C491.3,459.3,490.2,462.5,491.2,468.1Z" transform="translate(-0.03 0.03)"/>
  <path class="cls-22" d="M602.2,238.3c-.3-1.4-4.3-10.4-4.4-11.8-1.7-10.5,3.1-13.7,2.9-24.3-2.2-21.7-11.9-39.9-17.9-40.7-3.5-.4-16.1,2.9-19.4,4.3-15.6,6.4-27.5,7.7-39.4,19.7-20.3,20.5-31.7,53.5-40.9,81.6h.1a1.27,1.27,0,0,1-.1.6l3.2,12.4s10.2,18.8,28,27.2,31.3,11.2,35.5,12.5c8.8,2.7,24.5,5.8,33.2,1.6,12.5-6,9.3-30.1,12.8-43.4,1.7-6.5,8.8-20.8,8.5-27.4A87.86,87.86,0,0,0,602.2,238.3Z" transform="translate(-0.03 0.03)"/>
  <path class="cls-23" d="M479.1,393.7c7.3,12,17.8,21.6,26.1,31.3C499.1,414.5,488,405.1,479.1,393.7Z" transform="translate(-0.03 0.03)"/>
  <path class="cls-23" d="M566.3,419.4c.3-2.2.7-4.4,1.2-6.5a89.13,89.13,0,0,1,6.2-18,8.46,8.46,0,0,0,4.1-7.5c0-3.5-5.3-16.1-8.8-24.1-8.2-3.5-18.1-4.8-30-2.7-71,12.5-48-89.5-65.5-15.5a101.82,101.82,0,0,0-1.8,37.3,7.46,7.46,0,0,0,.7,1.2l.3.6.3.6c.1.2.3.4.4.6.6,1,1.3,2.1,2,3.1a1.61,1.61,0,0,1,.4.7c.2.3.5.7.7,1,.6.9,1.2,1.7,1.9,2.6.1.1.2.3.3.4.9,1.2,1.9,2.4,2.8,3.5,0,.1.1.1.1.2l.3.3c.9,1,1.7,2,2.6,3,.1.2.3.3.4.5l2.6,2.9.4.4.1.1c2.7,3,5.4,5.8,7.9,8.7.5.5.9,1,1.4,1.5,0,.1,0,.1.1.1h0l.3.3.1.1c.8,1,1.7,2,2.5,3,.1.1.1.1.1.2.8,1,1.6,2.1,2.3,3.1v.1c.1.2.2.3.3.5v.1c.7,1,5.1,7.8,5.6,8.9l.3.9c5.4,7.9,19.1,26.5-.2,15.5-6-3.4-9.2-4.1-10.7-3.1a174.2,174.2,0,0,0,12.7,15.7,52.13,52.13,0,0,0,7.4-3C537.4,446.8,553.7,432.7,566.3,419.4Z" transform="translate(-0.03 0.03)"/>
  <path class="cls-17" d="M656.9,871.9S632,822.7,629.3,814c0,0,5.6-18.3,12.4-25.7,0,0,22,49.5,38.7,70.9,0,0-2.2,16.1-3.7,17.9S661.9,875.6,656.9,871.9Z" transform="translate(-0.03 0.03)"/>
  <circle class="cls-24" cx="646.47" cy="822.73" r="2"/>
  <circle class="cls-24" cx="652.18" cy="835.03" r="2"/>
  <circle class="cls-24" cx="657.77" cy="847.33" r="2"/>
  <path class="cls-25" d="M577.5,386.3v-.2c0-.2-.1-.4-.1-.6a.37.37,0,0,0-.1-.3c-.1-.3-.1-.6-.2-1h0c-.1-.4-.2-.7-.3-1.1,0-.1-.1-.3-.1-.4l-.3-.9c0-.1-.1-.3-.1-.4-.1-.4-.3-.8-.4-1.3V380c-.2-.5-.3-1-.5-1.5-.1-.1-.1-.3-.2-.4-.1-.4-.3-.7-.4-1.1-.1-.2-.1-.3-.2-.5L574,375v-.1c-.2-.5-.4-1.1-.6-1.6-.1-.1-.1-.3-.2-.4-.2-.4-.3-.8-.5-1.3-.1-.1-.1-.3-.2-.4-.5-1.1-.9-2.2-1.4-3.3,0-.1,0-.1-.1-.2-.2-.5-.4-.9-.6-1.4,0-.1,0-.1-.1-.2-.5-1.1-.9-2.1-1.3-3.1h0c-8.2-3.5-18.1-4.8-30-2.7-22.9,4-36.1-3.9-43.9-13.9-5,7.5-1.9,24.1-9.6,25.4-11.5,2,4,22,2.5,32,2.7,3,5.4,5.8,7.9,8.7.5.5.9,1,1.4,1.5,0,.1,0,.1.1.1h0l.3.3.1.1c.8,1,1.7,2,2.5,3,.1.1.1.1.1.2.8,1,1.6,2.1,2.3,3.1v.1c.1.2.2.3.3.5v.1c.7,1,5.1,7.8,5.6,8.9l.3.9c5.4,7.9,19.1,26.5-.2,15.5-.5-.3-1-.5-1.4-.8-.1-.1-.2-.1-.4-.2-.4-.2-.8-.4-1.3-.6-.1,0-.1,0-.1-.1h0c-.4-.2-.7-.3-1.1-.5-.1-.1-.2-.1-.4-.2a3.55,3.55,0,0,0-.9-.4c-.1,0-.2-.1-.4-.1a1.42,1.42,0,0,0-.6-.2c-.1,0-.3-.1-.4-.1a4.33,4.33,0,0,0-.5-.1c-.2,0-.4-.1-.6-.1h-1.7a3,3,0,0,0-1,.4h0a174.2,174.2,0,0,0,12.7,15.7l1.8-.6c.1,0,.2-.1.3-.1.5-.2,1-.4,1.6-.6.2-.1.5-.2.7-.3a3.7,3.7,0,0,0,1.1-.5c.6-.3,1.3-.6,1.9-.9,19.3-9.9,35.6-24,48.2-37.3.3-2.2.7-4.4,1.2-6.5a89.13,89.13,0,0,1,6.2-18,8.46,8.46,0,0,0,4.1-7.5A2.39,2.39,0,0,1,577.5,386.3Z" transform="translate(-0.03 0.03)"/>
  <path class="cls-4" d="M581.5,521.5c0-.2-.1-.4-.1-.7a7.89,7.89,0,0,0-.3-1.3c-.1-.7-.3-1.4-.4-2.1s-.3-1.3-.4-1.9c-.4-1.8-.7-3.4-1-5l-.6-3c0-.2-.1-.4-.1-.6v-.2a.6.6,0,0,0-.1-.4c-.1-.6-.3-1.3-.4-1.9s-.3-1.4-.4-2.1c0-.1-.1-.3-.1-.4-.1-.4-.1-.7-.2-1.1,0-.2-.1-.4-.1-.6l-.3-1.5a.37.37,0,0,0-.1-.3c0-.2-.1-.3-.1-.5-.1-.7-.3-1.3-.4-2s-.3-1.6-.5-2.5c0-.1-.1-.3-.1-.4l-.3-1.5-.2-.6a1.27,1.27,0,0,1-.1-.6h0c-.1-.4-.2-.9-.3-1.3l-.3-1.5v-.2c-.1-.3-.1-.5-.2-.8,0-.1-.1-.2-.1-.4a2.35,2.35,0,0,0-.2-.8c0-.1-.1-.3-.1-.4v-.1c-.1-.5-.2-1-.3-1.6a23.81,23.81,0,0,1-.5-2.6c-.1-.3-.1-.5-.2-.8-.1-.7-.3-1.4-.4-2.1-.2-1.2-.5-2.4-.8-3.6a10.46,10.46,0,0,0-.4-1.7c-.1-.5-.2-.9-.3-1.4-.3-1.3-.6-2.8-.9-4.2l-.3-1.2c-.4-1.8-.8-3.8-1.2-5.8-.1-.6-.3-1.3-.4-1.9-.3-1.3-.5-2.6-.8-4a95.27,95.27,0,0,1-1.2-34.5v-.7c-2.5,2-5.6,24.3-6.7,27.3-2.7,7.7,5,14,2.7,32.3C560.3,494.4,577.6,516.7,581.5,521.5Z" transform="translate(-0.03 0.03)"/>
  <path class="cls-26" d="M617.2,753.9a44.78,44.78,0,0,0-4.7-2.8c-14-7.5-24.5,11.5-42.5,8s-37.5,8-45,6.5-14.5,4-31.5,1.5-27,5.5-45,.5c-12.2-3.4-19.8-2.4-23.5-1.4-.1,1.3-.1,2.6-.1,3.7,16.1,5.9,33.2,10.2,49.8,10.9,42.2,1.7,103.1-13.4,143.6-21.6C618,757.5,617.6,755.7,617.2,753.9Z" transform="translate(-0.03 0.03)"/>
  <path class="cls-5" d="M405.4,841.3c-4.6-2.4-12-5.9-18.7-7.6v.2l18.6,7.8h0C405.3,841.6,405.4,841.4,405.4,841.3Z" transform="translate(-0.03 0.03)"/>
  <path class="cls-27" d="M573.5,373.9l-.3-.6c0,.1.1.2.2.3A.37.37,0,0,1,573.5,373.9Z" transform="translate(-0.03 0.03)"/>
  <path class="cls-27" d="M575.7,379.6c-.1-.4-.3-.7-.4-1.1,0,.1.1.3.1.4A3.63,3.63,0,0,0,575.7,379.6Z" transform="translate(-0.03 0.03)"/>
  <path class="cls-22" d="M353.8,176.6c-1.4-7.6-3.1-15.2-3.6-23.8-1-15.7.5-26.4-4.9-41.3-.7-2-10.6-23.5-11-23,0,0-31.7-26.5-51.6-16s-11.1,3-18.7,21c-7.5,17.2-26,20.6-27.3,21,.4.6-20.8,70.5-23,77.7-.9,2.3,1.7,26.8,1.7,26.8,15.7,20.7,40.5,45,74.9,51.9,13.8,2.8,34.1,11.2,46.1.7,9.1-8,7.7-18.5,9.1-29.7,1.5-12.7,6.3-24.6,8.8-37.1C356.4,194.4,355.4,185.5,353.8,176.6Z" transform="translate(-0.03 0.03)"/>
  <path class="cls-4" d="M676.6,372.8a52.13,52.13,0,0,0-7.4-3c-3.5,11.3-8.1,29.8-19.9,32.3-18.7,4,4,71.3-8.7,84.7s-1.3,60.7-12.7,70,6,46.7-2.7,75.3,26.7,80,26.7,80c1.6,4.7,5.6,10.6,10.1,16.2a56,56,0,0,0-3.3-14c-8.3-19-6.6-28.5-8.7-54s-10.7-63.5-10.7-63.5c5.2-23.5,22.6-80.4,35.8-122.6C676.6,429.4,677.4,390.8,676.6,372.8Z" transform="translate(-0.03 0.03)"/>
  <path class="cls-24" d="M507.9,113.1" transform="translate(-0.03 0.03)"/>
  <path class="cls-24" d="M509,113.2" transform="translate(-0.03 0.03)"/>
  <path class="cls-24" d="M516,114.4" transform="translate(-0.03 0.03)"/>
  <path class="cls-24" d="M516.7,114.6" transform="translate(-0.03 0.03)"/>
  <path class="cls-24" d="M507.1,113.1" transform="translate(-0.03 0.03)"/>
  <path class="cls-24" d="M392.6,394.3" transform="translate(-0.03 0.03)"/>
  <path class="cls-24" d="M398.2,388.3l-.6.6Z" transform="translate(-0.03 0.03)"/>
  <path class="cls-24" d="M398.4,388.1l.3-.3C398.7,387.9,398.5,388,398.4,388.1Z" transform="translate(-0.03 0.03)"/>
  <path class="cls-24" d="M394.9,391.9" transform="translate(-0.03 0.03)"/>
  <path class="cls-24" d="M402.5,387c-.1-.1-.1-.2-.2-.2A.22.22,0,0,1,402.5,387Z" transform="translate(-0.03 0.03)"/>
  <path class="cls-24" d="M397,389.6c.2-.2.4-.5.6-.7C397.4,389.1,397.2,389.4,397,389.6Z" transform="translate(-0.03 0.03)"/>
  <path class="cls-24" d="M398.9,387.6l.3-.3Q399.2,387.45,398.9,387.6Z" transform="translate(-0.03 0.03)"/>
  <path class="cls-24" d="M401.3,386.3" transform="translate(-0.03 0.03)"/>
  <path class="cls-24" d="M401.4,386.3" transform="translate(-0.03 0.03)"/>
  <path class="cls-24" d="M401.6,386.4c.1,0,.1,0,.2.1C401.8,386.4,401.7,386.4,401.6,386.4Z" transform="translate(-0.03 0.03)"/>
  <path class="cls-24" d="M401.9,386.4c.1,0,.1.1.2.1C402,386.5,402,386.5,401.9,386.4Z" transform="translate(-0.03 0.03)"/>
  <path class="cls-24" d="M402.3,386.7l-.2-.2Z" transform="translate(-0.03 0.03)"/>
  <path class="cls-24" d="M399.5,387.2c.1-.1.2-.1.3-.2C399.7,387.1,399.6,387.1,399.5,387.2Z" transform="translate(-0.03 0.03)"/>
  <path class="cls-24" d="M399.9,386.9c.1-.1.2-.1.3-.2C400.1,386.8,400,386.8,399.9,386.9Z" transform="translate(-0.03 0.03)"/>
  <path class="cls-24" d="M400.3,386.6c.1,0,.1,0,.2-.1C400.4,386.6,400.4,386.6,400.3,386.6Z" transform="translate(-0.03 0.03)"/>
  <path class="cls-24" d="M400.7,386.5c.1,0,.1,0,.2-.1C400.8,386.4,400.8,386.4,400.7,386.5Z" transform="translate(-0.03 0.03)"/>
  <path class="cls-23" d="M211.5,294.1c41.2,10,52,16,67.7,13,2.7-8.1,5.5-15.7,8.3-22.5l.1-.2h0c2.1-5.2,4.1-9.9,6-14.3-38.7-8.3-66-35.2-82.1-56.3-3.7,6.9-11.3,13-12.2,6.7-5.5,17.3-24,37.7-28.1,41s-7.7,6.3-11.5,8.9a12,12,0,0,0,3.2,4.5A193.85,193.85,0,0,0,211.5,294.1Z" transform="translate(-0.03 0.03)"/>
  <path class="cls-17" d="M329.1,710.3c7.5-66-3.3-132-2.9-154.3s-.8-54-.8-54c10.7-61.1-5-98.8-5.2-130.4s-8.3-16.7-7-30.5-7.8-20.4-12.2-28.9-13.5-27.8-13.5-27.8l-11.1,22.8c.6.7,3.3,3.4,3.9,4.2,9.7,12,15.5,51.4,13.2,73.4s-3.3,65.2-3.3,65.2c-1.2-81.3-40.8-106.6-47.6-120.3s-28.8-19.9-50.5-34.5c-14-9.4-30.2-18.1-32.5-24.8a121.84,121.84,0,0,0,11.5-8.9c-6.9-4.7-77,25.5-77,25.5C60.8,308.4,42,334,31.5,360.3a25,25,0,0,0-1.5,3.8v.1c-.7,1.9-1.4,3.8-2,5.7C20.7,389,6.1,410.4,11.2,431.1c5.6,22.9-2.5,44.2-2.5,46.7s1.9,68.4,0,75.2-11.1,45.8-8,59.4-2.5,24.1,7.4,39.9c6.3,10.1,8,18.3,17.9,24.6C30.3,753.5,36.3,826.2,42.1,838c11.8,23.8,121.3,3.1,148.5-4.3s82.9-11.8,91-11.4,21.7,2.5,26.9,2.2,11.4-7.1,11.4-7.1c-11.8-20.7-11.4-32.2-7.4-37.7s3.3-9.9,3.3-9.9S321.6,776.3,329.1,710.3Z" transform="translate(-0.03 0.03)"/>
  <path class="cls-15" d="M306.4,650.7c-13.1,3.7-33.1,9.8-37.8,13.5-7.1,5.5-3.4,4-11.1,4.6s-43,15.5-56.6,18.9-45.6,7.4-80.8,4.3-30.6.3-67.1-6.2c-13.2-2.3-21.4-5.3-27-8.9C30.3,753.5,36.3,826.2,42.1,838c11.8,23.8,121.3,3.1,148.5-4.3l1.2-.3c6-9,10-20.6,3.8-31.6-13-23,32.3-40.7,29-60s34-22,30.7-43.3C252.2,678.4,300.3,653.8,306.4,650.7Z" transform="translate(-0.03 0.03)"/>
  <path class="cls-28" d="M305.2,651.1c1.1,16.2,1.7,29.9,1.2,37-1.9,22.9-4.1,43.3-23.4,84.2l11.8,51.3" transform="translate(-0.03 0.03)"/>
  <path class="cls-29" d="M308.5,824.5c5.3-.3,11.4-7.1,11.4-7.1-11.1-19.6-11.4-30.9-8.1-36.8-11.1-6.1-22.1-11.5-32.8-11.8A628,628,0,0,0,36.4,810c1.8,14.3,3.7,24.3,5.6,28.1,11.8,23.8,121.3,3.1,148.5-4.3s82.9-11.8,91-11.4S303.3,824.8,308.5,824.5Z" transform="translate(-0.03 0.03)"/>
  <path class="cls-4" d="M58.2,466.5C59.4,450-11.7,610.7,14.9,590.9S71.2,540.2,96,543.3s-33.4-17.9-55.1,5S57,483,58.2,466.5Z" transform="translate(-0.03 0.03)"/>
  <path class="cls-4" d="M12.4,626.2s-15.5,30.3,10.5-7.4,37.7-38.4,56.9-43.9S48.9,555.6,12.4,626.2Z" transform="translate(-0.03 0.03)"/>
  <path class="cls-4" d="M118.2,570s5.6-25.1-42.1-14.8c-25.6,5.6-21,11.2-8.7,10.4,10.7-.7,27.1-7.7,34.5-5.9C117.8,563.6,104,579.3,118.2,570Z" transform="translate(-0.03 0.03)"/>
  <path class="cls-4" d="M29.1,644.1s28.1-21.6,55-47S54.6,645.3,29.1,644.1Z" transform="translate(-0.03 0.03)"/>
  <path class="cls-4" d="M149.8,369.4a41.84,41.84,0,0,0,5.8,31.6c10.3,15.5,2.8,40.8-3.4,60.6S171,448,169.4,415.5,154.1,338.2,149.8,369.4Z" transform="translate(-0.03 0.03)"/>
  <path class="cls-4" d="M43.3,371.2s35-30.3,47.8-20.4S73.7,395.1,70,413.2s-7.4-14.9,8-37.2S34.7,386.1,43.3,371.2Z" transform="translate(-0.03 0.03)"/>
  <path class="cls-4" d="M84.1,509.2c15-10.1,33-.2,46.6,11.3,2.5-9.2,8.6-8.9,15.4-28.4,8-23.2,2.2-23.5,11.8-52.6,0,0-7.1-34.1-19.5-52.3-6.6-1.2,1.6,17.9-9.7,10.5s12.5,35.3,0,30.3,12.5,31.6-10.2,30.3,13.4,15.5-15.9,16.1,18.8,16.1-4.1,18.6-30,16.1-30,16.1C61.6,516.6,55.7,528.4,84.1,509.2Z" transform="translate(-0.03 0.03)"/>
  <path class="cls-4" d="M165.9,580.2c-4.2-1-9.7-1.9-14.8,2a8.33,8.33,0,0,1-3.5,1.4c-2.9,4.6-5.7,11.1-8.3,20.2-6.6,23.2-28,39.7-39.9,47.3-4.9,3.1-4,2.3-8.2,4.8s3.4,3.9,7.5,2C118.4,649,169.4,588.1,165.9,580.2Z" transform="translate(-0.03 0.03)"/>
  <path class="cls-4" d="M159.1,665.5c-5.6,7.3,9.3-1.8,13.7-3.5,38.5-14.5,64.3-64,76.7-93.6-4.3-1.3-10.5-.8-14.3,2.7C217.2,641.6,164.6,658.2,159.1,665.5Z" transform="translate(-0.03 0.03)"/>
  <path class="cls-25" d="M154.1,556.9c15.2-13.3,33-20.1,50-25.1,1.6-.9,3.2-1.9,4.9-2.8,45.6-25.5,59.5-48.6,60.5-40.3,0-.6.1-1.1.1-1.7-.5-48.1-109.7,54.7-109.7,54.7C140.4,559.6,148.3,562.6,154.1,556.9Z" transform="translate(-0.03 0.03)"/>
  <path class="cls-4" d="M146.1,492.2c-8,23.2-15.2,18.3-16.4,35v.4c26.1-14.4,93.5-41.6,101.2-55.7,9.1-16.5-31.8,7.4-50.7,5.8-10.1-.9-22,1.8-31,4.5C148.4,485,147.4,488.3,146.1,492.2Z" transform="translate(-0.03 0.03)"/>
  <path class="cls-4" d="M147.5,583.6c7-4.9,13.6-9.8,18.5-13.7,19.5-15.4,99-48.6,102.8-73.3s-5.8,2.1-59.8,32.3c-32,17.9-57.9,39.1-73.7,53.3C139.8,583.5,144.2,584.2,147.5,583.6Z" transform="translate(-0.03 0.03)"/>
  <path class="cls-4" d="M96.2,690.6c-3.7-.1-6.9-.2-10.1-.4,1,4.3,4.1,12.3,5.1,37.9C93,776,68.3,792.9,68.3,792.9c-6.6,22.3,40-35.1,31.4-67.7C96.2,712.3,96,699.9,96.2,690.6Z" transform="translate(-0.03 0.03)"/>
  <path class="cls-28" d="M286.7,437.5s-4.8-22.1-9.2-28.3-15.2,1.5-26.9-12.1-9.8-21.3-21.1-31.6c0,0,24.6,21.3,36.5,27.2s18,14.9,19.7,18.7,3.8,31,5,43.6Z" transform="translate(-0.03 0.03)"/>
  <path class="cls-4" d="M128.6,300.1c-34.2-1.5-41.8-1.8-69.9,16.6a144.86,144.86,0,0,0-27.3,43.7,2,2,0,0,1-.4.8c17.7-23.7,48.4-59.2,70.9-56.3,33.6,4.3,49.1.6,89.9,27.2S170.6,301.9,128.6,300.1Z" transform="translate(-0.03 0.03)"/>
  <path class="cls-4" d="M122.8,280.9c-4.4-.3-8.7-.4-12.9-.4-3.9,1.6-7.2,3-9.9,4.1,32.1,1.1,69.1,10,94.9,39.6C195,324.2,170.6,283.8,122.8,280.9Z" transform="translate(-0.03 0.03)"/>
  <path class="cls-5" d="M161,300.8c4.9-2.8,4.3-.5,5.4.2l2.4,2.8c1.6,1.9,3.1,3.8,4.6,5.8a144.84,144.84,0,0,1,8.4,12.1A159.62,159.62,0,0,1,195.4,348c.9,2.3,1.7,4.7,2.5,7s1.3,4.8,2,7.2,1,4.9,1.5,7.4.7,4.8,1.1,7.2a191.36,191.36,0,0,1,1.8,29.3c-.5,19.7-4.3,38.7-8,57.5-2,9.4-4,18.8-6,28.1l-3.1,14-1.5,7c-.2,1.1,1.5,2.3,2,4.4s.6,5.2.1,6.2-2.3,6.7-7.7,3.2a7.33,7.33,0,0,1-3.1-9c1-3.9,3.4-3.4,3.9-5.8l1.3-7.1,2.6-14.1c1.7-9.4,3.4-18.8,4.9-28.2,3-18.8,6-37.7,5.7-56.3a186.52,186.52,0,0,0-2.4-27.9c-.4-2.3-.7-4.7-1.2-6.9s-.9-4.4-1.5-6.6-1.2-4.4-2-6.5-1.5-4.3-2.4-6.4a146.18,146.18,0,0,0-12.8-24.5c-2.5-3.9-5.1-7.7-7.9-11.5-1.4-1.9-2.8-3.7-4.3-5.5l-2.2-2.7c-.5-1.2-2.7-.6.6-5.2Z" transform="translate(-0.03 0.03)"/>
  <path class="cls-5" d="M195.9,331.4c3.6.2,5.2,2.3,7.1,4.2l5.6,5.6L220,352.3c7.6,7.3,15.5,14.4,23.5,21.3s16.8,12.4,25.7,18.5a61.33,61.33,0,0,1,12.3,11,36.12,36.12,0,0,1,6.9,15l-2.4.6a37.65,37.65,0,0,0-7.3-13.3c-3.4-3.8-7.6-6.7-12.1-9.5-8.9-5.5-18.3-11-26.8-17.8s-16.5-13.8-24.3-21c-3.9-3.7-7.8-7.4-11.6-11.1l-5.7-5.7c-1.9-1.9-4-3.6-4.1-7.2Z" transform="translate(-0.03 0.03)"/>
  <path class="cls-4" d="M313.2,341.1c.1-1.1.1-2.2.1-3.3C297,382.2,288,490.9,293.6,455.1c4.2-26.4,17-70.9,25.5-98.8C316.8,345.4,312.2,351.8,313.2,341.1Z" transform="translate(-0.03 0.03)"/>
  <path class="cls-28" d="M290.3,450s6.3,65.2,7.2,93.2c.1,2.3.1,4.4.1,6.2q0,3.75.3,9.6" transform="translate(-0.03 0.03)"/>
  <path class="cls-4" d="M179.9,773.8l-7.8-56.1,23.4-28.8c-4.8.9-10.8,1.8-17.7,2.6l-18.7,25,10.5,58.7C173,774.8,176.4,774.3,179.9,773.8Z" transform="translate(-0.03 0.03)"/>
  <path class="cls-29" d="M297,559.7s-41.8,13.6-45.2,10.5a10.78,10.78,0,0,0-4.9-2.1c-.5,25.6,2,66.2,19.2,97.4.5-.4,1-.8,1.6-1.2,7.1-5.6,49.5-16.7,49.5-16.7S293.3,623.4,297,559.7Z" transform="translate(-0.03 0.03)"/>
  <path class="cls-15" d="M268.6,664.2c6.7-5.2,45.2-15.6,49.2-16.6l-2.4-1.2c-19.7-9.3-38.7,1.7-47-.7s-26.7,18-40.3,13.3-26.3,12.3-41.7,17.3-42.3-9.7-54.3-16-38.3,10-48.7,1.7S47,664.1,41,665.1s-7-19-20-26C14.3,635.5,6.3,618.2.1,602.2a44.58,44.58,0,0,0,.6,10.3c3.1,13.6-2.5,24.1,7.4,39.9s8.4,26.9,44.9,33.4,31.9,3.1,67.1,6.2,67.1-.9,80.8-4.3,48.9-18.3,56.6-18.9S261.5,669.7,268.6,664.2Z" transform="translate(-0.03 0.03)"/>
  <path class="cls-22" d="M450.2,555.2c-3.4-4.5-17.6-23.4-37.1-13.8s-36.9,6.1-36.9,6.1c5.2-5.3,12.7-14.2,7.8-17.6-7.1-5-30.3-.3-37.7-1.9s-16.1,6.2-24.1,15.2c-4.1,4.6-14.8,12.2-24.2,18.4-1.8,36.3,5.4,59.5,11.7,72.5,15.8,1.4,35.3,2.2,46.3-.9,20.7-5.9,38.2-16.2,46.4-20.7s29.1-24.4,37.4-34.7S453.6,559.7,450.2,555.2Z" transform="translate(-0.03 0.03)"/>
  <path class="cls-17" d="M460,519.3H399.9a3.22,3.22,0,0,0-2.8,1.5l-19.3,27a63.61,63.61,0,0,0,35.4-6.4c14.4-7.1,25.9,1.3,32.3,8,6.6-9.8,15.9-23.4,17.7-26C466.6,518.5,460,519.3,460,519.3Z" transform="translate(-0.03 0.03)"/>
  <path class="cls-9" d="M378.4,547.8c-.2,0-.5-.1-.7-.1l19.3-27a3.46,3.46,0,0,1,2.8-1.5H460s3.6-.4,4.1,1.3l.1-.1s-5.3-7.4-8.7-7.4H395.4a3.22,3.22,0,0,0-2.8,1.5l-10.3,14.4,1.8.9c4.9,3.4-2.6,12.3-7.8,17.6C376.2,547.5,377,547.7,378.4,547.8Z" transform="translate(-0.03 0.03)"/>
  <path class="cls-7" d="M660.3,367.5c-37.1-7.1-71.7-32.3-88.8-44-4.5.1-12.6-1.4-12.6-1.4l-.3,16c.3,1.8,19.1,43.9,19.1,49.2a8.46,8.46,0,0,1-4.1,7.5c-.6,1.2-1.1,2.5-1.7,3.8,0,.1-.1.2-.1.4a67.42,67.42,0,0,0-3,8.6c0,.1-.1.3-.1.4-.4,1.6-.9,3.2-1.2,4.9-.3,1.4-.6,2.8-.8,4.3a98,98,0,0,0,.9,36.6c10.3,49.5,8.3,40,17.3,84.2s26.4,67.2,24.3,94.1,1.7,19,0,43.7,8.7,19,5.8,41.3,2.9,36.3,4.5,49.1c1.6,12.2-7,56.2-7.8,60.4,2,.1,4.4.2,7.4.3,30.9,1.2,45-19,45-19s2.9-74.7-5.4-93.6-6.6-28.5-8.7-54-10.7-63.5-10.7-63.5c8.7-39.6,52-173.3,52-173.3S712.3,377.4,660.3,367.5Z" transform="translate(-0.03 0.03)"/>
  <path class="cls-17" d="M680.4,374.5c-8-10.8-43.8-20.5-61.2-24.4-15.7-3.5-28.3-18-35.9-28.8-.1,0-.2.1-.3.1-5.6,2.7-14,2.4-21.6,1.1,4.7,12.6,12.4,43.1,21,36.3,8.9-7,15.3,14.2,25.1,16.5,8.5,2,7.8-12.6,25.7,3.6s10.2-8.8,26.3-.8,11-1.8,14.6-3.1C679.6,373.1,682.6,377.5,680.4,374.5Z" transform="translate(-0.03 0.03)"/>
  <path class="cls-30" d="M680.8,384.7a34,34,0,0,0-8.4-6.7,6.47,6.47,0,0,1-.4,1.3c0,.1-.1.1-.1.2v.1c0,.1-.1.2-.2.3s-.1.1-.1.2l-.1.1c-.1.1-.1.2-.2.2l-.1.1-.2.2c-.1,0-.1,0-.1.1s-.2.1-.3.2a.37.37,0,0,1-.3.1h-.1c-.1,0-.2.1-.4.1s-.3.1-.5.1H668a.75.75,0,0,1-.5-.1h-.1a1.85,1.85,0,0,1-.7-.2h-.2c-.2-.1-.5-.1-.7-.2s-.1,0-.2-.1l-.9-.3c-.1,0-.1,0-.2-.1-.3-.1-.5-.2-.8-.3-.1,0-.2-.1-.3-.1-.3-.1-.7-.3-1.1-.4-.1,0-.1,0-.2-.1a3.13,3.13,0,0,1-1-.5c-.1-.1-.2-.1-.3-.2-.4-.2-.8-.4-1.3-.6-16-7.9-8.4,17-26.3.8s-17.2-1.6-25.7-3.6c-9.8-2.3-16.2-23.5-25.1-16.5-.2.1-.3.2-.5.3l-.1.1c-.1.1-.2.1-.3.2s-.1.1-.2.1a.6.6,0,0,1-.4.1h-.1c-.2,0-.3.1-.5.1h-1.1c-.1,0-.3-.1-.4-.1s-.1,0-.2-.1a.37.37,0,0,0-.3-.1c-.1,0-.1-.1-.2-.1s-.2-.1-.3-.1-.1-.1-.2-.1-.2-.1-.3-.2l-.3-.3c-.1-.1-.2-.2-.3-.2a.22.22,0,0,1-.2-.2l-.2-.2-.2-.2c-.1-.1-.1-.2-.2-.2l-.3-.3c-.1-.1-.2-.3-.3-.4s-.2-.2-.2-.3-.1-.2-.2-.3-.2-.2-.2-.3-.1-.2-.2-.3-.2-.2-.2-.3-.2-.3-.3-.4a2.19,2.19,0,0,1-.3-.5.52.52,0,0,1-.2-.4c-.1-.1-.1-.2-.2-.4a.52.52,0,0,1-.2-.4c-.1-.1-.1-.2-.2-.4s-.2-.3-.3-.5l-.2-.4c-.1-.2-.2-.5-.3-.7a.77.77,0,0,0-.2-.3l-.3-.6c0-.1-.1-.2-.1-.3a3.63,3.63,0,0,0-.3-.7c-.1-.2-.1-.1-.1-.2a4.18,4.18,0,0,1-.4-1c0-.1,0-.1-.1-.2a2,2,0,0,0-.4-.8c0-.1-.1-.1-.1-.2a3.55,3.55,0,0,0-.4-.9V346a14.27,14.27,0,0,1-.8-2.2v-.1c-.1-.4-.3-.7-.4-1.1h0c-.4-1.1-.8-2.2-1.2-3.4V339c-2.1-6.1-4-12.2-5.6-16.4-1.9-.3-3.7-.7-5.5-1.1l.3,2.5a37.9,37.9,0,0,1,5.5,9.8c.1.1.1.3.2.4,4.7,13.4,12.2,41.4,20.5,34.8,8.9-7,15.3,14.2,25.1,16.5,8.5,2,7.8-12.7,25.7,3.6s10.3-8.7,26.3-.8,11-1.8,14.6-3.1C680,383.3,683,387.7,680.8,384.7Z" transform="translate(-0.03 0.03)"/>
  <path class="cls-25" d="M277,574.5c9.8,2.4,16.2-4.6,20.3-5.7.1-3,.2-6,.3-9.2,0,0-41.8,13.6-45.2,10.5s-12.7-3.7-17.6.9-33.4,8.4-39.3,7.4-21,.9-23.8,2.5-12.4-5.3-21,1.2c-7.1,5.3-27.1-3.9-34.1-7.4,2,4.2,3.7,7.8,4.5,10,2.9,8.3,9.9-1.7,21.5,3.3s17.3-4.9,22.7-2.5,19.4,6.9,27.6,3.9,14-10.5,22.3-4.7,20.2-7.8,26-5.4C246.9,581.9,265,571.6,277,574.5Z" transform="translate(-0.03 0.03)"/>
  <path class="cls-23" d="M215.5,218.9c-5.8,5.3-15.2,9.5-16.4,2.3-5.7,17.2-23.8,37.1-27.9,40.4s-7.7,6.3-11.5,8.9a12,12,0,0,0,3.2,4.5,197.72,197.72,0,0,0,48.6,19.2c41.2,10,49.6,16.4,65.3,13.4,2.7-8.1,7.9-16.1,10.7-22.9l.1-.2c2.1-5.2,4.1-9.9,6-14.3C257.9,262.5,232,239,215.5,218.9Z" transform="translate(-0.03 0.03)"/>
  <path class="cls-31" d="M215.5,218.9c-5.8,5.3-15.2,9.5-16.4,2.3-5.7,17.2-23.8,37.1-27.9,40.4s-7.7,6.3-11.5,8.9a12,12,0,0,0,3.2,4.5c4.5,2.5,9.5,5.1,14.9,7.5,30.8-1.4,43-24.9,68-13.8,14,6.3,31.1,11,43.8,11.1,1.4-3.4,2.8-6.6,4.1-9.6C257.9,262.5,232,239,215.5,218.9Z" transform="translate(-0.03 0.03)"/>
  <path class="cls-15" d="M450.2,555.2c-2.7-3.6-12.3-16.3-25.9-16.5.5.4,1.1.9,1.7,1.4,23.3,16.7-22,44-36,44.7s-34,26.7-53.3,24.7c-10-1-23.1,3.1-33.4,7.4a119.79,119.79,0,0,0,6.4,17.3c15.8,1.4,35.3,2.2,46.3-.9,20.7-5.9,38.2-16.2,46.4-20.7s29.1-24.4,37.4-34.7S453.6,559.7,450.2,555.2Z" transform="translate(-0.03 0.03)"/>
  <path class="cls-5" d="M192.1,295.2c21.7,14.6,43.7,20.9,50.5,34.5s46.4,39,47.6,120.3c0,0,1-43.1,3.3-65.2s-3.5-61.5-13.2-73.4c-.6-.7-1.2-1.3-1.8-2l-1.7-1.9c-14.5,2-26.2-3.9-65.3-13.4a194.54,194.54,0,0,1-48.7-19.2C168.7,280.8,181.1,287.8,192.1,295.2Z" transform="translate(-0.03 0.03)"/>
  <path class="cls-22" d="M858.9,135c-5.1-.3-7,5.6-7,5.6l-1.2-.2c.1-2.6,0-5.9-.2-9.3-3.1,11.3-7.6,27.2-7.6,27.2s-9.7-16-12.9-21.3-19.3-5.9-25.2,0-16.2-2.8-24.1,4-26.5,12.4-40,8-25.3-.1-30,6.4h0c2.2,5.7,4.8,12.1,5.6,16.5,1.5,8.1,8.9,35.5,11.7,41.2s.7,14.2,1.5,22.5,23.4,28,27.2,30.4,8.8,10,16.3,24.4c5.5,10.4,18.7,10,23.2,9.4,4.7-.5,17-2.8,21.9-7.8s29.1-42.7,32.4-57.6,2.5-40.8,2.5-40.8c4.9-1.4,10.3-9.8,13-17a67.74,67.74,0,0,0,5-25.5C871,141,864.1,135.2,858.9,135Z" transform="translate(-0.03 0.03)"/>
  <path class="cls-24" d="M937.7,805.5c-14.2-1.9-9.3-5.6-17.3-3.1s-42.1,11.1-55.1,9.3-13.5,8.9-24.4,8.5c0,0-15-13.2-16.4-23.9s-14.2-92.2-13.6-131.8,1.4-82.1,1.4-82.1a254.8,254.8,0,0,1-.8-76c5.9-41.1.9-46.1,5-58.2s3.4-18.3,2.5-39.9,7.4-30.9,12.1-34.3,38.4-71.5,42.7-78.9c0,0-14.9,17.6-23.8,21.3s-45.8,20.7-63.1,7.7c-15.1-11.3-20.6-27.6-21.7-45.4-4.4.8-8.7,1.6-12.7,2.5-8,12.3-14.3,26.4-11.3,37.4,6.8,24.8-4.4,51.2-7.5,63.6s-7.3,52.2-14.1,60.2-11.8,11.1-13,27.2l-14.9,34.9s4.3,73,7.4,91.2-7.4,41.3-9.3,55.4-9.9,43.2-14.9,58.6-1.9,65-7.4,78a149.54,149.54,0,0,0-5,14.7c1.2,3.8,2.1,6.2,2.1,6.2s-1.2,17.3,5,23.9,53.2,17.7,67.7,22.7,61.9,12,87.9,6.2,29.3.8,73.4,4.5,69.7-9.1,69.7-9.1,6.6-15.7,4.5-22.7-2.5-33-2.5-33S951.9,807.4,937.7,805.5Z" transform="translate(-0.03 0.03)"/>
  <path class="cls-32" d="M747,384.8s2-44.8-12.7-52.1-19.1,16-44.3,0c0,0,18.4-.9,31.8-24.2,4-6.9,8.6-15.2,13.7-23.4a.37.37,0,0,0-.3.1c-51.4,13-59.4,24.1-68.1,29.7-6.1,3.9-23.5,26-33.5,38.7,24.4,8.2,32.8,13.3,36.9,30.3s-4,52.3-7.8,105.4,2.6,49-2.4,70.3c-4.5,19.4-5.1,52.7-5.1,58.7v.9c0,2-.1,4-.3,6.1a56.67,56.67,0,0,1-1.6,9c-7.8,31.4-.4,23.1-.8,38.4s5.8,30.5,8.3,39.2,2.1,16.1-3.3,40c-3.9,17.6,1.9,39.8,5.3,50.4,1.9-6.2,3.6-11.5,5-14.7,5.6-12.9,2.5-62.5,7.4-78s13-44.6,14.9-58.6,12.4-37.3,9.3-55.4-7.4-91.2-7.4-91.2l14.9-34.9c1.2-16.1,6.2-19.2,13-27.2C726.5,434.3,747,384.8,747,384.8Z" transform="translate(-0.03 0.03)"/>
  <path class="cls-32" d="M1089.4,556.8s-16.7-66.8-22.9-85.4S1043,373,1038.7,355.7s-13-24.1-27.8-39.1-34-20.3-34-20.3c-44.8-23.1-93.3-24.3-93.3-24.3a106.61,106.61,0,0,1-9.7,23.1c-4.3,7.4-38.1,75.5-42.7,78.9s-13,12.7-12.1,34.3,1.5,27.8-2.5,39.9.9,17-5,58.2a254.8,254.8,0,0,0,.8,76s-.8,42.5-1.4,82.1,12.2,121.1,13.6,131.8S841,820.2,841,820.2c10.9.4,11.4-10.3,24.4-8.5s47-6.8,55.1-9.3,3.1,1.2,17.3,3.1,32.4-4.5,32.4-4.5l13.4-7.8c7.4-4.3,1.9-17.3-1.9-38.4s-11.1-11.1-9.3-34-8.7-50.1-8.7-50.1c23.5-1.2,49.5-21,70.5-27.2s46.4-28.5,55.1-44.6S1089.4,556.8,1089.4,556.8Z" transform="translate(-0.03 0.03)"/>
  <path class="cls-4" d="M931.1,470.2a6,6,0,0,1-12,0h0c0-3.3,6.8-7.9,6-17.1S931.1,466.9,931.1,470.2Z" transform="translate(-0.03 0.03)"/>
  <g class="cls-14">
    <path class="cls-33" d="M954.5,433.2v2.5h0a82.48,82.48,0,0,1,24.2,3.6c1.2.4,1.2,3.1,1,6.9a25.4,25.4,0,0,0,.5,8.7c3.8,12.6.7,17.9-1.6,19a190.92,190.92,0,0,0-29.5,8.5c-8.4,3.2-13.3,4.5-17.6,4.5s-8.2-1.2-14.3-4.4c-5.6-2.9-6.3-7.1-7.1-11.9-.6-4-1.4-8.5-5.6-11.5a9,9,0,0,0-5.7-2,12.94,12.94,0,0,0-5.1,1.4,14.62,14.62,0,0,1-6.2,1.6,18.37,18.37,0,0,1-6.5-1.3c-9.8-3.4-8.9-16.4-8.2-21.5,5.2.2,19,.9,30.2,1.5,2.6.2,5.5.2,8.5.2a198.75,198.75,0,0,0,27.8-1.9l.5-.1a81.53,81.53,0,0,1,14.8-1.4l-.1-2.4m0,0a75.37,75.37,0,0,0-15.7,1.6,191.71,191.71,0,0,1-27.3,1.9c-2.8,0-5.6-.1-8.3-.2-14.2-.8-32.4-1.7-32.4-1.7s-5,21.5,9.5,26.4a22.52,22.52,0,0,0,7.3,1.4c5.6,0,8.1-3,11.3-3a7.28,7.28,0,0,1,4.2,1.6c7.6,5.4.9,17.3,12.9,23.5,6,3.1,10.5,4.6,15.4,4.6s10.4-1.5,18.5-4.6a175.42,175.42,0,0,1,29.3-8.5s9.1-3.1,3.3-22.1c-1.8-5.9,2.1-15.7-3.1-17.3a87.19,87.19,0,0,0-24.9-3.6Z" transform="translate(-0.03 0.03)"/>
  </g>
  <g class="cls-14">
    <path class="cls-33" d="M871,427.8a2.2,2.2,0,0,1,.8.1c4.7,2,16.9,2.2,31.2,2.3,4.6,0,8.6.1,10.4.2.4,0,.9.1,1.6.1,2.9,0,8.3-.4,14.4-.9,8.4-.7,18.9-1.5,26.7-1.5,5.6,0,8.1.4,9.2.8,4.1,1.4,10.8,3.3,16.3,4.9l-.3,1.2a6.12,6.12,0,0,0-1.2-.5,88.67,88.67,0,0,0-25.6-3.8,82.69,82.69,0,0,0-15.7,1.5l-.5.1a201.46,201.46,0,0,1-26.9,1.8c-2.9,0-5.7-.1-8.2-.2-11.1-.6-24.6-1.3-30-1.5l-2.5-.1-2.1-.1-.1.3c-4.5.4-10.7,1.8-25.6,5.7a48.45,48.45,0,0,1-12.6,1.7,36.3,36.3,0,0,1-8.7-1c.2-1.1.3-2.3.4-3.5a55,55,0,0,0,9.1.8c11.3,0,21.8-3.3,29.4-5.8,4.6-1.4,8.4-2.6,10.5-2.6h0m0-2.5c-6.6,0-22.1,8.4-39.7,8.4a48.63,48.63,0,0,1-11.4-1.3,45.92,45.92,0,0,1-1,8.3,40.52,40.52,0,0,0,11.5,1.7,49.61,49.61,0,0,0,13.3-1.8c17.2-4.5,22.5-5.6,27-5.7v-.1s.9,0,2.5.1h0c5.4.3,18.8.9,29.9,1.5,2.7.2,5.5.2,8.3.2a191.71,191.71,0,0,0,27.3-1.9,82.79,82.79,0,0,1,15.7-1.6,87.81,87.81,0,0,1,24.9,3.7c2.1.6,2.7,2.6,2.8,5.1l2.2-9.9c-6.2-1.8-13.9-4-18.4-5.5-2-.7-5.6-.9-10-.9-13.4,0-34.3,2.4-41.1,2.4h-1.3c-6.2-.6-34.2.5-40.8-2.3a3.29,3.29,0,0,0-1.7-.4Z" transform="translate(-0.03 0.03)"/>
  </g>
  <path class="cls-15" d="M932,658.6s14.9-21.7,31.6-32.2c0,0-41.5-93.9-69.9-92.4s-46.4,47.2-46.4,47.2-38.4,34.1-23.8,34.1,25.4,2.9,63.4,41.5C910.9,681,931.3,661.4,932,658.6Z" transform="translate(-0.03 0.03)"/>
  <path class="cls-34" d="M943.5,647.4c5.8-6.8,13.9-15.2,22.5-20.6,0,0-41.5-93.9-69.9-92.4a28.69,28.69,0,0,0-12.5,3.6c-3,1.6-12.7,9.3-15.4,11.6,3.9,1,14.4-1.3,17.6,5.2A543.12,543.12,0,0,0,943.5,647.4Z" transform="translate(-0.03 0.03)"/>
  <path class="cls-4" d="M945,622.5s-7.7-8.4-10.5-17,7.1,11.4,15.8,17S945,632.7,945,622.5Z" transform="translate(-0.03 0.03)"/>
  <path class="cls-20" d="M731.1,523l57.3-3.1c1.9-.1,2.7.2,3.3,1.3.3.5,6.5,11.9,11,20l3.9-.2c-4.4-8.1-14.4-26.4-14.8-27.3-.6-1.1-1.3-1.4-3.3-1.3l-57.3,3.1c-1.1.1-1.6.3-1.6,2.3l-.2,6.8h0a1.54,1.54,0,0,1,1.4-1.6h.3Z" transform="translate(-0.03 0.03)"/>
  <path class="cls-17" d="M734.2,534.7c9.1-1.5,21.3-2,31,1.1a131.13,131.13,0,0,0,37.4,5.4c-3.9-7.1-10.5-19.3-11-20-.6-1.1-1.3-1.4-3.3-1.3L731,523c-1.1.1-2.2.9-1.6,2.3Z" transform="translate(-0.03 0.03)"/>
  <path class="cls-9" d="M794.7,519.3h0c-1.7-3.1-2.9-5.3-3-5.6-.6-1.1-1.3-1.4-3.3-1.3l-57.3,3.1c-1.1.1-1.6.3-1.6,2.3l-.2,6.8h0a1.69,1.69,0,0,1,1.8-1.6h0l57.3-3.1c1.9-.1,2.7.2,3.3,1.3.1.1.3.6.7,1.3l9.2,16.8a11.4,11.4,0,0,1,1,1.9c1.3,0,2.6-.1,3.9-.2-.5-.9-1-1.9-1.6-2.9Z" transform="translate(-0.03 0.03)"/>
  <path class="cls-29" d="M667.7,572.6c-2.3,4.8-6.2,8.2-9.3,29.7a120.17,120.17,0,0,1-3.3,16.9c0,2-.1,4-.3,6.1a56.67,56.67,0,0,1-1.6,9c-7.8,31.4-.4,23.1-.8,38.4s5.8,30.5,8.3,39.2,2.1,16.1-3.3,40c-3.9,17.6,1.9,39.8,5.3,50.4,1.9-6.2,3.6-11.5,5-14.7,5.6-12.9,2.5-62.5,7.4-78S688.1,665,690,651s12.4-37.3,9.3-55.4-7.4-91.2-7.4-91.2-12.5,22-15.6,38.3S670.1,567.9,667.7,572.6Z" transform="translate(-0.03 0.03)"/>
  <path class="cls-1" d="M819.1,203.9c-4.5.6-29.5,1.9-35.3,5.6,0,0-6.9,4.3-3.1,9.3s7.4,10.1,15,11.3c9.1,1.5,30.2.4,33.5-9.5S823.7,203.3,819.1,203.9Z" transform="translate(-0.03 0.03)"/>
  <path class="cls-20" d="M793.2,247" transform="translate(-0.03 0.03)"/>
  <path class="cls-22" d="M858.9,135c-5.1-.3-7,5.6-7,5.6l-1.2-.2c.1-2.6,0-5.9-.2-9.3-3.1,11.3-7.6,27.2-7.6,27.2s-9.7-16-12.9-21.3-19.3-5.9-25.2,0-16.2-2.8-24.1,4-26.5,12.4-40,8-25.3-.1-30,6.4h0c2.2,5.7,4.8,12.1,5.6,16.5,1.5,8.1,8.9,35.5,11.7,41.2,3.7,7.8-1,17.2,2.4,24.9,6.3,14.1,16.8,22.6,26.6,33.9,6.7,7.7,12.8,18,21.4,24.1,5.2,3.7,11.6,4.5,17.8,3.8,4.7-.5,17-2.8,21.9-7.8s29.1-42.7,32.4-57.6,2.5-40.8,2.5-40.8c4.9-1.4,10.3-9.8,13-17a67.74,67.74,0,0,0,5-25.5C871,141,864.1,135.2,858.9,135Z" transform="translate(-0.03 0.03)"/>
  <path class="cls-29" d="M751.9,310.6c6.2-20.6,8.8-30.9,8.8-30.9-2.7.5-5.4,1-8,1.6-8,12.3-14.3,26.4-11.3,37.4a221.64,221.64,0,0,1,6.9,37.9C747.8,345,747.7,324.7,751.9,310.6Z" transform="translate(-0.03 0.03)"/>
  <g class="cls-35">
    <path class="cls-29" d="M794.7,344.4s35.6,4.7,55.7-8.1c0,0-21.7,22.2-33.8,24.7S800.3,348.9,794.7,344.4Z" transform="translate(-0.03 0.03)"/>
    <path class="cls-29" d="M819.6,759.2a50.84,50.84,0,0,1-13.2-9.3s-75.6-65.1-71.9-200.4c0,0-12.4,42.5-7.8,66.8s7.6,20.7,2.6,47.1,6.9-5.5,12.3,9.6-5,24.6,4.5,24.4,9.5,41.2,15.9,30,15.9,43.2,21.3,32.5,29.7,32.9,31.4,21.2a9.16,9.16,0,0,1,7-8C821,768.8,820.3,764.1,819.6,759.2Z" transform="translate(-0.03 0.03)"/>
    <path class="cls-29" d="M707.8,814.9S676.5,778.4,679,697.3h0c-1.3,4.6-2.6,8.9-3.8,12.4-4.6,14.4-2.2,58.6-6.4,74.9a98.34,98.34,0,0,0,8.1,23.6c27.8,55,7.7.6,12.9-3.1S729.3,849.3,707.8,814.9Z" transform="translate(-0.03 0.03)"/>
    <path class="cls-29" d="M783.7,818c-26.3-14,19.2-9,47.6-8.7-2.8-3.7-5.2-7.9-6.1-11.8-14.5-4.9-33.8-11.8-53.9-22-50.3-25.6-58.6-62.7-69.3-87.9-6.7-15.8-7.6-40.1-7.3-55.9-.9,3.3-1.8,6.4-2.6,9.4-.7,5.9-1.4,13.2-2.4,22.3-3.8,36.5,29.8,123,58.6,160.1,31.1,40.1,23.8,23.9,17.6,9.5S814.6,834.5,783.7,818Z" transform="translate(-0.03 0.03)"/>
    <path class="cls-29" d="M941.9,805.9c-12.6,10-41,12.1-41,12.1,23.1,6.4,53.6,8.3,62.3-8.9a18.54,18.54,0,0,0,2.1-6.4C959.6,804.2,950.4,806.2,941.9,805.9Z" transform="translate(-0.03 0.03)"/>
    <path class="cls-29" d="M812.1,618.6c-9.6-4.9-25.7-13.2-37-19.6,0,0,22.6,20.7,36.5,47.9C811.8,637,811.9,627.3,812.1,618.6Z" transform="translate(-0.03 0.03)"/>
    <path class="cls-29" d="M812.3,503.7c5-36.4,1.2-43,4-53.5-3.7-23-8.6-49.3-13.7-62.9-10.2-27.6-18.4-41.4-23.9-48.9,0,0-19.4-13.4-21.3-23l.6,8s2.8,88.7-6.5,140.1,0,18.7,0,18.7,19.9-68,16.3-124.6,36.9,70.7,36.1,89.5C803.3,464.3,811,498.2,812.3,503.7Z" transform="translate(-0.03 0.03)"/>
  </g>
  <circle class="cls-4" cx="713.18" cy="421.53" r="6.4"/>
  <ellipse class="cls-4" cx="674.18" cy="512.43" rx="3.7" ry="6.1"/>
  <g class="cls-14">
    <path class="cls-33" d="M672.7,417.3a54.78,54.78,0,0,1,25.6,12.4,113.3,113.3,0,0,0,18.1,12.7,2.34,2.34,0,0,1-.7.7c-1.2,1.2-2.3,2.5-3.4,3.8A83.71,83.71,0,0,1,696,435.5a56.13,56.13,0,0,0-24-12.3l.7-5.9m-2.2-2.8-1.2,10.8a53.36,53.36,0,0,1,25,12.2A88.09,88.09,0,0,0,713,450.2c2.4-3.6,5.8-6.2,7.2-8.4A104.51,104.51,0,0,1,699.8,428a57.35,57.35,0,0,0-29.3-13.5Z" transform="translate(-0.03 0.03)"/>
  </g>
  <path class="cls-4" d="M713.2,362.5c18.3-37,5.9,41.6,16.1,25.5s11.3,12.1,11.3,12.1c3.4-8,6.5-15.2,6.5-15.2s2-44.8-12.7-52.1c-10.3-5.1-15.6,4.8-26.5,5.7h0s-16.3,47.1-26.5,61.6S695,399.5,713.2,362.5Z" transform="translate(-0.03 0.03)"/>
  <path class="cls-4" d="M674.2,321.3s8-3.8,4.7,19.8-7.7,46.7-7.7,46.7,2.9-31.9,3.6-51.4C666.5,338.8,662.7,327.4,674.2,321.3Z" transform="translate(-0.03 0.03)"/>
  <path class="cls-29" d="M724.3,304.1c-.9,1.5-1.7,3-2.5,4.4-13.4,23.3-31.8,24.2-31.8,24.2,16.3,10.3,23.9,4.3,31.3.6a86.25,86.25,0,0,1-19-.3,76.65,76.65,0,0,0,13.7-9.6C719.3,320.5,722.3,311.4,724.3,304.1Z" transform="translate(-0.03 0.03)"/>
  <line class="cls-1" x1="701.47" y1="407.13" x2="719.68" y2="373.63"/>
  <path class="cls-4" d="M683.6,450.5,662,500.6c-.1,2.5-.2,4.8-.3,7l24.2-56.1Z" transform="translate(-0.03 0.03)"/>
  <path class="cls-33" d="M873.5,296.1a4.05,4.05,0,0,1-.5.9A1.93,1.93,0,0,0,873.5,296.1Z" transform="translate(-0.03 0.03)"/>
  <path class="cls-33" d="M872.1,298.9c-.2.4-.5.9-.7,1.4A9.14,9.14,0,0,1,872.1,298.9Z" transform="translate(-0.03 0.03)"/>
  <path class="cls-33" d="M872.9,297.3c-.2.4-.5.9-.7,1.4Z" transform="translate(-0.03 0.03)"/>
  <path class="cls-33" d="M874.1,295.1a2,2,0,0,0-.4.8A3,3,0,0,1,874.1,295.1Z" transform="translate(-0.03 0.03)"/>
  <g class="cls-14">
    <path class="cls-33" d="M856.5,536.6c-.5-3.1-.7-6.3-.9-9.4s-.2-6.3-.1-9.4.6-6.3.7-9.4,0-6.3-.2-9.4-.3-6.3-.3-9.4,0-6.3.1-9.4a148,148,0,0,1,2-18.8h.2c.4,6.3.5,12.6.4,18.9-.1,3.1-.3,6.3-.4,9.4s-.4,6.3-.7,9.4-.4,6.3-.4,9.4.4,6.3.6,9.4.1,6.3,0,9.4a74.51,74.51,0,0,1-.8,9.4Z" transform="translate(-0.03 0.03)"/>
  </g>
  <g class="cls-14">
    <path class="cls-33" d="M864.4,713.6a122.4,122.4,0,0,1-2.2-20c-.1-3.4.1-6.7,0-10.1s-.5-6.7-.9-10-.8-6.7-1.1-10-.6-6.7-.7-10a168.51,168.51,0,0,1,.2-20.1h.2c1.1,6.7,1.7,13.3,2.2,20,.2,3.3.3,6.7.4,10s.1,6.7.1,10.1,0,6.7.3,10,.9,6.7,1.3,10,.5,6.7.6,10,.1,6.7-.1,10.1Z" transform="translate(-0.03 0.03)"/>
  </g>
  <path class="cls-4" d="M852.8,418.4c1.8-.1-13.2,6.1-14.9,6.1s-3.5-.5-3.5-2.2a3.27,3.27,0,0,1,3.1-3.2h.1C839.4,419.1,848.3,418.6,852.8,418.4Z" transform="translate(-0.03 0.03)"/>
  <path class="cls-4" d="M850.5,717.8c1.8.1-13.8,4.6-15.5,4.4s-3.4-.9-3.2-2.6a3.22,3.22,0,0,1,3.5-2.8C837,717,845.9,717.5,850.5,717.8Z" transform="translate(-0.03 0.03)"/>
  <path class="cls-4" d="M862.7,802.1c1.8-.1-13.2,6.1-14.9,6.1s-3.5-.5-3.5-2.2a3.27,3.27,0,0,1,3.1-3.2h.1C849.3,802.8,858.2,802.3,862.7,802.1Z" transform="translate(-0.03 0.03)"/>
  <path class="cls-4" d="M825.5,780s6.2,13,31.6,6.5,21-1.9,35.3-6.5,22.1-3.4,28.2,0c0,0,4-8.4,10.2-7.4s20.1-2.8,29.4-4.6,12.7-4,12.7-4-15.2,2.5-22.9-5-6.2,13-13,6.2-7.7,9.6-13,.9-5,8.8-16.7,6.7-28.6,7-32.1,0,3-13.9-9.4-40.2c0,0,4.3,37.7,3.1,41.2s-10.4,9-15.3,6.5-7.3,5-16.9-.9S834.5,787.7,825.5,780Z" transform="translate(-0.03 0.03)"/>
  <path class="cls-4" d="M902.7,622.8c-8.9-6.9-25.4-17.9-43.1-21a59.89,59.89,0,0,0-9.5-.8c.4,5.8,2,10.8,5.4,13.9,15.8,14.8,27.2,42.3,71.5,40.1A139.11,139.11,0,0,1,902.7,622.8Z" transform="translate(-0.03 0.03)"/>
  <path class="cls-4" d="M1047.7,622.8s-28.8-43.6-30-71.8c0,0,5.9,33.4,38.1,45.5C1055.7,596.5,1033.5,593.4,1047.7,622.8Z" transform="translate(-0.03 0.03)"/>
  <path class="cls-15" d="M1053.9,634.4c-8.2-5.1-19.5-10.5-31.6-11.6-23.8-2.2-74.9-34.3-74.9-34.3l-.2,1.2c11,19.7,18.7,37.2,18.7,37.2-7.8,4.9-15.2,12.3-20.9,18.7-.6.7-1,1-1.6,1.7l-1.3-1.7c-2.6,3.4-6.3,7.3-8,9.9s-5.7,8.7-11.8,10.9-7.2,2.3-7.2,2.3c7.5,3.8,15.5,4.9,26.6,3.6,4.7-.6,22.4-1.5,22.4-1.5,23.5-1.2,49.5-21,70.5-27.2A81.46,81.46,0,0,0,1053.9,634.4Z" transform="translate(-0.03 0.03)"/>
  <path class="cls-4" d="M1015.1,542c-19.8,1.7-24.3,9.1-30.7,1.6s-4-7-10.6-2.5c-3.1,2.2-8.9,3.4-14,4.1,1.1,1.9,3.2,3.4,6.8,4.2,0,0-3.4.6-8.9,1.4,25.5,12,36.5-2.9,52.8-6.4,18-3.8,23.9,18.6,43.7,42.5s11.6-11.1,6.6-18.3S1034.9,540.4,1015.1,542Z" transform="translate(-0.03 0.03)"/>
  <path class="cls-4" d="M935.7,557.2s15.1,1.2,20.7,1.9,28.5,37.1,26.6,24.8,15.5,15.2,14.5,5.6S986.6,576,986.7,561c0,0-14.3-.1-39.2-8.5-4.8.7-10.1,1.4-15.7,2.1C934.1,556,935.7,557.2,935.7,557.2Z" transform="translate(-0.03 0.03)"/>
  <path class="cls-4" d="M1076,555.9s-39.2-49.5-39.3-59.4-26.8,10.2-42.9-12.4c0,0,30-48.7,39.6-33.2S1070.3,523.8,1076,555.9Z" transform="translate(-0.03 0.03)"/>
  <path class="cls-4" d="M1020.8,351.1s4,8,6.8,24.1,7.3,7.1,7.4-5.9S1020.8,351.1,1020.8,351.1Z" transform="translate(-0.03 0.03)"/>
  <path class="cls-4" d="M984.4,407.1s1.1-62.2,7.3-72.4,15.1-9.3,14.5,0S987,340.1,984.4,407.1Z" transform="translate(-0.03 0.03)"/>
  <path class="cls-4" d="M916,484.7c-12-6.2-5.3-18.2-12.9-23.5s-8.5,5-22.9,0c-5.3-1.8-7.9-5.8-9.2-10.2h0l-1.1,88.7s19.5-45,31.8-27.2c12,17.4,25.8,18.8,43.7-26.1C932.6,490.8,926.8,490.2,916,484.7Z" transform="translate(-0.03 0.03)"/>
  <path class="cls-4" d="M887.9,332.4c-7.5-1.2-13.5-14-27.2-11.9,0,0-18.3,35.6-24.7,46.5,8.1-4.8,15.5-6.4,16.8.3,2.9,14.9,30.7-25.1,37.2-6s23-30.5,23-30.5S895.4,333.7,887.9,332.4Z" transform="translate(-0.03 0.03)"/>
  <path class="cls-4" d="M1018.6,389.2c-14.8-9.2-7.4-31.3-7.4-31.5a97.07,97.07,0,0,0-12.4,27.2c-7.9,28.1-14.2,45.9-17.3,53.9,1.7,3.5-.5,10.8,1,15.4,5.8,19-3.3,22.1-3.3,22.1s-2.7.5-7,1.5l-12.4,56.6a15.46,15.46,0,0,0-.7,2.3c10.5-8.6,17.6-17.8,19.9-27.6,16.1-69.6,30.3-81.1,30.3-81.1-8-8.9-6.2-18.9,0-24.5S1033.5,398.5,1018.6,389.2Z" transform="translate(-0.03 0.03)"/>
  <path class="cls-4" d="M864.5,410.8s1.9-43.8,19.2-74.5" transform="translate(-0.03 0.03)"/>
  <path class="cls-4" d="M918.2,270.8A5.67,5.67,0,0,0,917,269a13.94,13.94,0,0,0,.3,4.1c.9,4.8-3.3,2.2-2.3,6.4s-2.8,4.4-1.8,8-3,1.3-2.2,9.2-5.8,2.9-3.6,9.7-1.8-.1-1.8,9.8c0,4.4,3.5,9.8,7.5,14.5C906.2,303.1,919.8,274.7,918.2,270.8Z" transform="translate(-0.03 0.03)"/>
  <path class="cls-4" d="M928.1,672.8c2.7,12.9,11.9,56.6,13.4,74.7,1.8,21.1,7.9,17.2-8.9-74.5C931.1,672.9,929.5,672.9,928.1,672.8Z" transform="translate(-0.03 0.03)"/>
  <path class="cls-4" d="M907.5,668.3a33.24,33.24,0,0,1-10.8-5h0c4,20.2,11.2,45.7,19.3,56.1s7.6,37.3,7.6,37.3c.6-14.9,1.5-28.2-7.6-46.7C909.4,696.7,907.9,677.8,907.5,668.3Z" transform="translate(-0.03 0.03)"/>
  <g class="cls-14">
    <path class="cls-34" d="M943.5,645.5A546.45,546.45,0,0,1,887,554.2c-2.7-5.4-9.4-5.5-14.3-5.6h-1.3c3.9-3.2,10.5-8.3,12.9-9.5a28.11,28.11,0,0,1,12-3.4h.6c25.8,0,63.2,80.9,67.7,90.8C956.3,631.6,948.8,639.4,943.5,645.5Z" transform="translate(-0.03 0.03)"/>
    <path class="cls-33" d="M896.7,536.8c21.5,0,54.2,62.5,66.1,89.1-6.2,4.2-12.6,10.1-19.3,17.7A539.64,539.64,0,0,1,888,553.7c-2.6-5.3-8.6-6.1-13.3-6.3a102.3,102.3,0,0,1,10-7.3,27.26,27.26,0,0,1,11.5-3.3h.5m0-2.5H896a28.69,28.69,0,0,0-12.5,3.6c-3,1.6-12.7,9.3-15.4,11.6,3.9,1,14.4-1.3,17.6,5.2,23.7,48.4,50.5,83.7,57.6,92.7,5.8-6.8,13.9-15.2,22.5-20.6.2,0-40.6-92.5-69.1-92.5Z" transform="translate(-0.03 0.03)"/>
  </g>
  <path class="cls-17" d="M842.9,158.3s-9.7-16-12.9-21.3-19.3-5.9-25.2,0-16.2-2.8-24.1,4-26.5,12.4-40,8-25.3-.1-30,6.4c0,0-9.3-12.3-16-22.7s-1.1-15.3-4.8-24.6-15.6-19.2-10.3-26.6-3.3-17.9,6.6-24.1,1.5-17.3,8.5-19.2,16.9,0,18.4-5.3,5.9-17.1,19.5-14.3,2.5-13.3,14.2-12S764.7-5.2,774,2.3s22.7-.6,25.6,5.6,19.1,1.8,24.6,10.8,17.1,3.4,19.3,17,14.7,11.8,12.8,26.6,8.5,21.1.2,32.4-1.3,19.3-3.7,28.2S842.9,158.3,842.9,158.3Z" transform="translate(-0.03 0.03)"/>
  <path class="cls-33" d="M890.1,455.1" transform="translate(-0.03 0.03)"/>
  <path class="cls-4" d="M921.6,664.2c-7.4-1.5-10.6,7.1-16.4,0s-13.7-7.1-15.3-11.1-13.5-6.6-13.3-10.2-8.4-8-13-12.5-10.1-3.9-11.1-7.7-7.7-5.8-17.9-7.1c-6.8-.9-7.8-6.1-7.7-9.5a27.69,27.69,0,0,1-4.1,1.2c-1.7,2.6-2.7,4.8-2.5,6.3a.37.37,0,0,0,.1.3h0c.4.9,1.3,1.5,3.2,1.5,14.5,0,25.4,2.9,63.4,41.5,15.8,16,30.1,12.9,38.2,8.1C924,664.7,922.8,664.4,921.6,664.2Z" transform="translate(-0.03 0.03)"/>
  <path class="cls-15" d="M972.8,720.9c1.7-22.1-8-48.3-8.7-50h0s-17.7.9-22.4,1.5a59.2,59.2,0,0,1-13.3.3c1.4,3.9,5.5,9.7,14.6,18.4,26,25-21,40,11,62,11.8,8.1,23.4,21.4,33.4,34.9,1.1-6.5-2.6-17.6-5.3-33.1C978.4,733.9,971,743.8,972.8,720.9Z" transform="translate(-0.03 0.03)"/>
  <path class="cls-36" d="M746.8,6.6c-11.7-1.3-.6,14.8-14.2,12s-18,9-19.5,14.3-11.4,3.4-18.4,5.3,1.4,13-8.5,19.2-1.3,16.7-6.6,24.1,6.6,17.3,10.3,26.6-1.9,14.2,4.8,24.6,16,22.7,16,22.7a19.7,19.7,0,0,1,10.2-6.8C685.9,92,719.6,38.2,748.6,6.7A10.87,10.87,0,0,1,746.8,6.6Z" transform="translate(-0.03 0.03)"/>
  <path class="cls-37" d="M831.4,139.3l11.5,19s7.5-26.5,9.9-35.4-4.6-16.9,3.7-28.2-2.1-17.6-.2-32.4-10.6-13-12.8-26.6-13.8-8-19.3-17-21.7-4.6-24.6-10.8a5,5,0,0,0-4.2-2.5C812.3,31.4,830.6,74.3,831.4,139.3Z" transform="translate(-0.03 0.03)"/>
  <path class="cls-34" d="M762.7,279q-2.85-3.75-5.7-7.2c-2.3-2.7-4.6-5.1-6.9-7.6-11.2,13.6-20.9,31.2-28.4,44.3-13.4,23.3-31.8,24.2-31.8,24.2,25.2,16,29.7-7.3,44.3,0,14.8,7.3,12.8,52,12.8,52l1.1-5c2.1-13.4-.5-38.4-6.8-61.2-3-11,3.5-25.3,11.6-37.7Z" transform="translate(-0.03 0.03)"/>
  <path class="cls-29" d="M769.9,288c-4.6-5.2-8.6-11.2-12.9-16.1-.2-.3-.5-.5-.7-.8a2.51,2.51,0,0,1-2.3,1c-5.1.1-7.7,4.1-7.6,7.1s-3.5,3.3-3.5,3.3c-2.4-.2-.9,7.7-2.5,6.5s1.1,5.5-1.6,5.7,2.2,8.4-.5,8.2-1.3,8.4-3.3,7.5-.6,7-2.6,6.3,2,7.7-.7,6-3.9-.2,2.7,5.5c2.5,2.2,4,5.6,4.8,8.9,9.4,13.5,7.9,47.6,7.9,47.6l1.1-5c2.1-13.4-.5-38.4-6.8-61.2C738.3,307.2,756.5,298.1,769.9,288Z" transform="translate(-0.03 0.03)"/>
  <path class="cls-27" d="M878.5,260.5c-6.8-3.3-16.8-8.5-20.3-18.8-4-7.6-5.7-18.4-5.3-30.9v-2.7a170.71,170.71,0,0,1-1.8,22.6c-.2,1.2-.4,2.4-.7,3.6-3.3,14.9-27.5,52.7-32.4,57.6s-17.2,7.3-21.9,7.8a31.71,31.71,0,0,1-8.7-.2c-4.4-.6-9.3-2.4-12.7-6.5a87.38,87.38,0,0,1-9.1-10.1c1.8,16.1,7.5,30.6,21.3,41,17.3,13,54.1-4,63.1-7.7S873.9,295,873.9,295a106.61,106.61,0,0,0,9.7-23.1c1.1-3.6,2.1-6.6,2.4-7.8A42.73,42.73,0,0,1,878.5,260.5Z" transform="translate(-0.03 0.03)"/>
  <path class="cls-38" d="M858.9,135c-5.1-.3-7,5.6-7,5.6l-1.2-.2c.1-2.6,0-5.9-.2-9.3-3.1,11.3-7.6,27.2-7.6,27.2l-1.3-2.1a2.09,2.09,0,0,0-.4-.6c-.6-1-1.3-2.2-2.2-3.6-.2-.4-.5-.8-.7-1.2l-.9-1.5c-.5-.8-1-1.6-1.5-2.5l-1.8-3c-.2-.3-.4-.7-.6-1a.52.52,0,0,1-.2-.4c-.1-.2-.3-.5-.4-.7v-.1c-.1-.1-.1-.2-.2-.3,1,11.6,1.9,24.8,2.7,39.8,10.4,21.6,4.9,54.9-.5,76.3a106.55,106.55,0,0,1-4.3,16.6c.1-.1.1-.2.2-.3.3-.5.6-1,1-1.6a4.13,4.13,0,0,1,.7-1.1,8.64,8.64,0,0,1,1-1.6,4.13,4.13,0,0,1,.7-1.1c.3-.5.6-1.1.9-1.6s.5-.8.7-1.2.6-1,.9-1.6c.2-.4.5-.8.7-1.3l.9-1.5c.2-.4.5-.9.7-1.3a10.93,10.93,0,0,0,.8-1.5c.2-.4.5-.9.7-1.3s.5-1,.8-1.5.5-.9.7-1.3.5-.9.7-1.4.5-.9.7-1.4.5-.9.7-1.3.5-.9.7-1.4.4-.9.6-1.3.4-.9.6-1.4l.6-1.2c.2-.5.4-.9.6-1.3s.3-.7.5-1.1a6.94,6.94,0,0,0,.5-1.3c.1-.3.3-.7.4-1a6.94,6.94,0,0,1,.5-1.3l.3-.9a6.47,6.47,0,0,0,.4-1.3,1.85,1.85,0,0,0,.2-.7c.2-.6.3-1.2.5-1.8,3.3-15,2.5-40.8,2.5-40.8,4.9-1.4,10.3-9.8,13-17a67.74,67.74,0,0,0,5-25.5C871,141,864.1,135.2,858.9,135Z" transform="translate(-0.03 0.03)"/>
  <path class="cls-4" d="M845.4,247.7c-.2.4-.4.8-.6,1.3A3.79,3.79,0,0,1,845.4,247.7Z" transform="translate(-0.03 0.03)"/>
  <path class="cls-4" d="M834.9,266.9c-.3.5-.6,1.1-.9,1.6C834.3,267.9,834.6,267.4,834.9,266.9Z" transform="translate(-0.03 0.03)"/>
  <path class="cls-4" d="M833.3,269.6a8.64,8.64,0,0,1-1,1.6C832.7,270.6,833,270.1,833.3,269.6Z" transform="translate(-0.03 0.03)"/>
  <path class="cls-4" d="M831.7,272.2c-.3.5-.6,1-1,1.6A8.64,8.64,0,0,0,831.7,272.2Z" transform="translate(-0.03 0.03)"/>
  <path class="cls-4" d="M846.5,245.2l-.6,1.2A2.28,2.28,0,0,0,846.5,245.2Z" transform="translate(-0.03 0.03)"/>
  <path class="cls-4" d="M847.6,242.7c-.2.4-.3.7-.5,1.1A3.7,3.7,0,0,0,847.6,242.7Z" transform="translate(-0.03 0.03)"/>
  <path class="cls-4" d="M841.2,255.8c-.3.5-.5,1-.8,1.5A5.3,5.3,0,0,0,841.2,255.8Z" transform="translate(-0.03 0.03)"/>
  <path class="cls-4" d="M836.5,264.2c-.3.5-.6,1-.9,1.6C835.9,265.2,836.2,264.7,836.5,264.2Z" transform="translate(-0.03 0.03)"/>
  <path class="cls-4" d="M844.1,250.4c-.2.4-.5.9-.7,1.3A8.26,8.26,0,0,1,844.1,250.4Z" transform="translate(-0.03 0.03)"/>
  <path class="cls-4" d="M839.7,258.6a10.93,10.93,0,0,0-.8,1.5A10.93,10.93,0,0,1,839.7,258.6Z" transform="translate(-0.03 0.03)"/>
  <path class="cls-4" d="M838.1,261.4l-.9,1.5Z" transform="translate(-0.03 0.03)"/>
  <path class="cls-4" d="M842.7,253.1c-.2.5-.5.9-.7,1.4A9.14,9.14,0,0,1,842.7,253.1Z" transform="translate(-0.03 0.03)"/>
  <path class="cls-4" d="M849.4,238.2l-.3.9Z" transform="translate(-0.03 0.03)"/>
  <path class="cls-4" d="M841.3,155.6c.1.2.3.4.4.6A1.54,1.54,0,0,1,841.3,155.6Z" transform="translate(-0.03 0.03)"/>
  <path class="cls-4" d="M838.4,150.8a7.46,7.46,0,0,1,.7,1.2A3.46,3.46,0,0,1,838.4,150.8Z" transform="translate(-0.03 0.03)"/>
  <path class="cls-4" d="M850,236.2c-.1.2-.1.5-.2.7A1.45,1.45,0,0,0,850,236.2Z" transform="translate(-0.03 0.03)"/>
  <path class="cls-4" d="M833.5,142.8c.2.3.4.7.6,1C833.9,143.5,833.7,143.1,833.5,142.8Z" transform="translate(-0.03 0.03)"/>
  <path class="cls-4" d="M848.6,240.4c-.1.3-.3.7-.4,1A4.18,4.18,0,0,1,848.6,240.4Z" transform="translate(-0.03 0.03)"/>
  <path class="cls-4" d="M835.9,146.8c.5.8,1,1.7,1.5,2.5C836.9,148.5,836.4,147.6,835.9,146.8Z" transform="translate(-0.03 0.03)"/>
  <path class="cls-4" d="M832.9,141.8c.1.2.3.5.4.7A2.51,2.51,0,0,0,832.9,141.8Z" transform="translate(-0.03 0.03)"/>
  <path class="cls-22" d="M847.1,243.8c-.2.4-.4.9-.6,1.3A3.1,3.1,0,0,0,847.1,243.8Z" transform="translate(-0.03 0.03)"/>
  <path class="cls-22" d="M848.2,241.4c-.2.4-.3.9-.5,1.3A6.94,6.94,0,0,1,848.2,241.4Z" transform="translate(-0.03 0.03)"/>
  <path class="cls-22" d="M850.5,234.4a12.09,12.09,0,0,1-.5,1.8A12.09,12.09,0,0,0,850.5,234.4Z" transform="translate(-0.03 0.03)"/>
  <path class="cls-22" d="M843.4,251.7c-.2.5-.5.9-.7,1.4A9.14,9.14,0,0,1,843.4,251.7Z" transform="translate(-0.03 0.03)"/>
  <path class="cls-22" d="M844.7,249a6.11,6.11,0,0,1-.7,1.4C844.3,249.9,844.5,249.4,844.7,249Z" transform="translate(-0.03 0.03)"/>
  <path class="cls-22" d="M846,246.4c-.2.5-.4.9-.6,1.4C845.6,247.3,845.8,246.8,846,246.4Z" transform="translate(-0.03 0.03)"/>
  <path class="cls-22" d="M849.8,236.9c-.1.4-.3.9-.4,1.3C849.5,237.8,849.7,237.3,849.8,236.9Z" transform="translate(-0.03 0.03)"/>
  <path class="cls-22" d="M849.1,239.1c-.2.4-.3.8-.5,1.3A6.94,6.94,0,0,1,849.1,239.1Z" transform="translate(-0.03 0.03)"/>
  <path class="cls-22" d="M837.3,262.9c-.2.4-.5.8-.7,1.3A8.26,8.26,0,0,1,837.3,262.9Z" transform="translate(-0.03 0.03)"/>
  <path class="cls-22" d="M832.8,141.7" transform="translate(-0.03 0.03)"/>
  <path class="cls-22" d="M833.3,142.5a.52.52,0,0,1,.2.4A.76.76,0,0,0,833.3,142.5Z" transform="translate(-0.03 0.03)"/>
  <path class="cls-22" d="M837.4,149.3l.9,1.5A6,6,0,0,0,837.4,149.3Z" transform="translate(-0.03 0.03)"/>
  <path class="cls-22" d="M834.1,143.8l1.8,3Z" transform="translate(-0.03 0.03)"/>
  <path class="cls-22" d="M841.9,254.5c-.2.4-.5.9-.7,1.3A5.39,5.39,0,0,0,841.9,254.5Z" transform="translate(-0.03 0.03)"/>
  <path class="cls-22" d="M841.6,156.2l1.3,2.1Z" transform="translate(-0.03 0.03)"/>
  <path class="cls-22" d="M839.1,152c.8,1.3,1.5,2.6,2.2,3.6C840.7,154.6,839.9,153.4,839.1,152Z" transform="translate(-0.03 0.03)"/>
  <path class="cls-39" d="M767,155.6A96.79,96.79,0,0,0,796.1,139c-5-.6-10.7-2.1-15.4,2-7.8,6.8-26.5,12.4-40,8s-25.3-.1-30,6.4h0c2.2,5.7,4.8,12.1,5.6,16.5,1.5,8.1,8.9,35.5,11.7,41.2,3.7,7.8-1,17.2,2.4,24.9,6.3,14.1,16.8,22.6,26.6,33.9,3.1,3.6,6.1,7.8,9.3,11.8-1.9-7-5-13.2-9.6-17.7-24.3-23.6-19.7-42.4-19.2-58.4s-8-13.5-8-29S740.5,165.6,767,155.6Z" transform="translate(-0.03 0.03)"/>
  <path class="cls-22" d="M838.9,260.1c-.2.4-.5.9-.7,1.3A8.26,8.26,0,0,1,838.9,260.1Z" transform="translate(-0.03 0.03)"/>
  <path class="cls-22" d="M840.4,257.3c-.2.4-.5.9-.7,1.3C839.9,258.1,840.2,257.7,840.4,257.3Z" transform="translate(-0.03 0.03)"/>
  <path class="cls-22" d="M835.6,265.7c-.2.4-.5.8-.7,1.2A3.46,3.46,0,0,0,835.6,265.7Z" transform="translate(-0.03 0.03)"/>
  <path class="cls-22" d="M834,268.5a4.13,4.13,0,0,1-.7,1.1C833.5,269.2,833.8,268.9,834,268.5Z" transform="translate(-0.03 0.03)"/>
  <path class="cls-22" d="M832.4,271.2a4.13,4.13,0,0,1-.7,1.1A6.73,6.73,0,0,1,832.4,271.2Z" transform="translate(-0.03 0.03)"/>
  <path class="cls-22" d="M830.5,274.1c.1-.1.1-.2.2-.3C830.7,273.9,830.6,274,830.5,274.1Z" transform="translate(-0.03 0.03)"/>
  <path class="cls-33" d="M850.6,132l-19.2,66.2s-14.7,4.4-49.4,6.9-65.6,4-65.6,4-3.4-4.4-2.8-8.8c.5-3.3,1.9-16.7,3.2-26.3a81.51,81.51,0,0,0-2.2-8.5c-1.4,11.9-3.4,30.2-3.7,43.6,0,0,7.1,21.5,16.1,25.3a55,55,0,0,0,30.6,1.7c13.6-3.1,8.4-18.8,14.5-18.5s5.9,11.3,19.6,14.3,25.6,1,31.8-2.3,8.9-6.6,8.3-15.3-2.1-6.2-.6-8.7,4.7,2.1,9.3-17.5S851.1,138,851.1,138ZM757,233.8c-2.9,1.8-26.1,1.9-31.7-3.1s-7.4-16.1-7.4-16.1c-.9-4,30.7-3.7,34.8-3.7s8.1.2,10.3,9.9S759.9,232,757,233.8Zm72.2-13.2c-3.3,9.9-24.5,10.9-33.5,9.5-7.5-1.2-11.2-6.4-15-11.3s3.1-9.3,3.1-9.3c5.8-3.7,30.7-5,35.3-5.6s13.4,6.8,10.1,16.7Z" transform="translate(-0.03 0.03)"/>
  <path class="cls-33" d="M870,299.6c-6.5-6.2-14.1-12.3-21-14.5-16-5-5,19-41,25-13.7,2.3-26.7-1.9-37.7-8A50.15,50.15,0,0,0,787,324c17.3,13,54.1-4,63.1-7.7C856.3,313.9,865,305,870,299.6Z" transform="translate(-0.03 0.03)"/>
  <g>
    <path class="cls-22" d="M859.9,601.7c17.7,3.1,34.2,14.1,43.1,21a83.6,83.6,0,0,1-8.8-23.7c-4.3-22-8.1-36.7-13.9-44.6l-5.3-2.9a26.72,26.72,0,0,0-5.1-3.1c-.3-.1-.6-.3-.9-.4a44.8,44.8,0,0,0-6.2-2c-7.9-1.7-9.4-14.6-13.4-22.9s-24.3-11.7-34.9-13.9-19.7,10.6-19.7,10.6l9.3,17.1c7.7-11.1,19.8-2.6,19.8-2.6-9,11.5-44.3,6.1-58.8,1.5s-35-1.2-41.5,1.5,5,12.4,18.6,30.9,47,31.9,65,38.6c15.6,5.8,24-5.8,43.2-6h0A74.53,74.53,0,0,1,859.9,601.7Z" transform="translate(-0.03 0.03)"/>
    <path class="cls-15" d="M850.4,600.8a74.53,74.53,0,0,1,9.5.9c17.7,3.1,34.2,14.1,43.1,21a83.38,83.38,0,0,1-8.2-20.9,260.82,260.82,0,0,1-27.5-20.4c-15.3-13.3-32.7,8-48.7-6s-42.7-8.7-66-20c-9.4-4.6-10.7-13.2-8.9-21.8-8.8.5-16.6,2.2-20.2,3.6-6.5,2.8,5,12.4,18.6,30.9s47,31.9,65,38.6C822.8,612.6,831.2,601,850.4,600.8Z" transform="translate(-0.03 0.03)"/>
  </g>
  <path class="cls-34" d="M855.8,235.7s35.9-5.6,41.3,7.2,19.4,23.9,21,27.9-12,32.4-5,60c0,0-17.6,2.9-25.1,1.7s-13.5-14-27.2-11.9c0,0,15.6-28.5,17.6-33s7.7-23.3,7.7-23.3S862.4,259.5,855.8,235.7Z" transform="translate(-0.03 0.03)"/>
  <path class="cls-29" d="M856,236.1c5.8,22.8,29.8,28.3,29.8,28.3,3.9-10.1,6.1-20.3,5-27.3C879.4,232.9,859.6,235.6,856,236.1Z" transform="translate(-0.03 0.03)"/>
  <path class="cls-29" d="M217.7,217.8a17.68,17.68,0,0,1-1.6,2.2c15.7,20.5,40.3,44.1,74.1,50.9,3.1.6,6.5,1.5,10.1,2.5-11.2-6-23.6-13.5-30.8-20.3-19.6-18.2-18.6-41.5-20.1-68.3C247.8,154.3,219.8,211.5,217.7,217.8Z" transform="translate(-0.03 0.03)"/>
  <path class="cls-17" d="M594.5,176.9c-3.3-5.6-5.7-14.2-12.1-15-3.8-.4-6.2.9-9.7,2.3-16.7,6.6-31.6,17.2-44.4,29.6-22,21.3-27,34.9-29.9,65.5-.9,9.3,11.6,53.3,11.6,53.3C505.5,328,463.3,338,466.6,365a9.85,9.85,0,0,1,.2,1.7c4.2,28.8,32.5,43.4,41.5,63,1.7,3.7,23.9,31.5,1.3,18.6a46,46,0,0,0-5.9-2.9l-.9-.3a4,4,0,0,0-1.5-.3c-9-1.2,2.4,17.9,0,24.7-4.3,11.6-32-27-41.3,2.4-3.3,10.5-10.1-67.6-29.5-25.3-8.9,19.4,1.5-43.1-16.4-33.8S411.9,375.2,398,391c-14.2,16.1-41.5,38-31.5,16.2,9.1-19.8-19.2-9.2-10.9-21.7,10.5-15.8,2.1-13.7-5.8-10.3-.3.1-.5.2-.8.3-1.1.5-2.2,1-3.2,1.4a3.55,3.55,0,0,1-.9.4c-1.4.6-2.5,1.2-3.4,1.5-.1,0-.2.1-.3.1s-.2.1-.3.1h-.6q-.15,0,0-.3a1.61,1.61,0,0,1,.4-.7c0-.1.1-.1.1-.2l.3-.6a3.59,3.59,0,0,1,.7-1c.1-.1.2-.3.3-.4l.3-.3c.1-.2.3-.3.4-.5l.3-.3.7-.7a3,3,0,0,0,.8-.8c6.3-5.4,17.2-9.3,28.7-18.3a79.56,79.56,0,0,0,17.2-18.5c19.8-28.8,15-68.3,29.2-115.1s32.3-73.2,44.3-86c9-9.6,21-17.2,34-20a36.37,36.37,0,0,1,18.8.8c12.3,3.6,24.7,6.3,36.4,11.4A217,217,0,0,1,587,146.8C595.8,153.2,594.3,166.7,594.5,176.9Z" transform="translate(-0.03 0.03)"/>
  <path class="cls-19" d="M229,226.5c10.5-12.5,5.7-30.4,15-35s27.5-12.9,17-25-3.8-24.1-3.8-24.1,18.6-4.6,26.9-22.6-.3,8.7,21.3-1.9,13.9-20.7,20.4-16.1S346.2,77.7,349.3,78s-11.8-21-21.7-27.5-27.5-11.7-25.8-16.4-17.2-6.5-25.5-5.9-22.9-8.4-28.2-6.2-18.6-7.8-29.1-.3-23.8-1.8-28.8,15.8-11.1,28.5-25.4,34-13,34.3-7.1,52.3,9.6,48.6,34,78.3c0,0,3.3,2.8,1.2,19.1C188.4,244,218.5,239,229,226.5Z" transform="translate(-0.03 0.03)"/>
  <path class="cls-17" d="M426.3,445.1c-.2-3.5-.3-7.8-.7-12C425.9,437.6,426,441.9,426.3,445.1Z" transform="translate(-0.03 0.03)"/>
  <path class="cls-40" d="M433.6,249.3c21.1-66.8,57-111.9,93.7-130.1-3.6-1-7.1-1.9-10.7-3a36.33,36.33,0,0,0-18.8-.8c-13,2.8-25,10.4-34,20-12,12.8-30.1,39.2-44.3,86s-9.4,86.3-29.2,115.1A79.56,79.56,0,0,1,373.1,355c-11.5,9-22.4,12.9-28.7,18.3a3,3,0,0,1-.8.8l-.7.7-.3.3c-.1.2-.3.3-.4.5l-.3.3c-.1.1-.2.3-.3.4a3.59,3.59,0,0,0-.7,1l-.3.6c0,.1-.1.1-.1.2a1.61,1.61,0,0,0-.4.7q-.15.3,0,.3h.6c.1,0,.2-.1.3-.1s.2-.1.3-.1c.9-.3,2-.9,3.4-1.5a3.55,3.55,0,0,0,.9-.4c1-.4,2.1-.9,3.2-1.4.3-.1.5-.2.8-.3,7.9-3.4,16.3-5.5,5.8,10.3-8.3,12.5,20,1.9,10.9,21.7-10,21.8,17.3-.1,31.5-16.2,13.9-15.8-1.7,30.8,16,21.9C412.3,385.9,411.6,319,433.6,249.3Z" transform="translate(-0.03 0.03)"/>
  <path class="cls-41" d="M414,412.8l-.1.1c0,.9.1,1.7.1,2.5.1,0,.1,0,.2-.1,8.2-4.3,10.5,6.6,11.4,17.9C424.8,421.2,422.9,408.2,414,412.8Z" transform="translate(-0.03 0.03)"/>
  <path class="cls-17" d="M465.8,199.1c28.3-49.1,65.7-64.5,93.6-68.5l-6.3-3c-8.3-3.7-17-6.1-25.8-8.4-36.7,18.3-72.6,63.3-93.7,130.1-22,69.7-21.3,136.6-19.8,163.6l.1-.1c8.9-4.6,10.8,8.4,11.5,20.3.3,4.2.5,8.4.7,12,.5,5.5,1.3,7.7,4.2,1.5,19.4-42.3,26.2,35.8,29.5,25.3.2-.6.4-1.2.6-1.7C442.4,430,417.5,282.9,465.8,199.1Z" transform="translate(-0.03 0.03)"/>
  <path class="cls-41" d="M465.8,199.1c28.3-49.1,65.7-64.5,93.6-68.5l-6.3-3c-8.3-3.7-17-6.1-25.8-8.4-36.7,18.3-72.6,63.3-93.7,130.1-22,69.7-21.3,136.6-19.8,163.6l.1-.1c8.9-4.6,10.8,8.4,11.5,20.3.3,4.2.5,8.4.7,12,.5,5.5,1.3,7.7,4.2,1.5,19.4-42.3,26.2,35.8,29.5,25.3.2-.6.4-1.2.6-1.7C442.4,430,417.5,282.9,465.8,199.1Z" transform="translate(-0.03 0.03)"/>
  <path class="cls-30" d="M509.5,448.3a46,46,0,0,0-5.9-2.9l-.9-.3a4,4,0,0,0-1.5-.3c-9-1.2,2.4,17.9,0,24.7-4.3,11.6-32-27-41.3,2.4-3.3,10.5-10.1-67.6-29.5-25.3-8.9,19.4,1.5-43.1-16.4-33.8s-2.2-37.6-16.1-21.8c-14.2,16.1-41.5,38-31.5,16.2,9.1-19.8-19.2-9.2-10.9-21.7,10.5-15.8,2.1-13.7-5.8-10.3-.3.1-.5.2-.8.3-1.1.5-2.2,1-3.2,1.4a3.55,3.55,0,0,1-.9.4c-1.4.6-2.5,1.2-3.4,1.5-.1,0-.2.1-.3.1s-.2.1-.3.1h-.6q-.15,0,0-.3a1.61,1.61,0,0,1,.4-.7.1.1,0,0,1,.1-.1,60.44,60.44,0,0,0-8.8,5.3,2.36,2.36,0,0,1-.9.8l-.8.7-.3.3c-.1.2-.3.3-.4.5l-.3.3c-.1.1-.2.3-.3.4a3.92,3.92,0,0,0-.8,1l-.3.6c0,.1-.1.1-.1.2a1,1,0,0,0-.4.7q-.15.3,0,.3h.7c.1,0,.2-.1.3-.1s.2-.1.3-.1c1-.3,2.2-.9,3.8-1.5a4.18,4.18,0,0,0,1-.4c1.1-.4,2.3-.9,3.5-1.4a9.44,9.44,0,0,1,.9-.3c8.7-3.4,18-5.5,6.4,10.3-9.1,12.5,22.1,1.9,12,21.7-11,21.8,19.1-.1,34.8-16.2,15.3-15.8-2,31.1,17.8,21.8s8.3,53.2,18.1,33.8c21.4-42.3,28.9,35.8,32.5,25.3,10.3-29.4,40.9,9.2,45.6-2.4,2.7-6.8-9.9-25.9,0-24.7a5.08,5.08,0,0,1,1.7.3l1,.3a53.72,53.72,0,0,1,6.5,2.9c16.3,8.4,11.5-.5,5.7-8.8C519.9,452.4,517.5,452.9,509.5,448.3Z" transform="translate(-0.03 0.03)"/>
  <path class="cls-17" d="M382.4,346.5a66.45,66.45,0,0,1-9.2,8.4c-11.5,9-22.4,12.9-28.7,18.3a3,3,0,0,1-.8.8l-.7.7-.3.3c-.1.2-.3.3-.4.5l-.3.3c-.1.1-.2.3-.3.4a3.59,3.59,0,0,0-.7,1l-.3.6v.1c6.5-3.4,14.5-7.1,22.8-13A80.57,80.57,0,0,0,382.4,346.5Z" transform="translate(-0.03 0.03)"/>
  <path class="cls-17" d="M594.2,171.9a9.64,9.64,0,0,0-2.4,0c.9,1.8,1.7,3.5,2.6,5.1v-5C594.4,171.9,594.3,171.9,594.2,171.9Z" transform="translate(-0.03 0.03)"/>
  <path class="cls-17" d="M466.4,375a9.85,9.85,0,0,1,.2,1.7c4.6,28.8,35.9,43.4,45.8,63,.7,1.3,4,5.5,7.1,9.9-.6-5.1-10.2-17.5-11.3-19.9-9-19.5-37-34-41.4-62.5A22.79,22.79,0,0,0,466.4,375Z" transform="translate(-0.03 0.03)"/>
  <path class="cls-15" d="M553,174.2a150.56,150.56,0,0,0-24.8,19.6c-22,21.3-27,34.9-29.9,65.5-.6,6.6,5.4,30.5,9,44a48.61,48.61,0,0,0,7,4,173.19,173.19,0,0,0,20.6,8.2c-3.4-3.1-21.1-21.4-26.9-66C504.7,224.2,528.7,195.9,553,174.2Z" transform="translate(-0.03 0.03)"/>
  <path class="cls-42" d="M327.6,50.5c-9.9-6.5-27.5-11.7-25.8-16.4s-16.33-6.41-24.9-5.94C301.42,44,329,65.91,340.18,89.58c4.12-6,7.72-11.72,9.12-11.58C352.4,78.3,337.5,57,327.6,50.5Z" transform="translate(-0.03 0.03)"/>
  <path class="cls-43" d="M215.32,23.66c-9.74,3.76-20.69-1.76-25.12,13.84-5,17.6-11.1,28.5-25.4,34s-13,34.3-7.1,52.3,9.6,48.6,34,78.3c0,0,3.3,2.8,1.2,19.1-2.25,11.4,4.15,15.85,12.42,15.89,2.87-14.19-2.22-37.38-12.77-66.45C162,86.46,200.36,39.7,215.32,23.66Z" transform="translate(-0.03 0.03)"/>
</svg>
