<?xml version="1.0" encoding="utf-8"?>
<!-- Generator: Adobe Illustrator 22.1.0, SVG Export Plug-In . SVG Version: 6.00 Build 0)  -->
<svg version="1.1" id="Layer_1" xmlns="http://www.w3.org/2000/svg" xmlns:xlink="http://www.w3.org/1999/xlink" x="0px" y="0px"
	 viewBox="0 0 825 475" style="enable-background:new 0 0 825 475;" xml:space="preserve">
<style type="text/css">
	.st0{fill:#F8F7FA;}
	.st1{fill:#5D7FAE;}
	.st2{fill:#323071;}
	.st3{fill:#6FDCCA;}
	.st4{fill:#9CA7EF;}
	.st5{fill:#AAD0E0;}
	.st6{fill:#F8B0BC;}
	.st7{fill:#45ADD6;}
	.st8{fill:#D2FAD6;}
	.st9{fill:#35296F;}
	.st10{fill:#3482A1;}
	.st11{fill:#6ABDDE;}
	.st12{fill:#F894A4;}
	.st13{fill:#B5DEEF;}
</style>
<title>Artboard 1</title>
<g id="PersonFour">
	<polygon class="st0" points="480,213.3 567.9,191.9 631.3,230.1 638.9,265.4 578.2,397.3 534.8,388.7 454.2,272 	"/>
	<path class="st1" d="M517.9,111c0,0,48.2,16.9,44.5,40.9s-8.8,38.8-11.7,55.3s10.1,78.4,11.7,91.2s16,30.2,16,30.2l11.5,10.6
		l13.4-29c0,0-13.6,3.8-15.4-10.1s0.4-28.3,2.2-45.7s3.9-87.2,1.1-101s-7.7-44.4-23.1-54.5s-38.2-7.2-38.2-7.2s-2.9-6.7-14.4-2.2
		s-20.4,13.7-27.1,24.7s-6.8,41.2-4,71.1s-2.8,48.8-4.4,60.1c-1.6,11.3,11.5,34.8,11.5,34.8l5.8-33l17.1,7.9l4.3-5.6l6.5-11.8
		L517.9,111z"/>
	<path class="st2" d="M519,219.4c4.2,3.1,6.7,8,6.8,13.2c0.2,9.1-3.4,12.5-3.4,12.5l5.6,4.3l7.2-7l7,23.3l16.4,1.9
		c0,0-9.5-10.9-9.4-26s-3.6-27.8,1.6-34.5s7.8-31.7,7.8-31.7l-3.7-30.3l-29.8,19L519,219.4z"/>
	<path class="st3" d="M521.3,111.2c0,0-14.4-2.2-19,9.5s-12.9,24.9-5.8,49.1s16.3,48.3,22.3,47.6s18.5,2.7,21.8-2.8
		s14.7-19,15.9-25.2s2.8-17.5,2.4-20.5s6-15.9,2.4-20.5s-9.1-16-14-22.4S521.3,111.2,521.3,111.2z"/>
	<polygon class="st4" points="492.9,290.3 497.4,247.3 514.6,255.2 522.2,244.1 528,249.5 535.1,242.5 550.4,282.9 	"/>
	<path class="st3" d="M549.6,276.9l-7.5-11.1l16.4,1.9l4,30.7l16.4,33.6l-11.6,20.8l-25.9-37.5c0,0-18.4-9.7-23.5-10.1
		c-2.5-0.2-6.5-5.7-9.9-11.2s-6.1-11-6.1-11l23.3-15L549.6,276.9z"/>
	<path class="st5" d="M473.5,337.4l-19.9,61.8l38.9-10.9l31.9-49.6c0,0-25.6-2.8-33.8-3.7S473.5,337.4,473.5,337.4z"/>
	<path class="st1" d="M492.1,394.2c0,0,1.5-37.1,6.4-56.1c1.6-6.4,3.7-10.7,6.1-11c9.9-1.3,9.1-15.3,29,6.4s22.2,31.4,19,37.9
		s-5.9,25-5.9,25L492.1,394.2z"/>
</g>
<g id="PersonFive">
	<path class="st6" d="M710.1,239.1c0,0,1.4-0.4,3.3-1.2c4.6-1.8,12.5-5.4,13.5-9c1.3-5.2,4-0.5,4-0.5l4.9-16.5l2.8-9.7l11.3-29.7
		l-3.1-23.8l-23.5-25.2l-16.2-16.1l-41.6-1.7l-21.8,2.8l-22.6,20c0,0-12.6,3.6-16.8,10.2c-2.5,4-3.3,8.8-2.3,13.4l-7.9,9.1l1.3,9.9
		l1.7,12.9c0,0-4.6,18.7,6.2,24.4s17.9,21.9,17.9,21.9l12.2,13.7l12.2,3.5L710.1,239.1z"/>
	<path class="st7" d="M660.7,262.6l-40.3,16.3l-21.8,65.3l-15.3,45.3l-5,7.7l153.3,8.5l38.4-15l-0.7-68.5c0,0,3-31.6-18.3-40
		l-21.2-8.4l-25.4-25L660.7,262.6z"/>
	<path id="PersonFive-2" class="st2" d="M702.1,196c0,0,5.7,33.3,8,43.1c1.5,6.9,2.4,13.9,2.7,20.9l-14.3,30
		c0,0-24.8,11.3-32.5,21.4s-16.6,35.4-16.6,35.4s-11.8-44.9-6.4-49.6c4.4-4,8.5-8.2,12.5-12.7l5.3-21.9l-4.1-31.7L702.1,196z"/>
	<path class="st8" d="M628.5,172.5c0,0-0.8,25.3,6,46.6s14.4,41.5,25.6,42.1s29.2-0.7,34.1-9.4S706,218,704,210.2
		s-4.1-31.7-4.1-31.7l-14.9,1.9l-1.9-14.9l-10,16.4l-1.9-14.9l-7,16l-1.9-14.9l-15,17l-7.9-14.1L628.5,172.5z"/>
	<path class="st8" d="M564,357.7c0,0,11.8,44.9,19,37.9s18-17.4,30.5-60.4s23.7-58.5,23.7-58.5l3-0.4l2,15.9l5.3-5.7
		c0,0,6.7-10.9,6-15.9s-7.9-22.4-7.9-22.4l-19.6-3.4l-30,64.4L564,357.7z"/>
	<path class="st8" d="M686.9,309.7l-1.7-12.8l13.2-6.9l38,13.3l-2.4,20.5c0,0-12.8,25.9-9.1,31.4s10.9,21.8,10.9,21.8l-31.7,4.1
		l1.3-21.3l-13.6-11.4L686.9,309.7z"/>
	<path class="st4" d="M685.3,296.8l3.2,14.7l6,2.3l6.5,3.2l8.3,2l9.6,3.8l9.9-1.3l10.9,6.7l-1.5,4.2c0,0-50.3,16.5-61.6,23
		s-23.9,18.2-23.9,18.2l-5.8-6.3c0,0,0.9-28.5,12.6-45s8.4-13.2,8.4-13.2L685.3,296.8z"/>
</g>
<g id="PersonThree">
	<path class="st8" d="M365.4,161.5l-54.7,37.3c-4.5,18.5-5.6,37.6-3.1,56.5c4.2,30.1,16.9,50.6,16.9,50.6l45.8,34.4l25.1,22.8l55-19
		l48.1-10L470.1,270l11.2-31.5c0,0,14.5-55.7,2.6-59.6s-53.5-29.8-53.5-29.8L365.4,161.5z"/>
	<path class="st9" d="M372.8,156.5l-7.4,5c0,0,26.5,33.9,27,69.1l28,6.5l15.4-45.3l8.9-17.3l-14.4-25.4l-9.8,25.5L410,179l-21.3-1.3
		L372.8,156.5z"/>
	<path class="st10" d="M391.9,177.8l-15.2-16.1l-10.6-25.6L363.9,87l7.6-19.1c0,0,15-24.1,27.7-19.7s30.7,11.2,30.7,11.2
		s9.6,3.8,12.8,13.5s12,14.6,4.2,32.7s-16.6,43.5-16.6,43.5s0.7,21.1-9.8,25.5S391.9,177.8,391.9,177.8z"/>
	<path class="st7" d="M388.1,149.5c0,0,3.5-4.5,8.5-4.1s9.8,5.8,14.9,6.1c2.8,0,5.4,1.7,6.6,4.2c0,0,1.3,1.9-5.6,3.7
		s-16.1,0.1-18.2-0.7s-8.6-3.9-8.6-3.9L388.1,149.5z"/>
	<path class="st11" d="M376.6,91.5c0,0-2.1,7.3,7.8,6l21.8-2.8l8-8.1l12,30.7l-2.8,32.7l-8.8-5.9l-15.9-6l-15.5,5
		c0,0,3-8.4-2.5-19.8S376.6,91.5,376.6,91.5z"/>
	<path class="st7" d="M475.1,308.7l-37.5-1.2c0,0-40.9,19.4-39,26.2s-4.8,17.8-4.8,17.8l16.4-6.1l42.2-24.6l25.6,10.8L475.1,308.7z"
		/>
	<path class="st6" d="M387.4,356.2l-44.7-41.6c0,0-66.5,0.5-68.8,13.9s-5.1,39-5.1,39l28.2,38.7l62.9,19.1L399,392L387.4,356.2z"/>
	<path class="st12" d="M354.3,380.7c0,0,1.9,46.1,17.6,43.1s91.5-17.8,99.6-41s7.7-42.3,7.7-42.3l-26-13.8L354.3,380.7z"/>
	<path class="st4" d="M330.2,240.6l33.1,38.1c0,0,6.2,1.2,16.9-2.2s36.8-11.8,46.7-13.1l20.8-2.7c0,0-17.5-34-65.4-29.9
		S330.2,240.6,330.2,240.6z"/>
	<path class="st7" d="M304.1,319.6l11.7-34.8c0,0,4.8-32.9,10.5-35.6s29.6-12.9,32.1-9.2s0.6,5,0.6,5l14.6,4.2l-7.5,4l4.4,10.5
		l-24,17.2c0,0-12.1,23.7-11.3,29.7S304.1,319.6,304.1,319.6z"/>
</g>
<g id="PersonTwo">
	<path class="st10" d="M188,201.4l36.6-25.8l82.3-16.7l29.9,23.4l-26.1,16.5c0,0-5.7,18.9-6.1,27s7.2,59.6,7.2,59.6l12.7,20.5
		l-36.6,28.9L258,376.9l-70.6-47.4L188,201.4z"/>
	<path class="st3" d="M277.9,116.2c0,0-9.9-6.8-21.5-2.2s-37.7,28-33.4,53.7s21.6,73.8,25.2,78.4s14.5-4.9,14.5-4.9l-9.7-12.9
		l18.5-15.5L277.9,116.2z"/>
	<path class="st3" d="M285.1,108.1c0,0-2.2-23.7,14.8-32.9s7.9-17.1,32.6-13.3s30.2,15.3,30.2,15.3s12.8,36.7,1.8,45.1
		s-29.8,19-43.8,27.8S285.1,108.1,285.1,108.1z"/>
	<path class="st9" d="M272.2,152.3c0,0-16.9,15.3-12.9,30.9s8.9,30.1,8.9,30.1L292,179l1.3,9.9l13.6-30l1.7-15.3L272.2,152.3z"/>
	<path class="st4" d="M262.5,235.2l-11.5-6.6c0,0,49.3-47.7,43-49.9s10.8,28.9,10.6,51.1S305,264,305,264L262.5,235.2z"/>
	<polygon class="st8" points="226,282.2 262.7,241.2 282.3,228.6 293.5,237.3 295.5,253.1 278.8,264.3 262,274.6 232.3,333.8 
		209.4,320.6 194.4,305.4 	"/>
	<path class="st8" d="M276,116.5l2.2-2.1c8.3-7.7,37.1-34.2,40.5-34.7c4-0.5,19.9,5.5,20.8,12.5s3.8,29.8-0.4,36.3
		s-12,16.7-18.5,20.5s-15.8,10.1-21.8,10.9s-19.8,2.6-22.5-2.2s-4.6-4.4-5-15.5S276,116.5,276,116.5z"/>
	<path class="st8" d="M267.9,359.8l-57.4-33.3c0,0-37.2,34.6-21.5,47.5s60.9,34.3,80,33.8s27.8-3.6,27.8-3.6L267.9,359.8z"/>
</g>
<g id="PersonOne">
	<path class="st12" d="M68.4,203.7l29.1-24.9l28,13.5l48.1-2.1c0,0,26.7,19.8,36.2,30.6s19.3,24.7,17.7,36s-10.1,54.7-10.1,54.7
		L189.1,374l-63.4,0.8l-45.2-6.3L68.4,203.7z"/>
	<path class="st8" d="M104.9,150.6c0,0-12.2-16.6-10.4-25.9s9.2-38.5,9.2-38.5S114,64.7,123,63.6s8.2-7.1,18.3-6.4s26.1-1.3,32,6
		s16.6,19,17.4,26s7.8,21.2,3.3,25.8s-16.4,21.8-16.4,21.8l-11.1,25.8l-3.7,7.9L104.9,150.6z"/>
	<path class="st9" d="M108.8,177.3l-10.4,8.4c0,0,12.2,24.6,18.5,25.9s5.5,11.4,20.5,2.4s28.3-22.8,28.3-22.8l-2.7-20.8l-10.7-20.8
		L108.8,177.3z"/>
	<path class="st13" d="M124.5,83.5c0,0-20.2,55-17.9,64.8s-1.8,17.4,3.2,24.8s8.3,17.1,23,14.2s24.9-10.3,29.3-14.9
		s7-24.1,11.3-29.7s2.9-24.6,0-31.3s-10.3-17.8-19.5-18.7s-15.3-1.1-19.4-1.5S124.5,83.5,124.5,83.5z"/>
	<path class="st13" d="M135.2,386.6l23.8-27.2c0,0,16.2-7.1,22.5,2.1c3.7,5.5,6.6,11.6,8.4,18.1l-28.9,34L135.2,386.6z"/>
	<path class="st4" d="M155.6,255c0,0,34,13.8,39.9,20.1s30.3,47.5,31.2,54.5l1.7,12.9c0,0-61.5-31.4-69.7-32.4s-51.2,1.5-51.2,1.5
		l27.8-42.9L155.6,255z"/>
	<polygon class="st13" points="85.9,293.2 119.9,267.6 133.4,274 155.4,284.2 145.7,295.6 118.6,296 107.4,311.6 138.2,307.6 
		124.3,317.5 94.3,327.4 	"/>
</g>
</svg>
