<?xml version="1.0" encoding="utf-8"?>
<!-- Generator: Adobe Illustrator 22.1.0, SVG Export Plug-In . SVG Version: 6.00 Build 0)  -->
<svg version="1.1" id="Layer_1" xmlns="http://www.w3.org/2000/svg" xmlns:xlink="http://www.w3.org/1999/xlink" x="0px" y="0px"
	 viewBox="0 0 900 768" style="enable-background:new 0 0 900 768;" xml:space="preserve">
<style type="text/css">
	.st0{fill:none;}
	.st1{fill:none;stroke:#231F20;stroke-width:0.3;stroke-linecap:square;}
	.st2{fill:none;stroke:#231F20;stroke-width:0.75;stroke-linecap:round;}
	.st3{fill:#D2FAD6;}
	.st4{fill:#9CA7EF;}
	.st5{fill:#DAD8E8;}
	.st6{fill:#9CA7EF;stroke:#D6E6EC;stroke-width:2.4753;stroke-miterlimit:10;}
	.st7{fill:#191839;}
	.st8{opacity:0.1;fill:url(#SVGID_1_);enable-background:new    ;}
	.st9{fill:#D6E6EC;}
	.st10{fill:none;stroke:#F8B0BC;stroke-width:2.4753;stroke-miterlimit:10;}
	.st11{fill:#35296F;}
	.st12{opacity:0.2;fill:#503EA7;enable-background:new    ;}
	.st13{opacity:0.1;fill:#323071;enable-background:new    ;}
	.st14{opacity:2.000000e-02;fill:#323071;enable-background:new    ;}
	.st15{opacity:0.1;}
	.st16{opacity:0.2;fill:#323071;enable-background:new    ;}
	.st17{fill:#323071;}
	.st18{opacity:0.2;fill:#F9F8FE;enable-background:new    ;}
	.st19{fill:#B5DEEF;}
	.st20{opacity:0.4;fill:#9CA7EF;enable-background:new    ;}
	.st21{opacity:0.1;fill:url(#SVGID_2_);enable-background:new    ;}
	.st22{fill:#45ADD6;}
	.st23{fill:#F9F8FE;}
	.st24{fill:#F894A4;}
	.st25{fill:none;stroke:#F9F8FE;stroke-width:2.5007;stroke-miterlimit:10;}
	.st26{fill:none;stroke:#F9F8FE;stroke-width:2.4753;stroke-miterlimit:10;}
	.st27{fill:#23146B;}
	.st28{opacity:0.3;fill:#323071;enable-background:new    ;}
	.st29{opacity:0.3;fill:#D2FAD6;enable-background:new    ;}
	.st30{opacity:0.2;}
	.st31{opacity:0.3;}
	
		.st32{opacity:0.3;fill:none;stroke:#323071;stroke-width:2.4753;stroke-linejoin:bevel;stroke-miterlimit:10;enable-background:new    ;}
	.st33{fill:#503EA7;}
	.st34{fill:#F8B0BC;}
	.st35{fill:none;stroke:#FFFFFF;stroke-width:2.4753;stroke-miterlimit:10;}
	.st36{fill:#6A52DE;}
	.st37{opacity:5.000000e-02;fill:#FFFFFF;enable-background:new    ;}
	.st38{opacity:0.1;fill:#503EA7;enable-background:new    ;}
	.st39{opacity:0.1;fill:#8875E5;enable-background:new    ;}
	.st40{opacity:3.000000e-02;fill:#503EA7;enable-background:new    ;}
	.st41{opacity:0.3;fill:#B5DEEF;enable-background:new    ;}
	.st42{opacity:0.4;fill:#F894A4;enable-background:new    ;}
	.st43{fill:#FFFFFF;}
	.st44{opacity:0.2;fill:#F8B0BC;enable-background:new    ;}
	.st45{opacity:5.000000e-02;fill:#323071;enable-background:new    ;}
</style>
<pattern  x="-104" width="65.2" height="65.2" patternUnits="userSpaceOnUse" id="SVGID_1_2" viewBox="4.7 -70.8 65.2 65.2" style="overflow:visible;">
	<g>
		<rect x="4.7" y="-70.8" class="st0" width="65.2" height="65.2"/>
		<g>
			<rect x="4.7" y="-70.8" class="st0" width="65.2" height="65.2"/>
			<g>
				<line class="st1" x1="72.3" y1="-67.2" x2="66.7" y2="-71.5"/>
				<line class="st1" x1="74.7" y1="-70.3" x2="69.2" y2="-74.6"/>
				<line class="st1" x1="51.9" y1="-68.1" x2="48.2" y2="-73.6"/>
				<line class="st1" x1="54.6" y1="-71" x2="49.5" y2="-75.8"/>
				<line class="st1" x1="57.8" y1="-70.1" x2="60.2" y2="-75.8"/>
				<line class="st1" x1="61" y1="-68.8" x2="63.7" y2="-75.6"/>
				<line class="st1" x1="32.7" y1="-69.3" x2="27" y2="-73.7"/>
				<line class="st1" x1="36.7" y1="-70.3" x2="30" y2="-76.4"/>
				<line class="st1" x1="14" y1="-70.1" x2="13.7" y2="-71.6"/>
				<line class="st1" x1="18.9" y1="-68.3" x2="23.2" y2="-74.1"/>
				<line class="st1" x1="21.8" y1="-65.4" x2="26" y2="-71.3"/>
				<line class="st1" x1="43.5" y1="-68.3" x2="44" y2="-74.8"/>
				<line class="st1" x1="40.7" y1="-67.6" x2="39.2" y2="-74.3"/>
			</g>
			<g>
				<line class="st1" x1="7" y1="-67.2" x2="1.5" y2="-71.5"/>
				<line class="st1" x1="9.5" y1="-70.3" x2="3.9" y2="-74.6"/>
			</g>
			<g>
				<line class="st1" x1="27.2" y1="-28.6" x2="24" y2="-34.8"/>
				<line class="st1" x1="41.1" y1="-49" x2="48.7" y2="-51.1"/>
				<line class="st1" x1="42.2" y1="-46.1" x2="50" y2="-47.3"/>
				<line class="st1" x1="34.7" y1="-66.3" x2="37.5" y2="-61.1"/>
				<line class="st1" x1="31.2" y1="-65.8" x2="34.2" y2="-60.1"/>
				<line class="st1" x1="50.7" y1="-61.1" x2="46" y2="-64.6"/>
				<line class="st1" x1="52" y1="-63.6" x2="48.2" y2="-67.6"/>
				<line class="st1" x1="54.6" y1="-51.9" x2="55.5" y2="-58.8"/>
				<line class="st1" x1="50.7" y1="-52.8" x2="52.2" y2="-59.3"/>
				<line class="st1" x1="18.9" y1="-68.3" x2="23.2" y2="-74.1"/>
				<line class="st1" x1="21.8" y1="-65.4" x2="26" y2="-71.3"/>
				<line class="st1" x1="25.2" y1="-54.2" x2="28.7" y2="-60.3"/>
				<line class="st1" x1="28.9" y1="-52.7" x2="31.6" y2="-59.2"/>
				<line class="st1" x1="37.7" y1="-50.1" x2="32.5" y2="-53.1"/>
				<line class="st1" x1="40.2" y1="-53.3" x2="34.5" y2="-55.3"/>
				<line class="st1" x1="51.9" y1="-68.1" x2="48.2" y2="-73.6"/>
				<line class="st1" x1="54.6" y1="-71" x2="49.5" y2="-75.8"/>
				<line class="st1" x1="57.8" y1="-70.1" x2="60.2" y2="-75.8"/>
				<line class="st1" x1="32.7" y1="-69.3" x2="27" y2="-73.7"/>
				<line class="st1" x1="36.7" y1="-70.3" x2="30" y2="-76.4"/>
				<line class="st1" x1="26.2" y1="-63.8" x2="26.7" y2="-65.1"/>
				<line class="st1" x1="42.5" y1="-65.8" x2="43.5" y2="-66.8"/>
				<line class="st1" x1="43.5" y1="-68.3" x2="44" y2="-74.8"/>
				<line class="st1" x1="40.7" y1="-67.6" x2="39.2" y2="-74.3"/>
				<line class="st1" x1="58" y1="-55.6" x2="59.2" y2="-55.1"/>
				<line class="st1" x1="37.2" y1="-56.1" x2="37.5" y2="-57.6"/>
				<line class="st1" x1="55.2" y1="-67.6" x2="56.5" y2="-67.6"/>
				<line class="st1" x1="38.5" y1="-65.6" x2="37.5" y2="-67.3"/>
				<line class="st1" x1="42.7" y1="-52.8" x2="44" y2="-52.3"/>
				<line class="st1" x1="44.9" y1="-61.1" x2="40.5" y2="-58.3"/>
				<line class="st1" x1="47.7" y1="-58.7" x2="41.3" y2="-55.7"/>
				<line class="st1" x1="40.2" y1="-61.3" x2="41.5" y2="-61.6"/>
				<line class="st1" x1="47" y1="-54.6" x2="48.2" y2="-54.8"/>
				<line class="st1" x1="23.3" y1="-59.8" x2="25" y2="-59.3"/>
				<line class="st1" x1="31.7" y1="-14" x2="31.8" y2="-21"/>
				<line class="st1" x1="35.7" y1="-14" x2="35" y2="-20.6"/>
				<line class="st1" x1="48.4" y1="-33.3" x2="54.8" y2="-36"/>
				<line class="st1" x1="49.9" y1="-29.6" x2="56.3" y2="-32.3"/>
				<line class="st1" x1="31.8" y1="-29.2" x2="36.6" y2="-25.5"/>
				<line class="st1" x1="28.8" y1="-27.2" x2="34.7" y2="-23.4"/>
				<line class="st1" x1="23.2" y1="-47" x2="16.4" y2="-48.7"/>
				<line class="st1" x1="24" y1="-50.6" x2="17.2" y2="-52.4"/>
				<line class="st1" x1="24.4" y1="-26.8" x2="21.2" y2="-33"/>
				<line class="st1" x1="13.4" y1="-15.5" x2="14.8" y2="-22.4"/>
				<line class="st1" x1="17.4" y1="-14.7" x2="18.7" y2="-21.6"/>
				<line class="st1" x1="5.3" y1="-12.6" x2="11.5" y2="-15.8"/>
				<line class="st1" x1="8.2" y1="-22.1" x2="7" y2="-28.1"/>
				<line class="st1" x1="12.3" y1="-22" x2="11" y2="-28.8"/>
				<line class="st1" x1="61.1" y1="-49.8" x2="63.5" y2="-57.3"/>
				<line class="st1" x1="65.2" y1="-49.8" x2="66" y2="-56.3"/>
				<line class="st1" x1="57.7" y1="-42.1" x2="53.7" y2="-47.8"/>
				<line class="st1" x1="60.5" y1="-43.4" x2="58.7" y2="-48.8"/>
				<line class="st1" x1="31.7" y1="-33.4" x2="32.5" y2="-40.3"/>
				<line class="st1" x1="34.6" y1="-32.6" x2="36.3" y2="-39.4"/>
				<line class="st1" x1="57.5" y1="-10.5" x2="51.2" y2="-13.4"/>
				<line class="st1" x1="59" y1="-13.3" x2="52.9" y2="-17.1"/>
				<line class="st1" x1="22.4" y1="-18.1" x2="24" y2="-24.6"/>
				<line class="st1" x1="24.4" y1="-15.8" x2="27.5" y2="-22.1"/>
				<line class="st1" x1="42.2" y1="-19.8" x2="38.7" y2="-26.1"/>
				<line class="st1" x1="44.8" y1="-21" x2="40.9" y2="-26.8"/>
				<line class="st1" x1="54.7" y1="-21.3" x2="48.5" y2="-23.8"/>
				<line class="st1" x1="55.2" y1="-25.8" x2="49" y2="-26.1"/>
				<line class="st1" x1="60.9" y1="-23" x2="59.2" y2="-29.3"/>
				<line class="st1" x1="63.7" y1="-25.5" x2="60.2" y2="-31.6"/>
				<line class="st1" x1="61.9" y1="-58.8" x2="55.5" y2="-61.7"/>
				<line class="st1" x1="63.5" y1="-62.4" x2="57.2" y2="-65.3"/>
				<line class="st1" x1="52" y1="-42.6" x2="47.7" y2="-37.8"/>
				<line class="st1" x1="49.2" y1="-43.3" x2="44.4" y2="-38.9"/>
				<line class="st1" x1="35.2" y1="-44.8" x2="39.2" y2="-39.8"/>
				<line class="st1" x1="37.6" y1="-48" x2="42" y2="-42.1"/>
				<line class="st1" x1="27.1" y1="-37.1" x2="20.2" y2="-36.4"/>
				<line class="st1" x1="26.2" y1="-40.3" x2="19.4" y2="-38.9"/>
				<line class="st1" x1="11.5" y1="-42.3" x2="17.1" y2="-46.5"/>
				<line class="st1" x1="13.9" y1="-39.1" x2="19.5" y2="-43.3"/>
				<line class="st1" x1="18.7" y1="-55.1" x2="18.1" y2="-62.1"/>
				<line class="st1" x1="22.5" y1="-55.6" x2="21.5" y2="-63"/>
				<line class="st1" x1="24.9" y1="-45.9" x2="29.8" y2="-50.9"/>
				<line class="st1" x1="27.7" y1="-43.1" x2="32.7" y2="-48"/>
				<line class="st1" x1="13.2" y1="-51.8" x2="8.6" y2="-56.1"/>
				<line class="st1" x1="15.5" y1="-54.3" x2="10" y2="-58.6"/>
				<line class="st1" x1="60.8" y1="-20.2" x2="67.8" y2="-19.6"/>
				<line class="st1" x1="61" y1="-16.8" x2="67.5" y2="-15.6"/>
				<line class="st1" x1="41" y1="-28.8" x2="41.7" y2="-35.8"/>
				<line class="st1" x1="45" y1="-28.8" x2="44.5" y2="-34.3"/>
				<line class="st1" x1="16.7" y1="-6.7" x2="13.8" y2="-11.7"/>
				<line class="st1" x1="11.2" y1="-37.8" x2="16.9" y2="-33.8"/>
				<line class="st1" x1="8.9" y1="-34.5" x2="14.6" y2="-30.5"/>
				<line class="st1" x1="8.8" y1="-63.8" x2="13.2" y2="-68.1"/>
				<line class="st1" x1="11.3" y1="-62.2" x2="15.2" y2="-65.6"/>
				<line class="st1" x1="65.5" y1="-27.8" x2="69.8" y2="-33.4"/>
				<line class="st1" x1="68.1" y1="-25.6" x2="72.4" y2="-31.1"/>
				<line class="st1" x1="63.2" y1="-34.2" x2="56.4" y2="-36"/>
				<line class="st1" x1="64.2" y1="-38.1" x2="57.4" y2="-39.9"/>
				<line class="st1" x1="20.5" y1="-25.1" x2="13.6" y2="-24.7"/>
				<line class="st1" x1="21" y1="-27.8" x2="14" y2="-28.6"/>
				<line class="st1" x1="65" y1="-61.3" x2="68.9" y2="-67.1"/>
				<line class="st1" x1="68.3" y1="-59.1" x2="72.2" y2="-64.8"/>
				<line class="st1" x1="68.5" y1="-36.3" x2="64.8" y2="-40.7"/>
				<line class="st1" x1="71.8" y1="-36.9" x2="68.1" y2="-42.8"/>
				<line class="st1" x1="72.3" y1="-67.2" x2="66.7" y2="-71.5"/>
				<line class="st1" x1="61" y1="-68.8" x2="63.7" y2="-75.6"/>
				<line class="st1" x1="68.7" y1="-16.1" x2="74.8" y2="-19.4"/>
				<line class="st1" x1="21.3" y1="-15.1" x2="25.7" y2="-12.3"/>
				<line class="st1" x1="18.5" y1="-12.7" x2="24.9" y2="-9.7"/>
				<line class="st1" x1="40.8" y1="-13.7" x2="45.6" y2="-18.5"/>
				<line class="st1" x1="44" y1="-11.3" x2="48.3" y2="-16.8"/>
				<line class="st1" x1="72.4" y1="-45.1" x2="67.2" y2="-47.6"/>
				<line class="st1" x1="75.3" y1="-47.7" x2="69.2" y2="-51.1"/>
				<line class="st1" x1="34.7" y1="-9.3" x2="36" y2="-9.6"/>
				<line class="st1" x1="34" y1="-12.3" x2="33.7" y2="-11.6"/>
				<line class="st1" x1="38.7" y1="-17.8" x2="39.5" y2="-17.3"/>
				<line class="st1" x1="49.7" y1="-15.6" x2="51" y2="-15.6"/>
				<line class="st1" x1="56.5" y1="-20.1" x2="57.2" y2="-20.8"/>
				<line class="st1" x1="65.5" y1="-23.6" x2="66.2" y2="-22.8"/>
				<line class="st1" x1="67" y1="-11.3" x2="66.5" y2="-12.3"/>
				<line class="st1" x1="10.7" y1="-19.1" x2="11.5" y2="-19.6"/>
				<line class="st1" x1="17" y1="-36.3" x2="17" y2="-37.1"/>
				<line class="st1" x1="10.2" y1="-40.3" x2="8.7" y2="-40.3"/>
				<line class="st1" x1="14.5" y1="-60.1" x2="15" y2="-58.8"/>
				<line class="st1" x1="23" y1="-43.3" x2="22.2" y2="-42.3"/>
				<line class="st1" x1="54" y1="-39.8" x2="54.7" y2="-39.1"/>
				<line class="st1" x1="44" y1="-42.6" x2="44.5" y2="-43.6"/>
				<line class="st1" x1="30.2" y1="-24.3" x2="31" y2="-23.6"/>
				<line class="st1" x1="28" y1="-33.3" x2="29.2" y2="-34.1"/>
				<line class="st1" x1="14" y1="-70.1" x2="13.7" y2="-71.6"/>
				<line class="st1" x1="43" y1="-39.3" x2="42.5" y2="-38.1"/>
				<line class="st1" x1="72.3" y1="-1.9" x2="66.7" y2="-6.2"/>
				<line class="st1" x1="74.7" y1="-5.1" x2="69.2" y2="-9.4"/>
				<line class="st1" x1="51.9" y1="-2.9" x2="48.2" y2="-8.3"/>
				<line class="st1" x1="54.6" y1="-5.8" x2="49.5" y2="-10.6"/>
				<line class="st1" x1="57.8" y1="-4.8" x2="60.2" y2="-10.6"/>
				<line class="st1" x1="61" y1="-3.6" x2="63.7" y2="-10.3"/>
				<line class="st1" x1="32.7" y1="-4.1" x2="27" y2="-8.5"/>
				<line class="st1" x1="36.7" y1="-5.1" x2="30" y2="-11.1"/>
				<line class="st1" x1="14" y1="-4.8" x2="13.7" y2="-6.3"/>
				<line class="st1" x1="18.9" y1="-3" x2="23.2" y2="-8.8"/>
				<line class="st1" x1="21.8" y1="-0.2" x2="26" y2="-6"/>
				<line class="st1" x1="63.2" y1="-65.1" x2="63.7" y2="-66.3"/>
				<line class="st1" x1="43.5" y1="-3.1" x2="44" y2="-9.6"/>
				<line class="st1" x1="40.7" y1="-2.3" x2="39.2" y2="-9.1"/>
				<line class="st1" x1="50.5" y1="-19.3" x2="51.2" y2="-20.1"/>
				<line class="st1" x1="37.5" y1="-31.1" x2="38.7" y2="-31.3"/>
				<line class="st1" x1="68.2" y1="-56.6" x2="69" y2="-55.8"/>
				<line class="st1" x1="13" y1="-7.3" x2="9.6" y2="-11.7"/>
				<line class="st1" x1="66.2" y1="-43.8" x2="67.5" y2="-44.1"/>
				<line class="st1" x1="28" y1="-15.6" x2="29" y2="-16.3"/>
				<line class="st1" x1="41" y1="-10.1" x2="41.2" y2="-11.3"/>
				<line class="st1" x1="15.7" y1="-14.1" x2="16.2" y2="-12.6"/>
				<line class="st2" x1="8" y1="-9.3" x2="8" y2="-9.3"/>
				<line class="st2" x1="11" y1="-12.6" x2="11" y2="-12.6"/>
				<line class="st2" x1="17.7" y1="-7.1" x2="17.7" y2="-7.1"/>
				<line class="st2" x1="28" y1="-14.1" x2="28" y2="-14.1"/>
				<line class="st2" x1="21.7" y1="-20.8" x2="21.7" y2="-20.8"/>
				<line class="st2" x1="19.2" y1="-30.6" x2="19.2" y2="-30.6"/>
				<line class="st2" x1="8.5" y1="-29.6" x2="8.5" y2="-29.6"/>
				<line class="st2" x1="25.2" y1="-41.6" x2="25.2" y2="-41.6"/>
				<line class="st2" x1="30.5" y1="-37.3" x2="30.5" y2="-37.3"/>
				<line class="st2" x1="38.2" y1="-28.8" x2="38.2" y2="-28.8"/>
				<line class="st2" x1="32.7" y1="-45.8" x2="32.7" y2="-45.8"/>
				<line class="st2" x1="37.5" y1="-48.6" x2="37.5" y2="-48.6"/>
				<line class="st2" x1="23.5" y1="-52.8" x2="23.5" y2="-52.8"/>
				<line class="st2" x1="46.7" y1="-30.3" x2="46.7" y2="-30.3"/>
				<line class="st2" x1="46.5" y1="-21.8" x2="46.5" y2="-21.8"/>
				<line class="st2" x1="63" y1="-13.1" x2="63" y2="-13.1"/>
				<line class="st2" x1="55" y1="-9.6" x2="55" y2="-9.6"/>
				<line class="st2" x1="65.7" y1="-32.8" x2="65.7" y2="-32.8"/>
				<line class="st2" x1="64.2" y1="-43.8" x2="64.2" y2="-43.8"/>
				<line class="st2" x1="58.7" y1="-50.6" x2="58.7" y2="-50.6"/>
				<line class="st2" x1="62.2" y1="-60.6" x2="62.2" y2="-60.6"/>
				<line class="st2" x1="54.7" y1="-65.3" x2="54.7" y2="-65.3"/>
				<line class="st2" x1="33.2" y1="-66.6" x2="33.2" y2="-66.6"/>
				<line class="st2" x1="44.2" y1="-69.1" x2="44.2" y2="-69.1"/>
				<line class="st2" x1="30" y1="-21.3" x2="30" y2="-21.3"/>
				<line class="st2" x1="15.5" y1="-68.3" x2="15.5" y2="-68.3"/>
				<line class="st2" x1="5.5" y1="-57.1" x2="5.5" y2="-57.1"/>
				<line class="st2" x1="8.5" y1="-49.8" x2="8.5" y2="-49.8"/>
				<line class="st2" x1="13.7" y1="-46.1" x2="13.7" y2="-46.1"/>
				<line class="st2" x1="14.5" y1="-49.8" x2="14.5" y2="-49.8"/>
				<line class="st2" x1="55.5" y1="-28.1" x2="55.5" y2="-28.1"/>
				<line class="st2" x1="52.7" y1="-37.8" x2="52.7" y2="-37.8"/>
				<line class="st2" x1="51" y1="-46.1" x2="51" y2="-46.1"/>
				<line class="st2" x1="32.5" y1="-30.3" x2="32.5" y2="-30.3"/>
				<line class="st2" x1="29" y1="-61.1" x2="29" y2="-61.1"/>
				<line class="st2" x1="29" y1="-69.1" x2="29" y2="-69.1"/>
				<line class="st2" x1="23.6" y1="-65.1" x2="23.6" y2="-65.1"/>
				<line class="st2" x1="31.3" y1="-42.6" x2="31.3" y2="-42.6"/>
				<line class="st2" x1="65.7" y1="-67.6" x2="65.7" y2="-67.6"/>
				<line class="st2" x1="9.2" y1="-61.6" x2="9.2" y2="-61.6"/>
				<line class="st2" x1="38.5" y1="-35.3" x2="38.5" y2="-35.3"/>
				<line class="st2" x1="38" y1="-20.3" x2="38" y2="-20.3"/>
				<line class="st2" x1="39.2" y1="-13.6" x2="39.2" y2="-13.6"/>
				<line class="st2" x1="54.5" y1="-61.3" x2="54.5" y2="-61.3"/>
				<line class="st2" x1="53.7" y1="-50.3" x2="53.7" y2="-50.3"/>
				<line class="st2" x1="67.5" y1="-52.8" x2="67.5" y2="-52.8"/>
				<line class="st2" x1="57" y1="-23.1" x2="57" y2="-23.1"/>
				<line class="st2" x1="57.7" y1="-24.8" x2="57.7" y2="-24.8"/>
				<line class="st2" x1="58" y1="-16.1" x2="58" y2="-16.1"/>
				<line class="st2" x1="44.7" y1="-25.3" x2="44.7" y2="-25.3"/>
				<line class="st2" x1="53.7" y1="-32.8" x2="53.7" y2="-32.8"/>
				<line class="st2" x1="64.2" y1="-29.6" x2="64.2" y2="-29.6"/>
				<line class="st2" x1="65.7" y1="-36.8" x2="65.7" y2="-36.8"/>
				<line class="st2" x1="5.7" y1="-21.8" x2="5.7" y2="-21.8"/>
			</g>
			<g>
				<line class="st1" x1="0.2" y1="-27.8" x2="4.5" y2="-33.4"/>
				<line class="st1" x1="2.9" y1="-25.6" x2="7.2" y2="-31.1"/>
				<line class="st1" x1="3" y1="-59.1" x2="7" y2="-64.8"/>
				<line class="st1" x1="6.6" y1="-36.9" x2="2.9" y2="-42.8"/>
				<line class="st1" x1="7" y1="-67.2" x2="1.5" y2="-71.5"/>
				<line class="st1" x1="3.4" y1="-16.1" x2="9.6" y2="-19.4"/>
				<line class="st1" x1="7.2" y1="-45.1" x2="2" y2="-47.6"/>
				<line class="st1" x1="10" y1="-47.7" x2="3.9" y2="-51.1"/>
				<line class="st1" x1="7" y1="-1.9" x2="1.5" y2="-6.2"/>
				<line class="st1" x1="9.5" y1="-5.1" x2="3.9" y2="-9.4"/>
			</g>
			<g>
				<line class="st1" x1="18.9" y1="-3" x2="23.2" y2="-8.8"/>
				<line class="st1" x1="21.8" y1="-0.2" x2="26" y2="-6"/>
				<line class="st1" x1="51.9" y1="-2.9" x2="48.2" y2="-8.3"/>
				<line class="st1" x1="54.6" y1="-5.8" x2="49.5" y2="-10.6"/>
				<line class="st1" x1="57.8" y1="-4.8" x2="60.2" y2="-10.6"/>
				<line class="st1" x1="32.7" y1="-4.1" x2="27" y2="-8.5"/>
				<line class="st1" x1="36.7" y1="-5.1" x2="30" y2="-11.1"/>
				<line class="st1" x1="43.5" y1="-3.1" x2="44" y2="-9.6"/>
				<line class="st1" x1="40.7" y1="-2.3" x2="39.2" y2="-9.1"/>
				<line class="st1" x1="72.3" y1="-1.9" x2="66.7" y2="-6.2"/>
				<line class="st1" x1="61" y1="-3.6" x2="63.7" y2="-10.3"/>
				<line class="st1" x1="14" y1="-4.8" x2="13.7" y2="-6.3"/>
			</g>
			<g>
				<line class="st1" x1="7" y1="-1.9" x2="1.5" y2="-6.2"/>
			</g>
		</g>
	</g>
</pattern>
<pattern  x="-104" width="65.2" height="65.2" patternUnits="userSpaceOnUse" id="SVGID_2_2" viewBox="4.7 -70.8 65.2 65.2" style="overflow:visible;">
	<g>
		<rect x="4.7" y="-70.8" class="st0" width="65.2" height="65.2"/>
		<g>
			<rect x="4.7" y="-70.8" class="st0" width="65.2" height="65.2"/>
			<g>
				<line class="st1" x1="72.3" y1="-67.2" x2="66.7" y2="-71.5"/>
				<line class="st1" x1="74.7" y1="-70.3" x2="69.2" y2="-74.6"/>
				<line class="st1" x1="51.9" y1="-68.1" x2="48.2" y2="-73.6"/>
				<line class="st1" x1="54.6" y1="-71" x2="49.5" y2="-75.8"/>
				<line class="st1" x1="57.8" y1="-70.1" x2="60.2" y2="-75.8"/>
				<line class="st1" x1="61" y1="-68.8" x2="63.7" y2="-75.6"/>
				<line class="st1" x1="32.7" y1="-69.3" x2="27" y2="-73.7"/>
				<line class="st1" x1="36.7" y1="-70.3" x2="30" y2="-76.4"/>
				<line class="st1" x1="14" y1="-70.1" x2="13.7" y2="-71.6"/>
				<line class="st1" x1="18.9" y1="-68.3" x2="23.2" y2="-74.1"/>
				<line class="st1" x1="21.8" y1="-65.4" x2="26" y2="-71.3"/>
				<line class="st1" x1="43.5" y1="-68.3" x2="44" y2="-74.8"/>
				<line class="st1" x1="40.7" y1="-67.6" x2="39.2" y2="-74.3"/>
			</g>
			<g>
				<line class="st1" x1="7" y1="-67.2" x2="1.5" y2="-71.5"/>
				<line class="st1" x1="9.5" y1="-70.3" x2="3.9" y2="-74.6"/>
			</g>
			<g>
				<line class="st1" x1="27.2" y1="-28.6" x2="24" y2="-34.8"/>
				<line class="st1" x1="41.1" y1="-49" x2="48.7" y2="-51.1"/>
				<line class="st1" x1="42.2" y1="-46.1" x2="50" y2="-47.3"/>
				<line class="st1" x1="34.7" y1="-66.3" x2="37.5" y2="-61.1"/>
				<line class="st1" x1="31.2" y1="-65.8" x2="34.2" y2="-60.1"/>
				<line class="st1" x1="50.7" y1="-61.1" x2="46" y2="-64.6"/>
				<line class="st1" x1="52" y1="-63.6" x2="48.2" y2="-67.6"/>
				<line class="st1" x1="54.6" y1="-51.9" x2="55.5" y2="-58.8"/>
				<line class="st1" x1="50.7" y1="-52.8" x2="52.2" y2="-59.3"/>
				<line class="st1" x1="18.9" y1="-68.3" x2="23.2" y2="-74.1"/>
				<line class="st1" x1="21.8" y1="-65.4" x2="26" y2="-71.3"/>
				<line class="st1" x1="25.2" y1="-54.2" x2="28.7" y2="-60.3"/>
				<line class="st1" x1="28.9" y1="-52.7" x2="31.6" y2="-59.2"/>
				<line class="st1" x1="37.7" y1="-50.1" x2="32.5" y2="-53.1"/>
				<line class="st1" x1="40.2" y1="-53.3" x2="34.5" y2="-55.3"/>
				<line class="st1" x1="51.9" y1="-68.1" x2="48.2" y2="-73.6"/>
				<line class="st1" x1="54.6" y1="-71" x2="49.5" y2="-75.8"/>
				<line class="st1" x1="57.8" y1="-70.1" x2="60.2" y2="-75.8"/>
				<line class="st1" x1="32.7" y1="-69.3" x2="27" y2="-73.7"/>
				<line class="st1" x1="36.7" y1="-70.3" x2="30" y2="-76.4"/>
				<line class="st1" x1="26.2" y1="-63.8" x2="26.7" y2="-65.1"/>
				<line class="st1" x1="42.5" y1="-65.8" x2="43.5" y2="-66.8"/>
				<line class="st1" x1="43.5" y1="-68.3" x2="44" y2="-74.8"/>
				<line class="st1" x1="40.7" y1="-67.6" x2="39.2" y2="-74.3"/>
				<line class="st1" x1="58" y1="-55.6" x2="59.2" y2="-55.1"/>
				<line class="st1" x1="37.2" y1="-56.1" x2="37.5" y2="-57.6"/>
				<line class="st1" x1="55.2" y1="-67.6" x2="56.5" y2="-67.6"/>
				<line class="st1" x1="38.5" y1="-65.6" x2="37.5" y2="-67.3"/>
				<line class="st1" x1="42.7" y1="-52.8" x2="44" y2="-52.3"/>
				<line class="st1" x1="44.9" y1="-61.1" x2="40.5" y2="-58.3"/>
				<line class="st1" x1="47.7" y1="-58.7" x2="41.3" y2="-55.7"/>
				<line class="st1" x1="40.2" y1="-61.3" x2="41.5" y2="-61.6"/>
				<line class="st1" x1="47" y1="-54.6" x2="48.2" y2="-54.8"/>
				<line class="st1" x1="23.3" y1="-59.8" x2="25" y2="-59.3"/>
				<line class="st1" x1="31.7" y1="-14" x2="31.8" y2="-21"/>
				<line class="st1" x1="35.7" y1="-14" x2="35" y2="-20.6"/>
				<line class="st1" x1="48.4" y1="-33.3" x2="54.8" y2="-36"/>
				<line class="st1" x1="49.9" y1="-29.6" x2="56.3" y2="-32.3"/>
				<line class="st1" x1="31.8" y1="-29.2" x2="36.6" y2="-25.5"/>
				<line class="st1" x1="28.8" y1="-27.2" x2="34.7" y2="-23.4"/>
				<line class="st1" x1="23.2" y1="-47" x2="16.4" y2="-48.7"/>
				<line class="st1" x1="24" y1="-50.6" x2="17.2" y2="-52.4"/>
				<line class="st1" x1="24.4" y1="-26.8" x2="21.2" y2="-33"/>
				<line class="st1" x1="13.4" y1="-15.5" x2="14.8" y2="-22.4"/>
				<line class="st1" x1="17.4" y1="-14.7" x2="18.7" y2="-21.6"/>
				<line class="st1" x1="5.3" y1="-12.6" x2="11.5" y2="-15.8"/>
				<line class="st1" x1="8.2" y1="-22.1" x2="7" y2="-28.1"/>
				<line class="st1" x1="12.3" y1="-22" x2="11" y2="-28.8"/>
				<line class="st1" x1="61.1" y1="-49.8" x2="63.5" y2="-57.3"/>
				<line class="st1" x1="65.2" y1="-49.8" x2="66" y2="-56.3"/>
				<line class="st1" x1="57.7" y1="-42.1" x2="53.7" y2="-47.8"/>
				<line class="st1" x1="60.5" y1="-43.4" x2="58.7" y2="-48.8"/>
				<line class="st1" x1="31.7" y1="-33.4" x2="32.5" y2="-40.3"/>
				<line class="st1" x1="34.6" y1="-32.6" x2="36.3" y2="-39.4"/>
				<line class="st1" x1="57.5" y1="-10.5" x2="51.2" y2="-13.4"/>
				<line class="st1" x1="59" y1="-13.3" x2="52.9" y2="-17.1"/>
				<line class="st1" x1="22.4" y1="-18.1" x2="24" y2="-24.6"/>
				<line class="st1" x1="24.4" y1="-15.8" x2="27.5" y2="-22.1"/>
				<line class="st1" x1="42.2" y1="-19.8" x2="38.7" y2="-26.1"/>
				<line class="st1" x1="44.8" y1="-21" x2="40.9" y2="-26.8"/>
				<line class="st1" x1="54.7" y1="-21.3" x2="48.5" y2="-23.8"/>
				<line class="st1" x1="55.2" y1="-25.8" x2="49" y2="-26.1"/>
				<line class="st1" x1="60.9" y1="-23" x2="59.2" y2="-29.3"/>
				<line class="st1" x1="63.7" y1="-25.5" x2="60.2" y2="-31.6"/>
				<line class="st1" x1="61.9" y1="-58.8" x2="55.5" y2="-61.7"/>
				<line class="st1" x1="63.5" y1="-62.4" x2="57.2" y2="-65.3"/>
				<line class="st1" x1="52" y1="-42.6" x2="47.7" y2="-37.8"/>
				<line class="st1" x1="49.2" y1="-43.3" x2="44.4" y2="-38.9"/>
				<line class="st1" x1="35.2" y1="-44.8" x2="39.2" y2="-39.8"/>
				<line class="st1" x1="37.6" y1="-48" x2="42" y2="-42.1"/>
				<line class="st1" x1="27.1" y1="-37.1" x2="20.2" y2="-36.4"/>
				<line class="st1" x1="26.2" y1="-40.3" x2="19.4" y2="-38.9"/>
				<line class="st1" x1="11.5" y1="-42.3" x2="17.1" y2="-46.5"/>
				<line class="st1" x1="13.9" y1="-39.1" x2="19.5" y2="-43.3"/>
				<line class="st1" x1="18.7" y1="-55.1" x2="18.1" y2="-62.1"/>
				<line class="st1" x1="22.5" y1="-55.6" x2="21.5" y2="-63"/>
				<line class="st1" x1="24.9" y1="-45.9" x2="29.8" y2="-50.9"/>
				<line class="st1" x1="27.7" y1="-43.1" x2="32.7" y2="-48"/>
				<line class="st1" x1="13.2" y1="-51.8" x2="8.6" y2="-56.1"/>
				<line class="st1" x1="15.5" y1="-54.3" x2="10" y2="-58.6"/>
				<line class="st1" x1="60.8" y1="-20.2" x2="67.8" y2="-19.6"/>
				<line class="st1" x1="61" y1="-16.8" x2="67.5" y2="-15.6"/>
				<line class="st1" x1="41" y1="-28.8" x2="41.7" y2="-35.8"/>
				<line class="st1" x1="45" y1="-28.8" x2="44.5" y2="-34.3"/>
				<line class="st1" x1="16.7" y1="-6.7" x2="13.8" y2="-11.7"/>
				<line class="st1" x1="11.2" y1="-37.8" x2="16.9" y2="-33.8"/>
				<line class="st1" x1="8.9" y1="-34.5" x2="14.6" y2="-30.5"/>
				<line class="st1" x1="8.8" y1="-63.8" x2="13.2" y2="-68.1"/>
				<line class="st1" x1="11.3" y1="-62.2" x2="15.2" y2="-65.6"/>
				<line class="st1" x1="65.5" y1="-27.8" x2="69.8" y2="-33.4"/>
				<line class="st1" x1="68.1" y1="-25.6" x2="72.4" y2="-31.1"/>
				<line class="st1" x1="63.2" y1="-34.2" x2="56.4" y2="-36"/>
				<line class="st1" x1="64.2" y1="-38.1" x2="57.4" y2="-39.9"/>
				<line class="st1" x1="20.5" y1="-25.1" x2="13.6" y2="-24.7"/>
				<line class="st1" x1="21" y1="-27.8" x2="14" y2="-28.6"/>
				<line class="st1" x1="65" y1="-61.3" x2="68.9" y2="-67.1"/>
				<line class="st1" x1="68.3" y1="-59.1" x2="72.2" y2="-64.8"/>
				<line class="st1" x1="68.5" y1="-36.3" x2="64.8" y2="-40.7"/>
				<line class="st1" x1="71.8" y1="-36.9" x2="68.1" y2="-42.8"/>
				<line class="st1" x1="72.3" y1="-67.2" x2="66.7" y2="-71.5"/>
				<line class="st1" x1="61" y1="-68.8" x2="63.7" y2="-75.6"/>
				<line class="st1" x1="68.7" y1="-16.1" x2="74.8" y2="-19.4"/>
				<line class="st1" x1="21.3" y1="-15.1" x2="25.7" y2="-12.3"/>
				<line class="st1" x1="18.5" y1="-12.7" x2="24.9" y2="-9.7"/>
				<line class="st1" x1="40.8" y1="-13.7" x2="45.6" y2="-18.5"/>
				<line class="st1" x1="44" y1="-11.3" x2="48.3" y2="-16.8"/>
				<line class="st1" x1="72.4" y1="-45.1" x2="67.2" y2="-47.6"/>
				<line class="st1" x1="75.3" y1="-47.7" x2="69.2" y2="-51.1"/>
				<line class="st1" x1="34.7" y1="-9.3" x2="36" y2="-9.6"/>
				<line class="st1" x1="34" y1="-12.3" x2="33.7" y2="-11.6"/>
				<line class="st1" x1="38.7" y1="-17.8" x2="39.5" y2="-17.3"/>
				<line class="st1" x1="49.7" y1="-15.6" x2="51" y2="-15.6"/>
				<line class="st1" x1="56.5" y1="-20.1" x2="57.2" y2="-20.8"/>
				<line class="st1" x1="65.5" y1="-23.6" x2="66.2" y2="-22.8"/>
				<line class="st1" x1="67" y1="-11.3" x2="66.5" y2="-12.3"/>
				<line class="st1" x1="10.7" y1="-19.1" x2="11.5" y2="-19.6"/>
				<line class="st1" x1="17" y1="-36.3" x2="17" y2="-37.1"/>
				<line class="st1" x1="10.2" y1="-40.3" x2="8.7" y2="-40.3"/>
				<line class="st1" x1="14.5" y1="-60.1" x2="15" y2="-58.8"/>
				<line class="st1" x1="23" y1="-43.3" x2="22.2" y2="-42.3"/>
				<line class="st1" x1="54" y1="-39.8" x2="54.7" y2="-39.1"/>
				<line class="st1" x1="44" y1="-42.6" x2="44.5" y2="-43.6"/>
				<line class="st1" x1="30.2" y1="-24.3" x2="31" y2="-23.6"/>
				<line class="st1" x1="28" y1="-33.3" x2="29.2" y2="-34.1"/>
				<line class="st1" x1="14" y1="-70.1" x2="13.7" y2="-71.6"/>
				<line class="st1" x1="43" y1="-39.3" x2="42.5" y2="-38.1"/>
				<line class="st1" x1="72.3" y1="-1.9" x2="66.7" y2="-6.2"/>
				<line class="st1" x1="74.7" y1="-5.1" x2="69.2" y2="-9.4"/>
				<line class="st1" x1="51.9" y1="-2.9" x2="48.2" y2="-8.3"/>
				<line class="st1" x1="54.6" y1="-5.8" x2="49.5" y2="-10.6"/>
				<line class="st1" x1="57.8" y1="-4.8" x2="60.2" y2="-10.6"/>
				<line class="st1" x1="61" y1="-3.6" x2="63.7" y2="-10.3"/>
				<line class="st1" x1="32.7" y1="-4.1" x2="27" y2="-8.5"/>
				<line class="st1" x1="36.7" y1="-5.1" x2="30" y2="-11.1"/>
				<line class="st1" x1="14" y1="-4.8" x2="13.7" y2="-6.3"/>
				<line class="st1" x1="18.9" y1="-3" x2="23.2" y2="-8.8"/>
				<line class="st1" x1="21.8" y1="-0.2" x2="26" y2="-6"/>
				<line class="st1" x1="63.2" y1="-65.1" x2="63.7" y2="-66.3"/>
				<line class="st1" x1="43.5" y1="-3.1" x2="44" y2="-9.6"/>
				<line class="st1" x1="40.7" y1="-2.3" x2="39.2" y2="-9.1"/>
				<line class="st1" x1="50.5" y1="-19.3" x2="51.2" y2="-20.1"/>
				<line class="st1" x1="37.5" y1="-31.1" x2="38.7" y2="-31.3"/>
				<line class="st1" x1="68.2" y1="-56.6" x2="69" y2="-55.8"/>
				<line class="st1" x1="13" y1="-7.3" x2="9.6" y2="-11.7"/>
				<line class="st1" x1="66.2" y1="-43.8" x2="67.5" y2="-44.1"/>
				<line class="st1" x1="28" y1="-15.6" x2="29" y2="-16.3"/>
				<line class="st1" x1="41" y1="-10.1" x2="41.2" y2="-11.3"/>
				<line class="st1" x1="15.7" y1="-14.1" x2="16.2" y2="-12.6"/>
				<line class="st2" x1="8" y1="-9.3" x2="8" y2="-9.3"/>
				<line class="st2" x1="11" y1="-12.6" x2="11" y2="-12.6"/>
				<line class="st2" x1="17.7" y1="-7.1" x2="17.7" y2="-7.1"/>
				<line class="st2" x1="28" y1="-14.1" x2="28" y2="-14.1"/>
				<line class="st2" x1="21.7" y1="-20.8" x2="21.7" y2="-20.8"/>
				<line class="st2" x1="19.2" y1="-30.6" x2="19.2" y2="-30.6"/>
				<line class="st2" x1="8.5" y1="-29.6" x2="8.5" y2="-29.6"/>
				<line class="st2" x1="25.2" y1="-41.6" x2="25.2" y2="-41.6"/>
				<line class="st2" x1="30.5" y1="-37.3" x2="30.5" y2="-37.3"/>
				<line class="st2" x1="38.2" y1="-28.8" x2="38.2" y2="-28.8"/>
				<line class="st2" x1="32.7" y1="-45.8" x2="32.7" y2="-45.8"/>
				<line class="st2" x1="37.5" y1="-48.6" x2="37.5" y2="-48.6"/>
				<line class="st2" x1="23.5" y1="-52.8" x2="23.5" y2="-52.8"/>
				<line class="st2" x1="46.7" y1="-30.3" x2="46.7" y2="-30.3"/>
				<line class="st2" x1="46.5" y1="-21.8" x2="46.5" y2="-21.8"/>
				<line class="st2" x1="63" y1="-13.1" x2="63" y2="-13.1"/>
				<line class="st2" x1="55" y1="-9.6" x2="55" y2="-9.6"/>
				<line class="st2" x1="65.7" y1="-32.8" x2="65.7" y2="-32.8"/>
				<line class="st2" x1="64.2" y1="-43.8" x2="64.2" y2="-43.8"/>
				<line class="st2" x1="58.7" y1="-50.6" x2="58.7" y2="-50.6"/>
				<line class="st2" x1="62.2" y1="-60.6" x2="62.2" y2="-60.6"/>
				<line class="st2" x1="54.7" y1="-65.3" x2="54.7" y2="-65.3"/>
				<line class="st2" x1="33.2" y1="-66.6" x2="33.2" y2="-66.6"/>
				<line class="st2" x1="44.2" y1="-69.1" x2="44.2" y2="-69.1"/>
				<line class="st2" x1="30" y1="-21.3" x2="30" y2="-21.3"/>
				<line class="st2" x1="15.5" y1="-68.3" x2="15.5" y2="-68.3"/>
				<line class="st2" x1="5.5" y1="-57.1" x2="5.5" y2="-57.1"/>
				<line class="st2" x1="8.5" y1="-49.8" x2="8.5" y2="-49.8"/>
				<line class="st2" x1="13.7" y1="-46.1" x2="13.7" y2="-46.1"/>
				<line class="st2" x1="14.5" y1="-49.8" x2="14.5" y2="-49.8"/>
				<line class="st2" x1="55.5" y1="-28.1" x2="55.5" y2="-28.1"/>
				<line class="st2" x1="52.7" y1="-37.8" x2="52.7" y2="-37.8"/>
				<line class="st2" x1="51" y1="-46.1" x2="51" y2="-46.1"/>
				<line class="st2" x1="32.5" y1="-30.3" x2="32.5" y2="-30.3"/>
				<line class="st2" x1="29" y1="-61.1" x2="29" y2="-61.1"/>
				<line class="st2" x1="29" y1="-69.1" x2="29" y2="-69.1"/>
				<line class="st2" x1="23.6" y1="-65.1" x2="23.6" y2="-65.1"/>
				<line class="st2" x1="31.3" y1="-42.6" x2="31.3" y2="-42.6"/>
				<line class="st2" x1="65.7" y1="-67.6" x2="65.7" y2="-67.6"/>
				<line class="st2" x1="9.2" y1="-61.6" x2="9.2" y2="-61.6"/>
				<line class="st2" x1="38.5" y1="-35.3" x2="38.5" y2="-35.3"/>
				<line class="st2" x1="38" y1="-20.3" x2="38" y2="-20.3"/>
				<line class="st2" x1="39.2" y1="-13.6" x2="39.2" y2="-13.6"/>
				<line class="st2" x1="54.5" y1="-61.3" x2="54.5" y2="-61.3"/>
				<line class="st2" x1="53.7" y1="-50.3" x2="53.7" y2="-50.3"/>
				<line class="st2" x1="67.5" y1="-52.8" x2="67.5" y2="-52.8"/>
				<line class="st2" x1="57" y1="-23.1" x2="57" y2="-23.1"/>
				<line class="st2" x1="57.7" y1="-24.8" x2="57.7" y2="-24.8"/>
				<line class="st2" x1="58" y1="-16.1" x2="58" y2="-16.1"/>
				<line class="st2" x1="44.7" y1="-25.3" x2="44.7" y2="-25.3"/>
				<line class="st2" x1="53.7" y1="-32.8" x2="53.7" y2="-32.8"/>
				<line class="st2" x1="64.2" y1="-29.6" x2="64.2" y2="-29.6"/>
				<line class="st2" x1="65.7" y1="-36.8" x2="65.7" y2="-36.8"/>
				<line class="st2" x1="5.7" y1="-21.8" x2="5.7" y2="-21.8"/>
			</g>
			<g>
				<line class="st1" x1="0.2" y1="-27.8" x2="4.5" y2="-33.4"/>
				<line class="st1" x1="2.9" y1="-25.6" x2="7.2" y2="-31.1"/>
				<line class="st1" x1="3" y1="-59.1" x2="7" y2="-64.8"/>
				<line class="st1" x1="6.6" y1="-36.9" x2="2.9" y2="-42.8"/>
				<line class="st1" x1="7" y1="-67.2" x2="1.5" y2="-71.5"/>
				<line class="st1" x1="3.4" y1="-16.1" x2="9.6" y2="-19.4"/>
				<line class="st1" x1="7.2" y1="-45.1" x2="2" y2="-47.6"/>
				<line class="st1" x1="10" y1="-47.7" x2="3.9" y2="-51.1"/>
				<line class="st1" x1="7" y1="-1.9" x2="1.5" y2="-6.2"/>
				<line class="st1" x1="9.5" y1="-5.1" x2="3.9" y2="-9.4"/>
			</g>
			<g>
				<line class="st1" x1="18.9" y1="-3" x2="23.2" y2="-8.8"/>
				<line class="st1" x1="21.8" y1="-0.2" x2="26" y2="-6"/>
				<line class="st1" x1="51.9" y1="-2.9" x2="48.2" y2="-8.3"/>
				<line class="st1" x1="54.6" y1="-5.8" x2="49.5" y2="-10.6"/>
				<line class="st1" x1="57.8" y1="-4.8" x2="60.2" y2="-10.6"/>
				<line class="st1" x1="32.7" y1="-4.1" x2="27" y2="-8.5"/>
				<line class="st1" x1="36.7" y1="-5.1" x2="30" y2="-11.1"/>
				<line class="st1" x1="43.5" y1="-3.1" x2="44" y2="-9.6"/>
				<line class="st1" x1="40.7" y1="-2.3" x2="39.2" y2="-9.1"/>
				<line class="st1" x1="72.3" y1="-1.9" x2="66.7" y2="-6.2"/>
				<line class="st1" x1="61" y1="-3.6" x2="63.7" y2="-10.3"/>
				<line class="st1" x1="14" y1="-4.8" x2="13.7" y2="-6.3"/>
			</g>
			<g>
				<line class="st1" x1="7" y1="-1.9" x2="1.5" y2="-6.2"/>
			</g>
		</g>
	</g>
</pattern>
<path class="st3" d="M493,228.4c-5.1-11.9,2.8-14.8,1.4-22.7c0,0-0.8-3-1.7-4c-1.9-2.3-1.6-20.7-3.4-24.5c0-0.1-0.1-0.2-0.1-0.2
	c-0.6-1.2-4.8-9.2-13.5-9.2c0,0-29.1,9.8-39.8,23.9c-10.8,14.1-28.1,35.6-32.8,29.5c-4.7-6.1-11.5-10.8-13.7-11.3l-11.1,18.2
	c0,0,12.2,23.4,18.8,22.5c0,0,0,0.2-0.1,0.5l2.9-0.9c0,0,8,25.3,22.5,31.9s25.4,8.8,28.9,9.8c3.3,1,29.2,6,32.5-3
	c3.3-9-0.2-17.6,1.8-22.9c2-5.2,3.5-9.6,7.3-14.5C496.3,246.8,499.8,244.1,493,228.4z"/>
<path class="st4" d="M353.8,681.9c0,0,0.3-8.9-2.5-17.5c-2.8-8.6-0.9-16.3-0.9-16.3s7.6-0.6,7.8-14.8c0.2-14.2,4.7-88.2,7.8-122.9
	c3.1-34.7,5.6-60.9,16.6-84.1s-1.3-9.1,5.9-29.7c7.2-20.6-35-89.6-35-89.6s-7.5,3.4-29.7,10.2c-22.9,7.1-69.4,44.1-69.4,44.1
	s-24.1,169.9,2.5,187.7c26.6,17.8,55,3.4,60,23.8c5,20.4-7.5,82.8-7.5,82.8S318.5,652.2,353.8,681.9z"/>
<path class="st5" d="M275.5,720.3c0,0,43.9-10.1,50.7-58.6c6.8-48.5,15.3-75.4-32.9-132.6C245.1,471.9,193.1,714.7,275.5,720.3z"/>
<path class="st3" d="M502.2,589.4c2.2-16.9-5.6-12.5-4.4-31.3c1.3-18.8-1.6-12.8,0-33.1c1.6-20.3-11.6-37.8-18.4-71.3
	c-6.9-33.4-5.3-26.3-13.1-63.8c-2-9.8-2-18.5-1-26c-9.5,10.1-22,20.7-36.5,28.2c-11.7,6-25.7,4.6-39.5-0.1c-0.1,1.7-0.3,3.1-0.8,4.5
	c-7.2,20.6,5,6.6-5.9,29.7c-10.9,23.1-13.4,49.4-16.6,84.1c-2.9,32.3-7,98.8-7.7,119.2c12.2,4.5,25.1,7.7,37.7,8.3
	c32,1.3,78.1-10.1,108.7-16.4C503.1,613,500.3,603.4,502.2,589.4z"/>
<path class="st6" d="M284,586.7c-29-13.6-42.9,49.8-48.6,87.5c5.4,25.6,17.8,44.5,40.1,46c0,0,16.3-3.7,30.5-17.6l0.2-2.1
	C306.2,700.6,324.7,605.8,284,586.7z"/>
<path class="st7" d="M451.1,291.9c-0.6-0.2-1.5-0.5-2.7-0.8l2.4,21.2l21.8,13.1l-6.8-31.4C459,293.7,452.6,292.4,451.1,291.9z"/>
<pattern  id="SVGID_1_" xlink:href="#SVGID_1_2" patternTransform="matrix(1.8743 0 0 -1.8743 14362.9922 -30126.3613)">
</pattern>
<path class="st8" d="M353.8,681.9c0,0,0.3-8.9-2.5-17.5c-2.8-8.6-0.9-16.3-0.9-16.3s7.6-0.6,7.8-14.8c0.2-14.2,4.7-88.2,7.8-122.9
	c3.1-34.7,5.6-60.9,16.6-84.1s-1.3-9.1,5.9-29.7c7.2-20.6-35-89.6-35-89.6s-7.5,3.4-29.7,10.2c-22.9,7.1-69.4,44.1-69.4,44.1
	s-24.1,169.9,2.5,187.7c26.6,17.8,55,3.4,60,23.8c5,20.4-7.5,82.8-7.5,82.8S318.5,652.2,353.8,681.9z"/>
<path class="st9" d="M318.7,319.2c-7.6,30.6-20.1,106.2-12.7,255.3c-0.2,7.2-1.6,14.4-6.5,21.4l-15.5,51.2l11.7,4.7l16.4-50.6
	c0,0,7-8.9,5.7-23.2c0-0.4-0.1-0.8-0.2-1.2c-1.8-15-1.7-144.3,0.3-178.9c1-17.5,6.6-57.1,10.4-82
	C324.8,316.9,321.2,318.1,318.7,319.2z"/>
<circle class="st10" cx="301.5" cy="616.2" r="0.7"/>
<circle class="st10" cx="311.3" cy="560.7" r="0.7"/>
<circle class="st10" cx="310.6" cy="540.8" r="0.7"/>
<polyline class="st10" points="317.9,580 306,574.5 299.5,596 312.1,601.2 "/>
<path class="st11" d="M454.8,307.1c-0.2-2.2-0.5-4.4-0.6-6.5c-0.2-2.8-0.5-5.5-0.6-8c-1.2-0.2-2.1-0.5-2.6-0.6
	c-3.4-1-14.3-3.2-28.9-9.8c-14.5-6.6-22.5-31.9-22.5-31.9l-2.9,0.9l0,0v0.1c-0.9,1.7-4.1,16.9-6.5,35.6c-0.2,1.6-0.4,3.1-0.5,4.7
	c0,0.1,0,0.2,0,0.2c0,0.1,0,0.1,0,0.2c-0.2,1.5-0.3,3.1-0.5,4.6c0,0.2,0,0.3,0,0.5c-0.2,1.3-0.2,2.7-0.3,3.9c0,0.5-0.1,0.9-0.1,1.3
	c-0.1,1.4-0.2,2.7-0.2,3.9l0,0c0,0.2,0,0.5,0,0.6c-0.1,1.4-0.1,2.7-0.1,3.9c0,0.2,0,0.5,0,0.7l0,0c0,1.3,0,2.6,0.1,3.9
	c0,0.2,0,0.3,0,0.5c0,1.3,0.1,2.5,0.2,3.7c0,0.1,0,0.2,0,0.3l0,0c0.1,1.2,0.2,2.4,0.4,3.6c0.2,1.3,0.5,2.5,0.8,3.7
	c0,0.2,0.1,0.2,0.1,0.4c0.2,0.5,0.3,1.1,0.5,1.6c0.2,0.6,0.4,1.2,0.5,1.7c0.1,0.2,0.2,0.4,0.2,0.6c0.4,1.1,0.8,2.1,1.4,3.1
	c0,0,0.1,0.1,0.1,0.2c0.4,0.8,0.9,1.7,1.4,2.5c0.1,0.2,0.2,0.3,0.2,0.5c0.1,0.2,0.2,0.3,0.2,0.5s0.2,0.3,0.3,0.5
	c0.5,0.8,1,1.6,1.5,2.3c0.1,0.2,0.2,0.3,0.3,0.5c0.2,0.2,0.4,0.5,0.5,0.8c0.5,0.7,0.9,1.3,1.4,2c0.1,0.1,0.2,0.2,0.2,0.3
	c0.7,0.9,1.4,1.8,2.1,2.7c0,0.1,0.1,0.1,0.1,0.2c0.1,0.1,0.2,0.2,0.2,0.2c0.7,0.8,1.3,1.5,2,2.3c0.1,0.2,0.2,0.2,0.3,0.4
	c0.7,0.8,1.3,1.4,2,2.2c0.1,0.1,0.2,0.2,0.3,0.3l0.1,0.1c2,2.3,4.1,4.4,6,6.6c0.4,0.4,0.7,0.8,1.1,1.1c0,0,0,0.1,0.1,0.1
	c0.1,0.1,0.2,0.2,0.2,0.2l0.1,0.1c0.6,0.8,1.3,1.5,1.9,2.3c0,0,0.1,0.1,0.1,0.2c0.6,0.8,1.2,1.6,1.7,2.3c0,0,0,0,0,0.1
	c0.1,0.2,0.2,0.2,0.2,0.4c0,0,0,0,0,0.1c0.5,0.8,3.9,5.9,4.2,6.7c0.1,0.2,0.2,0.5,0.2,0.7c4.1,6,14.5,20.1-0.2,11.7
	c-13.7-7.8-8,3.2-6.4,11.1c4.8-0.5,9.3-1.6,13.6-3.8c14.6-7.5,27-18.2,36.5-28.2c0.2-1.7,0.5-3.3,0.9-4.9c1.2-5.2,2.9-9.8,4.7-13.6
	c0,0,3.1-1.7,3.1-5.7c0-4-9-23.5-9-23.5L454.8,307.1z"/>
<path class="st12" d="M474,339.9c0,4-3.1,5.7-3.1,5.7c-1.8,3.8-3.5,8.3-4.7,13.6c-0.4,1.6-0.7,3.2-0.9,4.9c-0.3,0.3-0.6,0.6-0.9,1
	c0.1-4.5,0.5-9.8,1.7-13.5c2.7-7.7-6.2-9.6-3.2-13.8c0.9-1.2,2.4-2.7,4.1-4.2c-4.5,2.1-9.1,4.3-12,5.6c-7.6,3.4,2.3-7.5,5.2-13.1
	c2.8-5.6-15.6,6.2-9.4-2.9c3-4.2,4.6-9.8,5.6-14.6l8.5,7.8l7.6,14.5c-0.4,0.2-0.8,0.4-1.1,0.5C472.9,335.1,474,338.4,474,339.9z"/>
<path class="st13" d="M501.6,596.7c0.1-2.3,0.2-4.7,0.5-7.3c2.2-16.9-5.6-12.5-4.4-31.3c1.3-18.8-1.6-12.8,0-33.1
	c1.4-17.8-8.6-33.4-15.6-59.5c-0.5,10.8-9.8,14.2-6.4,23c4.4,11.2-2.5,9.9,5.3,37.9c7.8,27.9-4.2,29.4,3.9,42
	c8.2,12.6,6.1,19.4,0,21.6c-6.1,2.2,11.8,1.1,6.3,7.8C485.8,604.4,497.2,595.3,501.6,596.7z"/>
<path class="st14" d="M502.8,611.5c-23.1,2.3-71.8,13.8-93.7,14.5c-20.5,0.6-41.5-7-50.2-10.5c-0.3,5.8-0.5,10.7-0.6,14.2
	c12.2,4.5,25.1,7.7,37.7,8.3c32,1.3,78.1-10.1,108.7-16.4C504.1,618.4,503.4,615.1,502.8,611.5z"/>
<path class="st13" d="M386.6,604.8c0,0,0.4-6.2,5.7-1.5c5.3,4.7,12,15.6,22,14.5c10-1.1,15.9-0.2,10.9,1.4S399.3,627.4,386.6,604.8z
	"/>
<g class="st15">
	<path class="st16" d="M370.3,619.6L370.3,619.6c-4.6-3.9-8.3-8-10.9-12.8c-0.2,3.1-0.3,6-0.5,8.6
		C361.6,616.5,365.6,618.1,370.3,619.6z"/>
	<path class="st16" d="M358.7,618.5c0,0.2,0,0.3,0,0.5l0,0C358.7,618.9,358.7,618.7,358.7,618.5z"/>
	<path class="st16" d="M358.8,616.8c0-0.4,0-0.8,0.1-1.1C358.9,616.1,358.8,616.5,358.8,616.8z"/>
</g>
<path class="st13" d="M363.4,543.9c3.2-2.6,6.7-6.1,9.7-11.1c5.1-8.1-0.5-6.2-8.6-3C364,534.4,363.7,539.1,363.4,543.9z"/>
<path class="st13" d="M361.6,569.4c21.8-10.7,35-49.1,18.9-28.6c-6.4,8.3-12.7,13.1-18.1,15.9C362.2,561,361.8,565.3,361.6,569.4z"
	/>
<path class="st13" d="M360.3,590.3c0,0.1,0,0.2,0,0.2c21.6-4.3,42.9-13.9,54.5-24.5c12.3-11.3,18.7-55.3,7.3-20.8
	C412.5,574.3,372.8,587,360.3,590.3z"/>
<path class="st13" d="M430.5,593.6c-13.3-5.3-23.8-0.2-44.2,2.3c-11.7,1.4-20.7,0.8-26.4,0c-0.1,1.1-0.2,2.1-0.2,3.2
	c8.9,1.4,18.3,0.7,23.4-0.8c7.8-2.2,28.4,0,41.7,0C438.2,598.4,443.8,598.9,430.5,593.6z"/>
<ellipse class="st17" cx="352.2" cy="626.8" rx="2.6" ry="4.9"/>
<path class="st18" d="M469.4,610.3c-21.9,3.4-48.8,3-48.8,3c15.4,3.3,58.8-1.7,68.1-5.8c3.6-1.5,8.6-2.5,13-3.2
	c-0.1-0.8-0.1-1.6-0.2-2.3c-8.3-0.4-7.5,0.3-1.7-2.6c0.5-0.2,1-0.5,1.6-0.6c0-0.5,0-1,0.1-1.5C492.2,599.5,487.1,607.5,469.4,610.3z
	"/>
<path class="st4" d="M536.5,324.8c-28.1-5.4-54.7-21.7-67.7-30.6c-1.8,0-3.6-0.2-5.4-0.3c-0.5,5.7-1.2,17.2,1.5,22.4l0,0
	c0.1,0.2,9,19.5,9,23.5c0,4-3.1,5.7-3.1,5.7c-0.5,0.9-0.8,1.9-1.3,2.9c0,0.1-0.1,0.2-0.1,0.3c-0.8,2-1.6,4.2-2.3,6.5
	c0,0.1-0.1,0.2-0.1,0.3c-0.3,1.2-0.7,2.4-0.9,3.7c-0.2,1.1-0.5,2.1-0.6,3.3c-1.4,7.9-1.5,17.2,0.7,27.7c7.8,37.5,6.3,30.3,13.1,63.8
	c6.9,33.4,20,50.9,18.4,71.3c-1.6,20.3,1.3,14.4,0,33.1c-1.3,18.8,6.6,14.4,4.4,31.3c-2.2,16.9,2.2,27.5,3.4,37.2
	c1.2,9.2-5.3,42.6-5.9,45.7c1.5,0.1,3.3,0.2,5.6,0.2c23.4,0.9,34.1-14.4,34.1-14.4s2.2-56.6-4.1-70.9c-6.3-14.4-5-21.6-6.6-40.9
	c-1.6-19.4-8.1-48.1-8.1-48.1c6.6-30,39.4-131.2,39.4-131.2S575.9,332.3,536.5,324.8z"/>
<path class="st19" d="M522.5,643.4c0,0,10.7-2.3,17.3-8V649c0,0-6.9,8-26.7,13.9L522.5,643.4z"/>
<path class="st17" d="M534,706.7c0,0-18.9-37.3-20.9-43.8c0,0,4.2-13.9,9.4-19.5c0,0,16.7,37.5,29.3,53.7c0,0-1.7,12.2-2.8,13.6
	C547.8,712.1,537.8,709.5,534,706.7z"/>
<circle class="st19" cx="526.1" cy="669.5" r="1.5"/>
<circle class="st19" cx="530.4" cy="678.8" r="1.5"/>
<circle class="st19" cx="534.6" cy="688.1" r="1.5"/>
<path class="st17" d="M327.5,695.2c0,0-4.9-1.7-3.9-5.1c1.1-3.5,3.9-13.3,6.8-12s12.6,5.6,12.6,5.6s3.5,2,2.4,5.3
	c-1.1,3.3-4,12.6-7.9,10.9C333.8,698.2,327.5,695.2,327.5,695.2z M336.4,694.5l2.3,1.1c0.5,0.2,0.9,0,1.1-0.5l2.7-6
	c0.2-0.5,0-0.9-0.5-1.1l-5.7-2.3L336.4,694.5z M333.5,684.5l-3.8-1.6c-0.5-0.2-0.9,0-1.1,0.5l-2.4,5.8c-0.2,0.4,0,0.9,0.5,1.1l6.8,3
	V684.5z"/>
<polygon class="st19" points="322.6,645.5 337.7,652.8 336.3,663.6 319.6,654.6 "/>
<path class="st17" d="M329.3,678.9c0,0,0.1-1.9,0.5-3.1c0,0-2-1.1-1.1-3s1.4-4.3,3.2-3.6c1.8,0.6,3.2-13.2,5.7-16.4
	c4.1,2.7,7.8,8.8,11.3,16.7c0,0-3.9,5.5-6,16.8L329.3,678.9z"/>
<path class="st13" d="M285.7,390.2c0,0,2.6-7.6,10.4,39.8s13.9,62.2,13.9,62.2l-59.1-12.6C250.8,479.6,261.6,383.2,285.7,390.2z"/>
<path class="st20" d="M337.4,520.8c0.4-6.9,1-12.3,1.4-15.8c-0.5,5.5-0.9,10.4-1.4,15.4C337.4,520.5,337.4,520.7,337.4,520.8z"/>
<path class="st20" d="M370.6,468.4c-0.5,2.8-0.8,5.6-1.2,8.6C369.8,474.1,370.2,471.2,370.6,468.4z"/>
<path class="st13" d="M388.5,396.6c-7.2,20.6,5,6.6-5.9,29.7c-5.2,11-8.5,22.6-10.8,35.6c-0.4,2.1-0.8,4.3-1.1,6.6
	c-0.5,2.8-0.8,5.6-1.2,8.6l-0.2,1.4c-0.2,1.6-0.4,3.2-0.6,4.8l-0.5,4.5c-0.1,0.7-0.2,1.4-0.2,2l-0.4,3.6c-0.1,0.9-0.2,1.9-0.3,2.9
	l-0.3,2.9c-0.2,1.8-0.3,3.6-0.5,5.5c0,0.2,0,0.3,0,0.4c-0.2,1.7-0.3,3.6-0.5,5.3c-3.1,34.7-7.6,108.7-7.8,122.9
	c-0.2,14.2-7.8,14.8-7.8,14.8s-14.8,1.6-12.7-17.8c2-19.4,1.3-62.5-0.2-86.3c-0.5-8.2,0.8-33.4,1.4-38.9c0-0.2,0-0.3,0.1-0.5
	c1.3-14,3.2-31.8,8-61.9c6.9-42.5,9.7-94.9,9.7-94.9l29.3,26C389,383.2,390.3,391.4,388.5,396.6z"/>
<path class="st13" d="M349.6,646.3c-1.4,0-4.9-0.3-7.4-3c-2.3-2.7-3.3-6.9-2.7-12.7c2.1-19.8,1.2-63.8-0.2-86.7
	c-0.5-7.9,0.8-32.7,1.4-38.7l0.1-0.5c1.4-14.8,3.3-32.4,8-61.9c5.8-35.4,8.7-78.3,9.5-91.2l26,23.1c3,9.7,3.9,17,2.4,21.3
	c-3.3,9.5-2.7,12.3-1.7,14.8c0.6,1.5,1.3,3.1-4.2,14.6c-4.9,10.4-8.4,21.8-11,36c-0.4,2.2-0.8,4.4-1.1,6.7c-0.5,2.8-0.8,5.7-1.2,8.6
	l-0.2,1.4c-0.2,1.6-0.4,3.2-0.6,4.8l-0.8,6.7l-0.6,6.2l-0.3,3.1l-1.1,11.3c-3,33.5-7.6,108.3-7.8,123c-0.2,12.1-5.8,12.9-6.1,13
	C350.1,646.2,350,646.3,349.6,646.3z"/>
<pattern  id="SVGID_2_" xlink:href="#SVGID_2_2" patternTransform="matrix(1.8743 0 0 -1.8743 14362.9922 -30126.3613)">
</pattern>
<path class="st21" d="M536.5,324.8c-28.1-5.4-54.7-21.7-67.7-30.6c-1.8,0-3.6-0.2-5.4-0.3c-0.5,5.7-1.2,17.2,1.5,22.4l0,0
	c0.1,0.2,9,19.5,9,23.5c0,4-3.1,5.7-3.1,5.7c-0.5,0.9-0.8,1.9-1.3,2.9c0,0.1-0.1,0.2-0.1,0.3c-0.8,2-1.6,4.2-2.3,6.5
	c0,0.1-0.1,0.2-0.1,0.3c-0.3,1.2-0.7,2.4-0.9,3.7c-0.2,1.1-0.5,2.1-0.6,3.3c-1.4,7.9-1.5,17.2,0.7,27.7c7.8,37.5,6.3,30.3,13.1,63.8
	c6.9,33.4,20,50.9,18.4,71.3c-1.6,20.3,1.3,14.4,0,33.1c-1.3,18.8,6.6,14.4,4.4,31.3c-2.2,16.9,2.2,27.5,3.4,37.2
	c1.2,9.2-5.3,42.6-5.9,45.7c1.5,0.1,3.3,0.2,5.6,0.2c23.4,0.9,34.1-14.4,34.1-14.4s2.2-56.6-4.1-70.9c-6.3-14.4-5-21.6-6.6-40.9
	c-1.6-19.4-8.1-48.1-8.1-48.1c6.6-30,39.4-131.2,39.4-131.2S575.9,332.3,536.5,324.8z"/>
<path class="st22" d="M556.7,334.4c-6.1-8.2-33.2-15.5-46.3-18.5s-23.4-16.1-28.9-24.3c-3.3,2.3-9.4,2.8-15.2,2.5
	c3.5,8.9,9.5,33.8,16.3,28.5c6.7-5.3,11.6,10.8,19,12.5c6.4,1.5,5.9-9.6,19.5,2.7c13.6,12.3,7.8-6.6,19.9-0.6
	c12.2,6.1,8.3-1.4,11.1-2.3C556.1,333.3,558.3,336.7,556.7,334.4z"/>
<path class="st22" d="M396.8,251.2c0.1-0.2,0.1-0.5,0.1-0.5c-6.6,0.9-18.8-22.5-18.8-22.5l11.1-18.2c2.2,0.5,9,5.1,13.7,11.3
	c4.7,6.1,22-15.4,32.8-29.5c10.8-14.1,39.8-23.9,39.8-23.9c8.6,0,12.9,8,13.5,9.2c0,0,1.2-13.4-8.8-20.1
	c-10-6.7-22.9-14.8-29.8-16.3c-6.9-1.4-2-2.2-11.3-3.4c-9.2-1.3-9.2-5.1-19.8-5c-10.6,0.2-23.1,6.3-32.2,15.9
	c-9.1,9.7-22.8,29.7-33.5,65.1c-10.8,35.4-7.1,65.3-22.1,87.2c-15,21.8-33.8,22.6-38,32c-1.1,2.3,24.7-14.7,11.6,5
	c-6.3,9.5,15.1,1.4,8.3,16.4c-7.6,16.5,13.1-0.1,23.9-12.3c10.5-12-1.4,23.5,12.2,16.5c13.6-7,5.7,40.3,12.4,25.6
	c14.7-32,19.8,27.1,22.3,19.2c7-22.3,28,7,31.3-1.8c2.3-6.2-10.8-25.8,6.4-16.1c17.1,9.8,0-11.1-1.3-13.9
	c-6.8-14.8-27.9-26-31.1-47.9C386.4,303.1,393.4,263.1,396.8,251.2z"/>
<path class="st19" d="M602.2,337.9c0,0,1.5-33.9-9.6-39.5c-11.1-5.5-14.5,12.1-33.5,0c0,0,13.9-0.7,24.1-18.3
	c3-5.2,6.5-11.5,10.4-17.7c-0.1,0-0.2,0-0.2,0.1c-38.9,9.8-45,18.2-51.6,22.5c-4.6,3-19.5,22.3-27.1,32c18.5,6.2,26.6,7.4,29.7,20.3
	c3,12.9-3,39.6-5.9,79.8s2,37.1-1.8,53.2c-3.4,14.7-3.9,39.9-3.9,44.4v0.1c0,0.2,0,0.4,0,0.6c0,1.5-0.1,3-0.2,4.6
	c-0.2,2.2-0.6,4.5-1.2,6.8c-5.9,23.8-0.3,17.5-0.6,29.1c-0.3,11.6,4.4,23.1,6.3,29.7c1.9,6.6,1.6,12.2-2.5,30.3
	c-3,13.3,1.4,30.1,4,38.2c1.4-4.7,2.7-8.7,3.8-11.1c4.2-9.8,1.9-47.3,5.6-59.1c3.8-11.7,9.8-33.8,11.3-44.4c1.4-10.7,9.4-28.2,7-42
	s-5.6-69.1-5.6-69.1l11.3-26.4c0.9-12.2,4.7-14.5,9.8-20.6C586.7,375.4,602.2,337.9,602.2,337.9z"/>
<path class="st19" d="M861.8,468.2c0,0-12.6-50.6-17.3-64.7c-4.7-14.1-17.8-74.5-21.1-87.6s-9.8-18.2-21.1-29.6
	c-11.3-11.4-25.7-15.4-25.7-15.4c-33.9-17.5-70.6-18.4-70.6-18.4c-2,6.6-3.7,11-7.3,17.5c-3.3,5.6-28.9,57.2-32.3,59.7
	c-3.5,2.6-9.8,9.6-9.2,26c0.7,16.4,1.1,21.1-1.9,30.2c-3,9.2,0.7,12.9-3.8,44.1c-4.5,31.2,0.6,57.5,0.6,57.5s-0.6,32.2-1.1,62.2
	c-0.5,30,9.2,91.7,10.3,99.8c1.1,8.1,12.4,18.1,12.4,18.1c8.3,0.3,8.6-7.8,18.5-6.4c9.8,1.4,35.6-5.1,41.7-7
	c6.1-1.9,2.3,0.9,13.1,2.3c10.8,1.4,24.5-3.4,24.5-3.4s4.5-2.7,10.1-5.9s1.4-13.1-1.4-29.1c-2.8-15.9-8.4-8.4-7-25.7
	c1.4-17.3-6.6-37.9-6.6-37.9c17.8-0.9,37.5-15.9,53.4-20.6s35.1-21.6,41.7-33.8C868.3,487.9,861.8,468.2,861.8,468.2z"/>
<path class="st13" d="M741.6,402.6c0,2.5-2,4.5-4.5,4.5s-4.5-2-4.5-4.5c0-2.5,5.1-6,4.5-12.9S741.6,400.1,741.6,402.6z"/>
<g class="st15">
	<path class="st17" d="M759.3,374.5v1.9l0,0c6.1,0,12.2,0.9,18.3,2.7c0.9,0.3,0.9,2.3,0.8,5.2c-0.2,2.3-0.2,4.5,0.4,6.6
		c2.9,9.5,0.5,13.6-1.2,14.4c-1.6,0.3-10.9,2.1-22.3,6.4c-6.4,2.4-10.1,3.4-13.3,3.4c-3.2,0-6.2-0.9-10.8-3.3
		c-4.2-2.2-4.8-5.4-5.4-9c-0.5-3-1.1-6.4-4.2-8.7c-1.5-1.1-2.9-1.5-4.3-1.5s-2.7,0.5-3.9,1.1c-1.4,0.6-2.7,1.2-4.7,1.2
		c-1.4,0-3.1-0.3-4.9-1c-7.4-2.6-6.7-12.4-6.2-16.3c3.9,0.2,14.4,0.7,22.9,1.1c2,0.2,4.2,0.2,6.4,0.2c9.2,0,18.2-0.9,21.1-1.4
		l0.4-0.1c2-0.4,5.8-1.1,11.2-1.1L759.3,374.5 M759.3,374.5c-5.9,0-10.1,0.8-11.9,1.2c-2.8,0.5-11.7,1.4-20.7,1.4
		c-2.1,0-4.2-0.1-6.3-0.2c-10.8-0.6-24.5-1.3-24.5-1.3s-3.8,16.3,7.2,20c2.3,0.8,4,1.1,5.5,1.1c4.2,0,6.1-2.3,8.6-2.3
		c0.9,0,2,0.3,3.2,1.2c5.8,4.1,0.7,13.1,9.8,17.8c4.5,2.3,8,3.5,11.7,3.5c3.7,0,7.9-1.1,14-3.5c12.2-4.7,22.2-6.4,22.2-6.4
		s6.9-2.3,2.5-16.7c-1.4-4.5,1.6-11.9-2.3-13.1C770.8,375.1,764.5,374.5,759.3,374.5L759.3,374.5z"/>
</g>
<g class="st15">
	<path class="st17" d="M696.1,370.4c0.4,0,0.6,0.1,0.6,0.1c3.6,1.5,12.8,1.7,23.6,1.7c3.5,0,6.5,0.1,7.9,0.2c0.3,0,0.7,0.1,1.2,0.1
		c2.2,0,6.3-0.3,10.9-0.7c6.4-0.5,14.3-1.1,20.2-1.1c4.2,0,6.1,0.3,7,0.6c3.1,1.1,8.2,2.5,12.3,3.7l-0.2,0.9
		c-0.2-0.2-0.5-0.2-0.9-0.4c-6.4-1.9-12.9-2.9-19.4-2.9c-5.7,0-9.8,0.8-11.9,1.1l-0.4,0.1c-2.7,0.5-11.4,1.4-20.4,1.4
		c-2.2,0-4.3-0.1-6.2-0.2c-8.4-0.5-18.6-1-22.7-1.1l-1.9-0.1l-1.6-0.1l-0.1,0.2c-3.4,0.3-8.1,1.4-19.4,4.3c-3.3,0.8-6.5,1.3-9.5,1.3
		c-2.3,0-4.5-0.2-6.6-0.8c0.2-0.8,0.2-1.7,0.3-2.7c2.2,0.4,4.5,0.6,6.9,0.6c8.6,0,16.5-2.5,22.3-4.4
		C691.6,371.4,694.5,370.4,696.1,370.4L696.1,370.4 M696.1,368.6c-5,0-16.7,6.4-30.1,6.4c-2.8,0-5.7-0.3-8.6-1
		c-0.1,2.2-0.3,4.2-0.8,6.3c2.2,0.7,5.1,1.3,8.7,1.3c2.9,0,6.2-0.4,10.1-1.4c13-3.4,17-4.2,20.4-4.3v-0.1c0,0,0.7,0,1.9,0.1l0,0l0,0
		c4.1,0.2,14.2,0.7,22.6,1.1c2,0.2,4.2,0.2,6.3,0.2c9,0,17.9-0.9,20.7-1.4c1.8-0.3,6-1.2,11.9-1.2c5.1,0,11.5,0.6,18.9,2.8
		c1.6,0.5,2,2,2.1,3.9l1.7-7.5c-4.7-1.4-10.5-3-13.9-4.2c-1.5-0.5-4.2-0.7-7.6-0.7c-10.1,0-26,1.8-31.1,1.8c-0.4,0-0.8,0-1,0
		c-4.7-0.5-25.9,0.4-30.9-1.7C697.1,368.6,696.6,368.6,696.1,368.6L696.1,368.6z"/>
</g>
<path class="st23" d="M682.9,225.3c0,0,28.9-4.5,32.9,5.1c4.1,9.7,14.7,18.1,15.9,21.1s-9.1,24.5-3.8,45.4c0,0-13.3,2.2-19,1.3
	c-5.7-0.9-10.2-10.6-20.6-9c0,0,11.8-21.6,13.3-25c1.6-3.4,5.8-17.6,5.8-17.6S684.8,241.3,682.9,225.3z"/>
<path class="st24" d="M747,656.5c-10.8-1.4-7-4.2-13.1-2.3c-6.1,1.9-31.9,8.4-41.7,7c-9.8-1.4-10.2,6.7-18.5,6.4
	c0,0-11.4-10-12.4-18.1c-1.1-8.1-10.8-69.8-10.3-99.8c0.5-30,1.1-62.2,1.1-62.2s-5.1-26.4-0.6-57.5s0.7-34.9,3.8-44.1
	c3-9.2,2.6-13.9,1.9-30.2c-0.7-16.4,5.6-23.4,9.2-26c3.5-2.6,29.1-54.1,32.3-59.7c0,0-11.3,13.3-18,16.1
	c-6.8,2.8-34.7,15.7-47.8,5.8c-11.4-8.6-15.6-20.9-16.4-34.4c-3.3,0.6-6.6,1.2-9.6,1.9c-6.1,9.3-10.8,20-8.6,28.3
	c5.1,18.8,7,39.4,4.7,48.8s-15.9,38.9-21.1,45s-8.9,8.4-9.8,20.6l-11.3,26.4c0,0,3.3,55.3,5.6,69.1s-5.6,31.3-7,42
	s-7.5,32.7-11.3,44.4c-3.8,11.7-1.4,49.2-5.6,59.1c-1.1,2.4-2.4,6.4-3.8,11.1c0.9,2.9,1.6,4.7,1.6,4.7S539.3,672,544,677
	c4.7,5,40.3,13.4,51.3,17.2c10.9,3.8,46.9,9.1,66.6,4.7c19.7-4.4,22.2,0.6,55.6,3.4c33.4,2.8,52.8-6.9,52.8-6.9s5-11.9,3.4-17.2
	s-1.9-25-1.9-25S757.7,658,747,656.5z"/>
<path class="st25" d="M738.7,542.5c0,0-20.5-19.4-25.1-42.3c-4.5-22.9-8.3-35.4-16.2-38.5c-8-3.1-24.8,39.2-12.9,50.4
	C696.5,523.3,705.2,544.2,738.7,542.5z"/>
<path class="st19" d="M744.1,545.5c0,0,11.3-16.4,23.9-24.4c0,0-31.4-71.1-52.9-70c-21.5,1.1-35.1,35.7-35.1,35.7
	s-29.1,25.8-18,25.8c11,0,19.2,2.2,48,31.4C728.1,562.5,743.6,547.6,744.1,545.5z"/>
<path class="st23" d="M751,536.7c4.4-5.1,10.5-11.5,17-15.6c0,0-31.4-71.1-52.9-70c-3.3,0.2-6.5,1.1-9.5,2.7
	c-2.3,1.2-9.6,7-11.7,8.8c3,0.8,10.9-1,13.3,3.9C725.2,503.2,745.6,529.9,751,536.7z"/>
<path class="st13" d="M752.1,517.9c0,0-5.8-6.4-8-12.9c-2.1-6.6,5.4,8.6,12,12.9S752.1,525.6,752.1,517.9z"/>
<path class="st26" d="M590.2,442.5c0,0,42-2.3,43.4-2.3c1.4-0.1,2,0.2,2.5,1c0.2,0.4,4.9,9,8.3,15.1l3-0.2
	c-3.3-6.1-10.9-20-11.2-20.7c-0.5-0.8-1-1.1-2.5-1s-43.4,2.3-43.4,2.3c-0.8,0.1-1.2,0.2-1.2,1.7l-0.2,5.1l0,0
	C588.8,443,589.5,442.5,590.2,442.5z"/>
<path class="st27" d="M592.5,451.4c6.9-1.1,16.1-1.5,23.5,0.8c6.4,2,18.2,4.3,28.3,4.1c-3-5.4-8-14.6-8.3-15.1c-0.5-0.8-1-1.1-2.5-1
	c-1.5,0.1-43.4,2.3-43.4,2.3c-0.8,0.1-1.7,0.7-1.2,1.7L592.5,451.4z"/>
<g>
	<path class="st5" d="M643.5,454.9c0.3,0.5,0.5,1,0.8,1.4c1,0,2-0.1,3-0.2c-0.4-0.7-0.8-1.4-1.2-2.2
		C645.2,454.6,644.4,454.9,643.5,454.9z"/>
	<path class="st5" d="M590.2,442.5c0,0,42-2.3,43.4-2.3c1.4-0.1,2,0.2,2.5,1c0.1,0.1,0.2,0.5,0.5,1c0.3-1,0.9-1.8,1.7-2.4l0,0
		c-1.3-2.3-2.2-4-2.3-4.2c-0.5-0.8-1-1.1-2.5-1s-43.4,2.3-43.4,2.3c-0.8,0.1-1.2,0.2-1.2,1.7l-0.2,5.1l0,0
		C588.8,443,589.5,442.5,590.2,442.5z"/>
</g>
<path class="st24" d="M541.2,483.8"/>
<path class="st24" d="M522,579.2"/>
<path class="st28" d="M542.1,480.1c-1.7,3.6-4.7,6.2-7,22.5c-0.8,5.8-1.7,9.8-2.5,12.8c0,1.5-0.1,3-0.2,4.6
	c-0.2,2.2-0.6,4.5-1.2,6.8c-5.9,23.8-0.3,17.5-0.6,29.1c-0.3,11.6,4.4,23.1,6.3,29.7s1.6,12.2-2.5,30.3c-3,13.3,1.4,30.1,4,38.2
	c1.4-4.7,2.7-8.7,3.8-11.1c4.2-9.8,1.9-47.3,5.6-59.1c3.8-11.7,9.8-33.8,11.3-44.4c1.4-10.7,9.4-28.2,7-42s-5.6-69.1-5.6-69.1
	s-9.5,16.7-11.8,29C546.3,469.8,544,476.5,542.1,480.1z"/>
<path class="st0" d="M532.7,514.8L532.7,514.8c0,0.4,0,0.6,0,0.6C532.7,515.2,532.7,515,532.7,514.8z"/>
<path class="st26" d="M532.7,515.5L532.7,515.5L532.7,515.5z"/>
<path class="st29" d="M682.5,193.1c0,0,0.6,19.5-1.9,30.9c-2.5,11.3-20.8,39.9-24.5,43.6c-3.7,3.8-13,5.5-16.6,5.9
	c-3.4,0.5-13.4,0.8-17.6-7.1c-5.7-10.9-9.5-16.7-12.3-18.5c-2.9-1.8-20-16.8-20.6-23c-0.6-6.3,0.9-12.7-1.1-17
	c-2.1-4.3-7.7-25.1-8.9-31.2c-1.1-6.1-6.8-17.3-6.8-20.9s40.9-27,40.9-27l63.9-5.6l2,3.8c0,0,2,17.3,1.7,25.9l0.9,0.2
	c0,0,1.4-4.5,5.3-4.2c3.9,0.2,9.2,4.5,9.2,12.2s-1.7,13.9-3.8,19.3C690.3,185.7,686.2,192,682.5,193.1z"/>
<path class="st0" d="M656.8,200.9c-3.4,0.5-22.3,1.4-26.7,4.2c0,0-5.2,3.3-2.3,7c2.8,3.8,5.6,7.6,11.4,8.6
	c6.9,1.1,22.9,0.3,25.4-7.2C666.9,206.1,660.3,200.4,656.8,200.9z"/>
<path class="st26" d="M637.2,233.5"/>
<path class="st13" d="M630.4,195.6c0,0,3.5-2.3,7-3c3.6-0.7,17-6.9,18.9-6.7c2,0.2-1.7,4-5,5.2c-3.3,1.1-11.2,4.6-13.1,5.1
	C636.2,196.7,621.4,201.1,630.4,195.6z"/>
<path class="st13" d="M609.5,198.9c-3-2.2-4.7-2.7-7.4-2.7s-9.5-0.3-12.3-1.4c-2.8-1.1-4.6,0.3-0.2,3c4.5,2.7,8.3,0.6,11.5,1.6
	C604.2,200.4,613.8,202,609.5,198.9z"/>
<path class="st23" d="M612.6,251c-1.1-1.4-2.1-2.4-3-3c-0.6-0.4-2-1.4-3.7-3c-9,10.4-16.8,24.7-22.8,35.1
	c-10.1,17.6-24.1,18.3-24.1,18.3c19.1,12.1,22.5-5.5,33.5,0c11.2,5.5,9.7,39.4,9.7,39.4l0.8-3.8c1.6-10.1-0.4-29.1-5.1-46.3
	C594.9,276.8,604.3,261.6,612.6,251z"/>
<path class="st28" d="M605.9,281.7c4.7-15.6,6.7-23.4,6.7-23.4c-2,0.4-4.1,0.8-6.1,1.2c-6.1,9.3-10.8,20-8.6,28.3
	c2.7,9.7,4.5,19.8,5.2,28.7C602.8,307.7,602.7,292.4,605.9,281.7z"/>
<g class="st30">
	<path class="st28" d="M638.3,307.3c0,0,27,3.6,42.2-6.1c0,0-16.4,16.8-25.6,18.7C645.7,321.8,642.6,310.7,638.3,307.3z"/>
	<path class="st28" d="M657.2,621.4c-3.3-1.7-7.1-4.1-10-7c0,0-57.2-49.3-54.4-151.7c0,0-9.4,32.2-5.9,50.6
		c3.4,18.4,5.8,15.7,2,35.7c-3.8,20,5.2-4.2,9.3,7.3c4.1,11.4-3.8,18.6,3.4,18.5s7.2,31.2,12,22.7c4.8-8.5,12,32.7,16.1,24.6
		c4.1-8.1,22.5,24.9,23.8,16.1c0.5-3.6,2.8-5.3,5.3-6.1C658.2,628.7,657.7,625.1,657.2,621.4z"/>
	<path class="st28" d="M572.5,663.6c0,0-23.7-27.6-21.8-89l0,0c-1,3.5-2,6.7-2.9,9.4c-3.5,10.9-1.7,44.4-4.8,56.7
		c1.4,6.5,3.5,12.6,6.1,17.9c21.1,41.6,5.8,0.5,9.8-2.3C562.8,653.4,588.8,689.6,572.5,663.6z"/>
	<path class="st28" d="M630,665.9c-19.9-10.6,14.5-6.8,36-6.6c-2.1-2.8-3.9-6-4.6-8.9c-11-3.7-25.6-8.9-40.8-16.7
		c-38.1-19.4-44.4-47.5-52.5-66.6c-5.1-12-5.8-30.4-5.5-42.3c-0.7,2.5-1.4,4.8-2,7.1c-0.5,4.5-1.1,10-1.8,16.9
		c-2.9,27.6,22.6,93.1,44.4,121.2c23.5,30.4,18,18.1,13.3,7.2C611.9,666.4,653.4,678.4,630,665.9z"/>
	<path class="st28" d="M749.8,656.7c-9.5,7.6-31,9.2-31,9.2c17.5,4.8,40.6,6.3,47.2-6.7c0.9-1.8,1.4-3.4,1.6-4.8
		C763.2,655.5,756.2,657,749.8,656.7z"/>
	<path class="st28" d="M651.5,514.9c-7.3-3.7-19.5-10-28-14.8c0,0,17.1,15.7,27.6,36.3C651.3,528.9,651.3,521.5,651.5,514.9z"/>
	<path class="st28" d="M651.6,427.9c3.8-27.6,0.9-32.6,3-40.5c-2.8-17.4-6.5-37.3-10.4-47.6c-7.7-20.9-13.9-31.3-18.1-37
		c0,0-14.7-10.1-16.1-17.4l0.5,6.1c0,0,2.1,67.2-4.9,106.1c-7,38.9,0,14.2,0,14.2s15.1-51.5,12.3-94.3s27.9,53.5,27.3,67.8
		C644.8,398.1,650.7,423.8,651.6,427.9z"/>
</g>
<g class="st31">
	<circle class="st28" cx="576.6" cy="365.7" r="4.8"/>
	<ellipse class="st28" cx="547.1" cy="434.5" rx="2.8" ry="4.6"/>
	<g class="st31">
		<path class="st17" d="M545.9,362.5c7.2,1.4,13.7,4.5,19.4,9.4c4.5,3.9,9.2,7.1,13.7,9.6c-0.2,0.2-0.3,0.4-0.5,0.5
			c-0.8,0.8-1.7,1.8-2.6,2.9c-4.2-2.2-8.3-5.1-12.3-8.6c-5.1-4.5-11.3-7.6-18.2-9.3L545.9,362.5 M544.3,360.4l-0.9,8.2
			c5.9,1.2,12.8,3.8,18.9,9.2c5.3,4.6,10.1,7.6,14.2,9.6c1.8-2.7,4.4-4.7,5.5-6.4c-4.5-2.3-9.7-5.5-15.4-10.4
			C559,364.1,550.9,361.4,544.3,360.4L544.3,360.4z"/>
	</g>
	<path class="st28" d="M576.6,321c13.9-28,4.5,31.5,12.2,19.3s8.6,9.2,8.6,9.2c2.6-6.1,4.9-11.5,4.9-11.5s1.5-33.9-9.6-39.5
		c-7.8-3.9-11.8,3.6-20.1,4.3l0,0c0,0-12.3,35.7-20.1,46.6C544.8,360.4,562.8,349,576.6,321z"/>
	<path class="st28" d="M547.1,289.8c0,0,6.1-2.9,3.6,15c-2.5,17.9-5.8,35.4-5.8,35.4s2.2-24.2,2.7-38.9
		C541.2,303.1,538.4,294.4,547.1,289.8z"/>
	<path class="st28" d="M610.2,248.4c-0.2,1.9-0.5,4.2-2.7,4.2c-3.9,0.1-5.8,3.1-5.8,5.4c0.1,2.3-2.7,2.5-2.7,2.5
		c-1.8-0.2-0.7,5.8-1.9,4.9c-1.3-0.9,0.8,4.2-1.2,4.3c-2.1,0.2,1.7,6.4-0.4,6.2c-2-0.2-1,6.4-2.5,5.7c-1.5-0.7-0.5,5.3-2,4.8
		c-1.5-0.5,1.5,5.8-0.5,4.5c-2-1.3-3-0.2,2,4.2c1.9,1.7,3,4.2,3.6,6.7c7.1,10.2,6,36,6,36l0.8-3.8c1.6-10.1-0.4-29.1-5.1-46.3
		c-3-11,6.4-26.2,14.6-36.9C611.7,249.8,610.9,249,610.2,248.4z"/>
	<path class="st28" d="M585,276.8c-0.7,1.1-1.3,2.3-1.9,3.3C573,297.8,559,298.4,559,298.4c12.3,7.8,18.1,3.3,23.7,0.5
		c-8.6,0.8-14.4-0.2-14.4-0.2s5.9-3.3,10.4-7.3C581.2,289.2,583.5,282.3,585,276.8z"/>
	<line class="st32" x1="567.7" y1="354.8" x2="581.5" y2="329.4"/>
	<path class="st28" d="M554.2,387.6l-16.4,37.9c-0.1,1.9-0.2,3.6-0.2,5.3l18.3-42.5L554.2,387.6z"/>
</g>
<path class="st17" d="M698,270.7c-0.1,0.2-0.2,0.5-0.4,0.7C697.8,271.2,697.9,270.9,698,270.7z"/>
<path class="st17" d="M696.9,272.8c-0.2,0.3-0.4,0.7-0.5,1.1C696.5,273.5,696.7,273.1,696.9,272.8z"/>
<path class="st17" d="M697.5,271.6c-0.2,0.3-0.4,0.7-0.5,1.1C697.2,272.2,697.4,271.9,697.5,271.6z"/>
<path class="st17" d="M698.4,270c-0.1,0.2-0.2,0.4-0.3,0.6C698.2,270.3,698.4,270.1,698.4,270z"/>
<path class="st17" d="M698.4,270c3.6-6.5,5.3-10.9,7.3-17.5l0,0c0.8-2.7,1.6-5,1.8-5.9c-1.7-0.7-3.8-1.6-5.8-2.8
	c-5.1-2.5-12.1-7.3-14.7-15c-3-5.8-4.9-13.1-4.6-22.6c0-0.8,0-1.4,0-2c-0.2,6.3-0.6,14.1-1.9,19.8c-2.5,11.3-20.8,39.9-24.5,43.6
	c-3.7,3.8-13,5.5-16.6,5.9c-3.4,0.5-13.4,0.8-17.6-7.1c-2.1-4-3.9-7.3-5.5-10c-0.4,0.5-0.7,0.9-1.1,1.3c0.3-0.1,0.5-0.1,0.8-0.2
	c0.9,13.5,5,25.8,16.4,34.4c13.1,9.8,41-3,47.8-5.8C687.2,283.3,698.4,270,698.4,270z"/>
<path class="st28" d="M683.4,225.2c2.9,15,24.2,21.4,24.2,21.4c3-7.6,3.4-15.3,2.6-20.6C701.5,222.9,686.1,224.8,683.4,225.2z"/>
<g class="st15">
	<path class="st17" d="M685.1,452.8c-0.4-2.3-0.5-4.8-0.7-7.1c-0.2-2.3-0.2-4.8-0.1-7.1c0.2-2.3,0.5-4.8,0.5-7.1
		c0.1-2.3,0-4.8-0.2-7.1c-0.2-2.3-0.2-4.8-0.2-7.1s0-4.8,0.1-7.1c0.2-4.8,0.7-9.5,1.5-14.2h0.2c0.3,4.8,0.4,9.5,0.3,14.3
		c-0.1,2.3-0.2,4.8-0.3,7.1c-0.1,2.3-0.3,4.8-0.5,7.1c-0.2,2.3-0.3,4.8-0.3,7.1c0.1,2.3,0.3,4.8,0.5,7.1c0.1,2.3,0.1,4.8,0,7.1
		c-0.1,2.3-0.2,4.8-0.6,7.1L685.1,452.8z"/>
</g>
<g class="st15">
	<path class="st17" d="M691.1,586.9c-0.5-2.5-0.9-5-1.1-7.6c-0.3-2.5-0.5-5.1-0.5-7.6c-0.1-2.6,0.1-5.1,0-7.6
		c-0.1-2.6-0.4-5.1-0.7-7.6c-0.3-2.5-0.6-5.1-0.8-7.6c-0.2-2.5-0.5-5.1-0.5-7.6c-0.2-5.1-0.2-10.1,0.2-15.2h0.2
		c0.8,5.1,1.3,10.1,1.7,15.1c0.2,2.5,0.2,5.1,0.3,7.6c0.1,2.5,0.1,5.1,0.1,7.6c0,2.6,0,5.1,0.2,7.6c0.2,2.5,0.7,5.1,1,7.6
		c0.3,2.5,0.4,5.1,0.5,7.6c0.1,2.6,0.1,5.1-0.1,7.6H691.1z"/>
</g>
<path class="st13" d="M682.3,363.3c1.4-0.1-10,4.6-11.3,4.6s-2.7-0.4-2.7-1.7c0-1.4,1.1-2.4,2.4-2.4
	C672.2,363.9,678.9,363.5,682.3,363.3z"/>
<path class="st13" d="M680.6,590c1.4,0.1-10.4,3.5-11.7,3.3c-1.4-0.2-2.6-0.7-2.4-2s1.4-2.3,2.7-2.1S677.1,589.8,680.6,590z"/>
<path class="st13" d="M689.8,653.9c1.4-0.1-10,4.6-11.3,4.6c-1.4,0-2.7-0.4-2.7-1.7c0-1.4,1.1-2.4,2.4-2.4S686.4,654,689.8,653.9z"
	/>
<path class="st13" d="M661.6,637.1c0,0,4.7,9.8,23.9,4.9c19.2-4.9,15.9-1.4,26.7-4.9c10.8-3.5,16.7-2.6,21.4,0c0,0,3-6.4,7.7-5.6
	c4.7,0.7,15.2-2.1,22.3-3.5c7-1.4,9.6-3,9.6-3s-11.5,1.9-17.3-3.8c-5.8-5.6-4.7,9.8-9.8,4.7c-5.1-5.1-5.8,7.3-9.8,0.7
	c-4-6.6-3.8,6.7-12.6,5.1c-8.9-1.6-21.7,5.3-24.3,0c-2.7-5.3,2.3-10.5-7.1-30.4c0,0,3.3,28.5,2.3,31.2c-0.9,2.6-7.9,6.8-11.6,4.9
	s-5.5,3.8-12.8-0.7C662.8,632.2,668.4,643,661.6,637.1z"/>
<path class="st13" d="M720.4,518.1c-6.7-5.2-19.2-13.6-32.6-15.9c-2.7-0.5-5-0.6-7.2-0.6c0.3,4.4,1.5,8.2,4.1,10.5
	c12,11.2,20.6,32,54.1,30.4C738.7,542.5,728,532.3,720.4,518.1z"/>
<path class="st13" d="M829.9,518.1c0,0-21.8-33-22.7-54.4c0,0,4.5,25.3,28.9,34.5C835.9,498.2,819.1,495.8,829.9,518.1z"/>
<path class="st13" d="M834.6,526.9c-6.2-3.9-14.8-8-23.9-8.8c-18-1.7-56.7-26-56.7-26l-0.2,0.9c8.3,14.9,14.2,28.2,14.2,28.2
	c-12.6,8-23.9,24.4-23.9,24.4c-0.3,1.1-5.2,6.3-12.6,7.4l-0.5,0.5c5.7,2.9,10.4,3.1,18.8,2.1c3.6-0.5,17-1.1,17-1.1
	c17.8-0.9,37.5-15.9,53.4-20.6C824.7,532.4,829.7,529.9,834.6,526.9z"/>
<path class="st13" d="M805.2,456.9c-15,1.3-18.4,6.9-23.2,1.2c-4.8-5.6-3-5.3-8-1.9c-2.3,1.7-6.7,2.6-10.6,3.1
	c0.8,1.4,2.4,2.6,5.1,3.2c0,0-2.6,0.5-6.7,1.1c19.3,9.1,27.6-2.2,40-4.8c13.6-2.9,18.1,14.1,33.1,32.2c15,18.1,8.8-8.4,5-13.9
	C836.1,471.7,820.2,455.7,805.2,456.9z"/>
<path class="st13" d="M745.1,468.4c0,0,11.4,0.9,15.7,1.4c4.2,0.5,21.6,28.1,20.1,18.8c-1.4-9.3,11.7,11.5,11,4.2
	c-0.7-7.3-8.3-10.2-8.2-21.6c0,0-10.8-0.1-29.7-6.4c-3.6,0.5-7.6,1.1-11.9,1.6C743.9,467.5,745.1,468.4,745.1,468.4z"/>
<path class="st13" d="M851.3,467.4c0,0-29.7-37.5-29.8-45c-0.2-7.5-20.3,7.7-32.5-9.4c0,0,22.7-36.9,30-25.1
	C826.4,399.7,847,443.1,851.3,467.4z"/>
<path class="st13" d="M809.5,312.4c0,0,3,6.1,5.1,18.2s5.5,5.4,5.6-4.5C820.3,316.4,809.5,312.4,809.5,312.4z"/>
<path class="st13" d="M782,354.8c0,0,0.8-47.1,5.5-54.8c4.7-7.7,11.4-7,11,0C798,307,783.9,304,782,354.8z"/>
<path class="st13" d="M730.2,413.5c-9.1-4.7-4-13.8-9.8-17.8c-5.8-4.1-6.4,3.8-17.3,0c-4-1.4-6-4.4-7-7.7l0,0l-0.8,67.2
	c0,0,14.8-34.1,24.1-20.6c9.1,13.2,19.5,14.2,33.1-19.8C742.7,418.1,738.3,417.7,730.2,413.5z"/>
<path class="st13" d="M727.8,298.2c-5.7-0.9-10.2-10.6-20.6-9c0,0,0.4-0.7,1-1.7l-0.1,0.1c-6.5,12.6-14.8,28.6-19.6,36.9
	c6.1-3.6,11.7-4.8,12.7,0.2c2.2,11.3,23.2-19,28.2-4.5c4.8,14.5,17.4-23.1,17.4-23.1S733.5,299.2,727.8,298.2z"/>
<path class="st13" d="M807.9,341.2c-11.2-7-5.6-23.7-5.6-23.9c-3.8,5.8-7.1,12.6-9.4,20.6c-6,21.3-10.8,34.8-13.1,40.8
	c1.3,2.7-0.4,8.2,0.8,11.7c4.4,14.4-2.5,16.7-2.5,16.7s-2,0.4-5.3,1.1l-9.4,42.9c0,0-0.3,0.7-0.5,1.7c8-6.5,13.3-13.5,15.1-20.9
	c12.2-52.7,22.9-61.4,22.9-61.4c-6.1-6.7-4.7-14.3,0-18.6C805.5,347.8,819.1,348.3,807.9,341.2z"/>
<path class="st13" d="M691.2,357.6c0,0,1.4-33.2,14.5-56.4"/>
<path class="st13" d="M731.8,251.6c-0.2-0.4-0.5-0.8-0.9-1.4c-0.1,0.9,0,1.9,0.2,3.1c0.7,3.6-2.5,1.7-1.7,4.8
	c0.8,3.2-2.1,3.3-1.4,6.1c0.8,2.7-2.3,1-1.7,7c0.6,5.9-4.4,2.2-2.7,7.3s-1.4-0.1-1.4,7.4c0,3.3,2.7,7.4,5.7,11
	C722.7,276,733,254.5,731.8,251.6z"/>
<path class="st13" d="M738.7,550.4c-0.8-0.2-1.7-0.5-2.5-0.6c-5.6-1.1-8,5.4-12.4,0c-4.4-5.4-10.4-5.4-11.6-8.4
	c-1.1-3-10.2-5-10.1-7.7c0.2-2.7-6.4-6.1-9.8-9.5c-3.5-3.4-7.6-3-8.4-5.8s-5.8-4.4-13.6-5.4c-7.7-1-5.6-9.5-5.6-9.5l-1.7,0.8
	c-3.7,4.7-5.4,8.6-1.1,8.6c11,0,19.2,2.2,48,31.4C721.8,556.2,732.6,553.9,738.7,550.4z"/>
<path class="st13" d="M739.3,556c2,9.8,9,42.9,10.1,56.6c1.4,16,6,13-6.7-56.4C741.6,556,740.4,556,739.3,556z"/>
<path class="st3" d="M687.7,502.1c13.4,2.3,25.9,10.7,32.6,15.9c-3-5.5-5.5-11.6-6.7-17.9c-3.3-16.7-6.1-27.8-10.5-33.8l-4-2.2
	c0,0-1.4-1.1-3.9-2.3c-0.2-0.1-0.5-0.2-0.7-0.3c-1.3-0.5-2.9-1.1-4.7-1.5c-6-1.3-7.1-11.1-10.1-17.3c-3-6.4-18.4-8.9-26.4-10.5
	c-8-1.7-14.9,8-14.9,8l7,12.9c5.8-8.4,15-2,15-2c-6.8,8.7-33.5,4.6-44.5,1.1c-11-3.5-26.5-0.9-31.4,1.1c-4.9,2.1,3.8,9.4,14.1,23.4
	c10.3,14,35.6,24.2,49.2,29.2c11.8,4.4,18.2-4.4,32.7-4.5c0-0.1,0-0.2,0-0.3c0,0.1,0,0.2,0,0.3C682.8,501.5,685.1,501.7,687.7,502.1
	z"/>
<path class="st13" d="M723.7,552.6c-2.6-0.6-5.4-1.8-8.2-3.8l0,0c3,15.3,8.5,34.6,14.6,42.5c6.2,7.9,5.8,28.2,5.8,28.2
	c0.5-11.3,1.1-21.4-5.8-35.4C725.2,574.1,724,559.8,723.7,552.6z"/>
<path class="st3" d="M682.5,193.1c0,0,0.6,19.5-1.9,30.9c-2.5,11.3-20.8,39.9-24.5,43.6c-3.7,3.8-13,5.5-16.6,5.9
	c-3.4,0.5-13.4,0.8-17.6-7.1c-5.7-10.9-9.5-16.7-12.3-18.5c-2.9-1.8-20-16.8-20.6-23c-0.6-6.3,0.9-12.7-1.1-17
	c-2.1-4.3-7.7-25.1-8.9-31.2c-1.1-6.1-6.8-17.3-6.8-20.9s40.9-27,40.9-27l63.9-5.6l2,3.8c0,0,2,17.3,1.7,25.9l0.9,0.2
	c0,0,1.4-4.5,5.3-4.2c3.9,0.2,9.2,4.5,9.2,12.2s-1.7,13.9-3.8,19.3C690.3,185.7,686.2,192,682.5,193.1z"/>
<g class="st15">
	<path class="st23" d="M751,535.3c-6.5-8.3-25.7-34.2-42.8-69.1c-2-4.1-7.1-4.2-10.8-4.2c-0.4,0-0.7,0-1,0c3-2.4,8-6.3,9.8-7.2
		c3-1.6,6.1-2.4,9.1-2.6c0.2,0,0.3,0,0.5,0c19.5,0,47.9,61.3,51.3,68.8C760.7,524.8,755,530.7,751,535.3z"/>
	<path class="st17" d="M715.5,453c16.3,0,41,47.3,50.1,67.5c-4.7,3.2-9.5,7.6-14.6,13.4c-7.1-9.2-25.5-34.4-42-68.1
		c-2-4-6.5-4.6-10.1-4.8c2.9-2.3,6.3-4.8,7.6-5.5c2.9-1.5,5.8-2.3,8.7-2.5C715.3,453,715.5,453,715.5,453 M715.5,451.1
		c-0.2,0-0.3,0-0.5,0c-3.3,0.2-6.5,1.1-9.5,2.7c-2.3,1.2-9.6,7-11.7,8.8c3,0.8,10.9-1,13.3,3.9c17.9,36.6,38.2,63.4,43.6,70.2
		c4.4-5.1,10.5-11.5,17-15.6C768,521.1,737.1,451.1,715.5,451.1L715.5,451.1z"/>
</g>
<path class="st33" d="M674.8,166.4c0,0-7.3-12.1-9.8-16.1c-2.4-4-14.6-4.5-19.1,0c-4.5,4.5-12.3-2.1-18.2,3
	c-5.9,5.1-20.1,9.4-30.3,6.1c-10.3-3.3-19.2-0.1-22.7,4.8c0,0-7-9.3-12.1-17.2c-5.1-7.9-0.8-11.6-3.6-18.6
	c-2.8-7-11.8-14.5-7.8-20.1c4-5.6-2.5-13.6,5-18.2c7.5-4.7,1.1-13.1,6.4-14.5s12.8,0,13.9-4c1.1-4,4.5-12.9,14.8-10.8
	c10.3,2.1,1.9-10.1,10.8-9.1c8.9,0.9,13.6-8.9,20.6-3.3c7,5.6,17.2-0.5,19.4,4.2c2.2,4.7,14.5,1.4,18.6,8.2
	c4.2,6.8,12.9,2.6,14.6,12.9s11.1,8.9,9.7,20.1c-1.4,11.2,6.4,16,0.2,24.5s-1,14.6-2.8,21.4C680.5,146.3,674.8,166.4,674.8,166.4z"
	/>
<path class="st17" d="M680.6,146.5l-14.5,50.1c0,0-11.1,3.3-37.4,5.2s-49.7,3-49.7,3s-2.6-3.3-2.1-6.7c0.4-2.5,1.4-12.6,2.4-19.9
	c-0.4-2.1-1-4.2-1.7-6.4c-1.1,9-2.6,22.9-2.8,33c0,0,5.4,16.3,12.2,19.2c0,0,10.2,4.2,23.2,1.3c10.3-2.3,6.4-14.2,11-14
	c4.5,0.2,4.5,8.6,14.8,10.8c10.4,2.3,19.4,0.8,24.1-1.7c4.7-2.5,6.7-5,6.3-11.6c-0.5-6.6-1.6-4.7-0.5-6.6c1.1-1.9,3.6,1.6,7-13.3
	c3.4-14.8,8-37.9,8-37.9L680.6,146.5z M609.8,223.5c-2.2,1.4-19.8,1.4-24-2.3c-4.2-3.8-5.6-12.2-5.6-12.2c-0.7-3,23.2-2.8,26.4-2.8
	c3.1,0,6.1,0.2,7.8,7.5C616,221,612,222.2,609.8,223.5z M664.4,213.5c-2.5,7.5-18.6,8.3-25.4,7.2c-5.7-0.9-8.5-4.8-11.4-8.6
	c-2.8-3.8,2.3-7,2.3-7c4.4-2.8,23.2-3.8,26.7-4.2C660.3,200.4,666.9,206.1,664.4,213.5z"/>
<path class="st34" d="M234.8,203.3c0,0-4.2-19,2.8-22.5c7-3.5,14.8-10.1,6.8-19.2c-8-9.2-8.4-10.3-8.4-10.3s14.1-3.5,20.4-17.1
	c6.3-13.6-0.2,6.6,16.1-1.4c16.4-8,10.5-15.7,15.4-12.2c4.9,3.5,15.4-18.2,17.8-18c2.3,0.2-8.9-15.9-16.4-20.8
	c-7.5-4.9-20.8-8.9-19.5-12.4c1.3-3.5-13-4.9-19.3-4.5c-6.4,0.5-17.3-6.4-21.4-4.7c-4,1.7-14.1-5.9-22-0.2s-18-1.4-21.8,12
	c-3.8,13.3-8.4,21.6-19.2,25.7c-10.8,4.2-9.8,26-5.4,39.6c4.5,13.6,7.3,36.8,25.7,59.3c0,0,2.5,2.1,0.9,14.5
	c-1.6,12.3,13.4-3.4,10.3-9.5c-3.1-6.1-8.8-15.6-0.5-18.6c8.3-3,26.9,9.4,29.1,19.2L234.8,203.3z"/>
<path class="st35" d="M156,379.4c0,0-6.4-30.4-17.3-42.9c-11-12.4-25.5-26.7-40.7-27.9s-34.2-1.8-38.7,13.6S40.8,355.7,45,373
	c4.2,17.3-1.9,33.5-1.9,35.4c0,1.9,1.4,51.8,0,56.9c-1.4,5.1-8.4,34.7-6.1,45s-1.9,18.2,5.6,30.2s6.4,20.4,34,25.3
	s24.2,2.3,50.8,4.7s50.8-0.7,61.2-3.3c10.3-2.6,37-13.9,42.9-14.3s3,0.7,8.4-3.5c5.4-4.2,37.5-12.6,37.5-12.6s-18-18.2-15.2-66.6
	c0,0-31.7,10.3-34.2,8c-2.6-2.3-9.6-2.8-13.3,0.7c-3.8,3.5-25.3,6.4-29.8,5.6c-4.5-0.7-15.9,0.7-18,1.9c-2.1,1.2-9.4-4-15.9,0.9
	s-27.6-6.6-27.6-6.6s8.2-0.2,7.5-15.9c-0.7-15.7,3-6.6,4-19.2s6.4-8.9,12.4-26.5C153.2,401.6,148.8,401.4,156,379.4z"/>
<path class="st35" d="M262.2,470.3c0,0-31.7,10.3-34.2,8c-0.8-0.8-2.2-1.3-3.7-1.6c-0.4,19.4,1.5,50.1,14.5,73.8
	c0.4-0.3,0.8-0.6,1.2-0.9c5.4-4.2,37.5-12.6,37.5-12.6S259.4,518.6,262.2,470.3z"/>
<path class="st36" d="M285.7,584.4c5.7-50-2.5-100-2.2-116.8s-0.6-40.9-0.6-40.9c8.1-46.3-3.8-74.8-3.9-98.7s-6.3-12.6-5.3-23.1
	c0.9-10.4-5.9-15.4-9.2-21.9c-3.3-6.4-10.2-21.1-10.2-21.1l-6.8,18.8c0.5,0.5,0.9,1.1,1.4,1.7c7.3,9.1,11.7,38.9,10,55.6
	c-1.7,16.7-2.5,49.4-2.5,49.4c-0.9-61.6-30.9-80.7-36-91.1c-5.1-10.3-21.8-15.1-38.2-26.1c-10.6-7.1-22.9-13.7-24.6-18.8
	c3-2.1,5.9-4.2,8.7-6.7c-5.2-3.6-58.3,19.3-58.3,19.3c-25.2,16.2-39.5,35.6-47.4,55.5c-0.5,0.9-0.8,1.8-1.1,2.9v0.1
	c-0.5,1.4-1.1,2.9-1.5,4.3c-5.5,14.5-16.6,30.7-12.7,46.3c4.2,17.3-1.9,33.5-1.9,35.4c0,1.9,1.4,51.8,0,56.9
	c-1.4,5.1-8.4,34.7-6.1,45c2.3,10.3-1.9,18.2,5.6,30.2c4.8,7.6,6.1,13.9,13.6,18.6c3.3,58,7.8,113.1,12.2,122
	c8.9,18,91.9,2.3,112.4-3.3c20.6-5.6,62.8-8.9,68.9-8.6c6.1,0.2,16.4,1.9,20.4,1.7c3.9-0.2,8.6-5.4,8.6-5.4
	c-8.9-15.7-8.6-24.4-5.6-28.5c3-4.2,2.5-7.5,2.5-7.5S280.1,634.3,285.7,584.4z"/>
<path class="st3" d="M377.4,466.9c-2.6-3.4-13.3-17.7-28.1-10.4c-14.8,7.3-27.9,4.6-27.9,4.6c3.9-4,9.6-10.8,5.9-13.3
	c-5.4-3.8-22.9-0.2-28.5-1.4c-5.6-1.1-12.2,4.7-18.2,11.5c-3.1,3.5-11.2,9.2-18.3,13.9c-1.4,27.5,4.1,45.1,8.9,54.9
	c12,1.1,26.7,1.7,35.1-0.7c15.7-4.5,28.9-12.3,35.1-15.7c6.3-3.4,22-18.5,28.3-26.3C375.9,476.2,380,470.3,377.4,466.9z"/>
<path class="st3" d="M315.3,179.8c-3.8-8.8-6.7-14.6-5.6-18.5s4.5-7,0.2-20.1c-4-12.6-7.1-21-12.6-27.6c-3.4,4.7-7,8.9-9.4,7.2
	c-4.9-3.5,0.9,4.2-15.4,12.2c-16.4,8-9.8-12.2-16.1,1.4c-6.4,13.6-20.4,17.1-20.4,17.1s0.5,1.1,8.4,10.3c8,9.2,0.2,15.7-6.8,19.2
	c-7,3.5-2.8,22.5-2.8,22.5l-8.4-1.3c-2.2-9.8-20.7-22.2-29.1-19.2c-8.3,3-2.7,12.5,0.5,18.6c0.9,1.8,0.2,4.5-1.1,7
	c12.6,16.4,34,37.5,64.6,43.1l18.5,3.3c0,0,11,3.8,15,0c4-3.8,11.7-8,11.3-15.4c-0.5-7.5,0.8-17.5-0.5-21c-1.3-3.5,4.3-3.8,4.5-8.6
	c0.1-1.7,0.4-2,2-6.3c0.9-2.3,1.8-4.9,2.6-7.5C316.3,190.5,316.9,183.6,315.3,179.8z"/>
<path class="st35" d="M267.7,539.5c0.8,12.3,1.3,22.6,0.9,28c-1.4,17.3-3.1,32.8-17.7,63.8l8.9,38.8"/>
<path class="st28" d="M270.2,670.8c4-0.2,8.6-5.4,8.6-5.4c-8.4-14.8-8.6-23.4-6.1-27.9c-8.4-4.6-16.7-8.7-24.8-8.9
	c-78.9-2.3-143,15.5-183.7,31.2c1.4,10.8,2.8,18.4,4.2,21.3c8.9,18,91.9,2.3,112.4-3.3c20.6-5.6,62.8-8.9,68.9-8.6
	C255.8,669.5,266.2,671.1,270.2,670.8z"/>
<path class="st13" d="M80.6,399.7c0.9-12.5-52.9,109.2-32.8,94.2c20.1-15,42.6-38.4,61.4-36s-25.3-13.6-41.7,3.8
	C51.1,479,79.7,412.2,80.6,399.7z"/>
<path class="st13" d="M45.9,520.7c0,0-11.7,22.9,8-5.6S82.4,486,97,481.8S73.6,467.2,45.9,520.7z"/>
<path class="st13" d="M126.1,478.1c0,0,4.2-19-31.9-11.2c-19.4,4.2-15.9,8.5-6.6,7.9c8.1-0.5,20.5-5.8,26.1-4.5
	C125.7,473.3,115.3,485.2,126.1,478.1z"/>
<path class="st13" d="M58.6,534.2c0,0,21.3-16.4,41.6-35.6C120.6,479.4,77.9,535.1,58.6,534.2z"/>
<path class="st13" d="M150,326.2c0,0-3.3,12.2,4.4,23.9c7.8,11.7,2.1,30.9-2.6,45.9c-4.6,15,14.2-10.3,13-34.9
	C163.6,336.5,153.2,302.6,150,326.2z"/>
<path class="st13" d="M69.3,327.6c0,0,26.5-22.9,36.2-15.4s-13.2,33.5-16,47.3c-2.8,13.7-5.6-11.3,6.1-28.2
	C107.3,314.3,62.8,338.9,69.3,327.6z"/>
<path class="st13" d="M100.2,432.1c11.4-7.6,25-0.2,35.3,8.6c1.9-7,6.5-6.7,11.7-21.5c6.1-17.6,1.7-17.8,8.9-39.8
	c0,0-5.4-25.8-14.8-39.6c-5-0.9,1.2,13.6-7.3,8c-8.6-5.6,9.5,26.7,0,22.9s9.5,23.9-7.7,22.9c-17.2-0.9,10.1,11.7-12,12.2
	c-22.2,0.5,14.2,12.2-3.1,14.1C93.8,421.7,88.4,432,88.4,432C83.2,437.7,78.7,446.6,100.2,432.1z"/>
<path class="st13" d="M162.2,485.8c-3.2-0.8-7.3-1.4-11.2,1.5c-0.7,0.5-1.6,0.8-2.7,1.1c-2.2,3.5-4.3,8.4-6.3,15.3
	c-5,17.6-21.2,30.1-30.2,35.8c-3.7,2.3-3,1.7-6.2,3.6c-3.2,1.9,2.6,3,5.7,1.5C126.2,537.9,164.8,491.8,162.2,485.8z"/>
<path class="st13" d="M157,550.4c-4.2,5.5,7-1.4,10.4-2.7c29.2-11,48.7-48.5,58.1-70.9c-3.3-1-8-0.6-10.8,2
	C201,532.3,161.2,544.9,157,550.4z"/>
<path class="st37" d="M153.2,468.2c11.5-10.1,25-15.2,37.9-19c1.2-0.7,2.4-1.4,3.7-2.1c34.5-19.3,45.1-36.8,45.8-30.5
	c0-0.5,0.1-0.8,0.1-1.3c-0.4-36.4-83.1,41.4-83.1,41.4C142.9,470.2,148.8,472.5,153.2,468.2z"/>
<path class="st13" d="M147.2,419.2c-6.1,17.6-11.5,13.9-12.4,26.5c0,0.1,0,0.2,0,0.3c19.8-10.9,70.8-31.5,76.6-42.2
	c6.9-12.5-24.1,5.6-38.4,4.4c-7.6-0.7-16.7,1.4-23.5,3.4C148.9,413.8,148.2,416.3,147.2,419.2z"/>
<path class="st13" d="M148.2,488.4c5.3-3.7,10.3-7.4,14-10.4c14.8-11.7,75-36.8,77.8-55.5c2.8-18.8-4.4,1.6-45.3,24.5
	c-24.2,13.6-43.8,29.6-55.8,40.4C142.4,488.3,145.7,488.9,148.2,488.4z"/>
<path class="st13" d="M109.4,569.4c-2.8-0.1-5.2-0.2-7.6-0.3c0.8,3.3,3.1,9.3,3.9,28.7c1.4,36.3-17.3,49.1-17.3,49.1
	c-5,16.9,30.3-26.6,23.8-51.3C109.4,585.9,109.2,576.5,109.4,569.4z"/>
<path class="st35" d="M253.6,377.8c0,0-3.6-16.7-7-21.4c-3.3-4.7-11.5,1.1-20.4-9.2c-8.9-10.3-7.4-16.1-16-23.9
	c0,0,18.6,16.1,27.6,20.6c8.9,4.5,13.6,11.3,14.9,14.2c1.3,2.8,2.9,23.5,3.8,33L253.6,377.8z"/>
<path class="st13" d="M133.9,273.7c-25.9-1.1-31.7-1.4-52.9,12.6c-9.5,10.5-16.1,21.7-20.7,33.1c-0.1,0.2-0.2,0.5-0.3,0.6
	c13.4-17.9,36.6-44.8,53.7-42.6c25.4,3.3,37.2,0.5,68.1,20.6C212.7,318.1,165.7,275.1,133.9,273.7z"/>
<path class="st13" d="M129.5,259.2c-3.3-0.2-6.6-0.3-9.8-0.3c-3,1.2-5.5,2.3-7.5,3.1c24.3,0.8,52.3,7.6,71.9,30
	C184.2,292,165.7,261.4,129.5,259.2z"/>
<path class="st38" d="M305.7,102.6c2.3,0.2-8.9-15.9-16.4-20.8c-7.5-4.9-20.8-8.9-19.5-12.5c1.3-3.5-13-4.9-19.3-4.5
	c-6.4,0.5-17.3-6.4-21.4-4.7c-4,1.7-14.1-5.9-22-0.2s-18-1.4-21.8,12c-3.8,13.3-8.4,21.6-19.2,25.7c-7.9,3.1-9.5,15.5-8,27.3
	c4.7,6.7,12.8,12,26.6,11.7c30.3-0.6,33.9-1,54.4,13.6c4.5-1.8,12.9-6.4,17.3-16.1c6.4-13.6-0.2,6.6,16.1-1.4
	c16.4-8,10.5-15.7,15.4-12.2C292.8,124,303.4,102.3,305.7,102.6z"/>
<path class="st39" d="M305.7,102.6c2.3,0.2-8.9-15.9-16.4-20.8c-7.5-4.9-20.8-8.9-19.5-12.5c1.3-3.5-13-4.9-19.3-4.5
	c-4.2,0.3-10.6-2.7-15.6-4.2c-7,2.6-13.9,6.1-15.6,10.3c-3.5,9.4-13.6-1.7-18.2,11.3s-21.1,7.5-20.8,21.4
	c0.2,12.8-15.1,18.8-11.3,30.3c4.2,1.8,9.3,3,15.8,2.8c30.3-0.6,33.9-1,54.4,13.6c4.5-1.8,12.9-6.4,17.3-16.1
	c6.4-13.6-0.2,6.6,16.1-1.4c16.4-8,10.5-15.7,15.4-12.2C292.9,124,303.4,102.3,305.7,102.6z"/>
<path class="st40" d="M305.7,102.6c2.3,0.2-8.9-15.9-16.4-20.8c-6-3.9-15.6-7.3-18.7-10.2c-8.1,3-17.1,6.9-21.4,10.1
	c-8.6,6.6-21.1-1.1-25.7,8.6c-4.7,9.8-18.5,3.3-21.8,17.6c-3.3,14.3-5.5,8.2-4.7,16.1c0,0-3.6,6.4-6.4,12.6
	c24.8-0.5,29.4,0.2,48.3,13.7c4.5-1.8,12.9-6.4,17.3-16.1c6.4-13.6-0.2,6.6,16.1-1.4c16.4-8,10.5-15.7,15.4-12.2
	C292.7,124,303.4,102.3,305.7,102.6z"/>
<path class="st27" d="M384.9,439.7h-45.5c-0.8,0-1.7,0.4-2.1,1.1l-14.6,20.4c3.5,0.5,14.5,1.2,26.8-4.8c10.9-5.4,19.6,1,24.5,6.1
	c5-7.4,12-17.7,13.4-19.7C389.9,439.1,384.9,439.7,384.9,439.7z"/>
<path class="st5" d="M323.1,461.3c-0.2,0-0.4-0.1-0.5-0.1l14.6-20.4c0.5-0.7,1.3-1.1,2.1-1.1h45.6c0,0,2.7-0.3,3.1,1l0.1-0.1
	c0,0-4-5.6-6.6-5.6c-2.6,0-45.5,0-45.5,0c-0.8,0-1.7,0.4-2.1,1.1L326,447c0.5,0.2,1,0.5,1.4,0.7c3.7,2.6-2,9.3-5.9,13.3
	C321.4,461.1,322,461.2,323.1,461.3z"/>
<path class="st41" d="M368.3,457.9c-4.9-3.2-11.4-5.1-18.9-1.4c-14.8,7.3-27.9,4.6-27.9,4.6c-15.4,1.5-31-4.5-31-4.5
	c-4.1-0.2,12.8,8.1,20,6.7c7.2-1.4,29.8,3.9,42.9-2.3C357.8,458.9,363.3,458.2,368.3,457.9z"/>
<path class="st41" d="M377.4,466.8c-0.7-0.9-1.9-2.5-3.6-4.3c-3.6,1.4-8,4-10.4,4.3c-3.9,0.5-11.4,5.5-17.9,6.3
	c-6.6,0.8-4.7,4.2-15.8,6.9c-11.1,2.7-21.7-1.1-21.7-1.1c-3.6-1,6.1,5,10.8,5.9c4.7,0.9,16.7-2.2,20.4-3.9
	c3.8-1.7,11.1-1.3,12.3-3.6c1.3-2.3,5-3.4,12.6-4.8C369,471.7,374.4,469.3,377.4,466.8z"/>
<path class="st41" d="M362.1,487.7c1.2-1,4.5-2.6,8-4.2c1.1-1.4,2.1-2.7,3-3.9c-9.8,2.7-24.5,10.6-33.2,13.7c-9.5,3.4-23.8,3-23.8,3
	c-6.4,0.1,8.8,2,11.9,0.9c3.1-1.1,14.7,2.2,19.3-2.2C351.9,490.7,358.8,490.4,362.1,487.7z"/>
<path class="st42" d="M305.7,102.6c2,0.2-5.4-10.8-12.2-17.4c-7.6-0.8-16.5-0.1-20.1,6.7c-6.8,12.9-16.6-8-14.6,8
	s-15.8-2.8-15.6,5.6s-18.2-0.7-18.5,14.5s-4.7,6.6-9.2,12.4c0,0-1.4,2-2.2,4.9c19.5,2.3,11.8,19.5,25.6,12.9
	c4.5-1.8,12.9-6.4,17.3-16.1c6.4-13.6-0.2,6.6,16.1-1.4c16.4-8,10.5-15.7,15.4-12.2C292.9,124,303.4,102.3,305.7,102.6z"/>
<path class="st22" d="M182,270c16.4,11.1,33.1,15.8,38.2,26.1c5.1,10.3,35.1,29.5,36,91.1c0,0,0.8-32.6,2.5-49.4
	c1.7-16.7-2.7-46.6-10-55.6c-0.5-0.5-0.9-1.1-1.4-1.7l0.6-1.6c-12,2.3-20.1-2.2-51.3-9.8c-14.7-3.6-27.2-9.2-36.9-14.5
	C164.3,259.1,173.7,264.4,182,270z"/>
<path class="st11" d="M196.7,269.2c31.2,7.6,39.4,12.1,51.3,9.8c2-6.1,4.2-11.9,6.3-17l0.1-0.2l0,0c1.6-3.9,3.1-7.5,4.5-10.8
	c-29.3-6.3-50-26.7-62.2-42.6c-2.8,5.2-8.6,9.8-9.2,5.1c-4.2,13.1-18.2,28.5-21.3,31c-3.1,2.5-5.8,4.8-8.7,6.7
	c0.4,1.1,1.2,2.2,2.4,3.4C169.5,260,181.9,265.6,196.7,269.2z"/>
<path class="st43" d="M158.5,274.3c3.7-2.1,3.3-0.4,4.1,0.2l1.8,2.1c1.2,1.4,2.3,2.9,3.5,4.4c2.3,3,4.4,6,6.4,9.2
	c4,6.3,7.5,12.9,10.3,19.9c0.7,1.7,1.3,3.6,1.9,5.3c0.6,1.8,1,3.6,1.5,5.5c0.5,1.8,0.8,3.7,1.1,5.6c0.3,1.9,0.5,3.6,0.8,5.5
	c1,7.3,1.5,14.8,1.4,22.2c-0.4,14.9-3.3,29.3-6.1,43.5c-1.5,7.1-3,14.2-4.5,21.3l-2.3,10.6l-1.1,5.3c-0.2,0.8,1.1,1.7,1.5,3.3
	c0.5,1.7,0.5,3.9,0.1,4.7c-0.4,0.8-1.7,5.1-5.8,2.4s-2.3-6.8-2.3-6.8c0.8-3,2.6-2.6,3-4.4l1-5.4l2-10.7c1.3-7.1,2.6-14.2,3.7-21.4
	c2.3-14.2,4.5-28.5,4.3-42.6c-0.1-7-0.7-14.1-1.8-21.1c-0.3-1.7-0.5-3.6-0.9-5.2c-0.4-1.7-0.7-3.3-1.1-5c-0.5-1.7-0.9-3.3-1.5-4.9
	c-0.6-1.6-1.1-3.3-1.8-4.8c-2.6-6.4-5.9-12.6-9.7-18.6c-1.9-3-3.9-5.8-6-8.7c-1.1-1.4-2.1-2.8-3.3-4.2l-1.7-2
	c-0.4-0.9-2-0.5,0.5-3.9L158.5,274.3z"/>
<path class="st43" d="M184.9,297.4c2.7,0.2,3.9,1.7,5.4,3.2l4.2,4.2c2.9,2.8,5.8,5.6,8.6,8.4c5.8,5.5,11.7,10.9,17.8,16.1
	c6,5.2,12.7,9.4,19.5,14c3.3,2.3,6.7,5,9.3,8.3c2.7,3.3,4.4,7.3,5.2,11.4l-1.8,0.5c-1.1-3.8-3-7.2-5.5-10.1
	c-2.6-2.9-5.8-5.1-9.2-7.2c-6.7-4.2-13.9-8.3-20.3-13.5c-6.4-5.1-12.5-10.4-18.4-15.9c-3-2.8-5.9-5.6-8.8-8.4l-4.3-4.3
	c-1.4-1.4-3-2.7-3.1-5.5L184.9,297.4z"/>
<path class="st13" d="M273.7,304.8c0.1-0.8,0.1-1.7,0.1-2.5c-12.3,33.6-19.2,115.9-14.9,88.8c3.2-20,12.9-53.7,19.3-74.8
	C276.4,308,273,312.9,273.7,304.8z"/>
<path class="st35" d="M256.4,387.3c0,0,4.8,49.4,5.5,70.6c0.1,1.7,0.1,3.3,0.1,4.7c0,1.9,0.1,4.3,0.2,7.3"/>
<path class="st13" d="M172.8,632.4l-5.9-42.5l17.7-21.8c-3.6,0.7-8.2,1.4-13.4,2L157,589.1l8,44.4
	C167.5,633.2,170.1,632.8,172.8,632.4z"/>
<path class="st44" d="M231.8,230.6c-5.5-28.5-5.5-28.5-5.5-28.5l8.4,1.3c0,0,0.9,24.5,13.6,28.7c12.6,4.2,29.5,13.6,29.8,3.3
	c0.2-10.3,0.6-19.8,11.7-19.7c7,0,14-0.7,19.6-3.4c-1.5,2.7-5,3.4-3.9,6.3c1.3,3.5,0,13.5,0.5,21c0.5,7.5-7.3,11.7-11.3,15.4
	c-4,3.8-15,0-15,0l-18.5-3.3c-6.1-1.1-11.7-2.9-17-5C237.7,242.2,233,236.9,231.8,230.6z M305.4,218.5L305.4,218.5
	c-4.8,1.7-10.7,2.8-15.2,3.4c-7,0.9-5.8,1.3-7.5,9.4s1.3,8.6,1.3,8.6c2,2.6,7.5,3,12.4,2c0.8-0.2,1-7.3,1.7-7.5
	c1.4-0.4,3.2,6.1,4.2,5.5c1.1-0.6,2.3-2.3,3.6-4.4C305.8,228.7,306.5,221.3,305.4,218.5z"/>
<path class="st37" d="M246.3,481.5c7.4,1.8,12.3-3.5,15.4-4.3c0.1-2.3,0.2-4.5,0.2-7c0,0-31.7,10.3-34.2,8
	c-2.6-2.3-9.6-2.8-13.3,0.7s-25.3,6.4-29.8,5.6c-4.5-0.7-15.9,0.7-18,1.9c-2.1,1.2-9.4-4-15.9,0.9c-5.4,4-20.5-3-25.8-5.6
	c1.5,3.2,2.8,5.9,3.4,7.6c2.2,6.3,7.5-1.3,16.3,2.5c8.8,3.8,13.1-3.7,17.2-1.9c4.1,1.9,14.7,5.2,20.9,3c6.2-2.3,10.6-8,16.9-3.6
	c6.3,4.4,15.3-5.9,19.7-4.1C223.5,487.1,237.2,479.3,246.3,481.5z"/>
<path class="st13" d="M481.4,291.6c-23.2,2.5-39.2-11.1-47.6-14.8s-1.3-8.8-9.1-22c-7.8-13.1,14.9-14.4,22-21.3
	c7-6.9-3.3-16.9-6.3-27.3s15.9-21.8,32.2-27.1c7.5-2.4,13.3-1.4,17.3,0.5c-0.2-1.1-0.4-1.9-0.7-2.4c0-0.1-0.1-0.2-0.1-0.2
	c-0.6-1.2-4.8-9.2-13.5-9.2c0,0-29.1,9.8-39.8,23.9c-10.8,14.1-28.1,35.6-32.8,29.5c-4.7-6.1-11.5-10.8-13.7-11.3l-11.1,18.2
	c0,0,12.2,23.4,18.8,22.5c0,0,0,0.2-0.1,0.5l2.9-0.9c0,0,8,25.3,22.5,31.9c14.5,6.6,25.4,8.8,28.9,9.8
	C454,292.8,474.2,296.8,481.4,291.6z"/>
<path class="st45" d="M297.3,113.4c-3.4,4.7-7,8.9-9.4,7.2c-4.9-3.5,0.9,4.2-15.4,12.2c-16.4,8-9.8-12.2-16.1,1.4
	c-6.4,13.6-20.4,17.1-20.4,17.1s0.5,1.1,8.4,10.3c8,9.2,0.2,15.7-6.8,19.2c-7,3.6-2.8,22.5-2.8,22.5l-8.4-1.3
	c-2.2-9.8-20.7-22.2-29.1-19.2c-8.3,3-2.7,12.5,0.5,18.6c0.9,1.8,0.2,4.5-1.1,7c10.2,13.3,26.4,29.8,48.7,38.5l12-2.8l6.1-6.6
	c-6-8,18.5-31.3,13.5-43.2c-5.1-11.8-14.2,5.4-25.6-6.4s7.9-36.7,3.3-35.2c-4.5,1.5,5.8-15.1,5.1-8.3s21.4-11.7,24.1-6.1
	c1.8,3.9,11.4-10.1,17.3-19.6C300,117,298.8,115.2,297.3,113.4z"/>
<path class="st17" d="M710.5,391.1"/>
</svg>
