<?xml version="1.0" encoding="utf-8"?>
<!-- Generator: Adobe Illustrator 22.1.0, SVG Export Plug-In . SVG Version: 6.00 Build 0)  -->
<svg version="1.1" id="Layer_1" xmlns="http://www.w3.org/2000/svg" xmlns:xlink="http://www.w3.org/1999/xlink" x="0px" y="0px"
	 viewBox="0 0 1920 581.6" style="enable-background:new 0 0 1920 581.6;" xml:space="preserve">
<style type="text/css">
	.st0{fill:#F5F7F9;}
	.st1{opacity:0.6;}
	.st2{fill:#FFFFFF;}
</style>
<title>StepsBG</title>
<g>
	<g>
		<path class="st0" d="M1920,0v514.9c-38.4,2.2-174.9-18.7-356,1.7c-141.7,16-216,63.4-491.8,56.9c-200.7-4.7-325.1-43.2-542.2-84.2
			c-322.2-60.9-494.8,57.2-530,59L0.4,91.4H0C151.6,46.9,336.8,17,544.8,44c382.6,49.5,599.9-63.8,834.3-29.4
			C1667.2,57,1914.6,2.7,1920,0z"/>
	</g>
</g>
<g class="st1">
	<path class="st2" d="M217.2,109.5c0.7-0.7,0.9-1.5,1-2.4c0.2-0.9-1.3-2.5-0.8-3.3c0.1-0.4,0.9-0.6,1.7-0.7c0.2-0.1,0.4-0.1,0.5-0.1
		c0.2-0.1,0.3-0.1,0.5-0.1c0.3-0.2,0.4-0.3,0.4-0.5c0.3-0.9-1.2-2.5-0.8-3.3c0.3-0.9,2.5-0.8,3-1.5c0.1-0.2,0.2-0.4,0.1-0.7
		c-0.1-0.3-0.2-0.6-0.5-0.9c-0.5-0.7-0.7-1.3-0.5-1.7c0.3-0.8,2.4-0.8,3-1.5c0.7-0.7,1.2-1.3,1.3-2.3l2.4,1.1
		c-0.7,0.7-0.9,1.5-1,2.4c-0.2,0.9,1.1,2.4,0.8,3.3c-0.1,0.4-0.8,0.7-1.6,0.8c-0.4,0.1-0.7,0.1-1,0.3c-0.3,0.2-0.4,0.3-0.4,0.5
		c-0.3,0.9,1.2,2.5,0.8,3.3c-0.3,0.9-2.5,0.8-3,1.5c-0.1,0.2-0.2,0.4-0.1,0.6c0,0.1,0.1,0.3,0.1,0.5c0.1,0.2,0.2,0.3,0.2,0.5
		c0.4,0.7,0.7,1.3,0.5,1.7c-0.3,0.9-2.4,0.8-3,1.5c-0.7,0.7-1.2,1.3-1.3,2.3L217.2,109.5z"/>
</g>
<g class="st1">
	<path class="st2" d="M1569.5,434.7c-0.9-1-2.1-1.5-3.5-1.9c-1.3-0.4-3.4,0.6-4.5-0.2c-0.3-0.2-0.5-0.4-0.7-0.8s-0.3-0.8-0.5-1.2
		c-0.3-0.9-0.6-1.5-1.3-1.7c-0.6-0.3-1.4-0.2-2.2,0c-0.8,0.2-1.6,0.2-2.1-0.2c-0.5-0.4-1-1-1.3-1.8s-0.6-1.6-1.2-2
		c-0.3-0.2-0.5-0.4-0.9-0.4s-0.8,0.1-1.2,0.2c-0.9,0.3-1.7,0.4-2.2,0c-1.2-0.6-1.3-2.9-2.3-3.7c-1-1-2-1.8-3.3-2l1.3-2.3
		c1,1,2.1,1.5,3.5,1.9c1.3,0.4,3.3-0.5,4.5,0.2c0.6,0.3,0.9,1,1.2,2c0.1,0.4,0.3,0.9,0.5,1.2c0.2,0.4,0.4,0.5,0.8,0.6
		c0.6,0.3,1.4,0.1,2.2,0c0.8-0.2,1.6-0.2,2.1,0.2c0.5,0.4,1,1,1.3,1.8s0.6,1.6,1.2,2c0.5,0.4,1.3,0.4,2.1,0.2
		c0.4-0.1,0.9-0.2,1.2-0.3c0.4,0,0.7,0,1,0.2c1.3,0.5,1.3,2.9,2.3,3.7c1,1,2,1.8,3.3,2L1569.5,434.7z"/>
</g>
<g class="st1">
	<path class="st2" d="M1629.1,457.6c-0.9-1-2.1-1.5-3.5-1.9c-1.3-0.4-3.4,0.6-4.5-0.2c-0.3-0.2-0.5-0.4-0.7-0.8s-0.3-0.8-0.5-1.2
		c-0.3-0.9-0.6-1.5-1.3-1.7c-0.6-0.3-1.4-0.2-2.2,0c-0.8,0.2-1.6,0.2-2.1-0.2c-0.5-0.4-1-1-1.3-1.8s-0.6-1.6-1.2-2
		c-0.3-0.2-0.5-0.4-0.9-0.4s-0.8,0.1-1.2,0.2c-0.9,0.3-1.7,0.4-2.2,0c-1.2-0.6-1.3-2.9-2.3-3.7c-1-1-2-1.8-3.3-2l1.3-2.3
		c1,1,2.1,1.5,3.5,1.9c1.3,0.4,3.3-0.5,4.5,0.2c0.6,0.3,0.9,1,1.2,2c0.1,0.4,0.3,0.9,0.5,1.2c0.2,0.4,0.4,0.5,0.8,0.6
		c0.6,0.3,1.4,0.1,2.2,0c0.8-0.2,1.6-0.2,2.1,0.2c0.5,0.4,1,1,1.3,1.8s0.6,1.6,1.2,2c0.5,0.4,1.3,0.4,2.1,0.2
		c0.4-0.1,0.9-0.2,1.2-0.3c0.4,0,0.7,0,1,0.2c1.3,0.5,1.3,2.9,2.3,3.7c1,1,2,1.8,3.3,2L1629.1,457.6z"/>
</g>
<g class="st1">
	<path class="st2" d="M1577.6,451.2c-1.2,2.1-1.9,4.5-2.3,6.9c-0.6,2.3,0.5,5.4-0.5,7.6c-0.2,0.5-0.5,1.1-1,1.6s-0.9,1-1.4,1.4
		c-1.1,0.9-1.8,2-2,3.1c-0.4,1.2-0.3,2.5-0.2,3.8c0.1,1.3,0.1,2.6-0.3,3.8c-0.4,1.2-1.2,2.1-2.1,3.1s-1.8,1.9-2.3,3
		s-0.6,2.3-0.3,3.8c0.3,1.3,0.3,2.7-0.2,3.8c-0.8,2.3-3.4,3.9-4.4,6.1c-0.5,1.1-1.1,2.1-1.5,3.3s-0.8,2.2-1.1,3.5l-2.5-0.9
		c0.6-1.1,1.1-2.2,1.4-3.4s0.7-2.3,0.9-3.6c0.6-2.3-0.4-5.3,0.5-7.6c0.3-1.2,1.2-2.1,2.2-3c1.1-0.9,1.9-1.9,2.1-3.1
		c0.4-1.2,0.3-2.5,0.2-3.8c-0.1-1.3-0.1-2.6,0.3-3.8c0.4-1.2,1.2-2.1,2.1-3.1s1.8-1.9,2.3-3s0.6-2.3,0.4-3.8c-0.1-0.7-0.2-1.3-0.2-2
		c0-0.6,0.1-1.3,0.3-1.8c0.7-2.3,3.4-3.9,4.4-6.1c1.2-2.1,2.1-4.4,2.6-6.8L1577.6,451.2z"/>
</g>
<g class="st1">
	<path class="st2" d="M1493.1,478.6c2.9,1.6,5.6,2.8,8.3,4.1c2.8,1.2,5.5,2.5,8.3,3.1c1.4,0.4,2.9,0.6,4.4,1.1c1.5,0.4,3,1,4.6,1.8
		c1.5,0.7,3,1.7,4.2,2.8c1.3,1.1,2.5,2.2,3.8,3.2l2.8,2.1l-2.6,1c-2.9,1.1-5.3,3-7.4,5.1c-1.1,1.1-2.1,2.2-3.2,3.3s-2.3,2-3.6,2.8
		c-1.2,0.8-2.6,1.5-4,2.1s-2.9,1.1-4.4,1.6c-2.9,1.1-5.5,2.4-7.8,4.7l-2,2l-0.9-3.5c-0.4-1.5-1-3.1-1.4-4.8c-0.5-1.6-0.6-3.3-0.6-5
		c0-1.6,0.1-3.3,0.3-4.8c0.3-1.5,0.6-3,0.8-4.5c0.5-2.9,0.5-5.9,0.6-8.8C1493.4,484.9,1493.4,481.9,1493.1,478.6z M1494.5,480.9
		c0.1,2.7,0.3,5.7,0.6,8.7c0.4,3,0.6,6,1.5,9.1c0.4,1.5,0.8,3.1,1.3,4.5c0.4,1.4,0.6,2.9,0.8,4.2c0.2,1.3,0.1,2.7-0.3,4
		c-0.3,1.3-0.7,2.8-1,4.2l-2.9-1.5c2.9-1.1,5.3-2.9,7.5-5.1c1.1-1.1,2.1-2.2,3.2-3.3c1.1-1.1,2.3-2,3.6-2.8c1.2-0.8,2.6-1.5,4-2.1
		c1.4-0.5,2.9-1.1,4.4-1.6c2.9-1.1,5.5-2.5,7.8-4.6l0.2,3.2c-1.4-0.4-2.9-0.6-4.2-0.9c-1.3-0.3-2.6-0.7-3.8-1.4
		c-1.2-0.6-2.3-1.4-3.5-2.4s-2.3-2-3.6-3c-2.5-2.1-5.1-3.6-7.7-5.2C1499.6,483.5,1497,482,1494.5,480.9z"/>
</g>
<g class="st1">
	<path class="st2" d="M1510.6,456.7c0-2.4,0.5-4.9,1.5-7.1s2.2-4.4,3.8-6.3c1.6-1.9,3.4-3.7,5.6-5.2s4.9-2.4,7.7-2.4
		c0.7,0,1.3,0.1,2.1,0.2c0.7,0.2,1.3,0.4,2,0.5c0.6,0.3,1.3,0.5,1.9,0.9s1.2,0.7,1.7,1.1c2.1,1.6,3.9,3.3,5.8,4.9
		c1.8,1.7,3.7,3.5,5.2,5.7s2.5,4.9,2.4,7.7c0,2.8-0.9,5.4-2.4,7.7c-1.5,2.2-3.4,4-5.2,5.7c-0.4,0.4-0.9,0.8-1.3,1.3
		c-0.4,0.4-0.9,0.8-1.4,1.3c-0.4,0.4-1,0.8-1.4,1.3c-0.5,0.4-1,0.8-1.5,1.3c-0.5,0.4-1.1,0.8-1.7,1.1c-0.6,0.3-1.2,0.6-1.9,0.9
		c-0.6,0.2-1.3,0.4-2,0.5s-1.3,0.1-2.1,0.2c-2.8,0-5.4-1-7.7-2.5s-4-3.3-5.7-5.2c-1.6-1.9-3-3.9-3.9-6.2
		C1511.2,461.6,1510.7,459.2,1510.6,456.7z M1513.3,456.7c0,2.1,0.4,4.2,1.2,6.2c0.8,2,2.1,3.7,3.7,5.1c1.6,1.3,3.7,2.1,5.6,2.4
		c2,0.3,3.8,0.2,5.6,0.2c0.4,0,0.9-0.1,1.3,0c0.4,0,0.9,0,1.4,0c0.4,0,1,0,1.4,0c0.5,0,1,0,1.5,0c0.5-0.1,1-0.1,1.5-0.2
		s1-0.3,1.5-0.5c0.4-0.3,0.9-0.5,1.3-0.8c0.4-0.4,0.8-0.7,1.2-1.1c1.4-1.5,2.1-3.6,2.4-5.6c0.2-2,0.2-3.8,0.2-5.6
		c0-1.8,0-3.7-0.2-5.6c-0.3-2-1-4-2.4-5.6c-1.3-1.6-3.4-2.5-5.5-2.7c-0.5,0-1-0.1-1.5-0.1s-1,0-1.4,0c-0.4,0.1-1,0.1-1.4,0.1
		s-0.9,0.1-1.3,0c-1.8,0-3.7,0-5.6,0.3c-2,0.3-4,1-5.6,2.3s-2.8,3.1-3.6,5.1C1513.6,452.5,1513.3,454.6,1513.3,456.7z"/>
</g>
<g class="st1">
	<path class="st2" d="M1663.3,371.5c-0.8,1.1-1.1,2.4-1.1,3.8c-0.2,1.3,1.3,3.2,0.6,4.4c-0.1,0.3-0.4,0.5-0.6,0.8
		c-0.4,0.3-0.7,0.4-1.2,0.6c-0.8,0.4-1.4,0.9-1.5,1.5c-0.2,0.6,0.1,1.4,0.4,2.2c0.3,0.8,0.5,1.5,0.2,2.1c-0.2,0.6-0.8,1.1-1.5,1.5
		s-1.4,0.9-1.7,1.4c-0.2,0.3-0.3,0.6-0.2,1c0,0.4,0.2,0.8,0.5,1.2c0.4,0.9,0.7,1.6,0.4,2.2c-0.4,1.3-2.7,1.8-3.3,3
		c-0.8,1.1-1.3,2.3-1.4,3.7l-2.5-0.9c0.8-1.1,1.1-2.4,1.2-3.8c0.3-1.3-1.1-3.2-0.6-4.4c0.1-0.6,0.8-1.1,1.7-1.4
		c0.4-0.2,0.8-0.4,1.1-0.6s0.4-0.5,0.4-0.9c0.2-0.6-0.1-1.4-0.4-2.2c-0.3-0.8-0.5-1.5-0.2-2.1c0.2-0.6,0.8-1.1,1.5-1.5
		s1.4-0.9,1.7-1.4c0.4-0.5,0.3-1.3-0.2-2.1c-0.2-0.4-0.4-0.8-0.5-1.2c-0.1-0.4-0.1-0.7,0-1.1c0.3-1.3,2.7-1.8,3.3-3
		c0.8-1.1,1.4-2.2,1.5-3.7L1663.3,371.5z"/>
</g>
<g class="st1">
	<path class="st2" d="M1647.4,423.3c1.2,1.4,2.7,2.4,4.3,3.2c1.6,0.9,4.2,0.4,5.5,1.7c0.4,0.3,0.6,0.6,0.8,1.1s0.4,1,0.5,1.5
		c0.3,1.1,0.8,1.9,1.6,2.4c0.7,0.5,1.8,0.6,2.9,0.8c1.1,0.1,2,0.4,2.7,1c0.7,0.5,1.2,1.4,1.5,2.4c0.4,1,0.7,2,1.4,2.6
		c0.4,0.4,0.7,0.5,1.2,0.7c0.4,0.2,1,0.2,1.5,0.2c1.2,0,2.1,0.2,2.8,0.8c1.4,1.1,1.7,3.7,3,5c1.2,1.4,2.5,2.7,4.1,3.5l-1.6,2.1
		c-1.2-1.4-2.7-2.4-4.3-3.2c-1.5-1-4.1-0.6-5.5-1.7c-0.8-0.4-1.2-1.4-1.4-2.6c-0.2-0.5-0.3-1.1-0.5-1.4c-0.3-0.4-0.5-0.7-1-1
		c-0.7-0.5-1.8-0.6-2.9-0.8c-1.1-0.1-2-0.4-2.7-1c-0.7-0.5-1.2-1.4-1.5-2.4c-0.4-1-0.7-2-1.4-2.6c-0.6-0.6-1.5-1-2.7-1
		c-0.5-0.1-1.1-0.1-1.6-0.2s-0.9-0.3-1.3-0.5c-1.5-1-1.7-3.7-3-5c-1.2-1.4-2.5-2.7-4.1-3.5L1647.4,423.3z"/>
</g>
<g class="st1">
	<path class="st2" d="M1516.4,496.4c-0.6,0.7-0.8,1.6-0.8,2.5c-0.1,0.9,1.5,2.4,1.1,3.2c-0.1,0.4-0.8,0.6-1.6,0.8
		c-0.2,0.1-0.4,0.1-0.5,0.2c-0.2,0.1-0.3,0.1-0.4,0.2c-0.3,0.2-0.4,0.4-0.4,0.5c-0.2,0.9,1.4,2.4,1.1,3.2c-0.2,0.9-2.4,1-2.9,1.8
		c-0.1,0.2-0.2,0.4-0.1,0.7c0.1,0.3,0.3,0.5,0.5,0.9c0.5,0.6,0.8,1.2,0.6,1.6c-0.3,0.8-2.3,1-2.9,1.8c-0.6,0.7-1.1,1.4-1.1,2.4
		l-2.5-0.9c0.6-0.7,0.8-1.6,0.8-2.5c0.1-0.9-1.3-2.3-1.1-3.2c0.1-0.4,0.7-0.7,1.5-0.9c0.4-0.1,0.7-0.2,1-0.4
		c0.3-0.2,0.4-0.4,0.4-0.5c0.2-0.9-1.4-2.4-1.1-3.2c0.2-0.9,2.4-1,2.9-1.8c0.1-0.2,0.2-0.4,0.1-0.6c0-0.1-0.1-0.3-0.2-0.4
		s-0.2-0.3-0.3-0.4c-0.4-0.6-0.8-1.2-0.6-1.6c0.2-0.9,2.3-1,2.9-1.8c0.6-0.7,1.1-1.4,1.1-2.4L1516.4,496.4z"/>
</g>
<g class="st1">
	<path class="st2" d="M1620.5,467.5c0.2,2.9,0.5,5.5,0.9,8.2c0.2,1.3,0.4,2.6,0.6,3.9c0.3,1.3,0.5,2.6,0.9,3.8c0.8,2.4,2,5,2.4,7.8
		c0.3,1.4,0.4,2.9,0.3,4.4s-0.3,2.9-0.6,4.4l-0.8,4.9l-2.5-2.8c-2.2-2.3-4.8-3.8-7.8-4.8c-1.5-0.4-3-0.9-4.6-1.3
		c-1.5-0.4-2.9-1.1-4.2-1.9c-1.3-0.8-2.6-1.7-3.8-2.8c-1.2-1.1-2.2-2.2-3.4-3.2c-1.2-1.1-2.4-2-3.8-2.7c-1.3-0.7-2.9-1.2-4.4-1.6
		l-3.7-0.8l3.8-3.3c1.1-1,2.2-2,3.5-2.8c1.2-0.8,2.6-1.4,3.9-1.9c2.8-1,5.5-1.3,8-1.8c1.2-0.3,2.5-0.6,3.7-1.2
		c1.2-0.5,2.5-0.9,3.7-1.4C1615.5,469.9,1618,468.8,1620.5,467.5z M1619.3,469.9c-2.2,0.9-4.5,2.1-6.9,3.3c-1.2,0.6-2.3,1.3-3.5,2
		c-1.2,0.6-2.3,1.3-3.5,2.2c-2.3,1.6-4.3,3.6-6.4,4.8c-1.1,0.6-2,1.2-3.2,1.4s-2.4,0.5-3.7,0.5l0.2-4.1c1.1,1.2,2.2,2.2,3.6,3
		s2.7,1.4,4.2,1.9c1.5,0.4,3,0.9,4.6,1.3c1.5,0.4,2.9,1.1,4.2,1.9c1.3,0.8,2.6,1.7,3.8,2.8c1.2,1.1,2.2,2.2,3.4,3.2
		c2.3,2,5,3.6,8.1,4.3l-3.4,2.2c-0.5-1.2-1.1-2.3-1.4-3.5c-0.4-1.2-0.5-2.3-0.5-3.5c-0.1-2.4,0.6-5.1,1-7.9c0.2-1.4,0.2-2.8,0.2-4.1
		c0-1.3,0-2.7-0.1-4C1619.8,474.8,1619.6,472.2,1619.3,469.9z"/>
</g>
<g class="st1">
	<path class="st2" d="M1698.7,395.5c2.9,1.6,5.6,2.8,8.3,4.1c2.8,1.2,5.5,2.5,8.3,3.1c1.4,0.4,2.9,0.6,4.4,1.1c1.5,0.4,3,1,4.6,1.8
		c1.5,0.7,3,1.7,4.2,2.8c1.3,1.1,2.5,2.2,3.8,3.2l2.8,2.1l-2.6,1c-2.9,1.1-5.3,3-7.4,5.1c-1.1,1.1-2.1,2.2-3.2,3.3s-2.3,2-3.6,2.8
		c-1.2,0.8-2.6,1.5-4,2.1s-2.9,1.1-4.4,1.6c-2.9,1.1-5.5,2.4-7.8,4.7l-2,2l-0.9-3.5c-0.4-1.5-1-3.1-1.4-4.8c-0.5-1.6-0.6-3.3-0.6-5
		c0-1.6,0.1-3.3,0.3-4.8c0.3-1.5,0.6-3,0.8-4.5c0.5-2.9,0.5-5.9,0.6-8.8C1698.9,401.8,1698.9,398.8,1698.7,395.5z M1700.1,397.7
		c0.1,2.7,0.3,5.7,0.6,8.7c0.4,3,0.6,6,1.5,9.1c0.4,1.5,0.8,3.1,1.3,4.5c0.4,1.4,0.6,2.9,0.8,4.2c0.2,1.3,0.1,2.7-0.3,4
		c-0.3,1.3-0.7,2.8-1,4.2l-2.9-1.5c2.9-1.1,5.3-2.9,7.5-5.1c1.1-1.1,2.1-2.2,3.2-3.3c1.1-1.1,2.3-2,3.6-2.8c1.2-0.8,2.6-1.5,4-2.1
		c1.4-0.5,2.9-1.1,4.4-1.6c2.9-1.1,5.5-2.5,7.8-4.6l0.2,3.2c-1.4-0.4-2.9-0.6-4.2-0.9c-1.3-0.3-2.6-0.7-3.8-1.4
		c-1.2-0.6-2.3-1.4-3.5-2.4s-2.3-2-3.6-3c-2.5-2.1-5.1-3.6-7.7-5.2C1705.1,400.4,1702.5,399,1700.1,397.7z"/>
</g>
<g class="st1">
	<path class="st2" d="M1598.5,412.8c0-1.9,0.4-3.8,1.1-5.4c0.7-1.7,1.7-3.3,2.9-4.8c1.2-1.4,2.6-3,4.3-4.3c1.7-1.3,3.8-2.2,6-2.1
		c0.5,0,1.1,0.1,1.6,0.2s1.1,0.3,1.5,0.4c0.5,0.2,1,0.4,1.4,0.8c0.4,0.3,0.9,0.6,1.3,1c1.6,1.4,3,2.7,4.4,3.9s3,2.6,4.2,4.3
		c1.3,1.7,2.2,3.8,2.2,6c0,2.1-0.8,4.4-2.1,6c-1.3,1.7-2.8,3-4.2,4.3c-0.4,0.3-0.7,0.6-1.1,1c-0.4,0.3-0.7,0.6-1.1,1
		s-0.7,0.7-1.1,1.1s-0.7,0.7-1.2,1.1c-0.4,0.4-0.8,0.6-1.3,1c-0.4,0.3-1,0.5-1.4,0.7c-0.5,0.2-1.1,0.4-1.6,0.5s-1.1,0.1-1.6,0.1
		c-2.1,0-4.3-0.9-6-2.1s-3-2.8-4.3-4.2c-1.3-1.5-2.2-3-3-4.8C1599,416.6,1598.6,414.7,1598.5,412.8z M1601.2,412.8
		c0,1.5,0.3,3,0.8,4.6c0.5,1.4,1.5,2.8,2.7,3.7c1.2,1,2.8,1.4,4.2,1.4s2.8-0.2,4-0.2c1.2-0.1,2.5,0.2,4,0.3c0.4,0,0.8,0,1.2,0
		c0.4-0.1,0.7-0.2,1.2-0.3c0.4-0.2,0.7-0.4,1-0.5c0.3-0.3,0.5-0.5,0.8-0.8c1-1.2,1.4-2.8,1.4-4.2c0-1.5-0.2-2.8-0.1-4
		c0-1.2,0.1-2.5,0.1-4c0-1.4-0.5-3-1.4-4.2s-2.5-1.8-4.1-1.7c-0.4,0-0.7,0-1.2,0.1c-0.4,0.1-0.7,0.1-1.1,0.2s-0.6,0.1-1,0.1
		c-0.4,0.1-0.6,0.1-1,0c-1.3,0-2.5-0.1-4-0.1c-1.4,0-3,0.5-4.2,1.4c-1.2,1-2.1,2.2-2.8,3.7C1601.5,409.7,1601.2,411.3,1601.2,412.8z
		"/>
</g>
<g class="st1">
	<path class="st2" d="M958.8,542.8c1,0.9,2.2,1.3,3.7,1.6c1.3,0.3,3.3-0.9,4.5-0.2c0.3,0.2,0.5,0.4,0.8,0.7s0.4,0.8,0.6,1.2
		c0.4,0.9,0.7,1.4,1.4,1.6c0.6,0.2,1.4,0.1,2.2-0.2s1.6-0.3,2.1,0c0.5,0.4,1.1,0.9,1.5,1.7c0.4,0.8,0.7,1.5,1.4,1.9
		c0.3,0.2,0.5,0.4,0.9,0.3c0.4,0,0.8-0.2,1.2-0.3c0.9-0.4,1.7-0.5,2.2-0.2c1.2,0.5,1.5,2.8,2.6,3.5c1.1,0.9,2.2,1.6,3.5,1.7
		l-1.1,2.4c-1.1-0.9-2.2-1.3-3.7-1.6c-1.3-0.3-3.2,0.8-4.5,0.2c-0.6-0.2-1-0.9-1.4-1.9c-0.1-0.4-0.4-0.9-0.6-1.2
		c-0.2-0.4-0.4-0.5-0.8-0.5c-0.6-0.2-1.4,0-2.2,0.2c-0.8,0.3-1.6,0.3-2.1,0c-0.5-0.4-1.1-0.9-1.5-1.7c-0.4-0.8-0.7-1.5-1.4-1.9
		c-0.5-0.4-1.3-0.3-2.1,0c-0.4,0.1-0.9,0.3-1.2,0.4c-0.4,0-0.7,0.1-1-0.1c-1.3-0.4-1.5-2.8-2.6-3.5c-1.1-0.9-2.2-1.6-3.5-1.7
		L958.8,542.8z"/>
</g>
<g class="st1">
	<path class="st2" d="M1031.1,492.3c-3-1.3-5.8-2.3-8.6-3.4c-2.9-0.9-5.7-2-8.5-2.4c-1.4-0.3-2.9-0.3-4.5-0.7
		c-1.5-0.3-3.1-0.7-4.7-1.4c-1.6-0.6-3.1-1.4-4.4-2.4c-1.4-1-2.7-2-4.1-2.9l-3-1.8l2.5-1.2c2.8-1.4,5-3.5,6.9-5.7
		c1-1.2,1.9-2.4,2.9-3.6c1-1.2,2.1-2.2,3.3-3.1c1.2-0.9,2.5-1.7,3.8-2.4c1.4-0.6,2.8-1.4,4.2-2c2.8-1.4,5.3-2.9,7.4-5.4l1.8-2.2
		l1.2,3.4c0.5,1.5,1.3,3,1.8,4.7c0.6,1.5,0.9,3.2,1,4.9c0.1,1.6,0.2,3.3,0.1,4.8c-0.2,1.5-0.3,3-0.4,4.6c-0.2,2.9,0,5.9,0.2,8.8
		C1030.2,486.2,1030.5,489.1,1031.1,492.3z M1029.4,490.3c-0.3-2.7-0.8-5.7-1.4-8.6c-0.7-3-1.1-5.9-2.3-8.9c-0.5-1.5-1.1-3-1.7-4.4
		c-0.5-1.4-0.9-2.8-1.2-4.1c-0.3-1.3-0.3-2.7-0.1-4c0.2-1.3,0.5-2.9,0.6-4.3l3,1.2c-2.8,1.4-5,3.4-7,5.7c-1,1.2-1.9,2.4-2.9,3.6
		c-1,1.2-2.1,2.2-3.3,3.1c-1.1,0.9-2.5,1.7-3.8,2.4c-1.4,0.6-2.8,1.4-4.2,2c-2.8,1.4-5.3,3-7.4,5.3l-0.5-3.2
		c1.4,0.3,2.9,0.3,4.3,0.5c1.3,0.2,2.7,0.5,3.9,1.1c1.2,0.5,2.4,1.2,3.7,2.1c1.3,0.9,2.5,1.8,3.8,2.7c2.7,1.9,5.4,3.1,8.1,4.5
		C1024.1,488.1,1026.8,489.4,1029.4,490.3z"/>
</g>
<g class="st1">
	<path class="st2" d="M1022.4,521.5c0.2,2.4-0.1,4.9-0.9,7.2c-0.8,2.3-1.8,4.6-3.2,6.6s-3.1,4-5.1,5.7c-2.1,1.7-4.7,2.8-7.5,3.1
		c-0.7,0.1-1.3,0-2.1,0c-0.7-0.1-1.3-0.3-2-0.3c-0.6-0.2-1.3-0.4-2-0.7c-0.6-0.3-1.3-0.6-1.8-0.9c-2.2-1.4-4.2-2.9-6.2-4.4
		c-1.9-1.5-4-3.2-5.7-5.2s-2.9-4.7-3.1-7.5c-0.2-2.8,0.4-5.5,1.7-7.9c1.3-2.3,3-4.3,4.7-6.1c0.4-0.4,0.8-0.9,1.2-1.4
		c0.4-0.4,0.8-0.9,1.3-1.4c0.4-0.4,0.9-0.9,1.3-1.4c0.5-0.4,0.9-0.9,1.4-1.4c0.5-0.4,1-0.9,1.6-1.2c0.6-0.4,1.1-0.7,1.8-1.1
		c0.6-0.3,1.3-0.5,1.9-0.7c0.7-0.2,1.3-0.2,2.1-0.4c2.8-0.2,5.5,0.5,7.9,1.8s4.3,2.9,6.1,4.7c1.8,1.8,3.3,3.6,4.4,5.8
		C1021.4,516.6,1022.1,519.1,1022.4,521.5z M1019.7,521.7c-0.2-2.1-0.8-4.1-1.7-6.1s-2.4-3.5-4.1-4.8c-1.7-1.2-3.9-1.8-5.8-1.9
		c-2-0.1-3.8,0.1-5.6,0.3c-0.4,0-0.9,0.2-1.3,0.1c-0.4,0-0.9,0.1-1.4,0.1c-0.4,0-1,0.1-1.4,0.1c-0.5,0-1,0.1-1.5,0.1
		c-0.5,0.1-1,0.2-1.5,0.3c-0.5,0.1-1,0.4-1.5,0.6c-0.4,0.3-0.9,0.6-1.2,0.9c-0.4,0.4-0.7,0.8-1.1,1.2c-1.3,1.6-1.8,3.8-1.9,5.8
		c0,2,0.1,3.8,0.3,5.6c0.2,1.8,0.3,3.7,0.7,5.6c0.5,2,1.3,3.9,2.9,5.4c1.4,1.5,3.6,2.2,5.7,2.2c0.5,0,1,0,1.5,0c0.5,0,1-0.1,1.4-0.1
		c0.4-0.1,1-0.2,1.4-0.2c0.4,0,0.9-0.2,1.3-0.1c1.8-0.2,3.7-0.3,5.6-0.8c2-0.5,3.9-1.3,5.4-2.8c1.5-1.4,2.5-3.3,3.1-5.4
		C1019.8,525.9,1019.9,523.9,1019.7,521.7z"/>
</g>
<g class="st1">
	<path class="st2" d="M1462.2,472.9c-0.8,1.1-1.1,2.4-1.1,3.8c-0.2,1.3,1.3,3.2,0.6,4.4c-0.1,0.3-0.4,0.5-0.6,0.8
		c-0.4,0.3-0.7,0.4-1.2,0.6c-0.8,0.4-1.4,0.9-1.5,1.5c-0.2,0.6,0.1,1.4,0.4,2.2c0.3,0.8,0.5,1.5,0.2,2.1c-0.2,0.6-0.8,1.1-1.5,1.5
		s-1.4,0.9-1.7,1.4c-0.2,0.3-0.3,0.6-0.2,1c0,0.4,0.2,0.8,0.5,1.2c0.4,0.9,0.7,1.6,0.4,2.2c-0.4,1.3-2.7,1.8-3.3,3
		c-0.8,1.1-1.3,2.3-1.4,3.7l-2.5-0.9c0.8-1.1,1.1-2.4,1.2-3.8c0.3-1.3-1.1-3.2-0.6-4.4c0.1-0.6,0.8-1.1,1.7-1.4
		c0.4-0.2,0.8-0.4,1.1-0.6c0.3-0.3,0.4-0.5,0.4-0.9c0.2-0.6-0.1-1.4-0.4-2.2c-0.3-0.8-0.5-1.5-0.2-2.1c0.2-0.6,0.8-1.1,1.5-1.5
		s1.4-0.9,1.7-1.4c0.4-0.5,0.3-1.3-0.2-2.1c-0.2-0.4-0.4-0.8-0.5-1.2c-0.1-0.4-0.1-0.7,0-1.1c0.3-1.3,2.7-1.8,3.3-3
		c0.8-1.1,1.4-2.2,1.5-3.7L1462.2,472.9z"/>
</g>
<g class="st1">
	<path class="st2" d="M1435.2,409c-0.8,1.1-1.1,2.4-1.1,3.8c-0.2,1.3,1.3,3.2,0.6,4.4c-0.1,0.3-0.4,0.5-0.6,0.8
		c-0.4,0.3-0.7,0.4-1.2,0.6c-0.8,0.4-1.4,0.9-1.5,1.5c-0.2,0.6,0.1,1.4,0.4,2.2c0.3,0.8,0.5,1.5,0.2,2.1c-0.2,0.6-0.8,1.1-1.5,1.5
		c-0.7,0.4-1.4,0.9-1.7,1.4c-0.2,0.3-0.3,0.6-0.2,1c0,0.4,0.2,0.8,0.5,1.2c0.4,0.9,0.7,1.6,0.4,2.2c-0.4,1.3-2.7,1.8-3.3,3
		c-0.8,1.1-1.3,2.3-1.4,3.7l-2.5-0.9c0.8-1.1,1.1-2.4,1.2-3.8c0.3-1.3-1.1-3.2-0.6-4.4c0.1-0.6,0.8-1.1,1.7-1.4
		c0.4-0.2,0.8-0.4,1.1-0.6s0.4-0.5,0.4-0.9c0.2-0.6-0.1-1.4-0.4-2.2c-0.3-0.8-0.5-1.5-0.2-2.1c0.2-0.6,0.8-1.1,1.5-1.5
		c0.7-0.4,1.4-0.9,1.7-1.4c0.4-0.5,0.3-1.3-0.2-2.1c-0.2-0.4-0.4-0.8-0.5-1.2s-0.1-0.7,0-1.1c0.3-1.3,2.7-1.8,3.3-3
		c0.8-1.1,1.4-2.2,1.5-3.7L1435.2,409z"/>
</g>
<g class="st1">
	<path class="st2" d="M1517.2,421c-0.4-1.3-1.3-2.3-2.2-3.2c-0.9-1-3.3-1-3.8-2.1c-0.2-0.3-0.3-0.6-0.3-1s0.1-0.8,0.2-1.3
		c0.2-0.9,0.2-1.6-0.4-2.1c-0.4-0.5-1.3-0.8-2.1-1.1c-0.8-0.3-1.5-0.6-1.9-1.2s-0.4-1.3-0.3-2.1s0.2-1.7-0.1-2.2
		c-0.2-0.3-0.4-0.5-0.6-0.7c-0.3-0.2-0.7-0.3-1.2-0.4c-0.9-0.2-1.7-0.4-2-1.1c-0.7-1.1,0.2-3.2-0.4-4.5c-0.5-1.2-1-2.5-2-3.4
		l2.2-1.4c0.4,1.3,1.3,2.3,2.2,3.2c0.9,1,3.2,1.1,3.8,2.1c0.4,0.5,0.4,1.3,0.1,2.2c-0.1,0.4-0.2,0.9-0.2,1.3s0.2,0.6,0.4,0.9
		c0.4,0.5,1.3,0.8,2.1,1.1c0.8,0.3,1.5,0.6,1.9,1.2c0.4,0.5,0.4,1.3,0.3,2.1s-0.2,1.7,0.1,2.2c0.3,0.6,0.9,1,1.8,1.2
		c0.4,0.1,0.9,0.2,1.3,0.4c0.4,0.2,0.6,0.4,0.8,0.6c0.8,1-0.2,3.2,0.4,4.5c0.5,1.2,1,2.5,2,3.4L1517.2,421z"/>
</g>
<g class="st1">
	<path class="st2" d="M1394,446.9c1.5,1.1,3.2,1.6,5,2.1c1.8,0.4,4.1-0.7,5.8,0.2c0.4,0.1,0.8,0.5,1,0.8c0.3,0.4,0.6,0.9,0.9,1.3
		c0.6,1,1.2,1.6,2.2,1.9c0.9,0.3,1.9,0.2,3,0c1.1-0.1,2-0.1,2.8,0.3c0.9,0.3,1.5,1.1,2.1,1.9c0.6,0.9,1.2,1.7,2,2.2
		c0.4,0.3,0.9,0.3,1.3,0.4c0.4,0.1,1-0.1,1.6-0.2c1.2-0.3,2.2-0.4,2.9,0.1c1.7,0.7,2.6,3.2,4.1,4.1c1.5,1.1,3.2,1.9,4.8,2.3
		l-1.1,2.4c-1.5-1.1-3.2-1.6-5-2.1c-1.7-0.5-4.1,0.4-5.8-0.2c-0.9-0.2-1.5-1.1-2-2.2c-0.3-0.4-0.6-1-0.8-1.3
		c-0.4-0.4-0.7-0.6-1.2-0.7c-0.9-0.3-1.9-0.2-3,0c-1.1,0.1-2,0.1-2.8-0.3c-0.9-0.3-1.5-1.1-2.1-1.9c-0.6-0.9-1.2-1.7-2-2.2
		c-0.8-0.5-1.7-0.5-2.8-0.3c-0.5,0-1.1,0.1-1.6,0.3c-0.5,0-0.9,0-1.3-0.2c-1.7-0.5-2.6-3.1-4.1-4.1c-1.5-1.1-3.2-1.9-4.8-2.3
		L1394,446.9z"/>
</g>
<g class="st1">
	<path class="st2" d="M1420.4,495.9c0.2,2.9,0.5,5.5,0.9,8.2c0.2,1.3,0.4,2.6,0.6,3.9c0.3,1.3,0.5,2.6,0.9,3.8c0.8,2.4,2,5,2.4,7.8
		c0.3,1.4,0.4,2.9,0.3,4.4s-0.3,2.9-0.6,4.4l-0.8,4.9l-2.5-2.8c-2.2-2.3-4.8-3.8-7.8-4.8c-1.5-0.4-3-0.9-4.6-1.3
		c-1.5-0.4-2.9-1.1-4.2-1.9c-1.3-0.8-2.6-1.7-3.8-2.8c-1.2-1.1-2.2-2.2-3.4-3.2c-1.2-1.1-2.4-2-3.8-2.7c-1.3-0.7-2.9-1.2-4.4-1.6
		l-3.7-0.8l3.8-3.3c1.1-1,2.2-2,3.5-2.8c1.2-0.8,2.6-1.4,3.9-1.9c2.8-1,5.5-1.3,8-1.8c1.2-0.3,2.5-0.6,3.7-1.2
		c1.2-0.5,2.5-0.9,3.7-1.4C1415.4,498.2,1417.8,497.1,1420.4,495.9z M1419.1,498.1c-2.2,0.9-4.5,2.1-6.9,3.3c-1.2,0.6-2.3,1.3-3.5,2
		c-1.2,0.6-2.3,1.3-3.5,2.2c-2.3,1.6-4.3,3.6-6.4,4.8c-1.1,0.6-2,1.2-3.2,1.4c-1.2,0.3-2.4,0.5-3.7,0.5l0.2-4.1
		c1.1,1.2,2.2,2.2,3.6,3c1.4,0.8,2.7,1.4,4.2,1.9c1.5,0.4,3,0.9,4.6,1.3c1.5,0.4,2.9,1.1,4.2,1.9c1.3,0.8,2.6,1.7,3.8,2.8
		c1.2,1.1,2.2,2.2,3.4,3.2c2.3,2,5,3.6,8.1,4.3l-3.4,2.2c-0.5-1.2-1.1-2.3-1.4-3.5c-0.4-1.2-0.5-2.3-0.5-3.5c-0.1-2.4,0.6-5.1,1-7.9
		c0.2-1.4,0.2-2.8,0.2-4.1c0-1.3,0-2.7-0.1-4C1419.6,503.1,1419.4,500.5,1419.1,498.1z"/>
</g>
<g class="st1">
	<path class="st2" d="M1458.1,408.7c2.9,1.6,5.6,2.8,8.3,4.1c2.8,1.2,5.5,2.5,8.3,3.1c1.4,0.4,2.9,0.6,4.4,1.1c1.5,0.4,3,1,4.6,1.8
		c1.5,0.7,3,1.7,4.2,2.8c1.3,1.1,2.5,2.2,3.8,3.2l2.8,2.1l-2.6,1c-2.9,1.1-5.3,3-7.4,5.1c-1.1,1.1-2.1,2.2-3.2,3.3s-2.3,2-3.6,2.8
		c-1.2,0.8-2.6,1.5-4,2.1c-1.4,0.5-2.9,1.1-4.4,1.6c-2.9,1.1-5.5,2.4-7.8,4.7l-2,2l-0.9-3.5c-0.4-1.5-1-3.1-1.4-4.8
		c-0.5-1.6-0.6-3.3-0.6-5c0-1.6,0.1-3.3,0.3-4.8c0.3-1.5,0.6-3,0.8-4.5c0.5-2.9,0.5-5.9,0.6-8.8
		C1458.3,414.9,1458.3,411.9,1458.1,408.7z M1459.6,410.9c0.1,2.7,0.3,5.7,0.6,8.7c0.4,3,0.6,6,1.5,9.1c0.4,1.5,0.8,3.1,1.3,4.5
		c0.4,1.4,0.6,2.9,0.8,4.2c0.2,1.3,0.1,2.7-0.3,4c-0.3,1.3-0.7,2.8-1,4.2l-2.9-1.5c2.9-1.1,5.3-2.9,7.5-5.1c1.1-1.1,2.1-2.2,3.2-3.3
		c1.1-1.1,2.3-2,3.6-2.8c1.2-0.8,2.6-1.5,4-2.1c1.4-0.5,2.9-1.1,4.4-1.6c2.9-1.1,5.5-2.5,7.8-4.6l0.2,3.2c-1.4-0.4-2.9-0.6-4.2-0.9
		s-2.6-0.7-3.8-1.4c-1.2-0.6-2.3-1.4-3.5-2.4s-2.3-2-3.6-3c-2.5-2.1-5.1-3.6-7.7-5.2C1464.6,413.5,1462,412,1459.6,410.9z"/>
</g>
<g class="st1">
	<path class="st2" d="M1744.9,491.6c1.2-0.6,1.9-1.7,2.6-3c0.7-1.2,0.2-3.4,1.2-4.3c0.3-0.2,0.5-0.4,0.9-0.5s0.8-0.1,1.3-0.2
		c0.9-0.1,1.6-0.2,2-0.9c0.4-0.5,0.5-1.3,0.5-2.1c0-0.8,0.2-1.6,0.7-2c0.5-0.4,1.2-0.7,2-0.9c0.8-0.1,1.7-0.2,2.2-0.7
		c0.3-0.2,0.5-0.4,0.6-0.8c0.1-0.4,0.1-0.8,0.1-1.2c-0.1-0.9,0-1.7,0.5-2.1c0.9-1,3.1-0.6,4.1-1.4c1.2-0.7,2.2-1.5,2.7-2.8l1.9,1.8
		c-1.2,0.7-1.9,1.7-2.6,3c-0.7,1.2-0.3,3.3-1.2,4.3c-0.4,0.5-1.2,0.6-2.2,0.7c-0.4,0-0.9,0.1-1.3,0.2c-0.4,0.1-0.6,0.3-0.8,0.6
		c-0.4,0.5-0.4,1.3-0.5,2.1c0,0.8-0.2,1.6-0.7,2c-0.5,0.4-1.2,0.7-2,0.9c-0.8,0.1-1.7,0.2-2.2,0.7c-0.5,0.4-0.7,1.2-0.7,2
		c0,0.4,0,0.9,0,1.2c-0.1,0.4-0.2,0.7-0.4,0.9c-0.8,1.2-3.1,0.6-4.1,1.4c-1.2,0.7-2.2,1.5-2.7,2.8L1744.9,491.6z"/>
</g>
<g class="st1">
	<path class="st2" d="M1884.5,418.4c0-1.8,0.3-3.6,1.1-5.2c0.7-1.6,1.6-3.1,2.8-4.6c1.2-1.3,2.4-2.9,4-4.1c1.6-1.3,3.7-2.1,5.7-2.1
		c0.5,0,1.1,0.1,1.5,0.2c0.5,0.1,1,0.3,1.5,0.4c0.4,0.2,0.9,0.4,1.3,0.7c0.4,0.3,0.8,0.6,1.3,0.9c1.5,1.3,2.8,2.6,4.1,3.8
		c1.3,1.2,2.8,2.4,4,4s2.1,3.7,2.1,5.7c0,2.1-0.8,4.1-2,5.7s-2.7,2.9-4,4c-0.4,0.3-0.7,0.6-1,0.9c-0.4,0.3-0.6,0.6-1,1
		c-0.4,0.3-0.7,0.6-1,1c-0.4,0.4-0.7,0.7-1.1,1.1c-0.4,0.3-0.8,0.6-1.2,1c-0.4,0.3-0.9,0.5-1.3,0.7s-1,0.4-1.5,0.5s-1.1,0.1-1.5,0.1
		c-2.1,0-4.1-0.9-5.7-2c-1.6-1.2-2.9-2.7-4-4c-1.2-1.4-2.1-2.9-2.8-4.5C1884.8,422,1884.5,420.2,1884.5,418.4z M1887.1,418.4
		c0,1.4,0.3,2.9,0.7,4.2c0.5,1.3,1.4,2.6,2.6,3.4c1.1,0.9,2.6,1.3,3.9,1.3s2.6-0.2,3.7-0.2c1.2-0.1,2.3,0.2,3.8,0.3
		c0.4,0,0.7,0,1.1,0s0.7-0.2,1.1-0.3c0.4-0.2,0.6-0.3,1-0.5c0.3-0.2,0.5-0.4,0.8-0.7c1-1.1,1.3-2.6,1.2-3.9c0-1.4-0.2-2.6-0.2-3.7
		c0-1.2,0.2-2.3,0.2-3.7c0-1.3-0.4-2.9-1.3-3.9s-2.4-1.6-3.8-1.5c-0.4,0-0.7,0.1-1.1,0.1c-0.4,0.1-0.6,0.1-1,0.2s-0.6,0.1-0.9,0.1
		c-0.3,0.1-0.6,0.1-0.9,0c-1.2,0-2.3-0.1-3.7-0.2c-1.3,0-2.9,0.4-4,1.3c-1.2,0.9-2,2.1-2.6,3.4C1887.3,415.6,1887,417,1887.1,418.4z
		"/>
</g>
<g class="st1">
	<path class="st2" d="M1863.4,426.7c-0.8,1.1-1.1,2.4-1.1,3.8c-0.2,1.3,1.3,3.2,0.6,4.4c-0.1,0.3-0.4,0.5-0.6,0.8
		c-0.4,0.3-0.7,0.4-1.2,0.6c-0.8,0.4-1.4,0.9-1.5,1.5c-0.2,0.6,0.1,1.4,0.4,2.2c0.3,0.8,0.5,1.5,0.2,2.1c-0.2,0.6-0.8,1.1-1.5,1.5
		s-1.4,0.9-1.7,1.4c-0.2,0.3-0.3,0.6-0.2,1c0,0.4,0.2,0.8,0.5,1.2c0.4,0.9,0.7,1.6,0.4,2.2c-0.4,1.3-2.7,1.8-3.3,3
		c-0.8,1.1-1.3,2.3-1.4,3.7l-2.5-0.9c0.8-1.1,1.1-2.4,1.2-3.8c0.3-1.3-1.1-3.2-0.6-4.4c0.1-0.6,0.8-1.1,1.7-1.4
		c0.4-0.2,0.8-0.4,1.1-0.6c0.3-0.3,0.4-0.5,0.4-0.9c0.2-0.6-0.1-1.4-0.4-2.2c-0.3-0.8-0.5-1.5-0.2-2.1c0.2-0.6,0.8-1.1,1.5-1.5
		s1.4-0.9,1.7-1.4c0.4-0.5,0.3-1.3-0.2-2.1c-0.2-0.4-0.4-0.8-0.5-1.2c-0.1-0.4-0.1-0.7,0-1.1c0.3-1.3,2.7-1.8,3.3-3
		c0.8-1.1,1.4-2.2,1.5-3.7L1863.4,426.7z"/>
</g>
<g class="st1">
	<path class="st2" d="M1847.6,478.6c1.2,1.4,2.7,2.4,4.3,3.2c1.6,0.9,4.2,0.4,5.5,1.7c0.4,0.3,0.6,0.6,0.8,1.1s0.4,1,0.5,1.5
		c0.3,1.1,0.8,1.9,1.6,2.4c0.7,0.5,1.8,0.6,2.9,0.8c1.1,0.1,2,0.4,2.7,1c0.7,0.5,1.2,1.4,1.5,2.4c0.4,1,0.7,2,1.4,2.6
		c0.4,0.4,0.7,0.5,1.2,0.7c0.4,0.2,1,0.2,1.5,0.2c1.2,0,2.1,0.2,2.8,0.8c1.4,1.1,1.7,3.7,3,5c1.2,1.4,2.5,2.7,4.1,3.5l-1.6,2.1
		c-1.2-1.4-2.7-2.4-4.3-3.2c-1.5-1-4.1-0.6-5.5-1.7c-0.8-0.4-1.2-1.4-1.4-2.6c-0.2-0.5-0.3-1.1-0.5-1.4c-0.3-0.4-0.5-0.7-1-1
		c-0.7-0.5-1.8-0.6-2.9-0.8c-1.1-0.1-2-0.4-2.7-1c-0.7-0.5-1.2-1.4-1.5-2.4c-0.4-1-0.7-2-1.4-2.6c-0.6-0.6-1.5-1-2.7-1
		c-0.5-0.1-1.1-0.1-1.6-0.2s-0.9-0.3-1.3-0.5c-1.5-1-1.7-3.7-3-5c-1.2-1.4-2.5-2.7-4.1-3.5L1847.6,478.6z"/>
</g>
<g class="st1">
	<path class="st2" d="M1886.3,448.2c2.9,1.6,5.6,2.8,8.3,4.1c2.8,1.2,5.5,2.5,8.3,3.1c1.4,0.4,2.9,0.6,4.4,1.1c1.5,0.4,3,1,4.6,1.8
		c1.5,0.7,3,1.7,4.2,2.8c1.3,1.1,2.5,2.2,3.8,3.2l2.8,2.1l-2.6,1c-2.9,1.1-5.3,3-7.4,5.1c-1.1,1.1-2.1,2.2-3.2,3.3s-2.3,2-3.6,2.8
		c-1.2,0.8-2.6,1.5-4,2.1c-1.4,0.5-2.9,1.1-4.4,1.6c-2.9,1.1-5.5,2.4-7.8,4.7l-2,2l-0.9-3.5c-0.4-1.5-1-3.1-1.4-4.8
		c-0.5-1.6-0.6-3.3-0.6-5c0-1.6,0.1-3.3,0.3-4.8c0.3-1.5,0.6-3,0.8-4.5c0.5-2.9,0.5-5.9,0.6-8.8
		C1886.5,454.4,1886.5,451.5,1886.3,448.2z M1887.8,450.4c0.1,2.7,0.3,5.7,0.6,8.7c0.4,3,0.6,6,1.5,9.1c0.4,1.5,0.8,3.1,1.3,4.5
		c0.4,1.4,0.6,2.9,0.8,4.2c0.2,1.3,0.1,2.7-0.3,4c-0.3,1.3-0.7,2.8-1,4.2l-2.9-1.5c2.9-1.1,5.3-2.9,7.5-5.1c1.1-1.1,2.1-2.2,3.2-3.3
		c1.1-1.1,2.3-2,3.6-2.8c1.2-0.8,2.6-1.5,4-2.1c1.4-0.5,2.9-1.1,4.4-1.6c2.9-1.1,5.5-2.5,7.8-4.6l0.2,3.2c-1.4-0.4-2.9-0.6-4.2-0.9
		s-2.6-0.7-3.8-1.4c-1.2-0.6-2.3-1.4-3.5-2.4s-2.3-2-3.6-3c-2.5-2.1-5.1-3.6-7.7-5.2C1892.8,453.1,1890.2,451.6,1887.8,450.4z"/>
</g>
<g class="st1">
	<path class="st2" d="M1798.7,468.1c0-1.9,0.4-3.8,1.1-5.4c0.7-1.7,1.7-3.3,2.9-4.8c1.2-1.4,2.6-3,4.3-4.3c1.7-1.3,3.8-2.2,6-2.1
		c0.5,0,1.1,0.1,1.6,0.2s1.1,0.3,1.5,0.4c0.5,0.2,1,0.4,1.4,0.8c0.4,0.3,0.9,0.6,1.3,1c1.6,1.4,3,2.7,4.4,3.9c1.4,1.2,3,2.6,4.2,4.3
		c1.3,1.7,2.2,3.8,2.2,6c0,2.1-0.8,4.4-2.1,6c-1.3,1.7-2.8,3-4.2,4.3c-0.4,0.3-0.7,0.6-1.1,1c-0.4,0.3-0.7,0.6-1.1,1
		s-0.7,0.7-1.1,1.1s-0.7,0.7-1.2,1.1c-0.4,0.4-0.8,0.6-1.3,1c-0.4,0.3-1,0.5-1.4,0.7c-0.5,0.2-1.1,0.4-1.6,0.5s-1.1,0.1-1.6,0.1
		c-2.1,0-4.3-0.9-6-2.1s-3-2.8-4.3-4.2c-1.3-1.5-2.2-3-3-4.8C1799.1,471.8,1798.8,469.9,1798.7,468.1z M1801.4,468
		c0,1.5,0.3,3,0.8,4.6c0.5,1.4,1.5,2.8,2.7,3.7c1.2,1,2.8,1.4,4.2,1.4c1.4,0,2.8-0.2,4-0.2c1.2-0.1,2.5,0.2,4,0.3c0.4,0,0.8,0,1.2,0
		c0.4-0.1,0.7-0.2,1.2-0.3c0.4-0.2,0.7-0.4,1-0.5c0.3-0.3,0.5-0.5,0.8-0.8c1-1.2,1.4-2.8,1.4-4.2c0-1.5-0.2-2.8-0.1-4
		c0-1.2,0.1-2.5,0.1-4c0-1.4-0.5-3-1.4-4.2s-2.5-1.8-4.1-1.7c-0.4,0-0.7,0-1.2,0.1c-0.4,0.1-0.7,0.1-1.1,0.2s-0.6,0.1-1,0.1
		c-0.4,0.1-0.6,0.1-1,0c-1.3,0-2.5-0.1-4-0.1c-1.4,0-3,0.5-4.2,1.4c-1.2,1-2.1,2.2-2.8,3.7C1801.6,464.9,1801.4,466.5,1801.4,468z"
		/>
</g>
<g class="st1">
	<path class="st2" d="M1726.9,474.9c-0.4-1.3-1.3-2.3-2.2-3.2c-0.9-1-3.3-1-3.8-2.1c-0.2-0.3-0.3-0.6-0.3-1s0.1-0.8,0.2-1.3
		c0.2-0.9,0.2-1.6-0.4-2.1c-0.4-0.5-1.3-0.8-2.1-1.1c-0.8-0.3-1.5-0.6-1.9-1.2s-0.4-1.3-0.3-2.1c0.1-0.8,0.2-1.7-0.1-2.2
		c-0.2-0.3-0.4-0.5-0.6-0.7c-0.3-0.2-0.7-0.3-1.2-0.4c-0.9-0.2-1.7-0.4-2-1.1c-0.7-1.1,0.2-3.2-0.4-4.5c-0.5-1.2-1-2.5-2-3.4
		l2.2-1.4c0.4,1.3,1.3,2.3,2.2,3.2c0.9,1,3.2,1.1,3.8,2.1c0.4,0.5,0.4,1.3,0.1,2.2c-0.1,0.4-0.2,0.9-0.2,1.3s0.2,0.6,0.4,0.9
		c0.4,0.5,1.3,0.8,2.1,1.1c0.8,0.3,1.5,0.6,1.9,1.2c0.4,0.5,0.4,1.3,0.3,2.1s-0.2,1.7,0.1,2.2c0.3,0.6,0.9,1,1.8,1.2
		c0.4,0.1,0.9,0.2,1.3,0.4c0.4,0.2,0.6,0.4,0.8,0.6c0.8,1-0.2,3.2,0.4,4.5c0.5,1.2,1,2.5,2,3.4L1726.9,474.9z"/>
</g>
<g class="st1">
	<path class="st2" d="M1658.3,463.9c2.9,1.6,5.6,2.8,8.3,4.1c2.8,1.2,5.5,2.5,8.3,3.1c1.4,0.4,2.9,0.6,4.4,1.1c1.5,0.4,3,1,4.6,1.8
		c1.5,0.7,3,1.7,4.2,2.8c1.3,1.1,2.5,2.2,3.8,3.2l2.8,2.1l-2.6,1c-2.9,1.1-5.3,3-7.4,5.1c-1.1,1.1-2.1,2.2-3.2,3.3
		c-1.1,1.1-2.3,2-3.6,2.8c-1.2,0.8-2.6,1.5-4,2.1c-1.4,0.5-2.9,1.1-4.4,1.6c-2.9,1.1-5.5,2.4-7.8,4.7l-2,2l-0.9-3.5
		c-0.4-1.5-1-3.1-1.4-4.8c-0.5-1.6-0.6-3.3-0.6-5c0-1.6,0.1-3.3,0.3-4.8c0.3-1.5,0.6-3,0.8-4.5c0.5-2.9,0.5-5.9,0.6-8.8
		C1658.5,470.2,1658.5,467.1,1658.3,463.9z M1659.7,466.1c0.1,2.7,0.3,5.7,0.6,8.7c0.4,3,0.6,6,1.5,9.1c0.4,1.5,0.8,3.1,1.3,4.5
		c0.4,1.4,0.6,2.9,0.8,4.2c0.2,1.3,0.1,2.7-0.3,4c-0.3,1.3-0.7,2.8-1,4.2l-2.9-1.5c2.9-1.1,5.3-2.9,7.5-5.1c1.1-1.1,2.1-2.2,3.2-3.3
		c1.1-1.1,2.3-2,3.6-2.8c1.2-0.8,2.6-1.5,4-2.1c1.4-0.5,2.9-1.1,4.4-1.6c2.9-1.1,5.5-2.5,7.8-4.6l0.2,3.2c-1.4-0.4-2.9-0.6-4.2-0.9
		s-2.6-0.7-3.8-1.4c-1.2-0.6-2.3-1.4-3.5-2.4s-2.3-2-3.6-3c-2.5-2.1-5.1-3.6-7.7-5.2C1664.7,468.7,1662.1,467.3,1659.7,466.1z"/>
</g>
<g class="st1">
	<path class="st2" d="M1361,479.1c0-1.9,0.4-3.8,1.1-5.4c0.7-1.7,1.7-3.3,2.9-4.8c1.2-1.4,2.6-3,4.3-4.3s3.8-2.2,6-2.1
		c0.5,0,1.1,0.1,1.6,0.2s1.1,0.3,1.5,0.4c0.5,0.2,1,0.4,1.4,0.8c0.4,0.3,0.9,0.6,1.3,1c1.6,1.4,3,2.7,4.4,3.9s3,2.6,4.2,4.3
		c1.3,1.7,2.2,3.8,2.2,6c0,2.1-0.8,4.4-2.1,6c-1.3,1.7-2.8,3-4.2,4.3c-0.4,0.3-0.7,0.6-1.1,1c-0.4,0.3-0.7,0.6-1.1,1
		s-0.7,0.7-1.1,1.1s-0.7,0.7-1.2,1.1c-0.4,0.4-0.8,0.6-1.3,1c-0.4,0.3-1,0.5-1.4,0.7c-0.5,0.2-1.1,0.4-1.6,0.5s-1.1,0.1-1.6,0.1
		c-2.1,0-4.3-0.9-6-2.1s-3-2.8-4.3-4.2c-1.3-1.5-2.2-3.1-3-4.8C1361.4,482.9,1361.1,481.1,1361,479.1z M1363.6,479.1
		c0,1.5,0.3,3,0.8,4.6c0.5,1.4,1.5,2.8,2.7,3.7c1.2,1,2.8,1.4,4.2,1.4s2.8-0.2,4-0.2c1.2-0.1,2.5,0.2,4,0.3c0.4,0,0.8,0,1.2,0
		c0.4-0.1,0.7-0.2,1.2-0.3c0.4-0.2,0.7-0.4,1-0.5c0.3-0.3,0.5-0.5,0.8-0.8c1-1.2,1.4-2.8,1.4-4.2c0-1.5-0.2-2.8-0.1-4
		c0-1.2,0.1-2.5,0.1-4c0-1.4-0.5-3-1.4-4.2c-1-1.2-2.5-1.8-4.1-1.7c-0.4,0-0.7,0-1.2,0.1c-0.4,0.1-0.7,0.1-1.1,0.2s-0.6,0.1-1,0.1
		c-0.4,0.1-0.6,0.1-1,0c-1.3,0-2.5-0.1-4-0.1c-1.4,0-3,0.5-4.2,1.4c-1.2,1-2.1,2.2-2.8,3.7C1363.9,476,1363.6,477.6,1363.6,479.1z"
		/>
</g>
<g class="st1">
	<path class="st2" d="M1733,375.2c1.1,0.8,2.4,1,3.8,1.1c1.3,0.1,3.2-1.3,4.4-0.7c0.3,0.1,0.5,0.3,0.8,0.6c0.3,0.3,0.5,0.7,0.7,1.1
		c0.4,0.8,0.9,1.4,1.6,1.5c0.6,0.2,1.4-0.1,2.2-0.4s1.5-0.5,2.1-0.2c0.6,0.2,1.1,0.8,1.6,1.5s0.9,1.4,1.5,1.7c0.3,0.2,0.6,0.3,1,0.2
		c0.4,0,0.8-0.2,1.1-0.5c0.9-0.5,1.6-0.8,2.2-0.4c1.3,0.4,1.9,2.6,3,3.2c1.1,0.8,2.4,1.3,3.7,1.3l-0.8,2.5c-1.1-0.8-2.4-1-3.8-1.2
		c-1.3-0.2-3.2,1.2-4.4,0.7c-0.6-0.1-1.1-0.8-1.5-1.7c-0.2-0.4-0.4-0.8-0.7-1.1c-0.3-0.3-0.5-0.4-0.9-0.4c-0.6-0.2-1.4,0.1-2.2,0.4
		c-0.8,0.3-1.5,0.5-2.1,0.2c-0.6-0.2-1.1-0.8-1.6-1.5s-0.9-1.4-1.5-1.7c-0.5-0.3-1.3-0.2-2.1,0.2c-0.4,0.2-0.8,0.4-1.2,0.5
		c-0.4,0.1-0.7,0.1-1.1,0c-1.3-0.2-1.9-2.6-3-3.2c-1.1-0.8-2.3-1.4-3.7-1.4L1733,375.2z"/>
</g>
<g class="st1">
	<path class="st2" d="M1796.5,402.6c0.1-1.8-0.5-3.6-1.1-5.2c-0.6-1.7-2.9-3.1-3.1-4.9c-0.1-0.4-0.1-0.9,0.1-1.3
		c0.2-0.5,0.4-1,0.6-1.5c0.5-1,0.6-1.9,0.4-2.9c-0.2-0.9-0.9-1.6-1.6-2.5c-0.8-0.8-1.3-1.6-1.4-2.5c-0.2-0.9,0.1-1.8,0.4-2.8
		s0.7-2,0.6-2.9c0-0.5-0.2-0.9-0.4-1.3c-0.2-0.4-0.6-0.8-1-1.1c-0.9-0.8-1.5-1.5-1.6-2.4c-0.4-1.7,1.2-3.9,1-5.7
		c0.1-1.8-0.1-3.7-0.8-5.3l2.6-0.5c-0.1,1.8,0.5,3.6,1.1,5.2c0.5,1.7,2.7,3.2,3.1,4.9c0.3,0.9-0.1,1.8-0.6,2.9
		c-0.2,0.5-0.5,1-0.5,1.4c-0.1,0.5-0.1,0.9,0.1,1.4c0.2,0.9,0.9,1.6,1.6,2.5c0.8,0.8,1.3,1.6,1.4,2.5c0.2,0.9-0.1,1.8-0.4,2.8
		c-0.4,1-0.7,2-0.6,2.9s0.5,1.7,1.4,2.5c0.3,0.4,0.8,0.8,1.1,1.2c0.3,0.4,0.5,0.8,0.6,1.2c0.5,1.7-1.1,3.9-1,5.7
		c-0.1,1.8,0.1,3.7,0.8,5.3L1796.5,402.6z"/>
</g>
<g class="st1">
	<path class="st2" d="M1815.1,396.9c2.9-0.3,5.5-0.6,8.2-1.1c1.3-0.2,2.6-0.4,3.9-0.7c1.3-0.3,2.6-0.6,3.8-1
		c2.4-0.9,4.9-2.1,7.8-2.6c1.4-0.3,2.9-0.4,4.4-0.4s3,0.3,4.4,0.5l4.9,0.7l-2.7,2.6c-2.3,2.2-3.7,4.9-4.6,7.9
		c-0.4,1.5-0.8,3.1-1.2,4.6c-0.4,1.5-1,3-1.8,4.2c-0.8,1.4-1.6,2.6-2.7,3.8c-1,1.2-2.2,2.3-3.1,3.5c-1,1.2-1.9,2.5-2.6,3.8
		c-0.7,1.4-1.2,2.9-1.5,4.4l-0.7,3.7l-3.4-3.8c-1-1-2-2.2-2.9-3.4c-0.8-1.2-1.5-2.6-2-3.9c-1.1-2.7-1.4-5.5-2-8
		c-0.3-1.2-0.7-2.5-1.3-3.7c-0.5-1.2-1-2.5-1.5-3.7C1817.5,401.8,1816.4,399.4,1815.1,396.9z M1817.3,398c1,2.2,2.2,4.5,3.5,6.8
		c0.7,1.1,1.3,2.3,2.1,3.4c0.7,1.1,1.4,2.3,2.3,3.4c1.7,2.3,3.7,4.2,5,6.3c0.7,1.1,1.2,2,1.5,3.2s0.5,2.4,0.6,3.7l-4.1-0.1
		c1.1-1.1,2.2-2.3,2.9-3.6c0.8-1.4,1.4-2.7,1.8-4.2s0.8-3.1,1.2-4.6s1-2.9,1.8-4.2s1.6-2.6,2.7-3.8c1-1.2,2.2-2.3,3.1-3.5
		c2-2.4,3.5-5.1,4.1-8.2l2.2,3.3c-1.2,0.5-2.3,1.1-3.4,1.4c-1.2,0.4-2.3,0.5-3.5,0.5c-2.4,0.2-5.1-0.5-8-0.8
		c-1.4-0.1-2.8-0.1-4.1-0.1c-1.3,0-2.7,0.1-4,0.2C1822.3,397.4,1819.7,397.6,1817.3,398z"/>
</g>
<g class="st1">
	<path class="st2" d="M1769.7,446.2c-1.9,0-3.8-0.3-5.5-1s-3.3-1.6-4.9-2.8c-1.5-1.2-3-2.5-4.4-4.2s-2.2-3.8-2.2-5.9
		c0-0.5,0.1-1.1,0.1-1.6c0.1-0.5,0.2-1.1,0.4-1.5c0.2-0.5,0.4-1,0.8-1.4c0.3-0.5,0.6-0.9,0.9-1.4c1.4-1.6,2.6-3,3.8-4.5
		s2.5-3,4.2-4.3c1.7-1.4,3.8-2.2,5.9-2.3c2.1-0.1,4.4,0.7,6,2c1.7,1.3,3.1,2.8,4.4,4.1c0.3,0.4,0.6,0.7,1,1c0.3,0.4,0.6,0.7,1,1
		s0.7,0.7,1.1,1s0.7,0.7,1.1,1.1s0.6,0.8,1,1.3c0.3,0.4,0.6,1,0.8,1.4c0.2,0.5,0.4,1.1,0.5,1.6s0.1,1.1,0.1,1.6c0.1,2.1-0.8,4.3-2,6
		s-2.7,3.1-4.1,4.4c-1.5,1.3-3.1,2.3-4.7,3.1C1773.6,445.6,1771.7,446,1769.7,446.2z M1769.7,443.5c1.5,0,3-0.3,4.5-0.9
		c1.4-0.6,2.7-1.6,3.6-2.8c1-1.2,1.4-2.8,1.3-4.2s-0.3-2.8-0.3-4c-0.1-1.2,0.1-2.5,0.2-4c0-0.4,0-0.8,0-1.2
		c-0.1-0.4-0.2-0.7-0.3-1.2c-0.2-0.4-0.4-0.7-0.6-1c-0.3-0.3-0.5-0.5-0.8-0.8c-1.2-1-2.8-1.4-4.2-1.3c-1.5,0-2.8,0.3-4,0.2
		c-1.2,0-2.5,0-4,0c-1.4,0-3,0.5-4.2,1.5c-1.1,1-1.7,2.5-1.6,4.2c0,0.4,0,0.7,0.1,1.2c0.1,0.4,0.1,0.7,0.2,1.1s0.1,0.6,0.1,1
		c0.1,0.4,0.1,0.6,0,1c0,1.2,0,2.5,0,4c0,1.4,0.5,3,1.5,4.2s2.3,2.1,3.7,2.7C1766.6,443.3,1768.1,443.5,1769.7,443.5z"/>
</g>
<g class="st1">
	<path class="st2" d="M1075.5,525.7c1,0.9,2.2,1.3,3.7,1.6c1.3,0.3,3.3-0.9,4.5-0.2c0.3,0.2,0.5,0.4,0.8,0.7
		c0.2,0.4,0.4,0.8,0.6,1.2c0.4,0.9,0.7,1.4,1.4,1.6c0.6,0.2,1.4,0.1,2.2-0.2c0.8-0.3,1.6-0.3,2.1,0c0.5,0.4,1.1,0.9,1.5,1.7
		c0.4,0.8,0.7,1.5,1.4,1.9c0.3,0.2,0.5,0.4,0.9,0.3c0.4,0,0.8-0.2,1.2-0.3c0.9-0.4,1.7-0.5,2.2-0.2c1.2,0.5,1.5,2.8,2.6,3.5
		c1.1,0.9,2.2,1.6,3.5,1.7l-1.1,2.4c-1.1-0.9-2.2-1.3-3.7-1.6c-1.3-0.3-3.2,0.8-4.5,0.2c-0.6-0.2-1-0.9-1.4-1.9
		c-0.1-0.4-0.4-0.9-0.6-1.2c-0.2-0.4-0.4-0.5-0.8-0.5c-0.6-0.2-1.4,0-2.2,0.2c-0.8,0.3-1.6,0.3-2.1,0c-0.5-0.4-1.1-0.9-1.5-1.7
		s-0.7-1.5-1.4-1.9c-0.5-0.4-1.3-0.3-2.1,0c-0.4,0.1-0.9,0.3-1.2,0.4c-0.4,0-0.7,0.1-1-0.1c-1.3-0.4-1.5-2.8-2.6-3.5
		c-1.1-0.9-2.2-1.6-3.5-1.7L1075.5,525.7z"/>
</g>
<g class="st1">
	<path class="st2" d="M1065.8,510c1-2.2,1.5-4.6,1.7-7.1c0.4-2.3-1-5.3-0.2-7.6c0.2-0.5,0.4-1.1,0.9-1.7c0.5-0.5,0.8-1.1,1.3-1.5
		c1-1,1.6-2.2,1.7-3.3c0.3-1.2,0.1-2.5-0.1-3.8c-0.2-1.3-0.3-2.6,0-3.8c0.3-1.2,1-2.2,1.8-3.3c0.8-1.1,1.6-2.1,2-3.2s0.4-2.3,0-3.8
		c-0.4-1.3-0.5-2.7-0.1-3.8c0.6-2.4,3-4.2,3.8-6.5c0.4-1.1,0.9-2.2,1.2-3.4c0.3-1.2,0.6-2.3,0.8-3.6l2.6,0.7
		c-0.5,1.1-0.9,2.3-1.1,3.5c-0.2,1.2-0.5,2.4-0.6,3.7c-0.4,2.3,0.9,5.2,0.2,7.6c-0.2,1.2-1,2.2-1.9,3.2c-1,1-1.7,2.1-1.8,3.3
		c-0.3,1.2-0.1,2.5,0.1,3.8c0.2,1.3,0.3,2.6,0,3.8c-0.3,1.2-1,2.2-1.8,3.3s-1.6,2.1-2,3.2c-0.4,1.1-0.4,2.3-0.1,3.8
		c0.2,0.7,0.3,1.3,0.4,2c0.1,0.6,0,1.3-0.1,1.8c-0.5,2.4-3,4.2-3.8,6.5c-1,2.2-1.7,4.6-2,7L1065.8,510z"/>
</g>
<g class="st1">
	<path class="st2" d="M1033,573.1c1.2-3,2.3-5.8,3.3-8.6c1-2.8,1.9-5.7,2.3-8.5c0.3-1.4,0.3-2.9,0.7-4.5c0.3-1.5,0.7-3.2,1.3-4.6
		c0.6-1.5,1.3-3.1,2.2-4.4c0.9-1.4,2-2.7,2.9-4.1l1.8-3l1.2,2.4c1.4,2.7,3.4,4.9,5.8,6.8c1.2,1,2.4,1.9,3.6,2.9s2.2,2.1,3.1,3.3
		c0.9,1.1,1.7,2.5,2.4,3.8c0.7,1.3,1.4,2.8,2,4.1c1.4,2.8,3.1,5.3,5.4,7.3l2.2,1.8l-3.4,1.2c-1.5,0.5-3,1.3-4.7,1.8
		c-1.6,0.5-3.2,0.9-4.9,1.1c-1.6,0.1-3.3,0.2-4.9,0.1c-1.5-0.1-3-0.2-4.6-0.4c-2.8-0.3-5.9,0-8.9,0.3
		C1039.2,572.3,1036.3,572.6,1033,573.1z M1035.1,571.6c2.7-0.3,5.7-0.8,8.6-1.5c3-0.7,5.9-1.2,9-2.3c1.5-0.5,3-1.2,4.4-1.7
		c1.4-0.5,2.7-0.9,4.1-1.2c1.4-0.2,2.7-0.3,4-0.2c1.3,0.2,2.8,0.5,4.3,0.6l-1.2,3c-1.4-2.8-3.4-4.9-5.8-6.9c-1.2-1-2.4-1.9-3.6-2.9
		s-2.2-2.1-3.1-3.3c-0.9-1.1-1.7-2.5-2.4-3.8c-0.7-1.3-1.4-2.8-2-4.1c-1.4-2.8-3.1-5.3-5.4-7.3l3.2-0.5c-0.3,1.4-0.3,2.9-0.4,4.3
		c-0.2,1.4-0.5,2.7-1,3.9c-0.5,1.2-1.3,2.4-2.1,3.7c-0.9,1.3-1.8,2.5-2.7,3.8c-1.9,2.7-3,5.5-4.4,8.2
		C1037.3,566.2,1036,569,1035.1,571.6z"/>
</g>
<g class="st1">
	<path class="st2" d="M1132.1,498.8c0.2,2.4-0.1,4.9-0.9,7.2c-0.8,2.3-1.8,4.6-3.2,6.6c-1.4,2-3.1,4-5.1,5.7s-4.7,2.8-7.5,3.1
		c-0.7,0.1-1.3,0-2.1,0c-0.7-0.1-1.3-0.3-2-0.3c-0.6-0.2-1.3-0.4-2-0.7c-0.6-0.3-1.3-0.6-1.8-0.9c-2.2-1.4-4.2-2.9-6.2-4.4
		c-1.9-1.5-4-3.2-5.7-5.2c-1.7-2.1-2.9-4.7-3.1-7.5c-0.2-2.8,0.4-5.5,1.7-7.9c1.3-2.3,3-4.3,4.7-6.1c0.4-0.4,0.8-0.9,1.2-1.4
		c0.4-0.4,0.8-0.9,1.3-1.4c0.4-0.4,0.9-0.9,1.3-1.4c0.5-0.4,0.9-0.9,1.4-1.4c0.5-0.4,1-0.9,1.6-1.2c0.6-0.4,1.1-0.7,1.8-1.1
		c0.6-0.3,1.3-0.5,1.9-0.7c0.7-0.2,1.3-0.2,2.1-0.4c2.8-0.2,5.5,0.5,7.9,1.8c2.3,1.3,4.3,2.9,6.1,4.7c1.8,1.8,3.3,3.6,4.4,5.8
		C1131.2,493.8,1131.8,496.3,1132.1,498.8z M1129.5,499c-0.2-2.1-0.8-4.1-1.7-6.1s-2.4-3.5-4.1-4.8c-1.7-1.2-3.9-1.8-5.8-1.9
		c-2-0.1-3.8,0.1-5.6,0.3c-0.4,0-0.9,0.2-1.3,0.1c-0.4,0-0.9,0.1-1.4,0.1c-0.4,0-1,0.1-1.4,0.1c-0.5,0-1,0.1-1.5,0.1
		c-0.5,0.1-1,0.2-1.5,0.3c-0.5,0.1-1,0.4-1.5,0.6c-0.4,0.3-0.9,0.6-1.2,0.9c-0.4,0.4-0.7,0.8-1.1,1.2c-1.3,1.6-1.8,3.8-1.9,5.8
		c0,2,0.1,3.8,0.3,5.6c0.2,1.8,0.3,3.7,0.7,5.6c0.5,2,1.3,3.9,2.9,5.4c1.4,1.5,3.6,2.2,5.7,2.2c0.5,0,1,0,1.5,0c0.5,0,1-0.1,1.4-0.1
		c0.4-0.1,1-0.2,1.4-0.2s0.9-0.2,1.3-0.1c1.8-0.2,3.7-0.3,5.6-0.8c2-0.5,3.9-1.3,5.4-2.8c1.5-1.4,2.5-3.3,3.1-5.4
		C1129.5,503.2,1129.7,501,1129.5,499z"/>
</g>
<g class="st1">
	<path class="st2" d="M1326.6,507c1.3,0.2,2.6-0.1,3.9-0.7c1.3-0.5,2.3-2.6,3.7-2.6c0.4,0,0.6,0,1,0.2s0.7,0.4,1.1,0.6
		c0.8,0.5,1.4,0.8,2.1,0.5c0.7-0.1,1.2-0.7,1.7-1.4s1.1-1.1,1.8-1.1c0.6,0,1.4,0.2,2.1,0.6s1.5,0.9,2.2,0.8c0.4,0,0.6,0,1-0.2
		s0.6-0.6,0.8-0.9c0.5-0.8,1.1-1.4,1.7-1.4c1.3-0.3,2.8,1.5,4.1,1.5c1.4,0.2,2.7,0.2,3.8-0.5l0.4,2.6c-1.4-0.2-2.6,0.1-3.9,0.7
		c-1.3,0.5-2.3,2.4-3.7,2.6c-0.7,0.1-1.3-0.2-2.2-0.8c-0.3-0.3-0.8-0.5-1.1-0.6c-0.4-0.2-0.6-0.1-1,0c-0.7,0.1-1.2,0.8-1.7,1.4
		c-0.5,0.7-1.1,1.1-1.8,1.1c-0.6,0-1.4-0.2-2.1-0.6c-0.7-0.4-1.5-0.9-2.2-0.8c-0.6,0-1.3,0.5-1.8,1.1c-0.3,0.3-0.6,0.7-0.8,1
		c-0.3,0.2-0.5,0.4-0.9,0.5c-1.3,0.4-2.8-1.5-4.1-1.5c-1.4-0.2-2.7-0.2-3.8,0.5L1326.6,507z"/>
</g>
<g class="st1">
	<path class="st2" d="M1213.3,561.3c0.7-1.2,0.9-2.5,0.8-3.9c0.1-1.3-1.6-3.1-1-4.3c0.1-0.3,0.4-0.5,0.5-0.8
		c0.4-0.3,0.7-0.5,1.1-0.7c0.8-0.5,1.3-1,1.4-1.6c0.1-0.6-0.2-1.4-0.6-2.2c-0.4-0.8-0.6-1.5-0.4-2.1c0.1-0.6,0.7-1.2,1.4-1.6
		s1.3-1,1.6-1.5c0.2-0.3,0.2-0.6,0.1-1c0-0.4-0.3-0.8-0.6-1.2c-0.5-0.9-0.8-1.5-0.6-2.2c0.3-1.3,2.5-2,3-3.3
		c0.7-1.2,1.1-2.4,1.1-3.8l2.6,0.7c-0.7,1.2-0.9,2.5-0.9,3.9c-0.2,1.3,1.4,3.1,1,4.3c0,0.6-0.7,1.2-1.6,1.5c-0.4,0.2-0.8,0.5-1,0.7
		c-0.3,0.3-0.4,0.5-0.3,0.9c-0.1,0.6,0.2,1.4,0.6,2.2c0.4,0.8,0.6,1.5,0.4,2.1c-0.1,0.6-0.7,1.2-1.4,1.6c-0.7,0.5-1.3,1-1.6,1.5
		c-0.4,0.5-0.2,1.3,0.4,2.1c0.2,0.4,0.5,0.8,0.6,1.2c0.1,0.4,0.2,0.7,0.1,1.1c-0.2,1.3-2.5,2-3,3.3c-0.7,1.2-1.2,2.3-1.2,3.8
		L1213.3,561.3z"/>
</g>
<g class="st1">
	<path class="st2" d="M1128.8,534.9c0.5,1.3,1.5,2.2,2.5,3c1,0.9,3.4,0.7,4,1.8c0.2,0.3,0.4,0.6,0.4,1c0,0.4,0,0.8-0.1,1.3
		c-0.1,0.9-0.1,1.6,0.6,2.1c0.4,0.5,1.4,0.7,2.2,0.9c0.8,0.2,1.5,0.5,2,1c0.5,0.6,0.5,1.3,0.5,2.1c0,0.8-0.1,1.7,0.3,2.2
		c0.2,0.3,0.4,0.5,0.7,0.6c0.3,0.2,0.7,0.2,1.2,0.3c0.9,0.1,1.7,0.2,2.1,0.9c0.8,1,0.1,3.2,0.8,4.4c0.6,1.2,1.2,2.4,2.3,3.2
		l-2.1,1.6c-0.5-1.3-1.5-2.2-2.5-3c-1-0.9-3.3-0.8-4-1.8c-0.4-0.5-0.5-1.3-0.3-2.2c0.1-0.4,0.1-0.9,0.1-1.3c0-0.4-0.3-0.6-0.5-0.9
		c-0.4-0.5-1.4-0.7-2.2-0.9c-0.8-0.2-1.5-0.5-2-1c-0.5-0.6-0.5-1.3-0.5-2.1c0-0.8,0.1-1.7-0.3-2.2c-0.4-0.6-1-0.9-1.9-1
		c-0.4-0.1-0.9-0.1-1.3-0.3s-0.6-0.3-0.8-0.5c-0.9-0.9-0.1-3.2-0.8-4.4c-0.6-1.2-1.2-2.4-2.3-3.2L1128.8,534.9z"/>
</g>
<g class="st1">
	<path class="st2" d="M1237.8,509c-1.3-1.3-2.9-2.2-4.6-2.8c-1.7-0.8-4.2,0-5.6-1.2c-0.4-0.3-0.7-0.5-0.9-1c-0.2-0.4-0.5-1-0.6-1.5
		c-0.4-1.1-1-1.8-1.8-2.3c-0.7-0.4-1.8-0.4-3-0.5c-1.1,0-2-0.2-2.8-0.8c-0.7-0.4-1.3-1.3-1.7-2.3c-0.5-1-0.9-1.9-1.6-2.5
		c-0.4-0.4-0.7-0.4-1.3-0.6c-0.4-0.2-1-0.1-1.5-0.1c-1.2,0.1-2.1,0-2.9-0.6c-1.5-1-2-3.5-3.4-4.7c-1.3-1.3-2.7-2.5-4.4-3.1l1.4-2.2
		c1.3,1.3,2.9,2.2,4.6,2.8c1.6,0.9,4.1,0.2,5.6,1.2c0.8,0.3,1.3,1.3,1.6,2.5c0.2,0.5,0.4,1.1,0.6,1.4c0.3,0.4,0.6,0.7,1.1,0.9
		c0.7,0.4,1.8,0.4,3,0.5c1.1,0,2,0.2,2.8,0.8c0.7,0.4,1.3,1.3,1.7,2.3c0.5,1,0.9,1.9,1.6,2.5c0.7,0.5,1.6,0.9,2.8,0.8
		c0.5,0.1,1.1,0,1.6,0.1s0.9,0.2,1.3,0.4c1.6,0.9,2,3.5,3.4,4.7c1.3,1.3,2.7,2.5,4.4,3.1L1237.8,509z"/>
</g>
<g class="st1">
	<path class="st2" d="M1193.5,536.2c-3-1.3-5.8-2.3-8.6-3.4c-2.9-0.9-5.7-2-8.5-2.4c-1.4-0.3-2.9-0.3-4.5-0.7
		c-1.5-0.3-3.1-0.7-4.7-1.4c-1.6-0.6-3.1-1.4-4.4-2.4c-1.4-1-2.7-2-4.1-2.9l-3-1.8l2.5-1.2c2.8-1.4,5-3.5,6.9-5.7
		c1-1.2,1.9-2.4,2.9-3.6c1-1.2,2.1-2.2,3.3-3.1c1.1-0.9,2.5-1.7,3.8-2.4c1.4-0.6,2.8-1.4,4.2-2c2.8-1.4,5.3-2.9,7.4-5.4l1.8-2.2
		l1.2,3.4c0.5,1.5,1.3,3,1.8,4.7c0.6,1.5,0.9,3.2,1,4.9c0.1,1.6,0.2,3.3,0.1,4.8c-0.2,1.5-0.3,3-0.4,4.6c-0.2,2.9,0,5.9,0.2,8.8
		C1192.8,530.1,1193,533.1,1193.5,536.2z M1191.8,534.2c-0.3-2.7-0.8-5.7-1.4-8.6c-0.7-3-1.1-5.9-2.3-8.9c-0.5-1.5-1.1-3-1.7-4.4
		c-0.5-1.4-0.9-2.8-1.2-4.1c-0.3-1.3-0.3-2.7-0.1-4c0.2-1.3,0.5-2.9,0.6-4.3l3,1.2c-2.8,1.4-5,3.4-7,5.7c-1,1.2-1.9,2.4-2.9,3.6
		c-1,1.2-2.1,2.2-3.3,3.1c-1.1,0.9-2.5,1.7-3.8,2.4c-1.4,0.6-2.8,1.4-4.2,2c-2.8,1.4-5.3,3-7.4,5.3l-0.5-3.2
		c1.4,0.3,2.9,0.3,4.3,0.5c1.3,0.2,2.7,0.5,3.9,1.1c1.2,0.5,2.4,1.2,3.7,2.1c1.3,0.9,2.5,1.8,3.8,2.7c2.7,1.9,5.4,3.1,8.1,4.5
		C1186.6,532,1189.4,533.3,1191.8,534.2z"/>
</g>
<g class="st1">
	<path class="st2" d="M1288.7,503.7c0.2,1.9-0.1,3.8-0.6,5.5c-0.5,1.8-1.4,3.4-2.5,5c-1.1,1.5-2.3,3.2-3.9,4.7
		c-1.6,1.4-3.6,2.5-5.8,2.6c-0.5,0-1.1,0-1.6-0.1c-0.5-0.1-1.1-0.2-1.5-0.3c-0.5-0.2-1-0.3-1.5-0.7c-0.4-0.3-0.9-0.5-1.4-0.9
		c-1.7-1.3-3.2-2.4-4.7-3.5c-1.5-1.1-3.2-2.3-4.6-3.9c-1.4-1.6-2.5-3.6-2.7-5.8c-0.2-2.1,0.4-4.5,1.6-6.2c1.1-1.8,2.5-3.2,3.8-4.7
		c0.4-0.3,0.6-0.7,1-1.1c0.4-0.3,0.6-0.7,1-1.1c0.4-0.4,0.6-0.8,1-1.2c0.4-0.4,0.6-0.8,1.1-1.2s0.7-0.7,1.2-1.1
		c0.4-0.3,1-0.6,1.3-0.8c0.5-0.2,1.1-0.5,1.5-0.6s1.1-0.2,1.6-0.2c2.1-0.2,4.4,0.5,6.2,1.6c1.8,1,3.2,2.5,4.7,3.8
		c1.4,1.4,2.5,2.9,3.4,4.5C1288,500,1288.5,501.9,1288.7,503.7z M1286.2,504c-0.1-1.5-0.6-3-1.2-4.5c-0.6-1.4-1.7-2.7-3-3.4
		c-1.3-0.9-2.9-1.1-4.3-1c-1.4,0.1-2.8,0.4-4,0.6c-1.2,0.2-2.5,0-4,0.1c-0.4,0-0.8,0.1-1.2,0.1c-0.4,0.1-0.7,0.3-1.2,0.4
		c-0.4,0.2-0.7,0.5-1,0.6c-0.3,0.3-0.5,0.5-0.7,0.9c-0.9,1.3-1.1,2.9-1,4.3c0.1,1.5,0.4,2.8,0.5,4c0.1,1.2,0.1,2.5,0.3,4
		c0.1,1.4,0.8,2.9,1.8,4.1s2.6,1.6,4.2,1.3c0.4,0,0.7-0.1,1.2-0.2c0.4-0.1,0.7-0.2,1.1-0.3c0.4-0.1,0.6-0.2,1-0.2
		c0.4-0.1,0.6-0.2,1-0.1c1.3-0.1,2.5-0.1,4-0.3c1.4-0.1,2.9-0.8,4.1-1.8c1.1-1.1,1.9-2.4,2.5-3.9
		C1286.1,507.1,1286.3,505.6,1286.2,504z"/>
</g>
<g class="st1">
	<path class="st2" d="M1340.9,547.9c-1.3-1.3-2.9-2.2-4.6-2.8c-1.7-0.8-4.2,0-5.6-1.2c-0.4-0.3-0.7-0.5-0.9-1
		c-0.2-0.4-0.5-1-0.6-1.5c-0.4-1.1-1-1.8-1.8-2.3c-0.7-0.4-1.8-0.4-3-0.5c-1.1,0-2-0.2-2.8-0.8c-0.7-0.4-1.3-1.3-1.7-2.3
		c-0.5-1-0.9-1.9-1.6-2.5c-0.4-0.4-0.7-0.4-1.3-0.6c-0.4-0.2-1-0.1-1.5-0.1c-1.2,0.1-2.1,0-2.9-0.6c-1.5-1-2-3.5-3.4-4.7
		c-1.3-1.3-2.7-2.5-4.4-3.1l1.4-2.2c1.3,1.3,2.9,2.2,4.6,2.8c1.6,0.9,4.1,0.2,5.6,1.2c0.8,0.3,1.3,1.3,1.6,2.5
		c0.2,0.5,0.4,1.1,0.6,1.4c0.3,0.4,0.6,0.7,1.1,0.9c0.7,0.4,1.8,0.4,3,0.5c1.1,0,2,0.2,2.8,0.8c0.7,0.4,1.3,1.3,1.7,2.3
		c0.5,1,0.9,1.9,1.6,2.5c0.7,0.5,1.6,0.9,2.8,0.8c0.5,0.1,1.1,0,1.6,0.1c0.5,0.1,0.9,0.2,1.3,0.4c1.6,0.9,2,3.5,3.4,4.7
		c1.3,1.3,2.7,2.5,4.4,3.1L1340.9,547.9z"/>
</g>
<g class="st1">
	<path class="st2" d="M1296.6,575c-3-1.3-5.8-2.3-8.6-3.4c-2.9-0.9-5.7-2-8.5-2.4c-1.4-0.3-2.9-0.3-4.5-0.7
		c-1.5-0.3-3.1-0.7-4.7-1.4c-1.6-0.6-3.1-1.4-4.4-2.4c-1.4-1-2.7-2-4.1-2.9l-3-1.8l2.5-1.2c2.8-1.4,5-3.5,6.9-5.7
		c1-1.2,1.9-2.4,2.9-3.6c1-1.2,2.1-2.2,3.3-3.1c1.1-0.9,2.5-1.7,3.8-2.4c1.4-0.6,2.8-1.4,4.2-2c2.8-1.4,5.3-2.9,7.4-5.4l1.8-2.2
		l1.2,3.4c0.5,1.5,1.3,3,1.8,4.7c0.6,1.5,0.9,3.2,1,4.9c0.1,1.6,0.2,3.3,0.1,4.8c-0.2,1.5-0.3,3-0.4,4.6c-0.2,2.9,0,5.9,0.2,8.8
		C1295.8,568.9,1296.1,571.9,1296.6,575z M1294.9,573c-0.3-2.7-0.8-5.7-1.4-8.6c-0.7-3-1.1-5.9-2.3-8.9c-0.5-1.5-1.1-3-1.7-4.4
		c-0.5-1.4-0.9-2.8-1.2-4.1c-0.3-1.3-0.3-2.7-0.1-4c0.2-1.3,0.5-2.9,0.6-4.3l3,1.2c-2.8,1.4-5,3.4-7,5.7c-1,1.2-1.9,2.4-2.9,3.6
		c-1,1.2-2.1,2.2-3.3,3.1c-1.1,0.9-2.5,1.7-3.8,2.4c-1.4,0.6-2.8,1.4-4.2,2c-2.8,1.4-5.3,3-7.4,5.3l-0.5-3.2
		c1.4,0.3,2.9,0.3,4.3,0.5c1.3,0.2,2.7,0.5,3.9,1.1c1.2,0.5,2.4,1.2,3.7,2.1s2.5,1.8,3.8,2.7c2.7,1.9,5.4,3.1,8.1,4.5
		C1289.7,570.8,1292.4,572.1,1294.9,573z"/>
</g>
<g class="st1">
	<path class="st2" d="M634.7,546.4c1,0.9,2.2,1.3,3.7,1.6c1.3,0.3,3.3-0.9,4.5-0.2c0.3,0.2,0.5,0.4,0.8,0.7c0.2,0.4,0.4,0.8,0.6,1.2
		c0.4,0.9,0.7,1.4,1.4,1.6c0.6,0.2,1.4,0.1,2.2-0.2s1.6-0.3,2.1,0c0.5,0.4,1.1,0.9,1.5,1.7c0.4,0.8,0.7,1.5,1.4,1.9
		c0.3,0.2,0.5,0.4,0.9,0.3c0.4,0,0.8-0.2,1.2-0.3c0.9-0.4,1.7-0.5,2.2-0.2c1.2,0.5,1.5,2.8,2.6,3.5c1.1,0.9,2.2,1.6,3.5,1.7
		l-1.1,2.4c-1.1-0.9-2.2-1.3-3.7-1.6c-1.3-0.3-3.2,0.8-4.5,0.2c-0.6-0.2-1-0.9-1.4-1.9c-0.1-0.4-0.4-0.9-0.6-1.2
		c-0.2-0.4-0.4-0.5-0.8-0.5c-0.6-0.2-1.4,0-2.2,0.2c-0.8,0.3-1.6,0.3-2.1,0s-1.1-0.9-1.5-1.7c-0.4-0.8-0.7-1.5-1.4-1.9
		c-0.5-0.4-1.3-0.3-2.1,0c-0.4,0.1-0.9,0.3-1.2,0.4c-0.4,0-0.7,0.1-1-0.1c-1.3-0.4-1.5-2.8-2.6-3.5c-1.1-0.9-2.2-1.6-3.5-1.7
		L634.7,546.4z"/>
</g>
<g class="st1">
	<path class="st2" d="M743.1,508.5c-3-1.3-5.8-2.3-8.6-3.4c-2.9-0.9-5.7-2-8.5-2.4c-1.4-0.3-2.9-0.3-4.5-0.7
		c-1.5-0.3-3.1-0.7-4.7-1.4c-1.6-0.6-3.1-1.4-4.4-2.4c-1.4-1-2.7-2-4.1-2.9l-3-1.8l2.5-1.2c2.8-1.4,5-3.5,6.9-5.7
		c1-1.2,1.9-2.4,2.9-3.6c1-1.2,2.1-2.2,3.3-3.1c1.2-0.9,2.5-1.7,3.8-2.4c1.4-0.6,2.8-1.4,4.2-2c2.8-1.4,5.3-2.9,7.4-5.4l1.8-2.2
		l1.2,3.4c0.5,1.5,1.3,3,1.8,4.7c0.6,1.5,0.9,3.2,1,4.9c0.1,1.6,0.2,3.3,0.1,4.8c-0.2,1.5-0.3,3-0.4,4.6c-0.2,2.9,0,5.9,0.2,8.8
		C742.3,502.3,742.6,505.3,743.1,508.5z M741.5,506.4c-0.3-2.7-0.8-5.7-1.4-8.6c-0.7-3-1.1-5.9-2.3-8.9c-0.5-1.5-1.1-3-1.7-4.4
		c-0.5-1.4-0.9-2.8-1.2-4.1c-0.3-1.3-0.3-2.7-0.1-4c0.2-1.3,0.5-2.9,0.6-4.3l3,1.2c-2.8,1.4-5,3.4-7,5.7c-1,1.2-1.9,2.4-2.9,3.6
		c-1,1.2-2.1,2.2-3.3,3.1c-1.1,0.9-2.5,1.7-3.8,2.4c-1.4,0.6-2.8,1.4-4.2,2c-2.8,1.4-5.3,3-7.4,5.3l-0.5-3.2
		c1.4,0.3,2.9,0.3,4.3,0.5c1.3,0.2,2.7,0.5,3.9,1.1c1.2,0.5,2.4,1.2,3.7,2.1c1.3,0.9,2.5,1.8,3.8,2.7c2.7,1.9,5.4,3.1,8.1,4.5
		C736.1,504.3,738.9,505.6,741.5,506.4z"/>
</g>
<g class="st1">
	<path class="st2" d="M698.3,525.1c0.2,2.4-0.1,4.9-0.9,7.2s-1.8,4.6-3.2,6.6s-3.1,4-5.1,5.7s-4.7,2.8-7.5,3.1c-0.7,0.1-1.3,0-2.1,0
		c-0.7-0.1-1.3-0.3-2-0.3c-0.6-0.2-1.3-0.4-2-0.7c-0.6-0.3-1.3-0.6-1.8-0.9c-2.2-1.4-4.2-2.9-6.2-4.4c-1.9-1.5-4-3.2-5.7-5.2
		s-2.9-4.7-3.1-7.5c-0.2-2.8,0.4-5.5,1.7-7.9c1.3-2.3,3-4.3,4.7-6.1c0.4-0.4,0.8-0.9,1.2-1.4c0.4-0.4,0.8-0.9,1.3-1.4
		c0.4-0.4,0.9-0.9,1.3-1.4c0.5-0.4,0.9-0.9,1.4-1.4c0.5-0.4,1-0.9,1.6-1.2c0.6-0.4,1.1-0.7,1.8-1.1c0.6-0.3,1.3-0.5,1.9-0.7
		c0.7-0.2,1.3-0.2,2.1-0.4c2.8-0.2,5.5,0.5,7.9,1.8s4.3,2.9,6.1,4.7c1.8,1.8,3.3,3.6,4.4,5.8C697.4,520.2,698,522.7,698.3,525.1z
		 M695.6,525.3c-0.2-2.1-0.8-4.1-1.7-6.1s-2.4-3.5-4.1-4.8c-1.7-1.2-3.9-1.8-5.8-1.9c-2-0.1-3.8,0.1-5.6,0.3c-0.4,0-0.9,0.2-1.3,0.1
		c-0.4,0-0.9,0.1-1.4,0.1c-0.4,0-1,0.1-1.4,0.1c-0.5,0-1,0.1-1.5,0.1c-0.5,0.1-1,0.2-1.5,0.3s-1,0.4-1.5,0.6
		c-0.4,0.3-0.9,0.6-1.2,0.9c-0.4,0.4-0.7,0.8-1.1,1.2c-1.3,1.6-1.8,3.8-1.9,5.8c0,2,0.1,3.8,0.3,5.6c0.2,1.8,0.3,3.7,0.7,5.6
		c0.5,2,1.3,3.9,2.9,5.4c1.4,1.5,3.6,2.2,5.7,2.2c0.5,0,1,0,1.5,0c0.5,0,1-0.1,1.4-0.1c0.4-0.1,1-0.2,1.4-0.2s0.9-0.2,1.3-0.1
		c1.8-0.2,3.7-0.3,5.6-0.8c2-0.5,3.9-1.3,5.4-2.8c1.5-1.4,2.5-3.3,3.1-5.4C695.7,529.5,695.8,527.5,695.6,525.3z"/>
</g>
<g class="st1">
	<path class="st2" d="M751.4,529.3c1,0.9,2.2,1.3,3.7,1.6c1.3,0.3,3.3-0.9,4.5-0.2c0.3,0.2,0.5,0.4,0.8,0.7s0.4,0.8,0.6,1.2
		c0.4,0.9,0.7,1.4,1.4,1.6c0.6,0.2,1.4,0.1,2.2-0.2c0.8-0.3,1.6-0.3,2.1,0c0.5,0.4,1.1,0.9,1.5,1.7c0.4,0.8,0.7,1.5,1.4,1.9
		c0.3,0.2,0.5,0.4,0.9,0.3s0.8-0.2,1.2-0.3c0.9-0.4,1.7-0.5,2.2-0.2c1.2,0.5,1.5,2.8,2.6,3.5c1.1,0.9,2.2,1.6,3.5,1.7l-1.1,2.4
		c-1.1-0.9-2.2-1.3-3.7-1.6c-1.3-0.3-3.2,0.8-4.5,0.2c-0.6-0.2-1-0.9-1.4-1.9c-0.1-0.4-0.4-0.9-0.6-1.2c-0.2-0.4-0.4-0.5-0.8-0.5
		c-0.6-0.2-1.4,0-2.2,0.2c-0.8,0.3-1.6,0.3-2.1,0s-1.1-0.9-1.5-1.7s-0.7-1.5-1.4-1.9c-0.5-0.4-1.3-0.3-2.1,0
		c-0.4,0.1-0.9,0.3-1.2,0.4c-0.4,0-0.7,0.1-1-0.1c-1.3-0.4-1.5-2.8-2.6-3.5c-1.1-0.9-2.2-1.6-3.5-1.7L751.4,529.3z"/>
</g>
<g class="st1">
	<path class="st2" d="M709,576.7c1.2-3,2.3-5.8,3.3-8.6c1-2.8,1.9-5.7,2.3-8.5c0.3-1.4,0.3-2.9,0.7-4.5c0.3-1.5,0.7-3.2,1.3-4.6
		c0.6-1.5,1.3-3.1,2.2-4.4c0.9-1.4,2-2.7,2.9-4.1l1.8-3l1.2,2.4c1.4,2.7,3.4,4.9,5.8,6.8c1.2,1,2.4,1.9,3.6,2.9
		c1.2,1,2.2,2.1,3.1,3.3c0.9,1.1,1.7,2.5,2.4,3.8c0.7,1.3,1.4,2.8,2,4.1c1.4,2.8,3.1,5.3,5.4,7.3l2.2,1.8l-3.4,1.2
		c-1.5,0.5-3,1.3-4.7,1.8c-1.6,0.5-3.2,0.9-4.9,1.1c-1.6,0.1-3.3,0.2-4.9,0.1c-1.5-0.1-3-0.2-4.6-0.4c-2.8-0.3-5.9,0-8.9,0.3
		C715.1,575.9,712.2,576.2,709,576.7z M711,575.2c2.7-0.3,5.7-0.8,8.6-1.5c3-0.7,5.9-1.2,9-2.3c1.5-0.5,3-1.2,4.4-1.7
		c1.4-0.5,2.7-0.9,4.1-1.2c1.4-0.2,2.7-0.3,4-0.2c1.3,0.2,2.8,0.5,4.3,0.6l-1.2,3c-1.4-2.8-3.4-4.9-5.8-6.9c-1.2-1-2.4-1.9-3.6-2.9
		c-1.2-1-2.2-2.1-3.1-3.3c-0.9-1.1-1.7-2.5-2.4-3.8c-0.7-1.3-1.4-2.8-2-4.1c-1.4-2.8-3.1-5.3-5.4-7.3l3.2-0.5
		c-0.3,1.4-0.3,2.9-0.4,4.3c-0.2,1.4-0.5,2.7-1,3.9s-1.3,2.4-2.1,3.7c-0.9,1.3-1.8,2.5-2.7,3.8c-1.9,2.7-3,5.5-4.4,8.2
		C713.2,569.7,711.9,572.6,711,575.2z"/>
</g>
<g class="st1">
	<path class="st2" d="M808,502.4c0.2,2.4-0.1,4.9-0.9,7.2c-0.8,2.3-1.8,4.6-3.2,6.6c-1.4,2-3.1,4-5.1,5.7c-2.1,1.7-4.7,2.8-7.5,3.1
		c-0.7,0.1-1.3,0-2.1,0c-0.7-0.1-1.3-0.3-2-0.3c-0.6-0.2-1.3-0.4-2-0.7s-1.3-0.6-1.8-0.9c-2.2-1.4-4.2-2.9-6.2-4.4
		c-1.9-1.5-4-3.2-5.7-5.2c-1.7-2.1-2.9-4.7-3.1-7.5c-0.2-2.8,0.4-5.5,1.7-7.9c1.3-2.3,3-4.3,4.7-6.1c0.4-0.4,0.8-0.9,1.2-1.4
		c0.4-0.4,0.8-0.9,1.3-1.4c0.4-0.4,0.9-0.9,1.3-1.4c0.5-0.4,0.9-0.9,1.4-1.4c0.5-0.4,1-0.9,1.6-1.2c0.6-0.4,1.1-0.7,1.8-1.1
		c0.6-0.3,1.3-0.5,1.9-0.7s1.3-0.2,2.1-0.4c2.8-0.2,5.5,0.5,7.9,1.8c2.3,1.3,4.3,2.9,6.1,4.7c1.8,1.8,3.3,3.6,4.4,5.8
		C807.1,497.4,807.7,499.9,808,502.4z M805.4,502.6c-0.2-2.1-0.8-4.1-1.7-6.1s-2.4-3.5-4.1-4.8c-1.7-1.2-3.9-1.8-5.8-1.9
		c-2-0.1-3.8,0.1-5.6,0.3c-0.4,0-0.9,0.2-1.3,0.1c-0.4,0-0.9,0.1-1.4,0.1c-0.4,0-1,0.1-1.4,0.1c-0.5,0-1,0.1-1.5,0.1
		c-0.5,0.1-1,0.2-1.5,0.3c-0.5,0.1-1,0.4-1.5,0.6c-0.4,0.3-0.9,0.6-1.2,0.9c-0.4,0.4-0.7,0.8-1.1,1.2c-1.3,1.6-1.8,3.8-1.9,5.8
		c0,2,0.1,3.8,0.3,5.6c0.2,1.8,0.3,3.7,0.7,5.6c0.5,2,1.3,3.9,2.9,5.4c1.4,1.5,3.6,2.2,5.7,2.2c0.5,0,1,0,1.5,0c0.5,0,1-0.1,1.4-0.1
		c0.4-0.1,1-0.2,1.4-0.2c0.4,0,0.9-0.2,1.3-0.1c1.8-0.2,3.7-0.3,5.6-0.8c2-0.5,3.9-1.3,5.4-2.8c1.5-1.4,2.5-3.3,3.1-5.4
		C805.4,506.8,805.6,504.6,805.4,502.6z"/>
</g>
<g class="st1">
	<path class="st2" d="M889.2,564.9c0.7-1.2,0.9-2.5,0.8-3.9c0.1-1.3-1.6-3.1-1-4.3c0.1-0.3,0.4-0.5,0.5-0.8c0.4-0.3,0.7-0.5,1.1-0.7
		c0.8-0.5,1.3-1,1.4-1.6c0.1-0.6-0.2-1.4-0.6-2.2c-0.4-0.8-0.6-1.5-0.4-2.1c0.1-0.6,0.7-1.2,1.4-1.6s1.3-1,1.6-1.5
		c0.2-0.3,0.2-0.6,0.1-1c0-0.4-0.3-0.8-0.6-1.2c-0.5-0.9-0.8-1.5-0.6-2.2c0.3-1.3,2.5-2,3-3.3c0.7-1.2,1.1-2.4,1.1-3.8l2.6,0.7
		c-0.7,1.2-0.9,2.5-0.9,3.9c-0.2,1.3,1.4,3.1,1,4.3c0,0.6-0.7,1.2-1.6,1.5c-0.4,0.2-0.8,0.5-1,0.7c-0.3,0.3-0.4,0.5-0.3,0.9
		c-0.1,0.6,0.2,1.4,0.6,2.2c0.4,0.8,0.6,1.5,0.4,2.1c-0.1,0.6-0.7,1.2-1.4,1.6c-0.7,0.5-1.3,1-1.6,1.5c-0.4,0.5-0.2,1.3,0.4,2.1
		c0.2,0.4,0.5,0.8,0.6,1.2c0.1,0.4,0.2,0.7,0.1,1.1c-0.2,1.3-2.5,2-3,3.3c-0.7,1.2-1.2,2.3-1.2,3.8L889.2,564.9z"/>
</g>
<g class="st1">
	<path class="st2" d="M804.7,538.5c0.5,1.3,1.5,2.2,2.5,3c1,0.9,3.4,0.7,4,1.8c0.2,0.3,0.4,0.6,0.4,1c0,0.4,0,0.8-0.1,1.3
		c-0.1,0.9-0.1,1.6,0.6,2.1c0.4,0.5,1.4,0.7,2.2,0.9c0.8,0.2,1.5,0.5,2,1s0.5,1.3,0.5,2.1c0,0.8-0.1,1.7,0.3,2.2
		c0.2,0.3,0.4,0.5,0.7,0.6c0.3,0.2,0.7,0.2,1.2,0.3c0.9,0.1,1.7,0.2,2.1,0.9c0.8,1,0.1,3.2,0.8,4.4c0.6,1.2,1.2,2.4,2.3,3.2
		l-2.1,1.6c-0.5-1.3-1.5-2.2-2.5-3c-1-0.9-3.3-0.8-4-1.8c-0.4-0.5-0.5-1.3-0.3-2.2c0.1-0.4,0.1-0.9,0.1-1.3c0-0.4-0.3-0.6-0.5-0.9
		c-0.4-0.5-1.4-0.7-2.2-0.9c-0.8-0.2-1.5-0.5-2-1s-0.5-1.3-0.5-2.1c0-0.8,0.1-1.7-0.3-2.2c-0.4-0.6-1-0.9-1.9-1
		c-0.4-0.1-0.9-0.1-1.3-0.3s-0.6-0.3-0.8-0.5c-0.9-0.9-0.1-3.2-0.8-4.4c-0.6-1.2-1.2-2.4-2.3-3.2L804.7,538.5z"/>
</g>
<g class="st1">
	<path class="st2" d="M913.7,512.6c-1.3-1.3-2.9-2.2-4.6-2.8c-1.7-0.8-4.2,0-5.6-1.2c-0.4-0.3-0.7-0.5-0.9-1c-0.2-0.4-0.5-1-0.6-1.5
		c-0.4-1.1-1-1.8-1.8-2.3c-0.7-0.4-1.8-0.4-3-0.5c-1.1,0-2-0.2-2.8-0.8c-0.7-0.4-1.3-1.3-1.7-2.3c-0.5-1-0.9-1.9-1.6-2.5
		c-0.4-0.4-0.7-0.4-1.3-0.6c-0.4-0.2-1-0.1-1.5-0.1c-1.2,0.1-2.1,0-2.9-0.6c-1.5-1-2-3.5-3.4-4.7c-1.3-1.3-2.7-2.5-4.4-3.1l1.4-2.2
		c1.3,1.3,2.9,2.2,4.6,2.8c1.6,0.9,4.1,0.2,5.6,1.2c0.8,0.3,1.3,1.3,1.6,2.5c0.2,0.5,0.4,1.1,0.6,1.4c0.3,0.4,0.6,0.7,1.1,0.9
		c0.7,0.4,1.8,0.4,3,0.5c1.1,0,2,0.2,2.8,0.8c0.7,0.4,1.3,1.3,1.7,2.3c0.5,1,0.9,1.9,1.6,2.5c0.7,0.5,1.6,0.9,2.8,0.8
		c0.5,0.1,1.1,0,1.6,0.1s0.9,0.2,1.3,0.4c1.6,0.9,2,3.5,3.4,4.7c1.3,1.3,2.7,2.5,4.4,3.1L913.7,512.6z"/>
</g>
<g class="st1">
	<path class="st2" d="M869.5,539.8c-3-1.3-5.8-2.3-8.6-3.4c-2.9-0.9-5.7-2-8.5-2.4c-1.4-0.3-2.9-0.3-4.5-0.7
		c-1.5-0.3-3.1-0.7-4.7-1.4c-1.6-0.6-3.1-1.4-4.4-2.4c-1.4-1-2.7-2-4.1-2.9l-3-1.8l2.5-1.2c2.8-1.4,5-3.5,6.9-5.7
		c1-1.2,1.9-2.4,2.9-3.6c1-1.2,2.1-2.2,3.3-3.1c1.1-0.9,2.5-1.7,3.8-2.4c1.4-0.6,2.8-1.4,4.2-2c2.8-1.4,5.3-2.9,7.4-5.4l1.8-2.2
		l1.2,3.4c0.5,1.5,1.3,3,1.8,4.7c0.6,1.5,0.9,3.2,1,4.9c0.1,1.6,0.2,3.3,0.1,4.8c-0.2,1.5-0.3,3-0.4,4.6c-0.2,2.9,0,5.9,0.2,8.8
		C868.7,533.7,869,536.7,869.5,539.8z M867.8,537.8c-0.3-2.7-0.8-5.7-1.4-8.6c-0.7-3-1.1-5.9-2.3-8.9c-0.5-1.5-1.1-3-1.7-4.4
		c-0.5-1.4-0.9-2.8-1.2-4.1c-0.3-1.3-0.3-2.7-0.1-4c0.2-1.3,0.5-2.9,0.6-4.3l3,1.2c-2.8,1.4-5,3.4-7,5.7c-1,1.2-1.9,2.4-2.9,3.6
		c-1,1.2-2.1,2.2-3.3,3.1c-1.1,0.9-2.5,1.7-3.8,2.4c-1.4,0.6-2.8,1.4-4.2,2c-2.8,1.4-5.3,3-7.4,5.3l-0.5-3.2
		c1.4,0.3,2.9,0.3,4.3,0.5c1.3,0.2,2.7,0.5,3.9,1.1c1.2,0.5,2.4,1.2,3.7,2.1c1.3,0.9,2.5,1.8,3.8,2.7c2.7,1.9,5.4,3.1,8.1,4.5
		C862.6,535.6,865.3,536.9,867.8,537.8z"/>
</g>
<g class="st1">
	<path class="st2" d="M964.7,507.3c0.2,1.9-0.1,3.8-0.6,5.5c-0.5,1.8-1.4,3.4-2.5,5c-1.1,1.5-2.3,3.2-3.9,4.7
		c-1.6,1.4-3.6,2.5-5.8,2.6c-0.5,0-1.1,0-1.6-0.1c-0.5-0.1-1.1-0.2-1.5-0.3c-0.5-0.2-1-0.3-1.5-0.7c-0.4-0.3-0.9-0.5-1.4-0.9
		c-1.7-1.3-3.2-2.4-4.7-3.5c-1.5-1.1-3.2-2.3-4.6-3.9c-1.4-1.6-2.5-3.6-2.7-5.8c-0.2-2.1,0.4-4.5,1.6-6.2c1.1-1.8,2.5-3.2,3.8-4.7
		c0.4-0.3,0.6-0.7,1-1.1c0.4-0.3,0.6-0.7,1-1.1c0.4-0.4,0.6-0.8,1-1.2c0.4-0.4,0.6-0.8,1.1-1.2c0.5-0.4,0.7-0.7,1.2-1.1
		c0.4-0.3,1-0.6,1.3-0.8c0.5-0.2,1.1-0.5,1.5-0.6s1.1-0.2,1.6-0.2c2.1-0.2,4.4,0.5,6.2,1.6c1.8,1,3.2,2.5,4.7,3.8
		c1.4,1.4,2.5,2.9,3.4,4.5C963.9,503.6,964.4,505.5,964.7,507.3z M962.1,507.6c-0.1-1.5-0.6-3-1.2-4.5c-0.6-1.4-1.7-2.7-3-3.4
		c-1.3-0.9-2.9-1.1-4.3-1c-1.4,0.1-2.8,0.4-4,0.6c-1.2,0.2-2.5,0-4,0.1c-0.4,0-0.8,0.1-1.2,0.1c-0.4,0.1-0.7,0.3-1.2,0.4
		c-0.4,0.2-0.7,0.5-1,0.6c-0.3,0.3-0.5,0.5-0.7,0.9c-0.9,1.3-1.1,2.9-1,4.3c0.1,1.5,0.4,2.8,0.5,4c0.1,1.2,0.1,2.5,0.3,4
		c0.1,1.4,0.8,2.9,1.8,4.1s2.6,1.6,4.2,1.3c0.4,0,0.7-0.1,1.2-0.2c0.4-0.1,0.7-0.2,1.1-0.3c0.4-0.1,0.6-0.2,1-0.2
		c0.4-0.1,0.6-0.2,1-0.1c1.3-0.1,2.5-0.1,4-0.3c1.4-0.1,2.9-0.8,4.1-1.8c1.1-1.1,1.9-2.4,2.5-3.9
		C962.1,510.7,962.2,509.2,962.1,507.6z"/>
</g>
<g class="st1">
	<path class="st2" d="M972.5,578.6c-3-1.3-5.8-2.3-8.6-3.4c-2.9-0.9-5.7-2-8.5-2.4c-1.4-0.3-2.9-0.3-4.5-0.7
		c-1.5-0.3-3.1-0.7-4.7-1.4c-1.6-0.6-3.1-1.4-4.4-2.4c-1.4-1-2.7-2-4.1-2.9l-3-1.8l2.5-1.2c2.8-1.4,5-3.5,6.9-5.7
		c1-1.2,1.9-2.4,2.9-3.6c1-1.2,2.1-2.2,3.3-3.1c1.1-0.9,2.5-1.7,3.8-2.4c1.4-0.6,2.8-1.4,4.2-2c2.8-1.4,5.3-2.9,7.4-5.4l1.8-2.2
		l1.2,3.4c0.5,1.5,1.3,3,1.8,4.7c0.6,1.5,0.9,3.2,1,4.9c0.1,1.6,0.2,3.3,0.1,4.8c-0.2,1.5-0.3,3-0.4,4.6c-0.2,2.9,0,5.9,0.2,8.8
		C971.8,572.5,972,575.5,972.5,578.6z M970.8,576.6c-0.3-2.7-0.8-5.7-1.4-8.6c-0.7-3-1.1-5.9-2.3-8.9c-0.5-1.5-1.1-3-1.7-4.4
		c-0.5-1.4-0.9-2.8-1.2-4.1c-0.3-1.3-0.3-2.7-0.1-4c0.2-1.3,0.5-2.9,0.6-4.3l3,1.2c-2.8,1.4-5,3.4-7,5.7c-1,1.2-1.9,2.4-2.9,3.6
		s-2.1,2.2-3.3,3.1c-1.1,0.9-2.5,1.7-3.8,2.4c-1.4,0.6-2.8,1.4-4.2,2c-2.8,1.4-5.3,3-7.4,5.3l-0.5-3.2c1.4,0.3,2.9,0.3,4.3,0.5
		s2.7,0.5,3.9,1.1c1.2,0.5,2.4,1.2,3.7,2.1c1.3,0.9,2.5,1.8,3.8,2.7c2.7,1.9,5.4,3.1,8.1,4.5C965.6,574.4,968.3,575.7,970.8,576.6z"
		/>
</g>
<g class="st1">
	<path class="st2" d="M1391.8,542.6c0.2,1.9-0.1,3.8-0.6,5.5c-0.5,1.8-1.4,3.4-2.5,5c-1.1,1.5-2.3,3.2-3.9,4.7s-3.6,2.5-5.8,2.6
		c-0.5,0-1.1,0-1.6-0.1c-0.5-0.1-1.1-0.2-1.5-0.3c-0.5-0.2-1-0.3-1.5-0.7c-0.4-0.3-0.9-0.5-1.4-0.9c-1.7-1.3-3.2-2.4-4.7-3.5
		c-1.5-1.1-3.2-2.3-4.6-3.9c-1.4-1.6-2.5-3.6-2.7-5.8c-0.2-2.1,0.4-4.5,1.6-6.2c1.1-1.8,2.5-3.2,3.8-4.7c0.4-0.3,0.6-0.7,1-1.1
		c0.4-0.3,0.6-0.7,1-1.1s0.6-0.8,1-1.2c0.4-0.4,0.6-0.8,1.1-1.2s0.7-0.7,1.2-1.1c0.4-0.3,1-0.6,1.3-0.8c0.5-0.2,1.1-0.5,1.5-0.6
		c0.5-0.1,1.1-0.2,1.6-0.2c2.1-0.2,4.4,0.5,6.2,1.6c1.8,1,3.2,2.5,4.7,3.8c1.4,1.4,2.5,2.9,3.4,4.5
		C1391.1,538.8,1391.5,540.7,1391.8,542.6z M1389.2,542.8c-0.1-1.5-0.6-3-1.2-4.5c-0.6-1.4-1.7-2.7-3-3.4c-1.3-0.9-2.9-1.1-4.3-1
		c-1.4,0.1-2.8,0.4-4,0.6c-1.2,0.2-2.5,0-4,0.1c-0.4,0-0.8,0.1-1.2,0.1c-0.4,0.1-0.7,0.3-1.2,0.4c-0.4,0.2-0.7,0.5-1,0.6
		c-0.3,0.3-0.5,0.5-0.7,0.9c-0.9,1.3-1.1,2.9-1,4.3c0.1,1.5,0.4,2.8,0.5,4c0.1,1.2,0.1,2.5,0.3,4c0.1,1.4,0.8,2.9,1.8,4.1
		c1,1.1,2.6,1.6,4.2,1.3c0.4,0,0.7-0.1,1.2-0.2c0.4-0.1,0.7-0.2,1.1-0.3c0.4-0.1,0.6-0.2,1-0.2c0.4-0.1,0.6-0.2,1-0.1
		c1.3-0.1,2.5-0.1,4-0.3c1.4-0.1,2.9-0.8,4.1-1.8c1.1-1.1,1.9-2.4,2.5-3.9C1389.2,545.9,1389.3,544.4,1389.2,542.8z"/>
</g>
</svg>
