<?xml version="1.0" encoding="utf-8"?>
<!-- Generator: Adobe Illustrator 22.1.0, SVG Export Plug-In . SVG Version: 6.00 Build 0)  -->
<svg version="1.1" id="Layer_1" xmlns="http://www.w3.org/2000/svg" xmlns:xlink="http://www.w3.org/1999/xlink" x="0px" y="0px"
	 viewBox="0 0 966.1 811.8" style="enable-background:new 0 0 966.1 811.8;" xml:space="preserve">
<style type="text/css">
	.st0{fill:#3482A1;}
	.st1{fill:#6FDCCA;}
	.st2{opacity:0.5;fill:#23146B;enable-background:new    ;}
	.st3{fill:#35296F;}
	.st4{opacity:0.2;fill:#191839;enable-background:new    ;}
	.st5{opacity:0.2;fill:#FFFFFF;enable-background:new    ;}
	.st6{opacity:0.2;fill:#35296F;enable-background:new    ;}
	.st7{fill:#D2FAD6;}
	.st8{opacity:0.2;fill:#323071;enable-background:new    ;}
	.st9{opacity:0.8;fill:#FFFFFF;enable-background:new    ;}
	.st10{opacity:0.2;fill:#CCC4F4;enable-background:new    ;}
	.st11{fill:#45ADD6;}
	.st12{opacity:0.2;fill:#6A52DE;enable-background:new    ;}
	.st13{fill:#F8B0BC;}
	.st14{fill:#F894A4;}
	.st15{opacity:0.1;fill:#323071;enable-background:new    ;}
	.st16{opacity:0.5;fill:#FFFFFF;enable-background:new    ;}
	.st17{opacity:0.1;fill:#35296F;enable-background:new    ;}
	.st18{fill:#FBBFC8;}
	.st19{opacity:0.6;fill:#F9F8FE;enable-background:new    ;}
	.st20{fill:#5D7FAE;}
	.st21{opacity:0.3;fill:#23146B;enable-background:new    ;}
	.st22{opacity:0.2;fill:#23576B;enable-background:new    ;}
	.st23{opacity:0.6;fill:#FFFFFF;enable-background:new    ;}
</style>
<title>Housemates</title>
<g id="Person4">
	<path class="st0" d="M340,353.1l59.6-44.8l134.7-29.9l49.4,39.7l-42.5,28.7c0,0-9.1,32.5-9.7,46.5c-0.6,13.9,12.8,102.1,12.8,102.1
		l21.1,35.1l-59.5,50.2l-48.3,72.8L341,573.1L340,353.1z"/>
	<path class="st1" d="M497.6,191.4c0,0-3.9-40.7,23.7-56.8c27.7-16.1,12.6-29.5,53.2-23.3c40.6,6.3,49.8,25.8,49.8,25.8
		s21.6,62.8,3.6,77.5c-18,14.7-48.6,33-71.4,48.4S497.6,191.4,497.6,191.4z"/>
	<path class="st2" d="M526,414.8c0,0-7.9,32.3-8.8,44.2c-0.8,11.8,0.4,38.2,0.4,38.2s-22.3,0.9-31.6,3.4
		c-10.3,2.7-31.5,17.3-37.1,26.3c-7.6,12.5-8.8,35.9-4.8,48c4,12.1,27.3,36.8,27.3,36.8l29.7-18.1l68.1-71.2L526,414.8z"/>
	<path class="st3" d="M477.2,267.5c0,0-27.5,26.5-20.7,53.2s15.1,51.6,15.1,51.6l41.7-35.1l-0.9-7.2l21.8-51.7l2.6-26.4L477.2,267.5
		z"/>
	<path class="st4" d="M401.4,308.3l-30.2,23.5L425,443.9l-33.2,43.7l-2.9,30c0,0,102.9-69.3,88-91.5
		C457.5,397,401.4,308.3,401.4,308.3z"/>
	<path class="st1" d="M486,205.6c0,0-16.4-11.5-35.2-3.6c-18.8,7.9-61.4,48.7-53.9,92.7c7.5,44,36.6,126.4,42.6,134.2
		c6,7.8,23.7-8.6,23.7-8.6L447,398.4l30.1-26.9L486,205.6z"/>
	<path class="st5" d="M475.1,232.9l7.6-26.8l-7-5.1c-8.2-2.6-17-2.2-25,1.1c-18.8,7.9-61.4,48.7-53.9,92.7
		c7.5,44,36.6,126.4,42.6,134.2s23.7-8.7,23.7-8.7L447,398.4l3.1-2.7c-28.3-55.9-39.3-97.4-24.5-120.7
		C442.4,248.2,475.1,232.9,475.1,232.9z"/>
	<path class="st6" d="M627.9,214.6c17.9-14.7-3.6-77.5-3.6-77.5s-9.2-19.3-49.2-25.7l0.2,24.8c0,0,13.5,1.6,17.9,20.2
		c4.4,18.6,7.5,27,7.7,43.8c0.1,15.1-15.6,41-18.9,46.2C598.8,235.5,616.1,224.3,627.9,214.6z"/>
	<path class="st7" d="M482.8,206.1c0,0,1.3-1.3,3.6-3.6c13.4-13.3,60.2-59.3,65.8-60.1c6.5-0.9,32.7,9.2,34.2,21.1
		c1.5,11.9,6.7,51,0,62.4s-19.4,28.8-30.1,35.5c-10.7,6.7-25.8,17.6-35.6,19c-9.7,1.4-32.5,4.7-36.9-3.4c-4.4-8-7.6-7.6-8.5-26.5
		S482.8,206.1,482.8,206.1z"/>
	<path class="st8" d="M534.2,374.6l18.2-37.8l33.3-16.2L531.8,277l50.1-30.6c0,0,7.7-28.3,7.7-37.3c0-9-1-25.6-1-25.6
		s-6.9,21.6-22.1,38.8c-15.3,17.2-47.2,35.2-51.1,38.4S483.9,277,483.9,277l12.6,35.1l2.3,16.1L534.2,374.6z"/>
</g>
<g id="Person3">
	<path class="st7" d="M630.2,281.9c0,0-73.6,42-89.1,64.8c-13.6,20.1-19.2,58.2-11.8,109.7s36.1,73.9,36.1,73.9l75.5,58.3l41.5,38.8
		l89.9-33.4l78.7-17.8c0,0-55.3-74-56.7-103.9c-0.7-14.3,26.9-60,26.9-60s22.8-95.9,3.3-102.4c-19.5-6.5-88.2-50.3-88.2-50.3
		L630.2,281.9z"/>
	<path class="st9" d="M584,362.2c-9.9,36.8,32.5,129,34.7,148.3s-0.7,47.9-0.7,47.9l61.7,40.5c0,0,86.7-30.3,113.5-39.8
		c26.7-9.5-40.8-33.5-26-57.9c14.8-24.4,38.8-71,38.7-87.5c-0.2-16.6,2.6-44.2-0.5-57.9s-35.9-29.9-35.9-29.9s-20.2,70.1-32.2,93.3
		c-6.5,12.5-45.5,33.2-45.5,33.2s-30.1-67.9-38.3-90.8c-8.2-22.9-7.6-32.9-17.1-34.4C620.7,324.6,588.1,347,584,362.2z"/>
	<path class="st10" d="M817.3,332.4c1,3.7,7.4,36.2-3.9,84.5c-9.1,39-45.9,88.2-38.1,100.9c0.4,0.7,16.9,30.8,35.1,31.1
		c20.6,0.4,28.6,9.5,23.6,2.5c-4.9-7-30.3-56.1-33-60.9c-8.2-14.8-4.3-24.8-1.7-31.2c10.8-26.6,23.8-52.9,26.5-58.7
		c5.4-25.8,16-85.6,0.8-90.7c-19.5-6.5-88.2-50.3-88.2-50.3s-72.3,8.7-106.3,22.3c-20.2,8-10.2,4.8-66.2,41
		c-9.1,5.9-32.3,28.3-25.3,35.2c5.1-1.6,26.2-18.9,46.3-30.4c21.9-12.6,34.3-22.7,58.9-20.5c24.6,2.2,30.6,26.1,54.8,19.4
		c24.2-6.7,50-32.6,66.5-28.4C783.8,302.4,815.3,325.8,817.3,332.4z"/>
	<path class="st3" d="M642.2,273.2l-12.1,8.7c0,0,44,57.8,45.4,118.2l46.1,10.7c0,0,26.8-47.4,32.5-64.6c3.5-10.4,6.4-35,6.2-43.2
		c-0.4-12.4-23.9-43.3-23.9-43.3l-15.7,43.9l-17.2,7.7l-35-1.9L642.2,273.2z"/>
	<path class="st11" d="M812.5,549.3c0,0-46.5-4.9-61.4-1.5c-19.1,4.3-66.7,33.9-63.5,45.6c3.2,11.7-7.5,30.5-7.5,30.5l26.7-10.8
		l68.8-42.8l42.1,18.2L812.5,549.3z"/>
	<path class="st12" d="M654.9,284.9c0,0,7.1,39.5,33.4,109.7c21.5,57.1,44.1-3.8,47.7-45.4c3.6-41.7,12.8-92.1,12.8-92.1
		L654.9,284.9z"/>
	<path class="st13" d="M735.6,631.9c0,0-3.7,86.9-38,79.7s-199.2-42.5-217.1-87.1s-28-63-17.1-80.7c7.2-11.7,40.2-24.4,56.4-23.5
		C581.9,523.3,735.6,631.9,735.6,631.9z"/>
	<path class="st14" d="M552.8,625.5c-53.7-29.8-61.3-30.1-77.6-51.7c-9.6-12.6-11.8-23.8-12.3-29.2c-10.1,17.4-0.1,35.9,17.5,79.9
		c12.1,30.3,92,56.3,152.8,72.1l15-35.1l10.1-7.9C658.4,653.5,606.5,655.2,552.8,625.5z"/>
	<path class="st14" d="M615.4,658.3c0,0,3.8,79.2,29.6,73.7c25.8-5.4,149.7-32,162.6-72c12.9-40,11.9-72.8,11.9-72.8
		s-30.6-23.5-42.8-23.3C730,564.8,615.4,658.3,615.4,658.3z"/>
	<path class="st0" d="M685.4,321.8c-12.9-0.2-36.3-22.4-41.5-29.2c-7.9-10.5-12.5-50.6-12.5-50.6l-4.1-81l12.4-31.8
		c0,0,24.5-40.2,45.3-33.2s50.4,17.8,50.4,17.8s15.7,6.1,21.1,22s19.7,23.8,7.1,53.9s-9,49.8-9,49.8s-5.6,64-22.8,71.4
		C714.5,318.4,695.3,321.9,685.4,321.8z"/>
	<path class="st7" d="M667.1,261c0,0,5.6-7.7,13.9-7.2s17.9,5,24.4,6.2c8.2,1.5,11,11.3,11,11.3s2.1,3.2-9.1,6.5s-26.4,0.3-29.9-0.9
		s-14.1-6.6-14.1-6.6L667.1,261z"/>
	<path class="st15" d="M665.2,262.9c0,0,3.9-11.7,7.3-13.4c5.1-2.5,16.7,3.2,22.4,3.2c13.4,0.1,24.1,12.4,20.8,13.5l-27.2-3.5
		L665.2,262.9z"/>
	<path class="st7" d="M647.3,161.6c0,0-3.3,12.6,12.9,10.3l35.7-5.2l29.5-6.3c0,0,3.7,33.6,3.8,44.9c0.1,14-3.6,50-3.6,50l-15.2-4
		c0,0-19.1-10-26.2-10.1C677.6,241,659,250,659,250s4.7-14.5-4.5-34S647.3,161.6,647.3,161.6z"/>
	<path class="st16" d="M654.9,151.8c16.5-4.3,38-3.6,52.5-9.6c14.5-6.1,13-18,13-18s-24.6-9.7-40.1-6.9
		c-15.5,2.9-19.3,1.5-24.2,11.2s-4.1,10.8-16.8,29.8C629.6,172.4,650.8,152.8,654.9,151.8z"/>
	<path class="st6" d="M737.5,160.2l8.8-16.6c0,0,8.3-10.7,10,1.2c1.7,12,10.2,20.2,6.9,27.9c-3.3,7.7-14.7,48.8-15.5,66.1
		s-2.2,32.5-5.6,41c-3.4,8.5-5.4,19.1-15.2,21.5c-9.8,2.5-12.8-2.8-12.8-2.8s12,1.7,15.1-13c3.1-14.6,6.8-39.7,8.3-50.9
		c1.5-10.3,0.7-27.3-0.4-35.3C735.6,188.8,728.6,176.8,737.5,160.2z"/>
	<path class="st6" d="M629,169.7c0,0,8.9,56.9,8.4,63.4s6,20.9,6.2,33.7c0.1,13.8,4.4,24.9,12.7,32c8.4,7.2,16.3,14.9,23.9,22.9
		c0,0-44.4-6.1-48.2-76.1s-2.6-46-2.6-46L629,169.7z"/>
	<path class="st17" d="M663.1,272.7c0,0,3.9,4.7,14,7.9c10,3.2,12.1,6.4,22,3.4c10-3,20.5-3.6,20.4-7.4c0-3.7-5.7-1.6-5.7-1.6
		L663.1,272.7z"/>
	<path class="st7" d="M716.4,271.2c0,0-2.8-9.7-11-11.3c-6.5-1.2-16.1-5.6-24.4-6.2c-8.3-0.5-13.9,7.2-13.9,7.2l-3.7,9.2
		c0,0,10.6,5.4,14.1,6.6c3.5,1.2,18.8,4.2,29.9,0.9S716.4,271.2,716.4,271.2z"/>
	<path class="st8" d="M649,167.6c0,0-6.1,16.6,13.3,15.1c19.4-1.5,50.6-7.6,50.6-7.6l13.8-3.9l-1.3-12.8L649,167.6z"/>
	<path class="st5" d="M751,547.8c-14.2,3.2-44.1,20.3-57.2,33.7l38.8-20.8c0,0,28.6-5.6,36.6-5.5c8,0.2,45.2,8.3,45.2,8.3l-1.9-14.2
		C812.5,549.3,766,544.4,751,547.8z"/>
	<path class="st18" d="M776.7,564c-46.7,0.7-161.3,94.3-161.3,94.3s0.2,4.5,0.9,11.3l10.6,28.2c0,0,85.3-26.8,118.7-47
		c33.5-20.2,71.3-65.4,71.3-65.4C809.3,579.8,786.7,563.9,776.7,564z"/>
</g>
<g id="Person1">
	<path class="st14" d="M143.8,358.9c0,0,31.4-41,47.2-43.2c12.7-1.8,46,22.8,46,22.8s60-10.2,78.9-4.4s44.2,33.5,59.8,52
		c15.7,18.5,32.1,42.2,29.7,61.6s-15.7,94.2-15.7,94.2l-45.4,107.5l-104,2.4l-74.2-10.1L143.8,358.9z"/>
	<path class="st19" d="M353.2,446c7-39.8-10.9-42.9-27.5-46c-26.2-4.9-35.2-4.2-44.2,6.3c-7.7,9-52.1,59.5-61.1,49.1
		c-9-10.4-37.9-43.3-47.3-76.4c-4-14.1-8.3-28.6-11.8-40.7c-9.7,10.5-17.5,20.6-17.5,20.6l22.5,282.7l74.2,10.1l30.1-0.7
		C302.9,628.3,327.9,588.9,353.2,446z"/>
	<path class="st3" d="M209.6,313c-3.3,4.5-16.1,9.1-17,14.6c-2.1,13.3,25.2,35.3,30.7,44.1c6.4,10.4,9.2,19.5,33.6,3.8
		c24.4-15.6,46.1-39.6,46.1-39.6l-4.7-35.7l-56.1-65.4C242.2,234.8,222.1,295.9,209.6,313z"/>
	<path class="st12" d="M256.9,375.5c3.1-2,6.1-4.1,9.1-6.2c-0.5-5.6-2.4-13.1-3.3-22.1c-1.1-12-6.8-13.1-13.9-10.5
		c-7.1,2.6-21.4,0.3-23.6-6.4c-1.5-4.6-6.4-19.4-9.3-28.1c-1.8,3.8-3.9,7.4-6.3,10.8c-3.3,4.5-16.1,9.1-17,14.6
		c-2.1,13.3,25.2,35.3,30.7,44.1C229.7,382.1,232.5,391.2,256.9,375.5z"/>
	<path class="st20" d="M202.9,267.2c0,0-20.3-28.3-17.4-44.3c2.9-16,14.4-66.2,14.4-66.2s16.7-37.1,31.2-39.2
		c14.6-2.1,13.3-12.3,30-11.3c16.7,1,42.7-2.7,52.6,9.8s27.5,32.4,29,44.3c1.6,11.9,13.1,36.2,5.9,44.2s-21.2,47.5-21.2,47.5
		l-23.2,34.6l-5.9,13.6L202.9,267.2z"/>
	<path class="st7" d="M234,151.8c0,0-23,76.1-24.1,103.2c-0.7,17.2,15.2,80,39.4,74.8c24.1-5.2,40.7-18,47.9-26
		c7.2-8,11.1-41.5,18.1-51.2s4.3-42.2-0.5-53.7c-4.8-11.4-17.3-30.4-32.3-31.7s-25-1.6-31.8-2.4C243.9,164.2,234,151.8,234,151.8z"
		/>
	<path class="st21" d="M272.8,186.4c25,8.4,37,10.4,37.2,27.9s-11,45-12.8,55.9c-2,12.1-5.6,30.2-18.5,39.3s-41.2,21.2-41.3,21.2
		c4,0.4,7.9,0.1,11.8-0.8c24.1-5.2,40.7-18,47.9-26c7.2-8,11.1-41.5,18.1-51.2s4.3-42.2-0.5-53.7s-17.3-30.4-32.3-31.7
		s-25-1.6-31.8-2.4C250.6,165,247.8,178,272.8,186.4z"/>
	<path class="st22" d="M267.3,134.1c18,11.8,63.1,16.9,64.2,32.1c1.1,15.3,0.8,38,0.5,55.9c-0.1,7.9-1.5,17-3.4,26.3
		c3.6-9.9,14-37.4,19.9-43.9c7.2-8-4.3-32.3-5.9-44.2c-1.6-11.9-19.1-31.9-29-44.3c-9.9-12.4-35.9-8.7-52.6-9.8
		C261,106.3,249.3,122.3,267.3,134.1z"/>
	<path class="st23" d="M237.5,137.9c0,0-7.5,9.5-3.6,13.9c3.9,4.4,4.9,11.5,14.6,12.7s22.7,1.7,28.8,2.5c6.2,0.8,11.6,0,17.9,5.8
		c6.3,5.8,24.5,8.8-0.1-8.2s-28.7-15.5-37.7-21.9c-9-6.4-9.1-17.4-14.5-11.1L237.5,137.9z"/>
</g>
</svg>
