<svg id="Layer_1" data-name="Layer 1" xmlns="http://www.w3.org/2000/svg" viewBox="0 0 1521.98 891.38"><defs><style>.cls-1{fill:#503ea7;}.cls-2{fill:#8875e5;}.cls-28,.cls-3{fill:none;}.cls-3{stroke:#8875e5;stroke-miterlimit:10;}.cls-4{fill:#3482a1;}.cls-5{fill:#6fdcca;}.cls-16,.cls-6,.cls-7{fill:#35296f;}.cls-11,.cls-18,.cls-21,.cls-23,.cls-7{opacity:0.2;}.cls-11,.cls-14,.cls-15,.cls-16,.cls-18,.cls-20,.cls-21,.cls-22,.cls-23,.cls-25,.cls-7{isolation:isolate;}.cls-12,.cls-20,.cls-8,.cls-9{fill:#23146b;}.cls-8{opacity:0.4;}.cls-10{fill:#d2fad6;}.cls-11,.cls-13,.cls-14{fill:#323071;}.cls-12{opacity:0.2;}.cls-14,.cls-16{opacity:0.1;}.cls-15,.cls-22,.cls-23,.cls-24,.cls-25,.cls-27,.cls-29,.cls-30{fill:#fff;}.cls-15{opacity:0.5;}.cls-17{fill:#f894a4;}.cls-18{fill:#6a52de;}.cls-19{fill:#5d7fae;}.cls-20{opacity:0.3;}.cls-21{fill:#23576b;}.cls-22{opacity:0.6;}.cls-24{opacity:0.6;}.cls-25{opacity:0.4;}.cls-26,.cls-30{opacity:0.8;}.cls-29{opacity:0.3;}</style></defs><title>Housemates</title><path class="cls-1" d="M201,585S25.73,659.27,10.36,714.27c-35.37,126.59,233,176.4,342.3,157.42s251.72,7.66,336.75,38.09S977.3,994,1059.55,953.34s144.59-100.61,237.67-147.75,190.21-64.47,227.35-104.36-163.5-128.32-163.5-128.32Z" transform="translate(-7.17 -76.58)"/><path class="cls-2" d="M778.77,870c4.43-4.57,8.8-9.22,13-14,2.1-2.42,4.19-4.85,6.17-7.4l1.47-1.94a21.12,21.12,0,0,0,1.43-2.09l.1-.2a1.12,1.12,0,0,0,.14-.45.87.87,0,0,0-.11-.49.82.82,0,0,0-.53-.37.73.73,0,0,0-.41,0,1,1,0,0,0-.25.12,4.43,4.43,0,0,0-.54.42l-.89.86c-.16.16-.31.34-.47.51.58-.46,1.2-1,1.66-1.37l.06-.05s0-.06,0,.18a.77.77,0,0,0,.1.41.7.7,0,0,0,.47.33h.12l.11,0s.06,0,0,0a.41.41,0,0,1-.14,0l-.37.14c-.35.15-.71.33-1.06.51l-2.14,1.11c.38-.44.78-.86,1.18-1.27l-.09.07-1.9,1.42-7.66,5.7q-7.62,5.75-15,11.7c-1.24,1-2.48,2-3.7,2.94s-2.4,2-3.66,2.88l-3.7,2.81-1.16.86q6.25,1.08,12.33,2C775.17,873.64,777,871.84,778.77,870Z" transform="translate(-7.17 -76.58)"/><path class="cls-2" d="M798.85,845.14c.35-.18.71-.36,1.06-.51l.37-.14h-.12a.7.7,0,0,1-.47-.33.77.77,0,0,1-.1-.41c0-.24,0-.16,0-.18l-.06.05c-.46.42-1.08.91-1.66,1.37-.4.41-.8.83-1.18,1.27Z" transform="translate(-7.17 -76.58)"/><rect class="cls-3" x="904.8" y="455.31" width="22.79" height="71.44"/><path class="cls-4" d="M857.06,700.31s-20.88-137.46-19.94-159.12c.93-21.82,15.11-72.47,15.11-72.47L918.47,424l-77-61.87s-161.1,24.11-209.93,46.6c-26.38,12.15-92.88,69.82-92.88,69.82l-45.4,334.11c65.31,14.25,128.41,31.5,206.47,48.57,79.2,17.32,130.93,23.71,191.24,23.53L890,755Z" transform="translate(-7.17 -76.58)"/><path class="cls-5" d="M904.13,101.7C840.86,92,864.39,112.92,821.22,138c-43,25.09-36.94,88.52-36.94,88.52s56.26,135.59,91.8,111.59,83.22-52.52,111.27-75.43-5.61-120.78-5.61-120.78S967.4,111.52,904.13,101.7Z" transform="translate(-7.17 -76.58)"/><path class="cls-6" d="M720.23,428c10.6,41.61,23.53,80.42,23.53,80.42s50.62-56,63.23-75.1c12-18.25,34.79-76,34.79-76l3.6-36.56-92.89,24.31S709.63,386.43,720.23,428Z" transform="translate(-7.17 -76.58)"/><path class="cls-7" d="M905.07,101.85l.31,38.65s21,2.5,27.89,31.48,11.69,42.08,12,68.27c.16,23.53-24.31,63.89-29.45,72,26.18-17,53.14-34.45,71.53-49.56,27.9-22.91-5.61-120.78-5.61-120.78S967.41,111.83,905.07,101.85Z" transform="translate(-7.17 -76.58)"/><path class="cls-8" d="M981.67,880.89c109.75-7.58,134.81-110.93,211-151.19,52.85-27.93,122.37-42.6,158-73.45-9.23-43.14-17.21-79.36-17.21-79.36s-46.43-124.42-76.85-154.17c-22-21.5-134.64-75.25-134.64-75.25S998.64,378.4,960,392.74c-39.54,14.7-112.36,50.93-136,85-20.76,30.07-29.31,87.07-18,164.12,7.81,53.24,22.09,172.42,30.16,241C880.83,886.19,924,884.87,981.67,880.89Z" transform="translate(-7.17 -76.58)"/><path class="cls-9" d="M787.62,368.14,791.9,453s35.88-44.44,45.68-93.09S787.62,368.14,787.62,368.14Z" transform="translate(-7.17 -76.58)"/><path class="cls-10" d="M869.38,150.17c-8.73,1.24-81.67,72.93-102.55,93.66-3.59,3.58-5.61,5.61-5.61,5.61s-13.09,39.74-11.69,69.2,6.39,28.83,13.25,41.3c6.85,12.62,42.39,7.48,57.5,5.3,15.28-2.19,38.81-19.17,55.49-29.62s36.46-37.56,46.91-55.32,2.33-78.7,0-97.25S879.51,148.76,869.38,150.17Z" transform="translate(-7.17 -76.58)"/><path class="cls-11" d="M927.66,254.12c0-14-1.55-39.9-1.55-39.9s-10.76,33.66-34.45,60.47S818.1,329.55,812,334.53s-49.09,25.41-49.09,25.41l19.64,54.7,3.58,25.09L841.32,512l28.37-58.91,51.9-25.24-84-67.95,78.08-47.69S927.66,268.14,927.66,254.12Z" transform="translate(-7.17 -76.58)"/><path class="cls-12" d="M721.18,243.05c-29.3,12.31-95.69,75.9-84,144.47s57,197,66.39,209.15,32.53-4.62,36.93-13.4C778.2,508.06,776,248.66,776,248.66S750.48,230.74,721.18,243.05Z" transform="translate(-7.17 -76.58)"/><path class="cls-10" d="M981.67,880.89c109.75-7.58,134.81-110.93,211-151.19,68.11-36,163.89-50,179.18-104.92-6.23-30.14-10.81-51.87-10.81-51.87s-46.42-130.21-76.84-161.34c-22-22.5-134.64-78.75-134.64-78.75l-162,34.91s-112.36,65.76-136,101.46c-20.77,31.47-29.31,91.12-18,171.75,8.22,58.68-8,168.17,5.57,242.16C882.76,886.13,925.25,884.78,981.67,880.89Z" transform="translate(-7.17 -76.58)"/><path class="cls-13" d="M1156.45,333,1132,401.39l-26.81,12-54.54-3-41-56.42-18.86,13.56s49,149.24,101.47,227.46c10.26,15.32,46.94,13.52,58.15-1.12,23-30,48.67-189.06,48.36-201.84C1198.14,372.74,1156.45,333,1156.45,333Z" transform="translate(-7.17 -76.58)"/><path class="cls-4" d="M1154.89,105.59s-46.13-16.83-78.55-27.74-70.6,51.74-70.6,51.74S987,169.74,984.86,182.87c-5.05,31.19,7.95,122.52,7.95,122.52s7.17,62.49,19.48,78.86c8.1,10.6,26,34.31,52.49,41.09,14.94,3.83,58.58,1.28,84.5-12.57,22.64-12.11,40.3-70.4,44.43-96.68,3-19.18,1.75-29.24,6.88-77.36,5.38-50.57-4.4-74.07-12.82-98.85S1154.89,105.59,1154.89,105.59Z" transform="translate(-7.17 -76.58)"/><path class="cls-10" d="M1108.14,333.44c-10.13-1.87-25.1-8.88-38-9.66S1048.45,335,1048.45,335l-5.93,14.49s16.52,8.42,22,10.29,29.14,6.55,46.6,1.4,14.18-10.13,14.18-10.13S1120.92,335.78,1108.14,333.44Z" transform="translate(-7.17 -76.58)"/><path class="cls-14" d="M1091.77,322.07c-8.88,0-27-8.89-34.91-5-5.3,2.65-11.38,20.88-11.38,20.88l36.32-.31,42.39,5.46C1129.33,341.39,1112.66,322.22,1091.77,322.07Z" transform="translate(-7.17 -76.58)"/><path class="cls-10" d="M1017.5,187.29c0-4.52.09-7.2.09-7.2A17.35,17.35,0,0,0,1017.5,187.29Z" transform="translate(-7.17 -76.58)"/><path class="cls-10" d="M1139.31,178.22l-46,9.82-55.64,8.1c-14.65,2.08-19.06-3.66-20.19-8.85-.1,16.73.2,58.75,5.27,84.71,6.19,31.76,13,45.86,13,45.86s29-14,39.28-13.72c11.06.16,33.78,8,44,11.95,5.71,2.21,20.54,10,20.54,10s5.76-56.11,5.61-77.93C1145.07,230.58,1139.31,178.22,1139.31,178.22Z" transform="translate(-7.17 -76.58)"/><path class="cls-15" d="M1069,111.05c-24.16,4.52-30.08,2.34-37.72,17.45s-6.39,16.83-26.18,46.45c-15.12,22,17.92-8.58,24.31-10.13,25.72-6.71,59.22-5.62,81.82-15,22.6-9.5,20.26-28,20.26-28S1093.17,106.68,1069,111.05Z" transform="translate(-7.17 -76.58)"/><path class="cls-7" d="M989.69,239.31l0-2.37C989.08,227.16,989.69,239.31,989.69,239.31Z" transform="translate(-7.17 -76.58)"/><path class="cls-7" d="M1031.61,393.91c-12.93-11.06-19.63-28.36-19.79-49.87-.31-20-10.44-42.39-9.66-52.52s-13.09-98.81-13.09-98.81l.59,44.23c.43,7.37,1.54,27.19,4.08,74.06,5.93,109.09,75.12,118.6,75.12,118.6A500.32,500.32,0,0,0,1031.61,393.91Z" transform="translate(-7.17 -76.58)"/><path class="cls-16" d="M1121.23,356.82l-79-3.58s6.08,7.32,21.82,12.31c15.59,5,18.86,10,34.29,5.3,15.58-4.68,32-5.61,31.79-11.54C1130.11,353.55,1121.23,356.82,1121.23,356.82Z" transform="translate(-7.17 -76.58)"/><path class="cls-10" d="M1108.14,333.29c-10.13-1.87-25.1-8.73-38-9.67-12.94-.78-21.66,11.23-21.66,11.23l-5.77,14.33s16.52,8.42,22,10.29,29.3,6.54,46.6,1.4,14-10,14-10S1120.92,335.78,1108.14,333.29Z" transform="translate(-7.17 -76.58)"/><path class="cls-2" d="M787.72,579.84a.66.66,0,0,0-.4,0,.83.83,0,0,0-.25.12,3.64,3.64,0,0,0-.54.43c-.32.28-.61.56-.89.85s-.31.34-.47.51c.58-.45,1.2-.94,1.66-1.37l.06,0s0-.06,0,.18a.72.72,0,0,0,.1.42.74.74,0,0,0,.47.33h.12l.11,0s.06,0,0,0a.49.49,0,0,1-.14,0l-.37.14c-.35.15-.71.33-1.07.51L784,583.05c.38-.44.78-.86,1.18-1.27l-.1.07-1.89,1.43L775.52,589q-7.62,5.74-15,11.7c-1.24,1-2.48,2-3.7,2.94s-2.41,2-3.66,2.88l-3.7,2.82-3.74,2.74c-1.28.88-2.52,1.81-3.78,2.7l-3.83,2.61-3.86,2.56-3.92,2.48a301.51,301.51,0,0,1-32.71,17.65c-11.31,5.3-23,9.78-35.05,14.36a134.48,134.48,0,0,0,38-6.67,158.83,158.83,0,0,0,35.3-16.4l4.1-2.66,4-2.76,3.93-2.91c1.28-1,2.57-2,3.84-3a162.72,162.72,0,0,0,14.29-13.17c4.43-4.57,8.8-9.23,13-14.05,2.1-2.42,4.18-4.85,6.16-7.4l1.48-1.94a25.22,25.22,0,0,0,1.43-2.09l.1-.2a1.33,1.33,0,0,0,.13-.45.75.75,0,0,0-.1-.49A.78.78,0,0,0,787.72,579.84Z" transform="translate(-7.17 -76.58)"/><path class="cls-2" d="M786.12,581.94c.36-.18.72-.36,1.07-.51l.37-.14h-.12A.74.74,0,0,1,787,581a.72.72,0,0,1-.1-.42c0-.24,0-.16,0-.18l-.06,0c-.46.43-1.08.92-1.66,1.37-.4.41-.8.83-1.18,1.27Z" transform="translate(-7.17 -76.58)"/><path class="cls-2" d="M783.29,627.61a1.21,1.21,0,0,0-.25-.37,1,1,0,0,0-.35-.23.9.9,0,0,0-.27-.07,1.36,1.36,0,0,0-.63.06,2.74,2.74,0,0,0-.38.15,13.83,13.83,0,0,0-2.11,1.49,23.9,23.9,0,0,0-1.83,1.65c.75-.33,1.5-.64,2.25-.94l.66-.25.47-.44c.25-.25.51-.55.64-.71h0s0,0,0,.14a.45.45,0,0,0,.05.18.59.59,0,0,0,.17.24.52.52,0,0,0,.22.14l0,0h.11s.09,0,0,0l-.08,0h-.09a9.39,9.39,0,0,0-1.55.44c-.41.38-.83.75-1.26,1.12-2.43,2-5,4-7.49,6-5.06,4-10.13,8-15.15,12l-1.88,1.52-1.89,1.41L749,654c-2.43,2-5.1,3.64-7.66,5.43s-5.23,3.45-7.88,5.11c-1.34.82-2.61,1.75-4,2.49l-4.09,2.35c-10.91,6.27-22.25,11.88-33.84,17.16-2.9,1.33-5.83,2.57-8.75,3.9s-5.87,2.56-8.84,3.77S668,696.68,665,698l-9,3.7c1.64,0,3.27-.19,4.91-.32s3.24-.38,4.87-.57q4.86-.64,9.68-1.62c3.21-.61,6.39-1.4,9.57-2.18,1.59-.39,3.16-.86,4.73-1.3s3.17-.86,4.72-1.4a184.64,184.64,0,0,0,36.15-15.74l4.27-2.52c.72-.41,1.42-.85,2.11-1.32l2.08-1.37c2.73-1.88,5.53-3.65,8.11-5.77l3.92-3.08c.64-.53,1.33-1,1.93-1.58l1.84-1.69,3.67-3.39,1.81-1.71,1.7-1.74c4.52-4.65,9-9.4,13.17-14.4,2.1-2.51,4.18-5,6.07-7.79.47-.69.94-1.39,1.37-2.16a7.16,7.16,0,0,0,.62-1.35l.06-.28a1.49,1.49,0,0,0,0-.44A1.36,1.36,0,0,0,783.29,627.61Z" transform="translate(-7.17 -76.58)"/><path class="cls-2" d="M782,628.66l0,0a.52.52,0,0,1-.22-.14.59.59,0,0,1-.17-.24.45.45,0,0,1-.05-.18c0-.11,0-.09,0-.14h0c-.13.16-.39.46-.64.71l-.47.44a9.39,9.39,0,0,1,1.55-.44Z" transform="translate(-7.17 -76.58)"/><path class="cls-2" d="M787.72,665a.88.88,0,0,0-.4,0,1.17,1.17,0,0,0-.25.12,4.43,4.43,0,0,0-.54.43c-.32.28-.61.57-.89.85l-.47.51c.58-.45,1.2-.94,1.66-1.36l.06-.06s0,0,0,.19a.69.69,0,0,0,.1.41.7.7,0,0,0,.47.33h.12l.11,0s.06,0,0,0a.22.22,0,0,1-.14,0,2.13,2.13,0,0,0-.37.14c-.35.15-.71.32-1.07.5L784,668.24c.38-.44.78-.85,1.18-1.27l-.1.07-1.89,1.43-7.66,5.7q-7.62,5.73-15,11.69c-1.24,1-2.48,2-3.7,2.94s-2.41,2-3.66,2.89l-3.7,2.81-3.74,2.75c-1.28.87-2.52,1.8-3.78,2.69l-3.83,2.61-3.86,2.57-3.92,2.47a301.51,301.51,0,0,1-32.71,17.65c-11.31,5.3-23,9.79-35.05,14.37a134.83,134.83,0,0,0,38-6.67,159.73,159.73,0,0,0,35.3-16.4l4.1-2.66,4-2.77,3.93-2.91c1.28-1,2.57-2,3.84-3A162.83,162.83,0,0,0,766.05,692c4.43-4.57,8.8-9.22,13-14,2.1-2.42,4.18-4.85,6.16-7.41l1.48-1.93c.48-.68.95-1.28,1.43-2.1l.1-.19a1.55,1.55,0,0,0,.13-.46.72.72,0,0,0-.1-.48A.84.84,0,0,0,787.72,665Z" transform="translate(-7.17 -76.58)"/><path class="cls-2" d="M786.12,667.13c.36-.18.72-.35,1.07-.5a2.13,2.13,0,0,1,.37-.14h-.12a.7.7,0,0,1-.47-.33.69.69,0,0,1-.1-.41c0-.24,0-.17,0-.19l-.06.06c-.46.42-1.08.91-1.66,1.36-.4.42-.8.83-1.18,1.27Z" transform="translate(-7.17 -76.58)"/><path class="cls-2" d="M788.54,713l0,0a.52.52,0,0,1-.22-.14.59.59,0,0,1-.17-.24.45.45,0,0,1-.05-.18c0-.11,0-.09,0-.14h0a8.27,8.27,0,0,1-.64.71l-.47.44a9.39,9.39,0,0,1,1.55-.44Z" transform="translate(-7.17 -76.58)"/><path class="cls-2" d="M789.81,712a1.21,1.21,0,0,0-.25-.37,1.08,1.08,0,0,0-.34-.23,1,1,0,0,0-.28-.07,1.54,1.54,0,0,0-.63.06,3.34,3.34,0,0,0-.38.15,13.83,13.83,0,0,0-2.11,1.49c-.64.52-1.24,1.07-1.83,1.65.75-.33,1.5-.64,2.25-.94l.66-.25.47-.44a8.27,8.27,0,0,0,.64-.71h0c0,.05,0,0,0,.14a.45.45,0,0,0,.05.18.59.59,0,0,0,.17.24.52.52,0,0,0,.22.14l0,0h.11c.05,0,.09,0,0,0l-.08,0h-.09a9.39,9.39,0,0,0-1.55.44c-.4.38-.82.75-1.25,1.12-2.44,2-5,4-7.5,6q-7.59,6-15.15,12l-1.88,1.52-1.88,1.41-3.73,2.85c-2.43,2-5.1,3.64-7.65,5.43s-5.23,3.45-7.89,5.12c-1.34.81-2.6,1.74-4,2.48l-4.09,2.35C721,760,709.64,765.62,698.05,770.9c-2.9,1.33-5.83,2.57-8.75,3.9s-5.87,2.56-8.84,3.77-5.94,2.47-8.92,3.74l-9,3.7c1.64,0,3.26-.19,4.9-.32s3.24-.38,4.87-.57c3.25-.43,6.47-1,9.68-1.62s6.39-1.4,9.57-2.18c1.59-.39,3.16-.86,4.74-1.3s3.16-.86,4.71-1.4a184.38,184.38,0,0,0,36.15-15.74l4.28-2.52q1.08-.61,2.1-1.32l2.08-1.37c2.73-1.88,5.53-3.65,8.11-5.77l3.92-3.08c.64-.53,1.33-1,1.93-1.58l1.84-1.69,3.67-3.39,1.81-1.71,1.7-1.74c4.52-4.65,8.95-9.4,13.17-14.4,2.1-2.51,4.18-5,6.07-7.79.48-.69.94-1.39,1.37-2.16a7.16,7.16,0,0,0,.62-1.35l.07-.28a2,2,0,0,0,0-.44A1,1,0,0,0,789.81,712Z" transform="translate(-7.17 -76.58)"/><path class="cls-2" d="M790.4,752.32c.36-.17.72-.35,1.07-.5a3.44,3.44,0,0,1,.37-.14h-.12a.7.7,0,0,1-.47-.33.68.68,0,0,1-.1-.41c0-.24,0-.17,0-.18l-.06,0c-.46.42-1.08.91-1.66,1.36-.4.42-.8.84-1.18,1.27Z" transform="translate(-7.17 -76.58)"/><path class="cls-2" d="M792,750.22a.86.86,0,0,0-.4,0,1.1,1.1,0,0,0-.25.13,3.62,3.62,0,0,0-.54.42c-.32.28-.61.57-.89.86s-.31.34-.47.5c.58-.45,1.2-.94,1.66-1.36l.06,0s0-.06,0,.18a.68.68,0,0,0,.1.41.7.7,0,0,0,.47.33h.12l.11,0s.06,0,0,0a.49.49,0,0,1-.14,0,3.44,3.44,0,0,0-.37.14c-.35.15-.71.33-1.07.5l-2.13,1.11c.38-.43.78-.85,1.18-1.27l-.1.08-1.89,1.42-7.66,5.7q-7.62,5.75-15,11.7c-1.24,1-2.48,2-3.7,2.94s-2.41,2-3.66,2.88l-3.7,2.81L750,782.44c-1.28.88-2.52,1.8-3.78,2.69l-3.83,2.61-3.86,2.57-3.92,2.48a299.72,299.72,0,0,1-32.71,17.64c-11.31,5.3-23,9.79-35.06,14.37a134.84,134.84,0,0,0,38.05-6.67,159.73,159.73,0,0,0,35.3-16.4l4.1-2.66,4-2.76,3.93-2.91c1.28-1,2.57-2,3.84-3a162.83,162.83,0,0,0,14.29-13.18c4.43-4.57,8.8-9.22,13-14,2.1-2.42,4.18-4.85,6.16-7.4l1.48-1.94a25.22,25.22,0,0,0,1.43-2.09l.1-.2a1.43,1.43,0,0,0,.13-.45.75.75,0,0,0-.1-.49A.84.84,0,0,0,792,750.22Z" transform="translate(-7.17 -76.58)"/><path class="cls-2" d="M790.4,797.9c.36-.18.72-.36,1.07-.51l.37-.14h-.12a.78.78,0,0,1-.47-.33.72.72,0,0,1-.1-.42c0-.24,0-.16,0-.18l-.06,0c-.46.43-1.08.91-1.66,1.37-.4.41-.8.83-1.18,1.27Z" transform="translate(-7.17 -76.58)"/><path class="cls-2" d="M744.24,844.64l4-2.76L752.2,839c1.28-1,2.57-2,3.84-3a162.72,162.72,0,0,0,14.29-13.17c4.43-4.57,8.8-9.23,13-14,2.1-2.42,4.18-4.85,6.16-7.4l1.48-1.94a25.22,25.22,0,0,0,1.43-2.09l.1-.2a1.33,1.33,0,0,0,.13-.45.75.75,0,0,0-.1-.49.78.78,0,0,0-.54-.36.64.64,0,0,0-.4,0,.83.83,0,0,0-.25.12,3.64,3.64,0,0,0-.54.43c-.32.28-.61.56-.89.85s-.31.34-.47.51c.58-.46,1.2-.94,1.66-1.37l.06,0s0-.06,0,.18a.72.72,0,0,0,.1.42.78.78,0,0,0,.47.33h.12l.11,0s.06,0,0,0a.49.49,0,0,1-.14,0l-.37.14c-.35.15-.71.33-1.07.51L788.27,799c.38-.44.78-.86,1.18-1.27l-.1.07-1.89,1.43-7.66,5.69q-7.62,5.75-15,11.7c-1.24,1-2.48,2-3.7,2.94s-2.41,2-3.66,2.88l-3.7,2.82L750,828c-1.28.88-2.52,1.8-3.78,2.69l-3.83,2.62-3.86,2.56-3.92,2.48A301.51,301.51,0,0,1,701.85,856q-4.22,2-8.49,3.81l6.38,1.4q3.82.84,7.57,1.64a159.37,159.37,0,0,0,32.83-15.56Z" transform="translate(-7.17 -76.58)"/><path class="cls-8" d="M674.24,637.86c-11.73-24.41-20.68-58.88-43.87-84.16s-60.4-63.11-88.32-71-116.53,6-116.53,6-49.18-33.61-67.93-31.15c-23.34,3-95.25,80.46-95.25,80.46l-7.49,244.55c37.53,3.33,83.75,3.86,133.37,10.93,92.29,13.17,166.46,33.95,258.47,55.67C683.57,799.16,715.61,724,674.24,637.86Z" transform="translate(-7.17 -76.58)"/><path class="cls-17" d="M640.59,626c-12.37-27.84-21.82-67.17-46.28-96s-63.75-72-93.2-81-123,6.85-123,6.85-51.89-38.34-71.69-35.53C281.83,423.68,171.67,531.05,161.66,585c-8.86,47.69-5.89,103.62,4.62,157.17h0c19.82,51.94,112.61,35.75,221.94,51.34,85.21,12.16,155,30.81,237.6,50.69C657.72,788.22,678.76,711.87,640.59,626Z" transform="translate(-7.17 -76.58)"/><path class="cls-6" d="M386.25,294.17S354.92,389.39,335.44,416c-5.14,7-25.09,14.18-26.49,22.76-3.27,20.72,39.27,55,47.84,68.72,10,16.21,14.34,30.39,52.37,5.93S481,451.73,481,451.73l-7.32-55.64Z" transform="translate(-7.17 -76.58)"/><path class="cls-18" d="M396.53,453c-11.06,4-33.35.47-36.78-10-2.33-7.17-10-30.23-14.49-43.79A113.64,113.64,0,0,1,335.44,416c-5.14,7-25.09,14.18-26.49,22.76-3.27,20.72,39.27,55,47.84,68.72,10,16.21,14.34,30.39,52.37,5.93,4.83-3.12,9.5-6.39,14.18-9.67-.78-8.72-3.74-20.41-5.14-34.44C416.48,450.64,407.6,448.93,396.53,453Z" transform="translate(-7.17 -76.58)"/><path class="cls-19" d="M497.68,109c-15.43-19.48-55.95-13.71-82-15.27s-24,14.34-46.75,17.61c-22.6,3.27-48.63,61.09-48.63,61.09s-17.92,78.24-22.44,103.17,27.12,69,27.12,69l148.68,51.43,9.19-21.19L519,321s21.82-61.56,33-74-6.7-50.34-9.19-68.89S513.11,128.5,497.68,109Z" transform="translate(-7.17 -76.58)"/><path class="cls-10" d="M449.06,188.82c-23.38-2-39-2.5-49.56-3.74-10.6-.94-26-20.26-26-20.26s-35.85,118.6-37.56,160.83c-1.09,26.81,23.69,124.68,61.4,116.57S460.74,414.17,472,401.7s17.3-64.67,28.21-79.79,6.7-65.77-.78-83.69S472.43,190.84,449.06,188.82Z" transform="translate(-7.17 -76.58)"/><path class="cls-20" d="M448.9,189c-23.38-2-39-2.49-49.56-3.74,0,.16-4.36,20.42,34.6,33.51s57.66,16.21,58,43.48-17.14,70.13-20,87.12c-3.11,18.86-8.72,47.06-28.83,61.25s-64.21,33-64.36,33a56.29,56.29,0,0,0,18.39-1.25c37.56-8.1,63.43-28.05,74.65-40.52s17.3-64.68,28.21-79.79,6.7-65.77-.78-83.69S472.28,191,448.9,189Z" transform="translate(-7.17 -76.58)"/><path class="cls-21" d="M497.52,109c-15.43-19.32-55.95-13.56-82-15.27,0,.15-18.24,25.09,9.82,43.48s98.34,26.34,100,50c1.71,23.84,1.25,59.22.78,87.12-.16,12.31-2.34,26.49-5.3,41,5.61-15.42,21.82-58.28,31-68.41,11.23-12.47-6.7-50.34-9.19-68.89S513,128.35,497.52,109Z" transform="translate(-7.17 -76.58)"/><path class="cls-22" d="M468.69,184.76c-38.34-26.49-44.73-24.15-58.75-34.13s-14.19-27.11-22.6-17.3l-8.42,9.82s-11.69,14.81-5.61,21.66S385,182.7,400.9,185.23c15.13,2.41,28.16,1.37,40.05,3.27,9.66,1.25,18.08,0,27.9,9S507,211.26,468.69,184.76Z" transform="translate(-7.17 -76.58)"/><path class="cls-5" d="M711.35,243.05c-29.3,12.31-95.69,75.9-84,144.47s57,197,66.4,209.15,32.53-4.62,36.93-13.4c37.7-75.21,35.54-334.61,35.54-334.61S740.65,230.74,711.35,243.05Z" transform="translate(-7.17 -76.58)"/><path class="cls-23" d="M711.19,243.21c-29.3,12.31-95.69,75.89-84,144.47s57,197,66.39,209.15,36.94-13.56,36.94-13.56l-25.1-34.13,4.84-4.21c-44.11-87.12-61.25-151.8-38.19-188.11,26.19-41.77,77.15-65.61,77.15-65.61l11.84-41.77-10.91-7.95A56.8,56.8,0,0,0,711.19,243.21Z" transform="translate(-7.17 -76.58)"/><path class="cls-24" d="M1192.7,729.7c16.3-8.62,34.2-16,52.19-22.93,38.43-14.86,77.34-27.9,102.24-47.56-10-37.82-24.1-85.72-42.12-132.6-30.39-79.08-66.32-106.51-66.32-106.51L1229,462.91s-11,82.39-20,106.83-2.15,57.52-54.62,79.09S1092.24,646,1066,620.07s-81.51-200.6-81.51-200.6-41.45,22.29-74.1,49.88-32.13,75.33-30.28,98.26c14.91,184.53-3.68,265.19,7,317.15,28.47,0,58.7-1.4,94.56-3.87C1091.42,873.31,1116.48,770,1192.7,729.7Z" transform="translate(-7.17 -76.58)"/><path class="cls-24" d="M581.64,568.44c-25.91-38.41-58.88-59.31-82.34-59.11s-49.4,45.27-83.71,74.92-68.58-15-79.72-26.75c-18.91-19.89-30.07-72.85-52.54-76.8-24.92-4.39-78.31,66-78.31,66a923.59,923.59,0,0,0-50,111.18c3.51,42.82,7.3,73.79,11.29,84.24,19.82,51.94,112.61,35.75,221.94,51.34C461.92,804,524.07,819.36,593,836.18c20.4-37.77,37.37-88.72,37.88-115.52C631.56,683.1,602.6,599.5,581.64,568.44Z" transform="translate(-7.17 -76.58)"/><path class="cls-25" d="M319.7,682.2c.88-.8,1.45-1.45,1.47-2.21.13-1.57-1.77-3.18-2-4.71a9.05,9.05,0,0,1,.24-4.53l-3-.2a8.1,8.1,0,0,1-.54,4.41c-.33,1.42-2.64,2.65-2.67,4.17a2.44,2.44,0,0,0,1.08,2.26,5.75,5.75,0,0,1,.79,1.13,1.66,1.66,0,0,1,0,1.12,4.24,4.24,0,0,1-1.46,2.21,4.13,4.13,0,0,0-1.26,2.12,2.52,2.52,0,0,0,.82,2.25,3.2,3.2,0,0,1,1.08,2.26c.13.81-.34,1.41-1.11,2.16a7.47,7.47,0,0,0-1.14,1.05,3,3,0,0,0-.48,1.11c-.28,1.52,1.77,3.19,2,4.72a8,8,0,0,1-.24,4.52l3.2.36a8.29,8.29,0,0,1,.54-4.41c.33-1.42,2.79-2.6,2.67-4.18a2.1,2.1,0,0,0-.28-1.12l-.95-1.19a2.52,2.52,0,0,1-.82-2.25,4.28,4.28,0,0,1,1.46-2.21,5.14,5.14,0,0,0,1.21-2.22,2.52,2.52,0,0,0-.82-2.25,4.67,4.67,0,0,1-1.08-2.26,1,1,0,0,1,.23-1.11C318.93,683,319.34,682.5,319.7,682.2Z" transform="translate(-7.17 -76.58)"/><path class="cls-25" d="M291.91,719.78c-2.8,0-5.76-2-8.47-1.63a6.54,6.54,0,0,0-2,.57,15.75,15.75,0,0,0-2,1.19,7.73,7.73,0,0,1-4,1.4,15.29,15.29,0,0,1-4.2-.89,10.92,10.92,0,0,0-4.21-.64,9,9,0,0,0-4,1.4,11.06,11.06,0,0,1-4,1.66,5.51,5.51,0,0,1-4.21-.64,8.44,8.44,0,0,0-4.16-.79c-2.8.21-5.39,2.7-8,3.21-1.43.43-2.76.56-4.13.84a16.22,16.22,0,0,1-4.18.23l.3,3a41.37,41.37,0,0,1,4.13-.58,28.09,28.09,0,0,1,4.12-.08c2.8.05,5.71,1.94,8.47,1.63a6.67,6.67,0,0,0,3.89-1.6,7.59,7.59,0,0,1,4-1.4,14.66,14.66,0,0,1,4.21.89,10.67,10.67,0,0,0,4.21.63,8.76,8.76,0,0,0,4-1.4,11,11,0,0,1,4-1.65,7.56,7.56,0,0,1,4.21.63,9.9,9.9,0,0,0,2.12.75,6,6,0,0,0,2.13.25c2.7-.16,5.39-2.7,8-3.21a23.64,23.64,0,0,1,8.21-1l-.24-3.41A26.72,26.72,0,0,1,291.91,719.78Z" transform="translate(-7.17 -76.58)"/><path class="cls-25" d="M293.58,667.33a16.72,16.72,0,0,0-.82-2.25,15.32,15.32,0,0,0-6.23-6.73,31.39,31.39,0,0,0-8.08-3.2,30.22,30.22,0,0,0-8.22-.86,19.82,19.82,0,0,0-8,1.93,22.63,22.63,0,0,0-6.61,5.17,23.39,23.39,0,0,0-4.5,6.94,35.28,35.28,0,0,0-2.54,8.39,16,16,0,0,0,1.2,9.13c.5.77.79,1.38,1.23,2a16.93,16.93,0,0,0,1.5,1.81c.6.47,1.25,1,1.85,1.51a11.52,11.52,0,0,0,2,1.21l2,1c.6.21,1.16.58,1.91.85s1.42.58,2,.8,1.27.53,1.87.74a35.52,35.52,0,0,0,8.4,2.55,16.25,16.25,0,0,0,9.07-1.31,14.75,14.75,0,0,0,6.73-6.23,40,40,0,0,0,3.3-8.13c.71-2.73,1.58-5.41,2.19-8.35a14,14,0,0,0,.3-2.28c.06-.92,0-1.63,0-2.39A17,17,0,0,1,293.58,667.33Zm-5.34,14.14a11.93,11.93,0,0,1-4.57,5.2,59.49,59.49,0,0,1-5.65,3,60.76,60.76,0,0,1-5.85,2.54,11.93,11.93,0,0,1-6.92.28,15.21,15.21,0,0,1-1.71-.69c-.51-.27-1-.68-1.46-1a10.11,10.11,0,0,1-1.25-1.29c-.35-.47-.59-1-.94-1.44l-2.1-4.41a3.33,3.33,0,0,0-.64-1.34,40.91,40.91,0,0,1-2.54-5.84,13.31,13.31,0,0,1-.28-6.92,15.35,15.35,0,0,1,3.42-6.3,19.08,19.08,0,0,1,5.78-4.27,18.07,18.07,0,0,1,6.85-1.75,15.18,15.18,0,0,1,7,1.3,14.13,14.13,0,0,1,5.1,4.62,58.4,58.4,0,0,1,3.05,5.6,3.29,3.29,0,0,0,.64,1.33,7.1,7.1,0,0,0,.79,1.39l.68,1.44c.25.51.39,1.07.64,1.58A9,9,0,0,1,288.24,681.47Z" transform="translate(-7.17 -76.58)"/><path class="cls-25" d="M362.81,785.21a8.52,8.52,0,0,1-.6-3.36,4.57,4.57,0,0,1,1.68-2.82,10.18,10.18,0,0,0,1.3-1.25,2.37,2.37,0,0,0,.73-1.36c.7-2-1.08-4.39-.94-6.47a17.1,17.1,0,0,1,1.17-6l-3-.72a15.73,15.73,0,0,1-1.59,5.92c-.74,1.87-3.42,3.4-3.71,5.43a5.47,5.47,0,0,0,.13,1.58c.14.56.43,1.17.57,1.73a4.29,4.29,0,0,1,.3,3.27,6.74,6.74,0,0,1-2,2.7,5.33,5.33,0,0,0-1.73,2.72,5.16,5.16,0,0,0,.2,3l6.86.69a5.66,5.66,0,0,0,.89-1.81A5.14,5.14,0,0,0,362.81,785.21Z" transform="translate(-7.17 -76.58)"/><path class="cls-25" d="M301.8,737.36l-4.3,1.8a27.71,27.71,0,0,0,2.32,3.55c.19.22.4.44.61.65,0-.28,0-.56.06-.84A14.76,14.76,0,0,1,301.8,737.36Z" transform="translate(-7.17 -76.58)"/><path class="cls-25" d="M294.67,776.53l3.82,2.47a21.62,21.62,0,0,1-.46-5.84l-.4.33A24.27,24.27,0,0,0,294.67,776.53Z" transform="translate(-7.17 -76.58)"/><path class="cls-25" d="M318.08,750.88a18.48,18.48,0,0,1-3-3.21,61.93,61.93,0,0,0-5.76-7.33,20.42,20.42,0,0,0-3.86-3.07,27.69,27.69,0,0,0-4.59-2.22l-5.25-2.28,1,4.18a20.35,20.35,0,0,1,.52,5.3,18.43,18.43,0,0,1-1,5.12c-.44,1.72-1.08,3.29-1.62,5.06a22.44,22.44,0,0,0-1.06,5.16,15.1,15.1,0,0,0,.1,5.24c.38,1.84.6,3.63.92,5.36a20.44,20.44,0,0,1-1.1,10.36l-1.65,3.93,5.42-1.58c1.63-.53,3.22-.9,4.81-1.54a18.06,18.06,0,0,0,4.36-2.46c2.78-1.83,4.86-4.33,6.93-6.33a27,27,0,0,1,3.46-2.78l3.71-2.53a66,66,0,0,1,8-4.94,64.72,64.72,0,0,1-7.06-6.33C320.23,753,319.08,751.91,318.08,750.88Zm-.1,13.78c-1.28.74-2.72,1.42-4.05,2.06a32.64,32.64,0,0,1-4.31,1.8c-3.07,1-6.18,1.57-8.59,2.84a10.93,10.93,0,0,0-3,1.8,21.62,21.62,0,0,0,.46,5.84l-3.82-2.47a24.27,24.27,0,0,1,3-3l.4-.33a17.08,17.08,0,0,1,.91-4.58c.44-1.72,1.08-3.29,1.62-5.06a22.41,22.41,0,0,0,1.06-5.17,17.72,17.72,0,0,0-.11-5.24c-.37-1.83-.59-3.62-.91-5.35a23.31,23.31,0,0,1-.17-4.4c-.21-.21-.42-.43-.61-.65a27.71,27.71,0,0,1-2.32-3.55l4.3-1.8a14.76,14.76,0,0,0-1.31,5.16c0,.28,0,.56-.06.84a15.61,15.61,0,0,0,2.4,1.95c2.26,1.56,5.29,2.64,8.06,4.21a29.62,29.62,0,0,1,4,2.52,43.69,43.69,0,0,1,3.76,2.61c2.36,1.77,4.77,3.65,6.77,5.46C323.07,761.6,320.5,763.08,318,764.66Z" transform="translate(-7.17 -76.58)"/><path class="cls-25" d="M375.26,713.89a10.12,10.12,0,0,0-.57-1.74,10.64,10.64,0,0,0-5.1-5.13,49.93,49.93,0,0,0-6.52-2.3,22.51,22.51,0,0,0-6.34-.63,14.22,14.22,0,0,0-6.13,1.41,30.87,30.87,0,0,0-5.26,3.77,19,19,0,0,0-3.5,5.33,39.09,39.09,0,0,0-2.2,6.47,12,12,0,0,0,.78,7.18,9.88,9.88,0,0,0,.88,1.59,4.78,4.78,0,0,0,1.2,1.45,6.71,6.71,0,0,0,1.4,1.09,7.45,7.45,0,0,0,1.66.85,13.69,13.69,0,0,0,1.72.69l1.67.59a5.9,5.9,0,0,1,1.56.64,6.1,6.1,0,0,1,1.57.64,48.79,48.79,0,0,0,6.47,2.2,10.94,10.94,0,0,0,12.31-5.87,32.75,32.75,0,0,0,2.36-6.42c.49-2.12,1.19-4.1,1.84-6.42a7,7,0,0,0,.39-1.83,4.32,4.32,0,0,0,.14-1.82C375.49,715.17,375.41,714.45,375.26,713.89Zm-5.18,10.79a8,8,0,0,1-3.62,3.49c-1.54.74-2.88,1.37-4.16,1.86s-2.51,1.32-4.05,2.06a8.11,8.11,0,0,1-5,.62l-1.21-.43a5.33,5.33,0,0,0-1-.78c-.35-.47-.6-.72-.9-1.09l-.59-1.23a29.91,29.91,0,0,0-1.65-4.25c-.58-1.23-1.47-2.57-2.16-4a8,8,0,0,1-.62-5,9.43,9.43,0,0,1,2.47-4.58,16.56,16.56,0,0,1,4.33-3.08,40,40,0,0,1,4.87-1.69,11.47,11.47,0,0,1,5.16,1.06,8.14,8.14,0,0,1,3.5,3.63c.73,1.54,1.22,2.82,1.85,4.15a2,2,0,0,0,.49,1,3.93,3.93,0,0,0,.59,1c.3.36.45.66.75,1a5.6,5.6,0,0,1,.69,1.18A5.55,5.55,0,0,1,370.08,724.68Z" transform="translate(-7.17 -76.58)"/><path class="cls-25" d="M253.74,778.93a38.43,38.43,0,0,0,2.36-6.41c.5-2.13,1.3-4.15,1.85-6.43a12,12,0,0,0,.43-1.72,4.32,4.32,0,0,0,.14-1.82c-.09-.46-.18-1.18-.32-1.74a11.1,11.1,0,0,0-.58-1.74,11.34,11.34,0,0,0-5.09-5.13,31.94,31.94,0,0,0-6.37-2.25,20,20,0,0,0-6.24-.68,14.37,14.37,0,0,0-6.13,1.42,22.46,22.46,0,0,0-5.52,4,23.47,23.47,0,0,0-3.4,5.27,31.33,31.33,0,0,0-2.25,6.37,12,12,0,0,0,.78,7.18,9.3,9.3,0,0,0,.89,1.6,9.08,9.08,0,0,0,2.13,2.17c7.73,1.32,16,2.33,24.84,3.17A11.5,11.5,0,0,0,253.74,778.93Zm-4.55-4c-1.44.69-2.87,1.12-4.1,1.71s-2.47,1.43-3.9,2.11a7.66,7.66,0,0,1-4.9.57,3.21,3.21,0,0,0-1.11-.47,5.33,5.33,0,0,0-1-.78l-.85-1-.58-1.23a32.52,32.52,0,0,0-1.65-4.25c-.54-1.13-1.43-2.47-2.12-3.9a8.05,8.05,0,0,1-.62-5,11.22,11.22,0,0,1,2.47-4.58,15.63,15.63,0,0,1,4.23-3,9.93,9.93,0,0,1,4.7-1.24,9.44,9.44,0,0,1,5.12,1,7.89,7.89,0,0,1,3.39,3.67c.69,1.44,1.17,2.72,1.81,4a1.56,1.56,0,0,0,.44.93,4.06,4.06,0,0,0,.59,1c.3.36.45.67.75,1a5.39,5.39,0,0,1,.64,1.08,5.47,5.47,0,0,1,.21,4.94A7.67,7.67,0,0,1,249.19,774.93Z" transform="translate(-7.17 -76.58)"/><path class="cls-25" d="M292.12,542.3c-1.42-.08-3.21-2.25-4.59-2a2.38,2.38,0,0,0-1.13.54,3.26,3.26,0,0,0-1,1,2.05,2.05,0,0,1-2.06,1.23,5.21,5.21,0,0,1-2.27-1.05,3.12,3.12,0,0,0-2.27-.81,3.5,3.5,0,0,0-2.06,1.23,3.79,3.79,0,0,1-2.06,1.49,1.23,1.23,0,0,1-1.12,0c-.4-.31-.75-.52-1.16-.83a2.57,2.57,0,0,0-2.26-1.06c-1.48.07-2.74,2.44-4.23,2.77a9.38,9.38,0,0,1-4.43.48l.3,3a8.29,8.29,0,0,1,4.48-.37c1.43.07,3.07,2.19,4.6,2,.76,0,1.33-.63,2.06-1.48a3.06,3.06,0,0,1,1-1,1.4,1.4,0,0,1,1.13-.29,5.23,5.23,0,0,1,2.27,1.06,3.15,3.15,0,0,0,2.27.81,3.51,3.51,0,0,0,2.06-1.24,3.77,3.77,0,0,1,2.06-1.48,2.72,2.72,0,0,1,2.27.8,3.94,3.94,0,0,0,1.21.94,4.27,4.27,0,0,0,1.11.22c1.57.13,2.79-2.34,4.22-2.77a8,8,0,0,1,4.39-.58l-.26-2.9A7.3,7.3,0,0,1,292.12,542.3Z" transform="translate(-7.17 -76.58)"/><path class="cls-25" d="M318.33,618.86c-1,1.25-3.64,1.36-4.42,2.62-.58.65-.39,1.57-.15,2.59a3.29,3.29,0,0,1,.17,1.42,4.32,4.32,0,0,1-.42,1,4.67,4.67,0,0,1-2.21,1.18,2.92,2.92,0,0,0-2,1.34,4.39,4.39,0,0,0-.3,2.54,6,6,0,0,1-.1,2.69c-.22.86-.94,1.2-2,1.44a6.23,6.23,0,0,0-1.43.43,1.86,1.86,0,0,0-.88.8c-.88,1,.29,3.51-.29,4.92a10,10,0,0,1-2.21,3.83l2.57,1.42a7.46,7.46,0,0,1,2.51-3.72c1-1.25,3.78-1.3,4.42-2.61a2.64,2.64,0,0,0,.22-1.12,7.52,7.52,0,0,0-.22-1.53,2.58,2.58,0,0,1,.35-2.43,4.67,4.67,0,0,1,2.21-1.18,2.93,2.93,0,0,0,2-1.34,4.36,4.36,0,0,0,.3-2.53,6.28,6.28,0,0,1,.1-2.7,2.06,2.06,0,0,1,.73-.85,5.36,5.36,0,0,1,1.33-.38,2.79,2.79,0,0,0,2.21-1.18c.73-1.11-.29-3.52.29-4.93a9.94,9.94,0,0,1,2.21-3.82l-2.51-1.58A7.55,7.55,0,0,1,318.33,618.86Z" transform="translate(-7.17 -76.58)"/><path class="cls-25" d="M239.17,537.21l-3-.72a15.73,15.73,0,0,1-1.59,5.92c-.74,1.87-3.42,3.4-3.71,5.42a5.42,5.42,0,0,0,.13,1.58c.14.57.43,1.18.57,1.74a4.27,4.27,0,0,1,.3,3.26,6.77,6.77,0,0,1-2,2.71,5.33,5.33,0,0,0-1.73,2.72,5.14,5.14,0,0,0,.3,3.26,8.38,8.38,0,0,1,.59,3.37,5.43,5.43,0,0,1-.53,1.51,9.65,9.65,0,0,1-1.19,1.2,3.89,3.89,0,0,0-2,2.71c-.44,2,1.24,4.45.95,6.48a16.84,16.84,0,0,1-1.18,6l2.94.62a15.73,15.73,0,0,1,1.59-5.92c.74-1.87,3.26-3.45,3.71-5.43a4.6,4.6,0,0,0-.55-3.26,4.34,4.34,0,0,1-.53-1.64,2.74,2.74,0,0,1,.13-1.57,6.68,6.68,0,0,1,2-2.71,5.33,5.33,0,0,0,1.73-2.72,5.14,5.14,0,0,0-.3-3.26,8.55,8.55,0,0,1-.6-3.36,4.57,4.57,0,0,1,1.68-2.82,10.18,10.18,0,0,0,1.3-1.25,2.37,2.37,0,0,0,.73-1.36c.7-2-1.08-4.39-.94-6.47A17.06,17.06,0,0,1,239.17,537.21Z" transform="translate(-7.17 -76.58)"/><path class="cls-25" d="M286.8,599.52a55.53,55.53,0,0,1-.89-10c-.09-3.36-.07-6.76.15-10.52-3.19,1.77-6.37,3.29-9.45,4.76a73.72,73.72,0,0,1-9.32,3.69c-1.64.53-3.32,1-5,1.38a30,30,0,0,0-5.12,1.94,23.23,23.23,0,0,0-4.84,3.07c-1.55,1.24-2.9,2.64-4.24,3.78l-3.15,2.64,3,1.07A25.09,25.09,0,0,1,256.5,607c1.25,1.3,2.5,2.59,3.8,3.74a34.32,34.32,0,0,0,4.11,3.07,22.12,22.12,0,0,0,4.64,2.32c1.66.59,3.28,1.08,4.95,1.67a22.8,22.8,0,0,1,8.86,5.1l2.3,2.18.78-3.9c.44-1.73,1-3.5,1.47-5.37a22.21,22.21,0,0,0,.82-5.68,22.67,22.67,0,0,0-.41-5.6C287.6,602.79,287.07,601.15,286.8,599.52Zm-4.93,21.62c-.22-1.35-.62-2.7-.94-4a25.42,25.42,0,0,1-4.41-3.55c-1.25-1.3-2.6-2.54-3.8-3.73a33.36,33.36,0,0,0-4.11-3.08,22.12,22.12,0,0,0-4.64-2.32c-1.66-.59-3.28-1.08-5-1.67a24.59,24.59,0,0,1-5.08-2.34c-1.27.27-2.66.54-3.94.85l.11-3.71a23,23,0,0,0,3.83,2.86l.86-.18a10.47,10.47,0,0,0,4.25-1.65,35.38,35.38,0,0,0,3.91-2.88c1.3-1.25,2.74-2.44,4.09-3.59a79.76,79.76,0,0,1,8.65-5.89c3-1.67,6-3.35,8.68-4.77.05,3-.11,6.35-.39,10A65.21,65.21,0,0,1,282.43,602c-.29,1.77-.88,3.44-1.32,5.16a25.66,25.66,0,0,0-.75,4.77,13.38,13.38,0,0,0,.38,4.48c.06.25.12.52.19.78a29.66,29.66,0,0,0,4.13,2.2Z" transform="translate(-7.17 -76.58)"/><path class="cls-25" d="M281.87,621.14l3.19-1.77a29.66,29.66,0,0,1-4.13-2.2C281.25,618.44,281.65,619.79,281.87,621.14Z" transform="translate(-7.17 -76.58)"/><path class="cls-25" d="M250,601.33c1.28-.31,2.67-.58,3.94-.85a23,23,0,0,1-3.83-2.86Z" transform="translate(-7.17 -76.58)"/><g class="cls-26"><path class="cls-27" d="M1304.25,683.41c-17.87-116.91-39.07-136-50.44-136.69-.61.52-3.91,4.27-5.82,26.11-1.27,14.46-1.37,30.3-1.43,37.91-.13,20.36,2.61,51.36,8.16,92.26l-8.29,3.18c-5.78-42.29-8.63-74.38-8.49-95.51.28-42.08,3.3-63.87,9.81-70.66a8,8,0,0,1,6.19-2.7c24.67,1,43.84,47.61,58.5,142.4Zm-50.63-136.7Z" transform="translate(-7.17 -76.58)"/></g><path class="cls-28" d="M1017.5,187.29c0-4.52.09-7.2.09-7.2A17.35,17.35,0,0,0,1017.5,187.29Z" transform="translate(-7.17 -76.58)"/><path class="cls-28" d="M1139.88,183.55l-19.94,5.63s-48.63,9.51-78.86,11.85c-13.16,1-18.79-3.31-20.95-8.52a11,11,0,0,1-2.63-5.22c-.1,16.73.2,58.75,5.27,84.71,6.19,31.76,13,45.86,13,45.86s29-14,39.28-13.72c11.06.16,33.78,8,44,11.95,5.71,2.21,20.54,10,20.54,10s5.76-56.11,5.61-77.93C1145.1,234,1141.34,197.32,1139.88,183.55Z" transform="translate(-7.17 -76.58)"/><path class="cls-11" d="M1093.33,188l-55.64,8.1c-9.6,1.36-14.8-.63-17.56-3.63,2.16,5.21,7.79,9.53,20.95,8.52,30.23-2.34,78.86-11.85,78.86-11.85l19.94-5.63c-.35-3.34-.57-5.33-.57-5.33Z" transform="translate(-7.17 -76.58)"/><path class="cls-12" d="M1163.62,110.26s16.25,19.42,11.74,75-11.3,98.09-11.74,118.53,13.94,62.62-11.94,85.63-21.57,30.93-21.57,30.93a100.21,100.21,0,0,0,19.17-7.55c22.64-12.11,40.3-70.4,44.43-96.68,3-19.18,1.75-29.24,6.88-77.36,5.38-50.57-4.4-74.07-12.82-98.85C1182.63,124.74,1171.5,115.31,1163.62,110.26Z" transform="translate(-7.17 -76.58)"/><path class="cls-9" d="M1074.06,522.57c-23.93-27.88-70.35-118.13-70.35-118.13,18,49.32,52.47,136.77,88.54,190.59,10.26,15.32,46.94,13.52,58.15-1.12,5.9-7.7,12-23.91,17.75-43.95-.1.08-24.16,19.67-33.59,20.72S1098,550.45,1074.06,522.57Z" transform="translate(-7.17 -76.58)"/><path class="cls-8" d="M1181.85,360.71v0l-.71,2-.18.48-.57,1.53-.22.6-.54,1.41c-.08.22-.17.43-.25.64-.18.48-.37.95-.56,1.43l-.22.57-.65,1.59c0,.13-.1.26-.16.39-.54,1.34-1.1,2.66-1.67,4l-.18.42-.66,1.5-.27.6-.6,1.32-.29.63c-.2.43-.39.85-.59,1.27l-.31.64c-.2.43-.41.86-.62,1.29l-.27.55-.77,1.54-.14.28c-.31.61-.63,1.21-.94,1.81l-.15.28c-.26.49-.52,1-.79,1.47-.09.18-.19.35-.29.53l-.65,1.17-.35.61c-.21.36-.42.72-.62,1.08l-.36.61c-.22.35-.43.7-.64,1.05-.12.19-.23.39-.35.57-.23.38-.47.75-.7,1.12l-.29.46c-.67,1-1.35,2-2,3-.1.14-.21.28-.31.43l-.72,1-.38.51-.66.87-.41.51-.65.82-.41.49-.69.81-.38.43c-.27.31-.55.61-.82.9l-.26.28q-.54.57-1.08,1.11l-.26.25-.84.8-.39.35-.72.63-.43.36-.69.55-.45.34c-.23.18-.47.35-.7.51l-.43.31-.77.5c-.13.07-.25.16-.37.23l-1.15.66c-25.92,13.85-69.56,16.4-84.5,12.57-26.48-6.78-44.39-30.49-52.49-41.09-4-5.37-7.53-15.7-10.39-27.17a2.14,2.14,0,0,0-.7,0c10.51,85.59,71.55,119.52,156.23,85.59,22.64-9.07,23.64,54.54,23.64,54.54h0c10.45-48.81,17.85-98.28,17.68-105.17C1198.49,383.79,1190.69,371.76,1181.85,360.71Z" transform="translate(-7.17 -76.58)"/><path class="cls-24" d="M630.85,713.43c.71-36.43-28.25-117.51-49.21-147.64-25.91-37.26-58.88-57.52-82.34-57.33-8.32.07-16.95,5.61-26.16,14l-13.23,20.37s118.2,67.42,115.45,121.88c-2.67,53-.15,114.29-18.22,162.73q14.6,3.52,29.48,7.17l24.09-46.17C622.38,760.22,630.5,731.29,630.85,713.43Z" transform="translate(-7.17 -76.58)"/><path class="cls-24" d="M1106.73,809.89c-3.26-46-7.72-78.53-13.28-96.64-2.72-8.85-14.52-23.71-19.53-26.1-11.33,22.74-16.67,80.34-15.59,167.37C1076.66,842,1092.06,826.27,1106.73,809.89Z" transform="translate(-7.17 -76.58)"/><path class="cls-24" d="M1006,877.41c-1.18-58.83-4.37-140.62-12.72-211.8C981,561.1,963,525.12,950,513.34a2.19,2.19,0,0,0-1.46-.41,9.06,9.06,0,0,0-2.72.52c-7.33,2.44-16,11.42-17.43,18.14-14.59,67,3.53,245,16.53,351.55,11.66-.6,23.85-1.36,36.79-2.25A164.14,164.14,0,0,0,1006,877.41Z" transform="translate(-7.17 -76.58)"/><path class="cls-24" d="M1217.32,718c-1-4.57-2-8.53-3-11.82-3.17-10.24-15.36-20.53-26.08-22a18,18,0,0,0-2.36-.17c-2.8,0-5.77.8-7.34,3.69h0c-3.71,6.81-7.9,22.21-8.63,56.91a156,156,0,0,1,22.84-14.87C1200.59,725.53,1208.85,721.66,1217.32,718Z" transform="translate(-7.17 -76.58)"/><path class="cls-29" d="M1347.13,659.21c-10-37.82-24.1-85.72-42.12-132.6-30.39-79.08-66.32-106.51-66.32-106.51L1229,462.91s-11,82.39-20,106.83-2.15,57.52-54.62,79.09S1092.24,646,1066,620.07s-81.51-200.6-81.51-200.6-41.45,22.29-74.1,49.88-32.13,75.33-30.28,98.26c14.91,184.53-3.68,265.19,7,317.15,15.34,0,31.2-.39,48.17-1.15-15.6-127.76-30.48-289-16.29-354.16,2.41-11.07,14.5-22.25,23.83-25.35,5.39-1.79,10.18-1.13,13.49,1.87,21,19,36.21,70.88,46.49,158.47,8.29,70.66,11.52,151.63,12.74,210.51a146.44,146.44,0,0,0,31.39-13.31c-1.55-96,4.38-157.21,17.66-181.95a9.32,9.32,0,0,1,9.53-5.28c11.69,1.31,27.26,25.17,30.25,34.9,5.37,17.53,9.74,47.27,13,88.51,13.51-15.47,26.85-31,41.83-44.34.12-36.29,3.57-60.22,10.51-73,3.89-7.14,10.87-10.39,19.67-9.18,12.76,1.77,29.68,13.84,34.76,30.26,1.06,3.46,2.13,7.53,3.17,12.16q8.73-3.59,17.58-7C1283.32,691.91,1322.23,678.87,1347.13,659.21Z" transform="translate(-7.17 -76.58)"/><polygon class="cls-24" points="1067.36 609.39 1067.36 609.39 1062.38 606.25 1067.36 609.39"/><path class="cls-27" d="M956.31,506c-3.31-3-8.1-3.66-13.49-1.87-9.33,3.1-21.42,14.28-23.83,25.35-14.19,65.18.69,226.4,16.29,354.16,3.16-.15,6.36-.3,9.6-.47-13-106.51-31.12-284.56-16.53-351.55,1.46-6.72,10.1-15.7,17.43-18.14a9.06,9.06,0,0,1,2.72-.52,2.19,2.19,0,0,1,1.46.41c13,11.78,31.06,47.76,43.32,152.27,8.35,71.18,11.54,153,12.72,211.8q4.89-1.1,9.54-2.46c-1.22-58.88-4.45-139.85-12.74-210.51C992.52,576.85,977.32,525,956.31,506Z" transform="translate(-7.17 -76.58)"/><path class="cls-24" d="M956.31,506c-3.31-3-8.1-3.66-13.49-1.87-9.33,3.1-21.42,14.28-23.83,25.35-14.19,65.18.69,226.4,16.29,354.16,3.16-.15,6.36-.3,9.6-.47-13-106.51-31.12-284.56-16.53-351.55,1.46-6.72,10.1-15.7,17.43-18.14a9.06,9.06,0,0,1,2.72-.52,2.19,2.19,0,0,1,1.46.41c13,11.78,31.06,47.76,43.32,152.27,8.35,71.18,11.54,153,12.72,211.8q4.89-1.1,9.54-2.46c-1.22-58.88-4.45-139.85-12.74-210.51C992.52,576.85,977.32,525,956.31,506Z" transform="translate(-7.17 -76.58)"/><path class="cls-27" d="M1074.12,674.41a9.32,9.32,0,0,0-9.53,5.28c-13.28,24.74-19.21,85.93-17.66,181.95q5.89-3.35,11.4-7.12c-1.08-87,4.26-144.63,15.59-167.37,5,2.39,16.81,17.25,19.53,26.1,5.56,18.11,10,50.62,13.28,96.64,3.58-4,7.11-8,10.64-12.07-3.26-41.24-7.63-71-13-88.51C1101.38,699.58,1085.81,675.72,1074.12,674.41Zm.41,11.56-5-3.14,5,3.14Z" transform="translate(-7.17 -76.58)"/><path class="cls-24" d="M1074.12,674.41a9.32,9.32,0,0,0-9.53,5.28c-13.28,24.74-19.21,85.93-17.66,181.95q5.89-3.35,11.4-7.12c-1.08-87,4.26-144.63,15.59-167.37,5,2.39,16.81,17.25,19.53,26.1,5.56,18.11,10,50.62,13.28,96.64,3.58-4,7.11-8,10.64-12.07-3.26-41.24-7.63-71-13-88.51C1101.38,699.58,1085.81,675.72,1074.12,674.41Zm.41,11.56-5-3.14,5,3.14Z" transform="translate(-7.17 -76.58)"/><path class="cls-27" d="M1189.38,671.35c-8.8-1.21-15.78,2-19.67,9.18-6.94,12.73-10.39,36.66-10.51,73,3.46-3.09,7-6.07,10.66-8.91.73-34.7,4.92-50.1,8.63-56.91h0c1.57-2.89,4.54-3.69,7.34-3.69a18,18,0,0,1,2.36.17c10.72,1.49,22.91,11.78,26.08,22,1,3.29,2,7.25,3,11.82,3.3-1.43,6.64-2.83,10-4.21-1-4.63-2.11-8.7-3.17-12.16C1219.06,685.19,1202.14,673.12,1189.38,671.35Z" transform="translate(-7.17 -76.58)"/><path class="cls-24" d="M1189.38,671.35c-8.8-1.21-15.78,2-19.67,9.18-6.94,12.73-10.39,36.66-10.51,73,3.46-3.09,7-6.07,10.66-8.91.73-34.7,4.92-50.1,8.63-56.91h0c1.57-2.89,4.54-3.69,7.34-3.69a18,18,0,0,1,2.36.17c10.72,1.49,22.91,11.78,26.08,22,1,3.29,2,7.25,3,11.82,3.3-1.43,6.64-2.83,10-4.21-1-4.63-2.11-8.7-3.17-12.16C1219.06,685.19,1202.14,673.12,1189.38,671.35Z" transform="translate(-7.17 -76.58)"/><path class="cls-30" d="M679.35,481.22a2.87,2.87,0,0,0,2.81,2.33,3.27,3.27,0,0,0,.53-.05,2.86,2.86,0,0,0,2.28-3.34c-1.1-5.82-5.39-16.5-11.31-31.29-13.76-34.33-36.32-90.69-34.22-130.76-2.09,4.2-4,8.51-5.66,12.91,2.21,39.18,21.29,86.8,34.58,120C673.94,464.93,678.36,476,679.35,481.22Z" transform="translate(-7.17 -76.58)"/><path class="cls-30" d="M690.87,457.6a2.87,2.87,0,0,0,2.81,2.33,3.27,3.27,0,0,0,.53-.05,2.85,2.85,0,0,0,2.27-3.34c-1.1-5.82-5.38-16.51-11.3-31.3-13.28-33.14-34.78-86.81-34.36-126.55-1.91,2.83-3.76,5.72-5.52,8.69,2.2,39.18,21.28,86.82,34.57,120C685.46,441.31,689.87,452.33,690.87,457.6Z" transform="translate(-7.17 -76.58)"/><path class="cls-30" d="M702.27,430.13a2.86,2.86,0,0,0,2.8,2.33,3.29,3.29,0,0,0,.54,0,2.86,2.86,0,0,0,2.27-3.34c-1.1-5.82-5.38-16.51-11.31-31.29-12-30-30.71-76.68-33.89-114.73q-2.62,3.1-5.16,6.39C661.9,326.6,679,369.38,691.27,399.9,696.86,413.84,701.27,424.86,702.27,430.13Z" transform="translate(-7.17 -76.58)"/></svg>