<svg id="Layer_1" data-name="Layer 1" xmlns="http://www.w3.org/2000/svg" xmlns:xlink="http://www.w3.org/1999/xlink" viewBox="0 0 605.22 432.97"><defs><style>.cls-1{fill:url(#linear-gradient);}.cls-2{fill:#23146b;opacity:0.7;}</style><linearGradient id="linear-gradient" x1="-218.13" y1="651.78" x2="-218.13" y2="650.78" gradientTransform="matrix(604.87, 74.31, 53.34, -434.18, 97521.55, 299240.91)" gradientUnits="userSpaceOnUse"><stop offset="0" stop-color="#c9d2f5"/><stop offset="0.5" stop-color="#bee1ec"/><stop offset="1" stop-color="#b4ece4"/></linearGradient></defs><title>IEredirectBlob</title><path id="Path_937" data-name="Path 937" class="cls-1" d="M533.13,113.86c57.2,39.44,95,95.06,96,147.34S594.36,362.45,543.4,392.06s-117.26,39.85-187.61,53.33S211,475.76,157.87,457.4s-84.89-72-106-121.72-31.75-96-26.71-146.49S51,83.76,103.14,56.12s135.75-27.93,216-16.53S475.93,74.42,533.13,113.86Z" transform="translate(-23.89 -32.52)"/><path class="cls-2" d="M568.34,222.55a3.42,3.42,0,0,1-.05-.74,5.08,5.08,0,0,1,2.09-4.34,8.12,8.12,0,0,1,5-1.54,8,8,0,0,1,4.93,1.54,5.09,5.09,0,0,1,2.07,4.34,4.47,4.47,0,0,1,0,.74l-3.5,38.16a4.07,4.07,0,0,1-1.2,2.69,3.28,3.28,0,0,1-4.6,0,4.07,4.07,0,0,1-1.2-2.69Zm2.34,60.85a6.49,6.49,0,0,1,0-9.12,6.37,6.37,0,0,1,4.77-1.9,6.57,6.57,0,0,1,4.69,1.83,6.09,6.09,0,0,1,1.94,4.6,6.27,6.27,0,0,1-1.89,4.57,6.9,6.9,0,0,1-9.49,0Z" transform="translate(-23.89 -32.52)"/><path class="cls-2" d="M521.28,193.16a4.47,4.47,0,0,1,0-.74,5.08,5.08,0,0,1,2.09-4.34,8.12,8.12,0,0,1,4.95-1.54,8,8,0,0,1,4.93,1.54,5.09,5.09,0,0,1,2.07,4.34,4.47,4.47,0,0,1,0,.74l-3.5,38.16a4.17,4.17,0,0,1-1.2,2.69,3.28,3.28,0,0,1-4.6,0,4.07,4.07,0,0,1-1.2-2.69ZM523.63,254a6.47,6.47,0,0,1,0-9.12,6.37,6.37,0,0,1,4.77-1.9,6.57,6.57,0,0,1,4.69,1.83,6.09,6.09,0,0,1,1.94,4.6,6.27,6.27,0,0,1-1.89,4.57,6.9,6.9,0,0,1-9.49,0Z" transform="translate(-23.89 -32.52)"/><path class="cls-2" d="M414.57,173a3.36,3.36,0,0,1-.05-.74,5.1,5.1,0,0,1,2.09-4.34,8.2,8.2,0,0,1,5-1.54,8.05,8.05,0,0,1,4.92,1.54,5.11,5.11,0,0,1,2.07,4.34,4.4,4.4,0,0,1,0,.74L425,211.11a4.07,4.07,0,0,1-1.2,2.69,3.28,3.28,0,0,1-4.6,0,4.07,4.07,0,0,1-1.2-2.69Zm2.34,60.85a6.48,6.48,0,0,1,0-9.11,6.38,6.38,0,0,1,4.77-1.91,6.54,6.54,0,0,1,4.69,1.84,6.06,6.06,0,0,1,1.94,4.59,6.25,6.25,0,0,1-1.89,4.57,6.88,6.88,0,0,1-9.49,0Z" transform="translate(-23.89 -32.52)"/><path class="cls-2" d="M385.72,193.16a4.47,4.47,0,0,1,0-.74,5.08,5.08,0,0,1,2.09-4.34,8.12,8.12,0,0,1,5-1.54,8,8,0,0,1,4.93,1.54,5.09,5.09,0,0,1,2.07,4.34,4.47,4.47,0,0,1,0,.74l-3.5,38.16A4.17,4.17,0,0,1,395,234a3.3,3.3,0,0,1-4.61,0,4.12,4.12,0,0,1-1.19-2.69ZM388.07,254a6.47,6.47,0,0,1,0-9.12,6.37,6.37,0,0,1,4.77-1.9,6.57,6.57,0,0,1,4.69,1.83,6.09,6.09,0,0,1,1.94,4.6,6.27,6.27,0,0,1-1.89,4.57,6.9,6.9,0,0,1-9.49,0Z" transform="translate(-23.89 -32.52)"/><path class="cls-2" d="M482.83,170.85a4.47,4.47,0,0,1,0-.74,5.08,5.08,0,0,1,2.09-4.34,8.19,8.19,0,0,1,4.95-1.54,8.06,8.06,0,0,1,4.93,1.54,5.09,5.09,0,0,1,2.07,4.34,4.47,4.47,0,0,1,0,.74L493.29,209a4.12,4.12,0,0,1-1.2,2.69,3.28,3.28,0,0,1-4.6,0,4.07,4.07,0,0,1-1.2-2.69Zm2.35,60.85a6.22,6.22,0,0,1-1.89-4.59,6.29,6.29,0,0,1,1.87-4.53,6.37,6.37,0,0,1,4.77-1.9,6.54,6.54,0,0,1,4.69,1.84,6.06,6.06,0,0,1,1.94,4.59,6.27,6.27,0,0,1-1.89,4.57,6.9,6.9,0,0,1-9.49,0Z" transform="translate(-23.89 -32.52)"/><path class="cls-2" d="M451.36,222.55a4.23,4.23,0,0,1-.05-.74,5.07,5.07,0,0,1,2.1-4.34,8.69,8.69,0,0,1,9.88,0,5.09,5.09,0,0,1,2.07,4.34,4.23,4.23,0,0,1-.05.74l-3.5,38.16a4.07,4.07,0,0,1-1.2,2.69,3.28,3.28,0,0,1-4.6,0,4.07,4.07,0,0,1-1.2-2.69Zm2.35,60.85a6.48,6.48,0,0,1,0-9.12,6.4,6.4,0,0,1,4.77-1.9,6.59,6.59,0,0,1,4.7,1.83,6.09,6.09,0,0,1,1.93,4.6,6.27,6.27,0,0,1-1.89,4.57,6.89,6.89,0,0,1-9.48,0Z" transform="translate(-23.89 -32.52)"/><path class="cls-2" d="M351.45,179.42a4,4,0,0,1-.05-.73,5.06,5.06,0,0,1,2.1-4.34,8.12,8.12,0,0,1,4.95-1.54,8,8,0,0,1,4.93,1.54,5.08,5.08,0,0,1,2.07,4.34,4,4,0,0,1-.05.73l-3.5,38.17a4.14,4.14,0,0,1-1.19,2.69,3.3,3.3,0,0,1-4.61,0,4.19,4.19,0,0,1-1.2-2.69Zm2.35,60.86a6.47,6.47,0,0,1,0-9.12,6.37,6.37,0,0,1,4.76-1.91,6.6,6.6,0,0,1,4.7,1.84,6.08,6.08,0,0,1,1.93,4.59,6.28,6.28,0,0,1-1.88,4.57,6.38,6.38,0,0,1-4.75,1.91A6.46,6.46,0,0,1,353.8,240.28Z" transform="translate(-23.89 -32.52)"/><path class="cls-2" d="M254.57,253.42a4.33,4.33,0,0,1,0-.73,5.07,5.07,0,0,1,2.09-4.34,8.12,8.12,0,0,1,4.95-1.54,8,8,0,0,1,4.93,1.54,5.08,5.08,0,0,1,2.07,4.34,4.33,4.33,0,0,1,0,.73L265,291.59a4.1,4.1,0,0,1-1.2,2.69,3.28,3.28,0,0,1-4.6,0,4.1,4.1,0,0,1-1.2-2.69Zm2.35,60.86a6.49,6.49,0,0,1,0-9.12,6.38,6.38,0,0,1,4.77-1.91,6.58,6.58,0,0,1,4.69,1.84,6.09,6.09,0,0,1,1.94,4.59,6.25,6.25,0,0,1-1.89,4.57,6.37,6.37,0,0,1-4.74,1.91A6.47,6.47,0,0,1,256.92,314.28Z" transform="translate(-23.89 -32.52)"/><path class="cls-2" d="M222.6,291.51a4.14,4.14,0,0,1,0-.74,5.08,5.08,0,0,1,2.1-4.34,8.14,8.14,0,0,1,4.95-1.54,8.05,8.05,0,0,1,4.92,1.54,5.09,5.09,0,0,1,2.08,4.34,4.14,4.14,0,0,1,0,.74l-3.5,38.17a4.07,4.07,0,0,1-1.2,2.68,3.28,3.28,0,0,1-4.6,0,4.07,4.07,0,0,1-1.2-2.68ZM225,352.36a6.47,6.47,0,0,1,0-9.11,6.4,6.4,0,0,1,4.77-1.91,6.56,6.56,0,0,1,4.7,1.84,6,6,0,0,1,1.93,4.59,6.25,6.25,0,0,1-1.89,4.57,6.86,6.86,0,0,1-9.48,0Z" transform="translate(-23.89 -32.52)"/><path class="cls-2" d="M321.46,233a4.4,4.4,0,0,1,0-.74,5.07,5.07,0,0,1,2.09-4.34,8.18,8.18,0,0,1,4.95-1.53,8.06,8.06,0,0,1,4.93,1.53,5.11,5.11,0,0,1,2.07,4.34,4.4,4.4,0,0,1,0,.74l-3.5,38.17a4.14,4.14,0,0,1-1.2,2.68,3.3,3.3,0,0,1-4.61,0,4.09,4.09,0,0,1-1.19-2.68Zm2.35,60.85a6.46,6.46,0,0,1,0-9.11,6.37,6.37,0,0,1,4.76-1.91,6.54,6.54,0,0,1,4.7,1.84,6.06,6.06,0,0,1,1.94,4.59,6.25,6.25,0,0,1-1.89,4.57,6.88,6.88,0,0,1-9.49,0Z" transform="translate(-23.89 -32.52)"/><path class="cls-2" d="M287.33,304.07a4.23,4.23,0,0,1-.05-.74,5.07,5.07,0,0,1,2.1-4.34,8.14,8.14,0,0,1,4.95-1.54,8.05,8.05,0,0,1,4.92,1.54,5.08,5.08,0,0,1,2.08,4.34,4.23,4.23,0,0,1-.05.74l-3.5,38.16a4.07,4.07,0,0,1-1.2,2.69,3.28,3.28,0,0,1-4.6,0,4.07,4.07,0,0,1-1.2-2.69Zm2.35,60.85a6.48,6.48,0,0,1,0-9.12,6.39,6.39,0,0,1,4.77-1.9,6.56,6.56,0,0,1,4.7,1.84,6,6,0,0,1,1.93,4.59,6.25,6.25,0,0,1-1.89,4.57,6.86,6.86,0,0,1-9.48,0Z" transform="translate(-23.89 -32.52)"/><path class="cls-2" d="M110.57,184.58a4.4,4.4,0,0,1,0-.74,5.1,5.1,0,0,1,2.09-4.34,8.18,8.18,0,0,1,4.95-1.53,8.06,8.06,0,0,1,4.93,1.53,5.11,5.11,0,0,1,2.07,4.34,4.4,4.4,0,0,1,0,.74L121,222.75a4,4,0,0,1-1.2,2.68,3.28,3.28,0,0,1-4.6,0,4,4,0,0,1-1.2-2.68Zm2.35,60.85a6.48,6.48,0,0,1,0-9.11,6.38,6.38,0,0,1,4.77-1.91,6.54,6.54,0,0,1,4.69,1.84,6.06,6.06,0,0,1,1.94,4.59,6.25,6.25,0,0,1-1.89,4.57,6.88,6.88,0,0,1-9.49,0Z" transform="translate(-23.89 -32.52)"/><path class="cls-2" d="M145.82,232.69a4.26,4.26,0,0,1,0-.73,5.06,5.06,0,0,1,2.09-4.34,8.12,8.12,0,0,1,4.95-1.54,8,8,0,0,1,4.93,1.54,5.09,5.09,0,0,1,2.07,4.34,4.26,4.26,0,0,1,0,.73l-3.5,38.17a4.17,4.17,0,0,1-1.2,2.69,3.3,3.3,0,0,1-4.61,0,4.12,4.12,0,0,1-1.19-2.69Zm2.35,60.86a6.47,6.47,0,0,1,0-9.12,6.37,6.37,0,0,1,4.76-1.9,6.58,6.58,0,0,1,4.7,1.83,6.09,6.09,0,0,1,1.94,4.6,6.27,6.27,0,0,1-1.89,4.57,6.9,6.9,0,0,1-9.49,0Z" transform="translate(-23.89 -32.52)"/><path class="cls-2" d="M183.37,277.31a4,4,0,0,1-.05-.73,5.06,5.06,0,0,1,2.1-4.34,8.08,8.08,0,0,1,5-1.54,8,8,0,0,1,4.92,1.54,5.09,5.09,0,0,1,2.08,4.34,4,4,0,0,1-.05.73l-3.5,38.17a4.1,4.1,0,0,1-1.2,2.69,3.28,3.28,0,0,1-4.6,0,4.1,4.1,0,0,1-1.2-2.69Zm2.34,60.86a6.49,6.49,0,0,1,0-9.12,6.37,6.37,0,0,1,4.77-1.9,6.59,6.59,0,0,1,4.7,1.83,6.12,6.12,0,0,1,1.93,4.6,6.28,6.28,0,0,1-1.89,4.57,6.4,6.4,0,0,1-4.74,1.9A6.47,6.47,0,0,1,185.71,338.17Z" transform="translate(-23.89 -32.52)"/><path class="cls-2" d="M66.82,193.16a4.47,4.47,0,0,1,0-.74,5.08,5.08,0,0,1,2.09-4.34,8.12,8.12,0,0,1,4.95-1.54,8,8,0,0,1,4.93,1.54,5.09,5.09,0,0,1,2.07,4.34,4.47,4.47,0,0,1,0,.74l-3.5,38.16a4.17,4.17,0,0,1-1.2,2.69,3.3,3.3,0,0,1-4.61,0,4.12,4.12,0,0,1-1.19-2.69ZM69.17,254a6.47,6.47,0,0,1,0-9.12,6.37,6.37,0,0,1,4.76-1.9,6.58,6.58,0,0,1,4.7,1.83,6.09,6.09,0,0,1,1.94,4.6A6.27,6.27,0,0,1,78.66,254a6.9,6.9,0,0,1-9.49,0Z" transform="translate(-23.89 -32.52)"/></svg>