<svg id="Layer_1" data-name="Layer 1" xmlns="http://www.w3.org/2000/svg" viewBox="0 0 1920.2 782.61"><defs><style>.cls-1{fill:#f5f7f9;}.cls-2{fill:#fff;}</style></defs><title>MasterStepsLandlordBG</title><path class="cls-1" d="M1920,728.11c-38.4,2.95-174.9-24.83-356,2.27-141.7,21.2-216,84-491.8,75.38C871.5,799.53,747.1,748.52,530,694.1,207.8,613.39,35.2,769.94,0,772.32L.4,166.84H0c151.6-59.06,336.8-98.62,544.8-62.91C1224,261.05,1170.6-19.19,1646,29.79c115.5,11.9,206,23.8,274,24.94Z" transform="translate(0 -23.96)"/><path class="cls-2" d="M1758.9,587.6a7.77,7.77,0,0,0,3.3,2.1c1.3.5,3.4-.4,4.5.4a1.7,1.7,0,0,1,.6.8,5.64,5.64,0,0,1,.4,1.2,2.21,2.21,0,0,0,1.2,1.8,4.07,4.07,0,0,0,2.2.2,2.4,2.4,0,0,1,2.1.4,4.44,4.44,0,0,1,1.2,1.9,5.86,5.86,0,0,0,1,2.1,1.49,1.49,0,0,0,.9.4,2.46,2.46,0,0,0,1.2-.1c.9-.2,1.8-.3,2.2.2,1.1.7,1.2,3,2.1,3.9a7.32,7.32,0,0,0,3.2,2.3l-1.4,2.2a7.77,7.77,0,0,0-3.3-2.1c-1.3-.5-3.3.3-4.5-.4a2.44,2.44,0,0,1-1-2,4.23,4.23,0,0,0-.4-1.2,1.58,1.58,0,0,0-.7-.7,4,4,0,0,0-2.2-.2,2.4,2.4,0,0,1-2.1-.4,4.44,4.44,0,0,1-1.2-1.9,5.86,5.86,0,0,0-1-2.1,2.47,2.47,0,0,0-2.1-.4,6,6,0,0,1-1.2.2,1.69,1.69,0,0,1-1-.3c-1.2-.6-1.2-3-2.1-3.9a7.32,7.32,0,0,0-3.2-2.3Z" transform="translate(0 -23.96)"/><path class="cls-2" d="M1740.2,595.7a27.41,27.41,0,0,0-1.8,7.1c-.4,2.4.9,5.3.1,7.6a5.31,5.31,0,0,1-.8,1.7c-.4.5-.9,1-1.3,1.5a6,6,0,0,0-1.8,3.3,8.23,8.23,0,0,0,.2,3.8,7.65,7.65,0,0,1-.1,3.7,8.57,8.57,0,0,1-1.9,3.3,14.64,14.64,0,0,0-2.1,3.2,5.85,5.85,0,0,0,0,3.7,5.89,5.89,0,0,1,.1,3.7c-.6,2.3-3,4.2-3.9,6.4-.4,1.2-.9,2.2-1.3,3.4a20.94,20.94,0,0,0-.8,3.6l-2.6-.7a20.63,20.63,0,0,0,1.2-3.5c.3-1.2.4-2.4.6-3.6.4-2.4-.8-5.3-.1-7.6a6.4,6.4,0,0,1,2.1-3.2,6.36,6.36,0,0,0,1.9-3.2,8.23,8.23,0,0,0-.2-3.8,7.65,7.65,0,0,1,.1-3.7,8.57,8.57,0,0,1,1.9-3.3,14.64,14.64,0,0,0,2.1-3.2,6.63,6.63,0,0,0,.1-3.7c-.1-.6-.3-1.3-.4-2a4.13,4.13,0,0,1,.2-1.9c.4-2.4,3-4.2,3.9-6.4a24.59,24.59,0,0,0,2.1-7Z" transform="translate(0 -23.96)"/><path class="cls-2" d="M1665,659.3c3,1.3,5.8,2.4,8.7,3.4a45.13,45.13,0,0,0,8.5,2.4c1.4.3,2.9.4,4.5.7a26.43,26.43,0,0,1,4.6,1.3,24.61,24.61,0,0,1,4.5,2.4c1.4,1,2.7,2.1,4,2.9l2.9,2-2.5,1.2a20.25,20.25,0,0,0-7,5.7c-1,1.2-2,2.4-2.9,3.6a18.66,18.66,0,0,1-3.3,3,30.3,30.3,0,0,1-3.8,2.4c-1.3.7-2.8,1.2-4.2,2a19.38,19.38,0,0,0-7.3,5.3l-1.8,2.1-1.2-3.4c-.5-1.5-1.3-3-1.8-4.6a28.77,28.77,0,0,1-1.1-4.9,19.27,19.27,0,0,1,0-4.8c.1-1.5.4-3,.4-4.5a51.73,51.73,0,0,0-.1-8.8C1665.8,665.6,1665.5,662.6,1665,659.3Zm1.6,2.2c.3,2.7.7,5.6,1.3,8.7a64.53,64.53,0,0,0,2.1,9c.5,1.5,1.1,3,1.6,4.5a37.13,37.13,0,0,1,1.2,4.1,10.77,10.77,0,0,1,.1,4c-.2,1.3-.5,2.8-.6,4.3l-3-1.2a21.16,21.16,0,0,0,7-5.6c1-1.2,2-2.4,2.9-3.6a18.66,18.66,0,0,1,3.3-3,30.3,30.3,0,0,1,3.8-2.4c1.3-.7,2.8-1.2,4.2-2a20.28,20.28,0,0,0,7.3-5.2l.4,3.1a31.48,31.48,0,0,0-4.3-.5,11.94,11.94,0,0,1-3.8-1.1,23.16,23.16,0,0,1-3.7-2.1c-1.2-.9-2.5-1.9-3.8-2.8a66.58,66.58,0,0,0-8.1-4.6A77.92,77.92,0,0,0,1666.6,661.5Z" transform="translate(0 -23.96)"/><path class="cls-2" d="M1681.2,616.5a17.66,17.66,0,0,1,.9-7.2,26.53,26.53,0,0,1,3.3-6.5,30.35,30.35,0,0,1,5.2-5.6,12.79,12.79,0,0,1,7.5-3h2.1c.7.1,1.3.3,2.1.4a14.58,14.58,0,0,1,1.9.7,16.18,16.18,0,0,1,1.8,1c2.2,1.4,4.2,2.9,6.2,4.4a27.85,27.85,0,0,1,5.6,5.3,13.59,13.59,0,0,1,3.1,7.4,12.86,12.86,0,0,1-1.8,7.9,37.4,37.4,0,0,1-4.6,6.1l-1.3,1.3-1.3,1.3-1.3,1.3a17.88,17.88,0,0,1-1.4,1.3,16.67,16.67,0,0,1-1.6,1.2,10.42,10.42,0,0,1-1.8,1,11.76,11.76,0,0,1-2,.7,6.65,6.65,0,0,1-2.1.3,13.65,13.65,0,0,1-7.9-1.9,31.47,31.47,0,0,1-6.1-4.6,23.3,23.3,0,0,1-4.4-5.9A18.46,18.46,0,0,1,1681.2,616.5Zm2.7-.3a16.37,16.37,0,0,0,1.7,6.1,11.7,11.7,0,0,0,4.1,4.7,10.94,10.94,0,0,0,5.8,2,48.56,48.56,0,0,0,5.6-.3,5.85,5.85,0,0,1,1.3-.2,6.15,6.15,0,0,1,1.4-.1,6.6,6.6,0,0,1,1.4-.1,7.72,7.72,0,0,0,1.5-.2,8.33,8.33,0,0,0,1.5-.4c.5-.2,1-.4,1.4-.6a10.14,10.14,0,0,0,1.3-.9c.4-.4.7-.8,1.1-1.2a9.39,9.39,0,0,0,1.9-5.8,33.23,33.23,0,0,0-.3-5.6c-.2-1.8-.3-3.7-.7-5.6a9.92,9.92,0,0,0-2.9-5.4,8.08,8.08,0,0,0-5.7-2.1,7.57,7.57,0,0,0-1.5.1c-.5.1-1,.1-1.4.2s-.9.1-1.4.2a5.7,5.7,0,0,1-1.3.1c-1.8.2-3.7.3-5.6.7a10.45,10.45,0,0,0-5.4,2.8,11.82,11.82,0,0,0-3.2,5.4A14.6,14.6,0,0,0,1683.9,616.2Z" transform="translate(0 -23.96)"/><path class="cls-2" d="M1724.5,557.8a14.63,14.63,0,0,1,.7-5.5,18,18,0,0,1,2.5-5,38.5,38.5,0,0,1,3.8-4.6,10.61,10.61,0,0,1,5.8-2.6h1.6a9.36,9.36,0,0,1,1.6.4l1.5.6c.4.3.9.5,1.3.8,1.7,1.2,3.2,2.5,4.7,3.6a39.75,39.75,0,0,1,4.6,3.9,9.94,9.94,0,0,1,2.6,5.8,9.82,9.82,0,0,1-1.6,6.2,46.56,46.56,0,0,1-3.8,4.6c-.4.4-.6.7-1,1.1s-.6.7-1,1.1a12.7,12.7,0,0,0-1,1.2c-.4.4-.7.8-1.1,1.2s-.8.7-1.2,1.1-.9.6-1.4.9a4.42,4.42,0,0,1-1.5.5l-1.6.3a10.5,10.5,0,0,1-6.2-1.6,30,30,0,0,1-4.6-3.8,19.24,19.24,0,0,1-3.3-4.6A21.9,21.9,0,0,1,1724.5,557.8Zm2.7-.1a12.57,12.57,0,0,0,1.2,4.5,8.25,8.25,0,0,0,3,3.4,6.79,6.79,0,0,0,4.3,1.1c1.4-.1,2.8-.4,4-.5s2.5,0,4.1-.1a5,5,0,0,0,1.2-.2,4.87,4.87,0,0,0,1.1-.4c.4-.2.6-.4,1-.6l.8-.8a6.64,6.64,0,0,0,1.1-4.3c-.1-1.4-.4-2.7-.4-3.9s-.1-2.5-.2-4a6.16,6.16,0,0,0-1.8-4,5,5,0,0,0-4.2-1.3c-.4.1-.7.1-1.1.2l-1.1.3a3.55,3.55,0,0,1-1,.2,3.08,3.08,0,0,1-.9.1c-1.3.1-2.5.1-3.9.3a6.89,6.89,0,0,0-4.1,1.8,8,8,0,0,0-2.4,3.9A6.57,6.57,0,0,0,1727.2,557.7Z" transform="translate(0 -23.96)"/><path class="cls-2" d="M1755.9,646.6a14.63,14.63,0,0,1,.7-5.5,19.51,19.51,0,0,1,2.5-5,30.81,30.81,0,0,1,3.8-4.6,10.3,10.3,0,0,1,5.8-2.6h1.6a9.36,9.36,0,0,1,1.6.4l1.5.6c.4.3.9.5,1.3.8,1.7,1.3,3.1,2.4,4.6,3.6a39.75,39.75,0,0,1,4.6,3.9,10,10,0,0,1,2.6,5.8,9.82,9.82,0,0,1-1.6,6.2,35.79,35.79,0,0,1-3.8,4.6c-.4.4-.6.7-1,1.1s-.6.7-1,1.1a12.7,12.7,0,0,0-1,1.2c-.4.4-.7.8-1.1,1.2s-.8.7-1.2,1.1-.9.6-1.3.9a3.81,3.81,0,0,1-1.5.5l-1.6.3a10,10,0,0,1-6.1-1.6,35.79,35.79,0,0,1-4.6-3.8,20.85,20.85,0,0,1-3.3-4.5A28.44,28.44,0,0,1,1755.9,646.6Zm2.6-.3a11.57,11.57,0,0,0,1.2,4.4,9.57,9.57,0,0,0,2.9,3.4,6.79,6.79,0,0,0,4.3,1.1c1.4-.1,2.7-.4,3.9-.5s2.5,0,4,0c.4,0,.7-.1,1.2-.1a4.87,4.87,0,0,0,1.1-.4c.4-.2.6-.4,1-.6l.8-.8a6.49,6.49,0,0,0,1.1-4.3c-.1-1.4-.4-2.7-.4-3.9s-.1-2.5-.2-3.9a5.9,5.9,0,0,0-1.8-4,5,5,0,0,0-4.2-1.3c-.4.1-.7.1-1.1.2s-.7.2-1,.3a3.55,3.55,0,0,1-1,.2,2.77,2.77,0,0,1-.9.1c-1.3.1-2.5.1-3.9.2a6.26,6.26,0,0,0-4,1.7,8.51,8.51,0,0,0-2.4,3.8A9.43,9.43,0,0,0,1758.5,646.3Z" transform="translate(0 -23.96)"/><path class="cls-2" d="M1528.1,618.5a6.8,6.8,0,0,0-3.6-1.5c-1.3-.4-3.3.9-4.5.3a2.34,2.34,0,0,1-.7-.7,4.33,4.33,0,0,1-.5-1.2,2.11,2.11,0,0,0-1.4-1.6,4.32,4.32,0,0,0-2.2.2,2.54,2.54,0,0,1-2.1,0,2.9,2.9,0,0,1-1.3-1.7,5.65,5.65,0,0,0-1.2-1.9,1.69,1.69,0,0,0-1-.3,5.27,5.27,0,0,0-1.2.3,2.53,2.53,0,0,1-2.2.2c-1.2-.5-1.6-2.8-2.7-3.6a6.94,6.94,0,0,0-3.5-1.8l1.2-2.4a6.8,6.8,0,0,0,3.6,1.5c1.2.4,3.3-.8,4.5-.3.6.2,1,.9,1.3,1.9a10.41,10.41,0,0,1,.5,1.2,1.37,1.37,0,0,0,.8.5,4.32,4.32,0,0,0,2.2-.2,3,3,0,0,1,2.1,0,2.9,2.9,0,0,1,1.3,1.7,5.65,5.65,0,0,0,1.2,1.9,2,2,0,0,0,2.1,0c.4-.1.9-.3,1.3-.4a2.08,2.08,0,0,1,1.1.1c1.3.4,1.6,2.8,2.7,3.6a6.94,6.94,0,0,0,3.5,1.8Z" transform="translate(0 -23.96)"/><path class="cls-2" d="M1564.4,546.9a7.77,7.77,0,0,0,3.3,2.1c1.3.5,3.4-.4,4.5.4a1.7,1.7,0,0,1,.6.8,5.64,5.64,0,0,1,.4,1.2,2.21,2.21,0,0,0,1.2,1.8,4,4,0,0,0,2.2.2,2.4,2.4,0,0,1,2.1.4,4.44,4.44,0,0,1,1.2,1.9,5.86,5.86,0,0,0,1,2.1,1.49,1.49,0,0,0,.9.4,2.46,2.46,0,0,0,1.2-.1c.9-.2,1.8-.3,2.2.2,1.1.7,1.2,3,2.1,3.9a7.32,7.32,0,0,0,3.2,2.3l-1.4,2.2a7.77,7.77,0,0,0-3.3-2.1c-1.3-.5-3.3.3-4.5-.4a2.44,2.44,0,0,1-1-2,4.23,4.23,0,0,0-.4-1.2,2.34,2.34,0,0,0-.7-.7,4,4,0,0,0-2.2-.2,2.4,2.4,0,0,1-2.1-.4,4.44,4.44,0,0,1-1.2-1.9,5.86,5.86,0,0,0-1-2.1,2.47,2.47,0,0,0-2.1-.4,6,6,0,0,1-1.2.2,1.69,1.69,0,0,1-1-.3c-1.2-.6-1.2-3-2.1-3.9a7.32,7.32,0,0,0-3.2-2.3Z" transform="translate(0 -23.96)"/><path class="cls-2" d="M1537.5,634.3a27.41,27.41,0,0,0-1.8,7.1c-.4,2.4.9,5.3.1,7.6a5.31,5.31,0,0,1-.8,1.7c-.4.5-.9,1-1.3,1.5a6,6,0,0,0-1.8,3.3,8.23,8.23,0,0,0,.2,3.8,7.65,7.65,0,0,1-.1,3.7,8.57,8.57,0,0,1-1.9,3.3,14.64,14.64,0,0,0-2.1,3.2,5.85,5.85,0,0,0,0,3.7,5.89,5.89,0,0,1,.1,3.7c-.6,2.3-3,4.2-3.9,6.4-.4,1.2-.9,2.2-1.3,3.4a20.94,20.94,0,0,0-.8,3.6l-2.6-.7a20.63,20.63,0,0,0,1.2-3.5c.3-1.2.4-2.4.6-3.6.4-2.4-.8-5.3-.1-7.6a6.4,6.4,0,0,1,2.1-3.2,6.36,6.36,0,0,0,1.9-3.2,8.23,8.23,0,0,0-.2-3.8,7.65,7.65,0,0,1,.1-3.7,8.57,8.57,0,0,1,1.9-3.3,14.64,14.64,0,0,0,2.1-3.2,6.63,6.63,0,0,0,.1-3.7c-.1-.6-.3-1.3-.4-2a4.27,4.27,0,0,1,.2-1.9c.4-2.4,3-4.2,3.9-6.4a24.59,24.59,0,0,0,2.1-7Z" transform="translate(0 -23.96)"/><path class="cls-2" d="M1510.5,551.5c.5,3.2,1.1,6.2,1.8,9.1a41.77,41.77,0,0,0,2.6,8.5c.5,1.3,1.3,2.7,1.8,4.2a22.26,22.26,0,0,1,1.3,4.6,20.7,20.7,0,0,1,.4,5c-.1,1.7-.3,3.4-.3,5l-.1,3.5-2.4-1.4a21.28,21.28,0,0,0-8.6-2.8l-4.6-.6a24,24,0,0,1-4.4-1.2,22.19,22.19,0,0,1-4.1-2c-1.3-.8-2.6-1.7-3.9-2.5a21.73,21.73,0,0,0-8.4-3.3l-2.8-.4,2.2-2.9c1-1.2,1.9-2.7,2.9-4a19.89,19.89,0,0,1,3.6-3.5,30.19,30.19,0,0,1,4-2.6c1.3-.7,2.8-1.3,4-2.1a49.89,49.89,0,0,0,7.4-4.9A60.26,60.26,0,0,0,1510.5,551.5Zm-.9,2.5c-2.1,1.7-4.4,3.7-6.6,5.7a51.26,51.26,0,0,0-6.4,6.7c-1,1.2-2,2.6-2.9,3.7a28.68,28.68,0,0,1-2.9,3.1,10,10,0,0,1-3.3,2.2c-1.3.6-2.6,1.1-3.9,1.8l-.5-3.2a23.06,23.06,0,0,0,8.6,2.9l4.6.6a24,24,0,0,1,4.4,1.2,26,26,0,0,1,4.1,2c1.3.8,2.6,1.7,3.9,2.5a21.73,21.73,0,0,0,8.4,3.3l-2.4,2.1a28.1,28.1,0,0,0-1.9-3.9,12.94,12.94,0,0,1-1.2-3.8,19.1,19.1,0,0,1-.2-4.2c.1-1.5.2-3.1.3-4.7a56.65,56.65,0,0,0-.6-9.3C1510.6,559.6,1510.1,556.6,1509.6,554Z" transform="translate(0 -23.96)"/><path class="cls-2" d="M1136.7,697.6a7,7,0,0,0,3.5,1.9c1.3.4,3.4-.6,4.5.2a1.85,1.85,0,0,1,.7.8,5,5,0,0,1,.4,1.3c.3.9.6,1.5,1.3,1.7a3.31,3.31,0,0,0,2.2,0,2.47,2.47,0,0,1,2.1.2,3.39,3.39,0,0,1,1.2,1.8,4,4,0,0,0,1.2,2,1.49,1.49,0,0,0,.9.4,5,5,0,0,0,1.2-.2,2.4,2.4,0,0,1,2.2,0c1.2.6,1.3,2.9,2.3,3.7a6.92,6.92,0,0,0,3.3,2.1l-1.3,2.3a7.5,7.5,0,0,0-3.5-1.9c-1.3-.4-3.3.5-4.5-.2-.6-.3-.9-1-1.2-2-.1-.4-.3-.9-.4-1.2a1,1,0,0,0-.8-.6,4.09,4.09,0,0,0-2.2,0,2.47,2.47,0,0,1-2.1-.2,4.2,4.2,0,0,1-1.3-1.8,4,4,0,0,0-1.2-2,2.47,2.47,0,0,0-2.1-.2l-1.3.3a1.64,1.64,0,0,1-1-.2c-1.3-.5-1.3-2.9-2.3-3.7a6.92,6.92,0,0,0-3.3-2.1Z" transform="translate(0 -23.96)"/><path class="cls-2" d="M1094.4,765.9a6.83,6.83,0,0,0-3.1-2.3c-1.2-.6-3.5.2-4.4-.8a1.35,1.35,0,0,1-.5-.9c-.1-.4-.2-.8-.3-1.3a2.24,2.24,0,0,0-1-1.9,3.79,3.79,0,0,0-2.2-.4,3.28,3.28,0,0,1-2.1-.5,3.44,3.44,0,0,1-1-2,5.76,5.76,0,0,0-.8-2.1,1.09,1.09,0,0,0-.9-.4,4.82,4.82,0,0,0-1.2,0c-1,.2-1.8.1-2.2-.4-1.1-.8-.9-3.1-1.8-4.1a7.22,7.22,0,0,0-2.9-2.6l1.6-2.1a7.64,7.64,0,0,0,3.1,2.3c1.2.6,3.4,0,4.4.8a2.71,2.71,0,0,1,.8,2.1,6.11,6.11,0,0,0,.3,1.3,1.58,1.58,0,0,0,.7.7,3.79,3.79,0,0,0,2.2.4,3.28,3.28,0,0,1,2.1.5,3.44,3.44,0,0,1,1,2,5.76,5.76,0,0,0,.8,2.1,2.32,2.32,0,0,0,2.1.5c.4,0,.9-.1,1.3-.1a1.78,1.78,0,0,1,1,.4c1.2.7.9,3,1.8,4.1a7.22,7.22,0,0,0,2.9,2.6Z" transform="translate(0 -23.96)"/><path class="cls-2" d="M1128.5,681.1a20.81,20.81,0,0,0,2.3-6.9c.6-2.3-.4-5.4.5-7.6a4.69,4.69,0,0,1,1-1.6,9.27,9.27,0,0,1,1.4-1.4,6.16,6.16,0,0,0,2.1-3.1,9.66,9.66,0,0,0,.2-3.8,7.58,7.58,0,0,1,.4-3.7,9,9,0,0,1,2.1-3.1,12.65,12.65,0,0,0,2.3-3,6.46,6.46,0,0,0,.4-3.7,5.75,5.75,0,0,1,.2-3.7c.8-2.3,3.4-3.9,4.5-6.1a33.1,33.1,0,0,0,1.5-3.3,35.8,35.8,0,0,0,1.1-3.5l2.5.9a14.34,14.34,0,0,0-1.4,3.4c-.3,1.2-.7,2.3-.9,3.6-.6,2.3.4,5.3-.5,7.6a7.1,7.1,0,0,1-2.2,3,5.28,5.28,0,0,0-2.1,3.1,9.66,9.66,0,0,0-.2,3.8,7.58,7.58,0,0,1-.4,3.7,9,9,0,0,1-2.1,3.1,12.65,12.65,0,0,0-2.3,3,6.46,6.46,0,0,0-.4,3.7,13.55,13.55,0,0,1,.2,2,5.23,5.23,0,0,1-.3,1.8c-.7,2.3-3.4,3.9-4.5,6.1a23.36,23.36,0,0,0-2.6,6.8Z" transform="translate(0 -23.96)"/><path class="cls-2" d="M1213.2,654c-2.9-1.6-5.6-2.9-8.3-4.1a43.93,43.93,0,0,0-8.3-3.1c-1.4-.4-2.9-.6-4.4-1.1a33.49,33.49,0,0,1-4.6-1.8,19.22,19.22,0,0,1-4.2-2.8c-1.3-1.1-2.5-2.2-3.7-3.2l-2.8-2.1,2.6-1a20.06,20.06,0,0,0,7.4-5.1c1.1-1.1,2.1-2.2,3.2-3.3a19.35,19.35,0,0,1,3.6-2.8,25.24,25.24,0,0,1,4-2.1c1.4-.5,2.9-1.1,4.4-1.6a22.06,22.06,0,0,0,7.8-4.6l2-2,.9,3.5c.4,1.5,1,3.1,1.4,4.8a20.74,20.74,0,0,1,.6,5,25.22,25.22,0,0,1-.4,4.8c-.3,1.5-.6,3-.8,4.5a65.06,65.06,0,0,0-.6,8.8A73.34,73.34,0,0,0,1213.2,654Zm-1.5-2.2c-.1-2.7-.3-5.7-.5-8.7a74.39,74.39,0,0,0-1.4-9.1c-.4-1.5-.8-3.1-1.3-4.6a34.29,34.29,0,0,1-.8-4.2,9.08,9.08,0,0,1,.3-4c.3-1.3.7-2.8,1-4.2l2.9,1.5a21.28,21.28,0,0,0-7.5,5.1c-1.1,1.1-2.1,2.2-3.2,3.3a19.35,19.35,0,0,1-3.6,2.8,30.47,30.47,0,0,1-4,2.1c-1.4.5-2.9,1.1-4.4,1.6a23.66,23.66,0,0,0-7.8,4.6l-.2-3.2c1.4.4,2.9.6,4.2.9a11.81,11.81,0,0,1,3.7,1.4,18.23,18.23,0,0,1,3.5,2.4c1.2,1,2.3,2.1,3.6,3a61.26,61.26,0,0,0,7.7,5.2C1206.6,649.1,1209.2,650.6,1211.7,651.8Z" transform="translate(0 -23.96)"/><path class="cls-2" d="M1148.5,765.9c-.3-3.3-.6-6.2-1-9.2a43.62,43.62,0,0,0-1.9-8.7c-.4-1.4-1-2.8-1.4-4.3a35.6,35.6,0,0,1-1-4.7,20.91,20.91,0,0,1,0-5c.2-1.7.5-3.3.7-4.9l.4-3.5,2.2,1.6a21,21,0,0,0,8.3,3.5c1.5.4,3,.6,4.6,1a31.21,31.21,0,0,1,4.3,1.5,22.15,22.15,0,0,1,3.9,2.3c1.2.9,2.4,1.9,3.7,2.8a20.8,20.8,0,0,0,8,4l2.8.6-2.5,2.6c-1.1,1.2-2.1,2.5-3.3,3.7a28,28,0,0,1-3.8,3.2,25.49,25.49,0,0,1-4.3,2.3c-1.4.6-2.9,1.2-4.2,1.7a49.58,49.58,0,0,0-7.8,4.3C1153.7,762.3,1151.2,763.9,1148.5,765.9Zm1.2-2.5c2.2-1.5,4.6-3.3,7.1-5.2a64.91,64.91,0,0,0,7-6.2c1.1-1.2,2.1-2.4,3.1-3.5a27.42,27.42,0,0,1,3.1-2.9,13.3,13.3,0,0,1,3.5-2c1.2-.4,2.7-.9,4.1-1.4l.3,3.2a20.62,20.62,0,0,0-8.3-3.6c-1.5-.4-3-.6-4.6-1a31.21,31.21,0,0,1-4.3-1.5,19,19,0,0,1-3.9-2.3c-1.2-.9-2.4-1.9-3.7-2.8a20.8,20.8,0,0,0-8-4l2.6-1.9a37.13,37.13,0,0,0,1.5,4,18.32,18.32,0,0,1,.9,3.9,20,20,0,0,1-.2,4.2c-.2,1.5-.4,3-.6,4.6a58,58,0,0,0-.2,9.3A78.51,78.51,0,0,0,1149.7,763.4Z" transform="translate(0 -23.96)"/><path class="cls-2" d="M1195.6,675.9a17.4,17.4,0,0,1-1.5,7.1,24.6,24.6,0,0,1-3.8,6.2,27.88,27.88,0,0,1-5.6,5.2,13.76,13.76,0,0,1-7.7,2.4,16.46,16.46,0,0,1-2.1-.2,14.62,14.62,0,0,0-2-.5c-.6-.3-1.2-.5-1.9-.9s-1.2-.7-1.7-1.1c-2.1-1.6-3.9-3.3-5.8-4.9a35.62,35.62,0,0,1-5.2-5.7,13,13,0,0,1-2.4-7.7,14,14,0,0,1,2.4-7.7,31.8,31.8,0,0,1,5.2-5.7c.4-.4.9-.8,1.3-1.2s.9-.8,1.4-1.3,1-.8,1.4-1.2l1.5-1.2a9.91,9.91,0,0,1,1.7-1.1c.6-.3,1.3-.6,1.9-.9a11.7,11.7,0,0,1,2-.5c.7-.1,1.3-.1,2.1-.2a14.11,14.11,0,0,1,7.7,2.5,31.49,31.49,0,0,1,5.7,5.2,22,22,0,0,1,3.8,6.2A19.84,19.84,0,0,1,1195.6,675.9Zm-2.7,0a16.68,16.68,0,0,0-1.2-6.2,13.42,13.42,0,0,0-3.7-5.1,12.12,12.12,0,0,0-5.6-2.4,35.79,35.79,0,0,0-5.6-.2,5.65,5.65,0,0,1-1.3,0h-4.3c-.5.1-1,.1-1.5.2a8.8,8.8,0,0,0-1.5.5c-.4.3-.9.5-1.3.8s-.8.7-1.2,1.1a10.47,10.47,0,0,0-2.4,5.6,54.3,54.3,0,0,0-.2,5.6,53.34,53.34,0,0,0,.2,5.6,10.81,10.81,0,0,0,2.4,5.6,8.08,8.08,0,0,0,5.5,2.7c.5,0,1,.1,1.5.1h1.4a6.6,6.6,0,0,1,1.4-.1,5.65,5.65,0,0,1,1.3,0,35.68,35.68,0,0,0,5.6-.3,12,12,0,0,0,5.6-2.3,12.7,12.7,0,0,0,3.7-5.1A16.17,16.17,0,0,0,1192.9,675.9Z" transform="translate(0 -23.96)"/><path class="cls-2" d="M1021.6,768.8a11.67,11.67,0,0,1-1.2,5.2,20.25,20.25,0,0,1-2.8,4.6,30.75,30.75,0,0,1-4,4.1,10,10,0,0,1-5.7,2.1,6.8,6.8,0,0,1-1.5-.2c-.5-.1-1-.3-1.5-.4a8.26,8.26,0,0,1-1.3-.7l-1.2-.9c-1.5-1.3-2.8-2.6-4.1-3.8a30.21,30.21,0,0,1-4-4,9.31,9.31,0,0,1-2.1-5.7,9.09,9.09,0,0,1,2.1-5.7,25.19,25.19,0,0,1,4-4,9,9,0,0,0,1-.9,9.43,9.43,0,0,0,1-1,4.74,4.74,0,0,0,1-1l1.1-1.1a10.59,10.59,0,0,0,1.2-1,8.26,8.26,0,0,1,1.3-.7,3.71,3.71,0,0,1,1.5-.4,8.08,8.08,0,0,1,1.5-.1,9.71,9.71,0,0,1,5.7,2.1,25.19,25.19,0,0,1,4,4,16.69,16.69,0,0,1,2.8,4.6A9.62,9.62,0,0,1,1021.6,768.8Zm-2.7,0a14.78,14.78,0,0,0-.7-4.2,7.26,7.26,0,0,0-2.6-3.4,6.31,6.31,0,0,0-3.9-1.3c-1.3,0-2.6.2-3.7.2a16.7,16.7,0,0,1-3.7-.4h-1.1a4.51,4.51,0,0,0-1.1.3l-1,.5a5,5,0,0,0-.8.7,5.75,5.75,0,0,0-1.3,3.9c0,1.4.2,2.6.2,3.7s-.2,2.3-.2,3.7a5.93,5.93,0,0,0,1.3,3.9,4.52,4.52,0,0,0,3.8,1.5c.4,0,.7-.1,1.1-.1s.6-.1,1-.2a3.08,3.08,0,0,1,.9-.1,1.39,1.39,0,0,1,.9,0c1.2,0,2.3.1,3.7.2a7.21,7.21,0,0,0,4-1.2,8,8,0,0,0,2.6-3.4A12.78,12.78,0,0,0,1018.9,768.8Z" transform="translate(0 -23.96)"/><path class="cls-2" d="M1015.9,674.8a7.07,7.07,0,0,0,1.2-3.7c.2-1.3-1.2-3.2-.6-4.4.1-.3.4-.5.6-.8a4.49,4.49,0,0,1,1.2-.6c.8-.4,1.4-.9,1.5-1.5a3.71,3.71,0,0,0-.4-2.2,3.17,3.17,0,0,1-.2-2.1,3.11,3.11,0,0,1,1.5-1.5,4.91,4.91,0,0,0,1.7-1.4,1.16,1.16,0,0,0,.2-1,2.84,2.84,0,0,0-.4-1.2c-.4-.9-.7-1.6-.4-2.2.4-1.3,2.7-1.8,3.3-2.9a7,7,0,0,0,1.4-3.7l2.5.9a8.23,8.23,0,0,0-1.3,3.7c-.3,1.3,1.1,3.2.6,4.4-.1.6-.8,1.1-1.7,1.4a10.91,10.91,0,0,0-1.1.6,1,1,0,0,0-.4.9,3.71,3.71,0,0,0,.4,2.2,3.17,3.17,0,0,1,.2,2.1,3.11,3.11,0,0,1-1.5,1.5,4.91,4.91,0,0,0-1.7,1.4,1.85,1.85,0,0,0,.2,2.1,2.84,2.84,0,0,1,.4,1.3,2.05,2.05,0,0,1,0,1.1c-.3,1.3-2.7,1.8-3.3,2.9a6.8,6.8,0,0,0-1.5,3.7Z" transform="translate(0 -23.96)"/><path class="cls-2" d="M1071,611.6a7.07,7.07,0,0,0,1.2-3.7c.2-1.3-1.2-3.2-.6-4.4.1-.3.4-.5.6-.8a4.49,4.49,0,0,1,1.2-.6c.8-.4,1.4-.9,1.5-1.5a3.71,3.71,0,0,0-.4-2.2,3.17,3.17,0,0,1-.2-2.1,3.11,3.11,0,0,1,1.5-1.5,4.91,4.91,0,0,0,1.7-1.4,1.16,1.16,0,0,0,.2-1,2.84,2.84,0,0,0-.4-1.2c-.4-.9-.7-1.6-.4-2.2.4-1.2,2.7-1.8,3.3-2.9a7,7,0,0,0,1.4-3.7l2.5.9a8.23,8.23,0,0,0-1.3,3.7c-.3,1.3,1.1,3.2.6,4.4-.1.6-.8,1.1-1.7,1.4a10.91,10.91,0,0,0-1.1.6,1,1,0,0,0-.4.9,3.71,3.71,0,0,0,.4,2.2,3.17,3.17,0,0,1,.2,2.1,3.11,3.11,0,0,1-1.5,1.5,4.91,4.91,0,0,0-1.7,1.4,1.85,1.85,0,0,0,.2,2.1,2.84,2.84,0,0,1,.4,1.3,2.05,2.05,0,0,1,0,1.1c-.3,1.3-2.7,1.8-3.3,2.9a6.8,6.8,0,0,0-1.5,3.7Z" transform="translate(0 -23.96)"/><path class="cls-2" d="M1042.6,760.6a7.07,7.07,0,0,0,1.2-3.7c.2-1.3-1.3-3.2-.6-4.4.1-.3.4-.5.6-.8a4.49,4.49,0,0,1,1.2-.6c.8-.4,1.4-.9,1.5-1.5a3.71,3.71,0,0,0-.4-2.2,3.17,3.17,0,0,1-.2-2.1,3.11,3.11,0,0,1,1.5-1.5,4.91,4.91,0,0,0,1.7-1.4,1.16,1.16,0,0,0,.2-1,2.84,2.84,0,0,0-.4-1.2c-.4-.9-.7-1.6-.4-2.2.4-1.2,2.7-1.8,3.3-2.9a7,7,0,0,0,1.4-3.7l2.5.9a8.23,8.23,0,0,0-1.3,3.7c-.3,1.3,1.1,3.2.6,4.4-.1.6-.8,1.1-1.7,1.4a10.91,10.91,0,0,0-1.1.6,1,1,0,0,0-.4.9,3.71,3.71,0,0,0,.4,2.2,3.17,3.17,0,0,1,.2,2.1,3.11,3.11,0,0,1-1.5,1.5,4.91,4.91,0,0,0-1.7,1.4,1.85,1.85,0,0,0,.2,2.1,2.84,2.84,0,0,1,.4,1.3,2.05,2.05,0,0,1,0,1.1c-.3,1.3-2.7,1.8-3.3,2.9a6.8,6.8,0,0,0-1.5,3.7Z" transform="translate(0 -23.96)"/><path class="cls-2" d="M1070.7,717.6a13.43,13.43,0,0,0-4.3-3.2c-1.6-.9-4.2-.4-5.5-1.7a2.26,2.26,0,0,1-.8-1.1,6.61,6.61,0,0,1-.5-1.5,3.83,3.83,0,0,0-1.6-2.4,7.66,7.66,0,0,0-2.9-.8,4.65,4.65,0,0,1-2.7-1,4.52,4.52,0,0,1-1.5-2.4,6.47,6.47,0,0,0-1.4-2.6,2.92,2.92,0,0,0-1.2-.7,3.64,3.64,0,0,0-1.5-.2,4.07,4.07,0,0,1-2.8-.8c-1.4-1.1-1.7-3.7-2.9-5a13.66,13.66,0,0,0-4.1-3.5l1.6-2.1a13.43,13.43,0,0,0,4.3,3.2c1.5,1,4.1.6,5.5,1.7a3.34,3.34,0,0,1,1.4,2.6,10.87,10.87,0,0,0,.5,1.4,3.18,3.18,0,0,0,1,1,7.66,7.66,0,0,0,2.9.8,4.65,4.65,0,0,1,2.7,1,4.52,4.52,0,0,1,1.5,2.4,6.47,6.47,0,0,0,1.4,2.6,3.7,3.7,0,0,0,2.7,1c.5.1,1.1.1,1.6.2a5,5,0,0,1,1.3.5c1.5,1,1.7,3.7,2.9,5a13.66,13.66,0,0,0,4.1,3.5Z" transform="translate(0 -23.96)"/><path class="cls-2" d="M1067.9,647.5a17.45,17.45,0,0,0-4.6-4c-1.7-1.2-4.6-1.1-6-2.6a4.7,4.7,0,0,1-.9-1.2,4.8,4.8,0,0,1-.5-1.7,5.33,5.33,0,0,0-1.7-2.8,7.29,7.29,0,0,0-3-1.2,6.56,6.56,0,0,1-2.9-1.4,6.45,6.45,0,0,1-1.6-2.8,8.86,8.86,0,0,0-1.5-2.9,4,4,0,0,0-2.9-1.3,4.81,4.81,0,0,1-3-1.2c-1.5-1.3-1.8-4.2-3.1-5.7a20.46,20.46,0,0,0-4.5-4.3l1.8-2a19.91,19.91,0,0,0,4.6,4.1c1.7,1.3,4.5,1.3,6,2.6a4.53,4.53,0,0,1,1.5,2.9,4.55,4.55,0,0,0,1.6,2.8,9.09,9.09,0,0,0,3,1.3,6.56,6.56,0,0,1,2.9,1.4,6.45,6.45,0,0,1,1.6,2.8,8.86,8.86,0,0,0,1.5,2.9,4.7,4.7,0,0,0,2.9,1.4c.5.1,1.2.3,1.7.4a2.87,2.87,0,0,1,1.3.8c1.6,1.3,1.8,4.1,3.1,5.7a18.4,18.4,0,0,0,4.5,4.3Z" transform="translate(0 -23.96)"/><path class="cls-2" d="M1189.9,636.1a3.75,3.75,0,0,0,.8-2.5c.1-.9-1.5-2.4-1.1-3.2.1-.4.8-.6,1.6-.8.2-.1.4-.1.5-.2s.3-.1.4-.2c.3-.2.4-.4.4-.5.2-.9-1.4-2.4-1.1-3.2s2.4-1,2.9-1.8a.82.82,0,0,0,.1-.7,9,9,0,0,0-.5-.9c-.5-.6-.8-1.3-.6-1.6.3-.8,2.3-1,2.9-1.8a3.59,3.59,0,0,0,1.1-2.4l2.5.9a3.75,3.75,0,0,0-.8,2.5c-.1.9,1.3,2.3,1.1,3.2-.1.4-.7.7-1.5.9a3,3,0,0,0-1,.4c-.3.2-.4.4-.4.5-.2.9,1.4,2.4,1.1,3.2s-2.4,1-2.9,1.8a.66.66,0,0,0-.1.6.76.76,0,0,0,.2.4,1.38,1.38,0,0,0,.3.4c.4.6.8,1.3.6,1.6-.2.9-2.3,1-2.9,1.8a3.59,3.59,0,0,0-1.1,2.4Z" transform="translate(0 -23.96)"/><path class="cls-2" d="M1087.9,689a70.92,70.92,0,0,0-.9-8.2l-.6-3.9a23.39,23.39,0,0,0-.9-3.8c-.8-2.4-2-5-2.4-7.9a16,16,0,0,1-.3-4.4c.1-1.5.4-2.9.6-4.4l.8-4.9,2.5,2.8a18,18,0,0,0,7.8,4.8c1.5.4,3,.9,4.6,1.3a14.6,14.6,0,0,1,4.2,1.9,20,20,0,0,1,3.7,2.8c1.2,1.1,2.2,2.2,3.4,3.2a18.36,18.36,0,0,0,3.7,2.7,16.53,16.53,0,0,0,4.4,1.6l3.7.8-3.8,3.3a23.87,23.87,0,0,1-3.5,2.8,23.3,23.3,0,0,1-3.9,1.9,53.13,53.13,0,0,1-8,1.8,16,16,0,0,0-3.7,1.2c-1.2.4-2.5.9-3.7,1.4A56.92,56.92,0,0,0,1087.9,689Zm1.3-2.3c2.2-.9,4.6-2.1,6.9-3.3a31.22,31.22,0,0,0,3.5-2,22.46,22.46,0,0,0,3.5-2.2c2.3-1.6,4.3-3.6,6.4-4.8a11.15,11.15,0,0,1,3.2-1.4,22,22,0,0,1,3.7-.5l-.2,4.1a14.75,14.75,0,0,0-3.6-3,20,20,0,0,0-4.2-1.9c-1.5-.4-3-.9-4.6-1.3a15.93,15.93,0,0,1-4.2-1.9,20,20,0,0,1-3.7-2.8c-1.2-1.1-2.2-2.2-3.4-3.2a16.81,16.81,0,0,0-8.1-4.3l3.4-2.1a24.81,24.81,0,0,1,1.3,3.5,10.48,10.48,0,0,1,.4,3.5c.1,2.4-.6,5.1-1,7.9a28.84,28.84,0,0,0-.2,4.1c0,1.3,0,2.7.1,4C1088.7,681.7,1088.9,684.3,1089.2,686.7Z" transform="translate(0 -23.96)"/><path class="cls-2" d="M1019.8,739.1c-2.9-1.6-5.6-2.9-8.3-4.1a43.93,43.93,0,0,0-8.3-3.1c-1.4-.4-2.9-.6-4.4-1.1a24.23,24.23,0,0,1-4.6-1.8,19.22,19.22,0,0,1-4.2-2.8c-1.3-1.1-2.5-2.2-3.7-3.2l-2.8-2.1,2.6-1a20.06,20.06,0,0,0,7.4-5.1c1.1-1.1,2.1-2.2,3.2-3.3a19.35,19.35,0,0,1,3.6-2.8,30.47,30.47,0,0,1,4-2.1c1.4-.5,2.9-1.1,4.4-1.6a22.06,22.06,0,0,0,7.8-4.6l2-2,.9,3.5c.4,1.5,1,3.1,1.4,4.8a20.74,20.74,0,0,1,.6,5,25.22,25.22,0,0,1-.4,4.8c-.3,1.5-.6,3-.8,4.5a65.06,65.06,0,0,0-.6,8.8C1019.6,732.8,1019.6,735.8,1019.8,739.1Zm-1.4-2.3c-.1-2.7-.3-5.7-.5-8.7a74.39,74.39,0,0,0-1.4-9.1c-.4-1.5-.8-3.1-1.2-4.6a34.29,34.29,0,0,1-.8-4.2,9.08,9.08,0,0,1,.3-4c.3-1.3.7-2.8,1-4.2l2.9,1.5a21.28,21.28,0,0,0-7.5,5.1c-1.1,1.1-2.1,2.2-3.2,3.3a19.35,19.35,0,0,1-3.6,2.8,30.47,30.47,0,0,1-4,2.1c-1.4.5-2.9,1.1-4.4,1.6a23.66,23.66,0,0,0-7.8,4.6l-.2-3.2c1.4.4,2.9.6,4.2.9a11.81,11.81,0,0,1,3.7,1.4,18.23,18.23,0,0,1,3.5,2.4c1.2,1,2.3,2.1,3.6,3a61.26,61.26,0,0,0,7.7,5.2C1013.4,734.2,1015.9,735.6,1018.4,736.8Z" transform="translate(0 -23.96)"/><path class="cls-2" d="M1123,727.4a12.53,12.53,0,0,1-1.2,5.4,19.83,19.83,0,0,1-2.9,4.8,43.58,43.58,0,0,1-4.3,4.3,9.34,9.34,0,0,1-6,2.1,8.75,8.75,0,0,1-1.6-.2c-.5-.1-1.1-.3-1.5-.4a3.92,3.92,0,0,1-1.4-.8,11.32,11.32,0,0,1-1.3-1c-1.6-1.4-2.9-2.7-4.4-3.9a28.66,28.66,0,0,1-4.2-4.3,9.62,9.62,0,0,1,0-12,43.09,43.09,0,0,1,4.2-4.3,10,10,0,0,0,1.1-1,10,10,0,0,0,1.1-1l1.1-1.1a13.07,13.07,0,0,1,1.2-1.1,14.7,14.7,0,0,1,1.3-1,9.14,9.14,0,0,1,1.4-.7,4.71,4.71,0,0,1,1.6-.4,8.6,8.6,0,0,1,1.6-.1,10.89,10.89,0,0,1,6,2.1,34.35,34.35,0,0,1,4.3,4.2,15.8,15.8,0,0,1,2.9,4.8A26.3,26.3,0,0,1,1123,727.4Zm-2.7,0a15.36,15.36,0,0,0-.8-4.6,8.29,8.29,0,0,0-2.7-3.7,6.64,6.64,0,0,0-4.2-1.4c-1.4,0-2.8.2-4,.2a29.06,29.06,0,0,1-4-.3h-1.2c-.4.1-.7.2-1.2.3a9.25,9.25,0,0,1-1,.5l-.8.8a6.64,6.64,0,0,0-1.4,4.2c0,1.5.2,2.8.1,4s-.1,2.5-.1,4a6.64,6.64,0,0,0,1.4,4.2,4.86,4.86,0,0,0,4.1,1.7,5.28,5.28,0,0,0,1.2-.1c.4-.1.7-.1,1.1-.2a3.4,3.4,0,0,1,1-.1,1.7,1.7,0,0,1,1,0c1.3,0,2.5.1,4,.1a6.64,6.64,0,0,0,4.2-1.4,9.34,9.34,0,0,0,2.8-3.7A32.6,32.6,0,0,0,1120.3,727.4Z" transform="translate(0 -23.96)"/><path class="cls-2" d="M1130,616.9a12.53,12.53,0,0,1-1.2,5.4,17.55,17.55,0,0,1-2.9,4.7,27.76,27.76,0,0,1-4.2,4.2,9.94,9.94,0,0,1-6,2.1,8.75,8.75,0,0,1-1.6-.2c-.5-.1-1.1-.3-1.5-.4a3.92,3.92,0,0,1-1.4-.8,5.8,5.8,0,0,1-1.2-1c-1.6-1.3-2.9-2.7-4.4-3.9a34.47,34.47,0,0,1-4.2-4.3,9.94,9.94,0,0,1-2.1-6,10.17,10.17,0,0,1,2.1-6,42.87,42.87,0,0,1,4.2-4.3,14449347255142.74,14449347255142.74,0,0,0,2.2-2l1.1-1.1a13.07,13.07,0,0,1,1.2-1.1c.4-.4.8-.6,1.2-1a9.14,9.14,0,0,1,1.4-.7,4.8,4.8,0,0,1,1.5-.4,8.6,8.6,0,0,1,1.6-.1,10.89,10.89,0,0,1,6,2.1,27.76,27.76,0,0,1,4.2,4.2,20.51,20.51,0,0,1,2.9,4.7A19.56,19.56,0,0,1,1130,616.9Zm-2.6,0a14.23,14.23,0,0,0-.8-4.5,8.88,8.88,0,0,0-2.7-3.7,6.46,6.46,0,0,0-4.2-1.4c-1.4,0-2.8.2-3.9.2a30.23,30.23,0,0,1-4-.3h-1.2l-1.1.3a9.25,9.25,0,0,1-1,.5,5,5,0,0,1-.8.7,6.38,6.38,0,0,0-1.4,4.1c0,1.4.2,2.7.2,3.9s-.2,2.5-.2,3.9a6.19,6.19,0,0,0,1.4,4.1,4.78,4.78,0,0,0,4,1.7,4.1,4.1,0,0,0,1.1-.1c.4-.1.7-.1,1.1-.2a3.4,3.4,0,0,1,1-.1,1.38,1.38,0,0,1,.9,0c1.3,0,2.5.1,3.9.1a7.18,7.18,0,0,0,4.2-1.3,8.5,8.5,0,0,0,2.7-3.7A7.92,7.92,0,0,0,1127.4,616.9Z" transform="translate(0 -23.96)"/><path class="cls-2" d="M1364.8,682.7a7,7,0,0,0,3.5,1.9c1.3.4,3.4-.6,4.5.2a1.85,1.85,0,0,1,.7.8,5.64,5.64,0,0,1,.4,1.2c.3.9.6,1.5,1.3,1.7a3.31,3.31,0,0,0,2.2,0,2.47,2.47,0,0,1,2.1.2,3.39,3.39,0,0,1,1.2,1.8,4,4,0,0,0,1.2,2,1.49,1.49,0,0,0,.9.4,5,5,0,0,0,1.2-.2,2.4,2.4,0,0,1,2.2,0c1.2.6,1.3,2.9,2.3,3.7a6.92,6.92,0,0,0,3.3,2.1l-1.3,2.3a7.5,7.5,0,0,0-3.5-1.9c-1.3-.4-3.3.5-4.5-.2-.6-.3-.9-1-1.2-2-.1-.4-.3-.9-.4-1.2a1,1,0,0,0-.8-.6,4.09,4.09,0,0,0-2.2,0,2.47,2.47,0,0,1-2.1-.2,4.2,4.2,0,0,1-1.3-1.8,4,4,0,0,0-1.2-2,2.47,2.47,0,0,0-2.1-.2l-1.3.3a1.64,1.64,0,0,1-1-.2c-1.3-.5-1.3-2.9-2.3-3.7a6.92,6.92,0,0,0-3.3-2.1Z" transform="translate(0 -23.96)"/><path class="cls-2" d="M1322.5,751a6.83,6.83,0,0,0-3.1-2.3c-1.2-.6-3.5.2-4.4-.8a1.35,1.35,0,0,1-.5-.9c-.1-.4-.2-.8-.3-1.3a2.24,2.24,0,0,0-1-1.9,3.79,3.79,0,0,0-2.2-.4,3.28,3.28,0,0,1-2.1-.5,3.44,3.44,0,0,1-1-2,5.76,5.76,0,0,0-.8-2.1,1.09,1.09,0,0,0-.9-.4,4.82,4.82,0,0,0-1.2,0c-1,.2-1.8.1-2.2-.4-1.1-.8-.9-3.1-1.8-4.1a7.22,7.22,0,0,0-2.9-2.6l1.6-2.1a7.64,7.64,0,0,0,3.1,2.3c1.2.6,3.4,0,4.4.8a2.71,2.71,0,0,1,.8,2.1,4.22,4.22,0,0,0,.3,1.2,1.58,1.58,0,0,0,.7.7,3.79,3.79,0,0,0,2.2.4,3.28,3.28,0,0,1,2.1.5,3.44,3.44,0,0,1,1,2,5.76,5.76,0,0,0,.8,2.1,2.32,2.32,0,0,0,2.1.5c.4,0,.9-.1,1.3-.1a1.78,1.78,0,0,1,1,.4c1.2.7.9,3,1.8,4.1a7.22,7.22,0,0,0,2.9,2.6Z" transform="translate(0 -23.96)"/><path class="cls-2" d="M1356.6,666.2a20.81,20.81,0,0,0,2.3-6.9c.6-2.3-.4-5.4.5-7.6a4.69,4.69,0,0,1,1-1.6,9.27,9.27,0,0,1,1.4-1.4,6.16,6.16,0,0,0,2.1-3.1,9.66,9.66,0,0,0,.2-3.8,7.58,7.58,0,0,1,.4-3.7,9,9,0,0,1,2.1-3.1,12.65,12.65,0,0,0,2.3-3,6.46,6.46,0,0,0,.4-3.7,5.75,5.75,0,0,1,.2-3.7c.8-2.3,3.4-3.9,4.5-6.1a33.1,33.1,0,0,0,1.5-3.3,35.8,35.8,0,0,0,1.1-3.5l2.5.9a14.34,14.34,0,0,0-1.4,3.4c-.3,1.2-.7,2.3-.9,3.6-.6,2.3.4,5.3-.5,7.6a7.1,7.1,0,0,1-2.2,3,5.28,5.28,0,0,0-2.1,3.1,9.66,9.66,0,0,0-.2,3.8,7.58,7.58,0,0,1-.4,3.7,9,9,0,0,1-2.1,3.1,12.65,12.65,0,0,0-2.3,3,6.46,6.46,0,0,0-.4,3.7,13.55,13.55,0,0,1,.2,2,5.23,5.23,0,0,1-.3,1.8c-.7,2.3-3.4,3.9-4.5,6.1a23.36,23.36,0,0,0-2.6,6.8Z" transform="translate(0 -23.96)"/><path class="cls-2" d="M1441.3,639c-2.9-1.6-5.6-2.9-8.3-4.1a43.93,43.93,0,0,0-8.3-3.1c-1.4-.4-2.9-.6-4.4-1.1a33.49,33.49,0,0,1-4.6-1.8,19.22,19.22,0,0,1-4.2-2.8c-1.3-1.1-2.5-2.2-3.7-3.2l-2.8-2.1,2.6-1a20.06,20.06,0,0,0,7.4-5.1c1.1-1.1,2.1-2.2,3.2-3.3a19.35,19.35,0,0,1,3.6-2.8,25.24,25.24,0,0,1,4-2.1c1.4-.5,2.9-1.1,4.4-1.6a22.06,22.06,0,0,0,7.8-4.6l2-2,.9,3.5c.4,1.5,1,3.1,1.4,4.8a20.74,20.74,0,0,1,.6,5,25.22,25.22,0,0,1-.4,4.8c-.3,1.5-.6,3-.8,4.5a65.06,65.06,0,0,0-.6,8.8A73,73,0,0,0,1441.3,639Zm-1.4-2.2c-.1-2.7-.3-5.7-.5-8.7a74.39,74.39,0,0,0-1.4-9.1c-.4-1.5-.8-3.1-1.3-4.6a34.29,34.29,0,0,1-.8-4.2,9.08,9.08,0,0,1,.3-4c.3-1.3.7-2.8,1-4.2l2.9,1.5a21.28,21.28,0,0,0-7.5,5.1c-1.1,1.1-2.1,2.2-3.2,3.3a19.35,19.35,0,0,1-3.6,2.8,30.47,30.47,0,0,1-4,2.1c-1.4.5-2.9,1.1-4.4,1.6a23.66,23.66,0,0,0-7.8,4.6l-.2-3.2c1.4.4,2.9.6,4.2.9a11.81,11.81,0,0,1,3.7,1.4,18.23,18.23,0,0,1,3.5,2.4c1.2,1,2.3,2.1,3.6,3a61.26,61.26,0,0,0,7.7,5.2C1434.8,634.2,1437.4,635.6,1439.9,636.8Z" transform="translate(0 -23.96)"/><path class="cls-2" d="M1376.6,750.9c-.3-3.3-.6-6.2-1-9.2a43.62,43.62,0,0,0-1.9-8.7c-.4-1.4-1-2.8-1.4-4.3a35.6,35.6,0,0,1-1-4.7,20.91,20.91,0,0,1,0-5c.2-1.7.5-3.3.7-4.9l.4-3.5,2.2,1.6a21,21,0,0,0,8.3,3.5c1.5.4,3,.6,4.6,1a27.18,27.18,0,0,1,4.3,1.5,22.15,22.15,0,0,1,3.9,2.3c1.3.9,2.4,1.9,3.7,2.8a20.8,20.8,0,0,0,8,4l2.8.6-2.5,2.6c-1.1,1.2-2.1,2.5-3.3,3.7a22.26,22.26,0,0,1-3.8,3.2,25.49,25.49,0,0,1-4.3,2.3c-1.4.6-2.9,1.2-4.2,1.7a49.58,49.58,0,0,0-7.8,4.3C1381.8,747.3,1379.3,749,1376.6,750.9Zm1.2-2.4c2.2-1.5,4.6-3.3,7.1-5.2a64.91,64.91,0,0,0,7-6.2c1.1-1.2,2.1-2.4,3.1-3.5a27.42,27.42,0,0,1,3.1-2.9,13.3,13.3,0,0,1,3.5-2c1.2-.4,2.7-.9,4.1-1.4l.3,3.2a20.62,20.62,0,0,0-8.3-3.6c-1.5-.4-3-.6-4.6-1a31.21,31.21,0,0,1-4.3-1.5,19,19,0,0,1-3.9-2.3c-1.2-.9-2.4-1.9-3.7-2.8a20.8,20.8,0,0,0-8-4l2.6-1.9a37.13,37.13,0,0,0,1.5,4,18.32,18.32,0,0,1,.9,3.9,20,20,0,0,1-.2,4.2c-.2,1.5-.4,3-.6,4.6a58,58,0,0,0-.2,9.3A80.08,80.08,0,0,0,1377.8,748.5Z" transform="translate(0 -23.96)"/><path class="cls-2" d="M1423.7,660.9a17.4,17.4,0,0,1-1.5,7.1,24.6,24.6,0,0,1-3.8,6.2,27.88,27.88,0,0,1-5.6,5.2,13.76,13.76,0,0,1-7.7,2.4,16.46,16.46,0,0,1-2.1-.2,14.62,14.62,0,0,0-2-.5,16.32,16.32,0,0,1-1.9-.9c-.6-.4-1.2-.7-1.7-1.1-2.1-1.6-3.9-3.3-5.8-4.9a35.62,35.62,0,0,1-5.2-5.7,13,13,0,0,1-2.4-7.7,14,14,0,0,1,2.4-7.7,35.62,35.62,0,0,1,5.2-5.7,15.93,15.93,0,0,0,1.3-1.3,17.41,17.41,0,0,1,1.4-1.2c.4-.4,1-.8,1.4-1.2a17.38,17.38,0,0,0,1.5-1.3,9.91,9.91,0,0,1,1.7-1.1c.6-.3,1.3-.6,1.9-.9a11.7,11.7,0,0,1,2-.5c.7-.1,1.3-.1,2.1-.2a14.11,14.11,0,0,1,7.7,2.5,31.49,31.49,0,0,1,5.7,5.2,22,22,0,0,1,3.8,6.2A19.23,19.23,0,0,1,1423.7,660.9Zm-2.7,0a16.68,16.68,0,0,0-1.2-6.2,13.42,13.42,0,0,0-3.7-5.1,12.12,12.12,0,0,0-5.6-2.4,35.79,35.79,0,0,0-5.6-.2,5.65,5.65,0,0,1-1.3,0h-4.3c-.5.1-1,.1-1.5.2a8.8,8.8,0,0,0-1.5.5c-.4.3-.9.5-1.3.8s-.8.7-1.2,1.1a10.47,10.47,0,0,0-2.4,5.6,54.3,54.3,0,0,0-.2,5.6,53.34,53.34,0,0,0,.2,5.6,10.81,10.81,0,0,0,2.4,5.6,8.08,8.08,0,0,0,5.5,2.7c.5,0,1,.1,1.5.1h1.4a6.6,6.6,0,0,1,1.4-.1,5.65,5.65,0,0,1,1.3,0,35.68,35.68,0,0,0,5.6-.3,11.55,11.55,0,0,0,5.6-2.3,12.7,12.7,0,0,0,3.7-5.1A14.15,14.15,0,0,0,1421,660.9Z" transform="translate(0 -23.96)"/><path class="cls-2" d="M1249.7,753.8a11.67,11.67,0,0,1-1.2,5.2,20.25,20.25,0,0,1-2.8,4.6,30.75,30.75,0,0,1-4,4.1,10,10,0,0,1-5.7,2.1,6.8,6.8,0,0,1-1.5-.2c-.5-.1-1-.3-1.5-.4a8.26,8.26,0,0,1-1.3-.7l-1.2-.9c-1.5-1.3-2.8-2.6-4.1-3.8a30.21,30.21,0,0,1-4-4,10,10,0,0,1-2.1-5.7,9.09,9.09,0,0,1,2.1-5.7,30.17,30.17,0,0,1,4-4,9,9,0,0,0,1-.9,9.43,9.43,0,0,0,1-1,4.74,4.74,0,0,0,1-1l1.1-1.1c.4-.3.8-.6,1.3-1a8.26,8.26,0,0,1,1.3-.7,3.71,3.71,0,0,1,1.5-.4,8.08,8.08,0,0,1,1.5-.1,9.71,9.71,0,0,1,5.7,2.1,25.19,25.19,0,0,1,4,4,16.69,16.69,0,0,1,2.8,4.6A10.73,10.73,0,0,1,1249.7,753.8Zm-2.6,0a14.78,14.78,0,0,0-.7-4.2,7.26,7.26,0,0,0-2.6-3.4,6.31,6.31,0,0,0-3.9-1.3c-1.3,0-2.6.2-3.7.2a16.7,16.7,0,0,1-3.7-.4h-1.1a4.51,4.51,0,0,0-1.1.3l-1,.5a5,5,0,0,0-.8.7,5.2,5.2,0,0,0-1.2,3.9c0,1.4.2,2.6.2,3.7s-.2,2.3-.2,3.7a6.67,6.67,0,0,0,1.2,3.9,4.52,4.52,0,0,0,3.8,1.5c.4,0,.7-.1,1.1-.1s.6-.1,1-.2a3.08,3.08,0,0,1,.9-.1,1.39,1.39,0,0,1,.9,0c1.2,0,2.3.1,3.7.2a7.21,7.21,0,0,0,4-1.2,7.79,7.79,0,0,0,2.6-3.4A21.2,21.2,0,0,0,1247.1,753.8Z" transform="translate(0 -23.96)"/><path class="cls-2" d="M1244.1,659.8a7.07,7.07,0,0,0,1.2-3.7c.2-1.3-1.3-3.2-.6-4.4.1-.3.4-.5.6-.8a4.49,4.49,0,0,1,1.2-.6c.8-.4,1.4-.9,1.5-1.5a3.71,3.71,0,0,0-.4-2.2,3.17,3.17,0,0,1-.2-2.1,3.11,3.11,0,0,1,1.5-1.5,4.91,4.91,0,0,0,1.7-1.4,1.16,1.16,0,0,0,.2-1,2.84,2.84,0,0,0-.4-1.2c-.4-.9-.7-1.6-.4-2.2.4-1.3,2.7-1.8,3.3-2.9a7,7,0,0,0,1.4-3.7l2.5.9a8.23,8.23,0,0,0-1.3,3.7c-.3,1.3,1.1,3.2.6,4.4-.1.6-.8,1.1-1.7,1.4a10.91,10.91,0,0,0-1.1.6,1.09,1.09,0,0,0-.4.9,3.71,3.71,0,0,0,.4,2.2,3.17,3.17,0,0,1,.2,2.1,3.11,3.11,0,0,1-1.5,1.5,4.91,4.91,0,0,0-1.7,1.4,1.85,1.85,0,0,0,.2,2.1,2.84,2.84,0,0,1,.4,1.2,2.05,2.05,0,0,1,0,1.1c-.3,1.2-2.7,1.8-3.3,2.9a6.8,6.8,0,0,0-1.5,3.7Z" transform="translate(0 -23.96)"/><path class="cls-2" d="M1299.1,596.7a7.07,7.07,0,0,0,1.2-3.7c.2-1.3-1.2-3.2-.6-4.4.1-.3.4-.5.6-.8a4.49,4.49,0,0,1,1.2-.6c.8-.4,1.4-.9,1.5-1.5a3.71,3.71,0,0,0-.4-2.2,3.17,3.17,0,0,1-.2-2.1,3.11,3.11,0,0,1,1.5-1.5,4.91,4.91,0,0,0,1.7-1.4,1.16,1.16,0,0,0,.2-1,2.84,2.84,0,0,0-.4-1.2c-.4-.9-.7-1.6-.4-2.2.4-1.2,2.7-1.8,3.3-2.9a7,7,0,0,0,1.4-3.7l2.5.9a8.23,8.23,0,0,0-1.3,3.7c-.3,1.3,1.1,3.2.6,4.4-.1.6-.8,1.1-1.7,1.4a10.91,10.91,0,0,0-1.1.6,1.09,1.09,0,0,0-.4.9,3.71,3.71,0,0,0,.4,2.2,3.17,3.17,0,0,1,.2,2.1,3.11,3.11,0,0,1-1.5,1.5,4.91,4.91,0,0,0-1.7,1.4,1.85,1.85,0,0,0,.2,2.1,2.84,2.84,0,0,1,.4,1.2,2.05,2.05,0,0,1,0,1.1c-.3,1.3-2.7,1.8-3.3,2.9a6.8,6.8,0,0,0-1.5,3.7Z" transform="translate(0 -23.96)"/><path class="cls-2" d="M1270.8,745.6a7.07,7.07,0,0,0,1.2-3.7c.2-1.3-1.3-3.2-.6-4.4.1-.3.4-.5.6-.8a4.49,4.49,0,0,1,1.2-.6c.8-.4,1.4-.9,1.5-1.5a3.71,3.71,0,0,0-.4-2.2,3.17,3.17,0,0,1-.2-2.1,3.11,3.11,0,0,1,1.5-1.5,4.91,4.91,0,0,0,1.7-1.4,1.16,1.16,0,0,0,.2-1,2.84,2.84,0,0,0-.4-1.2c-.4-.9-.7-1.6-.4-2.2.4-1.3,2.7-1.8,3.3-2.9a7,7,0,0,0,1.4-3.7l2.5.9a8.23,8.23,0,0,0-1.3,3.7c-.3,1.3,1.1,3.2.6,4.4-.1.6-.8,1.1-1.7,1.4a10.91,10.91,0,0,0-1.1.6,1.09,1.09,0,0,0-.4.9,3.71,3.71,0,0,0,.4,2.2,3.17,3.17,0,0,1,.2,2.1,3.11,3.11,0,0,1-1.5,1.5,4.91,4.91,0,0,0-1.7,1.4,1.85,1.85,0,0,0,.2,2.1,2.84,2.84,0,0,1,.4,1.2,2.05,2.05,0,0,1,0,1.1c-.3,1.2-2.7,1.8-3.3,2.9a6.8,6.8,0,0,0-1.5,3.7Z" transform="translate(0 -23.96)"/><path class="cls-2" d="M1188.9,711.6a8,8,0,0,0,2.2,3.2c.9,1,3.3,1,3.8,2.1a1.69,1.69,0,0,1,.3,1,6.88,6.88,0,0,1-.2,1.3c-.2.9-.2,1.6.4,2.1a5.2,5.2,0,0,0,2.1,1.1,3.68,3.68,0,0,1,1.9,1.2,2.88,2.88,0,0,1,.3,2.1,4,4,0,0,0,.1,2.2,4.35,4.35,0,0,0,.6.7,2.78,2.78,0,0,0,1.2.4c.9.2,1.7.4,2,1.1.7,1.1-.2,3.2.4,4.5a7.34,7.34,0,0,0,2,3.4l-2.2,1.4a8,8,0,0,0-2.2-3.2c-.9-1-3.2-1.1-3.8-2.1a2.36,2.36,0,0,1-.1-2.2,6,6,0,0,0,.2-1.2,1.8,1.8,0,0,0-.4-.9,4.6,4.6,0,0,0-2.1-1.1,3.68,3.68,0,0,1-1.9-1.2,2.88,2.88,0,0,1-.3-2.1,4,4,0,0,0-.1-2.2,2.45,2.45,0,0,0-1.8-1.2,6.47,6.47,0,0,1-1.3-.4,2.76,2.76,0,0,1-.8-.6c-.8-1,.2-3.2-.4-4.5a7.34,7.34,0,0,0-2-3.4Z" transform="translate(0 -23.96)"/><path class="cls-2" d="M1298.8,702.7a13.43,13.43,0,0,0-4.3-3.2c-1.6-.9-4.2-.4-5.5-1.7a2.26,2.26,0,0,1-.8-1.1,6.61,6.61,0,0,1-.5-1.5,3.83,3.83,0,0,0-1.6-2.4,7.66,7.66,0,0,0-2.9-.8,4.65,4.65,0,0,1-2.7-1,4.52,4.52,0,0,1-1.5-2.4,6.47,6.47,0,0,0-1.4-2.6,2.92,2.92,0,0,0-1.2-.7,3.64,3.64,0,0,0-1.5-.2,4.07,4.07,0,0,1-2.8-.8c-1.4-1.1-1.7-3.7-2.9-5a13.66,13.66,0,0,0-4.1-3.5l1.6-2.1a13.43,13.43,0,0,0,4.3,3.2c1.5,1,4.1.6,5.5,1.7a3.34,3.34,0,0,1,1.4,2.6,10.87,10.87,0,0,0,.5,1.4,3.18,3.18,0,0,0,1,1,7.66,7.66,0,0,0,2.9.8,4.65,4.65,0,0,1,2.7,1,4.52,4.52,0,0,1,1.5,2.4,6.47,6.47,0,0,0,1.4,2.6,3.7,3.7,0,0,0,2.7,1c.5.1,1.1.1,1.6.2a5,5,0,0,1,1.3.5c1.5,1,1.7,3.7,2.9,5a13.66,13.66,0,0,0,4.1,3.5Z" transform="translate(0 -23.96)"/><path class="cls-2" d="M1296,632.6a16,16,0,0,0-4.6-4c-1.7-1.3-4.6-1.1-6-2.6a4.7,4.7,0,0,1-.9-1.2,4.8,4.8,0,0,1-.5-1.7,5.33,5.33,0,0,0-1.7-2.8,9.09,9.09,0,0,0-3-1.3,6.56,6.56,0,0,1-2.9-1.4,6.45,6.45,0,0,1-1.6-2.8,8.86,8.86,0,0,0-1.5-2.9,4,4,0,0,0-2.9-1.3,5.45,5.45,0,0,1-3-1.2c-1.5-1.3-1.8-4.2-3.1-5.7a20.46,20.46,0,0,0-4.5-4.3l1.8-2a19.91,19.91,0,0,0,4.6,4.1c1.7,1.2,4.5,1.2,6,2.6a4.53,4.53,0,0,1,1.5,2.9,4.55,4.55,0,0,0,1.6,2.8,9.09,9.09,0,0,0,3,1.3,6.56,6.56,0,0,1,2.9,1.4,5.6,5.6,0,0,1,1.6,2.8,8.86,8.86,0,0,0,1.5,2.9,4.7,4.7,0,0,0,2.9,1.4c.5.1,1.2.3,1.7.4a2.87,2.87,0,0,1,1.3.8c1.6,1.2,1.8,4.1,3.1,5.7a18.4,18.4,0,0,0,4.5,4.3Z" transform="translate(0 -23.96)"/><path class="cls-2" d="M1316,674a70.92,70.92,0,0,0-.9-8.2l-.6-3.9c-.3-1.3-.5-2.6-.9-3.8-.8-2.4-2-5-2.4-7.9a16,16,0,0,1-.3-4.4c.1-1.5.4-2.9.6-4.4l.8-4.9,2.5,2.8a18,18,0,0,0,7.8,4.8c1.5.4,3,.9,4.6,1.3a14.6,14.6,0,0,1,4.2,1.9,20,20,0,0,1,3.7,2.8c1.2,1.1,2.2,2.2,3.4,3.2a18.36,18.36,0,0,0,3.7,2.7,20.92,20.92,0,0,0,4.4,1.6l3.7.8-3.8,3.3a23.87,23.87,0,0,1-3.5,2.8,23.3,23.3,0,0,1-3.9,1.9c-2.8,1-5.5,1.2-8,1.8a16,16,0,0,0-3.7,1.2c-1.2.4-2.5.9-3.7,1.4A56.92,56.92,0,0,0,1316,674Zm1.3-2.2c2.2-.9,4.6-2.1,6.9-3.3a31.22,31.22,0,0,0,3.5-2,22.46,22.46,0,0,0,3.5-2.2c2.3-1.6,4.3-3.6,6.4-4.8a11.15,11.15,0,0,1,3.2-1.4,36.89,36.89,0,0,1,3.7-.5l-.2,4.1a14.75,14.75,0,0,0-3.6-3,20,20,0,0,0-4.2-1.9c-1.5-.4-3-.9-4.6-1.3a15.93,15.93,0,0,1-4.2-1.9,20,20,0,0,1-3.7-2.8c-1.2-1.1-2.2-2.2-3.4-3.2a16.81,16.81,0,0,0-8.1-4.3l3.4-2.1a24.81,24.81,0,0,1,1.3,3.5,10.48,10.48,0,0,1,.4,3.5c.1,2.4-.6,5.1-1,7.9a28.84,28.84,0,0,0-.2,4.1c0,1.3,0,2.7.1,4C1316.8,666.8,1317,669.3,1317.3,671.8Z" transform="translate(0 -23.96)"/><path class="cls-2" d="M1247.9,724.1c-2.9-1.6-5.6-2.9-8.3-4.1a43.93,43.93,0,0,0-8.3-3.1c-1.4-.4-2.9-.6-4.4-1.1a24.23,24.23,0,0,1-4.6-1.8,19.22,19.22,0,0,1-4.2-2.8c-1.3-1.1-2.5-2.2-3.7-3.2l-2.8-2.1,2.6-1a20.06,20.06,0,0,0,7.4-5.1c1.1-1.1,2.1-2.2,3.2-3.3a19.35,19.35,0,0,1,3.6-2.8,30.47,30.47,0,0,1,4-2.1c1.4-.6,2.9-1.1,4.4-1.6a22.06,22.06,0,0,0,7.8-4.6l2-2,.9,3.5c.4,1.5,1,3.1,1.4,4.8a20.74,20.74,0,0,1,.6,5,25.22,25.22,0,0,1-.4,4.8c-.3,1.5-.6,3-.8,4.5a65.06,65.06,0,0,0-.6,8.8C1247.7,717.8,1247.7,720.9,1247.9,724.1Zm-1.4-2.3c-.1-2.7-.3-5.7-.5-8.7a74.39,74.39,0,0,0-1.4-9.1c-.4-1.5-.8-3.1-1.3-4.6a34.29,34.29,0,0,1-.8-4.2,9.08,9.08,0,0,1,.3-4c.3-1.3.7-2.8,1-4.2l2.9,1.5a21.28,21.28,0,0,0-7.5,5.1c-1.1,1.1-2.1,2.2-3.2,3.3a19.35,19.35,0,0,1-3.6,2.8,30.47,30.47,0,0,1-4,2.1c-1.4.5-2.9,1.1-4.4,1.6a23.66,23.66,0,0,0-7.8,4.6l-.2-3.2c1.4.4,2.9.6,4.2.9a11.81,11.81,0,0,1,3.7,1.4,18.23,18.23,0,0,1,3.5,2.4c1.2,1,2.3,2.1,3.6,3a61.26,61.26,0,0,0,7.7,5.2C1241.5,719.3,1244.1,720.7,1246.5,721.8Z" transform="translate(0 -23.96)"/><path class="cls-2" d="M1351.1,712.5a12.53,12.53,0,0,1-1.2,5.4,19.83,19.83,0,0,1-2.9,4.8,34.87,34.87,0,0,1-4.3,4.3,9.34,9.34,0,0,1-6,2.1,8.75,8.75,0,0,1-1.6-.2c-.5-.1-1.1-.3-1.5-.4a3.92,3.92,0,0,1-1.4-.8,11.32,11.32,0,0,1-1.3-1c-1.6-1.4-2.9-2.7-4.4-3.9a28.66,28.66,0,0,1-4.2-4.3,9.62,9.62,0,0,1,0-12,43.09,43.09,0,0,1,4.2-4.3,14449347255145.29,14449347255145.29,0,0,1,2.2-2l1.1-1.1a13.07,13.07,0,0,1,1.2-1.1,14.7,14.7,0,0,1,1.3-1,9.14,9.14,0,0,1,1.4-.7,4.71,4.71,0,0,1,1.6-.4,8.6,8.6,0,0,1,1.6-.1,10.89,10.89,0,0,1,6,2.1,28.57,28.57,0,0,1,4.3,4.2,17.1,17.1,0,0,1,2.9,4.8A19.88,19.88,0,0,1,1351.1,712.5Zm-2.7,0a15.36,15.36,0,0,0-.8-4.6,8.29,8.29,0,0,0-2.7-3.7,6.64,6.64,0,0,0-4.2-1.4c-1.4,0-2.8.2-4,.2a29.06,29.06,0,0,1-4-.3h-1.2c-.4.1-.7.2-1.2.3a9.25,9.25,0,0,1-1,.5l-.8.8a6.64,6.64,0,0,0-1.4,4.2c0,1.5.2,2.8.1,4s-.1,2.5-.1,4a6.64,6.64,0,0,0,1.4,4.2,4.86,4.86,0,0,0,4.1,1.7,5.28,5.28,0,0,0,1.2-.1c.4-.1.7-.1,1.1-.2a3.4,3.4,0,0,1,1-.1,1.7,1.7,0,0,1,1,0c1.3,0,2.5.1,4,.1a6.64,6.64,0,0,0,4.2-1.4,9.34,9.34,0,0,0,2.8-3.7A23,23,0,0,0,1348.4,712.5Z" transform="translate(0 -23.96)"/><path class="cls-2" d="M1358.2,601.9a12.53,12.53,0,0,1-1.2,5.4,17.55,17.55,0,0,1-2.9,4.7,33.3,33.3,0,0,1-4.2,4.2,9.94,9.94,0,0,1-6,2.1,8.75,8.75,0,0,1-1.6-.2c-.5-.1-1.1-.3-1.5-.4a3.92,3.92,0,0,1-1.4-.8,5.8,5.8,0,0,1-1.2-1c-1.6-1.3-2.9-2.7-4.4-3.9a43.09,43.09,0,0,1-4.2-4.3,9.62,9.62,0,0,1,0-12,42.87,42.87,0,0,1,4.2-4.3,14449347255144.29,14449347255144.29,0,0,0,2.2-2l1.1-1.1a13.07,13.07,0,0,1,1.2-1.1,12.7,12.7,0,0,0,1.2-1,9.14,9.14,0,0,1,1.4-.7,4.8,4.8,0,0,1,1.5-.4,8.6,8.6,0,0,1,1.6-.1,10.89,10.89,0,0,1,6,2.1,23.83,23.83,0,0,1,4.2,4.2,20.51,20.51,0,0,1,2.9,4.7A23.25,23.25,0,0,1,1358.2,601.9Zm-2.7,0a14.23,14.23,0,0,0-.8-4.5,8.88,8.88,0,0,0-2.7-3.7,6.46,6.46,0,0,0-4.2-1.4c-1.4,0-2.8.2-3.9.2a30.23,30.23,0,0,1-4-.3h-1.2l-1.1.3a9.25,9.25,0,0,1-1,.5,5,5,0,0,1-.8.7,6.38,6.38,0,0,0-1.4,4.1c0,1.4.2,2.7.2,3.9s-.2,2.5-.2,3.9a6.19,6.19,0,0,0,1.4,4.1,4.78,4.78,0,0,0,4,1.7,4.1,4.1,0,0,0,1.1-.1c.4-.1.7-.1,1.1-.2a3.4,3.4,0,0,1,1-.1,1.38,1.38,0,0,1,.9,0c1.3,0,2.5.1,3.9.1a7.18,7.18,0,0,0,4.2-1.3,8.5,8.5,0,0,0,2.7-3.7A7.92,7.92,0,0,0,1355.5,601.9Z" transform="translate(0 -23.96)"/><path class="cls-2" d="M1455.5,668.4c3,1.3,5.8,2.4,8.7,3.4a45.13,45.13,0,0,0,8.5,2.4c1.4.3,2.9.4,4.5.7a24.17,24.17,0,0,1,4.6,1.3,24.61,24.61,0,0,1,4.5,2.4c1.5,1,2.7,2.1,4,2.9l2.9,2-2.5,1.2a20.25,20.25,0,0,0-7,5.7c-1,1.2-2,2.4-2.9,3.6a18.66,18.66,0,0,1-3.3,3,30.3,30.3,0,0,1-3.8,2.4c-1.3.7-2.8,1.3-4.2,2a19.38,19.38,0,0,0-7.3,5.3l-1.8,2.1-1.2-3.4c-.5-1.5-1.3-3-1.8-4.6a28.77,28.77,0,0,1-1.1-4.9,19.27,19.27,0,0,1,0-4.8c.1-1.5.4-3,.4-4.5a51.73,51.73,0,0,0-.1-8.8C1456.3,674.6,1455.9,671.6,1455.5,668.4Zm1.6,2.1q.45,4.05,1.2,8.7a64.53,64.53,0,0,0,2.1,9c.5,1.5,1.1,3,1.6,4.5a37.13,37.13,0,0,1,1.2,4.1,10.77,10.77,0,0,1,.1,4c-.2,1.3-.5,2.8-.6,4.3l-3-1.2a21.25,21.25,0,0,0,7.1-5.6c1-1.2,2-2.4,2.9-3.6a18.66,18.66,0,0,1,3.3-3,30.3,30.3,0,0,1,3.8-2.4c1.3-.7,2.8-1.2,4.2-2a20.28,20.28,0,0,0,7.3-5.2l.4,3.1a31.48,31.48,0,0,0-4.3-.5,11.94,11.94,0,0,1-3.8-1.1,17.39,17.39,0,0,1-3.7-2.1c-1.3-.9-2.5-1.9-3.8-2.8a66.58,66.58,0,0,0-8.1-4.6A67.52,67.52,0,0,0,1457.1,670.5Z" transform="translate(0 -23.96)"/><path class="cls-2" d="M1471.2,645.1a17.66,17.66,0,0,1,.9-7.2,26.53,26.53,0,0,1,3.3-6.5,30.35,30.35,0,0,1,5.2-5.6,12.79,12.79,0,0,1,7.5-3h2.1c.7.1,1.3.3,2.1.4a14.58,14.58,0,0,1,1.9.7,16.18,16.18,0,0,1,1.8,1c2.2,1.4,4.2,2.9,6.2,4.4a27.85,27.85,0,0,1,5.6,5.3,13.59,13.59,0,0,1,3.1,7.4,12.86,12.86,0,0,1-1.8,7.9,36.08,36.08,0,0,1-4.6,6.1l-1.3,1.3a14.2,14.2,0,0,0-1.2,1.3l-1.3,1.3a17.88,17.88,0,0,1-1.4,1.3l-1.6,1.3a10.42,10.42,0,0,1-1.8,1,9.33,9.33,0,0,1-2,.7,6.65,6.65,0,0,1-2.1.3,13.65,13.65,0,0,1-7.9-1.9,31.47,31.47,0,0,1-6.1-4.6,23.3,23.3,0,0,1-4.4-5.9A15.57,15.57,0,0,1,1471.2,645.1Zm2.6-.2a16.37,16.37,0,0,0,1.7,6.1,11.7,11.7,0,0,0,4.1,4.7,10.94,10.94,0,0,0,5.8,2,48.56,48.56,0,0,0,5.6-.3,5.85,5.85,0,0,1,1.3-.2,6.15,6.15,0,0,1,1.4-.1,6.6,6.6,0,0,1,1.4-.1,7.72,7.72,0,0,0,1.5-.2,8.33,8.33,0,0,0,1.5-.4c.5-.2,1-.4,1.4-.6s.9-.6,1.3-.9.7-.8,1.1-1.2a9.39,9.39,0,0,0,1.9-5.8,33.23,33.23,0,0,0-.3-5.6c-.2-1.8-.3-3.7-.7-5.6a9.92,9.92,0,0,0-2.9-5.4,7.81,7.81,0,0,0-5.7-2.1,7.57,7.57,0,0,0-1.5.1c-.5.1-1,.1-1.4.2s-.9.1-1.4.2a5.7,5.7,0,0,1-1.3.1c-1.8.2-3.7.3-5.6.7a10.45,10.45,0,0,0-5.4,2.8,11.82,11.82,0,0,0-3.2,5.4A16.2,16.2,0,0,0,1473.8,644.9Z" transform="translate(0 -23.96)"/><path class="cls-2" d="M1636.7,537.9a13.61,13.61,0,0,1,.7-5.3,14,14,0,0,1,2.4-4.7,28.81,28.81,0,0,1,3.7-4.4,9.61,9.61,0,0,1,5.5-2.5h1.5a8.33,8.33,0,0,1,1.5.4c.5.2,1,.4,1.4.6a9.13,9.13,0,0,1,1.3.8c1.6,1.2,2.9,2.4,4.5,3.5a45.52,45.52,0,0,1,4.4,3.7,9,9,0,0,1,2.5,5.5,8.83,8.83,0,0,1-1.6,5.9,57,57,0,0,1-3.7,4.4,10709709238650,10709709238650,0,0,1-1.8,2,8.7,8.7,0,0,0-.9,1.1c-.4.4-.6.7-1,1.1a13.07,13.07,0,0,1-1.2,1.1,9.13,9.13,0,0,1-1.3.8,7.84,7.84,0,0,1-1.4.5l-1.5.3a9.42,9.42,0,0,1-5.9-1.6,26.9,26.9,0,0,1-4.4-3.7,18,18,0,0,1-3.1-4.3A13.69,13.69,0,0,1,1636.7,537.9Zm2.7-.2a10.49,10.49,0,0,0,1.1,4.2,7.43,7.43,0,0,0,2.9,3.2,6.48,6.48,0,0,0,4,1c1.3-.1,2.5-.4,3.7-.5a22.82,22.82,0,0,1,3.7,0c.4,0,.7-.1,1.1-.1a4.87,4.87,0,0,0,1.1-.4,9,9,0,0,1,.9-.5,5,5,0,0,0,.7-.8,5.88,5.88,0,0,0,1-4c-.2-1.3-.4-2.5-.5-3.7s0-2.3-.1-3.7a5.46,5.46,0,0,0-1.6-3.8,4.63,4.63,0,0,0-3.9-1.2c-.4.1-.7.1-1.1.2s-.6.2-1,.3a2.92,2.92,0,0,1-.9.2,2.48,2.48,0,0,1-.9.1c-1.2.1-2.3.1-3.7.2a5.29,5.29,0,0,0-3.8,1.6,6.73,6.73,0,0,0-2.2,3.7A7.53,7.53,0,0,0,1639.4,537.7Z" transform="translate(0 -23.96)"/><path class="cls-2" d="M1650.2,631.1a7.35,7.35,0,0,0-.9,3.8c-.1,1.3,1.5,3.1,1,4.4a1.8,1.8,0,0,1-.6.9,10.54,10.54,0,0,1-1.1.7,2,2,0,0,0-1.3,1.7,5.21,5.21,0,0,0,.6,2.2,3.41,3.41,0,0,1,.4,2.1,3.05,3.05,0,0,1-1.4,1.6,4.09,4.09,0,0,0-1.6,1.6,1.64,1.64,0,0,0-.1,1,10.41,10.41,0,0,0,.5,1.2c.5.8.8,1.6.5,2.1-.4,1.2-2.5,2.1-3,3.2a8.49,8.49,0,0,0-1.2,3.7l-2.6-.7a7.35,7.35,0,0,0,.9-3.8c.1-1.3-1.3-3-1-4.4a2.5,2.5,0,0,1,1.6-1.6,10.54,10.54,0,0,0,1.1-.7,1.09,1.09,0,0,0,.4-.9,5.21,5.21,0,0,0-.6-2.2,3.41,3.41,0,0,1-.4-2.1,3.05,3.05,0,0,1,1.4-1.6,4.09,4.09,0,0,0,1.6-1.6,2.15,2.15,0,0,0-.4-2.1,6.12,6.12,0,0,1-.5-1.2,2.08,2.08,0,0,1-.1-1.1c.2-1.3,2.5-2.1,3-3.2a7.37,7.37,0,0,0,1.2-3.7Z" transform="translate(0 -23.96)"/><path class="cls-2" d="M1616.4,547.9a7.35,7.35,0,0,0-.9,3.8c-.1,1.3,1.5,3.1,1,4.4a1.8,1.8,0,0,1-.6.9,10.54,10.54,0,0,1-1.1.7,2,2,0,0,0-1.3,1.7,5.21,5.21,0,0,0,.6,2.2,3.41,3.41,0,0,1,.4,2.1,3.05,3.05,0,0,1-1.4,1.6,4.09,4.09,0,0,0-1.6,1.6,1.64,1.64,0,0,0-.1,1,10.41,10.41,0,0,0,.5,1.2c.5.8.8,1.6.5,2.1-.4,1.2-2.5,2.1-3,3.2a8.49,8.49,0,0,0-1.2,3.7l-2.6-.7a7.35,7.35,0,0,0,.9-3.8c.1-1.3-1.3-3-1-4.4a2.5,2.5,0,0,1,1.6-1.6,10.54,10.54,0,0,0,1.1-.7,1.09,1.09,0,0,0,.4-.9,5.21,5.21,0,0,0-.6-2.2,3.41,3.41,0,0,1-.4-2.1,3.05,3.05,0,0,1,1.4-1.6,4.09,4.09,0,0,0,1.6-1.6,2.15,2.15,0,0,0-.4-2.1,6.12,6.12,0,0,1-.5-1.2,2.08,2.08,0,0,1-.1-1.1c.2-1.3,2.5-2.1,3-3.2a7.37,7.37,0,0,0,1.2-3.7Z" transform="translate(0 -23.96)"/><path class="cls-2" d="M1700.8,575a6.55,6.55,0,0,0-2.5-3c-1-.9-3.4-.7-4-1.9a3,3,0,0,1-.4-1,4.48,4.48,0,0,1,.1-1.2,2.77,2.77,0,0,0-.4-2.1,4.07,4.07,0,0,0-2.1-.9,3.48,3.48,0,0,1-2-1,2.47,2.47,0,0,1-.4-2.1c0-.8.1-1.7-.3-2.2a2.34,2.34,0,0,0-.7-.7,2.66,2.66,0,0,0-1.2-.3c-1-.1-1.8-.3-2.1-.9-.8-1.1-.1-3.2-.7-4.4a8,8,0,0,0-2.2-3.2l2.1-1.6a6.55,6.55,0,0,0,2.5,3c1,.9,3.3.8,4,1.9.4.4.4,1.2.3,2.2a2.43,2.43,0,0,0,0,1.2c.1.3.3.6.4.9a5.12,5.12,0,0,0,2.1.9,3.48,3.48,0,0,1,2,1,2.77,2.77,0,0,1,.4,2.1c0,.8-.1,1.7.3,2.2a2.58,2.58,0,0,0,1.9,1.1l1.3.3c.4.1.6.4.9.5.9,1,.1,3.2.7,4.4a8,8,0,0,0,2.2,3.2Z" transform="translate(0 -23.96)"/><path class="cls-2" d="M1592.1,593a15.61,15.61,0,0,0,4.6,2.9c1.6.8,4.3.1,5.6,1.3a2.44,2.44,0,0,1,.9,1.1,8.43,8.43,0,0,1,.6,1.4,3.42,3.42,0,0,0,1.8,2.2,6.55,6.55,0,0,0,2.9.5,4.32,4.32,0,0,1,4.5,2.9,5.34,5.34,0,0,0,1.6,2.4,2.62,2.62,0,0,0,1.3.6,7.59,7.59,0,0,0,1.6.1,3.94,3.94,0,0,1,2.9.6c1.5,1,2,3.6,3.3,4.7a12.94,12.94,0,0,0,4.5,3.1l-1.4,2.2a15.61,15.61,0,0,0-4.6-2.9c-1.6-.8-4.2-.3-5.6-1.2a3.58,3.58,0,0,1-1.6-2.4,4.58,4.58,0,0,0-.7-1.4,3.33,3.33,0,0,0-1.1-.9,6.55,6.55,0,0,0-2.9-.5,4.86,4.86,0,0,1-2.8-.7,5.61,5.61,0,0,1-1.7-2.2,5.34,5.34,0,0,0-1.6-2.4,4.07,4.07,0,0,0-2.8-.8h-1.6a5,5,0,0,1-1.3-.4c-1.6-.9-2-3.6-3.3-4.7a13.53,13.53,0,0,0-4.4-3.1Z" transform="translate(0 -23.96)"/><path class="cls-2" d="M1600.7,662.6a16.69,16.69,0,0,0,5,3.7c1.8,1.1,4.6.7,6.2,2.1a4.49,4.49,0,0,1,1,1.3c.3.4.4,1.1.7,1.6a4.37,4.37,0,0,0,1.9,2.6,10.25,10.25,0,0,0,3.1,1,5.78,5.78,0,0,1,3,1.2,6.52,6.52,0,0,1,1.9,2.6,6.78,6.78,0,0,0,1.8,2.8,4.81,4.81,0,0,0,3,1.2,5,5,0,0,1,3.1,1c1.6,1.2,2.1,4,3.6,5.4a16.15,16.15,0,0,0,4.8,3.8l-1.6,2.1a18.57,18.57,0,0,0-5-3.7c-1.8-1.1-4.6-.8-6.2-2.1-.9-.5-1.3-1.6-1.8-2.8a5,5,0,0,0-1.9-2.7,10.25,10.25,0,0,0-3.1-1,5.78,5.78,0,0,1-3-1.2,7.31,7.31,0,0,1-1.9-2.6,6.78,6.78,0,0,0-1.8-2.8,4.77,4.77,0,0,0-2.9-1.2,8.58,8.58,0,0,1-1.7-.3,6.11,6.11,0,0,1-1.4-.7c-1.7-1.2-2.1-4-3.6-5.4a18.26,18.26,0,0,0-4.8-3.9Z" transform="translate(0 -23.96)"/><path class="cls-2" d="M1577.3,623c.4,2.9,1,5.5,1.5,8.1.3,1.2.6,2.6,1,3.8s.7,2.5,1.2,3.7c1,2.4,2.4,4.8,3,7.7a16.11,16.11,0,0,1,.6,4.4c0,1.5-.2,3-.3,4.5l-.4,5-2.8-2.6a18,18,0,0,0-8.1-4.2c-1.5-.4-3.1-.6-4.6-1a25.42,25.42,0,0,1-4.4-1.5,17.85,17.85,0,0,1-3.9-2.4c-1.3-1-2.4-2-3.7-2.9a26.48,26.48,0,0,0-3.9-2.3,16.58,16.58,0,0,0-4.5-1.2l-3.7-.4,3.6-3.7a30,30,0,0,1,3.2-3,24,24,0,0,1,3.7-2.2,71.3,71.3,0,0,1,7.9-2.5c1.3-.4,2.4-.9,3.7-1.4s2.4-1.1,3.6-1.7C1572.5,625.8,1574.8,624.5,1577.3,623Zm-1,2.4c-2.1,1.1-4.4,2.5-6.6,3.8-1.1.7-2.2,1.4-3.3,2.2a18.5,18.5,0,0,0-3.2,2.5c-2.1,1.8-4,3.9-6,5.4a13.45,13.45,0,0,1-3.1,1.7c-1.2.4-2.4.6-3.7.9l-.2-4.1a15.18,15.18,0,0,0,3.7,2.7,16.34,16.34,0,0,0,4.4,1.5c1.5.4,3.1.6,4.6,1a25.42,25.42,0,0,1,4.4,1.5,17.85,17.85,0,0,1,3.9,2.4,33.66,33.66,0,0,0,3.7,2.9,18.72,18.72,0,0,0,8.4,3.7l-3.2,2.4a17.38,17.38,0,0,1-1.6-3.4,12.8,12.8,0,0,1-.8-3.5c-.3-2.3.3-5.2.3-8a18.5,18.5,0,0,0-.2-4.1c-.1-1.3-.3-2.7-.4-4C1577.2,630.3,1576.7,627.7,1576.3,625.4Z" transform="translate(0 -23.96)"/><path class="cls-2" d="M1641,567.4c3,1.3,5.8,2.4,8.7,3.4a45.13,45.13,0,0,0,8.5,2.4c1.4.3,2.9.4,4.5.7a26.43,26.43,0,0,1,4.6,1.3,24.61,24.61,0,0,1,4.5,2.4c1.4,1,2.7,2.1,4,2.9l2.9,2-2.5,1.2a20.25,20.25,0,0,0-7,5.7c-1,1.2-2,2.4-2.9,3.6a18.66,18.66,0,0,1-3.3,3,30.3,30.3,0,0,1-3.8,2.4c-1.3.7-2.8,1.2-4.2,2a19.38,19.38,0,0,0-7.3,5.3l-1.8,2.1-1.2-3.4c-.5-1.5-1.3-3-1.8-4.6a28.77,28.77,0,0,1-1.1-4.9,19.27,19.27,0,0,1,0-4.8c.1-1.5.4-3,.4-4.5a51.73,51.73,0,0,0-.1-8.8C1641.8,573.6,1641.4,570.7,1641,567.4Zm1.6,2.1c.3,2.7.7,5.6,1.3,8.7a64.53,64.53,0,0,0,2.1,9c.5,1.5,1.1,3,1.6,4.5a37.13,37.13,0,0,1,1.2,4.1,10.77,10.77,0,0,1,.1,4c-.2,1.3-.5,2.8-.6,4.3l-3-1.2a21.16,21.16,0,0,0,7-5.6c1-1.2,2-2.4,2.9-3.6a18.66,18.66,0,0,1,3.3-3,30.3,30.3,0,0,1,3.8-2.4c1.3-.7,2.8-1.2,4.2-2a19.15,19.15,0,0,0,7.3-5.2l.4,3.1a31.48,31.48,0,0,0-4.3-.5,11.94,11.94,0,0,1-3.8-1.1,17.39,17.39,0,0,1-3.7-2.1c-1.3-.9-2.5-1.9-3.8-2.8a66.58,66.58,0,0,0-8.1-4.6C1647.9,571.8,1645.1,570.5,1642.6,569.5Z" transform="translate(0 -23.96)"/><path class="cls-2" d="M1853.4,549.4a7.82,7.82,0,0,0,1.8-3.5c.4-1.3-.7-3.3.1-4.5a2.34,2.34,0,0,1,.7-.7c.3-.2.8-.3,1.2-.5.9-.3,1.5-.7,1.7-1.3a5.41,5.41,0,0,0,0-2.2,2.7,2.7,0,0,1,.2-2.2,3.15,3.15,0,0,1,1.8-1.3,4.85,4.85,0,0,0,2-1.2,3.55,3.55,0,0,0,.4-.9,2.54,2.54,0,0,0-.2-1.2c-.3-.9-.4-1.8,0-2.2.6-1.1,2.9-1.4,3.7-2.4a7.34,7.34,0,0,0,2-3.4l2.3,1.2a7.82,7.82,0,0,0-1.8,3.5c-.4,1.3.5,3.3-.1,4.5a2.17,2.17,0,0,1-1.9,1.1,4.33,4.33,0,0,0-1.2.5,2.7,2.7,0,0,0-.7.8,5.41,5.41,0,0,0,0,2.2,2.7,2.7,0,0,1-.2,2.2,3.15,3.15,0,0,1-1.8,1.3,4.85,4.85,0,0,0-2,1.2,2.65,2.65,0,0,0-.2,2.2,7,7,0,0,1,.3,1.2,1.64,1.64,0,0,1-.2,1c-.5,1.2-2.9,1.4-3.7,2.4a7.34,7.34,0,0,0-2,3.4Z" transform="translate(0 -23.96)"/><path class="cls-2" d="M1863.1,567.4a28.54,28.54,0,0,0,7.2,1.2c2.4.2,5.2-1.3,7.6-.7a4.49,4.49,0,0,1,1.8.7c.6.3,1.1.8,1.6,1.1a6.09,6.09,0,0,0,3.4,1.5,8.52,8.52,0,0,0,3.8-.5,7.87,7.87,0,0,1,3.7-.2,8.14,8.14,0,0,1,3.4,1.6,12.39,12.39,0,0,0,3.4,1.8,6,6,0,0,0,3.7-.3,5.43,5.43,0,0,1,3.7-.4c2.4.4,4.4,2.7,6.7,3.4,1.2.3,2.3.7,3.5,1a22.26,22.26,0,0,0,3.6.5l-.5,2.6a21.07,21.07,0,0,0-3.6-.9c-1.2-.2-2.4-.2-3.6-.3-2.4-.2-5.2,1.2-7.6.7a6.67,6.67,0,0,1-3.4-1.8,6.27,6.27,0,0,0-3.4-1.6,8.52,8.52,0,0,0-3.8.5,7.87,7.87,0,0,1-3.7.2,8.14,8.14,0,0,1-3.4-1.6,12.39,12.39,0,0,0-3.4-1.8,6.72,6.72,0,0,0-3.7.2c-.6.1-1.3.4-1.9.5a6,6,0,0,1-1.9,0c-2.4-.2-4.4-2.7-6.7-3.4a25,25,0,0,0-7.1-1.5Z" transform="translate(0 -23.96)"/><path class="cls-2" d="M1888.8,624.5a18,18,0,0,1-7.3-.3,28.38,28.38,0,0,1-6.8-2.7,29.58,29.58,0,0,1-6-4.7,13.86,13.86,0,0,1-3.7-7.2c-.1-.7-.1-1.3-.2-2s.2-1.4.2-2.1a6,6,0,0,1,.6-1.9c.2-.6.5-1.2.8-1.9,1.2-2.3,2.6-4.4,3.8-6.5a26.94,26.94,0,0,1,4.8-6,14,14,0,0,1,7.1-3.7,13.67,13.67,0,0,1,8,1.1,36.94,36.94,0,0,1,6.4,4.1c.5.4,1,.8,1.4,1.1s1,.8,1.4,1.1a350.34,350.34,0,0,1,2.9,2.5,19.2,19.2,0,0,1,1.4,1.5,9.91,9.91,0,0,1,1.1,1.7c.3.6.6,1.2.9,1.9a6.47,6.47,0,0,1,.4,2,14.56,14.56,0,0,1-1.2,8,31.85,31.85,0,0,1-4.1,6.4,25.75,25.75,0,0,1-5.5,4.9A16.75,16.75,0,0,1,1888.8,624.5Zm-.5-2.7a17.52,17.52,0,0,0,5.9-2.2,11.88,11.88,0,0,0,4.4-4.5,10.42,10.42,0,0,0,1.5-5.9c-.1-2-.5-3.8-.7-5.6a6.11,6.11,0,0,1-.3-1.3,5.9,5.9,0,0,1-.2-1.4,6.75,6.75,0,0,1-.2-1.4,8,8,0,0,0-.3-1.5,8.8,8.8,0,0,0-.5-1.5,9.14,9.14,0,0,0-.7-1.4,12.7,12.7,0,0,0-1-1.2,5.8,5.8,0,0,1-1.2-1,9.59,9.59,0,0,0-5.9-1.4,45,45,0,0,0-5.6.7,38.9,38.9,0,0,0-5.5,1.2,10.08,10.08,0,0,0-5.1,3.3,8.25,8.25,0,0,0-1.7,5.9,7.72,7.72,0,0,0,.2,1.5c.1.5.2,1,.3,1.4s.2.9.3,1.4a5.85,5.85,0,0,1,.2,1.3,38.9,38.9,0,0,0,1.2,5.5,11.37,11.37,0,0,0,3.2,5.2,12.9,12.9,0,0,0,5.6,2.8A12.55,12.55,0,0,0,1888.3,621.8Z" transform="translate(0 -23.96)"/><path class="cls-2" d="M1826.7,586.3a17.57,17.57,0,0,1-5.6-.2,19.57,19.57,0,0,1-5.2-2.1,36.11,36.11,0,0,1-4.9-3.4,10.09,10.09,0,0,1-3.1-5.6c0-.5-.1-1.1-.1-1.6a8.75,8.75,0,0,1,.2-1.6c.1-.5.4-1,.5-1.6s.5-.9.7-1.4c1.1-1.8,2.2-3.4,3.2-5a37.16,37.16,0,0,1,3.5-4.9,10.09,10.09,0,0,1,5.6-3.1,9.91,9.91,0,0,1,6.3,1.1,38.24,38.24,0,0,1,4.9,3.4,10.63,10.63,0,0,1,1.1.9l1.2.9,1.2.9a5.8,5.8,0,0,1,1.2,1,6.79,6.79,0,0,1,1.2,1.2,14.7,14.7,0,0,1,1,1.3,6.89,6.89,0,0,1,.7,1.5c.1.5.3,1.1.4,1.6a10.61,10.61,0,0,1-1.1,6.3,26.43,26.43,0,0,1-3.4,4.9,19.47,19.47,0,0,1-4.3,3.7A26.5,26.5,0,0,1,1826.7,586.3Zm-.4-2.7a14.34,14.34,0,0,0,4.4-1.5,7.59,7.59,0,0,0,3.1-3.3,6.68,6.68,0,0,0,.7-4.4c-.2-1.4-.6-2.7-.9-4s-.2-2.5-.4-4.1a3.54,3.54,0,0,0-.3-1.1,4.18,4.18,0,0,0-.4-1,5.5,5.5,0,0,0-.7-.9c-.3-.2-.6-.5-.9-.7a6.21,6.21,0,0,0-4.4-.7c-1.4.2-2.6.6-3.9.8s-2.5.3-4,.5a6.55,6.55,0,0,0-3.9,2.1,5.12,5.12,0,0,0-1,4.3,6.15,6.15,0,0,0,.3,1.1,4.18,4.18,0,0,0,.4,1c.1.3.2.6.3,1s.1.6.2.9c.2,1.2.3,2.5.6,3.9a6.84,6.84,0,0,0,2.1,3.9,8.49,8.49,0,0,0,4.1,2.1A10.18,10.18,0,0,0,1826.3,583.6Z" transform="translate(0 -23.96)"/><path class="cls-2" d="M1814.2,675.4a13.46,13.46,0,0,1-5.3-.3,17.44,17.44,0,0,1-4.9-2,26.9,26.9,0,0,1-4.7-3.3,9.48,9.48,0,0,1-3-5.3c0-.5-.1-1.1-.1-1.5a7.72,7.72,0,0,1,.2-1.5,8.8,8.8,0,0,1,.5-1.5c.2-.5.5-.9.7-1.4,1.1-1.7,2.2-3.1,3.1-4.7a40.71,40.71,0,0,1,3.3-4.7,8.93,8.93,0,0,1,5.3-3,9.68,9.68,0,0,1,6,1.1,43.26,43.26,0,0,1,4.7,3.3,7.63,7.63,0,0,0,1.1.8,7.63,7.63,0,0,0,1.1.8c.4.3.8.6,1.1.8a10.63,10.63,0,0,1,1.1.9,12,12,0,0,1,1.2,1.1,6,6,0,0,1,.9,1.3c.2.5.5.9.7,1.4s.3,1,.4,1.5a9.68,9.68,0,0,1-1.1,6,23.21,23.21,0,0,1-3.3,4.7,21.84,21.84,0,0,1-4,3.5A12.84,12.84,0,0,1,1814.2,675.4Zm-.4-2.7a12.47,12.47,0,0,0,4.1-1.4,7.47,7.47,0,0,0,3-3.1,6.49,6.49,0,0,0,.6-4.1c-.2-1.3-.7-2.5-.8-3.6a20.52,20.52,0,0,1-.3-3.7,4.25,4.25,0,0,0-.2-1.1,4.18,4.18,0,0,0-.4-1,5.55,5.55,0,0,0-.6-.8,4.7,4.7,0,0,0-.9-.6,5.89,5.89,0,0,0-4.1-.6,29.81,29.81,0,0,1-3.6.8c-1.1.2-2.3.2-3.6.4a6,6,0,0,0-3.7,1.9,4.76,4.76,0,0,0-.9,4,6.15,6.15,0,0,0,.3,1.1c.1.3.2.6.3,1l.3.9c.1.3.1.5.2.9.2,1.1.3,2.3.5,3.6a6,6,0,0,0,1.9,3.7,7.24,7.24,0,0,0,3.8,1.9A14.46,14.46,0,0,0,1813.8,672.7Z" transform="translate(0 -23.96)"/><path class="cls-2" d="M1825.9,694.7a7.47,7.47,0,0,0,3.9.6c1.3,0,3-1.8,4.3-1.3a1.62,1.62,0,0,1,.9.5c.3.2.5.7.8,1,.5.8,1.1,1.3,1.8,1.2a5.93,5.93,0,0,0,2.2-.8,3,3,0,0,1,2.1-.5,2.92,2.92,0,0,1,1.7,1.3,3.94,3.94,0,0,0,1.7,1.5,1.7,1.7,0,0,0,1,0,3,3,0,0,0,1.1-.6,2.43,2.43,0,0,1,2.1-.7c1.3.3,2.3,2.3,3.5,2.8a7.26,7.26,0,0,0,3.8.8l-.5,2.6a7.47,7.47,0,0,0-3.9-.6c-1.3,0-2.9,1.6-4.3,1.3-.6,0-1.2-.6-1.7-1.5-.3-.3-.5-.8-.8-1a3.55,3.55,0,0,0-.9-.4,5.93,5.93,0,0,0-2.2.8,3,3,0,0,1-2.1.5,2.92,2.92,0,0,1-1.7-1.3,3.94,3.94,0,0,0-1.7-1.5,2.53,2.53,0,0,0-2.1.5,6,6,0,0,1-1.1.6,3.59,3.59,0,0,1-1.1.2c-1.3-.1-2.3-2.3-3.5-2.8a6.41,6.41,0,0,0-3.8-.8Z" transform="translate(0 -23.96)"/><path class="cls-2" d="M1845.7,608.4a6.62,6.62,0,0,0-2.8,2.7c-.8,1.1-.4,3.4-1.5,4.2a3.55,3.55,0,0,1-.9.4,5.65,5.65,0,0,1-1.3,0,2.42,2.42,0,0,0-2,.6,4.36,4.36,0,0,0-.7,2.1,3.29,3.29,0,0,1-.8,2,2.78,2.78,0,0,1-2.1.6,4.77,4.77,0,0,0-2.2.5,1.85,1.85,0,0,0-.7.8,5.07,5.07,0,0,0-.2,1.3c0,1-.1,1.8-.7,2.1-1,.9-3.2.4-4.3,1.1a7.35,7.35,0,0,0-3,2.5l-1.8-2a6.62,6.62,0,0,0,2.8-2.7c.8-1.1.5-3.4,1.5-4.2.4-.5,1.2-.5,2.2-.5a2.25,2.25,0,0,0,1.2-.1,4.05,4.05,0,0,0,.9-.5,4.36,4.36,0,0,0,.7-2.1,3.29,3.29,0,0,1,.8-2,2.78,2.78,0,0,1,2.1-.6,4.77,4.77,0,0,0,2.2-.5c.6-.3.8-1.1.9-2,.1-.5.1-.9.2-1.3a1.93,1.93,0,0,1,.5-.9c.9-1,3.2-.4,4.3-1.1a7.35,7.35,0,0,0,3-2.5Z" transform="translate(0 -23.96)"/><path class="cls-2" d="M1872.8,715.3a13.75,13.75,0,0,0,2.5-4.8c.7-1.7-.3-4.3.8-5.7a2.41,2.41,0,0,1,1-1,6.11,6.11,0,0,1,1.4-.7,3.47,3.47,0,0,0,2.1-2,5.44,5.44,0,0,0,.3-2.9,4.18,4.18,0,0,1,.5-2.8,5.6,5.6,0,0,1,2.1-1.9,6,6,0,0,0,2.3-1.8,3,3,0,0,0,.5-1.3,8.53,8.53,0,0,0,0-1.6,3.58,3.58,0,0,1,.4-2.9c.9-1.6,3.4-2.3,4.4-3.7a13.75,13.75,0,0,0,2.7-4.7l2.3,1.2a13.75,13.75,0,0,0-2.5,4.8c-.7,1.7.1,4.2-.8,5.7a3.93,3.93,0,0,1-2.3,1.8,3.92,3.92,0,0,0-1.4.8,4.44,4.44,0,0,0-.8,1.1,5.44,5.44,0,0,0-.3,2.9,4.18,4.18,0,0,1-.5,2.8,5.6,5.6,0,0,1-2.1,1.9,6,6,0,0,0-2.3,1.8,3.79,3.79,0,0,0-.6,2.8c0,.5.1,1.1.1,1.6a3.53,3.53,0,0,1-.3,1.4c-.8,1.7-3.4,2.3-4.4,3.7a14.29,14.29,0,0,0-2.7,4.6Z" transform="translate(0 -23.96)"/><path class="cls-2" d="M1843.2,668.6c1.1-3.1,1.9-6,2.7-8.9a53.47,53.47,0,0,0,1.7-8.7c.1-1.4.2-3,.3-4.5a19.5,19.5,0,0,1,.9-4.7,31.55,31.55,0,0,1,2-4.7c.9-1.5,1.8-2.8,2.6-4.3l1.7-3.1,1.5,2.4a21.66,21.66,0,0,0,6.3,6.5c1.2.9,2.6,1.8,3.8,2.6a31.83,31.83,0,0,1,3.3,3,24.16,24.16,0,0,1,2.7,3.6c.8,1.3,1.5,2.7,2.3,4a23,23,0,0,0,5.9,6.9l2.3,1.6-3.3,1.4c-1.5.7-2.9,1.5-4.5,2.2a22.14,22.14,0,0,1-4.8,1.5,19.88,19.88,0,0,1-4.8.4c-1.5,0-3.1-.1-4.5-.1a65.41,65.41,0,0,0-8.8.8C1849.4,667.3,1846.4,667.9,1843.2,668.6Zm2-1.7c2.6-.5,5.5-1.2,8.5-2a64.57,64.57,0,0,0,8.8-2.9c1.5-.7,2.9-1.3,4.3-2a24.77,24.77,0,0,1,4-1.5,10.71,10.71,0,0,1,4-.4c1.3.1,2.8.3,4.3.3l-1,3.1a20.25,20.25,0,0,0-6.2-6.5c-1.2-.9-2.6-1.8-3.8-2.6a31.83,31.83,0,0,1-3.3-3,24.16,24.16,0,0,1-2.7-3.6c-.8-1.3-1.5-2.7-2.3-4a21.59,21.59,0,0,0-5.8-6.9l3.1-.7c-.1,1.4-.1,3-.2,4.3a16.78,16.78,0,0,1-.7,3.9,16.36,16.36,0,0,1-1.8,3.8,40.18,40.18,0,0,0-2.4,4.1,58.85,58.85,0,0,0-3.9,8.5C1847,661.4,1846,664.3,1845.2,666.9Z" transform="translate(0 -23.96)"/><path class="cls-2" d="M819.5,672.6a8,8,0,0,0-2.8-2.7c-1.1-.8-3.4-.2-4.3-1.3a1.93,1.93,0,0,1-.5-.9,5.28,5.28,0,0,1-.1-1.3,2.21,2.21,0,0,0-.8-2,4.75,4.75,0,0,0-2.2-.6c-.9-.1-1.6-.2-2-.8a3.34,3.34,0,0,1-.8-2.1,4.75,4.75,0,0,0-.6-2.2,2.41,2.41,0,0,0-.8-.6,2.34,2.34,0,0,0-1.2-.2,2.9,2.9,0,0,1-2.2-.6c-.9-.9-.5-3.2-1.2-4.3a8.32,8.32,0,0,0-2.7-2.9l1.8-1.9a8,8,0,0,0,2.8,2.7c1.1.8,3.3.4,4.3,1.3a2.1,2.1,0,0,1,.6,2.1,5.28,5.28,0,0,0,.1,1.3,1.24,1.24,0,0,0,.6.8,4.75,4.75,0,0,0,2.2.6c.9.1,1.6.2,2,.8a3.34,3.34,0,0,1,.8,2.1,4.75,4.75,0,0,0,.6,2.2,2.48,2.48,0,0,0,2,.8,5.28,5.28,0,0,1,1.3.1,1.35,1.35,0,0,1,.9.5c1,.8.5,3.2,1.2,4.3a8.32,8.32,0,0,0,2.7,2.9Z" transform="translate(0 -23.96)"/><path class="cls-2" d="M839.5,668.3a26.55,26.55,0,0,0,3.1-6.6c.8-2.3.2-5.3,1.4-7.5a5.83,5.83,0,0,1,1.1-1.5c.5-.5,1.1-.8,1.5-1.2a5.58,5.58,0,0,0,2.4-2.9,9.21,9.21,0,0,0,.6-3.8,9.09,9.09,0,0,1,.8-3.7,8.44,8.44,0,0,1,2.5-2.9,9.77,9.77,0,0,0,2.6-2.8,5.77,5.77,0,0,0,.7-3.7,6.33,6.33,0,0,1,.6-3.7c1.1-2.2,3.8-3.5,5.1-5.5.7-1.1,1.3-2,1.9-3.1a24.08,24.08,0,0,0,1.5-3.3l2.4,1.2a16.54,16.54,0,0,0-1.8,3.2c-.5,1.1-.9,2.3-1.3,3.4-.9,2.3-.2,5.3-1.4,7.5a6.9,6.9,0,0,1-2.6,2.8,6,6,0,0,0-2.5,2.8,9.21,9.21,0,0,0-.6,3.8,9.09,9.09,0,0,1-.8,3.7,8.44,8.44,0,0,1-2.5,2.9,9.77,9.77,0,0,0-2.6,2.8,5.81,5.81,0,0,0-.8,3.7v2a4.07,4.07,0,0,1-.5,1.8c-.9,2.3-3.8,3.5-5.1,5.5a26.23,26.23,0,0,0-3.4,6.4Z" transform="translate(0 -23.96)"/><path class="cls-2" d="M901.4,659.4a17.09,17.09,0,0,1-2.3,6.9,24.59,24.59,0,0,1-4.5,5.7,36.55,36.55,0,0,1-6.2,4.5,12.68,12.68,0,0,1-7.9,1.5c-.7-.1-1.3-.3-2-.4a10.84,10.84,0,0,1-1.9-.8,9.91,9.91,0,0,1-1.7-1.1,18.26,18.26,0,0,1-1.6-1.3c-1.9-1.8-3.5-3.7-5.2-5.5a33.78,33.78,0,0,1-4.5-6.3,13.26,13.26,0,0,1,1.7-15.3,37.13,37.13,0,0,1,5.7-5c.5-.4,1-.7,1.5-1.1s1-.7,1.5-1.1,1-.7,1.6-1.1a9.5,9.5,0,0,1,1.7-1,15.11,15.11,0,0,1,1.8-.9,13.89,13.89,0,0,1,1.9-.6,13.27,13.27,0,0,1,2.1-.3,7.58,7.58,0,0,1,2.1.1,14.11,14.11,0,0,1,7.3,3.4,33,33,0,0,1,5,5.7,23.43,23.43,0,0,1,3.1,6.6A19,19,0,0,1,901.4,659.4Zm-2.7-.2a16.68,16.68,0,0,0-.5-6.3,12.18,12.18,0,0,0-3.1-5.4,10.27,10.27,0,0,0-5.3-3.1,39.71,39.71,0,0,0-5.6-.8,5.28,5.28,0,0,1-1.3-.1,6.75,6.75,0,0,1-1.4-.2,5.9,5.9,0,0,1-1.4-.2,7.57,7.57,0,0,0-1.5-.1,9.15,9.15,0,0,0-1.6.1c-.6.1-1,.2-1.5.3s-1,.4-1.4.6-.9.6-1.3.9a9.48,9.48,0,0,0-3,5.3,29,29,0,0,0-.8,5.6,34,34,0,0,0-.4,5.7,9.49,9.49,0,0,0,1.8,5.8,8,8,0,0,0,5.2,3.2,7.72,7.72,0,0,0,1.5.2c.5,0,1,.1,1.4.1s.9.1,1.4.1a5.07,5.07,0,0,1,1.3.2,34,34,0,0,0,5.7.4,10.62,10.62,0,0,0,5.9-1.7,12.37,12.37,0,0,0,4.2-4.6A16.41,16.41,0,0,0,898.7,659.2Z" transform="translate(0 -23.96)"/><path class="cls-2" d="M847.5,708.5a13.9,13.9,0,0,1-1.8,5.3,24.57,24.57,0,0,1-3.4,4.4,31.08,31.08,0,0,1-4.7,3.8,9.82,9.82,0,0,1-6.2,1.4l-1.6-.3a10.09,10.09,0,0,1-1.5-.7c-.5-.3-.9-.6-1.4-.9s-.8-.7-1.2-1c-1.4-1.6-2.7-3.1-3.9-4.4a29.54,29.54,0,0,1-3.7-4.7,9.82,9.82,0,0,1-1.4-6.2,9.66,9.66,0,0,1,2.8-5.7,52.21,52.21,0,0,1,4.7-3.8l1.2-.9,1.2-.9,1.2-.9c.4-.3.9-.6,1.3-.9s.9-.5,1.4-.8,1-.4,1.6-.6a4.68,4.68,0,0,1,1.6-.2,8.6,8.6,0,0,1,1.6.1,10.27,10.27,0,0,1,5.7,2.8,27,27,0,0,1,3.8,4.7,19.8,19.8,0,0,1,2.4,5.1A18.05,18.05,0,0,1,847.5,708.5Zm-2.6-.3a11.94,11.94,0,0,0-.3-4.6,8.13,8.13,0,0,0-2.3-3.9,7.12,7.12,0,0,0-4-1.9c-1.4-.2-2.8-.2-4-.3s-2.5-.5-4-.7a4.87,4.87,0,0,0-1.2-.1,4.1,4.1,0,0,0-1.1.1,4.87,4.87,0,0,0-1.1.4l-.9.6a6.52,6.52,0,0,0-1.9,4c-.2,1.4-.2,2.7-.3,3.9s-.4,2.5-.6,4a6,6,0,0,0,1,4.3,4.82,4.82,0,0,0,3.9,2.1,4.05,4.05,0,0,0,1.1,0,4.1,4.1,0,0,0,1.1-.1,3.35,3.35,0,0,1,1,0,2.48,2.48,0,0,1,.9.1c1.2.2,2.5.4,3.9.5a6.52,6.52,0,0,0,4.4-1,8.48,8.48,0,0,0,3.1-3.4A10.46,10.46,0,0,0,844.9,708.2Z" transform="translate(0 -23.96)"/><path class="cls-2" d="M929.7,745.1a14.11,14.11,0,0,1-1.7,5,17,17,0,0,1-3.3,4.2,26.46,26.46,0,0,1-4.4,3.6,9.59,9.59,0,0,1-5.9,1.4c-.5-.1-1.1-.2-1.5-.3s-.9-.4-1.4-.6a6,6,0,0,1-1.3-.9c-.4-.3-.8-.7-1.2-1-1.3-1.5-2.4-2.9-3.7-4.3a40.32,40.32,0,0,1-3.6-4.4,9,9,0,0,1-1.4-5.9,9.89,9.89,0,0,1,2.7-5.5,34.82,34.82,0,0,1,4.4-3.6l1.1-.8,1.1-.8a10.63,10.63,0,0,0,1.1-.9l1.2-.9a5.67,5.67,0,0,1,1.3-.8,8.19,8.19,0,0,1,3-.7h1.5a9.89,9.89,0,0,1,5.5,2.7,27.86,27.86,0,0,1,3.6,4.4,20.51,20.51,0,0,1,2.2,4.8A10.84,10.84,0,0,1,929.7,745.1Zm-2.6-.3a12.46,12.46,0,0,0-.2-4.3,7.81,7.81,0,0,0-2.2-3.7,6,6,0,0,0-3.7-1.7c-1.3-.2-2.5,0-3.7-.2s-2.3-.5-3.7-.7a6.1,6.1,0,0,0-2.2,0,3,3,0,0,0-1,.4l-.9.6a5.54,5.54,0,0,0-1.7,3.7c-.1,1.3,0,2.5-.2,3.7s-.5,2.3-.6,3.6a6.61,6.61,0,0,0,.8,4.1,4.75,4.75,0,0,0,3.6,2,4.05,4.05,0,0,0,1.1,0c.4,0,.6-.1,1-.1a2.72,2.72,0,0,1,.9,0,3.08,3.08,0,0,1,.9.1c1.2.1,2.3.4,3.6.5a6,6,0,0,0,4.1-.8,7.49,7.49,0,0,0,2.9-3.2A10.39,10.39,0,0,0,927.1,744.8Z" transform="translate(0 -23.96)"/><path class="cls-2" d="M951.5,739.3a6.94,6.94,0,0,0,1.6-3.6c.3-1.3-.9-3.4-.1-4.5a2,2,0,0,1,.8-.8c.3-.2.8-.3,1.2-.5.9-.3,1.5-.7,1.6-1.4a4.71,4.71,0,0,0-.2-2.3,3.26,3.26,0,0,1,.1-2.2,2.9,2.9,0,0,1,1.7-1.3,3.81,3.81,0,0,0,1.9-1.3,2.39,2.39,0,0,0,.3-.9,3,3,0,0,0-.3-1.2c-.4-.9-.5-1.7-.1-2.2.6-1.2,2.9-1.5,3.6-2.6a8.5,8.5,0,0,0,1.9-3.5l2.4,1.2a6.94,6.94,0,0,0-1.6,3.6c-.3,1.3.7,3.2.1,4.5-.2.6-.9,1-1.9,1.3-.4.2-.9.3-1.2.5a1.56,1.56,0,0,0-.6.8,4.71,4.71,0,0,0,.2,2.3,3.22,3.22,0,0,1-.1,2.2,2.9,2.9,0,0,1-1.7,1.3,3.81,3.81,0,0,0-1.9,1.3,2.73,2.73,0,0,0-.1,2.2,7,7,0,0,1,.3,1.2,4.1,4.1,0,0,1-.1,1.1c-.4,1.3-2.9,1.5-3.6,2.6a7.5,7.5,0,0,0-1.9,3.5Z" transform="translate(0 -23.96)"/><path class="cls-2" d="M874.1,696.3a7.11,7.11,0,0,0,1.9,3.5c.8,1.1,3.2,1.4,3.6,2.6.1.3.1.7.2,1-.1.4-.2.9-.3,1.2a2.52,2.52,0,0,0,0,2.1,6.42,6.42,0,0,0,1.8,1.3,2.9,2.9,0,0,1,1.7,1.3,2.78,2.78,0,0,1,0,2.2,4.32,4.32,0,0,0-.2,2.2,1.16,1.16,0,0,0,.6.8,4.33,4.33,0,0,0,1.2.5c.9.3,1.7.6,1.8,1.3.6,1.2-.5,3.2-.2,4.4a7.85,7.85,0,0,0,1.6,3.6l-2.4,1.2a7.11,7.11,0,0,0-1.9-3.5c-.8-1.1-3.1-1.4-3.6-2.6-.4-.5-.2-1.3.2-2.2a1.8,1.8,0,0,0,.2-1.2,3.81,3.81,0,0,0-.3-1,6.42,6.42,0,0,0-1.8-1.3,2.9,2.9,0,0,1-1.7-1.3,2.78,2.78,0,0,1,0-2.2,4.32,4.32,0,0,0,.2-2.2c-.1-.7-.8-1.1-1.6-1.4-.4-.2-.8-.3-1.2-.5s-.5-.5-.8-.7c-.7-1.1.5-3.2.2-4.4a7.85,7.85,0,0,0-1.6-3.6Z" transform="translate(0 -23.96)"/><path class="cls-2" d="M984.2,699.8a12.51,12.51,0,0,0-3.9-3.7c-1.4-1.1-4.2-.9-5.3-2.3a2.92,2.92,0,0,1-.7-1.2,9.92,9.92,0,0,1-.3-1.5,3.41,3.41,0,0,0-1.3-2.5,5.52,5.52,0,0,0-2.7-1.1,4.85,4.85,0,0,1-2.6-1.2,4.52,4.52,0,0,1-1.2-2.5,5.52,5.52,0,0,0-1.1-2.7,3.33,3.33,0,0,0-1.1-.9,5.29,5.29,0,0,0-1.6-.4,3.45,3.45,0,0,1-2.7-1.2c-1.3-1.3-1.2-3.9-2.3-5.3a14.11,14.11,0,0,0-3.8-3.9l1.8-1.9a12.51,12.51,0,0,0,3.9,3.7c1.4,1.1,4.1,1.1,5.3,2.3a3.93,3.93,0,0,1,1.1,2.7,3.31,3.31,0,0,0,.4,1.5,4.36,4.36,0,0,0,.9,1.1,5.52,5.52,0,0,0,2.7,1.1,4.85,4.85,0,0,1,2.6,1.2,5.32,5.32,0,0,1,1.2,2.5,5.52,5.52,0,0,0,1.1,2.7,3.63,3.63,0,0,0,2.6,1.3l1.6.3a2.92,2.92,0,0,1,1.2.7c1.4,1.2,1.2,3.9,2.3,5.3a15.3,15.3,0,0,0,3.7,3.9Z" transform="translate(0 -23.96)"/><path class="cls-2" d="M931.3,715.4c-2.7-1.9-5.2-3.5-7.8-5a52.3,52.3,0,0,0-7.8-4c-1.3-.5-2.8-1-4.2-1.6a29.15,29.15,0,0,1-4.3-2.2,23.71,23.71,0,0,1-3.9-3.2c-1.2-1.2-2.2-2.5-3.4-3.7l-2.5-2.5,2.7-.7a21.53,21.53,0,0,0,7.9-4.2c1.2-.9,2.4-2,3.6-2.9a21.38,21.38,0,0,1,3.8-2.3,30.3,30.3,0,0,1,4.2-1.6c1.5-.4,3-.7,4.5-1.1a21.82,21.82,0,0,0,8.2-3.7l2.2-1.8.5,3.6c.2,1.6.6,3.2.8,4.9a28,28,0,0,1,.1,5,23,23,0,0,1-.9,4.7c-.4,1.5-.9,2.9-1.3,4.3a63.46,63.46,0,0,0-1.6,8.7C931.7,709.1,931.5,712.1,931.3,715.4Zm-1.2-2.4c.3-2.7.4-5.7.5-8.7a74,74,0,0,0-.3-9.3c-.2-1.6-.5-3.2-.7-4.7a32.19,32.19,0,0,1-.3-4.3,13.44,13.44,0,0,1,.7-4,39.29,39.29,0,0,0,1.4-4.1l2.7,1.8a20.15,20.15,0,0,0-7.9,4.2c-1.2.9-2.4,2-3.6,2.9a21.38,21.38,0,0,1-3.8,2.3,30.3,30.3,0,0,1-4.2,1.6c-1.5.4-3,.7-4.5,1.1a20.37,20.37,0,0,0-8.2,3.7l.2-3.2c1.3.5,2.8.9,4.1,1.4a12.16,12.16,0,0,1,3.6,1.8,26.7,26.7,0,0,1,3.2,2.8c1.1,1.1,2.1,2.3,3.2,3.5a49.13,49.13,0,0,0,7.1,6A47.18,47.18,0,0,0,930.1,713Z" transform="translate(0 -23.96)"/><path class="cls-2" d="M1539.1,587.7a14.63,14.63,0,0,1,.7-5.5,18,18,0,0,1,2.5-5,38.5,38.5,0,0,1,3.8-4.6,10.61,10.61,0,0,1,5.8-2.6h1.6a9.36,9.36,0,0,1,1.6.4l1.5.6c.4.3.9.5,1.3.8,1.7,1.2,3.2,2.5,4.7,3.6a39.75,39.75,0,0,1,4.6,3.9,9.94,9.94,0,0,1,2.6,5.8,9.82,9.82,0,0,1-1.6,6.2,46.56,46.56,0,0,1-3.8,4.6c-.4.4-.6.7-1,1.1s-.6.7-1,1.1a12.7,12.7,0,0,0-1,1.2c-.4.4-.7.8-1.1,1.2a15,15,0,0,1-1.3,1.1c-.4.3-.9.6-1.4.9a4.42,4.42,0,0,1-1.5.5l-1.6.3a10.5,10.5,0,0,1-6.2-1.6,30,30,0,0,1-4.6-3.8,19.24,19.24,0,0,1-3.3-4.6C1539.9,591.4,1539.4,589.5,1539.1,587.7Zm2.7-.2a12.57,12.57,0,0,0,1.2,4.5,8.25,8.25,0,0,0,3,3.4,6.79,6.79,0,0,0,4.3,1.1c1.4-.1,2.8-.4,4-.5s2.5,0,4.1-.1a5,5,0,0,0,1.2-.2,4.87,4.87,0,0,0,1.1-.4c.4-.2.6-.4,1-.6l.8-.8a6.79,6.79,0,0,0,1.1-4.3c-.1-1.4-.4-2.7-.4-3.9s-.1-2.5-.2-4a6.16,6.16,0,0,0-1.8-4,5,5,0,0,0-4.2-1.3c-.4.1-.7.1-1.1.2l-1.1.3a3.55,3.55,0,0,1-1,.2,3.08,3.08,0,0,1-.9.1c-1.3.1-2.5.1-3.9.3a6.89,6.89,0,0,0-4.1,1.8,8,8,0,0,0-2.4,3.9A6.81,6.81,0,0,0,1541.8,587.5Z" transform="translate(0 -23.96)"/><path class="cls-2" d="M1541.4,698.4a14.63,14.63,0,0,1,.7-5.5,19.51,19.51,0,0,1,2.5-5,30.81,30.81,0,0,1,3.8-4.6,10.3,10.3,0,0,1,5.8-2.6h1.6a9.36,9.36,0,0,1,1.6.4l1.5.6c.4.3.9.5,1.3.8,1.7,1.2,3.1,2.4,4.6,3.6a39.75,39.75,0,0,1,4.6,3.9,10,10,0,0,1,2.6,5.8,9.82,9.82,0,0,1-1.6,6.2,35.79,35.79,0,0,1-3.8,4.6c-.4.4-.6.7-1,1.1s-.6.7-1,1.1a12.7,12.7,0,0,0-1,1.2c-.4.4-.7.8-1.1,1.2s-.8.7-1.2,1.1-.9.6-1.3.9a3.81,3.81,0,0,1-1.5.5l-1.6.3a10,10,0,0,1-6.1-1.6,35.79,35.79,0,0,1-4.6-3.8,18,18,0,0,1-3.3-4.5A19.33,19.33,0,0,1,1541.4,698.4Zm2.6-.2a11.57,11.57,0,0,0,1.2,4.4,9.57,9.57,0,0,0,2.9,3.4,6.79,6.79,0,0,0,4.3,1.1c1.4-.1,2.7-.4,3.9-.5a26.67,26.67,0,0,1,4,0c.4,0,.7-.1,1.2-.1a4.87,4.87,0,0,0,1.1-.4c.4-.2.6-.4,1-.6l.8-.8a6.49,6.49,0,0,0,1.1-4.3c-.1-1.4-.4-2.7-.4-3.9s-.1-2.5-.2-3.9a5.9,5.9,0,0,0-1.8-4,5,5,0,0,0-4.2-1.3c-.4.1-.7.1-1.1.2s-.7.2-1,.3a3.55,3.55,0,0,1-1,.2,2.77,2.77,0,0,1-.9.1c-1.3.1-2.5.1-3.9.2a6.26,6.26,0,0,0-4,1.7,8.51,8.51,0,0,0-2.4,3.8A9.25,9.25,0,0,0,1544,698.2Z" transform="translate(0 -23.96)"/></svg>