<?xml version="1.0" encoding="utf-8"?>
<!-- Generator: Adobe Illustrator 22.1.0, SVG Export Plug-In . SVG Version: 6.00 Build 0)  -->
<svg version="1.1" id="Layer_1" xmlns="http://www.w3.org/2000/svg" xmlns:xlink="http://www.w3.org/1999/xlink" x="0px" y="0px"
	 viewBox="0 0 310 360" style="enable-background:new 0 0 310 360;" xml:space="preserve">
<style type="text/css">
	.st0{fill:#F894A4;}
	.st1{fill:#6FDCCA;}
	.st2{fill:url(#SVGID_1_);}
	.st3{fill:url(#SVGID_2_);}
	.st4{fill:none;}
	.st5{opacity:0.3;}
	.st6{fill:#404040;}
	.st7{opacity:0.6;fill:#2A2855;enable-background:new    ;}
	.st8{fill:none;stroke:#FFFFFF;stroke-width:7;stroke-miterlimit:10;}
	.st9{fill:url(#SVGID_3_);}
	.st10{fill:#45ADD6;}
	.st11{opacity:0.8;enable-background:new    ;}
	.st12{fill:#FFFFFF;}
	.st13{fill:url(#SVGID_4_);}
	.st14{fill:url(#SVGID_5_);}
	.st15{fill:#503EA7;}
	.st16{fill:url(#SVGID_6_);}
	.st17{opacity:0.3;fill:#23146B;enable-background:new    ;}
</style>
<polygon class="st0" points="292.6,243.2 292.6,246.1 241.7,272.4 83.9,271.5 83.9,267.6 89.1,215.6 246.9,215.6 "/>
<polygon class="st1" points="199,112.7 193.8,115.6 64.7,85 25.6,50.3 30.4,47.3 74.8,32 198.6,64.7 198.6,112.6 "/>
<polygon class="st1" points="303,122.5 303,126.5 250.8,153.1 89.1,159.2 87.9,156.1 91.7,107.1 252.1,101 "/>
<linearGradient id="SVGID_1_" gradientUnits="userSpaceOnUse" x1="7" y1="183.6504" x2="207.8" y2="183.6504">
	<stop  offset="0" style="stop-color:#503EA7"/>
	<stop  offset="1" style="stop-color:#5D7FAE"/>
</linearGradient>
<polygon class="st2" points="207.8,174.5 207.8,222.6 203.9,226.6 52.6,194.9 7,161.3 10.9,157.1 64.4,140.8 "/>
<title>LL illustration</title>
<linearGradient id="SVGID_2_" gradientUnits="userSpaceOnUse" x1="187.5" y1="179.824" x2="128.9" y2="179.824">
	<stop  offset="0" style="stop-color:#503EA7"/>
	<stop  offset="1" style="stop-color:#5D7FAE"/>
</linearGradient>
<path class="st3" d="M187.5,16.6v327.1c0,3.1-2.8,4.7-5.6,5.6c-14.6,4.4-30.5,3.8-47.4,0c-3-0.6-5.6-2.5-5.6-5.6V16.6
	c0-3.1,2.8-4.7,5.6-5.6c14.6-4.4,31.4-4.9,44.3-0.9C183,11.3,187.5,13.5,187.5,16.6z"/>
<g>
	<line class="st4" x1="141.8" y1="25.4" x2="139.2" y2="324.4"/>
	<line class="st4" x1="155.9" y1="27.4" x2="153.4" y2="313.4"/>
	<line class="st4" x1="175.3" y1="32" x2="173" y2="298.4"/>
</g>
<g class="st5">
	<g>
		<path class="st6" d="M140.2,324.4L140.2,324.4c-1.1,0-2-0.9-2-2l2.6-295c0-1.1,0.9-2,2-2l0,0c1.1,0,2,0.9,2,2l-2.6,295
			C142.2,323.5,141.3,324.4,140.2,324.4z"/>
	</g>
	<g>
		<path class="st6" d="M156.5,313.4L156.5,313.4c-1.1,0-2-0.9-2-2l2.5-282c0-1.1,0.9-2,2-2l0,0c1.1,0,2,0.9,2,2l-2.5,282
			C158.5,312.5,157.6,313.4,156.5,313.4z"/>
	</g>
	<g>
		<path class="st6" d="M174,298.4L174,298.4c-1.1,0-2-0.9-2-2l2.3-262.4c0-1.1,0.9-2,2-2l0,0c1.1,0,2,0.9,2,2L176,296.4
			C176,297.5,175.1,298.4,174,298.4z"/>
	</g>
</g>
<path class="st7" d="M128.9,44.8c24.2,6.2,48.3,6.5,58.6-0.7v236.4c-19.7,4.5-39.2,4.6-58.6,0V44.8z"/>
<path class="st8" d="M127.2,41.9"/>
<path class="st8" d="M140.5,40.2"/>
<linearGradient id="SVGID_3_" gradientUnits="userSpaceOnUse" x1="31.7678" y1="-116.9473" x2="199.9678" y2="-116.9473" gradientTransform="matrix(1 0 0 1 -1.3678 189.2476)">
	<stop  offset="0" style="stop-color:#6ABDDE"/>
	<stop  offset="1" style="stop-color:#AAD0E0"/>
</linearGradient>
<polygon class="st9" points="30.4,47.3 69.5,82.1 198.6,112.7 198.6,64.7 74.8,32 "/>
<polygon class="st10" points="69.9,82 30.4,47.3 25.6,50.3 64.7,85 193.8,115.6 199,112.7 "/>
<g class="st11">
	<path class="st12" d="M113.2,53.5l-0.8,22.2l-3.9-1l0.4-9.6L98,62.2l-0.4,9.6l-3.9-1l0.8-22.2l3.9,1L98,58.8l10.9,2.9l0.4-9.2
		L113.2,53.5z"/>
	<path class="st12" d="M133.9,78l-0.1,3.5L118,77.3l0.8-22.2l15.3,4.1l-0.1,3.5l-11.5-3l-0.2,5.8l10.2,2.7l-0.1,3.4l-10.2-2.7
		L122,75L133.9,78z"/>
	<path class="st12" d="M139,60.4l3.9,1l-0.8,18.8l11,2.9l-0.1,3.5l-14.9-4L139,60.4z"/>
	<path class="st12" d="M170.3,69.7c1.3,1,2.4,2.2,3,3.5c0.7,1.4,0.9,2.9,0.9,4.5c-0.1,1.6-0.5,2.9-1.2,3.9c-0.8,1-1.9,1.6-3.2,1.9
		c-1.4,0.3-3,0.1-4.8-0.3l-4.7-1.3l-0.2,6.5l-3.9-1l0.8-22.2l8.7,2.3C167.4,67.9,169,68.6,170.3,69.7z M168.9,79.6
		c0.9-0.5,1.4-1.5,1.4-2.9s-0.4-2.7-1.2-3.6c-0.8-1-2.2-1.7-3.9-2.1l-4.6-1.2l-0.4,8.8l4.6,1.2C166.7,80.2,168,80.1,168.9,79.6z"/>
</g>
<linearGradient id="SVGID_4_" gradientUnits="userSpaceOnUse" x1="87.9" y1="-61.4997" x2="303" y2="-61.4997" gradientTransform="matrix(1 0 0 1 0 190)">
	<stop  offset="0" style="stop-color:#AAD0E0"/>
	<stop  offset="1" style="stop-color:#D2FAD6"/>
</linearGradient>
<polygon class="st13" points="91.7,107.1 252.1,101 303,122.5 249.5,150 87.9,156.1 "/>
<polygon class="st1" points="303,122.5 249.5,150 87.9,156.1 89.1,159.2 250.8,153.1 303,126.5 "/>
<g class="st11">
	<path class="st12" d="M110.8,141.8c-1.3-0.4-2.4-1-3.2-1.8l1.2-3.2c0.8,0.7,1.7,1.2,2.8,1.6c1.1,0.4,2.3,0.5,3.4,0.5
		c1.4-0.1,2.4-0.4,3.1-1s1-1.3,1-2.1c0-0.7-0.2-1.2-0.6-1.5c-0.4-0.4-0.8-0.7-1.5-0.9s-1.4-0.4-2.4-0.7c-1.4-0.3-2.6-0.7-3.5-1
		c-0.8-0.4-1.7-1-2.3-1.8c-0.7-0.8-0.9-2-0.9-3.4c0-1.3,0.3-2.4,0.8-3.4c0.6-1,1.4-1.9,2.5-2.5c1.1-0.7,2.5-1,4.2-1.1
		c1.1-0.1,2.3,0,3.4,0.3c1.1,0.3,2.1,0.7,2.9,1.3l-1.1,3.2c-0.8-0.5-1.7-0.9-2.6-1.2c-0.9-0.2-1.8-0.4-2.6-0.3
		c-1.4,0.1-2.4,0.4-3.1,1s-1,1.3-1,2.2c0,0.7,0.2,1.1,0.6,1.5s0.8,0.7,1.5,0.9c0.6,0.2,1.4,0.4,2.4,0.7c1.4,0.3,2.5,0.7,3.5,1
		c0.9,0.4,1.7,1,2.4,1.8s0.9,1.9,0.9,3.4c0,1.3-0.3,2.4-0.8,3.4c-0.6,1-1.4,1.8-2.5,2.5s-2.5,1-4.2,1.1
		C113.5,142.3,112.1,142.2,110.8,141.8z"/>
	<path class="st12" d="M128.1,138.9c-1.4-1.6-2.2-4.1-2.2-7.3v-12.5l3.5-0.2v12.4c0,4.3,1.6,6.4,4.8,6.3c3.2-0.2,4.8-2.4,4.8-6.8
		v-12.4l3.5-0.2v12.5c0,3.2-0.8,5.7-2.2,7.5s-3.5,2.8-6.1,2.9C131.6,141.2,129.6,140.5,128.1,138.9z"/>
	<path class="st12" d="M159.4,118.1c1.2,0.6,2.2,1.4,2.8,2.6c0.7,1.2,0.9,2.5,0.9,4.1s-0.3,3-0.9,4.3c-0.7,1.3-1.6,2.2-2.8,2.9
		s-2.6,1.1-4.2,1.2l-4.2,0.2v6.4l-3.5,0.2v-22.2l7.8-0.4C156.8,117.3,158.2,117.6,159.4,118.1z M158.5,128.4
		c0.8-0.8,1.2-1.9,1.2-3.3s-0.4-2.5-1.2-3.2s-2-1-3.5-1l-4.1,0.2v8.8l4.1-0.2C156.5,129.6,157.6,129.2,158.5,128.4z"/>
	<path class="st12" d="M178.7,117c1.2,0.6,2.2,1.4,2.8,2.6c0.7,1.2,0.9,2.5,0.9,4.1s-0.3,3-0.9,4.3c-0.7,1.3-1.6,2.2-2.8,2.9
		s-2.6,1.1-4.2,1.2l-4.2,0.2v6.4l-3.5,0.2v-22.2l7.8-0.4C176.1,116.2,177.5,116.4,178.7,117z M177.8,127.2c0.8-0.8,1.2-1.9,1.2-3.3
		s-0.4-2.5-1.2-3.2s-2-1-3.5-1l-4.1,0.2v8.8l4.1-0.2C175.8,128.5,177,128.1,177.8,127.2z"/>
	<path class="st12" d="M189.9,136.4c-1.5-0.9-2.7-2.2-3.7-3.9c-0.8-1.7-1.3-3.6-1.3-5.7c0-2.1,0.5-4.1,1.3-5.9
		c0.8-1.8,2.1-3.2,3.7-4.3c1.5-1.1,3.3-1.7,5.2-1.8s3.7,0.3,5.2,1.2s2.7,2.2,3.7,3.8c0.8,1.7,1.3,3.6,1.3,5.7c0,2.2-0.5,4.1-1.3,6
		c-0.8,1.8-2.1,3.2-3.7,4.3c-1.5,1.1-3.3,1.7-5.2,1.8C193.2,137.7,191.4,137.3,189.9,136.4z M198.4,132.8c1-0.7,1.8-1.7,2.4-2.9
		s0.8-2.6,0.8-4.1s-0.3-2.8-0.8-4c-0.6-1.2-1.4-2.1-2.4-2.7c-1-0.6-2.2-0.9-3.4-0.8s-2.4,0.4-3.4,1.2s-1.8,1.7-2.4,2.9
		c-0.6,1.3-0.8,2.6-0.8,4.1s0.3,2.8,0.8,4c0.6,1.2,1.4,2.1,2.4,2.7c1,0.6,2.2,0.9,3.4,0.8C196.3,133.9,197.5,133.5,198.4,132.8z"/>
	<path class="st12" d="M221.3,135.7l-3.9-6.3c-0.2,0-0.4,0.1-0.8,0.1l-4.2,0.2v6.5l-3.5,0.2v-22.2l7.8-0.4c1.6-0.1,3.1,0.1,4.2,0.7
		c1.2,0.6,2.2,1.4,2.8,2.6c0.7,1.2,0.9,2.5,0.9,4.1c0,1.7-0.4,3.1-1,4.3c-0.7,1.3-1.7,2.2-3,2.9l4.3,7L221.3,135.7z M220.1,118.3
		c-0.8-0.7-2-1-3.5-1l-4.1,0.2v8.8l4.1-0.2c1.5-0.1,2.7-0.5,3.5-1.3s1.2-1.9,1.2-3.3C221.2,120,220.8,119,220.1,118.3z"/>
	<path class="st12" d="M232.2,116.4l-6.3,0.4v-3.5l16-1v3.5l-6.3,0.4v18.7l-3.5,0.2L232.2,116.4L232.2,116.4L232.2,116.4z"/>
</g>
<linearGradient id="SVGID_5_" gradientUnits="userSpaceOnUse" x1="67.7034" y1="34.746" x2="174.6812" y2="-55.0191" gradientTransform="matrix(1 0 0 1 0 190)">
	<stop  offset="0" style="stop-color:#503EA7"/>
	<stop  offset="1" style="stop-color:#5D7FAE"/>
</linearGradient>
<polygon class="st14" points="10.9,157.1 56.6,190.9 207.8,222.6 207.8,174.5 64.4,140.8 "/>
<polygon class="st15" points="10.9,157.1 7,161.3 52.6,194.9 203.9,226.6 207.8,222.6 56.6,190.9 "/>
<g class="st11">
	<path class="st12" d="M88.6,176.4l-8.8-2L78,179l-3.4-0.7l8-19.8l3.2,0.7l7.9,23.4l-3.5-0.8L88.6,176.4z M87.6,173l-3.3-10.2
		l-3.4,8.7L87.6,173z"/>
	<path class="st12" d="M96.1,161.4l7.7,1.8c1.9,0.4,3.6,1.3,5,2.5c1.5,1.3,2.6,2.7,3.4,4.6c0.8,1.8,1.2,3.8,1.2,6s-0.4,3.9-1.2,5.4
		s-2,2.4-3.4,3c-1.5,0.6-3.1,0.7-5,0.2l-7.7-1.8V161.4z M103.7,181.4c1.3,0.3,2.4,0.2,3.4-0.1c0.9-0.4,1.8-1.1,2.3-2.1
		c0.6-1,0.8-2.2,0.8-3.8c0-1.5-0.3-2.9-0.8-4.1c-0.6-1.3-1.3-2.3-2.3-3.1c-0.9-0.8-2.2-1.4-3.4-1.7l-4.3-1l-0.1,14.8L103.7,181.4z"
		/>
	<path class="st12" d="M132.6,169.7l-7.8,19.9l-3.2-0.7l-7.6-23.3l3.6,0.8l5.8,18l6-15.3L132.6,169.7z"/>
	<path class="st12" d="M134.5,170.2l3.3,0.7l-0.1,21.7l-3.3-0.7L134.5,170.2z"/>
	<path class="st12" d="M145.8,193.2c-1.4-1.3-2.5-2.9-3.4-4.7c-0.8-1.8-1.2-3.9-1.2-6s0.5-3.9,1.2-5.5c0.8-1.5,2-2.6,3.4-3.2
		c1.4-0.6,3.1-0.7,4.8-0.4c1.4,0.3,2.7,1,3.9,1.8s2.2,2,3,3.4l-2.2,2c-1.3-2-2.8-3.2-4.7-3.6c-1.2-0.3-2.3-0.2-3.3,0.2
		c-0.9,0.4-1.7,1.2-2.3,2.2s-0.8,2.3-0.8,3.8s0.3,2.8,0.8,4.1c0.6,1.3,1.3,2.4,2.3,3.2c0.9,0.9,2.1,1.5,3.3,1.7
		c1.9,0.4,3.5-0.1,4.7-1.5l2.1,2.9c-0.8,1-1.9,1.6-3,2c-1.2,0.4-2.5,0.4-3.9,0C148.9,195.4,147.2,194.5,145.8,193.2z"/>
	<path class="st12" d="M174.1,197.4v3.4l-13.3-3l0.1-21.7l12.9,2.9v3.4l-9.6-2.2v5.6l8.6,1.9v3.3l-8.6-1.9v6L174.1,197.4z"/>
</g>
<linearGradient id="SVGID_6_" gradientUnits="userSpaceOnUse" x1="83.9" y1="52.6003" x2="292.6" y2="52.6003" gradientTransform="matrix(1 0 0 1 0 190)">
	<stop  offset="0" style="stop-color:#F894A4"/>
	<stop  offset="1" style="stop-color:#FBBFC8"/>
</linearGradient>
<polygon class="st16" points="89.1,215.6 83.9,267.7 240.4,269.7 292.6,243.2 246.9,215.6 "/>
<polygon class="st0" points="292.6,243.2 292.6,243.2 240.4,268.5 83.9,267.6 83.9,271.5 241.7,272.4 292.6,246.1 "/>
<g class="st11">
	<path class="st12" d="M112.9,242.4h3.3l0.1,9.1c-0.9,1-2.1,1.7-3.4,2.2s-2.6,0.8-3.9,0.8c-1.9,0-3.7-0.4-5.2-1.5
		c-1.5-1-2.7-2.4-3.7-4.2c-0.8-1.8-1.3-3.8-1.3-6s0.4-4.3,1.3-6c0.8-1.8,2.1-3.2,3.6-4.3c1.5-1,3.3-1.5,5.2-1.5c1.6,0,3,0.3,4.3,0.9
		s2.4,1.5,3.3,2.7l-2.2,2.7c-1.4-1.7-3.2-2.6-5.2-2.6c-1.3,0-2.5,0.4-3.6,1c-1,0.7-1.8,1.6-2.4,2.9s-0.8,2.7-0.8,4.2
		s0.3,2.9,0.9,4.1s1.4,2.1,2.4,2.9c1,0.7,2.2,1,3.5,1c1.5,0,2.7-0.4,3.9-1.3L112.9,242.4z"/>
	<path class="st12" d="M122.8,251.6c-1.5-1.8-2.2-4.3-2.3-7.6l-0.1-12.9l3.5-0.1l0.1,12.7c0,4.5,1.6,6.7,4.8,6.7s4.7-2.3,4.7-6.8
		l-0.1-12.7l3.5-0.1l0.1,12.9c0,3.3-0.7,5.9-2.2,7.7c-1.4,1.8-3.5,2.7-6,2.7C126.3,254.2,124.3,253.4,122.8,251.6z"/>
	<path class="st12" d="M141.9,230.9l3.5-0.1l0.1,22.9l-3.5,0.1L141.9,230.9z"/>
	<path class="st12" d="M150.5,230.8l8.2-0.1c2,0,3.8,0.4,5.4,1.4c1.6,1,2.8,2.3,3.7,4s1.3,3.8,1.3,6c0,2.3-0.4,4.3-1.2,6
		c-0.8,1.8-2.1,3.1-3.6,4.1c-1.6,1-3.3,1.5-5.4,1.5l-8.2,0.1L150.5,230.8z M158.7,250c1.4,0,2.6-0.4,3.7-1c1-0.7,1.9-1.5,2.4-2.8
		c0.6-1.2,0.8-2.6,0.8-4.1s-0.3-2.9-0.8-4.1c-0.6-1.2-1.4-2.1-2.4-2.7c-1-0.7-2.3-1-3.7-1l-4.6,0.1l0.1,15.7h4.5V250z"/>
	<path class="st12" d="M184.7,248l-9.4,0.1l-1.8,5.3l-3.6,0.1l8.4-23l3.5-0.1l8.7,22.8l-3.7,0.1L184.7,248z M183.5,244.7l-3.6-9.9
		l-3.5,10L183.5,244.7z"/>
	<path class="st12" d="M209.2,230.1l0.1,22.9h-2.9L196,237.6l0.1,15.5l-3.5,0.1l-0.1-22.9h2.9l10.4,15.4l-0.1-15.5L209.2,230.1z"/>
	<path class="st12" d="M217.9,251.8c-1.5-1-2.7-2.4-3.7-4.2c-0.8-1.8-1.3-3.8-1.3-6s0.4-4.3,1.3-6c0.8-1.8,2.1-3.2,3.6-4.3
		c1.5-1,3.2-1.5,5.2-1.5c1.5,0,2.9,0.3,4.2,1s2.4,1.5,3.2,2.8l-2.3,2.6c-1.4-1.8-3-2.7-5.1-2.7c-1.3,0-2.4,0.4-3.5,1.1
		c-1,0.7-1.8,1.7-2.4,2.9c-0.6,1.3-0.8,2.7-0.8,4.2s0.3,2.9,0.8,4.1c0.6,1.3,1.4,2.1,2.4,2.9c1,0.7,2.2,1,3.5,1c2,0,3.7-1,5-2.8
		l2.3,2.6c-0.8,1.3-2,2.2-3.2,2.9s-2.7,1-4.2,1C221.2,253.3,219.5,252.7,217.9,251.8z"/>
	<path class="st12" d="M248,249.1v3.5l-14.1,0.1l-0.1-22.9l13.7-0.1v3.5l-10.2,0.1v6l9.1-0.1v3.5l-9.1,0.1v6.3H248z"/>
</g>
<polygon class="st17" points="146.8,104.9 199,102.7 199,92.3 131.9,101 "/>
<polygon class="st17" points="160.8,156.5 135.2,157.5 88.6,146.5 "/>
<polygon class="st17" points="149.4,215.2 207.8,209.8 207.8,215.6 "/>
<polygon class="st17" points="89.1,215.6 149.4,215.2 87.7,229.7 "/>
</svg>
