<?xml version="1.0" encoding="utf-8"?>
<!-- Generator: Adobe Illustrator 22.1.0, SVG Export Plug-In . SVG Version: 6.00 Build 0)  -->
<svg version="1.1" id="Layer_1" xmlns="http://www.w3.org/2000/svg" xmlns:xlink="http://www.w3.org/1999/xlink" x="0px" y="0px"
	 viewBox="0 0 337 426" style="enable-background:new 0 0 337 426;" xml:space="preserve">
<style type="text/css">
	.st0{fill:#9CA7EF;}
	.st1{fill:#AAD0E0;}
	.st2{fill:#45ADD6;}
	.st3{fill:#6FDCCA;}
	.st4{fill:#F894A4;}
	.st5{fill:#F8B0BC;}
	.st6{fill:#D2FAD6;}
	.st7{fill:#DAD8E8;}
</style>
<title>LL illustration</title>
<g>
	<path class="st0" d="M132.5,403.7c0,0,2.6-241.2,13-335.1l24.8-48.2c0,0,2.6-3.9,5.2,0s20.9,22.2,23.5,30
		c2.6,7.8,6.5,28.7,3.9,49.6c-2.6,20.9-11.7,225.6-3.9,276.4c1.5,9.5,1.9,19.1,1.4,28.7L132.5,403.7z"/>
	<polygon class="st1" points="47.8,88.1 86.9,132.5 216,171.6 216,110.3 92.1,68.6 	"/>
	<polygon class="st2" points="86.9,132.5 47.8,88.1 42.6,92 81.7,136.4 210.8,175.5 216,171.6 	"/>
	<polygon class="st3" points="107.8,163.8 268.1,155.9 319,183.3 265.5,218.5 103.8,226.4 	"/>
	<polygon class="st2" points="319,183.3 265.5,218.5 103.8,226.4 105.1,230.3 266.8,222.4 319,188.5 	"/>
	<polygon class="st4" points="26.9,227.7 72.6,270.7 223.8,311.1 223.8,249.8 80.4,206.8 	"/>
	<polygon class="st5" points="26.9,227.7 23,232.9 68.6,275.9 219.9,316.3 223.8,311.1 72.6,270.7 	"/>
	<polygon class="st6" points="105.1,292.9 99.9,359.4 256.4,362 308.6,328.1 262.9,292.9 	"/>
	<polygon class="st7" points="308.6,328.1 308.6,328.1 256.4,362 99.9,359.4 99.9,365.9 257.7,367.2 308.6,332 308.6,328.1 	"/>
</g>
</svg>
