<?xml version="1.0" encoding="utf-8"?>
<!-- Generator: Adobe Illustrator 22.1.0, SVG Export Plug-In . SVG Version: 6.00 Build 0)  -->
<svg version="1.1" id="Layer_1" xmlns="http://www.w3.org/2000/svg" xmlns:xlink="http://www.w3.org/1999/xlink" x="0px" y="0px"
	 viewBox="0 0 330 426" style="enable-background:new 0 0 330 426;" xml:space="preserve">
<style type="text/css">
	.st0{fill:#D2FAD6;}
	.st1{fill:#3C347A;}
	.st2{opacity:0.3;fill:#191839;}
	.st3{fill:none;stroke:#FFFFFF;stroke-width:7;stroke-miterlimit:10;}
	.st4{fill:url(#SVGID_1_);}
	.st5{fill:#45ADD6;}
	.st6{opacity:0.8;enable-background:new    ;}
	.st7{fill:#FFFFFF;}
	.st8{fill:url(#SVGID_2_);}
	.st9{fill:#6FDCCA;}
	.st10{fill:url(#SVGID_3_);}
	.st11{fill:#503EA7;}
	.st12{fill:url(#SVGID_4_);}
	.st13{fill:#F894A4;}
	.st14{opacity:0.3;fill:#23146B;}
	.st15{opacity:0.3;fill:#FFFFFF;}
</style>
<title>LL illustration</title>
<g>
	<path class="st0" d="M114.7,363.2c13.3-68.3-9.7-229.6,14.9-295.9c4.3-11.5,28.1-42.7,28.1-42.7s2.6-3.8,5.2,0
		c2.5,3.8,20.9,21.8,23.5,29.5s6.5,28.3,3.9,48.8c-2.6,20.5-11.8,222.1-3.9,272.2c1.5,9.4,1.9,18.8,1.4,28.3
		c-23.1,9.7-44,5.9-67.8-7.1C120,396.4,109.9,387.8,114.7,363.2z"/>
	<path class="st1" d="M114.7,363.2c13.3-68.3-9.7-229.6,14.9-295.9c4.3-11.5,28.1-42.7,28.1-42.7s2.6-3.8,5.2,0
		c2.5,3.8,20.9,21.8,23.5,29.5s6.5,28.3,3.9,48.8c-2.6,20.5-11.8,222.1-3.9,272.2c1.5,9.4,1.9,18.8,1.4,28.3
		c-23.1,9.7-44,5.9-67.8-7.1C120,396.4,109.9,387.8,114.7,363.2z"/>
	<path class="st2" d="M191.1,89.3c0-15.5-2.7-29.2-4.8-35.2c-2.6-7.7-21-25.7-23.5-29.5c-0.4-0.7-0.9-1.1-1.3-1.4
		c-0.2-0.1-0.4-0.2-0.5-0.2c-0.1,0-0.1,0-0.2,0c4.4,9.5,2,37,2.3,43.5c0.7,13.1-26.3,17.2-40.9,31c-7.1,45.9-4.2,111.2-3.3,168.9
		c1.3,24.9,2.6,53,2.6,60.9c0,13,30.7-13.8,34.1-0.9c3.4,13,10-0.1,8,12.8c-2.2,14.3-8.4,23.3-8.2,37.1
		c0.2,10.2,11.8,22.3,17.6,31.6c0,0,0,0,0,0c3.6-1.1,7.1-1.7,10.7-2.9c0.9-0.3,1.9-0.7,2.9-1.1l1.1-1.1c0.6-9.4,0.1-18.9-1.4-28.3
		c-7.8-50.1,1.3-251.7,3.9-272.2C190.8,98,190.8,93.6,191.1,89.3z"/>
	<path class="st3" d="M137.1,89.5"/>
	<path class="st3" d="M135.6,389"/>
	<path class="st3" d="M149.1,87.8"/>
	
		<linearGradient id="SVGID_1_" gradientUnits="userSpaceOnUse" x1="41.6859" y1="328.7315" x2="209.9019" y2="328.7315" gradientTransform="matrix(1 0 0 1 -1.3678 -208.7524)">
		<stop  offset="0" style="stop-color:#6ABDDE"/>
		<stop  offset="1" style="stop-color:#AAD0E0"/>
	</linearGradient>
	<polygon class="st4" points="40.3,94.9 79.4,129.7 208.5,160.3 208.5,112.3 84.7,79.6 	"/>
	<polygon class="st5" points="79.8,129.6 40.7,94.8 35.5,97.9 74.6,132.6 203.7,163.2 208.9,160.3 	"/>
	<g class="st6">
		<path class="st7" d="M123.1,101.1l-0.8,22.2l-3.9-1l0.4-9.6l-10.9-2.9l-0.4,9.6l-3.9-1l0.8-22.2l3.9,1l-0.4,9.2l10.9,2.9l0.4-9.2
			L123.1,101.1z"/>
		<path class="st7" d="M143.8,125.6l-0.1,3.5l-15.8-4.2l0.8-22.2l15.3,4.1l-0.1,3.5l-11.5-3l-0.2,5.8l10.2,2.7l-0.1,3.4l-10.2-2.7
			l-0.2,6.1L143.8,125.6z"/>
		<path class="st7" d="M148.9,108l3.9,1l-0.8,18.8l11,2.9l-0.1,3.5l-14.9-4L148.9,108z"/>
		<path class="st7" d="M180.2,117.3c1.3,1,2.4,2.2,3,3.5c0.7,1.4,0.9,2.9,0.9,4.5c-0.1,1.6-0.5,2.9-1.2,3.9c-0.8,1-1.9,1.6-3.2,1.9
			c-1.4,0.3-3,0.1-4.8-0.3l-4.7-1.3L170,136l-3.9-1l0.8-22.2l8.7,2.3C177.3,115.5,178.9,116.2,180.2,117.3z M178.8,127.2
			c0.9-0.5,1.4-1.5,1.4-2.9s-0.4-2.7-1.2-3.6c-0.8-1-2.2-1.7-3.9-2.1l-4.6-1.2l-0.4,8.8l4.6,1.2
			C176.6,127.8,177.9,127.7,178.8,127.2z"/>
	</g>
	
		<linearGradient id="SVGID_2_" gradientUnits="userSpaceOnUse" x1="97.7692" y1="384.137" x2="312.9051" y2="384.137" gradientTransform="matrix(1 0 0 1 0 -208)">
		<stop  offset="0" style="stop-color:#AAD0E0"/>
		<stop  offset="1" style="stop-color:#D2FAD6"/>
	</linearGradient>
	<polygon class="st8" points="101.6,154.7 262,148.6 312.9,170.1 259.4,197.6 97.8,203.7 	"/>
	<polygon class="st9" points="312.9,170.1 259.4,197.6 97.8,203.7 99,206.8 260.7,200.7 312.9,174.1 	"/>
	<g class="st6">
		<path class="st7" d="M120.7,189.4c-1.3-0.4-2.4-1-3.2-1.8l1.2-3.2c0.8,0.7,1.7,1.2,2.8,1.6c1.1,0.4,2.3,0.5,3.4,0.5
			c1.4-0.1,2.4-0.4,3.1-1c0.7-0.6,1-1.3,1-2.1c0-0.7-0.2-1.2-0.6-1.5c-0.4-0.4-0.8-0.7-1.5-0.9c-0.7-0.2-1.4-0.4-2.4-0.7
			c-1.4-0.3-2.6-0.7-3.5-1c-0.8-0.4-1.7-1-2.3-1.8c-0.7-0.8-0.9-2-0.9-3.4c0-1.3,0.3-2.4,0.8-3.4c0.6-1,1.4-1.9,2.5-2.5
			c1.1-0.7,2.5-1,4.2-1.1c1.1-0.1,2.3,0,3.4,0.3c1.1,0.3,2.1,0.7,2.9,1.3l-1.1,3.2c-0.8-0.5-1.7-0.9-2.6-1.2
			c-0.9-0.2-1.8-0.4-2.6-0.3c-1.4,0.1-2.4,0.4-3.1,1c-0.7,0.6-1,1.3-1,2.2c0,0.7,0.2,1.1,0.6,1.5c0.4,0.4,0.8,0.7,1.5,0.9
			c0.6,0.2,1.4,0.4,2.4,0.7c1.4,0.3,2.5,0.7,3.5,1c0.9,0.4,1.7,1,2.4,1.8c0.7,0.8,0.9,1.9,0.9,3.4c0,1.3-0.3,2.4-0.8,3.4
			c-0.6,1-1.4,1.8-2.5,2.5c-1.1,0.7-2.5,1-4.2,1.1C123.4,189.9,122,189.8,120.7,189.4z"/>
		<path class="st7" d="M138,186.5c-1.4-1.6-2.2-4.1-2.2-7.3v-12.5l3.5-0.2v12.4c0,4.3,1.6,6.4,4.8,6.3c3.2-0.2,4.8-2.4,4.8-6.8
			v-12.4l3.5-0.2v12.5c0,3.2-0.8,5.7-2.2,7.5c-1.4,1.8-3.5,2.8-6.1,2.9C141.5,188.8,139.5,188.1,138,186.5z"/>
		<path class="st7" d="M169.3,165.7c1.2,0.6,2.2,1.4,2.8,2.6c0.7,1.2,0.9,2.5,0.9,4.1c0,1.6-0.3,3-0.9,4.3c-0.7,1.3-1.6,2.2-2.8,2.9
			c-1.2,0.7-2.6,1.1-4.2,1.2l-4.2,0.2v6.4l-3.5,0.2v-22.2l7.8-0.4C166.7,164.9,168.1,165.2,169.3,165.7z M168.4,176
			c0.8-0.8,1.2-1.9,1.2-3.3s-0.4-2.5-1.2-3.2c-0.8-0.7-2-1-3.5-1l-4.1,0.2v8.8l4.1-0.2C166.4,177.2,167.5,176.8,168.4,176z"/>
		<path class="st7" d="M188.6,164.6c1.2,0.6,2.2,1.4,2.8,2.6c0.7,1.2,0.9,2.5,0.9,4.1s-0.3,3-0.9,4.3c-0.7,1.3-1.6,2.2-2.8,2.9
			c-1.2,0.7-2.6,1.1-4.2,1.2l-4.2,0.2v6.4l-3.5,0.2v-22.2l7.8-0.4C186,163.8,187.4,164,188.6,164.6z M187.7,174.8
			c0.8-0.8,1.2-1.9,1.2-3.3s-0.4-2.5-1.2-3.2c-0.8-0.7-2-1-3.5-1l-4.1,0.2v8.8l4.1-0.2C185.7,176.1,186.9,175.7,187.7,174.8z"/>
		<path class="st7" d="M199.8,184c-1.5-0.9-2.7-2.2-3.7-3.9c-0.8-1.7-1.3-3.6-1.3-5.7c0-2.1,0.5-4.1,1.3-5.9
			c0.8-1.8,2.1-3.2,3.7-4.3c1.5-1.1,3.3-1.7,5.2-1.8c1.9-0.1,3.7,0.3,5.2,1.2s2.7,2.2,3.7,3.8c0.8,1.7,1.3,3.6,1.3,5.7
			c0,2.2-0.5,4.1-1.3,6c-0.8,1.8-2.1,3.2-3.7,4.3c-1.5,1.1-3.3,1.7-5.2,1.8C203.1,185.3,201.3,184.9,199.8,184z M208.3,180.4
			c1-0.7,1.8-1.7,2.4-2.9s0.8-2.6,0.8-4.1s-0.3-2.8-0.8-4c-0.6-1.2-1.4-2.1-2.4-2.7c-1-0.6-2.2-0.9-3.4-0.8s-2.4,0.4-3.4,1.2
			s-1.8,1.7-2.4,2.9c-0.6,1.3-0.8,2.6-0.8,4.1s0.3,2.8,0.8,4c0.6,1.2,1.4,2.1,2.4,2.7c1,0.6,2.2,0.9,3.4,0.8
			C206.2,181.5,207.4,181.1,208.3,180.4z"/>
		<path class="st7" d="M231.2,183.3l-3.9-6.3c-0.2,0-0.4,0.1-0.8,0.1l-4.2,0.2v6.5l-3.5,0.2v-22.2l7.8-0.4c1.6-0.1,3.1,0.1,4.2,0.7
			c1.2,0.6,2.2,1.4,2.8,2.6c0.7,1.2,0.9,2.5,0.9,4.1c0,1.7-0.4,3.1-1,4.3c-0.7,1.3-1.7,2.2-3,2.9l4.3,7L231.2,183.3z M230,165.9
			c-0.8-0.7-2-1-3.5-1l-4.1,0.2v8.8l4.1-0.2c1.5-0.1,2.7-0.5,3.5-1.3s1.2-1.9,1.2-3.3C231.1,167.6,230.7,166.6,230,165.9z"/>
		<path class="st7" d="M242.1,164l-6.3,0.4v-3.5l16-1v3.5l-6.3,0.4v18.7l-3.5,0.2L242.1,164L242.1,164L242.1,164z"/>
	</g>
	
		<linearGradient id="SVGID_3_" gradientUnits="userSpaceOnUse" x1="20.7603" y1="437.2753" x2="217.6548" y2="437.2753" gradientTransform="matrix(1 0 0 1 0 -208)">
		<stop  offset="0" style="stop-color:#503EA7"/>
		<stop  offset="1" style="stop-color:#5D7FAE"/>
	</linearGradient>
	<polygon class="st10" points="20.8,204.7 66.5,238.5 217.7,270.2 217.7,222.1 74.3,188.4 	"/>
	<polygon class="st11" points="20.8,204.7 16.9,208.9 62.5,242.5 213.8,274.2 217.7,270.2 66.5,238.5 	"/>
	<g class="st6">
		<path class="st7" d="M98.5,224l-8.8-2l-1.8,4.6l-3.4-0.7l8-19.8l3.2,0.7l7.9,23.4l-3.5-0.8L98.5,224z M97.5,220.6l-3.3-10.2
			l-3.4,8.7L97.5,220.6z"/>
		<path class="st7" d="M106,209l7.7,1.8c1.9,0.4,3.6,1.3,5,2.5c1.5,1.3,2.6,2.7,3.4,4.6c0.8,1.8,1.2,3.8,1.2,6s-0.4,3.9-1.2,5.4
			s-2,2.4-3.4,3c-1.5,0.6-3.1,0.7-5,0.2l-7.7-1.8V209z M113.6,229c1.3,0.3,2.4,0.2,3.4-0.1c0.9-0.4,1.8-1.1,2.3-2.1
			c0.6-1,0.8-2.2,0.8-3.8c0-1.5-0.3-2.9-0.8-4.1c-0.6-1.3-1.3-2.3-2.3-3.1c-0.9-0.8-2.2-1.4-3.4-1.7l-4.3-1l-0.1,14.8L113.6,229z"/>
		<path class="st7" d="M142.5,217.3l-7.8,19.9l-3.2-0.7l-7.6-23.3l3.6,0.8l5.8,18l6-15.3L142.5,217.3z"/>
		<path class="st7" d="M144.4,217.8l3.3,0.7l-0.1,21.7l-3.3-0.7L144.4,217.8z"/>
		<path class="st7" d="M155.7,240.8c-1.4-1.3-2.5-2.9-3.4-4.7c-0.8-1.8-1.2-3.9-1.2-6c0-2.1,0.5-3.9,1.2-5.5c0.8-1.5,2-2.6,3.4-3.2
			c1.4-0.6,3.1-0.7,4.8-0.4c1.4,0.3,2.7,1,3.9,1.8s2.2,2,3,3.4l-2.2,2c-1.3-2-2.8-3.2-4.7-3.6c-1.2-0.3-2.3-0.2-3.3,0.2
			c-0.9,0.4-1.7,1.2-2.3,2.2c-0.6,1-0.8,2.3-0.8,3.8s0.3,2.8,0.8,4.1c0.6,1.3,1.3,2.4,2.3,3.2c0.9,0.9,2.1,1.5,3.3,1.7
			c1.9,0.4,3.5-0.1,4.7-1.5l2.1,2.9c-0.8,1-1.9,1.6-3,2c-1.2,0.4-2.5,0.4-3.9,0C158.8,243,157.1,242.1,155.7,240.8z"/>
		<path class="st7" d="M184,245v3.4l-13.3-3l0.1-21.7l12.9,2.9v3.4l-9.6-2.2v5.6l8.6,1.9v3.3l-8.6-1.9v6L184,245z"/>
	</g>
	
		<linearGradient id="SVGID_4_" gradientUnits="userSpaceOnUse" x1="93.82" y1="498.2204" x2="302.468" y2="498.2204" gradientTransform="matrix(1 0 0 1 0 -208)">
		<stop  offset="0" style="stop-color:#F894A4"/>
		<stop  offset="1" style="stop-color:#FBBFC8"/>
	</linearGradient>
	<polygon class="st12" points="99,263.2 93.8,315.3 250.3,317.3 302.5,290.8 256.8,263.2 	"/>
	<polygon class="st13" points="302.5,290.8 302.5,290.8 250.3,316.1 93.8,314.2 93.8,316.1 251.6,320 302.5,293.7 	"/>
	<g class="st6">
		<path class="st7" d="M122.8,290h3.3l0.1,9.1c-0.9,1-2.1,1.7-3.4,2.2c-1.3,0.5-2.6,0.8-3.9,0.8c-1.9,0-3.7-0.4-5.2-1.5
			c-1.5-1-2.7-2.4-3.7-4.2c-0.8-1.8-1.3-3.8-1.3-6c0-2.2,0.4-4.3,1.3-6c0.8-1.8,2.1-3.2,3.6-4.3c1.5-1,3.3-1.5,5.2-1.5
			c1.6,0,3,0.3,4.3,0.9c1.3,0.6,2.4,1.5,3.3,2.7l-2.2,2.7c-1.4-1.7-3.2-2.6-5.2-2.6c-1.3,0-2.5,0.4-3.6,1c-1,0.7-1.8,1.6-2.4,2.9
			c-0.6,1.3-0.8,2.7-0.8,4.2c0,1.5,0.3,2.9,0.9,4.1c0.6,1.2,1.4,2.1,2.4,2.9c1,0.7,2.2,1,3.5,1c1.5,0,2.7-0.4,3.9-1.3L122.8,290z"/>
		<path class="st7" d="M132.7,299.2c-1.5-1.8-2.2-4.3-2.3-7.6l-0.1-12.9l3.5-0.1l0.1,12.7c0,4.5,1.6,6.7,4.8,6.7s4.7-2.3,4.7-6.8
			l-0.1-12.7l3.5-0.1l0.1,12.9c0,3.3-0.7,5.9-2.2,7.7c-1.4,1.8-3.5,2.7-6,2.7C136.2,301.8,134.2,301,132.7,299.2z"/>
		<path class="st7" d="M151.8,278.5l3.5-0.1l0.1,22.9l-3.5,0.1L151.8,278.5z"/>
		<path class="st7" d="M160.4,278.4l8.2-0.1c2,0,3.8,0.4,5.4,1.4c1.6,1,2.8,2.3,3.7,4s1.3,3.8,1.3,6c0,2.3-0.4,4.3-1.2,6
			c-0.8,1.8-2.1,3.1-3.6,4.1c-1.6,1-3.3,1.5-5.4,1.5l-8.2,0.1L160.4,278.4z M168.6,297.6c1.4,0,2.6-0.4,3.7-1c1-0.7,1.9-1.5,2.4-2.8
			c0.6-1.2,0.8-2.6,0.8-4.1c0-1.5-0.3-2.9-0.8-4.1c-0.6-1.2-1.4-2.1-2.4-2.7c-1-0.7-2.3-1-3.7-1l-4.6,0.1l0.1,15.7H168.6z"/>
		<path class="st7" d="M194.6,295.6l-9.4,0.1l-1.8,5.3l-3.6,0.1l8.4-23l3.5-0.1l8.7,22.8l-3.7,0.1L194.6,295.6z M193.4,292.3
			l-3.6-9.9l-3.5,10L193.4,292.3z"/>
		<path class="st7" d="M219.1,277.7l0.1,22.9h-2.9l-10.4-15.4l0.1,15.5l-3.5,0.1l-0.1-22.9h2.9l10.4,15.4l-0.1-15.5L219.1,277.7z"/>
		<path class="st7" d="M227.8,299.4c-1.5-1-2.7-2.4-3.7-4.2c-0.8-1.8-1.3-3.8-1.3-6c0-2.2,0.4-4.3,1.3-6c0.8-1.8,2.1-3.2,3.6-4.3
			c1.5-1,3.2-1.5,5.2-1.5c1.5,0,2.9,0.3,4.2,1s2.4,1.5,3.2,2.8l-2.3,2.6c-1.4-1.8-3-2.7-5.1-2.7c-1.3,0-2.4,0.4-3.5,1.1
			c-1,0.7-1.8,1.7-2.4,2.9c-0.6,1.3-0.8,2.7-0.8,4.2c0,1.5,0.3,2.9,0.8,4.1c0.6,1.3,1.4,2.1,2.4,2.9c1,0.7,2.2,1,3.5,1
			c2,0,3.7-1,5-2.8l2.3,2.6c-0.8,1.3-2,2.2-3.2,2.9s-2.7,1-4.2,1C231.1,300.9,229.4,300.3,227.8,299.4z"/>
		<path class="st7" d="M257.9,296.7v3.5l-14.1,0.1l-0.1-22.9l13.7-0.1v3.5l-10.2,0.1v6l9.1-0.1v3.5l-9.1,0.1v6.3L257.9,296.7z"/>
	</g>
	<polygon class="st14" points="156.7,152.5 208.9,150.3 208.9,139.9 141.8,148.6 	"/>
	<polygon class="st14" points="170.7,204.1 145.1,205.1 98.5,194.1 	"/>
	<polygon class="st14" points="159.3,262.8 217.7,257.4 217.7,263.2 	"/>
	<polygon class="st14" points="99,263.2 159.3,262.8 97.6,277.3 	"/>
	<path class="st15" d="M151,41c-6.4,6.4-13.3,19.9-16.3,30.2s11.4,5.5,17-1.4c5.6-6.9,5.9-33.3,5.9-33.3S152.4,39.7,151,41z"/>
</g>
</svg>
