<svg xmlns="http://www.w3.org/2000/svg" viewBox="0 0 921 601"><defs><style>.cls-1{fill:#6a52de;}.cls-2{opacity:0.6;}.cls-3{fill:#5d7fae;}.cls-4{fill:#dad8e8;}.cls-47,.cls-5{fill:#503ea7;}.cls-24,.cls-6{fill:#35296f;}.cls-13,.cls-20,.cls-21,.cls-22,.cls-40,.cls-7{fill:none;}.cls-13,.cls-40,.cls-7{stroke:#fff;}.cls-13,.cls-20,.cls-21,.cls-22,.cls-26,.cls-40,.cls-7{stroke-miterlimit:10;}.cls-20,.cls-21,.cls-22,.cls-26,.cls-7{stroke-width:3px;}.cls-8{fill:#d2fad6;}.cls-9{fill:#85b4c7;}.cls-10{fill:#6fdcca;}.cls-11,.cls-26{fill:#f9a9b6;}.cls-12{fill:#f9f8fe;}.cls-13{stroke-width:2px;}.cls-14{fill:#9ca7ef;}.cls-15{fill:#ccc4f4;}.cls-16,.cls-41{fill:#fff;}.cls-17{fill:#23576b;}.cls-18{fill:#9ca8ef;}.cls-19{fill:#aad0e0;}.cls-20{stroke:#6a52de;}.cls-21{stroke:#323071;}.cls-22{stroke:#503ea7;}.cls-23,.cls-28,.cls-34{fill:#23146b;}.cls-23,.cls-24,.cls-47{opacity:0.5;}.cls-25,.cls-39{fill:#3482a1;}.cls-26{stroke:#f9a9b6;}.cls-27{fill:#323071;}.cls-28,.cls-39{opacity:0.8;}.cls-29{opacity:0.7;}.cls-30{fill:#d6e6ec;}.cls-31{opacity:0.3;}.cls-32{fill:#c7c5d4;}.cls-33{fill:#f8b0bc;}.cls-35{fill:#b5deef;}.cls-36{fill:#6abdde;}.cls-37{fill:#45add6;}.cls-38{fill:#8875e5;}.cls-40{stroke-width:6px;}.cls-41,.cls-43{opacity:0.2;}.cls-42,.cls-43,.cls-44{fill:#191839;}.cls-44{opacity:0.4;}.cls-45{fill:#f894a4;}.cls-46{fill:#fcd4db;}</style></defs><title>Artboard 1</title><g id="Layer_6" data-name="Layer 6"><rect class="cls-1" x="185" y="436" width="4" height="43"/></g><g id="Layer_9" data-name="Layer 9"><polygon class="cls-3" points="113.5 574.19 169.5 573.06 169.9 582.06 113.5 582.06 113.5 574.19"/><polygon class="cls-3" points="125.71 523.99 229 523.99 229 532.99 175.85 552.99 140.75 548.99 125.71 545.99 125.71 523.99"/><polygon class="cls-3" points="136 544.22 152 541.99 154 558.68 136 560.99 136 544.22"/><polygon class="cls-4" points="183 533.99 183 541.99 229 544.99 229 532.99 183 533.99"/><polygon class="cls-5" points="152.64 547.45 174 546.99 174.46 555.99 154 555.47 152.64 547.45"/><polygon class="cls-3" points="201 539.99 215 539.99 228 542.99 228 567.99 223 567.99 201 539.99"/><polygon class="cls-6" points="125.71 462.99 176 462.99 175.87 472.87 154.88 472.99 155.16 503.49 150.85 506.99 131.74 507.99 125.71 503.99 125.71 462.99"/><line class="cls-7" x1="125.71" y1="529.99" x2="229" y2="529.99"/><path class="cls-8" d="M174.5,555.32l-.5-10.94s23-5.47,27-4.37,22,6.56,22,6.56V569"/><polygon class="cls-9" points="113.5 559.79 161.5 557.79 160.46 573.79 113.5 574.79 113.5 559.79"/><path class="cls-10" d="M180,430s6-4,9-4,8-1,11-1,20-2,20-2v53l-40-1V430Z"/><polygon class="cls-11" points="113.5 543.99 136 543.99 136 558.87 113.5 560.99 113.5 543.99"/><polygon class="cls-11" points="160 567.99 228 567.99 228.01 581.99 169.9 582.06 169 573.99 160 573.8 160 567.99"/><polygon class="cls-12" points="154 557.21 154 553.99 213 556.14 213 560.42 219 560.42 219 567.92 160 568.99 161 558.28 154 557.21"/><line class="cls-13" x1="126" y1="523.99" x2="229" y2="523.99"/><rect class="cls-3" x="129" y="472.99" width="8" height="3"/><rect class="cls-3" x="139" y="472.99" width="8" height="3"/><rect class="cls-3" x="149" y="472.99" width="8" height="3"/><rect class="cls-3" x="129" y="478.99" width="8" height="3"/><rect class="cls-3" x="139" y="478.99" width="8" height="3"/><rect class="cls-3" x="149" y="478.99" width="8" height="3"/><rect class="cls-3" x="129" y="484.99" width="8" height="3"/><rect class="cls-3" x="139" y="484.99" width="8" height="3"/><rect class="cls-3" x="149" y="484.99" width="8" height="3"/><rect class="cls-3" x="129" y="489.99" width="8" height="3"/><rect class="cls-3" x="139" y="489.99" width="8" height="3"/><rect class="cls-3" x="149" y="489.99" width="8" height="3"/><rect class="cls-3" x="129" y="495.99" width="8" height="3"/><rect class="cls-3" x="139" y="495.99" width="8" height="3"/><rect class="cls-3" x="149" y="495.99" width="8" height="3"/><rect class="cls-3" x="129" y="500.99" width="8" height="3"/><rect class="cls-3" x="139" y="500.99" width="8" height="3"/><rect class="cls-3" x="149" y="500.99" width="8" height="3"/><polygon class="cls-14" points="155.07 503.49 154.81 472.99 210 472.99 209.67 514.99 153.79 507.99 155.07 503.49"/><polygon class="cls-15" points="229 422.99 223 422.99 220 426.06 220 431.16 208 431.16 208 433.2 210 433.2 209.51 478.07 209 523.99 219 523.99 229 523.99 229 422.99"/><rect class="cls-3" x="212" y="435.99" width="6" height="5"/><rect class="cls-3" x="221" y="436.99" width="6" height="4"/><rect class="cls-3" x="212" y="442.99" width="6" height="5"/><rect class="cls-3" x="221" y="443.99" width="6" height="4"/><rect class="cls-3" x="212" y="449.99" width="6" height="5"/><rect class="cls-3" x="221" y="450.99" width="6" height="4"/><rect class="cls-3" x="212" y="456.99" width="6" height="5"/><rect class="cls-3" x="221" y="457.99" width="6" height="4"/><rect class="cls-3" x="212" y="463.99" width="6" height="5"/><rect class="cls-3" x="221" y="464.99" width="6" height="4"/><rect class="cls-3" x="212" y="470.99" width="6" height="5"/><rect class="cls-3" x="221" y="471.99" width="6" height="4"/><rect class="cls-3" x="212" y="477.99" width="6" height="5"/><rect class="cls-3" x="221" y="478.99" width="6" height="4"/><rect class="cls-3" x="212" y="484.99" width="6" height="5"/><rect class="cls-3" x="221" y="485.99" width="6" height="4"/><rect class="cls-3" x="212" y="492.99" width="6" height="5"/><rect class="cls-3" x="221" y="493.99" width="6" height="4"/><rect class="cls-3" x="212" y="499.99" width="6" height="5"/><rect class="cls-3" x="221" y="500.99" width="6" height="4"/><rect class="cls-3" x="212" y="506.99" width="6" height="5"/><rect class="cls-3" x="221" y="507.99" width="6" height="4"/><rect class="cls-3" x="212" y="513.99" width="6" height="5"/><rect class="cls-3" x="221" y="514.99" width="6" height="4"/><polygon class="cls-3" points="201 491.99 201 515.99 209.41 515.99 211 492.99 201 491.99"/><polygon class="cls-16" points="159 478.99 164 478.99 164 482.99 159 482.99 159 479.99 159 478.99"/><polygon class="cls-16" points="165 478.99 170 478.99 170 482.99 165 482.99 165 479.99 165 478.99"/><polygon class="cls-16" points="171 478.99 176 478.99 176 482.99 171 482.99 171 479.99 171 478.99"/><polygon class="cls-16" points="178 478.99 183 478.99 183 482.99 178 482.99 178 479.99 178 478.99"/><polygon class="cls-16" points="184 478.99 189 478.99 189 482.99 184 482.99 184 479.99 184 478.99"/><polygon class="cls-16" points="190 478.99 195 478.99 195 482.99 190 482.99 190 479.99 190 478.99"/><polygon class="cls-16" points="196 478.99 201 478.99 201 482.99 196 482.99 196 479.99 196 478.99"/><polygon class="cls-16" points="202 478.99 207 478.99 207 482.99 202 482.99 202 479.99 202 478.99"/><polygon class="cls-16" points="196 484.99 201 484.99 201 488.99 196 488.99 196 485.99 196 484.99"/><polygon class="cls-16" points="202 484.99 207 484.99 207 488.99 202 488.99 202 485.99 202 484.99"/><polygon class="cls-16" points="159 484.99 164 484.99 164 488.99 159 488.99 159 485.99 159 484.99"/><polygon class="cls-16" points="165 484.99 170 484.99 170 488.99 165 488.99 165 485.99 165 484.99"/><polygon class="cls-16" points="171 484.99 176 484.99 176 488.99 171 488.99 171 485.99 171 484.99"/><polygon class="cls-16" points="178 484.99 183 484.99 183 488.99 178 488.99 178 485.99 178 484.99"/><polygon class="cls-16" points="184 484.99 189 484.99 189 488.99 184 488.99 184 485.99 184 484.99"/><polygon class="cls-16" points="190 484.99 195 484.99 195 488.99 190 488.99 190 485.99 190 484.99"/><polygon class="cls-16" points="159 490.99 164 490.99 164 494.99 159 494.99 159 491.99 159 490.99"/><polygon class="cls-16" points="165 490.99 170 490.99 170 494.99 165 494.99 165 491.99 165 490.99"/><polygon class="cls-16" points="171 490.99 176 490.99 176 494.99 171 494.99 171 491.99 171 490.99"/><polygon class="cls-16" points="178 490.99 183 490.99 183 494.99 178 494.99 178 491.99 178 490.99"/><polygon class="cls-16" points="184 490.99 189 490.99 189 494.99 184 494.99 184 491.99 184 490.99"/><polygon class="cls-16" points="159 496.99 164 496.99 164 500.99 159 500.99 159 497.99 159 496.99"/><polygon class="cls-16" points="165 496.99 170 496.99 170 500.99 165 500.99 165 497.99 165 496.99"/><polygon class="cls-16" points="171 496.99 176 496.99 176 500.99 171 500.99 171 497.99 171 496.99"/><polygon class="cls-16" points="178 496.99 183 496.99 183 500.99 178 500.99 178 497.99 178 496.99"/><polygon class="cls-16" points="159 501.99 164 501.99 164 505.99 159 505.99 159 502.99 159 501.99"/><polygon class="cls-16" points="165 501.99 170 501.99 170 505.99 165 505.99 165 502.99 165 501.99"/><polygon class="cls-16" points="171 501.99 176 501.99 176 505.99 171 505.99 171 502.99 171 501.99"/><polygon class="cls-16" points="178 501.99 183 501.99 183 505.99 178 505.99 178 502.99 178 501.99"/><path class="cls-17" d="M163.55,506s0-.05,0-.15c.13-.82,1.05-4.74,6.43-3.85,6,1,9,3,11,3h5v10l-21-1Z"/><path class="cls-10" d="M125.71,501s5,1,7,3,8,4,9,2,17.09-4,17.09-1,1-1,7,2,3,6,7,6,7-4,9-4,4,3,4,3l1,9-61.29-2Z"/><polygon class="cls-6" points="186.22 513.99 209.46 514.99 209.41 518.99 186.5 518.49 186.22 514.99 186.22 513.99"/><polygon class="cls-11" points="201 491.99 186 490.99 186 514.99 201 515.99 201 491.99"/><polygon class="cls-11" points="125.71 510.99 161.85 510.99 161.85 516.76 212 517.34 211.64 523.99 125.71 525.99 125.71 510.99"/><rect class="cls-5" x="181" y="474.99" width="8" height="3"/><rect class="cls-5" x="190" y="474.99" width="8" height="3"/><rect class="cls-5" x="199" y="474.99" width="8" height="3"/><rect class="cls-3" x="186" y="430.99" width="2" height="3"/><rect class="cls-3" x="196" y="430.99" width="2" height="3"/><rect class="cls-3" x="189" y="455.99" width="2" height="3"/><rect class="cls-3" x="196" y="436.99" width="7" height="3"/><rect class="cls-3" x="185" y="442.99" width="7" height="3"/><rect class="cls-3" x="190.5" y="436.49" width="2" height="3"/><rect class="cls-3" x="199" y="446.99" width="2" height="3"/><rect class="cls-3" x="196" y="452.99" width="2" height="3"/><rect class="cls-3" x="195" y="441.99" width="2" height="3"/><rect class="cls-3" x="188" y="448.99" width="2" height="3"/><rect class="cls-3" x="198" y="441.99" width="2" height="3"/><rect class="cls-3" x="201" y="441.99" width="2" height="3"/><rect class="cls-3" x="182" y="435.99" width="2" height="3"/><rect class="cls-3" x="202" y="430.99" width="2" height="3"/><rect class="cls-3" x="183" y="453.99" width="2" height="3"/><rect class="cls-3" x="204" y="452.99" width="2" height="3"/><polygon class="cls-18" points="23 343.99 24 25.99 37 21.99 51 24.99 51 28.99 66 28.99 66 67.99 85 71.99 85 97.99 93 106.99 102 107.99 107 111.99 111 111.99 113 317.99 23 343.99"/><line class="cls-7" x1="93" y1="114.99" x2="108" y2="117.99"/><line class="cls-7" x1="93" y1="120.99" x2="108" y2="123.99"/><line class="cls-7" x1="93" y1="126.99" x2="108" y2="129.99"/><line class="cls-7" x1="93" y1="131.99" x2="108" y2="134.99"/><line class="cls-7" x1="93" y1="137.99" x2="108" y2="140.99"/><line class="cls-7" x1="93" y1="143.99" x2="108" y2="146.99"/><line class="cls-7" x1="93" y1="149.99" x2="108" y2="152.99"/><line class="cls-7" x1="93" y1="155.99" x2="108" y2="158.99"/><line class="cls-7" x1="93" y1="161.99" x2="108" y2="164.99"/><line class="cls-7" x1="93" y1="167.99" x2="108" y2="170.99"/><line class="cls-7" x1="93" y1="173.99" x2="108" y2="176.99"/><line class="cls-7" x1="93" y1="179.99" x2="108" y2="182.99"/><line class="cls-7" x1="93" y1="184.99" x2="108" y2="187.99"/><line class="cls-7" x1="93" y1="190.99" x2="108" y2="193.99"/><line class="cls-7" x1="93" y1="196.99" x2="108" y2="199.99"/><line class="cls-7" x1="93" y1="202.99" x2="108" y2="205.99"/><line class="cls-7" x1="93" y1="208.99" x2="108" y2="211.99"/><line class="cls-7" x1="93" y1="214.99" x2="108" y2="217.99"/><line class="cls-7" x1="93" y1="220.99" x2="108" y2="223.99"/><line class="cls-7" x1="93" y1="226.99" x2="108" y2="229.99"/><line class="cls-7" x1="93" y1="232.99" x2="108" y2="235.99"/><line class="cls-7" x1="93" y1="237.99" x2="108" y2="240.99"/><line class="cls-7" x1="93" y1="243.99" x2="108" y2="246.99"/><line class="cls-7" x1="93" y1="249.99" x2="108" y2="252.99"/><line class="cls-7" x1="93" y1="255.99" x2="108" y2="258.99"/><line class="cls-7" x1="93" y1="261.99" x2="108" y2="264.99"/><line class="cls-7" x1="93" y1="267.99" x2="108" y2="270.99"/><line class="cls-7" x1="93" y1="273.99" x2="108" y2="276.99"/><line class="cls-7" x1="93" y1="279.99" x2="108" y2="282.99"/><line class="cls-7" x1="93" y1="285.99" x2="108" y2="288.99"/><line class="cls-7" x1="93" y1="290.99" x2="108" y2="293.99"/><line class="cls-7" x1="93" y1="296.99" x2="108" y2="299.99"/><line class="cls-7" x1="93" y1="302.99" x2="108" y2="305.99"/><line class="cls-7" x1="93" y1="308.99" x2="108" y2="311.99"/><line class="cls-7" x1="93" y1="314.99" x2="108" y2="317.99"/><line class="cls-7" x1="93" y1="320.99" x2="108" y2="323.99"/><polygon class="cls-19" points="37.5 24.49 37.5 317.49 47.5 317.49 47.5 27.49 37.5 24.49"/><line class="cls-20" x1="26" y1="27.99" x2="34" y2="25.99"/><line class="cls-20" x1="26" y1="32.99" x2="34" y2="30.99"/><line class="cls-20" x1="26" y1="38.99" x2="34" y2="36.99"/><line class="cls-20" x1="26" y1="44.99" x2="34" y2="42.99"/><line class="cls-20" x1="26" y1="50.99" x2="34" y2="48.99"/><line class="cls-20" x1="26" y1="55.99" x2="34" y2="53.99"/><line class="cls-20" x1="26" y1="61.99" x2="34" y2="59.99"/><line class="cls-20" x1="26" y1="67.99" x2="34" y2="65.99"/><line class="cls-20" x1="26" y1="73.99" x2="34" y2="71.99"/><line class="cls-20" x1="26" y1="78.99" x2="34" y2="76.99"/><line class="cls-20" x1="26" y1="84.99" x2="34" y2="82.99"/><line class="cls-20" x1="26" y1="90.99" x2="34" y2="88.99"/><line class="cls-20" x1="26" y1="96.99" x2="34" y2="94.99"/><line class="cls-20" x1="26" y1="101.99" x2="34" y2="99.99"/><line class="cls-20" x1="26" y1="107.99" x2="34" y2="105.99"/><line class="cls-20" x1="26" y1="113.99" x2="34" y2="111.99"/><line class="cls-20" x1="26" y1="119.99" x2="34" y2="117.99"/><line class="cls-20" x1="26" y1="124.99" x2="34" y2="122.99"/><line class="cls-20" x1="26" y1="130.99" x2="34" y2="128.99"/><line class="cls-20" x1="26" y1="136.99" x2="34" y2="134.99"/><line class="cls-20" x1="26" y1="142.99" x2="34" y2="140.99"/><line class="cls-20" x1="26" y1="147.99" x2="34" y2="145.99"/><line class="cls-20" x1="26" y1="153.99" x2="34" y2="151.99"/><line class="cls-20" x1="26" y1="159.99" x2="34" y2="157.99"/><line class="cls-20" x1="26" y1="166.99" x2="34" y2="164.99"/><line class="cls-20" x1="26" y1="171.99" x2="34" y2="169.99"/><line class="cls-20" x1="26" y1="177.99" x2="34" y2="175.99"/><line class="cls-20" x1="26" y1="183.99" x2="34" y2="181.99"/><line class="cls-20" x1="26" y1="189.99" x2="34" y2="187.99"/><line class="cls-20" x1="26" y1="194.99" x2="34" y2="192.99"/><line class="cls-20" x1="26" y1="200.99" x2="34" y2="198.99"/><line class="cls-20" x1="26" y1="206.99" x2="34" y2="204.99"/><line class="cls-20" x1="26" y1="212.99" x2="34" y2="210.99"/><line class="cls-20" x1="26" y1="217.99" x2="34" y2="215.99"/><line class="cls-20" x1="26" y1="223.99" x2="34" y2="221.99"/><line class="cls-20" x1="26" y1="229.99" x2="34" y2="227.99"/><line class="cls-20" x1="26" y1="236.99" x2="34" y2="234.99"/><line class="cls-20" x1="26" y1="241.99" x2="34" y2="239.99"/><line class="cls-20" x1="26" y1="247.99" x2="34" y2="245.99"/><line class="cls-20" x1="26" y1="253.99" x2="34" y2="251.99"/><line class="cls-20" x1="26" y1="259.99" x2="34" y2="257.99"/><line class="cls-20" x1="26" y1="264.99" x2="34" y2="262.99"/><line class="cls-20" x1="26" y1="270.99" x2="34" y2="268.99"/><line class="cls-20" x1="26" y1="276.99" x2="34" y2="274.99"/><line class="cls-20" x1="26" y1="282.99" x2="34" y2="280.99"/><line class="cls-20" x1="26" y1="287.99" x2="34" y2="285.99"/><line class="cls-20" x1="26" y1="293.99" x2="34" y2="291.99"/><line class="cls-20" x1="26" y1="299.99" x2="34" y2="297.99"/><line class="cls-21" x1="50.5" y1="37.49" x2="62.5" y2="37.49"/><line class="cls-21" x1="51" y1="46.49" x2="63" y2="46.49"/><line class="cls-21" x1="51" y1="55.49" x2="63" y2="55.49"/><line class="cls-21" x1="51" y1="62.49" x2="63" y2="62.49"/><polygon class="cls-16" points="69 115.99 69 123.99 89 126.99 89 118.99 69 115.99"/><polygon class="cls-16" points="69 127.99 69 135.99 89 138.99 89 130.99 69 127.99"/><polygon class="cls-16" points="69 140.99 69 148.99 89 151.99 89 143.99 69 140.99"/><polygon class="cls-16" points="69 152.99 69 160.99 89 163.99 89 155.99 69 152.99"/><polygon class="cls-16" points="69 164.99 69 172.99 89 175.99 89 167.99 69 164.99"/><polygon class="cls-16" points="69 177.99 69 185.99 89 188.99 89 180.99 69 177.99"/><polygon class="cls-16" points="69 191.99 69 199.99 89 202.99 89 194.99 69 191.99"/><polygon class="cls-16" points="69 203.99 69 211.99 89 214.99 89 206.99 69 203.99"/><polygon class="cls-16" points="69 216.99 69 224.99 89 227.99 89 219.99 69 216.99"/><polygon class="cls-16" points="69 228.99 69 236.99 89 239.99 89 231.99 69 228.99"/><polygon class="cls-16" points="69 240.99 69 248.99 89 251.99 89 243.99 69 240.99"/><polygon class="cls-16" points="69 253.99 69 261.99 89 264.99 89 256.99 69 253.99"/><polygon class="cls-16" points="69 266.99 69 274.99 89 277.99 89 269.99 69 266.99"/><polygon class="cls-16" points="69 278.99 69 286.99 89 289.99 89 281.99 69 278.99"/><polygon class="cls-16" points="69 291.99 69 299.99 89 302.99 89 294.99 69 291.99"/><polygon class="cls-16" points="69 303.99 69 311.99 89 314.99 89 306.99 69 303.99"/><polygon class="cls-16" points="69 315.99 69 323.99 89 326.99 89 318.99 69 315.99"/><polygon class="cls-16" points="69 328.99 69 336.99 89 339.99 89 331.99 69 328.99"/><line class="cls-22" x1="52.49" y1="92.94" x2="78.66" y2="95.32"/><line class="cls-22" x1="51.76" y1="87.97" x2="77.94" y2="90.35"/><line class="cls-22" x1="52.72" y1="80.96" x2="78.9" y2="83.34"/><line class="cls-22" x1="52" y1="75.99" x2="78.17" y2="78.37"/><line class="cls-22" x1="52.28" y1="103.92" x2="78.45" y2="106.29"/><line class="cls-22" x1="51.55" y1="98.95" x2="77.73" y2="101.32"/><polygon class="cls-5" points="53.5 116.49 63.5 118.49 62 317.99 51 317.99 51.5 116.49 53.5 116.49"/><path class="cls-23" d="M40,129l9,3s0,14,4,14,6,3,7,7,10,7,9,13-2,17,3,23,5,8,8,19,7,5,7,17v42c0,14,2,36,2,38v13H44s-7-33-6.5-42-2.5-59-1-70S40,129,40,129Z"/><path class="cls-24" d="M25,342c15-2,26-7,35-4s16,6,19,10,5,19,5,19H63L24,355Z"/><polygon class="cls-8" points="25 345.47 25 317.99 41.11 317.99 108.59 317.99 125.71 317.99 125.71 543.99 113.62 543.99 113.12 367.35 74.85 364.3 69.81 344.96 41.12 345.29 32.56 345.39 25 345.47"/><rect class="cls-25" x="33" y="320.99" width="7" height="24"/><rect class="cls-25" x="44" y="320.99" width="7" height="24"/><rect class="cls-25" x="55" y="320.99" width="7" height="24"/><rect class="cls-25" x="67" y="320.99" width="7" height="41"/><line class="cls-26" x1="83.02" y1="324.21" x2="112.98" y2="325.78"/><line class="cls-26" x1="83.02" y1="331.21" x2="112.98" y2="332.78"/><line class="cls-26" x1="84.14" y1="337.32" x2="112" y2="338.78"/><line class="cls-26" x1="84.12" y1="344.32" x2="111.98" y2="345.78"/><line class="cls-26" x1="83.02" y1="350.21" x2="112.98" y2="351.78"/><line class="cls-26" x1="83.02" y1="357.21" x2="112.98" y2="358.78"/><rect class="cls-25" x="9.5" y="429.49" width="215" height="3" transform="translate(-314.52 546.03) rotate(-89.74)"/><rect class="cls-25" x="14.75" y="429.74" width="214.5" height="3" transform="translate(-309.8 551.28) rotate(-89.74)"/><polygon class="cls-27" points="756 383.99 844 383.99 847 581.99 755 581.99 756 383.99"/><path class="cls-28" d="M756,384a24.43,24.43,0,0,0,13,2c5,10,3,10.67,8,32.34S777,439,780,469s-8,46,4,58,1,39,15,44,33.5,11,33.5,11H757Z"/><g class="cls-29"><rect class="cls-30" x="771" y="397.99" width="7" height="12"/><rect class="cls-30" x="809" y="397.99" width="7" height="12"/><rect class="cls-30" x="823" y="397.99" width="7" height="12"/><rect class="cls-30" x="771" y="415.99" width="7" height="12"/><rect class="cls-30" x="795" y="415.99" width="7" height="12"/><rect class="cls-30" x="810" y="415.99" width="7" height="12"/><rect class="cls-30" x="831" y="415.99" width="7" height="12"/><rect class="cls-30" x="770" y="526.99" width="7" height="12"/><rect class="cls-30" x="794" y="526.99" width="7" height="12"/><rect class="cls-30" x="809" y="526.99" width="7" height="12"/><rect class="cls-30" x="830" y="526.99" width="7" height="12"/><rect class="cls-30" x="771" y="471.99" width="7" height="12"/><rect class="cls-30" x="795" y="471.99" width="7" height="12"/><rect class="cls-30" x="822" y="471.99" width="7" height="12"/><rect class="cls-30" x="771" y="452.99" width="7" height="12"/><rect class="cls-30" x="795" y="452.99" width="7" height="12"/><rect class="cls-30" x="777" y="434.99" width="7" height="12"/><rect class="cls-30" x="815" y="434.99" width="7" height="12"/><rect class="cls-30" x="829" y="434.99" width="7" height="12"/><rect class="cls-30" x="810" y="452.99" width="7" height="12"/><rect class="cls-30" x="831" y="452.99" width="7" height="12"/><rect class="cls-30" x="770" y="489.99" width="7" height="12"/><rect class="cls-30" x="808" y="489.99" width="7" height="12"/><rect class="cls-30" x="822" y="489.99" width="7" height="12"/><rect class="cls-30" x="781" y="565.99" width="7" height="12"/><rect class="cls-30" x="819" y="565.99" width="7" height="12"/><rect class="cls-30" x="833" y="565.99" width="7" height="12"/><rect class="cls-30" x="803" y="507.99" width="7" height="12"/><rect class="cls-30" x="824" y="507.99" width="7" height="12"/><rect class="cls-30" x="781" y="546.99" width="7" height="12"/><rect class="cls-30" x="802" y="546.99" width="7" height="12"/></g><path class="cls-31" d="M756,384V582h5.67S759,402,759,397s-3-13-3-13h0V582"/><polygon class="cls-32" points="846.63 557.49 898 565.99 898 581.99 847 581.99 846.63 557.49"/><polygon class="cls-33" points="846.41 542.99 898 542.99 898 565.99 846.63 557.49 846.41 542.99"/><polygon class="cls-11" points="845.75 495.99 857.75 495.99 897.75 495.99 897.75 513.99 846.01 516.48 845.75 495.99"/><polygon class="cls-34" points="872 507.99 872.5 523.99 898 524.99 898 507.99 872 507.99"/><path class="cls-10" d="M847,500c7,0,19,0,18,5s-1,8,5,9,7,5,12,8,5,5,5,5l-40.87.88L845.75,500Z"/><polygon class="cls-35" points="846 522.93 898 524.99 898 537.99 846.41 544.81 846 522.93"/><polygon class="cls-36" points="846.17 531.81 861 526.99 865 532.99 879 526.99 879 534.99 898 524.99 898 546.99 846.41 542.99 846.17 531.81"/><polygon class="cls-16" points="846.29 539 895 540.99 889 546.99 846.48 547.71 846.29 539"/><path class="cls-14" d="M887,478s-2-41,0-51,3-17,3-17h8v70H886.11Z"/><rect class="cls-23" x="889" y="427.99" width="2" height="11"/><rect class="cls-23" x="893" y="427.99" width="2" height="11"/><rect class="cls-23" x="893" y="441.99" width="2" height="11"/><rect class="cls-23" x="889" y="441.99" width="2" height="11"/><rect class="cls-23" x="893" y="455.99" width="2" height="11"/><rect class="cls-23" x="889" y="455.99" width="2" height="11"/><rect class="cls-23" x="889" y="469.99" width="2" height="11"/><rect class="cls-23" x="893" y="469.99" width="2" height="11"/><polygon class="cls-8" points="845.25 466.62 864 474.08 869.5 495.99 845.7 495.99 845.25 466.62"/><polygon class="cls-37" points="856 480.99 898 479.99 898 495.99 856 495.99 856 480.99"/><path class="cls-8" d="M859,484v8h5v-8Z"/><path class="cls-8" d="M867,484v8h5v-8Z"/><path class="cls-8" d="M875,484v8h5v-8Z"/><path class="cls-8" d="M890,484v8h5v-8Z"/><path class="cls-8" d="M882,484v8h5v-8Z"/><polygon class="cls-38" points="886.11 465.99 867 466.99 861.5 479.99 886.11 479.99 886.11 465.99"/><path class="cls-36" d="M552,450s6.81-94.69,11.33-126c4.81-33.29,18.41-105.21,29.67-139,17-51,25.9-66.25,39-81,8-9,21.26-7.3,27-3,12,9,29.67,47,41,81a593.57,593.57,0,0,1,17.82,65c2.06,9,6.18,37,6.18,37L633.37,574l-78.28-16Z"/><polygon class="cls-25" points="624 453.99 631 464.99 631 501.99 614 474.99 624 453.99"/><polygon class="cls-25" points="614 525.99 624 541.99 636 544.99 636 513.99 627 503.99 614 525.99"/><path class="cls-25" d="M594,544s-13-37-17-48-9-35-11-41-6-23-6-30-1-11,0-21,1-20,1-20,4,31,7,41,9,28,12,35,10,22,12,26,18,38,22,45l8,14Z"/><polygon class="cls-25" points="601 497.99 611 477.99 624 499.99 612 517.99 601 497.99"/><path class="cls-25" d="M565,469s15,47,19,53-5,11-5,11l-15-19Z"/><path class="cls-25" d="M580.5,249.49s-6.69,34.68-7,46C573,313.73,581,351,588,367s23,56,29,66,15,23,15,23l-.5-53.5s-22-32-28-47-13-31-16-48S577,261,580.5,249.49Z"/><path class="cls-25" d="M606,219s5,27,8,34,16,39,21,46,20-9,20-9-18-31-23-46-13.8-40-13-50C619.94,182.16,606,218.93,606,219Z"/><path class="cls-25" d="M669,216l6-20s43,84,42,88-16,0-16,0S685,251,669,216Z"/><polygon class="cls-25" points="601 445.99 611 467.99 621 450.99 609 429.99 601 445.99"/><polygon class="cls-25" points="580 446.99 599 491.99 609 471.99 588 429.99 580 446.99"/><polygon class="cls-25" points="582 397.99 591 419.99 594 409.99 591 403.99 594 397.99 591 391.99 593 386.99 588 378.99 582 397.99"/><polygon class="cls-25" points="573 429.99 582 409.99 586 424.99 579 438.99 573 429.99"/><path class="cls-25" d="M588,294l7,21,10-19s-8-20-8-21S588,294,588,294Z"/><polygon class="cls-25" points="630 300.99 624 313.99 627 320.99 624 324.99 629 332.99 624 336.99 629 344.99 624 352.99 629 360.99 624 364.99 627 373.99 624 380.99 627 386.99 625.33 389.99 636 401.99 636 300.99 630 300.99"/><polygon class="cls-25" points="599 254.99 599 261.99 607 248.99 605 244.99 599 254.99"/><polygon class="cls-27" points="636 191.99 645 213.99 655 190.99 645 167.99 636 191.99"/><polygon class="cls-27" points="657 190.99 666 213.99 673 191.99 663 167.99 657 190.99"/><polygon class="cls-27" points="676 191.99 686 211.99 688 191.99 678 169.99 676 191.99"/><polygon class="cls-27" points="690 173.99 690 187.99 700 211.99 700 190.99 690 173.99"/><polygon class="cls-27" points="620 187.99 626 211.99 634 191.99 630 167.99 620 187.99"/><polygon class="cls-27" points="605 191.99 616 169.99 616 186.99 605 211.99 605 191.99"/><polygon class="cls-27" points="593 213.99 594 197.99 605 173.99 603 190.99 593 213.99"/><polygon class="cls-16" points="690 216.99 698 231.99 700 218.99 691 199.99 690 216.99"/><polygon class="cls-16" points="700 234.99 709 251.99 709 238.99 703 223.99 700 234.99"/><polygon class="cls-16" points="712 255.99 721 279.99 715 251.99 712 244.99 712 255.99"/><polygon class="cls-16" points="648 216.99 657 235.99 665 217.99 656 199.99 648 216.99"/><polygon class="cls-16" points="659 241.99 669 261.99 677 241.99 668 223.99 659 241.99"/><polygon class="cls-16" points="627 217.99 632 236.99 644 215.99 636 196.99 627 217.99"/><polygon class="cls-16" points="635 242.99 644 261.99 655 240.99 645 223.99 635 242.99"/><polygon class="cls-16" points="647 266.99 655 283.99 697 283.99 679 248.99 666.5 278.49 663.5 274.49 666.5 266.49 656.5 247.49 647 266.99"/><polygon class="cls-16" points="665 163.99 673 182.99 676 164.99 666 145.99 665 163.99"/><polygon class="cls-16" points="679 167.99 688 182.99 686 161.99 677 146.99 679 167.99"/><polygon class="cls-16" points="654 143.99 661 163.99 655 184.99 648 164.99 654 143.99"/><polygon class="cls-16" points="655 136.99 661 151.99 663 139.99 656 121.99 655 136.99"/><polygon class="cls-16" points="667 140.99 676 156.99 675 140.99 665 122.99 667 140.99"/><polygon class="cls-16" points="657 109.99 657 117.99 663 133.99 661 117.99 657 109.99"/><polygon class="cls-16" points="632 165.99 635 184.99 644 162.99 641 143.99 632 165.99"/><polygon class="cls-16" points="642 139.99 647 159.99 652 139.99 648 122.99 642 139.99"/><polygon class="cls-16" points="651 108.99 649 117.99 652 129.99 654 116.99 651 108.99"/><polygon class="cls-16" points="631 140.99 631 159.99 640 140.99 638 124.99 631 140.99"/><polygon class="cls-16" points="627 146.99 618 164.99 618 182.99 627 164.99 627 146.99"/><g class="cls-2"><polygon class="cls-34" points="624 453.99 631 464.99 631 501.99 614 474.99 624 453.99"/><polygon class="cls-34" points="614 525.99 624 541.99 636 544.99 636 513.99 627 503.99 614 525.99"/><path class="cls-34" d="M594,544s-13-37-17-48-9-35-11-41-6-23-6-30-1-11,0-21,1-20,1-20,4,31,7,41,9,28,12,35,10,22,12,26,18,38,22,45l8,14Z"/><polygon class="cls-34" points="601 497.99 611 477.99 624 499.99 612 517.99 601 497.99"/></g><polygon class="cls-3" points="23.5 344.49 71.5 344.49 75.5 363.45 94.54 364.95 113.5 366.45 113.5 582.06 92.33 581.99 23.5 581.99 23.5 344.49"/><polygon class="cls-6" points="24.33 383.66 43.5 383.49 43.5 408.49 23.5 408.49 24.33 383.66"/><polygon class="cls-6" points="51.33 383.66 70.5 383.49 70.5 408.49 50.5 408.49 51.33 383.66"/><rect class="cls-5" x="-14.78" y="472.27" width="216.56" height="3" transform="matrix(0.01, -1, 1, 0.01, -381.1, 562.96)"/><rect class="cls-5" x="74" y="363.49" width="3" height="218.57"/><rect class="cls-5" x="46" y="363.49" width="3" height="218.57"/><rect class="cls-6" x="26" y="416.99" width="16" height="11"/><rect class="cls-6" x="26" y="432.99" width="16" height="11"/><rect class="cls-6" x="26" y="452.99" width="16" height="11"/><rect class="cls-6" x="26" y="468.99" width="16" height="11"/><rect class="cls-6" x="26" y="490.99" width="16" height="11"/><rect class="cls-6" x="26" y="506.99" width="16" height="11"/><rect class="cls-6" x="26" y="528.99" width="16" height="11"/><rect class="cls-6" x="26" y="544.99" width="16" height="11"/><rect class="cls-6" x="26" y="562.99" width="16" height="11"/><rect class="cls-6" x="53" y="417.99" width="16" height="11"/><rect class="cls-6" x="53" y="433.99" width="16" height="11"/><rect class="cls-6" x="53" y="453.99" width="16" height="11"/><rect class="cls-6" x="53" y="469.99" width="16" height="11"/><rect class="cls-6" x="53" y="491.99" width="16" height="11"/><rect class="cls-6" x="53" y="507.99" width="16" height="11"/><rect class="cls-6" x="53" y="529.99" width="16" height="11"/><rect class="cls-6" x="53" y="545.99" width="16" height="11"/><rect class="cls-6" x="53" y="563.99" width="16" height="11"/><rect class="cls-6" x="80" y="422.99" width="9" height="11"/><rect class="cls-6" x="80" y="438.99" width="9" height="11"/><rect class="cls-6" x="80" y="458.99" width="9" height="11"/><rect class="cls-6" x="80" y="474.99" width="9" height="11"/><rect class="cls-6" x="80" y="496.99" width="9" height="11"/><rect class="cls-6" x="80" y="512.99" width="9" height="11"/><rect class="cls-6" x="80" y="534.99" width="9" height="11"/><rect class="cls-6" x="80" y="550.99" width="9" height="11"/><rect class="cls-6" x="80" y="568.99" width="9" height="11"/><rect class="cls-6" x="100" y="420.99" width="9" height="11"/><rect class="cls-6" x="100" y="436.99" width="9" height="11"/><rect class="cls-6" x="100" y="456.99" width="9" height="11"/><rect class="cls-6" x="100" y="472.99" width="9" height="11"/><rect class="cls-6" x="100" y="494.99" width="9" height="11"/><rect class="cls-6" x="100" y="510.99" width="9" height="11"/><rect class="cls-6" x="100" y="532.99" width="9" height="11"/><rect class="cls-6" x="100" y="548.99" width="9" height="11"/><rect class="cls-6" x="100" y="566.99" width="9" height="11"/><polyline class="cls-6" points="26 317.99 24.52 337.94 24 344.99"/><path class="cls-27" d="M266,73V19c.73-.37,18-4,18-4l70,3V122l-49,2-5-51Z"/><path class="cls-8" d="M234,69l-6,513H349V315l44-5V124s-42.5-6.5-53.5-5.5-29,0-29,0v-52h-50Z"/><path class="cls-16" d="M263,101.41,244,351.64s-11,47.75,4,31.51-2-40.11,17-55.39,36-1.91,44-20.06-6-32.47,13-47.75,47-6.69,53-19.1S393,195,393,174V134.84l-89,.95L297,89Z"/><path class="cls-39" d="M228,582l-1-63s65,0,64-21,3-23,8-43,11-52,26-59,13-55,14-67-6-37,14-36,38,10,38,10V582Z"/><polygon class="cls-27" points="231 581.85 228 581.82 233.5 68.97 236.5 68.76 231 581.85"/><polygon class="cls-27" points="248.5 581.86 242.5 581.8 247.5 67.72 253.51 67.15 248.5 581.86"/><rect class="cls-27" x="19.07" y="320.91" width="515.86" height="6" transform="translate(-49.6 597.74) rotate(-89.44)"/><rect class="cls-27" x="33.07" y="320.91" width="515.86" height="6" transform="translate(-35.74 611.74) rotate(-89.44)"/><rect class="cls-27" x="47.07" y="322.41" width="515.86" height="3" transform="translate(-21.87 625.74) rotate(-89.44)"/><rect class="cls-27" x="99.03" y="347.38" width="463.93" height="5" transform="translate(-22.48 677.04) rotate(-89.37)"/><rect class="cls-27" x="114.54" y="346.88" width="463.92" height="6" transform="translate(-6.42 693.28) rotate(-89.49)"/><polygon class="cls-27" points="364.5 582.06 358.5 582 362.5 119.97 368.51 120.64 364.5 582.06"/><polygon class="cls-27" points="380.5 582.06 374.5 582.01 378.51 121.93 384.5 122.75 380.5 582.06"/><polygon class="cls-27" points="391 581.99 388 581.97 391.99 123.84 394.99 124.16 391 581.99"/><polygon class="cls-27" points="263 581.86 258 581.81 262.99 66.49 267.99 66.49 263 581.86"/><rect class="cls-27" x="83.53" y="345.88" width="464.93" height="7" transform="translate(-36.79 661.56) rotate(-89.38)"/><g class="cls-31"><polygon points="334.06 24.99 334.06 35.99 351 36.99 351 25.99 334.06 24.99"/><polygon points="322.76 39.99 322.76 50.99 333.12 51.99 333.12 40.99 322.76 39.99"/><polygon points="326.53 79.99 326.53 88.24 339.71 88.99 339.71 80.74 326.53 79.99"/><polygon points="323.71 61.99 323.71 65.66 336.88 65.99 336.88 62.33 323.71 61.99"/><polygon points="287 23.99 287 32.99 302.06 33.99 302.06 24.99 287 23.99"/><rect x="292.65" y="40.99" width="7.53" height="8"/></g><path class="cls-37" d="M351,316s36-4,42-6,151,0,151,0l3,6h10V582H351Z"/><line class="cls-40" x1="413" y1="317.99" x2="412" y2="581.99"/><line class="cls-40" x1="543" y1="317.99" x2="542" y2="585.99"/><polygon class="cls-5" points="417 332.99 537 336.99 537 349.99 417 349.99 417 332.99"/><rect class="cls-30" x="354" y="333.99" width="16" height="16"/><rect class="cls-30" x="372" y="333.99" width="16" height="16"/><rect class="cls-30" x="391" y="333.99" width="16" height="16"/><rect class="cls-30" x="354" y="353.99" width="16" height="16"/><rect class="cls-30" x="372" y="353.99" width="16" height="16"/><rect class="cls-30" x="391" y="353.99" width="16" height="16"/><rect class="cls-30" x="354" y="375.99" width="16" height="16"/><rect class="cls-30" x="372" y="375.99" width="16" height="16"/><rect class="cls-30" x="391" y="375.99" width="16" height="16"/><rect class="cls-30" x="353" y="397.99" width="16" height="16"/><rect class="cls-30" x="371" y="397.99" width="16" height="16"/><rect class="cls-30" x="390" y="397.99" width="16" height="16"/><rect class="cls-30" x="354" y="417.99" width="16" height="16"/><rect class="cls-30" x="372" y="417.99" width="16" height="16"/><rect class="cls-30" x="391" y="417.99" width="16" height="16"/><rect class="cls-30" x="354" y="437.99" width="16" height="16"/><rect class="cls-30" x="372" y="437.99" width="16" height="16"/><rect class="cls-30" x="391" y="437.99" width="16" height="16"/><rect class="cls-30" x="354" y="459.99" width="16" height="16"/><rect class="cls-30" x="372" y="459.99" width="16" height="16"/><rect class="cls-30" x="391" y="459.99" width="16" height="16"/><rect class="cls-30" x="353" y="481.99" width="16" height="16"/><rect class="cls-30" x="371" y="481.99" width="16" height="16"/><rect class="cls-30" x="390" y="481.99" width="16" height="16"/><rect class="cls-30" x="354" y="501.99" width="16" height="16"/><rect class="cls-30" x="372" y="501.99" width="16" height="16"/><rect class="cls-30" x="391" y="501.99" width="16" height="16"/><rect class="cls-30" x="354" y="521.99" width="16" height="16"/><rect class="cls-30" x="372" y="521.99" width="16" height="16"/><rect class="cls-30" x="391" y="521.99" width="16" height="16"/><rect class="cls-30" x="354" y="543.99" width="16" height="16"/><rect class="cls-30" x="372" y="543.99" width="16" height="16"/><rect class="cls-30" x="391" y="543.99" width="16" height="16"/><rect class="cls-30" x="353" y="565.99" width="16" height="16"/><rect class="cls-30" x="371" y="565.99" width="16" height="16"/><rect class="cls-30" x="390" y="565.99" width="16" height="16"/><path class="cls-23" d="M417,480c1,1.91-3,10.5,7,21.94s28,14.31,37,21.93,0,15.26,19,24.8,26,5.72,36,8.58,19,11.45,21,16.22a23.59,23.59,0,0,1,1.94,8.6L418,582Z"/><path class="cls-41" d="M418,318s-4,22,0,35,13,18,36,39,46,30,49,42,15,23,23,36,11,42,11,42V318Z"/><polygon class="cls-16" points="418 352.99 418 380.29 440 381.34 439 352.99 418 352.99"/><polygon class="cls-16" points="443 352.99 443 380.29 465 381.34 464 352.99 443 352.99"/><polygon class="cls-16" points="470 352.99 470 380.29 491 381.34 490.05 352.99 470 352.99"/><polygon class="cls-16" points="494 352.99 494 380.29 513 381.34 512.14 352.99 494 352.99"/><polygon class="cls-16" points="516 352.99 516 380.29 536 381.34 535.09 352.99 516 352.99"/><polygon class="cls-30" points="418 385.54 418 412.83 440 413.88 439 385.54 418 385.54"/><polygon class="cls-16" points="443 385.54 443 412.83 465 413.88 464 385.54 443 385.54"/><polygon class="cls-16" points="470 385.54 470 412.83 491 413.88 490.05 385.54 470 385.54"/><polygon class="cls-16" points="494 385.54 494 412.83 513 413.88 512.14 385.54 494 385.54"/><polygon class="cls-16" points="516 385.54 516 412.83 536 413.88 535.09 385.54 516 385.54"/><polygon class="cls-30" points="418 420.18 418 447.47 440 448.52 439 420.18 418 420.18"/><polygon class="cls-30" points="443 420.18 443 447.47 465 448.52 464 420.18 443 420.18"/><polygon class="cls-16" points="470 420.18 470 447.47 491 448.52 490.05 420.18 470 420.18"/><polygon class="cls-16" points="494 420.18 494 447.47 513 448.52 512.14 420.18 494 420.18"/><polygon class="cls-16" points="516 420.18 516 447.47 536 448.52 535.09 420.18 516 420.18"/><polygon class="cls-30" points="418 454.82 418 482.12 440 483.17 439 454.82 418 454.82"/><polygon class="cls-30" points="443 454.82 443 482.12 465 483.17 464 454.82 443 454.82"/><polygon class="cls-30" points="470 454.82 470 482.12 491 483.17 490.05 454.82 470 454.82"/><polygon class="cls-30" points="494 454.82 494 482.12 513 483.17 512.14 454.82 494 454.82"/><polygon class="cls-16" points="516 454.82 516 482.12 536 483.17 535.09 454.82 516 454.82"/><polygon class="cls-6" points="418 487.37 418 514.66 440 515.71 439 487.37 418 487.37"/><polygon class="cls-6" points="443 487.37 443 514.66 465 515.71 464 487.37 443 487.37"/><polygon class="cls-30" points="470 487.37 470 514.66 491 515.71 490.05 487.37 470 487.37"/><polygon class="cls-30" points="494 487.37 494 514.66 513 515.71 512.14 487.37 494 487.37"/><polygon class="cls-30" points="516 487.37 516 514.66 536 515.71 535.09 487.37 516 487.37"/><polygon class="cls-6" points="418 522.01 418 549.3 440 550.35 439 522.01 418 522.01"/><polygon class="cls-6" points="443 522.01 443 549.3 465 550.35 464 522.01 443 522.01"/><polygon class="cls-6" points="470 522.01 470 549.3 491 550.35 490.05 522.01 470 522.01"/><polygon class="cls-30" points="494 522.01 494 549.3 513 550.35 512.14 522.01 494 522.01"/><polygon class="cls-30" points="516 522.01 516 549.3 536 550.35 535.09 522.01 516 522.01"/><polygon class="cls-6" points="418 556.65 417.99 577.56 439.86 580.93 439 556.65 418 556.65"/><polygon class="cls-6" points="443 556.65 443 579.62 465 579.06 464 556.65 443 556.65"/><polygon class="cls-6" points="470 556.65 470.5 577.12 490.38 579.06 490.05 556.65 470 556.65"/><polygon class="cls-6" points="494 556.65 494 580.37 512.77 577.5 512.14 556.65 494 556.65"/><polygon class="cls-6" points="516 556.65 516 579.06 535.79 578.55 535.09 556.65 516 556.65"/><path class="cls-28" d="M367.73,582.06c4-1.56,8.13-4.79,11.27-11.07,9-18,9-48,14-63s4-38,2-54,2-34,4-56,8-58,8-58l2-23V582Z"/><polygon class="cls-5" points="631 545.99 631 283.99 724 283.99 756 286.99 756 581.99 647 581.99 631 545.99"/><polygon class="cls-42" points="631 311.99 732 313.99 732 317.99 631 316.99 631 311.99"/><path class="cls-43" d="M631,342l54-1v60s-1,27,0,37,9,46.18,11,58c7,41,30.92,42.38,38,64,2.42,7.4,22,22,22,22H629Z"/><rect class="cls-42" x="694" y="355.99" width="62" height="5"/><rect class="cls-42" x="694" y="366.99" width="62" height="5"/><rect class="cls-42" x="694" y="378.99" width="62" height="5"/><rect class="cls-42" x="694" y="389.99" width="62" height="5"/><rect class="cls-42" x="694" y="399.99" width="62" height="5"/><rect class="cls-42" x="694" y="409.99" width="62" height="5"/><rect class="cls-42" x="694" y="419.99" width="62" height="10"/><rect class="cls-42" x="694" y="433.99" width="62" height="10"/><rect class="cls-42" x="694" y="449.99" width="62" height="10"/><rect class="cls-16" x="736" y="314.99" width="9" height="3"/><rect class="cls-16" x="747" y="314.99" width="9" height="3"/><rect class="cls-16" x="696" y="327.99" width="11" height="18"/><rect class="cls-16" x="713" y="327.99" width="11" height="18"/><rect class="cls-16" x="730" y="327.99" width="11" height="18"/><rect class="cls-16" x="745" y="327.99" width="11" height="18"/><rect class="cls-16" x="695" y="289.99" width="11" height="18"/><rect class="cls-16" x="712" y="289.99" width="11" height="18"/><rect class="cls-16" x="729" y="289.99" width="11" height="18"/><rect class="cls-16" x="744" y="289.99" width="11" height="18"/><polygon class="cls-44" points="603.26 558.9 619.71 378.61 587.82 543.26 603.5 568.06 603.26 558.9"/><polygon class="cls-44" points="563.65 543.47 571.48 369.96 572.49 513.31 574.52 548.11 563.65 543.47"/><path class="cls-44" d="M676.93,564.82,738,472.69,690.91,582Z"/><polygon class="cls-44" points="643.86 565.63 680.88 448.45 652.14 581.99 646.99 582 643.86 565.63"/><polygon class="cls-5" points="557 537.99 557 581.99 594 581.99 594 565.99 557 537.99"/><polygon class="cls-5" points="666 567.99 666 581.99 692 581.99 692 576.99 678 565.99 666 567.99"/><polygon class="cls-5" points="607 543.99 632 541.99 632 551.99 642 550.99 645 565.99 623 565.99 623 556.99 611 556.99 604 553.99 607 543.99"/><polygon class="cls-19" points="560 543.99 563 383.99 568 515.99 571 547.99 560 543.99"/><polygon class="cls-16" points="568 515.99 568 543.99 560 543.99 564 559.99 579 559.99 581 565.99 594 565.99 594 551.99 572 511.99 568 515.99"/><path class="cls-19" d="M679,550.13,724,480l-35.12,84"/><polygon class="cls-16" points="671.67 525.49 666 568.41 671.67 568.41 671.67 576.99 690.96 576.99 690.96 573.78 695.5 558.75 686.42 558.75 677.35 525.49 671.67 525.49"/><polygon class="cls-45" points="594 543.99 594 581.99 613.88 581.99 611 556.99 604 553.99 607 543.99 594 543.99"/><rect class="cls-11" x="611" y="556.99" width="12" height="25"/><rect class="cls-46" x="623" y="565.99" width="24" height="16"/><polygon class="cls-19" points="642 550.99 669 454.99 647 574.49 642 550.99"/><polygon class="cls-19" points="594 543.99 611 386.99 581.9 529.99 594 551.99 594 543.99"/><polygon class="cls-47" points="560 527.33 568 519.99 568 543.99 560 543.99 560 527.33"/><polygon class="cls-47" points="582 529.99 584 521.99 594 535.99 594 551.99 582 529.99"/><polygon class="cls-5" points="594 541.99 632 541.99 607 543.99 594 543.99 594 541.99"/><rect class="cls-5" x="631" y="572.99" width="11" height="9"/><polygon class="cls-47" points="642 550.99 647 573.99 651 553.99 644 543.99 642 550.99"/><polygon class="cls-47" points="683 543.99 689 534.99 694 550.99 691 558.99 686 558.99 683 543.99"/></g></svg>