<svg xmlns="http://www.w3.org/2000/svg" viewBox="0 0 921 601"><defs><style>.cls-1{fill:#5d7fae;}.cls-2{fill:#dad8e8;}.cls-3,.cls-51{fill:#503ea7;}.cls-27,.cls-4{fill:#35296f;}.cls-11,.cls-19,.cls-20,.cls-21,.cls-25,.cls-41,.cls-42,.cls-43,.cls-44,.cls-5{fill:none;}.cls-11,.cls-44,.cls-5{stroke:#fff;}.cls-11,.cls-19,.cls-20,.cls-21,.cls-24,.cls-25,.cls-41,.cls-42,.cls-43,.cls-44,.cls-5{stroke-miterlimit:10;}.cls-19,.cls-20,.cls-21,.cls-24,.cls-25,.cls-5{stroke-width:3px;}.cls-6{fill:#d2fad6;}.cls-7{fill:#85b4c7;}.cls-8{fill:#6fdcca;}.cls-24,.cls-9{fill:#f9a9b6;}.cls-10{fill:#f9f8fe;}.cls-11{stroke-width:2px;}.cls-12{fill:#9ca7ef;}.cls-13{fill:#ccc4f4;}.cls-14,.cls-45{fill:#fff;}.cls-15{fill:#23576b;}.cls-16{fill:#6a52de;}.cls-17{fill:#9ca8ef;}.cls-18{fill:#aad0e0;}.cls-19{stroke:#6a52de;}.cls-20,.cls-41,.cls-42,.cls-43{stroke:#323071;}.cls-21{stroke:#503ea7;}.cls-22,.cls-29,.cls-35{fill:#23146b;}.cls-22,.cls-27,.cls-51{opacity:0.5;}.cls-23,.cls-40{fill:#3482a1;}.cls-24{stroke:#f9a9b6;}.cls-25{stroke:#3482a1;}.cls-26{opacity:0.6;}.cls-28{fill:#323071;}.cls-29,.cls-40{opacity:0.8;}.cls-30{opacity:0.7;}.cls-31{fill:#d6e6ec;}.cls-32{opacity:0.3;}.cls-33{fill:#c7c5d4;}.cls-34{fill:#f8b0bc;}.cls-36{fill:#b5deef;}.cls-37{fill:#6abdde;}.cls-38{fill:#45add6;}.cls-39{fill:#8875e5;}.cls-41,.cls-44{stroke-width:6px;}.cls-42{stroke-width:5px;}.cls-43{stroke-width:7px;}.cls-45,.cls-47{opacity:0.2;}.cls-46,.cls-47,.cls-48{fill:#191839;}.cls-48{opacity:0.4;}.cls-49{fill:#f894a4;}.cls-50{fill:#fcd4db;}</style></defs><title>Artboard 1</title><g id="Layer_6" data-name="Layer 6"><polygon class="cls-1" points="123 581.13 179 580 179 589 123 589 123 581.13"/><polygon class="cls-1" points="135 530 238 530 238 539 185 559 150 555 135 552 135 530"/><polygon class="cls-1" points="145 550.22 161 548 163 564.68 145 567 145 550.22"/><polygon class="cls-2" points="192 540 192 548 238 551 238 539 192 540"/><polygon class="cls-3" points="161.64 553.46 183 553 183.46 562 163 561.48 161.64 553.46"/><polygon class="cls-1" points="210 546 224 546 237 549 237 574 232 574 210 546"/><polygon class="cls-4" points="135 469 185 469 184.88 478.88 164 479 164.28 509.5 160 513 141 514 135 510 135 469"/><line class="cls-5" x1="135" y1="536" x2="238" y2="536"/><path class="cls-6" d="M183.5,561.33l-.5-10.94s23-5.47,27-4.38,22,6.57,22,6.57V575"/><polygon class="cls-7" points="123 566 171 564 169.96 580 123 581 123 566"/><path class="cls-8" d="M189,436s6-4,9-4,8-1,11-1,20-2,20-2v53l-40-1V436Z"/><polygon class="cls-9" points="123 550 145 550 145 564.88 123 567 123 550"/><polygon class="cls-9" points="169 574 237 574 237 589 179 589 178 580 169 580 169 574"/><polygon class="cls-10" points="163 563.21 163 560 222 562.14 222 566.43 228 566.43 228 573.93 169 575 170 564.29 163 563.21"/><line class="cls-11" x1="135" y1="530" x2="238" y2="530"/><rect class="cls-1" x="138" y="479" width="8" height="3"/><rect class="cls-1" x="148" y="479" width="8" height="3"/><rect class="cls-1" x="158" y="479" width="8" height="3"/><rect class="cls-1" x="138" y="485" width="8" height="3"/><rect class="cls-1" x="148" y="485" width="8" height="3"/><rect class="cls-1" x="158" y="485" width="8" height="3"/><rect class="cls-1" x="138" y="491" width="8" height="3"/><rect class="cls-1" x="148" y="491" width="8" height="3"/><rect class="cls-1" x="158" y="491" width="8" height="3"/><rect class="cls-1" x="138" y="496" width="8" height="3"/><rect class="cls-1" x="148" y="496" width="8" height="3"/><rect class="cls-1" x="158" y="496" width="8" height="3"/><rect class="cls-1" x="138" y="502" width="8" height="3"/><rect class="cls-1" x="148" y="502" width="8" height="3"/><rect class="cls-1" x="158" y="502" width="8" height="3"/><rect class="cls-1" x="138" y="507" width="8" height="3"/><rect class="cls-1" x="148" y="507" width="8" height="3"/><rect class="cls-1" x="158" y="507" width="8" height="3"/><polygon class="cls-12" points="164.28 509.5 164.01 479 219 479 218.67 521 163 514 164.28 509.5"/><polygon class="cls-13" points="238 429 232 429 229 432.06 229 437.16 217 437.16 217 439.2 219 439.2 218.51 484.07 218 530 228 530 238 530 238 429"/><rect class="cls-1" x="221" y="442" width="6" height="5"/><rect class="cls-1" x="230" y="443" width="6" height="4"/><rect class="cls-1" x="221" y="449" width="6" height="5"/><rect class="cls-1" x="230" y="450" width="6" height="4"/><rect class="cls-1" x="221" y="456" width="6" height="5"/><rect class="cls-1" x="230" y="457" width="6" height="4"/><rect class="cls-1" x="221" y="463" width="6" height="5"/><rect class="cls-1" x="230" y="464" width="6" height="4"/><rect class="cls-1" x="221" y="470" width="6" height="5"/><rect class="cls-1" x="230" y="471" width="6" height="4"/><rect class="cls-1" x="221" y="477" width="6" height="5"/><rect class="cls-1" x="230" y="478" width="6" height="4"/><rect class="cls-1" x="221" y="484" width="6" height="5"/><rect class="cls-1" x="230" y="485" width="6" height="4"/><rect class="cls-1" x="221" y="491" width="6" height="5"/><rect class="cls-1" x="230" y="492" width="6" height="4"/><rect class="cls-1" x="221" y="499" width="6" height="5"/><rect class="cls-1" x="230" y="500" width="6" height="4"/><rect class="cls-1" x="221" y="506" width="6" height="5"/><rect class="cls-1" x="230" y="507" width="6" height="4"/><rect class="cls-1" x="221" y="513" width="6" height="5"/><rect class="cls-1" x="230" y="514" width="6" height="4"/><rect class="cls-1" x="221" y="520" width="6" height="5"/><rect class="cls-1" x="230" y="521" width="6" height="4"/><polygon class="cls-1" points="210 498 210 522 218.41 522 220 499 210 498"/><polygon class="cls-14" points="168 485 173 485 173 489 168 489 168 486 168 485"/><polygon class="cls-14" points="174 485 179 485 179 489 174 489 174 486 174 485"/><polygon class="cls-14" points="180 485 185 485 185 489 180 489 180 486 180 485"/><polygon class="cls-14" points="187 485 192 485 192 489 187 489 187 486 187 485"/><polygon class="cls-14" points="193 485 198 485 198 489 193 489 193 486 193 485"/><polygon class="cls-14" points="199 485 204 485 204 489 199 489 199 486 199 485"/><polygon class="cls-14" points="205 485 210 485 210 489 205 489 205 486 205 485"/><polygon class="cls-14" points="211 485 216 485 216 489 211 489 211 486 211 485"/><polygon class="cls-14" points="205 491 210 491 210 495 205 495 205 492 205 491"/><polygon class="cls-14" points="211 491 216 491 216 495 211 495 211 492 211 491"/><polygon class="cls-14" points="168 491 173 491 173 495 168 495 168 492 168 491"/><polygon class="cls-14" points="174 491 179 491 179 495 174 495 174 492 174 491"/><polygon class="cls-14" points="180 491 185 491 185 495 180 495 180 492 180 491"/><polygon class="cls-14" points="187 491 192 491 192 495 187 495 187 492 187 491"/><polygon class="cls-14" points="193 491 198 491 198 495 193 495 193 492 193 491"/><polygon class="cls-14" points="199 491 204 491 204 495 199 495 199 492 199 491"/><polygon class="cls-14" points="168 497 173 497 173 501 168 501 168 498 168 497"/><polygon class="cls-14" points="174 497 179 497 179 501 174 501 174 498 174 497"/><polygon class="cls-14" points="180 497 185 497 185 501 180 501 180 498 180 497"/><polygon class="cls-14" points="187 497 192 497 192 501 187 501 187 498 187 497"/><polygon class="cls-14" points="193 497 198 497 198 501 193 501 193 498 193 497"/><polygon class="cls-14" points="168 503 173 503 173 507 168 507 168 504 168 503"/><polygon class="cls-14" points="174 503 179 503 179 507 174 507 174 504 174 503"/><polygon class="cls-14" points="180 503 185 503 185 507 180 507 180 504 180 503"/><polygon class="cls-14" points="187 503 192 503 192 507 187 507 187 504 187 503"/><polygon class="cls-14" points="168 508 173 508 173 512 168 512 168 509 168 508"/><polygon class="cls-14" points="174 508 179 508 179 512 174 512 174 509 174 508"/><polygon class="cls-14" points="180 508 185 508 185 512 180 512 180 509 180 508"/><polygon class="cls-14" points="187 508 192 508 192 512 187 512 187 509 187 508"/><path class="cls-15" d="M172.55,512s0-.05,0-.15c.13-.82,1.05-4.75,6.43-3.85,6,1,9,3,11,3h5v10l-21-1Z"/><path class="cls-8" d="M135,507s5,1,7,3,8,4,9,2,17-4,17-1,1-1,7,2,3,6,7,6,7-4,9-4,4,3,4,3l1,9-61-2Z"/><polygon class="cls-4" points="195.22 520 218.1 521 218.06 525 195.5 524.5 195.22 521 195.22 520"/><polygon class="cls-9" points="210 498 195 497 195 521 210 522 210 498"/><polygon class="cls-9" points="135 517 171.02 517 171.02 522.77 221 523.35 220.66 529.69 135 532 135 517"/><rect class="cls-3" x="190" y="481" width="8" height="3"/><rect class="cls-3" x="199" y="481" width="8" height="3"/><rect class="cls-3" x="208" y="481" width="8" height="3"/><rect class="cls-16" x="185" y="436" width="4" height="43"/><rect class="cls-1" x="195" y="437" width="2" height="3"/><rect class="cls-1" x="205" y="437" width="2" height="3"/><rect class="cls-1" x="198" y="462" width="2" height="3"/><rect class="cls-1" x="205" y="443" width="7" height="3"/><rect class="cls-1" x="194" y="449" width="7" height="3"/><rect class="cls-1" x="199.5" y="442.5" width="2" height="3"/><rect class="cls-1" x="208" y="453" width="2" height="3"/><rect class="cls-1" x="205" y="459" width="2" height="3"/><rect class="cls-1" x="204" y="448" width="2" height="3"/><rect class="cls-1" x="197" y="455" width="2" height="3"/><rect class="cls-1" x="207" y="448" width="2" height="3"/><rect class="cls-1" x="210" y="448" width="2" height="3"/><rect class="cls-1" x="191" y="442" width="2" height="3"/><rect class="cls-1" x="211" y="437" width="2" height="3"/><rect class="cls-1" x="192" y="460" width="2" height="3"/><rect class="cls-1" x="213" y="459" width="2" height="3"/></g><g id="Layer_4" data-name="Layer 4"><polygon class="cls-17" points="32 350 33 32 46 28 60 31 60 35 75 35 75 74 94 78 94 104 102 113 111 114 116 118 120 118 122 324 32 350"/><line class="cls-5" x1="102" y1="121" x2="117" y2="124"/><line class="cls-5" x1="102" y1="127" x2="117" y2="130"/><line class="cls-5" x1="102" y1="133" x2="117" y2="136"/><line class="cls-5" x1="102" y1="138" x2="117" y2="141"/><line class="cls-5" x1="102" y1="144" x2="117" y2="147"/><line class="cls-5" x1="102" y1="150" x2="117" y2="153"/><line class="cls-5" x1="102" y1="156" x2="117" y2="159"/><line class="cls-5" x1="102" y1="162" x2="117" y2="165"/><line class="cls-5" x1="102" y1="168" x2="117" y2="171"/><line class="cls-5" x1="102" y1="174" x2="117" y2="177"/><line class="cls-5" x1="102" y1="180" x2="117" y2="183"/><line class="cls-5" x1="102" y1="186" x2="117" y2="189"/><line class="cls-5" x1="102" y1="191" x2="117" y2="194"/><line class="cls-5" x1="102" y1="197" x2="117" y2="200"/><line class="cls-5" x1="102" y1="203" x2="117" y2="206"/><line class="cls-5" x1="102" y1="209" x2="117" y2="212"/><line class="cls-5" x1="102" y1="215" x2="117" y2="218"/><line class="cls-5" x1="102" y1="221" x2="117" y2="224"/><line class="cls-5" x1="102" y1="227" x2="117" y2="230"/><line class="cls-5" x1="102" y1="233" x2="117" y2="236"/><line class="cls-5" x1="102" y1="239" x2="117" y2="242"/><line class="cls-5" x1="102" y1="244" x2="117" y2="247"/><line class="cls-5" x1="102" y1="250" x2="117" y2="253"/><line class="cls-5" x1="102" y1="256" x2="117" y2="259"/><line class="cls-5" x1="102" y1="262" x2="117" y2="265"/><line class="cls-5" x1="102" y1="268" x2="117" y2="271"/><line class="cls-5" x1="102" y1="274" x2="117" y2="277"/><line class="cls-5" x1="102" y1="280" x2="117" y2="283"/><line class="cls-5" x1="102" y1="286" x2="117" y2="289"/><line class="cls-5" x1="102" y1="292" x2="117" y2="295"/><line class="cls-5" x1="102" y1="297" x2="117" y2="300"/><line class="cls-5" x1="102" y1="303" x2="117" y2="306"/><line class="cls-5" x1="102" y1="309" x2="117" y2="312"/><line class="cls-5" x1="102" y1="315" x2="117" y2="318"/><line class="cls-5" x1="102" y1="321" x2="117" y2="324"/><line class="cls-5" x1="102" y1="327" x2="117" y2="330"/><polygon class="cls-18" points="46.5 30.5 46.5 323.5 56.5 323.5 56.5 33.5 46.5 30.5"/><line class="cls-19" x1="35" y1="34" x2="43" y2="32"/><line class="cls-19" x1="35" y1="39" x2="43" y2="37"/><line class="cls-19" x1="35" y1="45" x2="43" y2="43"/><line class="cls-19" x1="35" y1="51" x2="43" y2="49"/><line class="cls-19" x1="35" y1="57" x2="43" y2="55"/><line class="cls-19" x1="35" y1="62" x2="43" y2="60"/><line class="cls-19" x1="35" y1="68" x2="43" y2="66"/><line class="cls-19" x1="35" y1="74" x2="43" y2="72"/><line class="cls-19" x1="35" y1="80" x2="43" y2="78"/><line class="cls-19" x1="35" y1="85" x2="43" y2="83"/><line class="cls-19" x1="35" y1="91" x2="43" y2="89"/><line class="cls-19" x1="35" y1="97" x2="43" y2="95"/><line class="cls-19" x1="35" y1="103" x2="43" y2="101"/><line class="cls-19" x1="35" y1="108" x2="43" y2="106"/><line class="cls-19" x1="35" y1="114" x2="43" y2="112"/><line class="cls-19" x1="35" y1="120" x2="43" y2="118"/><line class="cls-19" x1="35" y1="126" x2="43" y2="124"/><line class="cls-19" x1="35" y1="131" x2="43" y2="129"/><line class="cls-19" x1="35" y1="137" x2="43" y2="135"/><line class="cls-19" x1="35" y1="143" x2="43" y2="141"/><line class="cls-19" x1="35" y1="149" x2="43" y2="147"/><line class="cls-19" x1="35" y1="154" x2="43" y2="152"/><line class="cls-19" x1="35" y1="160" x2="43" y2="158"/><line class="cls-19" x1="35" y1="166" x2="43" y2="164"/><line class="cls-19" x1="35" y1="173" x2="43" y2="171"/><line class="cls-19" x1="35" y1="178" x2="43" y2="176"/><line class="cls-19" x1="35" y1="184" x2="43" y2="182"/><line class="cls-19" x1="35" y1="190" x2="43" y2="188"/><line class="cls-19" x1="35" y1="196" x2="43" y2="194"/><line class="cls-19" x1="35" y1="201" x2="43" y2="199"/><line class="cls-19" x1="35" y1="207" x2="43" y2="205"/><line class="cls-19" x1="35" y1="213" x2="43" y2="211"/><line class="cls-19" x1="35" y1="219" x2="43" y2="217"/><line class="cls-19" x1="35" y1="224" x2="43" y2="222"/><line class="cls-19" x1="35" y1="230" x2="43" y2="228"/><line class="cls-19" x1="35" y1="236" x2="43" y2="234"/><line class="cls-19" x1="35" y1="243" x2="43" y2="241"/><line class="cls-19" x1="35" y1="248" x2="43" y2="246"/><line class="cls-19" x1="35" y1="254" x2="43" y2="252"/><line class="cls-19" x1="35" y1="260" x2="43" y2="258"/><line class="cls-19" x1="35" y1="266" x2="43" y2="264"/><line class="cls-19" x1="35" y1="271" x2="43" y2="269"/><line class="cls-19" x1="35" y1="277" x2="43" y2="275"/><line class="cls-19" x1="35" y1="283" x2="43" y2="281"/><line class="cls-19" x1="35" y1="289" x2="43" y2="287"/><line class="cls-19" x1="35" y1="294" x2="43" y2="292"/><line class="cls-19" x1="35" y1="300" x2="43" y2="298"/><line class="cls-19" x1="35" y1="306" x2="43" y2="304"/><line class="cls-20" x1="59.5" y1="43.5" x2="71.5" y2="43.5"/><line class="cls-20" x1="60" y1="52.5" x2="72" y2="52.5"/><line class="cls-20" x1="60" y1="61.5" x2="72" y2="61.5"/><line class="cls-20" x1="60" y1="68.5" x2="72" y2="68.5"/><polygon class="cls-14" points="78 122 78 130 98 133 98 125 78 122"/><polygon class="cls-14" points="78 134 78 142 98 145 98 137 78 134"/><polygon class="cls-14" points="78 147 78 155 98 158 98 150 78 147"/><polygon class="cls-14" points="78 159 78 167 98 170 98 162 78 159"/><polygon class="cls-14" points="78 171 78 179 98 182 98 174 78 171"/><polygon class="cls-14" points="78 184 78 192 98 195 98 187 78 184"/><polygon class="cls-14" points="78 198 78 206 98 209 98 201 78 198"/><polygon class="cls-14" points="78 210 78 218 98 221 98 213 78 210"/><polygon class="cls-14" points="78 223 78 231 98 234 98 226 78 223"/><polygon class="cls-14" points="78 235 78 243 98 246 98 238 78 235"/><polygon class="cls-14" points="78 247 78 255 98 258 98 250 78 247"/><polygon class="cls-14" points="78 260 78 268 98 271 98 263 78 260"/><polygon class="cls-14" points="78 273 78 281 98 284 98 276 78 273"/><polygon class="cls-14" points="78 285 78 293 98 296 98 288 78 285"/><polygon class="cls-14" points="78 298 78 306 98 309 98 301 78 298"/><polygon class="cls-14" points="78 310 78 318 98 321 98 313 78 310"/><polygon class="cls-14" points="78 322 78 330 98 333 98 325 78 322"/><polygon class="cls-14" points="78 335 78 343 98 346 98 338 78 335"/><line class="cls-21" x1="61.49" y1="98.95" x2="87.66" y2="101.32"/><line class="cls-21" x1="60.76" y1="93.97" x2="86.94" y2="96.35"/><line class="cls-21" x1="61.72" y1="86.97" x2="87.9" y2="89.35"/><line class="cls-21" x1="61" y1="82" x2="87.17" y2="84.38"/><line class="cls-21" x1="61.28" y1="109.92" x2="87.45" y2="112.3"/><line class="cls-21" x1="60.55" y1="104.95" x2="86.73" y2="107.33"/><polygon class="cls-3" points="62.5 122.5 72.5 124.5 71 324 60 324 60.5 122.5 62.5 122.5"/><path class="cls-22" d="M49,135l9,3s0,14,4,14,6,3,7,7,10,7,9,13-2,17,3,23,5,8,8,19,7,5,7,17v42c0,14,2,36,2,38v13H53s-7-33-6.5-42-2.5-59-1-70S49,135,49,135Z"/></g><g id="GreenBehind"><polygon class="cls-6" points="35 351.48 35 324 51 324 118 324 135 324 135 550 123 550 122.5 373.36 84.5 370.31 79.5 350.97 51 351.3 42.51 351.39 35 351.48"/><rect class="cls-23" x="42" y="327" width="7" height="24"/><rect class="cls-23" x="53" y="327" width="7" height="24"/><rect class="cls-23" x="64" y="327" width="7" height="24"/><rect class="cls-23" x="76" y="327" width="7" height="41"/><line class="cls-24" x1="92.02" y1="330.21" x2="121.98" y2="331.79"/><line class="cls-24" x1="92.02" y1="337.21" x2="121.98" y2="338.79"/><line class="cls-24" x1="93.14" y1="343.32" x2="121" y2="344.79"/><line class="cls-24" x1="93.12" y1="350.32" x2="120.98" y2="351.79"/><line class="cls-24" x1="92.02" y1="356.21" x2="121.98" y2="357.79"/><line class="cls-24" x1="92.02" y1="363.21" x2="121.98" y2="364.79"/><line class="cls-25" x1="126.5" y1="329.5" x2="125.5" y2="544.5"/><line class="cls-25" x1="131.5" y1="330" x2="130.5" y2="544.5"/><g id="Layer_5" data-name="Layer 5" class="cls-26"><path class="cls-27" d="M34,348c15-2,26-7,35-4s16,6,19,10,5,19,5,19H72L33,361Z"/></g></g><g id="Layer_11" data-name="Layer 11"><polygon class="cls-28" points="765 390 853 390 856 588 764 588 765 390"/><path class="cls-29" d="M765,390a24.43,24.43,0,0,0,13,2c5,10,3,10.67,8,32.33S786,445,789,475s-8,46,4,58,1,39,15,44,33.5,11,33.5,11H766Z"/><g class="cls-30"><rect class="cls-31" x="780" y="404" width="7" height="12"/><rect class="cls-31" x="818" y="404" width="7" height="12"/><rect class="cls-31" x="832" y="404" width="7" height="12"/><rect class="cls-31" x="780" y="422" width="7" height="12"/><rect class="cls-31" x="804" y="422" width="7" height="12"/><rect class="cls-31" x="819" y="422" width="7" height="12"/><rect class="cls-31" x="840" y="422" width="7" height="12"/><rect class="cls-31" x="779" y="533" width="7" height="12"/><rect class="cls-31" x="803" y="533" width="7" height="12"/><rect class="cls-31" x="818" y="533" width="7" height="12"/><rect class="cls-31" x="839" y="533" width="7" height="12"/><rect class="cls-31" x="780" y="478" width="7" height="12"/><rect class="cls-31" x="804" y="478" width="7" height="12"/><rect class="cls-31" x="831" y="478" width="7" height="12"/><rect class="cls-31" x="780" y="459" width="7" height="12"/><rect class="cls-31" x="804" y="459" width="7" height="12"/><rect class="cls-31" x="786" y="441" width="7" height="12"/><rect class="cls-31" x="824" y="441" width="7" height="12"/><rect class="cls-31" x="838" y="441" width="7" height="12"/><rect class="cls-31" x="819" y="459" width="7" height="12"/><rect class="cls-31" x="840" y="459" width="7" height="12"/><rect class="cls-31" x="779" y="496" width="7" height="12"/><rect class="cls-31" x="817" y="496" width="7" height="12"/><rect class="cls-31" x="831" y="496" width="7" height="12"/><rect class="cls-31" x="790" y="572" width="7" height="12"/><rect class="cls-31" x="828" y="572" width="7" height="12"/><rect class="cls-31" x="842" y="572" width="7" height="12"/><rect class="cls-31" x="812" y="514" width="7" height="12"/><rect class="cls-31" x="833" y="514" width="7" height="12"/><rect class="cls-31" x="790" y="553" width="7" height="12"/><rect class="cls-31" x="811" y="553" width="7" height="12"/></g><path class="cls-32" d="M765,390V588h5.67S768,408,768,403s-3-13-3-13h0V588"/></g><g id="Layer_12" data-name="Layer 12"><polygon class="cls-33" points="856 564 907 572 907 589 856 588 856 564"/><polygon class="cls-34" points="855.41 549 907 549 907 572 856 564 855.41 549"/><polygon class="cls-9" points="855 502 867 502 907 502 907 520 855 522.5 855 502"/><polygon class="cls-35" points="881 514 881.5 530 907 531 907 514 881 514"/><path class="cls-8" d="M856,506c7,0,19,0,18,5s-1,8,5,9,7,5,12,8,5,5,5,5l-40.59,1.33L855,508Z"/><polygon class="cls-36" points="856 530 907 531 907 544 855 542 856 530"/><polygon class="cls-37" points="855 539 870 533 874 539 888 533 888 541 907 531 907 553 855.41 549 855 539"/><polygon class="cls-14" points="856 545 904 547 898 553 856 554 856 545"/><path class="cls-12" d="M896,484s-2-41,0-51,3-17,3-17h8v70H895.11Z"/><rect class="cls-22" x="898" y="434" width="2" height="11"/><rect class="cls-22" x="902" y="434" width="2" height="11"/><rect class="cls-22" x="902" y="448" width="2" height="11"/><rect class="cls-22" x="898" y="448" width="2" height="11"/><rect class="cls-22" x="902" y="462" width="2" height="11"/><rect class="cls-22" x="898" y="462" width="2" height="11"/><rect class="cls-22" x="898" y="476" width="2" height="11"/><rect class="cls-22" x="902" y="476" width="2" height="11"/><polygon class="cls-6" points="856 473 873 480.09 878.5 502 855 502 855 472 856 473"/><polygon class="cls-38" points="865 487 907 486 907 502 865 502 865 487"/><path class="cls-6" d="M868,490v8h5v-8Z"/><path class="cls-6" d="M876,490v8h5v-8Z"/><path class="cls-6" d="M884,490v8h5v-8Z"/><path class="cls-6" d="M899,490v8h5v-8Z"/><path class="cls-6" d="M891,490v8h5v-8Z"/><polygon class="cls-39" points="895.11 472 876 473 870.5 486 895.11 486 895.11 472"/></g><g id="Layer_13" data-name="Layer 13"><path class="cls-37" d="M561,456s6.81-94.7,11.33-126c4.81-33.29,18.41-105.21,29.67-139,17-51,25.9-66.26,39-81,8-9,21.26-7.31,27-3,12,9,29.67,47,41,81a593.57,593.57,0,0,1,17.82,65c2.06,9,6.18,37,6.18,37L642.37,580l-78.28-16Z"/><polygon class="cls-23" points="633 460 640 471 640 508 623 481 633 460"/><polygon class="cls-23" points="623 532 633 548 645 551 645 520 636 510 623 532"/><path class="cls-23" d="M603,550s-13-37-17-48-9-35-11-41-6-23-6-30-1-11,0-21,1-20,1-20,4,31,7,41,9,28,12,35,10,22,12,26,18,38,22,45l8,14Z"/><polygon class="cls-23" points="610 504 620 484 633 506 621 524 610 504"/><path class="cls-23" d="M574,475s15,47,19,53-5,11-5,11l-15-19Z"/><path class="cls-23" d="M589.5,255.5s-6.69,34.68-7,46C582,319.73,590,357,597,373s23,56,29,66,15,23,15,23l-.5-53.5s-22-32-28-47-13-31-16-48S586,267,589.5,255.5Z"/><path class="cls-23" d="M615,225s5,27,8,34,16,39,21,46,20-9,20-9-18-31-23-46-13.8-40-13-50C628.94,188.17,615,224.94,615,225Z"/><path class="cls-23" d="M678,222l6-20s43,84,42,88-16,0-16,0S694,257,678,222Z"/><polygon class="cls-23" points="610 452 620 474 630 457 618 436 610 452"/><polygon class="cls-23" points="589 453 608 498 618 478 597 436 589 453"/><polygon class="cls-23" points="591 404 600 426 603 416 600 410 603 404 600 398 602 393 597 385 591 404"/><polygon class="cls-23" points="582 436 591 416 595 431 588 445 582 436"/><path class="cls-23" d="M597,300l7,21,10-19s-8-20-8-21S597,300,597,300Z"/><polygon class="cls-23" points="639 307 633 320 636 327 633 331 638 339 633 343 638 351 633 359 638 367 633 371 636 380 633 387 636 393 634.33 396 645 408 645 307 639 307"/><polygon class="cls-23" points="608 261 608 268 616 255 614 251 608 261"/><polygon class="cls-28" points="645 198 654 220 664 197 654 174 645 198"/><polygon class="cls-28" points="666 197 675 220 682 198 672 174 666 197"/><polygon class="cls-28" points="685 198 695 218 697 198 687 176 685 198"/><polygon class="cls-28" points="699 180 699 194 709 218 709 197 699 180"/><polygon class="cls-28" points="629 194 635 218 643 198 639 174 629 194"/><polygon class="cls-28" points="614 198 625 176 625 193 614 218 614 198"/><polygon class="cls-28" points="602 220 603 204 614 180 612 197 602 220"/><polygon class="cls-14" points="699 223 707 238 709 225 700 206 699 223"/><polygon class="cls-14" points="709 241 718 258 718 245 712 230 709 241"/><polygon class="cls-14" points="721 262 730 286 724 258 721 251 721 262"/><polygon class="cls-14" points="657 223 666 242 674 224 665 206 657 223"/><polygon class="cls-14" points="668 248 678 268 686 248 677 230 668 248"/><polygon class="cls-14" points="636 224 641 243 653 222 645 203 636 224"/><polygon class="cls-14" points="644 249 653 268 664 247 654 230 644 249"/><polygon class="cls-14" points="656 273 664 290 706 290 688 255 675.5 284.5 672.5 280.5 675.5 272.5 665.5 253.5 656 273"/><polygon class="cls-14" points="674 170 682 189 685 171 675 152 674 170"/><polygon class="cls-14" points="688 174 697 189 695 168 686 153 688 174"/><polygon class="cls-14" points="663 150 670 170 664 191 657 171 663 150"/><polygon class="cls-14" points="664 143 670 158 672 146 665 128 664 143"/><polygon class="cls-14" points="676 147 685 163 684 147 674 129 676 147"/><polygon class="cls-14" points="666 116 666 124 672 140 670 124 666 116"/><polygon class="cls-14" points="641 172 644 191 653 169 650 150 641 172"/><polygon class="cls-14" points="651 146 656 166 661 146 657 129 651 146"/><polygon class="cls-14" points="660 115 658 124 661 136 663 123 660 115"/><polygon class="cls-14" points="640 147 640 166 649 147 647 131 640 147"/><polygon class="cls-14" points="636 153 627 171 627 189 636 171 636 153"/><g class="cls-26"><polygon class="cls-35" points="633 460 640 471 640 508 623 481 633 460"/><polygon class="cls-35" points="623 532 633 548 645 551 645 520 636 510 623 532"/><path class="cls-35" d="M603,550s-13-37-17-48-9-35-11-41-6-23-6-30-1-11,0-21,1-20,1-20,4,31,7,41,9,28,12,35,10,22,12,26,18,38,22,45l8,14Z"/><polygon class="cls-35" points="610 504 620 484 633 506 621 524 610 504"/></g></g><g id="Layer_2" data-name="Layer 2"><g id="BlueLeftFrontv"><polygon class="cls-1" points="32.5 350.5 80.5 350.5 84.5 369.5 103.54 371 122.5 372.5 122.5 588.5 101.33 588.5 32.5 588.5 32.5 350.5"/><polygon class="cls-4" points="33.33 389.67 52.5 389.5 52.5 414.5 32.5 414.5 33.33 389.67"/><polygon class="cls-4" points="60.33 389.67 79.5 389.5 79.5 414.5 59.5 414.5 60.33 389.67"/><line class="cls-21" x1="103.5" y1="371.5" x2="101.5" y2="588.5"/><line class="cls-21" x1="84.5" y1="369.5" x2="84.5" y2="588.5"/><line class="cls-21" x1="56.5" y1="369.5" x2="56.5" y2="588.5"/><rect class="cls-4" x="35" y="423" width="16" height="11"/><rect class="cls-4" x="35" y="439" width="16" height="11"/><rect class="cls-4" x="35" y="459" width="16" height="11"/><rect class="cls-4" x="35" y="475" width="16" height="11"/><rect class="cls-4" x="35" y="497" width="16" height="11"/><rect class="cls-4" x="35" y="513" width="16" height="11"/><rect class="cls-4" x="35" y="535" width="16" height="11"/><rect class="cls-4" x="35" y="551" width="16" height="11"/><rect class="cls-4" x="35" y="569" width="16" height="11"/><rect class="cls-4" x="62" y="424" width="16" height="11"/><rect class="cls-4" x="62" y="440" width="16" height="11"/><rect class="cls-4" x="62" y="460" width="16" height="11"/><rect class="cls-4" x="62" y="476" width="16" height="11"/><rect class="cls-4" x="62" y="498" width="16" height="11"/><rect class="cls-4" x="62" y="514" width="16" height="11"/><rect class="cls-4" x="62" y="536" width="16" height="11"/><rect class="cls-4" x="62" y="552" width="16" height="11"/><rect class="cls-4" x="62" y="570" width="16" height="11"/><rect class="cls-4" x="89" y="429" width="9" height="11"/><rect class="cls-4" x="89" y="445" width="9" height="11"/><rect class="cls-4" x="89" y="465" width="9" height="11"/><rect class="cls-4" x="89" y="481" width="9" height="11"/><rect class="cls-4" x="89" y="503" width="9" height="11"/><rect class="cls-4" x="89" y="519" width="9" height="11"/><rect class="cls-4" x="89" y="541" width="9" height="11"/><rect class="cls-4" x="89" y="557" width="9" height="11"/><rect class="cls-4" x="89" y="575" width="9" height="11"/><rect class="cls-4" x="109" y="427" width="9" height="11"/><rect class="cls-4" x="109" y="443" width="9" height="11"/><rect class="cls-4" x="109" y="463" width="9" height="11"/><rect class="cls-4" x="109" y="479" width="9" height="11"/><rect class="cls-4" x="109" y="501" width="9" height="11"/><rect class="cls-4" x="109" y="517" width="9" height="11"/><rect class="cls-4" x="109" y="539" width="9" height="11"/><rect class="cls-4" x="109" y="555" width="9" height="11"/><rect class="cls-4" x="109" y="573" width="9" height="11"/></g><polyline class="cls-4" points="35 324 33.52 343.95 33 351"/></g><g id="Layer_7" data-name="Layer 7"><path class="cls-28" d="M274.5,78.5v-54s9-5,18-4,4,1,15,2,17-2,17-2l38,3v104l-49,2-5-51Z"/><path class="cls-6" d="M243,75l-6,514H358V321l44-5V130s-42.5-6.5-53.5-5.5-29,0-29,0v-52h-50Z"/><path class="cls-14" d="M272,107.42,253,357.64s-11,47.75,4,31.52-2-40.11,17-55.4,36-1.91,44-20.05-6-32.47,13-47.75,47-6.69,53-19.11S402,201,402,180V140.84l-89,1L306,95Z"/><path class="cls-40" d="M238,589l-2-64s65,0,64-21,3-23,8-43,11-52,26-59,13-55,14-67-6-37,14-36,38,10,38,10V591Z"/><line class="cls-20" x1="244" y1="75" x2="238.5" y2="588.5"/><line class="cls-41" x1="259.5" y1="74" x2="254.5" y2="588.5"/><line class="cls-41" x1="288.5" y1="72" x2="283.5" y2="588.5"/><line class="cls-41" x1="302.5" y1="73" x2="297.5" y2="588.5"/><line class="cls-20" x1="316.5" y1="73" x2="311.5" y2="588.5"/><line class="cls-42" x1="342.5" y1="124" x2="337.5" y2="588.5"/><line class="cls-41" x1="357.5" y1="126" x2="353.5" y2="588.5"/><line class="cls-41" x1="374.5" y1="128" x2="370.5" y2="588.5"/><line class="cls-41" x1="390.5" y1="129" x2="386.5" y2="588.5"/><line class="cls-20" x1="402.5" y1="129" x2="398.5" y2="588.5"/><line class="cls-42" x1="269.5" y1="588.5" x2="274.5" y2="72"/><line class="cls-43" x1="327.5" y1="123" x2="322.5" y2="588.5"/><g class="cls-32"><polygon points="342 31 342 42 360 43 360 32 342 31"/><polygon points="330 46 330 57 341 58 341 47 330 46"/><polygon points="334 86 334 94.25 348 95 348 86.75 334 86"/><polygon points="331 68 331 71.67 345 72 345 68.33 331 68"/><polygon points="292 30 292 39 308 40 308 31 292 30"/><rect x="298" y="47" width="8" height="8"/></g></g><g id="Layer_8" data-name="Layer 8"><path class="cls-38" d="M360,322s36-4,42-6,151,0,151,0l3,6h7l3,266-206,1Z"/><line class="cls-44" x1="422" y1="324" x2="421" y2="588"/><line class="cls-44" x1="552" y1="324" x2="551" y2="592"/><polygon class="cls-3" points="426 339 546 343 546 356 426 356 426 339"/><rect class="cls-31" x="363" y="340" width="16" height="16"/><rect class="cls-31" x="381" y="340" width="16" height="16"/><rect class="cls-31" x="400" y="340" width="16" height="16"/><rect class="cls-31" x="363" y="360" width="16" height="16"/><rect class="cls-31" x="381" y="360" width="16" height="16"/><rect class="cls-31" x="400" y="360" width="16" height="16"/><rect class="cls-31" x="363" y="382" width="16" height="16"/><rect class="cls-31" x="381" y="382" width="16" height="16"/><rect class="cls-31" x="400" y="382" width="16" height="16"/><rect class="cls-31" x="362" y="404" width="16" height="16"/><rect class="cls-31" x="380" y="404" width="16" height="16"/><rect class="cls-31" x="399" y="404" width="16" height="16"/><rect class="cls-31" x="363" y="424" width="16" height="16"/><rect class="cls-31" x="381" y="424" width="16" height="16"/><rect class="cls-31" x="400" y="424" width="16" height="16"/><rect class="cls-31" x="363" y="444" width="16" height="16"/><rect class="cls-31" x="381" y="444" width="16" height="16"/><rect class="cls-31" x="400" y="444" width="16" height="16"/><rect class="cls-31" x="363" y="466" width="16" height="16"/><rect class="cls-31" x="381" y="466" width="16" height="16"/><rect class="cls-31" x="400" y="466" width="16" height="16"/><rect class="cls-31" x="362" y="488" width="16" height="16"/><rect class="cls-31" x="380" y="488" width="16" height="16"/><rect class="cls-31" x="399" y="488" width="16" height="16"/><rect class="cls-31" x="363" y="508" width="16" height="16"/><rect class="cls-31" x="381" y="508" width="16" height="16"/><rect class="cls-31" x="400" y="508" width="16" height="16"/><rect class="cls-31" x="363" y="528" width="16" height="16"/><rect class="cls-31" x="381" y="528" width="16" height="16"/><rect class="cls-31" x="400" y="528" width="16" height="16"/><rect class="cls-31" x="363" y="550" width="16" height="16"/><rect class="cls-31" x="381" y="550" width="16" height="16"/><rect class="cls-31" x="400" y="550" width="16" height="16"/><rect class="cls-31" x="362" y="572" width="16" height="16"/><rect class="cls-31" x="380" y="572" width="16" height="16"/><rect class="cls-31" x="399" y="572" width="16" height="16"/><path class="cls-22" d="M426,486c1,1.91-3,10.49,7,21.94s28,14.3,37,21.93,0,15.26,19,24.8,26,5.72,36,8.58,19,11.44,21,16.21a76.18,76.18,0,0,0,5,9.54H427Z"/><path class="cls-45" d="M427,324s-4,22,0,35,13,18,36,39,46,30,49,42,15,23,23,36,11,42,11,42V324Z"/><polygon class="cls-14" points="427 359 427 386.29 449 387.34 448 359 427 359"/><polygon class="cls-14" points="452 359 452 386.29 474 387.34 473 359 452 359"/><polygon class="cls-14" points="479 359 479 386.29 500 387.34 499.05 359 479 359"/><polygon class="cls-14" points="503 359 503 386.29 522 387.34 521.14 359 503 359"/><polygon class="cls-14" points="525 359 525 386.29 545 387.34 544.09 359 525 359"/><polygon class="cls-31" points="427 391.54 427 418.84 449 419.89 448 391.54 427 391.54"/><polygon class="cls-14" points="452 391.54 452 418.84 474 419.89 473 391.54 452 391.54"/><polygon class="cls-14" points="479 391.54 479 418.84 500 419.89 499.05 391.54 479 391.54"/><polygon class="cls-14" points="503 391.54 503 418.84 522 419.89 521.14 391.54 503 391.54"/><polygon class="cls-14" points="525 391.54 525 418.84 545 419.89 544.09 391.54 525 391.54"/><polygon class="cls-31" points="427 426.19 427 453.48 449 454.53 448 426.19 427 426.19"/><polygon class="cls-31" points="452 426.19 452 453.48 474 454.53 473 426.19 452 426.19"/><polygon class="cls-14" points="479 426.19 479 453.48 500 454.53 499.05 426.19 479 426.19"/><polygon class="cls-14" points="503 426.19 503 453.48 522 454.53 521.14 426.19 503 426.19"/><polygon class="cls-14" points="525 426.19 525 453.48 545 454.53 544.09 426.19 525 426.19"/><polygon class="cls-31" points="427 460.83 427 488.12 449 489.17 448 460.83 427 460.83"/><polygon class="cls-31" points="452 460.83 452 488.12 474 489.17 473 460.83 452 460.83"/><polygon class="cls-31" points="479 460.83 479 488.12 500 489.17 499.05 460.83 479 460.83"/><polygon class="cls-31" points="503 460.83 503 488.12 522 489.17 521.14 460.83 503 460.83"/><polygon class="cls-14" points="525 460.83 525 488.12 545 489.17 544.09 460.83 525 460.83"/><polygon class="cls-4" points="427 493.37 427 520.66 449 521.72 448 493.37 427 493.37"/><polygon class="cls-4" points="452 493.37 452 520.66 474 521.72 473 493.37 452 493.37"/><polygon class="cls-31" points="479 493.37 479 520.66 500 521.72 499.05 493.37 479 493.37"/><polygon class="cls-31" points="503 493.37 503 520.66 522 521.72 521.14 493.37 503 493.37"/><polygon class="cls-31" points="525 493.37 525 520.66 545 521.72 544.09 493.37 525 493.37"/><polygon class="cls-4" points="427 528.01 427 555.31 449 556.36 448 528.01 427 528.01"/><polygon class="cls-4" points="452 528.01 452 555.31 474 556.36 473 528.01 452 528.01"/><polygon class="cls-4" points="479 528.01 479 555.31 500 556.36 499.05 528.01 479 528.01"/><polygon class="cls-31" points="503 528.01 503 555.31 522 556.36 521.14 528.01 503 528.01"/><polygon class="cls-31" points="525 528.01 525 555.31 545 556.36 544.09 528.01 525 528.01"/><polygon class="cls-4" points="427 562.66 427 589.95 449 591 448 562.66 427 562.66"/><polygon class="cls-4" points="452 562.66 452 589.95 474 591 473 562.66 452 562.66"/><polygon class="cls-4" points="479 562.66 479 589.95 500 591 499.05 562.66 479 562.66"/><polygon class="cls-4" points="503 562.66 503 589.95 522 591 521.14 562.66 503 562.66"/><polygon class="cls-4" points="525 562.66 525 589.95 545 591 544.09 562.66 525 562.66"/><path class="cls-29" d="M362,588s17,7,26-11,9-48,14-63,4-38,2-54,2-34,4-56,8-58,8-58l2-23V588l-58,3Z"/></g><g id="Layer_10" data-name="Layer 10"><polygon class="cls-3" points="640 552 640 290 733 290 765 293 765 588 656 589 640 552"/><polygon class="cls-46" points="640 318 741 320 741 324 640 323 640 318"/><path class="cls-47" d="M640,348l54-1v60s-1,27,0,37,9,46.17,11,58c7,41,30.92,42.37,38,64,2.42,7.39,22,22,22,22l-127,1Z"/><rect class="cls-46" x="703" y="362" width="62" height="5"/><rect class="cls-46" x="703" y="373" width="62" height="5"/><rect class="cls-46" x="703" y="385" width="62" height="5"/><rect class="cls-46" x="703" y="396" width="62" height="5"/><rect class="cls-46" x="703" y="406" width="62" height="5"/><rect class="cls-46" x="703" y="416" width="62" height="5"/><rect class="cls-46" x="703" y="426" width="62" height="10"/><rect class="cls-46" x="703" y="440" width="62" height="10"/><rect class="cls-46" x="703" y="456" width="62" height="10"/><rect class="cls-14" x="745" y="321" width="9" height="3"/><rect class="cls-14" x="756" y="321" width="9" height="3"/><rect class="cls-14" x="705" y="334" width="11" height="18"/><rect class="cls-14" x="722" y="334" width="11" height="18"/><rect class="cls-14" x="739" y="334" width="11" height="18"/><rect class="cls-14" x="754" y="334" width="11" height="18"/><rect class="cls-14" x="704" y="296" width="11" height="18"/><rect class="cls-14" x="721" y="296" width="11" height="18"/><rect class="cls-14" x="738" y="296" width="11" height="18"/><rect class="cls-14" x="753" y="296" width="11" height="18"/></g><g id="Layer_9" data-name="Layer 9"><polygon class="cls-48" points="612.26 564.91 628.71 384.61 596.82 549.27 612.5 574.07 612.26 564.91"/><polygon class="cls-48" points="572.65 549.47 580.48 375.96 581.49 519.32 583.52 554.12 572.65 549.47"/><path class="cls-48" d="M685.93,570.83,747,478.7,699.51,588.94"/><polygon class="cls-48" points="652.86 571.64 689.88 454.46 658.41 600.7 652.86 571.64"/><polygon class="cls-3" points="566 544 566 588 603 588 603 572 566 544"/><polygon class="cls-3" points="675 574 675 589 701 589 701 583 687 572 675 574"/><polygon class="cls-3" points="616 550 641 548 641 558 651 557 654 572 632 572 632 563 620 563 613 560 616 550"/><polygon class="cls-18" points="569 550 572 390 577 522 580 554 569 550"/><polygon class="cls-14" points="577 522 577 550 569 550 573 566 588 566 590 572 603 572 603 558 581 518 577 522"/><path class="cls-18" d="M688,556.13,733,486l-35.12,84"/><polygon class="cls-14" points="680.67 531.5 675 574.42 680.67 574.42 680.67 583 699.96 583 699.96 579.78 704.5 564.76 695.42 564.76 686.35 531.5 680.67 531.5"/><polygon class="cls-49" points="603 550 603 588 623 589 620 563 613 560 616 550 603 550"/><polygon class="cls-9" points="620 563 632 563 632 589.92 620 591 620 563"/><rect class="cls-50" x="632" y="572" width="24" height="17"/><polygon class="cls-18" points="651 557 678 461 656 580.5 651 557"/><polygon class="cls-18" points="603 550 620 393 590.9 536 603 558 603 550"/><polygon class="cls-51" points="569 533.33 577 526 577 550 569 550 569 533.33"/><polygon class="cls-51" points="591 536 593 528 603 542 603 558 591 536"/><polygon class="cls-3" points="603 548 641 548 616 550 603 550 603 548"/><polygon class="cls-3" points="640 591 640 579 651 579 651 589.8 640 591"/><polygon class="cls-51" points="651 557 656 580 660 560 653 550 651 557"/><polygon class="cls-51" points="692 550 698 541 703 557 700 565 695 565 692 550"/></g></svg>