<svg id="Layer_1" data-name="Layer 1" xmlns="http://www.w3.org/2000/svg" viewBox="0 0 875 571"><defs><style>.cls-1{fill:#6a52de;}.cls-2{fill:#5d7fae;}.cls-3{fill:#dad8e8;}.cls-4,.cls-48{fill:#503ea7;}.cls-23,.cls-5{fill:#35296f;}.cls-12,.cls-19,.cls-20,.cls-21,.cls-25,.cls-41,.cls-6{fill:none;stroke-miterlimit:10;}.cls-12,.cls-41,.cls-6{stroke:#fff;}.cls-19,.cls-20,.cls-21,.cls-25,.cls-6{stroke-width:3px;}.cls-7{fill:#d2fad6;}.cls-8{fill:#85b4c7;}.cls-9{fill:#6fdcca;}.cls-10{fill:#f9a9b6;}.cls-11{fill:#f9f8fe;}.cls-12{stroke-width:2px;}.cls-13{fill:#9ca7ef;}.cls-14{fill:#ccc4f4;}.cls-15,.cls-42{fill:#fff;}.cls-16{fill:#23576b;}.cls-17{fill:#9ca8ef;}.cls-18{fill:#aad0e0;}.cls-19{stroke:#6a52de;}.cls-20{stroke:#323071;}.cls-21{stroke:#503ea7;}.cls-22,.cls-27,.cls-33{fill:#23146b;}.cls-22,.cls-23,.cls-48{opacity:0.5;}.cls-22,.cls-23,.cls-27,.cls-30,.cls-39,.cls-42,.cls-44,.cls-45,.cls-48{isolation:isolate;}.cls-24,.cls-39{fill:#3482a1;}.cls-25{stroke:#f9a9b6;}.cls-26{fill:#323071;}.cls-27,.cls-39{opacity:0.8;}.cls-28{opacity:0.7;}.cls-29{fill:#d6e6ec;}.cls-30,.cls-40{opacity:0.3;}.cls-31{fill:#c7c5d4;}.cls-32{fill:#f8b0bc;}.cls-34{fill:#b5deef;}.cls-35{fill:#6abdde;}.cls-36{fill:#45add6;}.cls-37{fill:#8875e5;}.cls-38{opacity:0.6;}.cls-41{stroke-width:6px;}.cls-42,.cls-44{opacity:0.2;}.cls-43,.cls-44,.cls-45{fill:#191839;}.cls-45{opacity:0.4;}.cls-46{fill:#f894a4;}.cls-47{fill:#fcd4db;}</style></defs><title>London</title><g id="Layer_6" data-name="Layer 6"><rect class="cls-1" x="162" y="421" width="4" height="43"/></g><g id="Layer_9" data-name="Layer 9"><polygon class="cls-2" points="90.5 559.19 146.5 558.06 146.9 567.06 90.5 567.06 90.5 559.19"/><polygon class="cls-2" points="102.71 508.99 206 508.99 206 517.99 152.85 537.99 117.75 533.99 102.71 530.99 102.71 508.99"/><polygon class="cls-2" points="113 529.22 129 526.99 131 543.68 113 545.99 113 529.22"/><polygon class="cls-3" points="160 518.99 160 526.99 206 529.99 206 517.99 160 518.99"/><polygon class="cls-4" points="129.64 532.45 151 531.99 151.46 540.99 131 540.47 129.64 532.45"/><polygon class="cls-2" points="178 524.99 192 524.99 205 527.99 205 552.99 200 552.99 178 524.99"/><polygon class="cls-5" points="102.71 447.99 153 447.99 152.87 457.87 131.88 457.99 132.16 488.49 127.85 491.99 108.74 492.99 102.71 488.99 102.71 447.99"/><line class="cls-6" x1="102.71" y1="514.99" x2="206" y2="514.99"/><path class="cls-7" d="M174.5,555.32l-.5-10.94s23-5.47,27-4.37,22,6.56,22,6.56V569" transform="translate(-23 -15)"/><polygon class="cls-8" points="90.5 544.79 138.5 542.79 137.46 558.79 90.5 559.79 90.5 544.79"/><path class="cls-9" d="M180,430s6-4,9-4,8-1,11-1,20-2,20-2v53l-40-1Z" transform="translate(-23 -15)"/><polygon class="cls-10" points="90.5 528.99 113 528.99 113 543.87 90.5 545.99 90.5 528.99"/><polygon class="cls-10" points="137 552.99 205 552.99 205.01 566.99 146.9 567.06 146 558.99 137 558.8 137 552.99"/><polygon class="cls-11" points="131 542.21 131 538.99 190 541.14 190 545.42 196 545.42 196 552.92 137 553.99 138 543.28 131 542.21"/><line class="cls-12" x1="103" y1="508.99" x2="206" y2="508.99"/><rect class="cls-2" x="106" y="457.99" width="8" height="3"/><rect class="cls-2" x="116" y="457.99" width="8" height="3"/><rect class="cls-2" x="126" y="457.99" width="8" height="3"/><rect class="cls-2" x="106" y="463.99" width="8" height="3"/><rect class="cls-2" x="116" y="463.99" width="8" height="3"/><rect class="cls-2" x="126" y="463.99" width="8" height="3"/><rect class="cls-2" x="106" y="469.99" width="8" height="3"/><rect class="cls-2" x="116" y="469.99" width="8" height="3"/><rect class="cls-2" x="126" y="469.99" width="8" height="3"/><rect class="cls-2" x="106" y="474.99" width="8" height="3"/><rect class="cls-2" x="116" y="474.99" width="8" height="3"/><rect class="cls-2" x="126" y="474.99" width="8" height="3"/><rect class="cls-2" x="106" y="480.99" width="8" height="3"/><rect class="cls-2" x="116" y="480.99" width="8" height="3"/><rect class="cls-2" x="126" y="480.99" width="8" height="3"/><rect class="cls-2" x="106" y="485.99" width="8" height="3"/><rect class="cls-2" x="116" y="485.99" width="8" height="3"/><rect class="cls-2" x="126" y="485.99" width="8" height="3"/><polygon class="cls-13" points="132.07 488.49 131.81 457.99 187 457.99 186.67 499.99 130.79 492.99 132.07 488.49"/><polygon class="cls-14" points="206 407.99 200 407.99 197 411.06 197 416.16 185 416.16 185 418.2 187 418.2 186.51 463.07 186 508.99 196 508.99 206 508.99 206 407.99"/><rect class="cls-2" x="189" y="420.99" width="6" height="5"/><rect class="cls-2" x="198" y="421.99" width="6" height="4"/><rect class="cls-2" x="189" y="427.99" width="6" height="5"/><rect class="cls-2" x="198" y="428.99" width="6" height="4"/><rect class="cls-2" x="189" y="434.99" width="6" height="5"/><rect class="cls-2" x="198" y="435.99" width="6" height="4"/><rect class="cls-2" x="189" y="441.99" width="6" height="5"/><rect class="cls-2" x="198" y="442.99" width="6" height="4"/><rect class="cls-2" x="189" y="448.99" width="6" height="5"/><rect class="cls-2" x="198" y="449.99" width="6" height="4"/><rect class="cls-2" x="189" y="455.99" width="6" height="5"/><rect class="cls-2" x="198" y="456.99" width="6" height="4"/><rect class="cls-2" x="189" y="462.99" width="6" height="5"/><rect class="cls-2" x="198" y="463.99" width="6" height="4"/><rect class="cls-2" x="189" y="469.99" width="6" height="5"/><rect class="cls-2" x="198" y="470.99" width="6" height="4"/><rect class="cls-2" x="189" y="477.99" width="6" height="5"/><rect class="cls-2" x="198" y="478.99" width="6" height="4"/><rect class="cls-2" x="189" y="484.99" width="6" height="5"/><rect class="cls-2" x="198" y="485.99" width="6" height="4"/><rect class="cls-2" x="189" y="491.99" width="6" height="5"/><rect class="cls-2" x="198" y="492.99" width="6" height="4"/><rect class="cls-2" x="189" y="498.99" width="6" height="5"/><rect class="cls-2" x="198" y="499.99" width="6" height="4"/><polygon class="cls-2" points="178 476.99 178 500.99 186.41 500.99 188 477.99 178 476.99"/><polygon class="cls-15" points="136 463.99 141 463.99 141 467.99 136 467.99 136 464.99 136 463.99"/><polygon class="cls-15" points="142 463.99 147 463.99 147 467.99 142 467.99 142 464.99 142 463.99"/><polygon class="cls-15" points="148 463.99 153 463.99 153 467.99 148 467.99 148 464.99 148 463.99"/><polygon class="cls-15" points="155 463.99 160 463.99 160 467.99 155 467.99 155 464.99 155 463.99"/><polygon class="cls-15" points="161 463.99 166 463.99 166 467.99 161 467.99 161 464.99 161 463.99"/><polygon class="cls-15" points="167 463.99 172 463.99 172 467.99 167 467.99 167 464.99 167 463.99"/><polygon class="cls-15" points="173 463.99 178 463.99 178 467.99 173 467.99 173 464.99 173 463.99"/><polygon class="cls-15" points="179 463.99 184 463.99 184 467.99 179 467.99 179 464.99 179 463.99"/><polygon class="cls-15" points="173 469.99 178 469.99 178 473.99 173 473.99 173 470.99 173 469.99"/><polygon class="cls-15" points="179 469.99 184 469.99 184 473.99 179 473.99 179 470.99 179 469.99"/><polygon class="cls-15" points="136 469.99 141 469.99 141 473.99 136 473.99 136 470.99 136 469.99"/><polygon class="cls-15" points="142 469.99 147 469.99 147 473.99 142 473.99 142 470.99 142 469.99"/><polygon class="cls-15" points="148 469.99 153 469.99 153 473.99 148 473.99 148 470.99 148 469.99"/><polygon class="cls-15" points="155 469.99 160 469.99 160 473.99 155 473.99 155 470.99 155 469.99"/><polygon class="cls-15" points="161 469.99 166 469.99 166 473.99 161 473.99 161 470.99 161 469.99"/><polygon class="cls-15" points="167 469.99 172 469.99 172 473.99 167 473.99 167 470.99 167 469.99"/><polygon class="cls-15" points="136 475.99 141 475.99 141 479.99 136 479.99 136 476.99 136 475.99"/><polygon class="cls-15" points="142 475.99 147 475.99 147 479.99 142 479.99 142 476.99 142 475.99"/><polygon class="cls-15" points="148 475.99 153 475.99 153 479.99 148 479.99 148 476.99 148 475.99"/><polygon class="cls-15" points="155 475.99 160 475.99 160 479.99 155 479.99 155 476.99 155 475.99"/><polygon class="cls-15" points="161 475.99 166 475.99 166 479.99 161 479.99 161 476.99 161 475.99"/><polygon class="cls-15" points="136 481.99 141 481.99 141 485.99 136 485.99 136 482.99 136 481.99"/><polygon class="cls-15" points="142 481.99 147 481.99 147 485.99 142 485.99 142 482.99 142 481.99"/><polygon class="cls-15" points="148 481.99 153 481.99 153 485.99 148 485.99 148 482.99 148 481.99"/><polygon class="cls-15" points="155 481.99 160 481.99 160 485.99 155 485.99 155 482.99 155 481.99"/><polygon class="cls-15" points="136 486.99 141 486.99 141 490.99 136 490.99 136 487.99 136 486.99"/><polygon class="cls-15" points="142 486.99 147 486.99 147 490.99 142 490.99 142 487.99 142 486.99"/><polygon class="cls-15" points="148 486.99 153 486.99 153 490.99 148 490.99 148 487.99 148 486.99"/><polygon class="cls-15" points="155 486.99 160 486.99 160 490.99 155 490.99 155 487.99 155 486.99"/><path class="cls-16" d="M163.55,506v-.15c.13-.82,1-4.74,6.43-3.85,6,1,9,3,11,3h5v10l-21-1Z" transform="translate(-23 -15)"/><path class="cls-9" d="M125.71,501s5,1,7,3,8,4,9,2,17.09-4,17.09-1,1-1,7,2,3,6,7,6,7-4,9-4,4,3,4,3l1,9-61.29-2Z" transform="translate(-23 -15)"/><polygon class="cls-5" points="163.22 498.99 186.46 499.99 186.41 503.99 163.5 503.49 163.22 499.99 163.22 498.99"/><polygon class="cls-10" points="178 476.99 163 475.99 163 499.99 178 500.99 178 476.99"/><polygon class="cls-10" points="102.71 495.99 138.85 495.99 138.85 501.76 189 502.34 188.64 508.99 102.71 510.99 102.71 495.99"/><rect class="cls-4" x="158" y="459.99" width="8" height="3"/><rect class="cls-4" x="167" y="459.99" width="8" height="3"/><rect class="cls-4" x="176" y="459.99" width="8" height="3"/><rect class="cls-2" x="163" y="415.99" width="2" height="3"/><rect class="cls-2" x="173" y="415.99" width="2" height="3"/><rect class="cls-2" x="166" y="440.99" width="2" height="3"/><rect class="cls-2" x="173" y="421.99" width="7" height="3"/><rect class="cls-2" x="162" y="427.99" width="7" height="3"/><rect class="cls-2" x="167.5" y="421.49" width="2" height="3"/><rect class="cls-2" x="176" y="431.99" width="2" height="3"/><rect class="cls-2" x="173" y="437.99" width="2" height="3"/><rect class="cls-2" x="172" y="426.99" width="2" height="3"/><rect class="cls-2" x="165" y="433.99" width="2" height="3"/><rect class="cls-2" x="175" y="426.99" width="2" height="3"/><rect class="cls-2" x="178" y="426.99" width="2" height="3"/><rect class="cls-2" x="159" y="420.99" width="2" height="3"/><rect class="cls-2" x="179" y="415.99" width="2" height="3"/><rect class="cls-2" x="160" y="438.99" width="2" height="3"/><rect class="cls-2" x="181" y="437.99" width="2" height="3"/><polygon class="cls-17" points="0 328.99 1 10.99 14 6.99 28 9.99 28 13.99 43 13.99 43 52.99 62 56.99 62 82.99 70 91.99 79 92.99 84 96.99 88 96.99 90 302.99 0 328.99"/><line class="cls-6" x1="70" y1="99.99" x2="85" y2="102.99"/><line class="cls-6" x1="70" y1="105.99" x2="85" y2="108.99"/><line class="cls-6" x1="70" y1="111.99" x2="85" y2="114.99"/><line class="cls-6" x1="70" y1="116.99" x2="85" y2="119.99"/><line class="cls-6" x1="70" y1="122.99" x2="85" y2="125.99"/><line class="cls-6" x1="70" y1="128.99" x2="85" y2="131.99"/><line class="cls-6" x1="70" y1="134.99" x2="85" y2="137.99"/><line class="cls-6" x1="70" y1="140.99" x2="85" y2="143.99"/><line class="cls-6" x1="70" y1="146.99" x2="85" y2="149.99"/><line class="cls-6" x1="70" y1="152.99" x2="85" y2="155.99"/><line class="cls-6" x1="70" y1="158.99" x2="85" y2="161.99"/><line class="cls-6" x1="70" y1="164.99" x2="85" y2="167.99"/><line class="cls-6" x1="70" y1="169.99" x2="85" y2="172.99"/><line class="cls-6" x1="70" y1="175.99" x2="85" y2="178.99"/><line class="cls-6" x1="70" y1="181.99" x2="85" y2="184.99"/><line class="cls-6" x1="70" y1="187.99" x2="85" y2="190.99"/><line class="cls-6" x1="70" y1="193.99" x2="85" y2="196.99"/><line class="cls-6" x1="70" y1="199.99" x2="85" y2="202.99"/><line class="cls-6" x1="70" y1="205.99" x2="85" y2="208.99"/><line class="cls-6" x1="70" y1="211.99" x2="85" y2="214.99"/><line class="cls-6" x1="70" y1="217.99" x2="85" y2="220.99"/><line class="cls-6" x1="70" y1="222.99" x2="85" y2="225.99"/><line class="cls-6" x1="70" y1="228.99" x2="85" y2="231.99"/><line class="cls-6" x1="70" y1="234.99" x2="85" y2="237.99"/><line class="cls-6" x1="70" y1="240.99" x2="85" y2="243.99"/><line class="cls-6" x1="70" y1="246.99" x2="85" y2="249.99"/><line class="cls-6" x1="70" y1="252.99" x2="85" y2="255.99"/><line class="cls-6" x1="70" y1="258.99" x2="85" y2="261.99"/><line class="cls-6" x1="70" y1="264.99" x2="85" y2="267.99"/><line class="cls-6" x1="70" y1="270.99" x2="85" y2="273.99"/><line class="cls-6" x1="70" y1="275.99" x2="85" y2="278.99"/><line class="cls-6" x1="70" y1="281.99" x2="85" y2="284.99"/><line class="cls-6" x1="70" y1="287.99" x2="85" y2="290.99"/><line class="cls-6" x1="70" y1="293.99" x2="85" y2="296.99"/><line class="cls-6" x1="70" y1="299.99" x2="85" y2="302.99"/><line class="cls-6" x1="70" y1="305.99" x2="85" y2="308.99"/><polygon class="cls-18" points="14.5 9.49 14.5 302.49 24.5 302.49 24.5 12.49 14.5 9.49"/><line class="cls-19" x1="3" y1="12.99" x2="11" y2="10.99"/><line class="cls-19" x1="3" y1="17.99" x2="11" y2="15.99"/><line class="cls-19" x1="3" y1="23.99" x2="11" y2="21.99"/><line class="cls-19" x1="3" y1="29.99" x2="11" y2="27.99"/><line class="cls-19" x1="3" y1="35.99" x2="11" y2="33.99"/><line class="cls-19" x1="3" y1="40.99" x2="11" y2="38.99"/><line class="cls-19" x1="3" y1="46.99" x2="11" y2="44.99"/><line class="cls-19" x1="3" y1="52.99" x2="11" y2="50.99"/><line class="cls-19" x1="3" y1="58.99" x2="11" y2="56.99"/><line class="cls-19" x1="3" y1="63.99" x2="11" y2="61.99"/><line class="cls-19" x1="3" y1="69.99" x2="11" y2="67.99"/><line class="cls-19" x1="3" y1="75.99" x2="11" y2="73.99"/><line class="cls-19" x1="3" y1="81.99" x2="11" y2="79.99"/><line class="cls-19" x1="3" y1="86.99" x2="11" y2="84.99"/><line class="cls-19" x1="3" y1="92.99" x2="11" y2="90.99"/><line class="cls-19" x1="3" y1="98.99" x2="11" y2="96.99"/><line class="cls-19" x1="3" y1="104.99" x2="11" y2="102.99"/><line class="cls-19" x1="3" y1="109.99" x2="11" y2="107.99"/><line class="cls-19" x1="3" y1="115.99" x2="11" y2="113.99"/><line class="cls-19" x1="3" y1="121.99" x2="11" y2="119.99"/><line class="cls-19" x1="3" y1="127.99" x2="11" y2="125.99"/><line class="cls-19" x1="3" y1="132.99" x2="11" y2="130.99"/><line class="cls-19" x1="3" y1="138.99" x2="11" y2="136.99"/><line class="cls-19" x1="3" y1="144.99" x2="11" y2="142.99"/><line class="cls-19" x1="3" y1="151.99" x2="11" y2="149.99"/><line class="cls-19" x1="3" y1="156.99" x2="11" y2="154.99"/><line class="cls-19" x1="3" y1="162.99" x2="11" y2="160.99"/><line class="cls-19" x1="3" y1="168.99" x2="11" y2="166.99"/><line class="cls-19" x1="3" y1="174.99" x2="11" y2="172.99"/><line class="cls-19" x1="3" y1="179.99" x2="11" y2="177.99"/><line class="cls-19" x1="3" y1="185.99" x2="11" y2="183.99"/><line class="cls-19" x1="3" y1="191.99" x2="11" y2="189.99"/><line class="cls-19" x1="3" y1="197.99" x2="11" y2="195.99"/><line class="cls-19" x1="3" y1="202.99" x2="11" y2="200.99"/><line class="cls-19" x1="3" y1="208.99" x2="11" y2="206.99"/><line class="cls-19" x1="3" y1="214.99" x2="11" y2="212.99"/><line class="cls-19" x1="3" y1="221.99" x2="11" y2="219.99"/><line class="cls-19" x1="3" y1="226.99" x2="11" y2="224.99"/><line class="cls-19" x1="3" y1="232.99" x2="11" y2="230.99"/><line class="cls-19" x1="3" y1="238.99" x2="11" y2="236.99"/><line class="cls-19" x1="3" y1="244.99" x2="11" y2="242.99"/><line class="cls-19" x1="3" y1="249.99" x2="11" y2="247.99"/><line class="cls-19" x1="3" y1="255.99" x2="11" y2="253.99"/><line class="cls-19" x1="3" y1="261.99" x2="11" y2="259.99"/><line class="cls-19" x1="3" y1="267.99" x2="11" y2="265.99"/><line class="cls-19" x1="3" y1="272.99" x2="11" y2="270.99"/><line class="cls-19" x1="3" y1="278.99" x2="11" y2="276.99"/><line class="cls-19" x1="3" y1="284.99" x2="11" y2="282.99"/><line class="cls-20" x1="27.5" y1="22.49" x2="39.5" y2="22.49"/><line class="cls-20" x1="28" y1="31.49" x2="40" y2="31.49"/><line class="cls-20" x1="28" y1="40.49" x2="40" y2="40.49"/><line class="cls-20" x1="28" y1="47.49" x2="40" y2="47.49"/><polygon class="cls-15" points="46 100.99 46 108.99 66 111.99 66 103.99 46 100.99"/><polygon class="cls-15" points="46 112.99 46 120.99 66 123.99 66 115.99 46 112.99"/><polygon class="cls-15" points="46 125.99 46 133.99 66 136.99 66 128.99 46 125.99"/><polygon class="cls-15" points="46 137.99 46 145.99 66 148.99 66 140.99 46 137.99"/><polygon class="cls-15" points="46 149.99 46 157.99 66 160.99 66 152.99 46 149.99"/><polygon class="cls-15" points="46 162.99 46 170.99 66 173.99 66 165.99 46 162.99"/><polygon class="cls-15" points="46 176.99 46 184.99 66 187.99 66 179.99 46 176.99"/><polygon class="cls-15" points="46 188.99 46 196.99 66 199.99 66 191.99 46 188.99"/><polygon class="cls-15" points="46 201.99 46 209.99 66 212.99 66 204.99 46 201.99"/><polygon class="cls-15" points="46 213.99 46 221.99 66 224.99 66 216.99 46 213.99"/><polygon class="cls-15" points="46 225.99 46 233.99 66 236.99 66 228.99 46 225.99"/><polygon class="cls-15" points="46 238.99 46 246.99 66 249.99 66 241.99 46 238.99"/><polygon class="cls-15" points="46 251.99 46 259.99 66 262.99 66 254.99 46 251.99"/><polygon class="cls-15" points="46 263.99 46 271.99 66 274.99 66 266.99 46 263.99"/><polygon class="cls-15" points="46 276.99 46 284.99 66 287.99 66 279.99 46 276.99"/><polygon class="cls-15" points="46 288.99 46 296.99 66 299.99 66 291.99 46 288.99"/><polygon class="cls-15" points="46 300.99 46 308.99 66 311.99 66 303.99 46 300.99"/><polygon class="cls-15" points="46 313.99 46 321.99 66 324.99 66 316.99 46 313.99"/><line class="cls-21" x1="29.49" y1="77.94" x2="55.66" y2="80.32"/><line class="cls-21" x1="28.76" y1="72.97" x2="54.94" y2="75.35"/><line class="cls-21" x1="29.72" y1="65.96" x2="55.9" y2="68.34"/><line class="cls-21" x1="29" y1="60.99" x2="55.17" y2="63.37"/><line class="cls-21" x1="29.28" y1="88.92" x2="55.45" y2="91.29"/><line class="cls-21" x1="28.55" y1="83.95" x2="54.73" y2="86.32"/><polygon class="cls-4" points="30.5 101.49 40.5 103.49 39 302.99 28 302.99 28.5 101.49 30.5 101.49"/><path class="cls-22" d="M40,129l9,3s0,14,4,14,6,3,7,7,10,7,9,13-2,17,3,23,5,8,8,19,7,5,7,17v42c0,14,2,36,2,38v13H44s-7-33-6.5-42-2.5-59-1-70S40,129,40,129Z" transform="translate(-23 -15)"/><path class="cls-23" d="M25,342c15-2,26-7,35-4s16,6,19,10,5,19,5,19H63L24,355Z" transform="translate(-23 -15)"/><polygon class="cls-7" points="2 330.47 2 302.99 18.11 302.99 85.59 302.99 102.71 302.99 102.71 528.99 90.62 528.99 90.12 352.35 51.85 349.3 46.81 329.96 18.12 330.29 9.56 330.39 2 330.47"/><rect class="cls-24" x="10" y="305.99" width="7" height="24"/><rect class="cls-24" x="21" y="305.99" width="7" height="24"/><rect class="cls-24" x="32" y="305.99" width="7" height="24"/><rect class="cls-24" x="44" y="305.99" width="7" height="41"/><line class="cls-25" x1="60.02" y1="309.21" x2="89.98" y2="310.78"/><line class="cls-25" x1="60.02" y1="316.21" x2="89.98" y2="317.78"/><line class="cls-25" x1="61.14" y1="322.32" x2="89" y2="323.78"/><line class="cls-25" x1="61.12" y1="329.32" x2="88.98" y2="330.78"/><line class="cls-25" x1="60.02" y1="335.21" x2="89.98" y2="336.78"/><line class="cls-25" x1="60.02" y1="342.21" x2="89.98" y2="343.78"/><rect class="cls-24" x="9.5" y="429.49" width="215" height="3" transform="translate(-337.52 531.03) rotate(-89.74)"/><rect class="cls-24" x="14.74" y="429.74" width="214.5" height="3" transform="translate(-332.8 536.27) rotate(-89.74)"/><polygon class="cls-26" points="733 368.99 821 368.99 824 566.99 732 566.99 733 368.99"/><path class="cls-27" d="M756,384a24.51,24.51,0,0,0,13,2c5,10,3,10.67,8,32.34S777,439,780,469s-8,46,4,58,1,39,15,44,33.5,11,33.5,11H757Z" transform="translate(-23 -15)"/><g class="cls-28"><rect class="cls-29" x="748" y="382.99" width="7" height="12"/><rect class="cls-29" x="786" y="382.99" width="7" height="12"/><rect class="cls-29" x="800" y="382.99" width="7" height="12"/><rect class="cls-29" x="748" y="400.99" width="7" height="12"/><rect class="cls-29" x="772" y="400.99" width="7" height="12"/><rect class="cls-29" x="787" y="400.99" width="7" height="12"/><rect class="cls-29" x="808" y="400.99" width="7" height="12"/><rect class="cls-29" x="747" y="511.99" width="7" height="12"/><rect class="cls-29" x="771" y="511.99" width="7" height="12"/><rect class="cls-29" x="786" y="511.99" width="7" height="12"/><rect class="cls-29" x="807" y="511.99" width="7" height="12"/><rect class="cls-29" x="748" y="456.99" width="7" height="12"/><rect class="cls-29" x="772" y="456.99" width="7" height="12"/><rect class="cls-29" x="799" y="456.99" width="7" height="12"/><rect class="cls-29" x="748" y="437.99" width="7" height="12"/><rect class="cls-29" x="772" y="437.99" width="7" height="12"/><rect class="cls-29" x="754" y="419.99" width="7" height="12"/><rect class="cls-29" x="792" y="419.99" width="7" height="12"/><rect class="cls-29" x="806" y="419.99" width="7" height="12"/><rect class="cls-29" x="787" y="437.99" width="7" height="12"/><rect class="cls-29" x="808" y="437.99" width="7" height="12"/><rect class="cls-29" x="747" y="474.99" width="7" height="12"/><rect class="cls-29" x="785" y="474.99" width="7" height="12"/><rect class="cls-29" x="799" y="474.99" width="7" height="12"/><rect class="cls-29" x="758" y="550.99" width="7" height="12"/><rect class="cls-29" x="796" y="550.99" width="7" height="12"/><rect class="cls-29" x="810" y="550.99" width="7" height="12"/><rect class="cls-29" x="780" y="492.99" width="7" height="12"/><rect class="cls-29" x="801" y="492.99" width="7" height="12"/><rect class="cls-29" x="758" y="531.99" width="7" height="12"/><rect class="cls-29" x="779" y="531.99" width="7" height="12"/></g><path class="cls-30" d="M756,384V582h5.67S759,402,759,397s-3-13-3-13h0V582" transform="translate(-23 -15)"/><polygon class="cls-31" points="823.63 542.49 875 550.99 875 566.99 824 566.99 823.63 542.49"/><polygon class="cls-32" points="823.41 527.99 875 527.99 875 550.99 823.63 542.49 823.41 527.99"/><polygon class="cls-10" points="822.75 480.99 834.75 480.99 874.75 480.99 874.75 498.99 823.01 501.48 822.75 480.99"/><polygon class="cls-33" points="849 492.99 849.5 508.99 875 509.99 875 492.99 849 492.99"/><path class="cls-9" d="M847,500c7,0,19,0,18,5s-1,8,5,9,7,5,12,8,5,5,5,5l-40.87.88L845.75,500Z" transform="translate(-23 -15)"/><polygon class="cls-34" points="823 507.93 875 509.99 875 522.99 823.41 529.81 823 507.93"/><polygon class="cls-35" points="823.17 516.81 838 511.99 842 517.99 856 511.99 856 519.99 875 509.99 875 531.99 823.41 527.99 823.17 516.81"/><polygon class="cls-15" points="823.29 524 872 525.99 866 531.99 823.48 532.71 823.29 524"/><path class="cls-13" d="M887,478s-2-41,0-51,3-17,3-17h8v70H886.11Z" transform="translate(-23 -15)"/><rect class="cls-22" x="866" y="412.99" width="2" height="11"/><rect class="cls-22" x="870" y="412.99" width="2" height="11"/><rect class="cls-22" x="870" y="426.99" width="2" height="11"/><rect class="cls-22" x="866" y="426.99" width="2" height="11"/><rect class="cls-22" x="870" y="440.99" width="2" height="11"/><rect class="cls-22" x="866" y="440.99" width="2" height="11"/><rect class="cls-22" x="866" y="454.99" width="2" height="11"/><rect class="cls-22" x="870" y="454.99" width="2" height="11"/><polygon class="cls-7" points="822.25 451.62 841 459.08 846.5 480.99 822.7 480.99 822.25 451.62"/><polygon class="cls-36" points="833 465.99 875 464.99 875 480.99 833 480.99 833 465.99"/><path class="cls-7" d="M859,484v8h5v-8Z" transform="translate(-23 -15)"/><path class="cls-7" d="M867,484v8h5v-8Z" transform="translate(-23 -15)"/><path class="cls-7" d="M875,484v8h5v-8Z" transform="translate(-23 -15)"/><path class="cls-7" d="M890,484v8h5v-8Z" transform="translate(-23 -15)"/><path class="cls-7" d="M882,484v8h5v-8Z" transform="translate(-23 -15)"/><polygon class="cls-37" points="863.11 450.99 844 451.99 838.5 464.99 863.11 464.99 863.11 450.99"/><path class="cls-35" d="M552,450s6.81-94.69,11.33-126c4.81-33.29,18.41-105.21,29.67-139,17-51,25.9-66.25,39-81,8-9,21.26-7.3,27-3,12,9,29.67,47,41,81a591.52,591.52,0,0,1,17.82,65c2.06,9,6.18,37,6.18,37L633.37,574l-78.28-16Z" transform="translate(-23 -15)"/><polygon class="cls-24" points="601 438.99 608 449.99 608 486.99 591 459.99 601 438.99"/><polygon class="cls-24" points="591 510.99 601 526.99 613 529.99 613 498.99 604 488.99 591 510.99"/><path class="cls-24" d="M594,544s-13-37-17-48-9-35-11-41-6-23-6-30-1-11,0-21,1-20,1-20,4,31,7,41,9,28,12,35,10,22,12,26,18,38,22,45l8,14Z" transform="translate(-23 -15)"/><polygon class="cls-24" points="578 482.99 588 462.99 601 484.99 589 502.99 578 482.99"/><path class="cls-24" d="M565,469s15,47,19,53-5,11-5,11l-15-19Z" transform="translate(-23 -15)"/><path class="cls-24" d="M580.5,249.49s-6.69,34.68-7,46C573,313.73,581,351,588,367s23,56,29,66,15,23,15,23l-.5-53.5s-22-32-28-47-13-31-16-48S577,261,580.5,249.49Z" transform="translate(-23 -15)"/><path class="cls-24" d="M606,219s5,27,8,34,16,39,21,46,20-9,20-9-18-31-23-46-13.8-40-13-50C619.94,182.16,606,218.93,606,219Z" transform="translate(-23 -15)"/><path class="cls-24" d="M669,216l6-20s43,84,42,88-16,0-16,0S685,251,669,216Z" transform="translate(-23 -15)"/><polygon class="cls-24" points="578 430.99 588 452.99 598 435.99 586 414.99 578 430.99"/><polygon class="cls-24" points="557 431.99 576 476.99 586 456.99 565 414.99 557 431.99"/><polygon class="cls-24" points="559 382.99 568 404.99 571 394.99 568 388.99 571 382.99 568 376.99 570 371.99 565 363.99 559 382.99"/><polygon class="cls-24" points="550 414.99 559 394.99 563 409.99 556 423.99 550 414.99"/><path class="cls-24" d="M588,294l7,21,10-19s-8-20-8-21S588,294,588,294Z" transform="translate(-23 -15)"/><polygon class="cls-24" points="607 285.99 601 298.99 604 305.99 601 309.99 606 317.99 601 321.99 606 329.99 601 337.99 606 345.99 601 349.99 604 358.99 601 365.99 604 371.99 602.33 374.99 613 386.99 613 285.99 607 285.99"/><polygon class="cls-24" points="576 239.99 576 246.99 584 233.99 582 229.99 576 239.99"/><polygon class="cls-26" points="613 176.99 622 198.99 632 175.99 622 152.99 613 176.99"/><polygon class="cls-26" points="634 175.99 643 198.99 650 176.99 640 152.99 634 175.99"/><polygon class="cls-26" points="653 176.99 663 196.99 665 176.99 655 154.99 653 176.99"/><polygon class="cls-26" points="667 158.99 667 172.99 677 196.99 677 175.99 667 158.99"/><polygon class="cls-26" points="597 172.99 603 196.99 611 176.99 607 152.99 597 172.99"/><polygon class="cls-26" points="582 176.99 593 154.99 593 171.99 582 196.99 582 176.99"/><polygon class="cls-26" points="570 198.99 571 182.99 582 158.99 580 175.99 570 198.99"/><polygon class="cls-15" points="667 201.99 675 216.99 677 203.99 668 184.99 667 201.99"/><polygon class="cls-15" points="677 219.99 686 236.99 686 223.99 680 208.99 677 219.99"/><polygon class="cls-15" points="689 240.99 698 264.99 692 236.99 689 229.99 689 240.99"/><polygon class="cls-15" points="625 201.99 634 220.99 642 202.99 633 184.99 625 201.99"/><polygon class="cls-15" points="636 226.99 646 246.99 654 226.99 645 208.99 636 226.99"/><polygon class="cls-15" points="604 202.99 609 221.99 621 200.99 613 181.99 604 202.99"/><polygon class="cls-15" points="612 227.99 621 246.99 632 225.99 622 208.99 612 227.99"/><polygon class="cls-15" points="624 251.99 632 268.99 674 268.99 656 233.99 643.5 263.49 640.5 259.49 643.5 251.49 633.5 232.49 624 251.99"/><polygon class="cls-15" points="642 148.99 650 167.99 653 149.99 643 130.99 642 148.99"/><polygon class="cls-15" points="656 152.99 665 167.99 663 146.99 654 131.99 656 152.99"/><polygon class="cls-15" points="631 128.99 638 148.99 632 169.99 625 149.99 631 128.99"/><polygon class="cls-15" points="632 121.99 638 136.99 640 124.99 633 106.99 632 121.99"/><polygon class="cls-15" points="644 125.99 653 141.99 652 125.99 642 107.99 644 125.99"/><polygon class="cls-15" points="634 94.99 634 102.99 640 118.99 638 102.99 634 94.99"/><polygon class="cls-15" points="609 150.99 612 169.99 621 147.99 618 128.99 609 150.99"/><polygon class="cls-15" points="619 124.99 624 144.99 629 124.99 625 107.99 619 124.99"/><polygon class="cls-15" points="628 93.99 626 102.99 629 114.99 631 101.99 628 93.99"/><polygon class="cls-15" points="608 125.99 608 144.99 617 125.99 615 109.99 608 125.99"/><polygon class="cls-15" points="604 131.99 595 149.99 595 167.99 604 149.99 604 131.99"/><g class="cls-38"><polygon class="cls-33" points="601 438.99 608 449.99 608 486.99 591 459.99 601 438.99"/><polygon class="cls-33" points="591 510.99 601 526.99 613 529.99 613 498.99 604 488.99 591 510.99"/><path class="cls-33" d="M594,544s-13-37-17-48-9-35-11-41-6-23-6-30-1-11,0-21,1-20,1-20,4,31,7,41,9,28,12,35,10,22,12,26,18,38,22,45l8,14Z" transform="translate(-23 -15)"/><polygon class="cls-33" points="578 482.99 588 462.99 601 484.99 589 502.99 578 482.99"/></g><polygon class="cls-2" points="0.5 329.49 48.5 329.49 52.5 348.45 71.54 349.95 90.5 351.45 90.5 567.06 69.33 566.99 0.5 566.99 0.5 329.49"/><polygon class="cls-5" points="1.33 368.66 20.5 368.49 20.5 393.49 0.5 393.49 1.33 368.66"/><polygon class="cls-5" points="28.33 368.66 47.5 368.49 47.5 393.49 27.5 393.49 28.33 368.66"/><rect class="cls-4" x="-14.68" y="472.7" width="216.57" height="3" transform="matrix(0.01, -1, 1, 0.01, -404.51, 548.06)"/><rect class="cls-4" x="51" y="348.49" width="3" height="218.57"/><rect class="cls-4" x="23" y="348.49" width="3" height="218.57"/><rect class="cls-5" x="3" y="401.99" width="16" height="11"/><rect class="cls-5" x="3" y="417.99" width="16" height="11"/><rect class="cls-5" x="3" y="437.99" width="16" height="11"/><rect class="cls-5" x="3" y="453.99" width="16" height="11"/><rect class="cls-5" x="3" y="475.99" width="16" height="11"/><rect class="cls-5" x="3" y="491.99" width="16" height="11"/><rect class="cls-5" x="3" y="513.99" width="16" height="11"/><rect class="cls-5" x="3" y="529.99" width="16" height="11"/><rect class="cls-5" x="3" y="547.99" width="16" height="11"/><rect class="cls-5" x="30" y="402.99" width="16" height="11"/><rect class="cls-5" x="30" y="418.99" width="16" height="11"/><rect class="cls-5" x="30" y="438.99" width="16" height="11"/><rect class="cls-5" x="30" y="454.99" width="16" height="11"/><rect class="cls-5" x="30" y="476.99" width="16" height="11"/><rect class="cls-5" x="30" y="492.99" width="16" height="11"/><rect class="cls-5" x="30" y="514.99" width="16" height="11"/><rect class="cls-5" x="30" y="530.99" width="16" height="11"/><rect class="cls-5" x="30" y="548.99" width="16" height="11"/><rect class="cls-5" x="57" y="407.99" width="9" height="11"/><rect class="cls-5" x="57" y="423.99" width="9" height="11"/><rect class="cls-5" x="57" y="443.99" width="9" height="11"/><rect class="cls-5" x="57" y="459.99" width="9" height="11"/><rect class="cls-5" x="57" y="481.99" width="9" height="11"/><rect class="cls-5" x="57" y="497.99" width="9" height="11"/><rect class="cls-5" x="57" y="519.99" width="9" height="11"/><rect class="cls-5" x="57" y="535.99" width="9" height="11"/><rect class="cls-5" x="57" y="553.99" width="9" height="11"/><rect class="cls-5" x="77" y="405.99" width="9" height="11"/><rect class="cls-5" x="77" y="421.99" width="9" height="11"/><rect class="cls-5" x="77" y="441.99" width="9" height="11"/><rect class="cls-5" x="77" y="457.99" width="9" height="11"/><rect class="cls-5" x="77" y="479.99" width="9" height="11"/><rect class="cls-5" x="77" y="495.99" width="9" height="11"/><rect class="cls-5" x="77" y="517.99" width="9" height="11"/><rect class="cls-5" x="77" y="533.99" width="9" height="11"/><rect class="cls-5" x="77" y="551.99" width="9" height="11"/><polyline class="cls-5" points="3 302.99 1.52 322.94 1 329.99"/><path class="cls-26" d="M266,73V19c.73-.37,18-4,18-4l70,3V122l-49,2-5-51Z" transform="translate(-23 -15)"/><path class="cls-7" d="M234,69l-6,513H349V315l44-5V124s-42.5-6.5-53.5-5.5-29,0-29,0v-52h-50Z" transform="translate(-23 -15)"/><path class="cls-15" d="M263,101.41,244,351.64s-11,47.75,4,31.51-2-40.11,17-55.39,36-1.91,44-20.06-6-32.47,13-47.75,47-6.69,53-19.1S393,195,393,174V134.84l-89,.95L297,89Z" transform="translate(-23 -15)"/><path class="cls-39" d="M228,582l-1-63s65,0,64-21,3-23,8-43,11-52,26-59,13-55,14-67-6-37,14-36,38,10,38,10V582Z" transform="translate(-23 -15)"/><polygon class="cls-26" points="208 566.85 205 566.82 210.5 53.97 213.5 53.76 208 566.85"/><polygon class="cls-26" points="225.5 566.86 219.5 566.8 224.5 52.72 230.51 52.15 225.5 566.86"/><rect class="cls-26" x="19.07" y="320.92" width="515.86" height="6" transform="translate(-72.61 582.74) rotate(-89.44)"/><rect class="cls-26" x="33.07" y="320.92" width="515.86" height="6" transform="translate(-58.75 596.74) rotate(-89.44)"/><rect class="cls-26" x="47.08" y="322.42" width="515.86" height="3" transform="translate(-44.88 610.75) rotate(-89.44)"/><rect class="cls-26" x="99.05" y="347.41" width="463.93" height="5" transform="translate(-45.51 662.06) rotate(-89.37)"/><rect class="cls-26" x="114.57" y="346.91" width="463.92" height="6" transform="translate(-29.45 678.31) rotate(-89.49)"/><polygon class="cls-26" points="341.5 567.06 335.5 567 339.5 104.97 345.51 105.64 341.5 567.06"/><polygon class="cls-26" points="357.5 567.06 351.5 567.01 355.51 106.93 361.5 107.75 357.5 567.06"/><polygon class="cls-26" points="368 566.99 365 566.97 368.99 108.84 371.99 109.16 368 566.99"/><polygon class="cls-26" points="240 566.86 235 566.81 239.99 51.49 244.99 51.49 240 566.86"/><rect class="cls-26" x="83.52" y="345.86" width="464.93" height="7" transform="translate(-59.77 646.55) rotate(-89.38)"/><g class="cls-40"><polygon points="311.06 9.99 311.06 20.99 328 21.99 328 10.99 311.06 9.99"/><polygon points="299.76 24.99 299.76 35.99 310.12 36.99 310.12 25.99 299.76 24.99"/><polygon points="303.53 64.99 303.53 73.24 316.71 73.99 316.71 65.74 303.53 64.99"/><polygon points="300.71 46.99 300.71 50.66 313.88 50.99 313.88 47.33 300.71 46.99"/><polygon points="264 8.99 264 17.99 279.06 18.99 279.06 9.99 264 8.99"/><rect x="269.65" y="25.99" width="7.53" height="8"/></g><path class="cls-36" d="M351,316s36-4,42-6,151,0,151,0l3,6h10V582H351Z" transform="translate(-23 -15)"/><line class="cls-41" x1="390" y1="302.99" x2="389" y2="566.99"/><line class="cls-41" x1="520" y1="302.99" x2="519" y2="570.99"/><polygon class="cls-4" points="394 317.99 514 321.99 514 334.99 394 334.99 394 317.99"/><rect class="cls-29" x="331" y="318.99" width="16" height="16"/><rect class="cls-29" x="349" y="318.99" width="16" height="16"/><rect class="cls-29" x="368" y="318.99" width="16" height="16"/><rect class="cls-29" x="331" y="338.99" width="16" height="16"/><rect class="cls-29" x="349" y="338.99" width="16" height="16"/><rect class="cls-29" x="368" y="338.99" width="16" height="16"/><rect class="cls-29" x="331" y="360.99" width="16" height="16"/><rect class="cls-29" x="349" y="360.99" width="16" height="16"/><rect class="cls-29" x="368" y="360.99" width="16" height="16"/><rect class="cls-29" x="330" y="382.99" width="16" height="16"/><rect class="cls-29" x="348" y="382.99" width="16" height="16"/><rect class="cls-29" x="367" y="382.99" width="16" height="16"/><rect class="cls-29" x="331" y="402.99" width="16" height="16"/><rect class="cls-29" x="349" y="402.99" width="16" height="16"/><rect class="cls-29" x="368" y="402.99" width="16" height="16"/><rect class="cls-29" x="331" y="422.99" width="16" height="16"/><rect class="cls-29" x="349" y="422.99" width="16" height="16"/><rect class="cls-29" x="368" y="422.99" width="16" height="16"/><rect class="cls-29" x="331" y="444.99" width="16" height="16"/><rect class="cls-29" x="349" y="444.99" width="16" height="16"/><rect class="cls-29" x="368" y="444.99" width="16" height="16"/><rect class="cls-29" x="330" y="466.99" width="16" height="16"/><rect class="cls-29" x="348" y="466.99" width="16" height="16"/><rect class="cls-29" x="367" y="466.99" width="16" height="16"/><rect class="cls-29" x="331" y="486.99" width="16" height="16"/><rect class="cls-29" x="349" y="486.99" width="16" height="16"/><rect class="cls-29" x="368" y="486.99" width="16" height="16"/><rect class="cls-29" x="331" y="506.99" width="16" height="16"/><rect class="cls-29" x="349" y="506.99" width="16" height="16"/><rect class="cls-29" x="368" y="506.99" width="16" height="16"/><rect class="cls-29" x="331" y="528.99" width="16" height="16"/><rect class="cls-29" x="349" y="528.99" width="16" height="16"/><rect class="cls-29" x="368" y="528.99" width="16" height="16"/><rect class="cls-29" x="330" y="550.99" width="16" height="16"/><rect class="cls-29" x="348" y="550.99" width="16" height="16"/><rect class="cls-29" x="367" y="550.99" width="16" height="16"/><path class="cls-22" d="M417,480c1,1.91-3,10.5,7,21.94s28,14.31,37,21.93,0,15.26,19,24.8,26,5.72,36,8.58,19,11.45,21,16.22a23.63,23.63,0,0,1,1.94,8.6L418,582Z" transform="translate(-23 -15)"/><path class="cls-42" d="M418,318s-4,22,0,35,13,18,36,39,46,30,49,42,15,23,23,36,11,42,11,42V318Z" transform="translate(-23 -15)"/><polygon class="cls-15" points="395 337.99 395 365.29 417 366.34 416 337.99 395 337.99"/><polygon class="cls-15" points="420 337.99 420 365.29 442 366.34 441 337.99 420 337.99"/><polygon class="cls-15" points="447 337.99 447 365.29 468 366.34 467.05 337.99 447 337.99"/><polygon class="cls-15" points="471 337.99 471 365.29 490 366.34 489.14 337.99 471 337.99"/><polygon class="cls-15" points="493 337.99 493 365.29 513 366.34 512.09 337.99 493 337.99"/><polygon class="cls-29" points="395 370.54 395 397.83 417 398.88 416 370.54 395 370.54"/><polygon class="cls-15" points="420 370.54 420 397.83 442 398.88 441 370.54 420 370.54"/><polygon class="cls-15" points="447 370.54 447 397.83 468 398.88 467.05 370.54 447 370.54"/><polygon class="cls-15" points="471 370.54 471 397.83 490 398.88 489.14 370.54 471 370.54"/><polygon class="cls-15" points="493 370.54 493 397.83 513 398.88 512.09 370.54 493 370.54"/><polygon class="cls-29" points="395 405.18 395 432.47 417 433.52 416 405.18 395 405.18"/><polygon class="cls-29" points="420 405.18 420 432.47 442 433.52 441 405.18 420 405.18"/><polygon class="cls-15" points="447 405.18 447 432.47 468 433.52 467.05 405.18 447 405.18"/><polygon class="cls-15" points="471 405.18 471 432.47 490 433.52 489.14 405.18 471 405.18"/><polygon class="cls-15" points="493 405.18 493 432.47 513 433.52 512.09 405.18 493 405.18"/><polygon class="cls-29" points="395 439.82 395 467.12 417 468.17 416 439.82 395 439.82"/><polygon class="cls-29" points="420 439.82 420 467.12 442 468.17 441 439.82 420 439.82"/><polygon class="cls-29" points="447 439.82 447 467.12 468 468.17 467.05 439.82 447 439.82"/><polygon class="cls-29" points="471 439.82 471 467.12 490 468.17 489.14 439.82 471 439.82"/><polygon class="cls-15" points="493 439.82 493 467.12 513 468.17 512.09 439.82 493 439.82"/><polygon class="cls-5" points="395 472.37 395 499.66 417 500.71 416 472.37 395 472.37"/><polygon class="cls-5" points="420 472.37 420 499.66 442 500.71 441 472.37 420 472.37"/><polygon class="cls-29" points="447 472.37 447 499.66 468 500.71 467.05 472.37 447 472.37"/><polygon class="cls-29" points="471 472.37 471 499.66 490 500.71 489.14 472.37 471 472.37"/><polygon class="cls-29" points="493 472.37 493 499.66 513 500.71 512.09 472.37 493 472.37"/><polygon class="cls-5" points="395 507.01 395 534.3 417 535.35 416 507.01 395 507.01"/><polygon class="cls-5" points="420 507.01 420 534.3 442 535.35 441 507.01 420 507.01"/><polygon class="cls-5" points="447 507.01 447 534.3 468 535.35 467.05 507.01 447 507.01"/><polygon class="cls-29" points="471 507.01 471 534.3 490 535.35 489.14 507.01 471 507.01"/><polygon class="cls-29" points="493 507.01 493 534.3 513 535.35 512.09 507.01 493 507.01"/><polygon class="cls-5" points="395 541.65 394.99 562.56 416.86 565.93 416 541.65 395 541.65"/><polygon class="cls-5" points="420 541.65 420 564.62 442 564.06 441 541.65 420 541.65"/><polygon class="cls-5" points="447 541.65 447.5 562.12 467.38 564.06 467.05 541.65 447 541.65"/><polygon class="cls-5" points="471 541.65 471 565.37 489.77 562.5 489.14 541.65 471 541.65"/><polygon class="cls-5" points="493 541.65 493 564.06 512.79 563.55 512.09 541.65 493 541.65"/><path class="cls-27" d="M367.73,582.06c4-1.56,8.13-4.79,11.27-11.07,9-18,9-48,14-63s4-38,2-54,2-34,4-56,8-58,8-58l2-23V582Z" transform="translate(-23 -15)"/><polygon class="cls-4" points="608 530.99 608 268.99 701 268.99 733 271.99 733 566.99 624 566.99 608 530.99"/><polygon class="cls-43" points="608 296.99 709 298.99 709 302.99 608 301.99 608 296.99"/><path class="cls-44" d="M631,342l54-1v60s-1,27,0,37,9,46.18,11,58c7,41,30.92,42.38,38,64,2.42,7.4,22,22,22,22H629Z" transform="translate(-23 -15)"/><rect class="cls-43" x="671" y="340.99" width="62" height="5"/><rect class="cls-43" x="671" y="351.99" width="62" height="5"/><rect class="cls-43" x="671" y="363.99" width="62" height="5"/><rect class="cls-43" x="671" y="374.99" width="62" height="5"/><rect class="cls-43" x="671" y="384.99" width="62" height="5"/><rect class="cls-43" x="671" y="394.99" width="62" height="5"/><rect class="cls-43" x="671" y="404.99" width="62" height="10"/><rect class="cls-43" x="671" y="418.99" width="62" height="10"/><rect class="cls-43" x="671" y="434.99" width="62" height="10"/><rect class="cls-15" x="713" y="299.99" width="9" height="3"/><rect class="cls-15" x="724" y="299.99" width="9" height="3"/><rect class="cls-15" x="673" y="312.99" width="11" height="18"/><rect class="cls-15" x="690" y="312.99" width="11" height="18"/><rect class="cls-15" x="707" y="312.99" width="11" height="18"/><rect class="cls-15" x="722" y="312.99" width="11" height="18"/><rect class="cls-15" x="672" y="274.99" width="11" height="18"/><rect class="cls-15" x="689" y="274.99" width="11" height="18"/><rect class="cls-15" x="706" y="274.99" width="11" height="18"/><rect class="cls-15" x="721" y="274.99" width="11" height="18"/><polygon class="cls-45" points="580.26 543.9 596.71 363.61 564.82 528.26 580.5 553.06 580.26 543.9"/><polygon class="cls-45" points="540.65 528.47 548.48 354.96 549.49 498.31 551.52 533.11 540.65 528.47"/><path class="cls-45" d="M676.93,564.82,738,472.69,690.91,582Z" transform="translate(-23 -15)"/><polygon class="cls-45" points="620.86 550.63 657.88 433.45 629.14 566.99 623.99 567 620.86 550.63"/><polygon class="cls-4" points="534 522.99 534 566.99 571 566.99 571 550.99 534 522.99"/><polygon class="cls-4" points="643 552.99 643 566.99 669 566.99 669 561.99 655 550.99 643 552.99"/><polygon class="cls-4" points="584 528.99 609 526.99 609 536.99 619 535.99 622 550.99 600 550.99 600 541.99 588 541.99 581 538.99 584 528.99"/><polygon class="cls-18" points="537 528.99 540 368.99 545 500.99 548 532.99 537 528.99"/><polygon class="cls-15" points="545 500.99 545 528.99 537 528.99 541 544.99 556 544.99 558 550.99 571 550.99 571 536.99 549 496.99 545 500.99"/><path class="cls-18" d="M679,550.13,724,480l-35.12,84" transform="translate(-23 -15)"/><polygon class="cls-15" points="648.67 510.49 643 553.41 648.67 553.41 648.67 561.99 667.96 561.99 667.96 558.78 672.5 543.75 663.42 543.75 654.35 510.49 648.67 510.49"/><polygon class="cls-46" points="571 528.99 571 566.99 590.88 566.99 588 541.99 581 538.99 584 528.99 571 528.99"/><rect class="cls-10" x="588" y="541.99" width="12" height="25"/><rect class="cls-47" x="600" y="550.99" width="24" height="16"/><polygon class="cls-18" points="619 535.99 646 439.99 624 559.49 619 535.99"/><polygon class="cls-18" points="571 528.99 588 371.99 558.9 514.99 571 536.99 571 528.99"/><polygon class="cls-48" points="537 512.33 545 504.99 545 528.99 537 528.99 537 512.33"/><polygon class="cls-48" points="559 514.99 561 506.99 571 520.99 571 536.99 559 514.99"/><polygon class="cls-4" points="571 526.99 609 526.99 584 528.99 571 528.99 571 526.99"/><rect class="cls-4" x="608" y="557.99" width="11" height="9"/><polygon class="cls-48" points="619 535.99 624 558.99 628 538.99 621 528.99 619 535.99"/><polygon class="cls-48" points="660 528.99 666 519.99 671 535.99 668 543.99 663 543.99 660 528.99"/></g></svg>