<svg xmlns="http://www.w3.org/2000/svg" viewBox="0 0 600 600"><defs><style>.cls-1{opacity:0.7;}.cls-2{fill:#ededed;}.cls-3{fill:#6a52de;}.cls-4{fill:none;stroke:#6a52de;stroke-miterlimit:10;stroke-width:7.98px;}</style></defs><title>movein money</title><g id="Housemates"><path class="cls-2" d="M597.44,308.11c15.31,115.45-38.29,260.08-154.12,288.59-67,16.3-109.12-46.85-159.86-86.57-10.53-8.14-22-15.27-35.42-12.22-25.84,6.11-45.95,31.57-73.71,24.45C71.91,493.84-10.41,388.93,1.07,272.83c7.66-69.26,75.63-95.74,132.1-96.76,23.93,0,41.16-19.35,52.65-40.74C204,100.7,216.45,64,244.21,37.56c59.35-58.06,154.12-47.87,203.9,16.29C503.63,124.13,562,191.35,590.75,275.71A218,218,0,0,1,597.44,308.11Z"/><path class="cls-3" d="M229.8,455.6c-14-27.34-33.37-52.39-43.17-47.36l-18,9.25a5.77,5.77,0,0,0-2,1.69v-10c0-5.28-7.14-9.35-18-12.16v-10a42.17,42.17,0,0,0,12-5c2.86-2,4.48-4.2,4.48-6.72V358.11c5.23-2.42,8.35-5.38,8.35-8.86V329c0-11-31.11-16.78-61.84-16.78S49.79,318,49.79,329V346.2c-5.23,2.42-8.35,5.37-8.35,8.86v15.15C31.48,373,25,376.94,25,382V402.2c0,5.28,7.14,9.35,18,12.16v15.09a7.1,7.1,0,0,0,2.44,5.06A6.19,6.19,0,0,0,44.31,438v20.24c0,3.72,3.55,6.84,9.42,9.34v16.72c-5.87,2.5-9.42,5.62-9.42,9.34v20.23c0,11,31.12,16.79,61.85,16.79S168,524.84,168,513.82v-20c5.87-2.5,9.42-5.62,9.42-9.34V470.89c1.43,3.1,2.94,6.21,4.52,9.28,14,27.34,33.37,52.37,43.17,47.34l18-9.24C252.92,513.24,243.84,482.93,229.8,455.6ZM168,446.53c1,3.24,2.13,6.61,3.43,10.09a30.46,30.46,0,0,0-3.43-1.68ZM162.83,436a4.27,4.27,0,0,1,.66.85h0a2.08,2.08,0,0,1,.32,1.05c0,.06,0,.13,0,.2s0,.08,0,.13a.5.5,0,0,0,0,.13c0,.07,0,.13-.07.21a.05.05,0,0,0,0,0,.9.9,0,0,1-.11.22l-.07.13a3.2,3.2,0,0,1-.37.53,1.33,1.33,0,0,0,.14-.19c-1.69,2.24-7.42,5.16-19.52,7.57-2.58.51-5.35,1-8.23,1.39a220.15,220.15,0,0,1-29.86,2.24H105c-1.49,0-3,0-4.54-.07h-.19c-4.86-.14-9.94-.48-14.93-1a168.3,168.3,0,0,1-18.13-2.83c-12-2.62-17.32-5.66-18.47-7.8a4.29,4.29,0,0,0,.26.45,2.61,2.61,0,0,1-.36-.67.61.61,0,0,1,0-.12.93.93,0,0,1,0-.13,1.64,1.64,0,0,1-.06-.42,2.06,2.06,0,0,1,.27-.95c10.42,6.09,33.33,9.23,56,9.23,24.1,0,48.45-3.55,57.81-10.4Zm-.37-26.83c0,.06,0,.13,0,.2a.69.69,0,0,1,0,.13.53.53,0,0,0,0,.12c0,.07,0,.14-.07.22s0,0,0,0a.89.89,0,0,1-.1.23s0,.08-.07.12a4.45,4.45,0,0,1-.49.69,5.42,5.42,0,0,0,.4-.56c-1.47,2.27-7.17,5.3-19.67,7.79a206.34,206.34,0,0,1-25.93,3.21c-4.11.25-8.19.4-12.07.41h-.72c-1.49,0-3,0-4.55-.07h-.54c-1.68-.05-3.38-.13-5.09-.23a191,191,0,0,1-26.23-3.31c6.34.53,13,.8,19.6.8,30.74,0,61.84-5.77,61.84-16.79v-.79C158.79,404.17,162.46,407.3,162.46,409.21ZM74.14,424.88a.87.87,0,0,0-.32.09A.71.71,0,0,1,74.14,424.88ZM69.88,320.66c11.12-2.73,26-4.24,41.75-4.24s30.62,1.51,41.75,4.24c2.27.56,4.26,1.14,6,1.72l.63.22.6.22.41.14s.05,0,.08,0l.82.32c.76.31,1.47.61,2.1.92l.05,0,.59.29.15.08.08,0,.36.2h0l.33.2.35.2h0l.54.35a4.89,4.89,0,0,1,.5.35.76.76,0,0,1,.16.11h0c.08.07.17.13.24.2a1.55,1.55,0,0,1,.24.19l.42.38h0l.1.09.08.09h0l.16.18.21.24a3.79,3.79,0,0,1,.31.47c0,.08.08.15.12.22a2.19,2.19,0,0,1,.19.64c0,.07,0,.13,0,.19s0,.13,0,.2,0,.08,0,.13l0,.13a1.72,1.72,0,0,1-.07.21.05.05,0,0,0,0,0,.9.9,0,0,1-.11.22.83.83,0,0,1-.07.13,4.21,4.21,0,0,1-.49.68,3.78,3.78,0,0,0,.41-.56,5.85,5.85,0,0,1-1,1.09c-2.4,2.09-8.11,4.59-18.69,6.7-4.68.93-10,1.71-15.47,2.31-7.32.8-15,1.26-22,1.31h-.39c-5.49-.16-11-.32-16.42-.68-4.62-.4-9.23-.94-13.59-1.62-3-.47-5.92-1-8.62-1.59-8.62-1.88-13.78-4-16.43-5.79a6.23,6.23,0,0,1-2-2,3.18,3.18,0,0,0,.25.43,2.32,2.32,0,0,1-.35-.65.61.61,0,0,1,0-.12.65.65,0,0,1,0-.13A1.52,1.52,0,0,1,54,329C54,327,58.14,323.55,69.88,320.66ZM54,335.41c.44.3.92.6,1.43.9V347a1.78,1.78,0,0,0,.57,1.29.54.54,0,0,1,.12.09,2.44,2.44,0,0,0,.41.24h0a1.55,1.55,0,0,0,.47.12h.17a1.75,1.75,0,0,0,1.32-.62,1.87,1.87,0,0,0,.42-1.13v-9c.73.3,1.5.6,2.32.88V352.7A1.76,1.76,0,0,0,63,354.45a1.75,1.75,0,0,0,1.75-1.75V340c.67.2,1.36.39,2.07.58v11.29a1.76,1.76,0,0,0,1.74,1.75,1.81,1.81,0,0,0,1-.34,3.08,3.08,0,0,0,.26-.24h0s.07-.08.1-.11h0a.47.47,0,0,0,.09-.12h0a1.82,1.82,0,0,0,.15-.27h0c0-.05,0-.1,0-.15a1.85,1.85,0,0,0,.07-.48V341.46l1.54.34.15,0v8.95a1.73,1.73,0,0,0,1.6,1.73h.34l.13,0a.9.9,0,0,0,.22-.06l.2-.07.13-.08a1.25,1.25,0,0,0,.24-.16l0,0,.17-.17,0,0v0s0,0,0,0a0,0,0,0,0,0,0l0,0h0l0,0h0l.06-.09a1.59,1.59,0,0,0,.12-.27h0a.29.29,0,0,0,.05-.13h0a.61.61,0,0,0,0-.13l0-.16s0,0,0,0a.76.76,0,0,0,0-.15v-8.23l2.31.42v13.11a1.76,1.76,0,0,0,1.75,1.74,1.74,1.74,0,0,0,1.74-1.74V343.52l2.07.3v9.41A1.76,1.76,0,0,0,85.06,355a1.74,1.74,0,0,0,1.74-1.74v-7.55h0v-1.39c1.14.14,2.28.26,3.44.38v12.82a1.42,1.42,0,0,0,.29.87,1.7,1.7,0,0,0,.22.24,1.79,1.79,0,0,0,.28.2,2.41,2.41,0,0,0,.43.18A1.88,1.88,0,0,0,92,359a1.84,1.84,0,0,0,.47-.06,1.66,1.66,0,0,0,.67-.35.69.69,0,0,0,.13-.11.34.34,0,0,1,.08-.09s0,0,0-.05a.77.77,0,0,0,.09-.13.83.83,0,0,0,.08-.12,1.28,1.28,0,0,0,.11-.31,1.26,1.26,0,0,0,0-.33V345c3.92.35,7.85.59,11.66.71l1.48,0c.77,0,1.52,0,2.28,0h3.21l1,0,1,0h.54c4.81-.15,11.43-.52,18.5-1.25,4.3-.44,8.77-1,13.09-1.76a110.23,110.23,0,0,0,12.2-2.73,51.17,51.17,0,0,0,6.72-2.43,24.25,24.25,0,0,0,3.91-2.15v13.84a2.57,2.57,0,0,1-.63,1.51l-.19.23-.21.23c-.2.19-.41.4-.66.61s-.54.42-.85.64a21,21,0,0,1-1.81,1.09,34.73,34.73,0,0,1-4,1.77c-.5.19-1,.39-1.61.58l-.9.29-1.92.58-1,.28c-.67.19-1.36.37-2.08.55-11.13,2.73-26,4.24-41.75,4.24S81,360.34,69.88,357.61l-.57-.15c-8.43-2.13-12.82-4.53-14.51-6.45a2.8,2.8,0,0,1-.83-1.76Zm-8.28,19.21a2.79,2.79,0,0,1,.18-.47,4.1,4.1,0,0,1,.53-.77h0l.18-.2a8.43,8.43,0,0,1,.67-.63A15.38,15.38,0,0,1,50,350.76a7.31,7.31,0,0,0,1.25,2.45l.12.14c.14.18.28.34.44.51l.3.32.33.32a17.19,17.19,0,0,0,2.88,2.12l1,.57h0l.51.26a0,0,0,0,0,0,0l.53.26h0l.55.27h0l.57.26h0l.58.25h0l.6.25h0l1.25.48h0l.65.24h0l.66.23h0L63,360h0l.68.23h0l.7.22h0l.71.21h0l.72.21h0l.74.2h0c1.09.3,2.22.59,3.39.86l1.13.26c1.2.27,2.43.52,3.7.75h0l.32.06,1.09.19.35.07h0l.36.07,2.36.38.52.08,1.35.2h0l.92.13h0l.93.13h0l.93.12h0l1,.12h0l1,.11h0l1,.11,1,.11c1.33.14,2.67.26,4,.38h0l1.76.14c1.17.09,2.35.16,3.54.24l1.8.1c1.15,0,2.31.11,3.48.15s2.49.08,3.75.11h.06q2.58.06,5.16.06c6.88,0,13.77-.3,20.33-.87,2.08-.18,4.11-.39,6.11-.63-4,.72-8.44,1.34-13,1.83l-2.45.25-3.55.31-2.37.18c-4.75.34-9.5.53-14,.55h-.63c-1.48,0-3,0-4.54-.07h-.18a199,199,0,0,1-23.31-2.08c-3.43-.51-6.72-1.1-9.75-1.76-7.5-1.63-12.37-3.43-15.26-5.07A8.06,8.06,0,0,1,45.88,356a3,3,0,0,0,.26.45,2.39,2.39,0,0,1-.37-.67l-.05-.12c0-.05,0-.09,0-.13a2.18,2.18,0,0,1,0-.42A1.78,1.78,0,0,1,45.69,354.62Zm37.66,18a3,3,0,0,1,0,1.42A3.24,3.24,0,0,0,83.35,372.65Zm0,6.45q0-1.39,0-2.79C83.32,377.24,83.31,378.17,83.3,379.1ZM45.63,361.46c.44.3.92.6,1.43.89v10.8a1.78,1.78,0,0,0,.07.39,1.84,1.84,0,0,0,.66.93h0l.12.08.14.07.29.11.32,0,.13,0a1.79,1.79,0,0,0,1.24-.51,1.81,1.81,0,0,0,.51-1.24v-9c.72.3,1.5.6,2.31.88v13.83a1.75,1.75,0,0,0,3,1.24,1.76,1.76,0,0,0,.51-1.24v-12.7c.67.2,1.36.39,2.07.58v1.68h0v9.61a1.73,1.73,0,0,0,1.64,1.73l.11,0a1.75,1.75,0,0,0,1.23-.51,1.92,1.92,0,0,0,.19-.23,1.18,1.18,0,0,0,.11-.19l.09-.19.06-.17a1.7,1.7,0,0,0,.06-.46V367.5l1.54.35.15,0v8.95a1.72,1.72,0,0,0,.29.95,1.4,1.4,0,0,0,.27.33l.16.13h0l0,0a1,1,0,0,0,.17.1l.22.1h0l.18,0h.07a1.27,1.27,0,0,0,.28,0,1.85,1.85,0,0,0,.48-.07,1.72,1.72,0,0,0,.75-.44,1.76,1.76,0,0,0,.51-1.23v-8.24l2.32.42v13.11a1.74,1.74,0,0,0,1.74,1.75,1.79,1.79,0,0,0,1.24-.51,1.77,1.77,0,0,0,.51-1.24V369.57l1,.15h0l1,.15v9.41A1.74,1.74,0,0,0,76.71,381a1.79,1.79,0,0,0,1.24-.51,1.76,1.76,0,0,0,.51-1.23v-8.94c1.13.14,2.28.26,3.43.38v12.82A1.58,1.58,0,0,0,83.2,385a1.75,1.75,0,0,0,.4,0,1.86,1.86,0,0,0,.34,0,.72.72,0,0,0,.21-.05l.11,0,.07,0a1.46,1.46,0,0,0,.25-.13,1,1,0,0,0,.23-.17l.09-.09a1.15,1.15,0,0,0,.14-.17l0,0a1.55,1.55,0,0,0,.14-.29,1.26,1.26,0,0,0,.11-.51V371.06c3.92.35,7.86.59,11.67.71l1.48,0c.76,0,1.52,0,2.27,0h1.9l1.93,0c3-.06,7.08-.22,11.65-.54h0c1.79-.13,3.66-.28,5.59-.45l1.53-.15q2.77-.26,5.64-.6l1.9-.24a142.81,142.81,0,0,0,17.17-3.18l1.94-.53.94-.28,1.82-.58c.59-.2,1.17-.41,1.73-.62s1.11-.42,1.63-.65a26.52,26.52,0,0,0,4.83-2.55V375.3a2.15,2.15,0,0,1-.34,1.08c-.06.08-.11.17-.17.26a.61.61,0,0,1-.07.1l-.13.17-.11.13-.16.18-.12.12-.23.23a.87.87,0,0,0-.11.09c-.06,0-.11.11-.18.16s-.41.33-.64.5l-.1.08-.67.44-.17.11c-.23.14-.48.29-.74.43-.48.26-1,.54-1.6.82l-.14.07-1.09.48-.13.05c-.4.17-.82.34-1.25.5-.24.1-.49.19-.74.27l-.09,0-1.53.52c-.55.18-1.13.36-1.75.54-1.13.33-2.34.67-3.65,1l-1.69.39a2.93,2.93,0,0,0,.3-.32.07.07,0,0,0,0,0,5.42,5.42,0,0,0,.4-.56,5,5,0,0,1-.8.93c-10.91,2.47-25,3.83-40,3.83-15.79,0-30.62-1.51-41.74-4.24l-1.56-.4-.24-.07c-.68-.18-1.33-.36-2-.55-.85-.25-1.65-.51-2.41-.77a3.39,3.39,0,0,1-.41-.15l-1.34-.48c-.74-.28-1.41-.57-2-.85-.41-.19-.8-.37-1.16-.56h0c-.37-.19-.71-.37-1-.55s-.62-.36-.89-.54h0l-.37-.25-.25-.18a5.43,5.43,0,0,1-.67-.54c-.19-.15-.35-.31-.51-.46s-.21-.23-.3-.34a2.65,2.65,0,0,1-.76-1.67Zm-13.78,18.1a26.4,26.4,0,0,1,8.53-3.79,1.71,1.71,0,0,1,1.08-.06,6,6,0,0,0,.89,2.74c5.33,9,33.29,13.64,60.93,13.64,6.41,0,12.83-.25,19-.75h0c1-.08,2-.17,3-.27-2.91.62-6,1.16-9.31,1.62a214.72,214.72,0,0,1-29.12,1.87H85.69c-1.48,0-3,0-4.54-.07H81c-1.75-.05-3.53-.13-5.33-.23h0c-1.35-.08-2.71-.17-4.07-.28a178.66,178.66,0,0,1-23.65-3.33,62.47,62.47,0,0,1-14.26-4.53,13.84,13.84,0,0,1-1.85-1.28C29.44,383,29.43,381.38,31.85,379.56ZM49.1,399.88c0,.53,0,1.06,0,1.59h0C49.09,401,49.09,400.41,49.1,399.88Zm0-3v.58A2.25,2.25,0,0,1,49.1,396.91Zm-4,13.65c-.74-.18-1.45-.37-2.13-.55h0q-3-.84-5.32-1.69a35.81,35.81,0,0,1-3.89-1.7c-3.24-1.68-4.56-3.26-4.56-4.42V388.36c.44.3.92.6,1.43.89V400a1.74,1.74,0,0,0,3.21.94,1.76,1.76,0,0,0,.28-.94v-9c.72.3,1.5.6,2.31.88v13.83a1.75,1.75,0,0,0,1.75,1.75,1.73,1.73,0,0,0,1.57-1,1.6,1.6,0,0,0,.17-.73V393c.67.2,1.36.39,2.07.58v11.29a1.73,1.73,0,0,0,1.38,1.7,1,1,0,0,0,.24,0l.13,0a1.77,1.77,0,0,0,1.42-.74,1.73,1.73,0,0,0,.32-1V394.4l1.55.34a.32.32,0,0,0,.14,0v9a1.74,1.74,0,0,0,1.75,1.74H49a1.75,1.75,0,0,0,1.67-1.74v-8.24l2.32.42V409a1.75,1.75,0,1,0,3.49,0V396.47l2.07.3v9.4a1.75,1.75,0,1,0,3.49,0v-8.93c1.13.14,2.28.26,3.43.38v12.82a1.56,1.56,0,0,0,1,1.44,2,2,0,0,0,.66.11,1.73,1.73,0,0,0,1.29-.55,1.45,1.45,0,0,0,.42-1V398c2.35.22,4.71.39,7,.51,1.55.09,3.1.16,4.62.21l1.48,0c.76,0,1.52,0,2.27,0h1.9a252.06,252.06,0,0,0,27.88-1.95,149.54,149.54,0,0,0,16.48-3c5.7-1.42,10.67-3.21,13.95-5.48V402.2a2.69,2.69,0,0,1-.74,1.64c-.81,2.06-3,3-5,3.8-7.86,3.34-16.21,4.84-24.61,5.86A217.62,217.62,0,0,1,56.53,413c-2.66-.39-5.29-.9-7.9-1.5l-.23-.2-.13,0C47.18,411.05,46.11,410.81,45.1,410.56Zm2,18.89v-8.07c.05-1.24.12-2.61.14-4.15.83,0,1.16.38,1.28.84v9.13a1.84,1.84,0,0,0,.09.53,1.75,1.75,0,0,0,1.66,1.21l.27,0a1.74,1.74,0,0,0,1.47-1.72v-9c.73.31,1.51.6,2.32.89V432.9a1.75,1.75,0,0,0,3.33.73,1.77,1.77,0,0,0,.16-.73V420.2c.67.2,1.36.39,2.08.58v11.29a1.58,1.58,0,0,0,0,.38,1.72,1.72,0,0,0,1.7,1.36,1.61,1.61,0,0,0,.44-.06,1.73,1.73,0,0,0,1.3-1.68V421.65L65,422l.15,0v9a1.71,1.71,0,0,0,.65,1.35,1.75,1.75,0,0,0,1.1.39,1.64,1.64,0,0,0,.88-.25,1.73,1.73,0,0,0,.86-1.49v-8.24l2.32.42v13.11a1.75,1.75,0,1,0,3.49,0V423.72l2.06.3v9.4a1.75,1.75,0,0,0,1.75,1.75A1.74,1.74,0,0,0,80,433.42v-8.94l3.43.39v12.82a1.64,1.64,0,0,0,1.67,1.55h0a1.65,1.65,0,0,0,1.72-1.55V425.2q3.35.32,6.68.49c1.67.1,3.34.18,5,.22l1.48,0,2.26,0h1.91c2.76,0,6.89-.14,11.72-.44h0c6.42-.41,14.07-1.11,21.47-2.27,10.14-1.59,19.8-4,25.1-7.68v13.84a2,2,0,0,1-.28.95,8.39,8.39,0,0,1-3.32,2.94,32.86,32.86,0,0,1-4.91,2.25,69.52,69.52,0,0,1-7.4,2.22c-11,2.7-25.62,4.2-41.21,4.24h-.89c-3.62,0-7.19-.09-10.68-.25l-1.86-.1-.84,0q-8.55-.53-17.11-1.74c-3.51-.52-6.8-1.15-9.84-1.86l-2.52-.62-1.2-.33,0,0a48.4,48.4,0,0,1-8.25-3,14.68,14.68,0,0,1-3.77-2.5A3.17,3.17,0,0,1,47.15,429.45Zm1.35,28.74V444.35c.41.28.85.55,1.31.82l.12.07v10.7a1.75,1.75,0,0,0,1.38,1.71,2.21,2.21,0,0,0,.37,0,1.74,1.74,0,0,0,1.59-1,1.84,1.84,0,0,0,.15-.71v-9c.52.22,1.08.43,1.64.64l.68.24v13.83a1.72,1.72,0,0,0,.41,1.11,1.74,1.74,0,0,0,1.33.64l.22,0a1.9,1.9,0,0,0,.56-.17,1.74,1.74,0,0,0,.9-1.1,1.77,1.77,0,0,0,.07-.46v-12.7c.63.19,1.29.37,2,.55l.11,0v11.29a1.73,1.73,0,0,0,1.52,1.72l.22,0a1.74,1.74,0,0,0,1.55-1,1.63,1.63,0,0,0,.2-.79V450.39a.53.53,0,0,0,.12,0l1.42.32.11,0a.63.63,0,0,1,0,.09v7.92a3.7,3.7,0,0,0,0,.88v.06a1.75,1.75,0,0,0,3.49,0v-8.24l2.31.42V465a1.75,1.75,0,1,0,3.49,0V452.46l.78.12,1.19.16.1,0v9.4a1.75,1.75,0,1,0,3.49,0v-8.93l.46,0c.76.09,1.53.18,2.3.25l.68.08v12.82a1.71,1.71,0,0,0,3.41,0V453.94l.42,0c3.79.33,7.57.57,11.25.68l1.48,0c.77,0,1.52,0,2.28,0h1.89a249.8,249.8,0,0,0,29.94-2.23c4.74-.65,9.46-1.48,13.78-2.52,5.41-1.31,10.19-2.95,13.57-5,.36-.21.7-.43,1-.65v13.84c0,2.05-4.17,5.47-15.9,8.36-11.13,2.73-26,4.24-41.75,4.24s-30.63-1.51-41.75-4.24c-2.47-.61-4.6-1.24-6.43-1.88a39.48,39.48,0,0,1-4.1-1.65C50,461.19,48.5,459.44,48.5,458.19ZM51.15,492c2-1.5,3.7-2.52,6.05-1.55a22.73,22.73,0,0,0,3.93,2.45c6.07,3.6,13.19,4.67,20.1,5.85a210.47,210.47,0,0,0,70.29,0c1.71-.29,3.39-.78,5.09-1.14,1.51-.31,3-.58,4.56-.87-2.9,1.88-8.38,4-17.44,5.76a213.59,213.59,0,0,1-38.09,3.63H105c-1.49,0-3,0-4.54-.07h-.19a190.12,190.12,0,0,1-33.06-3.85c-9.16-2-14.4-4.22-16.89-6.12C49.14,494.74,49.39,493.36,51.15,492Zm112.66,21.8a1.93,1.93,0,0,1-.15.71c-.83,2.07-5.27,5.07-15.75,7.65-11.13,2.74-26,4.24-41.75,4.24s-30.63-1.5-41.75-4.24c-.44-.1-.86-.21-1.28-.33l-.48-.12c-6.38-1.71-10.25-3.56-12.29-5.19-1.29-1-1.86-2-1.86-2.72V500c.44.3.92.6,1.43.9v10.69a1.75,1.75,0,0,0,1.4,1.71,1.39,1.39,0,0,0,.35,0,1.76,1.76,0,0,0,1.74-1.75v-9c.73.31,1.5.6,2.32.89v13.83a1.75,1.75,0,0,0,3.49,0v-12.7l2.07.58v11.29a1.73,1.73,0,0,0,1.55,1.72l.19,0A1.73,1.73,0,0,0,64.68,517a1.56,1.56,0,0,0,.11-.57V506l1.54.34.15,0v8.94a1.39,1.39,0,0,0,.07.46,1.74,1.74,0,0,0,1.67,1.29,1.84,1.84,0,0,0,.53-.09A1.74,1.74,0,0,0,70,515.34v-8.23l2.31.42v13.11a1.75,1.75,0,0,0,3.49,0V508.09c.68.11,1.38.21,2.07.3v9.41a1.75,1.75,0,0,0,3.49,0v-8.94c1.14.14,2.28.27,3.44.38v12.82a1.56,1.56,0,0,0,1.09,1.45,2.05,2.05,0,0,0,.61.1,1.77,1.77,0,0,0,1.47-.75,1.48,1.48,0,0,0,.24-.8V509.58c3.93.36,7.86.59,11.67.71l1.48,0,2.28,0h1.89c11.49-.05,46.24-2.05,58.31-10.39Zm9.42-29.31c0,1.21-1.44,2.89-5,4.65l-.05,0-.23.1c-.42.18-.85.34-1.27.5l.05.07c-1.2.52-2.57,1-4.15,1.55s-3.29,1-5.23,1.47c-11.13,2.73-26,4.24-41.75,4.24S85,495.6,73.83,492.87c-8.17-2-12.66-4.28-14.65-6.16a3.29,3.29,0,0,1-1.26-2.2V470.67c.44.3.92.6,1.43.89v10.7A1.75,1.75,0,0,0,61.1,484h0a1.76,1.76,0,0,0,1.71-1.75v-9c.73.3,1.5.6,2.32.88V488a1.75,1.75,0,1,0,3.49,0v-2.08a2.91,2.91,0,0,0,0-.5c0-.36,0-.73,0-1.1h0v-9c.67.2,1.36.39,2.07.58v1a2.27,2.27,0,0,0,0,.78v7.25c0,.2,0,.41,0,.61s0,.26,0,.41v1.2a1.78,1.78,0,0,0,1.74,1.75l.15,0a1.73,1.73,0,0,0,1.6-1.73V476.71l1.54.35.15,0V486a1.75,1.75,0,0,0,3.49,0v-7.86h0v-.37l1.81.32c.17,0,.33.07.5.09v13.12a1.75,1.75,0,0,0,3.49,0V478.78l2.07.3v9.41a1.75,1.75,0,0,0,3.49,0v-8.94c1.14.14,2.28.26,3.44.38v12.82a1.63,1.63,0,0,0,1.7,1.55l.17,0a1.59,1.59,0,0,0,1.54-1.53V480.27c1.79.16,3.58.29,5.35.41,2.13.13,4.25.23,6.32.3l1.15,0h.33c.77,0,1.52,0,2.28,0h1.89a253.4,253.4,0,0,0,25.47-1.66c12.72-1.49,26.2-4.14,32.84-8.73Zm0-20.24c0,.06,0,.13,0,.2s0,.08,0,.13a.5.5,0,0,0,0,.13,1.72,1.72,0,0,1-.07.21.05.05,0,0,0,0,0,.9.9,0,0,1-.11.22l-.07.13a4.21,4.21,0,0,1-.49.68,3.44,3.44,0,0,0,.26-.34c-1.69,2.24-7.42,5.16-19.52,7.57a214.52,214.52,0,0,1-38.09,3.63h-.63c-1.49,0-3,0-4.54-.07h-.25a192.88,192.88,0,0,1-31.25-3.47l4.27.49.65.06c1.74.18,3.51.33,5.29.46l2,.13.72,0c3.27.2,6.61.34,10,.41,1.64,0,3.28.05,4.93.05,3.54,0,7.08-.08,10.58-.23,16.83-.74,32.65-3.21,42.15-7.35,5-2.19,8.27-4.84,9-7.95l.8.4c3.25,1.67,4.57,3.26,4.58,4.42Zm54.09,59.81a6.26,6.26,0,0,0,.7-.33A6.26,6.26,0,0,1,227.32,524.08Zm-4.12-.29a2,2,0,0,1-.37.14,10.92,10.92,0,0,1-1.47-.83c-5.19-3.44-9.4-8-13.38-12.63C197.65,498.37,189.33,485,182,470.9Q180.4,467.43,179,464a3.09,3.09,0,0,1-.14-.32,162.17,162.17,0,0,1-7.76-21.85c.09-.12.19-.23.28-.34H171c-.21-.79-.41-1.57-.59-2.34a50.76,50.76,0,0,1-1.67-12.24c.06-3.42.85-5.23,1.84-5.74l12.31-6.31c-.07.52-.12,1.09-.14,1.68l-9.52,4.89a1.75,1.75,0,0,0-.76,2.34l.13.2a1.75,1.75,0,0,0,2.23.55l3.67-1.88,4.34-2.23c.07.79.16,1.61.28,2.47L181,424l-9,4.63-.94.49h0l-.28.14a1.75,1.75,0,1,0,1.6,3.11L173,432l6.14-3.15,2.21-1.14,2.27-1.16c.13.68.27,1.39.43,2.11L175.6,433l-1.55.8a1.63,1.63,0,0,0-.46.36,1.72,1.72,0,0,0-.3,2,1.67,1.67,0,0,0,.17.26,1.73,1.73,0,0,0,2.18.49l7.2-3.69,2.07-1.06c.13.49.26,1,.4,1.53,0,.05,0,.09,0,.14l-7.95,4.09a1.75,1.75,0,0,0-.94,1.32,1.84,1.84,0,0,0,.18,1,1.87,1.87,0,0,0,.69.73,1.77,1.77,0,0,0,1.66,0l7.32-3.76.69,2.26-1.58.81-10.08,5.17a1.75,1.75,0,1,0,1.59,3.11l9.73-5,1.43-.73c.22.66.45,1.32.68,2l-8.37,4.29a2,2,0,0,0-.55.44,1.79,1.79,0,0,0-.21,1.91,1.75,1.75,0,0,0,2.35.76l1.46-.74,6.5-3.34c.39,1.07.8,2.15,1.22,3.23l-9.32,4.78-2.08,1.07a1.72,1.72,0,0,0,1.56,3l7.78-4,3.32-1.71c1.48,3.65,3.07,7.26,4.7,10.71.21.44.43.88.65,1.33.33.69.66,1.37,1,2l.32.63c.17.36.36.71.54,1.06,1.55,3,4.17,7.68,7.41,13,7.82,12.81,19.32,29.24,28.46,34.14Zm-14.63-38.12c1,1.56,2.08,3.1,3.16,4.63Q210.11,488,208.57,485.67Zm33.15,28.46a12,12,0,0,1-2.61-1.36c-4.66-3-8.43-7-12-11.1a203.53,203.53,0,0,1-28.91-44.1,184.58,184.58,0,0,1-8.87-25c-2.11-7.95-2.68-13.3-2.42-16.57.9-1,2.46-1,4.69.15a31.75,31.75,0,0,1,8.93,7.14,208.17,208.17,0,0,1,25.87,34.9l0,.05c7,13.79,12.31,27.37,14.91,38.33C243.88,507.19,243.2,512.5,241.72,514.13Z"/><path class="cls-3" d="M496.88,145.37l-.61-.28.14.07Zm0,0-.61-.28.14.07Z"/><path class="cls-3" d="M488.35,206l-.11-.17,0,0A2.43,2.43,0,0,0,488.35,206Z"/><path class="cls-3" d="M560.29,121.27V107.72c0-3.13-2.79-5.77-7.47-7.93V84.41c0-9.86-27.84-15-55.34-15s-55.33,5.16-55.33,15v18.1c0,3.12,2.79,5.77,7.46,7.93v15.38c0,2.26,1.45,4.26,4,6a37.53,37.53,0,0,0,10.69,4.5v8.95c-9,2.34-15.17,5.67-16,9.93l.15,23a6.91,6.91,0,0,0-1.46,4.12v14.74c-1,.42-1.9.86-2.74,1.32-1.81,1-4,2.61-4.65,4.52-.78,2.17-1,8.44-1,12.91v7.71c0,3.33,3.17,6.12,8.43,8.36v17.87c0,9.86,27.84,15,55.34,15s55.34-5.16,55.34-15V231.67c0-3.33-3.18-6.12-8.43-8.35v-15c5.25-2.25,8.43-5,8.43-8.36V181.89a5.53,5.53,0,0,0-1-3.08,6.35,6.35,0,0,0,2.19-4.53v-13.5c9.68-2.52,16.07-6.16,16.07-10.89v-18.1C575,127.29,569.21,123.77,560.29,121.27Zm-.82,7.38a5.5,5.5,0,0,0,.8-2.46,1.57,1.57,0,0,1,1,0,23.51,23.51,0,0,1,7.63,3.4c2.17,1.63,2.16,3,0,4.72a13.29,13.29,0,0,1-1.66,1.15,56.22,56.22,0,0,1-12.76,4.05,161.11,161.11,0,0,1-21.17,3c-1.21.1-2.43.18-3.64.25h0c-1.61.09-3.21.17-4.77.21h-.17c-1.38,0-2.73.06-4.06.06h-1a190.74,190.74,0,0,1-26-1.68c-2.94-.41-5.73-.89-8.34-1.44l2.68.24h0c5.51.44,11.26.67,17,.67C529.69,140.85,554.7,136.66,559.47,128.65Zm-6,17v-.52A1.81,1.81,0,0,1,553.43,145.68Zm0,3.57h0v-1.42C553.44,148.3,553.44,148.78,553.44,149.25Zm-2.69-42.32.28-.29q.21-.23.39-.45l.11-.14a6.42,6.42,0,0,0,1.12-2.19,13.93,13.93,0,0,1,2.44,1.6,6.67,6.67,0,0,1,.6.56c0,.07.11.12.16.18h0a3.25,3.25,0,0,1,.47.69,2.06,2.06,0,0,1,.17.42,1.9,1.9,0,0,1,0,.4,1.72,1.72,0,0,1,0,.37l0,.11a1.17,1.17,0,0,1-.05.11,2.21,2.21,0,0,1-.32.6,2.73,2.73,0,0,0,.23-.4,7.36,7.36,0,0,1-2.87,2.45c-2.59,1.46-7,3.07-13.66,4.53-2.72.59-5.66,1.12-8.73,1.58a181.23,181.23,0,0,1-20.85,1.86H510c-1.38,0-2.73.06-4.06.06h-.56c-4,0-8.25-.19-12.5-.49l-2.13-.16-3.18-.28-2.19-.23c-4.05-.44-8-1-11.6-1.63q2.69.31,5.47.56c5.86.51,12,.78,18.19.78,1.54,0,3.08,0,4.61-.05h.06l3.36-.1,3.11-.14,1.61-.09c1.06-.07,2.12-.13,3.17-.22.53,0,1.05-.07,1.58-.12h0c1.22-.1,2.41-.21,3.61-.34l.85-.09.89-.1h0l.85-.1h0l.85-.11h0L523,116h0l.83-.11h0c.27,0,.55-.08.82-.12h0l1.21-.18.46-.07,2.12-.34.32-.06h0l.31,0,1-.18.29,0h0c1.13-.22,2.24-.44,3.31-.68l1-.23c1-.24,2.06-.5,3-.77h0l.66-.18h0l.65-.19h0l.65-.2h0l.62-.2h0l.62-.2h0l.6-.2h0l.59-.2h0l.58-.21h0l1.12-.43h0l.53-.23h0l.52-.23h0l.51-.23h0c.17-.07.33-.16.5-.24h0l.48-.24h0l.47-.23h0l.89-.51a15.84,15.84,0,0,0,2.57-1.89Zm-27.92,19.8c0,.83,0,1.66,0,2.5C522.83,128.39,522.82,127.56,522.83,126.73Zm0-2a2.86,2.86,0,0,1,0-1.27A2.86,2.86,0,0,0,522.79,124.72ZM445.9,84.23a1.93,1.93,0,0,1,.17-.57l.11-.2a3,3,0,0,1,.28-.41l.18-.22.15-.17h0l.07-.08.09-.08h0l.37-.34.21-.17c.07-.07.15-.12.22-.18h0l.14-.1c.14-.11.29-.21.45-.32l.49-.31h0l.32-.18.3-.17,0,0,.32-.17.07,0,.14-.07.52-.26.05,0c.56-.28,1.2-.55,1.88-.83l.73-.29.08,0,.36-.13.54-.19.56-.2c1.55-.52,3.33-1,5.36-1.54,10-2.45,23.23-3.79,37.36-3.79s27.41,1.34,37.36,3.79c10.51,2.59,14.23,5.65,14.23,7.48a1.26,1.26,0,0,1-.05.37.35.35,0,0,1,0,.11l0,.12a2.21,2.21,0,0,1-.31.58,3.15,3.15,0,0,0,.22-.39A5.7,5.7,0,0,1,547,87c-2.38,1.63-7,3.5-14.71,5.18-2.41.52-5,1-7.71,1.42-3.9.61-8,1.1-12.16,1.45-4.88.32-9.78.47-14.69.61h-.35c-6.3,0-13.15-.46-19.7-1.17-4.92-.54-9.66-1.24-13.85-2.07-9.47-1.89-14.58-4.12-16.72-6a5.07,5.07,0,0,1-.88-1,4.75,4.75,0,0,0,.36.5,3.44,3.44,0,0,1-.43-.61l-.07-.11c0-.07-.07-.14-.1-.2s0,0,0,0l-.06-.2,0-.11s0-.08,0-.12,0-.12,0-.17S445.9,84.29,445.9,84.23Zm3.89,22.14a15,15,0,0,1-1.62-1,8.35,8.35,0,0,1-.76-.57,5.3,5.3,0,0,1-.59-.55,1.26,1.26,0,0,1-.2-.2l-.17-.21a2.3,2.3,0,0,1-.56-1.35V90.13a22.57,22.57,0,0,0,3.51,1.93,45.19,45.19,0,0,0,6,2.17,99.8,99.8,0,0,0,10.92,2.44c3.87.66,7.86,1.18,11.72,1.57,6.32.66,12.25,1,16.55,1.12h.49l.93,0,.88,0h2.88l2,0,1.33,0c3.4-.1,6.93-.31,10.44-.63v11.17a1.36,1.36,0,0,0,0,.29,2.31,2.31,0,0,0,.1.28l.07.11a.76.76,0,0,0,.08.11l0,0,.08.09.11.1a1.5,1.5,0,0,0,.6.31,1.47,1.47,0,0,0,.42,0,1.56,1.56,0,0,0,.44,0l.38-.16a1.14,1.14,0,0,0,.25-.18,1,1,0,0,0,.2-.22,1.23,1.23,0,0,0,.26-.77V98.42c1-.11,2.06-.22,3.08-.35v1.25h0v6.75a1.56,1.56,0,0,0,1.56,1.56,1.52,1.52,0,0,0,1.1-.46,1.56,1.56,0,0,0,.46-1.1V97.66l1.85-.27v11.22a1.56,1.56,0,0,0,1.56,1.57,1.59,1.59,0,0,0,1.57-1.57V96.88l2.07-.37V104s0,0,0,0l0,.14s0,.08,0,.11,0,0,0,0l.05.12h0a2.56,2.56,0,0,0,.11.24l.06.09h0s0,0,0,0h0s0,0,0,0h0v0l0,0,.15.15,0,0a1,1,0,0,0,.21.15l.12.07.18.07.2,0a.22.22,0,0,0,.11,0l.18,0,.12,0a1.56,1.56,0,0,0,1.44-1.54v-8l.13,0,1.38-.31v9.32a1.94,1.94,0,0,0,.06.43s0,.09.05.13h0a1.41,1.41,0,0,0,.13.24h0a.76.76,0,0,0,.08.11h0a.41.41,0,0,0,.09.1h0a2.39,2.39,0,0,0,.23.22,1.63,1.63,0,0,0,.92.3,1.55,1.55,0,0,0,1.56-1.56V94.76c.64-.17,1.26-.34,1.86-.52V105.6a1.56,1.56,0,0,0,1.56,1.57,1.59,1.59,0,0,0,1.56-1.57V93.23c.73-.26,1.42-.52,2.07-.79v8.06a1.59,1.59,0,0,0,.06.38,1.57,1.57,0,0,0,.32.63,1.53,1.53,0,0,0,1.18.55h.15a1.19,1.19,0,0,0,.42-.11h0a1.57,1.57,0,0,0,.37-.22l.1-.08a1.51,1.51,0,0,0,.51-1.15V90.93c.46-.26.89-.53,1.28-.8v12.38a2.5,2.5,0,0,1-.74,1.58c-1.51,1.72-5.44,3.87-13,5.77l-.51.13c-10,2.45-23.22,3.8-37.36,3.8s-27.4-1.35-37.36-3.8l-1.86-.48-.92-.26c-.6-.17-1.17-.34-1.71-.52-.28-.08-.55-.17-.8-.26-.51-.17-1-.34-1.45-.51A31,31,0,0,1,449.79,106.37Zm13,25.57-1.37-.47-.08,0-.66-.25c-.39-.14-.76-.29-1.12-.44l-.11-.05c-.35-.14-.67-.29-1-.43a.75.75,0,0,0-.13-.06c-.52-.25-1-.5-1.43-.73l-.66-.39-.15-.1-.6-.39-.09-.07c-.21-.15-.4-.3-.58-.45a1.07,1.07,0,0,0-.16-.14l-.09-.09-.21-.2-.11-.11-.14-.16-.1-.11-.11-.15-.07-.09-.15-.24a1.87,1.87,0,0,1-.3-1V113.44a24.71,24.71,0,0,0,4.31,2.29c.47.2,1,.39,1.47.58l1.54.55c.54.17,1.08.35,1.63.51l.85.25c.57.17,1.15.32,1.73.48A127.45,127.45,0,0,0,480.25,121l1.71.21c1.7.2,3.39.39,5,.54l1.37.13c1.72.16,3.4.29,5,.4h0c4.09.29,7.72.43,10.43.49l1.73,0h1.69c.68,0,1.35,0,2,0,.44,0,.89,0,1.32,0,3.41-.1,6.93-.31,10.44-.63V133.2a1.19,1.19,0,0,0,.1.46,1.58,1.58,0,0,0,.13.26,0,0,0,0,0,0,0,1,1,0,0,0,.13.16l.08.08.2.15.23.12.06,0,.1,0a.59.59,0,0,0,.19.05l.3,0a2,2,0,0,0,.36,0,1.41,1.41,0,0,0,1.17-1.34V121.73c1-.11,2.06-.22,3.07-.35v8a1.6,1.6,0,0,0,.46,1.11,1.57,1.57,0,0,0,2.67-1.11V121l.92-.14h0l.92-.13v11.22a1.6,1.6,0,0,0,.46,1.11,1.56,1.56,0,0,0,2.66-1.11V120.19l2.08-.37v7.36a1.53,1.53,0,0,0,1.12,1.5,2,2,0,0,0,.44.07l.25,0,0,0h0l.17,0h0a1.21,1.21,0,0,0,.2-.09.54.54,0,0,0,.15-.09l0,0h0l.14-.12a1.76,1.76,0,0,0,.24-.3,1.53,1.53,0,0,0,.26-.85v-8a.61.61,0,0,0,.13,0l1.38-.3v9.32a1.4,1.4,0,0,0,.06.41l.05.15.08.18a1.4,1.4,0,0,0,.1.16l.16.21a1.59,1.59,0,0,0,1.11.45h.1a1.55,1.55,0,0,0,1.46-1.55v-8.6h0v-1.5l1.86-.52v11.36a1.6,1.6,0,0,0,.45,1.11,1.57,1.57,0,0,0,1.11.45,1.56,1.56,0,0,0,1.56-1.56V116.54c.73-.26,1.42-.52,2.07-.79v8.06a1.6,1.6,0,0,0,.46,1.11,1.55,1.55,0,0,0,1.1.45h.12a1.37,1.37,0,0,0,.28,0,1.58,1.58,0,0,0,.26-.09l.13-.07.11-.07h0a1.6,1.6,0,0,0,.58-.83,1.36,1.36,0,0,0,.07-.35v-9.66c.46-.26.89-.53,1.28-.8v12.38a2.39,2.39,0,0,1-.68,1.5l-.27.31c-.14.13-.28.27-.45.41a6,6,0,0,1-.6.47l-.23.17c-.1.07-.21.15-.33.22h0c-.24.15-.51.32-.79.48l-.91.49h0c-.32.17-.67.33-1,.5-.57.25-1.17.51-1.83.76-.38.15-.78.29-1.2.43a2.72,2.72,0,0,1-.37.13c-.67.24-1.39.47-2.15.69-.57.17-1.15.33-1.75.49l-.22.07-1.39.35c-10,2.45-23.23,3.8-37.36,3.8-13.41,0-26-1.22-35.79-3.43a4.34,4.34,0,0,1-.72-.83,4.75,4.75,0,0,0,.36.5s0,0,0,0,.18.19.27.29l-1.51-.36c-1.17-.28-2.25-.58-3.27-.88Zm1.56,17.25v.7c0,9.86,27.84,15,55.34,15,5.92,0,11.87-.24,17.54-.72a168.64,168.64,0,0,1-23.47,3c-1.53.09-3.05.16-4.55.2h-.49c-1.39.05-2.74.07-4.07.07H504c-3.47,0-7.12-.14-10.8-.38A181.12,181.12,0,0,1,470,164.19c-11.19-2.22-16.29-4.94-17.61-7a3.9,3.9,0,0,0,.36.5,3.2,3.2,0,0,1-.44-.61.6.6,0,0,0-.06-.11,1.13,1.13,0,0,1-.09-.2s0,0,0,0a1.52,1.52,0,0,1-.06-.2.61.61,0,0,0,0-.11.49.49,0,0,1,0-.12,1,1,0,0,1,0-.17C452,154.46,455.28,151.66,464.32,149.19Zm67,21.08a1.11,1.11,0,0,0-.29-.08A1.11,1.11,0,0,1,531.32,170.27Zm-89,35.16c0-1,1.19-2.45,4.09-4,.24-.12.47-.24.72-.35.62,2.77,3.53,5.15,8,7.11,8.5,3.7,22.66,5.92,37.71,6.57,3.14.14,6.31.21,9.48.21,1.47,0,2.94,0,4.41,0,3-.07,6-.19,8.91-.37l.64,0,1.75-.12c1.59-.12,3.17-.26,4.73-.41l.58-.06,3.82-.43a174,174,0,0,1-28,3.1H499c-1.38,0-2.73.07-4.06.07h-.57a191.22,191.22,0,0,1-34.08-3.25c-10.83-2.15-16-4.77-17.47-6.77.07.1.14.2.23.31a3.59,3.59,0,0,1-.44-.62l-.06-.11a1.24,1.24,0,0,1-.1-.2s0,0,0,0-.05-.13-.07-.19a.5.5,0,0,0,0-.12.52.52,0,0,1,0-.11,1.15,1.15,0,0,1,0-.18Zm5.84,22.9,0-.06-1.14-.45-.2-.09,0,0c-3.2-1.58-4.49-3.08-4.49-4.16V211.17c5.94,4.1,18,6.48,29.38,7.81a225.34,225.34,0,0,0,22.79,1.48h1.7l2,0h.3l1,0c1.86-.06,3.75-.15,5.66-.27,1.58-.11,3.18-.22,4.78-.37v11.17a1.44,1.44,0,0,0,1.38,1.38h.15a1.46,1.46,0,0,0,1.53-1.39V219.45c1-.1,2-.22,3.07-.34v8a1.56,1.56,0,1,0,3.12,0v-8.42c.63-.09,1.25-.17,1.86-.27v11.23a1.56,1.56,0,1,0,3.12,0V217.92l.45-.09,1.62-.29v.33h0v7a1.57,1.57,0,0,0,3.13,0v-8l.13,0,1.38-.31v9.33a1.55,1.55,0,0,0,1.43,1.54l.13,0a1.57,1.57,0,0,0,1.52-1.22,2,2,0,0,0,0-.34v-1.08c0-.13,0-.25,0-.37s0-.36,0-.55v-6.48a2.34,2.34,0,0,0,0-.7v-.93c.64-.17,1.25-.34,1.85-.52v8.08h0c0,.32,0,.65,0,1,0,.14,0,.29,0,.45v1.86a1.57,1.57,0,0,0,3.13,0V214.26c.73-.25,1.42-.52,2.07-.79v8.07a1.56,1.56,0,0,0,1.53,1.56h0a1.56,1.56,0,0,0,1.56-1.56V212c.46-.27.89-.54,1.28-.8v12.38a3,3,0,0,1-1.12,2c-1.78,1.68-5.8,3.71-13.12,5.51-9.95,2.45-23.22,3.79-37.35,3.79s-27.4-1.34-37.36-3.79q-2.61-.65-4.68-1.32A38.59,38.59,0,0,1,448.2,228.33ZM554,249.78c0,.67-.51,1.51-1.66,2.43-1.83,1.46-5.3,3.11-11,4.64l-.43.12c-.37.1-.75.2-1.15.29-10,2.45-23.22,3.8-37.35,3.8s-27.4-1.35-37.36-3.8c-9.38-2.31-13.36-5-14.1-6.85a1.69,1.69,0,0,1-.13-.63V237.4c10.8,7.45,41.9,9.24,52.17,9.29h1.7l2,0,1.32,0c3.41-.11,6.93-.32,10.44-.64v11.17a1.3,1.3,0,0,0,.22.72,1.59,1.59,0,0,0,1.31.67,2,2,0,0,0,.55-.09,1.4,1.4,0,0,0,1-1.3V245.68c1-.1,2.05-.22,3.07-.34v8a1.56,1.56,0,0,0,3.12,0v-8.42c.63-.09,1.25-.17,1.86-.27v11.23a1.56,1.56,0,0,0,3.12,0V244.15l2.07-.38v7.37a1.56,1.56,0,0,0,1.09,1.48,1.5,1.5,0,0,0,.47.08,1.56,1.56,0,0,0,1.5-1.15,1.41,1.41,0,0,0,.07-.41v-8l.13,0,1.38-.31v9.33a1.44,1.44,0,0,0,.09.51,1.56,1.56,0,0,0,1.47,1.05l.17,0a1.55,1.55,0,0,0,1.39-1.54V242c.64-.16,1.25-.34,1.85-.51v11.36a1.57,1.57,0,0,0,1.56,1.56,1.56,1.56,0,0,0,1.57-1.56V240.49c.73-.25,1.42-.51,2.07-.79v8.07a1.6,1.6,0,0,0,.13.62,1.56,1.56,0,0,0,3-.62V238.2c.46-.27.89-.53,1.28-.8Zm-2.37-19.51c1.58,1.2,1.8,2.44.73,3.69-2.22,1.7-6.91,3.7-15.11,5.49a171.23,171.23,0,0,1-29.59,3.44h-.16c-1.38,0-2.73.06-4.06.06h-.57a192.17,192.17,0,0,1-34.08-3.24c-8.11-1.62-13-3.48-15.61-5.16,1.37.25,2.73.5,4.08.78,1.53.32,3,.76,4.55,1a188.45,188.45,0,0,0,62.91,0c6.18-1.05,12.55-2,18-5.24a19.91,19.91,0,0,0,3.52-2.19C548.29,228,549.81,228.93,551.6,230.27ZM554,200c0,1.11-1.38,2.68-4.81,4.32a38.06,38.06,0,0,1-3.67,1.48c-1.64.57-3.55,1.13-5.76,1.68-10,2.44-23.22,3.79-37.35,3.79S475,209.92,465,207.48c-10.5-2.59-14.23-5.65-14.23-7.48V187.61a10.12,10.12,0,0,0,.91.58,44.6,44.6,0,0,0,12.14,4.47c3.87.93,8.1,1.67,12.34,2.26a222.65,222.65,0,0,0,26.78,2h1.7l2,0,1.32,0c3.29-.1,6.68-.31,10.07-.61l.37,0v11.17a1.54,1.54,0,0,0,3.06,0V195.9l.61-.07,2-.22.41-.05v8a1.56,1.56,0,1,0,3.12,0v-8.41h.1l1.06-.15.7-.11V206.1a1.56,1.56,0,0,0,3.12,0V194.36l2.07-.37v7.37a1.57,1.57,0,0,0,3.13,0v-.05a4.27,4.27,0,0,0,0-.8v-7.08a.16.16,0,0,1,0-.08l.1,0,1.26-.28.12,0v9.32a1.52,1.52,0,0,0,.17.71,1.57,1.57,0,0,0,1.39.85h.2a1.56,1.56,0,0,0,1.36-1.55v-10.1l.1,0,1.75-.5v11.37a1.76,1.76,0,0,0,.06.4,1.55,1.55,0,0,0,.81,1,1.52,1.52,0,0,0,.5.15l.19,0a1.59,1.59,0,0,0,1.57-1.56V190.71l.6-.22c.51-.19,1-.37,1.47-.57V198a1.49,1.49,0,0,0,.14.63,1.54,1.54,0,0,0,1.42.93,1.65,1.65,0,0,0,.32,0,1.56,1.56,0,0,0,1.24-1.52v-9.58a.41.41,0,0,0,.11-.07c.41-.23.81-.48,1.17-.73Zm-.05-17.74a.56.56,0,0,1,0,.12.76.76,0,0,1,0,.11,2.28,2.28,0,0,1-.33.6,3.61,3.61,0,0,0,.24-.41c-1,1.92-5.75,4.63-16.53,7A154.62,154.62,0,0,1,521,192.2c-4.47.47-9,.78-13.37.9h-.16c-1.38.05-2.73.06-4.06.06h-.57a198.2,198.2,0,0,1-26.72-2c-2.57-.37-5.06-.79-7.36-1.25-10.79-2.14-15.91-4.74-17.45-6.75,0,.05.06.1.1.15a1,1,0,0,1-.12-.17,0,0,0,0,0,0,0,3.29,3.29,0,0,1-.23-.33l-.06-.11a1.24,1.24,0,0,1-.1-.2.1.1,0,0,0,0,0,1.59,1.59,0,0,1-.07-.2.52.52,0,0,0,0-.11.5.5,0,0,1,0-.12,1,1,0,0,1,0-.17,1.9,1.9,0,0,1,.28-.94h0a4.13,4.13,0,0,1,.59-.76,1.7,1.7,0,0,1,.19-.19c8.38,6.13,30.16,9.31,51.74,9.31,20.32,0,40.81-2.82,50.14-8.27a1.9,1.9,0,0,1,.24.86A1.64,1.64,0,0,1,553.92,182.26Zm1.26-8a2.85,2.85,0,0,1-1,1.9,13.35,13.35,0,0,1-3.38,2.23,43.18,43.18,0,0,1-7.38,2.71h0l-1.07.3L540,182c-2.72.64-5.66,1.2-8.8,1.67q-7.65,1.08-15.31,1.55l-.75,0-1.67.09c-3.12.14-6.31.22-9.55.22h-.8c-13.95,0-27-1.37-36.88-3.79a61.82,61.82,0,0,1-6.62-2,27.31,27.31,0,0,1-4.39-2,7.59,7.59,0,0,1-3-2.63,1.84,1.84,0,0,1-.24-.85V161.89c4.74,3.28,13.38,5.46,22.46,6.88,6.62,1,13.47,1.67,19.21,2h0c4.32.27,8,.38,10.48.39h1.71l2,0,1.32,0c1.48-.05,3-.12,4.47-.2,2-.12,4-.26,6-.44v11.17a1.47,1.47,0,0,0,1.54,1.39h0a1.46,1.46,0,0,0,1.49-1.39V170.18l3.07-.34v8a1.54,1.54,0,0,0,.37,1,1.56,1.56,0,0,0,2.75-1v-8.42l1.85-.27v11.23a1.56,1.56,0,1,0,3.12,0V168.64l2.07-.37v7.37a1.55,1.55,0,0,0,.77,1.33,1.47,1.47,0,0,0,.8.23,1.54,1.54,0,0,0,1-.35,1.57,1.57,0,0,0,.58-1.21v-8l.13,0,1.38-.31v9.32a1.57,1.57,0,0,0,1.17,1.51,1.23,1.23,0,0,0,.39.06,1.56,1.56,0,0,0,1.52-1.23,1.22,1.22,0,0,0,0-.34v-10.1c.64-.17,1.25-.34,1.85-.52v11.37a1.58,1.58,0,0,0,1.57,1.56,1.57,1.57,0,0,0,1.56-1.56V165c.73-.25,1.42-.52,2.08-.79v8.07a1.54,1.54,0,0,0,1.31,1.53,1.9,1.9,0,0,0,.25,0,1.57,1.57,0,0,0,1.48-1.09,1.85,1.85,0,0,0,.08-.47V164.1c.1-.41.4-.72,1.14-.75,0,1.37.08,2.6.13,3.71Zm16.07-24.39c0,1-1.18,2.46-4.08,4a32.57,32.57,0,0,1-3.48,1.52c-1.37.51-3,1-4.76,1.51h0l-1.9.48c-.91.23-1.87.44-2.84.65l-.12,0-.21.17q-3.5.83-7.06,1.35a194.92,194.92,0,0,1-51.58.44c-7.51-.92-15-2.26-22-5.25-1.78-.76-3.75-1.55-4.47-3.39a2.44,2.44,0,0,1-.66-1.48V137.51c2.94,2,7.38,3.64,12.48,4.9a132.05,132.05,0,0,0,14.75,2.65,226.27,226.27,0,0,0,24.95,1.75h1.69l2,0,1.32,0q2.06-.06,4.14-.18c2.09-.11,4.2-.26,6.3-.45v11.17a1.3,1.3,0,0,0,.38.9,1.56,1.56,0,0,0,1.15.48,1.59,1.59,0,0,0,.59-.1,1.38,1.38,0,0,0,.94-1.28V145.8c1-.11,2.06-.22,3.08-.35v8a1.56,1.56,0,1,0,3.12,0V145l1.85-.27V156a1.56,1.56,0,1,0,3.12,0V144.26l2.08-.37v7.36a1.56,1.56,0,0,0,1.5,1.56h.06a1.56,1.56,0,0,0,1.56-1.57v-8a.61.61,0,0,0,.13,0c.47-.09.93-.2,1.38-.3v9.32a1.59,1.59,0,0,0,.29.91,1.57,1.57,0,0,0,1.27.65h.12l.21,0a1.54,1.54,0,0,0,1.23-1.52v-10.1c.64-.17,1.26-.34,1.86-.52V153a1.45,1.45,0,0,0,.15.66,1.55,1.55,0,0,0,1.41.91,1.56,1.56,0,0,0,1.56-1.57V140.61c.73-.26,1.42-.52,2.07-.79v8.06a1.63,1.63,0,0,0,.25.85,1.56,1.56,0,0,0,2.87-.85v-9.57c.46-.26.89-.53,1.28-.8Z"/><path class="cls-4" d="M406.68,116.63S197.23,95.2,125,232.54"/><polygon class="cls-3" points="93.11 208.05 106.05 286.6 167.62 236.13 93.11 208.05"/><path class="cls-4" d="M268.85,474.93c55.6-2.32,180.13-19.78,232.54-126.27"/><polygon class="cls-3" points="533.77 372.7 519.67 294.35 458.86 345.73 533.77 372.7"/></g></svg>