<?xml version="1.0" encoding="utf-8"?>
<!-- Generator: Adobe Illustrator 22.1.0, SVG Export Plug-In . SVG Version: 6.00 Build 0)  -->
<svg version="1.1" id="Layer_1" xmlns="http://www.w3.org/2000/svg" xmlns:xlink="http://www.w3.org/1999/xlink" x="0px" y="0px"
	 viewBox="0 0 384 361" style="enable-background:new 0 0 384 361;" xml:space="preserve">
<style type="text/css">
	.st0{fill:#EDEDED;}
	.st1{fill:#FFFFFF;stroke:#6A52DE;stroke-width:9.902;stroke-linejoin:round;stroke-miterlimit:10;}
	.st2{fill:none;stroke:#6A52DE;stroke-width:9.902;stroke-linejoin:round;stroke-miterlimit:10;}
</style>
<title>LL icon heolding deposit</title>
<g>
	<path class="st0" d="M338.8,272.1c-40.6,40.3-101.4,28.6-152.4,27.5c-21.6,0-28.5,27.5-49.1,31.4c-58.9,10.8-102-46.2-118.7-96.1
		C1.8,186.7,37.6,98.9,81.6,78c26.6-12.6,36.9-23.2,88.4-36c66.8-20.6,139,3.4,176.3,59.4c32.4,48.1,31.4,111.9,1.7,159.6
		C345.1,265,342.1,268.7,338.8,272.1z"/>
	<path class="st1" d="M143.7,192h96.6c1.9,0,3.3,1.5,3.3,3.3v80.9c0,1.9-1.5,3.3-3.3,3.3h-96.6c-1.9,0-3.3-1.5-3.3-3.3v-80.9
		C140.5,193.4,142,192,143.7,192z"/>
	<path class="st2" d="M217.2,161c-3.3-1-5.9-2.9-7-5.8l0,0c-1.5-3.4-0.8-7.3,1.4-11c2.5-4.1,6.3-7.3,10.6-9.4
		c6.3-3.1,12.3-6.4,18.4-9.7c4.2-2.4,9-3.6,13.8-3.4c4.2,0.3,7.9,2,9.9,5.1c2,3.1,1.9,7.2-0.1,11.1c-1.9,4-5.6,7.8-10.5,10.6
		c-6.5,3.6-12.9,7-19.6,10.3c-1.1,0.5-2.2,1-3.3,1.4"/>
	<path class="st2" d="M299.6,107.2c-12.1,9.4-24.8,18.1-38,26c-2.7,1.7-5.9,1.5-7-0.4c-1.2-1.9,0.3-4.7,3-6.4
		c12.9-7.7,25.3-16.2,37.2-25.4c2.5-2,5.6-2.2,6.9-0.5C303.1,102.3,302.3,105.1,299.6,107.2z"/>
	<path class="st2" d="M334,88.9c-5.3,5.5-10.8,10.8-16.4,15.6c-4.3,3.8-9.3,5.9-13.7,6.3c-4.4,0.4-8.2-1-10.5-3.9l0,0
		c-2.2-2.9-2.5-6.9-1.3-11c1.5-4.5,4.2-8.5,7.8-11.6c5.1-4.5,10-9.1,14.7-14c3.1-3.4,7.2-6,11.6-7.2c4-1.1,8-0.8,11,1.5
		c2.9,2.2,4.3,6.1,3.7,10.6C340.3,79.6,338,84.6,334,88.9z"/>
	<path class="st2" d="M360.2,30.7c-2.5,7.4-5.9,14.7-9.9,21.4c-2,3.3-4.1,6.7-6.4,9.9c-2.2,3.1-4.6,6.3-7,9.3
		c-0.9,1.2-2.2,2.1-3.6,2.4c-1.1,0.4-2.3,0.2-3.2-0.5c-0.8-0.8-1.2-2-1-3.1c0.2-1.4,0.8-2.7,1.7-3.8c9.4-11.4,17.2-24.3,21.9-38.1
		c0.4-1.4,1.2-2.5,2.2-3.4c0.9-0.8,2.1-1.1,3.1-0.9c1.1,0.4,2,1.3,2.2,2.4C360.8,27.7,360.8,29.3,360.2,30.7z"/>
	<path class="st2" d="M167.3,160.8c3-1.1,5.4-2.9,6.6-5.6l0,0c1.5-3.4,0.8-7.3-1.4-11c-2.5-4.1-6.3-7.3-10.6-9.4
		c-6.3-3.1-12.3-6.4-18.4-9.7c-4.2-2.4-9-3.6-13.8-3.4c-4.2,0.3-7.9,2-9.9,5.1c-2,3.1-1.9,7.2,0.1,11.1c2,3.9,5.6,7.8,10.5,10.6
		c6.5,3.6,13,7,19.6,10.3c1.1,0.5,2.2,1,3.3,1.4"/>
	<path class="st2" d="M84.3,107.2c12.1,9.4,24.8,18.1,38,26c2.7,1.7,5.9,1.5,7-0.4c1.1-1.9-0.3-4.7-3-6.4
		c-12.9-7.7-25.3-16.2-37.2-25.4c-2.5-2-5.6-2.2-6.9-0.5S81.7,105.1,84.3,107.2z"/>
	<path class="st2" d="M50,88.9c5.3,5.5,10.8,10.8,16.4,15.6c4.3,3.8,9.3,5.9,13.7,6.3s8.2-1,10.5-3.9l0,0c2.2-2.9,2.5-6.9,1.3-11
		c-1.5-4.5-4.2-8.5-7.8-11.6c-5.1-4.5-10-9.1-14.7-14c-3.1-3.4-7.2-6-11.6-7.2c-4-1.1-8-0.8-11,1.5c-2.9,2.2-4.3,6.1-3.7,10.6
		C43.7,79.6,46,84.6,50,88.9z"/>
	<path class="st2" d="M23.7,30.7c2.5,7.4,5.9,14.7,9.9,21.4c2,3.3,4.1,6.7,6.4,9.9c2.2,3.1,4.6,6.3,7,9.3c0.9,1.2,2.2,2.1,3.6,2.4
		c1.1,0.4,2.3,0.2,3.2-0.5c0.8-0.8,1.2-2,1-3.1c-0.2-1.4-0.8-2.7-1.7-3.8C43.8,54.7,35.9,42,31.3,28.1c-0.4-1.4-1.2-2.5-2.2-3.4
		c-0.9-0.8-2.1-1.1-3.1-0.9c-1.1,0.4-2,1.3-2.2,2.4C23.1,27.7,23.2,29.3,23.7,30.7z"/>
	<path class="st1" d="M198.4,294.4c11.6,3.5,18.3,15.7,14.8,27.5c-3.5,11.6-15.7,18.3-27.5,14.8c-11.7-3.5-18.3-15.7-14.8-27.5
		c1.9-6.3,6.5-11.4,12.5-14v-15.7h16l4,6.7L198.4,294.4z"/>
	<circle class="st2" cx="192" cy="320.5" r="6.9"/>
	<path class="st1" d="M192,124.7c-21,0-38,17-38,38V192h12.3v-29.6c0.2-13.9,11.4-25.1,25.3-25.3c14.3-0.2,26,11.1,26.2,25.3V192
		h12.2v-29.2C230.1,141.8,213.1,124.7,192,124.7z"/>
	<line class="st2" x1="140.5" y1="203.1" x2="151.4" y2="203.1"/>
	<line class="st2" x1="140.5" y1="218.6" x2="150.3" y2="218.6"/>
	<line class="st2" x1="140.5" y1="234" x2="154" y2="234"/>
	<line class="st2" x1="140.5" y1="249.5" x2="160.1" y2="249.5"/>
	<line class="st2" x1="140.5" y1="264.9" x2="170" y2="264.9"/>
	<line class="st2" x1="243.7" y1="203.1" x2="232.7" y2="203.1"/>
	<line class="st2" x1="243.7" y1="218.6" x2="233.9" y2="218.6"/>
	<line class="st2" x1="243.7" y1="234" x2="230.1" y2="234"/>
	<line class="st2" x1="243.7" y1="249.5" x2="224.1" y2="249.5"/>
	<line class="st2" x1="243.7" y1="264.9" x2="214.1" y2="264.9"/>
</g>
</svg>
