<svg xmlns="http://www.w3.org/2000/svg" viewBox="0 0 600 600"><defs><style>.cls-1{opacity:0.7;}.cls-2{fill:#ededed;}.cls-3{fill:none;stroke:#6a52de;stroke-miterlimit:10;stroke-width:12.81px;}.cls-4{fill:#6a52de;}</style></defs><title>LL icon rent</title><g id="Housemates"><path class="cls-2" d="M600.5,308.11c15.32,115.45-38.29,260.08-154.11,288.59-67,16.3-109.13-46.85-159.86-86.57-10.53-8.14-22-15.27-35.42-12.22-25.85,6.11-46,31.57-73.71,24.45C75,493.84-7.35,388.93,4.14,272.83c7.66-69.26,75.62-95.74,132.1-96.76,23.93,0,41.16-19.35,52.65-40.74C207.07,100.7,219.52,64,247.28,37.56,306.63-20.5,401.4-10.31,451.17,53.85c55.52,70.28,113.92,137.5,142.64,221.86A218,218,0,0,1,600.5,308.11Z"/><polygon class="cls-3" points="484 541.8 116 541.8 116 248.8 96 248.8 300 83.8 504 248.8 484 248.8 484 541.8"/><polygon class="cls-3" points="173 130.8 148.34 130.8 148.34 206.46 173 186.52 173 130.8"/><path class="cls-4" d="M156.25,111.8H143.44a15.63,15.63,0,0,1,3.08-9.55c.8-1.21.92-1.39.92-2.45s-.12-1.24-.92-2.44a16.36,16.36,0,0,1,0-19.11c.8-1.2.92-1.39.92-2.44s-.12-1.25-.93-2.45a16.4,16.4,0,0,1,0-19.11c.81-1.21.93-1.39.93-2.45h12.81a15.73,15.73,0,0,1-3.07,9.55c-.81,1.2-.93,1.39-.93,2.45s.12,1.25.93,2.45a16.38,16.38,0,0,1,0,19.11c-.8,1.2-.92,1.38-.92,2.44s.12,1.25.92,2.45a16.35,16.35,0,0,1,0,19.1C156.37,110.55,156.25,110.74,156.25,111.8Z"/><path class="cls-4" d="M173.91,111.8H161.09a15.7,15.7,0,0,1,3.08-9.55c.8-1.21.92-1.39.92-2.45s-.12-1.24-.92-2.44a16.36,16.36,0,0,1,0-19.11c.8-1.2.92-1.39.92-2.44s-.12-1.25-.92-2.45a16.36,16.36,0,0,1,0-19.11c.8-1.21.92-1.39.92-2.45h12.82a15.66,15.66,0,0,1-3.08,9.55c-.8,1.2-.92,1.39-.92,2.45s.12,1.25.92,2.45a16.36,16.36,0,0,1,0,19.11c-.8,1.2-.92,1.38-.92,2.44s.12,1.25.92,2.45a16.35,16.35,0,0,1,0,19.1C174,110.55,173.91,110.74,173.91,111.8Z"/><path class="cls-4" d="M281.73,433.77a68.48,68.48,0,0,1-16.15,22.47H365.84V481.8H234.4l-3.93-16.57q13.2-12.66,19.52-25.15t6.32-29.92a67.94,67.94,0,0,0-2-14.31H221.2V373.93h26.12q-3.93-12.35-6.18-22.33a94.65,94.65,0,0,1-2.25-20.91q0-17.15,7.73-30.06a52.26,52.26,0,0,1,21.76-20.07q14-7.17,32.31-7.18,29.49,0,46.34,16.57t19.37,43.27H336.63q-1.41-14.91-10.67-24.16t-24.15-9.28q-14.06,0-23,8.85t-9,25.42a65.64,65.64,0,0,0,2.39,17.41q2.38,8.71,7.17,22.47h50.83v21.92H285.52a76.74,76.74,0,0,1,1.4,13.76A60.85,60.85,0,0,1,281.73,433.77Z"/></g></svg>