<?xml version="1.0" encoding="utf-8"?>
<!-- Generator: Adobe Illustrator 22.1.0, SVG Export Plug-In . SVG Version: 6.00 Build 0)  -->
<svg version="1.1" id="Layer_1" xmlns="http://www.w3.org/2000/svg" xmlns:xlink="http://www.w3.org/1999/xlink" x="0px" y="0px"
	 viewBox="0 0 384 361" style="enable-background:new 0 0 384 361;" xml:space="preserve">
<style type="text/css">
	.st0{fill:#EDEDED;}
	.st1{fill:#FFFFFF;}
	.st2{fill:#6A52DE;}
	.st3{fill:none;stroke:#6A52DE;stroke-width:10;stroke-miterlimit:10;}
	.st4{fill:none;stroke:#6A52DE;stroke-width:3;stroke-linejoin:round;stroke-miterlimit:10;}
</style>
<title>LL icon heolding deposit</title>
<g>
	<path class="st0" d="M76.1,229.9C23.9,199.6,5.7,124.8,56.8,80.5c14.7-12.6,31.8-25,50-35.4c50.7-28.9,110-42,150.8,1.4
		c14.7,15.7,6.9,43.5,19.6,61c15.7,21.7,51.8,33.4,70,54.7c22.7,27.3,4.5,65.9-19.2,87.4c-12.5,11.4-29.5,12.5-44.3,18.2
		c-4.5,2.3-10.2,5.7-13.6,9.1c-11.4,14.8-8,36.3-21.6,51.1c-23.8,23.8-76,18.1-81.7-14.8c-9.1-45.4-39.7-62.4-76.9-73.9
		C85.1,236.6,80.6,233.4,76.1,229.9z"/>
	<g>
		<g>
			<ellipse class="st1" cx="93.5" cy="318.6" rx="45.4" ry="17.5"/>
			<path class="st2" d="M93.5,303.6c12.2,0,23.5,1.9,32,5.5c6.8,2.8,11,6.5,11,9.5c0,6.1-16.7,15-42.9,15s-43-8.9-43-15
				C50.5,312.5,67.2,303.6,93.5,303.6 M93.5,298.7c-26.5,0-47.9,9-48,20c0,11,21.5,20,48,20s47.9-9,47.9-20S120,298.7,93.5,298.7
				L93.5,298.7z"/>
		</g>
		<g>
			<ellipse class="st1" cx="93.5" cy="315.6" rx="45.4" ry="17.5"/>
			<path class="st2" d="M93.5,300.6c12.2,0,23.5,1.9,32,5.5c6.8,2.8,11,6.5,11,9.5c0,6.1-16.7,15-42.9,15s-43-8.9-43-15
				C50.5,309.5,67.2,300.6,93.5,300.6 M93.5,295.7c-26.5,0-47.9,9-48,20c0,11,21.5,20,48,20s47.9-9,47.9-20S120,295.7,93.5,295.7
				L93.5,295.7z"/>
		</g>
		<g>
			<ellipse class="st1" cx="93.5" cy="312.6" rx="45.4" ry="17.5"/>
			<path class="st2" d="M93.5,297.7c12.2,0,23.5,1.9,32,5.5c6.8,2.8,11,6.5,11,9.5c0,6.1-16.7,15-42.9,15s-43-8.9-43-15
				C50.5,306.5,67.2,297.7,93.5,297.7 M93.5,292.7c-26.5,0-47.9,9-48,20c0,11,21.5,20,48,20s47.9-9,47.9-20S120,292.7,93.5,292.7
				L93.5,292.7z"/>
		</g>
		<g>
			<ellipse class="st1" cx="93.5" cy="309.6" rx="45.4" ry="17.5"/>
			<path class="st2" d="M93.5,294.7c12.2,0,23.5,1.9,32,5.5c6.8,2.8,11,6.5,11,9.5c0,6.1-16.7,15-42.9,15s-43-8.9-43-15
				C50.5,303.5,67.2,294.7,93.5,294.7 M93.5,289.7c-26.5,0-47.9,9-48,20c0,11,21.5,20,48,20s47.9-9,47.9-20S120,289.7,93.5,289.7
				L93.5,289.7z"/>
		</g>
	</g>
	<g>
		<g>
			<ellipse class="st1" cx="81.5" cy="295.7" rx="45.4" ry="17.5"/>
			<path class="st2" d="M81.5,280.7c12.2,0,23.5,1.9,32,5.5c6.8,2.8,11,6.5,11,9.5c0,6.1-16.7,15-42.9,15s-43-8.9-43-15
				C38.5,289.6,55.2,280.7,81.5,280.7 M81.5,275.7c-26.5,0-47.9,9-48,20c0,11,21.5,20,48,20s47.9-9,47.9-20S108,275.7,81.5,275.7
				L81.5,275.7z"/>
		</g>
		<g>
			<ellipse class="st1" cx="81.5" cy="292.7" rx="45.4" ry="17.5"/>
			<path class="st2" d="M81.5,277.7c12.2,0,23.5,1.9,32,5.5c6.8,2.8,11,6.5,11,9.5c0,6.1-16.7,15-42.9,15s-43-8.9-43-15
				C38.5,286.6,55.2,277.7,81.5,277.7 M81.5,272.7c-26.5,0-47.9,9-48,20c0,11,21.5,20,48,20s47.9-9,47.9-20S108,272.7,81.5,272.7
				L81.5,272.7z"/>
		</g>
		<g>
			<ellipse class="st1" cx="81.5" cy="289.7" rx="45.4" ry="17.5"/>
			<path class="st2" d="M81.5,274.7c12.2,0,23.5,1.9,32,5.5c6.8,2.8,11,6.5,11,9.5c0,6.1-16.7,15-42.9,15s-43-8.9-43-15
				C38.5,283.6,55.2,274.7,81.5,274.7 M81.5,269.7c-26.5,0-47.9,9-48,20c0,11,21.5,20,48,20s47.9-9,47.9-20S108,269.7,81.5,269.7
				L81.5,269.7z"/>
		</g>
		<g>
			<ellipse class="st1" cx="81.5" cy="286.7" rx="45.4" ry="17.5"/>
			<path class="st2" d="M81.5,271.7c12.2,0,23.5,1.9,32,5.5c6.8,2.8,11,6.5,11,9.5c0,6.1-16.7,15-42.9,15s-43-8.9-43-15
				C38.5,280.6,55.2,271.7,81.5,271.7 M81.5,266.7c-26.5,0-47.9,9-48,20c0,11,21.5,20,48,20s47.9-9,47.9-20S108,266.7,81.5,266.7
				L81.5,266.7z"/>
		</g>
	</g>
	<path class="st3" d="M216.7,62.5c0,0-117-17.2-139.7,84.7"/>
	<polygon class="st2" points="58.7,125.3 75.2,178.5 102.8,137.6 	"/>
	<path class="st3" d="M170,313.7c30.8-0.1,92-8.9,124.8-82.2"/>
	<polygon class="st2" points="309.3,253.4 304.2,198 268.8,232.4 	"/>
	<g>
		<g>
			<ellipse class="st1" cx="88.5" cy="270.7" rx="45.4" ry="17.5"/>
			<path class="st2" d="M88.5,255.7c12.2,0,23.5,1.9,32,5.5c6.8,2.8,11,6.5,11,9.5c0,6.1-16.7,15-42.9,15s-43-8.9-43-15
				C45.5,264.6,62.2,255.7,88.5,255.7 M88.5,250.7c-26.5,0-47.9,9-48,20c0,11,21.5,20,48,20s47.9-9,47.9-20
				C136.4,259.7,115,250.7,88.5,250.7L88.5,250.7z"/>
		</g>
		<g>
			<ellipse class="st1" cx="88.5" cy="267.7" rx="45.4" ry="17.5"/>
			<path class="st2" d="M88.5,252.7c12.2,0,23.5,1.9,32,5.5c6.8,2.8,11,6.5,11,9.5c0,6.1-16.7,15-42.9,15s-43-8.9-43-15
				C45.5,261.6,62.2,252.7,88.5,252.7 M88.5,247.7c-26.5,0-47.9,9-48,20c0,11,21.5,20,48,20s47.9-9,47.9-20
				C136.4,256.7,115,247.7,88.5,247.7L88.5,247.7z"/>
		</g>
		<g>
			<ellipse class="st1" cx="88.5" cy="264.7" rx="45.4" ry="17.5"/>
			<path class="st2" d="M88.5,249.7c12.2,0,23.5,1.9,32,5.5c6.8,2.8,11,6.5,11,9.5c0,6.1-16.7,15-42.9,15s-43-8.9-43-15
				C45.5,258.6,62.2,249.7,88.5,249.7 M88.5,244.7c-26.5,0-47.9,9-48,20c0,11,21.5,20,48,20s47.9-9,47.9-20
				C136.4,253.7,115,244.7,88.5,244.7L88.5,244.7z"/>
		</g>
		<g>
			<ellipse class="st1" cx="88.5" cy="261.7" rx="45.4" ry="17.5"/>
			<path class="st2" d="M88.5,246.7c12.2,0,23.5,1.9,32,5.5c6.8,2.8,11,6.5,11,9.5c0,6.1-16.7,15-42.9,15s-43-8.9-43-15
				C45.5,255.6,62.2,246.7,88.5,246.7 M88.5,241.7c-26.5,0-47.9,9-48,20c0,11,21.5,20,48,20s47.9-9,47.9-20
				C136.4,250.7,115,241.7,88.5,241.7L88.5,241.7z"/>
		</g>
	</g>
	<g>
		<g>
			<ellipse class="st1" cx="92.5" cy="247.7" rx="45.4" ry="17.5"/>
			<path class="st2" d="M92.5,232.7c12.2,0,23.5,1.9,32,5.5c6.8,2.8,11,6.5,11,9.5c0,6.1-16.7,15-42.9,15s-43-8.9-43-15
				C49.5,241.6,66.2,232.7,92.5,232.7 M92.5,227.7c-26.5,0-47.9,9-48,20c0,11,21.5,20,48,20s47.9-9,47.9-20
				C140.4,236.7,119,227.7,92.5,227.7L92.5,227.7z"/>
		</g>
		<g>
			<ellipse class="st1" cx="92.5" cy="244.7" rx="45.4" ry="17.5"/>
			<path class="st2" d="M92.5,229.7c12.2,0,23.5,1.9,32,5.5c6.8,2.8,11,6.5,11,9.5c0,6.1-16.7,15-42.9,15s-43-8.9-43-15
				C49.5,238.6,66.2,229.7,92.5,229.7 M92.5,224.7c-26.5,0-47.9,9-48,20c0,11,21.5,20,48,20s47.9-9,47.9-20S119,224.7,92.5,224.7
				L92.5,224.7z"/>
		</g>
		<g>
			<ellipse class="st1" cx="92.5" cy="241.7" rx="45.4" ry="17.5"/>
			<path class="st2" d="M92.5,226.7c12.2,0,23.5,1.9,32,5.5c6.8,2.8,11,6.5,11,9.5c0,6.1-16.7,15-42.9,15s-43-8.9-43-15
				C49.5,235.6,66.2,226.7,92.5,226.7 M92.5,221.7c-26.5,0-47.9,9-48,20c0,11,21.5,20,48,20s47.9-9,47.9-20S119,221.7,92.5,221.7
				L92.5,221.7z"/>
		</g>
		<g>
			<ellipse class="st1" cx="92.5" cy="238.7" rx="45.4" ry="17.5"/>
			<path class="st2" d="M92.5,223.7c12.2,0,23.5,1.9,32,5.5c6.8,2.8,11,6.5,11,9.5c0,6.1-16.7,15-42.9,15s-43-8.9-43-15
				C49.5,232.6,66.2,223.7,92.5,223.7 M92.5,218.7c-26.5,0-47.9,9-48,20c0,11,21.5,20,48,20s47.9-9,47.9-20
				C140.4,227.7,119,218.7,92.5,218.7L92.5,218.7z"/>
		</g>
	</g>
	<g>
		<g>
			<ellipse class="st1" cx="83.5" cy="225.7" rx="45.4" ry="17.5"/>
			<path class="st2" d="M83.5,210.7c12.2,0,23.5,1.9,32,5.5c6.8,2.8,11,6.5,11,9.5c0,6.1-16.7,15-42.9,15s-43-8.9-43-15
				C40.5,219.6,57.2,210.7,83.5,210.7 M83.5,205.7c-26.5,0-47.9,9-48,20c0,11,21.5,20,48,20s47.9-9,47.9-20
				C131.4,214.7,110,205.7,83.5,205.7L83.5,205.7z"/>
		</g>
		<g>
			<ellipse class="st1" cx="83.5" cy="222.7" rx="45.4" ry="17.5"/>
			<path class="st2" d="M83.5,207.7c12.2,0,23.5,1.9,32,5.5c6.8,2.8,11,6.5,11,9.5c0,6.1-16.7,15-42.9,15s-43-8.9-43-15
				C40.5,216.6,57.2,207.7,83.5,207.7 M83.5,202.7c-26.5,0-47.9,9-48,20c0,11,21.5,20,48,20s47.9-9,47.9-20
				C131.4,211.7,110,202.7,83.5,202.7L83.5,202.7z"/>
		</g>
		<g>
			<ellipse class="st1" cx="83.5" cy="219.7" rx="45.4" ry="17.5"/>
			<path class="st2" d="M83.5,204.7c12.2,0,23.5,1.9,32,5.5c6.8,2.8,11,6.5,11,9.5c0,6.1-16.7,15-42.9,15s-43-8.9-43-15
				C40.5,213.6,57.2,204.7,83.5,204.7 M83.5,199.7c-26.5,0-47.9,9-48,20c0,11,21.5,20,48,20s47.9-9,47.9-20S110,199.7,83.5,199.7
				L83.5,199.7z"/>
		</g>
		<g>
			<ellipse class="st1" cx="83.5" cy="216.7" rx="45.4" ry="17.5"/>
			<path class="st2" d="M83.5,201.7c12.2,0,23.5,1.9,32,5.5c6.8,2.8,11,6.5,11,9.5c0,6.1-16.7,15-42.9,15s-43-8.9-43-15
				C40.5,210.6,57.2,201.7,83.5,201.7 M83.5,196.7c-26.5,0-47.9,9-48,20c0,11,21.5,20,48,20s47.9-9,47.9-20S110,196.7,83.5,196.7
				L83.5,196.7z"/>
		</g>
	</g>
	<g>
		<path class="st4" d="M106.9,218.2l-25.1,5.4c0,0,2.4-3.7-5.4-5.8c-7.7-2.1-12.4-4.6-4.8-6.7c7.6-2.1,13.7-1.3,18,0.7"/>
		<line class="st4" x1="69.2" y1="219.6" x2="86.2" y2="215.9"/>
	</g>
	<g>
		<g>
			<ellipse class="st1" cx="304.8" cy="156.5" rx="45" ry="17"/>
			<path class="st2" d="M304.8,142.5c27.1,0,41.9,9.2,41.9,14c0,2.1-3.2,5.6-10.4,8.6c-8.3,3.5-19.6,5.4-31.6,5.4
				s-23.3-1.9-31.6-5.4c-7.2-3-10.4-6.5-10.4-8.6c0-2.1,3.2-5.6,10.4-8.6C281.6,144.4,292.8,142.5,304.8,142.5 M304.8,136.5
				c-26.5,0-47.9,9-47.9,20s21.5,20,47.9,20c26.5,0,47.9-9,47.9-20C352.8,145.5,331.3,136.5,304.8,136.5L304.8,136.5z"/>
		</g>
		<g>
			<ellipse class="st1" cx="304.8" cy="153.5" rx="45" ry="17"/>
			<path class="st2" d="M304.8,139.5c27.1,0,41.9,9.2,41.9,14c0,2.1-3.2,5.6-10.4,8.6c-8.3,3.5-19.6,5.4-31.6,5.4
				s-23.3-1.9-31.6-5.4c-7.2-3-10.4-6.5-10.4-8.6c0-2.1,3.2-5.6,10.4-8.6C281.6,141.4,292.8,139.5,304.8,139.5 M304.8,133.5
				c-26.5,0-47.9,9-47.9,20c0,11,21.5,20,47.9,20c26.5,0,47.9-9,47.9-20C352.8,142.5,331.3,133.5,304.8,133.5L304.8,133.5z"/>
		</g>
		<g>
			<ellipse class="st1" cx="304.8" cy="150.5" rx="45" ry="17"/>
			<path class="st2" d="M304.8,136.5c27.1,0,41.9,9.2,41.9,14c0,2.1-3.2,5.6-10.4,8.6c-8.3,3.5-19.6,5.4-31.6,5.4
				s-23.3-1.9-31.6-5.4c-7.2-3-10.4-6.5-10.4-8.6c0-2.1,3.2-5.6,10.4-8.6C281.6,138.4,292.8,136.5,304.8,136.5 M304.8,130.5
				c-26.5,0-47.9,9-47.9,20c0,11,21.5,20,47.9,20c26.5,0,47.9-9,47.9-20C352.8,139.5,331.3,130.5,304.8,130.5L304.8,130.5z"/>
		</g>
		<g>
			<ellipse class="st1" cx="304.8" cy="147.5" rx="45" ry="17"/>
			<path class="st2" d="M304.8,133.5c27.1,0,41.9,9.2,41.9,14c0,2.1-3.2,5.6-10.4,8.6c-8.3,3.5-19.6,5.4-31.6,5.4
				s-23.3-1.9-31.6-5.4c-7.2-3-10.4-6.5-10.4-8.6c0-2.1,3.2-5.6,10.4-8.6C281.6,135.4,292.8,133.5,304.8,133.5 M304.8,127.5
				c-26.5,0-47.9,9-47.9,20c0,11,21.5,20,47.9,20c26.5,0,47.9-9,47.9-20C352.8,136.5,331.3,127.5,304.8,127.5L304.8,127.5z"/>
		</g>
	</g>
	<g>
		<g>
			<ellipse class="st1" cx="292.8" cy="133.5" rx="45" ry="17"/>
			<path class="st2" d="M292.8,119.5c27.1,0,41.9,9.2,41.9,14c0,2.1-3.2,5.6-10.4,8.6c-8.3,3.5-19.6,5.4-31.6,5.4
				s-23.3-1.9-31.6-5.4c-7.2-3-10.4-6.5-10.4-8.6c0-2.1,3.2-5.6,10.4-8.6C269.6,121.4,280.8,119.5,292.8,119.5 M292.8,113.5
				c-26.5,0-47.9,9-47.9,20s21.5,20,47.9,20c26.5,0,47.9-9,47.9-20C340.8,122.5,319.3,113.5,292.8,113.5L292.8,113.5z"/>
		</g>
		<g>
			<ellipse class="st1" cx="292.8" cy="130.5" rx="45" ry="17"/>
			<path class="st2" d="M292.8,116.5c27.1,0,41.9,9.2,41.9,14c0,2.1-3.2,5.6-10.4,8.6c-8.3,3.5-19.6,5.4-31.6,5.4
				s-23.3-1.9-31.6-5.4c-7.2-3-10.4-6.5-10.4-8.6c0-2.1,3.2-5.6,10.4-8.6C269.6,118.4,280.8,116.5,292.8,116.5 M292.8,110.5
				c-26.5,0-47.9,9-47.9,20s21.5,20,47.9,20c26.5,0,47.9-9,47.9-20C340.8,119.5,319.3,110.5,292.8,110.5L292.8,110.5z"/>
		</g>
		<g>
			<ellipse class="st1" cx="292.8" cy="127.5" rx="45" ry="17"/>
			<path class="st2" d="M292.8,113.5c27.1,0,41.9,9.2,41.9,14c0,2.1-3.2,5.6-10.4,8.6c-8.3,3.5-19.6,5.4-31.6,5.4
				s-23.3-1.9-31.6-5.4c-7.2-3-10.4-6.5-10.4-8.6c0-2.1,3.2-5.6,10.4-8.6C269.6,115.4,280.8,113.5,292.8,113.5 M292.8,107.5
				c-26.5,0-47.9,9-47.9,20s21.5,20,47.9,20c26.5,0,47.9-9,47.9-20C340.8,116.5,319.3,107.5,292.8,107.5L292.8,107.5z"/>
		</g>
		<g>
			<ellipse class="st1" cx="292.8" cy="124.5" rx="45" ry="17"/>
			<path class="st2" d="M292.8,110.5c27.1,0,41.9,9.2,41.9,14c0,2.1-3.2,5.6-10.4,8.6c-8.3,3.5-19.6,5.4-31.6,5.4
				s-23.3-1.9-31.6-5.4c-7.2-3-10.4-6.5-10.4-8.6c0-2.1,3.2-5.6,10.4-8.6C269.6,112.4,280.8,110.5,292.8,110.5 M292.8,104.5
				c-26.5,0-47.9,9-47.9,20s21.5,20,47.9,20c26.5,0,47.9-9,47.9-20C340.8,113.5,319.3,104.5,292.8,104.5L292.8,104.5z"/>
		</g>
	</g>
	<g>
		<g>
			<ellipse class="st1" cx="299.8" cy="108.5" rx="45" ry="17"/>
			<path class="st2" d="M299.8,94.5c27.1,0,41.9,9.2,41.9,14c0,2.1-3.2,5.6-10.4,8.6c-8.3,3.5-19.6,5.4-31.6,5.4s-23.3-1.9-31.6-5.4
				c-7.2-3-10.4-6.5-10.4-8.6c0-2.1,3.2-5.6,10.4-8.6C276.6,96.4,287.8,94.5,299.8,94.5 M299.8,88.5c-26.5,0-47.9,9-47.9,20
				s21.5,20,47.9,20c26.5,0,47.9-9,47.9-20C347.8,97.5,326.3,88.5,299.8,88.5L299.8,88.5z"/>
		</g>
		<g>
			<ellipse class="st1" cx="299.8" cy="105.5" rx="45" ry="17"/>
			<path class="st2" d="M299.8,91.5c27.1,0,41.9,9.2,41.9,14c0,2.1-3.2,5.6-10.4,8.6c-8.3,3.5-19.6,5.4-31.6,5.4s-23.3-1.9-31.6-5.4
				c-7.2-3-10.4-6.5-10.4-8.6C257.9,100.7,272.7,91.5,299.8,91.5 M299.8,85.5c-26.5,0-47.9,9-47.9,20s21.5,20,47.9,20
				c26.5,0,47.9-9,47.9-20C347.8,94.5,326.3,85.5,299.8,85.5L299.8,85.5z"/>
		</g>
		<g>
			<ellipse class="st1" cx="299.8" cy="102.5" rx="45" ry="17"/>
			<path class="st2" d="M299.8,88.5c27.1,0,41.9,9.2,41.9,14c0,2.1-3.2,5.6-10.4,8.6c-8.3,3.5-19.6,5.4-31.6,5.4s-23.3-1.9-31.6-5.4
				c-7.2-3-10.4-6.5-10.4-8.6C257.9,97.7,272.7,88.5,299.8,88.5 M299.8,82.5c-26.5,0-47.9,9-47.9,20s21.5,20,47.9,20
				c26.5,0,47.9-9,47.9-20C347.8,91.5,326.3,82.5,299.8,82.5L299.8,82.5z"/>
		</g>
		<g>
			<ellipse class="st1" cx="299.8" cy="99.5" rx="45" ry="17"/>
			<path class="st2" d="M299.8,85.5c27.1,0,41.9,9.2,41.9,14c0,2.1-3.2,5.6-10.4,8.6c-8.3,3.5-19.6,5.4-31.6,5.4s-23.3-1.9-31.6-5.4
				c-7.2-3-10.4-6.5-10.4-8.6C257.9,94.7,272.7,85.5,299.8,85.5 M299.8,79.5c-26.5,0-47.9,9-47.9,20s21.5,20,47.9,20
				c26.5,0,47.9-9,47.9-20C347.8,88.5,326.3,79.5,299.8,79.5L299.8,79.5z"/>
		</g>
	</g>
	<g>
		<g>
			<ellipse class="st1" cx="303.8" cy="85.5" rx="45" ry="17"/>
			<path class="st2" d="M303.8,71.5c27.1,0,41.9,9.2,41.9,14c0,2.1-3.2,5.6-10.4,8.6c-8.3,3.5-19.6,5.4-31.6,5.4s-23.3-1.9-31.6-5.4
				c-7.2-3-10.4-6.5-10.4-8.6C261.9,80.7,276.7,71.5,303.8,71.5 M303.8,65.5c-26.5,0-47.9,9-47.9,20s21.5,20,47.9,20
				c26.5,0,47.9-9,47.9-20C351.8,74.5,330.3,65.5,303.8,65.5L303.8,65.5z"/>
		</g>
		<g>
			<ellipse class="st1" cx="303.8" cy="82.5" rx="45" ry="17"/>
			<path class="st2" d="M303.8,68.5c27.1,0,41.9,9.2,41.9,14c0,2.1-3.2,5.6-10.4,8.6c-8.3,3.5-19.6,5.4-31.6,5.4s-23.3-1.9-31.6-5.4
				c-7.2-3-10.4-6.5-10.4-8.6C261.9,77.7,276.7,68.5,303.8,68.5 M303.8,62.5c-26.5,0-47.9,9-47.9,20s21.5,20,47.9,20
				c26.5,0,47.9-9,47.9-20C351.8,71.5,330.3,62.5,303.8,62.5L303.8,62.5z"/>
		</g>
		<g>
			<ellipse class="st1" cx="303.8" cy="79.5" rx="45" ry="17"/>
			<path class="st2" d="M303.8,65.5c27.1,0,41.9,9.2,41.9,14c0,2.1-3.2,5.6-10.4,8.6c-8.3,3.5-19.6,5.4-31.6,5.4s-23.3-1.9-31.6-5.4
				c-7.2-3-10.4-6.5-10.4-8.6C261.9,74.7,276.7,65.5,303.8,65.5 M303.8,59.5c-26.5,0-47.9,9-47.9,20s21.5,20,47.9,20
				c26.5,0,47.9-9,47.9-20C351.8,68.5,330.3,59.5,303.8,59.5L303.8,59.5z"/>
		</g>
		<g>
			<ellipse class="st1" cx="303.8" cy="76.5" rx="45" ry="17"/>
			<path class="st2" d="M303.8,62.5c27.1,0,41.9,9.2,41.9,14c0,2.1-3.2,5.6-10.4,8.6c-8.3,3.5-19.6,5.4-31.6,5.4s-23.3-1.9-31.6-5.4
				c-7.2-3-10.4-6.5-10.4-8.6C261.9,71.7,276.7,62.5,303.8,62.5 M303.8,56.5c-26.5,0-47.9,9-47.9,20s21.5,20,47.9,20
				c26.5,0,47.9-9,47.9-20C351.8,65.5,330.3,56.5,303.8,56.5L303.8,56.5z"/>
		</g>
	</g>
	<g>
		<g>
			<ellipse class="st1" cx="294.8" cy="63.5" rx="44" ry="16"/>
			<path class="st2" d="M294.8,51.5c11.6,0,22.8,1.9,30.8,5.2c6.8,2.8,9.1,5.8,9.1,6.8s-2.3,3.9-9.1,6.8c-8,3.3-19.2,5.2-30.8,5.2
				c-11.6,0-22.8-1.9-30.8-5.2c-6.8-2.8-9.1-5.8-9.1-6.8s2.3-3.9,9.1-6.8C272,53.4,283.2,51.5,294.8,51.5 M294.8,43.5
				c-26.5,0-47.9,9-47.9,20s21.5,20,47.9,20c26.5,0,47.9-9,47.9-20C342.8,52.5,321.3,43.5,294.8,43.5L294.8,43.5z"/>
		</g>
		<g>
			<ellipse class="st1" cx="294.8" cy="60.5" rx="44" ry="16"/>
			<path class="st2" d="M294.8,48.5c11.6,0,22.8,1.9,30.8,5.2c6.8,2.8,9.1,5.8,9.1,6.8s-2.3,3.9-9.1,6.8c-8,3.3-19.2,5.2-30.8,5.2
				c-11.6,0-22.8-1.9-30.8-5.2c-6.8-2.8-9.1-5.8-9.1-6.8s2.3-3.9,9.1-6.8C272,50.4,283.2,48.5,294.8,48.5 M294.8,40.5
				c-26.5,0-47.9,9-47.9,20s21.5,20,47.9,20c26.5,0,47.9-9,47.9-20C342.8,49.5,321.3,40.5,294.8,40.5L294.8,40.5z"/>
		</g>
		<g>
			<ellipse class="st1" cx="294.8" cy="57.5" rx="44" ry="16"/>
			<path class="st2" d="M294.8,45.5c11.6,0,22.8,1.9,30.8,5.2c6.8,2.8,9.1,5.8,9.1,6.8s-2.3,3.9-9.1,6.8c-8,3.3-19.2,5.2-30.8,5.2
				c-11.6,0-22.8-1.9-30.8-5.2c-6.8-2.8-9.1-5.8-9.1-6.8s2.3-3.9,9.1-6.8C272,47.4,283.2,45.5,294.8,45.5 M294.8,37.5
				c-26.5,0-47.9,9-47.9,20s21.5,20,47.9,20c26.5,0,47.9-9,47.9-20C342.8,46.5,321.3,37.5,294.8,37.5L294.8,37.5z"/>
		</g>
		<g>
			<ellipse class="st1" cx="294.8" cy="54.5" rx="44" ry="16"/>
			<path class="st2" d="M294.8,42.5c11.6,0,22.8,1.9,30.8,5.2c6.8,2.8,9.1,5.8,9.1,6.8s-2.3,3.9-9.1,6.8c-8,3.3-19.2,5.2-30.8,5.2
				c-11.6,0-22.8-1.9-30.8-5.2c-6.8-2.8-9.1-5.8-9.1-6.8s2.3-3.9,9.1-6.8C272,44.4,283.2,42.5,294.8,42.5 M294.8,34.5
				c-26.5,0-47.9,9-47.9,20s21.5,20,47.9,20c26.5,0,47.9-9,47.9-20C342.8,43.5,321.3,34.5,294.8,34.5L294.8,34.5z"/>
		</g>
	</g>
	<g>
		<path class="st4" d="M318.2,56l-25.1,5.4c0,0,2.4-3.7-5.4-5.8c-7.7-2.1-12.4-4.6-4.8-6.7c7.6-2.1,13.7-1.3,18,0.7"/>
		<line class="st4" x1="280.5" y1="57.4" x2="297.5" y2="53.7"/>
	</g>
</g>
</svg>
