<?xml version="1.0" encoding="utf-8"?>
<!-- Generator: Adobe Illustrator 22.1.0, SVG Export Plug-In . SVG Version: 6.00 Build 0)  -->
<svg version="1.1" id="Layer_1" xmlns="http://www.w3.org/2000/svg" xmlns:xlink="http://www.w3.org/1999/xlink" x="0px" y="0px"
	 viewBox="0 0 384 361" style="enable-background:new 0 0 384 361;" xml:space="preserve">
<style type="text/css">
	.st0{fill:#EDEDED;}
	.st1{fill:none;stroke:#6A52DE;stroke-width:9.6456;stroke-linecap:round;stroke-linejoin:round;stroke-miterlimit:10;}
	.st2{fill:#FFFFFF;stroke:#6A52DE;stroke-width:9.6456;stroke-linejoin:round;stroke-miterlimit:10;}
	.st3{fill:#FFFFFF;stroke:#6A52DE;stroke-width:9.6456;stroke-linecap:round;stroke-linejoin:round;stroke-miterlimit:10;}
	.st4{fill:none;stroke:#6A52DE;stroke-width:9.6456;stroke-linejoin:round;stroke-miterlimit:10;}
	.st5{fill:none;stroke:#6A52DE;stroke-width:10.9313;stroke-linejoin:round;stroke-miterlimit:10;}
	.st6{fill:none;stroke:#6A52DE;stroke-width:1.9291;stroke-linejoin:round;stroke-miterlimit:10;}
</style>
<title>LL icon heolding deposit</title>
<g>
	<path class="st0" d="M330.4,182.4c23.7,17.4,46.7,45.2,33.8,74.7c-23.2,49.3-71.9,88.6-126.2,85.2c-67.5-2.2-141.6-19-190.3-70.6
		c-52-56-37.6-152.4,26.5-192.7C141.8,36.4,223.6,3.9,300,39.7c11.1,4.5,17.7,17.9,12.2,30.2c-7.9,17.6-20.1,34.6-24.6,53.6
		c-2.5,10.5-1.9,22.2,4.1,31.2c6.1,9.2,16.6,13.8,26,19.4C321.8,176.4,326.2,179.2,330.4,182.4z"/>
	<polyline class="st1" points="54.2,168.4 202.4,46.9 350.7,168.4 	"/>
	<polygon class="st2" points="110.2,81.6 92.2,81.6 92.2,117.1 110.2,102.3 	"/>
	<path class="st3" d="M202.4,46.9L79,148.1l-0.2,107.7c10.5,0.2,19.1,8,20.6,18.2c1.7-0.5,3.6-0.7,5.5-0.7
		c11.8,0,21.3,9.7,21.3,21.6c0,9.6-6.1,17.6-14.7,20.5h214.7v-167L202.4,46.9z"/>
	<path class="st4" d="M104.4,67.6h-9.3c0-2.5,0.7-5,2.2-7c0.6-0.9,0.7-1,0.7-1.8c0-0.8-0.1-0.9-0.7-1.8c-3-4.2-3-9.9,0-14.1
		c0.6-0.9,0.7-1,0.7-1.8s-0.1-0.9-0.7-1.8c-3-4.2-3-9.9,0-14.1c0.6-0.9,0.7-1,0.7-1.8h9.3c0,2.5-0.7,5-2.2,7c-0.6,0.9-0.7,1-0.7,1.8
		s0.1,0.9,0.7,1.8c3,4.2,3,9.9,0,14.1c-0.6,0.9-0.7,1-0.7,1.8s0.1,0.9,0.7,1.8c3,4.2,3,9.9,0,14.1C104.5,66.7,104.4,66.8,104.4,67.6
		z"/>
	<g>
		<path class="st5" d="M244,257.9h-77.8c0,0,22-24.7,15.1-53.7c-6.9-29-5.4-55.9,20.1-59s35.3,12.5,35.2,35.2"/>
		<line class="st5" x1="157.6" y1="206.4" x2="218.3" y2="206.4"/>
	</g>
	<path class="st3" d="M126.2,294.4c0,11.6-9.6,21.1-21.3,21.1c-10.7,0-41.7,0-52.3,0c-11.8,0-21.3-9.4-21.3-21.1
		c0-11.6,9.6-21.1,21.3-21.1c1.6,0,3.2,0.2,4.8,0.5c1.7-9.9,10.5-17.6,21-17.6c10.7,0,19.4,7.7,21,17.8c1.7-0.5,3.6-0.7,5.5-0.7
		C116.8,273.3,126.2,282.8,126.2,294.4z"/>
	<path class="st6" d="M261,340.6"/>
</g>
</svg>
