<svg xmlns="http://www.w3.org/2000/svg" viewBox="0 0 600 600"><defs><style>.cls-1{opacity:0.7;}.cls-2{fill:#ededed;}.cls-3,.cls-4,.cls-5{fill:none;stroke:#6a52de;stroke-miterlimit:10;}.cls-3{stroke-width:8px;}.cls-4{stroke-width:6.51px;}.cls-5{stroke-width:6.51px;}</style></defs><title>LL icon heolding deposit</title><g id="Housemates"><path class="cls-2" d="M598.89,308.11C614.2,423.56,560.6,568.19,444.77,596.7c-67,16.3-109.13-46.85-159.86-86.57-10.53-8.14-22-15.27-35.42-12.22-25.85,6.11-46,31.57-73.71,24.45C73.36,493.84-9,388.93,2.52,272.83c7.66-69.26,75.62-95.74,132.1-96.76,23.93,0,41.16-19.35,52.65-40.74C205.46,100.7,217.9,64,245.66,37.56,305-20.5,399.78-10.31,449.56,53.85c55.52,70.28,113.91,137.5,142.64,221.86A219.32,219.32,0,0,1,598.89,308.11Z"/><rect class="cls-3" x="221.65" y="317.21" width="157" height="133.03" rx="5" ry="5"/><path class="cls-3" d="M338.33,270.1c-5-1.5-8.91-4.52-10.76-8.8h0c-2.23-5.18-1.22-11.17,2.06-16.73a38.59,38.59,0,0,1,16.13-14.33q14.19-7.06,28.05-14.79a38.76,38.76,0,0,1,21-5.21c6.46.43,12,3,15,7.8s2.77,10.94-.12,17S401.18,247,393.7,251.13Q379,259.3,364,266.81a44.4,44.4,0,0,1-5,2.13"/><path class="cls-3" d="M463.86,188.06A569.09,569.09,0,0,1,406,227.59c-4.24,2.54-9,2.23-10.71-.64s.39-7.16,4.54-9.65a556.37,556.37,0,0,0,56.61-38.68c3.8-3,8.51-3.38,10.62-.81S467.77,185,463.86,188.06Z"/><path class="cls-3" d="M516,160.23q-12,12.57-25,23.84c-6.59,5.77-14.19,9-20.89,9.54s-12.53-1.45-15.92-5.93h0c-3.42-4.51-3.81-10.56-2-16.74a39,39,0,0,1,11.92-17.64q11.69-10.2,22.27-21.24a39.08,39.08,0,0,1,17.74-11c6.13-1.62,12.14-1.18,16.64,2.24s6.51,9.28,5.7,16.07S522.12,153.81,516,160.23Z"/><path class="cls-3" d="M556,71.79a174.89,174.89,0,0,1-15,32.62q-4.56,7.7-9.66,15c-3.45,4.83-7,9.59-10.76,14.15a11,11,0,0,1-5.44,3.77,5.11,5.11,0,0,1-4.9-.78,5.38,5.38,0,0,1-1.55-4.73,11.66,11.66,0,0,1,2.59-5.84c14.28-17.47,26.25-36.89,33.31-58a11.62,11.62,0,0,1,3.47-5.25,5.49,5.49,0,0,1,4.78-1.33,5,5,0,0,1,3.38,3.67A11,11,0,0,1,556,71.79Z"/><path class="cls-3" d="M258.37,270.84a24.2,24.2,0,0,0,4.13-1c4.63-1.58,8.18-4.49,9.93-8.54h0c2.23-5.18,1.22-11.17-2.06-16.73a38.59,38.59,0,0,0-16.13-14.33q-14.19-7.06-28.05-14.79a38.76,38.76,0,0,0-21-5.21c-6.46.43-12,3-15,7.8s-2.77,10.94.12,17,8.44,11.94,15.92,16.11Q221,259.3,236,266.81a45.62,45.62,0,0,0,5,2.12"/><path class="cls-3" d="M136.14,188.06A569.09,569.09,0,0,0,194,227.59c4.24,2.54,9,2.23,10.71-.64s-.39-7.16-4.54-9.65a556.37,556.37,0,0,1-56.61-38.68c-3.8-3-8.51-3.38-10.62-.81S132.23,185,136.14,188.06Z"/><path class="cls-3" d="M84,160.23q12,12.57,25,23.84c6.59,5.77,14.19,9,20.89,9.54s12.53-1.45,15.92-5.93h0c3.42-4.51,3.81-10.56,2-16.74a39,39,0,0,0-11.92-17.64q-11.69-10.2-22.27-21.24a39.08,39.08,0,0,0-17.74-11c-6.13-1.62-12.14-1.18-16.64,2.24s-6.51,9.28-5.7,16.07S77.88,153.81,84,160.23Z"/><path class="cls-3" d="M44,71.79a174.89,174.89,0,0,0,15,32.62q4.56,7.7,9.66,15c3.45,4.83,7,9.59,10.76,14.15a11,11,0,0,0,5.44,3.77,5.11,5.11,0,0,0,4.9-.78,5.38,5.38,0,0,0,1.55-4.73A11.66,11.66,0,0,0,88.72,126C74.44,108.51,62.47,89.09,55.41,68a11.62,11.62,0,0,0-3.47-5.25,5.49,5.49,0,0,0-4.78-1.33,5,5,0,0,0-3.38,3.67A11,11,0,0,0,44,71.79Z"/><path class="cls-3" d="M309.78,473a33.57,33.57,0,1,1-22.69,1.24v-24H311.5l6.09,10.2Z"/><circle class="cls-3" cx="300.15" cy="515.6" r="10.5"/><path class="cls-3" d="M300.15,214.82a57.92,57.92,0,0,0-57.91,57.92v44.47H358.07V272.74A57.92,57.92,0,0,0,300.15,214.82Z"/><path class="cls-3" d="M339.34,317.21v-45.1a39.19,39.19,0,0,0-78.37,0v45.1Z"/><line class="cls-4" x1="221.65" y1="334.1" x2="238.26" y2="334.1"/><line class="cls-4" x1="221.65" y1="357.64" x2="236.52" y2="357.64"/><line class="cls-4" x1="221.65" y1="381.17" x2="242.23" y2="381.17"/><line class="cls-4" x1="221.65" y1="404.7" x2="251.39" y2="404.7"/><line class="cls-4" x1="221.65" y1="428.23" x2="266.65" y2="428.23"/><line class="cls-5" x1="378.65" y1="334.1" x2="362.04" y2="334.1"/><line class="cls-5" x1="378.65" y1="357.6" x2="363.78" y2="357.6"/><line class="cls-5" x1="378.65" y1="381.1" x2="358.07" y2="381.1"/><line class="cls-5" x1="378.65" y1="404.6" x2="348.91" y2="404.6"/><line class="cls-5" x1="378.65" y1="428.1" x2="333.65" y2="428.1"/></g></svg>