<svg id="Layer_1" data-name="Layer 1" xmlns="http://www.w3.org/2000/svg" viewBox="0 0 971 562"><defs><style>.cls-1{fill:#6abdde;}.cls-2{fill:#323071;}.cls-3{fill:#fff;}.cls-4{fill:#b5deef;}.cls-5{fill:#35296f;}.cls-6{fill:#d2fad6;}.cls-7{fill:#fcd4db;}.cls-8{fill:#9ca7ef;}.cls-9{fill:#6fdcca;}.cls-10{fill:#3482a1;}.cls-11{fill:#9ca8ef;}</style></defs><title>Artboard 1</title><path class="cls-1" d="M73.4,273.15,35,271.4l27.92,103H876.21l-68.07-62.82s-8.72-41.89,40.15-45.38,83.77-17.45,83.77-17.45l-76.79-27.93-80.29-7Z"/><polygon class="cls-2" points="285.07 181.25 233.96 180.65 233.96 259.19 281.08 261.8 285.07 181.25"/><polygon class="cls-3" points="246.18 196.36 246.18 231.26 278.85 233.01 279.33 196.36 246.18 196.36"/><path class="cls-4" d="M663.72,127.42s55.42,7.86,60.65-4.36,15.53,52.36,15.53,52.36l8.91,55.84-10.82,7L692,251Z"/><polygon class="cls-5" points="713.9 142.26 720.88 213.81 731.35 205.09 722.63 133.53 713.9 142.26"/><polygon class="cls-5" points="698.19 145.75 705.17 217.3 715.65 208.58 706.92 137.02 698.19 145.75"/><path class="cls-6" d="M280.45,191.47l5.87,172.43s22.68,14,48.86,14,57.56,6.07,113.42-3.07,98.85-17,121-17.43,72.09.29,96.85,4.29,30-1.24,30-1.24L691.79,151l-107-12.21L396.27,158Z"/><polygon class="cls-4" points="176.37 137.02 176.37 274.89 233.96 283.62 228.72 175.42 242.68 157.96 233.96 126.55 176.37 137.02"/><path class="cls-7" d="M132.73,461.64l19.2,12.21s5.24-12.21,43.63-27.92S299.4,404,337.36,398.81s114.75-5.24,142.68,0,153.58,17.45,167.54,22.69,150.09,14,186.74,12.21,109.25-38.83,109.25-38.83-123.21-17-138.92-48.43-108.4,5.22-108.4,5.22l-270.31,3.51L281.08,336s-66.32,3.49-120.42,7S35,374.37,35,374.37Z"/><path class="cls-2" d="M281.08,196.36V210s19.2-18.87,61.08-25.85,92.5-7,108.21-5.23,66.32,3.49,82,5.23,66.31,0,96-7S692,158,692,158l-19.06-18.32L410.23,163.2,345.65,158Z"/><path class="cls-8" d="M265.37,196.36s66.32-52.36,102.1-69.81,44.5-24.43,81.15-20.94,116.94,10.47,116.94,10.47S665,140.51,680.74,142.26L696.45,144s-41.89,22.69-68.07,24.43-69.81,10.48-97.73,8.73-54.1-8.73-78.54-7-75-1.75-99.48,1.75S265.37,196.36,265.37,196.36Z"/><polygon class="cls-5" points="799.42 133.53 818.62 217.3 855.27 217.3 839.56 117.82 799.42 133.53"/><polygon class="cls-5" points="729.61 110.84 792.44 91.64 736.59 79.43 706.92 95.14 729.61 110.84"/><polygon class="cls-5" points="57.69 217.3 176.37 175.42 176.37 150.98 83.87 184.14 57.69 217.3"/><polygon class="cls-5" points="233.96 130.04 240.94 157.96 258.39 144 258.39 117.82 233.96 130.04"/><path class="cls-5" d="M132.13,461.64s95.23-55.85,163.8-62.83,112.36-5.24,139-14,85.7-15.71,85.7-15.71,38.1-12.22,62.85-5.24,61,21,85.71,27.93,78.09,27.92,123.8,24.43,89.51-3.49,114.27-10.47,45.71-14,45.71-14-47.61-12.22-59-20.95-24.76-20.94-24.76-20.94-41.9,20.94-74.28,20.94-64.75-5.23-89.51-5.23-57.14-8.73-85.71-8.73-74.28,0-91.42,3.49S454,376.12,431.15,376.12s-76.18,1.74-95.23,1.74-40,7-40,7l13.33-22.69L267.39,383.9l-15.27,7.93-22.85-1.75,22.85-20.94-72.37,20.94L244.5,343,101.66,421.5l51.42-52.36-38.09,7,30.47-24.43L76.9,367.39l15.24-15.7L35,372.63Z"/><polygon class="cls-7" points="457.35 248.72 462.59 365.65 448.6 374.79 438.15 248.72 457.35 248.72"/><polygon class="cls-7" points="518.43 248.72 528.9 360.41 546.56 358.34 532.39 248.72 518.43 248.72"/><polygon class="cls-9" points="432.92 236.5 539.38 236.5 539.38 248.72 438.15 248.72 432.92 236.5"/><polygon class="cls-3" points="563.81 196.36 563.81 217.3 569.05 259.19 672.01 248.72 666.78 184.14 563.81 196.36"/><polygon class="cls-3" points="307.26 196.36 307.26 259.19 410.23 248.72 410.23 184.14 307.26 196.36"/><polygon class="cls-3" points="572.54 290.6 572.54 335.98 665.03 335.98 665.03 283.62 572.54 290.6"/><polygon class="cls-3" points="300.28 292.35 300.28 342.96 401.5 335.98 401.5 273.15 300.28 292.35"/><polygon class="cls-10" points="696.45 189.96 706.92 184.14 706.92 196.36 706.92 212.07 729.61 222.54 743.57 248.72 729.61 266.17 764.51 266.17 764.51 290.6 729.61 295.84 713.9 311.55 696.45 317.94 696.45 189.96"/><path class="cls-10" d="M279.92,196.36l-18,12.22,8.73,14-20.94,7,12.21,14,3.49,7-43.63-1.74s-34.9,27.92-10.47,24.43,3.49,24.43,5.24,31.41,29.66,22.69,33.16,7,15.7-27.93,19.19-12.22,19.7,27.91,19.7,27.91Z"/><rect class="cls-2" x="562.5" y="217.3" width="3.06" height="48.87"/><rect class="cls-2" x="569.48" y="217.3" width="3.06" height="48.87"/><rect class="cls-2" x="578.2" y="217.3" width="3.06" height="48.87"/><rect class="cls-2" x="585.18" y="217.3" width="3.06" height="48.87"/><rect class="cls-2" x="593.91" y="217.3" width="3.06" height="48.87"/><rect class="cls-2" x="600.89" y="217.3" width="3.06" height="48.87"/><rect class="cls-2" x="609.62" y="217.3" width="3.06" height="48.87"/><rect class="cls-2" x="616.6" y="217.3" width="3.06" height="48.87"/><rect class="cls-2" x="625.33" y="217.3" width="3.06" height="48.87"/><rect class="cls-2" x="632.31" y="217.3" width="3.06" height="48.87"/><rect class="cls-2" x="641.03" y="217.3" width="3.06" height="48.87"/><rect class="cls-2" x="648.01" y="217.3" width="3.06" height="48.87"/><rect class="cls-2" x="654.99" y="217.3" width="3.06" height="48.87"/><rect class="cls-2" x="663.72" y="217.3" width="3.06" height="48.87"/><rect class="cls-2" x="305.95" y="213.81" width="3.06" height="48.87"/><rect class="cls-2" x="312.93" y="213.81" width="3.06" height="48.87"/><rect class="cls-2" x="321.65" y="213.81" width="3.06" height="48.87"/><rect class="cls-2" x="328.63" y="213.81" width="3.06" height="48.87"/><rect class="cls-2" x="337.36" y="213.81" width="3.06" height="48.87"/><rect class="cls-2" x="344.34" y="213.81" width="3.06" height="48.87"/><rect class="cls-2" x="353.07" y="213.81" width="3.06" height="48.87"/><rect class="cls-2" x="360.05" y="213.81" width="3.06" height="48.87"/><rect class="cls-2" x="368.77" y="213.81" width="3.06" height="48.87"/><rect class="cls-2" x="375.75" y="213.81" width="3.06" height="48.87"/><rect class="cls-2" x="384.48" y="213.81" width="3.06" height="48.87"/><rect class="cls-2" x="391.46" y="213.81" width="3.06" height="48.87"/><rect class="cls-2" x="398.44" y="213.81" width="3.06" height="48.87"/><rect class="cls-2" x="407.17" y="213.81" width="3.06" height="48.87"/><polygon class="cls-2" points="462.59 259.19 467.82 360.41 518.43 353.43 511.45 259.19 462.59 259.19"/><polygon class="cls-3" points="469.57 269.66 473.06 306.31 507.96 304.56 506.22 267.91 469.57 269.66"/><polygon class="cls-3" points="473.06 309.8 474.64 346.45 490.51 344.7 489.72 308.06 473.06 309.8"/><polygon class="cls-3" points="494 309.8 495.59 346.45 511.45 344.7 510.66 308.06 494 309.8"/><polygon class="cls-3" points="401.5 398.81 432.92 424.99 541.12 433.71 571.01 410.39 490.51 379.61 401.5 398.81"/><polygon class="cls-3" points="376.2 122.19 603.08 127.42 600.46 95.14 495.75 70.7 425.94 70.7 376.2 122.19"/><path class="cls-2" d="M320.35,150.11s19.2-43.63,62.83-66.32S453,50.63,491.38,52.38s82,8.72,110,24.43,71.56,62.83,71.56,62.83l-69.81-12.22a41.4,41.4,0,0,0-26.18-26.18c-20.94-7-55.85-26.18-87.26-24.43s-73.3,5.24-87.27,17.45-26.17,27.93-26.17,27.93Z"/><path class="cls-2" d="M357.87,398.81S373.58,425,425.94,437.2s101.22,8.73,123.91,0a454.18,454.18,0,0,0,45.37-20.94l-33.16-10.47s-20.94,17.45-43.63,15.71-47.12,3.49-73.3-5.24a367.77,367.77,0,0,1-43.63-17.45Z"/><path class="cls-2" d="M539.38,445.11c5.23,14.78,29.67,16.53,29.67,16.53L604,445.93l-15.71-20.07Z"/><polygon class="cls-2" points="572.54 468.62 612.68 545.41 647.58 531.45 603.95 454.66 572.54 468.62"/><path class="cls-2" d="M787.3,47.41s4.1-4.7,7.12-2.48,2.68,3.57,5,5.62c2.2,1.91,5-1,9-1.68a7.89,7.89,0,0,1,.85-.1c4.4-.31,4.35,5.44,4.35,5.44s-9.42-5.31-12.34.41-4.88-3.42-8.4-6.49S787.3,47.41,787.3,47.41Z"/><path class="cls-2" d="M623,39s5.1-11.38,12.18-8.89,7.2,5.28,12.89,7.83c5.32,2.38,9-4.92,16.19-8.44.5-.25,1-.48,1.57-.69,8.23-3.13,11.49,7.89,11.49,7.89s-21.13-4.69-23.38,8S642.6,41,634.07,37.17,623,39,623,39Z"/><path class="cls-2" d="M286.72,81.49s-1.74-12.35,5.58-14,8.9.63,15.08-.24c5.76-.81,5-8.95,9.2-15.76q.45-.72,1-1.41c5.31-7,13.93.55,13.93.55s-20.38,7.28-15.55,19.19S304.37,72.7,295.11,74,286.72,81.49,286.72,81.49Z"/><path class="cls-2" d="M556.83,311.55s-15.74,0-14.85,11.34-7,30.83,7.41,30.69,23.15,3.34,19.66-7.13S570.79,309.8,556.83,311.55Z"/><path class="cls-2" d="M431.17,313.29s-15.73,0-14.85,11.35-7,30.83,7.41,30.68,23.15,3.35,19.66-7.12S445.13,311.55,431.17,313.29Z"/><path class="cls-10" d="M540.61,311.55c-1.23-10.48-5.73-40.15-5.73-40.15s28.93,12.22,20.2,15.71,0,40.14,10.48,14,40.14-33.16,29.66-24.43,62.83-7,40.15,0-50.62,27.92-54.11,20.94,3.92,10.47-10.25,14S540.61,311.55,540.61,311.55Z"/><path class="cls-10" d="M438.55,315c1.23-10.48,5.73-40.14,5.73-40.14s-28.93,12.21-20.21,15.7,0,40.14-10.47,14-40.14-33.16-29.67-24.43-62.83-7-40.14,0,50.61,27.92,54.1,20.94-3.92,10.48,10.26,14S438.55,315,438.55,315Z"/><polygon class="cls-11" points="729.61 110.84 792.44 95.14 822.11 217.3 748.81 231.26 729.61 110.84"/><path class="cls-11" d="M63.46,210s13.43,24.76,15.17,31.75,0,45.37,0,45.37l97.74-8.72v-103Z"/><path class="cls-10" d="M640.6,98.63s14-3.5,40.14-3.5,49.74,21.19,49.74,21.19l-6.11,5s-3.76,10-32.42,8.51-33.9-3.27-33.9-3.27l-24.21-25.11Z"/><polygon class="cls-10" points="176.37 137.02 199.05 117.82 258.39 117.82 233.96 126.55 176.37 137.02"/><polygon class="cls-10" points="800.46 117.82 839.56 117.82 799.42 133.53 800.46 117.82"/><path class="cls-1" d="M228.72,175.42s10.47-29.67,36.65-36.65,64.79-5.87,64.79-5.87l-5.45,19.77-44.26,28Z"/><polygon class="cls-3" points="811.63 138.77 816.87 163.2 825.6 157.96 820.36 137.02 811.63 138.77"/><polygon class="cls-3" points="825.6 133.53 830.83 157.96 839.56 152.73 834.32 131.78 825.6 133.53"/><polygon class="cls-3" points="818.62 168.44 823.85 192.87 832.58 187.63 827.34 166.69 818.62 168.44"/><polygon class="cls-3" points="832.58 163.2 837.81 187.63 846.54 182.4 841.3 161.45 832.58 163.2"/><polyline class="cls-4" points="741.83 121.31 745.32 133.53 792.44 121.31 787.2 107.35 741.83 117.82"/><polyline class="cls-4" points="745.32 144 748.81 156.22 795.93 144 790.69 130.04 745.32 140.51"/><polyline class="cls-4" points="750.55 168.44 754.04 180.65 801.16 168.44 795.93 154.47 750.55 164.94"/><polyline class="cls-4" points="755.79 189.38 759.28 201.59 806.4 189.38 801.16 175.42 755.79 185.89"/><polyline class="cls-4" points="762.77 210.32 766.26 222.54 813.38 210.32 808.14 196.36 762.77 206.83"/><polygon class="cls-5" points="186.84 149.24 221.74 142.26 221.74 157.96 186.84 161.45 186.84 149.24"/><polygon class="cls-5" points="186.84 168.44 221.74 161.45 221.74 177.16 186.84 180.65 186.84 168.44"/><polygon class="cls-5" points="186.84 187.63 221.74 180.65 221.74 196.36 186.84 199.85 186.84 187.63"/><polygon class="cls-5" points="186.84 208.58 221.74 201.59 221.74 217.3 186.84 220.79 186.84 208.58"/><polygon class="cls-5" points="186.84 229.52 221.74 222.54 221.74 238.25 186.84 241.74 186.84 229.52"/><polygon class="cls-5" points="186.84 250.46 221.74 243.48 221.74 259.19 186.84 262.68 186.84 250.46"/><polygon class="cls-3" points="83.87 217.3 90.85 233.01 129.24 222.54 129.24 199.85 83.87 217.3"/><polygon class="cls-3" points="92.59 243.48 92.59 273.15 135.3 267.91 134.48 238.25 92.59 243.48"/><polygon class="cls-3" points="148.44 201.59 148.44 222.54 176.37 216.43 176.37 190.25 148.44 201.59"/><polygon class="cls-3" points="148.44 241.74 148.44 280.88 170.59 278.9 171.13 233.01 148.44 241.74"/><path class="cls-4" d="M384.05,130s24.69-8,45.5-6.62,52.23,15.35,52.23,15.35a148.94,148.94,0,0,0-38.39-5.24c-20.95,0-57.6,0-66.32,5.24S384.05,130,384.05,130Z"/><path class="cls-4" d="M366.6,149.24s24.68-8,45.5-6.63S464.33,158,464.33,158a149.2,149.2,0,0,0-38.39-5.23c-20.95,0-57.6,0-66.32,5.23S366.6,149.24,366.6,149.24Z"/><path class="cls-4" d="M551.59,163.2s110.34-14,94.25-14c-19.2,0-21.15-3.14-41.89,1.74C574.28,158,551.59,163.2,551.59,163.2Z"/></svg>