<svg id="Layer_1" data-name="Layer 1" xmlns="http://www.w3.org/2000/svg" xmlns:xlink="http://www.w3.org/1999/xlink" viewBox="0 0 435.17 982.49"><defs><style>.cls-1,.cls-2{fill:none;}.cls-2{stroke:#fff;stroke-width:0.3px;}.cls-3{stroke-width:5px;opacity:0.8;fill:url(#mem-white);stroke:url(#mem-white);}</style><pattern id="mem-white" data-name="mem-white" width="72" height="72" patternTransform="translate(-151.5 -69.5) scale(5)" patternUnits="userSpaceOnUse" viewBox="0 0 72 72"><rect class="cls-1" width="72" height="72"/><line class="cls-2" x1="67.96" y1="72.85" x2="69.08" y2="69.89"/><line class="cls-2" x1="63.13" y1="72.98" x2="62.5" y2="69.71"/><line class="cls-2" x1="47.91" y1="73.84" x2="48.03" y2="70.84"/><line class="cls-2" x1="32.21" y1="72.24" x2="30.79" y2="70.19"/><line class="cls-2" x1="15.95" y1="72.37" x2="17.27" y2="70.42"/><line class="cls-2" x1="4.89" y1="73.71" x2="3.22" y2="71.39"/><line class="cls-2" x1="55.47" y1="74.02" x2="57.47" y2="71.02"/><line class="cls-2" x1="74.75" y1="24" x2="71.75" y2="24"/><line class="cls-2" x1="73.75" y1="39.75" x2="71.75" y2="41.25"/><line class="cls-2" x1="5.75" y1="10.75" x2="3" y2="12.75"/><line class="cls-2" x1="4.25" y1="67" x2="2" y2="68.75"/><line class="cls-2" x1="73.25" y1="7" x2="70" y2="7.75"/><line class="cls-2" x1="72" y1="18.75" x2="69.5" y2="20.5"/><line class="cls-2" x1="74.75" y1="24" x2="71.75" y2="24"/><line class="cls-2" x1="71.5" y1="31.5" x2="68.75" y2="29.75"/><line class="cls-2" x1="73.75" y1="39.75" x2="71.75" y2="41.25"/><line class="cls-2" x1="73.25" y1="62.75" x2="69" y2="62"/><line class="cls-2" x1="63.5" y1="61" x2="61.25" y2="62.75"/><line class="cls-2" x1="71.75" y1="45" x2="68.75" y2="45"/><line class="cls-2" x1="58" y1="15.5" x2="56.11" y2="12.68"/><line class="cls-2" x1="28" y1="16" x2="26.35" y2="13.44"/><line class="cls-2" x1="35" y1="57" x2="33.35" y2="54.44"/><line class="cls-2" x1="43.04" y1="11.56" x2="44.89" y2="8.87"/><line class="cls-2" x1="67.96" y1="72.85" x2="69.08" y2="69.89"/><line class="cls-2" x1="63.13" y1="72.98" x2="62.5" y2="69.71"/><line class="cls-2" x1="66.13" y1="50.98" x2="65.5" y2="47.71"/><line class="cls-2" x1="55" y1="49" x2="53.11" y2="46.18"/><line class="cls-2" x1="48.65" y1="19.56" x2="47" y2="17"/><line class="cls-2" x1="47.91" y1="73.84" x2="48.03" y2="70.84"/><line class="cls-2" x1="40.54" y1="70.31" x2="42.39" y2="67.63"/><line class="cls-2" x1="32.21" y1="72.24" x2="30.79" y2="70.19"/><line class="cls-2" x1="50.32" y1="40.79" x2="52.67" y2="38.13"/><line class="cls-2" x1="15.95" y1="72.38" x2="17.27" y2="70.42"/><line class="cls-2" x1="9.25" y1="70.87" x2="10.16" y2="66.65"/><line class="cls-2" x1="4.89" y1="73.71" x2="3.22" y2="71.39"/><line class="cls-2" x1="27.04" y1="70.04" x2="27.16" y2="67.05"/><line class="cls-2" x1="7.25" y1="5.25" x2="10.75" y2="6.75"/><line class="cls-2" x1="5.5" y1="20.75" x2="5.75" y2="17.5"/><line class="cls-2" x1="8" y1="43.75" x2="9.5" y2="47.5"/><line class="cls-2" x1="5.25" y1="38.25" x2="7.5" y2="34.5"/><line class="cls-2" x1="29.25" y1="4.5" x2="27" y2="7"/><line class="cls-2" x1="33.5" y1="4.5" x2="36.75" y2="7.25"/><line class="cls-2" x1="50.25" y1="4.5" x2="53.5" y2="6.5"/><line class="cls-2" x1="52.5" y1="10.5" x2="50.5" y2="13.75"/><line class="cls-2" x1="60.5" y1="7.25" x2="65.5" y2="5"/><line class="cls-2" x1="67" y1="12.75" x2="64.5" y2="14.5"/><line class="cls-2" x1="18.75" y1="4.75" x2="18.75" y2="7.75"/><line class="cls-2" x1="20" y1="14.25" x2="20.5" y2="17.5"/><line class="cls-2" x1="21" y1="9.75" x2="24.5" y2="9"/><line class="cls-2" x1="9.25" y1="21.5" x2="12" y2="19.5"/><line class="cls-2" x1="7.5" y1="64" x2="7.75" y2="60"/><line class="cls-2" x1="9.25" y1="54.75" x2="11.5" y2="52.25"/><line class="cls-2" x1="21.25" y1="65.75" x2="18.75" y2="62.25"/><line class="cls-2" x1="31.75" y1="27.5" x2="29.25" y2="29.25"/><line class="cls-2" x1="57.75" y1="33.75" x2="55" y2="32.25"/><line class="cls-2" x1="26.75" y1="40" x2="23" y2="39.25"/><line class="cls-2" x1="28.5" y1="49.5" x2="26.5" y2="51"/><line class="cls-2" x1="30" y1="62.5" x2="27.25" y2="60.25"/><line class="cls-2" x1="37.86" y1="64.89" x2="37.86" y2="60.89"/><line class="cls-2" x1="29.5" y1="54.75" x2="26.5" y2="54.75"/><line class="cls-2" x1="41.75" y1="18" x2="37.25" y2="20.75"/><line class="cls-2" x1="42.5" y1="24.25" x2="39.5" y2="24.25"/><line class="cls-2" x1="44.25" y1="32.75" x2="38.5" y2="30"/><line class="cls-2" x1="38.5" y1="42.5" x2="37.75" y2="45"/><line class="cls-2" x1="39" y1="52" x2="36.25" y2="49.75"/><line class="cls-2" x1="62.97" y1="44.52" x2="56.86" y2="43.89"/><line class="cls-2" x1="14.75" y1="34.75" x2="17.25" y2="36.5"/><line class="cls-2" x1="12" y1="40" x2="15.86" y2="40.89"/><line class="cls-2" x1="16.25" y1="49.5" x2="20.86" y2="46.89"/><line class="cls-2" x1="47.59" y1="25.47" x2="49.97" y2="27.29"/><line class="cls-2" x1="54.72" y1="21.48" x2="54.5" y2="24.5"/><line class="cls-2" x1="66.72" y1="23.48" x2="66.5" y2="26.5"/><line class="cls-2" x1="45.34" y1="65.56" x2="48.38" y2="65.69"/><line class="cls-2" x1="46.34" y1="59.72" x2="48.72" y2="61.54"/><line class="cls-2" x1="53.47" y1="55.73" x2="54.6" y2="58.79"/><line class="cls-2" x1="48.25" y1="43.5" x2="45.75" y2="45.25"/><line class="cls-2" x1="48" y1="51" x2="44.75" y2="50"/><line class="cls-2" x1="57" y1="66.5" x2="54.25" y2="64.75"/><line class="cls-2" x1="64.5" y1="41" x2="61.75" y2="39.25"/><line class="cls-2" x1="62.25" y1="52" x2="60.25" y2="53.5"/><line class="cls-2" x1="16.59" y1="28.56" x2="20.63" y2="28.69"/><line class="cls-2" x1="19.09" y1="22.54" x2="22.89" y2="25.32"/><line class="cls-2" x1="59.75" y1="19.5" x2="62.47" y2="20.04"/><line class="cls-2" x1="14" y1="56.75" x2="14.5" y2="60"/><line class="cls-2" x1="32.75" y1="12.75" x2="36.75" y2="13.5"/><line class="cls-2" x1="33.47" y1="33.52" x2="33.97" y2="37.02"/><line class="cls-2" x1="62.58" y1="26.93" x2="59.92" y2="27.82"/><line class="cls-2" x1="11" y1="12.5" x2="14.25" y2="15.25"/><line class="cls-2" x1="4.75" y1="29.5" x2="2.25" y2="31.25"/><line class="cls-2" x1="12.75" y1="26" x2="10.75" y2="27.5"/><line class="cls-2" x1="41.29" y1="4.81" x2="43.14" y2="2.12"/><line class="cls-2" x1="64.54" y1="35.06" x2="66.39" y2="32.37"/><line class="cls-2" x1="30.79" y1="23.31" x2="31.5" y2="20.5"/><line class="cls-2" x1="20.29" y1="58.81" x2="21" y2="56"/><line class="cls-2" x1="31.75" y1="42.75" x2="29.75" y2="44.25"/><line class="cls-2" x1="2.75" y1="24" x2="-0.25" y2="24"/><line class="cls-2" x1="1.75" y1="39.75" x2="-0.25" y2="41.25"/><line class="cls-2" x1="67.96" y1="0.85" x2="69.08" y2="-2.11"/><line class="cls-2" x1="63.13" y1="0.98" x2="62.5" y2="-2.29"/><line class="cls-2" x1="47.91" y1="1.84" x2="48.03" y2="-1.16"/><line class="cls-2" x1="32.21" y1="0.24" x2="30.79" y2="-1.81"/><line class="cls-2" x1="15.95" y1="0.37" x2="17.27" y2="-1.58"/><line class="cls-2" x1="4.89" y1="1.71" x2="3.22" y2="-0.61"/><line class="cls-2" x1="5.25" y1="52" x2="1.5" y2="51.25"/><line class="cls-2" x1="68.37" y1="57.34" x2="66.47" y2="54.52"/><line class="cls-2" x1="23.97" y1="35.02" x2="24.66" y2="32.23"/><line class="cls-2" x1="47.75" y1="38" x2="42.75" y2="38.5"/><line class="cls-2" x1="55.47" y1="2.02" x2="57.47" y2="-0.98"/><line class="cls-2" x1="55.47" y1="74.02" x2="57.47" y2="71.02"/><line class="cls-2" x1="42.28" y1="53.92" x2="43.4" y2="56.98"/><line class="cls-2" x1="1.25" y1="7" x2="-2" y2="7.75"/><line class="cls-2" y1="18.75" x2="-2.5" y2="20.5"/><line class="cls-2" x1="2.75" y1="24" x2="-0.25" y2="24"/><line class="cls-2" x1="1.75" y1="39.75" x2="-0.25" y2="41.25"/><line class="cls-2" x1="1.25" y1="62.75" x2="-3" y2="62"/><line class="cls-2" x1="67.96" y1="0.85" x2="69.08" y2="-2.11"/><line class="cls-2" x1="63.13" y1="0.98" x2="62.5" y2="-2.29"/><line class="cls-2" x1="47.91" y1="1.84" x2="48.03" y2="-1.16"/><line class="cls-2" x1="32.21" y1="0.24" x2="30.79" y2="-1.81"/><line class="cls-2" x1="15.95" y1="0.38" x2="17.27" y2="-1.58"/><line class="cls-2" x1="4.89" y1="1.71" x2="3.22" y2="-0.61"/><line class="cls-2" x1="55.47" y1="2.02" x2="57.47" y2="-0.98"/></pattern></defs><title>menuPattern</title><path class="cls-3" d="M370.25,826.25c-134-94-21-167-60-245s-228-87-243-147,92-154,93-228-69-112-78-162c-3-16.45,4.26-30.95-7.53-43H1.25v983h434V888C422.7,869.46,402.27,848.71,370.25,826.25Z"/></svg>