<?xml version="1.0" encoding="utf-8"?>
<!-- Generator: Adobe Illustrator 22.1.0, SVG Export Plug-In . SVG Version: 6.00 Build 0)  -->
<svg version="1.1" id="Layer_1" xmlns="http://www.w3.org/2000/svg" xmlns:xlink="http://www.w3.org/1999/xlink" x="0px" y="0px"
	 viewBox="0 0 423.3 974.4" style="enable-background:new 0 0 423.3 974.4;" xml:space="preserve">
<style type="text/css">
	.st0{opacity:0.5;fill:#FFFFFF;enable-background:new    ;}
	.st1{opacity:0.5;}
	.st2{fill:#FFFFFF;}
</style>
<g>
	<title>sideDrawerPtn</title>
	<path class="st0" d="M79.2,291.5c-1.3,3-2.3,5.8-3.3,8.7c-1.1,2.8-1.8,5.6-2.3,8.5c-0.3,1.4-0.4,2.9-0.7,4.5
		c-0.3,1.6-0.7,3.1-1.3,4.6c-0.6,1.6-1.4,3.1-2.3,4.5c-1,1.4-2.1,2.7-2.9,4l-2,2.9l-1.2-2.5c-1.4-2.7-3.3-5.1-5.8-6.9
		c-1.2-1-2.4-2-3.6-2.9c-1.1-1-2.1-2.1-3-3.3c-0.9-1.2-1.7-2.5-2.4-3.8c-0.7-1.3-1.2-2.8-2-4.2c-1.2-2.8-3.1-5.3-5.4-7.2l-2.1-1.8
		l3.4-1.2c1.5-0.5,3-1.3,4.6-1.8c1.6-0.5,3.2-0.9,4.9-1.2c1.6-0.2,3.2-0.2,4.8,0c1.5,0.1,3,0.4,4.5,0.4c2.9,0.2,5.9,0.1,8.8-0.2
		C72.8,292.4,75.8,292.1,79.2,291.5z M77,293.2c-2.7,0.3-5.6,0.8-8.7,1.4c-3,0.5-6.1,1.3-9,2.2c-1.5,0.5-3,1.1-4.5,1.6
		c-1.3,0.5-2.7,0.9-4.1,1.2c-1.3,0.3-2.7,0.4-4,0.1c-1.3-0.2-2.8-0.5-4.3-0.6l1.2-3c1.4,2.7,3.3,5.1,5.7,6.9c1.2,1,2.4,2,3.6,2.9
		c1.1,1,2.1,2.1,3,3.3c0.9,1.2,1.7,2.5,2.4,3.8c0.7,1.3,1.2,2.8,2,4.2c1.2,2.8,3,5.3,5.3,7.3l-3.1,0.4c0.3-1.4,0.4-2.9,0.5-4.3
		c0.1-1.3,0.5-2.6,1.1-3.8c0.6-1.3,1.3-2.5,2.1-3.7c0.9-1.2,1.9-2.5,2.8-3.8c1.7-2.6,3.2-5.3,4.5-8.1
		C74.7,298.5,75.9,295.9,77,293.2z"/>
	<path class="st0" d="M227.1,889.9c-1,0.9-1.7,2-2.1,3.3c-0.5,1.3,0.4,3.4-0.4,4.5c-0.2,0.3-0.5,0.5-0.8,0.6
		c-0.4,0.2-0.8,0.3-1.2,0.4c-0.8,0.1-1.5,0.5-1.8,1.2c-0.3,0.7-0.3,1.5-0.2,2.2c0.2,0.7,0.1,1.5-0.4,2.1c-0.5,0.6-1.1,1-1.9,1.2
		c-0.8,0.2-1.5,0.5-2.1,1c-0.2,0.2-0.4,0.6-0.4,0.9c-0.1,0.4,0,0.8,0.1,1.2c0.2,0.9,0.3,1.8-0.2,2.2c-0.7,1.1-3,1.2-3.9,2.1
		c-1,0.9-1.8,2-2.3,3.3l-2.2-1.4c1-0.9,1.7-2,2.1-3.3c0.5-1.3-0.3-3.3,0.4-4.5c0.5-0.6,1.2-1,2-1c0.4-0.1,0.8-0.2,1.2-0.4
		c0.3-0.2,0.5-0.4,0.7-0.7c0.3-0.7,0.3-1.5,0.2-2.2c-0.2-0.7-0.1-1.5,0.4-2.1c0.5-0.6,1.1-1,1.9-1.2c0.8-0.2,1.5-0.5,2.1-1
		c0.4-0.6,0.6-1.4,0.4-2.2c-0.1-0.4-0.2-0.8-0.2-1.2c0-0.4,0.1-0.7,0.3-1c0.6-1.2,3-1.2,3.9-2.1c1-0.9,1.8-2,2.3-3.2L227.1,889.9z"
		/>
	<path class="st0" d="M218.8,871.3c-2.3-0.9-4.7-1.4-7.1-1.7c-2.4-0.4-5.3,1-7.6,0.2c-0.6-0.2-1.2-0.4-1.7-0.8
		c-0.5-0.4-1-0.9-1.5-1.3c-0.9-0.9-2.1-1.5-3.3-1.8c-1.3-0.2-2.6-0.1-3.8,0.2c-1.2,0.3-2.5,0.3-3.7-0.1c-1.2-0.4-2.4-1-3.3-1.9
		c-1-0.8-2.1-1.5-3.2-2.1c-1.2-0.4-2.5-0.4-3.7,0c-1.2,0.4-2.5,0.5-3.7,0.1c-2.3-0.6-4.2-3-6.4-3.8c-1.2-0.4-2.2-0.9-3.4-1.3
		c-1.2-0.3-2.4-0.6-3.6-0.8l0.7-2.6c1.1,0.5,2.3,0.9,3.5,1.2c1.2,0.3,2.4,0.4,3.6,0.6c2.4,0.4,5.3-0.9,7.6-0.2
		c1.3,0.3,2.4,1.1,3.2,2.1c0.9,0.9,2,1.5,3.2,1.9c1.3,0.2,2.6,0.1,3.8-0.2c1.2-0.3,2.5-0.3,3.7,0.1c1.2,0.4,2.4,1,3.3,1.9
		c1,0.8,2.1,1.5,3.2,2.1c1.2,0.4,2.5,0.4,3.7,0.1c0.6-0.1,1.3-0.3,2-0.4c0.6-0.1,1.3,0,1.9,0.2c2.4,0.4,4.2,3,6.4,3.8
		c2.2,1,4.6,1.7,7,2L218.8,871.3z"/>
	<path class="st0" d="M197.4,812.5c2.4-0.2,4.9,0,7.2,0.8c2.3,0.8,4.5,1.9,6.5,3.2c2.1,1.4,4,3.2,5.7,5.1c1.8,2.1,2.9,4.7,3.1,7.5
		v2.1c-0.1,0.7-0.3,1.3-0.4,2.1c-0.2,0.7-0.4,1.3-0.7,1.9c-0.3,0.6-0.6,1.2-1,1.8c-1.4,2.2-2.9,4.2-4.3,6.3c-1.5,2.1-3.2,4-5.3,5.7
		c-2.1,1.8-4.6,2.9-7.4,3.2c-2.8,0.3-5.5-0.3-7.9-1.7c-2.2-1.3-4.3-2.8-6.1-4.5l-1.3-1.3l-1.3-1.3l-1.3-1.3
		c-0.5-0.4-0.9-0.9-1.3-1.4c-0.4-0.5-0.8-1-1.2-1.6c-0.4-0.6-0.7-1.2-1-1.8c-0.3-0.6-0.5-1.3-0.7-2c-0.2-0.7-0.3-1.4-0.3-2.1
		c-0.2-2.8,0.4-5.5,1.8-7.9c1.2-2.2,2.8-4.3,4.5-6.2c1.7-1.8,3.7-3.3,5.9-4.5C192.7,813.5,195,812.8,197.4,812.5z M197.8,815.2
		c-2.1,0.2-4.2,0.8-6.1,1.8c-1.9,0.9-3.5,2.4-4.7,4.1c-1.2,1.7-1.9,3.7-1.9,5.8c0,1.9,0.1,3.7,0.4,5.6c0.1,0.4,0.2,0.9,0.2,1.3
		c0.1,0.9,0.2,1.9,0.2,2.8c0,0.5,0.1,1,0.2,1.5c0.1,0.5,0.2,1,0.4,1.5c0.2,0.5,0.4,1,0.6,1.4c0.3,0.4,0.6,0.9,0.9,1.3
		c0.4,0.4,0.8,0.7,1.2,1.1c1.7,1.2,3.7,1.9,5.8,1.8c1.9,0.1,3.8,0,5.6-0.4c1.8-0.2,3.7-0.3,5.6-0.8c2.1-0.4,3.9-1.4,5.4-3
		c1.4-1.6,2.1-3.6,2-5.7c0-0.5,0-1-0.1-1.5c-0.1-0.5-0.1-1-0.2-1.4s-0.1-0.9-0.2-1.4c-0.1-0.4-0.1-0.9-0.1-1.3
		c-0.2-1.9-0.4-3.7-0.8-5.6c-0.4-2-1.4-3.9-2.9-5.4c-1.5-1.5-3.4-2.6-5.4-3.1C201.9,815.2,199.8,815,197.8,815.2L197.8,815.2z"/>
	<path class="st0" d="M273.5,842c1.9-0.1,3.7,0.1,5.5,0.6c1.8,0.5,3.5,1.4,5,2.5c1.7,1.1,3.2,2.4,4.6,3.8c1.4,1.6,2.4,3.6,2.7,5.8
		v1.6c-0.1,0.5-0.2,1.1-0.4,1.6l-0.6,1.5c-0.3,0.4-0.5,0.9-0.8,1.3c-1.2,1.7-2.5,3.2-3.5,4.7c-1.2,1.6-2.5,3.2-3.9,4.6
		c-3.2,3.1-8.2,3.6-12,1.1c-1.6-1.2-3.2-2.4-4.6-3.8c-0.4-0.4-0.7-0.6-1.1-1s-0.7-0.6-1.1-1c-0.4-0.4-0.8-0.7-1.2-1
		c-0.4-0.4-0.8-0.7-1.2-1.1s-0.7-0.8-1.1-1.2c-0.4-0.4-0.7-0.9-0.9-1.4c-0.3-0.5-0.4-1-0.5-1.5l-0.3-1.6c-0.2-2.2,0.4-4.4,1.5-6.2
		c1.1-1.7,2.3-3.2,3.8-4.6c1.4-1.3,2.9-2.4,4.6-3.3C269.7,842.7,271.6,842.2,273.5,842z M273.7,844.7c-1.6,0.1-3.1,0.5-4.5,1.2
		c-1.4,0.7-2.5,1.7-3.4,3c-0.8,1.3-1.2,2.8-1.1,4.3c0.1,1.4,0.4,2.8,0.5,4s0,2.5,0.1,4.1c0,0.4,0.1,0.8,0.2,1.2
		c0.1,0.4,0.2,0.8,0.4,1.1c0.2,0.4,0.4,0.6,0.6,1l0.8,0.8c1.3,0.8,2.8,1.2,4.3,1.1c1.4-0.1,2.7-0.4,3.9-0.4s2.5-0.1,4-0.2
		c1.5-0.1,2.9-0.8,4-1.8c1-1.1,1.5-2.7,1.3-4.2c-0.1-0.4-0.1-0.7-0.2-1.1l-0.3-1.1c-0.1-0.3-0.2-0.7-0.2-1c-0.1-0.3-0.1-0.6-0.1-0.9
		c-0.1-1.3-0.1-2.5-0.3-3.9c-0.2-1.5-0.8-3-1.8-4.1c-1-1.2-2.4-2-3.9-2.4C276.7,844.6,275.1,844.4,273.7,844.7L273.7,844.7z"/>
	<path class="st0" d="M168.1,887.5c1.9-0.1,3.7,0.1,5.5,0.6c1.8,0.5,3.5,1.4,5,2.5c1.7,1.1,3.2,2.3,4.6,3.8c1.5,1.6,2.5,3.6,2.7,5.8
		v1.6c-0.1,0.5-0.2,1.1-0.4,1.6l-0.6,1.5c-0.3,0.4-0.5,0.9-0.8,1.3c-1.3,1.7-2.4,3.1-3.6,4.6c-1.2,1.6-2.5,3.2-3.9,4.6
		c-3.2,3.1-8.2,3.6-12,1.1c-1.7-1.1-3.2-2.4-4.6-3.8c-0.4-0.4-0.7-0.6-1.1-1s-0.7-0.6-1.1-1c-0.4-0.4-0.8-0.7-1.2-1
		c-0.4-0.4-0.8-0.7-1.2-1.1s-0.7-0.8-1.1-1.2c-0.3-0.4-0.6-0.8-0.9-1.3c-0.3-0.5-0.4-1-0.5-1.5l-0.3-1.6c-0.2-2.2,0.4-4.3,1.5-6.1
		c1.1-1.7,2.4-3.2,3.8-4.6c1.3-1.3,2.8-2.4,4.5-3.3C164.2,888.4,166.2,887.8,168.1,887.5z M168.4,890.1c-1.5,0.1-3,0.5-4.4,1.3
		c-1.3,0.7-2.5,1.7-3.4,2.9c-0.8,1.3-1.2,2.8-1.1,4.3c0.1,1.4,0.4,2.7,0.5,3.9s0,2.5,0,4c0,0.4,0.1,0.7,0.1,1.2
		c0.1,0.4,0.2,0.8,0.4,1.1c0.2,0.4,0.4,0.6,0.6,1l0.8,0.8c1.3,0.9,2.8,1.3,4.3,1.1c1.4-0.1,2.7-0.4,3.9-0.5s2.5-0.1,3.9-0.2
		c1.5-0.1,2.9-0.8,4-1.8c1-1.1,1.5-2.7,1.3-4.2c-0.1-0.4-0.1-0.7-0.2-1.1s-0.2-0.7-0.3-1c-0.1-0.3-0.2-0.7-0.2-1
		c-0.1-0.3-0.1-0.6-0.1-0.9c-0.1-1.3-0.1-2.5-0.2-3.9c-0.1-1.5-0.7-2.9-1.8-4c-1-1.1-2.3-2-3.8-2.4
		C171.4,890.1,169.9,890,168.4,890.1L168.4,890.1z"/>
	<path class="st0" d="M291.3,621c0.5-1.3,0.6-2.7,0.4-4c-0.1-1.4-1.9-2.9-1.6-4.2c0.1-0.4,0.2-0.7,0.5-1c0.3-0.3,0.6-0.6,1-0.9
		c0.7-0.6,1.1-1.1,1-1.9c0-0.8-0.3-1.5-0.9-2c-0.5-0.5-0.8-1.3-0.6-2c0.2-0.7,0.6-1.3,1.2-1.8c0.6-0.5,1.1-1.1,1.4-1.9
		c0.1-0.3,0.1-0.7,0-1c-0.2-0.4-0.4-0.7-0.7-1c-0.6-0.5-1-1.2-0.9-2c0.1-1.3,2.2-2.3,2.5-3.6c0.6-1.2,0.8-2.5,0.6-3.9l2.6,0.3
		c-0.5,1.3-0.6,2.7-0.4,4c0.1,1.3,1.8,2.8,1.6,4.2c0,0.7-0.6,1.2-1.4,1.9c-0.3,0.3-0.7,0.6-1,0.8c-0.3,0.2-0.4,0.7-0.2,1
		c0.1,0.7,0.4,1.4,0.9,2c0.5,0.5,0.8,1.3,0.6,2c-0.2,0.7-0.6,1.4-1.1,1.9c-0.6,0.5-1.1,1.1-1.4,1.9c-0.1,0.7,0.1,1.5,0.6,2l0.8,1.1
		c0.2,0.3,0.2,0.7,0.2,1c0,1.4-2.2,2.3-2.5,3.6c-0.6,1.2-0.8,2.5-0.6,3.9L291.3,621z"/>
	<path class="st0" d="M279.4,635.1c-2.4-0.2-4.9,0-7.3,0.6c-2.4,0.4-4.8,2.5-7.2,2.5c-0.6,0-1.3-0.1-1.9-0.3
		c-0.6-0.2-1.3-0.4-1.8-0.7c-1.1-0.6-2.4-0.8-3.7-0.7c-1.3,0.2-2.5,0.6-3.6,1.3c-1.1,0.6-2.3,1-3.6,1.1c-1.3,0-2.5-0.2-3.7-0.7
		c-1.2-0.5-2.4-0.8-3.7-0.9c-1.3,0-2.5,0.4-3.6,1.1c-1,0.8-2.2,1.2-3.5,1.3c-2.4,0.2-4.9-1.6-7.4-1.7c-1.2-0.1-2.4-0.1-3.6-0.1
		c-1.2,0.1-2.4,0.2-3.6,0.4l-0.2-2.7c1.2,0.2,2.5,0.2,3.7,0c1.2-0.2,2.4-0.3,3.7-0.6c2.4-0.4,4.7-2.5,7.2-2.5c1.3,0,2.5,0.3,3.6,0.8
		c1.1,0.7,2.4,1,3.7,0.7c1.3-0.2,2.5-0.6,3.6-1.3c1.1-0.6,2.3-1,3.6-1.1c1.3,0,2.5,0.2,3.6,0.7c1.2,0.5,2.4,0.8,3.7,0.9
		c1.3,0,2.5-0.4,3.6-1.1c0.6-0.4,1.1-0.7,1.8-1c0.6-0.2,1.2-0.4,1.8-0.4c2.4-0.3,4.9,1.6,7.4,1.7c2.4,0.3,4.9,0.2,7.3-0.3
		L279.4,635.1z"/>
	<path class="st0" d="M248.2,575.4c2.2-1,4.7-1.5,7.1-1.4c2.4,0,4.9,0.4,7.2,1c2.5,0.7,4.8,1.8,7,3.1c2.3,1.5,4.2,3.6,5.2,6.1
		c0.3,0.7,0.5,1.3,0.6,2c0.1,0.7,0.2,1.3,0.3,2c0,0.7,0,1.3-0.1,2.1c-0.1,0.7-0.2,1.3-0.4,2c-0.6,2.6-1.5,4.9-2.2,7.3
		c-0.8,2.4-1.9,4.8-3.2,7c-1.4,2.4-3.6,4.2-6.1,5.2c-2.5,1-5.3,1.3-8,0.8c-2.5-0.5-5-1.4-7.3-2.5c-0.5-0.2-1.1-0.5-1.6-0.7
		s-1.1-0.5-1.8-0.8s-1.1-0.6-1.6-0.8l-1.7-0.9c-0.6-0.3-1.2-0.7-1.7-1.1c-0.5-0.4-1.1-1-1.6-1.4c-0.5-0.5-0.9-1.1-1.3-1.6
		c-0.4-0.6-0.6-1.2-1-1.9c-1-2.6-1.3-5.4-0.7-8.1c0.5-2.5,1.4-5,2.5-7.3c1-2.2,2.5-4.2,4.2-5.9C243.9,577.9,245.9,576.5,248.2,575.4
		z M249.2,577.9c-1.9,0.8-3.7,2-5.2,3.5c-1.5,1.5-2.6,3.4-3.2,5.4c-0.5,2-0.5,4.1,0,6.1c0.5,1.8,1.2,3.5,2,5.2
		c0.3,0.4,0.4,0.8,0.5,1.2l1.7,4c0.3,0.4,0.5,0.9,0.8,1.3c0.3,0.4,0.6,0.8,1,1.2c0.4,0.3,0.8,0.6,1.3,0.9c0.5,0.3,1,0.5,1.5,0.7
		c2,0.6,4.1,0.6,6.1,0c3.5-1.2,7-2.7,10.3-4.4c1.8-1,3.3-2.6,4.2-4.4c0.9-1.9,1-4.1,0.3-6.1c-0.2-0.5-0.3-1-0.5-1.4l-0.5-1.3
		c-0.3-0.4-0.5-0.8-0.6-1.3c-0.3-0.4-0.4-0.8-0.5-1.2c-0.7-1.7-1.6-3.4-2.5-5c-1.1-1.7-2.6-3.2-4.3-4.3c-1.9-0.9-4-1.4-6.1-1.4
		C253.1,576.7,251.1,577.2,249.2,577.9L249.2,577.9z"/>
	<path class="st0" d="M272.3,704c-1,1.8-1.6,3.8-1.9,5.8c-0.4,2,0.8,4.7,0,6.5c-0.2,0.5-0.4,0.9-0.8,1.3c-0.4,0.5-0.8,0.8-1.4,1.1
		c-0.9,0.7-1.5,1.6-1.9,2.7c-0.2,1.1-0.2,2.2,0.1,3.2c0.6,2.2-0.3,4.5-2.1,5.8c-0.9,0.7-1.6,1.5-2.1,2.5c-0.5,1-0.5,2.2-0.1,3.2
		c0.4,1,0.4,2.2,0.1,3.2c-0.6,1.9-3.1,3.3-4,5.1c-1,1.8-1.8,3.8-2.2,5.8l-2.5-0.9c1-1.8,1.6-3.8,2-5.8c0.5-2.1-0.6-4.7,0-6.5
		c0.4-1.1,1.1-2,2.1-2.5c1-0.6,1.6-1.5,2-2.6c0.2-1.1,0.2-2.2,0-3.3c-0.6-2.2,0.3-4.5,2.1-5.8c0.9-0.7,1.6-1.5,2.1-2.5
		c0.4-1,0.5-2.2,0.1-3.2c-0.1-0.5-0.2-1.2-0.3-1.7c-0.1-0.5,0-1,0.2-1.5c0.6-2,3.1-3.3,4-5.1c1.1-1.8,1.8-3.8,2.2-5.8L272.3,704z"/>
	<path class="st0" d="M302.6,669.3c-2.5,1.2-4.9,2.5-7.2,4l-3.4,2.1c-1.1,0.7-2.2,1.5-3.1,2.3c-1.9,1.7-3.8,3.8-6.3,5.3
		c-1.2,0.8-2.5,1.5-3.9,2c-1.4,0.5-2.8,0.8-4.3,1.2l-4.8,1.2l1.6-3.4c1.2-2.9,1.7-6,1.3-9.1c-0.2-1.5-0.4-3.1-0.6-4.7
		c-0.2-1.5-0.2-3.1,0.1-4.6c0.2-1.5,0.6-3,1.1-4.5c0.5-1.5,1.1-2.9,1.6-4.4c0.5-1.4,0.9-2.9,1-4.5c0.1-1.6,0-3.1-0.3-4.7l-0.7-3.7
		l4.5,2.2c1.4,0.6,2.7,1.3,4,2.2c1.2,0.8,2.3,1.8,3.3,2.8c1.8,2.1,3.4,4.3,4.8,6.7c0.7,1.1,1.6,2.1,2.6,2.9c0.8,0.9,1.8,1.9,2.7,2.8
		C298.5,665.6,300.5,667.5,302.6,669.3z M300,669c-1.7-1.7-3.7-3.4-5.8-5c-1-0.9-2.1-1.7-3.2-2.4c-1.1-0.9-2.2-1.7-3.4-2.3
		c-2.4-1.5-5-2.5-6.9-4c-0.9-0.7-1.8-1.5-2.5-2.4c-0.7-1-1.4-2.1-1.9-3.2l3.9-1.4c-0.7,1.4-1.2,2.9-1.3,4.5
		c-0.2,1.5-0.2,3.1-0.1,4.6c0.2,1.5,0.4,3.1,0.6,4.7c0.2,1.5,0.2,3.1-0.1,4.6c-0.2,1.5-0.6,3-1.1,4.5c-0.5,1.5-1.2,2.9-1.6,4.4
		c-1.1,2.9-1.4,6.1-0.8,9.1l-3.3-2.3c0.8-0.9,1.7-1.8,2.7-2.6c0.9-0.8,1.9-1.4,3.1-1.8c2.2-1,4.9-1.5,7.6-2.2
		c1.3-0.4,2.6-0.9,3.9-1.4c1.2-0.5,2.5-1.1,3.6-1.7C295.6,671.4,297.9,670.2,300,669L300,669z"/>
	<path class="st0" d="M23.9,533.9c1.6-2.9,2.8-5.6,4-8.3c1.2-2.7,2.3-5.5,3-8.3c0.4-1.4,0.6-2.9,1-4.4c0.4-1.6,1-3.2,1.8-4.6
		c0.7-1.5,1.7-2.9,2.8-4.2c1.1-1.3,2.2-2.5,3.2-3.7l2.1-2.8l1,2.6c1.1,2.8,2.9,5.3,5.2,7.4c1.1,1.1,2.2,2.1,3.3,3.2
		c1.1,1.1,2,2.3,2.8,3.6c0.8,1.3,1.5,2.6,2.2,4c0.5,1.4,1.1,2.9,1.6,4.4c1,2.9,2.6,5.5,4.7,7.7l2,2l-3.5,0.9c-1.5,0.4-3.1,1-4.8,1.5
		c-1.6,0.4-3.3,0.6-5,0.7c-1.6,0-3.2-0.1-4.8-0.3c-1.5-0.3-3-0.6-4.5-0.8c-2.9-0.4-5.9-0.5-8.8-0.5
		C30.2,533.7,27.2,533.7,23.9,533.9z M26.2,532.5c2.7-0.1,5.7-0.4,8.7-0.6c3.1-0.3,6.1-0.8,9.1-1.5c1.5-0.4,3.1-0.8,4.6-1.3
		c1.4-0.4,2.8-0.7,4.2-0.8c1.3-0.2,2.7-0.1,4,0.3c1.3,0.3,2.8,0.7,4.2,1l-1.5,2.9c-1.2-2.8-2.9-5.4-5.2-7.5
		c-1.1-1.1-2.2-2.1-3.3-3.2c-1.1-1.1-2-2.3-2.8-3.6c-0.8-1.3-1.5-2.6-2.1-4c-0.5-1.4-1.1-2.9-1.7-4.4c-1-2.8-2.6-5.5-4.7-7.7
		l3.2-0.2c-0.4,1.4-0.6,2.9-0.9,4.2c-0.2,1.3-0.7,2.6-1.4,3.7c-0.7,1.2-1.5,2.4-2.4,3.5c-1,1.2-2.1,2.3-3,3.6
		c-1.9,2.4-3.6,5-5.1,7.8C28.7,527.5,27.3,530,26.2,532.5L26.2,532.5z"/>
	<path class="st0" d="M219.8,659c1.7-0.7,3.6-1.1,5.4-1c1.9,0,3.7,0.3,5.5,0.8c1.9,0.5,3.8,1.3,5.5,2.2c1.9,1.1,3.4,2.7,4.3,4.7
		c0.2,0.5,0.3,1,0.4,1.5c0.1,0.5,0.1,1.1,0.2,1.5c0,0.5,0,1.1-0.2,1.6c-0.1,0.5-0.3,1-0.4,1.5c-0.6,2-1.3,3.7-1.9,5.6
		c-0.6,1.9-1.4,3.8-2.3,5.5c-1,1.9-2.7,3.4-4.7,4.3c-2,0.8-4.2,1-6.3,0.4c-1.9-0.6-3.8-1.3-5.6-2.2l-2.7-1.2l-1.4-0.6
		c-0.5-0.2-1-0.4-1.5-0.7c-0.5-0.2-0.9-0.5-1.4-0.7c-0.4-0.3-0.8-0.6-1.2-1c-0.4-0.4-0.7-0.8-1-1.2c-0.3-0.5-0.5-0.9-0.7-1.4
		c-0.8-2-0.9-4.2-0.4-6.3c0.5-1.9,1.3-3.8,2.2-5.5c0.9-1.6,1.9-3.2,3.2-4.5C216.2,661,217.9,659.8,219.8,659z M220.8,661.4
		c-1.4,0.6-2.7,1.5-3.8,2.5c-1.1,1.1-1.9,2.5-2.3,3.9c-0.4,1.5-0.2,3,0.4,4.4c0.6,1.3,1.3,2.5,1.7,3.5c0.5,1.2,1,2.5,1.3,3.8
		l0.5,1.1l0.7,0.9c0.3,0.2,0.6,0.4,0.9,0.7c0.4,0.1,0.7,0.2,1,0.5c1.4,0.4,3,0.3,4.3-0.3c1.3-0.6,2.4-1.3,3.5-1.7s2.4-0.8,3.7-1.4
		c1.4-0.6,2.5-1.6,3.2-2.9c0.7-1.4,0.7-3,0-4.3c-0.1-0.4-0.3-0.7-0.5-1c-0.3-0.3-0.4-0.6-0.6-0.9c-0.2-0.3-0.4-0.6-0.5-0.9
		c-0.2-0.2-0.3-0.5-0.4-0.8c-0.5-1.2-0.9-2.3-1.4-3.6c-0.6-1.4-1.6-2.6-2.9-3.3c-1.4-0.7-2.9-1.1-4.5-1
		C223.5,660.4,222.1,660.7,220.8,661.4L220.8,661.4z"/>
	<path class="st0" d="M4.6,0.3c3.3,0.3,6.2,0.5,9.2,0.7c3,0.2,6,0.1,8.9-0.3c1.5-0.1,2.9-0.4,4.5-0.5C28.8,0,30.4,0,32,0
		c1.7,0.1,3.3,0.4,4.9,0.9C38.5,1.5,40,2,41.6,2.5L45,3.6l-2,1.8c-2.2,2.1-3.9,4.7-4.9,7.5c-0.7,1.4-1.2,2.8-1.9,4.3
		c-0.6,1.4-1.3,2.7-2.2,3.9c-0.9,1.2-1.9,2.4-3,3.4c-1.1,1.1-2.3,2-3.5,3.1c-2.3,2-4.1,4.4-5.4,7.2l-1.1,2.6l-2.1-3
		c-1-1.3-2-2.5-3-4c-1-1.3-1.8-2.7-2.4-4.3c-0.6-1.5-1.1-3.1-1.4-4.7c-0.3-1.5-0.6-3.1-0.9-4.5c-0.7-2.9-1.7-5.7-2.8-8.5
		C7.2,6.1,6,3.3,4.6,0.3z M6.7,1.9c1,2.4,2.4,5.2,3.8,8c1.4,2.8,3,5.4,4.8,8c1,1.3,1.9,2.5,2.8,3.7c0.9,1.1,1.6,2.3,2.2,3.6
		c0.6,1.2,1,2.5,1.3,3.8c0.2,1.3,0.4,2.8,0.6,4.3l-3.2-0.3c2.2-2.1,3.9-4.6,5-7.5c0.7-1.4,1.2-2.8,1.9-4.3c0.6-1.4,1.4-2.8,2.3-4
		c0.9-1.2,1.9-2.4,3-3.4c1.1-1,2.3-2,3.5-3.1c2.3-2,4.1-4.4,5.4-7.1l1.4,2.9c-1.4,0.2-2.8,0.4-4.2,0.8c-1.3,0.2-2.7,0.2-4,0.1
		c-1.4-0.2-2.8-0.5-4.1-1c-1.4-0.5-2.9-1-4.4-1.5c-3-0.9-6-1.5-9.1-1.9C12.7,2.4,9.7,2.1,6.7,1.9z"/>
	<path class="st0" d="M402.6,939.2c1.7-0.7,3.5-1.1,5.3-1c1.8,0,3.6,0.3,5.3,0.8c1.9,0.5,3.6,1.2,5.4,2.1c1.8,1,3.3,2.5,4.2,4.4
		c0.2,0.5,0.3,1,0.4,1.5c0.1,0.5,0.1,1,0.2,1.5c0,0.5,0,1-0.1,1.5l-0.4,1.5c-0.6,1.9-1.3,3.6-1.9,5.3c-0.5,1.8-1.2,3.6-2.1,5.3
		c-1,1.8-2.5,3.3-4.4,4.2c-1.9,0.8-4.1,0.9-6.1,0.3c-1.8-0.5-3.6-1.2-5.3-2.1c-0.4-0.2-0.8-0.4-1.2-0.6c-0.4-0.2-0.9-0.4-1.3-0.5
		c-0.4-0.2-0.9-0.4-1.3-0.5l-1.4-0.6c-0.4-0.3-0.9-0.5-1.4-0.8c-0.4-0.3-0.8-0.6-1.2-0.9c-0.4-0.3-0.7-0.8-1-1.2
		c-0.3-0.4-0.5-0.9-0.7-1.3c-0.7-1.9-0.9-4.1-0.3-6.1c0.5-1.8,1.2-3.6,2.1-5.3c0.8-1.6,1.9-3.1,3.1-4.4
		C399.6,940.9,401,939.9,402.6,939.2z M403.6,941.6c-1.3,0.6-2.5,1.4-3.6,2.3c-1.1,1-1.8,2.3-2.1,3.7c-0.4,1.4-0.2,2.8,0.3,4.1
		c0.5,1.2,1.2,2.3,1.6,3.3c0.5,1.1,0.9,2.3,1.1,3.6l0.4,1c0.3,0.3,0.5,0.6,0.7,0.9l0.9,0.7c0.3,0.2,0.6,0.4,1,0.5
		c1.4,0.4,2.8,0.2,4.1-0.4c1.3-0.5,2.3-1.2,3.3-1.6s2.2-0.7,3.5-1.3c1.3-0.5,2.4-1.4,3.1-2.6c0.6-1.3,0.6-2.8-0.1-4.1
		c-0.1-0.4-0.4-0.6-0.5-1c-0.2-0.3-0.3-0.6-0.6-0.8c-0.2-0.2-0.3-0.5-0.4-0.8c-0.2-0.2-0.4-0.5-0.4-0.8c-0.5-1.1-0.8-2.2-1.3-3.5
		c-1.1-2.7-3.9-4.5-6.8-4.3C406.3,940.7,404.9,941.1,403.6,941.6L403.6,941.6z"/>
	<path class="st0" d="M275.2,762c1.7-0.7,3.6-1.1,5.4-1c1.9,0,3.7,0.3,5.5,0.8c1.9,0.6,3.7,1.3,5.5,2.2c1.9,1.1,3.4,2.7,4.3,4.7
		c0.2,0.5,0.4,1,0.5,1.5c0.1,0.5,0.2,1.1,0.2,1.5c0.1,0.5,0,1.1-0.2,1.6c-0.1,0.5-0.3,1-0.5,1.5c-0.6,2-1.3,3.7-1.9,5.6
		c-0.6,1.9-1.4,3.8-2.3,5.5c-2.1,3.9-6.7,5.9-11,4.7c-1.9-0.6-3.8-1.3-5.6-2.2l-2.7-1.2l-1.5-0.6c-0.5-0.2-1-0.4-1.5-0.7
		c-0.4-0.3-0.9-0.5-1.4-0.7c-0.4-0.3-0.8-0.6-1.2-1c-0.4-0.4-0.7-0.8-1-1.2c-0.3-0.5-0.5-0.9-0.7-1.4c-0.8-2-0.9-4.2-0.4-6.3
		c0.5-1.9,1.2-3.8,2.2-5.5c0.8-1.6,1.9-3.2,3.2-4.5C271.7,764.1,273.4,762.9,275.2,762z M276.2,764.5c-1.4,0.6-2.7,1.5-3.8,2.5
		c-1.1,1.1-1.9,2.5-2.3,3.9c-0.3,1.5-0.2,3,0.4,4.4c0.5,1.3,1.3,2.5,1.7,3.5c0.5,1.2,1,2.5,1.3,3.8l0.5,1.1l0.7,0.9
		c0.3,0.2,0.6,0.4,0.9,0.7c0.4,0.1,0.7,0.2,1,0.5c1.4,0.4,3,0.3,4.3-0.3c1.3-0.6,2.4-1.3,3.5-1.7s2.4-0.8,3.7-1.3
		c1.4-0.6,2.5-1.6,3.2-2.9c0.7-1.4,0.7-3,0-4.3c-0.1-0.4-0.3-0.7-0.5-1c-0.3-0.3-0.4-0.6-0.6-0.9c-0.2-0.3-0.4-0.6-0.5-0.9
		c-0.2-0.2-0.3-0.5-0.4-0.8c-0.5-1.2-0.9-2.3-1.4-3.6c-0.6-1.4-1.6-2.6-2.9-3.3c-1.4-0.7-2.9-1.1-4.5-1
		C279,763.5,277.5,763.9,276.2,764.5z"/>
	<path class="st0" d="M77.4,68.7c-1.3,3-2.3,5.8-3.3,8.7c-1.1,2.7-1.8,5.6-2.3,8.5c-0.3,1.4-0.4,2.9-0.7,4.5
		c-0.3,1.6-0.7,3.1-1.3,4.6c-0.6,1.6-1.4,3.1-2.3,4.5c-1,1.5-2.1,2.7-2.9,4l-2,2.9l-1.2-2.5c-1.4-2.7-3.4-5-5.8-6.9
		c-1.2-1-2.4-2-3.6-2.9c-1.1-1-2.1-2.1-3-3.3c-0.9-1.2-1.7-2.5-2.4-3.8c-0.7-1.3-1.3-2.8-2-4.2c-1.2-2.8-3.1-5.3-5.4-7.2l-2.1-1.8
		l3.4-1.2c1.5-0.5,3-1.3,4.6-1.8c1.6-0.5,3.2-0.9,4.8-1.2c1.6-0.2,3.2-0.2,4.8,0c1.5,0.1,3,0.4,4.5,0.3c2.9,0.2,5.9,0.1,8.8-0.2
		C71.2,69.6,74.2,69.2,77.4,68.7z M75.3,70.4c-2.7,0.3-5.6,0.8-8.7,1.3c-3,0.5-6.1,1.3-9,2.2c-1.5,0.5-3,1.1-4.5,1.7
		c-1.3,0.5-2.7,0.9-4.1,1.2c-1.3,0.3-2.7,0.3-4,0.1c-1.3-0.2-2.8-0.5-4.3-0.6l1.2-3c1.3,2.7,3.3,5.1,5.7,7c1.2,1,2.4,2,3.6,2.9
		c1.1,1,2.1,2.1,3,3.3c0.9,1.2,1.8,2.4,2.5,3.8c0.7,1.3,1.2,2.8,2,4.2c1.2,2.8,3,5.3,5.3,7.3l-3.1,0.4c0.2-1.4,0.4-2.9,0.4-4.3
		c0.2-1.3,0.5-2.6,1.1-3.8c0.5-1.3,1.2-2.6,2.1-3.7c0.9-1.3,1.9-2.5,2.8-3.8c1.7-2.6,3.2-5.3,4.5-8.2C73.1,75.7,74.3,73.1,75.3,70.4
		z"/>
	<path class="st0" d="M109.1,270.6c-1.2-0.6-2.5-0.9-3.8-0.9c-1.3-0.1-3.1,1.5-4.4,1c-0.4-0.1-0.7-0.3-0.9-0.6
		c-0.3-0.3-0.5-0.7-0.7-1.1c-0.3-0.7-0.9-1.2-1.7-1.3c-0.8,0-1.5,0.2-2.2,0.6c-0.6,0.4-1.4,0.5-2.1,0.4c-0.7-0.3-1.3-0.7-1.6-1.4
		c-0.4-0.7-0.9-1.2-1.6-1.6c-0.3-0.1-0.7-0.2-1-0.1c-0.4,0.1-0.8,0.3-1.2,0.5c-0.8,0.5-1.6,0.8-2.1,0.5c-1.2-0.4-2.1-2.5-3.2-3
		c-1.1-0.6-2.4-1-3.7-1.1l0.7-2.6c1.2,0.6,2.5,0.9,3.8,0.9c1.3,0.1,3-1.3,4.4-1c0.8,0.2,1.4,0.8,1.6,1.6c0.2,0.4,0.4,0.8,0.7,1.1
		c0.2,0.3,0.6,0.4,0.9,0.4c0.8,0,1.5-0.2,2.2-0.6c1.1-0.8,2.6-0.6,3.4,0.5c0.1,0.2,0.2,0.3,0.3,0.5c0.4,0.7,0.9,1.2,1.6,1.6
		c0.7,0.2,1.5,0.1,2.1-0.4c0.4-0.2,0.8-0.4,1.2-0.5c0.4-0.1,0.7-0.2,1.1-0.1c1.3,0.2,2.1,2.5,3.2,3c1.1,0.7,2.4,1.1,3.7,1.2
		L109.1,270.6z"/>
	<path class="st0" d="M75.2,227.3c-1.5,1.4-2.8,3.1-3.7,5c-1.1,1.8-0.7,4.6-2,6.2c-0.4,0.4-0.8,0.7-1.3,1c-0.4,0.3-1.1,0.4-1.6,0.7
		c-1.1,0.3-2,1-2.6,2c-0.5,1-0.8,2-1,3.1c-0.1,1.1-0.5,2.1-1.2,3c-0.7,0.8-1.6,1.5-2.5,1.9c-1.1,0.4-2,1-2.8,1.8
		c-0.7,0.8-1.1,1.9-1.2,3c0,1.1-0.3,2.2-1,3.1c-1.2,1.6-4,2.1-5.4,3.7c-1.6,1.3-2.9,3-3.8,4.8l-2.1-1.6c1.5-1.4,2.8-3.1,3.7-5
		c1.1-1.8,0.8-4.6,2-6.2c0.5-0.9,1.6-1.3,2.8-1.8c1.1-0.3,2-1,2.7-1.9c0.5-1,0.8-2,1-3.1c0.1-1.1,0.5-2.1,1.2-3
		c0.7-0.8,1.6-1.5,2.6-1.9c1.1-0.4,2-1,2.8-1.8c0.7-0.8,1.1-1.8,1.2-2.9c0-0.6,0.1-1.2,0.3-1.7c0.2-0.5,0.4-1,0.7-1.4
		c1.2-1.7,4-2.1,5.4-3.6c1.6-1.4,2.9-3,3.8-4.8L75.2,227.3z"/>
	<path class="st0" d="M134,676.3c2-1.4,3.9-3.1,5.4-5c1.7-1.8,2.1-4.9,4.1-6.5c0.5-0.4,1-0.8,1.6-1c0.6-0.2,1.3-0.3,1.9-0.5
		c1.3-0.2,2.4-0.8,3.3-1.7c0.9-0.9,1.6-2.1,2-3.3c0.5-1.2,1.2-2.2,2.2-3c1-0.8,2.1-1.4,3.4-1.7c1.2-0.3,2.4-0.8,3.5-1.5
		c1-0.8,1.7-1.9,2.1-3.1c0.3-1.2,1-2.3,2-3.1c1.8-1.6,4.8-1.8,6.8-3.2c1-0.8,2-1.3,3-2.1s1.8-1.6,2.7-2.5l1.8,2c-1,0.7-2,1.4-3,2.2
		s-1.7,1.8-2.5,2.6c-1.7,1.8-2.3,4.8-4.1,6.4c-1,0.9-2.2,1.4-3.5,1.5c-1.3,0.2-2.4,0.8-3.4,1.6c-0.9,0.9-1.6,2.1-2,3.3
		c-0.5,1.2-1.2,2.2-2.2,3c-1,0.8-2.1,1.4-3.4,1.7c-1.2,0.3-2.4,0.8-3.5,1.5c-1,0.8-1.7,1.8-2.2,3c-0.3,0.6-0.5,1.2-0.8,1.9
		c-0.3,0.6-0.7,1.1-1.2,1.5c-1.7,1.8-4.8,1.8-6.8,3.2c-2.1,1.3-4,2.9-5.6,4.7L134,676.3z"/>
	<path class="st0" d="M194.8,691.5c-1.2,2.2-2.8,4-4.7,5.5c-1.9,1.5-4.1,2.7-6.4,3.6c-2.4,0.9-4.9,1.5-7.4,1.8
		c-2.7,0.3-5.5-0.2-7.9-1.6c-0.6-0.4-1.2-0.8-1.7-1.2s-0.9-1-1.5-1.5c-0.4-0.5-0.8-1-1.2-1.6s-0.6-1.2-0.9-1.8c-1-2.4-2-4.8-2.8-7.1
		c-0.9-2.4-1.5-4.9-1.8-7.5c-0.3-2.7,0.2-5.5,1.5-7.9c1.3-2.4,3.3-4.4,5.8-5.6c2.3-1.1,4.7-2,7.2-2.6l1.8-0.3l1.8-0.3l1.8-0.3
		c0.6-0.1,1.2-0.2,1.9-0.3c0.7-0.1,1.3-0.1,2-0.1c0.7,0,1.4,0,2.1,0.2c0.7,0.1,1.3,0.3,2,0.5c0.7,0.2,1.3,0.5,1.9,0.9
		c2.4,1.4,4.3,3.5,5.6,5.9c1.1,2.3,2,4.7,2.6,7.2c0.5,2.4,0.7,4.9,0.4,7.4C196.5,687.1,195.8,689.3,194.8,691.5z M192.3,690.2
		c1-1.9,1.7-3.9,1.9-6c0.3-2.1,0-4.2-0.9-6.2c-0.7-2-2-3.6-3.8-4.9c-1.5-1.1-3.1-2.1-4.8-3c-0.4-0.1-0.9-0.3-1.2-0.6
		c-0.4-0.2-0.8-0.4-1.2-0.7c-0.4-0.2-0.8-0.4-1.2-0.7c-0.4-0.3-0.9-0.5-1.4-0.7c-0.5-0.2-1-0.4-1.5-0.5c-0.5-0.1-1.1-0.2-1.5-0.3
		c-0.5-0.1-1.1-0.1-1.6,0c-0.6,0.1-1,0.3-1.6,0.4c-1.9,0.7-3.6,2-4.8,3.8c-1.1,1.5-2.1,3.1-2.9,4.8c-0.8,1.6-1.8,3.2-2.6,5
		c-0.8,1.9-1,4.1-0.5,6.1c0.5,2,1.8,3.8,3.6,4.9c0.4,0.3,0.8,0.6,1.3,0.8c0.4,0.2,0.9,0.4,1.3,0.6s0.9,0.4,1.3,0.6
		c0.4,0.1,0.8,0.3,1.1,0.6c1.6,0.8,3.2,1.8,5,2.5c1.9,0.8,4,1,6,0.6c2.1-0.4,4.1-1.4,5.7-2.8c1.8-1.1,3.2-2.7,4.1-4.7L192.3,690.2z"
		/>
	<path class="st0" d="M126.2,716.6c-1,1.6-2.2,3-3.7,4.2c-1.5,1.2-3.1,2.1-4.9,2.8c-1.8,0.7-3.7,1.3-5.7,1.8c-2.2,0.3-4.4,0-6.3-1
		c-0.4-0.3-0.9-0.6-1.3-0.9c-0.4-0.4-0.8-0.8-1.1-1.2c-0.3-0.4-0.6-0.9-0.9-1.3s-0.4-0.9-0.6-1.4c-0.7-1.9-1.3-3.9-2-5.6
		c-0.8-1.9-1.3-3.8-1.7-5.8c-0.3-2.2,0-4.4,1-6.3c1.1-1.9,2.7-3.4,4.8-4.3c1.9-0.7,3.8-1.2,5.7-1.8l2.8-0.8c0.5-0.1,1-0.2,1.5-0.4
		c0.6-0.1,1-0.3,1.6-0.4s1.1-0.1,1.6-0.2h1.7c0.5,0,1.1,0.1,1.5,0.4l1.5,0.6c1.9,1.1,3.4,2.7,4.3,4.8c0.7,1.8,1.3,3.7,1.8,5.7
		c0.3,1.9,0.4,3.8,0.3,5.7C127.7,713,127.1,714.9,126.2,716.6z M123.9,715.1c0.8-1.4,1.3-2.9,1.4-4.4c0.2-1.5,0-3.1-0.7-4.5
		c-0.6-1.4-1.6-2.5-2.9-3.3c-1.2-0.7-2.5-1.2-3.6-1.8s-2.1-1.4-3.5-2.2c-0.3-0.2-0.7-0.4-1.1-0.5l-1.1-0.3c-0.4-0.1-0.7,0-1.2-0.1
		c-0.4,0.1-0.7,0.1-1.1,0.2c-1.4,0.6-2.5,1.6-3.3,2.9c-0.7,1.2-1.2,2.5-1.9,3.5s-1.3,2.1-2.1,3.4c-0.8,1.3-1,2.8-0.7,4.3
		c0.3,1.5,1.4,2.8,2.8,3.4c0.4,0.1,0.7,0.3,1,0.5c0.4,0.1,0.8,0.2,1.1,0.4c0.3,0.1,0.6,0.2,0.9,0.4c0.3,0.1,0.6,0.2,0.8,0.4
		c1.1,0.6,2.1,1.3,3.4,1.9c1.4,0.7,2.9,1,4.4,0.8c1.6-0.2,3-0.9,4.2-2C122.3,717.6,123.4,716.5,123.9,715.1z"/>
	<path class="st0" d="M253.8,813.8c-0.2-1.3-0.8-2.6-1.6-3.6c-0.8-1.1-3-1.6-3.5-2.9c-0.1-0.3-0.1-0.7,0-1l0.3-1.2
		c0.4-0.7,0.4-1.5,0-2.2c-0.4-0.6-1-1.1-1.7-1.4c-0.8-0.4-1.4-0.8-1.5-1.5c-0.2-0.7-0.1-1.5,0.1-2.2c0.3-0.7,0.4-1.5,0.3-2.3
		c-0.1-0.3-0.3-0.6-0.5-0.8c-0.3-0.3-0.7-0.5-1.1-0.6c-0.9-0.3-1.7-0.8-1.7-1.4c-0.5-1.2,0.7-3.2,0.4-4.4c-0.1-1.3-0.6-2.6-1.4-3.7
		l2.4-1c0.2,1.3,0.8,2.6,1.6,3.6c0.8,1.1,2.9,1.6,3.5,2.9c0.2,0.7,0.1,1.5-0.3,2.2c-0.1,0.4-0.2,0.8-0.3,1.2c0,0.3,0.1,0.7,0.2,1
		c0.4,0.6,1,1.1,1.7,1.4c0.8,0.4,1.4,0.8,1.5,1.5c0.2,0.7,0.1,1.5-0.1,2.2c-0.3,0.7-0.4,1.5-0.3,2.3c0.1,0.7,0.8,1.1,1.5,1.5
		c0.4,0.1,0.8,0.3,1.1,0.5c0.3,0.2,0.5,0.5,0.7,0.8c0.7,1.2-0.7,3.2-0.4,4.4c0.1,1.3,0.6,2.6,1.4,3.7L253.8,813.8z"/>
	<path class="st0" d="M188.5,781.5c-0.9,1.5-2.1,2.9-3.5,4c-1.4,1.1-2.9,2-4.6,2.7c-1.8,0.7-3.6,1.3-5.5,1.7c-2,0.3-4.1,0-6-0.9
		c-0.4-0.3-0.9-0.6-1.2-0.8c-0.4-0.4-0.7-0.8-1-1.2c-0.3-0.5-0.6-0.9-0.8-1.3c-0.3-0.4-0.5-0.9-0.6-1.4c-0.7-1.9-1.1-3.6-1.9-5.4
		c-0.7-1.8-1.2-3.6-1.7-5.5c-0.4-2,0-4.2,0.9-6c1-1.9,2.6-3.3,4.6-4c1.9-0.7,3.8-1.1,5.5-1.7c0.6-0.1,0.8-0.2,1.3-0.3
		s0.8-0.2,1.3-0.3l2.8-0.8c0.5-0.1,1.1-0.2,1.6-0.2c0.5,0,1,0,1.5,0.1c0.5,0.1,1,0.2,1.4,0.4c0.5,0.2,0.9,0.4,1.4,0.6
		c1.8,1,3.2,2.6,4.1,4.6c0.7,1.8,1.3,3.6,1.7,5.5c0.3,1.8,0.4,3.5,0.3,5.3C189.9,778.2,189.3,779.9,188.5,781.5z M186.2,780.2
		c0.8-1.2,1.3-2.6,1.4-4.1c0.2-1.5,0-3-0.6-4.3c-0.6-1.3-1.6-2.4-2.8-3.1c-1.2-0.7-2.3-1.1-3.3-1.7c-1.1-0.6-2.1-1.3-3.1-2.1
		c-0.3-0.2-0.6-0.4-1-0.5l-1.1-0.3c-0.4-0.1-0.7,0-1-0.1c-0.4,0-0.7,0.1-1,0.3c-1.3,0.5-2.4,1.6-3.1,2.8c-0.6,1.2-1.1,2.3-1.7,3.3
		s-1.3,1.9-2,3.1c-0.7,1.2-1,2.6-0.8,4c0.3,1.4,1.3,2.6,2.6,3.2c0.4,0.1,0.7,0.3,1,0.5c0.4,0.1,0.6,0.2,1,0.3l0.9,0.3
		c0.3,0.1,0.6,0.2,0.8,0.4c1.1,0.6,2,1.2,3.2,1.9c1.2,0.8,2.6,1.1,4,0.8c1.5-0.2,2.8-0.8,3.9-1.8
		C184.6,782.4,185.5,781.4,186.2,780.2L186.2,780.2z"/>
	<path class="st0" d="M210.9,784.4c1.2-0.6,2.2-1.5,2.9-2.6c0.8-1,0.5-3.4,1.6-4.2c0.3-0.2,0.6-0.4,1-0.4c0.4-0.1,0.8,0.1,1.3,0
		c0.7,0.2,1.5-0.1,2-0.7c0.4-0.7,0.6-1.4,0.7-2.2c0.1-0.7,0.3-1.4,0.8-2c0.6-0.4,1.4-0.6,2.1-0.5c0.8,0.1,1.5-0.1,2.2-0.4
		c0.3-0.2,0.5-0.5,0.6-0.8c0.1-0.4,0.2-0.9,0.3-1.3c0-0.9,0.2-1.8,0.8-2c1-0.8,3.2-0.3,4.3-1c1.2-0.6,2.2-1.4,3.1-2.4l1.8,2
		c-1.2,0.6-2.2,1.5-2.9,2.6c-0.8,1-0.6,3.2-1.6,4.2c-0.6,0.5-1.4,0.7-2.2,0.4c-0.4-0.1-0.9-0.1-1.3,0c-0.3,0-0.6,0.2-0.8,0.5
		c-0.4,0.7-0.6,1.4-0.7,2.2c-0.1,0.7-0.3,1.4-0.8,2c-0.6,0.4-1.4,0.6-2.1,0.5c-0.8-0.1-1.5,0.1-2.2,0.4c-0.6,0.3-0.8,1-0.8,2
		c-0.1,0.4-0.2,0.9-0.3,1.3c-0.1,0.4-0.2,0.7-0.5,1c-0.9,1-3.2,0.3-4.3,1c-1.2,0.5-2.3,1.4-3.1,2.4L210.9,784.4z"/>
	<path class="st0" d="M155.5,715.3c-0.3,1.3-0.1,2.7,0.4,3.9c0.3,1.3,2.4,2.5,2.3,3.8c0,0.4-0.1,0.7-0.2,1.1
		c-0.2,0.3-0.5,0.6-0.8,0.9c-0.6,0.5-0.9,1.2-0.8,2c0.3,0.7,0.7,1.3,1.2,1.9c0.6,0.5,1,1.1,1.1,1.9c0,0.7-0.3,1.5-0.8,2
		c-0.4,0.7-1,1.4-1,2c0,0.3,0.1,0.7,0.2,1c0.2,0.4,0.5,0.7,0.8,0.9c0.8,0.6,1.3,1.3,1.2,1.9c0,1.4-1.7,2.7-1.9,4
		c-0.3,1.3-0.3,2.6,0,3.9l-2.6,0.1c0.3-1.3,0.1-2.7-0.4-3.9c-0.3-1.3-2.3-2.5-2.3-3.8c-0.1-0.6,0.3-1.2,1-2c0.3-0.3,0.5-0.6,0.7-1
		c0.1-0.3,0.1-0.7,0.2-1c-0.3-0.7-0.7-1.3-1.2-1.9c-0.6-0.5-1-1.1-1.1-1.9c0-0.7,0.3-1.5,0.8-2c0.4-0.7,1-1.4,1-2
		c-0.1-0.8-0.4-1.5-1-2c-0.3-0.3-0.6-0.7-0.9-1s-0.3-0.7-0.5-0.9c-0.2-1.3,1.7-2.7,1.9-4c0.3-1.3,0.3-2.6,0-3.9L155.5,715.3z"/>
	<path class="st0" d="M109.8,642.7c-0.3,1.3-0.1,2.7,0.4,3.9c0.3,1.3,2.4,2.5,2.3,3.8c0,0.4-0.1,0.7-0.2,1.1
		c-0.2,0.3-0.5,0.6-0.8,0.9c-0.6,0.5-0.9,1.2-0.8,2c0.3,0.7,0.7,1.3,1.2,1.9c0.6,0.5,1,1.1,1.1,1.9c0,0.7-0.3,1.5-0.8,2
		c-0.4,0.7-1,1.4-1,2c0,0.3,0.1,0.7,0.2,1c0.2,0.4,0.5,0.7,0.8,0.9c0.8,0.6,1.3,1.3,1.2,1.9c0,1.4-1.7,2.7-1.9,4
		c-0.3,1.3-0.3,2.6,0,3.9l-2.6,0.1c0.3-1.3,0.1-2.7-0.4-3.9c-0.3-1.3-2.3-2.5-2.3-3.8c-0.1-0.6,0.3-1.2,1-2c0.3-0.3,0.5-0.6,0.7-1
		c0.1-0.3,0.1-0.7,0.2-1c-0.3-0.7-0.7-1.3-1.2-1.9c-0.6-0.5-1-1.1-1.1-1.9c0-0.7,0.3-1.5,0.8-2c0.4-0.7,1-1.4,1-2
		c-0.1-0.8-0.4-1.5-1-2c-0.3-0.3-0.6-0.7-0.9-1s-0.3-0.7-0.5-0.9c-0.2-1.3,1.7-2.7,1.9-4c0.3-1.3,0.3-2.6,0-3.9L109.8,642.7z"/>
	<path class="st0" d="M58.6,150.2c2.2-1.9,4-3.9,5.9-5.9c0.8-1,1.8-2,2.6-3s1.7-2,2.4-3c1.4-2.1,2.6-4.7,4.7-6.9
		c1-1.1,2.1-2.1,3.3-3c1.3-0.8,2.6-1.6,3.9-2.3l4.3-2.5l-0.5,3.8c-0.4,3,0,6.2,1.2,9c0.5,1.5,1.2,2.9,1.8,4.4c0.6,1.4,1,2.9,1.3,4.5
		c0.3,1.5,0.4,3.1,0.2,4.6c-0.1,1.7-0.3,3.1-0.3,4.7c0,1.5,0.1,3,0.3,4.5c0.3,1.5,0.8,3,1.6,4.4l1.7,3.3l-5.1-0.9
		c-1.4-0.2-2.9-0.5-4.3-0.9c-1.4-0.5-2.7-1.1-4-1.7c-2.3-1.5-4.4-3.3-6.5-5.1c-1.1-0.9-2.1-1.5-3.2-2.2s-2.3-1.3-3.4-2
		C63.6,152.5,61.3,151.4,58.6,150.2z M61.1,149.6c2.1,1.2,4.5,2.2,6.9,3.3c1.2,0.5,2.4,1,3.7,1.5c1.3,0.5,2.6,0.9,3.9,1.2
		c2.6,0.7,5.5,1.1,7.8,1.9c1.1,0.3,2.2,0.9,3.2,1.6c1,0.8,1.9,1.6,2.9,2.5l-3.2,2.5c0.3-1.5,0.3-3.1,0.1-4.6c-0.2-1.5-0.6-3-1.2-4.5
		c-0.5-1.5-1.2-2.9-1.8-4.4c-0.5-1.4-1-2.9-1.2-4.5c-0.3-1.5-0.4-3.1-0.2-4.6c0.2-1.6,0.3-3.1,0.3-4.7c0.2-3.1-0.4-6.2-1.7-9.1
		l3.8,1.3c-0.6,1.1-1.2,2.2-1.9,3.2c-0.7,1-1.5,1.8-2.4,2.6c-1.7,1.6-4.5,2.6-6.8,4.3c-1.2,0.6-2.3,1.5-3.2,2.5l-3,2.6
		C64.6,146.1,62.8,148,61.1,149.6z"/>
	<path class="st0" d="M201.2,754.6c-1.8-2.8-3.6-5.2-5.4-7.6c-1.6-2.5-3.6-4.7-5.8-6.6c-1-1-2.2-2-3.3-3.1c-1.2-1.1-2.2-2.3-3.1-3.7
		c-1-1.4-1.8-2.9-2.4-4.5c-0.6-1.6-1.1-3.3-1.8-4.6l-1.3-3.3l2.7,0.4c3,0.4,6.1,0.1,9-0.9c1.5-0.4,3-0.9,4.4-1.5
		c1.4-0.4,2.9-0.6,4.4-0.6c1.5-0.1,3-0.1,4.5,0c1.5,0.1,3,0.6,4.6,0.7c3,0.6,6.1,0.4,9-0.4l2.7-0.7l-0.9,3.5c-0.4,1.5-0.6,3.2-1,4.8
		c-0.5,1.6-1.1,3.2-1.8,4.7c-0.7,1.4-1.6,2.8-2.7,4c-0.9,1.2-2,2.3-2.9,3.5c-1.8,2.3-3.4,4.8-4.7,7.3
		C204,749,202.7,751.6,201.2,754.6z M201,751.9c1.4-2.6,2.6-5.2,3.7-7.9c1.3-2.8,2.3-5.7,3.2-8.6l1.1-4.6c0.4-1.4,0.8-2.8,1.3-4.1
		c0.5-1.3,1.3-2.4,2.2-3.4c0.9-1,2-2,2.9-3.2l1.8,2.7c-3-0.4-6-0.1-8.9,0.8c-1.5,0.4-3,0.9-4.4,1.4c-1.4,0.4-2.9,0.6-4.4,0.7
		c-1.5,0.1-3,0.1-4.5,0c-1.5-0.1-3-0.6-4.6-0.7c-3-0.6-6.1-0.5-9,0.3l1.4-2.8c1,1,2.1,2,3.3,2.8c1.1,0.8,1.9,1.8,2.5,3
		c0.8,1.2,1.4,2.5,1.9,3.8c0.6,1.5,1,3,1.6,4.4c1.2,2.8,2.6,5.6,4.2,8.3C197.8,747.1,199.4,749.6,201,751.9L201,751.9z"/>
	<g class="st1">
		<path class="st2" d="M23.1,470.6c-0.7,2.3-1.1,4.8-1.1,7.2c-0.2,2.4,1.4,5.2,0.8,7.6c-0.1,0.7-0.3,1.3-0.7,1.8
			c-0.3,0.6-0.8,1.1-1.1,1.6c-0.8,0.9-1.4,2.1-1.5,3.4c-0.1,1.3,0.1,2.6,0.5,3.8c0.4,1.2,0.5,2.5,0.2,3.7c-0.3,1.2-0.8,2.4-1.6,3.4
			c-0.8,1-1.4,2.2-1.8,3.4c-0.3,1.2-0.2,2.5,0.3,3.7c0.6,1.1,0.8,2.4,0.4,3.7c-0.4,2.4-2.6,4.4-3.3,6.7c-0.3,1.2-0.7,2.3-1,3.5
			c-0.3,1.2-0.4,2.4-0.5,3.6l-2.6-0.5c0.4-1.2,0.7-2.4,0.9-3.6c0.2-1.2,0.2-2.4,0.3-3.6c0.2-2.4-1.3-5.2-0.8-7.6
			c0.3-1.3,0.9-2.5,1.8-3.4c0.9-0.9,1.4-2.1,1.6-3.4c0.1-1.3-0.1-2.6-0.5-3.8c-0.4-1.2-0.5-2.5-0.2-3.7c0.3-1.2,0.8-2.4,1.6-3.4
			c0.8-1,1.4-2.2,1.8-3.4c0.3-1.2,0.2-2.5-0.2-3.7c-0.1-0.6-0.4-1.3-0.5-1.9c-0.1-0.6-0.1-1.3,0-1.9c0.2-2.4,2.6-4.4,3.3-6.7
			c0.8-2.3,1.2-4.7,1.4-7.1L23.1,470.6z"/>
	</g>
	<g class="st1">
		<path class="st2" d="M137.4,527.9c-0.4-2.4-0.4-4.9,0.2-7.3c0.6-2.4,1.4-4.7,2.6-6.8c1.3-2.2,2.8-4.2,4.6-6c2-1.9,4.5-3.2,7.2-3.8
			c0.7-0.1,1.3-0.1,2-0.2c0.7,0,1.4,0.1,2.1,0.2c0.7,0.1,1.3,0.3,1.9,0.6c0.6,0.2,1.2,0.5,1.9,0.8c2.3,1.2,4.4,2.5,6.5,3.7
			c2.2,1.3,4.2,2.9,6,4.7c4,3.9,5.1,10,2.8,15.1c-1.1,2.3-2.4,4.5-4,6.4l-1.1,1.4c-0.3,0.4-0.8,1-1.1,1.4c-0.8,1-1.7,1.9-2.5,2.9
			c-0.5,0.5-1,1-1.5,1.4c-0.5,0.4-1.1,0.8-1.7,1.1c-0.6,0.3-1.2,0.6-1.9,0.9c-0.6,0.2-1.3,0.4-2,0.4c-2.7,0.4-5.5,0-8-1.1
			c-2.3-1.1-4.5-2.4-6.4-4c-1.9-1.6-3.6-3.4-5-5.5C138.8,532.4,137.8,530.2,137.4,527.9z M140.1,527.4c0.4,2.1,1.2,4.1,2.3,5.9
			c1.1,1.8,2.7,3.3,4.6,4.3c1.8,1.1,3.8,1.6,5.9,1.4c2-0.1,3.8-0.5,5.6-0.8l1.3-0.3c0.5-0.1,0.9-0.2,1.4-0.2
			c0.5-0.1,0.9-0.2,1.4-0.2l1.5-0.3c0.5-0.1,1-0.3,1.5-0.5c0.5-0.2,1-0.4,1.4-0.7c0.4-0.3,0.8-0.6,1.2-1c0.3-0.4,0.6-0.8,1-1.2
			c1.1-1.8,1.6-3.8,1.3-5.9c-0.1-1.9-0.4-3.7-0.8-5.6c-0.3-1.9-0.7-3.7-1.3-5.5c-0.5-2-1.7-3.8-3.4-5.1c-1.7-1.3-3.8-1.9-5.9-1.6
			c-0.5,0-1,0.1-1.5,0.2c-0.5,0.1-1,0.2-1.4,0.3s-0.9,0.2-1.4,0.3c-0.4,0.1-0.9,0.2-1.3,0.2c-1.9,0.3-3.7,0.7-5.5,1.3
			c-2,0.6-3.8,1.7-5.2,3.3C140.2,519,139.2,523.3,140.1,527.4L140.1,527.4z"/>
	</g>
	<g class="st1">
		<path class="st2" d="M45.5,452.8c-0.5,1.2-0.7,2.6-0.6,3.9c0,1.3,1.8,3,1.3,4.3c-0.1,0.3-0.2,0.7-0.5,0.9c-0.2,0.3-0.7,0.5-1,0.8
			c-0.8,0.5-1.3,1.1-1.2,1.8c0.1,0.8,0.4,1.5,0.8,2.2c0.9,1.1,0.7,2.7-0.3,3.5c-0.1,0.1-0.3,0.2-0.4,0.3c-0.7,0.4-1.2,1-1.5,1.7
			c-0.1,0.3-0.1,0.7,0,1c0.1,0.4,0.3,0.8,0.6,1.1c0.6,0.5,0.9,1.3,0.7,2.1c-0.3,1.3-2.3,2.3-2.8,3.5c-0.6,1.2-0.9,2.5-0.8,3.8
			l-2.6-0.5c0.5-1.2,0.7-2.6,0.6-3.9c0-1.3-1.6-2.9-1.3-4.3c0-0.6,0.6-1.2,1.5-1.7c0.3-0.3,0.8-0.5,1-0.8c0.2-0.3,0.3-0.6,0.4-0.9
			c-0.1-0.8-0.4-1.5-0.8-2.2c-0.4-0.6-0.6-1.4-0.5-2.1c0.2-0.7,0.7-1.3,1.3-1.7c0.7-0.4,1.2-1,1.5-1.7c0.2-0.7,0-1.5-0.5-2.1
			c-0.2-0.3-0.4-0.7-0.6-1.1c-0.1-0.4-0.2-0.7-0.2-1.1c0.1-1.3,2.3-2.3,2.8-3.5c0.6-1.2,0.9-2.5,0.8-3.8L45.5,452.8z"/>
	</g>
	<g class="st1">
		<path class="st2" d="M118.8,548.9c1.4,1.1,3.1,1.9,4.8,2.5c1.7,0.7,4.3-0.3,5.7,0.7c0.4,0.2,0.8,0.6,1,1c0.3,0.4,0.5,0.9,0.7,1.4
			c0.3,0.9,1.1,1.7,2,2.1c0.9,0.4,1.9,0.5,2.9,0.3c1-0.2,2,0,2.8,0.5c0.8,0.5,1.5,1.2,1.9,2.1c0.4,0.9,1,1.7,1.8,2.3
			c0.4,0.3,0.8,0.4,1.3,0.5c0.5,0.1,1.1,0.1,1.6,0c1-0.3,2-0.1,2.9,0.4c1.6,0.9,2.3,3.4,3.7,4.4c1.4,1.2,3,2.1,4.7,2.7l-1.2,2.3
			c-1.4-1.1-3.1-1.9-4.8-2.5c-1.7-0.7-4.2,0.1-5.7-0.7c-0.9-0.5-1.5-1.3-1.8-2.3c-0.2-0.5-0.5-1-0.8-1.4c-0.3-0.3-0.7-0.6-1.1-0.8
			c-0.9-0.4-1.9-0.5-2.9-0.3c-1,0.2-2,0-2.8-0.5c-0.8-0.5-1.5-1.2-1.9-2.1c-0.4-0.9-1-1.7-1.8-2.3c-0.8-0.6-1.8-0.8-2.8-0.6
			c-0.5,0-1.1,0.1-1.6,0.1c-0.5,0-1-0.1-1.4-0.3c-1.7-0.8-2.3-3.4-3.7-4.4c-1.4-1.2-2.9-2.1-4.6-2.7L118.8,548.9z"/>
	</g>
	<g class="st1">
		<path class="st2" d="M71.7,469.8c3.1,1.1,6,1.8,8.9,2.6c2.9,0.8,5.8,1.3,8.7,1.6l4.5,0.3c1.6,0.1,3.2,0.4,4.7,0.9
			c1.6,0.5,3.2,1.2,4.7,2c1.5,0.9,2.8,1.8,4.3,2.6l3.1,1.7l-2.4,1.5c-2.6,1.6-4.8,3.8-6.4,6.4c-0.9,1.2-1.8,2.6-2.6,3.8
			c-0.9,1.2-1.9,2.3-3,3.3c-1.1,1-2.3,1.9-3.5,2.7c-1.3,0.8-2.7,1.5-4,2.4c-2.7,1.5-5,3.6-6.8,6l-1.6,2.3l-1.4-3.3
			c-0.7-1.5-1.5-2.9-2.3-4.5c-1.4-3-2-6.3-2-9.6c0-1.5,0.1-3.1,0-4.5c-0.1-2.9-0.4-5.9-0.9-8.8C73.1,476,72.5,473,71.7,469.8z
			 M73.4,471.8c0.5,2.6,1.3,5.5,2.1,8.5c0.8,3,1.8,5.9,3,8.8c0.7,1.5,1.3,2.9,2,4.3c0.6,1.3,1.1,2.6,1.5,4c0.4,1.3,0.5,2.7,0.4,4
			c-0.1,1.3-0.3,2.8-0.3,4.3l-3.1-1c2.6-1.6,4.8-3.7,6.4-6.3c0.9-1.2,1.8-2.6,2.6-3.8c0.9-1.2,1.9-2.3,3-3.3c1.1-1,2.3-1.9,3.6-2.7
			c1.3-0.8,2.7-1.5,4-2.3c2.7-1.4,5-3.4,6.8-5.9l0.7,3.1c-1.4-0.1-3-0.1-4.3-0.1c-1.3-0.1-2.6-0.3-3.9-0.7c-1.4-0.4-2.6-1-3.8-1.8
			c-1.3-0.9-2.7-1.7-4.1-2.4c-2.8-1.5-5.6-2.7-8.5-3.8C79,473.6,76.1,472.6,73.4,471.8L73.4,471.8z"/>
	</g>
	<g class="st1">
		<path class="st2" d="M387.1,934.2c-0.7,1.1-1.2,2.3-1.4,3.6c-0.3,1.3,1.2,3.2,0.5,4.5c-0.2,0.3-0.4,0.6-0.6,0.8
			c-0.4,0.2-0.8,0.5-1.2,0.6c-0.7,0.2-1.3,0.8-1.5,1.5c-0.1,0.8,0,1.5,0.3,2.3c0.3,0.9,0.5,1.5,0.1,2.2c-0.3,0.7-0.9,1.3-1.6,1.6
			c-0.7,0.3-1.3,0.8-1.8,1.4c-0.2,0.3-0.3,0.7-0.2,1c0,0.4,0.1,0.8,0.3,1.2c0.4,0.7,0.5,1.5,0.3,2.3c-0.5,1.2-2.8,1.7-3.5,2.8
			c-0.8,1.1-1.4,2.3-1.6,3.6l-2.5-0.9c0.7-1.1,1.2-2.3,1.4-3.6c0.3-1.3-0.9-3.2-0.5-4.5c0.2-0.8,0.9-1.3,1.7-1.4
			c0.4-0.2,0.8-0.4,1.1-0.6c0.3-0.2,0.4-0.5,0.5-0.9c0.1-0.8,0-1.5-0.3-2.3c-0.3-0.9-0.5-1.5,0-2.2c0.3-0.7,0.9-1.2,1.6-1.6
			c0.7-0.3,1.3-0.8,1.8-1.4c0.4-0.7,0.3-1.5,0-2.2c-0.2-0.4-0.3-0.8-0.4-1.2c-0.1-0.3-0.1-0.7,0.1-1c0.3-1.2,2.8-1.7,3.5-2.8
			c0.8-1.1,1.4-2.3,1.6-3.6L387.1,934.2z"/>
	</g>
	<g class="st1">
		<path class="st2" d="M362.4,910.1c-2.4-0.4-4.9-0.5-7.3-0.3c-2.4,0.2-5,1.9-7.5,1.7c-0.6,0-1.2-0.2-1.8-0.4
			c-0.6-0.3-1.2-0.7-1.7-0.9c-1-0.8-2.3-1.1-3.6-1.1c-1.3,0-2.6,0.3-3.7,1c-1.2,0.5-2.4,0.7-3.7,0.7c-1.3-0.1-2.5-0.5-3.6-1.2
			c-1.1-0.6-2.3-1.1-3.6-1.3c-1.3-0.1-2.6,0.1-3.7,0.8c-1.1,0.7-2.4,1-3.6,0.9c-2.5-0.1-4.7-2.1-7.1-2.5c-1.3-0.2-2.4-0.4-3.6-0.5
			c-1.2-0.1-2.4-0.1-3.6-0.1l0.1-2.7c1.2,0.2,2.4,0.4,3.6,0.4c1.2,0,2.5-0.1,3.6-0.2c2.5-0.1,5-1.9,7.5-1.7c1.3,0.1,2.5,0.5,3.6,1.3
			c1,0.8,2.3,1.2,3.5,1.2c1.3,0,2.6-0.3,3.7-0.9c1.2-0.5,2.4-0.7,3.7-0.7c1.3,0.1,2.5,0.5,3.6,1.2c1.1,0.6,2.3,1.1,3.6,1.3
			c1.3,0.2,2.6,0,3.7-0.7l1.8-0.8c0.6-0.2,1.2-0.3,1.9-0.2c2.5-0.1,4.7,2.1,7.1,2.5c2.4,0.5,4.8,0.7,7.2,0.6L362.4,910.1z"/>
	</g>
	<g class="st1">
		<path class="st2" d="M330.4,847.6c2.3-0.7,4.8-0.9,7.3-0.6c2.4,0.3,4.8,0.9,7,1.9c2.3,1.1,4.5,2.4,6.6,3.9c2.2,1.7,3.7,4,4.5,6.7
			c0.2,0.7,0.2,1.3,0.4,2c0.1,0.7,0.1,1.4,0,2.1c0,0.7-0.2,1.3-0.3,2c-0.1,0.7-0.3,1.4-0.6,2c-0.9,2.5-2,4.7-3,7
			c-1.1,2.3-2.4,4.6-4,6.6c-3.4,4.5-9.4,6.3-14.7,4.5c-2.4-0.8-4.7-1.9-6.8-3.3c-0.6-0.3-1-0.6-1.6-0.9s-1-0.7-1.6-1s-1-0.6-1.6-1
			c-0.6-0.3-1.1-0.8-1.6-1.2l-1.5-1.3c-0.4-0.5-0.9-1-1.3-1.5c-0.5-0.5-0.8-1.2-1.1-1.8c-0.3-0.6-0.6-1.3-0.7-2
			c-0.7-2.6-0.6-5.4,0.3-8c0.8-2.4,1.9-4.7,3.3-6.8c1.3-2.1,3-3.9,4.8-5.4C325.8,849.7,328,848.4,330.4,847.6z M331.3,850.2
			c-2,0.6-3.9,1.6-5.6,2.9c-1.7,1.3-3,3-3.8,5c-0.8,1.9-1.1,4-0.8,6.1c0.3,1.9,0.8,3.7,1.5,5.5c0.2,0.4,0.3,0.8,0.4,1.2
			c0.2,0.4,0.3,0.9,0.4,1.4c0.2,0.4,0.3,0.9,0.4,1.4c0.1,0.5,0.3,1,0.5,1.4c0.2,0.5,0.4,1,0.7,1.4c0.3,0.5,0.6,0.8,0.9,1.3
			c0.3,0.4,0.7,0.8,1.1,1.1c0.4,0.3,0.9,0.6,1.3,0.8c1.9,0.9,4,1.1,6,0.7c1.9-0.3,3.7-0.8,5.5-1.5c1.8-0.5,3.6-1.1,5.4-1.9
			c1.9-0.8,3.6-2.1,4.6-3.9c1.2-2.3,1.4-5,0.5-7.5c-0.2-0.5-0.3-1-0.5-1.3s-0.3-0.9-0.5-1.3c-0.2-0.4-0.3-0.8-0.3-1.3
			c-0.5-1.8-1.1-3.7-1.9-5.4c-0.8-1.9-2.2-3.6-3.9-4.8c-1.7-1.2-3.8-1.9-5.9-2C335.4,849.3,333.3,849.6,331.3,850.2L331.3,850.2z"/>
	</g>
	<g class="st1">
		<path class="st2" d="M384.3,878.5c1.8-0.6,3.7-0.7,5.6-0.4c1.8,0.3,3.6,0.7,5.4,1.4c1.9,0.8,3.7,1.7,5.4,2.8
			c1.8,1.3,3.1,3.1,3.7,5.2l0.4,1.6c0,0.6,0,1.1,0,1.7c-0.1,0.6-0.2,1.1-0.3,1.6c-0.1,0.5-0.3,1-0.5,1.5c-0.9,1.9-1.8,3.7-2.5,5.3
			c-0.8,1.9-1.7,3.6-2.9,5.3c-1.3,1.8-3.1,3.1-5.1,3.7c-2.1,0.6-4.3,0.5-6.3-0.3c-1.8-0.8-3.6-1.8-5.3-2.8l-1.3-0.8l-1.3-0.8
			l-1.3-0.8c-0.4-0.3-0.9-0.6-1.3-0.8c-0.4-0.3-0.9-0.6-1.3-1c-0.4-0.4-0.8-0.8-1.2-1.2c-0.4-0.4-0.6-0.9-0.8-1.4
			c-0.2-0.5-0.4-1-0.5-1.5c-0.5-2.1-0.4-4.3,0.3-6.3c0.7-1.9,1.7-3.7,2.8-5.3c1.1-1.6,2.3-3,3.8-4.2
			C381,879.8,382.6,879,384.3,878.5z M385.1,881c-1.5,0.4-2.9,1.1-4.1,2.1c-1.2,1-2.1,2.2-2.7,3.6c-0.5,1.4-0.6,3-0.2,4.4
			c0.4,1.4,0.9,2.7,1.3,3.8s0.5,2.5,0.9,4c0.1,0.4,0.2,0.8,0.4,1.1c0.1,0.4,0.3,0.7,0.5,1c0.2,0.3,0.5,0.6,0.8,0.9l0.9,0.6
			c1.4,0.6,3,0.7,4.4,0.2c1.4-0.4,2.6-0.9,3.7-1.3s2.5-0.6,3.9-1c1.5-0.4,2.7-1.3,3.6-2.6c0.9-1.3,1-3,0.4-4.4c0-0.4-0.2-0.7-0.4-1
			c-0.1-0.4-0.3-0.7-0.5-1c-0.2-0.3-0.4-0.6-0.4-0.9c-0.1-0.3-0.2-0.6-0.3-0.9c-0.3-1.2-0.6-2.5-1.1-3.8c-0.4-1.5-1.4-2.8-2.6-3.7
			c-1.3-0.9-2.8-1.4-4.3-1.5C387.8,880.5,386.4,880.6,385.1,881L385.1,881z"/>
	</g>
	<path class="st0" d="M327.1,964.2c0.2-3.3,0.1-6.3,0.1-9.3c0.1-3-0.2-5.9-0.8-8.8c-0.3-1.4-0.7-2.9-0.9-4.4c-0.2-1.6-0.4-3.3-0.4-5
		c0-1.7,0.2-3.4,0.7-5c0.4-1.6,0.9-3.2,1.3-4.7l0.7-3.5l2,2c2.2,2.1,4.9,3.6,7.8,4.5c1.5,0.6,2.9,0.9,4.4,1.5
		c2.9,1.1,5.5,2.7,7.8,4.7c1.1,1,2.2,2.1,3.4,3.2c2.2,2.2,4.7,3.9,7.5,5.1l2.7,0.9l-2.8,2.4c-1.2,1-2.4,2.2-3.7,3.3
		c-1.3,1.1-2.7,2-4.3,2.7c-1.4,0.7-2.9,1.3-4.5,1.7c-1.5,0.4-3,0.7-4.4,1.2c-2.8,0.9-5.5,2-8.2,3.3
		C332.6,961.3,329.8,962.7,327.1,964.2z M328.5,962c2.4-1.2,5-2.8,7.6-4.3c2.6-1.6,5.2-3.3,7.6-5.2c1.2-1,2.5-2,3.5-3.2
		c1.1-0.9,2.3-1.8,3.5-2.6c1.1-0.8,2.4-1.3,3.7-1.5c1.3-0.3,2.8-0.5,4.2-0.9l-0.1,3.3c-2.3-2.1-4.9-3.6-7.8-4.6
		c-1.5-0.6-2.9-0.9-4.4-1.5c-1.4-0.5-2.8-1.2-4.1-2c-1.3-0.8-2.5-1.7-3.6-2.7c-1.1-1-2.2-2.1-3.4-3.3c-2.2-2.2-4.7-3.9-7.5-5.1
		l2.8-1.5c0.3,1.4,0.7,2.9,1,4.1c0.3,1.3,0.5,2.7,0.4,4c0,1.4-0.2,2.8-0.6,4.2c-0.4,1.5-0.9,3-1.1,4.5c-0.6,3-1.1,6.1-1.4,9.2
		C328.6,956.3,328.5,959.3,328.5,962L328.5,962z"/>
	<path class="st0" d="M280.5,814.8c1.3,0.2,2.6,0,3.8-0.5c1.2-0.4,2.3-2.4,3.7-2.5c0.3,0,0.7,0.1,1,0.2c0.4,0.2,0.8,0.5,1.1,0.8
		c0.5,0.6,1.3,0.8,2,0.7c0.6,0,1.2-0.7,1.8-1.3c0.5-0.5,1.1-0.9,1.8-1.1c0.7,0,1.4,0.3,2,0.7c0.6,0.5,1.3,0.8,2,0.9
		c0.3,0.1,0.7,0,1-0.2c0.4-0.2,0.7-0.5,0.9-0.9c0.7-0.7,1.1-1.4,1.8-1.3c1.2-0.2,2.8,1.6,4,1.8c1.3,0.3,2.7,0.2,4-0.4l0.3,2.6
		c-1.3-0.2-2.7,0-3.9,0.5c-1.3,0.3-2.4,2.3-3.7,2.5c-0.6,0.2-1.3-0.3-2-0.9c-0.3-0.3-0.6-0.5-1-0.8c-0.3-0.2-0.7-0.2-1,0
		c-0.6,0-1.2,0.7-1.8,1.3c-0.5,0.5-1.1,0.9-1.8,1.1c-0.7,0-1.4-0.3-2-0.7c-0.6-0.5-1.3-0.8-2-0.9c-0.6-0.2-1.3,0.3-1.8,1.1
		c-0.3,0.3-0.6,0.7-0.9,0.9c-0.3,0.2-0.6,0.4-1,0.4c-1.3,0.3-2.8-1.6-4-1.8c-1.3-0.3-2.7-0.2-4,0.3L280.5,814.8z"/>
	<path class="st0" d="M193.6,579.1c1.8-0.1,3.6,0.1,5.3,0.7c1.7,0.5,3.3,1.3,4.7,2.3c1.6,1,3.1,2.3,4.4,3.7c1.4,1.5,2.3,3.4,2.6,5.5
		v1.5c-0.1,0.5-0.2,1-0.4,1.5c-0.2,0.5-0.4,1-0.6,1.4c-0.2,0.5-0.5,0.9-0.8,1.3c-1.2,1.6-2.4,2.9-3.4,4.5c-1.1,1.5-2.4,3-3.7,4.4
		c-1.5,1.4-3.4,2.3-5.5,2.6c-2.1,0.2-4.2-0.3-5.9-1.5c-1.5-1.2-3-2.4-4.4-3.7l-2-1.8c0,0-0.7-0.6-1.1-0.9s-0.7-0.6-1.1-1
		c-0.4-0.4-0.8-0.8-1.1-1.2c-0.3-0.4-0.6-0.8-0.8-1.3c-0.2-0.4-0.4-0.9-0.5-1.4l-0.3-1.5c-0.2-2.1,0.4-4.2,1.5-5.9
		c1.1-1.6,2.3-3.1,3.6-4.4c1.3-1.2,2.7-2.3,4.3-3.1C190,579.8,191.8,579.3,193.6,579.1z M193.8,581.8c-1.5,0.1-2.9,0.5-4.2,1.1
		c-1.3,0.6-2.4,1.7-3.2,2.9c-0.8,1.2-1.1,2.6-1,4c0.1,1.3,0.4,2.5,0.5,3.7c0.1,1.2,0.1,2.5,0,3.7c0,0.4,0.1,0.7,0.1,1.1
		c0.1,0.4,0.2,0.8,0.4,1.1c0.2,0.3,0.4,0.6,0.5,0.9c0.2,0.3,0.5,0.5,0.8,0.7c1.2,0.8,2.6,1.2,4,1c1.3-0.2,2.5-0.4,3.7-0.5
		s2.3,0,3.7-0.1c1.4,0,2.8-0.6,3.8-1.6c1-1.1,1.4-2.5,1.2-3.9c-0.1-0.4-0.1-0.7-0.2-1.1s-0.2-0.6-0.3-1c-0.1-0.3-0.2-0.6-0.2-0.9
		c-0.1-0.3-0.1-0.6-0.1-0.9c-0.1-1.2-0.1-2.3-0.2-3.7c0-1.4-0.6-2.8-1.6-3.8c-0.9-1.1-2.2-1.8-3.6-2.2
		C196.6,581.7,195.2,581.6,193.8,581.8L193.8,581.8z"/>
	<path class="st0" d="M210.3,529.2c2.4,0.2,4.8,0.9,7,1.9c2.2,1.1,4.2,2.5,5.9,4.1c1.8,1.8,3.5,3.8,4.9,6c1.5,2.3,2.1,5.1,1.9,7.8
		l-0.3,2c-0.2,0.7-0.4,1.3-0.7,1.9c-0.3,0.6-0.6,1.2-1,1.7c-0.4,0.6-0.8,1-1.2,1.7c-1.6,1.9-3.4,3.7-5.2,5.5
		c-1.8,1.8-3.9,3.5-6.1,4.9c-2.3,1.4-5,2.1-7.8,2c-2.7-0.2-5.4-1.2-7.5-2.9c-2-1.6-3.7-3.4-5.3-5.5l-2.4-2.8l-1.2-1.5
		c-0.4-0.6-0.7-1-1.1-1.7c-0.4-0.6-0.7-1.2-1-1.8c-0.3-0.6-0.5-1.3-0.7-1.9c-0.2-0.7-0.3-1.4-0.4-2.1c-0.1-0.7-0.1-1.4,0-2.1
		c0.3-2.7,1.3-5.3,3-7.4c1.6-2,3.4-3.8,5.4-5.3c2-1.5,4.1-2.7,6.5-3.5C205.4,529.5,207.9,529.1,210.3,529.2z M210.3,531.9
		c-2.1-0.1-4.3,0.2-6.3,0.9c-2,0.7-3.8,1.9-5.3,3.4c-1.5,1.5-2.4,3.4-2.8,5.4c-0.4,2-0.4,3.8-0.5,5.6v1.3c0,0.5-0.1,0.9-0.1,1.4
		s-0.1,1-0.1,1.4c-0.1,0.5-0.1,1,0,1.5c0,0.5,0.1,1.1,0.2,1.6c0.2,0.6,0.2,1,0.4,1.5c0.2,0.5,0.4,1,0.7,1.4c0.3,0.5,0.6,0.9,1,1.3
		c1.5,1.5,3.4,2.4,5.4,2.7c1.9,0.3,3.7,0.5,5.6,0.5c1.9,0.1,3.8,0.1,5.7,0c2.1,0,4.1-0.8,5.7-2.2c1.6-1.3,2.7-3.2,2.9-5.3
		c0.1-0.5,0.2-1,0.1-1.5c0-0.9,0-1.9,0-2.8c0-0.4,0-0.9,0.1-1.3c0.1-1.9,0.1-3.8,0-5.7c-0.1-2.1-0.8-4.1-2.1-5.8
		c-1.2-1.7-2.9-3.1-4.8-4C214.3,532.4,212.3,532,210.3,531.9z"/>
	<path class="st0" d="M56.8,858.5c-0.9,1-1.6,2.2-1.9,3.5c-0.4,1.3,0.6,3.4-0.2,4.5c-0.2,0.3-0.5,0.5-0.8,0.7
		c-0.4,0.2-0.9,0.3-1.3,0.4c-0.9,0.3-1.5,0.6-1.7,1.3c-0.3,0.7-0.3,1.5,0,2.2c0.3,0.7,0.2,1.5-0.2,2.1c-0.5,0.6-1.1,1-1.8,1.2
		c-0.8,0.2-1.5,0.6-2,1.2c-0.2,0.3-0.4,0.6-0.4,0.9c0,0.4,0.1,0.8,0.2,1.2c0.4,0.7,0.4,1.5,0,2.2c-0.6,1.2-2.9,1.3-3.7,2.3
		c-1,0.9-1.7,2-2.1,3.3l-2.3-1.3c0.9-1,1.5-2.2,1.9-3.5c0.4-1.3-0.5-3.3,0.2-4.5c0.3-0.6,1-0.9,2-1.2c0.4-0.1,0.9-0.3,1.2-0.4
		c0.3-0.1,0.6-0.4,0.6-0.8c0.2-0.7,0.2-1.5,0-2.2c-0.3-0.7-0.2-1.5,0.2-2.1c0.5-0.6,1.1-1,1.8-1.3c0.8-0.2,1.5-0.6,2-1.2
		c0.4-0.6,0.5-1.4,0.2-2.1l-0.3-1.3c0-0.3,0-0.7,0.2-1c0.5-1.3,2.9-1.3,3.7-2.3c1-0.9,1.7-2,2.1-3.3L56.8,858.5z"/>
	<path class="st0" d="M73.2,850.1c2.2,1.1,4.5,1.9,6.9,2.2c2.3,0.6,5.4-0.5,7.6,0.4c0.6,0.2,1.1,0.6,1.6,1c0.5,0.4,1,0.9,1.4,1.4
		c0.8,1,1.9,1.7,3.1,2c1.2,0.3,2.5,0.4,3.8,0.2c1.2-0.2,2.5,0,3.7,0.4c1.2,0.5,2.2,1.2,3.1,2.1c0.9,0.9,1.9,1.7,3,2.3
		c1.2,0.5,2.5,0.6,3.7,0.4c1.2-0.3,2.5-0.3,3.7,0.2c2.3,0.8,3.9,3.4,6.2,4.4c1.1,0.6,2.2,1.1,3.3,1.5c1.2,0.4,2.3,0.8,3.5,1.1
		l-0.9,2.5c-1.1-0.6-2.2-1.1-3.4-1.4c-1.2-0.3-2.3-0.7-3.6-0.9c-2.3-0.6-5.3,0.5-7.6-0.4c-1.2-0.5-2.2-1.2-3-2.2
		c-0.7-1.1-1.8-1.8-3.1-2.1c-1.2-0.3-2.5-0.4-3.8-0.2c-1.2,0.2-2.5,0.1-3.7-0.4c-1.2-0.5-2.2-1.2-3.1-2.1c-0.9-0.9-1.9-1.7-3-2.3
		c-1.2-0.5-2.5-0.6-3.7-0.4c-0.7,0.1-1.3,0.2-2,0.2c-0.6,0-1.2-0.1-1.8-0.3c-2.3-0.7-3.9-3.4-6.2-4.4c-2.1-1.2-4.4-2-6.8-2.5
		L73.2,850.1z"/>
	<path class="st0" d="M101.2,934.5c1.6-2.9,2.8-5.6,4-8.3c1.2-2.7,2.3-5.5,3-8.3c0.4-1.4,0.6-2.9,1-4.4c0.5-1.6,1.1-3.1,1.8-4.6
		c0.8-1.5,1.7-3,2.9-4.2c1.1-1.3,2.2-2.5,3.2-3.7l2.1-2.8l1,2.6c1.1,2.8,2.9,5.3,5.2,7.3c1.1,1.1,2.2,2.1,3.3,3.2
		c1.1,1.1,2,2.3,2.8,3.6c0.8,1.3,1.5,2.6,2.1,4c0.5,1.4,1.1,2.9,1.6,4.4c1,2.9,2.6,5.5,4.7,7.8l2,2l-3.5,0.9c-1.5,0.4-3.1,1-4.8,1.5
		c-1.6,0.4-3.3,0.6-5,0.7c-1.6,0-3.2-0.1-4.8-0.3c-1.5-0.3-3-0.6-4.5-0.8c-2.9-0.4-5.9-0.5-8.8-0.5
		C107.4,934.2,104.3,934.3,101.2,934.5z M103.4,933c2.7-0.1,5.7-0.4,8.7-0.6c3.1-0.3,6.1-0.8,9.1-1.5c1.5-0.4,3.1-0.8,4.6-1.3
		c1.4-0.4,2.8-0.7,4.2-0.8c1.3-0.2,2.7-0.1,4,0.3c1.3,0.3,2.8,0.7,4.2,1l-1.5,2.9c-1.2-2.8-2.9-5.4-5.2-7.5
		c-1.1-1.1-2.2-2.1-3.3-3.2c-1.1-1.1-2-2.3-2.8-3.6c-0.8-1.3-1.5-2.6-2.1-4c-0.5-1.4-1.1-2.9-1.7-4.4c-1-2.9-2.6-5.5-4.7-7.8
		l3.2-0.2c-0.4,1.4-0.6,2.9-0.9,4.2c-0.2,1.3-0.7,2.6-1.4,3.7c-0.7,1.3-1.5,2.4-2.4,3.5c-1,1.2-2.1,2.3-3,3.6
		c-1.9,2.4-3.6,5-5.1,7.8C106,927.9,104.6,930.5,103.4,933z"/>
	<path class="st0" d="M79.1,917.2c-2.4,0-4.9-0.5-7.1-1.4c-2.2-1-4.3-2.2-6.2-3.7c-2-1.6-3.8-3.5-5.3-5.5c-2-2.8-2.9-6.3-2.3-9.8
		c0.2-0.7,0.4-1.3,0.5-2c0.3-0.6,0.5-1.2,0.9-1.9c0.3-0.6,0.7-1.2,1.1-1.7c1.6-2.1,3.3-3.9,4.8-5.8c1.7-2,3.6-3.7,5.6-5.3
		c2.2-1.6,4.9-2.5,7.7-2.5c2.7,0,5.4,0.8,7.7,2.3c2.1,1.5,4.1,3.2,5.8,5.1c0.4,0.4,0.8,0.9,1.2,1.3s0.8,0.9,1.3,1.4s0.8,1,1.2,1.4
		l1.2,1.5c0.4,0.5,0.8,1.1,1.1,1.7c0.3,0.6,0.6,1.3,0.9,1.9c0.2,0.7,0.4,1.3,0.5,2c0.1,0.7,0.1,1.3,0.2,2.1c0,2.8-0.9,5.4-2.4,7.7
		c-1.5,2.1-3.2,4.1-5.1,5.8c-1.8,1.6-3.9,3-6.2,3.9C84.1,916.5,81.6,917.1,79.1,917.2z M79.1,914.5c2.1,0,4.2-0.5,6.2-1.3
		c2-0.8,3.7-2.1,5.1-3.8c1.3-1.6,2.1-3.6,2.3-5.6c0.2-1.9,0.3-3.7,0.2-5.6c-0.1-0.4-0.1-0.9,0-1.3v-4.3c-0.1-0.5-0.1-1-0.2-1.5
		c-0.1-0.5-0.3-1-0.5-1.5c-0.3-0.4-0.5-0.9-0.8-1.3c-0.3-0.4-0.7-0.8-1.1-1.2c-1.6-1.3-3.6-2.1-5.6-2.3c-1.9-0.1-3.7-0.2-5.6-0.1
		c-1.9,0-3.7,0.1-5.6,0.3c-2.1,0.2-4,1.1-5.6,2.5c-1.6,1.4-2.5,3.4-2.6,5.5c0,0.5-0.1,1-0.1,1.5v1.4c0.1,0.5,0.1,0.9,0.1,1.4
		c0.1,0.4,0.1,0.9,0,1.3c0,1.9,0.1,3.7,0.3,5.6c0.3,2,1.1,3.9,2.3,5.6c1.4,1.6,3.2,2.9,5.1,3.7C74.9,914.1,77,914.5,79.1,914.5
		L79.1,914.5z"/>
	<path class="st0" d="M145.9,632.5c-1.8,0-3.6-0.4-5.2-1.2c-1.7-0.7-3.2-1.6-4.6-2.8c-1.5-1.2-2.9-2.5-4.1-4
		c-1.3-1.6-2.1-3.6-2.2-5.7c0-0.5,0.1-1,0.2-1.5c0.1-0.5,0.3-1,0.4-1.5c0.2-0.5,0.4-0.9,0.7-1.3l0.9-1.2c1.3-1.5,2.6-2.8,3.8-4.1
		c1.2-1.5,2.5-2.8,3.9-4c3.3-2.8,8.1-2.9,11.4-0.1c1.5,1.2,2.8,2.5,4,4c0.3,0.4,0.6,0.7,0.9,1c0.3,0.4,0.6,0.7,1,1
		c0.3,0.4,0.6,0.7,1,1l1.1,1.1c0.3,0.4,0.6,0.8,1,1.2c0.3,0.4,0.5,0.8,0.7,1.3c0.2,0.5,0.4,1,0.4,1.5c0.1,0.5,0.1,1,0.1,1.5
		c0,2.1-0.7,4.1-2,5.7c-1.2,1.5-2.5,2.8-4,4c-1.3,1.2-2.8,2.1-4.5,2.8C149.3,632,147.7,632.5,145.9,632.5z M145.9,629.8
		c1.4-0.1,2.8-0.3,4.2-0.8c1.4-0.5,2.6-1.4,3.4-2.6c0.9-1.1,1.3-2.5,1.3-3.9c0-1.3-0.2-2.6-0.2-3.7c0-1.2,0.1-2.5,0.4-3.7V614
		c-0.1-0.4-0.2-0.7-0.3-1.1l-0.5-1c-0.2-0.3-0.4-0.6-0.7-0.8c-1.1-0.9-2.5-1.4-3.9-1.3c-1.4,0-2.6,0.2-3.7,0.2s-2.3-0.2-3.7-0.2
		c-1.4,0-2.8,0.5-3.9,1.3c-1.1,1-1.6,2.4-1.5,3.8c0,0.4,0.1,0.7,0.1,1.1c0,0.3,0.1,0.7,0.2,1c0.1,0.3,0.1,0.6,0.1,0.9
		c0.1,0.3,0.1,0.6,0,0.9c0,1.2-0.1,2.3-0.2,3.7c0,1.4,0.4,2.8,1.2,4c0.9,1.2,2.1,2,3.4,2.6C143,629.6,144.5,629.8,145.9,629.8
		L145.9,629.8z"/>
	<path class="st0" d="M78.3,737.5c1.1,0.7,2.4,1.1,3.7,1.2c1.3,0.2,3.2-1.2,4.4-0.7c0.3,0.1,0.5,0.4,0.8,0.6
		c0.3,0.4,0.5,0.8,0.6,1.2c0.4,0.8,0.9,1.4,1.5,1.5c0.8,0.1,1.5,0,2.2-0.4c0.7-0.3,1.4-0.4,2.1-0.2c0.7,0.3,1.2,0.8,1.5,1.5
		c0.3,0.7,0.8,1.2,1.4,1.7c0.3,0.2,0.7,0.3,1,0.2c0.4-0.1,0.8-0.2,1.2-0.4c0.9-0.4,1.6-0.7,2.2-0.4c1.3,0.4,1.8,2.7,2.9,3.3
		c1.1,0.8,2.4,1.3,3.7,1.4l-0.9,2.5c-1.1-0.7-2.4-1.1-3.7-1.3c-1.3-0.3-3.2,1.1-4.4,0.7c-0.6-0.1-1.1-0.8-1.4-1.7
		c-0.2-0.4-0.4-0.7-0.6-1.1c-0.2-0.3-0.6-0.4-0.9-0.4c-0.8-0.1-1.5,0-2.2,0.4c-0.7,0.3-1.4,0.4-2.1,0.2c-0.7-0.3-1.2-0.8-1.5-1.5
		c-0.3-0.7-0.8-1.2-1.4-1.7c-0.7-0.4-1.5-0.3-2.1,0.2c-0.4,0.2-0.8,0.4-1.3,0.4c-0.4,0.1-0.7,0.1-1.1,0c-1.3-0.3-1.8-2.7-2.9-3.3
		c-1.1-0.9-2.4-1.4-3.7-1.5L78.3,737.5z"/>
	<path class="st0" d="M142.1,791.9c1.1,0.7,2.4,1.1,3.7,1.2c1.3,0.2,3.2-1.2,4.4-0.7c0.3,0.1,0.5,0.4,0.8,0.6
		c0.3,0.4,0.5,0.8,0.6,1.2c0.4,0.8,0.9,1.4,1.5,1.5c0.8,0.1,1.5,0,2.2-0.4c0.7-0.3,1.4-0.4,2.1-0.2c0.7,0.3,1.2,0.8,1.5,1.5
		c0.3,0.7,0.8,1.2,1.4,1.7c0.3,0.2,0.7,0.3,1,0.2c0.4,0,0.8-0.2,1.2-0.4c0.9-0.4,1.6-0.7,2.2-0.4c1.2,0.4,1.8,2.7,2.9,3.3
		c1.1,0.8,2.4,1.2,3.7,1.4l-0.9,2.5c-1.1-0.7-2.4-1.2-3.7-1.3c-1.3-0.3-3.2,1.1-4.4,0.6c-0.6-0.1-1.1-0.8-1.4-1.7
		c-0.2-0.4-0.4-0.7-0.6-1.1c-0.2-0.3-0.6-0.4-0.9-0.4c-0.8-0.1-1.5,0-2.2,0.4c-0.7,0.3-1.4,0.4-2.1,0.2c-0.7-0.3-1.2-0.8-1.5-1.5
		c-0.3-0.7-0.8-1.2-1.4-1.7c-0.7-0.4-1.5-0.3-2.1,0.2c-0.4,0.2-0.8,0.4-1.3,0.4c-0.4,0.1-0.7,0.1-1.1,0c-1.3-0.3-1.8-2.7-2.9-3.3
		c-1-0.9-2.3-1.4-3.7-1.5L142.1,791.9z"/>
	<path class="st0" d="M12.8,760c1.1,0.7,2.4,1.1,3.7,1.2c1.3,0.2,3.2-1.3,4.4-0.7c0.3,0.1,0.5,0.4,0.8,0.6c0.3,0.4,0.5,0.8,0.6,1.2
		c0.4,0.8,0.9,1.4,1.5,1.5c0.8,0.1,1.5,0,2.2-0.4c0.6-0.3,1.4-0.4,2.1-0.2c0.7,0.3,1.2,0.8,1.5,1.5c0.3,0.7,0.8,1.2,1.4,1.7
		c0.3,0.2,0.7,0.3,1,0.2c0.4,0,0.8-0.2,1.2-0.4c0.9-0.4,1.6-0.7,2.2-0.4c1.2,0.4,1.8,2.7,2.9,3.3c1.1,0.8,2.4,1.3,3.7,1.4l-0.9,2.5
		c-1.1-0.7-2.4-1.1-3.7-1.3c-1.3-0.3-3.2,1.1-4.4,0.6c-0.6-0.1-1.1-0.8-1.4-1.7c-0.2-0.4-0.4-0.7-0.6-1.1c-0.2-0.3-0.6-0.4-0.9-0.4
		c-0.8-0.1-1.5,0-2.2,0.4c-0.7,0.3-1.4,0.4-2.1,0.2c-0.7-0.3-1.2-0.8-1.5-1.4c-0.3-0.7-0.8-1.2-1.4-1.7c-0.7-0.4-1.5-0.3-2.1,0.2
		c-0.4,0.2-0.8,0.4-1.3,0.4c-0.4,0.1-0.7,0.1-1.1,0c-1.3-0.3-1.8-2.7-2.9-3.3c-1-0.9-2.3-1.4-3.7-1.5L12.8,760z"/>
	<path class="st0" d="M36.1,792.7c1.3-1.2,2.4-2.7,3.2-4.3c0.9-1.6,0.4-4.2,1.6-5.5c0.3-0.4,0.6-0.7,1.1-0.8c0.5-0.2,1-0.4,1.5-0.5
		c1-0.2,1.8-0.8,2.3-1.6c0.5-0.9,0.7-1.9,0.8-2.9c0-1,0.4-1.9,1-2.7c0.6-0.7,1.5-1.3,2.4-1.5c1-0.3,1.9-0.7,2.6-1.4
		c0.3-0.3,0.6-0.7,0.7-1.2c0.2-0.5,0.2-1,0.2-1.5c-0.1-1,0.2-2,0.8-2.8c1.1-1.4,3.7-1.7,5-3c1.4-1.1,2.6-2.5,3.5-4.1l2.1,1.6
		c-1.3,1.2-2.4,2.7-3.2,4.3c-1,1.5-0.6,4.1-1.6,5.5c-0.6,0.8-1.6,1.4-2.6,1.4c-0.5,0.1-0.9,0.3-1.4,0.5c-0.4,0.3-0.7,0.6-1,1
		c-0.5,0.9-0.7,1.9-0.8,2.9c0,1-0.4,1.9-1,2.7c-0.6,0.8-1.5,1.3-2.4,1.6c-1,0.3-1.9,0.7-2.6,1.4c-0.7,0.7-1,1.7-1,2.7
		c-0.1,0.5-0.1,1.1-0.2,1.6c-0.1,0.5-0.3,0.9-0.5,1.3c-1,1.5-3.7,1.7-5,3c-1.4,1.1-2.6,2.5-3.5,4.1L36.1,792.7z"/>
	<path class="st0" d="M106.2,789.2c1.6-1.3,2.9-2.9,4-4.6c1.2-1.7,1-4.6,2.5-6c0.3-0.4,0.7-0.7,1.2-0.9c0.5-0.3,1.1-0.5,1.7-0.5
		c1.1-0.3,2-0.9,2.8-1.7c0.6-0.9,1-1.9,1.2-3c0.2-1.1,0.7-2.1,1.4-2.9c0.8-0.8,1.7-1.4,2.8-1.6c1.1-0.3,2-0.8,2.9-1.5
		c0.8-0.8,1.3-1.8,1.3-2.9c0-1.1,0.4-2.2,1.2-3c1.3-1.5,4.2-1.8,5.7-3.2c1.6-1.3,3.1-2.8,4.3-4.5l2,1.8c-1.6,1.3-2.9,2.9-4.1,4.7
		c-1.3,1.7-1.3,4.5-2.5,6c-0.7,0.8-1.8,1.4-2.9,1.5c-1.1,0.2-2.1,0.8-2.8,1.6c-0.6,0.9-1.1,1.9-1.3,3c-0.2,1.1-0.7,2.1-1.4,2.9
		c-0.8,0.8-1.7,1.3-2.8,1.6c-1.1,0.3-2,0.8-2.9,1.5c-0.8,0.8-1.3,1.8-1.4,2.9c-0.1,0.5-0.3,1.2-0.4,1.7c-0.1,0.5-0.4,1-0.8,1.3
		c-1.3,1.6-4.1,1.8-5.7,3.2c-1.7,1.3-3.1,2.8-4.3,4.5L106.2,789.2z"/>
	<path class="st0" d="M64.9,809.6c2.8-0.1,5.5-0.5,8.2-1L77,808c1.3-0.2,2.6-0.5,3.8-0.9c2.4-0.8,5-2,7.9-2.5
		c1.4-0.3,2.9-0.4,4.4-0.3c1.5,0.1,2.9,0.4,4.4,0.5l4.9,0.8l-2.8,2.5c-2.2,2.2-3.9,4.9-4.7,7.9c-0.4,1.5-0.9,3-1.3,4.6
		c-0.4,1.5-1,2.9-1.9,4.2c-0.8,1.3-1.7,2.6-2.8,3.7c-1.1,1.2-2.2,2.2-3.2,3.4c-1.1,1.1-2,2.4-2.7,3.7c-0.7,1.4-1.2,2.9-1.6,4.4
		l-0.7,3.7l-3.3-3.8c-1.1-1.1-2-2.2-2.8-3.5c-0.8-1.2-1.5-2.5-1.9-3.9c-0.8-2.6-1.5-5.3-1.9-8c-0.3-1.3-0.7-2.5-1.2-3.7
		c-0.4-1.2-0.9-2.5-1.4-3.7C67.3,814.6,66.2,812.1,64.9,809.6z M67.2,810.9c0.9,2.2,2.2,4.6,3.4,6.9c0.6,1.2,1.3,2.4,2,3.5
		c0.7,1.2,1.4,2.4,2.3,3.5c1.6,2.3,3.7,4.3,4.9,6.3c0.6,1,1.1,2,1.4,3.2c0.3,1.2,0.5,2.4,0.5,3.7l-4.1-0.2c1.2-1,2.2-2.2,3-3.6
		c0.8-1.3,1.4-2.7,1.9-4.2c0.4-1.5,0.9-3,1.3-4.6c0.4-1.5,1-2.9,1.8-4.2c0.8-1.3,1.7-2.6,2.8-3.7c1.1-1.2,2.2-2.2,3.2-3.4
		c2.1-2.3,3.6-5.1,4.2-8.2l2.1,3.5c-1.1,0.5-2.3,1-3.5,1.3c-1.1,0.3-2.3,0.5-3.5,0.4c-2.4,0.1-5.1-0.5-7.9-0.9
		c-1.4-0.2-2.7-0.2-4.1-0.2c-1.3,0-2.7,0-4,0.1C72.3,810.4,69.7,810.6,67.2,810.9L67.2,810.9z"/>
	<path class="st0" d="M14.1,742c1.6-2.9,2.8-5.6,4-8.3c1.3-2.7,2.3-5.5,3-8.3c0.4-1.4,0.6-2.9,1-4.4c0.4-1.6,1-3.2,1.8-4.6
		c0.7-1.5,1.7-2.9,2.8-4.2c1.1-1.3,2.2-2.5,3.2-3.7l2.1-2.8l1,2.6c1.1,2.8,2.9,5.3,5.2,7.3c1.1,1.1,2.2,2.1,3.3,3.2
		c1.1,1.1,2.1,2.3,2.9,3.5c0.8,1.3,1.5,2.6,2.1,4c0.5,1.4,1.1,2.9,1.6,4.4c1,2.9,2.6,5.5,4.7,7.8l2,2l-3.5,0.9
		c-1.5,0.4-3.1,1-4.8,1.5c-1.6,0.4-3.3,0.6-5,0.7c-1.6,0-3.2-0.1-4.8-0.3c-1.5-0.3-3-0.6-4.5-0.8c-2.9-0.4-5.9-0.5-8.8-0.5
		C20.4,741.8,17.4,741.8,14.1,742z M16.4,740.6c2.7-0.1,5.7-0.4,8.7-0.6c3.1-0.3,6.1-0.8,9.1-1.5c1.5-0.4,3.1-0.8,4.6-1.3
		c1.4-0.4,2.8-0.7,4.2-0.8c1.3-0.2,2.7-0.1,4,0.3c1.3,0.3,2.8,0.7,4.2,1l-1.5,2.9c-1.2-2.8-2.9-5.4-5.2-7.5
		c-1.1-1.1-2.2-2.1-3.3-3.2c-1.1-1.1-2-2.3-2.8-3.6c-0.8-1.3-1.5-2.6-2.1-4c-0.5-1.4-1.1-2.9-1.7-4.4c-1-2.9-2.6-5.5-4.7-7.8L33,710
		c-0.4,1.4-0.6,2.9-0.9,4.2c-0.2,1.3-0.7,2.6-1.3,3.7c-0.7,1.2-1.5,2.4-2.4,3.5c-1,1.2-2.1,2.3-3,3.6c-1.9,2.4-3.6,5-5.1,7.8
		C18.9,735.6,17.5,738.1,16.4,740.6L16.4,740.6z"/>
	<path class="st0" d="M26.8,845.1c-1.9,0-3.7-0.4-5.4-1.2c-1.7-0.7-3.4-1.7-4.8-2.8c-1.5-1.3-3-2.7-4.3-4.3c-1.4-1.7-2.2-3.8-2.2-6
		c0-0.5,0.1-1.1,0.2-1.6c0.1-0.5,0.3-1.1,0.4-1.5c0.2-0.5,0.4-1,0.8-1.4c0.3-0.5,0.6-0.9,1-1.3c1.4-1.6,2.7-2.9,3.9-4.5
		c1.3-1.6,2.7-3,4.3-4.2c3.5-2.8,8.5-2.9,12-0.1c1.5,1.3,3,2.7,4.3,4.2c0.3,0.4,0.6,0.8,1,1.1c0.3,0.4,0.6,0.8,1,1.1l1.1,1.1
		c0.4,0.4,0.8,0.8,1.1,1.2c0.4,0.4,0.7,0.8,1,1.3c0.3,0.4,0.5,0.9,0.7,1.4c0.2,0.5,0.4,1,0.4,1.6c0.1,0.5,0.1,1.1,0.1,1.6
		c0,2.2-0.7,4.3-2,6c-1.3,1.6-2.6,3-4.2,4.3c-1.4,1.3-3,2.3-4.8,3C30.6,844.6,28.7,845,26.8,845.1z M26.8,842.4
		c1.6,0,3.1-0.3,4.6-0.8c1.5-0.6,2.7-1.5,3.7-2.7c0.9-1.2,1.4-2.7,1.3-4.2c0-1.4-0.2-2.8-0.2-4c0-1.3,0.1-2.7,0.3-4v-1.2
		c-0.1-0.4-0.2-0.7-0.3-1.2c-0.2-0.3-0.4-0.6-0.5-1l-0.8-0.8c-1.2-0.9-2.7-1.4-4.2-1.4c-1.5,0-2.8,0.2-4,0.2s-2.5-0.1-4-0.1
		c-1.5,0-3,0.5-4.2,1.4c-1.4,1.4-2,3.4-1.6,5.3c0.1,0.4,0.1,0.7,0.2,1.1c0.1,0.3,0.1,0.7,0.1,1c0.1,0.3,0.1,0.7,0,1
		c0,1.3-0.1,2.5-0.1,4c0,1.5,0.6,3,1.5,4.2c1,1.2,2.3,2.1,3.7,2.8C23.8,842.2,25.3,842.4,26.8,842.4L26.8,842.4z"/>
	<path class="st0" d="M137.4,851c-1.9,0-3.7-0.4-5.4-1.2c-1.7-0.7-3.3-1.7-4.7-2.8c-1.6-1.2-3-2.6-4.3-4.2c-1.4-1.7-2.1-3.8-2.2-6
		c0-0.5,0.1-1.1,0.2-1.6c0.1-0.5,0.3-1.1,0.4-1.5c0.2-0.5,0.4-1,0.8-1.4c0.3-0.4,0.6-0.8,1-1.2c1.3-1.6,2.7-2.9,3.9-4.4
		c1.3-1.5,2.7-3,4.3-4.2c3.5-2.8,8.5-2.9,12-0.1c1.5,1.3,3,2.7,4.3,4.2l2,2.2l1.1,1.1c0.4,0.4,0.8,0.8,1.1,1.2
		c0.4,0.4,0.6,0.8,1,1.2c0.3,0.4,0.5,0.9,0.7,1.4c0.2,0.5,0.3,1,0.4,1.5c0.1,0.5,0.1,1.1,0.1,1.6c0,2.2-0.7,4.3-2,6
		c-1.2,1.6-2.6,3-4.1,4.3c-1.4,1.2-3,2.2-4.7,2.9C141.4,850.5,139.4,850.9,137.4,851z M137.4,848.4c1.5,0,3-0.3,4.5-0.8
		c1.4-0.6,2.7-1.6,3.7-2.7c0.9-1.2,1.4-2.7,1.4-4.2c0-1.4-0.2-2.8-0.2-3.9c0-1.3,0.1-2.7,0.3-4v-1.2l-0.3-1.1
		c-0.2-0.3-0.4-0.6-0.5-1c-0.3-0.2-0.5-0.5-0.7-0.8c-1.2-0.9-2.6-1.4-4.1-1.4c-1.4,0-2.7,0.2-3.9,0.3s-2.5-0.2-3.9-0.2
		c-1.5,0-2.9,0.5-4.1,1.4c-1.2,1-1.8,2.5-1.7,4c0,0.4,0,0.7,0.1,1.1c0.1,0.4,0.1,0.7,0.2,1.1c0.1,0.3,0.1,0.7,0.1,1
		c0.1,0.3,0.1,0.6,0,0.9c0,1.3-0.1,2.5-0.1,3.9c0,1.5,0.5,3,1.4,4.2c1,1.2,2.3,2.1,3.7,2.7C134.5,848.2,136,848.4,137.4,848.4
		L137.4,848.4z"/>
	<path class="st0" d="M43.3,910.9c-1.2,0.5-2.3,1.3-3.2,2.2c-1,0.9-1,3.3-2.1,3.8c-0.3,0.2-0.6,0.3-1,0.3c-0.4,0-0.9-0.1-1.3-0.2
		c-0.9-0.2-1.6-0.2-2.1,0.4c-0.5,0.6-0.9,1.3-1.1,2.1c-0.2,0.7-0.6,1.4-1.2,1.9c-0.6,0.4-1.4,0.5-2.1,0.3c-0.7-0.2-1.5-0.1-2.2,0.1
		c-0.3,0.2-0.5,0.4-0.7,0.6c-0.2,0.4-0.4,0.8-0.4,1.2c-0.2,0.9-0.4,1.7-1.1,2c-1.1,0.7-3.2-0.2-4.5,0.5c-1.3,0.3-2.5,1-3.4,2
		l-1.4-2.2c1.2-0.5,2.3-1.3,3.2-2.2c1-0.9,1.1-3.2,2.1-3.8c0.7-0.4,1.5-0.4,2.2-0.1c0.4,0.1,0.8,0.2,1.2,0.2
		c0.3-0.1,0.6-0.2,0.9-0.4c0.5-0.6,0.9-1.3,1.1-2.1c0.2-0.7,0.6-1.4,1.2-1.9c0.6-0.4,1.4-0.5,2.1-0.3c0.7,0.2,1.5,0.2,2.2,0
		c0.7-0.4,1.1-1.1,1.2-1.8c0.1-0.4,0.2-0.9,0.4-1.3c0.1-0.3,0.3-0.6,0.6-0.8c1-0.8,3.2,0.2,4.5-0.4c1.3-0.3,2.5-1,3.4-2L43.3,910.9z
		"/>
	<path class="st0" d="M31.5,970c1.6-2.9,2.8-5.6,4-8.3c1.3-2.7,2.3-5.5,3-8.3c0.4-1.4,0.6-2.9,1-4.4c0.4-1.6,1-3.2,1.8-4.6
		c0.7-1.5,1.7-2.9,2.8-4.2c1.1-1.3,2.2-2.5,3.2-3.7l2.1-2.8l1,2.6c1.1,2.8,2.9,5.3,5.2,7.3c1.1,1.1,2.2,2.1,3.3,3.2
		c1.1,1.1,2.1,2.3,2.9,3.6c0.8,1.3,1.5,2.6,2.1,4c0.6,1.4,1.1,2.9,1.6,4.4c1,2.9,2.6,5.5,4.7,7.8l2,2l-3.5,0.9
		c-1.5,0.4-3.1,1-4.8,1.5c-1.6,0.4-3.3,0.6-5,0.7c-1.6,0-3.2-0.1-4.8-0.3c-1.5-0.3-3-0.6-4.5-0.8c-2.9-0.4-5.9-0.5-8.8-0.5
		C37.8,969.7,34.7,969.7,31.5,970z M33.8,968.6c2.7-0.1,5.7-0.4,8.7-0.6c3.1-0.3,6.1-0.8,9.1-1.5c1.5-0.4,3.1-0.8,4.6-1.3
		c1.4-0.4,2.8-0.7,4.2-0.8c1.3-0.2,2.7-0.1,4,0.3c1.3,0.3,2.8,0.7,4.2,1l-1.5,2.9c-1.2-2.8-3-5.4-5.2-7.5c-1.1-1.1-2.2-2.1-3.3-3.2
		c-1.1-1.1-2-2.3-2.8-3.6c-0.8-1.3-1.5-2.6-2.1-4c-0.5-1.4-1.1-2.9-1.7-4.4c-1-2.9-2.6-5.5-4.7-7.8l3.2-0.2
		c-0.4,1.4-0.6,2.9-0.9,4.2c-0.2,1.3-0.7,2.6-1.4,3.7c-0.7,1.3-1.5,2.4-2.4,3.5c-1,1.2-2.1,2.3-3,3.6c-1.9,2.4-3.6,5-5.1,7.8
		C36.2,963.5,34.8,966.1,33.8,968.6L33.8,968.6z"/>
	<g class="st1">
		<path class="st2" d="M282.9,941.8c1,0.9,2.2,1.5,3.5,1.8c1.3,0.4,3.3-0.7,4.5,0c0.3,0.2,0.5,0.4,0.7,0.7c0.2,0.3,0.3,0.8,0.5,1.2
			c0.2,0.7,0.6,1.4,1.3,1.7c0.7,0.2,1.5,0.2,2.2,0c0.7-0.3,1.5-0.2,2.2,0.2c0.6,0.4,1.1,1.1,1.3,1.8c0.2,0.8,0.6,1.5,1.2,2
			c0.3,0.2,0.6,0.3,0.9,0.4c0.4,0,0.8,0,1.2-0.2c0.9-0.3,1.8-0.4,2.2,0c1.1,0.6,1.4,2.9,2.4,3.7c0.9,1,2.1,1.7,3.4,2l-1.2,2.3
			c-1-0.9-2.2-1.5-3.5-1.8c-1.3-0.4-3.3,0.5-4.5-0.1c-0.7-0.4-1.1-1.1-1.1-1.9c-0.1-0.4-0.3-0.8-0.5-1.2c-0.2-0.3-0.5-0.5-0.8-0.7
			c-0.7-0.2-1.5-0.2-2.2,0c-0.7,0.3-1.5,0.2-2.2-0.2c-0.6-0.4-1.1-1.1-1.3-1.8c-0.2-0.8-0.6-1.5-1.2-2c-0.7-0.4-1.5-0.5-2.2-0.2
			l-1.2,0.3c-0.3,0-0.7,0-1-0.2c-1.2-0.5-1.4-2.9-2.4-3.7c-0.9-1-2.1-1.7-3.4-2L282.9,941.8z"/>
	</g>
	<path class="st0" d="M199.7,939.3c-1.8,2.8-3.2,5.3-4.6,8c-1.4,2.6-2.7,5.2-3.6,8c-0.4,1.3-0.9,2.8-1.4,4.3c-0.5,1.5-1.2,3-1.9,4.4
		c-0.9,1.4-1.9,2.8-3,4c-1.1,1.3-2.4,2.3-3.5,3.6l-2.4,2.6l-0.8-2.7c-1-2.9-2.5-5.5-4.6-7.7c-1-1.2-2.1-2.3-3.1-3.5
		c-1-1.1-1.8-2.4-2.5-3.7c-0.7-1.3-1.3-2.7-1.8-4.1c-0.5-1.5-0.8-3-1.4-4.4c-0.8-2.9-2.2-5.7-4.2-8l-1.9-2.1l3.6-0.7
		c1.6-0.3,3.2-0.7,4.9-1c1.6-0.3,3.3-0.4,5-0.4c1.6,0.1,3.2,0.3,4.7,0.7c1.5,0.3,2.9,0.8,4.4,1.1c2.9,0.6,5.9,0.9,8.8,1.1
		C193.4,939.3,196.4,939.2,199.7,939.3z M197.4,940.6c-2.7-0.2-5.7,0-8.7,0c-3.1,0.1-6.2,0.3-9.3,0.8c-1.6,0.3-3.2,0.6-4.7,1
		c-1.4,0.3-2.8,0.5-4.3,0.5c-1.3,0-2.7-0.1-4-0.5c-1.4-0.5-2.8-0.9-4.2-1.2l1.7-2.8c0.9,2.9,2.5,5.5,4.6,7.7c1,1.2,2.1,2.3,3.1,3.5
		c1,1.1,1.8,2.4,2.5,3.7c0.7,1.3,1.3,2.7,1.8,4.1c0.5,1.5,0.8,3,1.3,4.4c0.7,3,2.2,5.7,4.2,8l-3.2-0.1c0.4-1.3,0.8-2.8,1.1-4.2
		c0.3-1.3,0.8-2.6,1.6-3.7c0.8-1.2,1.7-2.3,2.7-3.3l3.4-3.4c2.1-2.3,4-4.8,5.6-7.5C194.4,945.4,196,943.1,197.4,940.6L197.4,940.6z"
		/>
	<path class="st0" d="M137.6,960.2c-1.2-0.6-2.5-0.9-3.8-0.9c-1.3-0.1-3.1,1.5-4.4,1c-0.4-0.1-0.7-0.3-0.9-0.6
		c-0.3-0.3-0.5-0.7-0.7-1.1c-0.3-0.7-1-1.2-1.7-1.3c-0.8,0-1.5,0.2-2.2,0.6c-0.6,0.4-1.4,0.5-2.1,0.4c-0.7-0.3-1.3-0.8-1.6-1.4
		c-0.4-0.7-0.9-1.2-1.6-1.6c-0.3-0.1-0.7-0.2-1-0.1c-0.4,0.1-0.8,0.3-1.2,0.5c-0.8,0.5-1.6,0.8-2.1,0.5c-1.2-0.4-2.1-2.5-3.2-3
		c-1.1-0.7-2.4-1.1-3.7-1.2l0.7-2.6c1.2,0.6,2.5,0.9,3.8,0.9c1.3,0.1,3-1.3,4.4-1c0.8,0.2,1.4,0.8,1.6,1.6c0.2,0.4,0.4,0.8,0.7,1.1
		c0.2,0.3,0.6,0.4,0.9,0.4c0.8,0,1.5-0.2,2.2-0.6c0.6-0.4,1.4-0.5,2.1-0.4c0.7,0.3,1.3,0.7,1.6,1.4c0.4,0.7,0.9,1.2,1.6,1.6
		c0.7,0.2,1.5,0.1,2.1-0.4c0.4-0.2,0.8-0.4,1.2-0.5c0.3-0.1,0.7-0.2,1.1-0.1c1.3,0.2,2.1,2.5,3.2,3c1.1,0.7,2.4,1.1,3.7,1.2
		L137.6,960.2z"/>
	<path class="st0" d="M246.8,929.5c-1.5,1.4-2.8,3.1-3.6,5c-1.1,1.8-0.6,4.6-2,6.2c-0.4,0.4-0.8,0.7-1.3,1c-0.4,0.3-1.1,0.4-1.6,0.7
		c-1.1,0.3-2,1-2.6,1.9c-0.5,1-0.8,2-1,3.1c-0.1,1.1-0.5,2.1-1.2,3c-0.7,0.8-1.6,1.5-2.6,1.9c-1.1,0.4-2,1-2.8,1.8
		c-0.7,0.8-1.1,1.9-1.2,3c0,1.1-0.3,2.2-1,3.1c-1.2,1.6-4,2.2-5.4,3.7c-1.6,1.3-2.9,3-3.8,4.8l-2.1-1.6c1.5-1.4,2.7-3.1,3.6-5
		c1.1-1.8,0.8-4.6,2-6.2c0.5-0.9,1.6-1.3,2.8-1.8c1.1-0.3,2-1,2.7-1.9c0.5-1,0.8-2,1-3.1c0.1-1.1,0.5-2.1,1.2-3
		c0.7-0.8,1.6-1.5,2.6-1.9c1.1-0.4,2-1,2.8-1.8c0.7-0.8,1.1-1.8,1.2-2.9c0-0.6,0.1-1.2,0.3-1.7c0.2-0.5,0.4-1,0.7-1.4
		c1.2-1.7,4-2.1,5.4-3.7c1.6-1.4,2.9-3,3.9-4.8L246.8,929.5z"/>
	<path class="st0" d="M260.4,921.9c-1.9,0-3.7-0.4-5.4-1.1c-1.7-0.7-3.3-1.7-4.7-2.8c-1.5-1.3-2.9-2.7-4.3-4.2
		c-1.4-1.7-2.1-3.8-2.2-6c0-0.5,0.1-1.1,0.2-1.6c0.1-0.5,0.3-1.1,0.4-1.5c0.2-0.5,0.4-1,0.8-1.4c0.3-0.4,0.6-0.8,1-1.2
		c1.3-1.6,2.7-2.9,3.9-4.4c1.3-1.5,2.7-2.9,4.3-4.3c3.5-2.8,8.5-2.9,12-0.1c1.5,1.3,3,2.7,4.3,4.2l2,2.2l1.1,1.1
		c0.4,0.4,0.8,0.8,1.1,1.2c0.3,0.4,0.6,0.8,1,1.2c0.3,0.4,0.5,0.9,0.7,1.4c0.2,0.5,0.3,1,0.4,1.5c0.1,0.5,0.1,1.1,0.1,1.6
		c0,2.2-0.7,4.2-2,6c-2.3,3.1-5.4,5.5-8.8,7.2C264.4,921.3,262.4,921.7,260.4,921.9z M260.4,919.2c1.5,0,3.1-0.3,4.5-0.8
		c1.4-0.6,2.7-1.5,3.7-2.7c0.9-1.2,1.4-2.7,1.4-4.2c0-1.4-0.2-2.8-0.2-3.9c0-1.3,0.1-2.7,0.3-4v-1.2l-0.3-1.1
		c-0.2-0.3-0.4-0.6-0.5-1c-0.3-0.2-0.5-0.5-0.7-0.8c-1.2-0.9-2.6-1.4-4.1-1.4c-1.4,0-2.7,0.2-3.9,0.2s-2.5-0.2-3.9-0.2
		c-1.5,0-2.9,0.5-4.1,1.4c-1.2,1-1.8,2.5-1.7,4c0,0.4,0,0.7,0.1,1.1c0.1,0.4,0.1,0.7,0.2,1.1c0.1,0.3,0.1,0.7,0.1,1
		c0.1,0.3,0.1,0.6,0,0.9c0,1.3-0.1,2.5-0.1,3.9c0,1.5,0.5,3,1.4,4.2c1,1.2,2.3,2.1,3.7,2.7C257.5,919,258.9,919.3,260.4,919.2
		L260.4,919.2z"/>
	<g class="st1">
		<path class="st2" d="M78.5,541.1c1.1-0.7,2-1.7,2.7-2.8c0.8-1.1,0.2-3.4,1.3-4.3c0.3-0.2,0.6-0.4,0.9-0.5c0.4-0.1,0.9-0.1,1.3-0.1
			c0.8,0.1,1.5-0.2,2-0.8c0.4-0.7,0.6-1.4,0.6-2.2c0.1-0.9,0.2-1.6,0.8-2c0.6-0.5,1.3-0.8,2.1-0.8c0.8,0,1.5-0.2,2.2-0.6
			c0.3-0.2,0.5-0.5,0.6-0.8c0.2-0.4,0.2-0.8,0.2-1.2c-0.1-0.8,0.1-1.6,0.6-2.2c0.9-0.9,3.2-0.5,4.3-1.3c1.2-0.7,2.2-1.6,2.9-2.7
			l1.9,1.8c-1.1,0.7-2,1.7-2.7,2.8c-0.8,1.1-0.4,3.3-1.3,4.3c-0.5,0.6-1.3,0.9-2.1,0.6c-0.4,0-0.9,0-1.3,0.1
			c-0.3,0.1-0.6,0.3-0.8,0.6c-0.4,0.7-0.6,1.4-0.6,2.2c-0.1,0.9-0.2,1.6-0.8,2c-0.6,0.5-1.3,0.8-2.1,0.8c-0.8,0-1.5,0.2-2.2,0.6
			c-0.6,0.5-0.9,1.2-0.8,2c0,0.4,0,0.9-0.1,1.3c0,0.4-0.2,0.7-0.5,0.9c-0.8,1-3.2,0.5-4.3,1.3c-1.2,0.7-2.2,1.6-2.9,2.7L78.5,541.1z
			"/>
	</g>
	<g class="st1">
		<path class="st2" d="M83,561c2.1,1.3,4.3,2.3,6.6,3c2.3,0.8,5.3,0.2,7.5,1.3c0.6,0.3,1.1,0.6,1.5,1.1c0.5,0.5,0.8,1.1,1.2,1.5
			c0.7,1.1,1.7,1.9,2.9,2.4c1.2,0.5,2.5,0.7,3.8,0.6c1.3,0,2.5,0.3,3.7,0.8c1.1,0.6,2.1,1.5,2.9,2.5c0.8,1,1.7,1.9,2.8,2.6
			c1.1,0.6,2.4,0.8,3.7,0.7c1.3-0.2,2.6,0,3.7,0.6c2.2,1.1,3.5,3.8,5.5,5c1.1,0.7,2,1.3,3.1,1.9c1.1,0.6,2.2,1.1,3.3,1.5l-1.2,2.4
			c-1-0.7-2.1-1.3-3.2-1.8c-1.1-0.5-2.3-0.9-3.4-1.3c-2.3-0.9-5.3-0.1-7.5-1.3c-1.2-0.6-2.1-1.5-2.8-2.6c-0.6-1.1-1.6-2-2.8-2.5
			c-1.2-0.5-2.5-0.7-3.8-0.6c-1.3,0-2.5-0.3-3.7-0.8c-1.1-0.6-2.1-1.5-2.9-2.5c-0.8-1-1.8-1.9-2.8-2.6c-1.1-0.7-2.4-1-3.7-0.8h-2
			c-0.6,0-1.3-0.2-1.8-0.5c-2.3-0.9-3.5-3.8-5.6-5c-2-1.4-4.2-2.5-6.4-3.3L83,561z"/>
	</g>
	<g class="st1">
		<path class="st2" d="M26.1,588.6c-1.9-0.2-3.7-0.8-5.3-1.7c-1.6-0.9-3.1-2.1-4.4-3.4c-1.4-1.4-2.7-3-3.9-4.7
			c-1.1-1.9-1.6-4-1.5-6.2l0.3-1.6c0.2-0.5,0.4-1,0.7-1.5c0.3-0.5,0.6-0.9,0.9-1.4c0.3-0.4,0.6-0.8,1-1.2c1.6-1.4,3.1-2.7,4.4-4
			c1.4-1.4,3-2.7,4.6-3.7c1.9-1.1,4-1.6,6.2-1.5c2.2,0.3,4.2,1.2,5.7,2.7c1.4,1.5,2.7,3.1,3.9,4.7l0.9,1.2l0.9,1.2l0.9,1.2
			c0.3,0.4,0.6,0.9,0.9,1.3s0.5,0.9,0.8,1.4c0.3,0.5,0.5,1,0.6,1.6c0.2,0.5,0.2,1.1,0.2,1.6c0,0.5,0,1-0.1,1.6
			c-0.3,2.1-1.3,4.1-2.7,5.7c-1.4,1.4-3,2.7-4.7,3.8c-1.6,1-3.3,1.8-5.1,2.4C29.6,588.6,27.8,588.8,26.1,588.6z M26.4,586
			c1.5,0.2,3.1,0.1,4.6-0.3c1.5-0.4,2.8-1.2,3.9-2.3c1-1.1,1.7-2.5,1.9-4c0.2-1.4,0.2-2.8,0.3-4s0.5-2.5,0.7-4
			c0.1-0.4,0.1-0.8,0.1-1.2c0-0.4,0-0.7-0.1-1.1c-0.1-0.4-0.2-0.8-0.4-1.1l-0.6-0.9c-1.1-1.1-2.5-1.7-4-1.9
			c-1.4-0.2-2.7-0.2-3.9-0.3s-2.5-0.4-4-0.6c-1.5-0.2-3,0.1-4.3,1c-1.3,0.9-2.1,2.4-2.1,3.9c-0.1,0.4-0.1,0.7,0,1.1
			c0,0.4,0,0.7,0.1,1.1c0.1,0.3,0.1,0.7,0,1c0,0.3,0,0.6-0.1,0.9c-0.2,1.2-0.4,2.5-0.5,3.9c-0.2,1.5,0.2,3.1,1,4.4
			c0.8,1.3,2,2.4,3.4,3.1C23.6,585.4,24.9,585.8,26.4,586L26.4,586z"/>
	</g>
	<g class="st1">
		<path class="st2" d="M22.1,650c-1.8-0.2-3.5-0.7-5-1.7c-1.6-0.9-3-1.9-4.2-3.3c-1.4-1.3-2.6-2.8-3.6-4.4c-1.1-1.7-1.6-3.8-1.5-5.9
			c0.1-0.5,0.2-1.1,0.3-1.5c0.2-0.5,0.4-1,0.6-1.4c0.2-0.5,0.5-0.9,0.9-1.3c0.3-0.4,0.7-0.8,1-1.2c1.5-1.3,2.9-2.4,4.3-3.7
			c1.4-1.3,2.8-2.5,4.4-3.7c1.7-1.1,3.8-1.6,5.9-1.5c2.1,0.3,4,1.2,5.5,2.7c1.3,1.4,2.5,2.8,3.6,4.4l0.8,1.1l0.8,1.1
			c0.3,0.4,0.6,0.7,0.9,1.1l0.9,1.2c0.3,0.4,0.6,0.8,0.8,1.3c0.4,0.9,0.7,2,0.7,3v1.5c-0.3,2.1-1.2,4-2.6,5.5
			c-1.3,1.4-2.8,2.6-4.4,3.7c-1.5,0.9-3.1,1.7-4.8,2.2C25.7,649.9,23.9,650.2,22.1,650z M22.3,647.4c1.4,0.2,2.9,0.1,4.3-0.3
			c1.4-0.4,2.7-1.2,3.7-2.2c1-1,1.6-2.3,1.7-3.7c0.2-1.3,0-2.5,0.2-3.7s0.5-2.3,0.7-3.7c0.1-0.7,0.1-1.5,0-2.2
			c-0.1-0.4-0.2-0.7-0.4-1l-0.6-0.9c-1-1-2.3-1.6-3.7-1.7c-1.3-0.1-2.5,0-3.7-0.2s-2.3-0.5-3.6-0.6c-1.4-0.2-2.9,0.1-4.1,0.8
			c-1.2,0.8-1.9,2.2-2,3.6c-0.1,0.4-0.1,0.7,0,1.1c0,0.4,0.1,0.6,0.1,1v0.9c0,0.3,0,0.6-0.1,0.9c-0.1,1.2-0.4,2.3-0.5,3.6
			c-0.2,1.4,0.1,2.9,0.8,4.1c0.8,1.2,1.9,2.2,3.3,2.8C19.5,646.9,20.9,647.3,22.3,647.4L22.3,647.4z"/>
	</g>
	<g class="st1">
		<path class="st2" d="M91.8,629.1c-1.8-0.2-3.5-0.7-5-1.6c-1.6-0.9-3-2-4.3-3.3c-1.4-1.3-2.6-2.8-3.7-4.4c-1.1-1.8-1.6-3.8-1.5-5.9
			c0.1-0.5,0.2-1.1,0.3-1.5c0.2-0.5,0.4-0.9,0.6-1.4c0.2-0.5,0.5-0.9,0.9-1.3c0.3-0.4,0.7-0.8,1-1.2c1.5-1.3,2.9-2.4,4.3-3.7
			c1.4-1.3,2.8-2.5,4.4-3.6c1.7-1.1,3.8-1.6,5.9-1.5c2.1,0.3,4,1.2,5.5,2.6c1.3,1.4,2.5,2.8,3.7,4.4l0.8,1.1l0.8,1.1
			c0.3,0.4,0.6,0.7,0.9,1.1l0.9,1.2c0.3,0.4,0.6,0.8,0.8,1.3c0.4,0.9,0.7,2,0.7,3v1.5c-0.2,2.1-1.2,4-2.7,5.5
			c-1.3,1.4-2.8,2.6-4.4,3.7c-1.5,0.9-3.1,1.7-4.8,2.3C95.4,629.1,93.6,629.3,91.8,629.1z M92.1,626.5c1.4,0.2,2.9,0.1,4.3-0.3
			c1.4-0.4,2.7-1.2,3.7-2.2c1-1,1.6-2.3,1.7-3.7c0.2-1.3,0-2.5,0.2-3.7s0.5-2.3,0.7-3.7c0.1-0.7,0.1-1.5,0-2.2
			c-0.1-0.4-0.2-0.7-0.4-1l-0.6-0.9c-1-1-2.3-1.6-3.7-1.7c-1.3-0.1-2.5,0-3.7-0.2c-1.2-0.2-2.4-0.4-3.6-0.6
			c-1.4-0.2-2.9,0.1-4.1,0.8c-1.2,0.8-1.9,2.2-2,3.6c-0.1,0.4-0.1,0.7,0,1.1c0,0.4,0.1,0.6,0.1,1v0.9c0,0.3,0,0.6-0.1,0.9
			c-0.1,1.2-0.4,2.3-0.5,3.6c-0.2,1.4,0.1,2.9,0.8,4.1c0.8,1.3,1.9,2.2,3.2,2.9C89.3,626,90.7,626.4,92.1,626.5L92.1,626.5z"/>
	</g>
	<g class="st1">
		<path class="st2" d="M13.2,673.8c1,0.9,2.3,1.4,3.6,1.6c1.3,0.3,3.4-0.9,4.5-0.2c0.3,0.2,0.6,0.5,0.8,0.8c0.2,0.4,0.4,0.8,0.5,1.2
			c0.3,0.9,0.7,1.5,1.4,1.6c0.8,0.1,1.6,0,2.3-0.2c0.7-0.2,1.5-0.2,2.2,0.1c0.6,0.4,1.1,1,1.3,1.7c0.2,0.8,0.7,1.5,1.3,1.9
			c0.3,0.2,0.6,0.3,0.9,0.3c0.4,0,0.8-0.1,1.2-0.3c0.9-0.4,1.7-0.5,2.2-0.1c1.2,0.6,1.5,2.9,2.6,3.6c1,0.9,2.2,1.5,3.5,1.9l-1.2,2.4
			c-1-0.9-2.3-1.4-3.6-1.6c-1.3-0.3-3.2,0.7-4.5,0.2c-0.6-0.2-1-0.9-1.3-1.9c-0.2-0.4-0.3-0.9-0.5-1.2c-0.2-0.3-0.5-0.5-0.8-0.6
			c-0.8-0.1-1.6-0.1-2.3,0.2c-0.7,0.2-1.5,0.2-2.2-0.1c-0.6-0.4-1.1-1-1.4-1.7c-0.2-0.8-0.7-1.4-1.3-1.9c-0.7-0.3-1.5-0.3-2.2-0.1
			l-1.2,0.3c-0.4,0-0.7,0-1.1-0.1c-1.3-0.4-1.5-2.9-2.6-3.6c-1-0.9-2.2-1.6-3.5-1.9L13.2,673.8z"/>
	</g>
	<g class="st1">
		<path class="st2" d="M55.3,595.9c-1.3,0.3-2.5,1-3.5,1.9c-1.1,0.8-1.4,3.2-2.6,3.6c-0.3,0.1-0.7,0.1-1,0.2
			c-0.4-0.1-0.9-0.2-1.2-0.3c-0.7-0.3-1.4-0.3-2.1,0c-0.5,0.5-1,1.1-1.3,1.8c-0.2,0.7-0.7,1.3-1.3,1.7c-0.7,0.3-1.5,0.3-2.2,0
			c-0.7-0.3-1.5-0.3-2.2-0.2c-0.3,0.1-0.6,0.3-0.8,0.6c-0.2,0.4-0.4,0.8-0.5,1.2c-0.3,0.9-0.6,1.7-1.3,1.8c-1.2,0.6-3.2-0.5-4.4-0.2
			c-1.3,0.2-2.5,0.8-3.6,1.6l-1.2-2.4c1.3-0.3,2.5-1,3.5-1.9c1.1-0.8,1.4-3.1,2.6-3.6c0.5-0.4,1.3-0.2,2.2,0.2
			c0.4,0.2,0.8,0.3,1.2,0.2l1-0.3c0.5-0.5,1-1.1,1.3-1.8c0.2-0.7,0.7-1.3,1.3-1.7c0.7-0.3,1.5-0.3,2.2,0c0.7,0.3,1.5,0.3,2.2,0.2
			c0.7-0.1,1.1-0.8,1.4-1.6c0.2-0.4,0.3-0.8,0.5-1.2s0.5-0.5,0.7-0.8c1.1-0.7,3.2,0.5,4.4,0.2c1.3-0.2,2.6-0.8,3.6-1.6L55.3,595.9z"
			/>
	</g>
	<g class="st1">
		<path class="st2" d="M53,706c1.5-1,2.8-2.4,3.7-3.9c1.1-1.4,0.8-4.2,2.2-5.3c0.3-0.3,0.7-0.6,1.2-0.7l1.5-0.3
			c1-0.1,1.9-0.5,2.5-1.3c0.6-0.8,1-1.7,1.1-2.7c0.1-2,1.7-3.6,3.7-3.8c1-0.1,1.9-0.5,2.7-1.1c0.4-0.3,0.7-0.7,0.9-1.1
			c0.2-0.5,0.4-1,0.4-1.6c0-1,0.4-2,1.2-2.7c1.3-1.3,3.9-1.2,5.3-2.3c1.5-1,2.8-2.3,3.9-3.8l1.9,1.8c-1.5,1-2.8,2.4-3.7,3.9
			c-1.1,1.4-1,4.1-2.2,5.3c-0.7,0.7-1.7,1.1-2.7,1.1c-0.5,0-1,0.1-1.5,0.4c-0.4,0.2-0.8,0.5-1.1,0.9c-0.6,0.8-1,1.7-1.1,2.7
			c-0.1,1-0.5,1.9-1.2,2.6c-0.7,0.6-1.6,1.1-2.5,1.3c-1,0.1-1.9,0.5-2.7,1.1c-0.8,0.7-1.2,1.6-1.3,2.6l-0.3,1.5
			c-0.1,0.5-0.3,0.9-0.7,1.2c-1.2,1.4-3.9,1.2-5.3,2.3c-1.5,1-2.8,2.3-3.9,3.7L53,706z"/>
	</g>
	<g class="st1">
		<path class="st2" d="M44.8,653.3c1.9-2.7,3.5-5.2,4.9-7.8c1.5-2.5,2.8-5.1,3.9-7.8c0.5-1.3,1-2.8,1.5-4.2c0.6-1.5,1.3-3,2.2-4.3
			c0.9-1.4,2-2.7,3.2-3.9c1.2-1.2,2.5-2.2,3.7-3.4l2.5-2.5l0.7,2.7c0.9,2.9,2.3,5.6,4.3,7.9c0.9,1.2,2,2.4,2.9,3.6
			c0.9,1.2,1.7,2.4,2.3,3.8c0.6,1.3,1.2,2.7,1.7,4.1c0.4,1.5,0.7,3,1.2,4.5c0.7,3,2,5.7,3.8,8.2l1.8,2.2l-3.5,0.6
			c-1.6,0.2-3.2,0.6-4.9,0.8c-1.7,0.2-3.3,0.3-5,0.2c-1.6-0.1-3.2-0.4-4.7-0.8c-1.5-0.4-2.9-0.9-4.3-1.3c-2.9-0.7-5.8-1.2-8.7-1.5
			C51.2,653.6,48.2,653.5,44.8,653.3z M47.2,652.1c2.7,0.3,5.7,0.3,8.7,0.4c3.1,0.1,6.2-0.1,9.3-0.4c1.6-0.2,3.2-0.5,4.7-0.8
			c1.4-0.2,2.9-0.3,4.3-0.3c1.4,0,2.7,0.2,4,0.7c1.3,0.5,2.7,1,4.1,1.4l-1.8,2.7c-0.8-2.9-2.3-5.6-4.3-7.9c-0.9-1.2-2-2.4-2.9-3.6
			c-0.9-1.2-1.7-2.4-2.3-3.8c-0.6-1.4-1.2-2.8-1.6-4.2c-0.4-1.5-0.7-3-1.2-4.5c-0.6-3-1.9-5.8-3.8-8.2l3.2,0.2
			c-0.5,1.3-0.9,2.8-1.4,4.1c-0.4,1.3-1,2.5-1.8,3.6c-0.8,1.1-1.8,2.2-2.8,3.2c-1.1,1.1-2.3,2.1-3.5,3.2c-2.2,2.2-4.2,4.6-5.9,7.2
			C50.5,647.3,48.7,649.6,47.2,652.1L47.2,652.1z"/>
	</g>
	<path class="st0" d="M89.5,192.4c3,1.4,5.8,2.4,8.7,3.4c2.7,1.1,5.6,1.9,8.5,2.4c1.4,0.2,3,0.4,4.4,0.8c1.6,0.3,3.2,0.8,4.7,1.4
		c1.6,0.7,3,1.5,4.4,2.5c1.4,1,2.7,2,3.9,2.8l2.9,1.9l-2.5,1.2c-2.7,1.3-5.1,3.3-7,5.6c-1,1.2-1.9,2.4-2.9,3.6
		c-1,1.1-2.1,2.2-3.4,3.1c-1.2,0.9-2.5,1.7-3.8,2.4c-1.3,0.6-2.8,1.4-4.2,2c-2.8,1.2-5.3,3-7.4,5.2l-1.8,2.2l-1.2-3.3
		c-0.5-1.5-1.3-3-1.8-4.7c-0.6-1.6-0.9-3.2-1-4.9c-0.1-1.6-0.1-3.2,0-4.9c0.2-1.5,0.3-3.1,0.4-4.6c0.2-2.9,0.2-5.9-0.1-8.8
		C90.3,198.5,90,195.4,89.5,192.4z M91.1,194.5c0.3,2.7,0.8,5.7,1.2,8.6c0.5,3,1.2,6,2.1,9c0.5,1.5,1.1,3,1.6,4.5s0.9,2.7,1.2,4.1
		c0.3,1.3,0.3,2.7,0,4c-0.2,1.3-0.5,2.8-0.7,4.2l-3-1.3c2.7-1.4,5.1-3.3,7.1-5.7c1-1.2,1.9-2.4,2.9-3.6c1-1.1,2.1-2.2,3.4-3.1
		c1.2-0.9,2.5-1.7,3.8-2.4c1.3-0.7,2.8-1.4,4.2-2c2.8-1.3,5.3-3.1,7.4-5.2l0.5,3.2c-1.4-0.2-3-0.4-4.3-0.6c-1.3-0.2-2.6-0.5-3.8-1.1
		c-1.3-0.5-2.6-1.2-3.7-2.1c-1.2-1-2.5-1.9-3.9-2.7c-2.6-1.7-5.3-3.3-8.1-4.6C96.3,196.8,93.7,195.5,91.1,194.5L91.1,194.5z"/>
	<g class="st1">
		<path class="st2" d="M105.4,134.9c0.6,1.2,1.6,2.2,2.8,2.8c1.1,0.8,3.5,0.4,4.2,1.6c0.2,0.3,0.4,0.6,0.4,1c0.1,0.4,0,0.9,0,1.3
			c0,0.9,0.1,1.7,0.7,2c0.7,0.4,1.4,0.6,2.2,0.6c0.7,0.1,1.5,0.4,2,0.9c0.4,0.6,0.6,1.3,0.6,2.1c-0.1,0.8,0.1,1.6,0.5,2.3
			c0.2,0.3,0.4,0.5,0.7,0.6c0.4,0.1,0.8,0.2,1.3,0.2c1,0,1.8,0.2,2.1,0.7c0.9,1,0.3,3.3,1.1,4.3c0.6,1.2,1.5,2.3,2.6,3.1l-2,1.8
			c-0.6-1.2-1.6-2.2-2.8-2.8c-1.1-0.8-3.2-0.5-4.2-1.6c-0.5-0.6-0.7-1.5-0.5-2.2c0-0.4,0-0.9,0-1.3c-0.1-0.3-0.3-0.6-0.5-0.9
			c-0.7-0.4-1.4-0.6-2.2-0.7c-0.7-0.1-1.5-0.4-2-0.9c-0.4-0.6-0.6-1.3-0.6-2.1c0.1-0.8-0.1-1.6-0.5-2.3c-0.5-0.6-1.2-0.9-2-0.9
			l-1.2-0.2c-0.4-0.1-0.7-0.3-1-0.5c-1.1-0.9-0.3-3.3-1.1-4.3c-0.6-1.2-1.5-2.2-2.6-3L105.4,134.9z"/>
	</g>
	<path class="st0" d="M46.2,210.8c-1.5,1.4-2.8,3.1-3.7,5c-1.1,1.8-0.7,4.6-2,6.2c-0.4,0.4-0.8,0.7-1.3,1c-0.4,0.3-1.1,0.4-1.6,0.7
		c-1.1,0.3-2,1-2.6,1.9c-0.5,1-0.8,2-1,3.1c-0.1,1.1-0.5,2.1-1.2,3c-0.7,0.8-1.6,1.5-2.6,1.9c-1.1,0.4-2,1-2.8,1.8
		c-0.7,0.8-1.1,1.9-1.2,3c0,1.1-0.3,2.2-1,3.1c-1.2,1.6-4,2.1-5.4,3.6c-1.6,1.4-2.9,3.1-3.7,5l-2.1-1.6c1.5-1.4,2.8-3.1,3.6-5
		c1.1-1.8,0.8-4.6,2-6.2c0.5-0.9,1.6-1.3,2.8-1.8c1.1-0.3,2-1,2.7-1.9c0.5-1,0.8-2,1-3.1c0.1-1.1,0.5-2.1,1.2-3
		c0.7-0.8,1.6-1.5,2.6-1.9c1.1-0.4,2-1.1,2.8-1.9c0.7-0.8,1.1-1.8,1.2-2.9c0-0.6,0.1-1.2,0.3-1.7c0.2-0.5,0.4-1,0.7-1.4
		c1.2-1.7,4-2.1,5.4-3.7c1.5-1.4,2.8-3,3.8-4.8L46.2,210.8z"/>
	<g class="st1">
		<path class="st2" d="M7.8,361.2c1.4,1.1,3.1,1.9,4.8,2.5c1.7,0.7,4.3-0.3,5.7,0.7c0.4,0.2,0.8,0.6,1,1c0.3,0.4,0.5,0.9,0.7,1.4
			c0.3,1,1.1,1.7,2,2.1c0.9,0.4,1.9,0.5,2.9,0.3c1-0.2,2,0,2.8,0.5c0.8,0.5,1.5,1.2,1.9,2.1c0.4,0.9,1,1.7,1.8,2.3
			c0.4,0.3,0.8,0.4,1.3,0.5c0.5,0.1,1.1,0.1,1.6,0c1-0.3,2-0.1,2.9,0.4c1.6,0.9,2.3,3.4,3.8,4.4c1.4,1.1,3,2,4.7,2.6l-1.2,2.3
			c-1.4-1.1-3.1-1.9-4.8-2.4c-1.7-0.7-4.2,0.1-5.7-0.7c-0.9-0.5-1.5-1.3-1.8-2.3c-0.2-0.5-0.4-1-0.8-1.4c-0.3-0.3-0.7-0.6-1.1-0.8
			c-0.9-0.4-1.9-0.5-2.9-0.3c-1,0.2-2,0-2.8-0.5c-0.8-0.5-1.5-1.2-1.9-2.1c-0.4-0.9-1-1.7-1.8-2.3c-0.8-0.6-1.8-0.8-2.8-0.6
			c-0.5,0-1.1,0.1-1.6,0.1c-0.5,0-1-0.1-1.4-0.3c-1.7-0.8-2.3-3.4-3.8-4.4c-1.4-1.2-2.9-2.1-4.6-2.7L7.8,361.2z"/>
	</g>
	<g class="st1">
		<path class="st2" d="M31.3,143.1c-2.4-0.2-4.8-1-6.9-2.2c-2.1-1.2-4.1-2.7-5.8-4.4c-1.7-1.9-3.2-4-4.6-6.1
			c-1.4-2.4-1.9-5.2-1.6-7.9c0.1-0.7,0.3-1.3,0.4-2c0.2-0.7,0.5-1.3,0.8-1.9c0.3-0.6,0.7-1.2,1.1-1.7c0.4-0.6,0.8-1.1,1.3-1.6
			c1.8-1.9,3.7-3.5,5.4-5.3c1.9-1.7,4-3.3,6.3-4.6c4.9-2.8,11.1-2.2,15.3,1.5c1.9,1.7,3.6,3.6,5.1,5.7c0.4,0.5,0.7,1,1.1,1.5
			s0.7,1,1.1,1.5s0.7,1,1.1,1.6c0.4,0.5,0.7,1.1,1,1.7c0.3,0.6,0.6,1.2,0.9,1.8s0.4,1.3,0.6,1.9c0.2,0.7,0.3,1.4,0.3,2.1
			c0.1,0.7,0,1.4-0.1,2.1c-0.4,2.7-1.5,5.3-3.3,7.3c-1.7,1.9-3.6,3.6-5.7,5.1c-2,1.4-4.2,2.4-6.5,3.1
			C36.3,143,33.8,143.3,31.3,143.1z M31.5,140.4c2.1,0.2,4.3,0,6.3-0.6c2-0.6,3.9-1.6,5.4-3.2c1.5-1.5,2.5-3.3,3-5.3
			c0.4-1.8,0.6-3.7,0.7-5.6c0-0.4,0-0.9,0.1-1.3c0-0.5,0.1-0.9,0.2-1.4c0-0.5,0.1-0.9,0.2-1.4c0.1-0.5,0.1-1,0.1-1.5
			c0-0.5,0-1.1-0.1-1.6c-0.1-0.6-0.2-1-0.3-1.5c-0.1-0.5-0.4-1-0.6-1.4c-0.3-0.5-0.6-0.9-0.9-1.3c-1.4-1.6-3.3-2.6-5.3-3
			c-1.8-0.4-3.7-0.6-5.6-0.7c-1.9-0.3-3.8-0.4-5.7-0.3c-2.1,0-4.1,0.7-5.7,1.9c-1.7,1.2-2.9,3.1-3.1,5.2c-0.1,0.5-0.2,1-0.2,1.5
			c0,0.5-0.1,1-0.1,1.4s-0.1,0.9-0.1,1.4c0,0.4-0.1,0.9-0.2,1.3c-0.3,1.9-0.4,3.8-0.3,5.7c0,2.1,0.6,4.1,1.8,5.8
			c1.1,1.8,2.8,3.2,4.6,4.1C27.4,139.7,29.4,140.2,31.5,140.4L31.5,140.4z"/>
	</g>
	<g class="st1">
		<path class="st2" d="M40.6,365.4c-1.9-0.2-3.7-0.8-5.3-1.7c-1.6-0.9-3.1-2.1-4.5-3.4c-1.4-1.4-2.7-3-3.9-4.7
			c-1.1-1.9-1.6-4-1.5-6.2l0.3-1.6c0.2-0.5,0.4-1,0.7-1.5c0.3-0.5,0.6-0.9,0.9-1.4c0.3-0.4,0.6-0.8,1-1.2c1.6-1.4,3.1-2.7,4.4-3.9
			c1.4-1.4,3-2.7,4.7-3.8c1.9-1.1,4-1.6,6.2-1.5c2.2,0.3,4.2,1.2,5.7,2.7c1.4,1.5,2.7,3,3.8,4.7l0.9,1.2l0.9,1.2l0.9,1.2
			c0.3,0.4,0.6,0.9,0.9,1.3s0.5,0.9,0.8,1.4c0.3,0.5,0.5,1,0.6,1.6c0.2,0.5,0.2,1.1,0.2,1.6c0,0.5,0,1.1-0.1,1.6
			c-0.3,2.1-1.3,4.1-2.7,5.7c-1.4,1.4-3,2.7-4.7,3.9c-1.6,1-3.3,1.8-5.1,2.5C44.2,365.5,42.4,365.6,40.6,365.4z M40.9,362.8
			c1.5,0.2,3.1,0.1,4.6-0.4c1.5-0.4,2.8-1.2,3.9-2.3c1-1.1,1.7-2.5,1.9-4c0.2-1.4,0.2-2.8,0.3-4s0.5-2.5,0.7-4
			c0.1-0.4,0.1-0.8,0.1-1.2c0-0.4,0-0.7-0.1-1.1c-0.1-0.4-0.2-0.8-0.4-1.1l-0.6-0.9c-1.1-1.1-2.5-1.7-4-1.9
			c-1.4-0.2-2.7-0.2-3.9-0.3s-2.5-0.4-4-0.6c-1.5-0.2-3,0.1-4.3,1c-1.3,0.9-2.1,2.4-2.1,3.9c-0.1,0.4-0.1,0.7,0,1.1
			c0,0.4,0,0.7,0.1,1.1c0.1,0.3,0.1,0.7,0,1c0,0.3,0,0.6-0.1,0.9c-0.2,1.2-0.4,2.5-0.5,3.9c-0.2,1.5,0.2,3.1,1,4.4
			c0.8,1.3,2,2.4,3.4,3.1C38.1,362.3,39.4,362.7,40.9,362.8L40.9,362.8z"/>
	</g>
	<g class="st1">
		<path class="st2" d="M16.3,296.9c-1.8-0.2-3.5-0.8-5-1.6c-1.6-0.9-3-2-4.2-3.3c-1.4-1.3-2.6-2.8-3.6-4.4c-1.1-1.7-1.6-3.8-1.5-5.9
			c0.1-0.5,0.2-1.1,0.3-1.5s0.4-0.9,0.6-1.4c0.2-0.5,0.5-0.9,0.9-1.3c0.3-0.4,0.7-0.8,1-1.2c1.5-1.3,2.9-2.4,4.3-3.8
			c1.4-1.3,2.8-2.5,4.4-3.6c1.7-1.1,3.8-1.7,5.9-1.5c2.1,0.3,4,1.2,5.5,2.6c1.3,1.4,2.5,2.8,3.6,4.4l0.8,1.1l0.8,1.1
			c0.3,0.4,0.6,0.7,0.9,1.1l0.9,1.2c0.3,0.4,0.6,0.8,0.8,1.3c0.4,0.9,0.7,2,0.7,3v1.5c-0.3,2.1-1.2,4-2.6,5.5
			c-1.3,1.4-2.8,2.6-4.4,3.6c-1.5,0.9-3.1,1.7-4.8,2.3C19.9,296.8,18.1,297.1,16.3,296.9z M16.6,294.3c1.4,0.2,2.9,0.1,4.3-0.2
			c1.4-0.4,2.7-1.2,3.7-2.2c1-1,1.6-2.3,1.7-3.7c0.2-1.3,0-2.5,0.2-3.7s0.5-2.3,0.7-3.7c0.1-0.7,0.1-1.5,0-2.2
			c-0.1-0.4-0.2-0.7-0.4-1l-0.6-0.9c-1-1-2.3-1.6-3.7-1.7c-1.3-0.1-2.5,0-3.7-0.2s-2.3-0.5-3.6-0.6c-1.4-0.2-2.9,0.1-4.1,0.8
			c-1.2,0.8-1.9,2.2-2,3.6c-0.1,0.4-0.1,0.7,0,1.1c0,0.4,0.1,0.6,0.1,1v0.9c0,0.3,0,0.6-0.1,0.9c-0.1,1.2-0.4,2.3-0.5,3.6
			c-0.2,1.4,0.1,2.9,0.9,4.1c0.8,1.3,1.9,2.3,3.2,2.9C13.8,293.8,15.2,294.2,16.6,294.3L16.6,294.3z"/>
	</g>
	<g class="st1">
		<path class="st2" d="M1.3,311.9c1,0.9,2.3,1.4,3.6,1.6c1.3,0.3,3.4-0.9,4.5-0.1c0.3,0.2,0.6,0.5,0.8,0.8c0.2,0.3,0.3,0.8,0.5,1.2
			c0.3,0.9,0.7,1.5,1.4,1.6c0.8,0.1,1.6,0.1,2.3-0.2c0.7-0.2,1.5-0.2,2.2,0.1c0.6,0.4,1.1,1,1.3,1.7c0.2,0.8,0.7,1.4,1.3,1.9
			c0.3,0.2,0.6,0.3,0.9,0.3c0.4,0,0.8-0.1,1.2-0.3c0.7-0.4,1.5-0.5,2.2-0.1c1.2,0.6,1.5,2.9,2.6,3.6c1,0.9,2.2,1.6,3.5,1.9l-1.2,2.4
			c-1-0.9-2.3-1.4-3.6-1.6c-1.3-0.3-3.2,0.7-4.5,0.1c-0.6-0.2-1-0.9-1.3-1.9c-0.2-0.4-0.3-0.9-0.5-1.2c-0.2-0.3-0.5-0.5-0.8-0.6
			c-0.8-0.1-1.6,0-2.3,0.2c-0.7,0.2-1.5,0.2-2.2-0.1c-0.6-0.4-1.1-1-1.3-1.7c-0.2-0.8-0.7-1.4-1.3-1.9c-0.7-0.3-1.5-0.4-2.2-0.1
			l-1.2,0.3c-0.4,0-0.7,0-1.1-0.1c-1.3-0.4-1.5-2.9-2.6-3.6c-1-0.9-2.2-1.5-3.5-1.8L1.3,311.9z"/>
	</g>
	<g class="st1">
		<path class="st2" d="M46.9,49.9c-1.3,0.3-2.5,1-3.5,1.9c-1.1,0.8-1.4,3.2-2.6,3.6c-0.3,0.1-0.7,0.1-1,0.2
			c-0.4-0.1-0.9-0.2-1.2-0.3c-0.7-0.3-1.4-0.3-2.1,0c-0.5,0.5-1,1.2-1.3,1.8c-0.2,0.7-0.7,1.3-1.3,1.7c-0.7,0.3-1.5,0.3-2.2,0
			c-0.7-0.3-1.5-0.3-2.2-0.2c-0.3,0.1-0.6,0.3-0.8,0.6c-0.2,0.4-0.4,0.8-0.5,1.2c-0.3,0.9-0.6,1.7-1.3,1.8c-1.2,0.6-3.2-0.5-4.4-0.2
			c-1.3,0.2-2.5,0.8-3.6,1.6l-1.2-2.4c1.3-0.3,2.5-1,3.5-1.9c1.1-0.8,1.4-3.1,2.6-3.6c0.5-0.4,1.3-0.2,2.2,0.2
			c0.4,0.2,0.8,0.3,1.2,0.2c0.3-0.1,0.7-0.2,1-0.3c0.5-0.5,1-1.1,1.3-1.8c0.2-0.7,0.7-1.3,1.3-1.8c0.7-0.3,1.5-0.3,2.2,0
			c0.7,0.3,1.5,0.3,2.2,0.2c0.7-0.1,1.1-0.8,1.4-1.6c0.2-0.4,0.3-0.8,0.5-1.2s0.5-0.5,0.7-0.8c1.1-0.7,3.2,0.5,4.4,0.2
			c1.3-0.2,2.6-0.8,3.6-1.7L46.9,49.9z"/>
	</g>
	<g class="st1">
		<path class="st2" d="M9.5,211.7c0.3-1.8,0.2-3.6-0.4-5.4c-0.3-1.8-2.4-3.6-2.3-5.3c0-0.5,0.1-1,0.3-1.4c0.2-0.5,0.5-0.9,0.8-1.3
			c0.6-0.8,0.9-1.7,0.8-2.7c-0.2-1-0.6-1.9-1.2-2.7c-0.6-0.8-1-1.7-1.1-2.7c0-0.9,0.3-1.9,0.9-2.6c0.6-0.8,1-1.7,1.1-2.7
			c0-0.5,0-1-0.2-1.4c-0.2-0.5-0.5-1-0.9-1.4c-0.8-0.7-1.2-1.7-1.1-2.7c0-1.8,1.8-3.7,1.9-5.4c0.3-1.8,0.2-3.6-0.1-5.4l2.6-0.1
			c-0.3,1.8-0.2,3.6,0.4,5.4c0.3,1.8,2.2,3.6,2.3,5.3c0,1-0.4,2-1.1,2.7c-0.3,0.5-0.7,0.9-0.7,1.4c-0.1,0.5-0.1,0.9-0.1,1.4
			c0.2,1,0.6,1.9,1.2,2.7c0.6,0.8,1,1.7,1.1,2.7c-0.1,0.9-0.4,1.8-0.9,2.6c-0.6,0.8-1,1.7-1.1,2.7c0,1,0.3,2,1,2.7l1,1.3
			c0.2,0.4,0.4,0.8,0.4,1.3c0.2,1.8-1.8,3.7-1.9,5.4c-0.3,1.8-0.3,3.6,0.1,5.4L9.5,211.7z"/>
	</g>
	<g class="st1">
		<path class="st2" d="M6.5,435.7c1.9-2.7,3.4-5.2,4.9-7.9c1.5-2.5,2.8-5.1,3.9-7.8c0.5-1.3,1-2.8,1.5-4.2c0.6-1.5,1.3-3,2.2-4.3
			c0.9-1.4,2-2.7,3.1-3.9c1.2-1.2,2.5-2.2,3.7-3.4l2.5-2.5l0.7,2.7c0.9,2.9,2.3,5.6,4.3,7.9c0.9,1.2,2,2.4,2.9,3.6
			c0.9,1.2,1.7,2.4,2.3,3.8c0.6,1.4,1.2,2.8,1.6,4.2c0.4,1.5,0.7,3,1.2,4.5c0.7,3,2,5.7,3.8,8.2l1.8,2.2l-3.6,0.5
			c-1.6,0.2-3.2,0.6-4.9,0.9c-1.7,0.2-3.3,0.2-5,0.1c-1.6-0.1-3.2-0.3-4.7-0.8c-1.5-0.4-2.9-0.9-4.3-1.3c-2.9-0.7-5.8-1.2-8.7-1.5
			C12.8,436,9.8,435.9,6.5,435.7z M8.8,434.5c2.7,0.3,5.7,0.3,8.7,0.4c3.1,0.1,6.2-0.1,9.3-0.4c1.6-0.2,3.2-0.5,4.7-0.8
			c1.4-0.2,2.9-0.3,4.3-0.4c1.4,0,2.7,0.2,4,0.7c1.3,0.5,2.7,1,4.1,1.4l-1.8,2.7c-0.8-2.9-2.3-5.6-4.3-7.9c-0.9-1.2-2-2.4-2.9-3.6
			c-0.9-1.2-1.7-2.4-2.3-3.8c-0.6-1.4-1.2-2.8-1.7-4.2c-0.4-1.5-0.7-3-1.1-4.5c-0.6-3-1.9-5.8-3.8-8.2l3.2,0.2
			c-0.5,1.3-0.9,2.8-1.4,4.1c-0.4,1.3-1,2.5-1.8,3.6c-0.8,1.1-1.7,2.2-2.7,3.2c-1.1,1.1-2.3,2.1-3.5,3.2c-2.2,2.2-4.2,4.6-5.9,7.2
			C12.1,429.7,10.3,432,8.8,434.5z"/>
	</g>
	<path class="st0" d="M45.8,164.6c1.9-0.1,3.7,0.1,5.5,0.6c1.8,0.6,3.5,1.4,5,2.4c1.7,1.1,3.2,2.3,4.6,3.8c1.5,1.6,2.4,3.6,2.7,5.7
		v1.6c-0.1,0.5-0.2,1.1-0.4,1.6l-0.6,1.5c-0.3,0.4-0.5,0.9-0.8,1.3c-1.2,1.7-2.4,3.1-3.5,4.6c-1.2,1.6-2.5,3.2-3.8,4.6
		c-3.2,3.1-8.2,3.6-12,1.1c-1.7-1.1-3.2-2.3-4.7-3.7c-0.4-0.4-0.7-0.6-1.1-1s-0.7-0.6-1.1-1c-0.4-0.4-0.8-0.7-1.2-1
		c-0.4-0.4-0.8-0.7-1.2-1.1s-0.7-0.8-1.1-1.2c-0.3-0.4-0.6-0.8-0.9-1.3c-0.3-0.5-0.4-1-0.5-1.5l-0.3-1.6c-0.1-2.1,0.4-4.3,1.6-6.1
		c1.1-1.7,2.4-3.2,3.8-4.6c1.3-1.3,2.8-2.5,4.5-3.4C41.9,165.4,43.9,164.9,45.8,164.6z M46.1,167.2c-1.5,0.1-3,0.5-4.4,1.3
		c-1.3,0.7-2.5,1.7-3.4,2.9c-0.8,1.3-1.1,2.8-1,4.3c0.1,1.4,0.4,2.7,0.5,3.9c0.1,1.3,0.1,2.7,0,4c0,0.4,0.1,0.7,0.1,1.2
		c0.1,0.4,0.2,0.8,0.4,1.1c0.2,0.4,0.4,0.6,0.6,1l0.8,0.8c1.3,0.9,2.8,1.2,4.3,1c1.4-0.1,2.7-0.4,3.9-0.4s2.5-0.1,3.9-0.2
		c1.5-0.1,2.9-0.7,3.9-1.8c1-1.1,1.5-2.7,1.3-4.2c-0.1-0.4-0.1-0.7-0.2-1.1c-0.1-0.3-0.2-0.7-0.3-1c-0.1-0.3-0.2-0.7-0.2-1
		c-0.1-0.3-0.1-0.6-0.1-0.9c-0.1-1.3-0.1-2.5-0.2-3.9c-0.1-1.5-0.7-2.9-1.7-4c-1-1.1-2.3-2-3.8-2.4C49.1,167.2,47.5,167,46.1,167.2
		L46.1,167.2z"/>
</g>
</svg>
