<svg id="Layer_1" data-name="Layer 1" xmlns="http://www.w3.org/2000/svg" xmlns:xlink="http://www.w3.org/1999/xlink" viewBox="0 0 902.29 600"><defs><style>.cls-1,.cls-10,.cls-19,.cls-9{fill:none;}.cls-2{fill:#1d1d1b;}.cls-11,.cls-16,.cls-17,.cls-3,.cls-7{fill:#fff;}.cls-4{fill:#45add6;}.cls-5{fill:#503ea7;}.cls-14,.cls-6{opacity:0.1;}.cls-14,.cls-16,.cls-17,.cls-6{isolation:isolate;}.cls-6{fill:url(#SVGID_3_);}.cls-7{stroke:#3482a1;stroke-width:11px;}.cls-10,.cls-11,.cls-19,.cls-7,.cls-9{stroke-miterlimit:10;}.cls-8{fill:#6abdde;}.cls-9{stroke:#d2fad6;}.cls-10,.cls-19,.cls-9{stroke-width:8px;}.cls-10{stroke:#6abdde;}.cls-11{stroke:#000;}.cls-12{fill:#d895a2;}.cls-13{fill:#f9a9b6;}.cls-14{fill:url(#SVGID_4_);}.cls-15,.cls-16{opacity:0.4;}.cls-17,.cls-18{opacity:0.2;}.cls-19{stroke:#503ea7;}</style><pattern id="SVGID_3_" data-name="SVGID 3 " width="72" height="72" patternTransform="translate(-349.19 47890.23) scale(0.94 0.94)" patternUnits="userSpaceOnUse" viewBox="0 0 72 72"><rect class="cls-1" width="72" height="72"/><rect class="cls-1" width="72" height="72"/><rect class="cls-1" width="72" height="72"/><rect class="cls-1" width="72" height="72"/><rect class="cls-1" width="72" height="72"/><rect class="cls-1" width="72" height="72"/><rect class="cls-1" width="72" height="72"/><path class="cls-2" d="M21,3c-.1,0-.1,0-.2-.1s-.1-.1-.1-.2,0-.1.1-.2a.3.3,0,0,1,.4,0c.1.1.1.1.1.2s0,.1-.1.2S21.1,3,21,3Z"/><path class="cls-2" d="M20,8.2c-.1,0-.1,0-.2-.1s-.1-.1-.1-.2,0-.1.1-.2a.3.3,0,0,1,.4,0c.1.1.1.1.1.2s0,.1-.1.2S20.1,8.2,20,8.2Z"/><path class="cls-2" d="M20.2,10.5c-.1,0-.1,0-.2-.1s-.1-.1-.1-.2,0-.1.1-.2a.3.3,0,0,1,.4,0c.1.1.1.1.1.2s0,.1-.1.2S20.3,10.5,20.2,10.5Z"/><path class="cls-2" d="M18,12.7c-.1,0-.1,0-.2-.1s-.1-.1-.1-.2,0-.1.1-.2a.3.3,0,0,1,.4,0c.1.1.1.1.1.2s0,.1-.1.2S18.1,12.7,18,12.7Z"/><path class="cls-2" d="M15.2,10.5c-.1,0-.1,0-.2-.1s-.1-.1-.1-.2,0-.1.1-.2a.3.3,0,0,1,.4,0c.1.1.1.1.1.2s0,.1-.1.2S15.3,10.5,15.2,10.5Z"/><path class="cls-2" d="M22.7,20c-.1,0-.1,0-.2-.1s-.1-.1-.1-.2,0-.1.1-.2a.3.3,0,0,1,.4,0c0,.1.1.1.1.2s0,.1-.1.2S22.8,20,22.7,20Z"/><path class="cls-2" d="M15.2,23c-.1,0-.1,0-.2-.1s-.1-.1-.1-.2,0-.1.1-.2a.3.3,0,0,1,.4,0c.1.1.1.1.1.2s0,.1-.1.2S15.3,23,15.2,23Z"/><path class="cls-2" d="M14,24c-.1,0-.1,0-.2-.1s-.1-.1-.1-.2,0-.1.1-.2a.3.3,0,0,1,.4,0c.1.1.1.1.1.2s0,.1-.1.2S14.1,24,14,24Z"/><path class="cls-2" d="M24,27c-.1,0-.1,0-.2-.1s-.1-.1-.1-.2,0-.1.1-.2a.3.3,0,0,1,.4,0c0,.1.1.1.1.2s0,.1-.1.2S24.1,27,24,27Z"/><path class="cls-2" d="M30.7,25.7c-.1,0-.1,0-.2-.1s-.1-.1-.1-.2,0-.1.1-.2a.3.3,0,0,1,.4,0c.1.1.1.1.1.2s0,.1-.1.2S30.8,25.7,30.7,25.7Z"/><path class="cls-2" d="M31.2,23.2c-.1,0-.1,0-.2-.1s-.1-.1-.1-.2,0-.1.1-.2a.3.3,0,0,1,.4,0c0,.1.1.1.1.2s0,.1-.1.2S31.3,23.2,31.2,23.2Z"/><path class="cls-2" d="M29.2,18.2c-.1,0-.1,0-.2-.1s-.1-.1-.1-.2,0-.1.1-.2a.3.3,0,0,1,.4,0c.1.1.1.1.1.2s0,.1-.1.2S29.3,18.2,29.2,18.2Z"/><path class="cls-2" d="M32.2,18.2c-.1,0-.1,0-.2-.1s-.1-.1-.1-.2,0-.1.1-.2a.3.3,0,0,1,.4,0c.1.1.1.1.1.2s0,.1-.1.2S32.3,18.2,32.2,18.2Z"/><path class="cls-2" d="M32.5,13.7c-.1,0-.1,0-.2-.1s-.1-.1-.1-.2,0-.1.1-.2a.3.3,0,0,1,.4,0c.1.1.1.1.1.2s0,.1-.1.2S32.6,13.7,32.5,13.7Z"/><path class="cls-2" d="M31.7,11.7c-.1,0-.1,0-.2-.1s-.1-.1-.1-.2,0-.1.1-.2a.3.3,0,0,1,.4,0c.1.1.1.1.1.2s0,.1-.1.2S31.8,11.7,31.7,11.7Z"/><path class="cls-2" d="M29.2,10.7c-.1,0-.1,0-.2-.1s-.1-.1-.1-.2,0-.1.1-.2a.3.3,0,0,1,.4,0c.1.1.1.1.1.2s0,.1-.1.2S29.3,10.7,29.2,10.7Z"/><path class="cls-2" d="M32.2,7c-.1,0-.1,0-.2-.1s-.1-.1-.1-.2,0-.1.1-.2a.3.3,0,0,1,.4,0c.1.1.1.1.1.2s0,.1-.1.2S32.3,7,32.2,7Z"/><path class="cls-2" d="M32,3c-.1,0-.1,0-.2-.1s-.1-.1-.1-.2,0-.1.1-.2.2-.1.4,0,.1.1.1.2,0,.1-.1.2S32.1,3,32,3Z"/><path class="cls-2" d="M29.2,3.2c-.1,0-.1,0-.2-.1s-.1-.1-.1-.2,0-.1.1-.2a.3.3,0,0,1,.4,0c.1.1.1.1.1.2s0,.1-.1.2S29.3,3.2,29.2,3.2Z"/><path class="cls-2" d="M34,1.2c-.1,0-.1,0-.2-.1s-.1-.1-.1-.2,0-.1.1-.2a.3.3,0,0,1,.4,0c.1.1.1.1.1.2s0,.1-.1.2S34.1,1.2,34,1.2Z"/><path class="cls-2" d="M41.5,7c-.1,0-.1,0-.2-.1s-.1-.1-.1-.2,0-.1.1-.2a.19.19,0,0,1,.3,0h0c.1.1.1.1.1.2S41.7,6.8,41.5,7Z"/><path class="cls-2" d="M45.5,6.7c-.1,0-.1,0-.2-.1s-.1-.1-.1-.2,0-.1.1-.2a.3.3,0,0,1,.4,0c.1.1.1.1.1.2s0,.1-.1.2S45.6,6.7,45.5,6.7Z"/><path class="cls-2" d="M40.2,10.2c-.1,0-.1,0-.2-.1s-.1-.1-.1-.2,0-.1.1-.2a.3.3,0,0,1,.4,0c.1.1.1.1.1.2s0,.1-.1.2S40.3,10.2,40.2,10.2Z"/><path class="cls-2" d="M45,11.7c-.1,0-.1,0-.2-.1s-.1-.1-.1-.2,0-.1.1-.2a.3.3,0,0,1,.4,0c.1.1.1.1.1.2s0,.1-.1.2S45.1,11.7,45,11.7Z"/><path class="cls-2" d="M45,13.5c-.1,0-.1,0-.2-.1s-.1-.1-.1-.2,0-.1.1-.2a.3.3,0,0,1,.4,0c.1.1.1.1.1.2s0,.1-.1.2S45.1,13.5,45,13.5Z"/><path class="cls-2" d="M47,14.2c-.1,0-.1,0-.2-.1s-.1-.1-.1-.2,0-.1.1-.2a.3.3,0,0,1,.4,0c.1.1.1.1.1.2s0,.1-.1.2S47.1,14.2,47,14.2Z"/><path class="cls-2" d="M47,16.2c-.1,0-.1,0-.2-.1s-.1-.1-.1-.2,0-.1.1-.2a.3.3,0,0,1,.4,0c.1.1.1.1.1.2s0,.1-.1.2S47.1,16.2,47,16.2Z"/><path class="cls-2" d="M47.2,22.7c-.1,0-.1,0-.2-.1s-.1-.1-.1-.2,0-.1.1-.2a.3.3,0,0,1,.4,0c.1.1.1.1.1.2s0,.1-.1.2S47.3,22.7,47.2,22.7Z"/><path class="cls-2" d="M39,20.7c-.1,0-.1,0-.2-.1s-.1-.1-.1-.2,0-.1.1-.2a.3.3,0,0,1,.4,0c.1.1.1.1.1.2s0,.1-.1.2S39.1,20.7,39,20.7Z"/><path class="cls-2" d="M50.2,13.5c-.1,0-.1,0-.2-.1s-.1-.1-.1-.2,0-.1.1-.2a.3.3,0,0,1,.4,0c.1.1.1.1.1.2s0,.1-.1.2S50.3,13.5,50.2,13.5Z"/><path class="cls-2" d="M52.2,12c-.1,0-.1,0-.2-.1s-.1-.1-.1-.2,0-.1.1-.2a.3.3,0,0,1,.4,0c.1.1.1.1.1.2s0,.1-.1.2S52.3,12,52.2,12Z"/><path class="cls-2" d="M54.7,11c-.1,0-.1,0-.2-.1s-.1-.1-.1-.2,0-.1.1-.2a.3.3,0,0,1,.4,0c.1.1.1.1.1.2s0,.1-.1.2S54.8,11,54.7,11Z"/><path class="cls-2" d="M54.7,6.7c-.1,0-.1,0-.2-.1s-.1-.1-.1-.2,0-.1.1-.2a.3.3,0,0,1,.4,0c0,.1.1.1.1.2s0,.1-.1.2S54.8,6.7,54.7,6.7Z"/><path class="cls-2" d="M56.5.7c-.1,0-.1,0-.2-.1s-.1-.1-.1-.2,0-.1.1-.2a.3.3,0,0,1,.4,0c0,.1.1.1.1.2s0,.1-.1.2S56.6.7,56.5.7Z"/><path class="cls-2" d="M64,6.5c-.1,0-.1,0-.2-.1s-.1-.1-.1-.2,0-.1.1-.2a.3.3,0,0,1,.4,0c0,.1.1.1.1.2s0,.1-.1.2S64.1,6.5,64,6.5Z"/><path class="cls-2" d="M65,2.5c-.1,0-.1,0-.2-.1s-.1-.1-.1-.2,0-.1.1-.2a.3.3,0,0,1,.4,0c.1.1.1.1.1.2s0,.1-.1.2S65.1,2.5,65,2.5Z"/><path class="cls-2" d="M68,3c-.1,0-.1,0-.2-.1s-.1-.1-.1-.2,0-.1.1-.2a.3.3,0,0,1,.4,0c.1.1.1.1.1.2s0,.1-.1.2S68.1,3,68,3Z"/><path class="cls-2" d="M68,10.2c-.1,0-.1,0-.2-.1s-.1-.1-.1-.2,0-.1.1-.2a.3.3,0,0,1,.4,0c.1.1.1.1.1.2s0,.1-.1.2S68.1,10.2,68,10.2Z"/><path class="cls-2" d="M64.2,12.2c-.1,0-.1,0-.2-.1s-.1-.1-.1-.2,0-.1.1-.2.3-.1.3,0,.1.1.1.2S64.4,12,64.2,12.2Z"/><path class="cls-2" d="M65.2,15.7c-.1,0-.1,0-.2-.1s-.1-.1-.1-.2,0-.1.1-.2a.3.3,0,0,1,.4,0c.1.1.1.1.1.2s0,.1-.1.2S65.3,15.7,65.2,15.7Z"/><path class="cls-2" d="M64,19.7c-.1,0-.1,0-.2-.1s-.1-.1-.1-.2,0-.1.1-.2a.3.3,0,0,1,.4,0c.1.1.1.1.1.2s0,.1-.1.2S64.1,19.7,64,19.7Z"/><path class="cls-2" d="M66.2,19.7c-.1,0-.1,0-.2-.1s-.1-.1-.1-.2,0-.1.1-.2a.3.3,0,0,1,.4,0c.1.1.1.1.1.2s0,.1-.1.2S66.3,19.7,66.2,19.7Z"/><path class="cls-2" d="M68,21.2c-.1,0-.1,0-.2-.1s-.1-.1-.1-.2,0-.1.1-.2a.3.3,0,0,1,.4,0c0,.1.1.1.1.2s0,.1-.1.2S68.1,21.2,68,21.2Z"/><path class="cls-2" d="M69.2,20.2c-.1,0-.1,0-.2-.1s-.1-.1-.1-.2,0-.1.1-.2a.3.3,0,0,1,.4,0c.1.1.1.1.1.2s0,.1-.1.2S69.3,20.2,69.2,20.2Z"/><path class="cls-2" d="M69.5,18c-.1,0-.1,0-.2-.1s-.1-.1-.1-.2,0-.1.1-.2a.3.3,0,0,1,.4,0c.1.1.1.1.1.2s0,.1-.1.2S69.6,18,69.5,18Z"/><path class="cls-2" d="M71.2,17.5c-.1,0-.1,0-.2-.1s-.1-.1-.1-.2,0-.1.1-.2a.3.3,0,0,1,.4,0c0,.1.1.1.1.2s0,.1-.1.2S71.3,17.5,71.2,17.5Z"/><path class="cls-2" d="M8,47c-.1,0-.1,0-.2-.1s-.1-.1-.1-.2,0-.1.1-.2a.3.3,0,0,1,.4,0c.1.1.1.1.1.2s0,.1-.1.2S8.1,47,8,47Z"/><path class="cls-2" d="M7,52.2c-.1,0-.1,0-.2-.1s-.1-.1-.1-.2,0-.1.1-.2a.3.3,0,0,1,.4,0c.1.1.1.1.1.2s0,.1-.1.2S7.1,52.2,7,52.2Z"/><path class="cls-2" d="M7.2,54.5c-.1,0-.1,0-.2-.1s-.1-.1-.1-.2,0-.1.1-.2a.3.3,0,0,1,.4,0c.1.1.1.1.1.2s0,.1-.1.2S7.3,54.5,7.2,54.5Z"/><path class="cls-2" d="M5,56.7c-.1,0-.1,0-.2-.1s-.1-.1-.1-.2,0-.1.1-.2a.3.3,0,0,1,.4,0c.1.1.1.1.1.2s0,.1-.1.2S5.1,56.7,5,56.7Z"/><path class="cls-2" d="M2.2,54.5c-.1,0-.1,0-.2-.1s-.1-.1-.1-.2,0-.1.1-.2.3-.1.3,0,.1.1.1.2S2.4,54.3,2.2,54.5Z"/><path class="cls-2" d="M9.7,64h0c-.1-.1-.2-.2-.2-.3s0-.1.1-.2a.3.3,0,0,1,.4,0c.1.1.1.1.1.2s0,.1-.1.2A.37.37,0,0,1,9.7,64Z"/><path class="cls-2" d="M2.2,67h0c-.2-.1-.2-.2-.2-.3s0-.1.1-.2a.3.3,0,0,1,.4,0c.1.1.1.1.1.2s0,.1-.1.2A.37.37,0,0,1,2.2,67Z"/><path class="cls-2" d="M1,68c-.1,0-.1,0-.2-.1s-.1-.1-.1-.2,0-.1.1-.2a.3.3,0,0,1,.4,0c.1.1.1.1.1.2s0,.1-.1.2S1.1,68,1,68Z"/><path class="cls-2" d="M11,71c-.1,0-.1,0-.2-.1s-.1-.1-.1-.2,0-.1.1-.2a.3.3,0,0,1,.4,0c.1.1.1.1.1.2s0,.1-.1.2S11.1,71,11,71Z"/><path class="cls-2" d="M17.7,69.7c-.1,0-.1,0-.2-.1s-.1-.1-.1-.2,0-.1.1-.2a.3.3,0,0,1,.4,0c.1.1.1.1.1.2s0,.1-.1.2S17.8,69.7,17.7,69.7Z"/><path class="cls-2" d="M18.2,67.2c-.1,0-.1,0-.2-.1V67c0-.1,0-.1.1-.2a.3.3,0,0,1,.4,0c.1.1.1.1.1.2s0,.1-.1.2Z"/><path class="cls-2" d="M16.2,62.2c-.1,0-.1,0-.2-.1s-.1-.1-.1-.2,0-.1.1-.2a.3.3,0,0,1,.4,0c.1.1.1.1.1.2s0,.1-.1.2S16.3,62.2,16.2,62.2Z"/><path class="cls-2" d="M19.2,62.2c-.1,0-.1,0-.2-.1s-.1-.1-.1-.2,0-.1.1-.2a.3.3,0,0,1,.4,0c.1.1.1.1.1.2s0,.1-.1.2S19.3,62.2,19.2,62.2Z"/><path class="cls-2" d="M19.5,57.7c-.1,0-.1,0-.2-.1s-.1-.1-.1-.2,0-.1.1-.2a.3.3,0,0,1,.4,0c0,.1.1.1.1.2s0,.1-.1.2S19.6,57.7,19.5,57.7Z"/><path class="cls-2" d="M18.7,55.7c-.1,0-.1,0-.2-.1s-.1-.1-.1-.2,0-.1.1-.2a.3.3,0,0,1,.4,0c.1.1.1.1.1.2s0,.1-.1.2S18.8,55.7,18.7,55.7Z"/><path class="cls-2" d="M16.2,54.7c-.1,0-.1,0-.2-.1s-.1-.1-.1-.2,0-.1.1-.2a.3.3,0,0,1,.4,0c.1.1.1.1.1.2s0,.1-.1.2S16.3,54.7,16.2,54.7Z"/><path class="cls-2" d="M19.2,51c-.1,0-.1,0-.2-.1s-.1-.1-.1-.2,0-.1.1-.2a.3.3,0,0,1,.4,0c.1.1.1.1.1.2s0,.1-.1.2S19.3,51,19.2,51Z"/><path class="cls-2" d="M19,47c-.1,0-.1,0-.2-.1s-.1-.1-.1-.2,0-.1.1-.2a.3.3,0,0,1,.4,0c.1.1.1.1.1.2s0,.1-.1.2S19.1,47,19,47Z"/><path class="cls-2" d="M16.2,47.2c-.1,0-.1,0-.2-.1s-.1-.1-.1-.2,0-.1.1-.2a.3.3,0,0,1,.4,0c.1.1.1.1.1.2s0,.1-.1.2S16.3,47.2,16.2,47.2Z"/><path class="cls-2" d="M21,45.2c-.1,0-.1,0-.2-.1s-.1-.1-.1-.2,0-.1.1-.2a.3.3,0,0,1,.4,0c.1.1.1.1.1.2s0,.1-.1.2S21.1,45.2,21,45.2Z"/><path class="cls-2" d="M28.5,51c-.1,0-.1,0-.2-.1s-.1-.1-.1-.2,0-.1.1-.2a.3.3,0,0,1,.4,0c0,.1.1.1.1.2s0,.1-.1.2S28.6,51,28.5,51Z"/><path class="cls-2" d="M32.5,50.7c-.1,0-.1,0-.2-.1s-.1-.1-.1-.2,0-.1.1-.2a.3.3,0,0,1,.4,0c.1.1.1.1.1.2s0,.1-.1.2S32.6,50.7,32.5,50.7Z"/><path class="cls-2" d="M27.2,54.2c-.1,0-.1,0-.2-.1s-.1-.1-.1-.2,0-.1.1-.2a.3.3,0,0,1,.4,0c.1.1.1.1.1.2s0,.1-.1.2S27.3,54.2,27.2,54.2Z"/><path class="cls-2" d="M32,55.7c-.1,0-.1,0-.2-.1s-.1-.1-.1-.2,0-.1.1-.2a.3.3,0,0,1,.4,0c0,.1.1.1.1.2s0,.1-.1.2S32.1,55.7,32,55.7Z"/><path class="cls-2" d="M32,57.5c-.1,0-.1,0-.2-.1s-.1-.1-.1-.2,0-.1.1-.2a.3.3,0,0,1,.4,0c0,.1.1.1.1.2s0,.1-.1.2S32.1,57.5,32,57.5Z"/><path class="cls-2" d="M34,58.2c-.1,0-.1,0-.2-.1s-.1-.1-.1-.2,0-.1.1-.2a.3.3,0,0,1,.4,0c.1.1.1.1.1.2s0,.1-.1.2S34.1,58.2,34,58.2Z"/><path class="cls-2" d="M34,60.2c-.1,0-.1,0-.2-.1s-.1-.1-.1-.2,0-.1.1-.2a.3.3,0,0,1,.4,0c0,.1.1.1.1.2s0,.1-.1.2S34.1,60.2,34,60.2Z"/><path class="cls-2" d="M34.2,66.7c-.1,0-.1,0-.2-.1s-.1-.1-.1-.2,0-.1.1-.2a.3.3,0,0,1,.4,0c.1.1.1.1.1.2s0,.1-.1.2S34.3,66.7,34.2,66.7Z"/><path class="cls-2" d="M26,64.7c-.1,0-.1,0-.2-.1s-.1-.1-.1-.2,0-.1.1-.2a.3.3,0,0,1,.4,0c.1.1.1.1.1.2s0,.1-.1.2S26.1,64.7,26,64.7Z"/><path class="cls-2" d="M37.2,57.5c-.1,0-.1,0-.2-.1s-.1-.1-.1-.2,0-.1.1-.2.3-.1.3,0,.1.1.1.2S37.4,57.3,37.2,57.5Z"/><path class="cls-2" d="M39.2,56c-.1,0-.1,0-.2-.1s-.1-.1-.1-.2,0-.1.1-.2a.3.3,0,0,1,.4,0c.1.1.1.1.1.2s0,.1-.1.2S39.3,56,39.2,56Z"/><path class="cls-2" d="M41.7,55c-.1,0-.1,0-.2-.1s-.1-.1-.1-.2,0-.1.1-.2a.3.3,0,0,1,.4,0c.1.1.1.1.1.2s0,.1-.1.2S41.8,55,41.7,55Z"/><path class="cls-2" d="M41.7,50.7c-.1,0-.1,0-.2-.1s-.1-.1-.1-.2,0-.1.1-.2a.3.3,0,0,1,.4,0c.1.1.1.1.1.2s0,.1-.1.2S41.8,50.7,41.7,50.7Z"/><path class="cls-2" d="M43.5,44.7c-.1,0-.1,0-.2-.1s-.1-.1-.1-.2,0-.1.1-.2a.3.3,0,0,1,.4,0c.1.1.1.1.1.2s0,.1-.1.2S43.6,44.7,43.5,44.7Z"/><path class="cls-2" d="M51,50.5c-.1,0-.1,0-.2-.1s-.1-.1-.1-.2,0-.1.1-.2a.3.3,0,0,1,.4,0c.1.1.1.1.1.2s0,.1-.1.2S51.1,50.5,51,50.5Z"/><path class="cls-2" d="M52,46.5c-.1,0-.1,0-.2-.1s-.1-.1-.1-.2,0-.1.1-.2a.3.3,0,0,1,.4,0c0,.1.1.1.1.2s0,.1-.1.2S52.1,46.5,52,46.5Z"/><path class="cls-2" d="M55,47c-.1,0-.1,0-.2-.1s-.1-.1-.1-.2,0-.1.1-.2a.3.3,0,0,1,.4,0c.1.1.1.1.1.2s0,.1-.1.2S55.1,47,55,47Z"/><path class="cls-2" d="M55,54.2c-.1,0-.1,0-.2-.1s-.1-.1-.1-.2,0-.1.1-.2a.3.3,0,0,1,.4,0c.1.1.1.1.1.2s0,.1-.1.2S55.1,54.2,55,54.2Z"/><path class="cls-2" d="M51.2,56.2c-.1,0-.1,0-.2-.1s-.1-.1-.1-.2,0-.1.1-.2a.3.3,0,0,1,.4,0c.1.1.1.1.1.2s0,.1-.1.2S51.3,56.2,51.2,56.2Z"/><path class="cls-2" d="M52.2,59.7c-.1,0-.1,0-.2-.1s-.1-.1-.1-.2,0-.1.1-.2a.3.3,0,0,1,.4,0c0,.1.1.1.1.2s0,.1-.1.2S52.3,59.7,52.2,59.7Z"/><path class="cls-2" d="M51,63.7c-.1,0-.1,0-.2-.1s-.1-.1-.1-.2,0-.1.1-.2a.3.3,0,0,1,.4,0c.1.1.1.1.1.2s0,.1-.1.2S51.1,63.7,51,63.7Z"/><path class="cls-2" d="M53.2,63.7c-.1,0-.1,0-.2-.1s-.1-.1-.1-.2,0-.1.1-.2a.3.3,0,0,1,.4,0c0,.1.1.1.1.2s0,.1-.1.2S53.3,63.7,53.2,63.7Z"/><path class="cls-2" d="M55,65.2c-.1,0-.1,0-.2-.1s-.1-.1-.1-.2,0-.1.1-.2a.3.3,0,0,1,.4,0c.1.1.1.1.1.2s0,.1-.1.2S55.1,65.2,55,65.2Z"/><path class="cls-2" d="M56.2,64.2c-.1,0-.1,0-.2-.1V64c0-.1,0-.1.1-.2a.3.3,0,0,1,.4,0c.1.1.1.1.1.2s0,.1-.1.2Z"/><path class="cls-2" d="M56.5,62c-.1,0-.1,0-.2-.1s-.1-.1-.1-.2,0-.1.1-.2a.3.3,0,0,1,.4,0c.1.1.1.1.1.2s0,.1-.1.2S56.6,62,56.5,62Z"/><path class="cls-2" d="M58.2,61.5c-.1,0-.1,0-.2-.1s-.1-.1-.1-.2,0-.1.1-.2a.3.3,0,0,1,.4,0c0,.1.1.1.1.2s0,.1-.1.2S58.3,61.5,58.2,61.5Z"/><path class="cls-2" d="M21,27c-.1,0-.1,0-.2-.1s-.1-.1-.1-.2,0-.1.1-.2a.3.3,0,0,1,.4,0c.1.1.1.1.1.2s0,.1-.1.2S21.1,27,21,27Z"/><path class="cls-2" d="M22.7,24c-.1,0-.1,0-.2-.1s-.1-.1-.1-.2,0-.1.1-.2a.3.3,0,0,1,.4,0c.1.1.1.1.1.2s0,.1-.1.2S22.8,24,22.7,24Z"/><path class="cls-2" d="M25.2,24.5c-.1,0-.1,0-.2-.1s-.1-.1-.1-.2,0-.1.1-.2a.3.3,0,0,1,.4,0c.1.1.1.1.1.2s0,.1-.1.2S25.3,24.5,25.2,24.5Z"/><path class="cls-2" d="M35.2,23.2c-.1,0-.1,0-.2-.1s-.1-.1-.1-.2,0-.1.1-.2a.3.3,0,0,1,.4,0c.1.1.1.1.1.2s0,.1-.1.2S35.3,23.2,35.2,23.2Z"/><path class="cls-2" d="M39,24.7c-.1,0-.1,0-.2-.1s-.1-.1-.1-.2,0-.1.1-.2a.3.3,0,0,1,.4,0c.1.1.1.1.1.2s0,.1-.1.2S39.1,24.7,39,24.7Z"/><path class="cls-2" d="M45,29.5c-.1,0-.1,0-.2-.1s-.1-.1-.1-.2,0-.1.1-.2a.3.3,0,0,1,.4,0c.1.1.1.1.1.2s0,.1-.1.2S45.1,29.5,45,29.5Z"/><path class="cls-2" d="M46.2,29c-.1,0-.1,0-.2-.1s-.1-.1-.1-.2,0-.1.1-.2.3-.1.3,0,.1.1.1.2S46.4,28.8,46.2,29Z"/><path class="cls-2" d="M55.2,28c-.1,0-.1,0-.2-.1s-.1-.1-.1-.2,0-.1.1-.2a.3.3,0,0,1,.4,0c.1.1.1.1.1.2s0,.1-.1.2S55.3,28,55.2,28Z"/><path class="cls-2" d="M51.2,25.2c-.1,0-.1,0-.2-.1s-.1-.1-.1-.2,0-.1.1-.2a.3.3,0,0,1,.4,0c.1.1.1.1.1.2s0,.1-.1.2S51.3,25.2,51.2,25.2Z"/><path class="cls-2" d="M52,29.5c-.1,0-.1,0-.2-.1s-.1-.1-.1-.2,0-.1.1-.2a.3.3,0,0,1,.4,0c0,.1.1.1.1.2s0,.1-.1.2S52.1,29.5,52,29.5Z"/><path class="cls-2" d="M62.5,35.5c-.1,0-.1,0-.2-.1s-.1-.1-.1-.2,0-.1.1-.2a.19.19,0,0,1,.3,0h0c.1,0,.1.1.1.2S62.7,35.3,62.5,35.5Z"/><path class="cls-2" d="M58.2,38.2c-.1,0-.1,0-.2-.1s-.1-.1-.1-.2,0-.1.1-.2a.3.3,0,0,1,.4,0c0,.1.1.1.1.2s0,.1-.1.2S58.3,38.2,58.2,38.2Z"/><path class="cls-2" d="M49,39c-.1,0-.1,0-.2-.1s-.1-.1-.1-.2,0-.1.1-.2a.3.3,0,0,1,.4,0c0,.1.1.1.1.2s0,.1-.1.2S49.1,39,49,39Z"/><path class="cls-2" d="M48,41.2c-.1,0-.1,0-.2-.1s-.1-.1-.1-.2,0-.1.1-.2a.19.19,0,0,1,.3,0h0c.1,0,.1.1.1.2s0,.1-.2.3Z"/><path class="cls-2" d="M52,43c-.1,0-.1,0-.2-.1s-.1-.1-.1-.2,0-.1.1-.2a.3.3,0,0,1,.4,0c.1.1.1.1.1.2s0,.1-.1.2S52.1,43,52,43Z"/><path class="cls-2" d="M53.5,45c-.1,0-.1,0-.2-.1s-.1-.1-.1-.2,0-.1.1-.2a.3.3,0,0,1,.4,0c.1.1.1.1.1.2s0,.1-.1.2S53.6,45,53.5,45Z"/><path class="cls-2" d="M62.2,48c-.1,0-.1,0-.2-.1s-.1-.1-.1-.2,0-.1.1-.2a.3.3,0,0,1,.4,0c0,.1.1.1.1.2s0,.1-.1.2S62.3,48,62.2,48Z"/><path class="cls-2" d="M65,51.7c-.1,0-.1,0-.2-.1s-.1-.1-.1-.2,0-.1.1-.2a.3.3,0,0,1,.4,0c.1.1.1.1.1.2s0,.1-.1.2S65.1,51.7,65,51.7Z"/><path class="cls-2" d="M67,51.7c-.1,0-.1,0-.2-.1s-.1-.1-.1-.2,0-.1.1-.2a.3.3,0,0,1,.4,0c.1.1.1.1.1.2s0,.1-.1.2S67.1,51.7,67,51.7Z"/><path class="cls-2" d="M69.5,45c-.1,0-.1,0-.2-.1s-.1-.1-.1-.2,0-.1.1-.2a.3.3,0,0,1,.4,0c.1.1.1.1.1.2s0,.1-.1.2S69.6,45,69.5,45Z"/><path class="cls-2" d="M60,39c-.1,0-.1,0-.2-.1s-.1-.1-.1-.2,0-.1.1-.2a.3.3,0,0,1,.4,0c.1.1.1.1.1.2s0,.1-.1.2S60.1,39,60,39Z"/><path class="cls-2" d="M47.2,47.7c-.1,0-.1,0-.2-.1s-.1-.1-.1-.2,0-.1.1-.2a.3.3,0,0,1,.4,0c.1.1.1.1.1.2s0,.1-.1.2S47.3,47.7,47.2,47.7Z"/><path class="cls-2" d="M32.5,47c-.1,0-.1,0-.2-.1s-.1-.1-.1-.2,0-.1.1-.2a.3.3,0,0,1,.4,0c.1.1.1.1.1.2s0,.1-.1.2S32.6,47,32.5,47Z"/><path class="cls-2" d="M37,44.5c-.1,0-.1,0-.2-.1s-.1-.1-.1-.2,0-.1.1-.2a.3.3,0,0,1,.4,0c.1.1.1.1.1.2s0,.1-.1.2S37.1,44.5,37,44.5Z"/><path class="cls-2" d="M26.2,37.7c-.1,0-.1,0-.2-.1s-.1-.1-.1-.2,0-.1.1-.2a.3.3,0,0,1,.4,0c.1.1.1.1.1.2s0,.1-.1.2S26.3,37.7,26.2,37.7Z"/><path class="cls-2" d="M29.7,35.5c-.1,0-.1,0-.2-.1s-.1-.1-.1-.2,0-.1.1-.2a.3.3,0,0,1,.4,0c.1.1.1.1.1.2s0,.1-.1.2S29.8,35.5,29.7,35.5Z"/><path class="cls-2" d="M17,28.5c-.1,0-.1,0-.2-.1s-.1-.1-.1-.2,0-.1.1-.2a.3.3,0,0,1,.4,0c.1.1.1.1.1.2s0,.1-.1.2S17.1,28.5,17,28.5Z"/><path class="cls-2" d="M10.5,29.5c-.1,0-.1,0-.2-.1s-.1-.1-.1-.2,0-.1.1-.2a.3.3,0,0,1,.4,0c0,.1.1.1.1.2s0,.1-.1.2S10.6,29.5,10.5,29.5Z"/><path class="cls-2" d="M6,31.5c-.1,0-.1,0-.2-.1s-.1-.1-.1-.2,0-.1.1-.2a.3.3,0,0,1,.4,0c0,.1.1.1.1.2s0,.1-.1.2S6.1,31.5,6,31.5Z"/><path class="cls-2" d="M2.5,35.2c-.1,0-.1,0-.2-.1s-.1-.1-.1-.2,0-.1.1-.2a.19.19,0,0,1,.3,0h0c.1,0,.1.1.1.2S2.7,35,2.5,35.2Z"/><path class="cls-2" d="M11.2,36.7c-.1,0-.1,0-.2-.1s-.1-.1-.1-.2,0-.1.1-.2a.3.3,0,0,1,.4,0c.1.1.1.1.1.2s0,.1-.1.2S11.3,36.7,11.2,36.7Z"/><path class="cls-2" d="M17,42c-.1,0-.1,0-.2-.1s-.1-.1-.1-.2,0-.1.1-.2a.3.3,0,0,1,.4,0c.1.1.1.1.1.2s0,.1-.1.2S17.1,42,17,42Z"/><path class="cls-2" d="M12.7,36c-.1,0-.1,0-.2-.1s-.1-.1-.1-.2,0-.1.1-.2a.3.3,0,0,1,.4,0c.1.1.1.1.1.2s0,.1-.1.2S12.8,36,12.7,36Z"/><path class="cls-2" d="M26.5,30.2c-.1,0-.1,0-.2-.1s-.1-.1-.1-.2,0-.1.1-.2a.3.3,0,0,1,.4,0c.1.1.1.1.1.2s0,.1-.1.2S26.6,30.2,26.5,30.2Z"/><path class="cls-2" d="M37.7,31c-.1,0-.1,0-.2-.1s-.1-.1-.1-.2,0-.1.1-.2a.3.3,0,0,1,.4,0c.1.1.1.1.1.2s0,.1-.1.2S37.8,31,37.7,31Z"/><path class="cls-2" d="M39.5,32.5c-.1,0-.1,0-.2-.1s-.1-.1-.1-.2,0-.1.1-.2a.3.3,0,0,1,.4,0c.1.1.1.1.1.2s0,.1-.1.2S39.6,32.5,39.5,32.5Z"/><path class="cls-2" d="M28,42c-.1,0-.1,0-.2-.1s-.1-.1-.1-.2,0-.1.1-.2.3-.1.3,0,.1.1.1.2S28.2,41.8,28,42Z"/><path class="cls-2" d="M6.5,20.5c-.1,0-.1,0-.2-.1s-.1-.1-.1-.2,0-.1.1-.2a.3.3,0,0,1,.4,0c.1.1.1.1.1.2s0,.1-.1.2S6.6,20.5,6.5,20.5Z"/><path class="cls-2" d="M10.2,20.2c-.1,0-.1,0-.2-.1s-.1-.1-.1-.2,0-.1.1-.2a.3.3,0,0,1,.4,0c.1.1.1.1.1.2s0,.1-.1.2S10.3,20.2,10.2,20.2Z"/><path class="cls-2" d="M11.7,23.5c-.1,0-.1,0-.2-.1s-.1-.1-.1-.2,0-.1.1-.2a.3.3,0,0,1,.4,0c0,.1.1.1.1.2s0,.1-.1.2S11.8,23.5,11.7,23.5Z"/><path class="cls-2" d="M3,25.7c-.1,0-.1,0-.2-.1s-.1-.1-.1-.2,0-.1.1-.2a.3.3,0,0,1,.4,0c.1.1.1.1.1.2s0,.1-.1.2S3.1,25.7,3,25.7Z"/><path class="cls-2" d="M64.2,29.5c-.1,0-.1,0-.2-.1s-.1-.1-.1-.2,0-.1.1-.2.3-.1.3,0,.1.1.1.2S64.4,29.3,64.2,29.5Z"/><path class="cls-2" d="M67.5,30.7c-.1,0-.1,0-.2-.1s-.1-.1-.1-.2,0-.1.1-.2a.3.3,0,0,1,.4,0c0,.1.1.1.1.2s0,.1-.1.2S67.6,30.7,67.5,30.7Z"/><path class="cls-2" d="M69.5,29.7c-.1,0-.1,0-.2-.1s-.1-.1-.1-.2,0-.1.1-.2a.3.3,0,0,1,.4,0c.1.1.1.1.1.2s0,.1-.1.2S69.6,29.7,69.5,29.7Z"/><path class="cls-2" d="M7.2,15.7c-.1,0-.1,0-.2-.1s-.1-.1-.1-.2,0-.1.1-.2a.3.3,0,0,1,.4,0c.1.1.1.1.1.2s0,.1-.1.2S7.3,15.7,7.2,15.7Z"/><path class="cls-2" d="M1.5,9c-.1,0-.1,0-.2-.1s-.1-.1-.1-.2,0-.1.1-.2a.3.3,0,0,1,.4,0c.1.1.1.1.1.2s0,.1-.1.2S1.6,9,1.5,9Z"/><path class="cls-2" d="M14.5,6.5c-.1,0-.1,0-.2-.1s-.1-.1-.1-.2,0-.1.1-.2a.3.3,0,0,1,.4,0c.1.1.1.1.1.2s0,.1-.1.2S14.6,6.5,14.5,6.5Z"/><path class="cls-2" d="M8.5,5.2c-.1,0-.1,0-.2-.1s-.1-.1-.1-.2,0-.1.1-.2a.3.3,0,0,1,.4,0c.1.1.1.1.1.2s0,.1-.1.2S8.6,5.2,8.5,5.2Z"/><path class="cls-2" d="M3.5,2.5c-.1,0-.1,0-.2-.1s-.1-.1-.1-.2,0-.1.1-.2a.3.3,0,0,1,.4,0c.1.1.1.1.1.2s0,.1-.1.2S3.6,2.5,3.5,2.5Z"/><path class="cls-2" d="M3.7,6c-.1,0-.1,0-.2-.1s-.1-.1-.1-.2,0-.1.1-.2a.3.3,0,0,1,.4,0c.1.1.1.1.1.2s0,.1-.1.2S3.8,6,3.7,6Z"/><path class="cls-2" d="M12.7,14.2c-.1,0-.1,0-.2-.1s-.1-.1-.1-.2,0-.1.1-.2a.3.3,0,0,1,.4,0c.1.1.1.1.1.2s0,.1-.1.2S12.8,14.2,12.7,14.2Z"/><path class="cls-2" d="M18.5,19.2c-.1,0-.1,0-.2-.1s-.1-.1-.1-.2,0-.1.1-.2a.3.3,0,0,1,.4,0c0,.1.1.1.1.2s0,.1-.1.2S18.6,19.2,18.5,19.2Z"/><path class="cls-2" d="M21.2,37c-.1,0-.1,0-.2-.1s-.1-.1-.1-.2,0-.1.1-.2a.3.3,0,0,1,.4,0c.1.1.1.1.1.2s0,.1-.1.2S21.3,37,21.2,37Z"/><path class="cls-2" d="M.7,44.2c-.1,0-.1,0-.2-.1s-.1-.1-.1-.2,0-.1.1-.2a.3.3,0,0,1,.4,0c.1.2.1.2.1.3s0,.1-.1.2Z"/><path class="cls-2" d="M66.5,37.2c-.1,0-.1,0-.2-.1s-.1-.1-.1-.2,0-.1.1-.2a.3.3,0,0,1,.4,0c.1.1.1.1.1.2s0,.1-.1.2S66.6,37.2,66.5,37.2Z"/><path class="cls-2" d="M68,66c-.1,0-.1,0-.2-.1s-.1-.1-.1-.2,0-.1.1-.2a.3.3,0,0,1,.4,0c.1.1.1.1.1.2s0,.1-.1.2S68.1,66,68,66Z"/><path class="cls-2" d="M59.7,69.7c-.1,0-.1,0-.2-.1s-.1-.1-.1-.2,0-.1.1-.2a.3.3,0,0,1,.4,0c.1.1.1.1.1.2s0,.1-.1.2S59.8,69.7,59.7,69.7Z"/><path class="cls-2" d="M40.5,68c-.1,0-.1,0-.2-.1s-.1-.1-.1-.2,0-.1.1-.2a.3.3,0,0,1,.4,0c.1.1.1.1.1.2s0,.1-.1.2S40.6,68,40.5,68Z"/><path class="cls-2" d="M44,63c-.1,0-.1,0-.2-.1s-.1-.1-.1-.2,0-.1.1-.2a.3.3,0,0,1,.4,0c.1.1.1.1.1.2s0,.1-.1.2S44.1,63,44,63Z"/><path class="cls-2" d="M25.7,70c-.1,0-.1,0-.2-.1s-.1-.1-.1-.2,0-.1.1-.2a.3.3,0,0,1,.4,0c.1.1.1.1.1.2s0,.1-.1.2S25.8,70,25.7,70Z"/><path class="cls-2" d="M4.5,60c-.1,0-.1,0-.2-.1s-.1-.1-.1-.2,0-.1.1-.2a.3.3,0,0,1,.4,0c0,.1.1.1.1.2s0,.1-.1.2S4.6,60,4.5,60Z"/><path class="cls-2" d="M26.5,59.5c-.1,0-.1,0-.2-.1s-.1-.1-.1-.2,0-.1.1-.2a.3.3,0,0,1,.4,0c.1.1.1.1.1.2s0,.1-.1.2S26.6,59.5,26.5,59.5Z"/><path class="cls-2" d="M37.2,48.5c-.1,0-.1,0-.2-.1s-.1-.1-.1-.2,0-.1.1-.2a.19.19,0,0,1,.3,0h0c.1,0,.1.1.1.2S37.4,48.3,37.2,48.5Z"/><path class="cls-2" d="M22,41.7c-.1,0-.1,0-.2-.1s-.1-.1-.1-.2,0-.1.1-.2a.3.3,0,0,1,.4,0c.1.1.1.1.1.2s0,.1-.1.2S22.1,41.7,22,41.7Z"/><path class="cls-2" d="M8.7,40.2c-.1,0-.1,0-.2-.1s-.1-.1-.1-.2,0-.1.1-.2a.3.3,0,0,1,.4,0c.1.2.1.2.1.3s0,.1-.1.2Z"/><path class="cls-2" d="M24,29c-.1,0-.1,0-.2-.1s-.1-.1-.1-.2,0-.1.1-.2a.3.3,0,0,1,.4,0c.1.1.1.1.1.2s0,.1-.1.2S24.1,29,24,29Z"/><path class="cls-2" d="M41.5,34.5c-.1,0-.1,0-.2-.1s-.1-.1-.1-.2,0-.1.1-.2.3-.1.3,0,.1.1.1.2S41.7,34.3,41.5,34.5Z"/><path class="cls-2" d="M51.5,37.5c-.1,0-.1,0-.2-.1s-.1-.1-.1-.2,0-.1.1-.2a.3.3,0,0,1,.4,0c.1.1.1.1.1.2s0,.1-.1.2S51.6,37.5,51.5,37.5Z"/><path class="cls-2" d="M60.7,46c-.1,0-.1,0-.2-.1s-.1-.1-.1-.2,0-.1.1-.2a.3.3,0,0,1,.4,0c.1.1.1.1.1.2s0,.1-.1.2S60.8,46,60.7,46Z"/><path class="cls-2" d="M67.5,43.7c-.1,0-.1,0-.2-.1s-.1-.1-.1-.2,0-.1.1-.2a.3.3,0,0,1,.4,0c.1.1.1.1.1.2s0,.1-.1.2S67.6,43.7,67.5,43.7Z"/><path class="cls-2" d="M51.2,66.2c-.1,0-.1,0-.2-.1V66c0-.1,0-.1.1-.2a.3.3,0,0,1,.4,0c.1.1.1.1.1.2s0,.1-.1.2Z"/><path class="cls-2" d="M40,37.7c-.1,0-.1,0-.2-.1s-.1-.1-.1-.2,0-.1.1-.2a.3.3,0,0,1,.4,0c.1.1.1.1.1.2s0,.1-.1.2S40.1,37.7,40,37.7Z"/><path class="cls-2" d="M53.2,15c-.1,0-.1,0-.2-.1s-.1-.1-.1-.2,0-.1.1-.2a.3.3,0,0,1,.4,0c.1.1.1.1.1.2s0,.1-.1.2S53.3,15,53.2,15Z"/><path class="cls-2" d="M34,16c-.1,0-.1,0-.2-.1s-.1-.1-.1-.2,0-.1.1-.2a.3.3,0,0,1,.4,0c.1.1.1.1.1.2s0,.1-.1.2S34.1,16,34,16Z"/><path class="cls-2" d="M27.5,13.5c-.1,0-.1,0-.2-.1s-.1-.1-.1-.2,0-.1.1-.2a.3.3,0,0,1,.4,0c.1.1.1.1.1.2s0,.1-.1.2S27.6,13.5,27.5,13.5Z"/><path class="cls-2" d="M12.7,19.2c-.1,0-.1,0-.2-.1s-.1-.1-.1-.2,0-.1.1-.2a.3.3,0,0,1,.4,0c.1.1.1.1.1.2s0,.1-.1.2S12.8,19.2,12.7,19.2Z"/><path class="cls-2" d="M19.7,26.5c-.1,0-.1,0-.2-.1s-.1-.1-.1-.2,0-.1.1-.2a.3.3,0,0,1,.4,0c.1.1.1.1.1.2s0,.1-.1.2S19.8,26.5,19.7,26.5Z"/><path class="cls-2" d="M49.5,4.5c-.1,0-.1,0-.2-.1s-.1-.1-.1-.2,0-.1.1-.2a.3.3,0,0,1,.4,0c.1.1.1.1.1.2s0,.1-.1.2S49.6,4.5,49.5,4.5Z"/><path class="cls-2" d="M11.7,1.7c-.1,0-.1,0-.2-.1s-.1-.1-.1-.2,0-.1.1-.2a.3.3,0,0,1,.4,0c.1.1.1.1.1.2s0,.1-.1.2S11.8,1.7,11.7,1.7Z"/><path class="cls-2" d="M55.2,3.7c-.1,0-.1,0-.2-.1s-.1-.1-.1-.2,0-.1.1-.2a.3.3,0,0,1,.4,0c.1.1.1.1.1.2s0,.1-.1.2S55.3,3.7,55.2,3.7Z"/><path class="cls-2" d="M59,20.7c-.1,0-.1,0-.2-.1s-.1-.1-.1-.2,0-.1.1-.2a.3.3,0,0,1,.4,0c0,.1.1.1.1.2s0,.1-.1.2S59.1,20.7,59,20.7Z"/><path class="cls-2" d="M67.5,57.2c-.1,0-.1,0-.2-.1s-.1-.1-.1-.2,0-.1.1-.2a.3.3,0,0,1,.4,0c.1.1.1.1.1.2s0,.1-.1.2S67.6,57.2,67.5,57.2Z"/><path class="cls-2" d="M47.2,69.7c-.1,0-.1,0-.2-.1s-.1-.1-.1-.2,0-.1.1-.2a.3.3,0,0,1,.4,0c.1.1.1.1.1.2s0,.1-.1.2S47.3,69.7,47.2,69.7Z"/><path class="cls-2" d="M5.2,69.7c-.1,0-.1,0-.2-.1v-.1c0-.1,0-.1.1-.2a.3.3,0,0,1,.4,0c.1.1.1.1.1.2s0,.1-.1.2Z"/><path class="cls-2" d="M4.7,40.2c-.1,0-.1,0-.2-.1s-.1-.1-.1-.2,0-.1.1-.2a.3.3,0,0,1,.4,0c.1.2.1.2.1.3s0,.1-.1.2Z"/><path class="cls-2" d="M69.7,12.7c-.1,0-.1,0-.2-.1s-.1-.1-.1-.2,0-.1.1-.2a.3.3,0,0,1,.4,0c.1.1.1.1.1.2s0,.1-.1.2S69.8,12.7,69.7,12.7Z"/><path class="cls-2" d="M23.2,14c-.1,0-.1,0-.2-.1s-.1-.1-.1-.2,0-.1.1-.2a.3.3,0,0,1,.4,0c0,.1.1.1.1.2s0,.1-.1.2S23.3,14,23.2,14Z"/><path class="cls-2" d="M20.5,17.2c-.1,0-.1,0-.2-.1s-.1-.1-.1-.2,0-.1.1-.2a.3.3,0,0,1,.4,0c.1.1.1.1.1.2s0,.1-.1.2S20.6,17.2,20.5,17.2Z"/><path class="cls-2" d="M14.7,17.2c-.1,0-.1,0-.2-.1s-.1-.1-.1-.2,0-.1.1-.2a.3.3,0,0,1,.4,0c.1.1.1.1.1.2s0,.1-.1.2S14.8,17.2,14.7,17.2Z"/><path class="cls-2" d="M2.7,13.2c-.1,0-.1,0-.2-.1s-.1-.1-.1-.2,0-.1.1-.2a.3.3,0,0,1,.4,0c.1.2.1.2.1.3s0,.1-.1.2Z"/><path class="cls-2" d="M6,11.7c-.1,0-.1,0-.2-.1s-.1-.1-.1-.2,0-.1.1-.2a.3.3,0,0,1,.4,0c.1.1.1.1.1.2s0,.1-.1.2S6.1,11.7,6,11.7Z"/><path class="cls-2" d="M7,2.7c-.1,0-.1,0-.2-.1s-.1-.1-.1-.2,0-.1.1-.2a.3.3,0,0,1,.4,0c.1.1.1.1.1.2s0,.1-.1.2S7.1,2.7,7,2.7Z"/><path class="cls-2" d="M10,8.2c-.1,0-.1,0-.2-.1s-.1-.1-.1-.2,0-.1.1-.2a.3.3,0,0,1,.4,0c.1.1.1.1.1.2s0,.1-.1.2S10.1,8.2,10,8.2Z"/><path class="cls-2" d="M16,8.2c-.1,0-.1,0-.2-.1s-.1-.1-.1-.2,0-.1.1-.2a.3.3,0,0,1,.4,0c.1.1.1.1.1.2s0,.1-.1.2S16.1,8.2,16,8.2Z"/><path class="cls-2" d="M16.5,3.2c-.1,0-.1,0-.2-.1s-.1-.1-.1-.2,0-.1.1-.2a.3.3,0,0,1,.4,0c.1.1.1.1.1.2s0,.1-.1.2S16.6,3.2,16.5,3.2Z"/><path class="cls-2" d="M25.7,7c-.1,0-.1,0-.2-.1s-.1-.1-.1-.2,0-.1.1-.2a.3.3,0,0,1,.4,0c.1.1.1.1.1.2s0,.1-.1.2S25.8,7,25.7,7Z"/><path class="cls-2" d="M37,7.5c-.1,0-.1,0-.2-.1s-.1-.1-.1-.2,0-.1.1-.2a.3.3,0,0,1,.4,0c.1.1.1.1.1.2s0,.1-.1.2S37.1,7.5,37,7.5Z"/><path class="cls-2" d="M40.5,4.5c-.1,0-.1,0-.2-.1s-.1-.1-.1-.2,0-.1.1-.2a.3.3,0,0,1,.4,0c0,.1.1.1.1.2s0,.1-.1.2S40.6,4.5,40.5,4.5Z"/><path class="cls-2" d="M37.5,4.2c-.1,0-.1,0-.2-.1s-.1-.1-.1-.2,0-.1.1-.2a.3.3,0,0,1,.4,0c0,.1.1.1.1.2s0,.1-.1.2S37.6,4.2,37.5,4.2Z"/><path class="cls-2" d="M43.2,2.2c-.1,0-.1,0-.2-.1s-.1-.1-.1-.2,0-.1.1-.2a.3.3,0,0,1,.4,0c.1.1.1.1.1.2s0,.1-.1.2S43.3,2.2,43.2,2.2Z"/><path class="cls-2" d="M49.5,8.2c-.1,0-.1,0-.2-.1s-.1-.1-.1-.2,0-.1.1-.2a.3.3,0,0,1,.4,0c.1.1.1.1.1.2s0,.1-.1.2S49.6,8.2,49.5,8.2Z"/><path class="cls-2" d="M46,9.2c-.1,0-.1,0-.2-.1s-.1-.1-.1-.2,0-.1.1-.2a.3.3,0,0,1,.4,0c.1.1.1.1.1.2s0,.1-.1.2S46.1,9.2,46,9.2Z"/><path class="cls-2" d="M35.7,11c-.1,0-.1,0-.2-.1s-.1-.1-.1-.2,0-.1.1-.2a.3.3,0,0,1,.4,0c.1.1.1.1.1.2s0,.1-.1.2S35.8,11,35.7,11Z"/><path class="cls-2" d="M39.2,15c-.1,0-.1,0-.2-.1s-.1-.1-.1-.2,0-.1.1-.2a.3.3,0,0,1,.4,0c0,.1.1.1.1.2s0,.1-.1.2S39.3,15,39.2,15Z"/><path class="cls-2" d="M24.7,18c-.1,0-.1,0-.2-.1s-.1-.1-.1-.2,0-.1.1-.2a.3.3,0,0,1,.4,0c.1.1.1.1.1.2s0,.1-.1.2S24.8,18,24.7,18Z"/><path class="cls-2" d="M8.2,27.2c-.1,0-.1,0-.2-.1V27c0-.1,0-.1.1-.2a.3.3,0,0,1,.4,0c.1.1.1.1.1.2s0,.1-.1.2Z"/><path class="cls-2" d="M16,31.7c-.1,0-.1,0-.2-.1s-.1-.1-.1-.2,0-.1.1-.2a.3.3,0,0,1,.4,0c.1.1.1.1.1.2s0,.1-.1.2S16.1,31.7,16,31.7Z"/><path class="cls-2" d="M10.5,33.5c-.1,0-.1,0-.2-.1s-.1-.1-.1-.2,0-.1.1-.2a.3.3,0,0,1,.4,0c.1.1.1.1.1.2s0,.1-.1.2S10.6,33.5,10.5,33.5Z"/><path class="cls-2" d="M5.2,37c-.1,0-.1,0-.2-.1s-.1-.1-.1-.2,0-.1.1-.2a.3.3,0,0,1,.4,0c.1.1.1.1.1.2s0,.1-.1.2S5.3,37,5.2,37Z"/><path class="cls-2" d="M2.7,32c-.1,0-.1,0-.2-.1s-.1-.1-.1-.2,0-.1.1-.2a.3.3,0,0,1,.4,0c.1.1.1.1.1.2s0,.1-.1.2S2.8,32,2.7,32Z"/><path class="cls-2" d="M7.5,25c-.1,0-.1,0-.2-.1s-.1-.1-.1-.2,0-.1.1-.2.3-.1.3,0,.1.1.1.2,0,.1-.1.2S7.6,25,7.5,25Z"/><path class="cls-2" d="M3.2,20.5c-.1,0-.1,0-.2-.1s-.1-.1-.1-.2,0-.1.1-.2a.3.3,0,0,1,.4,0c.1.1.1.1.1.2s0,.1-.1.2S3.3,20.5,3.2,20.5Z"/><path class="cls-2" d="M20.5,30.7c-.1,0-.1,0-.2-.1s-.1-.1-.1-.2,0-.1.1-.2a.3.3,0,0,1,.4,0c0,.1.1.1.1.2s0,.1-.1.2S20.6,30.7,20.5,30.7Z"/><path class="cls-2" d="M17.5,35.5c-.1,0-.1,0-.2-.1s-.1-.1-.1-.2,0-.1.1-.2a.3.3,0,0,1,.4,0c.1.1.1.1.1.2s0,.1-.1.2S17.6,35.5,17.5,35.5Z"/><path class="cls-2" d="M16,39c-.1,0-.1,0-.2-.1s-.1-.1-.1-.2,0-.1.1-.2a.3.3,0,0,1,.4,0c.1.1.1.1.1.2s0,.1-.1.2S16.1,39,16,39Z"/><path class="cls-2" d="M12.7,41.2c-.1,0-.1,0-.2-.1s-.1-.1-.1-.2,0-.1.1-.2a.3.3,0,0,1,.4,0c.1.1.1.1.1.2s0,.1-.1.2S12.8,41.2,12.7,41.2Z"/><path class="cls-2" d="M12.7,46.5c-.1,0-.1,0-.2-.1s-.1-.1-.1-.2,0-.1.1-.2a.3.3,0,0,1,.4,0c.1.1.1.1.1.2s0,.1-.1.2S12.8,46.5,12.7,46.5Z"/><path class="cls-2" d="M4,46.7c-.1,0-.1,0-.2-.1s-.1-.1-.1-.2,0-.1.1-.2.3-.1.3,0,.1.1.1.2,0,.1-.2.3Z"/><path class="cls-2" d="M5.7,48.5c-.1,0-.1,0-.2-.1s-.1-.1-.1-.2,0-.1.1-.2a.3.3,0,0,1,.4,0c.1.1.1.1.1.2s0,.1-.1.2S5.8,48.5,5.7,48.5Z"/><path class="cls-2" d="M11,50.5c-.1,0-.1,0-.2-.1s-.1-.1-.1-.2,0-.1.1-.2a.3.3,0,0,1,.4,0c0,.1.1.1.1.2s0,.1-.1.2S11.1,50.5,11,50.5Z"/><path class="cls-2" d="M11,54.5c-.1,0-.1,0-.2-.1s-.1-.1-.1-.2,0-.1.1-.2a.3.3,0,0,1,.4,0c.1.1.1.1.1.2s0,.1-.1.2S11.1,54.5,11,54.5Z"/><path class="cls-2" d="M15.5,58.5c-.1,0-.1,0-.2-.1s-.1-.1-.1-.2,0-.1.1-.2a.3.3,0,0,1,.4,0c.1.1.1.1.1.2s0,.1-.1.2S15.6,58.5,15.5,58.5Z"/><path class="cls-2" d="M10,59.7c-.1,0-.1,0-.2-.1s-.1-.1-.1-.2,0-.1.1-.2a.3.3,0,0,1,.4,0c.1.1.1.1.1.2s0,.1-.1.2S10.1,59.7,10,59.7Z"/><path class="cls-2" d="M6,63.5c-.1,0-.1,0-.2-.1s-.1-.1-.1-.2,0-.1.1-.2a.6.6,0,0,1,.4.1c.1.1.1.1.1.2s0,.1-.1.2Z"/><path class="cls-2" d="M2.2,62c-.1,0-.1,0-.2-.1s-.1-.1-.1-.2,0-.1.1-.2.3-.1.3,0,.1.1.1.2S2.4,61.8,2.2,62Z"/><path class="cls-2" d="M7.2,67.7c-.1,0-.1,0-.2-.1v-.1c0-.1,0-.1.1-.2a.3.3,0,0,1,.4,0c.1.1.1.1.1.2s0,.1-.1.2Z"/><path class="cls-2" d="M13.5,69.5c-.1,0-.1,0-.2-.1s-.1-.1-.1-.2,0-.1.1-.2a.3.3,0,0,1,.4,0c.1.1.1.1.1.2s0,.1-.1.2S13.6,69.5,13.5,69.5Z"/><path class="cls-2" d="M13.5,65.7c-.1,0-.1,0-.2-.1s-.1-.1-.1-.2,0-.1.1-.2a.3.3,0,0,1,.4,0c0,.1.1.1.1.2s0,.1-.1.2S13.6,65.7,13.5,65.7Z"/><path class="cls-2" d="M21.5,68.5c-.1,0-.1,0-.2-.1s-.1-.1-.1-.2,0-.1.1-.2a.3.3,0,0,1,.4,0c.1.1.1.1.1.2s0,.1-.1.2S21.6,68.5,21.5,68.5Z"/><path class="cls-2" d="M23,65.7c-.1,0-.1,0-.2-.1s-.1-.1-.1-.2,0-.1.1-.2a.3.3,0,0,1,.4,0c.1.1.1.1.1.2s0,.1-.1.2S23.1,65.7,23,65.7Z"/><path class="cls-2" d="M22.2,60c-.1,0-.1,0-.2-.1s-.1-.1-.1-.2,0-.1.1-.2a.3.3,0,0,1,.4,0c.1.1.1.1.1.2s0,.1-.1.2S22.3,60,22.2,60Z"/><path class="cls-2" d="M24.2,57.5c-.1,0-.1,0-.2-.1s-.1-.1-.1-.2,0-.1.1-.2a.3.3,0,0,1,.4,0c.1.1.1.1.1.2s0,.1-.1.2S24.3,57.5,24.2,57.5Z"/><path class="cls-2" d="M22,53.2c-.1,0-.1,0-.2-.1s-.1-.1-.1-.2,0-.1.1-.2a.3.3,0,0,1,.4,0c0,.1.1.1.1.2s0,.1-.1.2S22.1,53.2,22,53.2Z"/><path class="cls-2" d="M26.2,47.7c-.1,0-.1,0-.2-.1s-.1-.1-.1-.2,0-.1.1-.2a.3.3,0,0,1,.4,0c.1.1.1.1.1.2s0,.1-.1.2S26.3,47.7,26.2,47.7Z"/><path class="cls-2" d="M25.7,43.5c-.1,0-.1,0-.2-.1s-.1-.1-.1-.2,0-.1.1-.2a.3.3,0,0,1,.4,0c0,.1.1.1.1.2s0,.1-.1.2S25.8,43.5,25.7,43.5Z"/><path class="cls-2" d="M31.2,37.5c-.1,0-.1,0-.2-.1s-.1-.1-.1-.2,0-.1.1-.2a.3.3,0,0,1,.4,0c0,.1.1.1.1.2s0,.1-.1.2S31.3,37.5,31.2,37.5Z"/><path class="cls-2" d="M32.2,31c-.1,0-.1,0-.2-.1s-.1-.1-.1-.2,0-.1.1-.2a.3.3,0,0,1,.4,0c.1.1.1.1.1.2s0,.1-.1.2S32.3,31,32.2,31Z"/><path class="cls-2" d="M26,34c-.1,0-.1,0-.2-.1s-.1-.1-.1-.2,0-.1.1-.2a.3.3,0,0,1,.4,0c.1.1.1.1.1.2s0,.1-.1.2S26.1,34,26,34Z"/><path class="cls-2" d="M34.2,27.7c-.1,0-.1,0-.2-.1s-.1-.1-.1-.2,0-.1.1-.2a.3.3,0,0,1,.4,0c0,.1.1.1.1.2s0,.1-.1.2S34.3,27.7,34.2,27.7Z"/><path class="cls-2" d="M37.2,28.5c-.1,0-.1,0-.2-.1s-.1-.1-.1-.2,0-.1.1-.2.3-.1.3,0,.1.1.1.2S37.4,28.3,37.2,28.5Z"/><path class="cls-2" d="M41.7,25.7c-.1,0-.1,0-.2-.1s-.1-.1-.1-.2,0-.1.1-.2a.3.3,0,0,1,.4,0c0,.1.1.1.1.2s0,.1-.1.2S41.8,25.7,41.7,25.7Z"/><path class="cls-2" d="M43,20.7c-.1,0-.1,0-.2-.1s-.1-.1-.1-.2,0-.1.1-.2a.3.3,0,0,1,.4,0c.1.1.1.1.1.2s0,.1-.1.2S43.1,20.7,43,20.7Z"/><path class="cls-2" d="M36.5,19.2c-.1,0-.1,0-.2-.1s-.1-.1-.1-.2,0-.1.1-.2a.3.3,0,0,1,.4,0c.1.1.1.1.1.2s0,.1-.1.2S36.6,19.2,36.5,19.2Z"/><path class="cls-2" d="M27.7,22.2c-.1,0-.1,0-.2-.1s-.1-.1-.1-.2,0-.1.1-.2a.3.3,0,0,1,.4,0c.1.1.1.1.1.2s0,.1-.1.2S27.8,22.2,27.7,22.2Z"/><path class="cls-2" d="M52,22c-.1,0-.1,0-.2-.1s-.1-.1-.1-.2,0-.1.1-.2a.3.3,0,0,1,.4,0c0,.1.1.1.1.2s0,.1-.1.2S52.1,22,52,22Z"/><path class="cls-2" d="M43.2,17.7c-.1,0-.1,0-.2-.1s-.1-.1-.1-.2,0-.1.1-.2a.3.3,0,0,1,.4,0c0,.1.1.1.1.2s0,.1-.1.2S43.3,17.7,43.2,17.7Z"/><path class="cls-2" d="M50.5,18c-.1,0-.1,0-.2-.1s-.1-.1-.1-.2,0-.1.1-.2a.3.3,0,0,1,.4,0c0,.1.1.1.1.2s0,.1-.1.2S50.6,18,50.5,18Z"/><path class="cls-2" d="M59.5,17.2c-.1,0-.1,0-.2-.1s-.1-.1-.1-.2,0-.1.1-.2a.3.3,0,0,1,.4,0c.1.1.1.1.1.2s0,.1-.1.2S59.6,17.2,59.5,17.2Z"/><path class="cls-2" d="M58.2,14c-.1,0-.1,0-.2-.1s-.1-.1-.1-.2,0-.1.1-.2a.3.3,0,0,1,.4,0c.1.1.1.1.1.2s0,.1-.1.2S58.3,14,58.2,14Z"/><path class="cls-2" d="M61.5,11c-.1,0-.1,0-.2-.1s-.1-.1-.1-.2,0-.1.1-.2a.3.3,0,0,1,.4,0c.1.1.1.1.1.2s0,.1-.1.2S61.6,11,61.5,11Z"/><path class="cls-2" d="M58.7,7.5c-.1,0-.1,0-.2-.1s-.1-.1-.1-.2,0-.1.1-.2a.3.3,0,0,1,.4,0c.1.1.1.1.1.2s0,.1-.1.2S58.8,7.5,58.7,7.5Z"/><path class="cls-2" d="M60,4.7c-.1,0-.1,0-.2-.1s-.1-.1-.1-.2,0-.1.1-.2a.3.3,0,0,1,.4,0c.1.1.1.1.1.2s0,.1-.1.2S60.1,4.7,60,4.7Z"/><path class="cls-2" d="M67.5,6c-.1,0-.1,0-.2-.1s-.1-.1-.1-.2,0-.1.1-.2a.3.3,0,0,1,.4,0c0,.1.1.1.1.2s0,.1-.1.2S67.6,6,67.5,6Z"/><path class="cls-2" d="M69.5,8c-.1,0-.1,0-.2-.1s-.1-.1-.1-.2,0-.1.1-.2a.3.3,0,0,1,.4,0c.1.1.1.1.1.2s0,.1-.1.2S69.6,8,69.5,8Z"/><path class="cls-2" d="M65.7,9.7c-.1,0-.1,0-.2-.1s-.1-.1-.1-.2,0-.1.1-.2a.3.3,0,0,1,.4,0c.1.1.1.1.1.2s0,.1-.1.2S65.8,9.7,65.7,9.7Z"/><path class="cls-2" d="M61.7,16.5c-.1,0-.1,0-.2-.1s-.1-.1-.1-.2,0-.1.1-.2a.3.3,0,0,1,.4,0c.1.1.1.1.1.2s0,.1-.1.2S61.8,16.5,61.7,16.5Z"/><path class="cls-2" d="M60.2,23.7c-.1,0-.1,0-.2-.1s-.1-.1-.1-.2,0-.1.1-.2a.3.3,0,0,1,.4,0c.1.1.1.1.1.2s0,.1-.1.2S60.3,23.7,60.2,23.7Z"/><path class="cls-2" d="M55.5,23.7c-.1,0-.1,0-.2-.1s-.1-.1-.1-.2,0-.1.1-.2a.3.3,0,0,1,.4,0c.1.1.1.1.1.2s0,.1-.1.2S55.6,23.7,55.5,23.7Z"/><path class="cls-2" d="M55.5,18.7c-.1,0-.1,0-.2-.1s-.1-.1-.1-.2,0-.1.1-.2a.3.3,0,0,1,.4,0c.1.1.1.1.1.2s0,.1-.1.2S55.6,18.7,55.5,18.7Z"/><path class="cls-2" d="M65,25.7c-.1,0-.1,0-.2-.1s-.1-.1-.1-.2,0-.1.1-.2a.3.3,0,0,1,.4,0c.1.1.1.1.1.2s0,.1-.1.2S65.1,25.7,65,25.7Z"/><path class="cls-2" d="M61.2,27c-.1,0-.1,0-.2-.1s-.1-.1-.1-.2,0-.1.1-.2a.3.3,0,0,1,.4,0c.1.1.1.1.1.2s0,.1-.1.2S61.3,27,61.2,27Z"/><path class="cls-2" d="M57.7,30.7c-.1,0-.1,0-.2-.1s-.1-.1-.1-.2,0-.1.1-.2a.3.3,0,0,1,.4,0c.1.1.1.1.1.2s0,.1-.1.2S57.8,30.7,57.7,30.7Z"/><path class="cls-2" d="M52.7,32.7c-.1,0-.1,0-.2-.1s-.1-.1-.1-.2,0-.1.1-.2a.3.3,0,0,1,.4,0c.1.1.1.1.1.2s0,.1-.1.2S52.8,32.7,52.7,32.7Z"/><path class="cls-2" d="M47.5,33.7c-.1,0-.1,0-.2-.1s-.1-.1-.1-.2,0-.1.1-.2.3-.1.3,0,.1.1.1.2S47.7,33.5,47.5,33.7Z"/><path class="cls-2" d="M44.2,39.2c-.1,0-.1,0-.2-.1s-.1-.1-.1-.2,0-.1.1-.2a.3.3,0,0,1,.4,0c.1.1.1.1.1.2s0,.1-.1.2S44.3,39.2,44.2,39.2Z"/><path class="cls-2" d="M34,41.5c-.1,0-.1,0-.2-.1s-.1-.1-.1-.2,0-.1.1-.2a.3.3,0,0,1,.4,0c.1.1.1.1.1.2s0,.1-.1.2S34.1,41.5,34,41.5Z"/><path class="cls-2" d="M40.7,48c-.1,0-.1,0-.2-.1s-.1-.1-.1-.2,0-.1.1-.2a.3.3,0,0,1,.4,0c.1.1.1.1.1.2s0,.1-.1.2S40.8,48,40.7,48Z"/><path class="cls-2" d="M45.7,52.2c-.1,0-.1,0-.2-.1s-.1-.1-.1-.2,0-.1.1-.2a.3.3,0,0,1,.4,0c.1.1.1.1.1.2s0,.1-.1.2S45.8,52.2,45.7,52.2Z"/><path class="cls-2" d="M46.5,56.7c-.1,0-.1,0-.2-.1s-.1-.1-.1-.2,0-.1.1-.2a.3.3,0,0,1,.4,0c.1.1.1.1.1.2s0,.1-.1.2S46.6,56.7,46.5,56.7Z"/><path class="cls-2" d="M42,59.5c-.1,0-.1,0-.2-.1s-.1-.1-.1-.2,0-.1.1-.2a.3.3,0,0,1,.4,0c.1.1.1.1.1.2s0,.1-.1.2S42.1,59.5,42,59.5Z"/><path class="cls-2" d="M40,62.7c-.1,0-.1,0-.2-.1s-.1-.1-.1-.2,0-.1.1-.2a.3.3,0,0,1,.4,0c.1.1.1.1.1.2s0,.1-.1.2S40.1,62.7,40,62.7Z"/><path class="cls-2" d="M36,62.7c-.1,0-.1,0-.2-.1s-.1-.1-.1-.2,0-.1.1-.2a.3.3,0,0,1,.4,0c0,.1.1.1.1.2s0,.1-.1.2S36.1,62.7,36,62.7Z"/><path class="cls-2" d="M36.5,52.7c-.1,0-.1,0-.2-.1s-.1-.1-.1-.2,0-.1.1-.2a.3.3,0,0,1,.4,0c0,.1.1.1.1.2s0,.1-.1.2S36.6,52.7,36.5,52.7Z"/><path class="cls-2" d="M30,63.5c-.1,0-.1,0-.2-.1s-.1-.1-.1-.2,0-.1.1-.2a.3.3,0,0,1,.4,0c.1.1.1.1.1.2s0,.1-.1.2S30.1,63.5,30,63.5Z"/><path class="cls-2" d="M31.5,68.5c-.1,0-.1,0-.2-.1s-.1-.1-.1-.2,0-.1.1-.2.3-.1.3,0,.1.1.1.2S31.7,68.3,31.5,68.5Z"/><path class="cls-2" d="M37,71c-.1,0-.1,0-.2-.1s-.1-.1-.1-.2,0-.1.1-.2a.3.3,0,0,1,.4,0c.1.1.1.1.1.2s0,.1-.1.2S37.1,71,37,71Z"/><path class="cls-2" d="M58.7,57c-.1,0-.1,0-.2-.1s-.1-.1-.1-.2,0-.1.1-.2a.3.3,0,0,1,.4,0c.1.1.1.1.1.2s0,.1-.1.2S58.8,57,58.7,57Z"/><path class="cls-2" d="M63,57c-.1,0-.1,0-.2-.1s-.1-.1-.1-.2,0-.1.1-.2a.3.3,0,0,1,.4,0c.1.1.1.1.1.2s0,.1-.1.2S63.1,57,63,57Z"/><path class="cls-2" d="M60,50.7c-.1,0-.1,0-.2-.1s-.1-.1-.1-.2,0-.1.1-.2a.3.3,0,0,1,.4,0c.1.1.1.1.1.2s0,.1-.1.2S60.1,50.7,60,50.7Z"/><path class="cls-2" d="M54.5,50.5c-.1,0-.1,0-.2-.1s-.1-.1-.1-.2,0-.1.1-.2a.3.3,0,0,1,.4,0c0,.1.1.1.1.2s0,.1-.1.2S54.6,50.5,54.5,50.5Z"/><path class="cls-2" d="M59.2,44.2c-.1,0-.1,0-.2-.1s-.1-.1-.1-.2,0-.1.1-.2a.3.3,0,0,1,.4,0c0,.1.1.1.1.2s0,.1-.1.2S59.3,44.2,59.2,44.2Z"/><path class="cls-2" d="M54.7,41.7c-.1,0-.1,0-.2-.1s-.1-.1-.1-.2,0-.1.1-.2a.3.3,0,0,1,.4,0c.1.1.1.1.1.2s0,.1-.1.2S54.8,41.7,54.7,41.7Z"/><path class="cls-2" d="M55.7,35.5c-.1,0-.1,0-.2-.1s-.1-.1-.1-.2,0-.1.1-.2a.3.3,0,0,1,.4,0c.1.1.1.1.1.2s0,.1-.1.2S55.8,35.5,55.7,35.5Z"/><path class="cls-2" d="M62.5,42.2c-.1,0-.1,0-.2-.1s-.1-.1-.1-.2,0-.1.1-.2a.19.19,0,0,1,.3,0h0c.1,0,.1.1.1.2s0,.1-.2.3Z"/><path class="cls-2" d="M67,47.5c-.1,0-.1,0-.2-.1s-.1-.1-.1-.2,0-.1.1-.2a.3.3,0,0,1,.4,0c.1.1.1.1.1.2s0,.1-.1.2S67.1,47.5,67,47.5Z"/><path class="cls-2" d="M69.5,54.2c-.1,0-.1,0-.2-.1s-.1-.1-.1-.2,0-.1.1-.2a.3.3,0,0,1,.4,0c.1.1.1.1.1.2s0,.1-.1.2S69.6,54.2,69.5,54.2Z"/><path class="cls-2" d="M63.5,61.7c-.1,0-.1,0-.2-.1s-.1-.1-.1-.2,0-.1.1-.2a.3.3,0,0,1,.4,0c.1.1.1.1.1.2s0,.1-.1.2S63.6,61.7,63.5,61.7Z"/><path class="cls-2" d="M69.2,63.5c-.1,0-.1,0-.2-.1s-.1-.1-.1-.2,0-.1.1-.2a.3.3,0,0,1,.4,0c.1.1.1.1.1.2s0,.1-.1.2S69.3,63.5,69.2,63.5Z"/><path class="cls-2" d="M64.7,65.5c-.1,0-.1,0-.2-.1s-.1-.1-.1-.2,0-.1.1-.2a.3.3,0,0,1,.4,0,.37.37,0,0,1,.1.3l-.1.1C64.9,65.5,64.8,65.5,64.7,65.5Z"/><path class="cls-2" d="M65.7,68.2c-.1,0-.1,0-.2-.1s-.1-.1-.1-.2,0-.1.1-.2a.3.3,0,0,1,.4,0c.1.2.1.2.1.3s0,.1-.1.2Z"/><path class="cls-2" d="M69.2,70.5c-.1,0-.1,0-.2-.1s-.1-.1-.1-.2,0-.1.1-.2a.3.3,0,0,1,.4,0c.1.1.1.1.1.2s0,.1-.1.2S69.3,70.5,69.2,70.5Z"/><path class="cls-2" d="M62.5,70.2c-.1,0-.1,0-.2-.1s-.1-.1-.1-.2,0-.1.1-.2a.19.19,0,0,1,.3,0h0c.1,0,.1.1.1.2S62.7,70,62.5,70.2Z"/><path class="cls-2" d="M60.7,65.7c-.1,0-.1,0-.2-.1s-.1-.1-.1-.2,0-.1.1-.2a.3.3,0,0,1,.4,0c.1.1.1.1.1.2s0,.1-.1.2S60.8,65.7,60.7,65.7Z"/><path class="cls-2" d="M52.7,69.7c-.1,0-.1,0-.2-.1s-.1-.1-.1-.2,0-.1.1-.2a.3.3,0,0,1,.4,0c.1.1.1.1.1.2s0,.1-.1.2S52.8,69.7,52.7,69.7Z"/><path class="cls-2" d="M44.7,66.5c-.1,0-.1,0-.2-.1s-.1-.1-.1-.2,0-.1.1-.2a.3.3,0,0,1,.4,0c.1.1.1.1.1.2s0,.1-.1.2S44.8,66.5,44.7,66.5Z"/><path class="cls-2" d="M44.5,71.2c-.1,0-.1,0-.2-.1s-.1-.1-.1-.2,0-.1.1-.2a.3.3,0,0,1,.4,0c.1.1.1.1.1.2s0,.1-.1.2S44.6,71.2,44.5,71.2Z"/><path class="cls-2" d="M28.5,71.2c-.1,0-.1,0-.2-.1s-.1-.1-.1-.2,0-.1.1-.2a.3.3,0,0,1,.4,0c.1.1.1.1.1.2s0,.1-.1.2S28.6,71.2,28.5,71.2Z"/><path class="cls-2" d="M.7,29.5c-.1,0-.1,0-.2-.1s-.1-.1-.1-.2,0-.1.1-.2.2-.1.4,0,.1.1.1.2,0,.1-.1.2S.8,29.5.7,29.5Z"/><path class="cls-2" d="M24.5,1c-.1,0-.1,0-.2-.1s-.1-.1-.1-.2,0-.1.1-.2a.3.3,0,0,1,.4,0c.1.1.1.1.1.2s0,.1-.1.2S24.6,1,24.5,1Z"/><path class="cls-2" d="M13.2,5c-.1,0-.1,0-.2-.1s-.1-.1-.1-.2,0-.1.1-.2a.3.3,0,0,1,.4,0c.1.1.1.1.1.2s0,.1-.1.2S13.3,5,13.2,5Z"/><path class="cls-2" d="M71,35.2c-.1,0-.1,0-.2-.1s-.1-.1-.1-.2,0-.1.1-.2a.3.3,0,0,1,.4,0c.1.1.1.1.1.2s0,.1-.1.2S71.1,35.2,71,35.2Z"/></pattern><pattern id="SVGID_4_" data-name="SVGID 4 " width="72" height="72" patternTransform="translate(-347.35 15243.54) scale(0.89 0.89)" patternUnits="userSpaceOnUse" viewBox="0 0 72 72"><rect class="cls-1" width="72" height="72"/><rect class="cls-1" width="72" height="72"/><rect class="cls-1" width="72" height="72"/><rect class="cls-1" width="72" height="72"/><rect class="cls-1" width="72" height="72"/><rect class="cls-1" width="72" height="72"/><rect class="cls-1" width="72" height="72"/><path class="cls-2" d="M21,3c-.1,0-.1,0-.2-.1s-.1-.1-.1-.2,0-.1.1-.2a.3.3,0,0,1,.4,0c.1.1.1.1.1.2s0,.1-.1.2S21.1,3,21,3Z"/><path class="cls-2" d="M20,8.2c-.1,0-.1,0-.2-.1s-.1-.1-.1-.2,0-.1.1-.2a.3.3,0,0,1,.4,0c.1.1.1.1.1.2s0,.1-.1.2S20.1,8.2,20,8.2Z"/><path class="cls-2" d="M20.2,10.5c-.1,0-.1,0-.2-.1s-.1-.1-.1-.2,0-.1.1-.2a.3.3,0,0,1,.4,0c.1.1.1.1.1.2s0,.1-.1.2S20.3,10.5,20.2,10.5Z"/><path class="cls-2" d="M18,12.7c-.1,0-.1,0-.2-.1s-.1-.1-.1-.2,0-.1.1-.2a.3.3,0,0,1,.4,0c.1.1.1.1.1.2s0,.1-.1.2S18.1,12.7,18,12.7Z"/><path class="cls-2" d="M15.2,10.5c-.1,0-.1,0-.2-.1s-.1-.1-.1-.2,0-.1.1-.2a.3.3,0,0,1,.4,0c.1.1.1.1.1.2s0,.1-.1.2S15.3,10.5,15.2,10.5Z"/><path class="cls-2" d="M22.7,20c-.1,0-.1,0-.2-.1s-.1-.1-.1-.2,0-.1.1-.2a.3.3,0,0,1,.4,0c0,.1.1.1.1.2s0,.1-.1.2S22.8,20,22.7,20Z"/><path class="cls-2" d="M15.2,23c-.1,0-.1,0-.2-.1s-.1-.1-.1-.2,0-.1.1-.2a.3.3,0,0,1,.4,0c.1.1.1.1.1.2s0,.1-.1.2S15.3,23,15.2,23Z"/><path class="cls-2" d="M14,24c-.1,0-.1,0-.2-.1s-.1-.1-.1-.2,0-.1.1-.2a.3.3,0,0,1,.4,0c.1.1.1.1.1.2s0,.1-.1.2S14.1,24,14,24Z"/><path class="cls-2" d="M24,27c-.1,0-.1,0-.2-.1s-.1-.1-.1-.2,0-.1.1-.2a.3.3,0,0,1,.4,0c0,.1.1.1.1.2s0,.1-.1.2S24.1,27,24,27Z"/><path class="cls-2" d="M30.7,25.7c-.1,0-.1,0-.2-.1s-.1-.1-.1-.2,0-.1.1-.2a.3.3,0,0,1,.4,0c.1.1.1.1.1.2s0,.1-.1.2S30.8,25.7,30.7,25.7Z"/><path class="cls-2" d="M31.2,23.2c-.1,0-.1,0-.2-.1s-.1-.1-.1-.2,0-.1.1-.2a.3.3,0,0,1,.4,0c0,.1.1.1.1.2s0,.1-.1.2S31.3,23.2,31.2,23.2Z"/><path class="cls-2" d="M29.2,18.2c-.1,0-.1,0-.2-.1s-.1-.1-.1-.2,0-.1.1-.2a.3.3,0,0,1,.4,0c.1.1.1.1.1.2s0,.1-.1.2S29.3,18.2,29.2,18.2Z"/><path class="cls-2" d="M32.2,18.2c-.1,0-.1,0-.2-.1s-.1-.1-.1-.2,0-.1.1-.2a.3.3,0,0,1,.4,0c.1.1.1.1.1.2s0,.1-.1.2S32.3,18.2,32.2,18.2Z"/><path class="cls-2" d="M32.5,13.7c-.1,0-.1,0-.2-.1s-.1-.1-.1-.2,0-.1.1-.2a.3.3,0,0,1,.4,0c.1.1.1.1.1.2s0,.1-.1.2S32.6,13.7,32.5,13.7Z"/><path class="cls-2" d="M31.7,11.7c-.1,0-.1,0-.2-.1s-.1-.1-.1-.2,0-.1.1-.2a.3.3,0,0,1,.4,0c.1.1.1.1.1.2s0,.1-.1.2S31.8,11.7,31.7,11.7Z"/><path class="cls-2" d="M29.2,10.7c-.1,0-.1,0-.2-.1s-.1-.1-.1-.2,0-.1.1-.2a.3.3,0,0,1,.4,0c.1.1.1.1.1.2s0,.1-.1.2S29.3,10.7,29.2,10.7Z"/><path class="cls-2" d="M32.2,7c-.1,0-.1,0-.2-.1s-.1-.1-.1-.2,0-.1.1-.2a.3.3,0,0,1,.4,0c.1.1.1.1.1.2s0,.1-.1.2S32.3,7,32.2,7Z"/><path class="cls-2" d="M32,3c-.1,0-.1,0-.2-.1s-.1-.1-.1-.2,0-.1.1-.2.2-.1.4,0,.1.1.1.2,0,.1-.1.2S32.1,3,32,3Z"/><path class="cls-2" d="M29.2,3.2c-.1,0-.1,0-.2-.1s-.1-.1-.1-.2,0-.1.1-.2a.3.3,0,0,1,.4,0c.1.1.1.1.1.2s0,.1-.1.2S29.3,3.2,29.2,3.2Z"/><path class="cls-2" d="M34,1.2c-.1,0-.1,0-.2-.1s-.1-.1-.1-.2,0-.1.1-.2a.3.3,0,0,1,.4,0c.1.1.1.1.1.2s0,.1-.1.2S34.1,1.2,34,1.2Z"/><path class="cls-2" d="M41.5,7c-.1,0-.1,0-.2-.1s-.1-.1-.1-.2,0-.1.1-.2a.19.19,0,0,1,.3,0h0c.1.1.1.1.1.2S41.7,6.8,41.5,7Z"/><path class="cls-2" d="M45.5,6.7c-.1,0-.1,0-.2-.1s-.1-.1-.1-.2,0-.1.1-.2a.3.3,0,0,1,.4,0c.1.1.1.1.1.2s0,.1-.1.2S45.6,6.7,45.5,6.7Z"/><path class="cls-2" d="M40.2,10.2c-.1,0-.1,0-.2-.1s-.1-.1-.1-.2,0-.1.1-.2a.3.3,0,0,1,.4,0c.1.1.1.1.1.2s0,.1-.1.2S40.3,10.2,40.2,10.2Z"/><path class="cls-2" d="M45,11.7c-.1,0-.1,0-.2-.1s-.1-.1-.1-.2,0-.1.1-.2a.3.3,0,0,1,.4,0c.1.1.1.1.1.2s0,.1-.1.2S45.1,11.7,45,11.7Z"/><path class="cls-2" d="M45,13.5c-.1,0-.1,0-.2-.1s-.1-.1-.1-.2,0-.1.1-.2a.3.3,0,0,1,.4,0c.1.1.1.1.1.2s0,.1-.1.2S45.1,13.5,45,13.5Z"/><path class="cls-2" d="M47,14.2c-.1,0-.1,0-.2-.1s-.1-.1-.1-.2,0-.1.1-.2a.3.3,0,0,1,.4,0c.1.1.1.1.1.2s0,.1-.1.2S47.1,14.2,47,14.2Z"/><path class="cls-2" d="M47,16.2c-.1,0-.1,0-.2-.1s-.1-.1-.1-.2,0-.1.1-.2a.3.3,0,0,1,.4,0c.1.1.1.1.1.2s0,.1-.1.2S47.1,16.2,47,16.2Z"/><path class="cls-2" d="M47.2,22.7c-.1,0-.1,0-.2-.1s-.1-.1-.1-.2,0-.1.1-.2a.3.3,0,0,1,.4,0c.1.1.1.1.1.2s0,.1-.1.2S47.3,22.7,47.2,22.7Z"/><path class="cls-2" d="M39,20.7c-.1,0-.1,0-.2-.1s-.1-.1-.1-.2,0-.1.1-.2a.3.3,0,0,1,.4,0c.1.1.1.1.1.2s0,.1-.1.2S39.1,20.7,39,20.7Z"/><path class="cls-2" d="M50.2,13.5c-.1,0-.1,0-.2-.1s-.1-.1-.1-.2,0-.1.1-.2a.3.3,0,0,1,.4,0c.1.1.1.1.1.2s0,.1-.1.2S50.3,13.5,50.2,13.5Z"/><path class="cls-2" d="M52.2,12c-.1,0-.1,0-.2-.1s-.1-.1-.1-.2,0-.1.1-.2a.3.3,0,0,1,.4,0c.1.1.1.1.1.2s0,.1-.1.2S52.3,12,52.2,12Z"/><path class="cls-2" d="M54.7,11c-.1,0-.1,0-.2-.1s-.1-.1-.1-.2,0-.1.1-.2a.3.3,0,0,1,.4,0c.1.1.1.1.1.2s0,.1-.1.2S54.8,11,54.7,11Z"/><path class="cls-2" d="M54.7,6.7c-.1,0-.1,0-.2-.1s-.1-.1-.1-.2,0-.1.1-.2a.3.3,0,0,1,.4,0c0,.1.1.1.1.2s0,.1-.1.2S54.8,6.7,54.7,6.7Z"/><path class="cls-2" d="M56.5.7c-.1,0-.1,0-.2-.1s-.1-.1-.1-.2,0-.1.1-.2a.3.3,0,0,1,.4,0c0,.1.1.1.1.2s0,.1-.1.2S56.6.7,56.5.7Z"/><path class="cls-2" d="M64,6.5c-.1,0-.1,0-.2-.1s-.1-.1-.1-.2,0-.1.1-.2a.3.3,0,0,1,.4,0c0,.1.1.1.1.2s0,.1-.1.2S64.1,6.5,64,6.5Z"/><path class="cls-2" d="M65,2.5c-.1,0-.1,0-.2-.1s-.1-.1-.1-.2,0-.1.1-.2a.3.3,0,0,1,.4,0c.1.1.1.1.1.2s0,.1-.1.2S65.1,2.5,65,2.5Z"/><path class="cls-2" d="M68,3c-.1,0-.1,0-.2-.1s-.1-.1-.1-.2,0-.1.1-.2a.3.3,0,0,1,.4,0c.1.1.1.1.1.2s0,.1-.1.2S68.1,3,68,3Z"/><path class="cls-2" d="M68,10.2c-.1,0-.1,0-.2-.1s-.1-.1-.1-.2,0-.1.1-.2a.3.3,0,0,1,.4,0c.1.1.1.1.1.2s0,.1-.1.2S68.1,10.2,68,10.2Z"/><path class="cls-2" d="M64.2,12.2c-.1,0-.1,0-.2-.1s-.1-.1-.1-.2,0-.1.1-.2.3-.1.3,0,.1.1.1.2S64.4,12,64.2,12.2Z"/><path class="cls-2" d="M65.2,15.7c-.1,0-.1,0-.2-.1s-.1-.1-.1-.2,0-.1.1-.2a.3.3,0,0,1,.4,0c.1.1.1.1.1.2s0,.1-.1.2S65.3,15.7,65.2,15.7Z"/><path class="cls-2" d="M64,19.7c-.1,0-.1,0-.2-.1s-.1-.1-.1-.2,0-.1.1-.2a.3.3,0,0,1,.4,0c.1.1.1.1.1.2s0,.1-.1.2S64.1,19.7,64,19.7Z"/><path class="cls-2" d="M66.2,19.7c-.1,0-.1,0-.2-.1s-.1-.1-.1-.2,0-.1.1-.2a.3.3,0,0,1,.4,0c.1.1.1.1.1.2s0,.1-.1.2S66.3,19.7,66.2,19.7Z"/><path class="cls-2" d="M68,21.2c-.1,0-.1,0-.2-.1s-.1-.1-.1-.2,0-.1.1-.2a.3.3,0,0,1,.4,0c0,.1.1.1.1.2s0,.1-.1.2S68.1,21.2,68,21.2Z"/><path class="cls-2" d="M69.2,20.2c-.1,0-.1,0-.2-.1s-.1-.1-.1-.2,0-.1.1-.2a.3.3,0,0,1,.4,0c.1.1.1.1.1.2s0,.1-.1.2S69.3,20.2,69.2,20.2Z"/><path class="cls-2" d="M69.5,18c-.1,0-.1,0-.2-.1s-.1-.1-.1-.2,0-.1.1-.2a.3.3,0,0,1,.4,0c.1.1.1.1.1.2s0,.1-.1.2S69.6,18,69.5,18Z"/><path class="cls-2" d="M71.2,17.5c-.1,0-.1,0-.2-.1s-.1-.1-.1-.2,0-.1.1-.2a.3.3,0,0,1,.4,0c0,.1.1.1.1.2s0,.1-.1.2S71.3,17.5,71.2,17.5Z"/><path class="cls-2" d="M8,47c-.1,0-.1,0-.2-.1s-.1-.1-.1-.2,0-.1.1-.2a.3.3,0,0,1,.4,0c.1.1.1.1.1.2s0,.1-.1.2S8.1,47,8,47Z"/><path class="cls-2" d="M7,52.2c-.1,0-.1,0-.2-.1s-.1-.1-.1-.2,0-.1.1-.2a.3.3,0,0,1,.4,0c.1.1.1.1.1.2s0,.1-.1.2S7.1,52.2,7,52.2Z"/><path class="cls-2" d="M7.2,54.5c-.1,0-.1,0-.2-.1s-.1-.1-.1-.2,0-.1.1-.2a.3.3,0,0,1,.4,0c.1.1.1.1.1.2s0,.1-.1.2S7.3,54.5,7.2,54.5Z"/><path class="cls-2" d="M5,56.7c-.1,0-.1,0-.2-.1s-.1-.1-.1-.2,0-.1.1-.2a.3.3,0,0,1,.4,0c.1.1.1.1.1.2s0,.1-.1.2S5.1,56.7,5,56.7Z"/><path class="cls-2" d="M2.2,54.5c-.1,0-.1,0-.2-.1s-.1-.1-.1-.2,0-.1.1-.2.3-.1.3,0,.1.1.1.2S2.4,54.3,2.2,54.5Z"/><path class="cls-2" d="M9.7,64h0c-.1-.1-.2-.2-.2-.3s0-.1.1-.2a.3.3,0,0,1,.4,0c.1.1.1.1.1.2s0,.1-.1.2A.37.37,0,0,1,9.7,64Z"/><path class="cls-2" d="M2.2,67h0c-.2-.1-.2-.2-.2-.3s0-.1.1-.2a.3.3,0,0,1,.4,0c.1.1.1.1.1.2s0,.1-.1.2A.37.37,0,0,1,2.2,67Z"/><path class="cls-2" d="M1,68c-.1,0-.1,0-.2-.1s-.1-.1-.1-.2,0-.1.1-.2a.3.3,0,0,1,.4,0c.1.1.1.1.1.2s0,.1-.1.2S1.1,68,1,68Z"/><path class="cls-2" d="M11,71c-.1,0-.1,0-.2-.1s-.1-.1-.1-.2,0-.1.1-.2a.3.3,0,0,1,.4,0c.1.1.1.1.1.2s0,.1-.1.2S11.1,71,11,71Z"/><path class="cls-2" d="M17.7,69.7c-.1,0-.1,0-.2-.1s-.1-.1-.1-.2,0-.1.1-.2a.3.3,0,0,1,.4,0c.1.1.1.1.1.2s0,.1-.1.2S17.8,69.7,17.7,69.7Z"/><path class="cls-2" d="M18.2,67.2c-.1,0-.1,0-.2-.1V67c0-.1,0-.1.1-.2a.3.3,0,0,1,.4,0c.1.1.1.1.1.2s0,.1-.1.2Z"/><path class="cls-2" d="M16.2,62.2c-.1,0-.1,0-.2-.1s-.1-.1-.1-.2,0-.1.1-.2a.3.3,0,0,1,.4,0c.1.1.1.1.1.2s0,.1-.1.2S16.3,62.2,16.2,62.2Z"/><path class="cls-2" d="M19.2,62.2c-.1,0-.1,0-.2-.1s-.1-.1-.1-.2,0-.1.1-.2a.3.3,0,0,1,.4,0c.1.1.1.1.1.2s0,.1-.1.2S19.3,62.2,19.2,62.2Z"/><path class="cls-2" d="M19.5,57.7c-.1,0-.1,0-.2-.1s-.1-.1-.1-.2,0-.1.1-.2a.3.3,0,0,1,.4,0c0,.1.1.1.1.2s0,.1-.1.2S19.6,57.7,19.5,57.7Z"/><path class="cls-2" d="M18.7,55.7c-.1,0-.1,0-.2-.1s-.1-.1-.1-.2,0-.1.1-.2a.3.3,0,0,1,.4,0c.1.1.1.1.1.2s0,.1-.1.2S18.8,55.7,18.7,55.7Z"/><path class="cls-2" d="M16.2,54.7c-.1,0-.1,0-.2-.1s-.1-.1-.1-.2,0-.1.1-.2a.3.3,0,0,1,.4,0c.1.1.1.1.1.2s0,.1-.1.2S16.3,54.7,16.2,54.7Z"/><path class="cls-2" d="M19.2,51c-.1,0-.1,0-.2-.1s-.1-.1-.1-.2,0-.1.1-.2a.3.3,0,0,1,.4,0c.1.1.1.1.1.2s0,.1-.1.2S19.3,51,19.2,51Z"/><path class="cls-2" d="M19,47c-.1,0-.1,0-.2-.1s-.1-.1-.1-.2,0-.1.1-.2a.3.3,0,0,1,.4,0c.1.1.1.1.1.2s0,.1-.1.2S19.1,47,19,47Z"/><path class="cls-2" d="M16.2,47.2c-.1,0-.1,0-.2-.1s-.1-.1-.1-.2,0-.1.1-.2a.3.3,0,0,1,.4,0c.1.1.1.1.1.2s0,.1-.1.2S16.3,47.2,16.2,47.2Z"/><path class="cls-2" d="M21,45.2c-.1,0-.1,0-.2-.1s-.1-.1-.1-.2,0-.1.1-.2a.3.3,0,0,1,.4,0c.1.1.1.1.1.2s0,.1-.1.2S21.1,45.2,21,45.2Z"/><path class="cls-2" d="M28.5,51c-.1,0-.1,0-.2-.1s-.1-.1-.1-.2,0-.1.1-.2a.3.3,0,0,1,.4,0c0,.1.1.1.1.2s0,.1-.1.2S28.6,51,28.5,51Z"/><path class="cls-2" d="M32.5,50.7c-.1,0-.1,0-.2-.1s-.1-.1-.1-.2,0-.1.1-.2a.3.3,0,0,1,.4,0c.1.1.1.1.1.2s0,.1-.1.2S32.6,50.7,32.5,50.7Z"/><path class="cls-2" d="M27.2,54.2c-.1,0-.1,0-.2-.1s-.1-.1-.1-.2,0-.1.1-.2a.3.3,0,0,1,.4,0c.1.1.1.1.1.2s0,.1-.1.2S27.3,54.2,27.2,54.2Z"/><path class="cls-2" d="M32,55.7c-.1,0-.1,0-.2-.1s-.1-.1-.1-.2,0-.1.1-.2a.3.3,0,0,1,.4,0c0,.1.1.1.1.2s0,.1-.1.2S32.1,55.7,32,55.7Z"/><path class="cls-2" d="M32,57.5c-.1,0-.1,0-.2-.1s-.1-.1-.1-.2,0-.1.1-.2a.3.3,0,0,1,.4,0c0,.1.1.1.1.2s0,.1-.1.2S32.1,57.5,32,57.5Z"/><path class="cls-2" d="M34,58.2c-.1,0-.1,0-.2-.1s-.1-.1-.1-.2,0-.1.1-.2a.3.3,0,0,1,.4,0c.1.1.1.1.1.2s0,.1-.1.2S34.1,58.2,34,58.2Z"/><path class="cls-2" d="M34,60.2c-.1,0-.1,0-.2-.1s-.1-.1-.1-.2,0-.1.1-.2a.3.3,0,0,1,.4,0c0,.1.1.1.1.2s0,.1-.1.2S34.1,60.2,34,60.2Z"/><path class="cls-2" d="M34.2,66.7c-.1,0-.1,0-.2-.1s-.1-.1-.1-.2,0-.1.1-.2a.3.3,0,0,1,.4,0c.1.1.1.1.1.2s0,.1-.1.2S34.3,66.7,34.2,66.7Z"/><path class="cls-2" d="M26,64.7c-.1,0-.1,0-.2-.1s-.1-.1-.1-.2,0-.1.1-.2a.3.3,0,0,1,.4,0c.1.1.1.1.1.2s0,.1-.1.2S26.1,64.7,26,64.7Z"/><path class="cls-2" d="M37.2,57.5c-.1,0-.1,0-.2-.1s-.1-.1-.1-.2,0-.1.1-.2.3-.1.3,0,.1.1.1.2S37.4,57.3,37.2,57.5Z"/><path class="cls-2" d="M39.2,56c-.1,0-.1,0-.2-.1s-.1-.1-.1-.2,0-.1.1-.2a.3.3,0,0,1,.4,0c.1.1.1.1.1.2s0,.1-.1.2S39.3,56,39.2,56Z"/><path class="cls-2" d="M41.7,55c-.1,0-.1,0-.2-.1s-.1-.1-.1-.2,0-.1.1-.2a.3.3,0,0,1,.4,0c.1.1.1.1.1.2s0,.1-.1.2S41.8,55,41.7,55Z"/><path class="cls-2" d="M41.7,50.7c-.1,0-.1,0-.2-.1s-.1-.1-.1-.2,0-.1.1-.2a.3.3,0,0,1,.4,0c.1.1.1.1.1.2s0,.1-.1.2S41.8,50.7,41.7,50.7Z"/><path class="cls-2" d="M43.5,44.7c-.1,0-.1,0-.2-.1s-.1-.1-.1-.2,0-.1.1-.2a.3.3,0,0,1,.4,0c.1.1.1.1.1.2s0,.1-.1.2S43.6,44.7,43.5,44.7Z"/><path class="cls-2" d="M51,50.5c-.1,0-.1,0-.2-.1s-.1-.1-.1-.2,0-.1.1-.2a.3.3,0,0,1,.4,0c.1.1.1.1.1.2s0,.1-.1.2S51.1,50.5,51,50.5Z"/><path class="cls-2" d="M52,46.5c-.1,0-.1,0-.2-.1s-.1-.1-.1-.2,0-.1.1-.2a.3.3,0,0,1,.4,0c0,.1.1.1.1.2s0,.1-.1.2S52.1,46.5,52,46.5Z"/><path class="cls-2" d="M55,47c-.1,0-.1,0-.2-.1s-.1-.1-.1-.2,0-.1.1-.2a.3.3,0,0,1,.4,0c.1.1.1.1.1.2s0,.1-.1.2S55.1,47,55,47Z"/><path class="cls-2" d="M55,54.2c-.1,0-.1,0-.2-.1s-.1-.1-.1-.2,0-.1.1-.2a.3.3,0,0,1,.4,0c.1.1.1.1.1.2s0,.1-.1.2S55.1,54.2,55,54.2Z"/><path class="cls-2" d="M51.2,56.2c-.1,0-.1,0-.2-.1s-.1-.1-.1-.2,0-.1.1-.2a.3.3,0,0,1,.4,0c.1.1.1.1.1.2s0,.1-.1.2S51.3,56.2,51.2,56.2Z"/><path class="cls-2" d="M52.2,59.7c-.1,0-.1,0-.2-.1s-.1-.1-.1-.2,0-.1.1-.2a.3.3,0,0,1,.4,0c0,.1.1.1.1.2s0,.1-.1.2S52.3,59.7,52.2,59.7Z"/><path class="cls-2" d="M51,63.7c-.1,0-.1,0-.2-.1s-.1-.1-.1-.2,0-.1.1-.2a.3.3,0,0,1,.4,0c.1.1.1.1.1.2s0,.1-.1.2S51.1,63.7,51,63.7Z"/><path class="cls-2" d="M53.2,63.7c-.1,0-.1,0-.2-.1s-.1-.1-.1-.2,0-.1.1-.2a.3.3,0,0,1,.4,0c0,.1.1.1.1.2s0,.1-.1.2S53.3,63.7,53.2,63.7Z"/><path class="cls-2" d="M55,65.2c-.1,0-.1,0-.2-.1s-.1-.1-.1-.2,0-.1.1-.2a.3.3,0,0,1,.4,0c.1.1.1.1.1.2s0,.1-.1.2S55.1,65.2,55,65.2Z"/><path class="cls-2" d="M56.2,64.2c-.1,0-.1,0-.2-.1V64c0-.1,0-.1.1-.2a.3.3,0,0,1,.4,0c.1.1.1.1.1.2s0,.1-.1.2Z"/><path class="cls-2" d="M56.5,62c-.1,0-.1,0-.2-.1s-.1-.1-.1-.2,0-.1.1-.2a.3.3,0,0,1,.4,0c.1.1.1.1.1.2s0,.1-.1.2S56.6,62,56.5,62Z"/><path class="cls-2" d="M58.2,61.5c-.1,0-.1,0-.2-.1s-.1-.1-.1-.2,0-.1.1-.2a.3.3,0,0,1,.4,0c0,.1.1.1.1.2s0,.1-.1.2S58.3,61.5,58.2,61.5Z"/><path class="cls-2" d="M21,27c-.1,0-.1,0-.2-.1s-.1-.1-.1-.2,0-.1.1-.2a.3.3,0,0,1,.4,0c.1.1.1.1.1.2s0,.1-.1.2S21.1,27,21,27Z"/><path class="cls-2" d="M22.7,24c-.1,0-.1,0-.2-.1s-.1-.1-.1-.2,0-.1.1-.2a.3.3,0,0,1,.4,0c.1.1.1.1.1.2s0,.1-.1.2S22.8,24,22.7,24Z"/><path class="cls-2" d="M25.2,24.5c-.1,0-.1,0-.2-.1s-.1-.1-.1-.2,0-.1.1-.2a.3.3,0,0,1,.4,0c.1.1.1.1.1.2s0,.1-.1.2S25.3,24.5,25.2,24.5Z"/><path class="cls-2" d="M35.2,23.2c-.1,0-.1,0-.2-.1s-.1-.1-.1-.2,0-.1.1-.2a.3.3,0,0,1,.4,0c.1.1.1.1.1.2s0,.1-.1.2S35.3,23.2,35.2,23.2Z"/><path class="cls-2" d="M39,24.7c-.1,0-.1,0-.2-.1s-.1-.1-.1-.2,0-.1.1-.2a.3.3,0,0,1,.4,0c.1.1.1.1.1.2s0,.1-.1.2S39.1,24.7,39,24.7Z"/><path class="cls-2" d="M45,29.5c-.1,0-.1,0-.2-.1s-.1-.1-.1-.2,0-.1.1-.2a.3.3,0,0,1,.4,0c.1.1.1.1.1.2s0,.1-.1.2S45.1,29.5,45,29.5Z"/><path class="cls-2" d="M46.2,29c-.1,0-.1,0-.2-.1s-.1-.1-.1-.2,0-.1.1-.2.3-.1.3,0,.1.1.1.2S46.4,28.8,46.2,29Z"/><path class="cls-2" d="M55.2,28c-.1,0-.1,0-.2-.1s-.1-.1-.1-.2,0-.1.1-.2a.3.3,0,0,1,.4,0c.1.1.1.1.1.2s0,.1-.1.2S55.3,28,55.2,28Z"/><path class="cls-2" d="M51.2,25.2c-.1,0-.1,0-.2-.1s-.1-.1-.1-.2,0-.1.1-.2a.3.3,0,0,1,.4,0c.1.1.1.1.1.2s0,.1-.1.2S51.3,25.2,51.2,25.2Z"/><path class="cls-2" d="M52,29.5c-.1,0-.1,0-.2-.1s-.1-.1-.1-.2,0-.1.1-.2a.3.3,0,0,1,.4,0c0,.1.1.1.1.2s0,.1-.1.2S52.1,29.5,52,29.5Z"/><path class="cls-2" d="M62.5,35.5c-.1,0-.1,0-.2-.1s-.1-.1-.1-.2,0-.1.1-.2a.19.19,0,0,1,.3,0h0c.1,0,.1.1.1.2S62.7,35.3,62.5,35.5Z"/><path class="cls-2" d="M58.2,38.2c-.1,0-.1,0-.2-.1s-.1-.1-.1-.2,0-.1.1-.2a.3.3,0,0,1,.4,0c0,.1.1.1.1.2s0,.1-.1.2S58.3,38.2,58.2,38.2Z"/><path class="cls-2" d="M49,39c-.1,0-.1,0-.2-.1s-.1-.1-.1-.2,0-.1.1-.2a.3.3,0,0,1,.4,0c0,.1.1.1.1.2s0,.1-.1.2S49.1,39,49,39Z"/><path class="cls-2" d="M48,41.2c-.1,0-.1,0-.2-.1s-.1-.1-.1-.2,0-.1.1-.2a.19.19,0,0,1,.3,0h0c.1,0,.1.1.1.2s0,.1-.2.3Z"/><path class="cls-2" d="M52,43c-.1,0-.1,0-.2-.1s-.1-.1-.1-.2,0-.1.1-.2a.3.3,0,0,1,.4,0c.1.1.1.1.1.2s0,.1-.1.2S52.1,43,52,43Z"/><path class="cls-2" d="M53.5,45c-.1,0-.1,0-.2-.1s-.1-.1-.1-.2,0-.1.1-.2a.3.3,0,0,1,.4,0c.1.1.1.1.1.2s0,.1-.1.2S53.6,45,53.5,45Z"/><path class="cls-2" d="M62.2,48c-.1,0-.1,0-.2-.1s-.1-.1-.1-.2,0-.1.1-.2a.3.3,0,0,1,.4,0c0,.1.1.1.1.2s0,.1-.1.2S62.3,48,62.2,48Z"/><path class="cls-2" d="M65,51.7c-.1,0-.1,0-.2-.1s-.1-.1-.1-.2,0-.1.1-.2a.3.3,0,0,1,.4,0c.1.1.1.1.1.2s0,.1-.1.2S65.1,51.7,65,51.7Z"/><path class="cls-2" d="M67,51.7c-.1,0-.1,0-.2-.1s-.1-.1-.1-.2,0-.1.1-.2a.3.3,0,0,1,.4,0c.1.1.1.1.1.2s0,.1-.1.2S67.1,51.7,67,51.7Z"/><path class="cls-2" d="M69.5,45c-.1,0-.1,0-.2-.1s-.1-.1-.1-.2,0-.1.1-.2a.3.3,0,0,1,.4,0c.1.1.1.1.1.2s0,.1-.1.2S69.6,45,69.5,45Z"/><path class="cls-2" d="M60,39c-.1,0-.1,0-.2-.1s-.1-.1-.1-.2,0-.1.1-.2a.3.3,0,0,1,.4,0c.1.1.1.1.1.2s0,.1-.1.2S60.1,39,60,39Z"/><path class="cls-2" d="M47.2,47.7c-.1,0-.1,0-.2-.1s-.1-.1-.1-.2,0-.1.1-.2a.3.3,0,0,1,.4,0c.1.1.1.1.1.2s0,.1-.1.2S47.3,47.7,47.2,47.7Z"/><path class="cls-2" d="M32.5,47c-.1,0-.1,0-.2-.1s-.1-.1-.1-.2,0-.1.1-.2a.3.3,0,0,1,.4,0c.1.1.1.1.1.2s0,.1-.1.2S32.6,47,32.5,47Z"/><path class="cls-2" d="M37,44.5c-.1,0-.1,0-.2-.1s-.1-.1-.1-.2,0-.1.1-.2a.3.3,0,0,1,.4,0c.1.1.1.1.1.2s0,.1-.1.2S37.1,44.5,37,44.5Z"/><path class="cls-2" d="M26.2,37.7c-.1,0-.1,0-.2-.1s-.1-.1-.1-.2,0-.1.1-.2a.3.3,0,0,1,.4,0c.1.1.1.1.1.2s0,.1-.1.2S26.3,37.7,26.2,37.7Z"/><path class="cls-2" d="M29.7,35.5c-.1,0-.1,0-.2-.1s-.1-.1-.1-.2,0-.1.1-.2a.3.3,0,0,1,.4,0c.1.1.1.1.1.2s0,.1-.1.2S29.8,35.5,29.7,35.5Z"/><path class="cls-2" d="M17,28.5c-.1,0-.1,0-.2-.1s-.1-.1-.1-.2,0-.1.1-.2a.3.3,0,0,1,.4,0c.1.1.1.1.1.2s0,.1-.1.2S17.1,28.5,17,28.5Z"/><path class="cls-2" d="M10.5,29.5c-.1,0-.1,0-.2-.1s-.1-.1-.1-.2,0-.1.1-.2a.3.3,0,0,1,.4,0c0,.1.1.1.1.2s0,.1-.1.2S10.6,29.5,10.5,29.5Z"/><path class="cls-2" d="M6,31.5c-.1,0-.1,0-.2-.1s-.1-.1-.1-.2,0-.1.1-.2a.3.3,0,0,1,.4,0c0,.1.1.1.1.2s0,.1-.1.2S6.1,31.5,6,31.5Z"/><path class="cls-2" d="M2.5,35.2c-.1,0-.1,0-.2-.1s-.1-.1-.1-.2,0-.1.1-.2a.19.19,0,0,1,.3,0h0c.1,0,.1.1.1.2S2.7,35,2.5,35.2Z"/><path class="cls-2" d="M11.2,36.7c-.1,0-.1,0-.2-.1s-.1-.1-.1-.2,0-.1.1-.2a.3.3,0,0,1,.4,0c.1.1.1.1.1.2s0,.1-.1.2S11.3,36.7,11.2,36.7Z"/><path class="cls-2" d="M17,42c-.1,0-.1,0-.2-.1s-.1-.1-.1-.2,0-.1.1-.2a.3.3,0,0,1,.4,0c.1.1.1.1.1.2s0,.1-.1.2S17.1,42,17,42Z"/><path class="cls-2" d="M12.7,36c-.1,0-.1,0-.2-.1s-.1-.1-.1-.2,0-.1.1-.2a.3.3,0,0,1,.4,0c.1.1.1.1.1.2s0,.1-.1.2S12.8,36,12.7,36Z"/><path class="cls-2" d="M26.5,30.2c-.1,0-.1,0-.2-.1s-.1-.1-.1-.2,0-.1.1-.2a.3.3,0,0,1,.4,0c.1.1.1.1.1.2s0,.1-.1.2S26.6,30.2,26.5,30.2Z"/><path class="cls-2" d="M37.7,31c-.1,0-.1,0-.2-.1s-.1-.1-.1-.2,0-.1.1-.2a.3.3,0,0,1,.4,0c.1.1.1.1.1.2s0,.1-.1.2S37.8,31,37.7,31Z"/><path class="cls-2" d="M39.5,32.5c-.1,0-.1,0-.2-.1s-.1-.1-.1-.2,0-.1.1-.2a.3.3,0,0,1,.4,0c.1.1.1.1.1.2s0,.1-.1.2S39.6,32.5,39.5,32.5Z"/><path class="cls-2" d="M28,42c-.1,0-.1,0-.2-.1s-.1-.1-.1-.2,0-.1.1-.2.3-.1.3,0,.1.1.1.2S28.2,41.8,28,42Z"/><path class="cls-2" d="M6.5,20.5c-.1,0-.1,0-.2-.1s-.1-.1-.1-.2,0-.1.1-.2a.3.3,0,0,1,.4,0c.1.1.1.1.1.2s0,.1-.1.2S6.6,20.5,6.5,20.5Z"/><path class="cls-2" d="M10.2,20.2c-.1,0-.1,0-.2-.1s-.1-.1-.1-.2,0-.1.1-.2a.3.3,0,0,1,.4,0c.1.1.1.1.1.2s0,.1-.1.2S10.3,20.2,10.2,20.2Z"/><path class="cls-2" d="M11.7,23.5c-.1,0-.1,0-.2-.1s-.1-.1-.1-.2,0-.1.1-.2a.3.3,0,0,1,.4,0c0,.1.1.1.1.2s0,.1-.1.2S11.8,23.5,11.7,23.5Z"/><path class="cls-2" d="M3,25.7c-.1,0-.1,0-.2-.1s-.1-.1-.1-.2,0-.1.1-.2a.3.3,0,0,1,.4,0c.1.1.1.1.1.2s0,.1-.1.2S3.1,25.7,3,25.7Z"/><path class="cls-2" d="M64.2,29.5c-.1,0-.1,0-.2-.1s-.1-.1-.1-.2,0-.1.1-.2.3-.1.3,0,.1.1.1.2S64.4,29.3,64.2,29.5Z"/><path class="cls-2" d="M67.5,30.7c-.1,0-.1,0-.2-.1s-.1-.1-.1-.2,0-.1.1-.2a.3.3,0,0,1,.4,0c0,.1.1.1.1.2s0,.1-.1.2S67.6,30.7,67.5,30.7Z"/><path class="cls-2" d="M69.5,29.7c-.1,0-.1,0-.2-.1s-.1-.1-.1-.2,0-.1.1-.2a.3.3,0,0,1,.4,0c.1.1.1.1.1.2s0,.1-.1.2S69.6,29.7,69.5,29.7Z"/><path class="cls-2" d="M7.2,15.7c-.1,0-.1,0-.2-.1s-.1-.1-.1-.2,0-.1.1-.2a.3.3,0,0,1,.4,0c.1.1.1.1.1.2s0,.1-.1.2S7.3,15.7,7.2,15.7Z"/><path class="cls-2" d="M1.5,9c-.1,0-.1,0-.2-.1s-.1-.1-.1-.2,0-.1.1-.2a.3.3,0,0,1,.4,0c.1.1.1.1.1.2s0,.1-.1.2S1.6,9,1.5,9Z"/><path class="cls-2" d="M14.5,6.5c-.1,0-.1,0-.2-.1s-.1-.1-.1-.2,0-.1.1-.2a.3.3,0,0,1,.4,0c.1.1.1.1.1.2s0,.1-.1.2S14.6,6.5,14.5,6.5Z"/><path class="cls-2" d="M8.5,5.2c-.1,0-.1,0-.2-.1s-.1-.1-.1-.2,0-.1.1-.2a.3.3,0,0,1,.4,0c.1.1.1.1.1.2s0,.1-.1.2S8.6,5.2,8.5,5.2Z"/><path class="cls-2" d="M3.5,2.5c-.1,0-.1,0-.2-.1s-.1-.1-.1-.2,0-.1.1-.2a.3.3,0,0,1,.4,0c.1.1.1.1.1.2s0,.1-.1.2S3.6,2.5,3.5,2.5Z"/><path class="cls-2" d="M3.7,6c-.1,0-.1,0-.2-.1s-.1-.1-.1-.2,0-.1.1-.2a.3.3,0,0,1,.4,0c.1.1.1.1.1.2s0,.1-.1.2S3.8,6,3.7,6Z"/><path class="cls-2" d="M12.7,14.2c-.1,0-.1,0-.2-.1s-.1-.1-.1-.2,0-.1.1-.2a.3.3,0,0,1,.4,0c.1.1.1.1.1.2s0,.1-.1.2S12.8,14.2,12.7,14.2Z"/><path class="cls-2" d="M18.5,19.2c-.1,0-.1,0-.2-.1s-.1-.1-.1-.2,0-.1.1-.2a.3.3,0,0,1,.4,0c0,.1.1.1.1.2s0,.1-.1.2S18.6,19.2,18.5,19.2Z"/><path class="cls-2" d="M21.2,37c-.1,0-.1,0-.2-.1s-.1-.1-.1-.2,0-.1.1-.2a.3.3,0,0,1,.4,0c.1.1.1.1.1.2s0,.1-.1.2S21.3,37,21.2,37Z"/><path class="cls-2" d="M.7,44.2c-.1,0-.1,0-.2-.1s-.1-.1-.1-.2,0-.1.1-.2a.3.3,0,0,1,.4,0c.1.2.1.2.1.3s0,.1-.1.2Z"/><path class="cls-2" d="M66.5,37.2c-.1,0-.1,0-.2-.1s-.1-.1-.1-.2,0-.1.1-.2a.3.3,0,0,1,.4,0c.1.1.1.1.1.2s0,.1-.1.2S66.6,37.2,66.5,37.2Z"/><path class="cls-2" d="M68,66c-.1,0-.1,0-.2-.1s-.1-.1-.1-.2,0-.1.1-.2a.3.3,0,0,1,.4,0c.1.1.1.1.1.2s0,.1-.1.2S68.1,66,68,66Z"/><path class="cls-2" d="M59.7,69.7c-.1,0-.1,0-.2-.1s-.1-.1-.1-.2,0-.1.1-.2a.3.3,0,0,1,.4,0c.1.1.1.1.1.2s0,.1-.1.2S59.8,69.7,59.7,69.7Z"/><path class="cls-2" d="M40.5,68c-.1,0-.1,0-.2-.1s-.1-.1-.1-.2,0-.1.1-.2a.3.3,0,0,1,.4,0c.1.1.1.1.1.2s0,.1-.1.2S40.6,68,40.5,68Z"/><path class="cls-2" d="M44,63c-.1,0-.1,0-.2-.1s-.1-.1-.1-.2,0-.1.1-.2a.3.3,0,0,1,.4,0c.1.1.1.1.1.2s0,.1-.1.2S44.1,63,44,63Z"/><path class="cls-2" d="M25.7,70c-.1,0-.1,0-.2-.1s-.1-.1-.1-.2,0-.1.1-.2a.3.3,0,0,1,.4,0c.1.1.1.1.1.2s0,.1-.1.2S25.8,70,25.7,70Z"/><path class="cls-2" d="M4.5,60c-.1,0-.1,0-.2-.1s-.1-.1-.1-.2,0-.1.1-.2a.3.3,0,0,1,.4,0c0,.1.1.1.1.2s0,.1-.1.2S4.6,60,4.5,60Z"/><path class="cls-2" d="M26.5,59.5c-.1,0-.1,0-.2-.1s-.1-.1-.1-.2,0-.1.1-.2a.3.3,0,0,1,.4,0c.1.1.1.1.1.2s0,.1-.1.2S26.6,59.5,26.5,59.5Z"/><path class="cls-2" d="M37.2,48.5c-.1,0-.1,0-.2-.1s-.1-.1-.1-.2,0-.1.1-.2a.19.19,0,0,1,.3,0h0c.1,0,.1.1.1.2S37.4,48.3,37.2,48.5Z"/><path class="cls-2" d="M22,41.7c-.1,0-.1,0-.2-.1s-.1-.1-.1-.2,0-.1.1-.2a.3.3,0,0,1,.4,0c.1.1.1.1.1.2s0,.1-.1.2S22.1,41.7,22,41.7Z"/><path class="cls-2" d="M8.7,40.2c-.1,0-.1,0-.2-.1s-.1-.1-.1-.2,0-.1.1-.2a.3.3,0,0,1,.4,0c.1.2.1.2.1.3s0,.1-.1.2Z"/><path class="cls-2" d="M24,29c-.1,0-.1,0-.2-.1s-.1-.1-.1-.2,0-.1.1-.2a.3.3,0,0,1,.4,0c.1.1.1.1.1.2s0,.1-.1.2S24.1,29,24,29Z"/><path class="cls-2" d="M41.5,34.5c-.1,0-.1,0-.2-.1s-.1-.1-.1-.2,0-.1.1-.2.3-.1.3,0,.1.1.1.2S41.7,34.3,41.5,34.5Z"/><path class="cls-2" d="M51.5,37.5c-.1,0-.1,0-.2-.1s-.1-.1-.1-.2,0-.1.1-.2a.3.3,0,0,1,.4,0c.1.1.1.1.1.2s0,.1-.1.2S51.6,37.5,51.5,37.5Z"/><path class="cls-2" d="M60.7,46c-.1,0-.1,0-.2-.1s-.1-.1-.1-.2,0-.1.1-.2a.3.3,0,0,1,.4,0c.1.1.1.1.1.2s0,.1-.1.2S60.8,46,60.7,46Z"/><path class="cls-2" d="M67.5,43.7c-.1,0-.1,0-.2-.1s-.1-.1-.1-.2,0-.1.1-.2a.3.3,0,0,1,.4,0c.1.1.1.1.1.2s0,.1-.1.2S67.6,43.7,67.5,43.7Z"/><path class="cls-2" d="M51.2,66.2c-.1,0-.1,0-.2-.1V66c0-.1,0-.1.1-.2a.3.3,0,0,1,.4,0c.1.1.1.1.1.2s0,.1-.1.2Z"/><path class="cls-2" d="M40,37.7c-.1,0-.1,0-.2-.1s-.1-.1-.1-.2,0-.1.1-.2a.3.3,0,0,1,.4,0c.1.1.1.1.1.2s0,.1-.1.2S40.1,37.7,40,37.7Z"/><path class="cls-2" d="M53.2,15c-.1,0-.1,0-.2-.1s-.1-.1-.1-.2,0-.1.1-.2a.3.3,0,0,1,.4,0c.1.1.1.1.1.2s0,.1-.1.2S53.3,15,53.2,15Z"/><path class="cls-2" d="M34,16c-.1,0-.1,0-.2-.1s-.1-.1-.1-.2,0-.1.1-.2a.3.3,0,0,1,.4,0c.1.1.1.1.1.2s0,.1-.1.2S34.1,16,34,16Z"/><path class="cls-2" d="M27.5,13.5c-.1,0-.1,0-.2-.1s-.1-.1-.1-.2,0-.1.1-.2a.3.3,0,0,1,.4,0c.1.1.1.1.1.2s0,.1-.1.2S27.6,13.5,27.5,13.5Z"/><path class="cls-2" d="M12.7,19.2c-.1,0-.1,0-.2-.1s-.1-.1-.1-.2,0-.1.1-.2a.3.3,0,0,1,.4,0c.1.1.1.1.1.2s0,.1-.1.2S12.8,19.2,12.7,19.2Z"/><path class="cls-2" d="M19.7,26.5c-.1,0-.1,0-.2-.1s-.1-.1-.1-.2,0-.1.1-.2a.3.3,0,0,1,.4,0c.1.1.1.1.1.2s0,.1-.1.2S19.8,26.5,19.7,26.5Z"/><path class="cls-2" d="M49.5,4.5c-.1,0-.1,0-.2-.1s-.1-.1-.1-.2,0-.1.1-.2a.3.3,0,0,1,.4,0c.1.1.1.1.1.2s0,.1-.1.2S49.6,4.5,49.5,4.5Z"/><path class="cls-2" d="M11.7,1.7c-.1,0-.1,0-.2-.1s-.1-.1-.1-.2,0-.1.1-.2a.3.3,0,0,1,.4,0c.1.1.1.1.1.2s0,.1-.1.2S11.8,1.7,11.7,1.7Z"/><path class="cls-2" d="M55.2,3.7c-.1,0-.1,0-.2-.1s-.1-.1-.1-.2,0-.1.1-.2a.3.3,0,0,1,.4,0c.1.1.1.1.1.2s0,.1-.1.2S55.3,3.7,55.2,3.7Z"/><path class="cls-2" d="M59,20.7c-.1,0-.1,0-.2-.1s-.1-.1-.1-.2,0-.1.1-.2a.3.3,0,0,1,.4,0c0,.1.1.1.1.2s0,.1-.1.2S59.1,20.7,59,20.7Z"/><path class="cls-2" d="M67.5,57.2c-.1,0-.1,0-.2-.1s-.1-.1-.1-.2,0-.1.1-.2a.3.3,0,0,1,.4,0c.1.1.1.1.1.2s0,.1-.1.2S67.6,57.2,67.5,57.2Z"/><path class="cls-2" d="M47.2,69.7c-.1,0-.1,0-.2-.1s-.1-.1-.1-.2,0-.1.1-.2a.3.3,0,0,1,.4,0c.1.1.1.1.1.2s0,.1-.1.2S47.3,69.7,47.2,69.7Z"/><path class="cls-2" d="M5.2,69.7c-.1,0-.1,0-.2-.1v-.1c0-.1,0-.1.1-.2a.3.3,0,0,1,.4,0c.1.1.1.1.1.2s0,.1-.1.2Z"/><path class="cls-2" d="M4.7,40.2c-.1,0-.1,0-.2-.1s-.1-.1-.1-.2,0-.1.1-.2a.3.3,0,0,1,.4,0c.1.2.1.2.1.3s0,.1-.1.2Z"/><path class="cls-2" d="M69.7,12.7c-.1,0-.1,0-.2-.1s-.1-.1-.1-.2,0-.1.1-.2a.3.3,0,0,1,.4,0c.1.1.1.1.1.2s0,.1-.1.2S69.8,12.7,69.7,12.7Z"/><path class="cls-2" d="M23.2,14c-.1,0-.1,0-.2-.1s-.1-.1-.1-.2,0-.1.1-.2a.3.3,0,0,1,.4,0c0,.1.1.1.1.2s0,.1-.1.2S23.3,14,23.2,14Z"/><path class="cls-2" d="M20.5,17.2c-.1,0-.1,0-.2-.1s-.1-.1-.1-.2,0-.1.1-.2a.3.3,0,0,1,.4,0c.1.1.1.1.1.2s0,.1-.1.2S20.6,17.2,20.5,17.2Z"/><path class="cls-2" d="M14.7,17.2c-.1,0-.1,0-.2-.1s-.1-.1-.1-.2,0-.1.1-.2a.3.3,0,0,1,.4,0c.1.1.1.1.1.2s0,.1-.1.2S14.8,17.2,14.7,17.2Z"/><path class="cls-2" d="M2.7,13.2c-.1,0-.1,0-.2-.1s-.1-.1-.1-.2,0-.1.1-.2a.3.3,0,0,1,.4,0c.1.2.1.2.1.3s0,.1-.1.2Z"/><path class="cls-2" d="M6,11.7c-.1,0-.1,0-.2-.1s-.1-.1-.1-.2,0-.1.1-.2a.3.3,0,0,1,.4,0c.1.1.1.1.1.2s0,.1-.1.2S6.1,11.7,6,11.7Z"/><path class="cls-2" d="M7,2.7c-.1,0-.1,0-.2-.1s-.1-.1-.1-.2,0-.1.1-.2a.3.3,0,0,1,.4,0c.1.1.1.1.1.2s0,.1-.1.2S7.1,2.7,7,2.7Z"/><path class="cls-2" d="M10,8.2c-.1,0-.1,0-.2-.1s-.1-.1-.1-.2,0-.1.1-.2a.3.3,0,0,1,.4,0c.1.1.1.1.1.2s0,.1-.1.2S10.1,8.2,10,8.2Z"/><path class="cls-2" d="M16,8.2c-.1,0-.1,0-.2-.1s-.1-.1-.1-.2,0-.1.1-.2a.3.3,0,0,1,.4,0c.1.1.1.1.1.2s0,.1-.1.2S16.1,8.2,16,8.2Z"/><path class="cls-2" d="M16.5,3.2c-.1,0-.1,0-.2-.1s-.1-.1-.1-.2,0-.1.1-.2a.3.3,0,0,1,.4,0c.1.1.1.1.1.2s0,.1-.1.2S16.6,3.2,16.5,3.2Z"/><path class="cls-2" d="M25.7,7c-.1,0-.1,0-.2-.1s-.1-.1-.1-.2,0-.1.1-.2a.3.3,0,0,1,.4,0c.1.1.1.1.1.2s0,.1-.1.2S25.8,7,25.7,7Z"/><path class="cls-2" d="M37,7.5c-.1,0-.1,0-.2-.1s-.1-.1-.1-.2,0-.1.1-.2a.3.3,0,0,1,.4,0c.1.1.1.1.1.2s0,.1-.1.2S37.1,7.5,37,7.5Z"/><path class="cls-2" d="M40.5,4.5c-.1,0-.1,0-.2-.1s-.1-.1-.1-.2,0-.1.1-.2a.3.3,0,0,1,.4,0c0,.1.1.1.1.2s0,.1-.1.2S40.6,4.5,40.5,4.5Z"/><path class="cls-2" d="M37.5,4.2c-.1,0-.1,0-.2-.1s-.1-.1-.1-.2,0-.1.1-.2a.3.3,0,0,1,.4,0c0,.1.1.1.1.2s0,.1-.1.2S37.6,4.2,37.5,4.2Z"/><path class="cls-2" d="M43.2,2.2c-.1,0-.1,0-.2-.1s-.1-.1-.1-.2,0-.1.1-.2a.3.3,0,0,1,.4,0c.1.1.1.1.1.2s0,.1-.1.2S43.3,2.2,43.2,2.2Z"/><path class="cls-2" d="M49.5,8.2c-.1,0-.1,0-.2-.1s-.1-.1-.1-.2,0-.1.1-.2a.3.3,0,0,1,.4,0c.1.1.1.1.1.2s0,.1-.1.2S49.6,8.2,49.5,8.2Z"/><path class="cls-2" d="M46,9.2c-.1,0-.1,0-.2-.1s-.1-.1-.1-.2,0-.1.1-.2a.3.3,0,0,1,.4,0c.1.1.1.1.1.2s0,.1-.1.2S46.1,9.2,46,9.2Z"/><path class="cls-2" d="M35.7,11c-.1,0-.1,0-.2-.1s-.1-.1-.1-.2,0-.1.1-.2a.3.3,0,0,1,.4,0c.1.1.1.1.1.2s0,.1-.1.2S35.8,11,35.7,11Z"/><path class="cls-2" d="M39.2,15c-.1,0-.1,0-.2-.1s-.1-.1-.1-.2,0-.1.1-.2a.3.3,0,0,1,.4,0c0,.1.1.1.1.2s0,.1-.1.2S39.3,15,39.2,15Z"/><path class="cls-2" d="M24.7,18c-.1,0-.1,0-.2-.1s-.1-.1-.1-.2,0-.1.1-.2a.3.3,0,0,1,.4,0c.1.1.1.1.1.2s0,.1-.1.2S24.8,18,24.7,18Z"/><path class="cls-2" d="M8.2,27.2c-.1,0-.1,0-.2-.1V27c0-.1,0-.1.1-.2a.3.3,0,0,1,.4,0c.1.1.1.1.1.2s0,.1-.1.2Z"/><path class="cls-2" d="M16,31.7c-.1,0-.1,0-.2-.1s-.1-.1-.1-.2,0-.1.1-.2a.3.3,0,0,1,.4,0c.1.1.1.1.1.2s0,.1-.1.2S16.1,31.7,16,31.7Z"/><path class="cls-2" d="M10.5,33.5c-.1,0-.1,0-.2-.1s-.1-.1-.1-.2,0-.1.1-.2a.3.3,0,0,1,.4,0c.1.1.1.1.1.2s0,.1-.1.2S10.6,33.5,10.5,33.5Z"/><path class="cls-2" d="M5.2,37c-.1,0-.1,0-.2-.1s-.1-.1-.1-.2,0-.1.1-.2a.3.3,0,0,1,.4,0c.1.1.1.1.1.2s0,.1-.1.2S5.3,37,5.2,37Z"/><path class="cls-2" d="M2.7,32c-.1,0-.1,0-.2-.1s-.1-.1-.1-.2,0-.1.1-.2a.3.3,0,0,1,.4,0c.1.1.1.1.1.2s0,.1-.1.2S2.8,32,2.7,32Z"/><path class="cls-2" d="M7.5,25c-.1,0-.1,0-.2-.1s-.1-.1-.1-.2,0-.1.1-.2.3-.1.3,0,.1.1.1.2,0,.1-.1.2S7.6,25,7.5,25Z"/><path class="cls-2" d="M3.2,20.5c-.1,0-.1,0-.2-.1s-.1-.1-.1-.2,0-.1.1-.2a.3.3,0,0,1,.4,0c.1.1.1.1.1.2s0,.1-.1.2S3.3,20.5,3.2,20.5Z"/><path class="cls-2" d="M20.5,30.7c-.1,0-.1,0-.2-.1s-.1-.1-.1-.2,0-.1.1-.2a.3.3,0,0,1,.4,0c0,.1.1.1.1.2s0,.1-.1.2S20.6,30.7,20.5,30.7Z"/><path class="cls-2" d="M17.5,35.5c-.1,0-.1,0-.2-.1s-.1-.1-.1-.2,0-.1.1-.2a.3.3,0,0,1,.4,0c.1.1.1.1.1.2s0,.1-.1.2S17.6,35.5,17.5,35.5Z"/><path class="cls-2" d="M16,39c-.1,0-.1,0-.2-.1s-.1-.1-.1-.2,0-.1.1-.2a.3.3,0,0,1,.4,0c.1.1.1.1.1.2s0,.1-.1.2S16.1,39,16,39Z"/><path class="cls-2" d="M12.7,41.2c-.1,0-.1,0-.2-.1s-.1-.1-.1-.2,0-.1.1-.2a.3.3,0,0,1,.4,0c.1.1.1.1.1.2s0,.1-.1.2S12.8,41.2,12.7,41.2Z"/><path class="cls-2" d="M12.7,46.5c-.1,0-.1,0-.2-.1s-.1-.1-.1-.2,0-.1.1-.2a.3.3,0,0,1,.4,0c.1.1.1.1.1.2s0,.1-.1.2S12.8,46.5,12.7,46.5Z"/><path class="cls-2" d="M4,46.7c-.1,0-.1,0-.2-.1s-.1-.1-.1-.2,0-.1.1-.2.3-.1.3,0,.1.1.1.2,0,.1-.2.3Z"/><path class="cls-2" d="M5.7,48.5c-.1,0-.1,0-.2-.1s-.1-.1-.1-.2,0-.1.1-.2a.3.3,0,0,1,.4,0c.1.1.1.1.1.2s0,.1-.1.2S5.8,48.5,5.7,48.5Z"/><path class="cls-2" d="M11,50.5c-.1,0-.1,0-.2-.1s-.1-.1-.1-.2,0-.1.1-.2a.3.3,0,0,1,.4,0c0,.1.1.1.1.2s0,.1-.1.2S11.1,50.5,11,50.5Z"/><path class="cls-2" d="M11,54.5c-.1,0-.1,0-.2-.1s-.1-.1-.1-.2,0-.1.1-.2a.3.3,0,0,1,.4,0c.1.1.1.1.1.2s0,.1-.1.2S11.1,54.5,11,54.5Z"/><path class="cls-2" d="M15.5,58.5c-.1,0-.1,0-.2-.1s-.1-.1-.1-.2,0-.1.1-.2a.3.3,0,0,1,.4,0c.1.1.1.1.1.2s0,.1-.1.2S15.6,58.5,15.5,58.5Z"/><path class="cls-2" d="M10,59.7c-.1,0-.1,0-.2-.1s-.1-.1-.1-.2,0-.1.1-.2a.3.3,0,0,1,.4,0c.1.1.1.1.1.2s0,.1-.1.2S10.1,59.7,10,59.7Z"/><path class="cls-2" d="M6,63.5c-.1,0-.1,0-.2-.1s-.1-.1-.1-.2,0-.1.1-.2a.6.6,0,0,1,.4.1c.1.1.1.1.1.2s0,.1-.1.2Z"/><path class="cls-2" d="M2.2,62c-.1,0-.1,0-.2-.1s-.1-.1-.1-.2,0-.1.1-.2.3-.1.3,0,.1.1.1.2S2.4,61.8,2.2,62Z"/><path class="cls-2" d="M7.2,67.7c-.1,0-.1,0-.2-.1v-.1c0-.1,0-.1.1-.2a.3.3,0,0,1,.4,0c.1.1.1.1.1.2s0,.1-.1.2Z"/><path class="cls-2" d="M13.5,69.5c-.1,0-.1,0-.2-.1s-.1-.1-.1-.2,0-.1.1-.2a.3.3,0,0,1,.4,0c.1.1.1.1.1.2s0,.1-.1.2S13.6,69.5,13.5,69.5Z"/><path class="cls-2" d="M13.5,65.7c-.1,0-.1,0-.2-.1s-.1-.1-.1-.2,0-.1.1-.2a.3.3,0,0,1,.4,0c0,.1.1.1.1.2s0,.1-.1.2S13.6,65.7,13.5,65.7Z"/><path class="cls-2" d="M21.5,68.5c-.1,0-.1,0-.2-.1s-.1-.1-.1-.2,0-.1.1-.2a.3.3,0,0,1,.4,0c.1.1.1.1.1.2s0,.1-.1.2S21.6,68.5,21.5,68.5Z"/><path class="cls-2" d="M23,65.7c-.1,0-.1,0-.2-.1s-.1-.1-.1-.2,0-.1.1-.2a.3.3,0,0,1,.4,0c.1.1.1.1.1.2s0,.1-.1.2S23.1,65.7,23,65.7Z"/><path class="cls-2" d="M22.2,60c-.1,0-.1,0-.2-.1s-.1-.1-.1-.2,0-.1.1-.2a.3.3,0,0,1,.4,0c.1.1.1.1.1.2s0,.1-.1.2S22.3,60,22.2,60Z"/><path class="cls-2" d="M24.2,57.5c-.1,0-.1,0-.2-.1s-.1-.1-.1-.2,0-.1.1-.2a.3.3,0,0,1,.4,0c.1.1.1.1.1.2s0,.1-.1.2S24.3,57.5,24.2,57.5Z"/><path class="cls-2" d="M22,53.2c-.1,0-.1,0-.2-.1s-.1-.1-.1-.2,0-.1.1-.2a.3.3,0,0,1,.4,0c0,.1.1.1.1.2s0,.1-.1.2S22.1,53.2,22,53.2Z"/><path class="cls-2" d="M26.2,47.7c-.1,0-.1,0-.2-.1s-.1-.1-.1-.2,0-.1.1-.2a.3.3,0,0,1,.4,0c.1.1.1.1.1.2s0,.1-.1.2S26.3,47.7,26.2,47.7Z"/><path class="cls-2" d="M25.7,43.5c-.1,0-.1,0-.2-.1s-.1-.1-.1-.2,0-.1.1-.2a.3.3,0,0,1,.4,0c0,.1.1.1.1.2s0,.1-.1.2S25.8,43.5,25.7,43.5Z"/><path class="cls-2" d="M31.2,37.5c-.1,0-.1,0-.2-.1s-.1-.1-.1-.2,0-.1.1-.2a.3.3,0,0,1,.4,0c0,.1.1.1.1.2s0,.1-.1.2S31.3,37.5,31.2,37.5Z"/><path class="cls-2" d="M32.2,31c-.1,0-.1,0-.2-.1s-.1-.1-.1-.2,0-.1.1-.2a.3.3,0,0,1,.4,0c.1.1.1.1.1.2s0,.1-.1.2S32.3,31,32.2,31Z"/><path class="cls-2" d="M26,34c-.1,0-.1,0-.2-.1s-.1-.1-.1-.2,0-.1.1-.2a.3.3,0,0,1,.4,0c.1.1.1.1.1.2s0,.1-.1.2S26.1,34,26,34Z"/><path class="cls-2" d="M34.2,27.7c-.1,0-.1,0-.2-.1s-.1-.1-.1-.2,0-.1.1-.2a.3.3,0,0,1,.4,0c0,.1.1.1.1.2s0,.1-.1.2S34.3,27.7,34.2,27.7Z"/><path class="cls-2" d="M37.2,28.5c-.1,0-.1,0-.2-.1s-.1-.1-.1-.2,0-.1.1-.2.3-.1.3,0,.1.1.1.2S37.4,28.3,37.2,28.5Z"/><path class="cls-2" d="M41.7,25.7c-.1,0-.1,0-.2-.1s-.1-.1-.1-.2,0-.1.1-.2a.3.3,0,0,1,.4,0c0,.1.1.1.1.2s0,.1-.1.2S41.8,25.7,41.7,25.7Z"/><path class="cls-2" d="M43,20.7c-.1,0-.1,0-.2-.1s-.1-.1-.1-.2,0-.1.1-.2a.3.3,0,0,1,.4,0c.1.1.1.1.1.2s0,.1-.1.2S43.1,20.7,43,20.7Z"/><path class="cls-2" d="M36.5,19.2c-.1,0-.1,0-.2-.1s-.1-.1-.1-.2,0-.1.1-.2a.3.3,0,0,1,.4,0c.1.1.1.1.1.2s0,.1-.1.2S36.6,19.2,36.5,19.2Z"/><path class="cls-2" d="M27.7,22.2c-.1,0-.1,0-.2-.1s-.1-.1-.1-.2,0-.1.1-.2a.3.3,0,0,1,.4,0c.1.1.1.1.1.2s0,.1-.1.2S27.8,22.2,27.7,22.2Z"/><path class="cls-2" d="M52,22c-.1,0-.1,0-.2-.1s-.1-.1-.1-.2,0-.1.1-.2a.3.3,0,0,1,.4,0c0,.1.1.1.1.2s0,.1-.1.2S52.1,22,52,22Z"/><path class="cls-2" d="M43.2,17.7c-.1,0-.1,0-.2-.1s-.1-.1-.1-.2,0-.1.1-.2a.3.3,0,0,1,.4,0c0,.1.1.1.1.2s0,.1-.1.2S43.3,17.7,43.2,17.7Z"/><path class="cls-2" d="M50.5,18c-.1,0-.1,0-.2-.1s-.1-.1-.1-.2,0-.1.1-.2a.3.3,0,0,1,.4,0c0,.1.1.1.1.2s0,.1-.1.2S50.6,18,50.5,18Z"/><path class="cls-2" d="M59.5,17.2c-.1,0-.1,0-.2-.1s-.1-.1-.1-.2,0-.1.1-.2a.3.3,0,0,1,.4,0c.1.1.1.1.1.2s0,.1-.1.2S59.6,17.2,59.5,17.2Z"/><path class="cls-2" d="M58.2,14c-.1,0-.1,0-.2-.1s-.1-.1-.1-.2,0-.1.1-.2a.3.3,0,0,1,.4,0c.1.1.1.1.1.2s0,.1-.1.2S58.3,14,58.2,14Z"/><path class="cls-2" d="M61.5,11c-.1,0-.1,0-.2-.1s-.1-.1-.1-.2,0-.1.1-.2a.3.3,0,0,1,.4,0c.1.1.1.1.1.2s0,.1-.1.2S61.6,11,61.5,11Z"/><path class="cls-2" d="M58.7,7.5c-.1,0-.1,0-.2-.1s-.1-.1-.1-.2,0-.1.1-.2a.3.3,0,0,1,.4,0c.1.1.1.1.1.2s0,.1-.1.2S58.8,7.5,58.7,7.5Z"/><path class="cls-2" d="M60,4.7c-.1,0-.1,0-.2-.1s-.1-.1-.1-.2,0-.1.1-.2a.3.3,0,0,1,.4,0c.1.1.1.1.1.2s0,.1-.1.2S60.1,4.7,60,4.7Z"/><path class="cls-2" d="M67.5,6c-.1,0-.1,0-.2-.1s-.1-.1-.1-.2,0-.1.1-.2a.3.3,0,0,1,.4,0c0,.1.1.1.1.2s0,.1-.1.2S67.6,6,67.5,6Z"/><path class="cls-2" d="M69.5,8c-.1,0-.1,0-.2-.1s-.1-.1-.1-.2,0-.1.1-.2a.3.3,0,0,1,.4,0c.1.1.1.1.1.2s0,.1-.1.2S69.6,8,69.5,8Z"/><path class="cls-2" d="M65.7,9.7c-.1,0-.1,0-.2-.1s-.1-.1-.1-.2,0-.1.1-.2a.3.3,0,0,1,.4,0c.1.1.1.1.1.2s0,.1-.1.2S65.8,9.7,65.7,9.7Z"/><path class="cls-2" d="M61.7,16.5c-.1,0-.1,0-.2-.1s-.1-.1-.1-.2,0-.1.1-.2a.3.3,0,0,1,.4,0c.1.1.1.1.1.2s0,.1-.1.2S61.8,16.5,61.7,16.5Z"/><path class="cls-2" d="M60.2,23.7c-.1,0-.1,0-.2-.1s-.1-.1-.1-.2,0-.1.1-.2a.3.3,0,0,1,.4,0c.1.1.1.1.1.2s0,.1-.1.2S60.3,23.7,60.2,23.7Z"/><path class="cls-2" d="M55.5,23.7c-.1,0-.1,0-.2-.1s-.1-.1-.1-.2,0-.1.1-.2a.3.3,0,0,1,.4,0c.1.1.1.1.1.2s0,.1-.1.2S55.6,23.7,55.5,23.7Z"/><path class="cls-2" d="M55.5,18.7c-.1,0-.1,0-.2-.1s-.1-.1-.1-.2,0-.1.1-.2a.3.3,0,0,1,.4,0c.1.1.1.1.1.2s0,.1-.1.2S55.6,18.7,55.5,18.7Z"/><path class="cls-2" d="M65,25.7c-.1,0-.1,0-.2-.1s-.1-.1-.1-.2,0-.1.1-.2a.3.3,0,0,1,.4,0c.1.1.1.1.1.2s0,.1-.1.2S65.1,25.7,65,25.7Z"/><path class="cls-2" d="M61.2,27c-.1,0-.1,0-.2-.1s-.1-.1-.1-.2,0-.1.1-.2a.3.3,0,0,1,.4,0c.1.1.1.1.1.2s0,.1-.1.2S61.3,27,61.2,27Z"/><path class="cls-2" d="M57.7,30.7c-.1,0-.1,0-.2-.1s-.1-.1-.1-.2,0-.1.1-.2a.3.3,0,0,1,.4,0c.1.1.1.1.1.2s0,.1-.1.2S57.8,30.7,57.7,30.7Z"/><path class="cls-2" d="M52.7,32.7c-.1,0-.1,0-.2-.1s-.1-.1-.1-.2,0-.1.1-.2a.3.3,0,0,1,.4,0c.1.1.1.1.1.2s0,.1-.1.2S52.8,32.7,52.7,32.7Z"/><path class="cls-2" d="M47.5,33.7c-.1,0-.1,0-.2-.1s-.1-.1-.1-.2,0-.1.1-.2.3-.1.3,0,.1.1.1.2S47.7,33.5,47.5,33.7Z"/><path class="cls-2" d="M44.2,39.2c-.1,0-.1,0-.2-.1s-.1-.1-.1-.2,0-.1.1-.2a.3.3,0,0,1,.4,0c.1.1.1.1.1.2s0,.1-.1.2S44.3,39.2,44.2,39.2Z"/><path class="cls-2" d="M34,41.5c-.1,0-.1,0-.2-.1s-.1-.1-.1-.2,0-.1.1-.2a.3.3,0,0,1,.4,0c.1.1.1.1.1.2s0,.1-.1.2S34.1,41.5,34,41.5Z"/><path class="cls-2" d="M40.7,48c-.1,0-.1,0-.2-.1s-.1-.1-.1-.2,0-.1.1-.2a.3.3,0,0,1,.4,0c.1.1.1.1.1.2s0,.1-.1.2S40.8,48,40.7,48Z"/><path class="cls-2" d="M45.7,52.2c-.1,0-.1,0-.2-.1s-.1-.1-.1-.2,0-.1.1-.2a.3.3,0,0,1,.4,0c.1.1.1.1.1.2s0,.1-.1.2S45.8,52.2,45.7,52.2Z"/><path class="cls-2" d="M46.5,56.7c-.1,0-.1,0-.2-.1s-.1-.1-.1-.2,0-.1.1-.2a.3.3,0,0,1,.4,0c.1.1.1.1.1.2s0,.1-.1.2S46.6,56.7,46.5,56.7Z"/><path class="cls-2" d="M42,59.5c-.1,0-.1,0-.2-.1s-.1-.1-.1-.2,0-.1.1-.2a.3.3,0,0,1,.4,0c.1.1.1.1.1.2s0,.1-.1.2S42.1,59.5,42,59.5Z"/><path class="cls-2" d="M40,62.7c-.1,0-.1,0-.2-.1s-.1-.1-.1-.2,0-.1.1-.2a.3.3,0,0,1,.4,0c.1.1.1.1.1.2s0,.1-.1.2S40.1,62.7,40,62.7Z"/><path class="cls-2" d="M36,62.7c-.1,0-.1,0-.2-.1s-.1-.1-.1-.2,0-.1.1-.2a.3.3,0,0,1,.4,0c0,.1.1.1.1.2s0,.1-.1.2S36.1,62.7,36,62.7Z"/><path class="cls-2" d="M36.5,52.7c-.1,0-.1,0-.2-.1s-.1-.1-.1-.2,0-.1.1-.2a.3.3,0,0,1,.4,0c0,.1.1.1.1.2s0,.1-.1.2S36.6,52.7,36.5,52.7Z"/><path class="cls-2" d="M30,63.5c-.1,0-.1,0-.2-.1s-.1-.1-.1-.2,0-.1.1-.2a.3.3,0,0,1,.4,0c.1.1.1.1.1.2s0,.1-.1.2S30.1,63.5,30,63.5Z"/><path class="cls-2" d="M31.5,68.5c-.1,0-.1,0-.2-.1s-.1-.1-.1-.2,0-.1.1-.2.3-.1.3,0,.1.1.1.2S31.7,68.3,31.5,68.5Z"/><path class="cls-2" d="M37,71c-.1,0-.1,0-.2-.1s-.1-.1-.1-.2,0-.1.1-.2a.3.3,0,0,1,.4,0c.1.1.1.1.1.2s0,.1-.1.2S37.1,71,37,71Z"/><path class="cls-2" d="M58.7,57c-.1,0-.1,0-.2-.1s-.1-.1-.1-.2,0-.1.1-.2a.3.3,0,0,1,.4,0c.1.1.1.1.1.2s0,.1-.1.2S58.8,57,58.7,57Z"/><path class="cls-2" d="M63,57c-.1,0-.1,0-.2-.1s-.1-.1-.1-.2,0-.1.1-.2a.3.3,0,0,1,.4,0c.1.1.1.1.1.2s0,.1-.1.2S63.1,57,63,57Z"/><path class="cls-2" d="M60,50.7c-.1,0-.1,0-.2-.1s-.1-.1-.1-.2,0-.1.1-.2a.3.3,0,0,1,.4,0c.1.1.1.1.1.2s0,.1-.1.2S60.1,50.7,60,50.7Z"/><path class="cls-2" d="M54.5,50.5c-.1,0-.1,0-.2-.1s-.1-.1-.1-.2,0-.1.1-.2a.3.3,0,0,1,.4,0c0,.1.1.1.1.2s0,.1-.1.2S54.6,50.5,54.5,50.5Z"/><path class="cls-2" d="M59.2,44.2c-.1,0-.1,0-.2-.1s-.1-.1-.1-.2,0-.1.1-.2a.3.3,0,0,1,.4,0c0,.1.1.1.1.2s0,.1-.1.2S59.3,44.2,59.2,44.2Z"/><path class="cls-2" d="M54.7,41.7c-.1,0-.1,0-.2-.1s-.1-.1-.1-.2,0-.1.1-.2a.3.3,0,0,1,.4,0c.1.1.1.1.1.2s0,.1-.1.2S54.8,41.7,54.7,41.7Z"/><path class="cls-2" d="M55.7,35.5c-.1,0-.1,0-.2-.1s-.1-.1-.1-.2,0-.1.1-.2a.3.3,0,0,1,.4,0c.1.1.1.1.1.2s0,.1-.1.2S55.8,35.5,55.7,35.5Z"/><path class="cls-2" d="M62.5,42.2c-.1,0-.1,0-.2-.1s-.1-.1-.1-.2,0-.1.1-.2a.19.19,0,0,1,.3,0h0c.1,0,.1.1.1.2s0,.1-.2.3Z"/><path class="cls-2" d="M67,47.5c-.1,0-.1,0-.2-.1s-.1-.1-.1-.2,0-.1.1-.2a.3.3,0,0,1,.4,0c.1.1.1.1.1.2s0,.1-.1.2S67.1,47.5,67,47.5Z"/><path class="cls-2" d="M69.5,54.2c-.1,0-.1,0-.2-.1s-.1-.1-.1-.2,0-.1.1-.2a.3.3,0,0,1,.4,0c.1.1.1.1.1.2s0,.1-.1.2S69.6,54.2,69.5,54.2Z"/><path class="cls-2" d="M63.5,61.7c-.1,0-.1,0-.2-.1s-.1-.1-.1-.2,0-.1.1-.2a.3.3,0,0,1,.4,0c.1.1.1.1.1.2s0,.1-.1.2S63.6,61.7,63.5,61.7Z"/><path class="cls-2" d="M69.2,63.5c-.1,0-.1,0-.2-.1s-.1-.1-.1-.2,0-.1.1-.2a.3.3,0,0,1,.4,0c.1.1.1.1.1.2s0,.1-.1.2S69.3,63.5,69.2,63.5Z"/><path class="cls-2" d="M64.7,65.5c-.1,0-.1,0-.2-.1s-.1-.1-.1-.2,0-.1.1-.2a.3.3,0,0,1,.4,0,.37.37,0,0,1,.1.3l-.1.1C64.9,65.5,64.8,65.5,64.7,65.5Z"/><path class="cls-2" d="M65.7,68.2c-.1,0-.1,0-.2-.1s-.1-.1-.1-.2,0-.1.1-.2a.3.3,0,0,1,.4,0c.1.2.1.2.1.3s0,.1-.1.2Z"/><path class="cls-2" d="M69.2,70.5c-.1,0-.1,0-.2-.1s-.1-.1-.1-.2,0-.1.1-.2a.3.3,0,0,1,.4,0c.1.1.1.1.1.2s0,.1-.1.2S69.3,70.5,69.2,70.5Z"/><path class="cls-2" d="M62.5,70.2c-.1,0-.1,0-.2-.1s-.1-.1-.1-.2,0-.1.1-.2a.19.19,0,0,1,.3,0h0c.1,0,.1.1.1.2S62.7,70,62.5,70.2Z"/><path class="cls-2" d="M60.7,65.7c-.1,0-.1,0-.2-.1s-.1-.1-.1-.2,0-.1.1-.2a.3.3,0,0,1,.4,0c.1.1.1.1.1.2s0,.1-.1.2S60.8,65.7,60.7,65.7Z"/><path class="cls-2" d="M52.7,69.7c-.1,0-.1,0-.2-.1s-.1-.1-.1-.2,0-.1.1-.2a.3.3,0,0,1,.4,0c.1.1.1.1.1.2s0,.1-.1.2S52.8,69.7,52.7,69.7Z"/><path class="cls-2" d="M44.7,66.5c-.1,0-.1,0-.2-.1s-.1-.1-.1-.2,0-.1.1-.2a.3.3,0,0,1,.4,0c.1.1.1.1.1.2s0,.1-.1.2S44.8,66.5,44.7,66.5Z"/><path class="cls-2" d="M44.5,71.2c-.1,0-.1,0-.2-.1s-.1-.1-.1-.2,0-.1.1-.2a.3.3,0,0,1,.4,0c.1.1.1.1.1.2s0,.1-.1.2S44.6,71.2,44.5,71.2Z"/><path class="cls-2" d="M28.5,71.2c-.1,0-.1,0-.2-.1s-.1-.1-.1-.2,0-.1.1-.2a.3.3,0,0,1,.4,0c.1.1.1.1.1.2s0,.1-.1.2S28.6,71.2,28.5,71.2Z"/><path class="cls-2" d="M.7,29.5c-.1,0-.1,0-.2-.1s-.1-.1-.1-.2,0-.1.1-.2.2-.1.4,0,.1.1.1.2,0,.1-.1.2S.8,29.5.7,29.5Z"/><path class="cls-2" d="M24.5,1c-.1,0-.1,0-.2-.1s-.1-.1-.1-.2,0-.1.1-.2a.3.3,0,0,1,.4,0c.1.1.1.1.1.2s0,.1-.1.2S24.6,1,24.5,1Z"/><path class="cls-2" d="M13.2,5c-.1,0-.1,0-.2-.1s-.1-.1-.1-.2,0-.1.1-.2a.3.3,0,0,1,.4,0c.1.1.1.1.1.2s0,.1-.1.2S13.3,5,13.2,5Z"/><path class="cls-2" d="M71,35.2c-.1,0-.1,0-.2-.1s-.1-.1-.1-.2,0-.1.1-.2a.3.3,0,0,1,.4,0c.1.1.1.1.1.2s0,.1-.1.2S71.1,35.2,71,35.2Z"/></pattern></defs><title>Step4L</title><path class="cls-3" d="M919.48,344.39c2.44,41.38-9.67,89.84-49.8,109.52-67.38,33.32-121.14,78-181.7,124.17a178.9,178.9,0,0,1-75.33,34.21A150.37,150.37,0,0,1,577,614.82a139.34,139.34,0,0,1-35.91-6.45c-43.92-12.88-82.53-34.07-128.71-41.65-65.11-9.84-136.28,3.79-189.66-40.32a357.39,357.39,0,0,1-29-25.91,279.44,279.44,0,0,1-24.56-28.09,244.66,244.66,0,0,1-19.66-30.16,144.76,144.76,0,0,1-13-30.2,119.31,119.31,0,0,1-5.06-32c-.75-25.33,12.12-47.28,32.57-61.67,53-35.58,149.9-65.11,125.68-135.52-18.93-53-19.69-116.6,33.31-146.12,77.22-42.4,162-12.87,243.79,5.3,15.9,3.78,90.37,19.33,94.91,35.23,11.36,40.13-31.31,72.28.34,98.74a198.55,198.55,0,0,0,28,20.67c39.56,24.22,69.52,16.12,117.22,17.63,32.55,1.52,85.87,36.69,100.94,67.62a157.53,157.53,0,0,1,8.25,30.73A214.86,214.86,0,0,1,919.48,344.39Z" transform="translate(-40.86 -15)"/><path class="cls-4" d="M396.36,58.54H930a11.58,11.58,0,0,1,11.59,11.58h0V248.61A11.58,11.58,0,0,1,930,260.19H396.36a11.58,11.58,0,0,1-11.59-11.58h0V70.12a11.58,11.58,0,0,1,11.59-11.58Z" transform="translate(-40.86 -15)"/><path class="cls-5" d="M396.36,58.54H930a11.58,11.58,0,0,1,11.59,11.58h0V248.61A11.58,11.58,0,0,1,930,260.19H396.36a11.58,11.58,0,0,1-11.59-11.58h0V70.12a11.58,11.58,0,0,1,11.59-11.58Z" transform="translate(-40.86 -15)"/><path class="cls-6" d="M396.36,58.54H930a11.58,11.58,0,0,1,11.59,11.58h0V248.61A11.58,11.58,0,0,1,930,260.19H396.36a11.58,11.58,0,0,1-11.59-11.58h0V70.12a11.58,11.58,0,0,1,11.59-11.58Z" transform="translate(-40.86 -15)"/><path class="cls-3" d="M683.14,227.42a20.73,20.73,0,0,1-4.81-.57c-11.22-2.64-21.58-14.22-27.61-31-5-13.56-9.62-37.11-3.58-72.14,2.73-16,2.54-22.14,2.07-24.4-5.09,3.77-16.49,22.14-23.56,33.44-15.93,25.52-22,34.38-28.08,33.34-1.32-.19-3.77-1.22-4.62-5.09-.38-1.78-.85-2.07-.85-2.07-2.07-.66-9.8,5.75-13.1,8.39-7.26,5.93-13,10.64-17.91,7.91-4.42-2.55-4-9.33-3-15.54.56-3.87.75-8.76-2.07-10.18-9.9-4.89-47.69,17.71-88.12,59.25l-5.37-5.28c18.75-19.21,38.54-36.07,55.88-47.47,19.42-12.81,33.18-17.23,41.09-13.28,3.77,1.89,7.92,6.6,6.13,18.09a27.5,27.5,0,0,0-.47,7.34c2.26-1,6.41-4.52,9.14-6.68,7.35-6,14.32-11.78,20.35-9.71a8.75,8.75,0,0,1,5.19,5.56c4.43-4.52,13-18.18,19.5-28.54,18.29-29.2,25.83-39.93,33-37.2,4.71,1.79,6.69,8,2.35,33.44-10,57.92,9.33,90.6,25.54,94.47,8,1.88,14.61-3.4,18.1-14.6,8.48-27.6,17.24-47.19,32.32-53.22,9-3.58,19.51-1.88,32,5.18,30,17,51.18,14.6,75.68-8.76l5.18,5.46c-27,25.81-51.55,28.64-84.53,9.89-10.37-5.93-18.76-7.44-25.54-4.8-13,5.18-21.11,26.28-27.9,48.41C700.76,222.24,691.52,227.42,683.14,227.42Z" transform="translate(-40.86 -15)"/><path class="cls-7" d="M57.67,102.71H328.23A11.34,11.34,0,0,1,339.54,114V522.79a11.34,11.34,0,0,1-11.31,11.3H57.67a11.34,11.34,0,0,1-11.31-11.3V114A11.28,11.28,0,0,1,57.67,102.71Z" transform="translate(-40.86 -15)"/><path class="cls-8" d="M120.43,77.28H265.56a11.34,11.34,0,0,1,11.31,11.3v33.91a11.34,11.34,0,0,1-11.31,11.3H120.43a11.34,11.34,0,0,1-11.31-11.3V88.58A11.28,11.28,0,0,1,120.43,77.28Z" transform="translate(-40.86 -15)"/><path class="cls-9" d="M96.3,198.78h33a11.34,11.34,0,0,1,11.31,11.31v33a11.34,11.34,0,0,1-11.31,11.3h-33A11.33,11.33,0,0,1,85,243.05v-33a11.28,11.28,0,0,1,11.3-11.31Z" transform="translate(-40.86 -15)"/><path class="cls-9" d="M96.4,294.86h33a11.34,11.34,0,0,1,11.31,11.3v33a11.34,11.34,0,0,1-11.31,11.31h-33a11.34,11.34,0,0,1-11.31-11.31v-33A11.27,11.27,0,0,1,96.4,294.86Z" transform="translate(-40.86 -15)"/><path class="cls-9" d="M96.3,390.93h33a11.34,11.34,0,0,1,11.31,11.3v33a11.34,11.34,0,0,1-11.31,11.31h-33A11.34,11.34,0,0,1,85,435.19v-33a11.27,11.27,0,0,1,11.3-11.3Z" transform="translate(-40.86 -15)"/><polyline class="cls-10" points="44.23 211.57 71.94 239.35 111.99 159.29"/><polyline class="cls-10" points="44.23 314.23 71.94 342.02 111.99 261.96"/><polyline class="cls-10" points="44.23 410.31 71.94 438.09 111.99 358.03"/><path class="cls-11" d="M727.33,398.18" transform="translate(-40.86 -15)"/><path class="cls-1" d="M536.69,468.35c5.46.19,13.38,1.41,20.54,2.26-4.15-2.92-9.05-7.54-10.55-7.54C544.6,463.17,540.74,465.52,536.69,468.35Z" transform="translate(-40.86 -15)"/><path class="cls-1" d="M460.73,463.92c2.83,0,5.94.1,9.23.38-2.45-1.7-4.42-2.83-5.27-2.83C463.56,461.57,462.14,462.6,460.73,463.92Z" transform="translate(-40.86 -15)"/><path class="cls-1" d="M503.23,470.51c2.26.29,4.34.38,6.22.48a8.34,8.34,0,0,0-3.39-1.7A7.71,7.71,0,0,0,503.23,470.51Z" transform="translate(-40.86 -15)"/><path class="cls-12" d="M943.14,447.16a122.3,122.3,0,0,1-236.73,43c-4-.28-9.89-.09-12.34,2.35a12.3,12.3,0,0,0-3.49,10c0,5.18-5.28,9.32-11.87,9.32s-11.88-4.14-11.88-9.32l-.19-9.7s1.61-5.65-19.5-5.37-21.49,1.13-24.32-.28-14-13.1-16.87-13.1-7.82,7.44-11.12,7.35-18.37-16-29.21-16.48-22.9,12.71-26.67,12.71-13.29-10-15.55-10c-5.18.09-22.71,15.63-25.26,15.63s-12.53-9.41-15.26-9.51-12.35,9-15.74,8.95S444.71,466,441.41,466.09s-9.24,9.13-12.25,9.23S418.51,465.24,417,465.15s-.47,1.41-2.92,1.41-26-25-26-25c-2.73-3-2.73-6.12,0-9.23l25.73-26.09s2.54-3.49,12-3.49H667.4v-7.15c0-5.56,4.71-10,10.65-10a10.52,10.52,0,0,1,10.65,10c.09,6,9,7.06,13.28,7.15h4.9a122.3,122.3,0,0,1,236.26,44.37Zm-69.73-34.38a34.38,34.38,0,1,0,34.39,34.38,34.34,34.34,0,0,0-34.39-34.38Z" transform="translate(-40.86 -15)"/><path class="cls-13" d="M940.32,442.45a122.3,122.3,0,0,1-236.73,43.13c-4.06-.28-9.9-.09-12.35,2.36a12.31,12.31,0,0,0-3.49,10c0,5.18-5.27,9.33-11.87,9.33S664,503.1,664,497.92l-.18-9.7s1.6-5.65-19.51-5.37S622.82,484,620,482.57s-14-13.09-16.86-13.09-7.83,7.44-11.12,7.35-18.38-16-29.22-16.49-22.9,12.72-26.67,12.72-13.29-10-15.55-10c-5.18.1-22.71,15.73-25.25,15.73s-12.54-9.42-15.27-9.51-12.35,9-15.74,8.95-22.43-16.77-25.73-16.77-9.23,9.23-12.25,9.23-10.65-10.07-12.15-10.17-.48,1.41-2.93,1.41-26-25.05-26-25.05c-2.73-3-2.73-6.12,0-9.23L411,401.57s2.55-3.49,12-3.49H664.57v-7.15c0-5.56,4.71-10,10.65-10a10.52,10.52,0,0,1,10.65,10c.09,6,9,7.06,13.29,7.15h4.9a122.3,122.3,0,0,1,236.26,44.37Zm-69.74-34.38A34.38,34.38,0,1,0,905,442.45a34.34,34.34,0,0,0-34.4-34.38Z" transform="translate(-40.86 -15)"/><path class="cls-14" d="M940.32,442.45a122.3,122.3,0,0,1-236.73,43.13c-4.06-.28-9.9-.09-12.35,2.36a12.31,12.31,0,0,0-3.49,10c0,5.18-5.27,9.33-11.87,9.33S664,503.1,664,497.92l-.18-9.7s1.6-5.65-19.51-5.37S622.82,484,620,482.57s-14-13.09-16.86-13.09-7.83,7.44-11.12,7.35-18.38-16-29.22-16.49-22.9,12.72-26.67,12.72-13.29-10-15.55-10c-5.18.1-22.71,15.73-25.25,15.73s-12.54-9.42-15.27-9.51-12.35,9-15.74,8.95-22.43-16.77-25.73-16.77-9.23,9.23-12.25,9.23-10.65-10.07-12.15-10.17-.48,1.41-2.93,1.41-26-25.05-26-25.05c-2.73-3-2.73-6.12,0-9.23L411,401.57s2.55-3.49,12-3.49H664.57v-7.15c0-5.56,4.71-10,10.65-10a10.52,10.52,0,0,1,10.65,10c.09,6,9,7.06,13.29,7.15h4.9a122.3,122.3,0,0,1,236.26,44.37Zm-69.74-34.38A34.38,34.38,0,1,0,905,442.45a34.34,34.34,0,0,0-34.4-34.38Z" transform="translate(-40.86 -15)"/><g class="cls-15"><path class="cls-16" d="M385.05,436.89s297.52,3.39,332.67-5.46,27-23.46,7.54-23.36S405,407.41,405,407.41l-20,20.25C382.42,431.05,382,434.25,385.05,436.89Z" transform="translate(-40.86 -15)"/><path class="cls-17" d="M385.05,436.89s297.52,3.39,332.67-5.46c19-4.71,25.35-11.21,24.13-16.11-7.17,9.23-39.3,11.77-51.46,11.4s-46.84,3.77-59.37,5.37-45.52-8.48-82.27-2.55-74.17-5-82.55-6.12-29.88.75-46.56,2.07-28.18-4.24-28.18-4.24l-6.41,6.41C382.42,431.05,382,434.25,385.05,436.89Z" transform="translate(-40.86 -15)"/></g><g class="cls-15"><g class="cls-15"><path class="cls-3" d="M728.18,464.11c-11-.94-85.76-1.79-159.55-2.35,9.9,3.86,20.93,15.07,23.66,15.25,3.3.1,8.29-7.34,11.12-7.34s14,11.77,16.87,13.09,3.3.56,24.31.28,19.51,5.37,19.51,5.37l.09,5.27,24.13.19a12.41,12.41,0,0,1,3.2-5.74c2.45-2.45,8.3-2.64,12.35-2.36,1,2.83,2.26,5.65,3.48,8.39l31.58-20.44C738.83,473.53,750.8,466,728.18,464.11Z" transform="translate(-40.86 -15)"/><path class="cls-3" d="M426.71,470.8c3.11-.1,9-9.23,12.25-9.23s22.43,16.67,25.73,16.76,13-9,15.74-8.95,12.62,9.52,15.26,9.52,20.08-15.64,25.26-15.73c2.26,0,11.78,10,15.55,10,3,0,11.21-8.29,19.88-11.49-73.22-.56-141.83-.94-141.83-.94C416,460.81,423.6,470.89,426.71,470.8Z" transform="translate(-40.86 -15)"/></g><g class="cls-18"><path class="cls-3" d="M603.41,469.57c2.83,0,14,11.78,16.87,13.09s3.3.57,24.31.29,19.51,5.37,19.51,5.37l.09,5.27,24.13.19a12.39,12.39,0,0,1,3.2-5.75c2.45-2.45,8.3-2.63,12.35-2.35,1,2.82,2.26,5.65,3.48,8.38l31.58-20.44c-16,10.65-56.83,14.79-63.81,8.2s-19.79-5.65-35.81-.94-24.5-8.76-34.21-13c-4.52-2-15.73-1.79-27.14-.85,6.69,4.62,12.54,10,14.42,10.08C595.59,477,600.58,469.57,603.41,469.57Z" transform="translate(-40.86 -15)"/><path class="cls-3" d="M536.5,473.15a8.51,8.51,0,0,0,3.58-1.6c-2.55-.09-5.47-.38-8.48-.75C533.48,472.12,535.27,473.15,536.5,473.15Z" transform="translate(-40.86 -15)"/><path class="cls-3" d="M444.24,464.39c7,4.71,18,13.85,20.45,13.94,2.64.1,8.86-5.27,12.91-7.72a136.18,136.18,0,0,1-17.34-3.3A94.12,94.12,0,0,0,444.24,464.39Z" transform="translate(-40.86 -15)"/><path class="cls-3" d="M426.71,470.8c2.07-.1,5.37-4.15,8.29-6.88a68.7,68.7,0,0,0-15.17,1.7C422.37,468.25,425.11,470.89,426.71,470.8Z" transform="translate(-40.86 -15)"/><path class="cls-3" d="M507.28,468.44c-5.74.66-12,3-23.46,2.55,4.05,2.73,9.89,7.81,11.78,7.81,1.6,0,8.76-5.84,15.36-10.45C509.55,468.35,508.32,468.35,507.28,468.44Z" transform="translate(-40.86 -15)"/><path class="cls-3" d="M603.41,469.57c2.83,0,14,11.78,16.87,13.09s3.3.57,24.31.29,19.51,5.37,19.51,5.37l.09,5.27,24.13.19a12.39,12.39,0,0,1,3.2-5.75c2.45-2.45,8.3-2.63,12.35-2.35,1,2.82,2.26,5.65,3.48,8.38l31.58-20.44c-16,10.65-56.83,14.79-63.81,8.2s-19.79-5.65-35.81-.94-24.5-8.76-34.21-13c-4.52-2-15.73-1.79-27.14-.85,6.69,4.62,12.54,10,14.42,10.08C595.59,477,600.58,469.57,603.41,469.57Z" transform="translate(-40.86 -15)"/><path class="cls-3" d="M536.5,473.15a8.51,8.51,0,0,0,3.58-1.6c-2.55-.09-5.47-.38-8.48-.75C533.48,472.12,535.27,473.15,536.5,473.15Z" transform="translate(-40.86 -15)"/><path class="cls-3" d="M444.24,464.39c7,4.71,18,13.85,20.45,13.94,2.64.1,8.86-5.27,12.91-7.72a136.18,136.18,0,0,1-17.34-3.3A94.12,94.12,0,0,0,444.24,464.39Z" transform="translate(-40.86 -15)"/><path class="cls-3" d="M426.71,470.8c2.07-.1,5.37-4.15,8.29-6.88a68.7,68.7,0,0,0-15.17,1.7C422.37,468.25,425.11,470.89,426.71,470.8Z" transform="translate(-40.86 -15)"/><path class="cls-3" d="M507.28,468.44c-5.74.66-12,3-23.46,2.55,4.05,2.73,9.89,7.81,11.78,7.81,1.6,0,8.76-5.84,15.36-10.45C509.55,468.35,508.32,468.35,507.28,468.44Z" transform="translate(-40.86 -15)"/></g></g><line class="cls-19" x1="140.26" y1="191.7" x2="253.26" y2="191.7"/><line class="cls-19" x1="140.26" y1="215.34" x2="253.26" y2="215.34"/><line class="cls-19" x1="140.26" y1="238.98" x2="253.26" y2="238.98"/><line class="cls-19" x1="140.26" y1="286.26" x2="253.26" y2="286.26"/><line class="cls-19" x1="140.26" y1="309.9" x2="253.26" y2="309.9"/><line class="cls-19" x1="140.26" y1="333.54" x2="253.26" y2="333.54"/><line class="cls-19" x1="140.26" y1="380.82" x2="253.26" y2="380.82"/><line class="cls-19" x1="140.26" y1="404.47" x2="253.26" y2="404.47"/><line class="cls-19" x1="140.26" y1="428.11" x2="253.26" y2="428.11"/></svg>