<svg id="Layer_1" data-name="Layer 1" xmlns="http://www.w3.org/2000/svg" xmlns:xlink="http://www.w3.org/1999/xlink" viewBox="0 0 1071.1 600"><defs><style>.cls-1{fill:#fff;}.cls-2{fill:url(#linear-gradient);}.cls-3{fill:url(#linear-gradient-2);}.cls-4{fill:url(#linear-gradient-3);}.cls-5{fill:url(#linear-gradient-4);}.cls-6{fill:#503ea7;}.cls-7{fill:#35296f;}.cls-8{fill:#fbbfc8;}.cls-9{fill:#d2fad6;}</style><linearGradient id="linear-gradient" x1="661.19" y1="682.27" x2="669.15" y2="-62.19" gradientUnits="userSpaceOnUse"><stop offset="0" stop-color="#503ea7"/><stop offset="1" stop-color="#5d7fae"/></linearGradient><linearGradient id="linear-gradient-2" x1="399.62" y1="600.69" x2="411.56" y2="-68.13" gradientUnits="userSpaceOnUse"><stop offset="0" stop-color="#aad0e0"/><stop offset="1" stop-color="#d2fad6"/></linearGradient><linearGradient id="linear-gradient-3" x1="146.11" y1="660.73" x2="146.11" y2="-195.2" gradientUnits="userSpaceOnUse"><stop offset="0" stop-color="#6abdde"/><stop offset="1" stop-color="#aad0e0"/></linearGradient><linearGradient id="linear-gradient-4" x1="865.18" y1="755.42" x2="976.65" y2="-98.51" gradientUnits="userSpaceOnUse"><stop offset="0" stop-color="#f894a4"/><stop offset="1" stop-color="#fbbfc8"/></linearGradient></defs><title>Step3L</title><path class="cls-1" d="M180.63,103.57c65.52-.69,113.52-49.08,172.52-70.48,84.17-29.46,173.2-21.45,255.51,13.27a462.88,462.88,0,0,1,48.49,24c96,45.6,201,5.59,302-13,59-10.24,139,7.44,146,69.79,6,58.62-57,92.12-83,140.5-18,30.71-10,66.07-2.12,98.29,2.81,11,6,22,9,33.2s5.89,22.52,8.14,34.15c7,37.22-12,68.86-40,93-70,56.76-166,51.18-249.4,31.9-17.52-2-34.67-3-51.68-3.23-102-1.39-199.17,23.91-301.92,47.63a320.4,320.4,0,0,1-43.83,7.5c-43.45,8-95.26,8.23-130.9-14.59a86.16,86.16,0,0,1-23.29-21.7c-4-4.7-7-9.36-8-14.94-17-107.94-60-198.2-133-285.67-30-36.29-26-84.68,3-121,20-23.26,46-38.15,77.1-42C150.63,107.09,166.26,105.24,180.63,103.57Z" transform="translate(-34.45 -15)"/><polygon class="cls-2" points="548.21 104.64 591.53 50.97 743.83 50.97 781.9 104.64 781.9 537.73 548.21 537.73 548.21 104.64"/><polygon class="cls-3" points="287.76 104.64 331.09 50.97 483.38 50.97 521.45 104.64 521.45 537.73 287.76 537.73 287.76 104.64"/><polygon class="cls-4" points="29.27 104.64 72.59 50.97 224.88 50.97 262.95 104.64 262.95 537.73 29.27 537.73 29.27 104.64"/><polygon class="cls-5" points="805.02 104.64 848.34 50.97 1000.63 50.97 1038.7 104.64 1038.7 537.73 805.02 537.73 805.02 104.64"/><path class="cls-6" d="M480.3,392.82c-14.17,7.47-28.61,10.3-45.88,10.3-42.27,0-78.1-30.92-78.1-80.41,0-53.1,36.86-99,94.09-99,44.85,0,75,31.45,75,74.5,0,38.65-21.66,61.33-45.88,61.33-10.32,0-19.85-7-19.08-22.68h-1c-9,15.21-20.89,22.68-36.35,22.68-14.95,0-27.83-12.11-27.83-32.47,0-32,25.24-61.09,61.07-61.09,11.08,0,20.88,2.32,27.58,5.42l-8.76,46.65c-3.86,19.59-.77,28.61,7.73,28.87,13.16.25,27.85-17.27,27.85-47.17,0-37.38-22.44-64.18-62.4-64.18-42,0-77.31,33.24-77.31,85.58,0,43,28.1,69.59,66.23,69.59,14.69,0,28.36-3.1,38.93-9ZM466.13,281.47a44.36,44.36,0,0,0-12.89-1.81c-22.68,0-41,21.4-41,46.4,0,11.34,5.66,19.59,17,19.59,14.94,0,28.6-19.08,31.44-35Z" transform="translate(-34.45 -15)"/><path class="cls-7" d="M1024,271.79c0,38.23-63.33,138.59-69.23,138.59S885.57,310,885.57,271.79a69.24,69.24,0,1,1,138.47,0ZM954.81,240a34.56,34.56,0,1,0,34.55,34.55A34.55,34.55,0,0,0,954.81,240Z" transform="translate(-34.45 -15)"/><path class="cls-8" d="M797.66,246.62v-1.87a8,8,0,0,0-8-8H617.17a8,8,0,0,0-8,8v1.87l94.23,69.84Z" transform="translate(-34.45 -15)"/><path class="cls-8" d="M797.33,370.32a7.54,7.54,0,0,0,.33-2.14V256.53l-61,45.26Z" transform="translate(-34.45 -15)"/><path class="cls-8" d="M617,376.12l.16,0H789.7l.15,0L729,307.43l-25.56,18.94-25.55-18.94Z" transform="translate(-34.45 -15)"/><path class="cls-8" d="M670.26,301.79,609.2,256.53V368.18a7.91,7.91,0,0,0,.33,2.14Z" transform="translate(-34.45 -15)"/><path class="cls-8" d="M797.66,246.62v-1.87a8,8,0,0,0-8-8H617.17a8,8,0,0,0-8,8v1.87l94.23,69.84Z" transform="translate(-34.45 -15)"/><path class="cls-8" d="M797.33,370.32a7.54,7.54,0,0,0,.33-2.14V256.53l-61,45.26Z" transform="translate(-34.45 -15)"/><path class="cls-8" d="M617,376.12l.16,0H789.7l.15,0L729,307.43l-25.56,18.94-25.55-18.94Z" transform="translate(-34.45 -15)"/><path class="cls-8" d="M670.26,301.79,609.2,256.53V368.18a7.91,7.91,0,0,0,.33,2.14Z" transform="translate(-34.45 -15)"/><path class="cls-9" d="M211.23,214.54c-3-.2-5.4,0-6.6,0-4-.2-4.9,4.5-4.9,4.5s-7.5,36.7-9.1,42.3,3.3,7.2,3.3,7.2c1.6.6,3.4,1.3,5.4,1.9C202.73,257.34,209.43,230.24,211.23,214.54Z" transform="translate(-34.45 -15)"/><path class="cls-9" d="M151.13,349.44s-4.1-3.1-7.8,1.4-24.2,26-24.2,26-3.3,3.4-.9,6.6c.8,1.1,2.3,3.6,4.5,6.3,8.9-8.9,23.4-23.5,33.5-36.7A61.33,61.33,0,0,0,151.13,349.44Z" transform="translate(-34.45 -15)"/><path class="cls-9" d="M235.13,228.64c-5.9-9.7-13.9-12.8-20.5-13.7-1.8,16-8.8,43.9-12.2,56.7,19.1,7.5,13.36,18,13.36,18-1.59,7.59-28,58.87-34.83,66.67,0,0-5.33,9.63-21.93-1.17-10.2,13.4-25.4,28.6-34.1,37.3,4.5,4.5,11.5,8.8,22.2,8.2,19.3-1.2,35.87-4.63,65.7-55.6,1.5-2.6,9.9-17.5,12.4-23C251.38,265.39,245.13,245.14,235.13,228.64Z" transform="translate(-34.45 -15)"/></svg>