<svg id="Layer_1" data-name="Layer 1" xmlns="http://www.w3.org/2000/svg" viewBox="0 0 972.6 600"><defs><style>.cls-1{fill:#b5deef;}.cls-2{fill:#fbbfc8;}.cls-3{fill:#503ea7;}.cls-12,.cls-4,.cls-9{fill:#fff;}.cls-5{fill:#d2fad6;}.cls-11,.cls-6,.cls-7{fill:none;stroke-miterlimit:10;}.cls-11,.cls-6{stroke:#23146b;}.cls-6,.cls-7{stroke-width:7px;}.cls-10,.cls-6,.cls-8{opacity:0.6;}.cls-12,.cls-6,.cls-8,.cls-9{isolation:isolate;}.cls-7{stroke:#d2fad6;}.cls-8{fill:#23146b;}.cls-9{opacity:0.5;}.cls-11{stroke-width:5px;}.cls-12{opacity:0.7;}</style></defs><title>Step3</title><path class="cls-1" d="M1008.8,604.72V15H723V604.72Z" transform="translate(-36.2 -15)"/><path class="cls-2" d="M381.33,594.45H655.74a12.42,12.42,0,0,1,12.31,10.88V15H368.91V606.86A12.46,12.46,0,0,1,381.33,594.45Z" transform="translate(-36.2 -15)"/><path class="cls-3" d="M309.29,602.79a12.27,12.27,0,0,1,6.61,1.93V15H36.2V604.72a12.31,12.31,0,0,1,6.62-1.93Z" transform="translate(-36.2 -15)"/><rect class="cls-4" x="727.49" y="39.27" width="208.07" height="240.83"/><rect class="cls-5" x="30.93" y="280.31" width="75.39" height="256.71"/><path class="cls-4" d="M139,301.42V551H70.69V301.42H139m7.12-7.13H63.57V558.12h82.52Z" transform="translate(-36.2 -15)"/><rect class="cls-5" x="173.38" y="280.31" width="75.39" height="256.71"/><path class="cls-4" d="M281.41,301.42V551H213.14V301.42h68.27m7.12-7.13H206V558.12h82.51Z" transform="translate(-36.2 -15)"/><circle class="cls-1" cx="236.97" cy="228.32" r="15.47"/><path class="cls-5" d="M273.58,238.74l-21.27,1-21.26-1a3.87,3.87,0,0,0-3.87,3.87v1.52a3.87,3.87,0,0,0,3.87,3.87l21.26-1,21.27,1a3.86,3.86,0,0,0,3.86-3.87v-1.52A3.86,3.86,0,0,0,273.58,238.74Z" transform="translate(-36.2 -15)"/><rect class="cls-4" x="112.84" y="34.49" width="54.13" height="146.01"/><rect class="cls-4" x="31.64" y="34.49" width="54.13" height="146.01"/><rect class="cls-4" x="194.23" y="34.49" width="54.13" height="146.01"/><rect class="cls-6" x="433.44" y="327.62" width="105.61" height="32.05"/><path class="cls-1" d="M548.6,291.65v0Z" transform="translate(-36.2 -15)"/><rect class="cls-4" x="512.4" y="39.27" width="74.07" height="237.37"/><path class="cls-1" d="M414.29,291.65v0Z" transform="translate(-36.2 -15)"/><rect class="cls-4" x="378.09" y="39.27" width="74.07" height="237.37"/><rect class="cls-7" x="724.74" y="376.06" width="213.46" height="163.51"/><circle class="cls-8" cx="922.94" cy="328.44" r="18.72"/><rect class="cls-4" x="727.49" y="39.27" width="208.07" height="240.83"/><polygon class="cls-5" points="721.18 372.49 728.3 379.62 934.64 379.62 934.64 536 941.77 543.12 941.77 372.49 721.18 372.49"/><polygon class="cls-9" points="169.81 279.3 212.65 315.11 194.74 349.91 221.5 372.49 195.66 456.13 216.11 465.39 205.63 543.12 169.81 543.12 169.81 279.3"/><polygon class="cls-9" points="32.86 279.3 75.7 315.11 57.79 349.91 84.55 372.49 58.71 456.13 79.16 465.39 68.68 543.12 32.86 543.12 32.86 279.3"/><g class="cls-10"><line class="cls-11" x1="746.01" y1="396.71" x2="746.01" y2="518.81"/><line class="cls-11" x1="767.37" y1="396.71" x2="767.37" y2="518.81"/><line class="cls-11" x1="788.74" y1="396.71" x2="788.74" y2="518.81"/><line class="cls-11" x1="810.11" y1="396.71" x2="810.11" y2="518.81"/><line class="cls-11" x1="831.47" y1="396.71" x2="831.47" y2="518.81"/><line class="cls-11" x1="852.84" y1="396.71" x2="852.84" y2="518.81"/><line class="cls-11" x1="874.21" y1="396.71" x2="874.21" y2="518.81"/><line class="cls-11" x1="916.94" y1="396.71" x2="916.94" y2="518.81"/><line class="cls-11" x1="895.57" y1="396.71" x2="895.57" y2="518.81"/></g><rect class="cls-1" x="378.09" y="415.94" width="35.92" height="127.18"/><rect class="cls-1" x="435.98" y="415.94" width="35.92" height="127.18"/><rect class="cls-1" x="496.01" y="415.94" width="35.92" height="127.18"/><rect class="cls-1" x="550.55" y="415.94" width="35.92" height="127.18"/><path class="cls-12" d="M450.21,558.12V510.71c-13.33,3.66-25.54,6.61-35.92,8.85v38.56Z" transform="translate(-36.2 -15)"/><path class="cls-12" d="M508.1,558.12V492c-12.41,4.58-24.42,8.65-35.91,12.21v53.92Z" transform="translate(-36.2 -15)"/><path class="cls-12" d="M568.13,558.12V465.53c-11.9,6.21-24,11.81-35.91,16.79V558l35.91.1Z" transform="translate(-36.2 -15)"/><path class="cls-12" d="M622.67,558.12V432.06a409.33,409.33,0,0,1-35.92,23.3V558l35.92.1Z" transform="translate(-36.2 -15)"/><path class="cls-4" d="M657.77,615H379.19a10.25,10.25,0,0,1-10.28-10.28h0a10.25,10.25,0,0,1,10.28-10.27H657.77a10.25,10.25,0,0,1,10.28,10.27h0A10.25,10.25,0,0,1,657.77,615Z" transform="translate(-36.2 -15)"/><path class="cls-4" d="M305.63,615H46.48A10.25,10.25,0,0,1,36.2,604.72h0a10.25,10.25,0,0,1,10.28-10.27H305.63a10.25,10.25,0,0,1,10.27,10.27h0A10.25,10.25,0,0,1,305.63,615Z" transform="translate(-36.2 -15)"/><path class="cls-4" d="M998.52,615H733.27A10.25,10.25,0,0,1,723,604.72h0a10.25,10.25,0,0,1,10.28-10.27H998.52a10.25,10.25,0,0,1,10.28,10.27h0A10.25,10.25,0,0,1,998.52,615Z" transform="translate(-36.2 -15)"/></svg>