<?xml version="1.0" encoding="utf-8"?>
<!-- Generator: Adobe Illustrator 22.1.0, SVG Export Plug-In . SVG Version: 6.00 Build 0)  -->
<svg version="1.1" id="Layer_1" xmlns="http://www.w3.org/2000/svg" xmlns:xlink="http://www.w3.org/1999/xlink" x="0px" y="0px"
	 viewBox="0 0 1904.5 553" style="enable-background:new 0 0 1904.5 553;" xml:space="preserve">
<style type="text/css">
	.st0{fill:none;}
	.st1{fill:none;stroke:#231F20;stroke-width:0.3;}
	.st2{opacity:0.3;fill:url(#SVGID_2_);enable-background:new    ;}
</style>
<pattern  x="0" y="522.8" width="72" height="72" patternUnits="userSpaceOnUse" id="SVGID_1_" viewBox="3 -74.1 72 72" style="overflow:visible;">
	<g>
		<rect x="3" y="-74.1" class="st0" width="72" height="72"/>
		<g>
			<rect x="3" y="-74.1" class="st0" width="72" height="72"/>
			<rect x="3" y="-74.1" class="st0" width="72" height="72"/>
			<line class="st1" x1="71" y1="-1.2" x2="72.1" y2="-4.2"/>
			<line class="st1" x1="66.2" y1="-1.1" x2="65.5" y2="-4.4"/>
			<line class="st1" x1="50.9" y1="-0.2" x2="51.1" y2="-3.2"/>
			<line class="st1" x1="35.2" y1="-1.8" x2="33.8" y2="-3.9"/>
			<line class="st1" x1="19" y1="-1.7" x2="20.3" y2="-3.7"/>
			<line class="st1" x1="7.9" y1="-0.4" x2="6.2" y2="-2.7"/>
			<line class="st1" x1="58.5" y1="-0.1" x2="60.5" y2="-3.1"/>
			<line class="st1" x1="77.8" y1="-50.1" x2="74.8" y2="-50.1"/>
			<line class="st1" x1="76.8" y1="-34.3" x2="74.8" y2="-32.8"/>
			<line class="st1" x1="8.8" y1="-63.3" x2="6" y2="-61.3"/>
			<line class="st1" x1="7.3" y1="-7.1" x2="5" y2="-5.3"/>
			<line class="st1" x1="76.3" y1="-67.1" x2="73" y2="-66.3"/>
			<line class="st1" x1="75" y1="-55.3" x2="72.5" y2="-53.6"/>
			<line class="st1" x1="77.8" y1="-50.1" x2="74.8" y2="-50.1"/>
			<line class="st1" x1="74.5" y1="-42.6" x2="71.8" y2="-44.3"/>
			<line class="st1" x1="76.8" y1="-34.3" x2="74.8" y2="-32.8"/>
			<line class="st1" x1="74.3" y1="-22.3" x2="71.5" y2="-24.6"/>
			<line class="st1" x1="76.3" y1="-11.3" x2="72" y2="-12.1"/>
			<line class="st1" x1="66.5" y1="-13.1" x2="64.3" y2="-11.3"/>
			<line class="st1" x1="74.8" y1="-29.1" x2="71.8" y2="-29.1"/>
			<line class="st1" x1="61" y1="-56.6" x2="59.1" y2="-59.4"/>
			<line class="st1" x1="31" y1="-58.1" x2="29.4" y2="-60.6"/>
			<line class="st1" x1="46.1" y1="-62.5" x2="47.9" y2="-65.2"/>
			<line class="st1" x1="71" y1="-1.2" x2="72.1" y2="-4.2"/>
			<line class="st1" x1="66.2" y1="-1.1" x2="65.5" y2="-4.4"/>
			<line class="st1" x1="60" y1="-26.1" x2="58.1" y2="-28.9"/>
			<line class="st1" x1="51.7" y1="-54.5" x2="50" y2="-57.1"/>
			<line class="st1" x1="50.9" y1="-0.2" x2="51.1" y2="-3.2"/>
			<line class="st1" x1="43.6" y1="-3.8" x2="45.4" y2="-6.5"/>
			<line class="st1" x1="35.2" y1="-1.8" x2="33.8" y2="-3.9"/>
			<line class="st1" x1="53.3" y1="-33.3" x2="55.7" y2="-36"/>
			<line class="st1" x1="19" y1="-1.7" x2="20.3" y2="-3.7"/>
			<line class="st1" x1="12.3" y1="-3.2" x2="13.2" y2="-7.4"/>
			<line class="st1" x1="7.9" y1="-0.4" x2="6.2" y2="-2.7"/>
			<line class="st1" x1="30.1" y1="-4" x2="30.2" y2="-7"/>
			<line class="st1" x1="10.3" y1="-68.8" x2="13.8" y2="-67.3"/>
			<line class="st1" x1="7.5" y1="-53.3" x2="7.8" y2="-56.6"/>
			<line class="st1" x1="11" y1="-30.3" x2="12.5" y2="-26.6"/>
			<line class="st1" x1="8.3" y1="-35.8" x2="10.5" y2="-39.6"/>
			<line class="st1" x1="32.3" y1="-69.6" x2="30" y2="-67.1"/>
			<line class="st1" x1="36.5" y1="-69.6" x2="39.8" y2="-66.8"/>
			<line class="st1" x1="53.3" y1="-69.6" x2="56.5" y2="-67.6"/>
			<line class="st1" x1="55.5" y1="-63.6" x2="53.5" y2="-60.3"/>
			<line class="st1" x1="62.5" y1="-64.8" x2="67.5" y2="-67.1"/>
			<line class="st1" x1="70" y1="-61.3" x2="67.5" y2="-59.6"/>
			<line class="st1" x1="21.8" y1="-69.3" x2="21.8" y2="-66.3"/>
			<line class="st1" x1="18.8" y1="-64.3" x2="15.5" y2="-63.8"/>
			<line class="st1" x1="23" y1="-59.8" x2="23.5" y2="-56.6"/>
			<line class="st1" x1="24" y1="-64.3" x2="27.5" y2="-65.1"/>
			<line class="st1" x1="12.3" y1="-52.6" x2="15" y2="-54.6"/>
			<line class="st1" x1="10.5" y1="-10.1" x2="10.8" y2="-14.1"/>
			<line class="st1" x1="10.3" y1="-18.3" x2="12.5" y2="-20.8"/>
			<line class="st1" x1="24.3" y1="-8.3" x2="21.8" y2="-11.8"/>
			<line class="st1" x1="32.8" y1="-45.6" x2="30.3" y2="-43.8"/>
			<line class="st1" x1="60.8" y1="-40.3" x2="58" y2="-41.8"/>
			<line class="st1" x1="29.8" y1="-34.1" x2="26" y2="-34.8"/>
			<line class="st1" x1="34.5" y1="-24.6" x2="32.5" y2="-23.1"/>
			<line class="st1" x1="32" y1="-12.6" x2="29.3" y2="-14.8"/>
			<line class="st1" x1="35.3" y1="-8.3" x2="33.3" y2="-9.6"/>
			<line class="st1" x1="32.5" y1="-19.3" x2="29.5" y2="-19.3"/>
			<line class="st1" x1="42.8" y1="-55.1" x2="40.3" y2="-53.3"/>
			<line class="st1" x1="45.5" y1="-49.8" x2="42.5" y2="-49.8"/>
			<line class="st1" x1="42.3" y1="-42.3" x2="39.5" y2="-44.1"/>
			<line class="st1" x1="41.5" y1="-31.6" x2="40.8" y2="-29.1"/>
			<line class="st1" x1="42" y1="-22.1" x2="39.3" y2="-24.3"/>
			<line class="st1" x1="42.5" y1="-14.1" x2="40.5" y2="-15.3"/>
			<line class="st1" x1="66" y1="-29.6" x2="63" y2="-29.6"/>
			<line class="st1" x1="25.3" y1="-31.1" x2="27.8" y2="-29.3"/>
			<line class="st1" x1="30" y1="-53.6" x2="33" y2="-53.6"/>
			<line class="st1" x1="17.8" y1="-39.3" x2="20.3" y2="-37.6"/>
			<line class="st1" x1="15" y1="-34.1" x2="18" y2="-34.1"/>
			<line class="st1" x1="18.3" y1="-26.6" x2="21" y2="-28.3"/>
			<line class="st1" x1="50.3" y1="-41.1" x2="52.7" y2="-42.6"/>
			<line class="st1" x1="50.6" y1="-48.6" x2="53" y2="-46.8"/>
			<line class="st1" x1="57.7" y1="-52.6" x2="57.5" y2="-49.6"/>
			<line class="st1" x1="48.4" y1="-8.5" x2="51.4" y2="-8.4"/>
			<line class="st1" x1="49.4" y1="-14.4" x2="51.7" y2="-12.5"/>
			<line class="st1" x1="56.5" y1="-18.4" x2="57.6" y2="-15.3"/>
			<line class="st1" x1="51.3" y1="-30.6" x2="48.8" y2="-28.8"/>
			<line class="st1" x1="51" y1="-23.1" x2="47.8" y2="-24.1"/>
			<line class="st1" x1="60" y1="-7.6" x2="57.3" y2="-9.3"/>
			<line class="st1" x1="67.5" y1="-33.1" x2="64.8" y2="-34.8"/>
			<line class="st1" x1="65.3" y1="-22.1" x2="63.3" y2="-20.6"/>
			<line class="st1" x1="22.6" y1="-44.5" x2="25.7" y2="-44.4"/>
			<line class="st1" x1="23.6" y1="-50.4" x2="26" y2="-48.5"/>
			<line class="st1" x1="60.8" y1="-45.6" x2="63.5" y2="-45"/>
			<line class="st1" x1="18" y1="-18.3" x2="18.5" y2="-15.1"/>
			<line class="st1" x1="20" y1="-20.3" x2="23.5" y2="-21.1"/>
			<line class="st1" x1="35.8" y1="-61.3" x2="39.8" y2="-60.6"/>
			<line class="st1" x1="36.5" y1="-40.6" x2="37" y2="-37.1"/>
			<line class="st1" x1="67.5" y1="-51.1" x2="65" y2="-52.3"/>
			<line class="st1" x1="13" y1="-60.6" x2="16.3" y2="-57.8"/>
			<line class="st1" x1="7.8" y1="-44.6" x2="5.3" y2="-42.8"/>
			<line class="st1" x1="18.8" y1="-50.1" x2="16.8" y2="-48.6"/>
			<line class="st1" x1="44.3" y1="-69.3" x2="46.2" y2="-72"/>
			<line class="st1" x1="67.6" y1="-39" x2="69.4" y2="-41.7"/>
			<line class="st1" x1="36.8" y1="-47.8" x2="37.5" y2="-50.6"/>
			<line class="st1" x1="23.3" y1="-15.3" x2="24" y2="-18.1"/>
			<line class="st1" x1="34.8" y1="-31.3" x2="32.8" y2="-29.8"/>
			<line class="st1" x1="5.8" y1="-50.1" x2="2.8" y2="-50.1"/>
			<line class="st1" x1="4.8" y1="-34.3" x2="2.8" y2="-32.8"/>
			<line class="st1" x1="71" y1="-73.2" x2="72.1" y2="-76.2"/>
			<line class="st1" x1="66.2" y1="-73.1" x2="65.5" y2="-76.4"/>
			<line class="st1" x1="50.9" y1="-72.2" x2="51.1" y2="-75.2"/>
			<line class="st1" x1="35.2" y1="-73.8" x2="33.8" y2="-75.9"/>
			<line class="st1" x1="19" y1="-73.7" x2="20.3" y2="-75.7"/>
			<line class="st1" x1="7.9" y1="-72.4" x2="6.2" y2="-74.7"/>
			<line class="st1" x1="8.3" y1="-22.1" x2="4.5" y2="-22.8"/>
			<line class="st1" x1="71.4" y1="-16.7" x2="69.5" y2="-19.6"/>
			<line class="st1" x1="27" y1="-38.1" x2="27.7" y2="-40.9"/>
			<line class="st1" x1="47.8" y1="-37.1" x2="45.8" y2="-35.6"/>
			<line class="st1" x1="58.5" y1="-72.1" x2="60.5" y2="-75.1"/>
			<line class="st1" x1="58.5" y1="-0.1" x2="60.5" y2="-3.1"/>
			<line class="st1" x1="4.3" y1="-67.1" x2="1" y2="-66.3"/>
			<line class="st1" x1="3" y1="-55.3" x2="0.5" y2="-53.6"/>
			<line class="st1" x1="5.8" y1="-50.1" x2="2.8" y2="-50.1"/>
			<line class="st1" x1="4.8" y1="-34.3" x2="2.8" y2="-32.8"/>
			<line class="st1" x1="4.3" y1="-11.3" x2="0" y2="-12.1"/>
			<line class="st1" x1="71" y1="-73.2" x2="72.1" y2="-76.2"/>
			<line class="st1" x1="66.2" y1="-73.1" x2="65.5" y2="-76.4"/>
			<line class="st1" x1="50.9" y1="-72.2" x2="51.1" y2="-75.2"/>
			<line class="st1" x1="35.2" y1="-73.8" x2="33.8" y2="-75.9"/>
			<line class="st1" x1="19" y1="-73.7" x2="20.3" y2="-75.7"/>
			<line class="st1" x1="7.9" y1="-72.4" x2="6.2" y2="-74.7"/>
			<line class="st1" x1="58.5" y1="-72.1" x2="60.5" y2="-75.1"/>
		</g>
	</g>
</pattern>
<title>StepsMemphis</title>
<pattern  id="SVGID_2_" xlink:href="#SVGID_1_" patternTransform="matrix(5 0 0 5 57808.1641 83981.0781)">
</pattern>
<path class="st2" d="M0,553c0-5.1,18.5-20.1,22.3-24.1c8.5-9.1,17-18.2,25.6-27.3c15.7-16.6,31.7-32.9,48-48.9
	c31.3-30.5,64.1-59.4,99.3-85.2c44.4-32.6,87.7-49.8,141.9-60.5c56.7-11.2,115-13.9,172.6-9.8c96.3,6.7,220.1,28.2,310.2,62.2
	c99.5,37.6,172.8-4.9,274-3c53.6,1,105.3,16.2,154.5,36.4c35.9,14.7,70.8,31.8,106.1,48c74.2,33.9,150.3,64,230.8,79.2
	c49.9,9.5,100.9,13.3,151.7,11.1c65.8-2.9,128-16,167.5-38.3l-0.3-474.3c-61-19.3-128.6-26.7-194.1-5.8
	C1512.1,75.5,1142,366,845,281S395,74,239,107C135.9,128.8,0,246.4,0,246.4S0,552.9,0,553z"/>
</svg>
