<?xml version="1.0" encoding="utf-8"?>
<!-- Generator: Adobe Illustrator 22.1.0, SVG Export Plug-In . SVG Version: 6.00 Build 0)  -->
<svg version="1.1" id="Layer_1" xmlns="http://www.w3.org/2000/svg" xmlns:xlink="http://www.w3.org/1999/xlink" x="0px" y="0px"
	 viewBox="0 0 1920 813.5" style="enable-background:new 0 0 1920 813.5;" xml:space="preserve">
<style type="text/css">
	.st0{fill:#F5F7F9;}
	.st1{opacity:0.6;}
	.st2{fill:#FFFFFF;}
</style>
<title>StepsBG</title>
<g>
	<g>
		<path class="st0" d="M1920,45v602c-38.4,2.6-174.9-21.9-356,2c-141.7,18.7-216,74.1-491.8,66.5C871.5,710,747.1,665,530,617
			C207.8,545.8,35.2,683.9,0,686l0.4-534.1H0c151.6-52.1,336.8-87,544.8-55.5c382.6,57.9,661.6-62,897.1-29
			C1681,101,1914.6,48.1,1920,45z"/>
	</g>
</g>
<g class="st1">
	<path class="st2" d="M1758.9,537.6c0.9,1.1,2.1,1.6,3.3,2.1c1.3,0.5,3.4-0.4,4.5,0.4c0.3,0.2,0.4,0.4,0.6,0.8
		c0.2,0.4,0.3,0.8,0.4,1.2c0.2,0.9,0.5,1.5,1.2,1.8s1.4,0.3,2.2,0.2c0.9-0.1,1.6-0.1,2.1,0.4c0.5,0.4,0.9,1.1,1.2,1.9
		c0.3,0.8,0.5,1.6,1,2.1c0.3,0.2,0.5,0.4,0.9,0.4c0.4,0.1,0.8,0,1.2-0.1c0.9-0.2,1.8-0.3,2.2,0.2c1.1,0.7,1.2,3,2.1,3.9
		c0.9,1,1.9,1.9,3.2,2.3l-1.4,2.2c-0.9-1.1-2.1-1.6-3.3-2.1c-1.3-0.5-3.3,0.3-4.5-0.4c-0.6-0.3-0.9-1.1-1-2
		c-0.1-0.4-0.2-0.9-0.4-1.2c-0.2-0.4-0.4-0.5-0.7-0.7c-0.6-0.3-1.4-0.3-2.2-0.2c-0.9,0.1-1.6,0.1-2.1-0.4c-0.5-0.4-0.9-1.1-1.2-1.9
		c-0.3-0.8-0.5-1.6-1-2.1s-1.3-0.5-2.1-0.4c-0.4,0.1-0.9,0.2-1.2,0.2c-0.4,0-0.7-0.1-1-0.3c-1.2-0.6-1.2-3-2.1-3.9
		c-0.9-1-1.9-1.9-3.2-2.3L1758.9,537.6z"/>
</g>
<g class="st1">
	<path class="st2" d="M1740.2,545.7c-1,2.2-1.4,4.6-1.8,7.1c-0.4,2.4,0.9,5.3,0.1,7.6c-0.2,0.6-0.4,1.2-0.8,1.7
		c-0.4,0.5-0.9,1-1.3,1.5c-1,1-1.6,2.1-1.8,3.3c-0.3,1.2-0.1,2.5,0.2,3.8c0.2,1.3,0.3,2.6-0.1,3.7c-0.3,1.2-1,2.2-1.9,3.3
		c-0.8,1.1-1.7,2.1-2.1,3.2c-0.4,1.2-0.4,2.4,0,3.7s0.5,2.7,0.1,3.7c-0.6,2.3-3,4.2-3.9,6.4c-0.4,1.2-0.9,2.2-1.3,3.4
		s-0.6,2.3-0.8,3.6l-2.6-0.7c0.5-1.1,0.9-2.3,1.2-3.5c0.3-1.2,0.4-2.4,0.6-3.6c0.4-2.4-0.8-5.3-0.1-7.6c0.2-1.2,1.1-2.2,2.1-3.2
		c1-1,1.7-2.1,1.9-3.2c0.3-1.2,0.1-2.5-0.2-3.8c-0.2-1.3-0.3-2.6,0.1-3.7c0.3-1.2,1-2.2,1.9-3.3c0.8-1.1,1.7-2.1,2.1-3.2
		c0.4-1.2,0.4-2.4,0.1-3.7c-0.1-0.6-0.3-1.3-0.4-2c-0.1-0.6,0-1.3,0.2-1.9c0.4-2.4,3-4.2,3.9-6.4c1-2.2,1.8-4.6,2.1-7L1740.2,545.7z
		"/>
</g>
<g class="st1">
	<path class="st2" d="M1665,609.3c3,1.3,5.8,2.4,8.7,3.4c2.9,1,5.6,2,8.5,2.4c1.4,0.3,2.9,0.4,4.5,0.7c1.5,0.3,3.1,0.7,4.6,1.3
		c1.5,0.6,3,1.4,4.5,2.4c1.4,1,2.7,2.1,4,2.9l2.9,2l-2.5,1.2c-2.8,1.3-5,3.3-7,5.7c-1,1.2-2,2.4-2.9,3.6c-1,1.2-2.1,2.1-3.3,3
		c-1.2,0.9-2.5,1.7-3.8,2.4s-2.8,1.2-4.2,2c-2.8,1.3-5.4,2.9-7.3,5.3l-1.8,2.1l-1.2-3.4c-0.5-1.5-1.3-3-1.8-4.6s-0.9-3.3-1.1-4.9
		c-0.2-1.6-0.2-3.3,0-4.8c0.1-1.5,0.4-3,0.4-4.5c0.3-2.9,0.1-5.9-0.1-8.8C1665.8,615.6,1665.5,612.6,1665,609.3z M1666.6,611.5
		c0.3,2.7,0.7,5.6,1.3,8.7c0.5,2.9,1.1,5.9,2.1,9c0.5,1.5,1.1,3,1.6,4.5c0.5,1.4,0.9,2.8,1.2,4.1c0.3,1.3,0.3,2.7,0.1,4
		c-0.2,1.3-0.5,2.8-0.6,4.3l-3-1.2c2.8-1.3,5-3.3,7-5.6c1-1.2,2-2.4,2.9-3.6c1-1.2,2.1-2.1,3.3-3c1.2-0.9,2.5-1.7,3.8-2.4
		s2.8-1.2,4.2-2c2.8-1.3,5.4-2.9,7.3-5.2l0.4,3.1c-1.4-0.3-2.9-0.4-4.3-0.5c-1.3-0.2-2.7-0.5-3.8-1.1c-1.3-0.5-2.4-1.3-3.7-2.1
		c-1.2-0.9-2.5-1.9-3.8-2.8c-2.7-1.9-5.4-3.2-8.1-4.6C1671.9,613.7,1669.1,612.5,1666.6,611.5z"/>
</g>
<g class="st1">
	<path class="st2" d="M1681.2,566.5c-0.2-2.4,0.1-4.9,0.9-7.2s1.9-4.5,3.3-6.5c1.5-2,3.1-3.9,5.2-5.6c2.1-1.7,4.7-2.9,7.5-3
		c0.7,0,1.3,0,2.1,0c0.7,0.1,1.3,0.3,2.1,0.4c0.6,0.2,1.3,0.4,1.9,0.7c0.6,0.3,1.2,0.6,1.8,1c2.2,1.4,4.2,2.9,6.2,4.4
		c2,1.5,3.9,3.1,5.6,5.3c1.7,2.1,2.9,4.7,3.1,7.4c0.3,2.8-0.4,5.5-1.8,7.9s-3,4.3-4.6,6.1c-0.4,0.4-0.9,0.9-1.3,1.3
		c-0.4,0.4-0.9,0.9-1.3,1.3c-0.4,0.4-0.9,0.9-1.3,1.3s-0.9,0.9-1.4,1.3s-1.1,0.9-1.6,1.2c-0.5,0.4-1.2,0.7-1.8,1
		c-0.6,0.3-1.3,0.5-2,0.7c-0.6,0.2-1.3,0.3-2.1,0.3c-2.8,0.2-5.5-0.5-7.9-1.9c-2.3-1.3-4.3-2.9-6.1-4.6c-1.8-1.7-3.2-3.7-4.4-5.9
		C1682.2,571.3,1681.4,568.9,1681.2,566.5z M1683.9,566.2c0.2,2.1,0.7,4.2,1.7,6.1c1,1.9,2.3,3.6,4.1,4.7c1.7,1.2,3.7,1.9,5.8,2
		c2.1,0.1,3.8-0.2,5.6-0.3c0.4-0.1,0.9-0.2,1.3-0.2c0.4-0.1,0.9-0.1,1.4-0.1c0.4-0.1,1-0.1,1.4-0.1c0.5,0,1-0.1,1.5-0.2
		c0.5-0.1,1-0.2,1.5-0.4c0.5-0.2,1-0.4,1.4-0.6s0.9-0.6,1.3-0.9c0.4-0.4,0.7-0.8,1.1-1.2c1.3-1.7,1.9-3.7,1.9-5.8
		c0.1-2.1-0.1-3.8-0.3-5.6s-0.3-3.7-0.7-5.6c-0.4-2-1.3-3.9-2.9-5.4c-1.5-1.4-3.7-2.2-5.7-2.1c-0.5,0-1,0-1.5,0.1
		c-0.5,0.1-1,0.1-1.4,0.2s-0.9,0.1-1.4,0.2c-0.4,0.1-0.9,0.1-1.3,0.1c-1.8,0.2-3.7,0.3-5.6,0.7c-2,0.4-3.9,1.3-5.4,2.8
		c-1.5,1.4-2.6,3.3-3.2,5.4C1683.9,562,1683.6,564.2,1683.9,566.2z"/>
</g>
<g class="st1">
	<path class="st2" d="M1724.5,507.8c-0.1-1.9,0.1-3.7,0.7-5.5c0.6-1.8,1.4-3.5,2.5-5c1.1-1.5,2.3-3.1,3.8-4.6
		c1.6-1.4,3.7-2.4,5.8-2.6c0.5,0,1.1,0,1.6,0c0.5,0.1,1.1,0.2,1.6,0.4c0.5,0.2,1,0.4,1.5,0.6c0.4,0.3,0.9,0.5,1.3,0.8
		c1.7,1.2,3.2,2.5,4.7,3.6c1.5,1.2,3.1,2.3,4.6,3.9s2.4,3.7,2.6,5.8c0.2,2.1-0.4,4.4-1.6,6.2c-1.2,1.8-2.6,3.2-3.8,4.6
		c-0.4,0.4-0.6,0.7-1,1.1s-0.6,0.7-1,1.1c-0.4,0.4-0.6,0.7-1,1.2c-0.4,0.4-0.7,0.8-1.1,1.2c-0.4,0.4-0.8,0.7-1.2,1.1
		c-0.4,0.3-0.9,0.6-1.4,0.9c-0.5,0.3-1,0.4-1.5,0.5s-1.1,0.2-1.6,0.3c-2.1,0.2-4.4-0.5-6.2-1.6c-1.8-1.2-3.3-2.5-4.6-3.8
		c-1.3-1.3-2.4-2.9-3.3-4.6C1725.2,511.6,1724.7,509.7,1724.5,507.8z M1727.2,507.7c0.1,1.5,0.5,3,1.2,4.5c0.7,1.4,1.7,2.6,3,3.4
		c1.3,0.9,2.9,1.2,4.3,1.1c1.4-0.1,2.8-0.4,4-0.5s2.5,0,4.1-0.1c0.4,0,0.8-0.1,1.2-0.2c0.4-0.1,0.7-0.2,1.1-0.4
		c0.4-0.2,0.6-0.4,1-0.6c0.3-0.3,0.5-0.5,0.8-0.8c0.9-1.2,1.2-2.9,1.1-4.3c-0.1-1.4-0.4-2.7-0.4-3.9s-0.1-2.5-0.2-4
		c-0.1-1.4-0.7-3-1.8-4c-1.1-1.1-2.7-1.5-4.2-1.3c-0.4,0.1-0.7,0.1-1.1,0.2c-0.4,0.1-0.7,0.2-1.1,0.3c-0.4,0.1-0.6,0.2-1,0.2
		c-0.4,0.1-0.6,0.1-0.9,0.1c-1.3,0.1-2.5,0.1-3.9,0.3c-1.4,0.1-2.9,0.7-4.1,1.8c-1.2,1.1-2,2.4-2.4,3.9
		C1727.2,504.5,1727,506,1727.2,507.7z"/>
</g>
<g class="st1">
	<path class="st2" d="M1755.9,596.6c-0.1-1.9,0.1-3.7,0.7-5.5c0.6-1.8,1.4-3.4,2.5-5c1.1-1.5,2.2-3.1,3.8-4.6
		c1.5-1.4,3.7-2.4,5.8-2.6c0.5,0,1.1,0,1.6,0c0.5,0.1,1.1,0.2,1.6,0.4c0.5,0.2,1,0.4,1.5,0.6c0.4,0.3,0.9,0.5,1.3,0.8
		c1.7,1.3,3.1,2.4,4.6,3.6s3.1,2.3,4.6,3.9c1.4,1.5,2.4,3.6,2.6,5.8c0.2,2.1-0.4,4.4-1.6,6.2s-2.5,3.2-3.8,4.6
		c-0.4,0.4-0.6,0.7-1,1.1c-0.4,0.4-0.6,0.7-1,1.1c-0.4,0.4-0.6,0.7-1,1.2c-0.4,0.4-0.7,0.8-1.1,1.2c-0.4,0.4-0.8,0.7-1.2,1.1
		c-0.4,0.3-0.9,0.6-1.3,0.9s-1,0.4-1.5,0.5c-0.5,0.1-1.1,0.2-1.6,0.3c-2.1,0.2-4.4-0.5-6.1-1.6c-1.8-1.2-3.2-2.5-4.6-3.8
		c-1.3-1.3-2.4-2.9-3.3-4.5C1756.7,600.2,1756.1,598.4,1755.9,596.6z M1758.5,596.3c0.1,1.5,0.5,3,1.2,4.4c0.7,1.3,1.7,2.6,2.9,3.4
		c1.3,0.9,2.9,1.2,4.3,1.1c1.4-0.1,2.7-0.4,3.9-0.5s2.5,0,4,0c0.4,0,0.7-0.1,1.2-0.1c0.4-0.1,0.7-0.2,1.1-0.4c0.4-0.2,0.6-0.4,1-0.6
		c0.3-0.3,0.5-0.5,0.8-0.8c0.9-1.2,1.2-2.8,1.1-4.3c-0.1-1.4-0.4-2.7-0.4-3.9c-0.1-1.3-0.1-2.5-0.2-3.9c-0.1-1.4-0.6-2.9-1.8-4
		c-1.1-1.1-2.7-1.5-4.2-1.3c-0.4,0.1-0.7,0.1-1.1,0.2c-0.4,0.1-0.7,0.2-1,0.3c-0.4,0.1-0.6,0.2-1,0.2c-0.3,0.1-0.6,0.1-0.9,0.1
		c-1.3,0.1-2.5,0.1-3.9,0.2s-2.9,0.6-4,1.7c-1.1,1-2,2.4-2.4,3.8C1758.5,593.3,1758.4,594.8,1758.5,596.3z"/>
</g>
<g class="st1">
	<path class="st2" d="M1528.1,568.5c-1-0.9-2.3-1.3-3.6-1.5c-1.3-0.4-3.3,0.9-4.5,0.3c-0.3-0.2-0.5-0.4-0.7-0.7s-0.4-0.8-0.5-1.2
		c-0.3-0.9-0.7-1.4-1.4-1.6c-0.6-0.2-1.4,0-2.2,0.2c-0.8,0.3-1.6,0.3-2.1,0c-0.6-0.3-1-0.9-1.3-1.7c-0.4-0.8-0.7-1.5-1.2-1.9
		c-0.3-0.2-0.6-0.3-1-0.3c-0.4,0-0.8,0.2-1.2,0.3c-0.9,0.4-1.7,0.5-2.2,0.2c-1.2-0.5-1.6-2.8-2.7-3.6c-1.1-0.9-2.1-1.6-3.5-1.8
		l1.2-2.4c1,0.9,2.3,1.3,3.6,1.5c1.2,0.4,3.3-0.8,4.5-0.3c0.6,0.2,1,0.9,1.3,1.9c0.2,0.4,0.4,0.9,0.5,1.2c0.2,0.3,0.5,0.4,0.8,0.5
		c0.6,0.2,1.4,0,2.2-0.2c0.8-0.2,1.6-0.3,2.1,0c0.6,0.3,1,0.9,1.3,1.7c0.4,0.8,0.7,1.5,1.2,1.9c0.5,0.4,1.3,0.4,2.1,0
		c0.4-0.1,0.9-0.3,1.3-0.4c0.4-0.1,0.7,0,1.1,0.1c1.3,0.4,1.6,2.8,2.7,3.6c1.1,0.9,2.1,1.6,3.5,1.8L1528.1,568.5z"/>
</g>
<g class="st1">
	<path class="st2" d="M1564.4,496.9c0.9,1.1,2.1,1.6,3.3,2.1c1.3,0.5,3.4-0.4,4.5,0.4c0.3,0.2,0.4,0.4,0.6,0.8
		c0.2,0.4,0.3,0.8,0.4,1.2c0.2,0.9,0.5,1.5,1.2,1.8c0.6,0.3,1.4,0.3,2.2,0.2c0.9-0.1,1.6-0.1,2.1,0.4c0.5,0.4,0.9,1.1,1.2,1.9
		c0.3,0.8,0.5,1.6,1,2.1c0.3,0.2,0.5,0.4,0.9,0.4c0.4,0.1,0.8,0,1.2-0.1c0.9-0.2,1.8-0.3,2.2,0.2c1.1,0.7,1.2,3,2.1,3.9
		c0.9,1,1.9,1.9,3.2,2.3l-1.4,2.2c-0.9-1.1-2.1-1.6-3.3-2.1c-1.3-0.5-3.3,0.3-4.5-0.4c-0.6-0.3-0.9-1.1-1-2
		c-0.1-0.4-0.2-0.9-0.4-1.2s-0.4-0.5-0.7-0.7c-0.6-0.3-1.4-0.3-2.2-0.2c-0.9,0.1-1.6,0.1-2.1-0.4c-0.5-0.4-0.9-1.1-1.2-1.9
		s-0.5-1.6-1-2.1s-1.3-0.5-2.1-0.4c-0.4,0.1-0.9,0.2-1.2,0.2c-0.4,0-0.7-0.1-1-0.3c-1.2-0.6-1.2-3-2.1-3.9c-0.9-1-1.9-1.9-3.2-2.3
		L1564.4,496.9z"/>
</g>
<g class="st1">
	<path class="st2" d="M1537.5,584.3c-1,2.2-1.4,4.6-1.8,7.1c-0.4,2.4,0.9,5.3,0.1,7.6c-0.2,0.6-0.4,1.2-0.8,1.7s-0.9,1-1.3,1.5
		c-1,1-1.6,2.1-1.8,3.3c-0.3,1.2-0.1,2.5,0.2,3.8c0.2,1.3,0.3,2.6-0.1,3.7c-0.3,1.2-1,2.2-1.9,3.3c-0.8,1.1-1.7,2.1-2.1,3.2
		c-0.4,1.2-0.4,2.4,0,3.7s0.5,2.7,0.1,3.7c-0.6,2.3-3,4.2-3.9,6.4c-0.4,1.2-0.9,2.2-1.3,3.4s-0.6,2.3-0.8,3.6l-2.6-0.7
		c0.5-1.1,0.9-2.3,1.2-3.5c0.3-1.2,0.4-2.4,0.6-3.6c0.4-2.4-0.8-5.3-0.1-7.6c0.2-1.2,1.1-2.2,2.1-3.2c1-1,1.7-2.1,1.9-3.2
		c0.3-1.2,0.1-2.5-0.2-3.8c-0.2-1.3-0.3-2.6,0.1-3.7c0.3-1.2,1-2.2,1.9-3.3c0.8-1.1,1.7-2.1,2.1-3.2c0.4-1.2,0.4-2.4,0.1-3.7
		c-0.1-0.6-0.3-1.3-0.4-2c-0.1-0.6,0-1.2,0.2-1.9c0.4-2.4,3-4.2,3.9-6.4c1-2.2,1.8-4.6,2.1-7L1537.5,584.3z"/>
</g>
<g class="st1">
	<path class="st2" d="M1510.5,501.5c0.5,3.2,1.1,6.2,1.8,9.1c0.7,2.9,1.3,5.8,2.6,8.5c0.5,1.3,1.3,2.7,1.8,4.2
		c0.5,1.4,1.1,3,1.3,4.6c0.4,1.6,0.4,3.3,0.4,5c-0.1,1.7-0.3,3.4-0.3,5l-0.1,3.5l-2.4-1.4c-2.6-1.6-5.5-2.4-8.6-2.8
		c-1.5-0.2-3-0.4-4.6-0.6c-1.5-0.3-2.9-0.6-4.4-1.2c-1.4-0.5-2.8-1.2-4.1-2c-1.3-0.8-2.6-1.7-3.9-2.5c-2.6-1.6-5.4-2.9-8.4-3.3
		l-2.8-0.4l2.2-2.9c1-1.2,1.9-2.7,2.9-4c1.1-1.3,2.2-2.5,3.6-3.5c1.3-1,2.7-1.9,4-2.6c1.3-0.7,2.8-1.3,4-2.1c2.6-1.3,5-3.1,7.4-4.9
		C1505.7,505.5,1508,503.6,1510.5,501.5z M1509.6,504c-2.1,1.7-4.4,3.7-6.6,5.7s-4.4,4.1-6.4,6.7c-1,1.2-2,2.6-2.9,3.7
		s-1.9,2.2-2.9,3.1c-1,1-2.1,1.7-3.3,2.2c-1.3,0.6-2.6,1.1-3.9,1.8l-0.5-3.2c2.6,1.6,5.5,2.4,8.6,2.9c1.5,0.2,3,0.4,4.6,0.6
		c1.5,0.3,2.9,0.6,4.4,1.2s2.8,1.2,4.1,2s2.6,1.7,3.9,2.5c2.6,1.6,5.4,2.9,8.4,3.3l-2.4,2.1c-0.5-1.3-1.2-2.7-1.9-3.9
		c-0.6-1.2-1-2.5-1.2-3.8s-0.3-2.7-0.2-4.2s0.2-3.1,0.3-4.7c0.2-3.3-0.3-6.2-0.6-9.3C1510.6,509.6,1510.1,506.6,1509.6,504z"/>
</g>
<g>
	<g class="st1">
		<path class="st2" d="M1136.7,647.6c0.9,1,2.1,1.5,3.5,1.9c1.3,0.4,3.4-0.6,4.5,0.2c0.3,0.2,0.5,0.4,0.7,0.8
			c0.2,0.4,0.3,0.8,0.4,1.3c0.3,0.9,0.6,1.5,1.3,1.7c0.6,0.3,1.4,0.2,2.2,0s1.6-0.2,2.1,0.2c0.5,0.4,1,1,1.2,1.8
			c0.3,0.8,0.6,1.6,1.2,2c0.3,0.2,0.5,0.4,0.9,0.4c0.4,0,0.8-0.1,1.2-0.2c0.9-0.3,1.7-0.4,2.2,0c1.2,0.6,1.3,2.9,2.3,3.7
			c1,1,2,1.8,3.3,2.1l-1.3,2.3c-1-1-2.1-1.5-3.5-1.9c-1.3-0.4-3.3,0.5-4.5-0.2c-0.6-0.3-0.9-1-1.2-2c-0.1-0.4-0.3-0.9-0.4-1.2
			c-0.2-0.4-0.4-0.5-0.8-0.6c-0.6-0.3-1.4-0.1-2.2,0c-0.8,0.2-1.6,0.2-2.1-0.2c-0.5-0.4-1-1-1.3-1.8c-0.3-0.8-0.6-1.6-1.2-2
			c-0.5-0.4-1.3-0.4-2.1-0.2c-0.4,0.1-0.9,0.2-1.3,0.3c-0.4,0-0.7,0-1-0.2c-1.3-0.5-1.3-2.9-2.3-3.7c-1-1-2-1.8-3.3-2.1
			L1136.7,647.6z"/>
	</g>
	<g class="st1">
		<path class="st2" d="M1094.4,715.9c-0.8-1.2-2-1.8-3.1-2.3c-1.2-0.6-3.5,0.2-4.4-0.8c-0.3-0.2-0.4-0.5-0.5-0.9
			c-0.1-0.4-0.2-0.8-0.3-1.3c-0.1-0.9-0.4-1.6-1-1.9c-0.5-0.4-1.4-0.4-2.2-0.4c-0.9,0-1.6-0.1-2.1-0.5c-0.5-0.4-0.8-1.1-1-2
			c-0.2-0.8-0.4-1.6-0.8-2.1c-0.3-0.3-0.5-0.4-0.9-0.4c-0.4-0.1-0.8,0-1.2,0c-1,0.2-1.8,0.1-2.2-0.4c-1.1-0.8-0.9-3.1-1.8-4.1
			c-0.8-1.1-1.7-2.1-2.9-2.6l1.6-2.1c0.8,1.1,2,1.8,3.1,2.3c1.2,0.6,3.4,0,4.4,0.8c0.5,0.4,0.8,1.2,0.8,2.1c0.1,0.4,0.1,0.9,0.3,1.3
			c0.2,0.4,0.4,0.5,0.7,0.7c0.5,0.4,1.4,0.4,2.2,0.4c0.9,0,1.6,0.1,2.1,0.5c0.5,0.4,0.8,1.1,1,2c0.2,0.8,0.4,1.6,0.8,2.1
			c0.4,0.5,1.2,0.6,2.1,0.5c0.4,0,0.9-0.1,1.3-0.1c0.4,0,0.7,0.2,1,0.4c1.2,0.7,0.9,3,1.8,4.1c0.8,1.1,1.7,2.1,2.9,2.6L1094.4,715.9
			z"/>
	</g>
	<g class="st1">
		<path class="st2" d="M1128.5,631.1c1.2-2.1,1.9-4.5,2.3-6.9c0.6-2.3-0.4-5.4,0.5-7.6c0.2-0.5,0.5-1.1,1-1.6c0.4-0.5,0.9-1,1.4-1.4
			c1.1-0.9,1.8-2,2.1-3.1c0.4-1.2,0.3-2.5,0.2-3.8c-0.1-1.3-0.1-2.6,0.4-3.7c0.4-1.2,1.2-2.1,2.1-3.1c0.9-1,1.8-1.9,2.3-3
			c0.5-1.1,0.6-2.3,0.4-3.7c-0.3-1.3-0.3-2.7,0.2-3.7c0.8-2.3,3.4-3.9,4.5-6.1c0.5-1.1,1.1-2.1,1.5-3.3s0.8-2.2,1.1-3.5l2.5,0.9
			c-0.6,1.1-1.1,2.2-1.4,3.4s-0.7,2.3-0.9,3.6c-0.6,2.3,0.4,5.3-0.5,7.6c-0.3,1.2-1.3,2.1-2.2,3c-1.1,0.9-1.9,1.9-2.1,3.1
			c-0.4,1.2-0.3,2.5-0.2,3.8c0.1,1.3,0.1,2.6-0.4,3.7c-0.4,1.2-1.2,2.1-2.1,3.1c-0.9,1-1.8,1.9-2.3,3c-0.5,1.1-0.6,2.3-0.4,3.7
			c0.1,0.7,0.2,1.3,0.2,2s-0.1,1.2-0.3,1.8c-0.7,2.3-3.4,3.9-4.5,6.1c-1.2,2.1-2.1,4.4-2.6,6.8L1128.5,631.1z"/>
	</g>
	<g class="st1">
		<path class="st2" d="M1213.2,604c-2.9-1.6-5.6-2.9-8.3-4.1c-2.8-1.2-5.4-2.5-8.3-3.1c-1.4-0.4-2.9-0.6-4.4-1.1s-3-1-4.6-1.8
			c-1.5-0.7-2.9-1.7-4.2-2.8c-1.3-1.1-2.5-2.2-3.7-3.2l-2.8-2.1l2.6-1c2.9-1.1,5.3-2.9,7.4-5.1c1.1-1.1,2.1-2.2,3.2-3.3
			c1.1-1.1,2.3-2,3.6-2.8c1.2-0.8,2.6-1.5,4-2.1c1.4-0.5,2.9-1.1,4.4-1.6c2.9-1.1,5.5-2.4,7.8-4.6l2-2l0.9,3.5
			c0.4,1.5,1,3.1,1.4,4.8c0.4,1.6,0.6,3.3,0.6,5c0,1.6-0.1,3.3-0.4,4.8c-0.3,1.5-0.6,3-0.8,4.5c-0.5,2.9-0.5,5.9-0.6,8.8
			C1212.9,597.7,1212.9,600.7,1213.2,604z M1211.7,601.8c-0.1-2.7-0.3-5.7-0.5-8.7c-0.4-3-0.6-6-1.4-9.1c-0.4-1.5-0.8-3.1-1.3-4.6
			c-0.4-1.4-0.6-2.9-0.8-4.2c-0.2-1.3-0.1-2.7,0.3-4c0.3-1.3,0.7-2.8,1-4.2l2.9,1.5c-2.9,1.1-5.3,2.9-7.5,5.1
			c-1.1,1.1-2.1,2.2-3.2,3.3c-1.1,1.1-2.3,2-3.6,2.8s-2.6,1.5-4,2.1c-1.4,0.5-2.9,1.1-4.4,1.6c-2.9,1.1-5.5,2.5-7.8,4.6l-0.2-3.2
			c1.4,0.4,2.9,0.6,4.2,0.9s2.6,0.7,3.7,1.4c1.2,0.6,2.3,1.4,3.5,2.4c1.2,1,2.3,2.1,3.6,3c2.5,2.1,5.1,3.6,7.7,5.2
			C1206.6,599.1,1209.2,600.6,1211.7,601.8z"/>
	</g>
	<g class="st1">
		<path class="st2" d="M1148.5,715.9c-0.3-3.3-0.6-6.2-1-9.2c-0.4-2.9-0.9-5.9-1.9-8.7c-0.4-1.4-1-2.8-1.4-4.3
			c-0.4-1.5-0.8-3.1-1-4.7s-0.2-3.4,0-5c0.2-1.7,0.5-3.3,0.7-4.9l0.4-3.5l2.2,1.6c2.5,1.8,5.3,2.9,8.3,3.5c1.5,0.4,3,0.6,4.6,1
			c1.5,0.4,2.9,0.9,4.3,1.5c1.3,0.6,2.7,1.4,3.9,2.3s2.4,1.9,3.7,2.8c2.4,1.9,5.1,3.3,8,4l2.8,0.6l-2.5,2.6
			c-1.1,1.2-2.1,2.5-3.3,3.7c-1.2,1.2-2.5,2.3-3.8,3.2c-1.3,0.9-2.9,1.7-4.3,2.3c-1.4,0.6-2.9,1.2-4.2,1.7c-2.7,1.1-5.3,2.7-7.8,4.3
			C1153.7,712.3,1151.2,713.9,1148.5,715.9z M1149.7,713.4c2.2-1.5,4.6-3.3,7.1-5.2c2.3-1.9,4.7-3.7,7-6.2c1.1-1.2,2.1-2.4,3.1-3.5
			s2.1-2.1,3.1-2.9s2.2-1.5,3.5-2c1.2-0.4,2.7-0.9,4.1-1.4l0.3,3.2c-2.4-1.9-5.3-2.9-8.3-3.6c-1.5-0.4-3-0.6-4.6-1
			c-1.5-0.4-2.9-0.9-4.3-1.5s-2.7-1.4-3.9-2.3c-1.2-0.9-2.4-1.9-3.7-2.8c-2.4-1.9-5.1-3.3-8-4l2.6-1.9c0.4,1.4,1,2.8,1.5,4
			c0.4,1.3,0.8,2.6,0.9,3.9c0.1,1.3,0,2.8-0.2,4.2c-0.2,1.5-0.4,3-0.6,4.6c-0.4,3.2-0.3,6.2-0.2,9.3
			C1149.2,707.7,1149.3,710.8,1149.7,713.4z"/>
	</g>
	<g class="st1">
		<path class="st2" d="M1195.6,625.9c0,2.4-0.5,4.9-1.5,7.1c-1,2.2-2.2,4.4-3.8,6.2c-1.6,1.9-3.4,3.7-5.6,5.2
			c-2.2,1.5-4.9,2.4-7.7,2.4c-0.7,0-1.3-0.1-2.1-0.2c-0.7-0.2-1.3-0.4-2-0.5c-0.6-0.3-1.2-0.5-1.9-0.9c-0.6-0.4-1.2-0.7-1.7-1.1
			c-2.1-1.6-3.9-3.3-5.8-4.9c-1.8-1.7-3.7-3.5-5.2-5.7c-1.5-2.2-2.5-4.9-2.4-7.7c0-2.8,0.9-5.4,2.4-7.7s3.4-4,5.2-5.7
			c0.4-0.4,0.9-0.8,1.3-1.2c0.4-0.4,0.9-0.8,1.4-1.3c0.4-0.4,1-0.8,1.4-1.2c0.5-0.4,1-0.8,1.5-1.2c0.5-0.4,1.1-0.8,1.7-1.1
			s1.3-0.6,1.9-0.9c0.6-0.2,1.3-0.4,2-0.5c0.7-0.1,1.3-0.1,2.1-0.2c2.8,0,5.4,1,7.7,2.5c2.2,1.5,4,3.3,5.7,5.2
			c1.6,1.9,2.9,3.9,3.8,6.2C1195,621,1195.5,623.4,1195.6,625.9z M1192.9,625.9c0-2.1-0.4-4.2-1.2-6.2c-0.8-2-2.1-3.7-3.7-5.1
			c-1.6-1.3-3.7-2.1-5.6-2.4c-2-0.3-3.8-0.2-5.6-0.2c-0.4,0-0.9,0.1-1.3,0c-0.4,0-0.9,0-1.4,0c-0.4,0-1,0-1.4,0c-0.5,0-1,0-1.5,0
			c-0.5,0.1-1,0.1-1.5,0.2c-0.5,0.1-1,0.3-1.5,0.5c-0.4,0.3-0.9,0.5-1.3,0.8c-0.4,0.4-0.8,0.7-1.2,1.1c-1.4,1.5-2.1,3.6-2.4,5.6
			c-0.2,2-0.2,3.8-0.2,5.6c0,1.8,0,3.7,0.2,5.6c0.3,2,1,4,2.4,5.6c1.3,1.6,3.4,2.5,5.5,2.7c0.5,0,1,0.1,1.5,0.1s1,0,1.4,0
			c0.4-0.1,1-0.1,1.4-0.1s0.9-0.1,1.3,0c1.8,0,3.7,0,5.6-0.3s4-1,5.6-2.3c1.6-1.3,2.9-3.1,3.7-5.1
			C1192.5,630.1,1192.9,627.9,1192.9,625.9z"/>
	</g>
	<g class="st1">
		<path class="st2" d="M1021.6,718.8c0,1.8-0.4,3.6-1.2,5.2c-0.7,1.6-1.6,3.1-2.8,4.6c-1.2,1.3-2.4,2.9-4,4.1s-3.7,2.1-5.7,2.1
			c-0.5,0-1.1-0.1-1.5-0.2c-0.5-0.1-1-0.3-1.5-0.4c-0.4-0.2-0.9-0.4-1.3-0.7s-0.8-0.6-1.2-0.9c-1.5-1.3-2.8-2.6-4.1-3.8
			s-2.8-2.4-4-4c-1.3-1.6-2.1-3.7-2.1-5.7c0-2.1,0.8-4.1,2.1-5.7c1.2-1.6,2.7-2.9,4-4c0.4-0.3,0.7-0.6,1-0.9c0.4-0.3,0.6-0.6,1-1
			c0.4-0.3,0.7-0.6,1-1c0.4-0.4,0.7-0.7,1.1-1.1c0.4-0.3,0.8-0.6,1.2-1c0.4-0.3,0.9-0.5,1.3-0.7c0.4-0.2,1-0.4,1.5-0.4
			c0.5-0.1,1.1-0.1,1.5-0.1c2.1,0,4.1,0.9,5.7,2.1c1.6,1.2,2.9,2.7,4,4c1.2,1.4,2.1,2.9,2.8,4.6
			C1021.2,715.2,1021.6,717,1021.6,718.8z M1018.9,718.8c0-1.4-0.3-2.9-0.7-4.2c-0.5-1.3-1.4-2.6-2.6-3.4c-1.1-0.9-2.6-1.3-3.9-1.3
			s-2.6,0.2-3.7,0.2c-1.2,0.1-2.3-0.2-3.7-0.4c-0.4,0-0.7,0-1.1,0c-0.4,0-0.7,0.2-1.1,0.3c-0.4,0.2-0.6,0.3-1,0.5
			c-0.3,0.2-0.5,0.4-0.8,0.7c-1,1.1-1.3,2.6-1.3,3.9c0,1.4,0.2,2.6,0.2,3.7c0,1.2-0.2,2.3-0.2,3.7s0.4,2.9,1.3,3.9
			c0.9,1.1,2.4,1.6,3.8,1.5c0.4,0,0.7-0.1,1.1-0.1c0.4-0.1,0.6-0.1,1-0.2c0.4-0.1,0.6-0.1,0.9-0.1c0.3-0.1,0.6-0.1,0.9,0
			c1.2,0,2.3,0.1,3.7,0.2c1.3,0,2.9-0.4,4-1.2s2.1-2.1,2.6-3.4C1018.7,721.7,1019,720.2,1018.9,718.8z"/>
	</g>
	<g class="st1">
		<path class="st2" d="M1015.9,624.8c0.8-1.1,1.1-2.4,1.2-3.7c0.2-1.3-1.2-3.2-0.6-4.4c0.1-0.3,0.4-0.5,0.6-0.8
			c0.4-0.3,0.7-0.4,1.2-0.6c0.8-0.4,1.4-0.9,1.5-1.5c0.2-0.6-0.1-1.4-0.4-2.2c-0.3-0.8-0.4-1.5-0.2-2.1c0.2-0.6,0.8-1.1,1.5-1.5
			c0.7-0.4,1.4-0.9,1.7-1.4c0.2-0.3,0.3-0.6,0.2-1c0-0.4-0.2-0.8-0.4-1.2c-0.4-0.9-0.7-1.6-0.4-2.2c0.4-1.3,2.7-1.8,3.3-2.9
			c0.8-1.1,1.3-2.3,1.4-3.7l2.5,0.9c-0.8,1.1-1.1,2.4-1.3,3.7c-0.3,1.3,1.1,3.2,0.6,4.4c-0.1,0.6-0.8,1.1-1.7,1.4
			c-0.4,0.2-0.8,0.4-1.1,0.6s-0.4,0.5-0.4,0.9c-0.2,0.6,0.1,1.4,0.4,2.2c0.3,0.8,0.4,1.5,0.2,2.1c-0.2,0.6-0.8,1.1-1.5,1.5
			s-1.4,0.9-1.7,1.4c-0.4,0.5-0.3,1.3,0.2,2.1c0.2,0.4,0.4,0.8,0.4,1.3c0.1,0.4,0.1,0.7,0,1.1c-0.3,1.3-2.7,1.8-3.3,2.9
			c-0.8,1.1-1.4,2.2-1.5,3.7L1015.9,624.8z"/>
	</g>
	<g class="st1">
		<path class="st2" d="M1071,561.6c0.8-1.1,1.1-2.4,1.2-3.7c0.2-1.3-1.2-3.2-0.6-4.4c0.1-0.3,0.4-0.5,0.6-0.8
			c0.4-0.3,0.7-0.4,1.2-0.6c0.8-0.4,1.4-0.9,1.5-1.5c0.2-0.6-0.1-1.4-0.4-2.2c-0.3-0.8-0.4-1.5-0.2-2.1c0.2-0.6,0.8-1.1,1.5-1.5
			c0.7-0.4,1.4-0.9,1.7-1.4c0.2-0.3,0.3-0.6,0.2-1c0-0.4-0.2-0.8-0.4-1.2c-0.4-0.9-0.7-1.6-0.4-2.2c0.4-1.2,2.7-1.8,3.3-2.9
			c0.8-1.1,1.3-2.3,1.4-3.7l2.5,0.9c-0.8,1.1-1.1,2.4-1.3,3.7c-0.3,1.3,1.1,3.2,0.6,4.4c-0.1,0.6-0.8,1.1-1.7,1.4
			c-0.4,0.2-0.8,0.4-1.1,0.6s-0.4,0.5-0.4,0.9c-0.2,0.6,0.1,1.4,0.4,2.2c0.3,0.8,0.4,1.5,0.2,2.1c-0.2,0.6-0.8,1.1-1.5,1.5
			s-1.4,0.9-1.7,1.4c-0.4,0.5-0.3,1.3,0.2,2.1c0.2,0.4,0.4,0.8,0.4,1.3c0.1,0.4,0.1,0.7,0,1.1c-0.3,1.3-2.7,1.8-3.3,2.9
			c-0.8,1.1-1.4,2.2-1.5,3.7L1071,561.6z"/>
	</g>
	<g class="st1">
		<path class="st2" d="M1042.6,710.6c0.8-1.1,1.1-2.4,1.2-3.7c0.2-1.3-1.3-3.2-0.6-4.4c0.1-0.3,0.4-0.5,0.6-0.8
			c0.4-0.3,0.7-0.4,1.2-0.6c0.8-0.4,1.4-0.9,1.5-1.5c0.2-0.6-0.1-1.4-0.4-2.2c-0.3-0.8-0.4-1.5-0.2-2.1c0.2-0.6,0.8-1.1,1.5-1.5
			s1.4-0.9,1.7-1.4c0.2-0.3,0.3-0.6,0.2-1c0-0.4-0.2-0.8-0.4-1.2c-0.4-0.9-0.7-1.6-0.4-2.2c0.4-1.2,2.7-1.8,3.3-2.9
			c0.8-1.1,1.3-2.3,1.4-3.7l2.5,0.9c-0.8,1.1-1.1,2.4-1.3,3.7c-0.3,1.3,1.1,3.2,0.6,4.4c-0.1,0.6-0.8,1.1-1.7,1.4
			c-0.4,0.2-0.8,0.4-1.1,0.6s-0.4,0.5-0.4,0.9c-0.2,0.6,0.1,1.4,0.4,2.2c0.3,0.8,0.4,1.5,0.2,2.1c-0.2,0.6-0.8,1.1-1.5,1.5
			s-1.4,0.9-1.7,1.4c-0.4,0.5-0.3,1.3,0.2,2.1c0.2,0.4,0.4,0.8,0.4,1.3c0.1,0.4,0.1,0.7,0,1.1c-0.3,1.3-2.7,1.8-3.3,2.9
			c-0.8,1.1-1.4,2.2-1.5,3.7L1042.6,710.6z"/>
	</g>
	<g class="st1">
		<path class="st2" d="M1070.7,667.6c-1.2-1.4-2.7-2.4-4.3-3.2c-1.6-0.9-4.2-0.4-5.5-1.7c-0.4-0.3-0.6-0.6-0.8-1.1
			c-0.2-0.4-0.4-1-0.5-1.5c-0.3-1.1-0.8-1.9-1.6-2.4c-0.7-0.5-1.8-0.6-2.9-0.8c-1.1-0.1-2-0.4-2.7-1c-0.7-0.5-1.2-1.4-1.5-2.4
			c-0.4-1-0.7-2-1.4-2.6c-0.4-0.4-0.7-0.5-1.2-0.7c-0.4-0.2-1-0.2-1.5-0.2c-1.2,0-2.1-0.2-2.8-0.8c-1.4-1.1-1.7-3.7-2.9-5
			c-1.2-1.4-2.5-2.7-4.1-3.5l1.6-2.1c1.2,1.4,2.7,2.4,4.3,3.2c1.5,1,4.1,0.6,5.5,1.7c0.8,0.4,1.2,1.4,1.4,2.6
			c0.2,0.5,0.3,1.1,0.5,1.4c0.3,0.4,0.5,0.7,1,1c0.7,0.5,1.8,0.6,2.9,0.8c1.1,0.1,2,0.4,2.7,1c0.7,0.5,1.2,1.4,1.5,2.4
			c0.4,1,0.7,2,1.4,2.6c0.6,0.6,1.5,1,2.7,1c0.5,0.1,1.1,0.1,1.6,0.2c0.5,0.1,0.9,0.3,1.3,0.5c1.5,1,1.7,3.7,2.9,5
			c1.2,1.4,2.5,2.7,4.1,3.5L1070.7,667.6z"/>
	</g>
	<g class="st1">
		<path class="st2" d="M1067.9,597.5c-1.3-1.7-2.9-2.9-4.6-4c-1.7-1.2-4.6-1.1-6-2.6c-0.4-0.4-0.7-0.8-0.9-1.2
			c-0.3-0.5-0.4-1.1-0.5-1.7c-0.4-1.2-0.8-2.1-1.7-2.8c-0.8-0.6-1.9-1-3-1.2c-1.2-0.3-2.1-0.7-2.9-1.4c-0.8-0.7-1.2-1.7-1.6-2.8
			c-0.4-1.1-0.8-2.1-1.5-2.9c-0.6-0.8-1.7-1.2-2.9-1.3s-2.3-0.5-3-1.2c-1.5-1.3-1.8-4.2-3.1-5.7c-1.3-1.6-2.7-3.1-4.5-4.3l1.8-2
			c1.3,1.7,2.9,2.9,4.6,4.1c1.7,1.3,4.5,1.3,6,2.6c0.8,0.6,1.3,1.7,1.5,2.9c0.3,1.3,0.8,2.2,1.6,2.8c0.8,0.6,1.9,1,3,1.3
			c1.2,0.3,2.1,0.7,2.9,1.4c0.8,0.7,1.2,1.7,1.6,2.8c0.4,1.1,0.8,2.1,1.5,2.9s1.7,1.2,2.9,1.4c0.5,0.1,1.2,0.3,1.7,0.4
			c0.5,0.2,1,0.4,1.3,0.8c1.6,1.3,1.8,4.1,3.1,5.7c1.3,1.6,2.7,3.2,4.5,4.3L1067.9,597.5z"/>
	</g>
	<g class="st1">
		<path class="st2" d="M1189.9,586.1c0.6-0.7,0.8-1.6,0.8-2.5c0.1-0.9-1.5-2.4-1.1-3.2c0.1-0.4,0.8-0.6,1.6-0.8
			c0.2-0.1,0.4-0.1,0.5-0.2c0.2-0.1,0.3-0.1,0.4-0.2c0.3-0.2,0.4-0.4,0.4-0.5c0.2-0.9-1.4-2.4-1.1-3.2c0.2-0.9,2.4-1,2.9-1.8
			c0.1-0.2,0.2-0.4,0.1-0.7c-0.1-0.3-0.3-0.5-0.5-0.9c-0.5-0.6-0.8-1.3-0.6-1.6c0.3-0.8,2.3-1,2.9-1.8c0.6-0.7,1.1-1.4,1.1-2.4
			l2.5,0.9c-0.6,0.7-0.8,1.6-0.8,2.5c-0.1,0.9,1.3,2.3,1.1,3.2c-0.1,0.4-0.7,0.7-1.5,0.9c-0.4,0.1-0.7,0.2-1,0.4
			c-0.3,0.2-0.4,0.4-0.4,0.5c-0.2,0.9,1.4,2.4,1.1,3.2c-0.2,0.9-2.4,1-2.9,1.8c-0.1,0.2-0.2,0.4-0.1,0.6c0,0.1,0.1,0.3,0.2,0.4
			c0.1,0.2,0.2,0.3,0.3,0.4c0.4,0.6,0.8,1.3,0.6,1.6c-0.2,0.9-2.3,1-2.9,1.8c-0.6,0.7-1.1,1.4-1.1,2.4L1189.9,586.1z"/>
	</g>
	<g class="st1">
		<path class="st2" d="M1087.9,639c-0.2-2.9-0.4-5.5-0.9-8.2c-0.2-1.3-0.4-2.6-0.6-3.9s-0.5-2.6-0.9-3.8c-0.8-2.4-2-5-2.4-7.9
			c-0.3-1.4-0.4-2.9-0.3-4.4c0.1-1.5,0.4-2.9,0.6-4.4l0.8-4.9l2.5,2.8c2.1,2.3,4.8,3.8,7.8,4.8c1.5,0.4,3,0.9,4.6,1.3
			s2.9,1.1,4.2,1.9c1.3,0.8,2.6,1.7,3.7,2.8c1.2,1.1,2.2,2.2,3.4,3.2c1.2,1.1,2.4,2,3.7,2.7s2.9,1.3,4.4,1.6l3.7,0.8l-3.8,3.3
			c-1.1,1-2.2,2-3.5,2.8c-1.3,0.8-2.6,1.4-3.9,1.9c-2.8,1-5.5,1.3-8,1.8c-1.3,0.3-2.5,0.6-3.7,1.2c-1.2,0.4-2.5,0.9-3.7,1.4
			C1092.9,636.7,1090.5,637.7,1087.9,639z M1089.2,636.7c2.2-0.9,4.6-2.1,6.9-3.3c1.2-0.6,2.3-1.2,3.5-2c1.2-0.6,2.3-1.3,3.5-2.2
			c2.3-1.6,4.3-3.6,6.4-4.8c1.1-0.6,2.1-1.2,3.2-1.4c1.2-0.3,2.4-0.4,3.7-0.5l-0.2,4.1c-1.1-1.2-2.2-2.2-3.6-3
			c-1.3-0.8-2.7-1.4-4.2-1.9c-1.5-0.4-3-0.9-4.6-1.3c-1.5-0.4-2.9-1.1-4.2-1.9c-1.3-0.8-2.6-1.7-3.7-2.8c-1.2-1.1-2.2-2.2-3.4-3.2
			c-2.3-2.1-5-3.7-8.1-4.3l3.4-2.1c0.4,1.2,1.1,2.3,1.3,3.5c0.4,1.2,0.4,2.3,0.4,3.5c0.1,2.4-0.6,5.1-1,7.9
			c-0.2,1.4-0.2,2.8-0.2,4.1c0,1.3,0,2.7,0.1,4C1088.7,631.7,1088.9,634.3,1089.2,636.7z"/>
	</g>
	<g class="st1">
		<path class="st2" d="M1019.8,689.1c-2.9-1.6-5.6-2.9-8.3-4.1c-2.8-1.2-5.4-2.5-8.3-3.1c-1.4-0.4-2.9-0.6-4.4-1.1
			c-1.5-0.4-3-1-4.6-1.8c-1.5-0.7-2.9-1.7-4.2-2.8c-1.3-1.1-2.5-2.2-3.7-3.2l-2.8-2.1l2.6-1c2.9-1.1,5.3-2.9,7.4-5.1
			c1.1-1.1,2.1-2.2,3.2-3.3c1.1-1.1,2.3-2,3.6-2.8c1.3-0.8,2.6-1.5,4-2.1c1.4-0.5,2.9-1.1,4.4-1.6c2.9-1.1,5.5-2.4,7.8-4.6l2-2
			l0.9,3.5c0.4,1.5,1,3.1,1.4,4.8c0.4,1.6,0.6,3.3,0.6,5c0,1.6-0.1,3.3-0.4,4.8c-0.3,1.5-0.6,3-0.8,4.5c-0.5,2.9-0.5,5.9-0.6,8.8
			C1019.6,682.8,1019.6,685.8,1019.8,689.1z M1018.4,686.8c-0.1-2.7-0.3-5.7-0.5-8.7c-0.4-3-0.6-6-1.4-9.1c-0.4-1.5-0.8-3.1-1.2-4.6
			c-0.4-1.4-0.6-2.9-0.8-4.2c-0.2-1.3-0.1-2.7,0.3-4c0.3-1.3,0.7-2.8,1-4.2l2.9,1.5c-2.9,1.1-5.3,2.9-7.5,5.1
			c-1.1,1.1-2.1,2.2-3.2,3.3c-1.1,1.1-2.3,2-3.6,2.8s-2.6,1.5-4,2.1c-1.4,0.5-2.9,1.1-4.4,1.6c-2.9,1.1-5.5,2.5-7.8,4.6l-0.2-3.2
			c1.4,0.4,2.9,0.6,4.2,0.9c1.3,0.3,2.6,0.7,3.7,1.4c1.2,0.6,2.3,1.4,3.5,2.4c1.2,1,2.3,2.1,3.6,3c2.5,2.1,5.1,3.6,7.7,5.2
			C1013.4,684.2,1015.9,685.6,1018.4,686.8z"/>
	</g>
	<g class="st1">
		<path class="st2" d="M1123,677.4c0,1.9-0.4,3.7-1.2,5.4c-0.7,1.7-1.7,3.3-2.9,4.8c-1.3,1.4-2.6,2.9-4.3,4.3s-3.8,2.1-6,2.1
			c-0.5,0-1.1-0.1-1.6-0.2c-0.5-0.1-1.1-0.3-1.5-0.4c-0.5-0.2-1-0.4-1.4-0.8c-0.4-0.3-0.9-0.6-1.3-1c-1.6-1.4-2.9-2.7-4.4-3.9
			c-1.4-1.2-2.9-2.6-4.2-4.3c-1.3-1.7-2.1-3.8-2.1-6c0-2.1,0.8-4.4,2.1-6c1.3-1.7,2.9-3,4.2-4.3c0.4-0.3,0.7-0.6,1.1-1
			c0.4-0.3,0.7-0.6,1.1-1c0.4-0.4,0.7-0.7,1.1-1.1c0.4-0.4,0.7-0.7,1.2-1.1c0.4-0.4,0.8-0.6,1.3-1c0.4-0.3,1-0.5,1.4-0.7
			c0.5-0.2,1.1-0.4,1.6-0.4c0.5-0.1,1.1-0.1,1.6-0.1c2.1,0,4.3,0.9,6,2.1c1.7,1.3,3,2.8,4.3,4.2c1.3,1.5,2.2,3,2.9,4.8
			C1122.5,673.6,1122.9,675.5,1123,677.4z M1120.3,677.4c0-1.5-0.3-3-0.8-4.6c-0.5-1.4-1.5-2.8-2.7-3.7c-1.2-1-2.8-1.4-4.2-1.4
			c-1.4,0-2.8,0.2-4,0.2c-1.3,0.1-2.5-0.2-4-0.3c-0.4,0-0.8,0-1.2,0c-0.4,0.1-0.7,0.2-1.2,0.3c-0.4,0.2-0.7,0.4-1,0.5
			c-0.3,0.3-0.5,0.5-0.8,0.8c-1,1.2-1.4,2.8-1.4,4.2c0,1.5,0.2,2.8,0.1,4c0,1.2-0.1,2.5-0.1,4c0,1.4,0.4,3,1.4,4.2s2.5,1.8,4.1,1.7
			c0.4,0,0.7,0,1.2-0.1c0.4-0.1,0.7-0.1,1.1-0.2c0.4-0.1,0.6-0.1,1-0.1c0.4-0.1,0.6-0.1,1,0c1.3,0,2.5,0.1,4,0.1
			c1.4,0,3-0.4,4.2-1.4c1.3-1,2.1-2.2,2.8-3.7C1120,680.5,1120.3,678.9,1120.3,677.4z"/>
	</g>
	<g class="st1">
		<path class="st2" d="M1130,566.9c0,1.9-0.4,3.7-1.2,5.4c-0.7,1.7-1.7,3.3-2.9,4.7c-1.2,1.4-2.5,2.9-4.2,4.2
			c-1.7,1.3-3.8,2.1-6,2.1c-0.5,0-1.1-0.1-1.6-0.2c-0.5-0.1-1.1-0.3-1.5-0.4c-0.5-0.2-1-0.4-1.4-0.8c-0.4-0.3-0.9-0.6-1.2-1
			c-1.6-1.3-2.9-2.7-4.4-3.9c-1.3-1.2-2.9-2.6-4.2-4.3s-2.1-3.8-2.1-6c0-2.1,0.8-4.3,2.1-6c1.3-1.7,2.8-2.9,4.2-4.3
			c0.4-0.3,0.7-0.6,1.1-1c0.4-0.3,0.7-0.6,1.1-1c0.4-0.4,0.7-0.7,1.1-1.1c0.4-0.4,0.7-0.7,1.2-1.1c0.4-0.4,0.8-0.6,1.2-1
			c0.4-0.3,1-0.5,1.4-0.7c0.5-0.2,1.1-0.4,1.5-0.4c0.5-0.1,1.1-0.1,1.6-0.1c2.1,0,4.3,0.9,6,2.1c1.7,1.3,3,2.8,4.2,4.2
			c1.2,1.4,2.1,3,2.9,4.7C1129.6,563.2,1130,565.1,1130,566.9z M1127.4,566.9c0-1.5-0.3-3-0.8-4.5c-0.5-1.4-1.5-2.7-2.7-3.7
			c-1.2-1-2.7-1.4-4.2-1.4c-1.4,0-2.8,0.2-3.9,0.2c-1.2,0.1-2.5-0.2-4-0.3c-0.4,0-0.7,0-1.2,0c-0.4,0.1-0.7,0.2-1.1,0.3
			c-0.4,0.2-0.7,0.4-1,0.5c-0.3,0.3-0.5,0.5-0.8,0.7c-1,1.2-1.4,2.7-1.4,4.1c0,1.4,0.2,2.7,0.2,3.9c0,1.2-0.2,2.5-0.2,3.9
			c0,1.4,0.4,3,1.4,4.1c1,1.2,2.5,1.8,4,1.7c0.4,0,0.7,0,1.1-0.1c0.4-0.1,0.7-0.1,1.1-0.2c0.4-0.1,0.6-0.1,1-0.1
			c0.4-0.1,0.6-0.1,0.9,0c1.3,0,2.5,0.1,3.9,0.1s3-0.4,4.2-1.3c1.2-0.9,2.1-2.2,2.7-3.7C1127.2,570,1127.5,568.5,1127.4,566.9z"/>
	</g>
	<g class="st1">
		<path class="st2" d="M1364.8,632.7c0.9,1,2.1,1.5,3.5,1.9c1.3,0.4,3.4-0.6,4.5,0.2c0.3,0.2,0.5,0.4,0.7,0.8
			c0.2,0.4,0.3,0.8,0.4,1.2c0.3,0.9,0.6,1.5,1.3,1.7c0.6,0.3,1.4,0.2,2.2,0c0.8-0.2,1.6-0.2,2.1,0.2c0.5,0.4,1,1,1.2,1.8
			c0.3,0.8,0.6,1.6,1.2,2c0.3,0.2,0.5,0.4,0.9,0.4s0.8-0.1,1.2-0.2c0.9-0.3,1.7-0.4,2.2,0c1.2,0.6,1.3,2.9,2.3,3.7
			c1,1,2,1.8,3.3,2.1l-1.3,2.3c-1-1-2.1-1.5-3.5-1.9c-1.3-0.4-3.3,0.5-4.5-0.2c-0.6-0.3-0.9-1-1.2-2c-0.1-0.4-0.3-0.9-0.4-1.2
			c-0.2-0.4-0.4-0.5-0.8-0.6c-0.6-0.3-1.4-0.1-2.2,0c-0.8,0.2-1.6,0.2-2.1-0.2c-0.5-0.4-1-1-1.3-1.8c-0.3-0.8-0.6-1.6-1.2-2
			c-0.5-0.4-1.3-0.4-2.1-0.2c-0.4,0.1-0.9,0.2-1.3,0.3c-0.4,0-0.7,0-1-0.2c-1.3-0.5-1.3-2.9-2.3-3.7c-1-1-2-1.8-3.3-2.1
			L1364.8,632.7z"/>
	</g>
	<g class="st1">
		<path class="st2" d="M1322.5,701c-0.8-1.2-2-1.8-3.1-2.3c-1.2-0.6-3.5,0.2-4.4-0.8c-0.3-0.2-0.4-0.5-0.5-0.9
			c-0.1-0.4-0.2-0.8-0.3-1.3c-0.1-0.9-0.4-1.6-1-1.9c-0.5-0.4-1.4-0.4-2.2-0.4c-0.9,0-1.6-0.1-2.1-0.5c-0.5-0.4-0.8-1.1-1-2
			c-0.2-0.8-0.4-1.6-0.8-2.1c-0.3-0.3-0.5-0.4-0.9-0.4c-0.4-0.1-0.8,0-1.2,0c-1,0.2-1.8,0.1-2.2-0.4c-1.1-0.8-0.9-3.1-1.8-4.1
			c-0.8-1.1-1.7-2.1-2.9-2.6l1.6-2.1c0.8,1.1,2,1.8,3.1,2.3c1.2,0.6,3.4,0,4.4,0.8c0.5,0.4,0.8,1.2,0.8,2.1c0.1,0.4,0.1,0.9,0.3,1.2
			c0.2,0.4,0.4,0.5,0.7,0.7c0.5,0.4,1.4,0.4,2.2,0.4c0.9,0,1.6,0.1,2.1,0.5c0.5,0.4,0.8,1.1,1,2c0.2,0.8,0.4,1.6,0.8,2.1
			c0.4,0.5,1.2,0.6,2.1,0.5c0.4,0,0.9-0.1,1.3-0.1c0.4,0,0.7,0.2,1,0.4c1.2,0.7,0.9,3,1.8,4.1c0.8,1.1,1.7,2.1,2.9,2.6L1322.5,701z"
			/>
	</g>
	<g class="st1">
		<path class="st2" d="M1356.6,616.2c1.2-2.1,1.9-4.5,2.3-6.9c0.6-2.3-0.4-5.4,0.5-7.6c0.2-0.5,0.5-1.1,1-1.6c0.4-0.5,0.9-1,1.4-1.4
			c1.1-0.9,1.8-2,2.1-3.1c0.4-1.2,0.3-2.5,0.2-3.8s-0.1-2.6,0.4-3.7c0.4-1.2,1.2-2.1,2.1-3.1c0.9-1,1.8-1.9,2.3-3
			c0.5-1.1,0.6-2.3,0.4-3.7c-0.3-1.3-0.3-2.7,0.2-3.7c0.8-2.3,3.4-3.9,4.5-6.1c0.5-1.1,1.1-2.1,1.5-3.3c0.4-1.2,0.8-2.2,1.1-3.5
			l2.5,0.9c-0.6,1.1-1.1,2.2-1.4,3.4s-0.7,2.3-0.9,3.6c-0.6,2.3,0.4,5.3-0.5,7.6c-0.3,1.2-1.3,2.1-2.2,3c-1.1,0.9-1.9,1.9-2.1,3.1
			c-0.4,1.2-0.3,2.5-0.2,3.8c0.1,1.3,0.1,2.6-0.4,3.7c-0.4,1.2-1.2,2.1-2.1,3.1c-0.9,1-1.8,1.9-2.3,3c-0.5,1.1-0.6,2.3-0.4,3.7
			c0.1,0.7,0.2,1.3,0.2,2s-0.1,1.2-0.3,1.8c-0.7,2.3-3.4,3.9-4.5,6.1c-1.2,2.1-2.1,4.4-2.6,6.8L1356.6,616.2z"/>
	</g>
	<g class="st1">
		<path class="st2" d="M1441.3,589c-2.9-1.6-5.6-2.9-8.3-4.1c-2.8-1.2-5.4-2.5-8.3-3.1c-1.4-0.4-2.9-0.6-4.4-1.1s-3-1-4.6-1.8
			c-1.5-0.7-2.9-1.7-4.2-2.8c-1.3-1.1-2.5-2.2-3.7-3.2l-2.8-2.1l2.6-1c2.9-1.1,5.3-2.9,7.4-5.1c1.1-1.1,2.1-2.2,3.2-3.3
			s2.3-2,3.6-2.8c1.2-0.8,2.6-1.5,4-2.1c1.4-0.5,2.9-1.1,4.4-1.6c2.9-1.1,5.5-2.4,7.8-4.6l2-2l0.9,3.5c0.4,1.5,1,3.1,1.4,4.8
			c0.4,1.6,0.6,3.3,0.6,5c0,1.6-0.1,3.3-0.4,4.8c-0.3,1.5-0.6,3-0.8,4.5c-0.5,2.9-0.5,5.9-0.6,8.8C1441,582.7,1441,585.8,1441.3,589
			z M1439.9,586.8c-0.1-2.7-0.3-5.7-0.5-8.7c-0.4-3-0.6-6-1.4-9.1c-0.4-1.5-0.8-3.1-1.3-4.6c-0.4-1.4-0.6-2.9-0.8-4.2
			c-0.2-1.3-0.1-2.7,0.3-4c0.3-1.3,0.7-2.8,1-4.2l2.9,1.5c-2.9,1.1-5.3,2.9-7.5,5.1c-1.1,1.1-2.1,2.2-3.2,3.3
			c-1.1,1.1-2.3,2-3.6,2.8c-1.3,0.8-2.6,1.5-4,2.1c-1.4,0.5-2.9,1.1-4.4,1.6c-2.9,1.1-5.5,2.5-7.8,4.6l-0.2-3.2
			c1.4,0.4,2.9,0.6,4.2,0.9s2.6,0.7,3.7,1.4c1.2,0.6,2.3,1.4,3.5,2.4c1.2,1,2.3,2.1,3.6,3c2.5,2.1,5.1,3.6,7.7,5.2
			C1434.8,584.2,1437.4,585.6,1439.9,586.8z"/>
	</g>
	<g class="st1">
		<path class="st2" d="M1376.6,700.9c-0.3-3.3-0.6-6.2-1-9.2c-0.4-2.9-0.9-5.9-1.9-8.7c-0.4-1.4-1-2.8-1.4-4.3
			c-0.4-1.5-0.8-3.1-1-4.7s-0.2-3.4,0-5c0.2-1.7,0.5-3.3,0.7-4.9l0.4-3.5l2.2,1.6c2.5,1.8,5.3,2.9,8.3,3.5c1.5,0.4,3,0.6,4.6,1
			s2.9,0.9,4.3,1.5c1.3,0.6,2.7,1.4,3.9,2.3c1.3,0.9,2.4,1.9,3.7,2.8c2.4,1.9,5.1,3.3,8,4l2.8,0.6l-2.5,2.6
			c-1.1,1.2-2.1,2.5-3.3,3.7c-1.2,1.3-2.5,2.3-3.8,3.2c-1.3,0.9-2.9,1.7-4.3,2.3c-1.4,0.6-2.9,1.2-4.2,1.7c-2.7,1.1-5.3,2.7-7.8,4.3
			C1381.8,697.3,1379.3,699,1376.6,700.9z M1377.8,698.5c2.2-1.5,4.6-3.3,7.1-5.2c2.3-1.9,4.7-3.7,7-6.2c1.1-1.2,2.1-2.4,3.1-3.5
			s2.1-2.1,3.1-2.9s2.2-1.5,3.5-2c1.2-0.4,2.7-0.9,4.1-1.4l0.3,3.2c-2.4-1.9-5.3-2.9-8.3-3.6c-1.5-0.4-3-0.6-4.6-1
			c-1.5-0.4-2.9-0.9-4.3-1.5s-2.7-1.4-3.9-2.3c-1.2-0.9-2.4-1.9-3.7-2.8c-2.4-1.9-5.1-3.3-8-4l2.6-1.9c0.4,1.4,1,2.8,1.5,4
			c0.4,1.3,0.8,2.6,0.9,3.9c0.1,1.3,0,2.8-0.2,4.2c-0.2,1.5-0.4,3-0.6,4.6c-0.4,3.2-0.3,6.2-0.2,9.3
			C1377.3,692.8,1377.4,695.8,1377.8,698.5z"/>
	</g>
	<g class="st1">
		<path class="st2" d="M1423.7,610.9c0,2.4-0.5,4.9-1.5,7.1c-1,2.2-2.2,4.4-3.8,6.2c-1.6,1.9-3.4,3.7-5.6,5.2
			c-2.2,1.5-4.9,2.4-7.7,2.4c-0.7,0-1.3-0.1-2.1-0.2c-0.7-0.2-1.3-0.4-2-0.5c-0.6-0.3-1.3-0.5-1.9-0.9c-0.6-0.4-1.2-0.7-1.7-1.1
			c-2.1-1.6-3.9-3.3-5.8-4.9c-1.8-1.7-3.7-3.5-5.2-5.7c-1.5-2.2-2.5-4.9-2.4-7.7c0-2.8,0.9-5.4,2.4-7.7c1.5-2.2,3.4-4,5.2-5.7
			c0.4-0.4,0.9-0.8,1.3-1.3c0.4-0.4,0.9-0.8,1.4-1.2c0.4-0.4,1-0.8,1.4-1.2c0.5-0.4,1-0.8,1.5-1.3c0.5-0.4,1.1-0.8,1.7-1.1
			c0.6-0.3,1.3-0.6,1.9-0.9c0.6-0.2,1.3-0.4,2-0.5c0.7-0.1,1.3-0.1,2.1-0.2c2.8,0,5.4,1,7.7,2.5c2.2,1.5,4,3.3,5.7,5.2
			c1.6,1.9,2.9,3.9,3.8,6.2C1423.2,606,1423.6,608.5,1423.7,610.9z M1421,610.9c0-2.1-0.4-4.2-1.2-6.2c-0.8-2-2.1-3.7-3.7-5.1
			c-1.6-1.3-3.7-2.1-5.6-2.4c-2-0.3-3.8-0.2-5.6-0.2c-0.4,0-0.9,0.1-1.3,0c-0.4,0-0.9,0-1.4,0c-0.4,0-1,0-1.4,0c-0.5,0-1,0-1.5,0
			c-0.5,0.1-1,0.1-1.5,0.2c-0.5,0.1-1,0.3-1.5,0.5c-0.4,0.3-0.9,0.5-1.3,0.8c-0.4,0.4-0.8,0.7-1.2,1.1c-1.4,1.5-2.1,3.6-2.4,5.6
			c-0.2,2-0.2,3.8-0.2,5.6s0,3.7,0.2,5.6c0.3,2,1,4,2.4,5.6c1.3,1.6,3.4,2.5,5.5,2.7c0.5,0,1,0.1,1.5,0.1s1,0,1.4,0
			c0.4-0.1,1-0.1,1.4-0.1s0.9-0.1,1.3,0c1.8,0,3.7,0,5.6-0.3c2-0.3,4-1,5.6-2.3c1.6-1.3,2.9-3.1,3.7-5.1
			C1420.7,615.1,1421,613,1421,610.9z"/>
	</g>
	<g class="st1">
		<path class="st2" d="M1249.7,703.8c0,1.8-0.4,3.6-1.2,5.2c-0.7,1.6-1.6,3.1-2.8,4.6c-1.2,1.3-2.4,2.9-4,4.1
			c-1.6,1.2-3.7,2.1-5.7,2.1c-0.5,0-1.1-0.1-1.5-0.2c-0.5-0.1-1-0.3-1.5-0.4c-0.4-0.2-0.9-0.4-1.3-0.7s-0.8-0.6-1.2-0.9
			c-1.5-1.3-2.8-2.6-4.1-3.8c-1.3-1.2-2.8-2.4-4-4s-2.1-3.7-2.1-5.7c0-2.1,0.8-4.1,2.1-5.7c1.3-1.6,2.7-2.9,4-4
			c0.4-0.3,0.7-0.6,1-0.9c0.4-0.3,0.6-0.6,1-1c0.4-0.3,0.7-0.6,1-1c0.4-0.4,0.7-0.7,1.1-1.1c0.4-0.3,0.8-0.6,1.3-1
			c0.4-0.3,0.9-0.5,1.3-0.7s1-0.4,1.5-0.4c0.5-0.1,1.1-0.1,1.5-0.1c2.1,0,4.1,0.9,5.7,2.1c1.6,1.2,2.9,2.7,4,4
			c1.2,1.4,2.1,2.9,2.8,4.6C1249.3,700.2,1249.7,702,1249.7,703.8z M1247.1,703.8c0-1.4-0.3-2.9-0.7-4.2c-0.5-1.3-1.4-2.6-2.6-3.4
			c-1.1-0.9-2.6-1.3-3.9-1.3s-2.6,0.2-3.7,0.2c-1.2,0.1-2.3-0.2-3.7-0.4c-0.4,0-0.7,0-1.1,0s-0.7,0.2-1.1,0.3
			c-0.4,0.2-0.6,0.3-1,0.5c-0.3,0.2-0.5,0.4-0.8,0.7c-1,1.1-1.3,2.6-1.2,3.9c0,1.4,0.2,2.6,0.2,3.7c0,1.2-0.2,2.3-0.2,3.7
			c0,1.3,0.4,2.9,1.2,3.9c0.9,1.1,2.4,1.6,3.8,1.5c0.4,0,0.7-0.1,1.1-0.1c0.4-0.1,0.6-0.1,1-0.2s0.6-0.1,0.9-0.1
			c0.3-0.1,0.6-0.1,0.9,0c1.2,0,2.3,0.1,3.7,0.2c1.3,0,2.9-0.4,4-1.2c1.2-0.9,2.1-2.1,2.6-3.4
			C1246.8,706.7,1247.1,705.2,1247.1,703.8z"/>
	</g>
	<g class="st1">
		<path class="st2" d="M1244.1,609.8c0.8-1.1,1.1-2.4,1.2-3.7c0.2-1.3-1.3-3.2-0.6-4.4c0.1-0.3,0.4-0.5,0.6-0.8
			c0.4-0.3,0.7-0.4,1.2-0.6c0.8-0.4,1.4-0.9,1.5-1.5c0.2-0.6-0.1-1.4-0.4-2.2c-0.3-0.8-0.4-1.5-0.2-2.1c0.2-0.6,0.8-1.1,1.5-1.5
			s1.4-0.9,1.7-1.4c0.2-0.3,0.3-0.6,0.2-1c0-0.4-0.2-0.8-0.4-1.2c-0.4-0.9-0.7-1.6-0.4-2.2c0.4-1.3,2.7-1.8,3.3-2.9
			c0.8-1.1,1.3-2.3,1.4-3.7l2.5,0.9c-0.8,1.1-1.1,2.4-1.3,3.7c-0.3,1.3,1.1,3.2,0.6,4.4c-0.1,0.6-0.8,1.1-1.7,1.4
			c-0.4,0.2-0.8,0.4-1.1,0.6c-0.3,0.3-0.4,0.5-0.4,0.9c-0.2,0.6,0.1,1.4,0.4,2.2c0.3,0.8,0.4,1.5,0.2,2.1c-0.2,0.6-0.8,1.1-1.5,1.5
			s-1.4,0.9-1.7,1.4c-0.4,0.5-0.3,1.3,0.2,2.1c0.2,0.4,0.4,0.8,0.4,1.2c0.1,0.4,0.1,0.7,0,1.1c-0.3,1.2-2.7,1.8-3.3,2.9
			c-0.8,1.1-1.4,2.2-1.5,3.7L1244.1,609.8z"/>
	</g>
	<g class="st1">
		<path class="st2" d="M1299.1,546.7c0.8-1.1,1.1-2.4,1.2-3.7c0.2-1.3-1.2-3.2-0.6-4.4c0.1-0.3,0.4-0.5,0.6-0.8
			c0.4-0.3,0.7-0.4,1.2-0.6c0.8-0.4,1.4-0.9,1.5-1.5c0.2-0.6-0.1-1.4-0.4-2.2c-0.3-0.8-0.4-1.5-0.2-2.1c0.2-0.6,0.8-1.1,1.5-1.5
			c0.7-0.4,1.4-0.9,1.7-1.4c0.2-0.3,0.3-0.6,0.2-1c0-0.4-0.2-0.8-0.4-1.2c-0.4-0.9-0.7-1.6-0.4-2.2c0.4-1.2,2.7-1.8,3.3-2.9
			c0.8-1.1,1.3-2.3,1.4-3.7l2.5,0.9c-0.8,1.1-1.1,2.4-1.3,3.7c-0.3,1.3,1.1,3.2,0.6,4.4c-0.1,0.6-0.8,1.1-1.7,1.4
			c-0.4,0.2-0.8,0.4-1.1,0.6c-0.3,0.3-0.4,0.5-0.4,0.9c-0.2,0.6,0.1,1.4,0.4,2.2c0.3,0.8,0.4,1.5,0.2,2.1c-0.2,0.6-0.8,1.1-1.5,1.5
			s-1.4,0.9-1.7,1.4c-0.4,0.5-0.3,1.3,0.2,2.1c0.2,0.4,0.4,0.8,0.4,1.2c0.1,0.4,0.1,0.7,0,1.1c-0.3,1.3-2.7,1.8-3.3,2.9
			c-0.8,1.1-1.4,2.2-1.5,3.7L1299.1,546.7z"/>
	</g>
	<g class="st1">
		<path class="st2" d="M1270.8,695.6c0.8-1.1,1.1-2.4,1.2-3.7c0.2-1.3-1.3-3.2-0.6-4.4c0.1-0.3,0.4-0.5,0.6-0.8
			c0.4-0.3,0.7-0.4,1.2-0.6c0.8-0.4,1.4-0.9,1.5-1.5c0.2-0.6-0.1-1.4-0.4-2.2c-0.3-0.8-0.4-1.5-0.2-2.1c0.2-0.6,0.8-1.1,1.5-1.5
			s1.4-0.9,1.7-1.4c0.2-0.3,0.3-0.6,0.2-1c0-0.4-0.2-0.8-0.4-1.2c-0.4-0.9-0.7-1.6-0.4-2.2c0.4-1.3,2.7-1.8,3.3-2.9
			c0.8-1.1,1.3-2.3,1.4-3.7l2.5,0.9c-0.8,1.1-1.1,2.4-1.3,3.7c-0.3,1.3,1.1,3.2,0.6,4.4c-0.1,0.6-0.8,1.1-1.7,1.4
			c-0.4,0.2-0.8,0.4-1.1,0.6c-0.3,0.3-0.4,0.5-0.4,0.9c-0.2,0.6,0.1,1.4,0.4,2.2c0.3,0.8,0.4,1.5,0.2,2.1c-0.2,0.6-0.8,1.1-1.5,1.5
			c-0.7,0.4-1.4,0.9-1.7,1.4c-0.4,0.5-0.3,1.3,0.2,2.1c0.2,0.4,0.4,0.8,0.4,1.2c0.1,0.4,0.1,0.7,0,1.1c-0.3,1.2-2.7,1.8-3.3,2.9
			c-0.8,1.1-1.4,2.2-1.5,3.7L1270.8,695.6z"/>
	</g>
	<g class="st1">
		<path class="st2" d="M1188.9,661.6c0.4,1.3,1.3,2.3,2.2,3.2c0.9,1,3.3,1,3.8,2.1c0.2,0.3,0.3,0.6,0.3,1c0,0.4-0.1,0.8-0.2,1.3
			c-0.2,0.9-0.2,1.6,0.4,2.1c0.4,0.5,1.3,0.8,2.1,1.1c0.8,0.3,1.5,0.6,1.9,1.2c0.4,0.5,0.4,1.3,0.3,2.1c-0.1,0.8-0.2,1.7,0.1,2.2
			c0.2,0.3,0.4,0.5,0.6,0.7s0.7,0.3,1.2,0.4c0.9,0.2,1.7,0.4,2,1.1c0.7,1.1-0.2,3.2,0.4,4.5c0.4,1.3,1,2.5,2,3.4l-2.2,1.4
			c-0.4-1.3-1.3-2.3-2.2-3.2c-0.9-1-3.2-1.1-3.8-2.1c-0.4-0.5-0.4-1.3-0.1-2.2c0.1-0.4,0.2-0.9,0.2-1.2s-0.2-0.6-0.4-0.9
			c-0.4-0.5-1.2-0.8-2.1-1.1c-0.8-0.3-1.5-0.6-1.9-1.2c-0.4-0.5-0.4-1.3-0.3-2.1c0.1-0.8,0.2-1.7-0.1-2.2c-0.3-0.6-0.9-1-1.8-1.2
			c-0.4-0.1-0.9-0.2-1.3-0.4c-0.4-0.2-0.6-0.4-0.8-0.6c-0.8-1,0.2-3.2-0.4-4.5c-0.4-1.3-1-2.5-2-3.4L1188.9,661.6z"/>
	</g>
	<g class="st1">
		<path class="st2" d="M1298.8,652.7c-1.2-1.4-2.7-2.4-4.3-3.2c-1.6-0.9-4.2-0.4-5.5-1.7c-0.4-0.3-0.6-0.6-0.8-1.1
			c-0.2-0.4-0.4-1-0.5-1.5c-0.3-1.1-0.8-1.9-1.6-2.4c-0.7-0.5-1.8-0.6-2.9-0.8c-1.1-0.1-2-0.4-2.7-1c-0.7-0.5-1.2-1.4-1.5-2.4
			c-0.4-1-0.7-2-1.4-2.6c-0.4-0.4-0.7-0.5-1.2-0.7c-0.4-0.2-1-0.2-1.5-0.2c-1.2,0-2.1-0.2-2.8-0.8c-1.4-1.1-1.7-3.7-2.9-5
			c-1.2-1.4-2.5-2.7-4.1-3.5l1.6-2.1c1.2,1.4,2.7,2.4,4.3,3.2c1.5,1,4.1,0.6,5.5,1.7c0.8,0.4,1.2,1.4,1.4,2.6
			c0.2,0.5,0.3,1.1,0.5,1.4c0.3,0.4,0.5,0.7,1,1c0.7,0.5,1.8,0.6,2.9,0.8c1.1,0.1,2,0.4,2.7,1c0.7,0.5,1.2,1.4,1.5,2.4
			c0.4,1,0.7,2,1.4,2.6c0.6,0.6,1.5,1,2.7,1c0.5,0.1,1.1,0.1,1.6,0.2c0.5,0.1,0.9,0.3,1.3,0.5c1.5,1,1.7,3.7,2.9,5
			c1.2,1.4,2.5,2.7,4.1,3.5L1298.8,652.7z"/>
	</g>
	<g class="st1">
		<path class="st2" d="M1296,582.6c-1.2-1.7-2.9-2.9-4.6-4c-1.7-1.3-4.6-1.1-6-2.6c-0.4-0.4-0.7-0.8-0.9-1.2
			c-0.3-0.5-0.4-1.1-0.5-1.7c-0.4-1.2-0.8-2.1-1.7-2.8c-0.8-0.6-1.9-1-3-1.3c-1.2-0.3-2.1-0.7-2.9-1.4c-0.8-0.7-1.2-1.7-1.6-2.8
			c-0.4-1.1-0.8-2.1-1.5-2.9c-0.6-0.8-1.7-1.2-2.9-1.3c-1.2-0.2-2.3-0.5-3-1.2c-1.5-1.3-1.8-4.2-3.1-5.7c-1.3-1.6-2.7-3.1-4.5-4.3
			l1.8-2c1.3,1.7,2.9,2.9,4.6,4.1c1.7,1.2,4.5,1.2,6,2.6c0.8,0.6,1.3,1.7,1.5,2.9c0.3,1.3,0.8,2.2,1.6,2.8c0.8,0.6,1.9,1,3,1.3
			c1.2,0.3,2.1,0.7,2.9,1.4c0.8,0.7,1.3,1.7,1.6,2.8c0.4,1.1,0.8,2.1,1.5,2.9s1.7,1.2,2.9,1.4c0.5,0.1,1.2,0.3,1.7,0.4
			c0.5,0.2,1,0.4,1.3,0.8c1.6,1.2,1.8,4.1,3.1,5.7c1.3,1.6,2.7,3.2,4.5,4.3L1296,582.6z"/>
	</g>
	<g class="st1">
		<path class="st2" d="M1316,624c-0.2-2.9-0.4-5.5-0.9-8.2c-0.2-1.3-0.4-2.6-0.6-3.9c-0.3-1.3-0.5-2.6-0.9-3.8c-0.8-2.4-2-5-2.4-7.9
			c-0.3-1.4-0.4-2.9-0.3-4.4c0.1-1.5,0.4-2.9,0.6-4.4l0.8-4.9l2.5,2.8c2.1,2.3,4.8,3.8,7.8,4.8c1.5,0.4,3,0.9,4.6,1.3
			s2.9,1.1,4.2,1.9c1.3,0.8,2.6,1.7,3.7,2.8c1.2,1.1,2.2,2.2,3.4,3.2c1.2,1.1,2.4,2,3.7,2.7s2.9,1.2,4.4,1.6l3.7,0.8l-3.8,3.3
			c-1.1,1-2.2,2-3.5,2.8c-1.3,0.8-2.6,1.4-3.9,1.9c-2.8,1-5.5,1.2-8,1.8c-1.3,0.3-2.5,0.6-3.7,1.2c-1.2,0.4-2.5,0.9-3.7,1.4
			C1321,621.7,1318.6,622.7,1316,624z M1317.3,621.8c2.2-0.9,4.6-2.1,6.9-3.3c1.2-0.6,2.3-1.2,3.5-2c1.2-0.6,2.3-1.3,3.5-2.2
			c2.3-1.6,4.3-3.6,6.4-4.8c1.1-0.6,2.1-1.2,3.2-1.4s2.4-0.4,3.7-0.5l-0.2,4.1c-1.1-1.2-2.2-2.2-3.6-3c-1.3-0.8-2.7-1.4-4.2-1.9
			c-1.5-0.4-3-0.9-4.6-1.3c-1.5-0.4-2.9-1.1-4.2-1.9c-1.3-0.8-2.6-1.7-3.7-2.8c-1.2-1.1-2.2-2.2-3.4-3.2c-2.3-2.1-5-3.7-8.1-4.3
			l3.4-2.1c0.4,1.2,1.1,2.3,1.3,3.5c0.4,1.2,0.4,2.3,0.4,3.5c0.1,2.4-0.6,5.1-1,7.9c-0.2,1.4-0.2,2.8-0.2,4.1c0,1.3,0,2.7,0.1,4
			C1316.8,616.8,1317,619.3,1317.3,621.8z"/>
	</g>
	<g class="st1">
		<path class="st2" d="M1247.9,674.1c-2.9-1.6-5.6-2.9-8.3-4.1c-2.8-1.2-5.4-2.5-8.3-3.1c-1.4-0.4-2.9-0.6-4.4-1.1
			c-1.5-0.4-3-1-4.6-1.8c-1.5-0.7-2.9-1.7-4.2-2.8c-1.3-1.1-2.5-2.2-3.7-3.2l-2.8-2.1l2.6-1c2.9-1.1,5.3-2.9,7.4-5.1
			c1.1-1.1,2.1-2.2,3.2-3.3c1.1-1.1,2.3-2,3.6-2.8c1.3-0.8,2.6-1.5,4-2.1s2.9-1.1,4.4-1.6c2.9-1.1,5.5-2.4,7.8-4.6l2-2l0.9,3.5
			c0.4,1.5,1,3.1,1.4,4.8c0.4,1.6,0.6,3.3,0.6,5c0,1.6-0.1,3.3-0.4,4.8c-0.3,1.5-0.6,3-0.8,4.5c-0.5,2.9-0.5,5.9-0.6,8.8
			C1247.7,667.8,1247.7,670.9,1247.9,674.1z M1246.5,671.8c-0.1-2.7-0.3-5.7-0.5-8.7c-0.4-3-0.6-6-1.4-9.1c-0.4-1.5-0.8-3.1-1.3-4.6
			c-0.4-1.4-0.6-2.9-0.8-4.2s-0.1-2.7,0.3-4c0.3-1.3,0.7-2.8,1-4.2l2.9,1.5c-2.9,1.1-5.3,2.9-7.5,5.1c-1.1,1.1-2.1,2.2-3.2,3.3
			c-1.1,1.1-2.3,2-3.6,2.8c-1.3,0.8-2.6,1.5-4,2.1c-1.4,0.5-2.9,1.1-4.4,1.6c-2.9,1.1-5.5,2.5-7.8,4.6l-0.2-3.2
			c1.4,0.4,2.9,0.6,4.2,0.9s2.6,0.7,3.7,1.4c1.2,0.6,2.3,1.4,3.5,2.4c1.2,1,2.3,2.1,3.6,3c2.5,2.1,5.1,3.6,7.7,5.2
			C1241.5,669.3,1244.1,670.7,1246.5,671.8z"/>
	</g>
	<g class="st1">
		<path class="st2" d="M1351.1,662.5c0,1.9-0.4,3.7-1.2,5.4c-0.7,1.7-1.7,3.3-2.9,4.8c-1.2,1.4-2.6,2.9-4.3,4.3s-3.8,2.1-6,2.1
			c-0.5,0-1.1-0.1-1.6-0.2c-0.5-0.1-1.1-0.3-1.5-0.4c-0.5-0.2-1-0.4-1.4-0.8c-0.4-0.3-0.9-0.6-1.3-1c-1.6-1.4-2.9-2.7-4.4-3.9
			c-1.4-1.2-2.9-2.6-4.2-4.3c-1.3-1.7-2.1-3.8-2.1-6c0-2.1,0.8-4.4,2.1-6c1.3-1.7,2.9-3,4.2-4.3c0.4-0.3,0.7-0.6,1.1-1
			c0.4-0.3,0.7-0.6,1.1-1c0.4-0.4,0.7-0.7,1.1-1.1c0.4-0.4,0.7-0.7,1.2-1.1c0.4-0.4,0.8-0.6,1.3-1c0.4-0.3,1-0.5,1.4-0.7
			c0.5-0.2,1.1-0.4,1.6-0.4c0.5-0.1,1.1-0.1,1.6-0.1c2.1,0,4.3,0.9,6,2.1c1.7,1.2,3,2.8,4.3,4.2c1.3,1.5,2.2,3.1,2.9,4.8
			C1350.7,658.6,1351,660.5,1351.1,662.5z M1348.4,662.5c0-1.5-0.3-3-0.8-4.6c-0.5-1.4-1.5-2.8-2.7-3.7c-1.2-1-2.8-1.4-4.2-1.4
			c-1.4,0-2.8,0.2-4,0.2c-1.3,0.1-2.5-0.2-4-0.3c-0.4,0-0.8,0-1.2,0c-0.4,0.1-0.7,0.2-1.2,0.3c-0.4,0.2-0.7,0.4-1,0.5
			c-0.3,0.3-0.5,0.5-0.8,0.8c-1,1.2-1.4,2.8-1.4,4.2c0,1.5,0.2,2.8,0.1,4c0,1.2-0.1,2.5-0.1,4c0,1.4,0.4,3,1.4,4.2
			c1,1.2,2.5,1.8,4.1,1.7c0.4,0,0.7,0,1.2-0.1c0.4-0.1,0.7-0.1,1.1-0.2c0.4-0.1,0.6-0.1,1-0.1c0.4-0.1,0.6-0.1,1,0
			c1.3,0,2.5,0.1,4,0.1c1.4,0,3-0.4,4.2-1.4c1.3-1,2.1-2.2,2.8-3.7C1348.2,665.5,1348.4,664,1348.4,662.5z"/>
	</g>
	<g class="st1">
		<path class="st2" d="M1358.2,551.9c0,1.9-0.4,3.7-1.2,5.4c-0.7,1.7-1.7,3.3-2.9,4.7c-1.3,1.4-2.5,2.9-4.2,4.2
			c-1.7,1.3-3.8,2.1-6,2.1c-0.5,0-1.1-0.1-1.6-0.2c-0.5-0.1-1.1-0.3-1.5-0.4c-0.5-0.2-1-0.4-1.4-0.8c-0.4-0.3-0.9-0.6-1.2-1
			c-1.6-1.3-2.9-2.7-4.4-3.9c-1.3-1.3-2.9-2.6-4.2-4.3s-2.1-3.8-2.1-6s0.8-4.3,2.1-6c1.3-1.7,2.8-2.9,4.2-4.3c0.4-0.3,0.7-0.6,1.1-1
			c0.4-0.3,0.7-0.6,1.1-1c0.4-0.4,0.7-0.7,1.1-1.1c0.4-0.4,0.7-0.7,1.2-1.1s0.8-0.6,1.2-1c0.4-0.3,1-0.5,1.4-0.7
			c0.5-0.2,1.1-0.4,1.5-0.4c0.5-0.1,1.1-0.1,1.6-0.1c2.1,0,4.3,0.9,6,2.1c1.7,1.2,3,2.8,4.2,4.2c1.2,1.4,2.1,3,2.9,4.7
			C1357.7,548.2,1358.2,550.1,1358.2,551.9z M1355.5,551.9c0-1.5-0.3-3-0.8-4.5c-0.5-1.4-1.5-2.7-2.7-3.7c-1.2-1-2.7-1.4-4.2-1.4
			c-1.4,0-2.8,0.2-3.9,0.2c-1.2,0.1-2.5-0.2-4-0.3c-0.4,0-0.7,0-1.2,0c-0.4,0.1-0.7,0.2-1.1,0.3c-0.4,0.2-0.7,0.4-1,0.5
			c-0.3,0.3-0.5,0.5-0.8,0.7c-1,1.2-1.4,2.7-1.4,4.1c0,1.4,0.2,2.7,0.2,3.9c0,1.3-0.2,2.5-0.2,3.9s0.4,3,1.4,4.1
			c1,1.2,2.5,1.8,4,1.7c0.4,0,0.7,0,1.1-0.1c0.4-0.1,0.7-0.1,1.1-0.2c0.4-0.1,0.6-0.1,1-0.1c0.4-0.1,0.6-0.1,0.9,0
			c1.3,0,2.5,0.1,3.9,0.1s3-0.4,4.2-1.3c1.2-0.9,2.1-2.2,2.7-3.7C1355.3,555,1355.6,553.5,1355.5,551.9z"/>
	</g>
	<g class="st1">
		<path class="st2" d="M1455.5,618.4c3,1.3,5.8,2.4,8.7,3.4c2.9,1,5.6,2,8.5,2.4c1.4,0.3,2.9,0.4,4.5,0.7s3.1,0.7,4.6,1.3
			c1.5,0.6,3,1.4,4.5,2.4s2.7,2.1,4,2.9l2.9,2l-2.5,1.2c-2.8,1.3-5,3.3-7,5.7c-1,1.2-2,2.4-2.9,3.6c-1,1.2-2.1,2.1-3.3,3
			c-1.2,0.9-2.5,1.7-3.8,2.4c-1.3,0.7-2.8,1.3-4.2,2c-2.8,1.3-5.4,2.9-7.3,5.3l-1.8,2.1l-1.2-3.4c-0.5-1.5-1.3-3-1.8-4.6
			s-0.9-3.3-1.1-4.9c-0.2-1.6-0.2-3.3,0-4.8c0.1-1.5,0.4-3,0.4-4.5c0.3-2.9,0.1-5.9-0.1-8.8C1456.3,624.6,1455.9,621.6,1455.5,618.4
			z M1457.1,620.5c0.3,2.7,0.7,5.6,1.2,8.7c0.5,2.9,1.1,5.9,2.1,9c0.5,1.5,1.1,3,1.6,4.5c0.5,1.4,0.9,2.8,1.2,4.1
			c0.3,1.3,0.3,2.7,0.1,4c-0.2,1.3-0.5,2.8-0.6,4.3l-3-1.2c2.8-1.2,5-3.3,7.1-5.6c1-1.2,2-2.4,2.9-3.6c1-1.2,2.1-2.1,3.3-3
			s2.5-1.7,3.8-2.4c1.3-0.7,2.8-1.2,4.2-2c2.8-1.3,5.4-2.9,7.3-5.2l0.4,3.1c-1.4-0.3-2.9-0.4-4.3-0.5c-1.3-0.2-2.7-0.5-3.8-1.1
			c-1.3-0.5-2.4-1.2-3.7-2.1s-2.5-1.9-3.8-2.8c-2.7-1.9-5.4-3.2-8.1-4.6C1462.3,622.6,1459.6,621.5,1457.1,620.5z"/>
	</g>
	<g class="st1">
		<path class="st2" d="M1471.2,595.1c-0.2-2.4,0.1-4.9,0.9-7.2s1.9-4.5,3.3-6.5c1.5-2,3.1-3.9,5.2-5.6c2.1-1.7,4.7-2.9,7.5-3
			c0.7,0,1.3,0,2.1,0c0.7,0.1,1.3,0.3,2.1,0.4c0.6,0.2,1.3,0.4,1.9,0.7c0.6,0.3,1.2,0.6,1.8,1c2.2,1.4,4.2,2.9,6.2,4.4
			c2,1.5,3.9,3.1,5.6,5.3c1.7,2.1,2.9,4.7,3.1,7.4c0.3,2.8-0.4,5.5-1.8,7.9c-1.3,2.3-3,4.3-4.6,6.1c-0.4,0.4-0.9,0.9-1.3,1.3
			c-0.4,0.4-0.9,0.9-1.2,1.3c-0.4,0.4-0.9,0.9-1.3,1.3c-0.4,0.4-0.9,0.9-1.4,1.3c-0.5,0.4-1.1,0.9-1.6,1.3c-0.5,0.4-1.2,0.7-1.8,1
			c-0.6,0.3-1.2,0.5-2,0.7c-0.6,0.2-1.3,0.3-2.1,0.3c-2.8,0.2-5.5-0.5-7.9-1.9c-2.3-1.3-4.3-2.9-6.1-4.6s-3.2-3.7-4.4-5.9
			C1472.1,600,1471.4,597.6,1471.2,595.1z M1473.8,594.9c0.2,2.1,0.7,4.2,1.7,6.1c1,1.9,2.3,3.6,4.1,4.7c1.7,1.2,3.7,1.9,5.8,2
			s3.8-0.2,5.6-0.3c0.4-0.1,0.9-0.2,1.3-0.2c0.4-0.1,0.9-0.1,1.4-0.1c0.4-0.1,1-0.1,1.4-0.1c0.5,0,1-0.1,1.5-0.2s1-0.2,1.5-0.4
			s1-0.4,1.4-0.6c0.4-0.3,0.9-0.6,1.3-0.9c0.4-0.4,0.7-0.8,1.1-1.2c1.3-1.7,1.9-3.7,1.9-5.8c0.1-2.1-0.1-3.8-0.3-5.6
			s-0.3-3.7-0.7-5.6c-0.4-2-1.3-3.9-2.9-5.4s-3.7-2.2-5.7-2.1c-0.5,0-1,0-1.5,0.1c-0.5,0.1-1,0.1-1.4,0.2c-0.4,0.1-0.9,0.1-1.4,0.2
			c-0.4,0.1-0.9,0.1-1.3,0.1c-1.8,0.2-3.7,0.3-5.6,0.7c-2,0.4-3.9,1.3-5.4,2.8c-1.5,1.4-2.6,3.3-3.2,5.4
			C1473.8,590.7,1473.6,592.8,1473.8,594.9z"/>
	</g>
</g>
<g class="st1">
	<path class="st2" d="M1636.7,487.9c-0.1-1.8,0.1-3.6,0.7-5.3c0.5-1.7,1.3-3.3,2.4-4.7c1.1-1.4,2.1-3,3.7-4.4
		c1.5-1.4,3.5-2.3,5.5-2.5c0.5,0,1.1,0,1.5,0c0.5,0.1,1,0.2,1.5,0.4c0.5,0.2,1,0.4,1.4,0.6s0.9,0.5,1.3,0.8c1.6,1.2,2.9,2.4,4.5,3.5
		c1.4,1.1,2.9,2.2,4.4,3.7c1.4,1.5,2.4,3.5,2.5,5.5c0.2,2.1-0.4,4.2-1.6,5.9c-1.2,1.7-2.5,3-3.7,4.4c-0.4,0.4-0.6,0.6-0.9,1
		c-0.4,0.4-0.6,0.6-0.9,1c-0.4,0.4-0.6,0.7-0.9,1.1c-0.4,0.4-0.6,0.7-1,1.1c-0.4,0.4-0.7,0.7-1.2,1.1c-0.4,0.3-0.9,0.6-1.3,0.8
		c-0.4,0.2-1,0.4-1.4,0.5c-0.5,0.1-1,0.2-1.5,0.3c-2.1,0.2-4.2-0.5-5.9-1.6c-1.7-1.1-3.1-2.4-4.4-3.7c-1.3-1.3-2.3-2.8-3.1-4.3
		C1637.4,491.5,1636.9,489.7,1636.7,487.9z M1639.4,487.7c0.1,1.4,0.4,2.9,1.1,4.2c0.6,1.3,1.6,2.4,2.9,3.2c1.2,0.8,2.7,1.1,4,1
		c1.3-0.1,2.5-0.4,3.7-0.5c1.2-0.2,2.3,0,3.7,0c0.4,0,0.7-0.1,1.1-0.1c0.4-0.1,0.7-0.2,1.1-0.4c0.4-0.2,0.6-0.4,0.9-0.5
		c0.3-0.3,0.5-0.5,0.7-0.8c0.9-1.2,1.1-2.7,1-4c-0.2-1.3-0.4-2.5-0.5-3.7c-0.1-1.2,0-2.3-0.1-3.7c-0.1-1.3-0.5-2.9-1.6-3.8
		c-1-1-2.5-1.4-3.9-1.2c-0.4,0.1-0.7,0.1-1.1,0.2c-0.4,0.1-0.6,0.2-1,0.3c-0.3,0.1-0.6,0.2-0.9,0.2c-0.3,0.1-0.5,0.1-0.9,0.1
		c-1.2,0.1-2.3,0.1-3.7,0.2s-2.9,0.5-3.8,1.6c-1.1,1-1.9,2.2-2.2,3.7C1639.4,484.8,1639.2,486.3,1639.4,487.7z"/>
</g>
<g class="st1">
	<path class="st2" d="M1650.2,581.1c-0.7,1.2-0.9,2.5-0.9,3.8c-0.1,1.3,1.5,3.1,1,4.4c-0.1,0.4-0.3,0.6-0.6,0.9
		c-0.3,0.3-0.7,0.4-1.1,0.7c-0.8,0.4-1.3,1-1.3,1.7c-0.1,0.6,0.3,1.4,0.6,2.2c0.4,0.8,0.5,1.5,0.4,2.1c-0.2,0.6-0.7,1.2-1.4,1.6
		s-1.3,1-1.6,1.6c-0.1,0.3-0.2,0.6-0.1,1c0.1,0.4,0.3,0.7,0.5,1.2c0.5,0.8,0.8,1.6,0.5,2.1c-0.4,1.2-2.5,2.1-3,3.2
		c-0.6,1.2-1.2,2.4-1.2,3.7l-2.6-0.7c0.7-1.2,0.9-2.5,0.9-3.8c0.1-1.3-1.3-3-1-4.4c0.1-0.6,0.7-1.2,1.6-1.6c0.4-0.3,0.8-0.4,1.1-0.7
		s0.4-0.5,0.4-0.9c0.1-0.6-0.3-1.4-0.6-2.2c-0.4-0.8-0.5-1.5-0.4-2.1c0.2-0.6,0.7-1.2,1.4-1.6s1.3-1,1.6-1.6
		c0.3-0.6,0.1-1.3-0.4-2.1c-0.2-0.4-0.4-0.8-0.5-1.2c-0.1-0.4-0.2-0.7-0.1-1.1c0.2-1.3,2.5-2.1,3-3.2c0.7-1.2,1.2-2.4,1.2-3.7
		L1650.2,581.1z"/>
</g>
<g class="st1">
	<path class="st2" d="M1616.4,497.9c-0.7,1.2-0.9,2.5-0.9,3.8c-0.1,1.3,1.5,3.1,1,4.4c-0.1,0.4-0.3,0.6-0.6,0.9
		c-0.3,0.3-0.7,0.4-1.1,0.7c-0.8,0.4-1.3,1-1.3,1.7c-0.1,0.6,0.3,1.4,0.6,2.2c0.4,0.8,0.5,1.5,0.4,2.1c-0.2,0.6-0.7,1.2-1.4,1.6
		c-0.7,0.4-1.3,1-1.6,1.6c-0.1,0.3-0.2,0.6-0.1,1s0.3,0.7,0.5,1.2c0.5,0.8,0.8,1.6,0.5,2.1c-0.4,1.2-2.5,2.1-3,3.2
		c-0.6,1.2-1.2,2.4-1.2,3.7l-2.6-0.7c0.7-1.2,0.9-2.5,0.9-3.8c0.1-1.3-1.3-3-1-4.4c0.1-0.6,0.7-1.2,1.6-1.6c0.4-0.3,0.8-0.4,1.1-0.7
		c0.3-0.3,0.4-0.5,0.4-0.9c0.1-0.6-0.3-1.4-0.6-2.2c-0.4-0.8-0.5-1.5-0.4-2.1c0.2-0.6,0.7-1.2,1.4-1.6c0.7-0.4,1.3-1,1.6-1.6
		c0.3-0.6,0.1-1.3-0.4-2.1c-0.2-0.4-0.4-0.8-0.5-1.2s-0.2-0.7-0.1-1.1c0.2-1.3,2.5-2.1,3-3.2c0.7-1.2,1.2-2.4,1.2-3.7L1616.4,497.9z
		"/>
</g>
<g class="st1">
	<path class="st2" d="M1700.8,525c-0.4-1.2-1.4-2.2-2.5-3c-1-0.9-3.4-0.7-4-1.9c-0.2-0.3-0.3-0.6-0.4-1c0-0.4,0-0.9,0.1-1.2
		c0.1-0.9,0-1.6-0.4-2.1s-1.3-0.7-2.1-0.9c-0.8-0.2-1.5-0.4-2-1s-0.5-1.2-0.4-2.1c0-0.8,0.1-1.7-0.3-2.2c-0.2-0.3-0.4-0.5-0.7-0.7
		c-0.4-0.2-0.8-0.3-1.2-0.3c-1-0.1-1.8-0.3-2.1-0.9c-0.8-1.1-0.1-3.2-0.7-4.4c-0.5-1.2-1.2-2.4-2.2-3.2l2.1-1.6
		c0.4,1.2,1.4,2.2,2.5,3c1,0.9,3.3,0.8,4,1.9c0.4,0.4,0.4,1.2,0.3,2.2c-0.1,0.4-0.1,0.9,0,1.2s0.3,0.6,0.4,0.9
		c0.4,0.4,1.3,0.7,2.1,0.9c0.8,0.2,1.5,0.4,2,1c0.4,0.5,0.5,1.2,0.4,2.1c0,0.8-0.1,1.7,0.3,2.2c0.3,0.6,1,0.9,1.9,1.1
		c0.4,0.1,0.9,0.2,1.3,0.3c0.4,0.1,0.6,0.4,0.9,0.5c0.9,1,0.1,3.2,0.7,4.4c0.5,1.2,1.2,2.4,2.2,3.2L1700.8,525z"/>
</g>
<g class="st1">
	<path class="st2" d="M1592.1,543c1.3,1.3,2.9,2.1,4.6,2.9c1.6,0.8,4.3,0.1,5.6,1.3c0.4,0.3,0.7,0.6,0.9,1.1c0.3,0.4,0.4,1,0.6,1.4
		c0.4,1.1,1,1.9,1.8,2.2c0.8,0.4,1.8,0.5,2.9,0.5c1.1,0,2.1,0.2,2.8,0.7c0.7,0.4,1.3,1.3,1.7,2.2c0.4,1,0.9,1.9,1.6,2.4
		c0.4,0.3,0.7,0.5,1.3,0.6c0.4,0.1,1,0.1,1.6,0.1c1.2-0.1,2.1,0,2.9,0.6c1.5,1,2,3.6,3.3,4.7c1.3,1.3,2.7,2.4,4.5,3.1l-1.4,2.2
		c-1.3-1.3-2.9-2.1-4.6-2.9c-1.6-0.8-4.2-0.3-5.6-1.2c-0.8-0.4-1.3-1.3-1.6-2.4c-0.2-0.5-0.4-1.1-0.7-1.4c-0.3-0.4-0.6-0.6-1.1-0.9
		c-0.8-0.4-1.8-0.5-2.9-0.5c-1.1,0-2.1-0.2-2.8-0.7c-0.7-0.4-1.2-1.3-1.7-2.2c-0.4-1-0.9-1.9-1.6-2.4c-0.7-0.6-1.6-0.8-2.8-0.8
		c-0.5,0-1.1,0-1.6,0c-0.5-0.1-0.9-0.2-1.3-0.4c-1.6-0.9-2-3.6-3.3-4.7c-1.3-1.3-2.7-2.4-4.4-3.1L1592.1,543z"/>
</g>
<g class="st1">
	<path class="st2" d="M1600.7,612.6c1.4,1.6,3.1,2.7,5,3.7c1.8,1.1,4.6,0.7,6.2,2.1c0.4,0.4,0.7,0.7,1,1.3c0.3,0.4,0.4,1.1,0.7,1.6
		c0.4,1.2,1,2.1,1.9,2.6c0.9,0.5,2,0.8,3.1,1c1.2,0.2,2.2,0.5,3,1.2c0.8,0.6,1.4,1.5,1.9,2.6c0.4,1.1,1,2.1,1.8,2.8
		c0.7,0.7,1.8,1.1,3,1.2c1.3,0.1,2.3,0.3,3.1,1c1.6,1.2,2.1,4,3.6,5.4c1.4,1.5,2.9,2.9,4.8,3.8l-1.6,2.1c-1.4-1.5-3.1-2.7-5-3.7
		c-1.8-1.1-4.6-0.8-6.2-2.1c-0.9-0.5-1.3-1.6-1.8-2.8c-0.4-1.2-1-2.1-1.9-2.7c-0.9-0.5-2-0.8-3.1-1c-1.2-0.2-2.2-0.5-3-1.2
		s-1.4-1.5-1.9-2.6c-0.4-1.1-1-2.1-1.8-2.8c-0.7-0.7-1.8-1.1-2.9-1.2c-0.6-0.1-1.2-0.1-1.7-0.3c-0.5-0.2-1-0.4-1.4-0.7
		c-1.7-1.2-2.1-4-3.6-5.4c-1.4-1.5-2.9-2.9-4.8-3.9L1600.7,612.6z"/>
</g>
<g class="st1">
	<path class="st2" d="M1577.3,573c0.4,2.9,1,5.5,1.5,8.1c0.3,1.2,0.6,2.6,1,3.8c0.4,1.2,0.7,2.5,1.2,3.7c1,2.4,2.4,4.8,3,7.7
		c0.4,1.4,0.6,2.9,0.6,4.4c0,1.5-0.2,3-0.3,4.5l-0.4,5l-2.8-2.6c-2.3-2.1-5.1-3.5-8.1-4.2c-1.5-0.4-3.1-0.6-4.6-1
		c-1.5-0.4-2.9-0.8-4.4-1.5c-1.3-0.6-2.7-1.4-3.9-2.4c-1.3-1-2.4-2-3.7-2.9c-1.3-0.9-2.6-1.7-3.9-2.3c-1.4-0.6-2.9-1-4.5-1.2
		l-3.7-0.4l3.6-3.7c1-1.1,2.1-2.1,3.2-3c1.2-0.9,2.5-1.6,3.7-2.2c2.7-1.2,5.4-1.7,7.9-2.5c1.3-0.4,2.4-0.9,3.7-1.4
		c1.2-0.5,2.4-1.1,3.6-1.7C1572.5,575.8,1574.8,574.5,1577.3,573z M1576.3,575.4c-2.1,1.1-4.4,2.5-6.6,3.8c-1.1,0.7-2.2,1.4-3.3,2.2
		c-1.1,0.7-2.2,1.5-3.2,2.5c-2.1,1.8-4,3.9-6,5.4c-1,0.7-2,1.3-3.1,1.7c-1.2,0.4-2.4,0.6-3.7,0.9l-0.2-4.1c1.2,1.1,2.4,2.1,3.7,2.7
		c1.3,0.7,2.9,1.2,4.4,1.5c1.5,0.4,3.1,0.6,4.6,1c1.5,0.4,2.9,0.8,4.4,1.5c1.3,0.6,2.7,1.4,3.9,2.4c1.2,1,2.4,2.1,3.7,2.9
		c2.5,1.9,5.3,3.2,8.4,3.7l-3.2,2.4c-0.6-1.2-1.3-2.2-1.6-3.4c-0.4-1.1-0.7-2.2-0.8-3.5c-0.3-2.3,0.3-5.2,0.3-8
		c0.1-1.4,0-2.8-0.2-4.1c-0.1-1.3-0.3-2.7-0.4-4C1577.2,580.3,1576.7,577.7,1576.3,575.4z"/>
</g>
<g class="st1">
	<path class="st2" d="M1641,517.4c3,1.3,5.8,2.4,8.7,3.4c2.9,1,5.6,2,8.5,2.4c1.4,0.3,2.9,0.4,4.5,0.7c1.5,0.3,3.1,0.7,4.6,1.3
		c1.5,0.6,3,1.4,4.5,2.4c1.4,1,2.7,2.1,4,2.9l2.9,2l-2.5,1.2c-2.8,1.3-5,3.3-7,5.7c-1,1.2-2,2.4-2.9,3.6c-1,1.2-2.1,2.1-3.3,3
		c-1.2,0.9-2.5,1.7-3.8,2.4s-2.8,1.2-4.2,2c-2.8,1.3-5.4,2.9-7.3,5.3l-1.8,2.1l-1.2-3.4c-0.5-1.5-1.3-3-1.8-4.6s-0.9-3.3-1.1-4.9
		c-0.2-1.6-0.2-3.3,0-4.8c0.1-1.5,0.4-3,0.4-4.5c0.3-2.9,0.1-5.9-0.1-8.8C1641.8,523.6,1641.4,520.7,1641,517.4z M1642.6,519.5
		c0.3,2.7,0.7,5.6,1.3,8.7c0.5,2.9,1.1,5.9,2.1,9c0.5,1.5,1.1,3,1.6,4.5c0.5,1.4,0.9,2.8,1.2,4.1c0.3,1.3,0.3,2.7,0.1,4
		c-0.2,1.3-0.5,2.8-0.6,4.3l-3-1.2c2.8-1.3,5-3.3,7-5.6c1-1.2,2-2.4,2.9-3.6c1-1.2,2.1-2.1,3.3-3c1.2-0.9,2.5-1.7,3.8-2.4
		c1.3-0.7,2.8-1.2,4.2-2c2.8-1.2,5.4-2.9,7.3-5.2l0.4,3.1c-1.4-0.3-2.9-0.4-4.3-0.5c-1.3-0.2-2.7-0.5-3.8-1.1
		c-1.3-0.5-2.4-1.2-3.7-2.1s-2.5-1.9-3.8-2.8c-2.7-1.9-5.4-3.2-8.1-4.6C1647.9,521.8,1645.1,520.5,1642.6,519.5z"/>
</g>
<g class="st1">
	<g>
		<path class="st2" d="M1853.4,499.4c1-1,1.4-2.2,1.8-3.5c0.4-1.3-0.7-3.3,0.1-4.5c0.2-0.3,0.4-0.5,0.7-0.7s0.8-0.3,1.2-0.5
			c0.9-0.3,1.5-0.7,1.7-1.3c0.2-0.6,0.1-1.4,0-2.2c-0.2-0.9-0.2-1.6,0.2-2.2c0.3-0.6,1-1,1.8-1.3c0.8-0.3,1.6-0.7,2-1.2
			c0.2-0.3,0.3-0.6,0.4-0.9c0.1-0.4-0.1-0.8-0.2-1.2c-0.3-0.9-0.4-1.8,0-2.2c0.6-1.1,2.9-1.4,3.7-2.4c0.9-1,1.7-2,2-3.4l2.3,1.2
			c-1,1-1.4,2.2-1.8,3.5c-0.4,1.3,0.5,3.3-0.1,4.5c-0.2,0.6-1,1-1.9,1.1c-0.4,0.1-0.9,0.3-1.2,0.5c-0.3,0.2-0.5,0.5-0.7,0.8
			c-0.2,0.6-0.1,1.4,0,2.2c0.2,0.9,0.2,1.6-0.2,2.2c-0.3,0.6-1,1-1.8,1.3c-0.8,0.3-1.6,0.7-2,1.2c-0.4,0.5-0.4,1.3-0.2,2.2
			c0.1,0.4,0.3,0.9,0.3,1.2c0,0.4,0,0.7-0.2,1c-0.5,1.2-2.9,1.4-3.7,2.4c-0.9,1-1.7,2-2,3.4L1853.4,499.4z"/>
	</g>
	<g>
		<path class="st2" d="M1863.1,517.4c2.3,0.8,4.7,1,7.2,1.2c2.4,0.2,5.2-1.3,7.6-0.7c0.6,0.1,1.2,0.3,1.8,0.7
			c0.6,0.3,1.1,0.8,1.6,1.1c1.1,0.9,2.2,1.4,3.4,1.5c1.2,0.2,2.5-0.1,3.8-0.5c1.3-0.3,2.6-0.5,3.7-0.2c1.2,0.2,2.3,0.8,3.4,1.6
			c1.1,0.7,2.2,1.5,3.4,1.8c1.2,0.3,2.4,0.2,3.7-0.3s2.6-0.8,3.7-0.4c2.4,0.4,4.4,2.7,6.7,3.4c1.2,0.3,2.3,0.7,3.5,1
			s2.4,0.4,3.6,0.5l-0.5,2.6c-1.1-0.4-2.4-0.7-3.6-0.9c-1.2-0.2-2.4-0.2-3.6-0.3c-2.4-0.2-5.2,1.2-7.6,0.7c-1.2-0.1-2.3-0.9-3.4-1.8
			c-1.1-0.9-2.2-1.5-3.4-1.6c-1.2-0.2-2.5,0.1-3.8,0.5c-1.3,0.3-2.6,0.5-3.7,0.2c-1.2-0.2-2.3-0.8-3.4-1.6c-1.1-0.7-2.2-1.5-3.4-1.8
			c-1.2-0.3-2.4-0.2-3.7,0.2c-0.6,0.1-1.3,0.4-1.9,0.5c-0.6,0.1-1.2,0.1-1.9,0c-2.4-0.2-4.4-2.7-6.7-3.4c-2.3-0.8-4.7-1.4-7.1-1.5
			L1863.1,517.4z"/>
	</g>
	<g>
		<path class="st2" d="M1888.8,574.5c-2.4,0.4-4.9,0.3-7.3-0.3s-4.6-1.5-6.8-2.7c-2.1-1.3-4.2-2.8-6-4.7c-1.9-1.9-3.2-4.5-3.7-7.2
			c-0.1-0.7-0.1-1.3-0.2-2c0-0.7,0.2-1.4,0.2-2.1c0.1-0.6,0.3-1.4,0.6-1.9c0.2-0.6,0.5-1.2,0.8-1.9c1.2-2.3,2.6-4.4,3.8-6.5
			c1.3-2.1,2.8-4.2,4.8-6c1.9-1.9,4.5-3.2,7.1-3.7c2.7-0.5,5.6,0,8,1.1c2.4,1.1,4.5,2.7,6.4,4.1c0.5,0.4,1,0.8,1.4,1.1
			c0.5,0.4,1,0.8,1.4,1.1c0.5,0.4,1,0.8,1.4,1.2c0.5,0.4,1,0.8,1.5,1.3c0.5,0.5,1,1,1.4,1.5c0.4,0.5,0.8,1.1,1.1,1.7
			c0.3,0.6,0.6,1.2,0.9,1.9c0.2,0.6,0.4,1.3,0.4,2c0.4,2.7-0.1,5.6-1.2,8c-1.1,2.4-2.6,4.5-4.1,6.4c-1.5,1.9-3.5,3.5-5.5,4.9
			C1893.5,573.1,1891.1,574,1888.8,574.5z M1888.3,571.8c2.1-0.4,4.1-1.1,5.9-2.2s3.4-2.6,4.4-4.5c1.1-1.8,1.6-3.9,1.5-5.9
			s-0.5-3.8-0.7-5.6c-0.1-0.4-0.3-0.9-0.3-1.3c-0.1-0.4-0.2-0.9-0.2-1.4c-0.1-0.4-0.2-1-0.2-1.4c0-0.5-0.2-1-0.3-1.5
			c-0.1-0.5-0.3-1-0.5-1.5c-0.2-0.5-0.4-0.9-0.7-1.4s-0.7-0.8-1-1.2c-0.4-0.3-0.9-0.6-1.2-1c-1.8-1.1-3.9-1.6-5.9-1.4
			c-2.1,0.1-3.8,0.4-5.6,0.7c-1.8,0.3-3.6,0.6-5.5,1.2c-1.9,0.5-3.8,1.7-5.1,3.3c-1.3,1.6-1.9,3.8-1.7,5.9c0,0.5,0.1,1,0.2,1.5
			c0.1,0.5,0.2,1,0.3,1.4c0.1,0.4,0.2,0.9,0.3,1.4c0.1,0.4,0.2,0.9,0.2,1.3c0.3,1.8,0.6,3.6,1.2,5.5c0.5,1.9,1.7,3.8,3.2,5.2
			c1.6,1.4,3.5,2.3,5.6,2.8C1884.1,572.2,1886.2,572.3,1888.3,571.8z"/>
	</g>
	<g>
		<path class="st2" d="M1826.7,536.3c-1.9,0.2-3.7,0.2-5.6-0.2c-1.8-0.5-3.6-1.1-5.2-2.1c-1.6-0.9-3.3-2.1-4.9-3.4
			c-1.6-1.5-2.7-3.4-3.1-5.6c0-0.5-0.1-1.1-0.1-1.6c0-0.5,0.1-1.1,0.2-1.6c0.1-0.5,0.4-1,0.5-1.6c0.2-0.5,0.5-0.9,0.7-1.4
			c1.1-1.8,2.2-3.4,3.2-5c1-1.6,2.1-3.3,3.5-4.9c1.5-1.6,3.4-2.7,5.6-3.1c2.1-0.4,4.4,0.1,6.3,1.1c1.9,1,3.4,2.3,4.9,3.4
			c0.4,0.3,0.8,0.6,1.1,0.9c0.4,0.3,0.8,0.6,1.2,0.9c0.4,0.3,0.8,0.6,1.2,0.9c0.4,0.3,0.9,0.6,1.2,1c0.4,0.3,0.8,0.7,1.2,1.2
			c0.3,0.4,0.7,0.8,1,1.3s0.5,0.9,0.7,1.5c0.1,0.5,0.3,1.1,0.4,1.6c0.4,2.1-0.2,4.4-1.1,6.3c-1,1.9-2.2,3.5-3.4,4.9
			c-1.2,1.4-2.6,2.6-4.3,3.7C1830.4,535.2,1828.5,535.9,1826.7,536.3z M1826.3,533.6c1.5-0.2,3-0.8,4.4-1.5c1.4-0.8,2.4-1.9,3.1-3.3
			c0.8-1.3,0.9-2.9,0.7-4.4c-0.2-1.4-0.6-2.7-0.9-4s-0.2-2.5-0.4-4.1c0-0.4-0.2-0.8-0.3-1.1s-0.2-0.7-0.4-1
			c-0.2-0.3-0.4-0.6-0.7-0.9c-0.3-0.2-0.6-0.5-0.9-0.7c-1.3-0.8-3-1-4.4-0.7c-1.4,0.2-2.6,0.6-3.9,0.8c-1.2,0.2-2.5,0.3-4,0.5
			c-1.4,0.2-3,1-3.9,2.1c-1,1.2-1.3,2.8-1,4.3c0.1,0.3,0.1,0.7,0.3,1.1c0.1,0.3,0.2,0.7,0.4,1c0.1,0.3,0.2,0.6,0.3,1
			c0.1,0.3,0.1,0.6,0.2,0.9c0.2,1.2,0.3,2.5,0.6,3.9c0.2,1.4,1,2.9,2.1,3.9c1.2,1.1,2.6,1.8,4.1,2.1
			C1823.2,533.9,1824.7,533.9,1826.3,533.6z"/>
	</g>
	<g>
		<path class="st2" d="M1814.2,625.4c-1.8,0.2-3.6,0.2-5.3-0.3c-1.7-0.4-3.4-1.1-4.9-2c-1.5-0.9-3.2-1.9-4.7-3.3
			c-1.6-1.4-2.6-3.3-3-5.3c0-0.5-0.1-1.1-0.1-1.5c0-0.5,0.1-1,0.2-1.5c0.1-0.5,0.3-1,0.5-1.5s0.5-0.9,0.7-1.4
			c1.1-1.7,2.2-3.1,3.1-4.7c0.9-1.5,2-3.1,3.3-4.7c1.4-1.6,3.3-2.7,5.3-3c2-0.3,4.2,0.1,6,1.1c1.8,1,3.2,2.2,4.7,3.3
			c0.4,0.3,0.7,0.6,1.1,0.8c0.4,0.3,0.7,0.6,1.1,0.8c0.4,0.3,0.8,0.6,1.1,0.8c0.4,0.3,0.8,0.6,1.1,0.9c0.4,0.3,0.8,0.7,1.2,1.1
			c0.3,0.4,0.7,0.8,0.9,1.3s0.5,0.9,0.7,1.4c0.1,0.5,0.3,1,0.4,1.5c0.4,2-0.2,4.2-1.1,6s-2.1,3.3-3.3,4.7c-1.2,1.4-2.6,2.5-4,3.5
			C1817.7,624.4,1816,625.1,1814.2,625.4z M1813.8,622.7c1.4-0.2,2.8-0.7,4.1-1.4c1.3-0.7,2.3-1.8,3-3.1c0.7-1.2,0.8-2.8,0.6-4.1
			c-0.2-1.3-0.7-2.5-0.8-3.6c-0.3-1.1-0.2-2.3-0.3-3.7c0-0.4-0.1-0.7-0.2-1.1c-0.1-0.3-0.2-0.7-0.4-1c-0.2-0.3-0.4-0.6-0.6-0.8
			c-0.3-0.2-0.6-0.5-0.9-0.6c-1.2-0.8-2.8-0.8-4.1-0.6c-1.3,0.3-2.5,0.7-3.6,0.8c-1.1,0.2-2.3,0.2-3.6,0.4c-1.3,0.2-2.8,0.8-3.7,1.9
			c-0.9,1.1-1.2,2.6-0.9,4c0.1,0.3,0.1,0.7,0.3,1.1c0.1,0.3,0.2,0.6,0.3,1c0.1,0.3,0.2,0.6,0.3,0.9c0.1,0.3,0.1,0.5,0.2,0.9
			c0.2,1.1,0.3,2.3,0.5,3.6c0.2,1.3,0.8,2.8,1.9,3.7c1.1,1,2.4,1.7,3.8,1.9C1810.9,623,1812.4,623,1813.8,622.7z"/>
	</g>
	<g>
		<path class="st2" d="M1825.9,644.7c1.2,0.6,2.6,0.7,3.9,0.6c1.3,0,3-1.8,4.3-1.3c0.4,0.1,0.6,0.2,0.9,0.5c0.3,0.2,0.5,0.7,0.8,1
			c0.5,0.8,1.1,1.3,1.8,1.2c0.6,0,1.4-0.4,2.2-0.8c0.8-0.4,1.5-0.7,2.1-0.5c0.6,0.1,1.2,0.6,1.7,1.3c0.5,0.7,1.1,1.3,1.7,1.5
			c0.3,0.1,0.6,0.1,1,0s0.7-0.3,1.1-0.6c0.8-0.6,1.5-0.9,2.1-0.7c1.3,0.3,2.3,2.3,3.5,2.8c1.2,0.5,2.5,1,3.8,0.8l-0.5,2.6
			c-1.2-0.6-2.6-0.7-3.9-0.6c-1.3,0-2.9,1.6-4.3,1.3c-0.6,0-1.2-0.6-1.7-1.5c-0.3-0.3-0.5-0.8-0.8-1c-0.3-0.2-0.6-0.3-0.9-0.4
			c-0.6,0-1.4,0.4-2.2,0.8c-0.8,0.4-1.5,0.7-2.1,0.5c-0.6-0.1-1.2-0.6-1.7-1.3c-0.5-0.7-1.1-1.3-1.7-1.5c-0.6-0.2-1.3,0-2.1,0.5
			c-0.3,0.2-0.8,0.5-1.1,0.6s-0.7,0.2-1.1,0.2c-1.3-0.1-2.3-2.3-3.5-2.8c-1.2-0.6-2.5-1-3.8-0.8L1825.9,644.7z"/>
	</g>
	<g>
		<path class="st2" d="M1845.7,558.4c-1.2,0.5-2.1,1.6-2.8,2.7c-0.8,1.1-0.4,3.4-1.5,4.2c-0.3,0.2-0.6,0.3-0.9,0.4
			c-0.4,0-0.9,0.1-1.3,0c-0.9,0-1.6,0.1-2,0.6c-0.4,0.5-0.6,1.3-0.7,2.1c-0.1,0.8-0.3,1.5-0.8,2s-1.2,0.6-2.1,0.6
			c-0.8,0.1-1.7,0.1-2.2,0.5c-0.3,0.2-0.5,0.4-0.7,0.8c-0.1,0.4-0.2,0.8-0.2,1.3c0,1-0.1,1.8-0.7,2.1c-1,0.9-3.2,0.4-4.3,1.1
			c-1.2,0.6-2.3,1.4-3,2.5l-1.8-2c1.2-0.5,2.1-1.6,2.8-2.7c0.8-1.1,0.5-3.4,1.5-4.2c0.4-0.5,1.2-0.5,2.2-0.5c0.5,0.1,0.9,0,1.2-0.1
			s0.6-0.3,0.9-0.5c0.4-0.5,0.6-1.3,0.7-2.1c0.1-0.8,0.3-1.5,0.8-2c0.5-0.5,1.2-0.6,2.1-0.6c0.8-0.1,1.7-0.1,2.2-0.5
			c0.6-0.3,0.8-1.1,0.9-2c0.1-0.5,0.1-0.9,0.2-1.3s0.3-0.7,0.5-0.9c0.9-1,3.2-0.4,4.3-1.1c1.2-0.6,2.3-1.4,3-2.5L1845.7,558.4z"/>
	</g>
	<g>
		<path class="st2" d="M1872.8,665.3c1.2-1.4,1.9-3,2.5-4.8c0.7-1.7-0.3-4.3,0.8-5.7c0.2-0.4,0.6-0.8,1-1c0.4-0.3,0.9-0.5,1.4-0.7
			c1-0.4,1.8-1.1,2.1-2c0.4-0.8,0.4-1.8,0.3-2.9s0-2.1,0.5-2.8c0.4-0.7,1.2-1.4,2.1-1.9c0.9-0.5,1.8-1,2.3-1.8
			c0.2-0.4,0.5-0.8,0.5-1.3c0.1-0.5,0-1,0-1.6c-0.2-1.1-0.2-2.1,0.4-2.9c0.9-1.6,3.4-2.3,4.4-3.7c1.1-1.4,2.2-2.9,2.7-4.7l2.3,1.2
			c-1.2,1.4-1.9,3-2.5,4.8c-0.7,1.7,0.1,4.2-0.8,5.7c-0.4,0.8-1.2,1.4-2.3,1.8c-0.5,0.2-1,0.4-1.4,0.8c-0.3,0.3-0.6,0.7-0.8,1.1
			c-0.4,0.8-0.4,1.8-0.3,2.9c0.1,1.1,0,2.1-0.5,2.8c-0.4,0.7-1.2,1.4-2.1,1.9c-0.9,0.5-1.8,1-2.3,1.8c-0.6,0.8-0.7,1.7-0.6,2.8
			c0,0.5,0.1,1.1,0.1,1.6c0,0.5-0.1,0.9-0.3,1.4c-0.8,1.7-3.4,2.3-4.4,3.7c-1.1,1.4-2.2,2.9-2.7,4.6L1872.8,665.3z"/>
	</g>
	<g>
		<path class="st2" d="M1843.2,618.6c1.1-3.1,1.9-6,2.7-8.9c0.7-2.9,1.5-5.8,1.7-8.7c0.1-1.4,0.2-3,0.3-4.5c0.1-1.5,0.4-3.2,0.9-4.7
			c0.5-1.6,1.2-3.1,2-4.7c0.9-1.5,1.8-2.8,2.6-4.3l1.7-3.1l1.5,2.4c1.6,2.6,3.7,4.7,6.3,6.5c1.2,0.9,2.6,1.8,3.8,2.6
			c1.2,0.9,2.3,2,3.3,3c1,1.1,1.9,2.3,2.7,3.6c0.8,1.3,1.5,2.7,2.3,4c1.6,2.6,3.4,5.1,5.9,6.9l2.3,1.6l-3.3,1.4
			c-1.5,0.7-2.9,1.5-4.5,2.2c-1.6,0.7-3.2,1.2-4.8,1.5c-1.6,0.3-3.3,0.5-4.8,0.4c-1.5,0-3.1-0.1-4.5-0.1c-2.9,0-5.9,0.4-8.8,0.8
			C1849.4,617.3,1846.4,617.9,1843.2,618.6z M1845.2,616.9c2.6-0.5,5.5-1.2,8.5-2c2.9-0.8,5.8-1.6,8.8-2.9c1.5-0.7,2.9-1.3,4.3-2
			c1.4-0.7,2.7-1.1,4-1.5c1.3-0.4,2.6-0.5,4-0.4c1.3,0.1,2.8,0.3,4.3,0.3l-1,3.1c-1.5-2.7-3.7-4.7-6.2-6.5c-1.2-0.9-2.6-1.8-3.8-2.6
			c-1.2-0.9-2.3-2-3.3-3c-1-1.1-1.9-2.3-2.7-3.6c-0.8-1.3-1.5-2.7-2.3-4c-1.5-2.7-3.4-5.1-5.8-6.9l3.1-0.7c-0.1,1.4-0.1,3-0.2,4.3
			c-0.1,1.3-0.3,2.7-0.7,3.9c-0.4,1.3-1,2.5-1.8,3.8c-0.8,1.3-1.7,2.6-2.4,4.1c-1.6,2.8-2.8,5.6-3.9,8.5
			C1847,611.4,1846,614.3,1845.2,616.9z"/>
	</g>
</g>
<g class="st1">
	<g>
		<path class="st2" d="M819.5,622.6c-0.7-1.2-1.7-2-2.8-2.7c-1.1-0.8-3.4-0.2-4.3-1.3c-0.2-0.2-0.4-0.5-0.5-0.9s-0.1-0.8-0.1-1.3
			c0-0.9-0.2-1.6-0.8-2c-0.6-0.4-1.3-0.5-2.2-0.6c-0.9-0.1-1.6-0.2-2-0.8c-0.5-0.5-0.7-1.2-0.8-2.1c-0.1-0.8-0.2-1.7-0.6-2.2
			c-0.2-0.2-0.5-0.5-0.8-0.6c-0.3-0.2-0.8-0.2-1.2-0.2c-0.9,0-1.8-0.1-2.2-0.6c-0.9-0.9-0.5-3.2-1.2-4.3c-0.7-1.1-1.5-2.2-2.7-2.9
			l1.8-1.9c0.7,1.2,1.7,2,2.8,2.7c1.1,0.8,3.3,0.4,4.3,1.3c0.6,0.4,0.7,1.2,0.6,2.1c0,0.5,0,0.9,0.1,1.3c0.1,0.4,0.3,0.6,0.6,0.8
			c0.6,0.4,1.3,0.5,2.2,0.6c0.9,0.1,1.6,0.2,2,0.8c0.5,0.5,0.7,1.2,0.8,2.1c0.1,0.8,0.2,1.7,0.6,2.2c0.4,0.5,1.1,0.8,2,0.8
			c0.5,0,0.9,0,1.3,0.1s0.7,0.2,0.9,0.5c1,0.8,0.5,3.2,1.2,4.3c0.7,1.1,1.5,2.2,2.7,2.9L819.5,622.6z"/>
	</g>
	<g>
		<path class="st2" d="M839.5,618.3c1.4-2,2.3-4.3,3.1-6.6c0.8-2.3,0.2-5.3,1.4-7.5c0.3-0.6,0.7-1.1,1.1-1.5
			c0.5-0.5,1.1-0.8,1.5-1.2c1.2-0.8,2-1.7,2.4-2.9c0.5-1.1,0.6-2.4,0.6-3.8c0.1-1.3,0.2-2.6,0.8-3.7c0.5-1.1,1.4-2,2.5-2.9
			c1-0.9,2.1-1.7,2.6-2.8c0.7-1.1,0.8-2.3,0.7-3.7c-0.1-1.4,0-2.7,0.6-3.7c1.1-2.2,3.8-3.5,5.1-5.5c0.7-1.1,1.3-2,1.9-3.1
			c0.6-1.1,1.1-2.2,1.5-3.3l2.4,1.2c-0.7,0.9-1.3,2.1-1.8,3.2c-0.5,1.1-0.9,2.3-1.3,3.4c-0.9,2.3-0.2,5.3-1.4,7.5
			c-0.4,1.1-1.5,2-2.6,2.8c-1.2,0.8-2.1,1.7-2.5,2.8c-0.5,1.1-0.6,2.4-0.6,3.8c-0.1,1.3-0.2,2.6-0.8,3.7c-0.5,1.1-1.4,2-2.5,2.9
			c-1,0.9-2.1,1.7-2.6,2.8c-0.7,1.1-0.9,2.3-0.8,3.7c0,0.6,0,1.4,0,2c0,0.6-0.2,1.2-0.5,1.8c-0.9,2.3-3.8,3.5-5.1,5.5
			c-1.4,2-2.6,4.1-3.4,6.4L839.5,618.3z"/>
	</g>
	<g>
		<path class="st2" d="M901.4,609.4c-0.3,2.4-1,4.8-2.3,6.9c-1.2,2.1-2.7,4-4.5,5.7c-1.9,1.6-3.8,3.2-6.2,4.5
			c-2.3,1.3-5.2,1.9-7.9,1.5c-0.7-0.1-1.3-0.3-2-0.4c-0.7-0.2-1.3-0.5-1.9-0.8c-0.6-0.3-1.2-0.7-1.7-1.1c-0.6-0.4-1-0.8-1.6-1.3
			c-1.9-1.8-3.5-3.7-5.2-5.5c-1.6-1.9-3.2-3.8-4.5-6.3c-1.3-2.3-1.9-5.2-1.6-7.9c0.3-2.8,1.5-5.3,3.3-7.4c1.8-2,3.8-3.6,5.7-5
			c0.5-0.4,1-0.7,1.5-1.1c0.5-0.4,1-0.7,1.5-1.1c0.5-0.4,1-0.7,1.6-1.1s1-0.7,1.7-1c0.6-0.3,1.2-0.7,1.8-0.9
			c0.6-0.2,1.3-0.5,1.9-0.6c0.7-0.1,1.3-0.3,2.1-0.3c0.6-0.1,1.4,0,2.1,0.1c2.7,0.4,5.3,1.6,7.3,3.4c2,1.8,3.6,3.7,5,5.7
			c1.4,2,2.4,4.3,3.1,6.6C901.4,604.5,901.6,607,901.4,609.4z M898.7,609.2c0.2-2.1,0.1-4.3-0.5-6.3c-0.6-2-1.6-4-3.1-5.4
			c-1.4-1.6-3.3-2.6-5.3-3.1s-3.8-0.6-5.6-0.8c-0.5,0-0.9,0-1.3-0.1c-0.5,0-0.9-0.1-1.4-0.2c-0.5,0-1-0.1-1.4-0.2
			c-0.5-0.1-1-0.1-1.5-0.1c-0.5,0-1,0-1.6,0.1s-1,0.2-1.5,0.3c-0.5,0.2-1,0.4-1.4,0.6c-0.4,0.3-0.9,0.6-1.3,0.9
			c-1.6,1.4-2.6,3.3-3,5.3c-0.5,2-0.7,3.8-0.8,5.6c-0.2,1.8-0.5,3.6-0.4,5.7c0,2,0.5,4.1,1.8,5.8c1.2,1.7,3.2,2.9,5.2,3.2
			c0.5,0.1,1,0.2,1.5,0.2c0.5,0,1,0.1,1.4,0.1s0.9,0.1,1.4,0.1c0.5,0,0.9,0.1,1.3,0.2c1.8,0.2,3.6,0.5,5.7,0.4c2,0,4.1-0.5,5.9-1.7
			s3.2-2.7,4.2-4.6C897.9,613.3,898.6,611.2,898.7,609.2z"/>
	</g>
	<g>
		<path class="st2" d="M847.5,658.5c-0.3,1.9-0.8,3.7-1.8,5.3c-1,1.6-2.1,3.1-3.4,4.4c-1.3,1.3-2.9,2.6-4.7,3.8
			c-1.9,1.1-4.1,1.7-6.2,1.4c-0.5-0.1-1.1-0.2-1.6-0.3c-0.5-0.2-1-0.4-1.5-0.7c-0.5-0.3-0.9-0.6-1.4-0.9c-0.4-0.3-0.8-0.7-1.2-1
			c-1.4-1.6-2.7-3.1-3.9-4.4c-1.3-1.4-2.6-2.9-3.7-4.7c-1.1-1.9-1.7-4.1-1.4-6.2c0.2-2.1,1.3-4.2,2.8-5.7c1.5-1.5,3.2-2.6,4.7-3.8
			c0.4-0.3,0.8-0.6,1.2-0.9s0.8-0.6,1.2-0.9c0.4-0.3,0.8-0.6,1.2-0.9c0.4-0.3,0.9-0.6,1.3-0.9c0.4-0.3,0.9-0.5,1.4-0.8
			c0.5-0.2,1-0.4,1.6-0.6c0.6-0.2,1.1-0.2,1.6-0.2c0.5,0,1.1,0,1.6,0.1c2.1,0.2,4.2,1.4,5.7,2.8c1.5,1.5,2.8,3.1,3.8,4.7
			c1.1,1.6,1.8,3.3,2.4,5.1C847.5,654.7,847.7,656.6,847.5,658.5z M844.9,658.2c0.2-1.5,0.1-3.1-0.3-4.6c-0.4-1.5-1.2-2.9-2.3-3.9
			c-1.1-1.1-2.6-1.7-4-1.9c-1.4-0.2-2.8-0.2-4-0.3c-1.3-0.1-2.5-0.5-4-0.7c-0.4-0.1-0.8-0.1-1.2-0.1c-0.4,0-0.7,0-1.1,0.1
			c-0.4,0.1-0.7,0.2-1.1,0.4c-0.3,0.2-0.6,0.4-0.9,0.6c-1.1,1.1-1.8,2.6-1.9,4c-0.2,1.4-0.2,2.7-0.3,3.9c-0.2,1.2-0.4,2.5-0.6,4
			c-0.2,1.4,0.1,3.1,1,4.3c0.8,1.3,2.3,2,3.9,2.1c0.4,0,0.7,0.1,1.1,0c0.4,0,0.7,0,1.1-0.1c0.4,0,0.6-0.1,1,0c0.4,0,0.6,0,0.9,0.1
			c1.2,0.2,2.5,0.4,3.9,0.5c1.4,0.2,3-0.1,4.4-1c1.3-0.8,2.4-2,3.1-3.4C844.2,661.2,844.7,659.8,844.9,658.2z"/>
	</g>
	<g>
		<path class="st2" d="M929.7,695.1c-0.3,1.8-0.8,3.5-1.7,5c-0.9,1.6-2,3-3.3,4.2c-1.3,1.2-2.7,2.6-4.4,3.6
			c-1.8,1.1-3.9,1.6-5.9,1.4c-0.5-0.1-1.1-0.2-1.5-0.3c-0.5-0.2-0.9-0.4-1.4-0.6c-0.5-0.3-0.9-0.5-1.3-0.9c-0.4-0.3-0.8-0.7-1.2-1
			c-1.3-1.5-2.4-2.9-3.7-4.3c-1.2-1.3-2.5-2.8-3.6-4.4c-1.1-1.8-1.7-3.9-1.4-5.9c0.2-2,1.3-4,2.7-5.5s3-2.5,4.4-3.6
			c0.4-0.3,0.7-0.5,1.1-0.8c0.4-0.3,0.7-0.5,1.1-0.8c0.4-0.3,0.8-0.6,1.1-0.9c0.4-0.3,0.8-0.6,1.2-0.9c0.4-0.3,0.8-0.6,1.3-0.8
			c0.5-0.2,1-0.4,1.5-0.5c0.5-0.1,1.1-0.2,1.5-0.2c0.5,0,1,0,1.5,0c2,0.2,4,1.3,5.5,2.7c1.5,1.4,2.6,3,3.6,4.4
			c1,1.6,1.7,3.2,2.2,4.8C929.7,691.5,929.9,693.4,929.7,695.1z M927.1,694.8c0.2-1.4,0.1-2.9-0.2-4.3c-0.4-1.4-1.1-2.7-2.2-3.7
			c-1-1-2.4-1.6-3.7-1.7c-1.3-0.2-2.5,0-3.7-0.2c-1.2-0.1-2.3-0.5-3.7-0.7c-0.4-0.1-0.7-0.1-1.1-0.1c-0.4,0-0.7,0-1.1,0.1
			c-0.4,0.1-0.7,0.2-1,0.4c-0.3,0.2-0.6,0.4-0.9,0.6c-1.1,1-1.6,2.4-1.7,3.7c-0.1,1.3,0,2.5-0.2,3.7c-0.1,1.2-0.5,2.3-0.6,3.6
			s0,2.9,0.8,4.1c0.8,1.2,2.2,1.9,3.6,2c0.4,0,0.7,0.1,1.1,0c0.4,0,0.6-0.1,1-0.1c0.3,0,0.6-0.1,0.9,0c0.3,0,0.5,0,0.9,0.1
			c1.2,0.1,2.3,0.4,3.6,0.5c1.3,0.2,2.9,0,4.1-0.8c1.2-0.8,2.3-1.8,2.9-3.2C926.5,697.7,927,696.2,927.1,694.8z"/>
	</g>
	<g>
		<path class="st2" d="M951.5,689.3c0.9-1,1.4-2.3,1.6-3.6c0.3-1.3-0.9-3.4-0.1-4.5c0.2-0.3,0.4-0.6,0.8-0.8
			c0.3-0.2,0.8-0.3,1.2-0.5c0.9-0.3,1.5-0.7,1.6-1.4c0.2-0.6,0-1.5-0.2-2.3s-0.2-1.6,0.1-2.2c0.3-0.6,0.9-1,1.7-1.3
			c0.8-0.3,1.5-0.7,1.9-1.3c0.1-0.2,0.3-0.6,0.3-0.9s-0.1-0.8-0.3-1.2c-0.4-0.9-0.5-1.7-0.1-2.2c0.6-1.2,2.9-1.5,3.6-2.6
			c0.8-1,1.6-2.1,1.9-3.5l2.4,1.2c-0.9,1-1.4,2.3-1.6,3.6c-0.3,1.3,0.7,3.2,0.1,4.5c-0.2,0.6-0.9,1-1.9,1.3
			c-0.4,0.2-0.9,0.3-1.2,0.5c-0.3,0.2-0.5,0.5-0.6,0.8c-0.2,0.6,0,1.5,0.2,2.3c0.2,0.9,0.2,1.6-0.1,2.2c-0.3,0.6-0.9,1-1.7,1.3
			c-0.8,0.3-1.5,0.7-1.9,1.3c-0.4,0.6-0.3,1.3-0.1,2.2c0.1,0.4,0.3,0.9,0.3,1.2c0,0.4,0,0.7-0.1,1.1c-0.4,1.3-2.9,1.5-3.6,2.6
			c-0.9,1-1.6,2.1-1.9,3.5L951.5,689.3z"/>
	</g>
	<g>
		<path class="st2" d="M874.1,646.3c0.2,1.3,1,2.5,1.9,3.5c0.8,1.1,3.2,1.4,3.6,2.6c0.1,0.3,0.1,0.7,0.2,1c-0.1,0.4-0.2,0.9-0.3,1.2
			c-0.3,0.9-0.3,1.6,0,2.1c0.4,0.5,1.1,0.9,1.8,1.3c0.8,0.3,1.4,0.7,1.7,1.3s0.3,1.3,0,2.2c-0.2,0.8-0.4,1.6-0.2,2.2
			c0.1,0.3,0.2,0.6,0.6,0.8s0.7,0.4,1.2,0.5c0.9,0.3,1.7,0.6,1.8,1.3c0.6,1.2-0.5,3.2-0.2,4.4c0.3,1.3,0.7,2.6,1.6,3.6l-2.4,1.2
			c-0.2-1.3-1-2.5-1.9-3.5c-0.8-1.1-3.1-1.4-3.6-2.6c-0.4-0.5-0.2-1.3,0.2-2.2c0.2-0.4,0.3-0.9,0.2-1.2s-0.1-0.7-0.3-1
			c-0.4-0.5-1.1-0.9-1.8-1.3c-0.8-0.3-1.4-0.7-1.7-1.3s-0.3-1.3,0-2.2c0.2-0.8,0.4-1.6,0.2-2.2c-0.1-0.7-0.8-1.1-1.6-1.4
			c-0.4-0.2-0.8-0.3-1.2-0.5c-0.3-0.2-0.5-0.5-0.8-0.7c-0.7-1.1,0.5-3.2,0.2-4.4c-0.3-1.3-0.7-2.6-1.6-3.6L874.1,646.3z"/>
	</g>
	<g>
		<path class="st2" d="M984.2,649.8c-1-1.6-2.4-2.7-3.9-3.7c-1.4-1.1-4.2-0.9-5.3-2.3c-0.3-0.3-0.6-0.8-0.7-1.2
			c-0.2-0.5-0.2-1.1-0.3-1.5c-0.1-1.1-0.6-2-1.3-2.5c-0.7-0.6-1.6-0.9-2.7-1.1c-1.1-0.2-2-0.6-2.6-1.2c-0.6-0.6-1.1-1.6-1.2-2.5
			c-0.2-1.1-0.5-2-1.1-2.7c-0.3-0.3-0.6-0.7-1.1-0.9c-0.4-0.2-0.9-0.3-1.6-0.4c-1.2-0.1-2.1-0.4-2.7-1.2c-1.3-1.3-1.2-3.9-2.3-5.3
			c-1.1-1.5-2.2-2.9-3.8-3.9l1.8-1.9c1,1.6,2.4,2.7,3.9,3.7c1.4,1.1,4.1,1.1,5.3,2.3c0.7,0.6,1,1.6,1.1,2.7c0.1,0.6,0.1,1.1,0.4,1.5
			c0.2,0.4,0.5,0.7,0.9,1.1c0.7,0.6,1.6,0.9,2.7,1.1c1.1,0.2,2,0.6,2.6,1.2c0.6,0.6,1,1.6,1.2,2.5c0.2,1.1,0.5,2,1.1,2.7
			c0.6,0.8,1.4,1.1,2.6,1.3c0.5,0.1,1.1,0.2,1.6,0.3c0.5,0.2,0.8,0.3,1.2,0.7c1.4,1.2,1.2,3.9,2.3,5.3c1.1,1.5,2.2,2.9,3.7,3.9
			L984.2,649.8z"/>
	</g>
	<g>
		<path class="st2" d="M931.3,665.4c-2.7-1.9-5.2-3.5-7.8-5c-2.6-1.5-5.1-3-7.8-4c-1.3-0.5-2.8-1-4.2-1.6c-1.4-0.6-2.9-1.3-4.3-2.2
			c-1.4-0.9-2.7-2-3.9-3.2c-1.2-1.2-2.2-2.5-3.4-3.7l-2.5-2.5l2.7-0.7c3-0.8,5.5-2.3,7.9-4.2c1.2-0.9,2.4-2,3.6-2.9
			c1.2-0.9,2.5-1.7,3.8-2.3c1.3-0.6,2.8-1.2,4.2-1.6c1.5-0.4,3-0.7,4.5-1.1c3-0.8,5.8-1.8,8.2-3.7l2.2-1.8l0.5,3.6
			c0.2,1.6,0.6,3.2,0.8,4.9c0.2,1.7,0.2,3.4,0.1,5s-0.5,3.3-0.9,4.7c-0.4,1.5-0.9,2.9-1.3,4.3c-0.8,2.8-1.2,5.8-1.6,8.7
			C931.7,659.1,931.5,662.1,931.3,665.4z M930.1,663c0.3-2.7,0.4-5.7,0.5-8.7c0-3,0.1-6-0.3-9.3c-0.2-1.6-0.5-3.2-0.7-4.7
			c-0.2-1.5-0.3-2.9-0.3-4.3c0-1.4,0.3-2.7,0.7-4c0.4-1.3,1.1-2.6,1.4-4.1l2.7,1.8c-3,0.7-5.5,2.3-7.9,4.2c-1.2,0.9-2.4,2-3.6,2.9
			c-1.2,0.9-2.5,1.7-3.8,2.3c-1.3,0.6-2.8,1.2-4.2,1.6c-1.5,0.4-3,0.7-4.5,1.1c-3,0.7-5.8,1.8-8.2,3.7l0.2-3.2
			c1.3,0.5,2.8,0.9,4.1,1.4c1.3,0.4,2.5,1,3.6,1.8c1.1,0.8,2.1,1.7,3.2,2.8c1.1,1.1,2.1,2.3,3.2,3.5c2.3,2.4,4.6,4.2,7.1,6
			C925.4,659.8,927.8,661.5,930.1,663z"/>
	</g>
</g>
<g class="st1">
	<path class="st2" d="M1539.1,537.7c-0.1-1.9,0.1-3.7,0.7-5.5c0.6-1.8,1.4-3.5,2.5-5c1.1-1.5,2.3-3.1,3.8-4.6
		c1.6-1.4,3.7-2.4,5.8-2.6c0.5,0,1.1,0,1.6,0c0.5,0.1,1.1,0.2,1.6,0.4c0.5,0.2,1,0.4,1.5,0.6c0.4,0.3,0.9,0.5,1.3,0.8
		c1.7,1.2,3.2,2.5,4.7,3.6c1.5,1.2,3.1,2.3,4.6,3.9s2.4,3.7,2.6,5.8c0.2,2.1-0.4,4.4-1.6,6.2c-1.2,1.8-2.6,3.2-3.8,4.6
		c-0.4,0.4-0.6,0.7-1,1.1c-0.4,0.4-0.6,0.7-1,1.1c-0.4,0.4-0.6,0.7-1,1.2c-0.4,0.4-0.7,0.8-1.1,1.2c-0.4,0.4-0.8,0.7-1.3,1.1
		c-0.4,0.3-0.9,0.6-1.4,0.9s-1,0.4-1.5,0.5c-0.5,0.1-1.1,0.2-1.6,0.3c-2.1,0.2-4.4-0.5-6.2-1.6c-1.8-1.2-3.3-2.5-4.6-3.8
		s-2.4-2.9-3.3-4.6C1539.9,541.4,1539.4,539.5,1539.1,537.7z M1541.8,537.5c0.1,1.5,0.5,3,1.2,4.5c0.7,1.4,1.7,2.6,3,3.4
		c1.3,0.9,2.9,1.2,4.3,1.1c1.4-0.1,2.8-0.4,4-0.5s2.5,0,4.1-0.1c0.4,0,0.8-0.1,1.2-0.2c0.4-0.1,0.7-0.2,1.1-0.4
		c0.4-0.2,0.6-0.4,1-0.6c0.3-0.3,0.5-0.5,0.8-0.8c0.9-1.3,1.2-2.9,1.1-4.3c-0.1-1.4-0.4-2.7-0.4-3.9s-0.1-2.5-0.2-4
		c-0.1-1.4-0.7-3-1.8-4c-1.1-1.1-2.7-1.5-4.2-1.3c-0.4,0.1-0.7,0.1-1.1,0.2c-0.4,0.1-0.7,0.2-1.1,0.3c-0.4,0.1-0.6,0.2-1,0.2
		c-0.4,0.1-0.6,0.1-0.9,0.1c-1.3,0.1-2.5,0.1-3.9,0.3c-1.4,0.1-2.9,0.7-4.1,1.8s-2,2.4-2.4,3.9
		C1541.8,534.3,1541.6,536,1541.8,537.5z"/>
</g>
<g class="st1">
	<path class="st2" d="M1541.4,648.4c-0.1-1.9,0.1-3.7,0.7-5.5s1.4-3.4,2.5-5c1.1-1.5,2.2-3.1,3.8-4.6c1.5-1.4,3.7-2.4,5.8-2.6
		c0.5,0,1.1,0,1.6,0c0.5,0.1,1.1,0.2,1.6,0.4c0.5,0.2,1,0.4,1.5,0.6c0.4,0.3,0.9,0.5,1.3,0.8c1.7,1.2,3.1,2.4,4.6,3.6
		c1.5,1.2,3.1,2.3,4.6,3.9c1.4,1.5,2.4,3.6,2.6,5.8c0.2,2.1-0.4,4.4-1.6,6.2c-1.2,1.8-2.5,3.2-3.8,4.6c-0.4,0.4-0.6,0.7-1,1.1
		c-0.4,0.4-0.6,0.7-1,1.1c-0.4,0.4-0.6,0.7-1,1.2c-0.4,0.4-0.7,0.8-1.1,1.2c-0.4,0.4-0.8,0.7-1.2,1.1c-0.4,0.3-0.9,0.6-1.3,0.9
		c-0.4,0.3-1,0.4-1.5,0.5c-0.5,0.1-1.1,0.2-1.6,0.3c-2.1,0.2-4.4-0.5-6.1-1.6c-1.8-1.2-3.2-2.5-4.6-3.8s-2.4-2.9-3.3-4.5
		C1542.1,652,1541.5,650.2,1541.4,648.4z M1544,648.2c0.1,1.5,0.5,3,1.2,4.4c0.7,1.3,1.7,2.6,2.9,3.4c1.3,0.9,2.9,1.2,4.3,1.1
		c1.4-0.1,2.7-0.4,3.9-0.5c1.3-0.2,2.5,0,4,0c0.4,0,0.7-0.1,1.2-0.1c0.4-0.1,0.7-0.2,1.1-0.4c0.4-0.2,0.6-0.4,1-0.6
		c0.3-0.3,0.5-0.5,0.8-0.8c0.9-1.2,1.2-2.8,1.1-4.3c-0.1-1.4-0.4-2.7-0.4-3.9c-0.1-1.3-0.1-2.5-0.2-3.9s-0.6-2.9-1.8-4
		c-1.1-1.1-2.7-1.5-4.2-1.3c-0.4,0.1-0.7,0.1-1.1,0.2s-0.7,0.2-1,0.3c-0.4,0.1-0.6,0.2-1,0.2c-0.3,0.1-0.6,0.1-0.9,0.1
		c-1.3,0.1-2.5,0.1-3.9,0.2c-1.4,0.1-2.9,0.6-4,1.7c-1.1,1-2,2.4-2.4,3.8C1544,645.1,1543.9,646.7,1544,648.2z"/>
</g>
</svg>
