<?xml version="1.0" encoding="utf-8"?>
<!-- Generator: Adobe Illustrator 22.1.0, SVG Export Plug-In . SVG Version: 6.00 Build 0)  -->
<svg version="1.1" id="Layer_1" xmlns="http://www.w3.org/2000/svg" xmlns:xlink="http://www.w3.org/1999/xlink" x="0px" y="0px"
	 viewBox="0 0 1049.9 679.5" style="enable-background:new 0 0 1049.9 679.5;" xml:space="preserve">
<style type="text/css">
	.st0{fill:#503EA7;}
	.st1{fill:#6FDCCA;}
	.st2{fill:#8875E5;}
	.st3{fill:#F894A4;}
	.st4{fill:#35296F;}
	.st5{fill:#FBBFC8;}
	.st6{fill:#D2FAD6;}
	.st7{fill:#9CA8EF;}
</style>
<title>Artboard 1</title>
<g>
	<polygon class="st0" points="56.2,202.1 87.5,165.7 211.6,165.7 253.2,202.1 263.2,504.6 253.2,514.8 66.2,492 	"/>
	<polygon class="st1" points="276.1,214.9 272.1,226.1 283.6,503.6 504.2,514.8 508.2,503.6 500.7,214.9 458,173.5 310.2,173.5 	"/>
	<polygon class="st2" points="520.3,202.1 561.7,165.7 707.3,165.7 743.7,202.1 747.7,212.3 743.7,495.8 524.3,506 520.3,495.8 	"/>
	<polygon class="st3" points="760.8,192.1 798.4,148.2 940.4,143.1 981.6,182 988.6,192.2 981.6,477 767.8,497.2 760.8,487 	"/>
	<path class="st0" d="M424.7,437c-13.5,7.1-27.3,9.9-43.9,9.9c-40.4,0-74.7-29.6-74.7-76.9c0-50.8,35.2-94.6,89.9-94.6
		c42.9,0,71.7,30.1,71.7,71.2c0,37-20.7,58.6-43.9,58.6c-9.9,0-19-6.7-18.2-21.7h-1c-8.6,14.5-20,21.7-34.7,21.7
		c-14.3,0-26.6-11.6-26.6-31c0-30.6,24.1-58.4,58.4-58.4c10.6,0,20,2.2,26.4,5.2l-8.4,44.6c-3.7,18.7-0.7,27.3,7.4,27.6
		c12.6,0.2,26.6-16.5,26.6-45.1c0-35.7-21.4-61.3-59.6-61.3c-40.1,0-73.9,31.8-73.9,81.8c0,41.1,26.9,66.5,63.3,66.5
		c14,0,27.1-3,37.2-8.6L424.7,437z M411.2,330.5c-2.5-0.7-6.7-1.7-12.3-1.7c-21.7,0-39.2,20.5-39.2,44.3c0,10.8,5.4,18.7,16.3,18.7
		c14.3,0,27.3-18.2,30.1-33.5L411.2,330.5z"/>
	<path class="st4" d="M947.4,310.9c0,37.8-62.6,136.9-68.4,136.9s-68.4-99.1-68.4-136.9s30.6-68.4,68.4-68.4
		C916.8,242.5,947.4,273.2,947.4,310.9z M879,279.5c-18.9,0-34.1,15.3-34.1,34.1c0,18.9,15.3,34.1,34.1,34.1
		c18.9,0,34.1-15.3,34.1-34.1C913.2,294.8,897.9,279.5,879,279.5z"/>
	<path class="st5" d="M727.9,293.8V292c0-4.2-3.4-7.6-7.6-7.6H555.4c-4.2,0-7.6,3.4-7.6,7.6v1.8l90.1,66.8L727.9,293.8z"/>
	<g>
		<path class="st5" d="M727.6,412.1c0.2-0.7,0.3-1.3,0.3-2.1V303.3l-58.4,43.3L727.6,412.1z"/>
		<path class="st5" d="M555.3,417.6L555.3,417.6h165c0.1,0,0.1,0,0.1,0l-58.2-65.7L637.8,370l-24.4-18.1L555.3,417.6z"/>
		<path class="st5" d="M606.2,346.6l-58.4-43.3V410c0,0.7,0.1,1.4,0.3,2.1L606.2,346.6z"/>
	</g>
	<polygon class="st6" points="150.3,250.4 146.6,303.3 162.9,303.3 166.6,250.4 	"/>
	<polygon class="st6" points="83.8,426.8 115.8,384.8 129,396 95.7,440.6 	"/>
	<path class="st6" d="M135.6,397.9L102,445.3h24.5c0,0,19.8-4.6,34.5-32.6s31.1-68.1,33.3-76.6s6-24.8,6.9-41.1
		c0.9-16.3,0-24.2,0-24.2l-26.4-20.4l-4.7,54.6c0,0,5.3,3.5,5.3,6s1.3,4.7-8.8,32.9s-17.3,45.2-17.3,45.2s-6,9.7-10,7.8
		S135.6,397.9,135.6,397.9z"/>
	<polygon class="st7" points="46.2,212.3 77.5,175.9 201.6,175.9 243.2,212.3 253.2,514.8 56.2,502.2 	"/>
	<polygon class="st6" points="272.1,226.1 279.6,514.8 504.2,514.8 496.7,226.1 454,184.7 306.2,184.7 	"/>
	<polygon class="st0" points="524.3,212.3 565.7,175.9 711.3,175.9 747.7,212.3 747.7,506 524.3,506 	"/>
	<polygon class="st5" points="767.8,202.3 805.4,158.4 947.4,153.3 988.6,192.2 988.6,487.2 767.8,497.2 	"/>
	<path class="st0" d="M424.7,447.2c-13.5,7.1-27.3,9.9-43.9,9.9c-40.4,0-74.7-29.6-74.7-76.9c0-50.8,35.2-94.6,89.9-94.6
		c42.9,0,71.7,30.1,71.7,71.2c0,37-20.7,58.6-43.9,58.6c-9.9,0-19-6.7-18.2-21.7h-1c-8.6,14.5-20,21.7-34.7,21.7
		c-14.3,0-26.6-11.6-26.6-31c0-30.6,24.1-58.4,58.4-58.4c10.6,0,20,2.2,26.4,5.2l-8.4,44.6c-3.7,18.7-0.7,27.3,7.4,27.6
		c12.6,0.2,26.6-16.5,26.6-45.1c0-35.7-21.4-61.3-59.6-61.3c-40.1,0-73.9,31.8-73.9,81.8c0,41.1,26.9,66.5,63.3,66.5
		c14,0,27.1-3,37.2-8.6L424.7,447.2z M411.2,340.7c-2.5-0.7-6.7-1.7-12.3-1.7c-21.7,0-39.2,20.5-39.2,44.3
		c0,10.8,5.4,18.7,16.3,18.7c14.3,0,27.3-18.2,30.1-33.5L411.2,340.7z"/>
	<path class="st4" d="M947.4,313.1c0,37.8-62.6,136.9-68.4,136.9s-68.4-99.1-68.4-136.9s30.6-68.4,68.4-68.4
		C916.8,244.7,947.4,275.4,947.4,313.1z M879,281.7c-18.9,0-34.1,15.3-34.1,34.1c0,18.9,15.3,34.1,34.1,34.1
		c18.9,0,34.1-15.3,34.1-34.1C913.2,297,897.9,281.7,879,281.7z"/>
	<path class="st5" d="M727.9,304v-1.8c0-4.2-3.4-7.6-7.6-7.6H555.4c-4.2,0-7.6,3.4-7.6,7.6v1.8l90.1,66.8L727.9,304z"/>
	<g>
		<path class="st5" d="M727.6,422.3c0.2-0.7,0.3-1.3,0.3-2.1V313.5l-58.4,43.3L727.6,422.3z"/>
		<path class="st5" d="M555.3,427.8L555.3,427.8h165c0.1,0,0.1,0,0.1,0l-58.2-65.7l-24.4,18.1l-24.4-18.1L555.3,427.8z"/>
		<path class="st5" d="M606.2,356.8l-58.4-43.3v106.7c0,0.7,0.1,1.4,0.3,2.1L606.2,356.8z"/>
	</g>
	<polygon class="st6" points="150.3,260.6 146.6,313.5 162.9,313.5 166.6,260.6 	"/>
	<polygon class="st6" points="83.8,437 115.8,395 129,406.2 95.7,450.8 	"/>
	<path class="st6" d="M135.6,408.1L102,455.5h24.5c0,0,19.8-4.6,34.5-32.6s31.1-68.1,33.3-76.6s6-24.8,6.9-41.1
		c0.9-16.3,0-24.2,0-24.2l-26.4-20.4l-4.7,54.6c0,0,5.3,3.5,5.3,6s1.3,4.7-8.8,32.9s-17.3,45.2-17.3,45.2s-6,9.7-10,7.8
		S135.6,408.1,135.6,408.1z"/>
</g>
</svg>
