<svg id="Layer_1" data-name="Layer 1" xmlns="http://www.w3.org/2000/svg" viewBox="0 0 960.36 600"><defs><style>.cls-1{fill:#fff;}.cls-2{fill:#23576b;}.cls-3{fill:#85b4c7;}.cls-4{fill:#fcd4db;}.cls-5{fill:#503ea7;}.cls-6{fill:#b5deef;}.cls-7{fill:#323071;}.cls-8{fill:#8875e5;}.cls-9{fill:#f9a9b6;}.cls-10,.cls-15,.cls-19{fill:none;}.cls-10,.cls-15,.cls-19,.cls-20{stroke:#fff;}.cls-10,.cls-13,.cls-15,.cls-19,.cls-20{stroke-miterlimit:10;}.cls-11{fill:#35296f;}.cls-12{fill:#45add6;}.cls-13{fill:#f9f8fe;stroke:#000;stroke-width:0.5px;}.cls-14{fill:#6fdcca;}.cls-15{stroke-width:3px;}.cls-16{fill:#d2fad6;}.cls-17{fill:#f8b0bc;}.cls-18{fill:#aad0e0;}.cls-19,.cls-20{stroke-width:4px;}.cls-20{fill:lime;}</style></defs><title>Step2L</title><polygon class="cls-1" points="0 249.85 90.27 249.79 89.36 0 468.69 0 499.47 40.12 960.37 40.12 960.37 600 0 600 0 249.85"/><path class="cls-2" d="M485.1,55.12v85.72H260.78v124h-228V615H993.18V55.12ZM779.63,80.65h188v321h-188ZM276.28,589.47H58.35V290.38H276.28Zm135.87,0H286.31V421.69h107.6l18.24,25.53Zm357.45,0H423.09V443.72l-2-2.87-18-25.53-3.23-4.58H286.31V166.37H510.63V80.65h258V448.13H542.54V294.94H531.6V459.07h238Zm198.78,0H779.63V410.74H968.38Z" transform="translate(-32.82 -15)"/><path class="cls-3" d="M507,264.85,492.39,33.24l18,21.88h21.89L501.51,15H122.18l.91,249.79h18.24l-.91-231.55h352" transform="translate(-32.82 -15)"/><g id="Kitchen"><circle class="cls-4" cx="614.94" cy="173.83" r="41.03"/><rect class="cls-5" x="677.83" y="220.31" width="37.26" height="30.32" rx="1.33" ry="1.33" transform="matrix(-0.67, 0.74, -0.74, -0.67, 1305.27, -138.42)"/><rect class="cls-6" x="686.28" y="239.35" width="37.26" height="7.52" rx="1.33" ry="1.33" transform="translate(1325.08 -131.93) rotate(132.1)"/><rect class="cls-5" x="579.55" y="136.51" width="37.26" height="30.32" rx="1.33" ry="1.33" transform="translate(61.83 493.43) rotate(-49.55)"/><rect class="cls-6" x="570.88" y="140.51" width="37.26" height="7.52" rx="1.33" ry="1.33" transform="translate(64.41 484.24) rotate(-49.55)"/><rect class="cls-5" x="677.83" y="133.79" width="37.26" height="30.32" rx="1.33" ry="1.33" transform="translate(337.69 -499.29) rotate(50.69)"/><rect class="cls-6" x="686.65" y="137.97" width="37.26" height="7.52" rx="1.33" ry="1.33" transform="translate(335.34 -508.76) rotate(50.69)"/><rect class="cls-5" x="583.8" y="217.09" width="37.26" height="30.32" rx="1.33" ry="1.33" transform="translate(832.58 806.92) rotate(-135.12)"/><rect class="cls-6" x="575.76" y="236.57" width="37.26" height="7.52" rx="1.33" ry="1.33" transform="translate(813.13 815.05) rotate(-135.12)"/><rect class="cls-7" x="509.73" y="279.94" width="40.12" height="153.19"/><rect class="cls-7" x="509.73" y="400.3" width="76.6" height="32.83"/><rect class="cls-1" x="515.59" y="289.06" width="28.72" height="32.83"/><rect class="cls-8" x="690.27" y="312.77" width="45.59" height="120.36"/><rect class="cls-9" x="545.62" y="404.54" width="36.36" height="4.56"/><circle class="cls-1" cx="530.21" cy="375.19" r="14.1"/></g><g id="Bathroom"><rect class="cls-8" x="344.22" y="434.95" width="35.11" height="35.11"/><path class="cls-7" d="M362,421.69v10.12c0,4.48-7.15,8.11-16,8.11s-16-3.63-16-8.11V421.69Z" transform="translate(-32.82 -15)"/><circle class="cls-10" cx="313.68" cy="413.83" r="3.08"/><path class="cls-11" d="M315.88,433.61V447c0,3.81-4.49,6.91-10,6.91s-10-3.1-10-6.91V433.61Z" transform="translate(-32.82 -15)"/><path class="cls-12" d="M260.49,406.69H286.4a0,0,0,0,1,0,0v8.78a3.15,3.15,0,0,1-3.15,3.15h-19.6a3.15,3.15,0,0,1-3.15-3.15v-8.78A0,0,0,0,1,260.49,406.69Z"/><rect class="cls-7" x="256.46" y="532.07" width="119.91" height="37.84" rx="9.12" ry="9.12"/><circle class="cls-13" cx="363.15" cy="550.99" r="3.53"/><path class="cls-14" d="M412.15,537.78c-25.44,0-46-20.38-46-45.52h46Z" transform="translate(-32.82 -15)"/></g><g id="BedroomLeft"><rect class="cls-6" x="25.53" y="529.33" width="217.93" height="45.14"/><line class="cls-15" x1="35.26" y1="537.54" x2="35.26" y2="567.63"/><line class="cls-15" x1="38.11" y1="537.54" x2="41.64" y2="567.63"/><line class="cls-15" x1="48.94" y1="537.54" x2="45.4" y2="567.63"/><line class="cls-15" x1="55.79" y1="537.54" x2="55.79" y2="567.63"/><line class="cls-15" x1="58.64" y1="537.54" x2="62.18" y2="567.63"/><line class="cls-15" x1="69.47" y1="537.54" x2="65.94" y2="567.63"/><line class="cls-15" x1="76.33" y1="537.54" x2="76.33" y2="567.63"/><line class="cls-15" x1="79.18" y1="537.54" x2="82.71" y2="567.63"/><line class="cls-15" x1="90" y1="537.54" x2="86.47" y2="567.63"/><line class="cls-15" x1="96.86" y1="537.54" x2="96.86" y2="567.63"/><line class="cls-15" x1="99.71" y1="537.54" x2="103.24" y2="567.63"/><line class="cls-15" x1="110.54" y1="537.54" x2="107" y2="567.63"/><line class="cls-15" x1="117.39" y1="537.54" x2="117.39" y2="567.63"/><line class="cls-15" x1="120.24" y1="537.54" x2="123.78" y2="567.63"/><line class="cls-15" x1="131.07" y1="537.54" x2="127.54" y2="567.63"/><line class="cls-15" x1="137.93" y1="537.54" x2="137.93" y2="567.63"/><line class="cls-15" x1="140.78" y1="537.54" x2="144.31" y2="567.63"/><line class="cls-15" x1="151.6" y1="537.54" x2="148.07" y2="567.63"/><line class="cls-15" x1="158.46" y1="537.54" x2="158.46" y2="567.63"/><line class="cls-15" x1="161.31" y1="537.54" x2="164.84" y2="567.63"/><line class="cls-15" x1="172.14" y1="537.54" x2="168.6" y2="567.63"/><line class="cls-15" x1="178.99" y1="537.54" x2="178.99" y2="567.63"/><line class="cls-15" x1="181.84" y1="537.54" x2="185.38" y2="567.63"/><line class="cls-15" x1="192.67" y1="537.54" x2="189.14" y2="567.63"/><line class="cls-15" x1="199.53" y1="537.54" x2="199.53" y2="567.63"/><line class="cls-15" x1="202.38" y1="537.54" x2="205.91" y2="567.63"/><line class="cls-15" x1="213.2" y1="537.54" x2="209.67" y2="567.63"/><line class="cls-15" x1="220.06" y1="537.54" x2="220.06" y2="567.63"/><line class="cls-15" x1="222.91" y1="537.54" x2="226.44" y2="567.63"/><line class="cls-15" x1="233.74" y1="537.54" x2="230.2" y2="567.63"/><rect class="cls-5" x="83.2" y="353.08" width="37.42" height="30.45" rx="1.34" ry="1.34" transform="translate(168.86 -15.59) rotate(30.6)"/><rect class="cls-16" x="77.38" y="374.38" width="37.42" height="7.55" rx="1.34" ry="1.34" transform="translate(173.06 -11.25) rotate(30.6)"/><rect class="cls-8" x="197.42" y="400.3" width="36.47" height="41.03"/><rect class="cls-8" x="35.26" y="284.04" width="105.17" height="36.02"/><rect class="cls-12" x="114.27" y="450.68" width="119.62" height="45.59" rx="5.47" ry="5.47"/><path class="cls-17" d="M200.2,450.68h28.22a5.47,5.47,0,0,1,5.47,5.47v34.65a5.47,5.47,0,0,1-5.47,5.47H199.53a0,0,0,0,1,0,0V451.36A.68.68,0,0,1,200.2,450.68Z"/><rect class="cls-1" x="205.31" y="457.29" width="22.8" height="32.37" rx="6.38" ry="6.38"/><path class="cls-14" d="M276.05,372.76c-29.71,0-53.79-23.81-53.79-53.18h53.79Z" transform="translate(-32.82 -15)"/></g><g id="Bedroom_Right" data-name="Bedroom Right"><rect class="cls-8" x="790.58" y="74.77" width="102.13" height="34.65"/><rect class="cls-5" x="901.8" y="142.34" width="37.5" height="30.51" rx="1.34" ry="1.34" transform="translate(1603.57 742.45) rotate(-149.75)"/><rect class="cls-16" x="907.58" y="143.9" width="37.5" height="7.57" rx="1.34" ry="1.34" transform="translate(1619.33 726.89) rotate(-149.75)"/><rect class="cls-18" x="806.28" y="256.53" width="74.16" height="119.76" rx="6.69" ry="6.69"/><path class="cls-9" d="M806.28,342h74.16a0,0,0,0,1,0,0v30.18a4.15,4.15,0,0,1-4.15,4.15H810.42a4.15,4.15,0,0,1-4.15-4.15V342A0,0,0,0,1,806.28,342Z"/><rect class="cls-1" x="811.67" y="348.19" width="28.72" height="21.88" rx="3.12" ry="3.12"/><rect class="cls-1" x="846.32" y="348.19" width="28.72" height="21.88" rx="3.12" ry="3.12"/><rect class="cls-8" x="887.74" y="339.21" width="41.54" height="36.47"/><rect class="cls-8" x="757.44" y="339.21" width="41.54" height="36.47"/><path class="cls-14" d="M779.63,240.37c29.71,0,53.8-23.81,53.8-53.18h-53.8Z" transform="translate(-32.82 -15)"/></g><g id="SideRoomRight"><rect class="cls-6" x="889.67" y="440.65" width="45.9" height="133.82"/><line class="cls-19" x1="897.77" y1="563.85" x2="927.86" y2="563.85"/><line class="cls-19" x1="897.77" y1="561" x2="927.86" y2="557.46"/><line class="cls-19" x1="897.77" y1="550.17" x2="927.86" y2="553.7"/><line class="cls-19" x1="897.77" y1="543.31" x2="927.86" y2="543.31"/><line class="cls-19" x1="897.77" y1="540.46" x2="927.86" y2="536.93"/><line class="cls-20" x1="897.77" y1="529.64" x2="927.86" y2="533.17"/><line class="cls-20" x1="897.77" y1="522.78" x2="927.86" y2="522.78"/><line class="cls-20" x1="897.77" y1="519.93" x2="927.86" y2="516.4"/><line class="cls-20" x1="897.77" y1="509.1" x2="927.86" y2="512.64"/><line class="cls-20" x1="897.77" y1="502.25" x2="927.86" y2="502.25"/><line class="cls-20" x1="897.77" y1="499.4" x2="927.86" y2="495.86"/><line class="cls-20" x1="897.77" y1="488.57" x2="927.86" y2="492.1"/><line class="cls-20" x1="897.77" y1="481.71" x2="927.86" y2="481.71"/><line class="cls-20" x1="897.77" y1="478.86" x2="927.86" y2="475.33"/><line class="cls-20" x1="897.77" y1="468.04" x2="927.86" y2="471.57"/><line class="cls-20" x1="897.77" y1="461.18" x2="927.86" y2="461.18"/><line class="cls-20" x1="897.77" y1="458.33" x2="927.86" y2="454.8"/><line class="cls-20" x1="897.77" y1="447.5" x2="927.86" y2="451.04"/><path class="cls-20" d="M930.59,455.65" transform="translate(-32.82 -15)"/><path class="cls-14" d="M779.63,549.26c29.71,0,53.8-23.81,53.8-53.18h-53.8Z" transform="translate(-32.82 -15)"/></g><g id="LivingRoom"><rect class="cls-5" x="349.17" y="349.52" width="42.63" height="43.1" rx="1.82" ry="1.82" transform="translate(-182.75 291.86) rotate(-38.01)"/><path class="cls-6" d="M380.75,349.59l-23.87,18.65a3.65,3.65,0,0,1-5.12-.62l-2.25-2.88a3.65,3.65,0,0,1,.63-5.12l22.43-17.53a1.83,1.83,0,0,1,2.56.31Z" transform="translate(-32.82 -15)"/><path class="cls-6" d="M399.12,376.05l-22.43,17.53a3.65,3.65,0,0,1-5.12-.63l-2.25-2.87A3.65,3.65,0,0,1,370,385l23.87-18.66,5.61,7.19A1.83,1.83,0,0,1,399.12,376.05Z" transform="translate(-32.82 -15)"/><rect class="cls-5" x="353.48" y="170.64" width="42.63" height="43.1" rx="1.82" ry="1.82" transform="translate(534.17 -197.61) rotate(90)"/><path class="cls-6" d="M385.41,213.51v-30.3a3.65,3.65,0,0,1,3.64-3.65h3.65a3.65,3.65,0,0,1,3.65,3.65v28.47a1.83,1.83,0,0,1-1.82,1.83Z" transform="translate(-32.82 -15)"/><path class="cls-6" d="M353.25,211.68V183.21a3.65,3.65,0,0,1,3.64-3.65h3.65a3.65,3.65,0,0,1,3.65,3.65v30.3h-9.12A1.82,1.82,0,0,1,353.25,211.68Z" transform="translate(-32.82 -15)"/><path class="cls-5" d="M267.59,257.49h50a0,0,0,0,1,0,0V305a2.17,2.17,0,0,1-2.17,2.17H267.59a2.17,2.17,0,0,1-2.17-2.17V259.66a2.17,2.17,0,0,1,2.17-2.17Z"/><path class="cls-5" d="M267.62,206.2h47.82a2.19,2.19,0,0,1,2.19,2.19v48.7a0,0,0,0,1,0,0h-50a2.19,2.19,0,0,1-2.19-2.19V208.39A2.19,2.19,0,0,1,267.62,206.2Z"/><path class="cls-6" d="M348.16,322.29h-39.4a4.58,4.58,0,0,1-4.58-4.58V314.2a4.58,4.58,0,0,1,4.58-4.58h41.69V320A2.29,2.29,0,0,1,348.16,322.29Z" transform="translate(-32.82 -15)"/><path class="cls-6" d="M348.16,221.2h-39.4a4.58,4.58,0,0,0-4.58,4.58v3.51a4.59,4.59,0,0,0,4.58,4.59h41.69V223.49A2.3,2.3,0,0,0,348.16,221.2Z" transform="translate(-32.82 -15)"/><rect class="cls-14" x="469.6" y="279.94" width="22.8" height="103.95"/><rect class="cls-5" x="475.99" y="298.18" width="10.49" height="67.35"/><path class="cls-14" d="M525.22,589.47a71.38,71.38,0,0,1,71.38-71.38v71.38Z" transform="translate(-32.82 -15)"/><path class="cls-14" d="M466,219.55c-29.71,0-53.8-23.81-53.8-53.18H466Z" transform="translate(-32.82 -15)"/><path class="cls-14" d="M626.33,501.17a42.09,42.09,0,0,0,42.09-42.1H626.33Z" transform="translate(-32.82 -15)"/><path class="cls-16" d="M295.24,221.2H305.9a2.61,2.61,0,0,1,2.79,2.4l0,10.36.13,37.72-.13,37.74,0,10.36a2.61,2.61,0,0,1-2.79,2.4H295.24a2.61,2.61,0,0,1-2.79-2.4V223.6A2.61,2.61,0,0,1,295.24,221.2Z" transform="translate(-32.82 -15)"/><rect class="cls-16" x="368.84" y="155.28" width="11.91" height="43.1" rx="1.82" ry="1.82" transform="translate(518.81 -212.97) rotate(90)"/><rect class="cls-16" x="352.43" y="358.98" width="11.91" height="43.1" rx="1.82" ry="1.82" transform="translate(-191.14 286.42) rotate(-38.01)"/></g></svg>