<?xml version="1.0" encoding="utf-8"?>
<!-- Generator: Adobe Illustrator 22.1.0, SVG Export Plug-In . SVG Version: 6.00 Build 0)  -->
<svg version="1.1" id="Layer_1" xmlns="http://www.w3.org/2000/svg" xmlns:xlink="http://www.w3.org/1999/xlink" x="0px" y="0px"
	 viewBox="0 0 1049.9 679.5" style="enable-background:new 0 0 1049.9 679.5;" xml:space="preserve">
<style type="text/css">
	.st0{fill:#503EA7;}
	.st1{opacity:5.000000e-02;}
	.st2{fill:#FFFFFF;}
	.st3{fill:#D2FAD6;}
	.st4{font-family:'MyriadPro-Regular';}
	.st5{font-size:90px;}
	.st6{opacity:0.2;fill:#23146B;}
	.st7{fill:#FFFFFF;stroke:#F8B0BC;stroke-width:22;stroke-miterlimit:10;}
	.st8{fill:#6A52DE;}
	.st9{fill:#6FDCCA;}
</style>
<title>Step-4</title>
<g>
	<g>
		<path class="st0" d="M942.3,522.2H62.1c-6.8,0-12.4-5.6-12.4-12.4V132.1c0-6.8,5.6-12.4,12.4-12.4h880.2c6.8,0,12.4,5.6,12.4,12.4
			v377.8C954.7,516.7,949.1,522.2,942.3,522.2z"/>
	</g>
	<g class="st1">
		<path class="st2" d="M753.4,522.2H251c-110.7,0-201.3-90.6-201.3-201.3v0c0-110.7,90.6-201.3,201.3-201.3h502.4
			c110.7,0,201.3,90.6,201.3,201.3v0C954.7,431.7,864.1,522.2,753.4,522.2z"/>
	</g>
	<g>
		<path class="st3" d="M795.7,312.2h-68.2c-6.6,0-12-5.4-12-12V232c0-6.6,5.4-12,12-12h68.2c6.6,0,12,5.4,12,12v68.2
			C807.7,306.8,802.3,312.2,795.7,312.2z"/>
		<path class="st3" d="M191.8,312.2h-68.2c-6.6,0-12-5.4-12-12V232c0-6.6,5.4-12,12-12h68.2c6.6,0,12,5.4,12,12v68.2
			C203.8,306.8,198.4,312.2,191.8,312.2z"/>
		<text transform="matrix(1 0 0 1 121.5557 296.5363)" class="st2 st4 st5">M</text>
		<path class="st3" d="M314,312.2h-68.2c-6.6,0-12-5.4-12-12V232c0-6.6,5.4-12,12-12H314c6.6,0,12,5.4,12,12v68.2
			C326,306.8,320.6,312.2,314,312.2z"/>
		<g>
			<path class="st2" d="M275.9,244.8h-18.4v-6.7h44.9v6.7h-18.5v54h-7.9V244.8z"/>
		</g>
		<path class="st3" d="M558.3,312.2h-68.2c-6.6,0-12-5.4-12-12V232c0-6.6,5.4-12,12-12h68.2c6.6,0,12,5.4,12,12v68.2
			C570.3,306.8,564.9,312.2,558.3,312.2z"/>
		<g>
			<path class="st2" d="M520.2,244.9h-18.4v-6.7h44.9v6.7h-18.5v54h-7.9V244.9z"/>
		</g>
		<path class="st3" d="M680.4,312.2h-68.2c-6.6,0-12-5.4-12-12V232c0-6.6,5.4-12,12-12h68.2c6.6,0,12,5.4,12,12v68.2
			C692.4,306.8,687,312.2,680.4,312.2z"/>
		<g>
			<path class="st2" d="M631.3,238.2h32.7v6.6h-24.8v20.2H662v6.5h-22.9v27.4h-7.8V238.2z"/>
		</g>
		<path class="st3" d="M436.1,312.2H368c-6.6,0-12-5.4-12-12V232c0-6.6,5.4-12,12-12h68.2c6.6,0,12,5.4,12,12v68.2
			C448.1,306.8,442.7,312.2,436.1,312.2z"/>
		<g>
			<path class="st2" d="M380.7,298.8l-15.4-60.7h8.3l7.2,30.7c1.8,7.6,3.4,15.1,4.5,21h0.2c1-6,2.9-13.2,5-21.1l8.1-30.6h8.2
				l7.4,30.8c1.7,7.2,3.3,14.4,4.2,20.8h0.2c1.3-6.7,3-13.4,4.9-21l8-30.6h8l-17.2,60.7H414l-7.6-31.6c-1.9-7.7-3.2-13.7-4-19.8
				h-0.2c-1.1,6-2.4,12-4.7,19.8l-8.6,31.6H380.7z"/>
		</g>
		<g>
			<path class="st2" d="M181,269.9c-0.5-9-1.1-19.9-1-28h-0.3c-2.2,7.6-4.9,15.7-8.2,24.6l-11.4,31.4h-6.3l-10.5-30.8
				c-3.1-9.1-5.7-17.5-7.5-25.2h-0.2c-0.2,8.1-0.7,18.9-1.2,28.6l-1.7,27.8h-8l4.5-64.8h10.7l11,31.3c2.7,8,4.9,15.1,6.5,21.8h0.3
				c1.6-6.5,3.9-13.6,6.8-21.8l11.5-31.3h10.7l4,64.8h-8.2L181,269.9z"/>
		</g>
	</g>
	<path class="st3" d="M795.7,432.3h-68.2c-6.6,0-12-5.4-12-12v-68.2c0-6.6,5.4-12,12-12h68.2c6.6,0,12,5.4,12,12v68.2
		C807.7,426.9,802.3,432.3,795.7,432.3z"/>
	<path class="st3" d="M191.8,432.3h-68.2c-6.6,0-12-5.4-12-12v-68.2c0-6.6,5.4-12,12-12h68.2c6.6,0,12,5.4,12,12v68.2
		C203.8,426.9,198.4,432.3,191.8,432.3z"/>
	<text transform="matrix(1 0 0 1 121.5557 416.611)" class="st2 st4 st5">M</text>
	<path class="st3" d="M314,432.3h-68.2c-6.6,0-12-5.4-12-12v-68.2c0-6.6,5.4-12,12-12H314c6.6,0,12,5.4,12,12v68.2
		C326,426.9,320.6,432.3,314,432.3z"/>
	<g>
		<path class="st2" d="M275.9,364.9h-18.4v-6.7h44.9v6.7h-18.5v54h-7.9V364.9z"/>
	</g>
	<path class="st3" d="M558.3,432.3h-68.2c-6.6,0-12-5.4-12-12v-68.2c0-6.6,5.4-12,12-12h68.2c6.6,0,12,5.4,12,12v68.2
		C570.3,426.9,564.9,432.3,558.3,432.3z"/>
	<g>
		<path class="st2" d="M520.2,364.9h-18.4v-6.7h44.9v6.7h-18.5v54h-7.9V364.9z"/>
	</g>
	<path class="st3" d="M680.4,432.3h-68.2c-6.6,0-12-5.4-12-12v-68.2c0-6.6,5.4-12,12-12h68.2c6.6,0,12,5.4,12,12v68.2
		C692.4,426.9,687,432.3,680.4,432.3z"/>
	<g>
		<path class="st2" d="M631.3,358.3h32.7v6.6h-24.8V385H662v6.5h-22.9v27.4h-7.8V358.3z"/>
	</g>
	<path class="st3" d="M436.1,432.3H368c-6.6,0-12-5.4-12-12v-68.2c0-6.6,5.4-12,12-12h68.2c6.6,0,12,5.4,12,12v68.2
		C448.1,426.9,442.7,432.3,436.1,432.3z"/>
	<g>
		<path class="st2" d="M380.7,418.9l-15.4-60.7h8.3l7.2,30.7c1.8,7.6,3.4,15.1,4.5,21h0.2c1-6,2.9-13.2,5-21.1l8.1-30.6h8.2
			l7.4,30.8c1.7,7.2,3.3,14.4,4.2,20.8h0.2c1.3-6.7,3-13.4,4.9-21l8-30.6h8l-17.2,60.7H414l-7.6-31.6c-1.9-7.7-3.2-13.7-4-19.8h-0.2
			c-1.1,6-2.4,12-4.7,19.8l-8.6,31.6H380.7z"/>
	</g>
	<g>
		<path class="st2" d="M181,390c-0.5-9-1.1-19.9-1-28h-0.3c-2.2,7.6-4.9,15.7-8.2,24.6L160.1,418h-6.3l-10.5-30.8
			c-3.1-9.1-5.7-17.5-7.5-25.2h-0.2c-0.2,8.1-0.7,18.9-1.2,28.6l-1.7,27.8h-8l4.5-64.8h10.7l11,31.3c2.7,8,4.9,15.1,6.5,21.8h0.3
			c1.6-6.5,3.9-13.6,6.8-21.8l11.5-31.3h10.7l4,64.8h-8.2L181,390z"/>
	</g>
	<path class="st6" d="M825.2,194.7c-117.4,0-212.7,95.2-212.7,212.7c0,42.3,12.4,81.8,33.7,114.9h296.1c6.8,0,12.4-5.6,12.4-12.4
		V238.7C918.8,211.1,873.9,194.7,825.2,194.7z"/>
	<circle class="st7" cx="825.2" cy="407.3" r="171.1"/>
	<path class="st8" d="M827.3,429h-7.6c-6.6,0-12-5.4-12-12V294.9c0-6.6,5.4-12,12-12h7.6c6.6,0,12,5.4,12,12V417
		C839.3,423.6,833.9,429,827.3,429z"/>
	<path class="st8" d="M816.8,417.3V409c0-6.4,5.2-11.7,11.7-11.7h114.6c6.4,0,11.7,5.2,11.7,11.7v8.3c0,6.4-5.2,11.7-11.7,11.7
		H828.5C822.1,428.9,816.8,423.7,816.8,417.3z"/>
	<g>
		<path class="st6" d="M166,119.6v39.1c0,7.7,6.3,14.1,14.1,14.1h19.3c7.7,0,14.1-6.3,14.1-14.1v-39.1H166z"/>
		<path class="st9" d="M198,166.2h-16.5c-6.6,0-12-5.4-12-12V102c0-6.6,5.4-12,12-12H198c6.6,0,12,5.4,12,12v52.2
			C210,160.8,204.6,166.2,198,166.2z"/>
	</g>
	<g>
		<path class="st6" d="M470.5,119.6v39.1c0,7.7,6.3,14.1,14.1,14.1h19.3c7.7,0,14.1-6.3,14.1-14.1v-39.1H470.5z"/>
		<path class="st9" d="M502.5,166.2H486c-6.6,0-12-5.4-12-12V102c0-6.6,5.4-12,12-12h16.5c6.6,0,12,5.4,12,12v52.2
			C514.5,160.8,509.1,166.2,502.5,166.2z"/>
	</g>
	<g>
		<path class="st6" d="M799.8,119.6v39.1c0,7.7,6.3,14.1,14.1,14.1h19.3c7.7,0,14.1-6.3,14.1-14.1v-39.1H799.8z"/>
		<path class="st9" d="M831.8,166.2h-16.5c-6.6,0-12-5.4-12-12V102c0-6.6,5.4-12,12-12h16.5c6.6,0,12,5.4,12,12v52.2
			C843.8,160.8,838.4,166.2,831.8,166.2z"/>
	</g>
</g>
</svg>
