<svg id="Layer_1" data-name="Layer 1" xmlns="http://www.w3.org/2000/svg" xmlns:xlink="http://www.w3.org/1999/xlink" viewBox="0 0 960.31 600"><defs><style>.cls-1,.cls-18,.cls-25,.cls-27{fill:#35296f;}.cls-1,.cls-21,.cls-26{opacity:0.3;}.cls-1,.cls-18,.cls-20,.cls-21,.cls-23,.cls-24,.cls-25,.cls-26,.cls-27{isolation:isolate;}.cls-2{fill:#fff;}.cls-15,.cls-2{stroke:#3482a1;stroke-width:11px;}.cls-13,.cls-15,.cls-2,.cls-26{stroke-miterlimit:10;}.cls-3{fill:url(#linear-gradient);}.cls-4{fill:url(#linear-gradient-2);}.cls-5{fill:url(#linear-gradient-3);}.cls-6{fill:url(#linear-gradient-4);}.cls-7{fill:url(#linear-gradient-5);}.cls-8{fill:url(#linear-gradient-6);}.cls-9{fill:url(#linear-gradient-7);}.cls-10{fill:url(#linear-gradient-8);}.cls-11{fill:#fcd4db;}.cls-12{fill:#45add6;}.cls-13,.cls-15,.cls-16,.cls-26{fill:none;}.cls-13{stroke:#6fdcca;stroke-width:8px;}.cls-14{fill:#503ea7;}.cls-17{fill:#f894a4;}.cls-18,.cls-20{opacity:0.2;}.cls-19{fill:#d2fad6;}.cls-20,.cls-21{fill:#23146b;}.cls-22,.cls-27{opacity:0.5;}.cls-23{fill:#323071;}.cls-23,.cls-24,.cls-25{opacity:0.4;}.cls-24{fill:#796ece;}.cls-26{stroke:#fff;stroke-width:4px;}</style><linearGradient id="linear-gradient" x1="136.92" y1="154.44" x2="145" y2="407.17" gradientTransform="translate(-42.35 -101)" gradientUnits="userSpaceOnUse"><stop offset="0" stop-color="#f894a4"/><stop offset="0.36" stop-color="#fab1bd"/><stop offset="0.76" stop-color="#fbcad3"/><stop offset="1" stop-color="#fcd4db"/></linearGradient><linearGradient id="linear-gradient-2" x1="179.68" y1="80.86" x2="189.43" y2="385.66" xlink:href="#linear-gradient"/><linearGradient id="linear-gradient-3" x1="89.2" y1="112.07" x2="97.29" y2="365.04" xlink:href="#linear-gradient"/><linearGradient id="linear-gradient-4" x1="221.42" y1="154.44" x2="229.5" y2="407.17" xlink:href="#linear-gradient"/><linearGradient id="linear-gradient-5" x1="270.29" y1="95.48" x2="278.38" y2="348.45" xlink:href="#linear-gradient"/><linearGradient id="linear-gradient-6" x1="315.07" y1="148.87" x2="323.16" y2="401.6" xlink:href="#linear-gradient"/><linearGradient id="linear-gradient-7" x1="366.98" y1="154.43" x2="375.07" y2="407.17" xlink:href="#linear-gradient"/><linearGradient id="linear-gradient-8" x1="419.35" y1="181.9" x2="427.44" y2="434.87" xlink:href="#linear-gradient"/></defs><title>Step2</title><path class="cls-1" d="M739.41,306.15c5.77,3.34-21.55,20.24-27.42,23.78a368,368,0,0,0-35.72,24.29c-5.27,4.15-10.53,8.3-15.89,12.55-4.15,3.44-9.21,6.37-12.25,11-.1.11-.1.21-.2.31-3.24,5.06-3.74,10.83-5.77,16.29-1.82,5.26-4.15,10.12-5.77,15.48,0,2.33-1.61,5.57-2.32,7.79-.81,2.53-1.82,4.86-2.43,7.49-1.52,6.38-7.19,16.29-7.19,22.77,0,0-13.76-49.89,7.19-82.27S716.84,293.3,739.41,306.15Z" transform="translate(-42.35 -15)"/><path class="cls-2" d="M550.18,20.5H991.59a5.55,5.55,0,0,1,5.56,5.57h0V307a5.54,5.54,0,0,1-5.56,5.57H550.18a5.55,5.55,0,0,1-5.57-5.57h0V26.07A5.55,5.55,0,0,1,550.18,20.5Z" transform="translate(-42.35 -15)"/><path class="cls-2" d="M53.41,20.5H494.82a5.55,5.55,0,0,1,5.57,5.57h0V307a5.55,5.55,0,0,1-5.57,5.57H53.41A5.55,5.55,0,0,1,47.85,307h0V26.07A5.61,5.61,0,0,1,53.41,20.5Z" transform="translate(-42.35 -15)"/><polygon class="cls-3" points="83.42 122.47 83.42 227.81 113.47 227.81 113.47 121.36 83.42 122.47"/><polygon class="cls-4" points="127.03 63.28 127.03 190.27 156.99 190.27 156.99 61.76 127.03 63.28"/><polygon class="cls-5" points="35.76 80.28 35.76 185.72 65.71 185.72 65.71 78.96 35.76 80.28"/><polygon class="cls-6" points="167.92 122.47 167.92 227.81 197.97 227.81 197.97 121.36 167.92 122.47"/><polygon class="cls-7" points="216.79 63.58 216.79 169.02 246.85 169.02 246.85 62.47 216.79 63.58"/><polygon class="cls-8" points="261.62 116.91 261.62 222.25 291.58 222.25 291.58 115.8 261.62 116.91"/><polygon class="cls-9" points="313.54 122.47 313.54 227.81 343.49 227.81 343.49 121.36 313.54 122.47"/><polygon class="cls-10" points="365.85 150 365.85 255.54 395.91 255.54 395.91 148.78 365.85 150"/><path class="cls-1" d="M473.27,305.65a5.72,5.72,0,0,1-4,.81,26.29,26.29,0,0,1-2.43-1.12c-6.88-4.25-13.66-8.5-20.54-12.75a24.3,24.3,0,0,0-5.87-2.83c-3.24-.91-6.68-.1-10,.61L418,293.1c-3.75.81-7.9,2.33-11.74,2.53-2.73.2-5.47-1.62-8.2-2.23a77.82,77.82,0,0,0-10.93-2c-6.88-.81-14-1.11-20.64-3.44-7.79-2.73-14.47-7.89-20.95-13.05-17.3-13.76-34.3-28-52.42-40.88a7.08,7.08,0,0,0-1-.61,10.66,10.66,0,0,1-.71-.81S235,165.7,225.54,154.78s-14.37-17.91-17.4-53.53c-2.94-17.81-12.25,18-12.25,18s-5.46,22.16-25.09-22.77c-16.09-36.93-12,13-8.4,30.06s7.79,18.21,7.79,18.21l32.69,25.5s49,97.44,55.35,97.14a6.17,6.17,0,0,0,1.11,2.63,132.65,132.65,0,0,1,9.41,14.27,52,52,0,0,0,12.86,13.35,178,178,0,0,0,17.91,11.13c1.62,1,3.34,1.93,5,2.94q19.13,11.68,36.93,25c2.94,2.33,5.77,4.66,8.81,6.88,2,1.52,3.94,1.82,6.17,2.53,6.58,1.93,13.46,3.85,19.53,6.48s11.64,7.18,16.29,11.74a68.2,68.2,0,0,1,17.91,30.05c3.44,12.34,3.34,24.69,3.24,37.44-.1,14.37,1.52-.2,0,31.37s.2,81.86,0,89-1.42,41.69,17,49.08c13.76,5.46,31.88,10.73,46.25,12a53.32,53.32,0,0,0,12.75-.1c14.47-2.33,60.61,2.73,78,.4l-93.5-308.92" transform="translate(-42.35 -15)"/><path class="cls-11" d="M552,223s73,17.91,126.69,0,126.7-75.49,174.06-92.19,84.5-15.38,102.41-11.53,38.76,35.82,38.76,35.82l-6.78,157.35H552Z" transform="translate(-42.35 -15)"/><polygon class="cls-12" points="498.32 285.89 566.83 146.46 615 271.12 638.17 236.92 677.63 274.36 703.44 101.73 750.7 247.14 803.12 155.06 846.12 263.33 889.94 67.12 924.25 241.98 951.77 80.78 954.71 296.72 509.65 297.43 498.32 285.89"/><polyline class="cls-13" points="502.26 227.81 616.82 275.37 828.41 205.35 923.13 132.29 954.71 147.26"/><path id="path" class="cls-14" d="M657.14,74a19.22,19.22,0,0,1,14.07-5.77,19.69,19.69,0,0,1,19.93,19.53v.4a24.11,24.11,0,0,1-2,9.52A64.25,64.25,0,0,1,684,107.83c-2,3.13-4.05,6.07-5.77,9-2,2.94-3.44,5-4.86,6.68L671,125.84a34.17,34.17,0,0,0-2.32-2.53c-.91-1.12-2.53-3.14-4.86-6.38s-4.35-6.07-6.07-9a59,59,0,0,1-4.86-9.82,30,30,0,0,1-2.33-9.81A22.34,22.34,0,0,1,657.14,74Zm9.21,19.33a7.66,7.66,0,1,0,.4-10.83,7.48,7.48,0,0,0-2.43,5.66A6.72,6.72,0,0,0,666.35,93.36Z" transform="translate(-42.35 -15)"/><path id="path-2" class="cls-14" d="M827.15,84.75A18.86,18.86,0,0,1,841.21,79a19.74,19.74,0,0,1,19.94,19.42h0v.11h0v.4a23.86,23.86,0,0,1-2,9.51A62.59,62.59,0,0,1,854,118.55c-2,3.14-4,6.07-5.76,9-2,2.93-3.45,4.85-4.86,6.68L841,136.56c-.61-.6-1.11-1.41-2.33-2.53-.81-1.11-2.53-3.13-4.85-6.37s-4.36-6.07-6.08-9a86.75,86.75,0,0,1-4.85-9.81A30.1,30.1,0,0,1,820.57,99,22.11,22.11,0,0,1,827.15,84.75Zm9.21,19.33a7.57,7.57,0,1,0-2-5.16A6.71,6.71,0,0,0,836.36,104.08Z" transform="translate(-42.35 -15)"/><path id="path-3" class="cls-14" d="M736.48,174.91a18.83,18.83,0,0,1,14.06-5.76,19.75,19.75,0,0,1,19.94,19.52v.41a23.86,23.86,0,0,1-2,9.51,62.59,62.59,0,0,1-5.16,10.12c-2,3.14-4,6.07-5.77,9-2,2.83-3.44,4.85-4.85,6.67l-2.33,2.33c-.61-.61-1.11-1.42-2.33-2.53-.91-1.11-2.53-3.14-4.85-6.37s-4.36-6.07-6.08-9a58.85,58.85,0,0,1-4.85-9.81,30.1,30.1,0,0,1-2.33-9.82A22.33,22.33,0,0,1,736.48,174.91Zm9.2,19.33a7.66,7.66,0,1,0,.41-10.83,7.17,7.17,0,0,0-2.43,5.67,7.75,7.75,0,0,0,2,5.16Z" transform="translate(-42.35 -15)"/><path class="cls-14" d="M248.21,146.48c-4.55,1.21-8.8,2.43-13.05,3.44a13.23,13.23,0,0,1-3.44.1,3.17,3.17,0,0,1-3.24-2.33,74.87,74.87,0,0,0-3.54-8.19c-1.22-2.43-3.24-3-5.47-1.42a58.18,58.18,0,0,0-5.16,4.76,22.76,22.76,0,0,0-2.63,2.73c-1.32,1.62-2.53,1.41-4.15.3-3.74-2.63-7.69-5.06-11.64-7.38a2,2,0,0,1-1.11-2.53h0c.1-.11.1-.31.2-.41l3-7c1.52-3.75,1.21-5.67-1.52-7.49a7.63,7.63,0,0,0-3.95-1c-2.63,0-5.16.4-7.79.5a2.14,2.14,0,0,1-1.62-.8c-1.11-2.94-2.22-6-3-8.91a50.31,50.31,0,0,1-.71-5.56,3.71,3.71,0,0,1,2.43-4.46A36,36,0,0,1,187,98.92c5.16-1.42,6.58-7.49,2.53-10.83-1.62-1.41-3.14-3-4.76-4.45s-2.12-3-.91-4.86c2.33-3.64,4.76-7.28,7.29-10.82a2.09,2.09,0,0,1,2.63-.91c3.34,1.21,6.68,2.32,9.92,3.54a3.22,3.22,0,0,0,3.13-.51c2.63-1.72,3.44-3.94,2.94-7a46.92,46.92,0,0,1-.1-7.59,2.49,2.49,0,0,1,1-1.62c4.55-1.21,9.11-2.43,13.76-3.34,2.53-.5,4.66,1.42,5.36,4,.51,1.82,1.12,3.74,1.72,5.56.71,2,4.36,4,6.38,3.55.61-.21,1.11-.91,1.62-1.42,1.52-1.82,2.93-3.74,4.55-5.36,2.74-2.84,3.75-3.14,7.39-1.42a48.25,48.25,0,0,1,8.1,4.45c2.83,2,3.44,5,2.12,8.1-.71,1.51-1.42,3.13-2.23,4.55-.91,1.72-1.41,3.44-.4,5.16a5.4,5.4,0,0,0,5.26,2.83c2.94-.2,5.87-.2,8.91-.2a2,2,0,0,1,2.12,1.82v.1c1,5,2.13,9.82,3,14.78a2.18,2.18,0,0,1-.81,1.72c-2.94,1.52-6.07,2.83-9,4.25a3.76,3.76,0,0,0-1.11.5c-2.33,2.33-1.62,7.59,1,9.62,2.13,1.51,3.95,3.34,6,5.06a1.72,1.72,0,0,1,.41,2.32h0c0,.1-.11.1-.11.21-2.73,4.25-5.46,8.5-8.09,12.85-.61.91-1.11,1.21-2.23.81-2.53-1.12-5.16-2.13-7.79-3s-5.06-1-7,1.22c-1.42,1.72-1.42,3.94-1.42,6.07S248.21,143.24,248.21,146.48ZM240,83.84c-10.22-6.17-21.35-4.25-27.22,5.16-6.17,9.82-4.15,22.16,5.16,27.83s20.45,4.15,26.72-5.77c6.07-9.61,4.45-21.85-4.66-27.22Z" transform="translate(-42.35 -15)"/><path class="cls-14" d="M125.56,136.66l-11.23-4.85c-.2-.1-.3-.21-.5-.31-3.24-1.41-3.24-1.41-2.33-5a31.07,31.07,0,0,0,1.11-6.78,3.51,3.51,0,0,0-3.14-3.85H109a43.06,43.06,0,0,0-7.9,1.11c-1.82.51-2.83-.1-3.44-1.62-1.51-3.54-2.93-7.18-4.35-10.82-.81-2,.61-3.65,2.23-4.66A38.39,38.39,0,0,0,100,97.5c3-2.22,3.14-5.76.2-8.19-2-1.62-4.25-2.94-6.27-4.56a2.66,2.66,0,0,1-.81-2.22c1.42-3.64,3-7.08,4.55-10.63a2.29,2.29,0,0,1,2.74-1.41l.2.1c.1,0,.1,0,.1.1,2.53.71,5.16,1.21,7.79,1.72A4.52,4.52,0,0,0,113.62,69a4.41,4.41,0,0,0,0-1.62c-.5-2.93-1.11-5.87-1.82-9.31,2.53-1.11,5.06-2.43,7.69-3.54a26.12,26.12,0,0,1,4.56-1.32,4.18,4.18,0,0,1,5.06,2.43,25.75,25.75,0,0,1,1.41,2.94c1.12,2.93,3.14,4.35,6.28,4A3.2,3.2,0,0,0,138.62,61c1.21-1.72,2.22-3.65,3.44-5.37a4.2,4.2,0,0,1,5.06-1.82c3.14.91,6.47,1.42,9.11,3.74a5.49,5.49,0,0,1,2.12,6c-.4,1.52-.91,3-1.42,4.46a4.49,4.49,0,0,0,2.84,5.66,4,4,0,0,0,2.22.1c2.53-.4,5.06-.91,7.49-1.31a2.45,2.45,0,0,1,2.73,1.52,35.19,35.19,0,0,1,4.36,11.94,1.9,1.9,0,0,1-.51,1.62,44.8,44.8,0,0,1-6.27,4c-2.33,1.12-2.13,3-2.13,5a4.19,4.19,0,0,0,2.53,4.05c2,1.11,4.15,2.33,6.07,3.64a2.18,2.18,0,0,1,.51,1.72c-1.62,4-3.44,8.1-5.26,12a2.12,2.12,0,0,1-1.62.81c-2.23-.4-4.46-1.11-6.68-1.51a8.08,8.08,0,0,0-4.15.2c-2,.61-3,2.93-2.63,5.46.4,2.23.81,4.56,1.11,6.78a1.69,1.69,0,0,1-.5,1.52c-3.85,2.33-7.7,4.65-12.35,5.06a3.2,3.2,0,0,1-3.54-1.72,36.6,36.6,0,0,0-4.15-6.17c-1.62-2.13-3.34-2.23-5.26-.31A29.44,29.44,0,0,0,128.6,132,29.84,29.84,0,0,1,125.56,136.66Zm23.38-32.48c5.06-8,3-18.92-4.66-23.37-6.88-4-18.92-4.86-24.28,6.27-3.34,6.78-2.73,17.3,7,22.67,7,3.84,16.8,2.93,22-5.57Z" transform="translate(-42.35 -15)"/><path class="cls-14" d="M205,149.31c1.22,3.65,2.43,7.19,3.54,10.83a2.6,2.6,0,0,1-.4,1.72,16,16,0,0,1-8.3,5.56c-1.62.41-1.92,1.42-1.92,2.84-.1,4.05,2.22,6.68,5.26,8.8,2.63,1.92,2.73,2,1.32,4.76a23.47,23.47,0,0,1-6.89,8.5,1.7,1.7,0,0,1-2.22.1c-2.33-1.32-4.76-2.53-7-3.95-3.65-2.22-5.87-.61-7.19,2.43-1,2.53-2.12,5.16-3,7.79a3,3,0,0,1-3.45,2.23c-.1,0-.2,0-.2-.1-3.34-.61-6.58-1.42-9.92-2.33-.4-.1-.7-1-.8-1.52-.21-2.93-.31-5.77-.51-8.7-.3-4.35-1.32-5.06-5.57-4.45L149,185c-1,.1-1.52,0-1.92-1-1.42-3.74-3-7.39-4.66-11.43,2.84-1.83,5.27-3.85,8.2-5.06,3.34-1.32,4.15-6.58,1.62-9.11-1.82-1.82-3.64-3.64-5.26-5.46a1.58,1.58,0,0,1-.41-1.62c2.43-3.14,5-6.28,7.49-9.31a1.27,1.27,0,0,1,1.22-.1,47.38,47.38,0,0,1,7.28,3.13c4.86,2.94,6.48,1.62,8.6-3,1.12-2.43,2-5,3.14-7.29a2.45,2.45,0,0,1,1.72-1.11c2.93.4,6,.81,8.91,1.41s3.44,1.62,3.33,4.56a42,42,0,0,0,.21,7.18,4.13,4.13,0,0,0,4.15,3.95h0a1.7,1.7,0,0,0,.7-.1c2.94-.31,5.87-.81,8.81-1.22A23.2,23.2,0,0,1,205,149.31Zm-23.68,8.91c-4.65-3-11.74-1.42-14.87,3.44-2.84,4.25-1.32,11.13,3,13.76,5.16,3.14,12.45,1.62,15.69-2.73C188.61,168,185.47,160.65,181.32,158.22Z" transform="translate(-42.35 -15)"/><path class="cls-15" d="M550.18,20.5H991.59a5.55,5.55,0,0,1,5.56,5.57h0V307a5.54,5.54,0,0,1-5.56,5.57H550.18a5.55,5.55,0,0,1-5.57-5.57h0V26.07A5.55,5.55,0,0,1,550.18,20.5Z" transform="translate(-42.35 -15)"/><line class="cls-16" x1="445.6" y1="480.98" x2="463.71" y2="488.88"/><path class="cls-17" d="M493.31,305.45a74.14,74.14,0,0,0-7.19-21.36c-2.53-4.95-5.06-5.46-8.1-10.62-5-8.6-10.52-21.65-11.53-27.62-2.43-14.58-2.13-60.92,18.21-67.8,8.2-10.83,29.65-13.05,45.74-13.05,8.61.6,28.64,12,33.2,18.92,26,38.85.3,86.62.3,86.62s-8.3,8.29-10.12,13.66-4.25,16-4.25,16Z" transform="translate(-42.35 -15)"/><path class="cls-18" d="M491.48,297.65a81.7,81.7,0,0,0-5.36-13.56l7.89,8.3,2.13-8.09,7.59,7.28,6.37-7.38,4.76,8.19,12.24-7.89,2.33,8.4,4.15-8.7,6.68,9,1.62-5.26,5.87,3.34,5.36-4.76c-1.21,4.46-2.33,9-3.44,13.56h0l-58.39,5.37Z" transform="translate(-42.35 -15)"/><path class="cls-19" d="M860.44,134.64s2.23,22.87,28.23-19c21.36-34.41,17.91,4.15,11.74,20.64a80.88,80.88,0,0,1-18.11,27.62l-36,20.75s-71.74,103-69.32,87.22S749.53,234,749.53,234s65.78-58.49,76.4-68,16.7-15.69,25-50.8C856.49,97.81,860.44,134.64,860.44,134.64Z" transform="translate(-42.35 -15)"/><path class="cls-19" d="M215.32,98.62c3.14,35.92,8.1,42.9,17.41,53.93s65.88,78.32,65.88,78.32,1.72,1.72,1.41,1.92c-3.74,2.13-34.1,16.7-34,31.67.1,16-56-96.23-56-96.23l-32.68-25.7s-4.15-1.11-7.8-18.31S161.89,56.73,178,94c19.63,45.23,25.1,23,25.1,23S212.39,80.71,215.32,98.62Z" transform="translate(-42.35 -15)"/><path class="cls-14" d="M643.17,376.28c-.1.1-.1.2-.2.3-3.24,5.06-3.74,10.93-5.77,16.39-1.82,5.26-3.23,10.63-4.85,16.09,0,2.33-1.62,5.67-2.33,7.79-.81,2.53-1.82,5-2.43,7.59-1.52,6.48-1,12.65-1,19.13v106a171.39,171.39,0,0,0,0,30.56c1.52,16-34.71,31.88-52.22,34.2s-63.55-2.73-78-.5a49.47,49.47,0,0,1-12.75.1c-14.37-1.42-32.48-6.68-46.25-12.14-18.41-7.39-17.2-42.1-17-49.38s-1.51-57.78,0-89.56-.1-17.1,0-31.57c.11-12.75.21-25.19-3.23-37.64a68.41,68.41,0,0,0-17.92-30.25c-4.65-4.56-10.22-9.11-16.29-11.84S370,347,363.37,345c-2.33-.71-4.15-1-6.17-2.53-3-2.23-5.87-4.55-8.81-6.88q-17.76-13.37-36.93-25.1c-1.62-1-3.34-1.92-5-3a206.79,206.79,0,0,1-17.91-11.23,51,51,0,0,1-12.85-13.46,147.73,147.73,0,0,0-9.41-14.37C258.84,259,286,222,300.12,232.19c18.12,12.95,35.12,27.32,52.42,41.18,6.58,5.16,13.16,10.42,20.95,13.15,6.68,2.33,13.76,2.63,20.64,3.44a104.34,104.34,0,0,1,10.93,2c2.63.71,5.37,2.53,8.1,2.32,3.74-.2,7.89-1.72,11.74-2.52l12.34-2.74c3.34-.71,6.78-1.51,10-.6a25.4,25.4,0,0,1,5.87,2.83c6.88,4.25,13.66,8.6,20.54,12.85a8.72,8.72,0,0,0,2.43,1.11,5.2,5.2,0,0,0,4-.81c5.26-3.34,9.51-7,15.69-8.7a55.92,55.92,0,0,1,17.4-1.62c5.36.2,10.63.31,16.09.31,4,0,8,.3,12,.3,3.44,0,7.39-1.72,10.63.2a10.54,10.54,0,0,1,2.63,2.53c4.35,5.36,8.09,11.64,9.21,18.52,0-1.11,6.07-5,7.28-5.87,2.84-2.12,5.77-4.25,8.71-6.17,5-3.24,9.91-7.79,15.88-8.91,5.06-.91,10.12.21,15.18.51,3,.1,6.78,1.11,9.62.61l52.21-10.22,34.81-26.21,55.16-37.85,32.78,31.68c.61.6-7.59,10.52-8,11.63-2.53,6.07-4,7.9-8.4,13.06a79.79,79.79,0,0,1-11,10c-8.1,6.28-16.39,12.55-24.9,18.52-5.76,4.05-11.83,9.41-18.51,11.84-6.28,2.23-12,5.87-17.92,9.41A355.05,355.05,0,0,0,671,352.5c-5.26,4.15-10.52,8.4-15.88,12.65C651.37,368.59,646.31,371.52,643.17,376.28Z" transform="translate(-42.35 -15)"/><path class="cls-20" d="M495,472.1c0-6.07-20-20.64-18.32-31.77,1.82-12,23.38-22.46,21.35-35.42-1.52-9.51-19.43-9.71-23.07-18.11-2.33-5.36,24.69-40.27,21.25-44.72-8-10.53-33.7,2.63-49.38.2-76.91-12-160.6-91.88-160.6-91.88l-8.8-9.71c-8.81,9.41-15.08,22.86-10.93,27.82a135,135,0,0,1,9.41,14.37,52.14,52.14,0,0,0,12.85,13.36,185.07,185.07,0,0,0,17.91,11.23c1.62,1,3.34,1.92,5,3,12.75,7.8,25.1,16.19,36.94,25.1,3,2.33,5.87,4.65,8.8,6.88,2,1.52,4,1.82,6.17,2.53,6.58,1.92,13.36,3.74,19.53,6.58a57.43,57.43,0,0,1,16.3,11.84,69,69,0,0,1,17.91,30.25c3.44,12.35,3.34,24.89,3.24,37.64-.1,14.47,1.51-.3,0,31.57s.1,82.37,0,89.66-1.42,42,17,49.38c13.76,5.46,31.87,10.82,46.24,12.14a54.38,54.38,0,0,0,12.75-.1c2.43-.31,5.57-.61,11.14-5.57,0,0-17.82-13.76-18.22-21.35s14.17-18.92,14-27.62S474.69,522.8,475,514,495,478.17,495,472.1Z" transform="translate(-42.35 -15)"/><path class="cls-21" d="M743.36,306.86c-5.77,4.05-11.84,9.41-18.52,11.84-6.28,2.23-12,5.87-17.91,9.41a352.79,352.79,0,0,0-35.72,24.49l-13,10.32-2.83,2.33c-4.15,3.44-9.21,6.47-12.25,11.13-.1.1-.1.2-.2.3-3.24,5.06-3.74,10.93-5.77,16.39-.5,1.32-.91,2.64-1.31,3.95l-.61,2-.1.31c-.4,1.21-.71,2.43-1,3.64l-.71,2.33c-.3,1.21-.71,2.53-1.11,3.74,0,2.33-1.62,5.67-2.33,7.79-.81,2.53-1.82,5-2.43,7.59-.2,1-.4,2-.51,2.94h0s-3-39.37,17.51-61.93a46.67,46.67,0,0,1,5.06-4.86c2.13-1.31,4.35-2.53,6.78-4C664,352,674,345.11,691.55,328.42A80.39,80.39,0,0,1,743.36,306.86Z" transform="translate(-42.35 -15)"/><g class="cls-22"><path class="cls-23" d="M430.77,322.44a98.22,98.22,0,0,1,7,9.92c1,1.52,2,3,3.14,4.45a8.18,8.18,0,0,0,1.31,1.32c.1.1.1,0,.1.1s-.2,0,.1,0a4.64,4.64,0,0,0,1.12.1,53.66,53.66,0,0,0,5.66-.3c2-.2,4.05-.41,6.28-.51a19.79,19.79,0,0,1,3.44.1,14.47,14.47,0,0,1,2,.41,7.22,7.22,0,0,1,2.63,1.31,5.2,5.2,0,0,1,1.32,1.62l.1.2.1.11.1.3.21.51c.2.7.3,1.31.4,1.82l.51,3a19.64,19.64,0,0,0,1.51,4.86,13.71,13.71,0,0,0,3,3.74,9.64,9.64,0,0,0,2,1.52l1.12.71.6.3.61.31a47.59,47.59,0,0,0,5.26,2,138.66,138.66,0,0,0,23.18,5.06,204.34,204.34,0,0,0,47.86,1.11,57.49,57.49,0,0,0,6-.71c2-.3,3.95-.5,6-.8,4-.71,7.9-1.32,11.84-2.33,1.93-.51,3.85-.91,5.87-1.42s4.05-.91,6.07-1.31a62.31,62.31,0,0,1,12.25-.81v1.11A67.65,67.65,0,0,0,587.52,362a58.47,58.47,0,0,0-5.77,1.62c-1.92.61-3.85,1.11-5.87,1.72-3.85,1.31-7.89,2-11.94,3-2,.41-4.05.71-6.07,1.12s-4,.71-6.07,1l-6.08.81-6.07.5c-2,.21-4,.31-6.17.41s-4.05.2-6.17.2a222.47,222.47,0,0,1-24.59-1.31,142.94,142.94,0,0,1-24.29-4.86c-3.95-1.32-8.4-2.83-11.94-6a17.21,17.21,0,0,1-4.55-5.57,22.23,22.23,0,0,1-2.23-6.67c-.2-1.12-.41-2.13-.51-3-.1-.4-.1-.81-.2-1.11l-.1-.21v-.1h0v.1a1.66,1.66,0,0,0,.4.51c.21.2.11.1-.1,0a2.8,2.8,0,0,0-.91-.1,11.57,11.57,0,0,0-2.63,0c-1.82.1-3.84.3-5.87.51s-4.25.4-6.47.4c-.61,0-1.32-.1-1.93-.1l-1.41-.3-1.22-.61a10.15,10.15,0,0,1-3-2.84,23.64,23.64,0,0,1-3.34-5.76,30.79,30.79,0,0,1-2.63-12.35Z" transform="translate(-42.35 -15)"/><path class="cls-23" d="M525.69,324.17A54.35,54.35,0,0,0,531,340.05a21.69,21.69,0,0,0,11.13,10.32,25.59,25.59,0,0,0,7.79,1.72,37.17,37.17,0,0,0,8.3-.2c2.83-.3,5.77-.81,8.6-1.11s5.87-.71,8.81-1l.3,1.11c-2.73,1-5.57,1.92-8.4,2.73s-5.56,1.72-8.6,2.43a34.28,34.28,0,0,1-18.62-.71,22,22,0,0,1-8.3-5.16,25,25,0,0,1-5.46-8,30.7,30.7,0,0,1-2.33-9.11,31.67,31.67,0,0,1,.4-9.21Z" transform="translate(-42.35 -15)"/><path class="cls-23" d="M616.56,341.77a17.07,17.07,0,0,1,3.24-.81,18.86,18.86,0,0,1,3.34-.3c1.11,0,2.22.1,3.34.2a17.45,17.45,0,0,1,3.24.91h0l-.71.81c-2.84-.5-2.73-2.43-3.34-3.94a20.2,20.2,0,0,1-.91-5,21.21,21.21,0,0,1,.3-5.06,11.9,11.9,0,0,1,2-4.66l1,.41a31.58,31.58,0,0,0-.21,4.45,32.71,32.71,0,0,0,.61,4.25c.3,1.42.71,2.83,1.11,4.15.31,1.52,1.62,2.43.21,4.75l-.71,1.12v-.41h0a11.43,11.43,0,0,0-3-.81,16,16,0,0,0-3.13-.2,16.62,16.62,0,0,0-3.14.3,18,18,0,0,0-3,.81Z" transform="translate(-42.35 -15)"/><path class="cls-23" d="M411.74,380a41.92,41.92,0,0,1,6.18,1l3.23.61,6.38,1.21c4.25.81,8.5,1.72,12.85,2.64s8.6,1.72,12.85,2.63,8.6,1.62,12.85,2.32,8.61,1.32,13,1.82a94.69,94.69,0,0,0,13.15.31c4.35,0,8.7.3,13.06.71s8.7.81,13,1c17.41,1.31,34.81,1.82,52.32,2l13-.1c2.23,0,4.35-.1,6.58-.2l6.58-.3,6.58-.31c2.22-.1,4.35-.3,6.57-.5,4.35-.41,8.71-.71,13.06-1l.2,1.12a413.6,413.6,0,0,1-52.42,5.36c-2.23.1-4.35.2-6.58.2l-6.57.1-6.58.1c-2.23,0-4.35,0-6.58-.1l-13.16-.2-13.15-.61c-4.35-.1-8.8-.5-13.16-.81-2.22-.1-4.45-.3-6.57-.5a46.15,46.15,0,0,1-6.48-1.11c-2.13-.51-4.35-1-6.48-1.42s-4.35-.81-6.47-1c-4.35-.51-8.71-.91-13.16-1.32-8.7-.81-17.5-1.52-26.31-2.43l-6.58-.81c-2.12-.3-4.35-.6-6.57-1s-4.36-.81-6.48-1.11l-3.24-.61c-.5-.1-.91-.2-1.31-.3C414.78,386.09,411.74,380,411.74,380Z" transform="translate(-42.35 -15)"/><path class="cls-23" d="M419.33,403.4s4.76,1.92,6.48,2.83l5.16,2.53,10.32,5.16c6.88,3.44,13.76,7,20.54,10.42l10.22,5.26L482.28,435l10.11,5.46c3.34,1.82,6.78,3.64,10.12,5.46l-.5,1c-3.54-1.52-7-3.14-10.53-4.66L481,437.5l-10.42-4.86-10.53-5c-6.88-3.24-13.86-6.68-20.74-10L429,412.6l-5.17-2.53c-1.72-.81-2.93-1.41-3.84-1.82Z" transform="translate(-42.35 -15)"/><path class="cls-23" d="M443.92,440a13.85,13.85,0,0,1,5,.6,14.19,14.19,0,0,1,3.95,1.82l6.88,4.86c2.33,1.52,4.55,3.24,7,4.66s4.66,3,7.08,4.55c4.86,2.93,9.72,5.77,14.68,8.4l7.49,4.05,7.59,3.74c2.53,1.31,5.06,2.43,7.69,3.64s5.16,2.43,7.79,3.44l7.79,3.34c2.63,1.11,5.26,2,8,3s5.26,2.12,8,2.93l8.1,2.73c2.63,1,5.46,1.72,8.19,2.53s5.47,1.62,8.2,2.53l-.2,1.12c-2.84-.41-5.67-.91-8.5-1.42s-5.77-.91-8.5-1.62c-5.57-1.31-11.24-2.53-16.8-4.15-2.74-.81-5.57-1.52-8.3-2.53l-8.2-2.73c-2.73-.91-5.36-2-8.09-3s-5.37-2-8-3.23l-8-3.55-7.79-3.84c-2.63-1.32-5.16-2.73-7.69-4s-5.06-2.83-7.59-4.25c-5.06-2.93-9.92-6.07-14.68-9.31-1.21-.81-2.43-1.72-3.54-2.53s-2.43-1.72-3.54-2.63a16,16,0,0,1-2.94-3.44,11.28,11.28,0,0,1-1.72-4.75Z" transform="translate(-42.35 -15)"/><path class="cls-23" d="M543.19,506l13.67-4.86c2.32-.81,4.55-1.62,6.78-2.53s4.45-1.62,6.78-2.53c4.45-1.72,8.9-3.54,13.15-5.56l3.14-1.52,3-1.62a25,25,0,0,0,2.84-1.82c.5-.3.81-.71,1.41-.81a1.77,1.77,0,0,1,1,0,8.07,8.07,0,0,1,1.51.3l.81.81a3.3,3.3,0,0,1-1.72,3.95c-1.11.71-2.12,1.42-3.24,2L589,493.55l-3.34,1.52a142.49,142.49,0,0,1-13.77,5.06c-2.32.71-4.65,1.42-7,2L557.87,504c-4.76,1.11-9.41,2.12-14.27,2.83Z" transform="translate(-42.35 -15)"/><path class="cls-23" d="M494,345.72a34.47,34.47,0,0,0,7.39-3.34,17.67,17.67,0,0,0,2.94-2.43,12.42,12.42,0,0,0,1.92-3.14,17,17,0,0,0,.61-7.79,42.53,42.53,0,0,0-2-8l1-.51c.31.61.71,1.32,1,1.92s.6,1.32.91,2,.5,1.42.81,2a13.25,13.25,0,0,1,.6,2.13,16.77,16.77,0,0,1-.2,9.21,13.49,13.49,0,0,1-6,7.18,14,14,0,0,1-8.8,1.82Z" transform="translate(-42.35 -15)"/><path class="cls-23" d="M371.06,347.24c-.61-.91-1-1.52-1.62-2.53a64.61,64.61,0,0,1-2.83-5.87,53.2,53.2,0,0,1-3.54-12.45,39,39,0,0,1,.2-12.85,36.8,36.8,0,0,1,4.25-11.94c.51-.91,1.62-.91,1,.51a39.18,39.18,0,0,0-3,11.73,36.33,36.33,0,0,0,.91,11.94A49.67,49.67,0,0,0,370.56,337q1.37,2.58,3,5.16c1.12,1.62,5.77,7,6.88,8.29C377.34,349.26,374.2,348.15,371.06,347.24Z" transform="translate(-42.35 -15)"/><path class="cls-23" d="M345,333c-.4-.91,0-1.72,0-2.63.11-1.82.31-3.65.51-5.47a48.76,48.76,0,0,1,2.73-10.62,38.87,38.87,0,0,1,5.26-9.61,27.49,27.49,0,0,1,8-7.29c1.52-.91,1.82-.71.81.81-.51.71-.91,1.42-1.42,2.12-.2.31-.5.71-.71,1l-.6,1.11a15.89,15.89,0,0,0-1.22,2.23,23.29,23.29,0,0,1-1,2.32,51.46,51.46,0,0,0-3,9.21,77.18,77.18,0,0,0-1.51,9.61c-.11,1.62-.31,3.24-.31,4.86a24,24,0,0,0-.1,2.63c0,1.42.3,3.24-1.31,4.15C350.82,337.42,346.57,334.08,345,333Z" transform="translate(-42.35 -15)"/><path class="cls-23" d="M423.68,500.94a4.76,4.76,0,0,1,1.72.2,2.3,2.3,0,0,1,1.12.51,3.29,3.29,0,0,1,1.11,1.52,36.87,36.87,0,0,0,1.82,3.34c1.22,2.22,2.53,4.35,3.75,6.57s2.63,4.35,3.94,6.48l4.25,6.37a251,251,0,0,0,18.52,24.19l2.53,2.93,1.22,1.42,1.31,1.42,5.26,5.56c1.72,1.82,3.65,3.54,5.47,5.36l2.73,2.63,2.83,2.53L487,577l6,4.76c1,.81,2,1.62,3,2.33l3.13,2.22,6.28,4.46-.61,1L498.06,588,494.72,586c-1.11-.71-2.12-1.42-3.24-2.13L485,579.56l-6.18-4.75-3-2.43-2.94-2.53c-1.92-1.72-3.94-3.44-5.87-5.16-3.74-3.64-7.48-7.19-10.92-11a224.42,224.42,0,0,1-19.64-24.18L432.08,523c-1.41-2.23-2.83-4.35-4.15-6.58S425.3,512,424,509.64c-.61-1.11-1.32-2.32-1.93-3.44s-1.21-2.32.51-4.55Z" transform="translate(-42.35 -15)"/><path class="cls-23" d="M484.7,554.17a6.4,6.4,0,0,1,3.65.7,11.69,11.69,0,0,1,2.53,1.83c1.62,1.31,3.44,2.63,5.06,3.84a49,49,0,0,0,5.36,3.64c1.92,1.12,3.64,2.33,5.46,3.34a162.4,162.4,0,0,0,23.18,11.23c1,.41,2,.81,3,1.12l3,1.11a61,61,0,0,0,6.17,2l6.18,1.83c2.12.5,4.25,1,6.27,1.51,4.15,1.12,8.5,1.72,12.75,2.53l1.62.31,1.62.2,3.24.4,6.47.81v1.12c-4.35-.21-8.8-.11-13.15-.51s-8.81-.91-13.16-1.62a151.94,151.94,0,0,1-25.7-6.58L522,580.68c-2-.81-4-1.72-6.07-2.63s-4-1.93-6.07-2.84a66,66,0,0,1-5.87-3.13c-1.92-1.12-3.84-2.33-5.77-3.44s-3.74-2.43-5.56-3.75-3.64-2.63-5.37-4-3.64-2.83-3.64-6Z" transform="translate(-42.35 -15)"/><path class="cls-23" d="M580.33,599.9c2.43-1.11,4.86-2.32,7.19-3.64A69.51,69.51,0,0,0,594.3,592a35.59,35.59,0,0,0,5.87-5.06,16.26,16.26,0,0,0,1.21-1.42,13.22,13.22,0,0,0,1.11-1.51c.31-.51.61-1,.92-1.52l.3-.81c.1-.3.4-.51,1.62-.41l1.11.41c.91.71,1,1.11.81,1.52l-.51,1a11.31,11.31,0,0,1-1.11,1.92,19.28,19.28,0,0,1-1.31,1.82,10.5,10.5,0,0,1-1.42,1.62,32.76,32.76,0,0,1-6.78,5.16c-1.11.71-2.43,1.42-3.64,2s-2.53,1.11-3.85,1.72a51.86,51.86,0,0,1-7.89,2.53Z" transform="translate(-42.35 -15)"/><path class="cls-23" d="M580.43,572.38a22.54,22.54,0,0,0,4.15-2.73,14.85,14.85,0,0,0,1.82-1.72c.61-.61,1.22-1.22,1.72-1.82l1.62-1.93,1.42-2a24.63,24.63,0,0,0,1.32-2.13c.4-.7.81-1.41,1.21-2.22a61.75,61.75,0,0,0,4-9.21l1.52-4.76.6-2.42c.1-.81.61-1.52,2.63-2l1.12.31c1.62,1.31,1.62,2.22,1.31,3l-.71,2.53c-.6,1.72-1.11,3.44-1.82,5.06a56.37,56.37,0,0,1-5,9.61c-.5.81-1,1.52-1.51,2.23a17.87,17.87,0,0,1-1.72,2.12l-1.93,2-2,1.82a28.33,28.33,0,0,1-4.55,3.14,15.87,15.87,0,0,1-5.16,1.92Z" transform="translate(-42.35 -15)"/><path class="cls-23" d="M423.68,455.71a5.69,5.69,0,0,1,2.23,2.12,20.09,20.09,0,0,1,1,2.64l2.13,5.16c1.51,3.44,3.13,6.78,4.75,10.11A206.59,206.59,0,0,0,445,495.27l3.13,4.56,3.34,4.55c.61.71,1.12,1.52,1.72,2.23l1.82,2.12,1.83,2.13c.6.71,1.21,1.41,1.82,2.12a117.78,117.78,0,0,0,16.59,15.18l-.6.91a84.06,84.06,0,0,1-9.21-6.68l-2.23-1.82a19,19,0,0,1-2.12-1.82l-4.15-4a134.74,134.74,0,0,1-14.58-17.6,184.49,184.49,0,0,1-11.84-19.53c-1.72-3.44-3.44-6.88-4.95-10.32-.81-1.72-1.52-3.55-2.33-5.27a27.39,27.39,0,0,1-1-2.73,4.73,4.73,0,0,1,.3-3.13Z" transform="translate(-42.35 -15)"/><path class="cls-23" d="M461.23,496.39a2.12,2.12,0,0,1,1.51.71l1.12,1.11c.81.71,1.62,1.42,2.33,2.12,1.61,1.42,3.23,2.63,4.85,3.95a76.93,76.93,0,0,0,10.53,6.78l-.51,1a38.58,38.58,0,0,1-5.77-2.83c-1.82-1.12-3.64-2.33-5.46-3.44a62.7,62.7,0,0,1-5.06-3.95l-2.43-2.12-1.11-1.12a1.73,1.73,0,0,1-.81-1.41Z" transform="translate(-42.35 -15)"/><path class="cls-23" d="M586.3,300.79a1.94,1.94,0,0,0,2.23.1,5.72,5.72,0,0,1,1.21-.4c.31,0,.31,0,.51.2a3.12,3.12,0,0,1,.51,1.32,16.09,16.09,0,0,1,.4,3.84c.1,1.32,0,2.73,0,4.15l1.11.3a19.05,19.05,0,0,0,1.22-4.15,13.92,13.92,0,0,0,.2-4.55,6.22,6.22,0,0,0-.91-2.63c-.2-.2-.3-.41-.51-.61a5.16,5.16,0,0,0-.81-.6,3.53,3.53,0,0,0-.81-.31,38.49,38.49,0,0,0-4.85,3Z" transform="translate(-42.35 -15)"/><path class="cls-23" d="M647.32,291.68c2.13.91,3.85.21,5.87.31a25.62,25.62,0,0,1,5.57.6,13.29,13.29,0,0,1,5,2.33,15,15,0,0,1,3.54,4.35l1.11-.4a13.11,13.11,0,0,0-3.24-5.47,17.07,17.07,0,0,0-5.56-3.23,26.72,26.72,0,0,0-3.14-.71l-9.21,1.82Z" transform="translate(-42.35 -15)"/><path class="cls-23" d="M671.31,293.61a23.58,23.58,0,0,0-2.74-5,7.33,7.33,0,0,0-1.11-1.42l-2.83.51.3.3a16.66,16.66,0,0,1,1.62,2,29,29,0,0,1,2.63,4.46,40.7,40.7,0,0,1,1.92,5,21.21,21.21,0,0,1,.71,2.53l.61,2.63,1.11-.11a52.46,52.46,0,0,0-.6-5.56A33.12,33.12,0,0,0,671.31,293.61Z" transform="translate(-42.35 -15)"/></g><path class="cls-24" d="M779.28,278.43c4.45-5.16,5.87-7,8.4-13.06.51-1,8.6-11,8-11.63l-32.79-31.67-19.53,13.45c1.31-1.51,35.42,43.41,35.11,43.82S779,278.73,779.28,278.43Z" transform="translate(-42.35 -15)"/><path class="cls-24" d="M313,241.6c-4.15-3.14-8.3-6.28-12.65-9.31-14.27-10.22-41.29,26.81-33.8,36.22a135,135,0,0,1,9.41,14.37,20.42,20.42,0,0,0,1.31,1.92C282.62,271.75,293.24,253.64,313,241.6Z" transform="translate(-42.35 -15)"/><path class="cls-25" d="M900.82,102c2.32,6.17-.31,22.66-3.85,32.07a79.67,79.67,0,0,1-18.11,27.53l-36,20.74s-29.45,42.4-50,68.61l2.84,2.73v.3c20.54-26.11,50.59-69.41,50.59-69.41l36-20.85a80.88,80.88,0,0,0,18.11-27.62C905,124.12,908,99.93,900.82,102Z" transform="translate(-42.35 -15)"/><path class="cls-26" d="M540.66,187s24.9,11.64,21.76,30.46-6.07,25.6-6.07,25.6" transform="translate(-42.35 -15)"/><path class="cls-26" d="M527.91,192.52s15.39,3.44,16.5,8.8,8,17.61,3.84,26.41" transform="translate(-42.35 -15)"/><path class="cls-27" d="M266,259.2c-13.25-17.6-51.51-94.2-51.51-94.2l-32.68-25.71S177.68,138.18,174,121c-2.13-9.82-4.25-30.36-2.84-39.26-7.89-8.3-4.65,28.33-1.62,42.5,3.65,17.2,7.8,18.31,7.8,18.31l32.68,25.7s49.08,98.06,55.35,97.85A15.87,15.87,0,0,1,266,259.2Z" transform="translate(-42.35 -15)"/></svg>