<svg id="Layer_1" data-name="Layer 1" xmlns="http://www.w3.org/2000/svg" viewBox="0 0 1044.76 600"><defs><style>.cls-1,.cls-6{fill:#fff;}.cls-2{fill:#503ea7;}.cls-3{opacity:0.05;}.cls-4{fill:#d2fad6;}.cls-5{fill:#23146b;opacity:0.2;}.cls-6{stroke:#f8b0bc;stroke-miterlimit:10;stroke-width:22px;}.cls-7{fill:#6a52de;}.cls-8{fill:#6fdcca;}</style></defs><title>Step4</title><path class="cls-1" d="M1044.49,341.93a143.4,143.4,0,0,1-7.28,36.31A123.27,123.27,0,0,1,1020.42,411c-56.17,62-159.57,62.79-240.88,90.83-57.22,19.8-86.33,62.69-137.53,89.91a185.78,185.78,0,0,1-39.64,16.12c-47.69,12.74-99.89,7.8-146.07-10.35C355.92,558,259.55,515.88,145.11,504.33,62.79,495.26,20.63,425.15,3.81,363,.74,350.15-.75,337.08.65,324.08c5.93-40,41.06-68,81.21-90.29,50.2-27.22,98.38-47.84,140.54-82.48C269.59,112.54,305.72,64.7,365.65,39.9a330.45,330.45,0,0,1,40.46-14C531.59-7.89,653.06,42.43,760.47,99.34c36.14,19,74.28,23.1,113.43,33,92.36,23.92,155.6,98.15,169.05,175.08A148.09,148.09,0,0,1,1044.49,341.93Z" transform="translate(-0.12 -15)"/><rect class="cls-2" x="65.58" y="79.88" width="905.03" height="402.61" rx="12.42" ry="12.42"/><g class="cls-3"><rect class="cls-1" x="65.58" y="79.88" width="905.03" height="402.61" rx="201.31" ry="201.31"/></g><rect class="cls-4" x="731.47" y="180.3" width="92.15" height="92.15" rx="12" ry="12"/><rect class="cls-4" x="127.56" y="180.3" width="92.15" height="92.15" rx="12" ry="12"/><path class="cls-1" d="M195.53,245.15c-.45-8.46-1-18.63-.9-26.19h-.27c-2.07,7.11-4.59,14.67-7.65,23L176,271.43h-5.94l-9.81-28.89c-2.88-8.55-5.3-16.38-7-23.58h-.18c-.18,7.56-.63,17.73-1.17,26.82l-1.62,26H142.8L147,211.13h10l10.35,29.34c2.51,7.47,4.58,14.13,6.11,20.43h.27c1.53-6.12,3.69-12.78,6.39-20.43l10.8-29.34h10l3.78,60.66h-7.65Z" transform="translate(-0.12 -15)"/><rect class="cls-4" x="249.71" y="180.3" width="92.15" height="92.15" rx="12" ry="12"/><path class="cls-1" d="M291.9,220.1H273.45v-6.66h44.91v6.66H299.82v54H291.9Z" transform="translate(-0.12 -15)"/><rect class="cls-4" x="494.01" y="180.3" width="92.15" height="92.15" rx="12" ry="12"/><path class="cls-1" d="M536.2,220.1H517.75v-6.66h44.91v6.66H544.12v54H536.2Z" transform="translate(-0.12 -15)"/><rect class="cls-4" x="616.16" y="180.3" width="92.15" height="92.15" rx="12" ry="12"/><path class="cls-1" d="M647.28,213.44H680V220H655.11v20.16h22.95v6.48H655.11V274.1h-7.83Z" transform="translate(-0.12 -15)"/><rect class="cls-4" x="371.86" y="180.3" width="92.15" height="92.15" rx="12" ry="12"/><path class="cls-1" d="M396.73,274.1l-15.39-60.66h8.28l7.2,30.69c1.8,7.56,3.42,15.12,4.5,21h.17c1-6,2.88-13.23,5-21.06l8.09-30.6h8.19l7.38,30.78c1.71,7.2,3.33,14.4,4.23,20.79h.18c1.26-6.66,3-13.41,4.86-21l8-30.6h8L438.21,274.1H430l-7.65-31.59a182.65,182.65,0,0,1-4-19.8h-.18a187,187,0,0,1-4.68,19.8l-8.64,31.59Z" transform="translate(-0.12 -15)"/><path class="cls-1" d="M197,245.13c-.48-9-1.06-19.89-1-28h-.29c-2.21,7.59-4.9,15.66-8.17,24.6l-11.43,31.42h-6.35l-10.47-30.84c-3.07-9.13-5.67-17.49-7.49-25.18h-.2c-.19,8.07-.67,18.93-1.24,28.64l-1.73,27.76h-8l4.52-64.76h10.66l11.05,31.33c2.69,8,4.9,15.08,6.54,21.81h.28c1.64-6.54,3.94-13.65,6.83-21.81l11.53-31.33h10.66l4,64.76h-8.17Z" transform="translate(-0.12 -15)"/><rect class="cls-4" x="731.47" y="300.37" width="92.15" height="92.15" rx="12" ry="12"/><rect class="cls-4" x="127.56" y="300.37" width="92.15" height="92.15" rx="12" ry="12"/><path class="cls-1" d="M195.53,365.22c-.45-8.46-1-18.63-.9-26.19h-.27c-2.07,7.11-4.59,14.67-7.65,23L176,391.5h-5.94l-9.81-28.89c-2.88-8.55-5.3-16.38-7-23.58h-.18c-.18,7.56-.63,17.73-1.17,26.82l-1.62,26H142.8L147,331.2h10l10.35,29.34c2.51,7.47,4.58,14.13,6.11,20.43h.27c1.53-6.12,3.69-12.78,6.39-20.43l10.8-29.34h10l3.78,60.66h-7.65Z" transform="translate(-0.12 -15)"/><rect class="cls-4" x="249.71" y="300.37" width="92.15" height="92.15" rx="12" ry="12"/><path class="cls-1" d="M291.9,340.17H273.45v-6.66h44.91v6.66H299.82v54H291.9Z" transform="translate(-0.12 -15)"/><rect class="cls-4" x="494.01" y="300.37" width="92.15" height="92.15" rx="12" ry="12"/><path class="cls-1" d="M536.2,340.17H517.75v-6.66h44.91v6.66H544.12v54H536.2Z" transform="translate(-0.12 -15)"/><rect class="cls-4" x="616.16" y="300.37" width="92.15" height="92.15" rx="12" ry="12"/><path class="cls-1" d="M647.28,333.51H680v6.57H655.11v20.16h22.95v6.48H655.11v27.45h-7.83Z" transform="translate(-0.12 -15)"/><rect class="cls-4" x="371.86" y="300.37" width="92.15" height="92.15" rx="12" ry="12"/><path class="cls-1" d="M396.73,394.17l-15.39-60.66h8.28l7.2,30.69c1.8,7.56,3.42,15.12,4.5,21h.17c1-6,2.88-13.23,5-21.06l8.09-30.6h8.19l7.38,30.78c1.71,7.2,3.33,14.4,4.23,20.79h.18c1.26-6.66,3-13.41,4.86-21l8-30.6h8l-17.19,60.66H430l-7.65-31.59a182.65,182.65,0,0,1-4-19.8h-.18a187,187,0,0,1-4.68,19.8l-8.64,31.59Z" transform="translate(-0.12 -15)"/><path class="cls-1" d="M197,365.21c-.48-9-1.06-19.89-1-28h-.29c-2.21,7.59-4.9,15.66-8.17,24.6l-11.43,31.42h-6.35l-10.47-30.85c-3.07-9.13-5.67-17.49-7.49-25.17h-.2c-.19,8.07-.67,18.93-1.24,28.63l-1.73,27.77h-8l4.52-64.76h10.66l11.05,31.32c2.69,8,4.9,15.09,6.54,21.81h.28c1.64-6.53,3.94-13.64,6.83-21.81l11.53-31.32h10.66l4,64.76h-8.17Z" transform="translate(-0.12 -15)"/><path class="cls-5" d="M841.19,169.94c-117.44,0-212.65,95.21-212.65,212.66a211.74,211.74,0,0,0,33.68,114.9H958.31a12.46,12.46,0,0,0,12.42-12.43V214A211.73,211.73,0,0,0,841.19,169.94Z" transform="translate(-0.12 -15)"/><circle class="cls-6" cx="841.07" cy="367.6" r="171.11"/><rect class="cls-7" x="823.62" y="243.11" width="31.59" height="146.12" rx="12" ry="12"/><rect class="cls-7" x="885.98" y="319.44" width="31.59" height="137.9" rx="11.66" ry="11.66" transform="translate(1290.05 -528.38) rotate(90)"/><path class="cls-5" d="M182,94.88V134a14.11,14.11,0,0,0,14.07,14.07h19.34A14.11,14.11,0,0,0,229.52,134V94.88Z" transform="translate(-0.12 -15)"/><rect class="cls-8" x="185.41" y="50.3" width="40.5" height="76.19" rx="12" ry="12"/><path class="cls-5" d="M486.54,94.88V134a14.11,14.11,0,0,0,14.07,14.07H520A14.11,14.11,0,0,0,534,134V94.88Z" transform="translate(-0.12 -15)"/><rect class="cls-8" x="489.91" y="50.3" width="40.5" height="76.19" rx="12" ry="12"/><path class="cls-5" d="M815.79,94.88V134a14.11,14.11,0,0,0,14.07,14.07H849.2A14.11,14.11,0,0,0,863.27,134V94.88Z" transform="translate(-0.12 -15)"/><rect class="cls-8" x="819.16" y="50.3" width="40.5" height="76.19" rx="12" ry="12"/></svg>