<?xml version="1.0" encoding="utf-8"?>
<!-- Generator: Adobe Illustrator 22.1.0, SVG Export Plug-In . SVG Version: 6.00 Build 0)  -->
<svg version="1.1" id="Layer_1" xmlns="http://www.w3.org/2000/svg" xmlns:xlink="http://www.w3.org/1999/xlink" x="0px" y="0px"
	 viewBox="0 0 1049.9 679.5" style="enable-background:new 0 0 1049.9 679.5;" xml:space="preserve">
<style type="text/css">
	.st0{fill:#503EA7;}
	.st1{opacity:5.000000e-02;}
	.st2{fill:#FFFFFF;}
	.st3{fill:#D2FAD6;}
	.st4{opacity:0.2;fill:#23146B;}
	.st5{fill:#FFFFFF;stroke:#F8B0BC;stroke-width:22;stroke-miterlimit:10;}
	.st6{fill:#6A52DE;}
	.st7{fill:#6FDCCA;}
</style>
<title>Step-4</title>
<g>
	<path class="st0" d="M938.8,522.2H58.6c-6.8,0-12.4-5.6-12.4-12.4V132.1c0-6.8,5.6-12.4,12.4-12.4h880.2c6.8,0,12.4,5.6,12.4,12.4
		v377.8C951.2,516.7,945.6,522.2,938.8,522.2z"/>
</g>
<g class="st1">
	<path class="st2" d="M749.9,522.2H247.5c-110.7,0-201.3-90.6-201.3-201.3v0c0-110.7,90.6-201.3,201.3-201.3h502.4
		c110.7,0,201.3,90.6,201.3,201.3v0C951.2,431.7,860.6,522.2,749.9,522.2z"/>
</g>
<path class="st3" d="M792.2,312.2H724c-6.6,0-12-5.4-12-12V232c0-6.6,5.4-12,12-12h68.2c6.6,0,12,5.4,12,12v68.2
	C804.2,306.8,798.8,312.2,792.2,312.2z"/>
<path class="st3" d="M188.3,312.2h-68.2c-6.6,0-12-5.4-12-12V232c0-6.6,5.4-12,12-12h68.2c6.6,0,12,5.4,12,12v68.2
	C200.3,306.8,194.9,312.2,188.3,312.2z"/>
<g>
	<path class="st2" d="M176,269.9c-0.5-8.5-1-18.6-0.9-26.2h-0.3c-2.1,7.1-4.6,14.7-7.7,23l-10.7,29.4h-5.9l-9.8-28.9
		c-2.9-8.5-5.3-16.4-7-23.6h-0.2c-0.2,7.6-0.6,17.7-1.2,26.8l-1.6,26h-7.5l4.2-60.7h10l10.3,29.3c2.5,7.5,4.6,14.1,6.1,20.4h0.3
		c1.5-6.1,3.7-12.8,6.4-20.4l10.8-29.3h10l3.8,60.7h-7.7L176,269.9z"/>
</g>
<path class="st3" d="M310.4,312.2h-68.2c-6.6,0-12-5.4-12-12V232c0-6.6,5.4-12,12-12h68.2c6.6,0,12,5.4,12,12v68.2
	C322.4,306.8,317,312.2,310.4,312.2z"/>
<g>
	<path class="st2" d="M272.3,244.8h-18.4v-6.7h44.9v6.7h-18.5v54h-7.9V244.8z"/>
</g>
<path class="st3" d="M554.7,312.2h-68.2c-6.6,0-12-5.4-12-12V232c0-6.6,5.4-12,12-12h68.2c6.6,0,12,5.4,12,12v68.2
	C566.7,306.8,561.3,312.2,554.7,312.2z"/>
<g>
	<path class="st2" d="M516.7,244.9h-18.4v-6.7h44.9v6.7h-18.5v54h-7.9V244.9z"/>
</g>
<path class="st3" d="M676.9,312.2h-68.2c-6.6,0-12-5.4-12-12V232c0-6.6,5.4-12,12-12h68.2c6.6,0,12,5.4,12,12v68.2
	C688.9,306.8,683.5,312.2,676.9,312.2z"/>
<g>
	<path class="st2" d="M627.7,238.2h32.7v6.6h-24.8v20.2h22.9v6.5h-22.9v27.4h-7.8V238.2z"/>
</g>
<path class="st3" d="M432.6,312.2h-68.2c-6.6,0-12-5.4-12-12V232c0-6.6,5.4-12,12-12h68.2c6.6,0,12,5.4,12,12v68.2
	C444.6,306.8,439.2,312.2,432.6,312.2z"/>
<g>
	<path class="st2" d="M377.2,298.8l-15.4-60.7h8.3l7.2,30.7c1.8,7.6,3.4,15.1,4.5,21h0.2c1-6,2.9-13.2,5-21.1l8.1-30.6h8.2l7.4,30.8
		c1.7,7.2,3.3,14.4,4.2,20.8h0.2c1.3-6.7,3-13.4,4.9-21l8-30.6h8l-17.2,60.7h-8.2l-7.6-31.6c-1.9-7.7-3.2-13.7-4-19.8h-0.2
		c-1.1,6-2.4,12-4.7,19.8l-8.6,31.6H377.2z"/>
</g>
<g>
	<path class="st3" d="M792.2,432.3H724c-6.6,0-12-5.4-12-12v-68.2c0-6.6,5.4-12,12-12h68.2c6.6,0,12,5.4,12,12v68.2
		C804.2,426.9,798.8,432.3,792.2,432.3z"/>
	<path class="st3" d="M188.3,432.3h-68.2c-6.6,0-12-5.4-12-12v-68.2c0-6.6,5.4-12,12-12h68.2c6.6,0,12,5.4,12,12v68.2
		C200.3,426.9,194.9,432.3,188.3,432.3z"/>
	<g>
		<path class="st2" d="M176,390c-0.5-8.5-1-18.6-0.9-26.2h-0.3c-2.1,7.1-4.6,14.7-7.7,23l-10.7,29.4h-5.9l-9.8-28.9
			c-2.9-8.5-5.3-16.4-7-23.6h-0.2c-0.2,7.6-0.6,17.7-1.2,26.8l-1.6,26h-7.5l4.2-60.7h10l10.3,29.3c2.5,7.5,4.6,14.1,6.1,20.4h0.3
			c1.5-6.1,3.7-12.8,6.4-20.4l10.8-29.3h10l3.8,60.7h-7.7L176,390z"/>
	</g>
	<path class="st3" d="M310.4,432.3h-68.2c-6.6,0-12-5.4-12-12v-68.2c0-6.6,5.4-12,12-12h68.2c6.6,0,12,5.4,12,12v68.2
		C322.4,426.9,317,432.3,310.4,432.3z"/>
	<g>
		<path class="st2" d="M272.3,364.9h-18.4v-6.7h44.9v6.7h-18.5v54h-7.9V364.9z"/>
	</g>
	<path class="st3" d="M554.7,432.3h-68.2c-6.6,0-12-5.4-12-12v-68.2c0-6.6,5.4-12,12-12h68.2c6.6,0,12,5.4,12,12v68.2
		C566.7,426.9,561.3,432.3,554.7,432.3z"/>
	<g>
		<path class="st2" d="M516.7,364.9h-18.4v-6.7h44.9v6.7h-18.5v54h-7.9V364.9z"/>
	</g>
	<path class="st3" d="M676.9,432.3h-68.2c-6.6,0-12-5.4-12-12v-68.2c0-6.6,5.4-12,12-12h68.2c6.6,0,12,5.4,12,12v68.2
		C688.9,426.9,683.5,432.3,676.9,432.3z"/>
	<g>
		<path class="st2" d="M627.7,358.3h32.7v6.6h-24.8V385h22.9v6.5h-22.9v27.4h-7.8V358.3z"/>
	</g>
	<path class="st3" d="M432.6,432.3h-68.2c-6.6,0-12-5.4-12-12v-68.2c0-6.6,5.4-12,12-12h68.2c6.6,0,12,5.4,12,12v68.2
		C444.6,426.9,439.2,432.3,432.6,432.3z"/>
	<g>
		<path class="st2" d="M377.2,418.9l-15.4-60.7h8.3l7.2,30.7c1.8,7.6,3.4,15.1,4.5,21h0.2c1-6,2.9-13.2,5-21.1l8.1-30.6h8.2
			l7.4,30.8c1.7,7.2,3.3,14.4,4.2,20.8h0.2c1.3-6.7,3-13.4,4.9-21l8-30.6h8l-17.2,60.7h-8.2l-7.6-31.6c-1.9-7.7-3.2-13.7-4-19.8
			h-0.2c-1.1,6-2.4,12-4.7,19.8l-8.6,31.6H377.2z"/>
	</g>
</g>
<path class="st4" d="M821.6,194.7c-117.4,0-212.7,95.2-212.7,212.7c0,42.3,12.4,81.8,33.7,114.9h296.1c6.8,0,12.4-5.6,12.4-12.4
	V238.7C915.3,211.1,870.4,194.7,821.6,194.7z"/>
<circle class="st5" cx="821.6" cy="407.3" r="171.1"/>
<path class="st6" d="M823.8,429h-7.6c-6.6,0-12-5.4-12-12V294.9c0-6.6,5.4-12,12-12h7.6c6.6,0,12,5.4,12,12V417
	C835.8,423.6,830.4,429,823.8,429z"/>
<path class="st6" d="M813.3,417.3V409c0-6.4,5.2-11.7,11.7-11.7h114.6c6.4,0,11.7,5.2,11.7,11.7v8.3c0,6.4-5.2,11.7-11.7,11.7H824.9
	C818.5,428.9,813.3,423.7,813.3,417.3z"/>
<g>
	<path class="st4" d="M162.5,119.6v39.1c0,7.7,6.3,14.1,14.1,14.1h19.3c7.7,0,14.1-6.3,14.1-14.1v-39.1H162.5z"/>
	<path class="st7" d="M194.5,166.2H178c-6.6,0-12-5.4-12-12V102c0-6.6,5.4-12,12-12h16.5c6.6,0,12,5.4,12,12v52.2
		C206.5,160.8,201.1,166.2,194.5,166.2z"/>
</g>
<g>
	<path class="st4" d="M467,119.6v39.1c0,7.7,6.3,14.1,14.1,14.1h19.3c7.7,0,14.1-6.3,14.1-14.1v-39.1H467z"/>
	<path class="st7" d="M499,166.2h-16.5c-6.6,0-12-5.4-12-12V102c0-6.6,5.4-12,12-12H499c6.6,0,12,5.4,12,12v52.2
		C511,160.8,505.6,166.2,499,166.2z"/>
</g>
<g>
	<path class="st4" d="M796.2,119.6v39.1c0,7.7,6.3,14.1,14.1,14.1h19.3c7.7,0,14.1-6.3,14.1-14.1v-39.1H796.2z"/>
	<path class="st7" d="M828.2,166.2h-16.5c-6.6,0-12-5.4-12-12V102c0-6.6,5.4-12,12-12h16.5c6.6,0,12,5.4,12,12v52.2
		C840.2,160.8,834.8,166.2,828.2,166.2z"/>
</g>
</svg>
