<?xml version="1.0" encoding="utf-8"?>
<!-- Generator: Adobe Illustrator 22.1.0, SVG Export Plug-In . SVG Version: 6.00 Build 0)  -->
<svg version="1.1" id="Layer_1" xmlns="http://www.w3.org/2000/svg" xmlns:xlink="http://www.w3.org/1999/xlink" x="0px" y="0px"
	 viewBox="0 0 1074 702" style="enable-background:new 0 0 1074 702;" xml:space="preserve">
<style type="text/css">
	.st0{fill:none;stroke:#FFFFFF;stroke-width:7;stroke-miterlimit:10;}
	.st1{fill:#FFFFFF;}
	.st2{fill:#C7C5D4;}
	.st3{fill:#503EA7;}
	.st4{fill:#8875E5;}
	.st5{fill:#F8B0BC;}
	.st6{fill:#FCD4DB;}
	.st7{fill:#DAD8E8;}
	.st8{fill:#323071;}
	.st9{fill:#35296F;}
	.st10{fill:#D2FAD6;}
	.st11{fill:#9CA7EF;}
	.st12{fill:#F5EEEC;}
	.st13{fill:#6FDCCA;}
	.st14{fill:#23146B;}
	.st15{fill:#5D7FAE;}
</style>
<title>Step4</title>
<g id="Step3">
	<rect x="224.9" y="308" class="st0" width="72.8" height="266"/>
	<rect x="94.3" y="308" class="st0" width="72.8" height="266"/>
	<rect x="171.4" y="81.5" class="st1" width="53.2" height="143.5"/>
	<rect x="89.1" y="81.5" class="st1" width="53.2" height="143.5"/>
	<rect x="249.4" y="81.5" class="st1" width="53.2" height="143.5"/>
</g>
<g id="Step4">
	<path class="st2" d="M744.8,220.8c0,0-23,9.2-28.8,14.8c-5.4,5.2-14.4,26.3-14.4,26.3s-17,34.9-16.1,41.6s0,26.2,0,26.2l-5.1,22.9
		v27.1c0,0,183.3,50.4,196,51.3s43,4.2,43,4.2l3.4-13.1l51.7-45.8c0,0-6.8-21.1-9.3-35.5s4.7-23-2.5-37.3s-9.3-19.2-9.3-19.2
		l-62.7-40.3L744.8,220.8z"/>
	<path class="st3" d="M833.9,340.7l8.8,74c0,0,49.6,9.3,63.2,14.9s39.1,17.1,46.7,34s11.9,39,11.9,39l-72,106c0,0-19.1-17-20.2-26.3
		S860.2,564,860.2,564l-32.7-20.2h-39.4l-16-86.1L833.9,340.7z"/>
	<path class="st4" d="M451.1,224.6c0,0-24.6,19.5-24.6,27.1c0,7.6,3,63.7,14.6,89.1s19.1,65.8,34.5,67.8c26.3,3.4,41.5-9.3,41.5-9.3
		l0.8-12.8l-25.4-22.1l-4.5-36.3l14-11.4l21.9,101.6l38.1,12.2l52.6-10.2l33.9,14.8c0,0,27-12,32.2-19.9
		c14.3-21.5,11.9-77.1,8.5-103s-6.8-59.8-17-72.5s-40.7-33.1-40.7-33.1l-170.2,2.5L451.1,224.6z"/>
	<path class="st5" d="M581.5,224.6H467c0,0-44.5-15.3-42-61s6.4-81.4,25.4-94.1s5-15.3,52.7-16.5s155.9,0,155.9,0s34.3-3.7,44.5-0.6
		s42,33.6,42,70.5s7.6,72.5-12.7,85.2l-20.3,12.7l-62.3,3.8l-6.4,59.8L581.5,224.6z"/>
	<path class="st5" d="M813.1,303.5v-35.6c0,0-86.5-33.1-94.1-87.7S747,65.7,787.7,51.7S864,33.9,899.6,41.5s85.2,45.8,90.3,64.8
		s16.5,73.8-8.9,100.4s-47,52.2-81.4,57.2s-49.6,5.1-49.6,5.1L813.1,303.5z"/>
	<path class="st6" d="M747.1,524.8c0,0,0,29.7-2.2,41.4c-1.3,6.7-2.5,22,0,27.1s5.9,10.2,32.2,7.6s28.6,1.2,33-5.9
		c1.8-2.9,1.3-10.4,0-13.6c-2.2-5.6-13.6-20-13.6-20v-35.1c0,0-0.3-16.1-17.5-11.9C768.1,517.2,757.5,520.6,747.1,524.8z"/>
	<path class="st6" d="M881.3,623c-5.3-5-12.3-18.7-7.6-28c8.5-17,35.6-21.2,39.8-32.2s16.8-38.8,24.6-53.4
		c7.6-14.3,26.3-28.8,43.2-28.8s31.9,3.8,34.8,13.6c5.9,19.6-5.4,47.6-17,57.6c-14.2,12.3-49.7,36.5-55,44.1s-14.5,28-30.7,32.2
		S887.3,628.6,881.3,623z"/>
	<polygon class="st7" points="484.2,449.9 402.8,424.6 381.6,421.2 360.5,492 415.9,525.3 506.3,536.5 622.9,508.2 682.6,460.2 
		679.2,435.1 513.9,441.3 	"/>
	<path class="st8" d="M692.3,504.8L661,528.4c0,0-0.8,28.8,15.7,32.2c17.8,3.6,17.8,3.5,36,4.2L692.3,504.8z"/>
	<path class="st9" d="M489.3,531.4l24.6,36.4l-48.3,3.4L416.4,584c0,0-7-2.5-7.3-8.5s4.8-70.1,14.9-64.3c10.1,5.8,11.9,15.1,28,18.5
		S489.3,531.4,489.3,531.4z"/>
	<path class="st10" d="M910.2,274.6c0,0-4.2,19.5,0,32.6s-0.8,105.1,10.2,109.8c9.4,4,41.2,1.6,45.8-10.2
		c8.8-22.5,7.9-32.6-3.3-39.9s-27.2-43.6-27.2-56.3s13.1-10.3,17.4-26.5s0.8-13.2,1.7-20s-21.2-24.8-28.4-21.7
		c-8,3.5-24.1,17.6-22.9,26.2C903.7,270.8,910.2,274.6,910.2,274.6z"/>
	<path class="st10" d="M783.2,246.3l-1.1-0.1l-27.7-2.2c0,0-5.9,23.5-7.2,26.9s11.5,32.5,11.5,32.5s4.6-8.4,10.5-13.9
		s17.4-12.7,21-12.3s2.1-4.5,2.1-4.5s5.3,2.1,4.7-1.4s-2.8-24.3-6.8-24.3C787.9,247.2,785.5,246.9,783.2,246.3z"/>
	<path class="st10" d="M689.8,362.7l19.6-7.6c0,0,15.6-12.7,20.5-18.6s21.8-20.4,21.8-20.4l-17.1,50.5L716,408.5
		c0,0-20.8,3.7-26.3,0c-6.3-4.3-9.7-24.5-9.3-28.8C680.9,374.9,689.8,362.7,689.8,362.7z"/>
	<polygon class="st10" points="747.1,520 747.1,524.8 783.6,516 781.8,505.9 	"/>
	<path class="st3" d="M716,408.5l28.2-67.8l2.9,80.5v128.7c0,0-27.7-2.4-31.1-10.1s-18.7-39-18.7-39l-8.5-65.7L716,408.5z"/>
	<path class="st10" d="M528.3,174.5c-7.5,11.6-15.1,39.6-14.4,53.4c0.3,6.8,7.2,26.3,7.2,26.3s-3,22.9-7.2,36.5
		s-25.7,34.6-25.7,34.6s-7.4,17.9,1.1,34s28.8,27.1,28.8,27.1s24.6-55.9,25.4-70.4s1.7-29.4,8.5-38.9s15.9-43.3,18-56.5
		C572.6,204.5,553.3,136.1,528.3,174.5z"/>
	<path class="st10" d="M479.8,403.8c-3.2-0.8-47.7-35.3-1.3,17.4c10.9,12.4,21.8,16,45.6,24.1c23.7,8.1,47.5,3,61.9,3
		s62.7-13.2,62.7-13.2l-24.6-35.9h-10.2c-7,4.8-14.3,9-22,12.6c-13.1,6.1-19,10.5-36.6,9.3c-15.6-1.1-30.6-1.5-28.8-8.3
		c3-11.3,1.8-31.5,1.8-31.5l-0.8-17l-9.3,22.1C518.2,386.5,520,413.5,479.8,403.8z"/>
	<path class="st4" d="M469.8,411.9l-17,28c0,0,6.8,10.8,31.4,10s29.7-8.6,29.7-8.6L469.8,411.9z"/>
	<path class="st11" d="M744,521.2c0,0-11-3.4-9.3-22.9s7.1-89.9,4-109.4s6.8-55.7,13-72.9s32.2-40.3,38.6-38.8s12.3,1.5,19.1,7
		s23.7,32.7,24.6,47.9S796.7,458.5,797,480.6s-2.2,30.3-2.2,30.3s-12.7-2.8-28.8,2.6C750,518.7,744,521.2,744,521.2z"/>
	<path class="st12" d="M489.3,534l178.4-91.6c0,0-45.4,6.6-60.6,7.5c-40.9,2.6,31.5-10.3,41.5-14.8c12.5-5.5,31-17,41.2-23.3
		c8.3-5,26-12.7,41.1-3.4s22.4,21,25.1,41.5S743,495.8,731,498.4s-53.7,16.5-71.4,25.6c-9.6,5-39.3,23.4-39.3,23.4L562.2,578
		L530,557.7l-20.4,6.3L489.3,534z"/>
	<polygon class="st10" points="405.4,366.5 431.7,388.7 408.9,423.1 405.4,420.9 	"/>
	<path class="st13" d="M275.7,258.5l57.3-14.4l29.2,2.3l17,25.2c0,0,19.5-4.8,29.7,0s22.9,7.3,26.3,20s-1.7,54.3,0,62.7
		s-5.8,39.9-5.8,39.9l-53.5-7.7L324,411.9l-55.1,13.6L246,364.3l-6.9-92.8L275.7,258.5z"/>
	<path class="st5" d="M297.1,83.5c0,0,20.3-26.7,38.1-21.6S367,72.3,367,72.3l17.8,30.7l43.2,14.8l10.2,16.5c0,0,20.3,46.1,0,59.9
		c-12,8.1-23.5,17-34.3,26.6c0,0,5.1,24.2-15.3,30.5s-33.1,19.1-52.1,8.9s1.3,39.5,1.3,39.5l-52.1-42c0,0-14,14-31.8,11.4
		s-57.2-16.5-52.1-39.4s8.9,24.1-50.9-25.4S176.3,80.6,203,103s2.5-31,34.3-41.8S297.1,83.5,297.1,83.5z"/>
	<path class="st10" d="M244.3,244.1c-4.7-1.9-15.6,0.2-20.4,2.3c-6.4,2.8-22.1,11.3-21.4,18.3c1.6,15.5,20.9,34.4,20.9,34.4
		s-5.3,66.3,0,87.5c2.7,10.7,11.1,33.8,20.9,39c5.3,2.8,19-0.6,23.7-4.2c4.6-3.5,7.5-16.2,7.6-22c0.3-13.3-15.3-50.9-15.3-50.9
		l-12.7-49.4c0,0-9.5-21.1-5.9-28c2.7-5.3,19.9-9.5,19.9-9.5S250,246.4,244.3,244.1z"/>
	<g id="FirstPersonTrousers">
		<path class="st14" d="M207.1,601.6c0,0,20.3-12.5,26.2-15.1s31.4-14.9,31.4-14.9l34.7-16.8l10.2-4.9l23.8-15.1l9.2-29.3l-9.1-52.1
			l1.1-74.6c0,0-8.6,27.1-15.1,45.8s-38.7,15-38.7,15l-46.3,18.6l-26.6,2.8l-19.6,52.4L151.9,564L207.1,601.6z"/>
		<path class="st14" d="M366.5,554.8c0,0,4.1,5.5,21-11.1s17.8-12.3,25.2-29.5c13.7-32-6.4-139-6.4-139l-45.9,144.2L366.5,554.8z"/>
	</g>
	<path class="st10" d="M198.5,474.7c-8.3-8.7,27.1-39.5,27.1-39.5l26.3-9.7l39.8-9.3l32.2-4.2l-11,31.4l-37.3-4.3
		c0,0,2.6,11-11,14.4s-41.6,5.9-41.6,5.9S203.6,479.9,198.5,474.7z"/>
	<polygon class="st10" points="333.6,496.6 327.3,519.8 366.5,554.8 360.5,519.4 366.5,496.6 341.8,480.5 	"/>
	<path class="st15" d="M333.6,496.6c0,0,13-17.8,23.2-9.3s13.6,20.9,13.6,20.9l33.1-121.8c0,0,16.1-56.4,5.9-65.5
		s-15.3-31.1-33.1-28.6s-37,7.6-38,19.9s-4.7,87.9-4.7,87.9L333.6,496.6z"/>
	<path class="st4" d="M321.9,522.1c0,0,11-5.9,18.6,0s23.7,26.4,24.6,21.7s2.7,34.2,2.7,34.2s3.1,23.4-2.3,23.6s-41.1,11.2-49.5,5.3
		c-5.5-4-10.7-8.5-15.3-13.6c0,0,17.8-46.6,17.8-53.4S321.9,522.1,321.9,522.1z"/>
	<path class="st4" d="M62.1,516.8c3-6,11.9-8.5,26.3-4.9c22.2,5.6,31.3,17.8,44,28.8s14.5,17.1,44.9,36.5
		c19.9,12.7,33.6,8.2,30.5,34.8c-1,8.8-10.2,27.9-22.9,26.2s-35.5-21.9-47.9-26.2s-41.4-13.1-58.9-28.9
		c-16.9-15.2-18.8-29.7-21.3-39.8S59,522.8,62.1,516.8z"/>
	<polygon class="st10" points="489.3,534 508.7,524 530,557.7 509.6,564 	"/>
	<polygon class="st10" points="620.3,547.4 664.8,549.9 659.6,524 	"/>
</g>
</svg>
