<svg id="Layer_1" data-name="Layer 1" xmlns="http://www.w3.org/2000/svg" xmlns:xlink="http://www.w3.org/1999/xlink" viewBox="0 0 957.1 542.3"><defs><style>.cls-1,.cls-10,.cls-19,.cls-9{fill:none;}.cls-2{fill:#1d1d1b;}.cls-3{fill:#45add6;}.cls-4{fill:#503ea7;}.cls-14,.cls-5{opacity:0.1;}.cls-14,.cls-16,.cls-17,.cls-5{isolation:isolate;}.cls-5{fill:url(#SVGID_3_);}.cls-11,.cls-16,.cls-17,.cls-6,.cls-7{fill:#fff;}.cls-7{stroke:#3482a1;stroke-width:11px;}.cls-10,.cls-11,.cls-19,.cls-7,.cls-9{stroke-miterlimit:10;}.cls-8{fill:#6abdde;}.cls-9{stroke:#d2fad6;}.cls-10,.cls-19,.cls-9{stroke-width:8px;}.cls-10{stroke:#6abdde;}.cls-11{stroke:#000;}.cls-12{fill:#d895a2;}.cls-13{fill:#f9a9b6;}.cls-14{fill:url(#SVGID_4_);}.cls-15,.cls-16{opacity:0.4;}.cls-17,.cls-18{opacity:0.2;}.cls-19{stroke:#503ea7;}</style><pattern id="SVGID_3_" data-name="SVGID 3 " width="72" height="72" patternTransform="translate(-1039.98 50857.3)" patternUnits="userSpaceOnUse" viewBox="0 0 72 72"><rect class="cls-1" width="72" height="72"/><rect class="cls-1" width="72" height="72"/><rect class="cls-1" width="72" height="72"/><rect class="cls-1" width="72" height="72"/><rect class="cls-1" width="72" height="72"/><rect class="cls-1" width="72" height="72"/><rect class="cls-1" width="72" height="72"/><path class="cls-2" d="M21,3c-.1,0-.1,0-.2-.1s-.1-.1-.1-.2,0-.1.1-.2a.3.3,0,0,1,.4,0c.1.1.1.1.1.2s0,.1-.1.2S21.1,3,21,3Z"/><path class="cls-2" d="M20,8.2c-.1,0-.1,0-.2-.1s-.1-.1-.1-.2,0-.1.1-.2a.3.3,0,0,1,.4,0c.1.1.1.1.1.2s0,.1-.1.2S20.1,8.2,20,8.2Z"/><path class="cls-2" d="M20.2,10.5c-.1,0-.1,0-.2-.1s-.1-.1-.1-.2,0-.1.1-.2a.3.3,0,0,1,.4,0c.1.1.1.1.1.2s0,.1-.1.2S20.3,10.5,20.2,10.5Z"/><path class="cls-2" d="M18,12.7c-.1,0-.1,0-.2-.1s-.1-.1-.1-.2,0-.1.1-.2a.3.3,0,0,1,.4,0c.1.1.1.1.1.2s0,.1-.1.2S18.1,12.7,18,12.7Z"/><path class="cls-2" d="M15.2,10.5c-.1,0-.1,0-.2-.1s-.1-.1-.1-.2,0-.1.1-.2a.3.3,0,0,1,.4,0c.1.1.1.1.1.2s0,.1-.1.2S15.3,10.5,15.2,10.5Z"/><path class="cls-2" d="M22.7,20c-.1,0-.1,0-.2-.1s-.1-.1-.1-.2,0-.1.1-.2a.3.3,0,0,1,.4,0c0,.1.1.1.1.2s0,.1-.1.2S22.8,20,22.7,20Z"/><path class="cls-2" d="M15.2,23c-.1,0-.1,0-.2-.1s-.1-.1-.1-.2,0-.1.1-.2a.3.3,0,0,1,.4,0c.1.1.1.1.1.2s0,.1-.1.2S15.3,23,15.2,23Z"/><path class="cls-2" d="M14,24c-.1,0-.1,0-.2-.1s-.1-.1-.1-.2,0-.1.1-.2a.3.3,0,0,1,.4,0c.1.1.1.1.1.2s0,.1-.1.2S14.1,24,14,24Z"/><path class="cls-2" d="M24,27c-.1,0-.1,0-.2-.1s-.1-.1-.1-.2,0-.1.1-.2a.3.3,0,0,1,.4,0c0,.1.1.1.1.2s0,.1-.1.2S24.1,27,24,27Z"/><path class="cls-2" d="M30.7,25.7c-.1,0-.1,0-.2-.1s-.1-.1-.1-.2,0-.1.1-.2a.3.3,0,0,1,.4,0c.1.1.1.1.1.2s0,.1-.1.2S30.8,25.7,30.7,25.7Z"/><path class="cls-2" d="M31.2,23.2c-.1,0-.1,0-.2-.1s-.1-.1-.1-.2,0-.1.1-.2a.3.3,0,0,1,.4,0c0,.1.1.1.1.2s0,.1-.1.2S31.3,23.2,31.2,23.2Z"/><path class="cls-2" d="M29.2,18.2c-.1,0-.1,0-.2-.1s-.1-.1-.1-.2,0-.1.1-.2a.3.3,0,0,1,.4,0c.1.1.1.1.1.2s0,.1-.1.2S29.3,18.2,29.2,18.2Z"/><path class="cls-2" d="M32.2,18.2c-.1,0-.1,0-.2-.1s-.1-.1-.1-.2,0-.1.1-.2a.3.3,0,0,1,.4,0c.1.1.1.1.1.2s0,.1-.1.2S32.3,18.2,32.2,18.2Z"/><path class="cls-2" d="M32.5,13.7c-.1,0-.1,0-.2-.1s-.1-.1-.1-.2,0-.1.1-.2a.3.3,0,0,1,.4,0c.1.1.1.1.1.2s0,.1-.1.2S32.6,13.7,32.5,13.7Z"/><path class="cls-2" d="M31.7,11.7c-.1,0-.1,0-.2-.1s-.1-.1-.1-.2,0-.1.1-.2a.3.3,0,0,1,.4,0c.1.1.1.1.1.2s0,.1-.1.2S31.8,11.7,31.7,11.7Z"/><path class="cls-2" d="M29.2,10.7c-.1,0-.1,0-.2-.1s-.1-.1-.1-.2,0-.1.1-.2a.3.3,0,0,1,.4,0c.1.1.1.1.1.2s0,.1-.1.2S29.3,10.7,29.2,10.7Z"/><path class="cls-2" d="M32.2,7c-.1,0-.1,0-.2-.1s-.1-.1-.1-.2,0-.1.1-.2a.3.3,0,0,1,.4,0c.1.1.1.1.1.2s0,.1-.1.2S32.3,7,32.2,7Z"/><path class="cls-2" d="M32,3c-.1,0-.1,0-.2-.1s-.1-.1-.1-.2,0-.1.1-.2.2-.1.4,0,.1.1.1.2,0,.1-.1.2S32.1,3,32,3Z"/><path class="cls-2" d="M29.2,3.2c-.1,0-.1,0-.2-.1s-.1-.1-.1-.2,0-.1.1-.2a.3.3,0,0,1,.4,0c.1.1.1.1.1.2s0,.1-.1.2S29.3,3.2,29.2,3.2Z"/><path class="cls-2" d="M34,1.2c-.1,0-.1,0-.2-.1s-.1-.1-.1-.2,0-.1.1-.2a.3.3,0,0,1,.4,0c.1.1.1.1.1.2s0,.1-.1.2S34.1,1.2,34,1.2Z"/><path class="cls-2" d="M41.5,7c-.1,0-.1,0-.2-.1s-.1-.1-.1-.2,0-.1.1-.2a.19.19,0,0,1,.3,0h0c.1.1.1.1.1.2S41.7,6.8,41.5,7Z"/><path class="cls-2" d="M45.5,6.7c-.1,0-.1,0-.2-.1s-.1-.1-.1-.2,0-.1.1-.2a.3.3,0,0,1,.4,0c.1.1.1.1.1.2s0,.1-.1.2S45.6,6.7,45.5,6.7Z"/><path class="cls-2" d="M40.2,10.2c-.1,0-.1,0-.2-.1s-.1-.1-.1-.2,0-.1.1-.2a.3.3,0,0,1,.4,0c.1.1.1.1.1.2s0,.1-.1.2S40.3,10.2,40.2,10.2Z"/><path class="cls-2" d="M45,11.7c-.1,0-.1,0-.2-.1s-.1-.1-.1-.2,0-.1.1-.2a.3.3,0,0,1,.4,0c.1.1.1.1.1.2s0,.1-.1.2S45.1,11.7,45,11.7Z"/><path class="cls-2" d="M45,13.5c-.1,0-.1,0-.2-.1s-.1-.1-.1-.2,0-.1.1-.2a.3.3,0,0,1,.4,0c.1.1.1.1.1.2s0,.1-.1.2S45.1,13.5,45,13.5Z"/><path class="cls-2" d="M47,14.2c-.1,0-.1,0-.2-.1s-.1-.1-.1-.2,0-.1.1-.2a.3.3,0,0,1,.4,0c.1.1.1.1.1.2s0,.1-.1.2S47.1,14.2,47,14.2Z"/><path class="cls-2" d="M47,16.2c-.1,0-.1,0-.2-.1s-.1-.1-.1-.2,0-.1.1-.2a.3.3,0,0,1,.4,0c.1.1.1.1.1.2s0,.1-.1.2S47.1,16.2,47,16.2Z"/><path class="cls-2" d="M47.2,22.7c-.1,0-.1,0-.2-.1s-.1-.1-.1-.2,0-.1.1-.2a.3.3,0,0,1,.4,0c.1.1.1.1.1.2s0,.1-.1.2S47.3,22.7,47.2,22.7Z"/><path class="cls-2" d="M39,20.7c-.1,0-.1,0-.2-.1s-.1-.1-.1-.2,0-.1.1-.2a.3.3,0,0,1,.4,0c.1.1.1.1.1.2s0,.1-.1.2S39.1,20.7,39,20.7Z"/><path class="cls-2" d="M50.2,13.5c-.1,0-.1,0-.2-.1s-.1-.1-.1-.2,0-.1.1-.2a.3.3,0,0,1,.4,0c.1.1.1.1.1.2s0,.1-.1.2S50.3,13.5,50.2,13.5Z"/><path class="cls-2" d="M52.2,12c-.1,0-.1,0-.2-.1s-.1-.1-.1-.2,0-.1.1-.2a.3.3,0,0,1,.4,0c.1.1.1.1.1.2s0,.1-.1.2S52.3,12,52.2,12Z"/><path class="cls-2" d="M54.7,11c-.1,0-.1,0-.2-.1s-.1-.1-.1-.2,0-.1.1-.2a.3.3,0,0,1,.4,0c.1.1.1.1.1.2s0,.1-.1.2S54.8,11,54.7,11Z"/><path class="cls-2" d="M54.7,6.7c-.1,0-.1,0-.2-.1s-.1-.1-.1-.2,0-.1.1-.2a.3.3,0,0,1,.4,0c0,.1.1.1.1.2s0,.1-.1.2S54.8,6.7,54.7,6.7Z"/><path class="cls-2" d="M56.5.7c-.1,0-.1,0-.2-.1s-.1-.1-.1-.2,0-.1.1-.2a.3.3,0,0,1,.4,0c0,.1.1.1.1.2s0,.1-.1.2S56.6.7,56.5.7Z"/><path class="cls-2" d="M64,6.5c-.1,0-.1,0-.2-.1s-.1-.1-.1-.2,0-.1.1-.2a.3.3,0,0,1,.4,0c0,.1.1.1.1.2s0,.1-.1.2S64.1,6.5,64,6.5Z"/><path class="cls-2" d="M65,2.5c-.1,0-.1,0-.2-.1s-.1-.1-.1-.2,0-.1.1-.2a.3.3,0,0,1,.4,0c.1.1.1.1.1.2s0,.1-.1.2S65.1,2.5,65,2.5Z"/><path class="cls-2" d="M68,3c-.1,0-.1,0-.2-.1s-.1-.1-.1-.2,0-.1.1-.2a.3.3,0,0,1,.4,0c.1.1.1.1.1.2s0,.1-.1.2S68.1,3,68,3Z"/><path class="cls-2" d="M68,10.2c-.1,0-.1,0-.2-.1s-.1-.1-.1-.2,0-.1.1-.2a.3.3,0,0,1,.4,0c.1.1.1.1.1.2s0,.1-.1.2S68.1,10.2,68,10.2Z"/><path class="cls-2" d="M64.2,12.2c-.1,0-.1,0-.2-.1s-.1-.1-.1-.2,0-.1.1-.2.3-.1.3,0,.1.1.1.2S64.4,12,64.2,12.2Z"/><path class="cls-2" d="M65.2,15.7c-.1,0-.1,0-.2-.1s-.1-.1-.1-.2,0-.1.1-.2a.3.3,0,0,1,.4,0c.1.1.1.1.1.2s0,.1-.1.2S65.3,15.7,65.2,15.7Z"/><path class="cls-2" d="M64,19.7c-.1,0-.1,0-.2-.1s-.1-.1-.1-.2,0-.1.1-.2a.3.3,0,0,1,.4,0c.1.1.1.1.1.2s0,.1-.1.2S64.1,19.7,64,19.7Z"/><path class="cls-2" d="M66.2,19.7c-.1,0-.1,0-.2-.1s-.1-.1-.1-.2,0-.1.1-.2a.3.3,0,0,1,.4,0c.1.1.1.1.1.2s0,.1-.1.2S66.3,19.7,66.2,19.7Z"/><path class="cls-2" d="M68,21.2c-.1,0-.1,0-.2-.1s-.1-.1-.1-.2,0-.1.1-.2a.3.3,0,0,1,.4,0c0,.1.1.1.1.2s0,.1-.1.2S68.1,21.2,68,21.2Z"/><path class="cls-2" d="M69.2,20.2c-.1,0-.1,0-.2-.1s-.1-.1-.1-.2,0-.1.1-.2a.3.3,0,0,1,.4,0c.1.1.1.1.1.2s0,.1-.1.2S69.3,20.2,69.2,20.2Z"/><path class="cls-2" d="M69.5,18c-.1,0-.1,0-.2-.1s-.1-.1-.1-.2,0-.1.1-.2a.3.3,0,0,1,.4,0c.1.1.1.1.1.2s0,.1-.1.2S69.6,18,69.5,18Z"/><path class="cls-2" d="M71.2,17.5c-.1,0-.1,0-.2-.1s-.1-.1-.1-.2,0-.1.1-.2a.3.3,0,0,1,.4,0c0,.1.1.1.1.2s0,.1-.1.2S71.3,17.5,71.2,17.5Z"/><path class="cls-2" d="M8,47c-.1,0-.1,0-.2-.1s-.1-.1-.1-.2,0-.1.1-.2a.3.3,0,0,1,.4,0c.1.1.1.1.1.2s0,.1-.1.2S8.1,47,8,47Z"/><path class="cls-2" d="M7,52.2c-.1,0-.1,0-.2-.1s-.1-.1-.1-.2,0-.1.1-.2a.3.3,0,0,1,.4,0c.1.1.1.1.1.2s0,.1-.1.2S7.1,52.2,7,52.2Z"/><path class="cls-2" d="M7.2,54.5c-.1,0-.1,0-.2-.1s-.1-.1-.1-.2,0-.1.1-.2a.3.3,0,0,1,.4,0c.1.1.1.1.1.2s0,.1-.1.2S7.3,54.5,7.2,54.5Z"/><path class="cls-2" d="M5,56.7c-.1,0-.1,0-.2-.1s-.1-.1-.1-.2,0-.1.1-.2a.3.3,0,0,1,.4,0c.1.1.1.1.1.2s0,.1-.1.2S5.1,56.7,5,56.7Z"/><path class="cls-2" d="M2.2,54.5c-.1,0-.1,0-.2-.1s-.1-.1-.1-.2,0-.1.1-.2.3-.1.3,0,.1.1.1.2S2.4,54.3,2.2,54.5Z"/><path class="cls-2" d="M9.7,64h0c-.1-.1-.2-.2-.2-.3s0-.1.1-.2a.3.3,0,0,1,.4,0c.1.1.1.1.1.2s0,.1-.1.2A.37.37,0,0,1,9.7,64Z"/><path class="cls-2" d="M2.2,67h0c-.2-.1-.2-.2-.2-.3s0-.1.1-.2a.3.3,0,0,1,.4,0c.1.1.1.1.1.2s0,.1-.1.2A.37.37,0,0,1,2.2,67Z"/><path class="cls-2" d="M1,68c-.1,0-.1,0-.2-.1s-.1-.1-.1-.2,0-.1.1-.2a.3.3,0,0,1,.4,0c.1.1.1.1.1.2s0,.1-.1.2S1.1,68,1,68Z"/><path class="cls-2" d="M11,71c-.1,0-.1,0-.2-.1s-.1-.1-.1-.2,0-.1.1-.2a.3.3,0,0,1,.4,0c.1.1.1.1.1.2s0,.1-.1.2S11.1,71,11,71Z"/><path class="cls-2" d="M17.7,69.7c-.1,0-.1,0-.2-.1s-.1-.1-.1-.2,0-.1.1-.2a.3.3,0,0,1,.4,0c.1.1.1.1.1.2s0,.1-.1.2S17.8,69.7,17.7,69.7Z"/><path class="cls-2" d="M18.2,67.2c-.1,0-.1,0-.2-.1V67c0-.1,0-.1.1-.2a.3.3,0,0,1,.4,0c.1.1.1.1.1.2s0,.1-.1.2Z"/><path class="cls-2" d="M16.2,62.2c-.1,0-.1,0-.2-.1s-.1-.1-.1-.2,0-.1.1-.2a.3.3,0,0,1,.4,0c.1.1.1.1.1.2s0,.1-.1.2S16.3,62.2,16.2,62.2Z"/><path class="cls-2" d="M19.2,62.2c-.1,0-.1,0-.2-.1s-.1-.1-.1-.2,0-.1.1-.2a.3.3,0,0,1,.4,0c.1.1.1.1.1.2s0,.1-.1.2S19.3,62.2,19.2,62.2Z"/><path class="cls-2" d="M19.5,57.7c-.1,0-.1,0-.2-.1s-.1-.1-.1-.2,0-.1.1-.2a.3.3,0,0,1,.4,0c0,.1.1.1.1.2s0,.1-.1.2S19.6,57.7,19.5,57.7Z"/><path class="cls-2" d="M18.7,55.7c-.1,0-.1,0-.2-.1s-.1-.1-.1-.2,0-.1.1-.2a.3.3,0,0,1,.4,0c.1.1.1.1.1.2s0,.1-.1.2S18.8,55.7,18.7,55.7Z"/><path class="cls-2" d="M16.2,54.7c-.1,0-.1,0-.2-.1s-.1-.1-.1-.2,0-.1.1-.2a.3.3,0,0,1,.4,0c.1.1.1.1.1.2s0,.1-.1.2S16.3,54.7,16.2,54.7Z"/><path class="cls-2" d="M19.2,51c-.1,0-.1,0-.2-.1s-.1-.1-.1-.2,0-.1.1-.2a.3.3,0,0,1,.4,0c.1.1.1.1.1.2s0,.1-.1.2S19.3,51,19.2,51Z"/><path class="cls-2" d="M19,47c-.1,0-.1,0-.2-.1s-.1-.1-.1-.2,0-.1.1-.2a.3.3,0,0,1,.4,0c.1.1.1.1.1.2s0,.1-.1.2S19.1,47,19,47Z"/><path class="cls-2" d="M16.2,47.2c-.1,0-.1,0-.2-.1s-.1-.1-.1-.2,0-.1.1-.2a.3.3,0,0,1,.4,0c.1.1.1.1.1.2s0,.1-.1.2S16.3,47.2,16.2,47.2Z"/><path class="cls-2" d="M21,45.2c-.1,0-.1,0-.2-.1s-.1-.1-.1-.2,0-.1.1-.2a.3.3,0,0,1,.4,0c.1.1.1.1.1.2s0,.1-.1.2S21.1,45.2,21,45.2Z"/><path class="cls-2" d="M28.5,51c-.1,0-.1,0-.2-.1s-.1-.1-.1-.2,0-.1.1-.2a.3.3,0,0,1,.4,0c0,.1.1.1.1.2s0,.1-.1.2S28.6,51,28.5,51Z"/><path class="cls-2" d="M32.5,50.7c-.1,0-.1,0-.2-.1s-.1-.1-.1-.2,0-.1.1-.2a.3.3,0,0,1,.4,0c.1.1.1.1.1.2s0,.1-.1.2S32.6,50.7,32.5,50.7Z"/><path class="cls-2" d="M27.2,54.2c-.1,0-.1,0-.2-.1s-.1-.1-.1-.2,0-.1.1-.2a.3.3,0,0,1,.4,0c.1.1.1.1.1.2s0,.1-.1.2S27.3,54.2,27.2,54.2Z"/><path class="cls-2" d="M32,55.7c-.1,0-.1,0-.2-.1s-.1-.1-.1-.2,0-.1.1-.2a.3.3,0,0,1,.4,0c0,.1.1.1.1.2s0,.1-.1.2S32.1,55.7,32,55.7Z"/><path class="cls-2" d="M32,57.5c-.1,0-.1,0-.2-.1s-.1-.1-.1-.2,0-.1.1-.2a.3.3,0,0,1,.4,0c0,.1.1.1.1.2s0,.1-.1.2S32.1,57.5,32,57.5Z"/><path class="cls-2" d="M34,58.2c-.1,0-.1,0-.2-.1s-.1-.1-.1-.2,0-.1.1-.2a.3.3,0,0,1,.4,0c.1.1.1.1.1.2s0,.1-.1.2S34.1,58.2,34,58.2Z"/><path class="cls-2" d="M34,60.2c-.1,0-.1,0-.2-.1s-.1-.1-.1-.2,0-.1.1-.2a.3.3,0,0,1,.4,0c0,.1.1.1.1.2s0,.1-.1.2S34.1,60.2,34,60.2Z"/><path class="cls-2" d="M34.2,66.7c-.1,0-.1,0-.2-.1s-.1-.1-.1-.2,0-.1.1-.2a.3.3,0,0,1,.4,0c.1.1.1.1.1.2s0,.1-.1.2S34.3,66.7,34.2,66.7Z"/><path class="cls-2" d="M26,64.7c-.1,0-.1,0-.2-.1s-.1-.1-.1-.2,0-.1.1-.2a.3.3,0,0,1,.4,0c.1.1.1.1.1.2s0,.1-.1.2S26.1,64.7,26,64.7Z"/><path class="cls-2" d="M37.2,57.5c-.1,0-.1,0-.2-.1s-.1-.1-.1-.2,0-.1.1-.2.3-.1.3,0,.1.1.1.2S37.4,57.3,37.2,57.5Z"/><path class="cls-2" d="M39.2,56c-.1,0-.1,0-.2-.1s-.1-.1-.1-.2,0-.1.1-.2a.3.3,0,0,1,.4,0c.1.1.1.1.1.2s0,.1-.1.2S39.3,56,39.2,56Z"/><path class="cls-2" d="M41.7,55c-.1,0-.1,0-.2-.1s-.1-.1-.1-.2,0-.1.1-.2a.3.3,0,0,1,.4,0c.1.1.1.1.1.2s0,.1-.1.2S41.8,55,41.7,55Z"/><path class="cls-2" d="M41.7,50.7c-.1,0-.1,0-.2-.1s-.1-.1-.1-.2,0-.1.1-.2a.3.3,0,0,1,.4,0c.1.1.1.1.1.2s0,.1-.1.2S41.8,50.7,41.7,50.7Z"/><path class="cls-2" d="M43.5,44.7c-.1,0-.1,0-.2-.1s-.1-.1-.1-.2,0-.1.1-.2a.3.3,0,0,1,.4,0c.1.1.1.1.1.2s0,.1-.1.2S43.6,44.7,43.5,44.7Z"/><path class="cls-2" d="M51,50.5c-.1,0-.1,0-.2-.1s-.1-.1-.1-.2,0-.1.1-.2a.3.3,0,0,1,.4,0c.1.1.1.1.1.2s0,.1-.1.2S51.1,50.5,51,50.5Z"/><path class="cls-2" d="M52,46.5c-.1,0-.1,0-.2-.1s-.1-.1-.1-.2,0-.1.1-.2a.3.3,0,0,1,.4,0c0,.1.1.1.1.2s0,.1-.1.2S52.1,46.5,52,46.5Z"/><path class="cls-2" d="M55,47c-.1,0-.1,0-.2-.1s-.1-.1-.1-.2,0-.1.1-.2a.3.3,0,0,1,.4,0c.1.1.1.1.1.2s0,.1-.1.2S55.1,47,55,47Z"/><path class="cls-2" d="M55,54.2c-.1,0-.1,0-.2-.1s-.1-.1-.1-.2,0-.1.1-.2a.3.3,0,0,1,.4,0c.1.1.1.1.1.2s0,.1-.1.2S55.1,54.2,55,54.2Z"/><path class="cls-2" d="M51.2,56.2c-.1,0-.1,0-.2-.1s-.1-.1-.1-.2,0-.1.1-.2a.3.3,0,0,1,.4,0c.1.1.1.1.1.2s0,.1-.1.2S51.3,56.2,51.2,56.2Z"/><path class="cls-2" d="M52.2,59.7c-.1,0-.1,0-.2-.1s-.1-.1-.1-.2,0-.1.1-.2a.3.3,0,0,1,.4,0c0,.1.1.1.1.2s0,.1-.1.2S52.3,59.7,52.2,59.7Z"/><path class="cls-2" d="M51,63.7c-.1,0-.1,0-.2-.1s-.1-.1-.1-.2,0-.1.1-.2a.3.3,0,0,1,.4,0c.1.1.1.1.1.2s0,.1-.1.2S51.1,63.7,51,63.7Z"/><path class="cls-2" d="M53.2,63.7c-.1,0-.1,0-.2-.1s-.1-.1-.1-.2,0-.1.1-.2a.3.3,0,0,1,.4,0c0,.1.1.1.1.2s0,.1-.1.2S53.3,63.7,53.2,63.7Z"/><path class="cls-2" d="M55,65.2c-.1,0-.1,0-.2-.1s-.1-.1-.1-.2,0-.1.1-.2a.3.3,0,0,1,.4,0c.1.1.1.1.1.2s0,.1-.1.2S55.1,65.2,55,65.2Z"/><path class="cls-2" d="M56.2,64.2c-.1,0-.1,0-.2-.1V64c0-.1,0-.1.1-.2a.3.3,0,0,1,.4,0c.1.1.1.1.1.2s0,.1-.1.2Z"/><path class="cls-2" d="M56.5,62c-.1,0-.1,0-.2-.1s-.1-.1-.1-.2,0-.1.1-.2a.3.3,0,0,1,.4,0c.1.1.1.1.1.2s0,.1-.1.2S56.6,62,56.5,62Z"/><path class="cls-2" d="M58.2,61.5c-.1,0-.1,0-.2-.1s-.1-.1-.1-.2,0-.1.1-.2a.3.3,0,0,1,.4,0c0,.1.1.1.1.2s0,.1-.1.2S58.3,61.5,58.2,61.5Z"/><path class="cls-2" d="M21,27c-.1,0-.1,0-.2-.1s-.1-.1-.1-.2,0-.1.1-.2a.3.3,0,0,1,.4,0c.1.1.1.1.1.2s0,.1-.1.2S21.1,27,21,27Z"/><path class="cls-2" d="M22.7,24c-.1,0-.1,0-.2-.1s-.1-.1-.1-.2,0-.1.1-.2a.3.3,0,0,1,.4,0c.1.1.1.1.1.2s0,.1-.1.2S22.8,24,22.7,24Z"/><path class="cls-2" d="M25.2,24.5c-.1,0-.1,0-.2-.1s-.1-.1-.1-.2,0-.1.1-.2a.3.3,0,0,1,.4,0c.1.1.1.1.1.2s0,.1-.1.2S25.3,24.5,25.2,24.5Z"/><path class="cls-2" d="M35.2,23.2c-.1,0-.1,0-.2-.1s-.1-.1-.1-.2,0-.1.1-.2a.3.3,0,0,1,.4,0c.1.1.1.1.1.2s0,.1-.1.2S35.3,23.2,35.2,23.2Z"/><path class="cls-2" d="M39,24.7c-.1,0-.1,0-.2-.1s-.1-.1-.1-.2,0-.1.1-.2a.3.3,0,0,1,.4,0c.1.1.1.1.1.2s0,.1-.1.2S39.1,24.7,39,24.7Z"/><path class="cls-2" d="M45,29.5c-.1,0-.1,0-.2-.1s-.1-.1-.1-.2,0-.1.1-.2a.3.3,0,0,1,.4,0c.1.1.1.1.1.2s0,.1-.1.2S45.1,29.5,45,29.5Z"/><path class="cls-2" d="M46.2,29c-.1,0-.1,0-.2-.1s-.1-.1-.1-.2,0-.1.1-.2.3-.1.3,0,.1.1.1.2S46.4,28.8,46.2,29Z"/><path class="cls-2" d="M55.2,28c-.1,0-.1,0-.2-.1s-.1-.1-.1-.2,0-.1.1-.2a.3.3,0,0,1,.4,0c.1.1.1.1.1.2s0,.1-.1.2S55.3,28,55.2,28Z"/><path class="cls-2" d="M51.2,25.2c-.1,0-.1,0-.2-.1s-.1-.1-.1-.2,0-.1.1-.2a.3.3,0,0,1,.4,0c.1.1.1.1.1.2s0,.1-.1.2S51.3,25.2,51.2,25.2Z"/><path class="cls-2" d="M52,29.5c-.1,0-.1,0-.2-.1s-.1-.1-.1-.2,0-.1.1-.2a.3.3,0,0,1,.4,0c0,.1.1.1.1.2s0,.1-.1.2S52.1,29.5,52,29.5Z"/><path class="cls-2" d="M62.5,35.5c-.1,0-.1,0-.2-.1s-.1-.1-.1-.2,0-.1.1-.2a.19.19,0,0,1,.3,0h0c.1,0,.1.1.1.2S62.7,35.3,62.5,35.5Z"/><path class="cls-2" d="M58.2,38.2c-.1,0-.1,0-.2-.1s-.1-.1-.1-.2,0-.1.1-.2a.3.3,0,0,1,.4,0c0,.1.1.1.1.2s0,.1-.1.2S58.3,38.2,58.2,38.2Z"/><path class="cls-2" d="M49,39c-.1,0-.1,0-.2-.1s-.1-.1-.1-.2,0-.1.1-.2a.3.3,0,0,1,.4,0c0,.1.1.1.1.2s0,.1-.1.2S49.1,39,49,39Z"/><path class="cls-2" d="M48,41.2c-.1,0-.1,0-.2-.1s-.1-.1-.1-.2,0-.1.1-.2a.19.19,0,0,1,.3,0h0c.1,0,.1.1.1.2s0,.1-.2.3Z"/><path class="cls-2" d="M52,43c-.1,0-.1,0-.2-.1s-.1-.1-.1-.2,0-.1.1-.2a.3.3,0,0,1,.4,0c.1.1.1.1.1.2s0,.1-.1.2S52.1,43,52,43Z"/><path class="cls-2" d="M53.5,45c-.1,0-.1,0-.2-.1s-.1-.1-.1-.2,0-.1.1-.2a.3.3,0,0,1,.4,0c.1.1.1.1.1.2s0,.1-.1.2S53.6,45,53.5,45Z"/><path class="cls-2" d="M62.2,48c-.1,0-.1,0-.2-.1s-.1-.1-.1-.2,0-.1.1-.2a.3.3,0,0,1,.4,0c0,.1.1.1.1.2s0,.1-.1.2S62.3,48,62.2,48Z"/><path class="cls-2" d="M65,51.7c-.1,0-.1,0-.2-.1s-.1-.1-.1-.2,0-.1.1-.2a.3.3,0,0,1,.4,0c.1.1.1.1.1.2s0,.1-.1.2S65.1,51.7,65,51.7Z"/><path class="cls-2" d="M67,51.7c-.1,0-.1,0-.2-.1s-.1-.1-.1-.2,0-.1.1-.2a.3.3,0,0,1,.4,0c.1.1.1.1.1.2s0,.1-.1.2S67.1,51.7,67,51.7Z"/><path class="cls-2" d="M69.5,45c-.1,0-.1,0-.2-.1s-.1-.1-.1-.2,0-.1.1-.2a.3.3,0,0,1,.4,0c.1.1.1.1.1.2s0,.1-.1.2S69.6,45,69.5,45Z"/><path class="cls-2" d="M60,39c-.1,0-.1,0-.2-.1s-.1-.1-.1-.2,0-.1.1-.2a.3.3,0,0,1,.4,0c.1.1.1.1.1.2s0,.1-.1.2S60.1,39,60,39Z"/><path class="cls-2" d="M47.2,47.7c-.1,0-.1,0-.2-.1s-.1-.1-.1-.2,0-.1.1-.2a.3.3,0,0,1,.4,0c.1.1.1.1.1.2s0,.1-.1.2S47.3,47.7,47.2,47.7Z"/><path class="cls-2" d="M32.5,47c-.1,0-.1,0-.2-.1s-.1-.1-.1-.2,0-.1.1-.2a.3.3,0,0,1,.4,0c.1.1.1.1.1.2s0,.1-.1.2S32.6,47,32.5,47Z"/><path class="cls-2" d="M37,44.5c-.1,0-.1,0-.2-.1s-.1-.1-.1-.2,0-.1.1-.2a.3.3,0,0,1,.4,0c.1.1.1.1.1.2s0,.1-.1.2S37.1,44.5,37,44.5Z"/><path class="cls-2" d="M26.2,37.7c-.1,0-.1,0-.2-.1s-.1-.1-.1-.2,0-.1.1-.2a.3.3,0,0,1,.4,0c.1.1.1.1.1.2s0,.1-.1.2S26.3,37.7,26.2,37.7Z"/><path class="cls-2" d="M29.7,35.5c-.1,0-.1,0-.2-.1s-.1-.1-.1-.2,0-.1.1-.2a.3.3,0,0,1,.4,0c.1.1.1.1.1.2s0,.1-.1.2S29.8,35.5,29.7,35.5Z"/><path class="cls-2" d="M17,28.5c-.1,0-.1,0-.2-.1s-.1-.1-.1-.2,0-.1.1-.2a.3.3,0,0,1,.4,0c.1.1.1.1.1.2s0,.1-.1.2S17.1,28.5,17,28.5Z"/><path class="cls-2" d="M10.5,29.5c-.1,0-.1,0-.2-.1s-.1-.1-.1-.2,0-.1.1-.2a.3.3,0,0,1,.4,0c0,.1.1.1.1.2s0,.1-.1.2S10.6,29.5,10.5,29.5Z"/><path class="cls-2" d="M6,31.5c-.1,0-.1,0-.2-.1s-.1-.1-.1-.2,0-.1.1-.2a.3.3,0,0,1,.4,0c0,.1.1.1.1.2s0,.1-.1.2S6.1,31.5,6,31.5Z"/><path class="cls-2" d="M2.5,35.2c-.1,0-.1,0-.2-.1s-.1-.1-.1-.2,0-.1.1-.2a.19.19,0,0,1,.3,0h0c.1,0,.1.1.1.2S2.7,35,2.5,35.2Z"/><path class="cls-2" d="M11.2,36.7c-.1,0-.1,0-.2-.1s-.1-.1-.1-.2,0-.1.1-.2a.3.3,0,0,1,.4,0c.1.1.1.1.1.2s0,.1-.1.2S11.3,36.7,11.2,36.7Z"/><path class="cls-2" d="M17,42c-.1,0-.1,0-.2-.1s-.1-.1-.1-.2,0-.1.1-.2a.3.3,0,0,1,.4,0c.1.1.1.1.1.2s0,.1-.1.2S17.1,42,17,42Z"/><path class="cls-2" d="M12.7,36c-.1,0-.1,0-.2-.1s-.1-.1-.1-.2,0-.1.1-.2a.3.3,0,0,1,.4,0c.1.1.1.1.1.2s0,.1-.1.2S12.8,36,12.7,36Z"/><path class="cls-2" d="M26.5,30.2c-.1,0-.1,0-.2-.1s-.1-.1-.1-.2,0-.1.1-.2a.3.3,0,0,1,.4,0c.1.1.1.1.1.2s0,.1-.1.2S26.6,30.2,26.5,30.2Z"/><path class="cls-2" d="M37.7,31c-.1,0-.1,0-.2-.1s-.1-.1-.1-.2,0-.1.1-.2a.3.3,0,0,1,.4,0c.1.1.1.1.1.2s0,.1-.1.2S37.8,31,37.7,31Z"/><path class="cls-2" d="M39.5,32.5c-.1,0-.1,0-.2-.1s-.1-.1-.1-.2,0-.1.1-.2a.3.3,0,0,1,.4,0c.1.1.1.1.1.2s0,.1-.1.2S39.6,32.5,39.5,32.5Z"/><path class="cls-2" d="M28,42c-.1,0-.1,0-.2-.1s-.1-.1-.1-.2,0-.1.1-.2.3-.1.3,0,.1.1.1.2S28.2,41.8,28,42Z"/><path class="cls-2" d="M6.5,20.5c-.1,0-.1,0-.2-.1s-.1-.1-.1-.2,0-.1.1-.2a.3.3,0,0,1,.4,0c.1.1.1.1.1.2s0,.1-.1.2S6.6,20.5,6.5,20.5Z"/><path class="cls-2" d="M10.2,20.2c-.1,0-.1,0-.2-.1s-.1-.1-.1-.2,0-.1.1-.2a.3.3,0,0,1,.4,0c.1.1.1.1.1.2s0,.1-.1.2S10.3,20.2,10.2,20.2Z"/><path class="cls-2" d="M11.7,23.5c-.1,0-.1,0-.2-.1s-.1-.1-.1-.2,0-.1.1-.2a.3.3,0,0,1,.4,0c0,.1.1.1.1.2s0,.1-.1.2S11.8,23.5,11.7,23.5Z"/><path class="cls-2" d="M3,25.7c-.1,0-.1,0-.2-.1s-.1-.1-.1-.2,0-.1.1-.2a.3.3,0,0,1,.4,0c.1.1.1.1.1.2s0,.1-.1.2S3.1,25.7,3,25.7Z"/><path class="cls-2" d="M64.2,29.5c-.1,0-.1,0-.2-.1s-.1-.1-.1-.2,0-.1.1-.2.3-.1.3,0,.1.1.1.2S64.4,29.3,64.2,29.5Z"/><path class="cls-2" d="M67.5,30.7c-.1,0-.1,0-.2-.1s-.1-.1-.1-.2,0-.1.1-.2a.3.3,0,0,1,.4,0c0,.1.1.1.1.2s0,.1-.1.2S67.6,30.7,67.5,30.7Z"/><path class="cls-2" d="M69.5,29.7c-.1,0-.1,0-.2-.1s-.1-.1-.1-.2,0-.1.1-.2a.3.3,0,0,1,.4,0c.1.1.1.1.1.2s0,.1-.1.2S69.6,29.7,69.5,29.7Z"/><path class="cls-2" d="M7.2,15.7c-.1,0-.1,0-.2-.1s-.1-.1-.1-.2,0-.1.1-.2a.3.3,0,0,1,.4,0c.1.1.1.1.1.2s0,.1-.1.2S7.3,15.7,7.2,15.7Z"/><path class="cls-2" d="M1.5,9c-.1,0-.1,0-.2-.1s-.1-.1-.1-.2,0-.1.1-.2a.3.3,0,0,1,.4,0c.1.1.1.1.1.2s0,.1-.1.2S1.6,9,1.5,9Z"/><path class="cls-2" d="M14.5,6.5c-.1,0-.1,0-.2-.1s-.1-.1-.1-.2,0-.1.1-.2a.3.3,0,0,1,.4,0c.1.1.1.1.1.2s0,.1-.1.2S14.6,6.5,14.5,6.5Z"/><path class="cls-2" d="M8.5,5.2c-.1,0-.1,0-.2-.1s-.1-.1-.1-.2,0-.1.1-.2a.3.3,0,0,1,.4,0c.1.1.1.1.1.2s0,.1-.1.2S8.6,5.2,8.5,5.2Z"/><path class="cls-2" d="M3.5,2.5c-.1,0-.1,0-.2-.1s-.1-.1-.1-.2,0-.1.1-.2a.3.3,0,0,1,.4,0c.1.1.1.1.1.2s0,.1-.1.2S3.6,2.5,3.5,2.5Z"/><path class="cls-2" d="M3.7,6c-.1,0-.1,0-.2-.1s-.1-.1-.1-.2,0-.1.1-.2a.3.3,0,0,1,.4,0c.1.1.1.1.1.2s0,.1-.1.2S3.8,6,3.7,6Z"/><path class="cls-2" d="M12.7,14.2c-.1,0-.1,0-.2-.1s-.1-.1-.1-.2,0-.1.1-.2a.3.3,0,0,1,.4,0c.1.1.1.1.1.2s0,.1-.1.2S12.8,14.2,12.7,14.2Z"/><path class="cls-2" d="M18.5,19.2c-.1,0-.1,0-.2-.1s-.1-.1-.1-.2,0-.1.1-.2a.3.3,0,0,1,.4,0c0,.1.1.1.1.2s0,.1-.1.2S18.6,19.2,18.5,19.2Z"/><path class="cls-2" d="M21.2,37c-.1,0-.1,0-.2-.1s-.1-.1-.1-.2,0-.1.1-.2a.3.3,0,0,1,.4,0c.1.1.1.1.1.2s0,.1-.1.2S21.3,37,21.2,37Z"/><path class="cls-2" d="M.7,44.2c-.1,0-.1,0-.2-.1s-.1-.1-.1-.2,0-.1.1-.2a.3.3,0,0,1,.4,0c.1.2.1.2.1.3s0,.1-.1.2Z"/><path class="cls-2" d="M66.5,37.2c-.1,0-.1,0-.2-.1s-.1-.1-.1-.2,0-.1.1-.2a.3.3,0,0,1,.4,0c.1.1.1.1.1.2s0,.1-.1.2S66.6,37.2,66.5,37.2Z"/><path class="cls-2" d="M68,66c-.1,0-.1,0-.2-.1s-.1-.1-.1-.2,0-.1.1-.2a.3.3,0,0,1,.4,0c.1.1.1.1.1.2s0,.1-.1.2S68.1,66,68,66Z"/><path class="cls-2" d="M59.7,69.7c-.1,0-.1,0-.2-.1s-.1-.1-.1-.2,0-.1.1-.2a.3.3,0,0,1,.4,0c.1.1.1.1.1.2s0,.1-.1.2S59.8,69.7,59.7,69.7Z"/><path class="cls-2" d="M40.5,68c-.1,0-.1,0-.2-.1s-.1-.1-.1-.2,0-.1.1-.2a.3.3,0,0,1,.4,0c.1.1.1.1.1.2s0,.1-.1.2S40.6,68,40.5,68Z"/><path class="cls-2" d="M44,63c-.1,0-.1,0-.2-.1s-.1-.1-.1-.2,0-.1.1-.2a.3.3,0,0,1,.4,0c.1.1.1.1.1.2s0,.1-.1.2S44.1,63,44,63Z"/><path class="cls-2" d="M25.7,70c-.1,0-.1,0-.2-.1s-.1-.1-.1-.2,0-.1.1-.2a.3.3,0,0,1,.4,0c.1.1.1.1.1.2s0,.1-.1.2S25.8,70,25.7,70Z"/><path class="cls-2" d="M4.5,60c-.1,0-.1,0-.2-.1s-.1-.1-.1-.2,0-.1.1-.2a.3.3,0,0,1,.4,0c0,.1.1.1.1.2s0,.1-.1.2S4.6,60,4.5,60Z"/><path class="cls-2" d="M26.5,59.5c-.1,0-.1,0-.2-.1s-.1-.1-.1-.2,0-.1.1-.2a.3.3,0,0,1,.4,0c.1.1.1.1.1.2s0,.1-.1.2S26.6,59.5,26.5,59.5Z"/><path class="cls-2" d="M37.2,48.5c-.1,0-.1,0-.2-.1s-.1-.1-.1-.2,0-.1.1-.2a.19.19,0,0,1,.3,0h0c.1,0,.1.1.1.2S37.4,48.3,37.2,48.5Z"/><path class="cls-2" d="M22,41.7c-.1,0-.1,0-.2-.1s-.1-.1-.1-.2,0-.1.1-.2a.3.3,0,0,1,.4,0c.1.1.1.1.1.2s0,.1-.1.2S22.1,41.7,22,41.7Z"/><path class="cls-2" d="M8.7,40.2c-.1,0-.1,0-.2-.1s-.1-.1-.1-.2,0-.1.1-.2a.3.3,0,0,1,.4,0c.1.2.1.2.1.3s0,.1-.1.2Z"/><path class="cls-2" d="M24,29c-.1,0-.1,0-.2-.1s-.1-.1-.1-.2,0-.1.1-.2a.3.3,0,0,1,.4,0c.1.1.1.1.1.2s0,.1-.1.2S24.1,29,24,29Z"/><path class="cls-2" d="M41.5,34.5c-.1,0-.1,0-.2-.1s-.1-.1-.1-.2,0-.1.1-.2.3-.1.3,0,.1.1.1.2S41.7,34.3,41.5,34.5Z"/><path class="cls-2" d="M51.5,37.5c-.1,0-.1,0-.2-.1s-.1-.1-.1-.2,0-.1.1-.2a.3.3,0,0,1,.4,0c.1.1.1.1.1.2s0,.1-.1.2S51.6,37.5,51.5,37.5Z"/><path class="cls-2" d="M60.7,46c-.1,0-.1,0-.2-.1s-.1-.1-.1-.2,0-.1.1-.2a.3.3,0,0,1,.4,0c.1.1.1.1.1.2s0,.1-.1.2S60.8,46,60.7,46Z"/><path class="cls-2" d="M67.5,43.7c-.1,0-.1,0-.2-.1s-.1-.1-.1-.2,0-.1.1-.2a.3.3,0,0,1,.4,0c.1.1.1.1.1.2s0,.1-.1.2S67.6,43.7,67.5,43.7Z"/><path class="cls-2" d="M51.2,66.2c-.1,0-.1,0-.2-.1V66c0-.1,0-.1.1-.2a.3.3,0,0,1,.4,0c.1.1.1.1.1.2s0,.1-.1.2Z"/><path class="cls-2" d="M40,37.7c-.1,0-.1,0-.2-.1s-.1-.1-.1-.2,0-.1.1-.2a.3.3,0,0,1,.4,0c.1.1.1.1.1.2s0,.1-.1.2S40.1,37.7,40,37.7Z"/><path class="cls-2" d="M53.2,15c-.1,0-.1,0-.2-.1s-.1-.1-.1-.2,0-.1.1-.2a.3.3,0,0,1,.4,0c.1.1.1.1.1.2s0,.1-.1.2S53.3,15,53.2,15Z"/><path class="cls-2" d="M34,16c-.1,0-.1,0-.2-.1s-.1-.1-.1-.2,0-.1.1-.2a.3.3,0,0,1,.4,0c.1.1.1.1.1.2s0,.1-.1.2S34.1,16,34,16Z"/><path class="cls-2" d="M27.5,13.5c-.1,0-.1,0-.2-.1s-.1-.1-.1-.2,0-.1.1-.2a.3.3,0,0,1,.4,0c.1.1.1.1.1.2s0,.1-.1.2S27.6,13.5,27.5,13.5Z"/><path class="cls-2" d="M12.7,19.2c-.1,0-.1,0-.2-.1s-.1-.1-.1-.2,0-.1.1-.2a.3.3,0,0,1,.4,0c.1.1.1.1.1.2s0,.1-.1.2S12.8,19.2,12.7,19.2Z"/><path class="cls-2" d="M19.7,26.5c-.1,0-.1,0-.2-.1s-.1-.1-.1-.2,0-.1.1-.2a.3.3,0,0,1,.4,0c.1.1.1.1.1.2s0,.1-.1.2S19.8,26.5,19.7,26.5Z"/><path class="cls-2" d="M49.5,4.5c-.1,0-.1,0-.2-.1s-.1-.1-.1-.2,0-.1.1-.2a.3.3,0,0,1,.4,0c.1.1.1.1.1.2s0,.1-.1.2S49.6,4.5,49.5,4.5Z"/><path class="cls-2" d="M11.7,1.7c-.1,0-.1,0-.2-.1s-.1-.1-.1-.2,0-.1.1-.2a.3.3,0,0,1,.4,0c.1.1.1.1.1.2s0,.1-.1.2S11.8,1.7,11.7,1.7Z"/><path class="cls-2" d="M55.2,3.7c-.1,0-.1,0-.2-.1s-.1-.1-.1-.2,0-.1.1-.2a.3.3,0,0,1,.4,0c.1.1.1.1.1.2s0,.1-.1.2S55.3,3.7,55.2,3.7Z"/><path class="cls-2" d="M59,20.7c-.1,0-.1,0-.2-.1s-.1-.1-.1-.2,0-.1.1-.2a.3.3,0,0,1,.4,0c0,.1.1.1.1.2s0,.1-.1.2S59.1,20.7,59,20.7Z"/><path class="cls-2" d="M67.5,57.2c-.1,0-.1,0-.2-.1s-.1-.1-.1-.2,0-.1.1-.2a.3.3,0,0,1,.4,0c.1.1.1.1.1.2s0,.1-.1.2S67.6,57.2,67.5,57.2Z"/><path class="cls-2" d="M47.2,69.7c-.1,0-.1,0-.2-.1s-.1-.1-.1-.2,0-.1.1-.2a.3.3,0,0,1,.4,0c.1.1.1.1.1.2s0,.1-.1.2S47.3,69.7,47.2,69.7Z"/><path class="cls-2" d="M5.2,69.7c-.1,0-.1,0-.2-.1v-.1c0-.1,0-.1.1-.2a.3.3,0,0,1,.4,0c.1.1.1.1.1.2s0,.1-.1.2Z"/><path class="cls-2" d="M4.7,40.2c-.1,0-.1,0-.2-.1s-.1-.1-.1-.2,0-.1.1-.2a.3.3,0,0,1,.4,0c.1.2.1.2.1.3s0,.1-.1.2Z"/><path class="cls-2" d="M69.7,12.7c-.1,0-.1,0-.2-.1s-.1-.1-.1-.2,0-.1.1-.2a.3.3,0,0,1,.4,0c.1.1.1.1.1.2s0,.1-.1.2S69.8,12.7,69.7,12.7Z"/><path class="cls-2" d="M23.2,14c-.1,0-.1,0-.2-.1s-.1-.1-.1-.2,0-.1.1-.2a.3.3,0,0,1,.4,0c0,.1.1.1.1.2s0,.1-.1.2S23.3,14,23.2,14Z"/><path class="cls-2" d="M20.5,17.2c-.1,0-.1,0-.2-.1s-.1-.1-.1-.2,0-.1.1-.2a.3.3,0,0,1,.4,0c.1.1.1.1.1.2s0,.1-.1.2S20.6,17.2,20.5,17.2Z"/><path class="cls-2" d="M14.7,17.2c-.1,0-.1,0-.2-.1s-.1-.1-.1-.2,0-.1.1-.2a.3.3,0,0,1,.4,0c.1.1.1.1.1.2s0,.1-.1.2S14.8,17.2,14.7,17.2Z"/><path class="cls-2" d="M2.7,13.2c-.1,0-.1,0-.2-.1s-.1-.1-.1-.2,0-.1.1-.2a.3.3,0,0,1,.4,0c.1.2.1.2.1.3s0,.1-.1.2Z"/><path class="cls-2" d="M6,11.7c-.1,0-.1,0-.2-.1s-.1-.1-.1-.2,0-.1.1-.2a.3.3,0,0,1,.4,0c.1.1.1.1.1.2s0,.1-.1.2S6.1,11.7,6,11.7Z"/><path class="cls-2" d="M7,2.7c-.1,0-.1,0-.2-.1s-.1-.1-.1-.2,0-.1.1-.2a.3.3,0,0,1,.4,0c.1.1.1.1.1.2s0,.1-.1.2S7.1,2.7,7,2.7Z"/><path class="cls-2" d="M10,8.2c-.1,0-.1,0-.2-.1s-.1-.1-.1-.2,0-.1.1-.2a.3.3,0,0,1,.4,0c.1.1.1.1.1.2s0,.1-.1.2S10.1,8.2,10,8.2Z"/><path class="cls-2" d="M16,8.2c-.1,0-.1,0-.2-.1s-.1-.1-.1-.2,0-.1.1-.2a.3.3,0,0,1,.4,0c.1.1.1.1.1.2s0,.1-.1.2S16.1,8.2,16,8.2Z"/><path class="cls-2" d="M16.5,3.2c-.1,0-.1,0-.2-.1s-.1-.1-.1-.2,0-.1.1-.2a.3.3,0,0,1,.4,0c.1.1.1.1.1.2s0,.1-.1.2S16.6,3.2,16.5,3.2Z"/><path class="cls-2" d="M25.7,7c-.1,0-.1,0-.2-.1s-.1-.1-.1-.2,0-.1.1-.2a.3.3,0,0,1,.4,0c.1.1.1.1.1.2s0,.1-.1.2S25.8,7,25.7,7Z"/><path class="cls-2" d="M37,7.5c-.1,0-.1,0-.2-.1s-.1-.1-.1-.2,0-.1.1-.2a.3.3,0,0,1,.4,0c.1.1.1.1.1.2s0,.1-.1.2S37.1,7.5,37,7.5Z"/><path class="cls-2" d="M40.5,4.5c-.1,0-.1,0-.2-.1s-.1-.1-.1-.2,0-.1.1-.2a.3.3,0,0,1,.4,0c0,.1.1.1.1.2s0,.1-.1.2S40.6,4.5,40.5,4.5Z"/><path class="cls-2" d="M37.5,4.2c-.1,0-.1,0-.2-.1s-.1-.1-.1-.2,0-.1.1-.2a.3.3,0,0,1,.4,0c0,.1.1.1.1.2s0,.1-.1.2S37.6,4.2,37.5,4.2Z"/><path class="cls-2" d="M43.2,2.2c-.1,0-.1,0-.2-.1s-.1-.1-.1-.2,0-.1.1-.2a.3.3,0,0,1,.4,0c.1.1.1.1.1.2s0,.1-.1.2S43.3,2.2,43.2,2.2Z"/><path class="cls-2" d="M49.5,8.2c-.1,0-.1,0-.2-.1s-.1-.1-.1-.2,0-.1.1-.2a.3.3,0,0,1,.4,0c.1.1.1.1.1.2s0,.1-.1.2S49.6,8.2,49.5,8.2Z"/><path class="cls-2" d="M46,9.2c-.1,0-.1,0-.2-.1s-.1-.1-.1-.2,0-.1.1-.2a.3.3,0,0,1,.4,0c.1.1.1.1.1.2s0,.1-.1.2S46.1,9.2,46,9.2Z"/><path class="cls-2" d="M35.7,11c-.1,0-.1,0-.2-.1s-.1-.1-.1-.2,0-.1.1-.2a.3.3,0,0,1,.4,0c.1.1.1.1.1.2s0,.1-.1.2S35.8,11,35.7,11Z"/><path class="cls-2" d="M39.2,15c-.1,0-.1,0-.2-.1s-.1-.1-.1-.2,0-.1.1-.2a.3.3,0,0,1,.4,0c0,.1.1.1.1.2s0,.1-.1.2S39.3,15,39.2,15Z"/><path class="cls-2" d="M24.7,18c-.1,0-.1,0-.2-.1s-.1-.1-.1-.2,0-.1.1-.2a.3.3,0,0,1,.4,0c.1.1.1.1.1.2s0,.1-.1.2S24.8,18,24.7,18Z"/><path class="cls-2" d="M8.2,27.2c-.1,0-.1,0-.2-.1V27c0-.1,0-.1.1-.2a.3.3,0,0,1,.4,0c.1.1.1.1.1.2s0,.1-.1.2Z"/><path class="cls-2" d="M16,31.7c-.1,0-.1,0-.2-.1s-.1-.1-.1-.2,0-.1.1-.2a.3.3,0,0,1,.4,0c.1.1.1.1.1.2s0,.1-.1.2S16.1,31.7,16,31.7Z"/><path class="cls-2" d="M10.5,33.5c-.1,0-.1,0-.2-.1s-.1-.1-.1-.2,0-.1.1-.2a.3.3,0,0,1,.4,0c.1.1.1.1.1.2s0,.1-.1.2S10.6,33.5,10.5,33.5Z"/><path class="cls-2" d="M5.2,37c-.1,0-.1,0-.2-.1s-.1-.1-.1-.2,0-.1.1-.2a.3.3,0,0,1,.4,0c.1.1.1.1.1.2s0,.1-.1.2S5.3,37,5.2,37Z"/><path class="cls-2" d="M2.7,32c-.1,0-.1,0-.2-.1s-.1-.1-.1-.2,0-.1.1-.2a.3.3,0,0,1,.4,0c.1.1.1.1.1.2s0,.1-.1.2S2.8,32,2.7,32Z"/><path class="cls-2" d="M7.5,25c-.1,0-.1,0-.2-.1s-.1-.1-.1-.2,0-.1.1-.2.3-.1.3,0,.1.1.1.2,0,.1-.1.2S7.6,25,7.5,25Z"/><path class="cls-2" d="M3.2,20.5c-.1,0-.1,0-.2-.1s-.1-.1-.1-.2,0-.1.1-.2a.3.3,0,0,1,.4,0c.1.1.1.1.1.2s0,.1-.1.2S3.3,20.5,3.2,20.5Z"/><path class="cls-2" d="M20.5,30.7c-.1,0-.1,0-.2-.1s-.1-.1-.1-.2,0-.1.1-.2a.3.3,0,0,1,.4,0c0,.1.1.1.1.2s0,.1-.1.2S20.6,30.7,20.5,30.7Z"/><path class="cls-2" d="M17.5,35.5c-.1,0-.1,0-.2-.1s-.1-.1-.1-.2,0-.1.1-.2a.3.3,0,0,1,.4,0c.1.1.1.1.1.2s0,.1-.1.2S17.6,35.5,17.5,35.5Z"/><path class="cls-2" d="M16,39c-.1,0-.1,0-.2-.1s-.1-.1-.1-.2,0-.1.1-.2a.3.3,0,0,1,.4,0c.1.1.1.1.1.2s0,.1-.1.2S16.1,39,16,39Z"/><path class="cls-2" d="M12.7,41.2c-.1,0-.1,0-.2-.1s-.1-.1-.1-.2,0-.1.1-.2a.3.3,0,0,1,.4,0c.1.1.1.1.1.2s0,.1-.1.2S12.8,41.2,12.7,41.2Z"/><path class="cls-2" d="M12.7,46.5c-.1,0-.1,0-.2-.1s-.1-.1-.1-.2,0-.1.1-.2a.3.3,0,0,1,.4,0c.1.1.1.1.1.2s0,.1-.1.2S12.8,46.5,12.7,46.5Z"/><path class="cls-2" d="M4,46.7c-.1,0-.1,0-.2-.1s-.1-.1-.1-.2,0-.1.1-.2.3-.1.3,0,.1.1.1.2,0,.1-.2.3Z"/><path class="cls-2" d="M5.7,48.5c-.1,0-.1,0-.2-.1s-.1-.1-.1-.2,0-.1.1-.2a.3.3,0,0,1,.4,0c.1.1.1.1.1.2s0,.1-.1.2S5.8,48.5,5.7,48.5Z"/><path class="cls-2" d="M11,50.5c-.1,0-.1,0-.2-.1s-.1-.1-.1-.2,0-.1.1-.2a.3.3,0,0,1,.4,0c0,.1.1.1.1.2s0,.1-.1.2S11.1,50.5,11,50.5Z"/><path class="cls-2" d="M11,54.5c-.1,0-.1,0-.2-.1s-.1-.1-.1-.2,0-.1.1-.2a.3.3,0,0,1,.4,0c.1.1.1.1.1.2s0,.1-.1.2S11.1,54.5,11,54.5Z"/><path class="cls-2" d="M15.5,58.5c-.1,0-.1,0-.2-.1s-.1-.1-.1-.2,0-.1.1-.2a.3.3,0,0,1,.4,0c.1.1.1.1.1.2s0,.1-.1.2S15.6,58.5,15.5,58.5Z"/><path class="cls-2" d="M10,59.7c-.1,0-.1,0-.2-.1s-.1-.1-.1-.2,0-.1.1-.2a.3.3,0,0,1,.4,0c.1.1.1.1.1.2s0,.1-.1.2S10.1,59.7,10,59.7Z"/><path class="cls-2" d="M6,63.5c-.1,0-.1,0-.2-.1s-.1-.1-.1-.2,0-.1.1-.2a.6.6,0,0,1,.4.1c.1.1.1.1.1.2s0,.1-.1.2Z"/><path class="cls-2" d="M2.2,62c-.1,0-.1,0-.2-.1s-.1-.1-.1-.2,0-.1.1-.2.3-.1.3,0,.1.1.1.2S2.4,61.8,2.2,62Z"/><path class="cls-2" d="M7.2,67.7c-.1,0-.1,0-.2-.1v-.1c0-.1,0-.1.1-.2a.3.3,0,0,1,.4,0c.1.1.1.1.1.2s0,.1-.1.2Z"/><path class="cls-2" d="M13.5,69.5c-.1,0-.1,0-.2-.1s-.1-.1-.1-.2,0-.1.1-.2a.3.3,0,0,1,.4,0c.1.1.1.1.1.2s0,.1-.1.2S13.6,69.5,13.5,69.5Z"/><path class="cls-2" d="M13.5,65.7c-.1,0-.1,0-.2-.1s-.1-.1-.1-.2,0-.1.1-.2a.3.3,0,0,1,.4,0c0,.1.1.1.1.2s0,.1-.1.2S13.6,65.7,13.5,65.7Z"/><path class="cls-2" d="M21.5,68.5c-.1,0-.1,0-.2-.1s-.1-.1-.1-.2,0-.1.1-.2a.3.3,0,0,1,.4,0c.1.1.1.1.1.2s0,.1-.1.2S21.6,68.5,21.5,68.5Z"/><path class="cls-2" d="M23,65.7c-.1,0-.1,0-.2-.1s-.1-.1-.1-.2,0-.1.1-.2a.3.3,0,0,1,.4,0c.1.1.1.1.1.2s0,.1-.1.2S23.1,65.7,23,65.7Z"/><path class="cls-2" d="M22.2,60c-.1,0-.1,0-.2-.1s-.1-.1-.1-.2,0-.1.1-.2a.3.3,0,0,1,.4,0c.1.1.1.1.1.2s0,.1-.1.2S22.3,60,22.2,60Z"/><path class="cls-2" d="M24.2,57.5c-.1,0-.1,0-.2-.1s-.1-.1-.1-.2,0-.1.1-.2a.3.3,0,0,1,.4,0c.1.1.1.1.1.2s0,.1-.1.2S24.3,57.5,24.2,57.5Z"/><path class="cls-2" d="M22,53.2c-.1,0-.1,0-.2-.1s-.1-.1-.1-.2,0-.1.1-.2a.3.3,0,0,1,.4,0c0,.1.1.1.1.2s0,.1-.1.2S22.1,53.2,22,53.2Z"/><path class="cls-2" d="M26.2,47.7c-.1,0-.1,0-.2-.1s-.1-.1-.1-.2,0-.1.1-.2a.3.3,0,0,1,.4,0c.1.1.1.1.1.2s0,.1-.1.2S26.3,47.7,26.2,47.7Z"/><path class="cls-2" d="M25.7,43.5c-.1,0-.1,0-.2-.1s-.1-.1-.1-.2,0-.1.1-.2a.3.3,0,0,1,.4,0c0,.1.1.1.1.2s0,.1-.1.2S25.8,43.5,25.7,43.5Z"/><path class="cls-2" d="M31.2,37.5c-.1,0-.1,0-.2-.1s-.1-.1-.1-.2,0-.1.1-.2a.3.3,0,0,1,.4,0c0,.1.1.1.1.2s0,.1-.1.2S31.3,37.5,31.2,37.5Z"/><path class="cls-2" d="M32.2,31c-.1,0-.1,0-.2-.1s-.1-.1-.1-.2,0-.1.1-.2a.3.3,0,0,1,.4,0c.1.1.1.1.1.2s0,.1-.1.2S32.3,31,32.2,31Z"/><path class="cls-2" d="M26,34c-.1,0-.1,0-.2-.1s-.1-.1-.1-.2,0-.1.1-.2a.3.3,0,0,1,.4,0c.1.1.1.1.1.2s0,.1-.1.2S26.1,34,26,34Z"/><path class="cls-2" d="M34.2,27.7c-.1,0-.1,0-.2-.1s-.1-.1-.1-.2,0-.1.1-.2a.3.3,0,0,1,.4,0c0,.1.1.1.1.2s0,.1-.1.2S34.3,27.7,34.2,27.7Z"/><path class="cls-2" d="M37.2,28.5c-.1,0-.1,0-.2-.1s-.1-.1-.1-.2,0-.1.1-.2.3-.1.3,0,.1.1.1.2S37.4,28.3,37.2,28.5Z"/><path class="cls-2" d="M41.7,25.7c-.1,0-.1,0-.2-.1s-.1-.1-.1-.2,0-.1.1-.2a.3.3,0,0,1,.4,0c0,.1.1.1.1.2s0,.1-.1.2S41.8,25.7,41.7,25.7Z"/><path class="cls-2" d="M43,20.7c-.1,0-.1,0-.2-.1s-.1-.1-.1-.2,0-.1.1-.2a.3.3,0,0,1,.4,0c.1.1.1.1.1.2s0,.1-.1.2S43.1,20.7,43,20.7Z"/><path class="cls-2" d="M36.5,19.2c-.1,0-.1,0-.2-.1s-.1-.1-.1-.2,0-.1.1-.2a.3.3,0,0,1,.4,0c.1.1.1.1.1.2s0,.1-.1.2S36.6,19.2,36.5,19.2Z"/><path class="cls-2" d="M27.7,22.2c-.1,0-.1,0-.2-.1s-.1-.1-.1-.2,0-.1.1-.2a.3.3,0,0,1,.4,0c.1.1.1.1.1.2s0,.1-.1.2S27.8,22.2,27.7,22.2Z"/><path class="cls-2" d="M52,22c-.1,0-.1,0-.2-.1s-.1-.1-.1-.2,0-.1.1-.2a.3.3,0,0,1,.4,0c0,.1.1.1.1.2s0,.1-.1.2S52.1,22,52,22Z"/><path class="cls-2" d="M43.2,17.7c-.1,0-.1,0-.2-.1s-.1-.1-.1-.2,0-.1.1-.2a.3.3,0,0,1,.4,0c0,.1.1.1.1.2s0,.1-.1.2S43.3,17.7,43.2,17.7Z"/><path class="cls-2" d="M50.5,18c-.1,0-.1,0-.2-.1s-.1-.1-.1-.2,0-.1.1-.2a.3.3,0,0,1,.4,0c0,.1.1.1.1.2s0,.1-.1.2S50.6,18,50.5,18Z"/><path class="cls-2" d="M59.5,17.2c-.1,0-.1,0-.2-.1s-.1-.1-.1-.2,0-.1.1-.2a.3.3,0,0,1,.4,0c.1.1.1.1.1.2s0,.1-.1.2S59.6,17.2,59.5,17.2Z"/><path class="cls-2" d="M58.2,14c-.1,0-.1,0-.2-.1s-.1-.1-.1-.2,0-.1.1-.2a.3.3,0,0,1,.4,0c.1.1.1.1.1.2s0,.1-.1.2S58.3,14,58.2,14Z"/><path class="cls-2" d="M61.5,11c-.1,0-.1,0-.2-.1s-.1-.1-.1-.2,0-.1.1-.2a.3.3,0,0,1,.4,0c.1.1.1.1.1.2s0,.1-.1.2S61.6,11,61.5,11Z"/><path class="cls-2" d="M58.7,7.5c-.1,0-.1,0-.2-.1s-.1-.1-.1-.2,0-.1.1-.2a.3.3,0,0,1,.4,0c.1.1.1.1.1.2s0,.1-.1.2S58.8,7.5,58.7,7.5Z"/><path class="cls-2" d="M60,4.7c-.1,0-.1,0-.2-.1s-.1-.1-.1-.2,0-.1.1-.2a.3.3,0,0,1,.4,0c.1.1.1.1.1.2s0,.1-.1.2S60.1,4.7,60,4.7Z"/><path class="cls-2" d="M67.5,6c-.1,0-.1,0-.2-.1s-.1-.1-.1-.2,0-.1.1-.2a.3.3,0,0,1,.4,0c0,.1.1.1.1.2s0,.1-.1.2S67.6,6,67.5,6Z"/><path class="cls-2" d="M69.5,8c-.1,0-.1,0-.2-.1s-.1-.1-.1-.2,0-.1.1-.2a.3.3,0,0,1,.4,0c.1.1.1.1.1.2s0,.1-.1.2S69.6,8,69.5,8Z"/><path class="cls-2" d="M65.7,9.7c-.1,0-.1,0-.2-.1s-.1-.1-.1-.2,0-.1.1-.2a.3.3,0,0,1,.4,0c.1.1.1.1.1.2s0,.1-.1.2S65.8,9.7,65.7,9.7Z"/><path class="cls-2" d="M61.7,16.5c-.1,0-.1,0-.2-.1s-.1-.1-.1-.2,0-.1.1-.2a.3.3,0,0,1,.4,0c.1.1.1.1.1.2s0,.1-.1.2S61.8,16.5,61.7,16.5Z"/><path class="cls-2" d="M60.2,23.7c-.1,0-.1,0-.2-.1s-.1-.1-.1-.2,0-.1.1-.2a.3.3,0,0,1,.4,0c.1.1.1.1.1.2s0,.1-.1.2S60.3,23.7,60.2,23.7Z"/><path class="cls-2" d="M55.5,23.7c-.1,0-.1,0-.2-.1s-.1-.1-.1-.2,0-.1.1-.2a.3.3,0,0,1,.4,0c.1.1.1.1.1.2s0,.1-.1.2S55.6,23.7,55.5,23.7Z"/><path class="cls-2" d="M55.5,18.7c-.1,0-.1,0-.2-.1s-.1-.1-.1-.2,0-.1.1-.2a.3.3,0,0,1,.4,0c.1.1.1.1.1.2s0,.1-.1.2S55.6,18.7,55.5,18.7Z"/><path class="cls-2" d="M65,25.7c-.1,0-.1,0-.2-.1s-.1-.1-.1-.2,0-.1.1-.2a.3.3,0,0,1,.4,0c.1.1.1.1.1.2s0,.1-.1.2S65.1,25.7,65,25.7Z"/><path class="cls-2" d="M61.2,27c-.1,0-.1,0-.2-.1s-.1-.1-.1-.2,0-.1.1-.2a.3.3,0,0,1,.4,0c.1.1.1.1.1.2s0,.1-.1.2S61.3,27,61.2,27Z"/><path class="cls-2" d="M57.7,30.7c-.1,0-.1,0-.2-.1s-.1-.1-.1-.2,0-.1.1-.2a.3.3,0,0,1,.4,0c.1.1.1.1.1.2s0,.1-.1.2S57.8,30.7,57.7,30.7Z"/><path class="cls-2" d="M52.7,32.7c-.1,0-.1,0-.2-.1s-.1-.1-.1-.2,0-.1.1-.2a.3.3,0,0,1,.4,0c.1.1.1.1.1.2s0,.1-.1.2S52.8,32.7,52.7,32.7Z"/><path class="cls-2" d="M47.5,33.7c-.1,0-.1,0-.2-.1s-.1-.1-.1-.2,0-.1.1-.2.3-.1.3,0,.1.1.1.2S47.7,33.5,47.5,33.7Z"/><path class="cls-2" d="M44.2,39.2c-.1,0-.1,0-.2-.1s-.1-.1-.1-.2,0-.1.1-.2a.3.3,0,0,1,.4,0c.1.1.1.1.1.2s0,.1-.1.2S44.3,39.2,44.2,39.2Z"/><path class="cls-2" d="M34,41.5c-.1,0-.1,0-.2-.1s-.1-.1-.1-.2,0-.1.1-.2a.3.3,0,0,1,.4,0c.1.1.1.1.1.2s0,.1-.1.2S34.1,41.5,34,41.5Z"/><path class="cls-2" d="M40.7,48c-.1,0-.1,0-.2-.1s-.1-.1-.1-.2,0-.1.1-.2a.3.3,0,0,1,.4,0c.1.1.1.1.1.2s0,.1-.1.2S40.8,48,40.7,48Z"/><path class="cls-2" d="M45.7,52.2c-.1,0-.1,0-.2-.1s-.1-.1-.1-.2,0-.1.1-.2a.3.3,0,0,1,.4,0c.1.1.1.1.1.2s0,.1-.1.2S45.8,52.2,45.7,52.2Z"/><path class="cls-2" d="M46.5,56.7c-.1,0-.1,0-.2-.1s-.1-.1-.1-.2,0-.1.1-.2a.3.3,0,0,1,.4,0c.1.1.1.1.1.2s0,.1-.1.2S46.6,56.7,46.5,56.7Z"/><path class="cls-2" d="M42,59.5c-.1,0-.1,0-.2-.1s-.1-.1-.1-.2,0-.1.1-.2a.3.3,0,0,1,.4,0c.1.1.1.1.1.2s0,.1-.1.2S42.1,59.5,42,59.5Z"/><path class="cls-2" d="M40,62.7c-.1,0-.1,0-.2-.1s-.1-.1-.1-.2,0-.1.1-.2a.3.3,0,0,1,.4,0c.1.1.1.1.1.2s0,.1-.1.2S40.1,62.7,40,62.7Z"/><path class="cls-2" d="M36,62.7c-.1,0-.1,0-.2-.1s-.1-.1-.1-.2,0-.1.1-.2a.3.3,0,0,1,.4,0c0,.1.1.1.1.2s0,.1-.1.2S36.1,62.7,36,62.7Z"/><path class="cls-2" d="M36.5,52.7c-.1,0-.1,0-.2-.1s-.1-.1-.1-.2,0-.1.1-.2a.3.3,0,0,1,.4,0c0,.1.1.1.1.2s0,.1-.1.2S36.6,52.7,36.5,52.7Z"/><path class="cls-2" d="M30,63.5c-.1,0-.1,0-.2-.1s-.1-.1-.1-.2,0-.1.1-.2a.3.3,0,0,1,.4,0c.1.1.1.1.1.2s0,.1-.1.2S30.1,63.5,30,63.5Z"/><path class="cls-2" d="M31.5,68.5c-.1,0-.1,0-.2-.1s-.1-.1-.1-.2,0-.1.1-.2.3-.1.3,0,.1.1.1.2S31.7,68.3,31.5,68.5Z"/><path class="cls-2" d="M37,71c-.1,0-.1,0-.2-.1s-.1-.1-.1-.2,0-.1.1-.2a.3.3,0,0,1,.4,0c.1.1.1.1.1.2s0,.1-.1.2S37.1,71,37,71Z"/><path class="cls-2" d="M58.7,57c-.1,0-.1,0-.2-.1s-.1-.1-.1-.2,0-.1.1-.2a.3.3,0,0,1,.4,0c.1.1.1.1.1.2s0,.1-.1.2S58.8,57,58.7,57Z"/><path class="cls-2" d="M63,57c-.1,0-.1,0-.2-.1s-.1-.1-.1-.2,0-.1.1-.2a.3.3,0,0,1,.4,0c.1.1.1.1.1.2s0,.1-.1.2S63.1,57,63,57Z"/><path class="cls-2" d="M60,50.7c-.1,0-.1,0-.2-.1s-.1-.1-.1-.2,0-.1.1-.2a.3.3,0,0,1,.4,0c.1.1.1.1.1.2s0,.1-.1.2S60.1,50.7,60,50.7Z"/><path class="cls-2" d="M54.5,50.5c-.1,0-.1,0-.2-.1s-.1-.1-.1-.2,0-.1.1-.2a.3.3,0,0,1,.4,0c0,.1.1.1.1.2s0,.1-.1.2S54.6,50.5,54.5,50.5Z"/><path class="cls-2" d="M59.2,44.2c-.1,0-.1,0-.2-.1s-.1-.1-.1-.2,0-.1.1-.2a.3.3,0,0,1,.4,0c0,.1.1.1.1.2s0,.1-.1.2S59.3,44.2,59.2,44.2Z"/><path class="cls-2" d="M54.7,41.7c-.1,0-.1,0-.2-.1s-.1-.1-.1-.2,0-.1.1-.2a.3.3,0,0,1,.4,0c.1.1.1.1.1.2s0,.1-.1.2S54.8,41.7,54.7,41.7Z"/><path class="cls-2" d="M55.7,35.5c-.1,0-.1,0-.2-.1s-.1-.1-.1-.2,0-.1.1-.2a.3.3,0,0,1,.4,0c.1.1.1.1.1.2s0,.1-.1.2S55.8,35.5,55.7,35.5Z"/><path class="cls-2" d="M62.5,42.2c-.1,0-.1,0-.2-.1s-.1-.1-.1-.2,0-.1.1-.2a.19.19,0,0,1,.3,0h0c.1,0,.1.1.1.2s0,.1-.2.3Z"/><path class="cls-2" d="M67,47.5c-.1,0-.1,0-.2-.1s-.1-.1-.1-.2,0-.1.1-.2a.3.3,0,0,1,.4,0c.1.1.1.1.1.2s0,.1-.1.2S67.1,47.5,67,47.5Z"/><path class="cls-2" d="M69.5,54.2c-.1,0-.1,0-.2-.1s-.1-.1-.1-.2,0-.1.1-.2a.3.3,0,0,1,.4,0c.1.1.1.1.1.2s0,.1-.1.2S69.6,54.2,69.5,54.2Z"/><path class="cls-2" d="M63.5,61.7c-.1,0-.1,0-.2-.1s-.1-.1-.1-.2,0-.1.1-.2a.3.3,0,0,1,.4,0c.1.1.1.1.1.2s0,.1-.1.2S63.6,61.7,63.5,61.7Z"/><path class="cls-2" d="M69.2,63.5c-.1,0-.1,0-.2-.1s-.1-.1-.1-.2,0-.1.1-.2a.3.3,0,0,1,.4,0c.1.1.1.1.1.2s0,.1-.1.2S69.3,63.5,69.2,63.5Z"/><path class="cls-2" d="M64.7,65.5c-.1,0-.1,0-.2-.1s-.1-.1-.1-.2,0-.1.1-.2a.3.3,0,0,1,.4,0,.37.37,0,0,1,.1.3l-.1.1C64.9,65.5,64.8,65.5,64.7,65.5Z"/><path class="cls-2" d="M65.7,68.2c-.1,0-.1,0-.2-.1s-.1-.1-.1-.2,0-.1.1-.2a.3.3,0,0,1,.4,0c.1.2.1.2.1.3s0,.1-.1.2Z"/><path class="cls-2" d="M69.2,70.5c-.1,0-.1,0-.2-.1s-.1-.1-.1-.2,0-.1.1-.2a.3.3,0,0,1,.4,0c.1.1.1.1.1.2s0,.1-.1.2S69.3,70.5,69.2,70.5Z"/><path class="cls-2" d="M62.5,70.2c-.1,0-.1,0-.2-.1s-.1-.1-.1-.2,0-.1.1-.2a.19.19,0,0,1,.3,0h0c.1,0,.1.1.1.2S62.7,70,62.5,70.2Z"/><path class="cls-2" d="M60.7,65.7c-.1,0-.1,0-.2-.1s-.1-.1-.1-.2,0-.1.1-.2a.3.3,0,0,1,.4,0c.1.1.1.1.1.2s0,.1-.1.2S60.8,65.7,60.7,65.7Z"/><path class="cls-2" d="M52.7,69.7c-.1,0-.1,0-.2-.1s-.1-.1-.1-.2,0-.1.1-.2a.3.3,0,0,1,.4,0c.1.1.1.1.1.2s0,.1-.1.2S52.8,69.7,52.7,69.7Z"/><path class="cls-2" d="M44.7,66.5c-.1,0-.1,0-.2-.1s-.1-.1-.1-.2,0-.1.1-.2a.3.3,0,0,1,.4,0c.1.1.1.1.1.2s0,.1-.1.2S44.8,66.5,44.7,66.5Z"/><path class="cls-2" d="M44.5,71.2c-.1,0-.1,0-.2-.1s-.1-.1-.1-.2,0-.1.1-.2a.3.3,0,0,1,.4,0c.1.1.1.1.1.2s0,.1-.1.2S44.6,71.2,44.5,71.2Z"/><path class="cls-2" d="M28.5,71.2c-.1,0-.1,0-.2-.1s-.1-.1-.1-.2,0-.1.1-.2a.3.3,0,0,1,.4,0c.1.1.1.1.1.2s0,.1-.1.2S28.6,71.2,28.5,71.2Z"/><path class="cls-2" d="M.7,29.5c-.1,0-.1,0-.2-.1s-.1-.1-.1-.2,0-.1.1-.2.2-.1.4,0,.1.1.1.2,0,.1-.1.2S.8,29.5.7,29.5Z"/><path class="cls-2" d="M24.5,1c-.1,0-.1,0-.2-.1s-.1-.1-.1-.2,0-.1.1-.2a.3.3,0,0,1,.4,0c.1.1.1.1.1.2s0,.1-.1.2S24.6,1,24.5,1Z"/><path class="cls-2" d="M13.2,5c-.1,0-.1,0-.2-.1s-.1-.1-.1-.2,0-.1.1-.2a.3.3,0,0,1,.4,0c.1.1.1.1.1.2s0,.1-.1.2S13.3,5,13.2,5Z"/><path class="cls-2" d="M71,35.2c-.1,0-.1,0-.2-.1s-.1-.1-.1-.2,0-.1.1-.2a.3.3,0,0,1,.4,0c.1.1.1.1.1.2s0,.1-.1.2S71.1,35.2,71,35.2Z"/></pattern><pattern id="SVGID_4_" data-name="SVGID 4 " width="72" height="72" patternTransform="matrix(1, 0, 0, -1, -1067.49, -17189.03)" patternUnits="userSpaceOnUse" viewBox="0 0 72 72"><rect class="cls-1" width="72" height="72"/><rect class="cls-1" width="72" height="72"/><rect class="cls-1" width="72" height="72"/><rect class="cls-1" width="72" height="72"/><rect class="cls-1" width="72" height="72"/><rect class="cls-1" width="72" height="72"/><rect class="cls-1" width="72" height="72"/><path class="cls-2" d="M21,3c-.1,0-.1,0-.2-.1s-.1-.1-.1-.2,0-.1.1-.2a.3.3,0,0,1,.4,0c.1.1.1.1.1.2s0,.1-.1.2S21.1,3,21,3Z"/><path class="cls-2" d="M20,8.2c-.1,0-.1,0-.2-.1s-.1-.1-.1-.2,0-.1.1-.2a.3.3,0,0,1,.4,0c.1.1.1.1.1.2s0,.1-.1.2S20.1,8.2,20,8.2Z"/><path class="cls-2" d="M20.2,10.5c-.1,0-.1,0-.2-.1s-.1-.1-.1-.2,0-.1.1-.2a.3.3,0,0,1,.4,0c.1.1.1.1.1.2s0,.1-.1.2S20.3,10.5,20.2,10.5Z"/><path class="cls-2" d="M18,12.7c-.1,0-.1,0-.2-.1s-.1-.1-.1-.2,0-.1.1-.2a.3.3,0,0,1,.4,0c.1.1.1.1.1.2s0,.1-.1.2S18.1,12.7,18,12.7Z"/><path class="cls-2" d="M15.2,10.5c-.1,0-.1,0-.2-.1s-.1-.1-.1-.2,0-.1.1-.2a.3.3,0,0,1,.4,0c.1.1.1.1.1.2s0,.1-.1.2S15.3,10.5,15.2,10.5Z"/><path class="cls-2" d="M22.7,20c-.1,0-.1,0-.2-.1s-.1-.1-.1-.2,0-.1.1-.2a.3.3,0,0,1,.4,0c0,.1.1.1.1.2s0,.1-.1.2S22.8,20,22.7,20Z"/><path class="cls-2" d="M15.2,23c-.1,0-.1,0-.2-.1s-.1-.1-.1-.2,0-.1.1-.2a.3.3,0,0,1,.4,0c.1.1.1.1.1.2s0,.1-.1.2S15.3,23,15.2,23Z"/><path class="cls-2" d="M14,24c-.1,0-.1,0-.2-.1s-.1-.1-.1-.2,0-.1.1-.2a.3.3,0,0,1,.4,0c.1.1.1.1.1.2s0,.1-.1.2S14.1,24,14,24Z"/><path class="cls-2" d="M24,27c-.1,0-.1,0-.2-.1s-.1-.1-.1-.2,0-.1.1-.2a.3.3,0,0,1,.4,0c0,.1.1.1.1.2s0,.1-.1.2S24.1,27,24,27Z"/><path class="cls-2" d="M30.7,25.7c-.1,0-.1,0-.2-.1s-.1-.1-.1-.2,0-.1.1-.2a.3.3,0,0,1,.4,0c.1.1.1.1.1.2s0,.1-.1.2S30.8,25.7,30.7,25.7Z"/><path class="cls-2" d="M31.2,23.2c-.1,0-.1,0-.2-.1s-.1-.1-.1-.2,0-.1.1-.2a.3.3,0,0,1,.4,0c0,.1.1.1.1.2s0,.1-.1.2S31.3,23.2,31.2,23.2Z"/><path class="cls-2" d="M29.2,18.2c-.1,0-.1,0-.2-.1s-.1-.1-.1-.2,0-.1.1-.2a.3.3,0,0,1,.4,0c.1.1.1.1.1.2s0,.1-.1.2S29.3,18.2,29.2,18.2Z"/><path class="cls-2" d="M32.2,18.2c-.1,0-.1,0-.2-.1s-.1-.1-.1-.2,0-.1.1-.2a.3.3,0,0,1,.4,0c.1.1.1.1.1.2s0,.1-.1.2S32.3,18.2,32.2,18.2Z"/><path class="cls-2" d="M32.5,13.7c-.1,0-.1,0-.2-.1s-.1-.1-.1-.2,0-.1.1-.2a.3.3,0,0,1,.4,0c.1.1.1.1.1.2s0,.1-.1.2S32.6,13.7,32.5,13.7Z"/><path class="cls-2" d="M31.7,11.7c-.1,0-.1,0-.2-.1s-.1-.1-.1-.2,0-.1.1-.2a.3.3,0,0,1,.4,0c.1.1.1.1.1.2s0,.1-.1.2S31.8,11.7,31.7,11.7Z"/><path class="cls-2" d="M29.2,10.7c-.1,0-.1,0-.2-.1s-.1-.1-.1-.2,0-.1.1-.2a.3.3,0,0,1,.4,0c.1.1.1.1.1.2s0,.1-.1.2S29.3,10.7,29.2,10.7Z"/><path class="cls-2" d="M32.2,7c-.1,0-.1,0-.2-.1s-.1-.1-.1-.2,0-.1.1-.2a.3.3,0,0,1,.4,0c.1.1.1.1.1.2s0,.1-.1.2S32.3,7,32.2,7Z"/><path class="cls-2" d="M32,3c-.1,0-.1,0-.2-.1s-.1-.1-.1-.2,0-.1.1-.2.2-.1.4,0,.1.1.1.2,0,.1-.1.2S32.1,3,32,3Z"/><path class="cls-2" d="M29.2,3.2c-.1,0-.1,0-.2-.1s-.1-.1-.1-.2,0-.1.1-.2a.3.3,0,0,1,.4,0c.1.1.1.1.1.2s0,.1-.1.2S29.3,3.2,29.2,3.2Z"/><path class="cls-2" d="M34,1.2c-.1,0-.1,0-.2-.1s-.1-.1-.1-.2,0-.1.1-.2a.3.3,0,0,1,.4,0c.1.1.1.1.1.2s0,.1-.1.2S34.1,1.2,34,1.2Z"/><path class="cls-2" d="M41.5,7c-.1,0-.1,0-.2-.1s-.1-.1-.1-.2,0-.1.1-.2a.19.19,0,0,1,.3,0h0c.1.1.1.1.1.2S41.7,6.8,41.5,7Z"/><path class="cls-2" d="M45.5,6.7c-.1,0-.1,0-.2-.1s-.1-.1-.1-.2,0-.1.1-.2a.3.3,0,0,1,.4,0c.1.1.1.1.1.2s0,.1-.1.2S45.6,6.7,45.5,6.7Z"/><path class="cls-2" d="M40.2,10.2c-.1,0-.1,0-.2-.1s-.1-.1-.1-.2,0-.1.1-.2a.3.3,0,0,1,.4,0c.1.1.1.1.1.2s0,.1-.1.2S40.3,10.2,40.2,10.2Z"/><path class="cls-2" d="M45,11.7c-.1,0-.1,0-.2-.1s-.1-.1-.1-.2,0-.1.1-.2a.3.3,0,0,1,.4,0c.1.1.1.1.1.2s0,.1-.1.2S45.1,11.7,45,11.7Z"/><path class="cls-2" d="M45,13.5c-.1,0-.1,0-.2-.1s-.1-.1-.1-.2,0-.1.1-.2a.3.3,0,0,1,.4,0c.1.1.1.1.1.2s0,.1-.1.2S45.1,13.5,45,13.5Z"/><path class="cls-2" d="M47,14.2c-.1,0-.1,0-.2-.1s-.1-.1-.1-.2,0-.1.1-.2a.3.3,0,0,1,.4,0c.1.1.1.1.1.2s0,.1-.1.2S47.1,14.2,47,14.2Z"/><path class="cls-2" d="M47,16.2c-.1,0-.1,0-.2-.1s-.1-.1-.1-.2,0-.1.1-.2a.3.3,0,0,1,.4,0c.1.1.1.1.1.2s0,.1-.1.2S47.1,16.2,47,16.2Z"/><path class="cls-2" d="M47.2,22.7c-.1,0-.1,0-.2-.1s-.1-.1-.1-.2,0-.1.1-.2a.3.3,0,0,1,.4,0c.1.1.1.1.1.2s0,.1-.1.2S47.3,22.7,47.2,22.7Z"/><path class="cls-2" d="M39,20.7c-.1,0-.1,0-.2-.1s-.1-.1-.1-.2,0-.1.1-.2a.3.3,0,0,1,.4,0c.1.1.1.1.1.2s0,.1-.1.2S39.1,20.7,39,20.7Z"/><path class="cls-2" d="M50.2,13.5c-.1,0-.1,0-.2-.1s-.1-.1-.1-.2,0-.1.1-.2a.3.3,0,0,1,.4,0c.1.1.1.1.1.2s0,.1-.1.2S50.3,13.5,50.2,13.5Z"/><path class="cls-2" d="M52.2,12c-.1,0-.1,0-.2-.1s-.1-.1-.1-.2,0-.1.1-.2a.3.3,0,0,1,.4,0c.1.1.1.1.1.2s0,.1-.1.2S52.3,12,52.2,12Z"/><path class="cls-2" d="M54.7,11c-.1,0-.1,0-.2-.1s-.1-.1-.1-.2,0-.1.1-.2a.3.3,0,0,1,.4,0c.1.1.1.1.1.2s0,.1-.1.2S54.8,11,54.7,11Z"/><path class="cls-2" d="M54.7,6.7c-.1,0-.1,0-.2-.1s-.1-.1-.1-.2,0-.1.1-.2a.3.3,0,0,1,.4,0c0,.1.1.1.1.2s0,.1-.1.2S54.8,6.7,54.7,6.7Z"/><path class="cls-2" d="M56.5.7c-.1,0-.1,0-.2-.1s-.1-.1-.1-.2,0-.1.1-.2a.3.3,0,0,1,.4,0c0,.1.1.1.1.2s0,.1-.1.2S56.6.7,56.5.7Z"/><path class="cls-2" d="M64,6.5c-.1,0-.1,0-.2-.1s-.1-.1-.1-.2,0-.1.1-.2a.3.3,0,0,1,.4,0c0,.1.1.1.1.2s0,.1-.1.2S64.1,6.5,64,6.5Z"/><path class="cls-2" d="M65,2.5c-.1,0-.1,0-.2-.1s-.1-.1-.1-.2,0-.1.1-.2a.3.3,0,0,1,.4,0c.1.1.1.1.1.2s0,.1-.1.2S65.1,2.5,65,2.5Z"/><path class="cls-2" d="M68,3c-.1,0-.1,0-.2-.1s-.1-.1-.1-.2,0-.1.1-.2a.3.3,0,0,1,.4,0c.1.1.1.1.1.2s0,.1-.1.2S68.1,3,68,3Z"/><path class="cls-2" d="M68,10.2c-.1,0-.1,0-.2-.1s-.1-.1-.1-.2,0-.1.1-.2a.3.3,0,0,1,.4,0c.1.1.1.1.1.2s0,.1-.1.2S68.1,10.2,68,10.2Z"/><path class="cls-2" d="M64.2,12.2c-.1,0-.1,0-.2-.1s-.1-.1-.1-.2,0-.1.1-.2.3-.1.3,0,.1.1.1.2S64.4,12,64.2,12.2Z"/><path class="cls-2" d="M65.2,15.7c-.1,0-.1,0-.2-.1s-.1-.1-.1-.2,0-.1.1-.2a.3.3,0,0,1,.4,0c.1.1.1.1.1.2s0,.1-.1.2S65.3,15.7,65.2,15.7Z"/><path class="cls-2" d="M64,19.7c-.1,0-.1,0-.2-.1s-.1-.1-.1-.2,0-.1.1-.2a.3.3,0,0,1,.4,0c.1.1.1.1.1.2s0,.1-.1.2S64.1,19.7,64,19.7Z"/><path class="cls-2" d="M66.2,19.7c-.1,0-.1,0-.2-.1s-.1-.1-.1-.2,0-.1.1-.2a.3.3,0,0,1,.4,0c.1.1.1.1.1.2s0,.1-.1.2S66.3,19.7,66.2,19.7Z"/><path class="cls-2" d="M68,21.2c-.1,0-.1,0-.2-.1s-.1-.1-.1-.2,0-.1.1-.2a.3.3,0,0,1,.4,0c0,.1.1.1.1.2s0,.1-.1.2S68.1,21.2,68,21.2Z"/><path class="cls-2" d="M69.2,20.2c-.1,0-.1,0-.2-.1s-.1-.1-.1-.2,0-.1.1-.2a.3.3,0,0,1,.4,0c.1.1.1.1.1.2s0,.1-.1.2S69.3,20.2,69.2,20.2Z"/><path class="cls-2" d="M69.5,18c-.1,0-.1,0-.2-.1s-.1-.1-.1-.2,0-.1.1-.2a.3.3,0,0,1,.4,0c.1.1.1.1.1.2s0,.1-.1.2S69.6,18,69.5,18Z"/><path class="cls-2" d="M71.2,17.5c-.1,0-.1,0-.2-.1s-.1-.1-.1-.2,0-.1.1-.2a.3.3,0,0,1,.4,0c0,.1.1.1.1.2s0,.1-.1.2S71.3,17.5,71.2,17.5Z"/><path class="cls-2" d="M8,47c-.1,0-.1,0-.2-.1s-.1-.1-.1-.2,0-.1.1-.2a.3.3,0,0,1,.4,0c.1.1.1.1.1.2s0,.1-.1.2S8.1,47,8,47Z"/><path class="cls-2" d="M7,52.2c-.1,0-.1,0-.2-.1s-.1-.1-.1-.2,0-.1.1-.2a.3.3,0,0,1,.4,0c.1.1.1.1.1.2s0,.1-.1.2S7.1,52.2,7,52.2Z"/><path class="cls-2" d="M7.2,54.5c-.1,0-.1,0-.2-.1s-.1-.1-.1-.2,0-.1.1-.2a.3.3,0,0,1,.4,0c.1.1.1.1.1.2s0,.1-.1.2S7.3,54.5,7.2,54.5Z"/><path class="cls-2" d="M5,56.7c-.1,0-.1,0-.2-.1s-.1-.1-.1-.2,0-.1.1-.2a.3.3,0,0,1,.4,0c.1.1.1.1.1.2s0,.1-.1.2S5.1,56.7,5,56.7Z"/><path class="cls-2" d="M2.2,54.5c-.1,0-.1,0-.2-.1s-.1-.1-.1-.2,0-.1.1-.2.3-.1.3,0,.1.1.1.2S2.4,54.3,2.2,54.5Z"/><path class="cls-2" d="M9.7,64h0c-.1-.1-.2-.2-.2-.3s0-.1.1-.2a.3.3,0,0,1,.4,0c.1.1.1.1.1.2s0,.1-.1.2A.37.37,0,0,1,9.7,64Z"/><path class="cls-2" d="M2.2,67h0c-.2-.1-.2-.2-.2-.3s0-.1.1-.2a.3.3,0,0,1,.4,0c.1.1.1.1.1.2s0,.1-.1.2A.37.37,0,0,1,2.2,67Z"/><path class="cls-2" d="M1,68c-.1,0-.1,0-.2-.1s-.1-.1-.1-.2,0-.1.1-.2a.3.3,0,0,1,.4,0c.1.1.1.1.1.2s0,.1-.1.2S1.1,68,1,68Z"/><path class="cls-2" d="M11,71c-.1,0-.1,0-.2-.1s-.1-.1-.1-.2,0-.1.1-.2a.3.3,0,0,1,.4,0c.1.1.1.1.1.2s0,.1-.1.2S11.1,71,11,71Z"/><path class="cls-2" d="M17.7,69.7c-.1,0-.1,0-.2-.1s-.1-.1-.1-.2,0-.1.1-.2a.3.3,0,0,1,.4,0c.1.1.1.1.1.2s0,.1-.1.2S17.8,69.7,17.7,69.7Z"/><path class="cls-2" d="M18.2,67.2c-.1,0-.1,0-.2-.1V67c0-.1,0-.1.1-.2a.3.3,0,0,1,.4,0c.1.1.1.1.1.2s0,.1-.1.2Z"/><path class="cls-2" d="M16.2,62.2c-.1,0-.1,0-.2-.1s-.1-.1-.1-.2,0-.1.1-.2a.3.3,0,0,1,.4,0c.1.1.1.1.1.2s0,.1-.1.2S16.3,62.2,16.2,62.2Z"/><path class="cls-2" d="M19.2,62.2c-.1,0-.1,0-.2-.1s-.1-.1-.1-.2,0-.1.1-.2a.3.3,0,0,1,.4,0c.1.1.1.1.1.2s0,.1-.1.2S19.3,62.2,19.2,62.2Z"/><path class="cls-2" d="M19.5,57.7c-.1,0-.1,0-.2-.1s-.1-.1-.1-.2,0-.1.1-.2a.3.3,0,0,1,.4,0c0,.1.1.1.1.2s0,.1-.1.2S19.6,57.7,19.5,57.7Z"/><path class="cls-2" d="M18.7,55.7c-.1,0-.1,0-.2-.1s-.1-.1-.1-.2,0-.1.1-.2a.3.3,0,0,1,.4,0c.1.1.1.1.1.2s0,.1-.1.2S18.8,55.7,18.7,55.7Z"/><path class="cls-2" d="M16.2,54.7c-.1,0-.1,0-.2-.1s-.1-.1-.1-.2,0-.1.1-.2a.3.3,0,0,1,.4,0c.1.1.1.1.1.2s0,.1-.1.2S16.3,54.7,16.2,54.7Z"/><path class="cls-2" d="M19.2,51c-.1,0-.1,0-.2-.1s-.1-.1-.1-.2,0-.1.1-.2a.3.3,0,0,1,.4,0c.1.1.1.1.1.2s0,.1-.1.2S19.3,51,19.2,51Z"/><path class="cls-2" d="M19,47c-.1,0-.1,0-.2-.1s-.1-.1-.1-.2,0-.1.1-.2a.3.3,0,0,1,.4,0c.1.1.1.1.1.2s0,.1-.1.2S19.1,47,19,47Z"/><path class="cls-2" d="M16.2,47.2c-.1,0-.1,0-.2-.1s-.1-.1-.1-.2,0-.1.1-.2a.3.3,0,0,1,.4,0c.1.1.1.1.1.2s0,.1-.1.2S16.3,47.2,16.2,47.2Z"/><path class="cls-2" d="M21,45.2c-.1,0-.1,0-.2-.1s-.1-.1-.1-.2,0-.1.1-.2a.3.3,0,0,1,.4,0c.1.1.1.1.1.2s0,.1-.1.2S21.1,45.2,21,45.2Z"/><path class="cls-2" d="M28.5,51c-.1,0-.1,0-.2-.1s-.1-.1-.1-.2,0-.1.1-.2a.3.3,0,0,1,.4,0c0,.1.1.1.1.2s0,.1-.1.2S28.6,51,28.5,51Z"/><path class="cls-2" d="M32.5,50.7c-.1,0-.1,0-.2-.1s-.1-.1-.1-.2,0-.1.1-.2a.3.3,0,0,1,.4,0c.1.1.1.1.1.2s0,.1-.1.2S32.6,50.7,32.5,50.7Z"/><path class="cls-2" d="M27.2,54.2c-.1,0-.1,0-.2-.1s-.1-.1-.1-.2,0-.1.1-.2a.3.3,0,0,1,.4,0c.1.1.1.1.1.2s0,.1-.1.2S27.3,54.2,27.2,54.2Z"/><path class="cls-2" d="M32,55.7c-.1,0-.1,0-.2-.1s-.1-.1-.1-.2,0-.1.1-.2a.3.3,0,0,1,.4,0c0,.1.1.1.1.2s0,.1-.1.2S32.1,55.7,32,55.7Z"/><path class="cls-2" d="M32,57.5c-.1,0-.1,0-.2-.1s-.1-.1-.1-.2,0-.1.1-.2a.3.3,0,0,1,.4,0c0,.1.1.1.1.2s0,.1-.1.2S32.1,57.5,32,57.5Z"/><path class="cls-2" d="M34,58.2c-.1,0-.1,0-.2-.1s-.1-.1-.1-.2,0-.1.1-.2a.3.3,0,0,1,.4,0c.1.1.1.1.1.2s0,.1-.1.2S34.1,58.2,34,58.2Z"/><path class="cls-2" d="M34,60.2c-.1,0-.1,0-.2-.1s-.1-.1-.1-.2,0-.1.1-.2a.3.3,0,0,1,.4,0c0,.1.1.1.1.2s0,.1-.1.2S34.1,60.2,34,60.2Z"/><path class="cls-2" d="M34.2,66.7c-.1,0-.1,0-.2-.1s-.1-.1-.1-.2,0-.1.1-.2a.3.3,0,0,1,.4,0c.1.1.1.1.1.2s0,.1-.1.2S34.3,66.7,34.2,66.7Z"/><path class="cls-2" d="M26,64.7c-.1,0-.1,0-.2-.1s-.1-.1-.1-.2,0-.1.1-.2a.3.3,0,0,1,.4,0c.1.1.1.1.1.2s0,.1-.1.2S26.1,64.7,26,64.7Z"/><path class="cls-2" d="M37.2,57.5c-.1,0-.1,0-.2-.1s-.1-.1-.1-.2,0-.1.1-.2.3-.1.3,0,.1.1.1.2S37.4,57.3,37.2,57.5Z"/><path class="cls-2" d="M39.2,56c-.1,0-.1,0-.2-.1s-.1-.1-.1-.2,0-.1.1-.2a.3.3,0,0,1,.4,0c.1.1.1.1.1.2s0,.1-.1.2S39.3,56,39.2,56Z"/><path class="cls-2" d="M41.7,55c-.1,0-.1,0-.2-.1s-.1-.1-.1-.2,0-.1.1-.2a.3.3,0,0,1,.4,0c.1.1.1.1.1.2s0,.1-.1.2S41.8,55,41.7,55Z"/><path class="cls-2" d="M41.7,50.7c-.1,0-.1,0-.2-.1s-.1-.1-.1-.2,0-.1.1-.2a.3.3,0,0,1,.4,0c.1.1.1.1.1.2s0,.1-.1.2S41.8,50.7,41.7,50.7Z"/><path class="cls-2" d="M43.5,44.7c-.1,0-.1,0-.2-.1s-.1-.1-.1-.2,0-.1.1-.2a.3.3,0,0,1,.4,0c.1.1.1.1.1.2s0,.1-.1.2S43.6,44.7,43.5,44.7Z"/><path class="cls-2" d="M51,50.5c-.1,0-.1,0-.2-.1s-.1-.1-.1-.2,0-.1.1-.2a.3.3,0,0,1,.4,0c.1.1.1.1.1.2s0,.1-.1.2S51.1,50.5,51,50.5Z"/><path class="cls-2" d="M52,46.5c-.1,0-.1,0-.2-.1s-.1-.1-.1-.2,0-.1.1-.2a.3.3,0,0,1,.4,0c0,.1.1.1.1.2s0,.1-.1.2S52.1,46.5,52,46.5Z"/><path class="cls-2" d="M55,47c-.1,0-.1,0-.2-.1s-.1-.1-.1-.2,0-.1.1-.2a.3.3,0,0,1,.4,0c.1.1.1.1.1.2s0,.1-.1.2S55.1,47,55,47Z"/><path class="cls-2" d="M55,54.2c-.1,0-.1,0-.2-.1s-.1-.1-.1-.2,0-.1.1-.2a.3.3,0,0,1,.4,0c.1.1.1.1.1.2s0,.1-.1.2S55.1,54.2,55,54.2Z"/><path class="cls-2" d="M51.2,56.2c-.1,0-.1,0-.2-.1s-.1-.1-.1-.2,0-.1.1-.2a.3.3,0,0,1,.4,0c.1.1.1.1.1.2s0,.1-.1.2S51.3,56.2,51.2,56.2Z"/><path class="cls-2" d="M52.2,59.7c-.1,0-.1,0-.2-.1s-.1-.1-.1-.2,0-.1.1-.2a.3.3,0,0,1,.4,0c0,.1.1.1.1.2s0,.1-.1.2S52.3,59.7,52.2,59.7Z"/><path class="cls-2" d="M51,63.7c-.1,0-.1,0-.2-.1s-.1-.1-.1-.2,0-.1.1-.2a.3.3,0,0,1,.4,0c.1.1.1.1.1.2s0,.1-.1.2S51.1,63.7,51,63.7Z"/><path class="cls-2" d="M53.2,63.7c-.1,0-.1,0-.2-.1s-.1-.1-.1-.2,0-.1.1-.2a.3.3,0,0,1,.4,0c0,.1.1.1.1.2s0,.1-.1.2S53.3,63.7,53.2,63.7Z"/><path class="cls-2" d="M55,65.2c-.1,0-.1,0-.2-.1s-.1-.1-.1-.2,0-.1.1-.2a.3.3,0,0,1,.4,0c.1.1.1.1.1.2s0,.1-.1.2S55.1,65.2,55,65.2Z"/><path class="cls-2" d="M56.2,64.2c-.1,0-.1,0-.2-.1V64c0-.1,0-.1.1-.2a.3.3,0,0,1,.4,0c.1.1.1.1.1.2s0,.1-.1.2Z"/><path class="cls-2" d="M56.5,62c-.1,0-.1,0-.2-.1s-.1-.1-.1-.2,0-.1.1-.2a.3.3,0,0,1,.4,0c.1.1.1.1.1.2s0,.1-.1.2S56.6,62,56.5,62Z"/><path class="cls-2" d="M58.2,61.5c-.1,0-.1,0-.2-.1s-.1-.1-.1-.2,0-.1.1-.2a.3.3,0,0,1,.4,0c0,.1.1.1.1.2s0,.1-.1.2S58.3,61.5,58.2,61.5Z"/><path class="cls-2" d="M21,27c-.1,0-.1,0-.2-.1s-.1-.1-.1-.2,0-.1.1-.2a.3.3,0,0,1,.4,0c.1.1.1.1.1.2s0,.1-.1.2S21.1,27,21,27Z"/><path class="cls-2" d="M22.7,24c-.1,0-.1,0-.2-.1s-.1-.1-.1-.2,0-.1.1-.2a.3.3,0,0,1,.4,0c.1.1.1.1.1.2s0,.1-.1.2S22.8,24,22.7,24Z"/><path class="cls-2" d="M25.2,24.5c-.1,0-.1,0-.2-.1s-.1-.1-.1-.2,0-.1.1-.2a.3.3,0,0,1,.4,0c.1.1.1.1.1.2s0,.1-.1.2S25.3,24.5,25.2,24.5Z"/><path class="cls-2" d="M35.2,23.2c-.1,0-.1,0-.2-.1s-.1-.1-.1-.2,0-.1.1-.2a.3.3,0,0,1,.4,0c.1.1.1.1.1.2s0,.1-.1.2S35.3,23.2,35.2,23.2Z"/><path class="cls-2" d="M39,24.7c-.1,0-.1,0-.2-.1s-.1-.1-.1-.2,0-.1.1-.2a.3.3,0,0,1,.4,0c.1.1.1.1.1.2s0,.1-.1.2S39.1,24.7,39,24.7Z"/><path class="cls-2" d="M45,29.5c-.1,0-.1,0-.2-.1s-.1-.1-.1-.2,0-.1.1-.2a.3.3,0,0,1,.4,0c.1.1.1.1.1.2s0,.1-.1.2S45.1,29.5,45,29.5Z"/><path class="cls-2" d="M46.2,29c-.1,0-.1,0-.2-.1s-.1-.1-.1-.2,0-.1.1-.2.3-.1.3,0,.1.1.1.2S46.4,28.8,46.2,29Z"/><path class="cls-2" d="M55.2,28c-.1,0-.1,0-.2-.1s-.1-.1-.1-.2,0-.1.1-.2a.3.3,0,0,1,.4,0c.1.1.1.1.1.2s0,.1-.1.2S55.3,28,55.2,28Z"/><path class="cls-2" d="M51.2,25.2c-.1,0-.1,0-.2-.1s-.1-.1-.1-.2,0-.1.1-.2a.3.3,0,0,1,.4,0c.1.1.1.1.1.2s0,.1-.1.2S51.3,25.2,51.2,25.2Z"/><path class="cls-2" d="M52,29.5c-.1,0-.1,0-.2-.1s-.1-.1-.1-.2,0-.1.1-.2a.3.3,0,0,1,.4,0c0,.1.1.1.1.2s0,.1-.1.2S52.1,29.5,52,29.5Z"/><path class="cls-2" d="M62.5,35.5c-.1,0-.1,0-.2-.1s-.1-.1-.1-.2,0-.1.1-.2a.19.19,0,0,1,.3,0h0c.1,0,.1.1.1.2S62.7,35.3,62.5,35.5Z"/><path class="cls-2" d="M58.2,38.2c-.1,0-.1,0-.2-.1s-.1-.1-.1-.2,0-.1.1-.2a.3.3,0,0,1,.4,0c0,.1.1.1.1.2s0,.1-.1.2S58.3,38.2,58.2,38.2Z"/><path class="cls-2" d="M49,39c-.1,0-.1,0-.2-.1s-.1-.1-.1-.2,0-.1.1-.2a.3.3,0,0,1,.4,0c0,.1.1.1.1.2s0,.1-.1.2S49.1,39,49,39Z"/><path class="cls-2" d="M48,41.2c-.1,0-.1,0-.2-.1s-.1-.1-.1-.2,0-.1.1-.2a.19.19,0,0,1,.3,0h0c.1,0,.1.1.1.2s0,.1-.2.3Z"/><path class="cls-2" d="M52,43c-.1,0-.1,0-.2-.1s-.1-.1-.1-.2,0-.1.1-.2a.3.3,0,0,1,.4,0c.1.1.1.1.1.2s0,.1-.1.2S52.1,43,52,43Z"/><path class="cls-2" d="M53.5,45c-.1,0-.1,0-.2-.1s-.1-.1-.1-.2,0-.1.1-.2a.3.3,0,0,1,.4,0c.1.1.1.1.1.2s0,.1-.1.2S53.6,45,53.5,45Z"/><path class="cls-2" d="M62.2,48c-.1,0-.1,0-.2-.1s-.1-.1-.1-.2,0-.1.1-.2a.3.3,0,0,1,.4,0c0,.1.1.1.1.2s0,.1-.1.2S62.3,48,62.2,48Z"/><path class="cls-2" d="M65,51.7c-.1,0-.1,0-.2-.1s-.1-.1-.1-.2,0-.1.1-.2a.3.3,0,0,1,.4,0c.1.1.1.1.1.2s0,.1-.1.2S65.1,51.7,65,51.7Z"/><path class="cls-2" d="M67,51.7c-.1,0-.1,0-.2-.1s-.1-.1-.1-.2,0-.1.1-.2a.3.3,0,0,1,.4,0c.1.1.1.1.1.2s0,.1-.1.2S67.1,51.7,67,51.7Z"/><path class="cls-2" d="M69.5,45c-.1,0-.1,0-.2-.1s-.1-.1-.1-.2,0-.1.1-.2a.3.3,0,0,1,.4,0c.1.1.1.1.1.2s0,.1-.1.2S69.6,45,69.5,45Z"/><path class="cls-2" d="M60,39c-.1,0-.1,0-.2-.1s-.1-.1-.1-.2,0-.1.1-.2a.3.3,0,0,1,.4,0c.1.1.1.1.1.2s0,.1-.1.2S60.1,39,60,39Z"/><path class="cls-2" d="M47.2,47.7c-.1,0-.1,0-.2-.1s-.1-.1-.1-.2,0-.1.1-.2a.3.3,0,0,1,.4,0c.1.1.1.1.1.2s0,.1-.1.2S47.3,47.7,47.2,47.7Z"/><path class="cls-2" d="M32.5,47c-.1,0-.1,0-.2-.1s-.1-.1-.1-.2,0-.1.1-.2a.3.3,0,0,1,.4,0c.1.1.1.1.1.2s0,.1-.1.2S32.6,47,32.5,47Z"/><path class="cls-2" d="M37,44.5c-.1,0-.1,0-.2-.1s-.1-.1-.1-.2,0-.1.1-.2a.3.3,0,0,1,.4,0c.1.1.1.1.1.2s0,.1-.1.2S37.1,44.5,37,44.5Z"/><path class="cls-2" d="M26.2,37.7c-.1,0-.1,0-.2-.1s-.1-.1-.1-.2,0-.1.1-.2a.3.3,0,0,1,.4,0c.1.1.1.1.1.2s0,.1-.1.2S26.3,37.7,26.2,37.7Z"/><path class="cls-2" d="M29.7,35.5c-.1,0-.1,0-.2-.1s-.1-.1-.1-.2,0-.1.1-.2a.3.3,0,0,1,.4,0c.1.1.1.1.1.2s0,.1-.1.2S29.8,35.5,29.7,35.5Z"/><path class="cls-2" d="M17,28.5c-.1,0-.1,0-.2-.1s-.1-.1-.1-.2,0-.1.1-.2a.3.3,0,0,1,.4,0c.1.1.1.1.1.2s0,.1-.1.2S17.1,28.5,17,28.5Z"/><path class="cls-2" d="M10.5,29.5c-.1,0-.1,0-.2-.1s-.1-.1-.1-.2,0-.1.1-.2a.3.3,0,0,1,.4,0c0,.1.1.1.1.2s0,.1-.1.2S10.6,29.5,10.5,29.5Z"/><path class="cls-2" d="M6,31.5c-.1,0-.1,0-.2-.1s-.1-.1-.1-.2,0-.1.1-.2a.3.3,0,0,1,.4,0c0,.1.1.1.1.2s0,.1-.1.2S6.1,31.5,6,31.5Z"/><path class="cls-2" d="M2.5,35.2c-.1,0-.1,0-.2-.1s-.1-.1-.1-.2,0-.1.1-.2a.19.19,0,0,1,.3,0h0c.1,0,.1.1.1.2S2.7,35,2.5,35.2Z"/><path class="cls-2" d="M11.2,36.7c-.1,0-.1,0-.2-.1s-.1-.1-.1-.2,0-.1.1-.2a.3.3,0,0,1,.4,0c.1.1.1.1.1.2s0,.1-.1.2S11.3,36.7,11.2,36.7Z"/><path class="cls-2" d="M17,42c-.1,0-.1,0-.2-.1s-.1-.1-.1-.2,0-.1.1-.2a.3.3,0,0,1,.4,0c.1.1.1.1.1.2s0,.1-.1.2S17.1,42,17,42Z"/><path class="cls-2" d="M12.7,36c-.1,0-.1,0-.2-.1s-.1-.1-.1-.2,0-.1.1-.2a.3.3,0,0,1,.4,0c.1.1.1.1.1.2s0,.1-.1.2S12.8,36,12.7,36Z"/><path class="cls-2" d="M26.5,30.2c-.1,0-.1,0-.2-.1s-.1-.1-.1-.2,0-.1.1-.2a.3.3,0,0,1,.4,0c.1.1.1.1.1.2s0,.1-.1.2S26.6,30.2,26.5,30.2Z"/><path class="cls-2" d="M37.7,31c-.1,0-.1,0-.2-.1s-.1-.1-.1-.2,0-.1.1-.2a.3.3,0,0,1,.4,0c.1.1.1.1.1.2s0,.1-.1.2S37.8,31,37.7,31Z"/><path class="cls-2" d="M39.5,32.5c-.1,0-.1,0-.2-.1s-.1-.1-.1-.2,0-.1.1-.2a.3.3,0,0,1,.4,0c.1.1.1.1.1.2s0,.1-.1.2S39.6,32.5,39.5,32.5Z"/><path class="cls-2" d="M28,42c-.1,0-.1,0-.2-.1s-.1-.1-.1-.2,0-.1.1-.2.3-.1.3,0,.1.1.1.2S28.2,41.8,28,42Z"/><path class="cls-2" d="M6.5,20.5c-.1,0-.1,0-.2-.1s-.1-.1-.1-.2,0-.1.1-.2a.3.3,0,0,1,.4,0c.1.1.1.1.1.2s0,.1-.1.2S6.6,20.5,6.5,20.5Z"/><path class="cls-2" d="M10.2,20.2c-.1,0-.1,0-.2-.1s-.1-.1-.1-.2,0-.1.1-.2a.3.3,0,0,1,.4,0c.1.1.1.1.1.2s0,.1-.1.2S10.3,20.2,10.2,20.2Z"/><path class="cls-2" d="M11.7,23.5c-.1,0-.1,0-.2-.1s-.1-.1-.1-.2,0-.1.1-.2a.3.3,0,0,1,.4,0c0,.1.1.1.1.2s0,.1-.1.2S11.8,23.5,11.7,23.5Z"/><path class="cls-2" d="M3,25.7c-.1,0-.1,0-.2-.1s-.1-.1-.1-.2,0-.1.1-.2a.3.3,0,0,1,.4,0c.1.1.1.1.1.2s0,.1-.1.2S3.1,25.7,3,25.7Z"/><path class="cls-2" d="M64.2,29.5c-.1,0-.1,0-.2-.1s-.1-.1-.1-.2,0-.1.1-.2.3-.1.3,0,.1.1.1.2S64.4,29.3,64.2,29.5Z"/><path class="cls-2" d="M67.5,30.7c-.1,0-.1,0-.2-.1s-.1-.1-.1-.2,0-.1.1-.2a.3.3,0,0,1,.4,0c0,.1.1.1.1.2s0,.1-.1.2S67.6,30.7,67.5,30.7Z"/><path class="cls-2" d="M69.5,29.7c-.1,0-.1,0-.2-.1s-.1-.1-.1-.2,0-.1.1-.2a.3.3,0,0,1,.4,0c.1.1.1.1.1.2s0,.1-.1.2S69.6,29.7,69.5,29.7Z"/><path class="cls-2" d="M7.2,15.7c-.1,0-.1,0-.2-.1s-.1-.1-.1-.2,0-.1.1-.2a.3.3,0,0,1,.4,0c.1.1.1.1.1.2s0,.1-.1.2S7.3,15.7,7.2,15.7Z"/><path class="cls-2" d="M1.5,9c-.1,0-.1,0-.2-.1s-.1-.1-.1-.2,0-.1.1-.2a.3.3,0,0,1,.4,0c.1.1.1.1.1.2s0,.1-.1.2S1.6,9,1.5,9Z"/><path class="cls-2" d="M14.5,6.5c-.1,0-.1,0-.2-.1s-.1-.1-.1-.2,0-.1.1-.2a.3.3,0,0,1,.4,0c.1.1.1.1.1.2s0,.1-.1.2S14.6,6.5,14.5,6.5Z"/><path class="cls-2" d="M8.5,5.2c-.1,0-.1,0-.2-.1s-.1-.1-.1-.2,0-.1.1-.2a.3.3,0,0,1,.4,0c.1.1.1.1.1.2s0,.1-.1.2S8.6,5.2,8.5,5.2Z"/><path class="cls-2" d="M3.5,2.5c-.1,0-.1,0-.2-.1s-.1-.1-.1-.2,0-.1.1-.2a.3.3,0,0,1,.4,0c.1.1.1.1.1.2s0,.1-.1.2S3.6,2.5,3.5,2.5Z"/><path class="cls-2" d="M3.7,6c-.1,0-.1,0-.2-.1s-.1-.1-.1-.2,0-.1.1-.2a.3.3,0,0,1,.4,0c.1.1.1.1.1.2s0,.1-.1.2S3.8,6,3.7,6Z"/><path class="cls-2" d="M12.7,14.2c-.1,0-.1,0-.2-.1s-.1-.1-.1-.2,0-.1.1-.2a.3.3,0,0,1,.4,0c.1.1.1.1.1.2s0,.1-.1.2S12.8,14.2,12.7,14.2Z"/><path class="cls-2" d="M18.5,19.2c-.1,0-.1,0-.2-.1s-.1-.1-.1-.2,0-.1.1-.2a.3.3,0,0,1,.4,0c0,.1.1.1.1.2s0,.1-.1.2S18.6,19.2,18.5,19.2Z"/><path class="cls-2" d="M21.2,37c-.1,0-.1,0-.2-.1s-.1-.1-.1-.2,0-.1.1-.2a.3.3,0,0,1,.4,0c.1.1.1.1.1.2s0,.1-.1.2S21.3,37,21.2,37Z"/><path class="cls-2" d="M.7,44.2c-.1,0-.1,0-.2-.1s-.1-.1-.1-.2,0-.1.1-.2a.3.3,0,0,1,.4,0c.1.2.1.2.1.3s0,.1-.1.2Z"/><path class="cls-2" d="M66.5,37.2c-.1,0-.1,0-.2-.1s-.1-.1-.1-.2,0-.1.1-.2a.3.3,0,0,1,.4,0c.1.1.1.1.1.2s0,.1-.1.2S66.6,37.2,66.5,37.2Z"/><path class="cls-2" d="M68,66c-.1,0-.1,0-.2-.1s-.1-.1-.1-.2,0-.1.1-.2a.3.3,0,0,1,.4,0c.1.1.1.1.1.2s0,.1-.1.2S68.1,66,68,66Z"/><path class="cls-2" d="M59.7,69.7c-.1,0-.1,0-.2-.1s-.1-.1-.1-.2,0-.1.1-.2a.3.3,0,0,1,.4,0c.1.1.1.1.1.2s0,.1-.1.2S59.8,69.7,59.7,69.7Z"/><path class="cls-2" d="M40.5,68c-.1,0-.1,0-.2-.1s-.1-.1-.1-.2,0-.1.1-.2a.3.3,0,0,1,.4,0c.1.1.1.1.1.2s0,.1-.1.2S40.6,68,40.5,68Z"/><path class="cls-2" d="M44,63c-.1,0-.1,0-.2-.1s-.1-.1-.1-.2,0-.1.1-.2a.3.3,0,0,1,.4,0c.1.1.1.1.1.2s0,.1-.1.2S44.1,63,44,63Z"/><path class="cls-2" d="M25.7,70c-.1,0-.1,0-.2-.1s-.1-.1-.1-.2,0-.1.1-.2a.3.3,0,0,1,.4,0c.1.1.1.1.1.2s0,.1-.1.2S25.8,70,25.7,70Z"/><path class="cls-2" d="M4.5,60c-.1,0-.1,0-.2-.1s-.1-.1-.1-.2,0-.1.1-.2a.3.3,0,0,1,.4,0c0,.1.1.1.1.2s0,.1-.1.2S4.6,60,4.5,60Z"/><path class="cls-2" d="M26.5,59.5c-.1,0-.1,0-.2-.1s-.1-.1-.1-.2,0-.1.1-.2a.3.3,0,0,1,.4,0c.1.1.1.1.1.2s0,.1-.1.2S26.6,59.5,26.5,59.5Z"/><path class="cls-2" d="M37.2,48.5c-.1,0-.1,0-.2-.1s-.1-.1-.1-.2,0-.1.1-.2a.19.19,0,0,1,.3,0h0c.1,0,.1.1.1.2S37.4,48.3,37.2,48.5Z"/><path class="cls-2" d="M22,41.7c-.1,0-.1,0-.2-.1s-.1-.1-.1-.2,0-.1.1-.2a.3.3,0,0,1,.4,0c.1.1.1.1.1.2s0,.1-.1.2S22.1,41.7,22,41.7Z"/><path class="cls-2" d="M8.7,40.2c-.1,0-.1,0-.2-.1s-.1-.1-.1-.2,0-.1.1-.2a.3.3,0,0,1,.4,0c.1.2.1.2.1.3s0,.1-.1.2Z"/><path class="cls-2" d="M24,29c-.1,0-.1,0-.2-.1s-.1-.1-.1-.2,0-.1.1-.2a.3.3,0,0,1,.4,0c.1.1.1.1.1.2s0,.1-.1.2S24.1,29,24,29Z"/><path class="cls-2" d="M41.5,34.5c-.1,0-.1,0-.2-.1s-.1-.1-.1-.2,0-.1.1-.2.3-.1.3,0,.1.1.1.2S41.7,34.3,41.5,34.5Z"/><path class="cls-2" d="M51.5,37.5c-.1,0-.1,0-.2-.1s-.1-.1-.1-.2,0-.1.1-.2a.3.3,0,0,1,.4,0c.1.1.1.1.1.2s0,.1-.1.2S51.6,37.5,51.5,37.5Z"/><path class="cls-2" d="M60.7,46c-.1,0-.1,0-.2-.1s-.1-.1-.1-.2,0-.1.1-.2a.3.3,0,0,1,.4,0c.1.1.1.1.1.2s0,.1-.1.2S60.8,46,60.7,46Z"/><path class="cls-2" d="M67.5,43.7c-.1,0-.1,0-.2-.1s-.1-.1-.1-.2,0-.1.1-.2a.3.3,0,0,1,.4,0c.1.1.1.1.1.2s0,.1-.1.2S67.6,43.7,67.5,43.7Z"/><path class="cls-2" d="M51.2,66.2c-.1,0-.1,0-.2-.1V66c0-.1,0-.1.1-.2a.3.3,0,0,1,.4,0c.1.1.1.1.1.2s0,.1-.1.2Z"/><path class="cls-2" d="M40,37.7c-.1,0-.1,0-.2-.1s-.1-.1-.1-.2,0-.1.1-.2a.3.3,0,0,1,.4,0c.1.1.1.1.1.2s0,.1-.1.2S40.1,37.7,40,37.7Z"/><path class="cls-2" d="M53.2,15c-.1,0-.1,0-.2-.1s-.1-.1-.1-.2,0-.1.1-.2a.3.3,0,0,1,.4,0c.1.1.1.1.1.2s0,.1-.1.2S53.3,15,53.2,15Z"/><path class="cls-2" d="M34,16c-.1,0-.1,0-.2-.1s-.1-.1-.1-.2,0-.1.1-.2a.3.3,0,0,1,.4,0c.1.1.1.1.1.2s0,.1-.1.2S34.1,16,34,16Z"/><path class="cls-2" d="M27.5,13.5c-.1,0-.1,0-.2-.1s-.1-.1-.1-.2,0-.1.1-.2a.3.3,0,0,1,.4,0c.1.1.1.1.1.2s0,.1-.1.2S27.6,13.5,27.5,13.5Z"/><path class="cls-2" d="M12.7,19.2c-.1,0-.1,0-.2-.1s-.1-.1-.1-.2,0-.1.1-.2a.3.3,0,0,1,.4,0c.1.1.1.1.1.2s0,.1-.1.2S12.8,19.2,12.7,19.2Z"/><path class="cls-2" d="M19.7,26.5c-.1,0-.1,0-.2-.1s-.1-.1-.1-.2,0-.1.1-.2a.3.3,0,0,1,.4,0c.1.1.1.1.1.2s0,.1-.1.2S19.8,26.5,19.7,26.5Z"/><path class="cls-2" d="M49.5,4.5c-.1,0-.1,0-.2-.1s-.1-.1-.1-.2,0-.1.1-.2a.3.3,0,0,1,.4,0c.1.1.1.1.1.2s0,.1-.1.2S49.6,4.5,49.5,4.5Z"/><path class="cls-2" d="M11.7,1.7c-.1,0-.1,0-.2-.1s-.1-.1-.1-.2,0-.1.1-.2a.3.3,0,0,1,.4,0c.1.1.1.1.1.2s0,.1-.1.2S11.8,1.7,11.7,1.7Z"/><path class="cls-2" d="M55.2,3.7c-.1,0-.1,0-.2-.1s-.1-.1-.1-.2,0-.1.1-.2a.3.3,0,0,1,.4,0c.1.1.1.1.1.2s0,.1-.1.2S55.3,3.7,55.2,3.7Z"/><path class="cls-2" d="M59,20.7c-.1,0-.1,0-.2-.1s-.1-.1-.1-.2,0-.1.1-.2a.3.3,0,0,1,.4,0c0,.1.1.1.1.2s0,.1-.1.2S59.1,20.7,59,20.7Z"/><path class="cls-2" d="M67.5,57.2c-.1,0-.1,0-.2-.1s-.1-.1-.1-.2,0-.1.1-.2a.3.3,0,0,1,.4,0c.1.1.1.1.1.2s0,.1-.1.2S67.6,57.2,67.5,57.2Z"/><path class="cls-2" d="M47.2,69.7c-.1,0-.1,0-.2-.1s-.1-.1-.1-.2,0-.1.1-.2a.3.3,0,0,1,.4,0c.1.1.1.1.1.2s0,.1-.1.2S47.3,69.7,47.2,69.7Z"/><path class="cls-2" d="M5.2,69.7c-.1,0-.1,0-.2-.1v-.1c0-.1,0-.1.1-.2a.3.3,0,0,1,.4,0c.1.1.1.1.1.2s0,.1-.1.2Z"/><path class="cls-2" d="M4.7,40.2c-.1,0-.1,0-.2-.1s-.1-.1-.1-.2,0-.1.1-.2a.3.3,0,0,1,.4,0c.1.2.1.2.1.3s0,.1-.1.2Z"/><path class="cls-2" d="M69.7,12.7c-.1,0-.1,0-.2-.1s-.1-.1-.1-.2,0-.1.1-.2a.3.3,0,0,1,.4,0c.1.1.1.1.1.2s0,.1-.1.2S69.8,12.7,69.7,12.7Z"/><path class="cls-2" d="M23.2,14c-.1,0-.1,0-.2-.1s-.1-.1-.1-.2,0-.1.1-.2a.3.3,0,0,1,.4,0c0,.1.1.1.1.2s0,.1-.1.2S23.3,14,23.2,14Z"/><path class="cls-2" d="M20.5,17.2c-.1,0-.1,0-.2-.1s-.1-.1-.1-.2,0-.1.1-.2a.3.3,0,0,1,.4,0c.1.1.1.1.1.2s0,.1-.1.2S20.6,17.2,20.5,17.2Z"/><path class="cls-2" d="M14.7,17.2c-.1,0-.1,0-.2-.1s-.1-.1-.1-.2,0-.1.1-.2a.3.3,0,0,1,.4,0c.1.1.1.1.1.2s0,.1-.1.2S14.8,17.2,14.7,17.2Z"/><path class="cls-2" d="M2.7,13.2c-.1,0-.1,0-.2-.1s-.1-.1-.1-.2,0-.1.1-.2a.3.3,0,0,1,.4,0c.1.2.1.2.1.3s0,.1-.1.2Z"/><path class="cls-2" d="M6,11.7c-.1,0-.1,0-.2-.1s-.1-.1-.1-.2,0-.1.1-.2a.3.3,0,0,1,.4,0c.1.1.1.1.1.2s0,.1-.1.2S6.1,11.7,6,11.7Z"/><path class="cls-2" d="M7,2.7c-.1,0-.1,0-.2-.1s-.1-.1-.1-.2,0-.1.1-.2a.3.3,0,0,1,.4,0c.1.1.1.1.1.2s0,.1-.1.2S7.1,2.7,7,2.7Z"/><path class="cls-2" d="M10,8.2c-.1,0-.1,0-.2-.1s-.1-.1-.1-.2,0-.1.1-.2a.3.3,0,0,1,.4,0c.1.1.1.1.1.2s0,.1-.1.2S10.1,8.2,10,8.2Z"/><path class="cls-2" d="M16,8.2c-.1,0-.1,0-.2-.1s-.1-.1-.1-.2,0-.1.1-.2a.3.3,0,0,1,.4,0c.1.1.1.1.1.2s0,.1-.1.2S16.1,8.2,16,8.2Z"/><path class="cls-2" d="M16.5,3.2c-.1,0-.1,0-.2-.1s-.1-.1-.1-.2,0-.1.1-.2a.3.3,0,0,1,.4,0c.1.1.1.1.1.2s0,.1-.1.2S16.6,3.2,16.5,3.2Z"/><path class="cls-2" d="M25.7,7c-.1,0-.1,0-.2-.1s-.1-.1-.1-.2,0-.1.1-.2a.3.3,0,0,1,.4,0c.1.1.1.1.1.2s0,.1-.1.2S25.8,7,25.7,7Z"/><path class="cls-2" d="M37,7.5c-.1,0-.1,0-.2-.1s-.1-.1-.1-.2,0-.1.1-.2a.3.3,0,0,1,.4,0c.1.1.1.1.1.2s0,.1-.1.2S37.1,7.5,37,7.5Z"/><path class="cls-2" d="M40.5,4.5c-.1,0-.1,0-.2-.1s-.1-.1-.1-.2,0-.1.1-.2a.3.3,0,0,1,.4,0c0,.1.1.1.1.2s0,.1-.1.2S40.6,4.5,40.5,4.5Z"/><path class="cls-2" d="M37.5,4.2c-.1,0-.1,0-.2-.1s-.1-.1-.1-.2,0-.1.1-.2a.3.3,0,0,1,.4,0c0,.1.1.1.1.2s0,.1-.1.2S37.6,4.2,37.5,4.2Z"/><path class="cls-2" d="M43.2,2.2c-.1,0-.1,0-.2-.1s-.1-.1-.1-.2,0-.1.1-.2a.3.3,0,0,1,.4,0c.1.1.1.1.1.2s0,.1-.1.2S43.3,2.2,43.2,2.2Z"/><path class="cls-2" d="M49.5,8.2c-.1,0-.1,0-.2-.1s-.1-.1-.1-.2,0-.1.1-.2a.3.3,0,0,1,.4,0c.1.1.1.1.1.2s0,.1-.1.2S49.6,8.2,49.5,8.2Z"/><path class="cls-2" d="M46,9.2c-.1,0-.1,0-.2-.1s-.1-.1-.1-.2,0-.1.1-.2a.3.3,0,0,1,.4,0c.1.1.1.1.1.2s0,.1-.1.2S46.1,9.2,46,9.2Z"/><path class="cls-2" d="M35.7,11c-.1,0-.1,0-.2-.1s-.1-.1-.1-.2,0-.1.1-.2a.3.3,0,0,1,.4,0c.1.1.1.1.1.2s0,.1-.1.2S35.8,11,35.7,11Z"/><path class="cls-2" d="M39.2,15c-.1,0-.1,0-.2-.1s-.1-.1-.1-.2,0-.1.1-.2a.3.3,0,0,1,.4,0c0,.1.1.1.1.2s0,.1-.1.2S39.3,15,39.2,15Z"/><path class="cls-2" d="M24.7,18c-.1,0-.1,0-.2-.1s-.1-.1-.1-.2,0-.1.1-.2a.3.3,0,0,1,.4,0c.1.1.1.1.1.2s0,.1-.1.2S24.8,18,24.7,18Z"/><path class="cls-2" d="M8.2,27.2c-.1,0-.1,0-.2-.1V27c0-.1,0-.1.1-.2a.3.3,0,0,1,.4,0c.1.1.1.1.1.2s0,.1-.1.2Z"/><path class="cls-2" d="M16,31.7c-.1,0-.1,0-.2-.1s-.1-.1-.1-.2,0-.1.1-.2a.3.3,0,0,1,.4,0c.1.1.1.1.1.2s0,.1-.1.2S16.1,31.7,16,31.7Z"/><path class="cls-2" d="M10.5,33.5c-.1,0-.1,0-.2-.1s-.1-.1-.1-.2,0-.1.1-.2a.3.3,0,0,1,.4,0c.1.1.1.1.1.2s0,.1-.1.2S10.6,33.5,10.5,33.5Z"/><path class="cls-2" d="M5.2,37c-.1,0-.1,0-.2-.1s-.1-.1-.1-.2,0-.1.1-.2a.3.3,0,0,1,.4,0c.1.1.1.1.1.2s0,.1-.1.2S5.3,37,5.2,37Z"/><path class="cls-2" d="M2.7,32c-.1,0-.1,0-.2-.1s-.1-.1-.1-.2,0-.1.1-.2a.3.3,0,0,1,.4,0c.1.1.1.1.1.2s0,.1-.1.2S2.8,32,2.7,32Z"/><path class="cls-2" d="M7.5,25c-.1,0-.1,0-.2-.1s-.1-.1-.1-.2,0-.1.1-.2.3-.1.3,0,.1.1.1.2,0,.1-.1.2S7.6,25,7.5,25Z"/><path class="cls-2" d="M3.2,20.5c-.1,0-.1,0-.2-.1s-.1-.1-.1-.2,0-.1.1-.2a.3.3,0,0,1,.4,0c.1.1.1.1.1.2s0,.1-.1.2S3.3,20.5,3.2,20.5Z"/><path class="cls-2" d="M20.5,30.7c-.1,0-.1,0-.2-.1s-.1-.1-.1-.2,0-.1.1-.2a.3.3,0,0,1,.4,0c0,.1.1.1.1.2s0,.1-.1.2S20.6,30.7,20.5,30.7Z"/><path class="cls-2" d="M17.5,35.5c-.1,0-.1,0-.2-.1s-.1-.1-.1-.2,0-.1.1-.2a.3.3,0,0,1,.4,0c.1.1.1.1.1.2s0,.1-.1.2S17.6,35.5,17.5,35.5Z"/><path class="cls-2" d="M16,39c-.1,0-.1,0-.2-.1s-.1-.1-.1-.2,0-.1.1-.2a.3.3,0,0,1,.4,0c.1.1.1.1.1.2s0,.1-.1.2S16.1,39,16,39Z"/><path class="cls-2" d="M12.7,41.2c-.1,0-.1,0-.2-.1s-.1-.1-.1-.2,0-.1.1-.2a.3.3,0,0,1,.4,0c.1.1.1.1.1.2s0,.1-.1.2S12.8,41.2,12.7,41.2Z"/><path class="cls-2" d="M12.7,46.5c-.1,0-.1,0-.2-.1s-.1-.1-.1-.2,0-.1.1-.2a.3.3,0,0,1,.4,0c.1.1.1.1.1.2s0,.1-.1.2S12.8,46.5,12.7,46.5Z"/><path class="cls-2" d="M4,46.7c-.1,0-.1,0-.2-.1s-.1-.1-.1-.2,0-.1.1-.2.3-.1.3,0,.1.1.1.2,0,.1-.2.3Z"/><path class="cls-2" d="M5.7,48.5c-.1,0-.1,0-.2-.1s-.1-.1-.1-.2,0-.1.1-.2a.3.3,0,0,1,.4,0c.1.1.1.1.1.2s0,.1-.1.2S5.8,48.5,5.7,48.5Z"/><path class="cls-2" d="M11,50.5c-.1,0-.1,0-.2-.1s-.1-.1-.1-.2,0-.1.1-.2a.3.3,0,0,1,.4,0c0,.1.1.1.1.2s0,.1-.1.2S11.1,50.5,11,50.5Z"/><path class="cls-2" d="M11,54.5c-.1,0-.1,0-.2-.1s-.1-.1-.1-.2,0-.1.1-.2a.3.3,0,0,1,.4,0c.1.1.1.1.1.2s0,.1-.1.2S11.1,54.5,11,54.5Z"/><path class="cls-2" d="M15.5,58.5c-.1,0-.1,0-.2-.1s-.1-.1-.1-.2,0-.1.1-.2a.3.3,0,0,1,.4,0c.1.1.1.1.1.2s0,.1-.1.2S15.6,58.5,15.5,58.5Z"/><path class="cls-2" d="M10,59.7c-.1,0-.1,0-.2-.1s-.1-.1-.1-.2,0-.1.1-.2a.3.3,0,0,1,.4,0c.1.1.1.1.1.2s0,.1-.1.2S10.1,59.7,10,59.7Z"/><path class="cls-2" d="M6,63.5c-.1,0-.1,0-.2-.1s-.1-.1-.1-.2,0-.1.1-.2a.6.6,0,0,1,.4.1c.1.1.1.1.1.2s0,.1-.1.2Z"/><path class="cls-2" d="M2.2,62c-.1,0-.1,0-.2-.1s-.1-.1-.1-.2,0-.1.1-.2.3-.1.3,0,.1.1.1.2S2.4,61.8,2.2,62Z"/><path class="cls-2" d="M7.2,67.7c-.1,0-.1,0-.2-.1v-.1c0-.1,0-.1.1-.2a.3.3,0,0,1,.4,0c.1.1.1.1.1.2s0,.1-.1.2Z"/><path class="cls-2" d="M13.5,69.5c-.1,0-.1,0-.2-.1s-.1-.1-.1-.2,0-.1.1-.2a.3.3,0,0,1,.4,0c.1.1.1.1.1.2s0,.1-.1.2S13.6,69.5,13.5,69.5Z"/><path class="cls-2" d="M13.5,65.7c-.1,0-.1,0-.2-.1s-.1-.1-.1-.2,0-.1.1-.2a.3.3,0,0,1,.4,0c0,.1.1.1.1.2s0,.1-.1.2S13.6,65.7,13.5,65.7Z"/><path class="cls-2" d="M21.5,68.5c-.1,0-.1,0-.2-.1s-.1-.1-.1-.2,0-.1.1-.2a.3.3,0,0,1,.4,0c.1.1.1.1.1.2s0,.1-.1.2S21.6,68.5,21.5,68.5Z"/><path class="cls-2" d="M23,65.7c-.1,0-.1,0-.2-.1s-.1-.1-.1-.2,0-.1.1-.2a.3.3,0,0,1,.4,0c.1.1.1.1.1.2s0,.1-.1.2S23.1,65.7,23,65.7Z"/><path class="cls-2" d="M22.2,60c-.1,0-.1,0-.2-.1s-.1-.1-.1-.2,0-.1.1-.2a.3.3,0,0,1,.4,0c.1.1.1.1.1.2s0,.1-.1.2S22.3,60,22.2,60Z"/><path class="cls-2" d="M24.2,57.5c-.1,0-.1,0-.2-.1s-.1-.1-.1-.2,0-.1.1-.2a.3.3,0,0,1,.4,0c.1.1.1.1.1.2s0,.1-.1.2S24.3,57.5,24.2,57.5Z"/><path class="cls-2" d="M22,53.2c-.1,0-.1,0-.2-.1s-.1-.1-.1-.2,0-.1.1-.2a.3.3,0,0,1,.4,0c0,.1.1.1.1.2s0,.1-.1.2S22.1,53.2,22,53.2Z"/><path class="cls-2" d="M26.2,47.7c-.1,0-.1,0-.2-.1s-.1-.1-.1-.2,0-.1.1-.2a.3.3,0,0,1,.4,0c.1.1.1.1.1.2s0,.1-.1.2S26.3,47.7,26.2,47.7Z"/><path class="cls-2" d="M25.7,43.5c-.1,0-.1,0-.2-.1s-.1-.1-.1-.2,0-.1.1-.2a.3.3,0,0,1,.4,0c0,.1.1.1.1.2s0,.1-.1.2S25.8,43.5,25.7,43.5Z"/><path class="cls-2" d="M31.2,37.5c-.1,0-.1,0-.2-.1s-.1-.1-.1-.2,0-.1.1-.2a.3.3,0,0,1,.4,0c0,.1.1.1.1.2s0,.1-.1.2S31.3,37.5,31.2,37.5Z"/><path class="cls-2" d="M32.2,31c-.1,0-.1,0-.2-.1s-.1-.1-.1-.2,0-.1.1-.2a.3.3,0,0,1,.4,0c.1.1.1.1.1.2s0,.1-.1.2S32.3,31,32.2,31Z"/><path class="cls-2" d="M26,34c-.1,0-.1,0-.2-.1s-.1-.1-.1-.2,0-.1.1-.2a.3.3,0,0,1,.4,0c.1.1.1.1.1.2s0,.1-.1.2S26.1,34,26,34Z"/><path class="cls-2" d="M34.2,27.7c-.1,0-.1,0-.2-.1s-.1-.1-.1-.2,0-.1.1-.2a.3.3,0,0,1,.4,0c0,.1.1.1.1.2s0,.1-.1.2S34.3,27.7,34.2,27.7Z"/><path class="cls-2" d="M37.2,28.5c-.1,0-.1,0-.2-.1s-.1-.1-.1-.2,0-.1.1-.2.3-.1.3,0,.1.1.1.2S37.4,28.3,37.2,28.5Z"/><path class="cls-2" d="M41.7,25.7c-.1,0-.1,0-.2-.1s-.1-.1-.1-.2,0-.1.1-.2a.3.3,0,0,1,.4,0c0,.1.1.1.1.2s0,.1-.1.2S41.8,25.7,41.7,25.7Z"/><path class="cls-2" d="M43,20.7c-.1,0-.1,0-.2-.1s-.1-.1-.1-.2,0-.1.1-.2a.3.3,0,0,1,.4,0c.1.1.1.1.1.2s0,.1-.1.2S43.1,20.7,43,20.7Z"/><path class="cls-2" d="M36.5,19.2c-.1,0-.1,0-.2-.1s-.1-.1-.1-.2,0-.1.1-.2a.3.3,0,0,1,.4,0c.1.1.1.1.1.2s0,.1-.1.2S36.6,19.2,36.5,19.2Z"/><path class="cls-2" d="M27.7,22.2c-.1,0-.1,0-.2-.1s-.1-.1-.1-.2,0-.1.1-.2a.3.3,0,0,1,.4,0c.1.1.1.1.1.2s0,.1-.1.2S27.8,22.2,27.7,22.2Z"/><path class="cls-2" d="M52,22c-.1,0-.1,0-.2-.1s-.1-.1-.1-.2,0-.1.1-.2a.3.3,0,0,1,.4,0c0,.1.1.1.1.2s0,.1-.1.2S52.1,22,52,22Z"/><path class="cls-2" d="M43.2,17.7c-.1,0-.1,0-.2-.1s-.1-.1-.1-.2,0-.1.1-.2a.3.3,0,0,1,.4,0c0,.1.1.1.1.2s0,.1-.1.2S43.3,17.7,43.2,17.7Z"/><path class="cls-2" d="M50.5,18c-.1,0-.1,0-.2-.1s-.1-.1-.1-.2,0-.1.1-.2a.3.3,0,0,1,.4,0c0,.1.1.1.1.2s0,.1-.1.2S50.6,18,50.5,18Z"/><path class="cls-2" d="M59.5,17.2c-.1,0-.1,0-.2-.1s-.1-.1-.1-.2,0-.1.1-.2a.3.3,0,0,1,.4,0c.1.1.1.1.1.2s0,.1-.1.2S59.6,17.2,59.5,17.2Z"/><path class="cls-2" d="M58.2,14c-.1,0-.1,0-.2-.1s-.1-.1-.1-.2,0-.1.1-.2a.3.3,0,0,1,.4,0c.1.1.1.1.1.2s0,.1-.1.2S58.3,14,58.2,14Z"/><path class="cls-2" d="M61.5,11c-.1,0-.1,0-.2-.1s-.1-.1-.1-.2,0-.1.1-.2a.3.3,0,0,1,.4,0c.1.1.1.1.1.2s0,.1-.1.2S61.6,11,61.5,11Z"/><path class="cls-2" d="M58.7,7.5c-.1,0-.1,0-.2-.1s-.1-.1-.1-.2,0-.1.1-.2a.3.3,0,0,1,.4,0c.1.1.1.1.1.2s0,.1-.1.2S58.8,7.5,58.7,7.5Z"/><path class="cls-2" d="M60,4.7c-.1,0-.1,0-.2-.1s-.1-.1-.1-.2,0-.1.1-.2a.3.3,0,0,1,.4,0c.1.1.1.1.1.2s0,.1-.1.2S60.1,4.7,60,4.7Z"/><path class="cls-2" d="M67.5,6c-.1,0-.1,0-.2-.1s-.1-.1-.1-.2,0-.1.1-.2a.3.3,0,0,1,.4,0c0,.1.1.1.1.2s0,.1-.1.2S67.6,6,67.5,6Z"/><path class="cls-2" d="M69.5,8c-.1,0-.1,0-.2-.1s-.1-.1-.1-.2,0-.1.1-.2a.3.3,0,0,1,.4,0c.1.1.1.1.1.2s0,.1-.1.2S69.6,8,69.5,8Z"/><path class="cls-2" d="M65.7,9.7c-.1,0-.1,0-.2-.1s-.1-.1-.1-.2,0-.1.1-.2a.3.3,0,0,1,.4,0c.1.1.1.1.1.2s0,.1-.1.2S65.8,9.7,65.7,9.7Z"/><path class="cls-2" d="M61.7,16.5c-.1,0-.1,0-.2-.1s-.1-.1-.1-.2,0-.1.1-.2a.3.3,0,0,1,.4,0c.1.1.1.1.1.2s0,.1-.1.2S61.8,16.5,61.7,16.5Z"/><path class="cls-2" d="M60.2,23.7c-.1,0-.1,0-.2-.1s-.1-.1-.1-.2,0-.1.1-.2a.3.3,0,0,1,.4,0c.1.1.1.1.1.2s0,.1-.1.2S60.3,23.7,60.2,23.7Z"/><path class="cls-2" d="M55.5,23.7c-.1,0-.1,0-.2-.1s-.1-.1-.1-.2,0-.1.1-.2a.3.3,0,0,1,.4,0c.1.1.1.1.1.2s0,.1-.1.2S55.6,23.7,55.5,23.7Z"/><path class="cls-2" d="M55.5,18.7c-.1,0-.1,0-.2-.1s-.1-.1-.1-.2,0-.1.1-.2a.3.3,0,0,1,.4,0c.1.1.1.1.1.2s0,.1-.1.2S55.6,18.7,55.5,18.7Z"/><path class="cls-2" d="M65,25.7c-.1,0-.1,0-.2-.1s-.1-.1-.1-.2,0-.1.1-.2a.3.3,0,0,1,.4,0c.1.1.1.1.1.2s0,.1-.1.2S65.1,25.7,65,25.7Z"/><path class="cls-2" d="M61.2,27c-.1,0-.1,0-.2-.1s-.1-.1-.1-.2,0-.1.1-.2a.3.3,0,0,1,.4,0c.1.1.1.1.1.2s0,.1-.1.2S61.3,27,61.2,27Z"/><path class="cls-2" d="M57.7,30.7c-.1,0-.1,0-.2-.1s-.1-.1-.1-.2,0-.1.1-.2a.3.3,0,0,1,.4,0c.1.1.1.1.1.2s0,.1-.1.2S57.8,30.7,57.7,30.7Z"/><path class="cls-2" d="M52.7,32.7c-.1,0-.1,0-.2-.1s-.1-.1-.1-.2,0-.1.1-.2a.3.3,0,0,1,.4,0c.1.1.1.1.1.2s0,.1-.1.2S52.8,32.7,52.7,32.7Z"/><path class="cls-2" d="M47.5,33.7c-.1,0-.1,0-.2-.1s-.1-.1-.1-.2,0-.1.1-.2.3-.1.3,0,.1.1.1.2S47.7,33.5,47.5,33.7Z"/><path class="cls-2" d="M44.2,39.2c-.1,0-.1,0-.2-.1s-.1-.1-.1-.2,0-.1.1-.2a.3.3,0,0,1,.4,0c.1.1.1.1.1.2s0,.1-.1.2S44.3,39.2,44.2,39.2Z"/><path class="cls-2" d="M34,41.5c-.1,0-.1,0-.2-.1s-.1-.1-.1-.2,0-.1.1-.2a.3.3,0,0,1,.4,0c.1.1.1.1.1.2s0,.1-.1.2S34.1,41.5,34,41.5Z"/><path class="cls-2" d="M40.7,48c-.1,0-.1,0-.2-.1s-.1-.1-.1-.2,0-.1.1-.2a.3.3,0,0,1,.4,0c.1.1.1.1.1.2s0,.1-.1.2S40.8,48,40.7,48Z"/><path class="cls-2" d="M45.7,52.2c-.1,0-.1,0-.2-.1s-.1-.1-.1-.2,0-.1.1-.2a.3.3,0,0,1,.4,0c.1.1.1.1.1.2s0,.1-.1.2S45.8,52.2,45.7,52.2Z"/><path class="cls-2" d="M46.5,56.7c-.1,0-.1,0-.2-.1s-.1-.1-.1-.2,0-.1.1-.2a.3.3,0,0,1,.4,0c.1.1.1.1.1.2s0,.1-.1.2S46.6,56.7,46.5,56.7Z"/><path class="cls-2" d="M42,59.5c-.1,0-.1,0-.2-.1s-.1-.1-.1-.2,0-.1.1-.2a.3.3,0,0,1,.4,0c.1.1.1.1.1.2s0,.1-.1.2S42.1,59.5,42,59.5Z"/><path class="cls-2" d="M40,62.7c-.1,0-.1,0-.2-.1s-.1-.1-.1-.2,0-.1.1-.2a.3.3,0,0,1,.4,0c.1.1.1.1.1.2s0,.1-.1.2S40.1,62.7,40,62.7Z"/><path class="cls-2" d="M36,62.7c-.1,0-.1,0-.2-.1s-.1-.1-.1-.2,0-.1.1-.2a.3.3,0,0,1,.4,0c0,.1.1.1.1.2s0,.1-.1.2S36.1,62.7,36,62.7Z"/><path class="cls-2" d="M36.5,52.7c-.1,0-.1,0-.2-.1s-.1-.1-.1-.2,0-.1.1-.2a.3.3,0,0,1,.4,0c0,.1.1.1.1.2s0,.1-.1.2S36.6,52.7,36.5,52.7Z"/><path class="cls-2" d="M30,63.5c-.1,0-.1,0-.2-.1s-.1-.1-.1-.2,0-.1.1-.2a.3.3,0,0,1,.4,0c.1.1.1.1.1.2s0,.1-.1.2S30.1,63.5,30,63.5Z"/><path class="cls-2" d="M31.5,68.5c-.1,0-.1,0-.2-.1s-.1-.1-.1-.2,0-.1.1-.2.3-.1.3,0,.1.1.1.2S31.7,68.3,31.5,68.5Z"/><path class="cls-2" d="M37,71c-.1,0-.1,0-.2-.1s-.1-.1-.1-.2,0-.1.1-.2a.3.3,0,0,1,.4,0c.1.1.1.1.1.2s0,.1-.1.2S37.1,71,37,71Z"/><path class="cls-2" d="M58.7,57c-.1,0-.1,0-.2-.1s-.1-.1-.1-.2,0-.1.1-.2a.3.3,0,0,1,.4,0c.1.1.1.1.1.2s0,.1-.1.2S58.8,57,58.7,57Z"/><path class="cls-2" d="M63,57c-.1,0-.1,0-.2-.1s-.1-.1-.1-.2,0-.1.1-.2a.3.3,0,0,1,.4,0c.1.1.1.1.1.2s0,.1-.1.2S63.1,57,63,57Z"/><path class="cls-2" d="M60,50.7c-.1,0-.1,0-.2-.1s-.1-.1-.1-.2,0-.1.1-.2a.3.3,0,0,1,.4,0c.1.1.1.1.1.2s0,.1-.1.2S60.1,50.7,60,50.7Z"/><path class="cls-2" d="M54.5,50.5c-.1,0-.1,0-.2-.1s-.1-.1-.1-.2,0-.1.1-.2a.3.3,0,0,1,.4,0c0,.1.1.1.1.2s0,.1-.1.2S54.6,50.5,54.5,50.5Z"/><path class="cls-2" d="M59.2,44.2c-.1,0-.1,0-.2-.1s-.1-.1-.1-.2,0-.1.1-.2a.3.3,0,0,1,.4,0c0,.1.1.1.1.2s0,.1-.1.2S59.3,44.2,59.2,44.2Z"/><path class="cls-2" d="M54.7,41.7c-.1,0-.1,0-.2-.1s-.1-.1-.1-.2,0-.1.1-.2a.3.3,0,0,1,.4,0c.1.1.1.1.1.2s0,.1-.1.2S54.8,41.7,54.7,41.7Z"/><path class="cls-2" d="M55.7,35.5c-.1,0-.1,0-.2-.1s-.1-.1-.1-.2,0-.1.1-.2a.3.3,0,0,1,.4,0c.1.1.1.1.1.2s0,.1-.1.2S55.8,35.5,55.7,35.5Z"/><path class="cls-2" d="M62.5,42.2c-.1,0-.1,0-.2-.1s-.1-.1-.1-.2,0-.1.1-.2a.19.19,0,0,1,.3,0h0c.1,0,.1.1.1.2s0,.1-.2.3Z"/><path class="cls-2" d="M67,47.5c-.1,0-.1,0-.2-.1s-.1-.1-.1-.2,0-.1.1-.2a.3.3,0,0,1,.4,0c.1.1.1.1.1.2s0,.1-.1.2S67.1,47.5,67,47.5Z"/><path class="cls-2" d="M69.5,54.2c-.1,0-.1,0-.2-.1s-.1-.1-.1-.2,0-.1.1-.2a.3.3,0,0,1,.4,0c.1.1.1.1.1.2s0,.1-.1.2S69.6,54.2,69.5,54.2Z"/><path class="cls-2" d="M63.5,61.7c-.1,0-.1,0-.2-.1s-.1-.1-.1-.2,0-.1.1-.2a.3.3,0,0,1,.4,0c.1.1.1.1.1.2s0,.1-.1.2S63.6,61.7,63.5,61.7Z"/><path class="cls-2" d="M69.2,63.5c-.1,0-.1,0-.2-.1s-.1-.1-.1-.2,0-.1.1-.2a.3.3,0,0,1,.4,0c.1.1.1.1.1.2s0,.1-.1.2S69.3,63.5,69.2,63.5Z"/><path class="cls-2" d="M64.7,65.5c-.1,0-.1,0-.2-.1s-.1-.1-.1-.2,0-.1.1-.2a.3.3,0,0,1,.4,0,.37.37,0,0,1,.1.3l-.1.1C64.9,65.5,64.8,65.5,64.7,65.5Z"/><path class="cls-2" d="M65.7,68.2c-.1,0-.1,0-.2-.1s-.1-.1-.1-.2,0-.1.1-.2a.3.3,0,0,1,.4,0c.1.2.1.2.1.3s0,.1-.1.2Z"/><path class="cls-2" d="M69.2,70.5c-.1,0-.1,0-.2-.1s-.1-.1-.1-.2,0-.1.1-.2a.3.3,0,0,1,.4,0c.1.1.1.1.1.2s0,.1-.1.2S69.3,70.5,69.2,70.5Z"/><path class="cls-2" d="M62.5,70.2c-.1,0-.1,0-.2-.1s-.1-.1-.1-.2,0-.1.1-.2a.19.19,0,0,1,.3,0h0c.1,0,.1.1.1.2S62.7,70,62.5,70.2Z"/><path class="cls-2" d="M60.7,65.7c-.1,0-.1,0-.2-.1s-.1-.1-.1-.2,0-.1.1-.2a.3.3,0,0,1,.4,0c.1.1.1.1.1.2s0,.1-.1.2S60.8,65.7,60.7,65.7Z"/><path class="cls-2" d="M52.7,69.7c-.1,0-.1,0-.2-.1s-.1-.1-.1-.2,0-.1.1-.2a.3.3,0,0,1,.4,0c.1.1.1.1.1.2s0,.1-.1.2S52.8,69.7,52.7,69.7Z"/><path class="cls-2" d="M44.7,66.5c-.1,0-.1,0-.2-.1s-.1-.1-.1-.2,0-.1.1-.2a.3.3,0,0,1,.4,0c.1.1.1.1.1.2s0,.1-.1.2S44.8,66.5,44.7,66.5Z"/><path class="cls-2" d="M44.5,71.2c-.1,0-.1,0-.2-.1s-.1-.1-.1-.2,0-.1.1-.2a.3.3,0,0,1,.4,0c.1.1.1.1.1.2s0,.1-.1.2S44.6,71.2,44.5,71.2Z"/><path class="cls-2" d="M28.5,71.2c-.1,0-.1,0-.2-.1s-.1-.1-.1-.2,0-.1.1-.2a.3.3,0,0,1,.4,0c.1.1.1.1.1.2s0,.1-.1.2S28.6,71.2,28.5,71.2Z"/><path class="cls-2" d="M.7,29.5c-.1,0-.1,0-.2-.1s-.1-.1-.1-.2,0-.1.1-.2.2-.1.4,0,.1.1.1.2,0,.1-.1.2S.8,29.5.7,29.5Z"/><path class="cls-2" d="M24.5,1c-.1,0-.1,0-.2-.1s-.1-.1-.1-.2,0-.1.1-.2a.3.3,0,0,1,.4,0c.1.1.1.1.1.2s0,.1-.1.2S24.6,1,24.5,1Z"/><path class="cls-2" d="M13.2,5c-.1,0-.1,0-.2-.1s-.1-.1-.1-.2,0-.1.1-.2a.3.3,0,0,1,.4,0c.1.1.1.1.1.2s0,.1-.1.2S13.3,5,13.2,5Z"/><path class="cls-2" d="M71,35.2c-.1,0-.1,0-.2-.1s-.1-.1-.1-.2,0-.1.1-.2a.3.3,0,0,1,.4,0c.1.1.1.1.1.2s0,.1-.1.2S71.1,35.2,71,35.2Z"/></pattern></defs><title>Step4L</title><path class="cls-3" d="M423.3,68.6H989.5a12.29,12.29,0,0,1,12.3,12.3h0V270.4a12.29,12.29,0,0,1-12.3,12.3H423.3A12.29,12.29,0,0,1,411,270.4h0V80.9a12.29,12.29,0,0,1,12.3-12.3Z" transform="translate(-46.4 -68.6)"/><path class="cls-4" d="M423.3,68.6H989.5a12.29,12.29,0,0,1,12.3,12.3h0V270.4a12.29,12.29,0,0,1-12.3,12.3H423.3A12.29,12.29,0,0,1,411,270.4h0V80.9a12.29,12.29,0,0,1,12.3-12.3Z" transform="translate(-46.4 -68.6)"/><path class="cls-5" d="M423.3,68.6H989.5a12.29,12.29,0,0,1,12.3,12.3h0V270.4a12.29,12.29,0,0,1-12.3,12.3H423.3A12.29,12.29,0,0,1,411,270.4h0V80.9a12.29,12.29,0,0,1,12.3-12.3Z" transform="translate(-46.4 -68.6)"/><path class="cls-6" d="M727.6,247.9a22.2,22.2,0,0,1-5.1-.6c-11.9-2.8-22.9-15.1-29.3-32.9-5.3-14.4-10.2-39.4-3.8-76.6,2.9-17,2.7-23.5,2.2-25.9-5.4,4-17.5,23.5-25,35.5-16.9,27.1-23.4,36.5-29.8,35.4-1.4-.2-4-1.3-4.9-5.4-.4-1.9-.9-2.2-.9-2.2-2.2-.7-10.4,6.1-13.9,8.9-7.7,6.3-13.8,11.3-19,8.4-4.7-2.7-4.2-9.9-3.2-16.5.6-4.1.8-9.3-2.2-10.8-10.5-5.2-50.6,18.8-93.5,62.9l-5.7-5.6c19.9-20.4,40.9-38.3,59.3-50.4,20.6-13.6,35.2-18.3,43.6-14.1,4,2,8.4,7,6.5,19.2a29.28,29.28,0,0,0-.5,7.8c2.4-1.1,6.8-4.8,9.7-7.1,7.8-6.4,15.2-12.5,21.6-10.3a9.22,9.22,0,0,1,5.5,5.9c4.7-4.8,13.8-19.3,20.7-30.3,19.4-31,27.4-42.4,35-39.5,5,1.9,7.1,8.5,2.5,35.5-10.6,61.5,9.9,96.2,27.1,100.3,8.5,2,15.5-3.6,19.2-15.5,9-29.3,18.3-50.1,34.3-56.5,9.6-3.8,20.7-2,34,5.5,31.8,18.1,54.3,15.5,80.3-9.3l5.5,5.8c-28.7,27.4-54.7,30.4-89.7,10.5-11-6.3-19.9-7.9-27.1-5.1-13.8,5.5-22.4,27.9-29.6,51.4C746.3,242.4,736.5,247.9,727.6,247.9Z" transform="translate(-46.4 -68.6)"/><path class="cls-7" d="M63.9,115.5H351a12,12,0,0,1,12,12v434a12,12,0,0,1-12,12H63.9a12,12,0,0,1-12-12v-434A12,12,0,0,1,63.9,115.5Z" transform="translate(-46.4 -68.6)"/><path class="cls-8" d="M130.5,88.5h154a12,12,0,0,1,12,12v36a12,12,0,0,1-12,12h-154a12,12,0,0,1-12-12v-36A12,12,0,0,1,130.5,88.5Z" transform="translate(-46.4 -68.6)"/><path class="cls-9" d="M104.9,217.5h35a12,12,0,0,1,12,12v35a12,12,0,0,1-12,12h-35a12,12,0,0,1-12-12v-35a12,12,0,0,1,12-12Z" transform="translate(-46.4 -68.6)"/><path class="cls-9" d="M105,319.5h35a12,12,0,0,1,12,12v35a12,12,0,0,1-12,12H105a12,12,0,0,1-12-12v-35A12,12,0,0,1,105,319.5Z" transform="translate(-46.4 -68.6)"/><path class="cls-9" d="M104.9,421.5h35a12,12,0,0,1,12,12v35a12,12,0,0,1-12,12h-35a12,12,0,0,1-12-12v-35a12,12,0,0,1,12-12Z" transform="translate(-46.4 -68.6)"/><polyline class="cls-10" points="46.6 178.4 76 207.9 118.5 122.9"/><polyline class="cls-10" points="46.6 287.4 76 316.9 118.5 231.9"/><polyline class="cls-10" points="46.6 389.4 76 418.9 118.5 333.9"/><path class="cls-11" d="M774.5,429.2Z" transform="translate(-46.4 -68.6)"/><path class="cls-1" d="M572.2,503.7c5.8.2,14.2,1.5,21.8,2.4-4.4-3.1-9.6-8-11.2-8C580.6,498.2,576.5,500.7,572.2,503.7Z" transform="translate(-46.4 -68.6)"/><path class="cls-1" d="M491.6,499c3,0,6.3.1,9.8.4-2.6-1.8-4.7-3-5.6-3C494.6,496.5,493.1,497.6,491.6,499Z" transform="translate(-46.4 -68.6)"/><path class="cls-1" d="M536.7,506c2.4.3,4.6.4,6.6.5-1.6-1.1-2.9-1.8-3.6-1.8A8.06,8.06,0,0,0,536.7,506Z" transform="translate(-46.4 -68.6)"/><path class="cls-12" d="M1003.5,481.2a129.77,129.77,0,0,1-251.2,45.7c-4.3-.3-10.5-.1-13.1,2.5a13.05,13.05,0,0,0-3.7,10.6c0,5.5-5.6,9.9-12.6,9.9s-12.6-4.4-12.6-9.9l-.2-10.3s1.7-6-20.7-5.7-22.8,1.2-25.8-.3-14.9-13.9-17.9-13.9-8.3,7.9-11.8,7.8-19.5-17-31-17.5-24.3,13.5-28.3,13.5S560.5,503,558.1,503c-5.5.1-24.1,16.6-26.8,16.6s-13.3-10-16.2-10.1-13.1,9.6-16.7,9.5-23.8-17.8-27.3-17.7-9.8,9.7-13,9.8-11.3-10.7-12.9-10.8-.5,1.5-3.1,1.5-27.6-26.5-27.6-26.5c-2.9-3.2-2.9-6.5,0-9.8l27.3-27.7s2.7-3.7,12.7-3.7H710.9v-7.6c0-5.9,5-10.6,11.3-10.6a11.15,11.15,0,0,1,11.3,10.6c.1,6.4,9.6,7.5,14.1,7.6h5.2a129.76,129.76,0,0,1,250.7,47.1Zm-74-36.5A36.5,36.5,0,1,0,966,481.2a36.45,36.45,0,0,0-36.5-36.5Z" transform="translate(-46.4 -68.6)"/><path class="cls-13" d="M1000.5,476.2A129.77,129.77,0,0,1,749.3,522c-4.3-.3-10.5-.1-13.1,2.5a13.05,13.05,0,0,0-3.7,10.6c0,5.5-5.6,9.9-12.6,9.9s-12.6-4.4-12.6-9.9l-.2-10.3s1.7-6-20.7-5.7-22.8,1.2-25.8-.3-14.9-13.9-17.9-13.9-8.3,7.9-11.8,7.8-19.5-17-31-17.5-24.3,13.5-28.3,13.5-14.1-10.6-16.5-10.6c-5.5.1-24.1,16.7-26.8,16.7s-13.3-10-16.2-10.1-13.1,9.6-16.7,9.5-23.8-17.8-27.3-17.8-9.8,9.8-13,9.8-11.3-10.7-12.9-10.8-.5,1.5-3.1,1.5-27.6-26.6-27.6-26.6c-2.9-3.2-2.9-6.5,0-9.8l27.3-27.7s2.7-3.7,12.7-3.7H707.9v-7.6c0-5.9,5-10.6,11.3-10.6a11.15,11.15,0,0,1,11.3,10.6c.1,6.4,9.6,7.5,14.1,7.6h5.2a129.76,129.76,0,0,1,250.7,47.1Zm-74-36.5A36.5,36.5,0,1,0,963,476.2a36.45,36.45,0,0,0-36.5-36.5Z" transform="translate(-46.4 -68.6)"/><path class="cls-14" d="M1000.5,476.2A129.77,129.77,0,0,1,749.3,522c-4.3-.3-10.5-.1-13.1,2.5a13.05,13.05,0,0,0-3.7,10.6c0,5.5-5.6,9.9-12.6,9.9s-12.6-4.4-12.6-9.9l-.2-10.3s1.7-6-20.7-5.7-22.8,1.2-25.8-.3-14.9-13.9-17.9-13.9-8.3,7.9-11.8,7.8-19.5-17-31-17.5-24.3,13.5-28.3,13.5-14.1-10.6-16.5-10.6c-5.5.1-24.1,16.7-26.8,16.7s-13.3-10-16.2-10.1-13.1,9.6-16.7,9.5-23.8-17.8-27.3-17.8-9.8,9.8-13,9.8-11.3-10.7-12.9-10.8-.5,1.5-3.1,1.5-27.6-26.6-27.6-26.6c-2.9-3.2-2.9-6.5,0-9.8l27.3-27.7s2.7-3.7,12.7-3.7H707.9v-7.6c0-5.9,5-10.6,11.3-10.6a11.15,11.15,0,0,1,11.3,10.6c.1,6.4,9.6,7.5,14.1,7.6h5.2a129.76,129.76,0,0,1,250.7,47.1Zm-74-36.5A36.5,36.5,0,1,0,963,476.2a36.45,36.45,0,0,0-36.5-36.5Z" transform="translate(-46.4 -68.6)"/><g class="cls-15"><path class="cls-16" d="M411.3,470.3s315.7,3.6,353-5.8,28.7-24.9,8-24.8-339.8-.7-339.8-.7l-21.2,21.5C408.5,464.1,408.1,467.5,411.3,470.3Z" transform="translate(-46.4 -68.6)"/><path class="cls-17" d="M411.3,470.3s315.7,3.6,353-5.8c20.2-5,26.9-11.9,25.6-17.1-7.6,9.8-41.7,12.5-54.6,12.1s-49.7,4-63,5.7-48.3-9-87.3-2.7-78.7-5.3-87.6-6.5-31.7.8-49.4,2.2-29.9-4.5-29.9-4.5l-6.8,6.8C408.5,464.1,408.1,467.5,411.3,470.3Z" transform="translate(-46.4 -68.6)"/></g><g class="cls-15"><g class="cls-15"><path class="cls-6" d="M775.4,499.2c-11.7-1-91-1.9-169.3-2.5,10.5,4.1,22.2,16,25.1,16.2,3.5.1,8.8-7.8,11.8-7.8s14.9,12.5,17.9,13.9,3.5.6,25.8.3,20.7,5.7,20.7,5.7l.1,5.6,25.6.2a13.21,13.21,0,0,1,3.4-6.1c2.6-2.6,8.8-2.8,13.1-2.5,1.1,3,2.4,6,3.7,8.9l33.5-21.7C786.7,509.2,799.4,501.2,775.4,499.2Z" transform="translate(-46.4 -68.6)"/><path class="cls-6" d="M455.5,506.3c3.3-.1,9.5-9.8,13-9.8s23.8,17.7,27.3,17.8,13.8-9.6,16.7-9.5,13.4,10.1,16.2,10.1,21.3-16.6,26.8-16.7c2.4,0,12.5,10.6,16.5,10.6,3.2,0,11.9-8.8,21.1-12.2-77.7-.6-150.5-1-150.5-1C444.1,495.7,452.2,506.4,455.5,506.3Z" transform="translate(-46.4 -68.6)"/></g><g class="cls-18"><path class="cls-6" d="M643,505c3,0,14.9,12.5,17.9,13.9s3.5.6,25.8.3,20.7,5.7,20.7,5.7l.1,5.6,25.6.2a13.21,13.21,0,0,1,3.4-6.1c2.6-2.6,8.8-2.8,13.1-2.5,1.1,3,2.4,6,3.7,8.9l33.5-21.7c-17,11.3-60.3,15.7-67.7,8.7s-21-6-38-1-26-9.3-36.3-13.8c-4.8-2.1-16.7-1.9-28.8-.9,7.1,4.9,13.3,10.6,15.3,10.7C634.7,512.9,640,505,643,505Z" transform="translate(-46.4 -68.6)"/><path class="cls-6" d="M572,508.8c.9,0,2.2-.7,3.8-1.7-2.7-.1-5.8-.4-9-.8C568.8,507.7,570.7,508.8,572,508.8Z" transform="translate(-46.4 -68.6)"/><path class="cls-6" d="M474.1,499.5c7.4,5,19.1,14.7,21.7,14.8,2.8.1,9.4-5.6,13.7-8.2a145.49,145.49,0,0,1-18.4-3.5A99.55,99.55,0,0,0,474.1,499.5Z" transform="translate(-46.4 -68.6)"/><path class="cls-6" d="M455.5,506.3c2.2-.1,5.7-4.4,8.8-7.3a72.91,72.91,0,0,0-16.1,1.8C450.9,503.6,453.8,506.4,455.5,506.3Z" transform="translate(-46.4 -68.6)"/><path class="cls-6" d="M541,503.8c-6.1.7-12.7,3.2-24.9,2.7,4.3,2.9,10.5,8.3,12.5,8.3,1.7,0,9.3-6.2,16.3-11.1C543.4,503.7,542.1,503.7,541,503.8Z" transform="translate(-46.4 -68.6)"/><path class="cls-6" d="M643,505c3,0,14.9,12.5,17.9,13.9s3.5.6,25.8.3,20.7,5.7,20.7,5.7l.1,5.6,25.6.2a13.21,13.21,0,0,1,3.4-6.1c2.6-2.6,8.8-2.8,13.1-2.5,1.1,3,2.4,6,3.7,8.9l33.5-21.7c-17,11.3-60.3,15.7-67.7,8.7s-21-6-38-1-26-9.3-36.3-13.8c-4.8-2.1-16.7-1.9-28.8-.9,7.1,4.9,13.3,10.6,15.3,10.7C634.7,512.9,640,505,643,505Z" transform="translate(-46.4 -68.6)"/><path class="cls-6" d="M572,508.8c.9,0,2.2-.7,3.8-1.7-2.7-.1-5.8-.4-9-.8C568.8,507.7,570.7,508.8,572,508.8Z" transform="translate(-46.4 -68.6)"/><path class="cls-6" d="M474.1,499.5c7.4,5,19.1,14.7,21.7,14.8,2.8.1,9.4-5.6,13.7-8.2a145.49,145.49,0,0,1-18.4-3.5A99.55,99.55,0,0,0,474.1,499.5Z" transform="translate(-46.4 -68.6)"/><path class="cls-6" d="M455.5,506.3c2.2-.1,5.7-4.4,8.8-7.3a72.91,72.91,0,0,0-16.1,1.8C450.9,503.6,453.8,506.4,455.5,506.3Z" transform="translate(-46.4 -68.6)"/><path class="cls-6" d="M541,503.8c-6.1.7-12.7,3.2-24.9,2.7,4.3,2.9,10.5,8.3,12.5,8.3,1.7,0,9.3-6.2,16.3-11.1C543.4,503.7,542.1,503.7,541,503.8Z" transform="translate(-46.4 -68.6)"/></g></g><line class="cls-19" x1="148.5" y1="157.3" x2="268.4" y2="157.3"/><line class="cls-19" x1="148.5" y1="182.4" x2="268.4" y2="182.4"/><line class="cls-19" x1="148.5" y1="207.5" x2="268.4" y2="207.5"/><line class="cls-19" x1="148.5" y1="257.7" x2="268.4" y2="257.7"/><line class="cls-19" x1="148.5" y1="282.8" x2="268.4" y2="282.8"/><line class="cls-19" x1="148.5" y1="307.9" x2="268.4" y2="307.9"/><line class="cls-19" x1="148.5" y1="358.1" x2="268.4" y2="358.1"/><line class="cls-19" x1="148.5" y1="383.2" x2="268.4" y2="383.2"/><line class="cls-19" x1="148.5" y1="408.3" x2="268.4" y2="408.3"/></svg>