<svg id="Layer_1" data-name="Layer 1" xmlns="http://www.w3.org/2000/svg" viewBox="0 0 957.18 600"><defs><style>.cls-1{fill:#d6e6ec;}.cls-2,.cls-6{fill:#35296f;}.cls-13,.cls-2,.cls-24{opacity:0.3;}.cls-13,.cls-16,.cls-17,.cls-2,.cls-20,.cls-21,.cls-22,.cls-23,.cls-24,.cls-8,.cls-9{isolation:isolate;}.cls-17,.cls-25,.cls-3{fill:#fff;}.cls-3{stroke:#3482a1;}.cls-21,.cls-26,.cls-3,.cls-5{stroke-miterlimit:10;}.cls-3,.cls-5{stroke-width:11px;}.cls-4,.cls-8{fill:#323071;}.cls-26,.cls-5{fill:none;}.cls-5{stroke:#aad0e0;}.cls-7{fill:#f894a4;}.cls-16,.cls-8{opacity:0.5;}.cls-10,.cls-13,.cls-16,.cls-20,.cls-21,.cls-9{fill:#23146b;}.cls-17,.cls-21,.cls-9{opacity:0.1;}.cls-11{fill:#9ca8ef;}.cls-12{fill:#6fdcca;}.cls-14{fill:#b5deef;}.cls-15{fill:#3482a1;}.cls-18{fill:#503ea7;}.cls-19{fill:#d2fad6;}.cls-20{opacity:0.2;}.cls-21,.cls-26{stroke:#fff;}.cls-22{fill:#fcd4db;opacity:0.05;}.cls-23{fill:#2f7b93;opacity:0.8;}.cls-27{fill:#2f768c;}</style></defs><title>Step1</title><path class="cls-1" d="M460.91,523.71c-14.63.91-91.42,31.38-41.9,41.1,51.93,10.13,71,37.09,118.09,46.91s56.23-5.61,125.4-5.21,50.62,9.42,90.72,3.91c18.64-2.61,109.26-9,158.78-24.76,56.94-18,70.17-45.71,32.08-49.92-71.17-7.92-147.36-5.11-241.58-10S544.42,518.5,460.91,523.71Z" transform="translate(-38.41 -15)"/><path class="cls-2" d="M566.07,585c-6.92,0-14.64-4.11-23.26-5.91-18.44-3.81-32-5.52-47.41-13.84-6-3.2-18.55-6.81-18.55-12.13s51.33-2.1,77.59-2.1c43.3,0,86.51,1.8,146.45,4.91,38.7,2,73.68,2.71,107.46,3.41,27.77.6,77.89-2.21,77.89,2.3s-89.92,14.14-117.08,16.94c-9.22.91-15.94,1.61-20.15,2.21a131.48,131.48,0,0,1-16.24,1.5h0c-2.91,0-4.51-.3-9.22-1.1-9.73-1.7-24.36-4.41-61-4.61h-2.61a382.4,382.4,0,0,0-67.76,5.71C582.31,583.66,574.39,585,566.07,585Z" transform="translate(-38.41 -15)"/><path class="cls-2" d="M703.4,592.18s.8,7.41,7.22,9.52,31.47,5.41,47.31,4,53.23-7.32,60.65-9.32,11.42-6.72,10.12-10c-2.51-6.11-23.46-12-23.46-12Z" transform="translate(-38.41 -15)"/><path class="cls-2" d="M517.05,574.33s-16.84-.1-11.43,5.32,11.73,19,24.86,22.05,37.69,6.62,57.74,4.41,31.48-1.5,49.32-5.81,29.57-3.21,23.26-8.72-99.54-10.43-109.07-14.14S517.05,574.33,517.05,574.33Z" transform="translate(-38.41 -15)"/><path class="cls-3" d="M53.73,38.06H980.27a9.84,9.84,0,0,1,9.82,9.82v420.2a9.85,9.85,0,0,1-9.82,9.83H53.73a9.85,9.85,0,0,1-9.82-9.83V47.88A9.9,9.9,0,0,1,53.73,38.06Z" transform="translate(-38.41 -15)"/><path class="cls-4" d="M244.79,131.48c7.62.6,15.24.8,22.86.8s15.24-.2,22.85-.6c3.81-.2,7.62-.5,11.43-1s7.62-1.1,11.43-1.81a111.77,111.77,0,0,1,11.43-1.5,109.05,109.05,0,0,1,11.42-.4,88.19,88.19,0,0,1,11.43,1c3.81.6,7.62,1.51,11.43,2.31a114,114,0,0,0,11.43,2,87.36,87.36,0,0,0,11.42.5c3.81-.1,7.62-.4,11.43-.8s7.62-1.1,11.43-1.7a113.14,113.14,0,0,1,45.71.6c3.81.7,7.62,1.5,11.43,2A110.57,110.57,0,0,0,473.34,134a72.77,72.77,0,0,0,11.43-.3,92.71,92.71,0,0,0,11.43-1.91,114,114,0,0,1,11.43-2,71.65,71.65,0,0,1,11.42-.51c15.24.21,30.38,5.12,45.61,5.92,7.62.5,15.24,1,22.86,1.1s15.24.2,22.85-.2l-.1,6.82c-7.61-.6-15.23-.8-22.85-.8s-15.24.2-22.86.5c-15.23.4-30.57,4.91-45.81,4.71a62.75,62.75,0,0,1-11.42-.8c-3.81-.61-7.62-1.31-11.43-2.31s-7.62-1.6-11.43-2.2A71.72,71.72,0,0,0,473,141.5c-3.81.1-7.61.41-11.42.81s-7.62,1.1-11.43,1.7a113.14,113.14,0,0,1-45.71-.6c-3.81-.7-7.62-1.5-11.43-2a110.46,110.46,0,0,0-11.43-1.1,87.08,87.08,0,0,0-11.42.2,109.88,109.88,0,0,0-11.43,1.71c-3.81.7-7.62,1.5-11.43,2a87.68,87.68,0,0,1-11.43.7,109.37,109.37,0,0,1-11.42-.7c-3.81-.4-7.62-1.1-11.43-1.8s-7.62-1.41-11.43-2-7.62-1-11.43-1.3c-7.61-.6-15.23-1-22.85-1.1s-15.24-.2-22.86.2Z" transform="translate(-38.41 -15)"/><path class="cls-4" d="M244.79,254.57c7.62.6,15.24.81,22.86.81s15.24-.21,22.85-.61c3.81-.2,7.62-.5,11.43-1s7.62-1.1,11.43-1.8a111.81,111.81,0,0,1,11.43-1.51,109.05,109.05,0,0,1,11.42-.4,88.19,88.19,0,0,1,11.43,1c3.81.61,7.62,1.51,11.43,2.31s7.62,1.5,11.43,2a87.36,87.36,0,0,0,11.42.5c3.81-.1,7.62-.4,11.43-.81s7.62-1.1,11.43-1.7a113.14,113.14,0,0,1,45.71.6c3.81.7,7.62,1.51,11.43,2a110.54,110.54,0,0,0,11.42,1.1,72.77,72.77,0,0,0,11.43-.3,89.08,89.08,0,0,0,11.43-1.91,114,114,0,0,1,11.43-2,72.83,72.83,0,0,1,11.42-.5c15.24.1,30.38,5.11,45.61,5.91,7.62.5,15.24,1,22.86,1.1s15.24.21,22.85-.2l-.1,6.72c-7.61-.6-15.23-.8-22.85-.8s-15.24.2-22.86.5c-15.23.4-30.57,4.91-45.81,4.71a62.75,62.75,0,0,1-11.42-.8,112.86,112.86,0,0,1-11.43-2.31c-3.81-.9-7.62-1.6-11.43-2.2a72.9,72.9,0,0,0-11.43-.5c-3.81.1-7.61.4-11.42.8s-7.62,1.1-11.43,1.7a113.14,113.14,0,0,1-45.71-.6c-3.81-.7-7.62-1.5-11.43-2a110.49,110.49,0,0,0-11.43-1.11,87.08,87.08,0,0,0-11.42.2,115.5,115.5,0,0,0-11.43,1.71c-3.81.7-7.62,1.5-11.43,2a87.69,87.69,0,0,1-11.43.71,109.39,109.39,0,0,1-11.42-.71c-3.81-.4-7.62-1.1-11.43-1.8s-7.62-1.4-11.43-2-7.62-1-11.43-1.3c-7.61-.5-15.23-1-22.85-1.1s-15.24-.2-22.86.2Z" transform="translate(-38.41 -15)"/><path class="cls-4" d="M244.79,377.67c7.62.6,15.24.8,22.86.8s15.24-.2,22.85-.6c3.81-.2,7.62-.5,11.43-1s7.62-1.1,11.43-1.8a111.77,111.77,0,0,1,11.43-1.5,109.05,109.05,0,0,1,11.42-.4,88.19,88.19,0,0,1,11.43,1c3.81.6,7.62,1.5,11.43,2.3a111.25,111.25,0,0,0,11.43,2,87.36,87.36,0,0,0,11.42.5c3.81-.1,7.62-.4,11.43-.8s7.62-1.11,11.43-1.71a113.5,113.5,0,0,1,45.71.6c3.81.71,7.62,1.51,11.43,2a110.54,110.54,0,0,0,11.42,1.1,87.23,87.23,0,0,0,11.43-.2,113,113,0,0,0,11.43-1.8,114,114,0,0,1,11.43-2,72.83,72.83,0,0,1,11.42-.5c15.24.1,30.38,5.11,45.61,5.92,7.62.5,15.24,1,22.86,1.1s15.24.2,22.85-.2l-.1,6.71c-7.61-.6-15.23-.8-22.85-.8s-15.24.2-22.86.5c-15.23.4-30.57,4.91-45.81,4.71a62.75,62.75,0,0,1-11.42-.8,115.62,115.62,0,0,1-11.43-2.3c-3.81-.91-7.62-1.61-11.43-2.21a72.9,72.9,0,0,0-11.43-.5c-3.81.1-7.61.4-11.42.8s-7.62,1.11-11.43,1.71a113.5,113.5,0,0,1-45.71-.6c-3.81-.71-7.62-1.51-11.43-2a110.46,110.46,0,0,0-11.43-1.1,87.08,87.08,0,0,0-11.42.2,112.58,112.58,0,0,0-11.43,1.7c-3.81.7-7.62,1.51-11.43,2a87.68,87.68,0,0,1-11.43.7,109.37,109.37,0,0,1-11.42-.7c-3.81-.4-7.62-1.11-11.43-1.81s-7.62-1.4-11.43-2-7.62-1-11.43-1.31c-7.61-.5-15.23-1-22.85-1.1s-15.24-.2-22.86.2Z" transform="translate(-38.41 -15)"/><path class="cls-5" d="M118.49,101.31h60.25a8,8,0,0,1,8,8v60.24a8,8,0,0,1-8,8H118.49a8,8,0,0,1-8-8V109.33A8,8,0,0,1,118.49,101.31Z" transform="translate(-38.41 -15)"/><path class="cls-5" d="M118.49,338.17h60.25a8,8,0,0,1,8,8v60.24a8,8,0,0,1-8,8H118.49a8,8,0,0,1-8-8V346.19a8.11,8.11,0,0,1,8-8Z" transform="translate(-38.41 -15)"/><path class="cls-5" d="M118.49,219.79h60.25a8,8,0,0,1,8,8v60.24a8,8,0,0,1-8,8H118.49a8,8,0,0,1-8-8V227.81A8,8,0,0,1,118.49,219.79Z" transform="translate(-38.41 -15)"/><path class="cls-6" d="M582.91,434v12.53s-1.81,4.71,6.21,12.23S598,461.57,606,470.09c5.92,6.51,3.11,15.63,8.22,22.75l11.53,15.84,59.95,36.08,52.12-41.09,49.12-46.61L798.43,437Z" transform="translate(-38.41 -15)"/><path class="cls-7" d="M542.11,414.55c-11.83-6.31-44.51-42.1-78.59-38.09s-40.1,11-41.1,24.06-7,29.07,0,43.1,67.16,64.16,67.16,64.16l36.19,32.47s12-11.22,29.07-3.2c10.13,4.71,21.55,4.11,30.78,10.52l34.28-52.32S611.18,477.7,606,470.19C591,448.74,573.09,431.19,542.11,414.55Z" transform="translate(-38.41 -15)"/><polygon class="cls-8" points="553.12 436.94 588.3 471.63 579.48 482.95 616.17 529.87 703.38 510.72 771.14 440.65 809.44 399.55 545.5 408.78 553.12 436.94"/><path class="cls-7" d="M723.75,495.15,798.43,437l45.11-47.11s32.07-24.56,52.12-7.52,33.68,40.49,33.08,53.42c-.7,14.44-12,43.91-33.08,64-23.25,22.15-72.87,50.62-72.87,50.62s-12.13-17.54-30.18-10.53-34.78,12.43-34.78,12.43Z" transform="translate(-38.41 -15)"/><path class="cls-9" d="M542.11,404.53S644.86,429,712.52,425.78s98.54-28.27,98.54-28.27l3.31-2.5,24.15-7.82a37.17,37.17,0,0,1,9.73-2l-.3,1.71c1-.6,1.8-1.1,2.6-1.61,6.62.21,12.83,3.21,9.43,15.24-3.51,12.33,5.31,7.22-18.05,35.08C823,458.16,770.66,494,749.71,506.27c-24.46,14.24-37.59,27-64,28.57s-78.19-35.28-107.66-56.33-71.37-37.39-71.88-47.32-4.71-23.55,10.93-26.66a81.06,81.06,0,0,1,9.82-1.3l5.42,4.31-.2-4.41A38.33,38.33,0,0,1,542.11,404.53Z" transform="translate(-38.41 -15)"/><path class="cls-10" d="M669.42,175.08c-6.32-1.1-23.46,1.51-29.37,3.11-13,3.61-26.77,5.82-39.3,11.53-4.11,1.9-8.22,4.21-11.33,7.52-5.51,5.81-7.51,16.84-10.42,24.35q-3.46,8.73-6.62,17.45l200.29,31.37L812,423s19.85-14.53,31.58-33.07c8.52-13.54,10.52-95.73,8-120.79-1.31-12.73-.61-28.07-10.23-37.69-13.53-13.53-36.59-32.08-55.93-35.29-16.64-2.8-27-4.41-43.71-7.21C714.43,184.31,696.58,179.59,669.42,175.08Z" transform="translate(-38.41 -15)"/><path class="cls-11" d="M669.42,188.12c-6.32-1.11-23.46,1.5-29.37,3.1-13,3.61-26.77,5.82-39.3,11.53-4.11,1.9-8.22,4.21-11.33,7.52-5.51,5.81-7.51,16.84-10.42,24.36q-3.46,8.72-6.62,17.44l200.29,31.37L812,436s19.85-14.54,31.58-33.08c1.9-3,3.4-9.33,4.71-17.55,4.51-29.37,5.31-83.69,3.31-103.24-1.31-12.73-.61-28.07-10.23-37.69-13.53-13.53-36.59-32.08-55.93-35.28-16.64-2.81-27-4.42-43.71-7.22C714.43,197.34,696.58,192.63,669.42,188.12Z" transform="translate(-38.41 -15)"/><polygon class="cls-6" points="643.64 138.63 643.64 224.04 726.94 224.04 724.93 143.34 713.71 119.79 643.64 138.63"/><path class="cls-12" d="M702.5,175.59s.5,4.61,1.6,13.23c.8,6.71,1.3,13.93,3.41,20.45,1.9,5.71,6.61,14.53,14,12.63,4-1,6.82-5.72,8.92-9a87.92,87.92,0,0,0,11.13-25c2.51-9.42,2.91-19.14,3.41-28.86.1-2.31.3-4.72.4-7C731.07,160.55,716.83,167.06,702.5,175.59Z" transform="translate(-38.41 -15)"/><path class="cls-13" d="M695,170.17s18.24,19.35,28.77,17.74,34.08-31.47,34.08-31.47l7.52-18.34-9.42-8.62Z" transform="translate(-38.41 -15)"/><polygon class="cls-14" points="666.59 14.84 687.84 14.84 683.13 40.7 664.09 43.21 666.59 14.84"/><path class="cls-15" d="M714.43,29.84V53.9s22.05,5,29.07,22.05,6,34.08,4.81,48.11c-1,11.13,6.51,33.08,3.91,61.15s-6.62,54.13-6.62,54.13l65.26,3.81s-19.15-74-19.15-108.56c0-18.85-.4-37.69-3.21-56.34A172.49,172.49,0,0,0,782,52c-2.31-7.42-7.82-16-14.14-20.85a73.89,73.89,0,0,0-19.34-10.62c-7.72-3-15.64-5.62-24-5.52-8,.1-16.64,2.71-24.36,5.11-8,2.51-15.94,6.22-22.05,12.13C667.51,42.57,662.4,58.61,659,72.64a151.94,151.94,0,0,0-3.71,49.42c4,44.1,8,76.18,8,93.22s-3,24.06-3,24.06h31.07S685.46,134.19,685,125s-7.61-21.45-3.4-33,2.3-21.56,12.53-28.87,17-9,17-9l-.3-24.36h3.61Z" transform="translate(-38.41 -15)"/><path class="cls-16" d="M744.9,94.79c.7,7-.2,19.55,0,23.06s1,21.85,2.71,29.47c.6,2.7,1.7,7.62,1.7,7.62l3.31,19.84s-1-45.61-.5-50.92c1.2-14,2.2-31.07-4.82-48.11S718.94,54.1,718.94,54.1s3.61,6.61,14.13,17.14S744.2,87.78,744.9,94.79Z" transform="translate(-38.41 -15)"/><path class="cls-17" d="M670.42,233c2-29.07,1.4-57.23-5.31-83.1,0,0,14.33,26,15.33,46.51a389,389,0,0,0,5,42.81Z" transform="translate(-38.41 -15)"/><path class="cls-17" d="M753.22,234.33S757.63,183,758.13,166s4.51-2.6,5.81,15.24-.4,26.86,1.41,40.49,13.33-24.25,9.32-40.49-8-31.78-1.5-31.28,13,51.13,15,63.66,4.51,28.46,5.52,35.28S753.22,234.33,753.22,234.33Z" transform="translate(-38.41 -15)"/><path class="cls-18" d="M617.89,498s58.74,37.79,66.76,41.3,34.39,13,34.39,13-7.32,31.48,4.71,45-54.63-24-87.71-34.48-53.13-19-53.13-19S585.82,526,617.89,498Z" transform="translate(-38.41 -15)"/><path class="cls-18" d="M676.23,530.63l47.52-35.48,34.08,57.13c-5.41,2.71-22.25,3-28.37,3.41-10.52.8,18,1.6,1.3-3.41S698.79,546.67,676.23,530.63Z" transform="translate(-38.41 -15)"/><path class="cls-18" d="M675.93,530.93l47.82-35.78,32.18,53.92a26.51,26.51,0,0,1-9.13,3.11c-10.52.8-11.42,1.51-15.93.1C714,547.37,698.49,547,675.93,530.93Z" transform="translate(-38.41 -15)"/><path class="cls-10" d="M676.33,530.53l-38.79,31.78s12.73,4.21,10.73,12.73a74.39,74.39,0,0,1-6.22,16.44l99.74-36.29Z" transform="translate(-38.41 -15)"/><path class="cls-19" d="M543.71,532.43c-10.42,0-25.16,7.72-26,28.37-.8,20.05,7.52,29.07,20,34,30.27,11.83,97.54-1.9,104.25-3.4S656.59,568,641,564.51c-7.12-1.6-56.84-20.25-56.84-20.25S554.14,532.43,543.71,532.43Z" transform="translate(-38.41 -15)"/><path class="cls-19" d="M543.71,532.43c-10.42,0-25.16,7.72-26,28.37-.8,20.05,7.52,29.07,20,34,30.27,11.83,97.54-1.9,104.25-3.4S656.59,568,641,564.51c-7.12-1.6-56.84-20.25-56.84-20.25S554.14,532.43,543.71,532.43Z" transform="translate(-38.41 -15)"/><path class="cls-18" d="M619.9,495.25s56.73,40.49,64.75,44,37.49,14.34,37.49,14.34-10.42,30.17,1.61,43.7-54.63-24-87.71-34.48-53.13-19-53.13-19S587.82,523.31,619.9,495.25Z" transform="translate(-38.41 -15)"/><path class="cls-19" d="M721.34,553.49c-11.73-1.81-17.74,38,2.41,46.51,12.33,5.21,44.81-3.71,69.16-4.92,22.36-1.2,31.58-18.84,33.79-25.16,9.72-28.66-16.64-33.78-24.36-34.18C780.38,534.94,753,558.3,721.34,553.49Z" transform="translate(-38.41 -15)"/><path class="cls-18" d="M553.54,239.14c81.59-10.83,161-9.83,252.11,0,9.72,1.8,17.54,10.42,24.25,27.06s4.51,160.68-7,174.92c-14.44,17.74-280,10.82-286.69,0-5.42-8.82-8.52-155.07-2.31-178.33C538.4,251.47,544.72,240.84,553.54,239.14Z" transform="translate(-38.41 -15)"/><path class="cls-20" d="M819.18,266.8s12.33,82.7-5.11,158.88c0,0-20.35,9.12-70.77,8.32C743.3,434,834.72,445.73,819.18,266.8Z" transform="translate(-38.41 -15)"/><path class="cls-20" d="M544,266.8s-12.33,82.7,5.11,158.88c0,0,20.35,9.12,70.77,8.32C619.9,434,528.48,445.73,544,266.8Z" transform="translate(-38.41 -15)"/><circle class="cls-21" cx="643.64" cy="301.32" r="21.35"/><path class="cls-19" d="M747.91,145.11c2.1-9.72,1.6-18.14,1.8-24.76.5-14,.5-27.56-6.52-44.6S714.83,54.2,714.83,54.2l-2.51-.3c-1.1-.1-3,.9-3.91,1.3-2.3.9-4.51,2-6.72,3.11-4.51,2.3-9,5.11-12.12,9.22-3.41,4.51-4.82,10.22-6.22,15.74-2.51,10-4.91,20-5.91,30.27-.91,9.52-.5,19.44,2.5,28.57,2.51,7.51,6.12,15.83,11,22.15s9.32,11.63,11.53,13.33c4.21,3.51,16.24,5.41,22.25,1.4s14.44-16.44,19.55-24.35A86.59,86.59,0,0,0,747.91,145.11Z" transform="translate(-38.41 -15)"/><path class="cls-12" d="M712.52,58.21s14,6.91,16.54,13,9.52,12.53,11,31.57" transform="translate(-38.41 -15)"/><path class="cls-22" d="M895.66,382.38A24.77,24.77,0,0,0,883,376.66c4.41,8.72,6.52,22.56-2.5,43.21-18,41.4-64.86,59.84-46.92,69.46,6,3.31,26.07-5.91,53.13-19.34,18.75-9.33,29.67-14.24,39.4-24.66.9-3.71,1.7-6.92,2.5-9.63C932.75,422,915.71,399.42,895.66,382.38Z" transform="translate(-38.41 -15)"/><path class="cls-23" d="M769.66,73.54c4.11,20.65,7.72,74.68,19.45,101.24,2.8,6.32,5,5.72,6.91.6-2.5-14.93-7-29.47-7-40.59,0-18.85.3-35.69-2.51-54.23-1.4-9.22-2.71-17.84-5.51-26.76-2.31-7.42-9.23-16.14-15.54-20.95-6.52-4.92-9.72-7.32-17.24-10.33-7.72-3-13.44-5.11-21.86-5a100,100,0,0,0-26.06,4c-8,2.5-14.63,5.61-20.85,11.53-9,8.82-15.44,20.85-18.84,33.28C664.51,61.21,680.84,30.74,695,28,711.12,25,757.33,11.49,769.66,73.54Z" transform="translate(-38.41 -15)"/><g class="cls-24"><path class="cls-25" d="M752.12,27.63c.8-.5,1.2-.4,1.5-.1a6.73,6.73,0,0,1,1.1.7c.7.41,1.31,1,2,1.51s1.2,1.1,1.9,1.5l1.81,1.61a41.32,41.32,0,0,1,6.21,7.61,37.24,37.24,0,0,1,2.41,4.31c.6,1.51,1.4,3,1.9,4.51a45.17,45.17,0,0,1,2.11,9.53l-1,.1a51.22,51.22,0,0,0-2.8-8.92,30.65,30.65,0,0,0-2-4.11c-.8-1.31-1.6-2.71-2.5-3.91a50.65,50.65,0,0,0-6-7l-1.7-1.5c-.6-.4-1.1-1-1.81-1.41a20.28,20.28,0,0,0-1.8-1.3,6.07,6.07,0,0,1-1-.7c-.3-.2-.6-.4-.5-1.4Z" transform="translate(-38.41 -15)"/></g><path class="cls-26" d="M733.87,564.61s5.32,10.33,3.31,21.35" transform="translate(-38.41 -15)"/><path class="cls-26" d="M745.2,563.61s5.31,10.32,3.31,21.35" transform="translate(-38.41 -15)"/><path class="cls-26" d="M755.93,561s5.31,10.33,3.3,21.35" transform="translate(-38.41 -15)"/><path class="cls-26" d="M766.75,558.4s5.31,10.32,3.31,21.35" transform="translate(-38.41 -15)"/><path class="cls-9" d="M650,574.43a.9.9,0,0,0-.1-.5h0c-23.76,1.71-68.67,7.72-86.31,5.62s-45.91-18.75-45.91-18.75v.3C517,581,525.27,590,537.7,594.78c30.27,11.83,97.53-1.9,104.25-3.4C646.16,590.47,650.77,581.75,650,574.43Z" transform="translate(-38.41 -15)"/><path class="cls-26" d="M612,565.11a30.84,30.84,0,0,0,1,19.35" transform="translate(-38.41 -15)"/><path class="cls-26" d="M601.05,563.91s-3.31,11.23.7,21.65" transform="translate(-38.41 -15)"/><path class="cls-26" d="M589.93,563.41s-3.31,12.43.7,22.85" transform="translate(-38.41 -15)"/><path class="cls-26" d="M578.9,562.91s-3.31,13.83.7,24.26" transform="translate(-38.41 -15)"/><path class="cls-9" d="M721.34,575.64c-4.71-.4-10.82-1.41-10.82-1.41,0,14.64,6.11,22.76,13.23,25.77,12.33,5.21,44.81-3.71,69.16-4.92,22.36-1.2,31.58-18.84,33.79-25.16,1.8-5.31,2.4-9.82,2-13.63-7.52,2.31-17.94,8.22-26.36,9.72C780.79,569.92,753,578.24,721.34,575.64Z" transform="translate(-38.41 -15)"/><path class="cls-27" d="M683.55,35.05l6-4.71A31,31,0,0,0,683.55,35.05Z" transform="translate(-38.41 -15)"/><path class="cls-27" d="M679.44,33.15c6.12-5.92,12.73-9,20.85-11.53a99.3,99.3,0,0,1,26.06-4c8.32-.1,14.14,2,21.86,5,7.52,3,10.72,5.31,17.24,10.33,6.31,4.81,13.23,13.53,15.54,20.95,2.8,8.92,4.11,17.54,5.51,26.76,2.81,18.64,2.51,35.48,2.51,54.23,0,7.42,2,16.44,4.11,26.06l.8.4a202.65,202.65,0,0,1-2.31-26.76c0-18.85-.4-37.69-3.21-56.34C787,69,784.69,61,781.89,52c-2.31-7.42-7.82-16-14.14-20.85a73.89,73.89,0,0,0-19.34-10.62c-7.72-3-15.64-5.62-24-5.52-8,.1-16.64,2.71-24.36,5.11-8,2.51-15.94,6.22-22.05,12.13-7.32,7.12-12,17-15.44,27.17l.4-.5C666.71,49.18,672.22,40.06,679.44,33.15Z" transform="translate(-38.41 -15)"/></svg>