<svg id="Layer_1" data-name="Layer 1" xmlns="http://www.w3.org/2000/svg" viewBox="0 0 954.9 598.57"><defs><style>.cls-1{fill:#d6e6ec;}.cls-2,.cls-6{fill:#35296f;}.cls-13,.cls-2,.cls-23{opacity:0.3;}.cls-13,.cls-15,.cls-16,.cls-19,.cls-2,.cls-20,.cls-21,.cls-22,.cls-23,.cls-8,.cls-9{isolation:isolate;}.cls-16,.cls-24,.cls-3{fill:#fff;}.cls-3{stroke:#3482a1;}.cls-20,.cls-25,.cls-3,.cls-5{stroke-miterlimit:10;}.cls-3,.cls-5{stroke-width:11px;}.cls-4,.cls-8{fill:#323071;}.cls-25,.cls-5{fill:none;}.cls-5{stroke:#aad0e0;}.cls-7{fill:#f894a4;}.cls-15,.cls-8{opacity:0.5;}.cls-13,.cls-15,.cls-18,.cls-19,.cls-20,.cls-9{fill:#23146b;}.cls-16,.cls-20,.cls-9{opacity:0.1;}.cls-10{fill:#99cee4;}.cls-11{fill:#d2fad6;}.cls-12{fill:#b5deef;}.cls-14{fill:#3482a1;}.cls-17{fill:#503ea7;}.cls-19{opacity:0.2;}.cls-20,.cls-25{stroke:#fff;}.cls-21{fill:#fcd4db;opacity:0.05;}.cls-22{fill:#2f7b93;opacity:0.8;}.cls-26{fill:#2f768c;}</style></defs><title>Step1</title><path class="cls-1" d="M469,549.2c-14.6.9-91.2,31.3-41.8,41C479,600.3,498,627.2,545,637s56.1-5.6,125.1-5.2,50.5,9.4,90.5,3.9c18.6-2.6,109-9,158.4-24.7,56.8-18,70-45.6,32-49.8-71-7.9-147-5.1-241-10S552.3,544,469,549.2Z" transform="translate(-47.5 -41.7)"/><path class="cls-2" d="M573.9,610.3c-6.9,0-14.6-4.1-23.2-5.9-18.4-3.8-31.9-5.5-47.3-13.8-6-3.2-18.5-6.8-18.5-12.1s51.2-2.1,77.4-2.1c43.2,0,86.3,1.8,146.1,4.9,38.6,2,73.5,2.7,107.2,3.4,27.7.6,77.7-2.2,77.7,2.3s-89.7,14.1-116.8,16.9c-9.2.9-15.9,1.6-20.1,2.2a130.83,130.83,0,0,1-16.2,1.5h0c-2.9,0-4.5-.3-9.2-1.1-9.7-1.7-24.3-4.4-60.9-4.6h-2.6a380.76,380.76,0,0,0-67.6,5.7C590.1,609,582.2,610.3,573.9,610.3Z" transform="translate(-47.5 -41.7)"/><path class="cls-2" d="M710.9,617.5s.8,7.4,7.2,9.5,31.4,5.4,47.2,4,53.1-7.3,60.5-9.3,11.4-6.7,10.1-10c-2.5-6.1-23.4-12-23.4-12Z" transform="translate(-47.5 -41.7)"/><path class="cls-2" d="M525,599.7s-16.8-.1-11.4,5.3,11.7,19,24.8,22,37.6,6.6,57.6,4.4,31.4-1.5,49.2-5.8,29.5-3.2,23.2-8.7-99.3-10.4-108.8-14.1S525,599.7,525,599.7Z" transform="translate(-47.5 -41.7)"/><path class="cls-3" d="M62.8,64.7H987.1a9.82,9.82,0,0,1,9.8,9.8V493.7a9.82,9.82,0,0,1-9.8,9.8H62.8a9.82,9.82,0,0,1-9.8-9.8V74.5A9.88,9.88,0,0,1,62.8,64.7Z" transform="translate(-47.5 -41.7)"/><path class="cls-4" d="M253.4,157.9c7.6.6,15.2.8,22.8.8s15.2-.2,22.8-.6c3.8-.2,7.6-.5,11.4-1s7.6-1.1,11.4-1.8a111.2,111.2,0,0,1,11.4-1.5,108.57,108.57,0,0,1,11.4-.4,87.73,87.73,0,0,1,11.4,1c3.8.6,7.6,1.5,11.4,2.3a113.41,113.41,0,0,0,11.4,2,87,87,0,0,0,11.4.5c3.8-.1,7.6-.4,11.4-.8s7.6-1.1,11.4-1.7a113,113,0,0,1,45.6.6c3.8.7,7.6,1.5,11.4,2a109.89,109.89,0,0,0,11.4,1.1,72.39,72.39,0,0,0,11.4-.3,90.36,90.36,0,0,0,11.4-1.9,113.41,113.41,0,0,1,11.4-2,72.52,72.52,0,0,1,11.4-.5c15.2.2,30.3,5.1,45.5,5.9,7.6.5,15.2,1,22.8,1.1s15.2.2,22.8-.2l-.1,6.8c-7.6-.6-15.2-.8-22.8-.8s-15.2.2-22.8.5c-15.2.4-30.5,4.9-45.7,4.7a62.47,62.47,0,0,1-11.4-.8,115,115,0,0,1-11.4-2.3c-3.8-.9-7.6-1.6-11.4-2.2a72.52,72.52,0,0,0-11.4-.5c-3.8.1-7.6.4-11.4.8s-7.6,1.1-11.4,1.7a113,113,0,0,1-45.6-.6c-3.8-.7-7.6-1.5-11.4-2a109.89,109.89,0,0,0-11.4-1.1,86.77,86.77,0,0,0-11.4.2,112,112,0,0,0-11.4,1.7c-3.8.7-7.6,1.5-11.4,2a87.22,87.22,0,0,1-11.4.7,109,109,0,0,1-11.4-.7c-3.8-.4-7.6-1.1-11.4-1.8s-7.6-1.4-11.4-2-7.6-1-11.4-1.3c-7.6-.6-15.2-1-22.8-1.1s-15.2-.2-22.8.2Z" transform="translate(-47.5 -41.7)"/><path class="cls-4" d="M253.4,280.7c7.6.6,15.2.8,22.8.8s15.2-.2,22.8-.6c3.8-.2,7.6-.5,11.4-1s7.6-1.1,11.4-1.8a111.2,111.2,0,0,1,11.4-1.5,108.57,108.57,0,0,1,11.4-.4,87.73,87.73,0,0,1,11.4,1c3.8.6,7.6,1.5,11.4,2.3a113.41,113.41,0,0,0,11.4,2,87,87,0,0,0,11.4.5c3.8-.1,7.6-.4,11.4-.8s7.6-1.1,11.4-1.7a113,113,0,0,1,45.6.6c3.8.7,7.6,1.5,11.4,2a109.89,109.89,0,0,0,11.4,1.1,72.39,72.39,0,0,0,11.4-.3,90.36,90.36,0,0,0,11.4-1.9,113.41,113.41,0,0,1,11.4-2,72.52,72.52,0,0,1,11.4-.5c15.2.1,30.3,5.1,45.5,5.9,7.6.5,15.2,1,22.8,1.1s15.2.2,22.8-.2L618,292c-7.6-.6-15.2-.8-22.8-.8s-15.2.2-22.8.5c-15.2.4-30.5,4.9-45.7,4.7a62.47,62.47,0,0,1-11.4-.8,115,115,0,0,1-11.4-2.3c-3.8-.9-7.6-1.6-11.4-2.2a72.52,72.52,0,0,0-11.4-.5c-3.8.1-7.6.4-11.4.8s-7.6,1.1-11.4,1.7a113,113,0,0,1-45.6-.6c-3.8-.7-7.6-1.5-11.4-2a109.89,109.89,0,0,0-11.4-1.1,86.77,86.77,0,0,0-11.4.2,112,112,0,0,0-11.4,1.7c-3.8.7-7.6,1.5-11.4,2a87.22,87.22,0,0,1-11.4.7,109,109,0,0,1-11.4-.7c-3.8-.4-7.6-1.1-11.4-1.8s-7.6-1.4-11.4-2-7.6-1-11.4-1.3c-7.6-.5-15.2-1-22.8-1.1s-15.2-.2-22.8.2Z" transform="translate(-47.5 -41.7)"/><path class="cls-4" d="M253.4,403.5c7.6.6,15.2.8,22.8.8s15.2-.2,22.8-.6c3.8-.2,7.6-.5,11.4-1s7.6-1.1,11.4-1.8a111.2,111.2,0,0,1,11.4-1.5,108.57,108.57,0,0,1,11.4-.4,87.73,87.73,0,0,1,11.4,1c3.8.6,7.6,1.5,11.4,2.3a113.41,113.41,0,0,0,11.4,2,87,87,0,0,0,11.4.5c3.8-.1,7.6-.4,11.4-.8s7.6-1.1,11.4-1.7a113,113,0,0,1,45.6.6c3.8.7,7.6,1.5,11.4,2a109.89,109.89,0,0,0,11.4,1.1,86.77,86.77,0,0,0,11.4-.2,112.45,112.45,0,0,0,11.4-1.8,113.41,113.41,0,0,1,11.4-2,72.52,72.52,0,0,1,11.4-.5c15.2.1,30.3,5.1,45.5,5.9,7.6.5,15.2,1,22.8,1.1s15.2.2,22.8-.2L618,415c-7.6-.6-15.2-.8-22.8-.8s-15.2.2-22.8.5c-15.2.4-30.5,4.9-45.7,4.7a62.47,62.47,0,0,1-11.4-.8,115,115,0,0,1-11.4-2.3c-3.8-.9-7.6-1.6-11.4-2.2a72.52,72.52,0,0,0-11.4-.5c-3.8.1-7.6.4-11.4.8s-7.6,1.1-11.4,1.7a113,113,0,0,1-45.6-.6c-3.8-.7-7.6-1.5-11.4-2a109.89,109.89,0,0,0-11.4-1.1,86.77,86.77,0,0,0-11.4.2,112,112,0,0,0-11.4,1.7c-3.8.7-7.6,1.5-11.4,2a87.22,87.22,0,0,1-11.4.7,109,109,0,0,1-11.4-.7c-3.8-.4-7.6-1.1-11.4-1.8s-7.6-1.4-11.4-2-7.6-1-11.4-1.3c-7.6-.5-15.2-1-22.8-1.1s-15.2-.2-22.8.2Z" transform="translate(-47.5 -41.7)"/><path class="cls-5" d="M127.4,127.8h60.1a8,8,0,0,1,8,8v60.1a8,8,0,0,1-8,8H127.4a8,8,0,0,1-8-8V135.8A8,8,0,0,1,127.4,127.8Z" transform="translate(-47.5 -41.7)"/><path class="cls-5" d="M127.4,364.1h60.1a8,8,0,0,1,8,8v60.1a8,8,0,0,1-8,8H127.4a8,8,0,0,1-8-8V372.1a8.09,8.09,0,0,1,8-8Z" transform="translate(-47.5 -41.7)"/><path class="cls-5" d="M127.4,246h60.1a8,8,0,0,1,8,8v60.1a8,8,0,0,1-8,8H127.4a8,8,0,0,1-8-8V254A8,8,0,0,1,127.4,246Z" transform="translate(-47.5 -41.7)"/><path class="cls-6" d="M590.7,459.7v12.5s-1.8,4.7,6.2,12.2,8.8,2.8,16.8,11.3c5.9,6.5,3.1,15.6,8.2,22.7l11.5,15.8,59.8,36,52-41,49-46.5,11.5-20Z" transform="translate(-47.5 -41.7)"/><path class="cls-7" d="M550,440.3c-11.8-6.3-44.4-42-78.4-38s-40,11-41,24-7,29,0,43,67,64,67,64l36.1,32.4s12-11.2,29-3.2c10.1,4.7,21.5,4.1,30.7,10.5l34.2-52.2s-8.7-17.5-13.9-25C598.8,474.4,580.9,456.9,550,440.3Z" transform="translate(-47.5 -41.7)"/><polygon class="cls-8" points="551.8 435.9 586.9 470.5 578.1 481.8 614.7 528.6 701.7 509.5 769.3 439.6 807.5 398.6 544.2 407.8 551.8 435.9"/><path class="cls-7" d="M731.2,520.7l74.5-58,45-47s32-24.5,52-7.5,33.6,40.4,33,53.3c-.7,14.4-12,43.8-33,63.8-23.2,22.1-72.7,50.5-72.7,50.5s-12.1-17.5-30.1-10.5-34.7,12.4-34.7,12.4Z" transform="translate(-47.5 -41.7)"/><path class="cls-9" d="M550,430.3s102.5,24.4,170,21.2,98.3-28.2,98.3-28.2l3.3-2.5,24.1-7.8a37.1,37.1,0,0,1,9.7-2l-.3,1.7c1-.6,1.8-1.1,2.6-1.6,6.6.2,12.8,3.2,9.4,15.2-3.5,12.3,5.3,7.2-18,35-18.9,22.5-71.1,58.3-92,70.5-24.4,14.2-37.5,26.9-63.8,28.5s-78-35.2-107.4-56.2-71.2-37.3-71.7-47.2-4.7-23.5,10.9-26.6a80.52,80.52,0,0,1,9.8-1.3l5.4,4.3-.2-4.4A38.15,38.15,0,0,1,550,430.3Z" transform="translate(-47.5 -41.7)"/><path class="cls-10" d="M677,201.4c-6.3-1.1-23.4,1.5-29.3,3.1-13,3.6-26.7,5.8-39.2,11.5-4.1,1.9-8.2,4.2-11.3,7.5-5.5,5.8-7.5,16.8-10.4,24.3q-3.45,8.7-6.6,17.4L780,296.5l39.2,152.2s19.8-14.5,31.5-33c8.5-13.5,10.5-95.5,8-120.5-1.3-12.7-.6-28-10.2-37.6-13.5-13.5-36.5-32-55.8-35.2-16.6-2.8-26.9-4.4-43.6-7.2C721.9,210.6,704.1,205.9,677,201.4Z" transform="translate(-47.5 -41.7)"/><path class="cls-11" d="M677,214.4c-6.3-1.1-23.4,1.5-29.3,3.1-13,3.6-26.7,5.8-39.2,11.5-4.1,1.9-8.2,4.2-11.3,7.5-5.5,5.8-7.5,16.8-10.4,24.3q-3.45,8.7-6.6,17.4L780,309.5l39.2,152.2s19.8-14.5,31.5-33c1.9-3,3.4-9.3,4.7-17.5,4.5-29.3,5.3-83.5,3.3-103-1.3-12.7-.6-28-10.2-37.6-13.5-13.5-36.5-32-55.8-35.2-16.6-2.8-26.9-4.4-43.6-7.2C721.9,223.6,704.1,218.9,677,214.4Z" transform="translate(-47.5 -41.7)"/><polygon class="cls-6" points="642.1 138.3 642.1 223.5 725.2 223.5 723.2 143 712 119.5 642.1 138.3"/><path class="cls-12" d="M710,201.9s.5,4.6,1.6,13.2c.8,6.7,1.3,13.9,3.4,20.4,1.9,5.7,6.6,14.5,14,12.6,4-1,6.8-5.7,8.9-9A88.3,88.3,0,0,0,749,214.2c2.5-9.4,2.9-19.1,3.4-28.8.1-2.3.3-4.7.4-7C738.5,186.9,724.3,193.4,710,201.9Z" transform="translate(-47.5 -41.7)"/><path class="cls-13" d="M702.5,196.5s18.2,19.3,28.7,17.7,34-31.4,34-31.4l7.5-18.3-9.4-8.6Z" transform="translate(-47.5 -41.7)"/><polygon class="cls-12" points="665 14.8 686.2 14.8 681.5 40.6 662.5 43.1 665 14.8"/><path class="cls-14" d="M721.9,56.5v24s22,5,29,22,6,34,4.8,48c-1,11.1,6.5,33,3.9,61s-6.6,54-6.6,54l65.1,3.8S799,195.5,799,161c0-18.8-.4-37.6-3.2-56.2-1.4-9.2-3.7-17.2-6.5-26.2-2.3-7.4-7.8-16-14.1-20.8a74,74,0,0,0-19.3-10.6c-7.7-3-15.6-5.6-23.9-5.5-8,.1-16.6,2.7-24.3,5.1-8,2.5-15.9,6.2-22,12.1C675.1,69.2,670,85.2,666.6,99.2a151.48,151.48,0,0,0-3.7,49.3c4,44,8,76,8,93s-3,24-3,24h31s-5.9-104.9-6.4-114.1-7.6-21.4-3.4-32.9,2.3-21.5,12.5-28.8,17-9,17-9l-.3-24.3h3.6Z" transform="translate(-47.5 -41.7)"/><path class="cls-15" d="M752.3,121.3c.7,7-.2,19.5,0,23s1,21.8,2.7,29.4c.6,2.7,1.7,7.6,1.7,7.6l3.3,19.8s-1-45.5-.5-50.8c1.2-14,2.2-31-4.8-48s-28.3-21.6-28.3-21.6,3.6,6.6,14.1,17.1S751.6,114.3,752.3,121.3Z" transform="translate(-47.5 -41.7)"/><path class="cls-16" d="M678,259.2c2-29,1.4-57.1-5.3-82.9,0,0,14.3,25.9,15.3,46.4a386.74,386.74,0,0,0,5,42.7Z" transform="translate(-47.5 -41.7)"/><path class="cls-16" d="M760.6,260.5s4.4-51.2,4.9-68.2,4.5-2.6,5.8,15.2-.4,26.8,1.4,40.4,13.3-24.2,9.3-40.4-8-31.7-1.5-31.2,13,51,15,63.5S800,268.2,801,275,760.6,260.5,760.6,260.5Z" transform="translate(-47.5 -41.7)"/><path class="cls-17" d="M625.6,523.5s58.6,37.7,66.6,41.2,34.3,13,34.3,13-7.3,31.4,4.7,44.9-54.5-23.9-87.5-34.4-53-19-53-19S593.6,551.5,625.6,523.5Z" transform="translate(-47.5 -41.7)"/><path class="cls-17" d="M683.8,556.1l47.4-35.4,34,57c-5.4,2.7-22.2,3-28.3,3.4-10.5.8,18,1.6,1.3-3.4S706.3,572.1,683.8,556.1Z" transform="translate(-47.5 -41.7)"/><path class="cls-17" d="M683.5,556.4l47.7-35.7,32.1,53.8a26.54,26.54,0,0,1-9.1,3.1c-10.5.8-11.4,1.5-15.9.1C721.5,572.8,706,572.4,683.5,556.4Z" transform="translate(-47.5 -41.7)"/><path class="cls-18" d="M683.9,556l-38.7,31.7s12.7,4.2,10.7,12.7a73.83,73.83,0,0,1-6.2,16.4l99.5-36.2Z" transform="translate(-47.5 -41.7)"/><path class="cls-11" d="M551.6,557.9c-10.4,0-25.1,7.7-25.9,28.3-.8,20,7.5,29,20,33.9,30.2,11.8,97.3-1.9,104-3.4s14.5-23.3-1.1-26.8c-7.1-1.6-56.7-20.2-56.7-20.2S562,557.9,551.6,557.9Z" transform="translate(-47.5 -41.7)"/><path class="cls-11" d="M551.6,557.9c-10.4,0-25.1,7.7-25.9,28.3-.8,20,7.5,29,20,33.9,30.2,11.8,97.3-1.9,104-3.4s14.5-23.3-1.1-26.8c-7.1-1.6-56.7-20.2-56.7-20.2S562,557.9,551.6,557.9Z" transform="translate(-47.5 -41.7)"/><path class="cls-17" d="M627.6,520.8s56.6,40.4,64.6,43.9S729.6,579,729.6,579s-10.4,30.1,1.6,43.6-54.5-23.9-87.5-34.4-53-19-53-19S595.6,548.8,627.6,520.8Z" transform="translate(-47.5 -41.7)"/><path class="cls-11" d="M728.8,578.9c-11.7-1.8-17.7,37.9,2.4,46.4,12.3,5.2,44.7-3.7,69-4.9,22.3-1.2,31.5-18.8,33.7-25.1,9.7-28.6-16.6-33.7-24.3-34.1C787.7,560.4,760.4,583.7,728.8,578.9Z" transform="translate(-47.5 -41.7)"/><path class="cls-17" d="M561.4,265.3c81.4-10.8,160.6-9.8,251.5,0,9.7,1.8,17.5,10.4,24.2,27s4.5,160.3-7,174.5c-14.4,17.7-279.3,10.8-286,0-5.4-8.8-8.5-154.7-2.3-177.9C546.3,277.6,552.6,267,561.4,265.3Z" transform="translate(-47.5 -41.7)"/><path class="cls-19" d="M826.4,292.9s12.3,82.5-5.1,158.5c0,0-20.3,9.1-70.6,8.3C750.7,459.7,841.9,471.4,826.4,292.9Z" transform="translate(-47.5 -41.7)"/><path class="cls-19" d="M551.9,292.9s-12.3,82.5,5.1,158.5c0,0,20.3,9.1,70.6,8.3C627.6,459.7,536.4,471.4,551.9,292.9Z" transform="translate(-47.5 -41.7)"/><circle class="cls-20" cx="642.1" cy="300.6" r="21.3"/><path class="cls-12" d="M755.3,171.5c2.1-9.7,1.6-18.1,1.8-24.7.5-14,.5-27.5-6.5-44.5s-28.3-21.5-28.3-21.5l-2.5-.3c-1.1-.1-3,.9-3.9,1.3-2.3.9-4.5,2-6.7,3.1-4.5,2.3-9,5.1-12.1,9.2-3.4,4.5-4.8,10.2-6.2,15.7-2.5,10-4.9,20-5.9,30.2-.9,9.5-.5,19.4,2.5,28.5,2.5,7.5,6.1,15.8,11,22.1s9.3,11.6,11.5,13.3c4.2,3.5,16.2,5.4,22.2,1.4s14.4-16.4,19.5-24.3A84.09,84.09,0,0,0,755.3,171.5Z" transform="translate(-47.5 -41.7)"/><path class="cls-12" d="M720,84.8s14,6.9,16.5,13,9.5,12.5,11,31.5" transform="translate(-47.5 -41.7)"/><path class="cls-21" d="M902.7,408.2a24.64,24.64,0,0,0-12.6-5.7c4.4,8.7,6.5,22.5-2.5,43.1-18,41.3-64.7,59.7-46.8,69.3,6,3.3,26-5.9,53-19.3,18.7-9.3,29.6-14.2,39.3-24.6.9-3.7,1.7-6.9,2.5-9.6C939.7,447.7,922.7,425.2,902.7,408.2Z" transform="translate(-47.5 -41.7)"/><path class="cls-22" d="M777,100.1c4.1,20.6,7.7,74.5,19.4,101,2.8,6.3,5,5.7,6.9.6-2.5-14.9-7-29.4-7-40.5,0-18.8.3-35.6-2.5-54.1-1.4-9.2-2.7-17.8-5.5-26.7-2.3-7.4-9.2-16.1-15.5-20.9-6.5-4.9-9.7-7.3-17.2-10.3-7.7-3-13.4-5.1-21.8-5a99.91,99.91,0,0,0-26,4c-8,2.5-14.6,5.6-20.8,11.5-9,8.8-15.4,20.8-18.8,33.2,3.9-5.1,20.2-35.5,34.3-38.2C718.6,51.7,764.7,38.2,777,100.1Z" transform="translate(-47.5 -41.7)"/><g class="cls-23"><path class="cls-24" d="M759.5,54.3c.8-.5,1.2-.4,1.5-.1a6.73,6.73,0,0,1,1.1.7c.7.4,1.3,1,2,1.5s1.2,1.1,1.9,1.5l1.8,1.6a41.21,41.21,0,0,1,6.2,7.6,36.23,36.23,0,0,1,2.4,4.3c.6,1.5,1.4,3,1.9,4.5a44.88,44.88,0,0,1,2.1,9.5l-1,.1a51.28,51.28,0,0,0-2.8-8.9,31.07,31.07,0,0,0-2-4.1c-.8-1.3-1.6-2.7-2.5-3.9a50.34,50.34,0,0,0-6-7l-1.7-1.5c-.6-.4-1.1-1-1.8-1.4a20.28,20.28,0,0,0-1.8-1.3,6.07,6.07,0,0,1-1-.7c-.3-.2-.6-.4-.5-1.4Z" transform="translate(-47.5 -41.7)"/></g><path class="cls-25" d="M741.3,590s5.3,10.3,3.3,21.3" transform="translate(-47.5 -41.7)"/><path class="cls-25" d="M752.6,589s5.3,10.3,3.3,21.3" transform="translate(-47.5 -41.7)"/><path class="cls-25" d="M763.3,586.4s5.3,10.3,3.3,21.3" transform="translate(-47.5 -41.7)"/><path class="cls-25" d="M774.1,583.8s5.3,10.3,3.3,21.3" transform="translate(-47.5 -41.7)"/><path class="cls-9" d="M657.6,599.8a.9.9,0,0,0-.1-.5h0c-23.7,1.7-68.5,7.7-86.1,5.6s-45.8-18.7-45.8-18.7v.3c-.7,19.8,7.6,28.8,20,33.6,30.2,11.8,97.3-1.9,104-3.4C653.8,615.8,658.4,607.1,657.6,599.8Z" transform="translate(-47.5 -41.7)"/><path class="cls-25" d="M619.7,590.5a30.77,30.77,0,0,0,1,19.3" transform="translate(-47.5 -41.7)"/><path class="cls-25" d="M608.8,589.3s-3.3,11.2.7,21.6" transform="translate(-47.5 -41.7)"/><path class="cls-25" d="M597.7,588.8s-3.3,12.4.7,22.8" transform="translate(-47.5 -41.7)"/><path class="cls-25" d="M586.7,588.3s-3.3,13.8.7,24.2" transform="translate(-47.5 -41.7)"/><path class="cls-9" d="M728.8,601c-4.7-.4-10.8-1.4-10.8-1.4,0,14.6,6.1,22.7,13.2,25.7,12.3,5.2,44.7-3.7,69-4.9,22.3-1.2,31.5-18.8,33.7-25.1,1.8-5.3,2.4-9.8,2-13.6-7.5,2.3-17.9,8.2-26.3,9.7C788.1,595.3,760.4,603.6,728.8,601Z" transform="translate(-47.5 -41.7)"/><path class="cls-26" d="M691.1,61.7l6-4.7A30.79,30.79,0,0,0,691.1,61.7Z" transform="translate(-47.5 -41.7)"/><path class="cls-26" d="M687,59.8c6.1-5.9,12.7-9,20.8-11.5a99.26,99.26,0,0,1,26-4c8.3-.1,14.1,2,21.8,5,7.5,3,10.7,5.3,17.2,10.3,6.3,4.8,13.2,13.5,15.5,20.9,2.8,8.9,4.1,17.5,5.5,26.7,2.8,18.6,2.5,35.4,2.5,54.1,0,7.4,2,16.4,4.1,26l.8.4a203.36,203.36,0,0,1-2.3-26.7c0-18.8-.4-37.6-3.2-56.2-1.4-9.2-3.7-17.2-6.5-26.2-2.3-7.4-7.8-16-14.1-20.8a74,74,0,0,0-19.3-10.6c-7.7-3-15.6-5.6-23.9-5.5-8,.1-16.6,2.7-24.3,5.1-8,2.5-15.9,6.2-22,12.1-7.3,7.1-12,17-15.4,27.1l.4-.5C674.3,75.8,679.8,66.7,687,59.8Z" transform="translate(-47.5 -41.7)"/></svg>