<?xml version="1.0" encoding="utf-8"?>
<!-- Generator: Adobe Illustrator 22.1.0, SVG Export Plug-In . SVG Version: 6.00 Build 0)  -->
<svg version="1.1" id="Layer_1" xmlns="http://www.w3.org/2000/svg" xmlns:xlink="http://www.w3.org/1999/xlink" x="0px" y="0px"
	 viewBox="0 0 1049.9 679.5" style="enable-background:new 0 0 1049.9 679.5;" xml:space="preserve">
<style type="text/css">
	.st0{fill:#FFFFFF;}
	.st1{fill:#23576B;}
	.st2{fill:#85B4C7;}
	.st3{fill:#FCD4DB;}
	.st4{fill:#503EA7;}
	.st5{fill:#B5DEEF;}
	.st6{fill:#323071;}
	.st7{fill:#8875E5;}
	.st8{fill:#F9A9B6;}
	.st9{fill:none;stroke:#FFFFFF;stroke-miterlimit:10;}
	.st10{fill:#35296F;}
	.st11{fill:#45ADD6;}
	.st12{fill:#F9F8FE;stroke:#000000;stroke-width:0.5;stroke-miterlimit:10;}
	.st13{fill:#6FDCCA;}
	.st14{fill:none;stroke:#FFFFFF;stroke-width:3;stroke-miterlimit:10;}
	.st15{fill:#D2FAD6;}
	.st16{fill:#F8B0BC;}
	.st17{fill:#AAD0E0;}
	.st18{fill:none;stroke:#FFFFFF;stroke-width:4;stroke-miterlimit:10;}
	.st19{fill:#00FF00;stroke:#FFFFFF;stroke-width:4;stroke-miterlimit:10;}
</style>
<g>
	<title>Artboard 1</title>
	<polygon class="st0" points="91,280.7 172.6,280.7 171.8,55 514.6,55 542.4,91.2 958.9,91.2 958.9,597.1 91,597.1 	"/>
	<g>
		<path class="st1" d="M499.7,91.2v77.5H297v112.1H91v316.4h867.8V91.2H499.7z M765.9,114.3h169.9v290H765.9V114.3z M311,574.1
			H114.1V303.8H311V574.1z M433.8,574.1H320.1V422.4h97.2l16.5,23.1V574.1z M756.8,574.1H443.7V442.3l-1.8-2.6l-16.3-23.1l-2.9-4.1
			H320.1V191.7h202.7v-77.5H756v332.1H551.6V307.9h-9.9v148.3h215.1V574.1z M936.4,574.1H765.9V412.6h170.6V574.1z"/>
		<path class="st2" d="M519.5,280.7 M506.3,71.4l16.3,19.8l19.8,0L514.6,55l0,0H171.8l0.8,225.7h16.5l-0.8-209.2H506.3"/>
	</g>
	<g id="Kitchen">
		<circle class="st3" cx="646.7" cy="212" r="37.1"/>
		<path class="st4" d="M670.1,256.6l21-23.2c0.4-0.5,1.2-0.5,1.7-0.1l18.5,16.8c0.5,0.4,0.5,1.2,0.1,1.7l-21,23.2
			c-0.4,0.5-1.2,0.5-1.7,0.1l-18.5-16.8C669.7,257.8,669.6,257.1,670.1,256.6z"/>
		<path class="st5" d="M685.4,270.4l21-23.2c0.4-0.5,1.2-0.5,1.7-0.1l3.3,2.9c0.5,0.4,0.5,1.2,0.1,1.7l-21,23.2
			c-0.4,0.5-1.2,0.5-1.7,0.1l-3.3-2.9C685,271.7,684.9,270.9,685.4,270.4z"/>
		<path class="st4" d="M622.5,175.4l-20.3,23.8c-0.4,0.5-1.2,0.6-1.7,0.1l-19-16.2c-0.5-0.4-0.6-1.2-0.1-1.7l20.3-23.8
			c0.4-0.5,1.2-0.6,1.7-0.1l19,16.2C622.9,174.2,622.9,174.9,622.5,175.4z"/>
		<path class="st5" d="M606.8,162.1l-20.3,23.8c-0.4,0.5-1.2,0.6-1.7,0.1l-3.3-2.8c-0.5-0.4-0.6-1.2-0.1-1.7l20.3-23.8
			c0.4-0.5,1.2-0.6,1.7-0.1l3.3,2.8C607.2,160.8,607.2,161.6,606.8,162.1z"/>
		<path class="st4" d="M690,196.8l-19.8-24.2c-0.4-0.5-0.3-1.3,0.2-1.7l19.3-15.8c0.5-0.4,1.3-0.3,1.7,0.2l19.8,24.2
			c0.4,0.5,0.3,1.3-0.2,1.7l-19.3,15.8C691.2,197.4,690.4,197.3,690,196.8z"/>
		<path class="st5" d="M706,183.7l-19.8-24.2c-0.4-0.5-0.3-1.3,0.2-1.7l3.4-2.8c0.5-0.4,1.3-0.3,1.7,0.2l19.8,24.2
			c0.4,0.5,0.3,1.3-0.2,1.7l-3.4,2.8C707.1,184.3,706.4,184.2,706,183.7z"/>
		<path class="st4" d="M604.4,230.5l22.2,22.1c0.5,0.5,0.5,1.2,0,1.7L608.9,272c-0.5,0.5-1.2,0.5-1.7,0L585,249.9
			c-0.5-0.5-0.5-1.2,0-1.7l17.6-17.7C603.1,230.1,603.9,230.1,604.4,230.5z"/>
		<path class="st5" d="M589.8,245.1l22.2,22.1c0.5,0.5,0.5,1.2,0,1.7l-3.1,3.1c-0.5,0.5-1.2,0.5-1.7,0L585,249.9
			c-0.5-0.5-0.5-1.2,0-1.7l3.1-3.1C588.6,244.7,589.3,244.7,589.8,245.1z"/>
		<rect x="551.6" y="307.9" class="st6" width="36.3" height="138.4"/>
		<rect x="551.6" y="416.7" class="st6" width="69.2" height="29.7"/>
		<rect x="556.9" y="316.1" class="st0" width="26" height="29.7"/>
		<rect x="714.8" y="337.6" class="st7" width="41.2" height="108.8"/>
		<rect x="584.1" y="420.5" class="st8" width="32.9" height="4.1"/>
		<circle class="st0" cx="570.2" cy="394" r="12.7"/>
	</g>
	<g id="Bathroom">
		<rect x="402.1" y="448" class="st7" width="31.7" height="31.7"/>
		<path class="st6" d="M388.5,422.4v9.1c0,4.1-6.5,7.3-14.4,7.3s-14.4-3.3-14.4-7.3v-9.1H388.5z"/>
		<circle class="st9" cx="374.5" cy="428.9" r="2.8"/>
		<path class="st10" d="M346.8,433.2v12.1c0,3.4-4.1,6.2-9.1,6.2c-5,0-9.1-2.8-9.1-6.2v-12.1H346.8z"/>
		<path class="st11" d="M347,433.2h-17.7c-1.6,0-2.8-1.3-2.8-2.8v-7.9h23.4v7.9C349.8,431.9,348.6,433.2,347,433.2z"/>
		<path class="st6" d="M422.9,569.9H331c-4.6,0-8.2-3.7-8.2-8.2V544c0-4.6,3.7-8.2,8.2-8.2h91.9c4.6,0,8.2,3.7,8.2,8.2v17.7
			C431.1,566.2,427.5,569.9,422.9,569.9z"/>
		<circle class="st12" cx="419.2" cy="552.8" r="3.2"/>
		<path class="st13" d="M433.8,527.3c-23,0-41.6-18.4-41.6-41.1h41.6L433.8,527.3z"/>
	</g>
	<g id="BedroomLeft">
		<rect x="114.1" y="533.3" class="st5" width="196.9" height="40.8"/>
		<g>
			<line class="st14" x1="122.9" y1="540.7" x2="122.9" y2="567.9"/>
			<line class="st14" x1="125.5" y1="540.7" x2="128.7" y2="567.9"/>
			<line class="st14" x1="135.3" y1="540.7" x2="132.1" y2="567.9"/>
			<line class="st14" x1="141.5" y1="540.7" x2="141.5" y2="567.9"/>
			<line class="st14" x1="144" y1="540.7" x2="147.2" y2="567.9"/>
			<line class="st14" x1="153.8" y1="540.7" x2="150.6" y2="567.9"/>
			<line class="st14" x1="160" y1="540.7" x2="160" y2="567.9"/>
			<line class="st14" x1="162.6" y1="540.7" x2="165.8" y2="567.9"/>
			<line class="st14" x1="172.4" y1="540.7" x2="169.2" y2="567.9"/>
			<line class="st14" x1="178.6" y1="540.7" x2="178.6" y2="567.9"/>
			<line class="st14" x1="181.1" y1="540.7" x2="184.3" y2="567.9"/>
			<line class="st14" x1="190.9" y1="540.7" x2="187.7" y2="567.9"/>
			<line class="st14" x1="197.1" y1="540.7" x2="197.1" y2="567.9"/>
			<line class="st14" x1="199.7" y1="540.7" x2="202.9" y2="567.9"/>
			<line class="st14" x1="209.5" y1="540.7" x2="206.3" y2="567.9"/>
			<line class="st14" x1="215.7" y1="540.7" x2="215.7" y2="567.9"/>
			<line class="st14" x1="218.3" y1="540.7" x2="221.4" y2="567.9"/>
			<line class="st14" x1="228" y1="540.7" x2="224.8" y2="567.9"/>
			<line class="st14" x1="234.2" y1="540.7" x2="234.2" y2="567.9"/>
			<line class="st14" x1="236.8" y1="540.7" x2="240" y2="567.9"/>
			<line class="st14" x1="246.6" y1="540.7" x2="243.4" y2="567.9"/>
			<line class="st14" x1="252.8" y1="540.7" x2="252.8" y2="567.9"/>
			<line class="st14" x1="255.4" y1="540.7" x2="258.6" y2="567.9"/>
			<line class="st14" x1="265.1" y1="540.7" x2="262" y2="567.9"/>
			<line class="st14" x1="271.3" y1="540.7" x2="271.3" y2="567.9"/>
			<line class="st14" x1="273.9" y1="540.7" x2="277.1" y2="567.9"/>
			<line class="st14" x1="283.7" y1="540.7" x2="280.5" y2="567.9"/>
			<line class="st14" x1="289.9" y1="540.7" x2="289.9" y2="567.9"/>
			<line class="st14" x1="292.5" y1="540.7" x2="295.7" y2="567.9"/>
			<line class="st14" x1="302.3" y1="540.7" x2="299.1" y2="567.9"/>
		</g>
		<path class="st4" d="M174,370.4l-27-16c-0.6-0.3-1.3-0.1-1.7,0.4l-12.8,21.6c-0.3,0.6-0.1,1.3,0.4,1.7l27,16
			c0.6,0.3,1.3,0.1,1.7-0.4l12.8-21.6C174.8,371.4,174.6,370.7,174,370.4z"/>
		<path class="st15" d="M163.5,388.2l-27-16c-0.6-0.3-1.3-0.1-1.7,0.4l-2.2,3.8c-0.3,0.6-0.1,1.3,0.4,1.7l27,16
			c0.6,0.3,1.3,0.1,1.7-0.4l2.2-3.8C164.2,389.2,164,388.5,163.5,388.2z"/>
		<rect x="269.4" y="416.7" class="st7" width="33" height="37.1"/>
		<rect x="122.9" y="311.6" class="st7" width="95" height="32.5"/>
		<path class="st11" d="M297.5,503.4h-98.2c-2.7,0-4.9-2.2-4.9-4.9v-31.3c0-2.7,2.2-4.9,4.9-4.9h98.2c2.7,0,4.9,2.2,4.9,4.9v31.3
			C302.4,501.2,300.2,503.4,297.5,503.4z"/>
		<path class="st16" d="M297.5,503.4h-26.1v-40.6c0-0.3,0.3-0.6,0.6-0.6h25.5c2.7,0,4.9,2.2,4.9,4.9v31.3
			C302.4,501.2,300.2,503.4,297.5,503.4z"/>
		<path class="st0" d="M291.4,497.4h-9.1c-3.2,0-5.8-2.6-5.8-5.8v-17.7c0-3.2,2.6-5.8,5.8-5.8h9.1c3.2,0,5.8,2.6,5.8,5.8v17.7
			C297.2,494.8,294.6,497.4,291.4,497.4z"/>
		<path class="st13" d="M310.8,378.2c-26.8,0-48.6-21.5-48.6-48.1h48.6L310.8,378.2z"/>
	</g>
	<g id="Bedroom_Right">
		<rect x="805.4" y="122.5" class="st7" width="92.3" height="31.3"/>
		<path class="st4" d="M872.7,187.8l27.2,15.8c0.6,0.3,1.3,0.1,1.7-0.4l12.7-21.7c0.3-0.6,0.1-1.3-0.4-1.7L886.6,164
			c-0.6-0.3-1.3-0.1-1.7,0.4l-12.7,21.7C871.9,186.7,872.1,187.4,872.7,187.8z"/>
		<path class="st15" d="M883.1,169.9l27.2,15.8c0.6,0.3,1.3,0.1,1.7-0.4l2.2-3.8c0.3-0.6,0.1-1.3-0.4-1.7L886.6,164
			c-0.6-0.3-1.3-0.1-1.7,0.4l-2.2,3.8C882.4,168.8,882.6,169.5,883.1,169.9z"/>
		<path class="st17" d="M880.6,395h-54.9c-3.3,0-6-2.7-6-6v-96.1c0-3.3,2.7-6,6-6h54.9c3.3,0,6,2.7,6,6v96.1
			C886.6,392.3,883.9,395,880.6,395z"/>
		<path class="st8" d="M882.9,395h-59.5c-2.1,0-3.7-1.7-3.7-3.7V364h67v27.3C886.6,393.3,885,395,882.9,395z"/>
		<g>
			<path class="st0" d="M847.6,389.4h-20.3c-1.6,0-2.8-1.3-2.8-2.8v-14.1c0-1.6,1.3-2.8,2.8-2.8h20.3c1.6,0,2.8,1.3,2.8,2.8v14.1
				C850.4,388.1,849.2,389.4,847.6,389.4z"/>
			<path class="st0" d="M878.9,389.4h-20.3c-1.6,0-2.8-1.3-2.8-2.8v-14.1c0-1.6,1.3-2.8,2.8-2.8h20.3c1.6,0,2.8,1.3,2.8,2.8v14.1
				C881.8,388.1,880.5,389.4,878.9,389.4z"/>
		</g>
		<rect x="893.2" y="361.5" class="st7" width="37.5" height="33"/>
		<rect x="775.5" y="361.5" class="st7" width="37.5" height="33"/>
		<path class="st13" d="M765.9,258.6c26.8,0,48.6-21.5,48.6-48.1h-48.6V258.6z"/>
	</g>
	<g id="SideRoomRight">
		<rect x="895" y="453.1" class="st5" width="41.5" height="120.9"/>
		<line class="st18" x1="902.3" y1="564.5" x2="929.5" y2="564.5"/>
		<line class="st18" x1="902.3" y1="561.9" x2="929.5" y2="558.7"/>
		<line class="st18" x1="902.3" y1="552.1" x2="929.5" y2="555.3"/>
		<line class="st18" x1="902.3" y1="545.9" x2="929.5" y2="545.9"/>
		<line class="st18" x1="902.3" y1="543.3" x2="929.5" y2="540.1"/>
		<line class="st19" x1="902.3" y1="533.5" x2="929.5" y2="536.7"/>
		<line class="st19" x1="902.3" y1="527.3" x2="929.5" y2="527.3"/>
		<line class="st19" x1="902.3" y1="524.8" x2="929.5" y2="521.6"/>
		<line class="st19" x1="902.3" y1="515" x2="929.5" y2="518.2"/>
		<line class="st19" x1="902.3" y1="508.8" x2="929.5" y2="508.8"/>
		<line class="st19" x1="902.3" y1="506.2" x2="929.5" y2="503"/>
		<line class="st19" x1="902.3" y1="496.4" x2="929.5" y2="499.6"/>
		<line class="st19" x1="902.3" y1="490.2" x2="929.5" y2="490.2"/>
		<line class="st19" x1="902.3" y1="487.7" x2="929.5" y2="484.5"/>
		<line class="st19" x1="902.3" y1="477.9" x2="929.5" y2="481.1"/>
		<line class="st19" x1="902.3" y1="471.7" x2="929.5" y2="471.7"/>
		<line class="st19" x1="902.3" y1="469.1" x2="929.5" y2="465.9"/>
		<line class="st19" x1="902.3" y1="459.3" x2="929.5" y2="462.5"/>
		<path class="st19" d="M902.3,453.1"/>
		<path class="st13" d="M765.9,537.7c26.8,0,48.6-21.5,48.6-48.1l-48.6,0V537.7z"/>
	</g>
	<g id="LivingRoom">
		<path class="st4" d="M422,381.2l-27.8,21.7c-0.7,0.6-1.8,0.4-2.3-0.3l-22-28.1c-0.6-0.7-0.4-1.8,0.3-2.3l27.8-21.7
			c0.7-0.6,1.8-0.4,2.3,0.3l22,28.1C422.9,379.6,422.8,380.6,422,381.2z"/>
		<g>
			<path class="st5" d="M405.4,357.3l-21.6,16.9c-1.4,1.1-3.5,0.9-4.6-0.6l-2-2.6c-1.1-1.4-0.9-3.5,0.6-4.6l20.3-15.8
				c0.7-0.6,1.8-0.4,2.3,0.3L405.4,357.3z"/>
		</g>
		<g>
			<path class="st5" d="M422,381.2L401.8,397c-1.4,1.1-3.5,0.9-4.6-0.6l-2-2.6c-1.1-1.4-0.9-3.5,0.6-4.6l21.6-16.9l5.1,6.5
				C422.9,379.6,422.8,380.6,422,381.2z"/>
		</g>
		<path class="st4" d="M380.6,232.7l0-35.2c0-0.9,0.7-1.6,1.6-1.6l35.7,0c0.9,0,1.6,0.7,1.6,1.6l0,35.2c0,0.9-0.7,1.6-1.6,1.6
			l-35.7,0C381.3,234.3,380.6,233.6,380.6,232.7z"/>
		<g>
			<path class="st5" d="M409.7,234.3v-27.4c0-1.8,1.5-3.3,3.3-3.3h3.3c1.8,0,3.3,1.5,3.3,3.3l0,25.7c0,0.9-0.7,1.6-1.6,1.6H409.7z"
				/>
		</g>
		<g>
			<path class="st5" d="M380.6,232.7l0-25.7c0-1.8,1.5-3.3,3.3-3.3h3.3c1.8,0,3.3,1.5,3.3,3.3l0,27.4h-8.2
				C381.3,234.3,380.6,233.6,380.6,232.7z"/>
		</g>
		<path class="st4" d="M376.1,332.5l-43.3,0c-1.1,0-2-0.9-2-2l0-41c0-1.1,0.9-2,2-2l45.2,0l0,42.9
			C378.1,331.6,377.2,332.5,376.1,332.5z"/>
		<path class="st4" d="M376.1,241.3l-43.2,0c-1.1,0-2,0.9-2,2l0,42c0,1.1,0.9,2,2,2l45.2,0l0-44
			C378.1,242.2,377.2,241.3,376.1,241.3z"/>
		<g>
			<path class="st5" d="M376,332.6l-35.6,0c-2.3,0-4.1-1.9-4.1-4.1v-3.2c0-2.3,1.9-4.1,4.1-4.1l37.7,0l0,9.4
				C378.1,331.7,377.1,332.6,376,332.6z"/>
		</g>
		<g>
			<path class="st5" d="M376,241.3l-35.6,0c-2.3,0-4.1,1.9-4.1,4.1v3.2c0,2.3,1.9,4.1,4.1,4.1l37.7,0l0-9.4
				C378.1,242.2,377.1,241.3,376,241.3z"/>
		</g>
		<rect x="515.4" y="307.9" class="st13" width="20.6" height="93.9"/>
		<rect x="521.2" y="324.4" class="st4" width="9.5" height="60.9"/>
		<path class="st13" d="M536,574.1c0-35.6,28.9-64.5,64.5-64.5v64.5H536z"/>
		<path class="st13" d="M482.4,239.8c-26.8,0-48.6-21.5-48.6-48.1h48.6V239.8z"/>
		<path class="st13" d="M627.4,494.3c21,0,38-17,38-38h-38V494.3z"/>
		<path class="st15" d="M328.2,241.3h9.6c1.4,0,2.5,1,2.5,2.2l0,9.4l0.1,34.1l-0.1,34.1l0,9.4c0,1.2-1.1,2.2-2.5,2.2h-9.6
			c-1.4,0-2.5-1-2.5-2.2v-86.9C325.7,242.2,326.8,241.3,328.2,241.3z"/>
		<path class="st15" d="M380.6,204.9v-7.5c0-0.9,0.7-1.6,1.6-1.6l35.7,0c0.9,0,1.6,0.7,1.6,1.6v7.5c0,0.9-0.7,1.6-1.6,1.6h-35.7
			C381.3,206.6,380.6,205.8,380.6,204.9z"/>
		<path class="st15" d="M400.2,398.3l-5.9,4.6c-0.7,0.6-1.8,0.4-2.3-0.3l-22-28.1c-0.6-0.7-0.4-1.8,0.3-2.3l5.9-4.6
			c0.7-0.6,1.8-0.4,2.3,0.3l22,28.1C401,396.7,400.9,397.7,400.2,398.3z"/>
	</g>
</g>
</svg>
