<?xml version="1.0" encoding="utf-8"?>
<!-- Generator: Adobe Illustrator 22.1.0, SVG Export Plug-In . SVG Version: 6.00 Build 0)  -->
<svg version="1.1" id="Layer_1" xmlns="http://www.w3.org/2000/svg" xmlns:xlink="http://www.w3.org/1999/xlink" x="0px" y="0px"
	 viewBox="0 0 1049.9 679.5" style="enable-background:new 0 0 1049.9 679.5;" xml:space="preserve">
<style type="text/css">
	.st0{fill:none;stroke:#3482A1;stroke-width:11;stroke-miterlimit:10;}
	.st1{fill:#323071;}
	.st2{fill:#F894A4;}
	.st3{fill:#D2FAD6;}
	.st4{fill:#23146B;}
	.st5{fill:#503EA7;}
	.st6{fill:#B5DEEF;stroke:#6A52DE;stroke-miterlimit:10;}
	.st7{fill:#45ADD6;}
	.st8{fill:#C3BAF2;}
	.st9{fill:#6ABDDE;}
	.st10{fill:none;stroke:#AAD0E0;stroke-width:11;stroke-miterlimit:10;}
</style>
<title>Artboard 17</title>
<g id="Layer_37">
	<path class="st0" d="M64.9,72.8h924.3c5.4,0,9.8,4.4,9.8,9.8v419.2c0,5.4-4.4,9.8-9.8,9.8H64.9c-5.4,0-9.8-4.4-9.8-9.8V82.6
		C55.1,77.2,59.5,72.8,64.9,72.8z"/>
	<path class="st1" d="M217.5,166c7.6,0.6,15.2,0.8,22.8,0.8s15.2-0.2,22.8-0.6c3.8-0.2,7.6-0.5,11.4-1s7.6-1.1,11.4-1.8
		s7.6-1.2,11.4-1.5c3.8-0.3,7.6-0.5,11.4-0.4c3.8,0.1,7.6,0.4,11.4,1c3.8,0.6,7.6,1.5,11.4,2.3c3.8,0.9,7.5,1.5,11.4,2
		c3.8,0.4,7.6,0.6,11.4,0.5c3.8-0.1,7.6-0.4,11.4-0.8c3.8-0.5,7.6-1.1,11.4-1.7c15.1-2.9,30.6-2.7,45.6,0.6c3.8,0.7,7.6,1.5,11.4,2
		s7.6,1,11.4,1.1c3.8,0.2,7.6,0.1,11.4-0.3c3.8-0.4,7.6-1,11.4-1.9c3.8-0.8,7.6-1.6,11.4-2c3.8-0.5,7.6-0.6,11.4-0.5
		c15.2,0.2,30.3,5.1,45.5,5.9c7.6,0.5,15.2,1,22.8,1.1s15.2,0.2,22.8-0.2l-0.1,6.7c-7.6-0.6-15.2-0.8-22.8-0.8s-15.2,0.2-22.8,0.5
		c-15.2,0.4-30.5,4.9-45.7,4.7c-3.8,0.1-7.6-0.2-11.4-0.8c-3.8-0.5-7.6-1.4-11.4-2.3c-3.8-0.9-7.6-1.6-11.4-2.2
		c-3.8-0.5-7.6-0.6-11.4-0.5c-3.8,0.1-7.6,0.4-11.4,0.8c-3.8,0.5-7.6,1.1-11.4,1.7c-7.5,1.4-15.2,2-22.8,2c-7.7-0.2-15.3-1-22.8-2.6
		c-3.8-0.7-7.6-1.5-11.4-2c-3.8-0.6-7.6-0.9-11.4-1.1c-3.8-0.2-7.6-0.1-11.4,0.2c-3.8,0.4-7.6,0.9-11.4,1.7c-3.8,0.7-7.6,1.5-11.4,2
		c-3.8,0.5-7.6,0.7-11.4,0.7c-3.8,0-7.6-0.3-11.4-0.7c-3.8-0.4-7.6-1.1-11.4-1.8s-7.6-1.4-11.4-2s-7.6-1-11.4-1.3
		c-7.6-0.6-15.2-1-22.8-1.1s-15.2-0.2-22.8,0.2L217.5,166z"/>
	<path class="st1" d="M217.5,288.8c7.6,0.6,15.2,0.8,22.8,0.8s15.2-0.2,22.8-0.6c3.8-0.2,7.6-0.5,11.4-1c3.8-0.5,7.6-1.1,11.4-1.8
		s7.6-1.2,11.4-1.5c3.8-0.3,7.6-0.5,11.4-0.4c3.8,0.1,7.6,0.4,11.4,1c3.8,0.6,7.6,1.5,11.4,2.3c3.8,0.9,7.5,1.5,11.4,2
		c3.8,0.4,7.6,0.6,11.4,0.5c3.8-0.1,7.6-0.4,11.4-0.8c3.8-0.5,7.6-1.1,11.4-1.7c15.1-2.9,30.6-2.7,45.6,0.6c3.8,0.7,7.6,1.5,11.4,2
		s7.6,1,11.4,1.1c3.8,0.2,7.6,0.1,11.4-0.3c3.8-0.4,7.6-1,11.4-1.9c3.8-0.8,7.6-1.6,11.4-2c3.8-0.5,7.6-0.6,11.4-0.5
		c15.2,0.1,30.3,5.1,45.5,5.9c7.6,0.5,15.2,1,22.8,1.1s15.2,0.2,22.8-0.2l-0.1,6.7c-7.6-0.6-15.2-0.8-22.8-0.8s-15.2,0.2-22.8,0.5
		c-15.2,0.4-30.5,4.9-45.7,4.7c-3.8,0.1-7.6-0.2-11.4-0.8c-3.8-0.5-7.6-1.4-11.4-2.3c-3.8-0.9-7.6-1.6-11.4-2.2
		c-3.8-0.5-7.6-0.6-11.4-0.5c-3.8,0.1-7.6,0.4-11.4,0.8c-3.8,0.5-7.6,1.1-11.4,1.7c-15.1,2.9-30.6,2.7-45.6-0.6
		c-3.8-0.7-7.6-1.5-11.4-2c-3.8-0.6-7.6-0.9-11.4-1.1c-3.8-0.2-7.6-0.1-11.4,0.2c-3.8,0.4-7.6,0.9-11.4,1.7c-3.8,0.7-7.6,1.5-11.4,2
		c-3.8,0.5-7.6,0.7-11.4,0.7c-3.8,0-7.6-0.3-11.4-0.7c-3.8-0.4-7.6-1.1-11.4-1.8s-7.6-1.4-11.4-2s-7.6-1-11.4-1.3
		c-7.6-0.5-15.2-1-22.8-1.1s-15.2-0.2-22.8,0.2L217.5,288.8z"/>
	<path class="st1" d="M217.5,411.6c7.6,0.6,15.2,0.8,22.8,0.8s15.2-0.2,22.8-0.6c3.8-0.2,7.6-0.5,11.4-1s7.6-1.1,11.4-1.8
		s7.6-1.2,11.4-1.5c3.8-0.3,7.6-0.5,11.4-0.4c3.8,0.1,7.6,0.4,11.4,1c3.8,0.6,7.6,1.5,11.4,2.3c3.8,0.9,7.5,1.5,11.4,2
		c3.8,0.4,7.6,0.6,11.4,0.5c3.8-0.1,7.6-0.4,11.4-0.8s7.6-1.1,11.4-1.7c15.1-2.9,30.6-2.7,45.6,0.6c3.8,0.7,7.6,1.5,11.4,2
		c3.8,0.6,7.6,0.9,11.4,1.1c3.8,0.2,7.6,0.1,11.4-0.2c3.8-0.4,7.6-1,11.4-1.8c3.8-0.8,7.6-1.6,11.4-2c3.8-0.5,7.6-0.6,11.4-0.5
		c15.2,0.1,30.3,5.1,45.5,5.9c7.6,0.5,15.2,1,22.8,1.1s15.2,0.2,22.8-0.2l-0.1,6.7c-7.6-0.6-15.2-0.8-22.8-0.8s-15.2,0.2-22.8,0.5
		c-15.2,0.4-30.5,4.9-45.7,4.7c-3.8,0.1-7.6-0.2-11.4-0.8c-3.8-0.5-7.6-1.4-11.4-2.3c-3.8-0.9-7.6-1.6-11.4-2.2
		c-3.8-0.5-7.6-0.6-11.4-0.5c-3.8,0.1-7.6,0.4-11.4,0.8c-3.8,0.5-7.6,1.1-11.4,1.7c-15.1,2.9-30.6,2.7-45.6-0.6
		c-3.8-0.7-7.6-1.5-11.4-2c-3.8-0.6-7.6-0.9-11.4-1.1c-3.8-0.2-7.6-0.1-11.4,0.2c-3.8,0.4-7.6,0.9-11.4,1.7c-3.8,0.7-7.6,1.5-11.4,2
		c-3.8,0.5-7.6,0.7-11.4,0.7c-3.8,0-7.6-0.3-11.4-0.7c-3.8-0.4-7.6-1.1-11.4-1.8s-7.6-1.4-11.4-2s-7.6-1-11.4-1.3
		c-7.6-0.5-15.2-1-22.8-1.1s-15.2-0.2-22.8,0.2L217.5,411.6z"/>
	<path class="st2" d="M532,439.3c0,0-24.3-33-58.3-29s-40,11-41,24s-7,29,0,43s67,64,67,64l32.3,29c0,0,8.7-14,25.7-6
		c10.1,4.7,19.8,10.3,29,16.7l43-52.2l-9-35.5L532,439.3z"/>
	<path class="st3" d="M592.8,467.8v12.5c0,0-4,10,4,17.5s11-2.5,19,6c5.9,6.5,11.4,13.4,16.5,20.5l3.2,18l59.8,36l52-41l49-46.5
		l11.5-20L592.8,467.8z"/>
	<path class="st3" d="M669.9,209.7c0,0-7.7-1.3-29.2,5.4s-34,6.2-39.5,13.7s-19,44.5-19,44.5h239v180c0,0,25.5-30.5,31.5-29.5
		s10.5-95.5,8-120.5s-1-34-23-49.5s-28.2-20.8-28.2-20.8L669.9,209.7z"/>
	<path class="st4" d="M694.3,557.3l-42.8,35.1c0,0,8.5,7.6,6.5,16.1c-1.4,5.7-3.5,11.2-6.2,16.4l77.5-41l-29.6-30.5L694.3,557.3z"/>
	<polygon class="st5" points="691.7,188.1 691.7,273.3 774.8,273.3 772.8,192.8 761.6,169.3 	"/>
	<path class="st6" d="M713.8,213.3c0,0,14.5,4,20.5,0s15.4-16.1,20.5-24l5.1-7.9l28.4-39.6l-30-48l-21-19l-18.5-18l-28.5,41.5
		l-11,72C679.3,170.3,709.2,212.3,713.8,213.3z"/>
	<path class="st4" d="M750.5,195.5c0,0,3.9,36.6,5.8,44.8s-2.9,30-2.9,30l19.4-47.5l-6-40.5l-5.1-13L750.5,195.5z"/>
	<path class="st7" d="M723.8,64.3v24c0,0,22,5,29,22s6,34,4.8,48c-1,11.1,6.5,33,3.9,61s-6.6,54-6.6,54h64c0,0-18-70-18-104.5
		s-4-95.5-23-104.5l-19-9c0,0-19-7-26-6s-30.6,5.5-43,15s-29,48-25,92s8,76,8,93s-3,24-3,24h31c0,0-2.5-76.5-7-82.3
		s-8-15.3-8.5-24.5s1.5-28.8,5.8-40.3s2.3-21.5,12.5-28.8s17-9,17-9l-0.3-24.3H723.8z"/>
	<path class="st5" d="M629.8,528.8c0,0,56.5,40.5,64.5,44s35,11,35,11s-12,33,0,46.5s-50.5-23.5-83.5-34s-53-19-53-19
		S597.8,556.8,629.8,528.8z"/>
	<path class="st5" d="M685.3,563.8l48-35l28.4,47.5c-5.4,2.7-11.3,4.3-17.4,4.7c-10.5,0.8-5.7,5.7-22.4,0.7S707.8,579.8,685.3,563.8
		z"/>
	<path class="st2" d="M733.3,528.8l74.5-58l45-47c0,0,32-24.5,52-7.5s37,39.5,33,53.3s-8,43.8-33,63.8s-53,38-53,38
		s-10-21.9-28-14.9s-62.1,19.9-62.1,19.9L733.3,528.8z"/>
	<path class="st8" d="M531.2,280.3c81.9-16.3,202.5-16.3,291,0c47.8,8.8,0,194.5,0,194.5h-286C536.2,474.8,483.5,289.8,531.2,280.3z
		"/>
	<path class="st9" d="M729.3,583.8c0,0-9.5,35.5,0,46.5s63.5-4.1,89.5,2.9s45.4-11.3,42.7-24.1s-7.8-46.5-16.3-47.2
		C821.1,560,766.2,593.7,729.3,583.8z"/>
	<path class="st9" d="M546.6,561.9c0,0-23.8,12.4-18.8,32.4s-3.4,22.2,20,33.9c29,14.5,104-3.4,104-3.4l5.4-24.4l-67.9-11.4
		L546.6,561.9z"/>
	<path class="st10" d="M108.5,372.2h60.1c4.4,0,8,3.6,8,8v60.1c0,4.4-3.6,8-8,8h-60.1c-4.4,0-8-3.6-8-8v-60.1
		C100.5,375.8,104.1,372.2,108.5,372.2z"/>
	<path class="st10" d="M108.5,254.1h60.1c4.4,0,8,3.6,8,8v60.1c0,4.4-3.6,8-8,8h-60.1c-4.4,0-8-3.6-8-8v-60.1
		C100.5,257.7,104.1,254.1,108.5,254.1z"/>
	<path class="st10" d="M108.5,135.9h60.1c4.4,0,8,3.6,8,8V204c0,4.4-3.6,8-8,8h-60.1c-4.4,0-8-3.6-8-8v-60.1
		C100.5,139.5,104.1,135.9,108.5,135.9z"/>
</g>
</svg>
