<svg id="Layer_1" data-name="Layer 1" xmlns="http://www.w3.org/2000/svg" viewBox="0 0 955.9 589.7"><defs><style>.cls-1{fill:#b5deef;}.cls-2{fill:#fbbfc8;}.cls-3{fill:#503ea7;}.cls-12,.cls-4,.cls-9{fill:#fff;}.cls-5{fill:#d2fad6;}.cls-11,.cls-6,.cls-7{fill:none;stroke-miterlimit:10;}.cls-11,.cls-6{stroke:#23146b;}.cls-6,.cls-7{stroke-width:7px;}.cls-10,.cls-6,.cls-8{opacity:0.6;}.cls-12,.cls-6,.cls-8,.cls-9{isolation:isolate;}.cls-7{stroke:#d2fad6;}.cls-8{fill:#23146b;}.cls-9{opacity:0.5;}.cls-11{stroke-width:5px;}.cls-12{opacity:0.7;}</style></defs><title>Step3</title><path class="cls-1" d="M1003,625.9V46.3H722.1V625.9Z" transform="translate(-47.1 -46.3)"/><path class="cls-2" d="M386.3,615.8H656a12.21,12.21,0,0,1,12.1,10.7V46.3h-294V628A12.25,12.25,0,0,1,386.3,615.8Z" transform="translate(-47.1 -46.3)"/><path class="cls-3" d="M315.5,624a12.07,12.07,0,0,1,6.5,1.9V46.3H47.1V625.9a12.07,12.07,0,0,1,6.5-1.9Z" transform="translate(-47.1 -46.3)"/><rect class="cls-4" x="715" y="38.6" width="204.5" height="236.7"/><rect class="cls-5" x="30.4" y="275.5" width="74.1" height="252.3"/><path class="cls-4" d="M148.1,327.8V573.1H81V327.8h67.1m7-7H74V580.1h81.1Z" transform="translate(-47.1 -46.3)"/><rect class="cls-5" x="170.4" y="275.5" width="74.1" height="252.3"/><path class="cls-4" d="M288.1,327.8V573.1H221V327.8h67.1m7-7H214V580.1h81.1Z" transform="translate(-47.1 -46.3)"/><circle class="cls-1" cx="232.9" cy="224.4" r="15.2"/><path class="cls-5" d="M280.4,266.2l-20.9,1-20.9-1a3.8,3.8,0,0,0-3.8,3.8v1.5a3.8,3.8,0,0,0,3.8,3.8l20.9-1,20.9,1a3.8,3.8,0,0,0,3.8-3.8V270A3.8,3.8,0,0,0,280.4,266.2Z" transform="translate(-47.1 -46.3)"/><rect class="cls-4" x="110.9" y="33.9" width="53.2" height="143.5"/><rect class="cls-4" x="31.1" y="33.9" width="53.2" height="143.5"/><rect class="cls-4" x="190.9" y="33.9" width="53.2" height="143.5"/><rect class="cls-6" x="426" y="322" width="103.8" height="31.5"/><path class="cls-1" d="M550.7,318.2v0Z" transform="translate(-47.1 -46.3)"/><rect class="cls-4" x="503.6" y="38.6" width="72.8" height="233.3"/><path class="cls-1" d="M418.7,318.2v0Z" transform="translate(-47.1 -46.3)"/><rect class="cls-4" x="371.6" y="38.6" width="72.8" height="233.3"/><rect class="cls-7" x="712.3" y="369.6" width="209.8" height="160.7"/><circle class="cls-8" cx="907.1" cy="322.8" r="18.4"/><rect class="cls-4" x="715" y="38.6" width="204.5" height="236.7"/><polygon class="cls-5" points="708.8 366.1 715.8 373.1 918.6 373.1 918.6 526.8 925.6 533.8 925.6 366.1 708.8 366.1"/><polygon class="cls-9" points="166.9 274.5 209 309.7 191.4 343.9 217.7 366.1 192.3 448.3 212.4 457.4 202.1 533.8 166.9 533.8 166.9 274.5"/><polygon class="cls-9" points="32.3 274.5 74.4 309.7 56.8 343.9 83.1 366.1 57.7 448.3 77.8 457.4 67.5 533.8 32.3 533.8 32.3 274.5"/><g class="cls-10"><line class="cls-11" x1="733.2" y1="389.9" x2="733.2" y2="509.9"/><line class="cls-11" x1="754.2" y1="389.9" x2="754.2" y2="509.9"/><line class="cls-11" x1="775.2" y1="389.9" x2="775.2" y2="509.9"/><line class="cls-11" x1="796.2" y1="389.9" x2="796.2" y2="509.9"/><line class="cls-11" x1="817.2" y1="389.9" x2="817.2" y2="509.9"/><line class="cls-11" x1="838.2" y1="389.9" x2="838.2" y2="509.9"/><line class="cls-11" x1="859.2" y1="389.9" x2="859.2" y2="509.9"/><line class="cls-11" x1="901.2" y1="389.9" x2="901.2" y2="509.9"/><line class="cls-11" x1="880.2" y1="389.9" x2="880.2" y2="509.9"/></g><rect class="cls-1" x="371.6" y="408.8" width="35.3" height="125"/><rect class="cls-1" x="428.5" y="408.8" width="35.3" height="125"/><rect class="cls-1" x="487.5" y="408.8" width="35.3" height="125"/><rect class="cls-1" x="541.1" y="408.8" width="35.3" height="125"/><path class="cls-12" d="M454,580.1V533.5c-13.1,3.6-25.1,6.5-35.3,8.7v37.9Z" transform="translate(-47.1 -46.3)"/><path class="cls-12" d="M510.9,580.1v-65c-12.2,4.5-24,8.5-35.3,12v53Z" transform="translate(-47.1 -46.3)"/><path class="cls-12" d="M569.9,580.1v-91c-11.7,6.1-23.6,11.6-35.3,16.5V580l35.3.1Z" transform="translate(-47.1 -46.3)"/><path class="cls-12" d="M623.5,580.1V456.2a401.32,401.32,0,0,1-35.3,22.9V580l35.3.1Z" transform="translate(-47.1 -46.3)"/><path class="cls-4" d="M658,636H384.2a10.07,10.07,0,0,1-10.1-10.1h0a10.07,10.07,0,0,1,10.1-10.1H658a10.07,10.07,0,0,1,10.1,10.1h0A10.07,10.07,0,0,1,658,636Z" transform="translate(-47.1 -46.3)"/><path class="cls-4" d="M311.9,636H57.2a10.07,10.07,0,0,1-10.1-10.1h0a10.07,10.07,0,0,1,10.1-10.1H311.9A10.07,10.07,0,0,1,322,625.9h0A10.07,10.07,0,0,1,311.9,636Z" transform="translate(-47.1 -46.3)"/><path class="cls-4" d="M992.9,636H732.2a10.07,10.07,0,0,1-10.1-10.1h0a10.07,10.07,0,0,1,10.1-10.1H992.9a10.07,10.07,0,0,1,10.1,10.1h0A10.07,10.07,0,0,1,992.9,636Z" transform="translate(-47.1 -46.3)"/></svg>