<?xml version="1.0" encoding="utf-8"?>
<!-- Generator: Adobe Illustrator 22.1.0, SVG Export Plug-In . SVG Version: 6.00 Build 0)  -->
<svg version="1.1" id="Layer_1" xmlns="http://www.w3.org/2000/svg" xmlns:xlink="http://www.w3.org/1999/xlink" x="0px" y="0px"
	 viewBox="0 0 1049.9 679.5" style="enable-background:new 0 0 1049.9 679.5;" xml:space="preserve">
<style type="text/css">
	.st0{opacity:5.000000e-02;}
	.st1{fill:#503EA7;}
	.st2{fill:#B5DEEF;}
	.st3{fill:#FFFFFF;}
	.st4{fill:#D2FAD6;}
	.st5{fill:#FBBFC8;}
	.st6{opacity:0.6;fill:none;stroke:#23146B;stroke-width:7;stroke-miterlimit:10;enable-background:new    ;}
	.st7{fill:none;stroke:#D2FAD6;stroke-width:7;stroke-miterlimit:10;}
	.st8{opacity:0.6;fill:#23146B;enable-background:new    ;}
	.st9{opacity:0.5;fill:#FFFFFF;enable-background:new    ;}
	.st10{opacity:0.6;}
	.st11{fill:none;stroke:#23146B;stroke-width:5;stroke-miterlimit:10;}
	.st12{opacity:0.3;fill:#FFFFFF;enable-background:new    ;}
</style>
<title>Step-3</title>
<g>
	<g class="st0">
	</g>
	<rect x="47.1" y="46.3" class="st1" width="274.9" height="583.5"/>
	<rect x="722.1" y="46.3" class="st2" width="280.9" height="583.5"/>
	<rect x="762.1" y="84.9" class="st3" width="204.5" height="236.7"/>
	<g class="st0">
	</g>
	<rect x="77.5" y="321.8" class="st4" width="74.1" height="252.3"/>
	<path class="st3" d="M148.1,327.8v245.3H81V327.8H148.1 M155.1,320.8H74v259.3h81.1V320.8z"/>
	<rect x="217.5" y="321.8" class="st4" width="74.1" height="252.3"/>
	<path class="st3" d="M288.1,327.8v245.3H221V327.8H288.1 M295.1,320.8H214v259.3h81.1V320.8z"/>
	<circle class="st2" cx="280" cy="270.7" r="15.2"/>
	<path class="st4" d="M280.4,266.2l-20.9,1l-20.9-1c-2.1,0-3.8,1.7-3.8,3.8v1.5c0,2.1,1.7,3.8,3.8,3.8l20.9-1l20.9,1
		c2.1,0,3.8-1.7,3.8-3.8V270C284.2,267.9,282.5,266.2,280.4,266.2z"/>
	<rect x="158" y="80.2" class="st3" width="53.2" height="143.5"/>
	<rect x="78.2" y="80.2" class="st3" width="53.2" height="143.5"/>
	<rect x="238" y="80.2" class="st3" width="53.2" height="143.5"/>
	<rect x="374.1" y="46.3" class="st5" width="294" height="583.5"/>
	<g class="st0">
	</g>
	<rect x="473.1" y="368.3" class="st6" width="103.8" height="31.5"/>
	<rect x="418.7" y="455.1" class="st2" width="35.3" height="125"/>
	<rect x="419.8" y="462.1" class="st2" width="33" height="111"/>
	<rect x="475.6" y="455.1" class="st2" width="35.3" height="125"/>
	<rect x="476.7" y="462.1" class="st2" width="33" height="111"/>
	<rect x="534.6" y="455.1" class="st2" width="35.3" height="125"/>
	<rect x="535.7" y="462.1" class="st2" width="33" height="111"/>
	<rect x="588.2" y="455.1" class="st2" width="35.3" height="125"/>
	<rect x="589.4" y="462.1" class="st2" width="33" height="111"/>
	<path class="st2" d="M550.7,318.2v0.1V318.2z"/>
	<rect x="550.7" y="84.9" class="st3" width="72.8" height="233.3"/>
	<path class="st2" d="M418.7,318.2v0.1V318.2z"/>
	<rect x="418.7" y="84.9" class="st3" width="72.8" height="233.3"/>
	<rect x="759.4" y="415.9" class="st7" width="209.8" height="160.7"/>
	<circle class="st8" cx="954.2" cy="369.1" r="18.4"/>
	<rect x="762.1" y="84.9" class="st3" width="204.5" height="236.7"/>
	<polygon class="st4" points="755.9,412.4 762.9,419.4 965.7,419.4 965.7,573.1 972.7,580.1 972.7,412.4 	"/>
	<polygon class="st9" points="214,320.8 256.1,356 238.5,390.2 264.8,412.4 239.4,494.6 259.5,503.7 249.2,580.1 214,580.1 	"/>
	<polygon class="st9" points="79.4,320.8 121.5,356 103.9,390.2 130.2,412.4 104.8,494.6 124.9,503.7 114.6,580.1 79.4,580.1 	"/>
	<g class="st10">
		<line class="st11" x1="780.3" y1="436.2" x2="780.3" y2="556.2"/>
		<line class="st11" x1="801.3" y1="436.2" x2="801.3" y2="556.2"/>
		<line class="st11" x1="822.3" y1="436.2" x2="822.3" y2="556.2"/>
		<line class="st11" x1="843.3" y1="436.2" x2="843.3" y2="556.2"/>
		<line class="st11" x1="864.3" y1="436.2" x2="864.3" y2="556.2"/>
		<line class="st11" x1="885.3" y1="436.2" x2="885.3" y2="556.2"/>
		<line class="st11" x1="906.3" y1="436.2" x2="906.3" y2="556.2"/>
		<line class="st11" x1="948.3" y1="436.2" x2="948.3" y2="556.2"/>
		<line class="st11" x1="927.3" y1="436.2" x2="927.3" y2="556.2"/>
	</g>
	<polygon class="st12" points="419.8,542.6 455.1,530.6 453.9,580.1 418.7,580.1 	"/>
	<polygon class="st12" points="477.8,526 513,508.7 511.9,580.1 476.6,580.1 	"/>
	<polygon class="st12" points="536.6,505.1 571.9,481 570.7,580.1 535.5,580.1 	"/>
	<polygon class="st12" points="588.8,477.5 623.5,455.1 622.9,580.1 587.7,580.1 	"/>
	<path class="st3" d="M996,643.8H734.1c-6.6,0-12-5.4-12-12v-4c0-6.6,5.4-12,12-12H996c6.6,0,12,5.4,12,12v4
		C1008,638.4,1002.6,643.8,996,643.8z"/>
	<path class="st3" d="M655.9,643.8H386.3c-6.7,0-12.2-5.5-12.2-12.2V628c0-6.7,5.5-12.2,12.2-12.2h269.7c6.7,0,12.2,5.5,12.2,12.2
		v3.7C668.1,638.3,662.6,643.8,655.9,643.8z"/>
	<path class="st3" d="M315.6,643.8H53.6c-6.6,0-12-5.4-12-12v-4c0-6.6,5.4-12,12-12h261.9c6.6,0,12,5.4,12,12v4
		C327.6,638.4,322.2,643.8,315.6,643.8z"/>
</g>
</svg>
