<?xml version="1.0" encoding="utf-8"?>
<!-- Generator: Adobe Illustrator 22.1.0, SVG Export Plug-In . SVG Version: 6.00 Build 0)  -->
<svg version="1.1" id="Layer_1" xmlns="http://www.w3.org/2000/svg" xmlns:xlink="http://www.w3.org/1999/xlink" x="0px" y="0px"
	 viewBox="0 0 1904.5 553" style="enable-background:new 0 0 1904.5 553;" xml:space="preserve">
<style type="text/css">
	.st0{fill:none;}
	.st1{fill:#51FFB0;}
	.st2{fill:#1100DE;}
	.st3{opacity:0.2;fill:url(#SVGID_1_);stroke:url(#Actual_fucking_pattern);stroke-miterlimit:10;enable-background:new    ;}
	.st4{fill:#231F20;}
</style>
<pattern  y="553" width="72.3" height="72" patternUnits="userSpaceOnUse" id="Actual_fucking_pattern" viewBox="0 -72 72.3 72" style="overflow:visible;">
	<g>
		<rect y="-72" class="st0" width="72.3" height="72"/>
		<rect x="0.1" y="-24.1" class="st1" width="0.2" height="0.3"/>
		<polygon class="st1" points="0.2,-41.4 0,-41.2 0.3,-41 0.3,-41.3 		"/>
		<path class="st0" d="M72.3-23.9v4.9l-2.4-1.6l-0.2,0.2l2.5,1.7l0.1-0.1v11.3l-2-0.5l-0.1,0.3l2,0.5V0h-3.5l-0.3-1l-0.3,0.1L68.5,0
			h-5l0.2-1L63.3-1l-0.2,1h-5.8l-1.4-2.1l-0.3,0.2L56.9,0h-8.5l-0.1-1.9l-0.3,0L48.2,0H32.5l0.1-0.2l-0.3-0.2L32.1,0H16.7l-0.3-0.5
			l-0.3,0.2L16.4,0H4.1l1.2-1.6L5.1-1.8L3.7,0H0.3v-7.2l1.3,0.3l0.1-0.3L0.3-7.5v-11.3l0.1-0.1L0.3-19v-4.9h2.8v-0.3H0.3V-41L2-39.7
			l0.2-0.2l-1.9-1.4v-21.1l1.3-0.2l-0.1-0.3l-1.3,0.2V-72h3.5l-0.4,0.5l0.2,0.2L4.1-72h12.3l1.1,1.7l0.3-0.2l-1-1.5h15.4L31-70.3
			l0.3,0.2l1.3-1.9h15.7l0.1,1.1l0.3,0L48.5-72h8.5l0.7,1.1l0.3-0.2L57.3-72h5.8l-0.5,2.3l0.3,0.1l0.5-2.3h5l0.8,2.2l0.3-0.1l-0.8-2
			h3.5v9.3l-3,0.6l0.1,0.3l3-0.6v21.1l-0.1-0.1L72-41.2l0.3,0.2v16.8h-0.2v0.3H72.3z M72.1-45.1h-3v0.3h3V-45.1z M66.6-32.3l0.3-0.2
			L65-35.2L64.8-35L66.6-32.3z M64.7-23.1l-2.5,1.2l0.1,0.3l2.5-1.2L64.7-23.1z M64.7-41.1L62-39.4l0.2,0.3l2.7-1.7L64.7-41.1z
			 M61.5-62.7l2.2,1.8l0.2-0.2l-2.2-1.8L61.5-62.7z M60.5-53.4l2,1.5l0.2-0.2l-2-1.5L60.5-53.4z M60.3-44.4h3v-0.3h-3V-44.4z
			 M60.8-29.2l-2.7,0.6l0.1,0.3l2.7-0.6L60.8-29.2z M54.5-64.9l0.2,0.3l2.7-1.7l-0.2-0.3L54.5-64.9z M57.2-48.1l-1.9,2.8l0.2,0.2
			l1.9-2.8L57.2-48.1z M48.9-61.7l-2.3,1.9l0.2,0.2l2.3-1.9L48.9-61.7z M47.7-33.1l-0.2,0.3l2.4,1.5l0.2-0.3L47.7-33.1z M45.7-65.8
			l0,0.3l3-0.1l0-0.3L45.7-65.8z M45-50.1l0.1,0.3l3.2-1l-0.1-0.3L45-50.1z M43-38.4l2,1.5l0.2-0.2l-2-1.5L43-38.4z M40.8-70.2
			l1.8,2.7l0.3-0.2L41-70.4L40.8-70.2z M39.8-24.4v0.3h3v-0.3H39.8z M37.7-58.9l0.2,0.3l2-1.2l-0.2-0.3L37.7-58.9z M36.7-30.1
			l0.2,0.3l2.8-1.8l-0.2-0.3L36.7-30.1z M38.6-42.5l0.3-0.1L38.2-45L37.9-45L38.6-42.5z M36.5-49.9l0.2,0.2l2.7-2.2l-0.2-0.2
			L36.5-49.9z M33.6-33.5l0.3,0l0.5-3.5l-0.3,0L33.6-33.5z M34.2-26.3l-0.3,0.1l0.7,2.8l0.3-0.1L34.2-26.3z M29.7-50.9l2,1.5
			l0.2-0.2l-2-1.5L29.7-50.9z M29.8-54.9h-3v0.3h3V-54.9z M27.7-30.4l-0.2,0.2l2.5,1.8l0.2-0.2L27.7-30.4z M27.1-40.1l-3.8,0.7
			l0.1,0.3l3.8-0.7L27.1-40.1z M27.2-70.1l0.1,3l0.3,0l-0.1-3L27.2-70.1z M26.5-59.4l0.2,0.2l2.7-2.2l-0.2-0.2L26.5-59.4z
			 M22.5-43.1l0.2,0.2l2.5-1.8L25-44.9L22.5-43.1z M19-62.4l0.2,0.2l2.5-3.5l-0.2-0.2L19-62.4z M20.7-58.8l-0.3,0.1l0.7,2.8l0.3-0.1
			L20.7-58.8z M17.3-53.7l3.5,0.8l0.1-0.3l-3.5-0.8L17.3-53.7z M15.1-55.8l0.3,0l0.5-3.2l-0.3,0L15.1-55.8z M12.3-39.9h3v-0.3h-3
			V-39.9z M9.5-21.4l2.7,2l0.2-0.2l-2.7-2L9.5-21.4z M9.9-47.4l-0.3-0.1l-1.5,3.7l0.3,0.1L9.9-47.4z M10.2-13.6l0.2,0.2l3.3-2.8
			l-0.2-0.2L10.2-13.6z M9.4-70.9l0.9,4.2l0.3-0.1l-0.9-4.2L9.4-70.9z M7.6-64l0.3,4l0.3,0l-0.3-4L7.6-64z M7.5-55.7l2.2,2.5
			l0.2-0.2l-2.2-2.5L7.5-55.7z M5.7-38.4l-0.3,0.2l2.2,3.8l0.3-0.2L5.7-38.4z M2.2-68.7l2.3,1.8l0.2-0.2l-2.3-1.8L2.2-68.7z
			 M5.6-51.9l-0.1-0.3l-3.8,0.7l0.1,0.3L5.6-51.9z M5-29.4l0.2-0.2l-2.5-1.8l-0.2,0.2L5-29.4z M4.9-20.8l-0.3,0l0.3,3.3l0.3,0
			L4.9-20.8z M6.2-10.9l-2.8-2l-0.2,0.2l2.8,2L6.2-10.9z M11.1-6.7L11-6.9L7.5-5.4l0.1,0.3L11.1-6.7z M16.1-9.9l-3.3-0.5l0,0.3
			l3.3,0.5L16.1-9.9z M16.2-24.1l-2-1.5L14-25.4l2,1.5L16.2-24.1z M17.7-36.4l-0.2-0.2L15-34.9l0.2,0.2L17.7-36.4z M18.4-45.9
			l-2.7-1.7l-0.2,0.3l2.7,1.7L18.4-45.9z M19.2-7.8h-0.3v3h0.3V-7.8z M19.9-29.5l3.1-0.1l0-0.3l-3.1,0.1L19.9-29.5z M20.9-17.5
			l-0.3,0l-0.5,3.2l0.3,0L20.9-17.5z M21-23.6l2.4-1.9l-0.2-0.2l-2.4,1.9L21-23.6z M24.8-9.1l-3.5-0.8l-0.1,0.3l3.5,0.8L24.8-9.1z
			 M25.1-33.2L24.4-36L24.1-36l0.7,2.8L25.1-33.2z M26.8-13.4l1.6-2.5l-0.3-0.2l-1.6,2.5L26.8-13.4z M29.7-4.6l-2.3-2.5l-0.2,0.2
			l2.3,2.5L29.7-4.6z M30.3-20.6h-3v0.3h3V-20.6z M32.2-42.9l-2-1.5L30-44.2l2,1.5L32.2-42.9z M32.7-65.7l-0.2-0.3l-2,1.3l0.2,0.3
			L32.7-65.7z M33.1-12.7l4-0.7l-0.1-0.3l-4,0.7L33.1-12.7z M37.2-7.2L37-7.4l-3.3,2.8l0.2,0.2L37.2-7.2z M40.2-19.1l-2.5-1.8
			l-0.2,0.2l2.5,1.8L40.2-19.1z M43.6-2.2l-1.9-2.7l-0.2,0.2L43.4-2L43.6-2.2z M45.3-9l-1.8-2.7l-0.3,0.2l1.8,2.7L45.3-9z M46-45.2
			l2.5,1.8l0.2-0.2l-2.5-1.8L46-45.2z M49.1-19.5l-0.3-0.2l-1.7,2.6l0.3,0.2L49.1-19.5z M50.4-27.2l-0.2-0.2l-2.4,1.8l0.2,0.2
			L50.4-27.2z M50.5-40.7l2.4,2.7l0.2-0.2l-2.4-2.7L50.5-40.7z M50.9-13.9l-0.3,0.2l2,3.3l0.3-0.2L50.9-13.9z M53.9-6.4l-0.2-0.3
			l-3.2,2l0.2,0.3L53.9-6.4z M53.9-55.6l1.1-3.1l-0.3-0.1l-1.1,3.1L53.9-55.6z M55.1-21.5l-0.2-3l-0.3,0l0.2,3L55.1-21.5z
			 M58.2-33.7L58-33.9l-2.8,1.5l0.1,0.3L58.2-33.7z M58.4-17.4l-0.2-0.2l-1.9,2.8l0.2,0.2L58.4-17.4z M64.9-7.1l-5-2.3l-0.1,0.3
			l5,2.3L64.9-7.1z M67.4-12.9l-2.5-1.7l-0.2,0.2l2.5,1.7L67.4-12.9z M68.8-57.3l-0.3-0.2l-1.9,2.9l0.3,0.2L68.8-57.3z M68.9-49.4
			l2.8-2.3l-0.2-0.2l-2.8,2.3L68.9-49.4z M71.9-31.4l-0.2-0.3L69-29.9l0.2,0.3L71.9-31.4z"/>
		<polygon class="st1" points="3.2,-12.7 6,-10.7 6.2,-10.9 3.4,-12.9 		"/>
		<rect x="2" y="-68" transform="matrix(0.7875 -0.6163 0.6163 0.7875 42.5776 -12.3079)" class="st1" width="2.9" height="0.3"/>
		<polygon class="st1" points="70.3,-7.7 72.3,-7.2 72.3,-7.5 70.3,-7.9 		"/>
		<polygon class="st1" points="69.7,-20.4 72.2,-18.7 72.3,-18.8 72.3,-19 69.9,-20.6 		"/>
		<rect x="72.1" y="-24.1" class="st1" width="0.2" height="0.3"/>
		
			<rect x="70.3" y="-32.2" transform="matrix(0.5335 -0.8458 0.8458 0.5335 58.7836 45.2799)" class="st1" width="0.3" height="3.2"/>
		<polygon class="st1" points="72,-41.2 72.3,-41 72.3,-41.3 72.2,-41.4 		"/>
		<polygon class="st1" points="71.5,-51.9 68.7,-49.6 68.9,-49.4 71.7,-51.7 		"/>
		<polygon class="st1" points="69.3,-61.9 72.3,-62.4 72.3,-62.7 69.3,-62.1 		"/>
		<polygon class="st1" points="63.9,-61.1 61.7,-62.9 61.5,-62.7 63.7,-60.9 		"/>
		<rect x="69.1" y="-45.1" class="st1" width="3" height="0.3"/>
		<rect x="57.2" y="-17.8" transform="matrix(0.828 -0.5607 0.5607 0.828 18.8888 29.3819)" class="st1" width="0.3" height="3.4"/>
		<rect x="27.3" y="-16.2" transform="matrix(0.8423 -0.5391 0.5391 0.8423 12.2878 12.4925)" class="st1" width="0.3" height="3"/>
		<polygon class="st1" points="43.3,-11.5 45.1,-8.8 45.3,-9 43.5,-11.7 		"/>
		<polygon class="st1" points="69.5,-70 68.8,-72 68.5,-72 69.2,-69.8 		"/>
		<polygon class="st1" points="62.9,-69.7 63.4,-72 63.1,-72 62.6,-69.7 		"/>
		<rect x="56.2" y="-48.3" transform="matrix(0.828 -0.5607 0.5607 0.828 35.8183 23.5757)" class="st1" width="0.3" height="3.4"/>
		<rect x="48" y="-19.9" transform="matrix(0.837 -0.5472 0.5472 0.837 17.8586 23.3579)" class="st1" width="0.3" height="3.1"/>
		<polygon class="st1" points="48.5,-70.9 48.5,-72 48.2,-72 48.2,-70.9 		"/>
		<polygon class="st1" points="42.8,-67.7 41,-70.4 40.8,-70.2 42.6,-67.5 		"/>
		<polygon class="st1" points="31.2,-70.1 32.5,-72 32.1,-72 31,-70.3 		"/>
		<polygon class="st1" points="53.1,-38.2 50.7,-40.9 50.5,-40.7 52.9,-38 		"/>
		<polygon class="st1" points="17.7,-70.5 16.7,-72 16.4,-72 17.5,-70.3 		"/>
		
			<rect x="7.9" y="-68.9" transform="matrix(0.2095 -0.9778 0.9778 0.2095 75.2095 -44.5694)" class="st1" width="4.3" height="0.3"/>
		<polygon class="st1" points="3.6,-71.3 4.1,-72 3.7,-72 3.4,-71.5 		"/>
		
			<rect x="25.9" y="-68.8" transform="matrix(3.318484e-02 -0.9994 0.9994 3.318484e-02 95.0917 -38.8988)" class="st1" width="3" height="0.3"/>
		<rect x="9.2" y="-8" transform="matrix(0.3943 -0.919 0.919 0.3943 11.2167 4.9188)" class="st1" width="0.3" height="3.8"/>
		
			<rect x="3.3" y="-19.3" transform="matrix(9.048260e-02 -0.9959 0.9959 9.048260e-02 23.5643 -12.4975)" class="st1" width="3.3" height="0.3"/>
		<polygon class="st1" points="9.7,-47.6 8.2,-43.9 8.4,-43.7 9.9,-47.4 		"/>
		<rect x="4.5" y="-36.5" transform="matrix(0.501 -0.8654 0.8654 0.501 34.8395 -12.3726)" class="st1" width="4.4" height="0.3"/>
		<rect x="26.7" y="-5.9" transform="matrix(0.677 -0.736 0.736 0.677 13.4171 19.0735)" class="st1" width="3.4" height="0.3"/>
		<polygon class="st1" points="33.7,-4.6 33.9,-4.4 37.2,-7.2 37,-7.4 		"/>
		<rect x="52" y="-7.4" transform="matrix(0.5297 -0.8482 0.8482 0.5297 29.2096 41.6799)" class="st1" width="0.3" height="3.8"/>
		<polygon class="st1" points="50.7,-13.7 52.7,-10.4 52.9,-10.6 50.9,-13.9 		"/>
		<polygon class="st1" points="59.7,-9.2 64.7,-6.9 64.9,-7.1 59.9,-9.4 		"/>
		<polygon class="st1" points="64.7,-14.4 67.2,-12.7 67.4,-12.9 64.9,-14.6 		"/>
		<rect x="18.9" y="-7.8" class="st1" width="0.3" height="3"/>
		<rect x="12.8" y="-10.2" transform="matrix(0.9887 -0.1498 0.1498 0.9887 1.6686 2.0499)" class="st1" width="3.3" height="0.3"/>
		<polygon class="st1" points="20.1,-14.3 20.4,-14.3 20.9,-17.5 20.6,-17.5 		"/>
		<polygon class="st1" points="21.3,-9.7 24.8,-8.9 24.8,-9.1 21.3,-9.9 		"/>
		<rect x="9.3" y="-20.7" transform="matrix(0.8036 -0.5952 0.5952 0.8036 14.3504 2.4848)" class="st1" width="3.4" height="0.3"/>
		
			<rect x="5.9" y="-62.1" transform="matrix(7.474153e-02 -0.9972 0.9972 7.474153e-02 69.1731 -49.4483)" class="st1" width="4" height="0.3"/>
		<rect x="7" y="-54.7" transform="matrix(0.6607 -0.7507 0.7507 0.6607 43.8985 -11.9875)" class="st1" width="3.3" height="0.3"/>
		<polygon class="st1" points="21.7,-65.7 21.5,-65.9 19,-62.4 19.2,-62.2 		"/>
		<rect x="27.3" y="-29.5" transform="matrix(0.812 -0.5837 0.5837 0.812 22.5837 11.3058)" class="st1" width="3.1" height="0.3"/>
		
			<rect x="56.5" y="-34.6" transform="matrix(0.4722 -0.8815 0.8815 0.4722 59.0506 32.5281)" class="st1" width="0.3" height="3.2"/>
		<polygon class="st1" points="23.3,-39.2 27.1,-39.9 27.1,-40.1 23.3,-39.4 		"/>
		<polygon class="st1" points="31.7,-49.4 31.9,-49.6 29.9,-51.1 29.7,-50.9 		"/>
		
			<rect x="27.8" y="-62.1" transform="matrix(0.6318 -0.7751 0.7751 0.6318 57.104 -0.5814)" class="st1" width="0.3" height="3.5"/>
		<polygon class="st1" points="30.5,-64.6 30.7,-64.4 32.7,-65.7 32.5,-65.9 		"/>
		<rect x="26.8" y="-54.9" class="st1" width="3" height="0.3"/>
		<rect x="37.3" y="-20" transform="matrix(0.8116 -0.5843 0.5843 0.8116 18.9456 18.9428)" class="st1" width="3.1" height="0.3"/>
		<rect x="39.8" y="-24.4" class="st1" width="3" height="0.3"/>
		<rect x="38" y="-32.6" transform="matrix(0.5407 -0.8412 0.8412 0.5407 43.5316 17.9339)" class="st1" width="0.3" height="3.3"/>
		<rect x="37.1" y="-43.9" transform="matrix(0.27 -0.9629 0.9629 0.27 70.1867 5.0745)" class="st1" width="2.6" height="0.3"/>
		
			<rect x="37.8" y="-52.6" transform="matrix(0.6318 -0.7751 0.7751 0.6318 53.4222 10.6675)" class="st1" width="0.3" height="3.5"/>
		<rect x="38.6" y="-60.6" transform="matrix(0.515 -0.8572 0.8572 0.515 69.732 4.4406)" class="st1" width="0.3" height="2.3"/>
		<rect x="60.3" y="-44.6" class="st1" width="3" height="0.3"/>
		<rect x="23.7" y="-45.4" transform="matrix(0.5837 -0.812 0.812 0.5837 45.5697 1.0818)" class="st1" width="0.3" height="3.1"/>
		<rect x="27.3" y="-20.6" class="st1" width="3" height="0.3"/>
		<rect x="16.2" y="-37.2" transform="matrix(0.5629 -0.8265 0.8265 0.5629 36.6063 -2.0765)" class="st1" width="0.3" height="3"/>
		<rect x="12.3" y="-40.1" class="st1" width="3" height="0.3"/>
		
			<rect x="15.3" y="-46.8" transform="matrix(0.8462 -0.5328 0.5328 0.8462 27.4614 1.8524)" class="st1" width="3.2" height="0.3"/>
		<rect x="47.4" y="-32.4" transform="matrix(0.848 -0.53 0.53 0.848 24.5096 20.9569)" class="st1" width="2.8" height="0.3"/>
		<polygon class="st1" points="47.8,-25.6 48,-25.4 50.4,-27.2 50.2,-27.4 		"/>
		<polygon class="st1" points="54.6,-24.5 54.8,-21.5 55.1,-21.5 54.9,-24.5 		"/>
		
			<rect x="47" y="-67.2" transform="matrix(3.255602e-02 -0.9995 0.9995 3.255602e-02 111.2687 -16.3477)" class="st1" width="0.3" height="3"/>
		<rect x="47.7" y="-62.1" transform="matrix(0.637 -0.7709 0.7709 0.637 64.1195 14.8619)" class="st1" width="0.3" height="3"/>
		
			<rect x="54.2" y="-58.9" transform="matrix(0.9424 -0.3344 0.3344 0.9424 22.2747 14.8764)" class="st1" width="0.3" height="3.3"/>
		
			<rect x="45.8" y="-44.5" transform="matrix(0.8116 -0.5843 0.5843 0.8116 34.8617 19.2924)" class="st1" width="3.1" height="0.3"/>
		<polygon class="st1" points="48.3,-50.9 48.2,-51.1 45,-50.1 45.1,-49.9 		"/>
		
			<rect x="55.8" y="-67.2" transform="matrix(0.5335 -0.8458 0.8458 0.5335 81.6224 16.6884)" class="st1" width="0.3" height="3.2"/>
		<rect x="63.3" y="-41.7" transform="matrix(0.533 -0.8461 0.8461 0.533 63.6008 34.9275)" class="st1" width="0.3" height="3.2"/>
		<polygon class="st1" points="62.7,-52.1 60.7,-53.6 60.5,-53.4 62.5,-51.9 		"/>
		
			<rect x="21.3" y="-31.2" transform="matrix(3.211952e-02 -0.9995 0.9995 3.211952e-02 50.3859 -7.2687)" class="st1" width="0.3" height="3.1"/>
		<rect x="21.9" y="-26.2" transform="matrix(0.6208 -0.784 0.784 0.6208 27.7014 7.9707)" class="st1" width="0.3" height="3.1"/>
		<rect x="59.3" y="-30.2" transform="matrix(0.217 -0.9762 0.9762 0.217 74.6535 35.4733)" class="st1" width="0.3" height="2.8"/>
		<polygon class="st1" points="15.9,-59 15.6,-59 15.1,-55.8 15.4,-55.8 		"/>
		<polygon class="st1" points="20.8,-53.1 17.3,-53.9 17.3,-53.7 20.8,-52.9 		"/>
		<rect x="34.9" y="-15.2" transform="matrix(0.1724 -0.985 0.985 0.1724 41.9924 23.6818)" class="st1" width="0.3" height="4.1"/>
		<polygon class="st1" points="34.4,-37 34.1,-37 33.6,-33.5 33.9,-33.5 		"/>
		<polygon class="st1" points="62.2,-21.9 62.4,-21.7 64.9,-22.9 64.7,-23.1 		"/>
		<polygon class="st1" points="13.7,-16.2 13.5,-16.4 10.2,-13.6 10.4,-13.4 		"/>
		
			<rect x="2.3" y="-30.5" transform="matrix(0.8116 -0.5843 0.5843 0.8116 18.4851 -3.4849)" class="st1" width="3.1" height="0.3"/>
		<polygon class="st1" points="14,-25.4 16,-23.9 16.2,-24.1 14.2,-25.6 		"/>
		
			<rect x="40.9" y="-3.6" transform="matrix(0.5755 -0.8178 0.8178 0.5755 20.8788 33.3242)" class="st1" width="3.3" height="0.3"/>
		<polygon class="st1" points="66.8,-32.5 65,-35.2 64.8,-35 66.6,-32.3 		"/>
		<polygon class="st1" points="33.9,-26.3 34.6,-23.5 34.9,-23.5 34.2,-26.3 		"/>
		<polygon class="st1" points="21.1,-56 21.4,-56 20.7,-58.8 20.4,-58.8 		"/>
		<polygon class="st1" points="30,-44.2 32,-42.7 32.2,-42.9 30.2,-44.4 		"/>
		<polygon class="st1" points="5.6,-52.1 1.8,-51.4 1.8,-51.2 5.6,-51.9 		"/>
		
			<rect x="67.6" y="-57.7" transform="matrix(0.8364 -0.5481 0.5481 0.8364 41.7493 27.976)" class="st1" width="0.3" height="3.5"/>
		<polygon class="st1" points="24.1,-36 24.8,-33.2 25.1,-33.2 24.4,-36 		"/>
		<polygon class="st1" points="45.2,-37.1 43.2,-38.6 43,-38.4 45,-36.9 		"/>
		<polygon class="st1" points="57.9,-71.1 57.3,-72 56.9,-72 57.7,-70.9 		"/>
		<polygon class="st1" points="1.6,-7.1 0.3,-7.5 0.3,-7.2 1.6,-6.9 		"/>
		<polygon class="st1" points="0.3,-19 0.3,-18.8 0.4,-18.9 		"/>
		<rect x="0.3" y="-24.1" class="st1" width="2.8" height="0.3"/>
		<polygon class="st1" points="2.2,-39.9 0.3,-41.3 0.3,-41 2,-39.7 		"/>
		<polygon class="st1" points="1.6,-62.9 0.3,-62.7 0.3,-62.4 1.6,-62.7 		"/>
		<polygon class="st1" points="68.1,-0.8 68.5,0 68.8,0 68.4,-1 		"/>
		<polygon class="st1" points="63.3,-1 63.1,0 63.4,0 63.6,-1 		"/>
		<polygon class="st1" points="48,-1.9 48.2,0 48.5,0 48.3,-1.9 		"/>
		<polygon class="st1" points="32.4,-0.4 32.1,0 32.5,0 32.6,-0.2 		"/>
		<polygon class="st1" points="16.2,-0.3 16.4,0 16.7,0 16.4,-0.5 		"/>
		<polygon class="st1" points="5.1,-1.8 3.7,0 4.1,0 5.3,-1.6 		"/>
		<polygon class="st1" points="55.7,-1.9 56.9,0 57.3,0 55.9,-2.1 		"/>
	</g>
</pattern>
<pattern  y="553" width="72.3" height="72" patternUnits="userSpaceOnUse" id="PAtternbastard" viewBox="0 -72 72.3 72" style="overflow:visible;">
	<g>
		<rect y="-72" class="st0" width="72.3" height="72"/>
		<rect x="0.1" y="-24.1" class="st2" width="0.2" height="0.3"/>
		<polygon class="st2" points="0.2,-41.4 0,-41.2 0.3,-41 0.3,-41.3 		"/>
		<polygon class="st2" points="3.2,-12.7 6,-10.7 6.2,-10.9 3.4,-12.9 		"/>
		<rect x="2" y="-68" transform="matrix(0.7875 -0.6163 0.6163 0.7875 42.5776 -12.3079)" class="st2" width="2.9" height="0.3"/>
		<polygon class="st2" points="70.3,-7.7 72.3,-7.2 72.3,-7.5 70.3,-7.9 		"/>
		<polygon class="st2" points="69.7,-20.4 72.2,-18.7 72.3,-18.8 72.3,-19 69.9,-20.6 		"/>
		<rect x="72.1" y="-24.1" class="st2" width="0.2" height="0.3"/>
		
			<rect x="70.3" y="-32.2" transform="matrix(0.5335 -0.8458 0.8458 0.5335 58.7836 45.2799)" class="st2" width="0.3" height="3.2"/>
		<polygon class="st2" points="72,-41.2 72.3,-41 72.3,-41.3 72.2,-41.4 		"/>
		<polygon class="st2" points="71.5,-51.9 68.7,-49.6 68.9,-49.4 71.7,-51.7 		"/>
		<polygon class="st2" points="69.3,-61.9 72.3,-62.4 72.3,-62.7 69.3,-62.1 		"/>
		<polygon class="st2" points="63.9,-61.1 61.7,-62.9 61.5,-62.7 63.7,-60.9 		"/>
		<rect x="69.1" y="-45.1" class="st2" width="3" height="0.3"/>
		<rect x="57.2" y="-17.8" transform="matrix(0.828 -0.5607 0.5607 0.828 18.8888 29.3819)" class="st2" width="0.3" height="3.4"/>
		<rect x="27.3" y="-16.2" transform="matrix(0.8423 -0.5391 0.5391 0.8423 12.2878 12.4925)" class="st2" width="0.3" height="3"/>
		<polygon class="st2" points="43.3,-11.5 45.1,-8.8 45.3,-9 43.5,-11.7 		"/>
		<polygon class="st2" points="69.5,-70 68.8,-72 68.5,-72 69.2,-69.8 		"/>
		<polygon class="st2" points="62.9,-69.7 63.4,-72 63.1,-72 62.6,-69.7 		"/>
		<rect x="56.2" y="-48.3" transform="matrix(0.828 -0.5607 0.5607 0.828 35.8183 23.5757)" class="st2" width="0.3" height="3.4"/>
		<rect x="48" y="-19.9" transform="matrix(0.837 -0.5472 0.5472 0.837 17.8586 23.3579)" class="st2" width="0.3" height="3.1"/>
		<polygon class="st2" points="48.5,-70.9 48.5,-72 48.2,-72 48.2,-70.9 		"/>
		<polygon class="st2" points="42.8,-67.7 41,-70.4 40.8,-70.2 42.6,-67.5 		"/>
		<polygon class="st2" points="31.2,-70.1 32.5,-72 32.1,-72 31,-70.3 		"/>
		<polygon class="st2" points="53.1,-38.2 50.7,-40.9 50.5,-40.7 52.9,-38 		"/>
		<polygon class="st2" points="17.7,-70.5 16.7,-72 16.4,-72 17.5,-70.3 		"/>
		
			<rect x="7.9" y="-68.9" transform="matrix(0.2095 -0.9778 0.9778 0.2095 75.2095 -44.5694)" class="st2" width="4.3" height="0.3"/>
		<polygon class="st2" points="3.6,-71.3 4.1,-72 3.7,-72 3.4,-71.5 		"/>
		
			<rect x="25.9" y="-68.8" transform="matrix(3.318484e-02 -0.9994 0.9994 3.318484e-02 95.0917 -38.8988)" class="st2" width="3" height="0.3"/>
		<rect x="9.2" y="-8" transform="matrix(0.3943 -0.919 0.919 0.3943 11.2167 4.9188)" class="st2" width="0.3" height="3.8"/>
		
			<rect x="3.3" y="-19.3" transform="matrix(9.048260e-02 -0.9959 0.9959 9.048260e-02 23.5643 -12.4975)" class="st2" width="3.3" height="0.3"/>
		<polygon class="st2" points="9.7,-47.6 8.2,-43.9 8.4,-43.7 9.9,-47.4 		"/>
		<rect x="4.5" y="-36.5" transform="matrix(0.501 -0.8654 0.8654 0.501 34.8395 -12.3726)" class="st2" width="4.4" height="0.3"/>
		<rect x="26.7" y="-5.9" transform="matrix(0.677 -0.736 0.736 0.677 13.4171 19.0735)" class="st2" width="3.4" height="0.3"/>
		<polygon class="st2" points="33.7,-4.6 33.9,-4.4 37.2,-7.2 37,-7.4 		"/>
		<rect x="52" y="-7.4" transform="matrix(0.5297 -0.8482 0.8482 0.5297 29.2096 41.6799)" class="st2" width="0.3" height="3.8"/>
		<polygon class="st2" points="50.7,-13.7 52.7,-10.4 52.9,-10.6 50.9,-13.9 		"/>
		<polygon class="st2" points="59.7,-9.2 64.7,-6.9 64.9,-7.1 59.9,-9.4 		"/>
		<polygon class="st2" points="64.7,-14.4 67.2,-12.7 67.4,-12.9 64.9,-14.6 		"/>
		<rect x="18.9" y="-7.8" class="st2" width="0.3" height="3"/>
		<rect x="12.8" y="-10.2" transform="matrix(0.9887 -0.1498 0.1498 0.9887 1.6686 2.0499)" class="st2" width="3.3" height="0.3"/>
		<polygon class="st2" points="20.1,-14.3 20.4,-14.3 20.9,-17.5 20.6,-17.5 		"/>
		<polygon class="st2" points="21.3,-9.7 24.8,-8.9 24.8,-9.1 21.3,-9.9 		"/>
		<rect x="9.3" y="-20.7" transform="matrix(0.8036 -0.5952 0.5952 0.8036 14.3504 2.4848)" class="st2" width="3.4" height="0.3"/>
		
			<rect x="5.9" y="-62.1" transform="matrix(7.474153e-02 -0.9972 0.9972 7.474153e-02 69.1731 -49.4483)" class="st2" width="4" height="0.3"/>
		<rect x="7" y="-54.7" transform="matrix(0.6607 -0.7507 0.7507 0.6607 43.8985 -11.9875)" class="st2" width="3.3" height="0.3"/>
		<polygon class="st2" points="21.7,-65.7 21.5,-65.9 19,-62.4 19.2,-62.2 		"/>
		<rect x="27.3" y="-29.5" transform="matrix(0.812 -0.5837 0.5837 0.812 22.5837 11.3058)" class="st2" width="3.1" height="0.3"/>
		
			<rect x="56.5" y="-34.6" transform="matrix(0.4722 -0.8815 0.8815 0.4722 59.0506 32.5281)" class="st2" width="0.3" height="3.2"/>
		<polygon class="st2" points="23.3,-39.2 27.1,-39.9 27.1,-40.1 23.3,-39.4 		"/>
		<polygon class="st2" points="31.7,-49.4 31.9,-49.6 29.9,-51.1 29.7,-50.9 		"/>
		
			<rect x="27.8" y="-62.1" transform="matrix(0.6318 -0.7751 0.7751 0.6318 57.104 -0.5814)" class="st2" width="0.3" height="3.5"/>
		<polygon class="st2" points="30.5,-64.6 30.7,-64.4 32.7,-65.7 32.5,-65.9 		"/>
		<rect x="26.8" y="-54.9" class="st2" width="3" height="0.3"/>
		<rect x="37.3" y="-20" transform="matrix(0.8116 -0.5843 0.5843 0.8116 18.9456 18.9428)" class="st2" width="3.1" height="0.3"/>
		<rect x="39.8" y="-24.4" class="st2" width="3" height="0.3"/>
		<rect x="38" y="-32.6" transform="matrix(0.5407 -0.8412 0.8412 0.5407 43.5316 17.9339)" class="st2" width="0.3" height="3.3"/>
		<rect x="37.1" y="-43.9" transform="matrix(0.27 -0.9629 0.9629 0.27 70.1867 5.0745)" class="st2" width="2.6" height="0.3"/>
		
			<rect x="37.8" y="-52.6" transform="matrix(0.6318 -0.7751 0.7751 0.6318 53.4222 10.6675)" class="st2" width="0.3" height="3.5"/>
		<rect x="38.6" y="-60.6" transform="matrix(0.515 -0.8572 0.8572 0.515 69.732 4.4406)" class="st2" width="0.3" height="2.3"/>
		<rect x="60.3" y="-44.6" class="st2" width="3" height="0.3"/>
		<rect x="23.7" y="-45.4" transform="matrix(0.5837 -0.812 0.812 0.5837 45.5697 1.0818)" class="st2" width="0.3" height="3.1"/>
		<rect x="27.3" y="-20.6" class="st2" width="3" height="0.3"/>
		<rect x="16.2" y="-37.2" transform="matrix(0.5629 -0.8265 0.8265 0.5629 36.6063 -2.0765)" class="st2" width="0.3" height="3"/>
		<rect x="12.3" y="-40.1" class="st2" width="3" height="0.3"/>
		
			<rect x="15.3" y="-46.8" transform="matrix(0.8462 -0.5328 0.5328 0.8462 27.4614 1.8524)" class="st2" width="3.2" height="0.3"/>
		<rect x="47.4" y="-32.4" transform="matrix(0.848 -0.53 0.53 0.848 24.5096 20.9569)" class="st2" width="2.8" height="0.3"/>
		<polygon class="st2" points="47.8,-25.6 48,-25.4 50.4,-27.2 50.2,-27.4 		"/>
		<polygon class="st2" points="54.6,-24.5 54.8,-21.5 55.1,-21.5 54.9,-24.5 		"/>
		
			<rect x="47" y="-67.2" transform="matrix(3.255602e-02 -0.9995 0.9995 3.255602e-02 111.2687 -16.3477)" class="st2" width="0.3" height="3"/>
		<rect x="47.7" y="-62.1" transform="matrix(0.637 -0.7709 0.7709 0.637 64.1195 14.8619)" class="st2" width="0.3" height="3"/>
		
			<rect x="54.2" y="-58.9" transform="matrix(0.9424 -0.3344 0.3344 0.9424 22.2747 14.8764)" class="st2" width="0.3" height="3.3"/>
		
			<rect x="45.8" y="-44.5" transform="matrix(0.8116 -0.5843 0.5843 0.8116 34.8617 19.2924)" class="st2" width="3.1" height="0.3"/>
		<polygon class="st2" points="48.3,-50.9 48.2,-51.1 45,-50.1 45.1,-49.9 		"/>
		
			<rect x="55.8" y="-67.2" transform="matrix(0.5335 -0.8458 0.8458 0.5335 81.6224 16.6884)" class="st2" width="0.3" height="3.2"/>
		<rect x="63.3" y="-41.7" transform="matrix(0.533 -0.8461 0.8461 0.533 63.6008 34.9275)" class="st2" width="0.3" height="3.2"/>
		<polygon class="st2" points="62.7,-52.1 60.7,-53.6 60.5,-53.4 62.5,-51.9 		"/>
		
			<rect x="21.3" y="-31.2" transform="matrix(3.211952e-02 -0.9995 0.9995 3.211952e-02 50.3859 -7.2687)" class="st2" width="0.3" height="3.1"/>
		<rect x="21.9" y="-26.2" transform="matrix(0.6208 -0.784 0.784 0.6208 27.7014 7.9707)" class="st2" width="0.3" height="3.1"/>
		<rect x="59.3" y="-30.2" transform="matrix(0.217 -0.9762 0.9762 0.217 74.6535 35.4733)" class="st2" width="0.3" height="2.8"/>
		<polygon class="st2" points="15.9,-59 15.6,-59 15.1,-55.8 15.4,-55.8 		"/>
		<polygon class="st2" points="20.8,-53.1 17.3,-53.9 17.3,-53.7 20.8,-52.9 		"/>
		<rect x="34.9" y="-15.2" transform="matrix(0.1724 -0.985 0.985 0.1724 41.9924 23.6818)" class="st2" width="0.3" height="4.1"/>
		<polygon class="st2" points="34.4,-37 34.1,-37 33.6,-33.5 33.9,-33.5 		"/>
		<polygon class="st2" points="62.2,-21.9 62.4,-21.7 64.9,-22.9 64.7,-23.1 		"/>
		<polygon class="st2" points="13.7,-16.2 13.5,-16.4 10.2,-13.6 10.4,-13.4 		"/>
		
			<rect x="2.3" y="-30.5" transform="matrix(0.8116 -0.5843 0.5843 0.8116 18.4851 -3.4849)" class="st2" width="3.1" height="0.3"/>
		<polygon class="st2" points="14,-25.4 16,-23.9 16.2,-24.1 14.2,-25.6 		"/>
		
			<rect x="40.9" y="-3.6" transform="matrix(0.5755 -0.8178 0.8178 0.5755 20.8788 33.3242)" class="st2" width="3.3" height="0.3"/>
		<polygon class="st2" points="66.8,-32.5 65,-35.2 64.8,-35 66.6,-32.3 		"/>
		<polygon class="st2" points="33.9,-26.3 34.6,-23.5 34.9,-23.5 34.2,-26.3 		"/>
		<polygon class="st2" points="21.1,-56 21.4,-56 20.7,-58.8 20.4,-58.8 		"/>
		<polygon class="st2" points="30,-44.2 32,-42.7 32.2,-42.9 30.2,-44.4 		"/>
		<polygon class="st2" points="5.6,-52.1 1.8,-51.4 1.8,-51.2 5.6,-51.9 		"/>
		
			<rect x="67.6" y="-57.7" transform="matrix(0.8364 -0.5481 0.5481 0.8364 41.7493 27.976)" class="st2" width="0.3" height="3.5"/>
		<polygon class="st2" points="24.1,-36 24.8,-33.2 25.1,-33.2 24.4,-36 		"/>
		<polygon class="st2" points="45.2,-37.1 43.2,-38.6 43,-38.4 45,-36.9 		"/>
		<polygon class="st2" points="57.9,-71.1 57.3,-72 56.9,-72 57.7,-70.9 		"/>
		<polygon class="st2" points="1.6,-7.1 0.3,-7.5 0.3,-7.2 1.6,-6.9 		"/>
		<polygon class="st2" points="0.3,-19 0.3,-18.8 0.4,-18.9 		"/>
		<rect x="0.3" y="-24.1" class="st2" width="2.8" height="0.3"/>
		<polygon class="st2" points="2.2,-39.9 0.3,-41.3 0.3,-41 2,-39.7 		"/>
		<polygon class="st2" points="1.6,-62.9 0.3,-62.7 0.3,-62.4 1.6,-62.7 		"/>
		<polygon class="st2" points="68.1,-0.8 68.5,0 68.8,0 68.4,-1 		"/>
		<polygon class="st2" points="63.3,-1 63.1,0 63.4,0 63.6,-1 		"/>
		<polygon class="st2" points="48,-1.9 48.2,0 48.5,0 48.3,-1.9 		"/>
		<polygon class="st2" points="32.4,-0.4 32.1,0 32.5,0 32.6,-0.2 		"/>
		<polygon class="st2" points="16.2,-0.3 16.4,0 16.7,0 16.4,-0.5 		"/>
		<polygon class="st2" points="5.1,-1.8 3.7,0 4.1,0 5.3,-1.6 		"/>
		<polygon class="st2" points="55.7,-1.9 56.9,0 57.3,0 55.9,-2.1 		"/>
	</g>
</pattern>
<title>StepsMemphis</title>
<pattern  id="SVGID_1_" xlink:href="#PAtternbastard" patternTransform="matrix(5 0 0 5 28721.4902 34153.7461)">
</pattern>
<path class="st3" d="M0,553c0-5.1,18.5-20.1,22.3-24.1c8.5-9.1,17-18.2,25.6-27.3c15.7-16.6,31.7-32.9,48-48.9
	c31.3-30.5,64.1-59.4,99.3-85.2c44.4-32.6,87.7-49.8,141.9-60.5c56.7-11.2,115-13.9,172.6-9.8c96.3,6.7,220.1,28.2,310.2,62.2
	c99.5,37.6,172.8-4.9,274-3c53.6,1,105.3,16.2,154.5,36.4c35.9,14.7,70.8,31.8,106.1,48c74.2,33.9,150.3,64,230.8,79.2
	c49.9,9.5,100.9,13.3,151.7,11.1c65.8-2.9,128-16,167.5-38.3l-0.3-474.3c-61-19.3-128.6-26.7-194.1-5.8
	C1512.1,75.5,1142,366,845,281S395,74,239,107C135.9,128.8,0,246.4,0,246.4S0,552.9,0,553z"/>
<rect x="892.9" y="-509.3" class="st4" width="0.2" height="0.3"/>
<polygon class="st4" points="893,-526.5 892.8,-526.3 893.1,-526.1 893.1,-526.5 "/>
<polygon class="st4" points="896,-497.8 898.8,-495.8 899,-496 896.2,-498 "/>
<rect x="896.1" y="-554.5" transform="matrix(0.6163 -0.7875 0.7875 0.6163 779.41 493.6227)" class="st4" width="0.3" height="2.9"/>
<polygon class="st4" points="963.1,-492.8 965.1,-492.3 965.1,-492.6 963.1,-493.1 "/>
<polygon class="st4" points="962.5,-505.5 965,-503.8 965.1,-503.9 965.1,-504.1 962.7,-505.7 "/>
<rect x="964.9" y="-509.3" class="st4" width="0.2" height="0.3"/>
<rect x="961.7" y="-515.9" transform="matrix(0.8458 -0.5335 0.5335 0.8458 423.7043 434.371)" class="st4" width="3.2" height="0.3"/>
<polygon class="st4" points="964.8,-526.3 965.1,-526.1 965.1,-526.5 965,-526.5 "/>
<polygon class="st4" points="964.3,-537 961.5,-534.7 961.7,-534.5 964.5,-536.8 "/>
<polygon class="st4" points="962.1,-547 965.1,-547.5 965.1,-547.8 962.1,-547.3 "/>
<polygon class="st4" points="956.7,-546.2 954.5,-548 954.3,-547.8 956.5,-546 "/>
<rect x="961.9" y="-530.3" class="st4" width="3" height="0.3"/>
<rect x="948.5" y="-501.4" transform="matrix(0.5607 -0.828 0.828 0.5607 832.4247 566.5655)" class="st4" width="3.4" height="0.3"/>
<rect x="918.8" y="-500" transform="matrix(0.5391 -0.8423 0.8423 0.5391 845.2159 544.7368)" class="st4" width="3" height="0.3"/>
<polygon class="st4" points="936.1,-496.6 937.9,-493.9 938.1,-494.1 936.3,-496.8 "/>
<polygon class="st4" points="962.4,-555.1 961.6,-557.1 961.3,-557.1 962.1,-555 "/>
<polygon class="st4" points="955.8,-554.8 956.3,-557.1 955.9,-557.1 955.5,-554.9 "/>
<rect x="947.5" y="-531.9" transform="matrix(0.5607 -0.828 0.828 0.5607 857.2399 552.339)" class="st4" width="3.4" height="0.3"/>
<rect x="939.4" y="-503.6" transform="matrix(0.5472 -0.837 0.837 0.5472 847.484 559.6422)" class="st4" width="3.1" height="0.3"/>
<polygon class="st4" points="941.4,-556 941.3,-557.1 941,-557.1 941.1,-556 "/>
<polygon class="st4" points="935.6,-552.8 933.8,-555.5 933.6,-555.3 935.4,-552.6 "/>
<polygon class="st4" points="924,-555.2 925.3,-557.1 924.9,-557.1 923.8,-555.4 "/>
<polygon class="st4" points="945.9,-523.3 943.5,-526 943.3,-525.8 945.7,-523.1 "/>
<polygon class="st4" points="910.5,-555.6 909.6,-557.1 909.2,-557.1 910.3,-555.4 "/>
<rect x="902.7" y="-556.1" transform="matrix(0.9778 -0.2095 0.2095 0.9778 136.0813 176.856)" class="st4" width="0.3" height="4.3"/>
<polygon class="st4" points="896.4,-556.4 896.9,-557.1 896.6,-557.1 896.2,-556.6 "/>
<rect x="920.1" y="-555.2" transform="matrix(0.9994 -3.318484e-02 3.318484e-02 0.9994 18.8821 30.2338)" class="st4" width="0.3" height="3"/>
<rect x="900.3" y="-491.3" transform="matrix(0.919 -0.3943 0.3943 0.919 266.7726 315.9377)" class="st4" width="3.8" height="0.3"/>
<rect x="897.6" y="-505.9" transform="matrix(0.9959 -9.048260e-02 9.048260e-02 0.9959 49.3106 79.1635)" class="st4" width="0.3" height="3.3"/>
<polygon class="st4" points="902.5,-532.7 901,-529 901.3,-528.9 902.8,-532.6 "/>
<rect x="899.4" y="-523.7" transform="matrix(0.8654 -0.501 0.501 0.8654 382.3533 380.5056)" class="st4" width="0.3" height="4.4"/>
<rect x="921.1" y="-492.6" transform="matrix(0.736 -0.677 0.677 0.736 575.585 494.1084)" class="st4" width="0.3" height="3.4"/>
<polygon class="st4" points="926.5,-489.7 926.7,-489.5 930,-492.3 929.8,-492.5 "/>
<rect x="943.1" y="-490.8" transform="matrix(0.8482 -0.5297 0.5297 0.8482 403.3581 426.094)" class="st4" width="3.8" height="0.3"/>
<polygon class="st4" points="943.5,-498.8 945.5,-495.5 945.7,-495.7 943.7,-499 "/>
<polygon class="st4" points="952.6,-494.3 957.6,-492 957.7,-492.3 952.7,-494.6 "/>
<polygon class="st4" points="957.5,-499.5 960,-497.8 960.2,-498 957.7,-499.7 "/>
<rect x="911.8" y="-492.9" class="st4" width="0.3" height="3"/>
<rect x="907.1" y="-496.8" transform="matrix(0.1498 -0.9887 0.9887 0.1498 1260.9282 476.0346)" class="st4" width="0.3" height="3.3"/>
<polygon class="st4" points="913,-499.4 913.3,-499.4 913.8,-502.6 913.5,-502.6 "/>
<polygon class="st4" points="914.1,-494.8 917.6,-494 917.6,-494.3 914.1,-495.1 "/>
<rect x="903.6" y="-507.3" transform="matrix(0.5952 -0.8036 0.8036 0.5952 772.152 521.5677)" class="st4" width="0.3" height="3.4"/>
<rect x="900.6" y="-549.1" transform="matrix(0.9972 -7.474153e-02 7.474153e-02 0.9972 43.4124 65.7941)" class="st4" width="0.3" height="4"/>
<rect x="901.4" y="-541.3" transform="matrix(0.7507 -0.6607 0.6607 0.7507 581.3028 461.0458)" class="st4" width="0.3" height="3.3"/>
<polygon class="st4" points="914.5,-550.8 914.3,-551 911.8,-547.5 912,-547.3 "/>
<rect x="921.5" y="-516.1" transform="matrix(0.5837 -0.812 0.812 0.5837 801.462 534.1658)" class="st4" width="0.3" height="3.1"/>
<rect x="947.9" y="-518.3" transform="matrix(0.8815 -0.4722 0.4722 0.8815 357.2555 386.9839)" class="st4" width="3.2" height="0.3"/>
<polygon class="st4" points="916.1,-524.3 919.9,-525 919.9,-525.3 916.1,-524.6 "/>
<polygon class="st4" points="924.5,-534.5 924.7,-534.7 922.7,-536.2 922.5,-536 "/>
<rect x="919" y="-545.7" transform="matrix(0.7751 -0.6318 0.6318 0.7751 551.736 459.0758)" class="st4" width="3.5" height="0.3"/>
<polygon class="st4" points="923.3,-549.8 923.5,-549.5 925.5,-550.8 925.3,-551 "/>
<rect x="919.6" y="-540.1" class="st4" width="3" height="0.3"/>
<rect x="931.5" y="-506.6" transform="matrix(0.5843 -0.8116 0.8116 0.5843 797.1865 546.1478)" class="st4" width="0.3" height="3.1"/>
<rect x="932.6" y="-509.6" class="st4" width="3" height="0.3"/>
<rect x="929.3" y="-516.2" transform="matrix(0.8412 -0.5407 0.5407 0.8412 426.8923 421.4881)" class="st4" width="3.3" height="0.3"/>
<rect x="931.1" y="-530.2" transform="matrix(0.9629 -0.27 0.27 0.9629 177.3764 231.7926)" class="st4" width="0.3" height="2.6"/>
<rect x="929" y="-536.2" transform="matrix(0.7751 -0.6318 0.6318 0.7751 547.9826 467.5304)" class="st4" width="3.5" height="0.3"/>
<rect x="930.4" y="-544.7" transform="matrix(0.8572 -0.515 0.515 0.8572 413.4458 402.0026)" class="st4" width="2.3" height="0.3"/>
<rect x="953.1" y="-529.8" class="st4" width="3" height="0.3"/>
<rect x="915.1" y="-529.2" transform="matrix(0.812 -0.5837 0.5837 0.812 481.1559 435.5856)" class="st4" width="3.1" height="0.3"/>
<rect x="920.1" y="-505.8" class="st4" width="3" height="0.3"/>
<rect x="907.7" y="-520.9" transform="matrix(0.8265 -0.5629 0.5629 0.8265 450.8983 421.4452)" class="st4" width="3" height="0.3"/>
<rect x="905.1" y="-525.3" class="st4" width="3" height="0.3"/>
<rect x="909.6" y="-533.4" transform="matrix(0.5328 -0.8462 0.8462 0.5328 875.0139 521.4335)" class="st4" width="0.3" height="3.2"/>
<rect x="941.5" y="-518.8" transform="matrix(0.53 -0.848 0.848 0.53 881.272 555.3192)" class="st4" width="0.3" height="2.8"/>
<polygon class="st4" points="940.6,-510.7 940.8,-510.5 943.2,-512.3 943,-512.5 "/>
<polygon class="st4" points="947.5,-509.6 947.7,-506.6 948,-506.6 947.8,-509.6 "/>
<rect x="938.5" y="-550.9" transform="matrix(0.9995 -3.255602e-02 3.255602e-02 0.9995 18.4293 30.3111)" class="st4" width="3" height="0.3"/>
<rect x="939.2" y="-545.9" transform="matrix(0.7709 -0.637 0.637 0.7709 563.1867 474.1419)" class="st4" width="3" height="0.3"/>
<rect x="945.5" y="-542.5" transform="matrix(0.3344 -0.9424 0.9424 0.3344 1141.5516 531.6383)" class="st4" width="3.3" height="0.3"/>
<rect x="940" y="-531.1" transform="matrix(0.5843 -0.8116 0.8116 0.5843 820.6036 542.8606)" class="st4" width="0.3" height="3.1"/>
<polygon class="st4" points="941.2,-536 941.1,-536.3 937.9,-535.3 938,-535 "/>
<rect x="947.2" y="-550.9" transform="matrix(0.8458 -0.5335 0.5335 0.8458 440.141 421.2381)" class="st4" width="3.2" height="0.3"/>
<rect x="954.7" y="-525.4" transform="matrix(0.8461 -0.533 0.533 0.8461 427.0888 428.8366)" class="st4" width="3.2" height="0.3"/>
<polygon class="st4" points="955.5,-537.2 953.5,-538.7 953.3,-538.5 955.3,-537 "/>
<rect x="912.7" y="-514.9" transform="matrix(0.9995 -3.211952e-02 3.211952e-02 0.9995 17.006 29.1001)" class="st4" width="3.1" height="0.3"/>
<rect x="913.4" y="-509.9" transform="matrix(0.784 -0.6208 0.6208 0.784 514.1136 457.8499)" class="st4" width="3.1" height="0.3"/>
<rect x="950.9" y="-514.1" transform="matrix(0.9762 -0.217 0.217 0.9762 134.2298 194.4152)" class="st4" width="2.8" height="0.3"/>
<polygon class="st4" points="908.8,-544.1 908.5,-544.1 908,-540.9 908.3,-540.9 "/>
<polygon class="st4" points="913.6,-538.3 910.1,-539.1 910.1,-538.8 913.6,-538 "/>
<rect x="925.9" y="-498.4" transform="matrix(0.985 -0.1724 0.1724 0.985 99.8139 152.5344)" class="st4" width="4.1" height="0.3"/>
<polygon class="st4" points="927.3,-522.1 927,-522.1 926.5,-518.6 926.8,-518.6 "/>
<polygon class="st4" points="955,-507.1 955.2,-506.8 957.7,-508 957.5,-508.3 "/>
<polygon class="st4" points="906.5,-501.3 906.3,-501.5 903,-498.7 903.2,-498.5 "/>
<rect x="896.5" y="-517.1" transform="matrix(0.5843 -0.8116 0.8116 0.5843 791.1571 513.3779)" class="st4" width="0.3" height="3.1"/>
<polygon class="st4" points="906.8,-510.5 908.8,-509 909,-509.2 907,-510.7 "/>
<rect x="935.2" y="-490.2" transform="matrix(0.8178 -0.5755 0.5755 0.8178 451.6136 449.2935)" class="st4" width="0.3" height="3.3"/>
<polygon class="st4" points="959.6,-517.6 957.8,-520.3 957.6,-520.1 959.4,-517.4 "/>
<polygon class="st4" points="926.8,-511.4 927.5,-508.6 927.8,-508.7 927.1,-511.5 "/>
<polygon class="st4" points="914,-541.1 914.3,-541.2 913.6,-544 913.3,-543.9 "/>
<polygon class="st4" points="922.8,-529.3 924.8,-527.8 925,-528 923,-529.5 "/>
<polygon class="st4" points="898.4,-537.3 894.6,-536.6 894.6,-536.3 898.4,-537 "/>
<rect x="958.8" y="-541.2" transform="matrix(0.5481 -0.8364 0.8364 0.5481 886.6161 558.9147)" class="st4" width="3.5" height="0.3"/>
<polygon class="st4" points="917,-521.1 917.7,-518.3 918,-518.4 917.3,-521.2 "/>
<polygon class="st4" points="938,-522.2 936,-523.7 935.8,-523.5 937.8,-522 "/>
<polygon class="st4" points="950.7,-556.2 950.1,-557.1 949.8,-557.1 950.5,-556 "/>
<polygon class="st4" points="894.4,-492.3 893.1,-492.6 893.1,-492.3 894.4,-492 "/>
<polygon class="st4" points="893.1,-504.1 893.1,-503.9 893.2,-504 "/>
<rect x="893.1" y="-509.3" class="st4" width="2.8" height="0.3"/>
<polygon class="st4" points="895,-525 893.1,-526.5 893.1,-526.1 894.8,-524.8 "/>
<polygon class="st4" points="894.4,-548.1 893.1,-547.8 893.1,-547.5 894.4,-547.8 "/>
<polygon class="st4" points="961,-486 961.3,-485.1 961.6,-485.1 961.3,-486.1 "/>
<polygon class="st4" points="956.2,-486.2 955.9,-485.1 956.3,-485.1 956.5,-486.1 "/>
<polygon class="st4" points="940.9,-487 941,-485.1 941.3,-485.1 941.2,-487 "/>
<polygon class="st4" points="925.2,-485.5 924.9,-485.1 925.3,-485.1 925.4,-485.3 "/>
<polygon class="st4" points="909,-485.4 909.2,-485.1 909.6,-485.1 909.2,-485.6 "/>
<polygon class="st4" points="897.9,-486.9 896.6,-485.1 896.9,-485.1 898.1,-486.7 "/>
<polygon class="st4" points="948.5,-487 949.8,-485.1 950.1,-485.1 948.7,-487.2 "/>
</svg>
