<svg id="Layer_1" data-name="Layer 1" xmlns="http://www.w3.org/2000/svg" xmlns:xlink="http://www.w3.org/1999/xlink" viewBox="0 0 949.1 593.02"><defs><style>.cls-1,.cls-19,.cls-26,.cls-28{fill:#35296f;}.cls-1,.cls-22,.cls-27{opacity:0.3;}.cls-1,.cls-19,.cls-21,.cls-22,.cls-24,.cls-25,.cls-26,.cls-27,.cls-28{isolation:isolate;}.cls-2{fill:#fff;}.cls-16,.cls-2{stroke:#3482a1;stroke-width:11px;}.cls-14,.cls-16,.cls-2,.cls-27{stroke-miterlimit:10;}.cls-3{fill:url(#linear-gradient);}.cls-4{fill:url(#linear-gradient-2);}.cls-5{fill:url(#linear-gradient-3);}.cls-6{fill:url(#linear-gradient-4);}.cls-7{fill:url(#linear-gradient-5);}.cls-8{fill:url(#linear-gradient-6);}.cls-9{fill:url(#linear-gradient-7);}.cls-10{fill:url(#linear-gradient-8);}.cls-11{fill:#fcd4db;}.cls-12{fill:#45add6;}.cls-13{opacity:0.05;}.cls-14,.cls-16,.cls-17,.cls-27{fill:none;}.cls-14{stroke:#6fdcca;stroke-width:8px;}.cls-15{fill:#503ea7;}.cls-18{fill:#f894a4;}.cls-19,.cls-21{opacity:0.2;}.cls-20{fill:#d2fad6;}.cls-21,.cls-22{fill:#23146b;}.cls-23,.cls-28{opacity:0.5;}.cls-24{fill:#323071;}.cls-24,.cls-25,.cls-26{opacity:0.4;}.cls-25{fill:#796ece;}.cls-27{stroke:#fff;stroke-width:4px;}</style><linearGradient id="linear-gradient" x1="143.92" y1="182.18" x2="151.91" y2="431.94" gradientTransform="translate(-50.4 -129.3)" gradientUnits="userSpaceOnUse"><stop offset="0" stop-color="#f894a4"/><stop offset="0.36" stop-color="#fab1bd"/><stop offset="0.76" stop-color="#fbcad3"/><stop offset="1" stop-color="#fcd4db"/></linearGradient><linearGradient id="linear-gradient-2" x1="186.18" y1="109.46" x2="195.82" y2="410.68" xlink:href="#linear-gradient"/><linearGradient id="linear-gradient-3" x1="96.77" y1="140.31" x2="104.77" y2="390.31" xlink:href="#linear-gradient"/><linearGradient id="linear-gradient-4" x1="227.42" y1="182.18" x2="235.41" y2="431.94" xlink:href="#linear-gradient"/><linearGradient id="linear-gradient-5" x1="275.72" y1="123.91" x2="283.72" y2="373.91" xlink:href="#linear-gradient"/><linearGradient id="linear-gradient-6" x1="319.97" y1="176.67" x2="327.96" y2="426.44" xlink:href="#linear-gradient"/><linearGradient id="linear-gradient-7" x1="371.27" y1="182.17" x2="379.26" y2="431.94" xlink:href="#linear-gradient"/><linearGradient id="linear-gradient-8" x1="423.02" y1="209.31" x2="431.02" y2="459.31" xlink:href="#linear-gradient"/></defs><title>Step2</title><path class="cls-1" d="M739.3,331.1c5.7,3.3-21.3,20-27.1,23.5a365.36,365.36,0,0,0-35.3,24c-5.2,4.1-10.4,8.2-15.7,12.4-4.1,3.4-9.1,6.3-12.1,10.9-.1.1-.1.2-.2.3-3.2,5-3.7,10.7-5.7,16.1-1.8,5.2-4.1,10-5.7,15.3,0,2.3-1.6,5.5-2.3,7.7-.8,2.5-1.8,4.8-2.4,7.4-1.5,6.3-7.1,16.1-7.1,22.5,0,0-13.6-49.3,7.1-81.3S717,318.4,739.3,331.1Z" transform="translate(-50.4 -43.3)"/><path class="cls-2" d="M552.3,48.8H988.5a5.48,5.48,0,0,1,5.5,5.5h0V331.9a5.48,5.48,0,0,1-5.5,5.5H552.3a5.48,5.48,0,0,1-5.5-5.5h0V54.3A5.48,5.48,0,0,1,552.3,48.8Z" transform="translate(-50.4 -43.3)"/><path class="cls-2" d="M61.4,48.8H497.6a5.48,5.48,0,0,1,5.5,5.5h0V331.9a5.48,5.48,0,0,1-5.5,5.5H61.4a5.48,5.48,0,0,1-5.5-5.5h0V54.3A5.55,5.55,0,0,1,61.4,48.8Z" transform="translate(-50.4 -43.3)"/><polygon class="cls-3" points="82.5 121.1 82.5 225.2 112.2 225.2 112.2 120 82.5 121.1"/><polygon class="cls-4" points="125.6 62.6 125.6 188.1 155.2 188.1 155.2 61.1 125.6 62.6"/><polygon class="cls-5" points="35.4 79.4 35.4 183.6 65 183.6 65 78.1 35.4 79.4"/><polygon class="cls-6" points="166 121.1 166 225.2 195.7 225.2 195.7 120 166 121.1"/><polygon class="cls-7" points="214.3 62.9 214.3 167.1 244 167.1 244 61.8 214.3 62.9"/><polygon class="cls-8" points="258.6 115.6 258.6 219.7 288.2 219.7 288.2 114.5 258.6 115.6"/><polygon class="cls-9" points="309.9 121.1 309.9 225.2 339.5 225.2 339.5 120 309.9 121.1"/><polygon class="cls-10" points="361.6 148.3 361.6 252.6 391.3 252.6 391.3 147.1 361.6 148.3"/><path class="cls-1" d="M476.3,330.6a5.63,5.63,0,0,1-4,.8,25.57,25.57,0,0,1-2.4-1.1c-6.8-4.2-13.5-8.4-20.3-12.6a23.92,23.92,0,0,0-5.8-2.8c-3.2-.9-6.6-.1-9.9.6l-12.2,2.7c-3.7.8-7.8,2.3-11.6,2.5-2.7.2-5.4-1.6-8.1-2.2a76.25,76.25,0,0,0-10.8-2c-6.8-.8-13.8-1.1-20.4-3.4-7.7-2.7-14.3-7.8-20.7-12.9-17.1-13.6-33.9-27.7-51.8-40.4a8.79,8.79,0,0,0-1-.6,8.43,8.43,0,0,1-.7-.8s-55.8-66.1-65.1-76.9-14.2-17.7-17.2-52.9c-2.9-17.6-12.1,17.8-12.1,17.8s-5.4,21.9-24.8-22.5c-15.9-36.5-11.9,12.8-8.3,29.7s7.7,18,7.7,18l32.3,25.2s48.4,96.3,54.7,96a6,6,0,0,0,1.1,2.6,132,132,0,0,1,9.3,14.1,51.41,51.41,0,0,0,12.7,13.2,179.83,179.83,0,0,0,17.7,11c1.6,1,3.3,1.9,4.9,2.9q18.9,11.55,36.5,24.7c2.9,2.3,5.7,4.6,8.7,6.8,2,1.5,3.9,1.8,6.1,2.5,6.5,1.9,13.3,3.8,19.3,6.4s11.5,7.1,16.1,11.6a67.51,67.51,0,0,1,17.7,29.7c3.4,12.2,3.3,24.4,3.2,37-.1,14.2,1.5-.2,0,31s.2,80.9,0,88-1.4,41.2,16.8,48.5c13.6,5.4,31.5,10.6,45.7,11.9a53.11,53.11,0,0,0,12.6-.1c14.3-2.3,59.9,2.7,77.1.4L476.9,329.7" transform="translate(-50.4 -43.3)"/><path class="cls-11" d="M554.1,248.9s72.1,17.7,125.2,0,125.2-74.6,172-91.1,83.5-15.2,101.2-11.4,38.3,35.4,38.3,35.4l-6.7,155.5h-430Z" transform="translate(-50.4 -43.3)"/><polygon class="cls-12" points="492.5 282.6 560.2 144.8 607.8 268 630.7 234.2 669.7 271.2 695.2 100.6 741.9 244.3 793.7 153.3 836.2 260.3 879.5 66.4 913.4 239.2 940.6 79.9 943.5 293.3 503.7 294 492.5 282.6"/><polyline class="cls-14" points="496.4 225.2 609.6 272.2 818.7 203 912.3 130.8 943.5 145.6"/><path id="path" class="cls-15" d="M658,101.7A19,19,0,0,1,671.9,96a19.46,19.46,0,0,1,19.7,19.3v.4a23.69,23.69,0,0,1-2,9.4,62.74,62.74,0,0,1-5.1,10c-2,3.1-4,6-5.7,8.9-2,2.9-3.4,4.9-4.8,6.6l-2.3,2.3c-.6-.6-1.1-1.4-2.3-2.5-.9-1.1-2.5-3.1-4.8-6.3s-4.3-6-6-8.9a58.33,58.33,0,0,1-4.8-9.7,29.88,29.88,0,0,1-2.3-9.7A22.09,22.09,0,0,1,658,101.7Zm9.1,19.1a7.57,7.57,0,1,0,.4-10.7,7.41,7.41,0,0,0-2.4,5.6A6.63,6.63,0,0,0,667.1,120.8Z" transform="translate(-50.4 -43.3)"/><path id="path-2" class="cls-15" d="M826,112.3a18.64,18.64,0,0,1,13.9-5.7,19.51,19.51,0,0,1,19.7,19.2h0v.1h0v.4a23.69,23.69,0,0,1-2,9.4,62.74,62.74,0,0,1-5.1,10c-2,3.1-4,6-5.7,8.9-2,2.9-3.4,4.8-4.8,6.6l-2.3,2.3c-.6-.6-1.1-1.4-2.3-2.5-.8-1.1-2.5-3.1-4.8-6.3s-4.3-6-6-8.9a87.39,87.39,0,0,1-4.8-9.7,29.88,29.88,0,0,1-2.3-9.7A21.86,21.86,0,0,1,826,112.3Zm9.1,19.1a7.5,7.5,0,1,0-2-5.1A6.63,6.63,0,0,0,835.1,131.4Z" transform="translate(-50.4 -43.3)"/><path id="path-3" class="cls-15" d="M736.4,201.4a18.64,18.64,0,0,1,13.9-5.7A19.53,19.53,0,0,1,770,215v.4a23.69,23.69,0,0,1-2,9.4,62.74,62.74,0,0,1-5.1,10c-2,3.1-4,6-5.7,8.9-2,2.8-3.4,4.8-4.8,6.6l-2.3,2.3c-.6-.6-1.1-1.4-2.3-2.5-.9-1.1-2.5-3.1-4.8-6.3s-4.3-6-6-8.9a58.33,58.33,0,0,1-4.8-9.7,29.88,29.88,0,0,1-2.3-9.7A22.09,22.09,0,0,1,736.4,201.4Zm9.1,19.1a7.57,7.57,0,1,0,.4-10.7,7.08,7.08,0,0,0-2.4,5.6,7.63,7.63,0,0,0,2,5.1Z" transform="translate(-50.4 -43.3)"/><path class="cls-15" d="M253.9,173.3c-4.5,1.2-8.7,2.4-12.9,3.4a12.92,12.92,0,0,1-3.4.1,3.13,3.13,0,0,1-3.2-2.3,73.23,73.23,0,0,0-3.5-8.1c-1.2-2.4-3.2-3-5.4-1.4a56.79,56.79,0,0,0-5.1,4.7,22.26,22.26,0,0,0-2.6,2.7c-1.3,1.6-2.5,1.4-4.1.3-3.7-2.6-7.6-5-11.5-7.3a1.92,1.92,0,0,1-1.1-2.5h0c.1-.1.1-.3.2-.4l3-6.9c1.5-3.7,1.2-5.6-1.5-7.4a7.56,7.56,0,0,0-3.9-1c-2.6,0-5.1.4-7.7.5a2.09,2.09,0,0,1-1.6-.8c-1.1-2.9-2.2-5.9-3-8.8a51.68,51.68,0,0,1-.7-5.5,3.66,3.66,0,0,1,2.4-4.4,35.17,35.17,0,0,1,5.1-1.9c5.1-1.4,6.5-7.4,2.5-10.7-1.6-1.4-3.1-3-4.7-4.4s-2.1-3-.9-4.8c2.3-3.6,4.7-7.2,7.2-10.7a2.07,2.07,0,0,1,2.6-.9c3.3,1.2,6.6,2.3,9.8,3.5a3.19,3.19,0,0,0,3.1-.5c2.6-1.7,3.4-3.9,2.9-6.9a47,47,0,0,1-.1-7.5,2.47,2.47,0,0,1,1-1.6c4.5-1.2,9-2.4,13.6-3.3,2.5-.5,4.6,1.4,5.3,3.9.5,1.8,1.1,3.7,1.7,5.5.7,2,4.3,4,6.3,3.5.6-.2,1.1-.9,1.6-1.4,1.5-1.8,2.9-3.7,4.5-5.3,2.7-2.8,3.7-3.1,7.3-1.4a47.8,47.8,0,0,1,8,4.4c2.8,2,3.4,4.9,2.1,8-.7,1.5-1.4,3.1-2.2,4.5-.9,1.7-1.4,3.4-.4,5.1a5.35,5.35,0,0,0,5.2,2.8c2.9-.2,5.8-.2,8.8-.2a1.93,1.93,0,0,1,2.1,1.8v.1c1,4.9,2.1,9.7,3,14.6a2.14,2.14,0,0,1-.8,1.7c-2.9,1.5-6,2.8-8.9,4.2a3.7,3.7,0,0,0-1.1.5c-2.3,2.3-1.6,7.5,1,9.5,2.1,1.5,3.9,3.3,5.9,5a1.7,1.7,0,0,1,.4,2.3h0c0,.1-.1.1-.1.2-2.7,4.2-5.4,8.4-8,12.7-.6.9-1.1,1.2-2.2.8-2.5-1.1-5.1-2.1-7.7-3s-5-1-6.9,1.2c-1.4,1.7-1.4,3.9-1.4,6S253.9,170.1,253.9,173.3Zm-8.1-61.9c-10.1-6.1-21.1-4.2-26.9,5.1-6.1,9.7-4.1,21.9,5.1,27.5s20.2,4.1,26.4-5.7c6-9.5,4.4-21.6-4.6-26.9Z" transform="translate(-50.4 -43.3)"/><path class="cls-15" d="M132.7,163.6l-11.1-4.8c-.2-.1-.3-.2-.5-.3-3.2-1.4-3.2-1.4-2.3-4.9a30.25,30.25,0,0,0,1.1-6.7,3.47,3.47,0,0,0-3.1-3.8h-.5a41.87,41.87,0,0,0-7.8,1.1c-1.8.5-2.8-.1-3.4-1.6-1.5-3.5-2.9-7.1-4.3-10.7-.8-2,.6-3.6,2.2-4.6a37.51,37.51,0,0,0,4.4-2.4c3-2.2,3.1-5.7.2-8.1-2-1.6-4.2-2.9-6.2-4.5a2.65,2.65,0,0,1-.8-2.2c1.4-3.6,3-7,4.5-10.5a2.26,2.26,0,0,1,2.7-1.4l.2.1c.1,0,.1,0,.1.1,2.5.7,5.1,1.2,7.7,1.7a4.47,4.47,0,0,0,5.1-3.4,4.3,4.3,0,0,0,0-1.6c-.5-2.9-1.1-5.8-1.8-9.2,2.5-1.1,5-2.4,7.6-3.5a25.42,25.42,0,0,1,4.5-1.3,4.12,4.12,0,0,1,5,2.4,25.91,25.91,0,0,1,1.4,2.9c1.1,2.9,3.1,4.3,6.2,4a3.14,3.14,0,0,0,1.8-1.6c1.2-1.7,2.2-3.6,3.4-5.3a4.15,4.15,0,0,1,5-1.8c3.1.9,6.4,1.4,9,3.7a5.42,5.42,0,0,1,2.1,5.9c-.4,1.5-.9,3-1.4,4.4a4.44,4.44,0,0,0,2.8,5.6,4.12,4.12,0,0,0,2.2.1c2.5-.4,5-.9,7.4-1.3a2.43,2.43,0,0,1,2.7,1.5,34.86,34.86,0,0,1,4.3,11.8,1.84,1.84,0,0,1-.5,1.6,43.83,43.83,0,0,1-6.2,4c-2.3,1.1-2.1,3-2.1,4.9a4.13,4.13,0,0,0,2.5,4c2,1.1,4.1,2.3,6,3.6a2.16,2.16,0,0,1,.5,1.7c-1.6,4-3.4,8-5.2,11.9a2.09,2.09,0,0,1-1.6.8c-2.2-.4-4.4-1.1-6.6-1.5a8.11,8.11,0,0,0-4.1.2c-2,.6-3,2.9-2.6,5.4.4,2.2.8,4.5,1.1,6.7a1.65,1.65,0,0,1-.5,1.5c-3.8,2.3-7.6,4.6-12.2,5a3.16,3.16,0,0,1-3.5-1.7,36.15,36.15,0,0,0-4.1-6.1c-1.6-2.1-3.3-2.2-5.2-.3a29.49,29.49,0,0,0-3.1,3.9A30.39,30.39,0,0,1,132.7,163.6Zm23.1-32.1c5-7.9,3-18.7-4.6-23.1-6.8-3.9-18.7-4.8-24,6.2-3.3,6.7-2.7,17.1,6.9,22.4,6.9,3.8,16.6,2.9,21.7-5.5Z" transform="translate(-50.4 -43.3)"/><path class="cls-15" d="M211.2,176.1c1.2,3.6,2.4,7.1,3.5,10.7a2.54,2.54,0,0,1-.4,1.7,15.81,15.81,0,0,1-8.2,5.5c-1.6.4-1.9,1.4-1.9,2.8-.1,4,2.2,6.6,5.2,8.7,2.6,1.9,2.7,2,1.3,4.7a23.19,23.19,0,0,1-6.8,8.4,1.67,1.67,0,0,1-2.2.1c-2.3-1.3-4.7-2.5-6.9-3.9-3.6-2.2-5.8-.6-7.1,2.4-1,2.5-2.1,5.1-3,7.7a2.93,2.93,0,0,1-3.4,2.2c-.1,0-.2,0-.2-.1-3.3-.6-6.5-1.4-9.8-2.3-.4-.1-.7-1-.8-1.5-.2-2.9-.3-5.7-.5-8.6-.3-4.3-1.3-5-5.5-4.4l-8.6,1.2c-1,.1-1.5,0-1.9-1-1.4-3.7-3-7.3-4.6-11.3,2.8-1.8,5.2-3.8,8.1-5,3.3-1.3,4.1-6.5,1.6-9-1.8-1.8-3.6-3.6-5.2-5.4a1.56,1.56,0,0,1-.4-1.6c2.4-3.1,4.9-6.2,7.4-9.2a1.29,1.29,0,0,1,1.2-.1,46,46,0,0,1,7.2,3.1c4.8,2.9,6.4,1.6,8.5-3,1.1-2.4,2-4.9,3.1-7.2a2.45,2.45,0,0,1,1.7-1.1c2.9.4,5.9.8,8.8,1.4s3.4,1.6,3.3,4.5a42.13,42.13,0,0,0,.2,7.1,4.08,4.08,0,0,0,4.1,3.9h0a1.7,1.7,0,0,0,.7-.1c2.9-.3,5.8-.8,8.7-1.2A22.67,22.67,0,0,1,211.2,176.1Zm-23.4,8.8c-4.6-3-11.6-1.4-14.7,3.4-2.8,4.2-1.3,11,3,13.6,5.1,3.1,12.3,1.6,15.5-2.7C195,194.6,191.9,187.3,187.8,184.9Z" transform="translate(-50.4 -43.3)"/><path class="cls-16" d="M552.3,48.8H988.5a5.48,5.48,0,0,1,5.5,5.5h0V331.9a5.48,5.48,0,0,1-5.5,5.5H552.3a5.48,5.48,0,0,1-5.5-5.5h0V54.3A5.48,5.48,0,0,1,552.3,48.8Z" transform="translate(-50.4 -43.3)"/><line class="cls-17" x1="440.4" y1="475.4" x2="458.3" y2="483.2"/><path class="cls-18" d="M496.1,330.4a73.13,73.13,0,0,0-7.1-21.1c-2.5-4.9-5-5.4-8-10.5-5-8.5-10.4-21.4-11.4-27.3-2.4-14.4-2.1-60.2,18-67,8.1-10.7,29.3-12.9,45.2-12.9,8.5.6,28.3,11.9,32.8,18.7,25.7,38.4.3,85.6.3,85.6s-8.2,8.2-10,13.5-4.2,15.8-4.2,15.8Z" transform="translate(-50.4 -43.3)"/><path class="cls-19" d="M494.3,322.7a81.19,81.19,0,0,0-5.3-13.4l7.8,8.2,2.1-8,7.5,7.2,6.3-7.3,4.7,8.1,12.1-7.8,2.3,8.3,4.1-8.6,6.6,8.9,1.6-5.2,5.8,3.3,5.3-4.7c-1.2,4.4-2.3,8.9-3.4,13.4h0l-57.7,5.3Z" transform="translate(-50.4 -43.3)"/><path class="cls-20" d="M858.9,161.6s2.2,22.6,27.9-18.8c21.1-34,17.7,4.1,11.6,20.4a79.89,79.89,0,0,1-17.9,27.3L844.9,211S774,312.8,776.4,297.2s-27.1-37.4-27.1-37.4,65-57.8,75.5-67.2,16.5-15.5,24.7-50.2C855,125.2,858.9,161.6,858.9,161.6Z" transform="translate(-50.4 -43.3)"/><path class="cls-20" d="M221.4,126c3.1,35.5,8,42.4,17.2,53.3s65.1,77.4,65.1,77.4,1.7,1.7,1.4,1.9c-3.7,2.1-33.7,16.5-33.6,31.3.1,15.8-55.3-95.1-55.3-95.1l-32.3-25.4s-4.1-1.1-7.7-18.1-7.6-66.7,8.3-29.9c19.4,44.7,24.8,22.7,24.8,22.7S218.5,108.3,221.4,126Z" transform="translate(-50.4 -43.3)"/><path class="cls-15" d="M644.2,400.4c-.1.1-.1.2-.2.3-3.2,5-3.7,10.8-5.7,16.2-1.8,5.2-3.2,10.5-4.8,15.9,0,2.3-1.6,5.6-2.3,7.7-.8,2.5-1.8,4.9-2.4,7.5-1.5,6.4-1,12.5-1,18.9V571.7a169.23,169.23,0,0,0,0,30.2c1.5,15.8-34.3,31.5-51.6,33.8s-62.8-2.7-77.1-.5a48.32,48.32,0,0,1-12.6.1c-14.2-1.4-32.1-6.6-45.7-12-18.2-7.3-17-41.6-16.8-48.8s-1.5-57.1,0-88.5-.1-16.9,0-31.2c.1-12.6.2-24.9-3.2-37.2a67.61,67.61,0,0,0-17.7-29.9c-4.6-4.5-10.1-9-16.1-11.7s-12.8-4.5-19.3-6.5c-2.3-.7-4.1-1-6.1-2.5-3-2.2-5.8-4.5-8.7-6.8q-17.55-13.2-36.5-24.8c-1.6-1-3.3-1.9-4.9-3a202,202,0,0,1-17.7-11.1A50.26,50.26,0,0,1,281.1,308a144.27,144.27,0,0,0-9.3-14.2c-7.4-9.3,19.4-45.9,33.4-35.8,17.9,12.8,34.7,27,51.8,40.7,6.5,5.1,13,10.3,20.7,13,6.6,2.3,13.6,2.6,20.4,3.4a102.31,102.31,0,0,1,10.8,2c2.6.7,5.3,2.5,8,2.3,3.7-.2,7.8-1.7,11.6-2.5l12.2-2.7c3.3-.7,6.7-1.5,9.9-.6a25.84,25.84,0,0,1,5.8,2.8c6.8,4.2,13.5,8.5,20.3,12.7a8.81,8.81,0,0,0,2.4,1.1,5.17,5.17,0,0,0,4-.8c5.2-3.3,9.4-6.9,15.5-8.6a55.27,55.27,0,0,1,17.2-1.6c5.3.2,10.5.3,15.9.3,4,0,7.9.3,11.9.3,3.4,0,7.3-1.7,10.5.2a10.3,10.3,0,0,1,2.6,2.5c4.3,5.3,8,11.5,9.1,18.3,0-1.1,6-4.9,7.2-5.8,2.8-2.1,5.7-4.2,8.6-6.1,4.9-3.2,9.8-7.7,15.7-8.8,5-.9,10,.2,15,.5,3,.1,6.7,1.1,9.5.6l51.6-10.1,34.4-25.9,54.5-37.4,32.4,31.3c.6.6-7.5,10.4-7.9,11.5-2.5,6-3.9,7.8-8.3,12.9a79.17,79.17,0,0,1-10.9,9.9c-8,6.2-16.2,12.4-24.6,18.3-5.7,4-11.7,9.3-18.3,11.7-6.2,2.2-11.9,5.8-17.7,9.3a350,350,0,0,0-35.3,24.2c-5.2,4.1-10.4,8.3-15.7,12.5C652.3,392.8,647.3,395.7,644.2,400.4Z" transform="translate(-50.4 -43.3)"/><path class="cls-21" d="M497.8,495.1c0-6-19.8-20.4-18.1-31.4,1.8-11.9,23.1-22.2,21.1-35-1.5-9.4-19.2-9.6-22.8-17.9-2.3-5.3,24.4-39.8,21-44.2-7.9-10.4-33.3,2.6-48.8.2-76-11.9-158.7-90.8-158.7-90.8l-8.7-9.6c-8.7,9.3-14.9,22.6-10.8,27.5a133.33,133.33,0,0,1,9.3,14.2A51.41,51.41,0,0,0,294,321.3a180.77,180.77,0,0,0,17.7,11.1c1.6,1,3.3,1.9,4.9,3q18.9,11.55,36.5,24.8c3,2.3,5.8,4.6,8.7,6.8,2,1.5,3.9,1.8,6.1,2.5,6.5,1.9,13.2,3.7,19.3,6.5a56.91,56.91,0,0,1,16.1,11.7A68.16,68.16,0,0,1,421,417.6c3.4,12.2,3.3,24.6,3.2,37.2-.1,14.3,1.5-.3,0,31.2s.1,81.4,0,88.6-1.4,41.5,16.8,48.8c13.6,5.4,31.5,10.7,45.7,12a53.11,53.11,0,0,0,12.6-.1c2.4-.3,5.5-.6,11-5.5,0,0-17.6-13.6-18-21.1s14-18.7,13.8-27.3-28.4-36.2-28.1-44.9S497.8,501.1,497.8,495.1Z" transform="translate(-50.4 -43.3)"/><path class="cls-22" d="M743.2,331.8c-5.7,4-11.7,9.3-18.3,11.7-6.2,2.2-11.9,5.8-17.7,9.3A350,350,0,0,0,671.9,377l-12.8,10.2-2.8,2.3c-4.1,3.4-9.1,6.4-12.1,11-.1.1-.1.2-.2.3-3.2,5-3.7,10.8-5.7,16.2-.5,1.3-.9,2.6-1.3,3.9l-.6,2-.1.3c-.4,1.2-.7,2.4-1,3.6l-.7,2.3c-.3,1.2-.7,2.5-1.1,3.7,0,2.3-1.6,5.6-2.3,7.7-.8,2.5-1.8,4.9-2.4,7.5-.2,1-.4,2-.5,2.9h0s-3-38.9,17.3-61.2a45.55,45.55,0,0,1,5-4.8c2.1-1.3,4.3-2.5,6.7-4,7.5-4.5,17.4-11.3,34.7-27.8A79.48,79.48,0,0,1,743.2,331.8Z" transform="translate(-50.4 -43.3)"/><g class="cls-23"><path class="cls-24" d="M434.3,347.2a95.9,95.9,0,0,1,6.9,9.8c1,1.5,2,3,3.1,4.4a8,8,0,0,0,1.3,1.3c.1.1.1,0,.1.1s-.2,0,.1,0a4.48,4.48,0,0,0,1.1.1,52.53,52.53,0,0,0,5.6-.3c2-.2,4-.4,6.2-.5a19.33,19.33,0,0,1,3.4.1,14.16,14.16,0,0,1,2,.4,7.07,7.07,0,0,1,2.6,1.3,5.09,5.09,0,0,1,1.3,1.6l.1.2.1.1.1.3.2.5c.2.7.3,1.3.4,1.8l.5,3a19.18,19.18,0,0,0,1.5,4.8,13.55,13.55,0,0,0,3,3.7,9.51,9.51,0,0,0,2,1.5l1.1.7.6.3.6.3a46.53,46.53,0,0,0,5.2,2,137.53,137.53,0,0,0,22.9,5,202.29,202.29,0,0,0,47.3,1.1,59.28,59.28,0,0,0,5.9-.7c2-.3,3.9-.5,5.9-.8,3.9-.7,7.8-1.3,11.7-2.3,1.9-.5,3.8-.9,5.8-1.4s4-.9,6-1.3a61.55,61.55,0,0,1,12.1-.8v1.1a67.13,67.13,0,0,0-11.8,1.7c-1.9.4-3.8,1-5.7,1.6s-3.8,1.1-5.8,1.7c-3.8,1.3-7.8,2-11.8,3-2,.4-4,.7-6,1.1s-4,.7-6,1l-6,.8-6,.5c-2,.2-4,.3-6.1.4s-4,.2-6.1.2a219.81,219.81,0,0,1-24.3-1.3,141.68,141.68,0,0,1-24-4.8c-3.9-1.3-8.3-2.8-11.8-5.9a17,17,0,0,1-4.5-5.5,22.32,22.32,0,0,1-2.2-6.6c-.2-1.1-.4-2.1-.5-3-.1-.4-.1-.8-.2-1.1l-.1-.2v-.1h0v.1a1.76,1.76,0,0,0,.4.5c.2.2.1.1-.1,0a2.77,2.77,0,0,0-.9-.1,11.3,11.3,0,0,0-2.6,0c-1.8.1-3.8.3-5.8.5s-4.2.4-6.4.4c-.6,0-1.3-.1-1.9-.1l-1.4-.3-1.2-.6a10,10,0,0,1-3-2.8,23.45,23.45,0,0,1-3.3-5.7,30.39,30.39,0,0,1-2.6-12.2Z" transform="translate(-50.4 -43.3)"/><path class="cls-24" d="M528.1,348.9a53.72,53.72,0,0,0,5.2,15.7,21.48,21.48,0,0,0,11,10.2,25.3,25.3,0,0,0,7.7,1.7,37.5,37.5,0,0,0,8.2-.2c2.8-.3,5.7-.8,8.5-1.1s5.8-.7,8.7-1l.3,1.1c-2.7,1-5.5,1.9-8.3,2.7s-5.5,1.7-8.5,2.4a33.86,33.86,0,0,1-18.4-.7,21.83,21.83,0,0,1-8.2-5.1,24.71,24.71,0,0,1-5.4-7.9,30.57,30.57,0,0,1-2.3-9,30.93,30.93,0,0,1,.4-9.1Z" transform="translate(-50.4 -43.3)"/><path class="cls-24" d="M617.9,366.3a16.65,16.65,0,0,1,3.2-.8,18.41,18.41,0,0,1,3.3-.3c1.1,0,2.2.1,3.3.2a16.81,16.81,0,0,1,3.2.9h0l-.7.8c-2.8-.5-2.7-2.4-3.3-3.9a20.18,20.18,0,0,1-.9-4.9,20.71,20.71,0,0,1,.3-5,11.75,11.75,0,0,1,2-4.6l1,.4a32.4,32.4,0,0,0-.2,4.4,30.34,30.34,0,0,0,.6,4.2c.3,1.4.7,2.8,1.1,4.1.3,1.5,1.6,2.4.2,4.7l-.7,1.1v-.4h0a11.14,11.14,0,0,0-3-.8,15.64,15.64,0,0,0-3.1-.2,16.28,16.28,0,0,0-3.1.3,16.66,16.66,0,0,0-3,.8Z" transform="translate(-50.4 -43.3)"/><path class="cls-24" d="M415.5,404.1a40.85,40.85,0,0,1,6.1,1l3.2.6,6.3,1.2c4.2.8,8.4,1.7,12.7,2.6s8.5,1.7,12.7,2.6,8.5,1.6,12.7,2.3,8.5,1.3,12.8,1.8a94.08,94.08,0,0,0,13,.3c4.3,0,8.6.3,12.9.7s8.6.8,12.9,1c17.2,1.3,34.4,1.8,51.7,2l12.9-.1c2.2,0,4.3-.1,6.5-.2l6.5-.3,6.5-.3c2.2-.1,4.3-.3,6.5-.5,4.3-.4,8.6-.7,12.9-1l.2,1.1a407.69,407.69,0,0,1-51.8,5.3c-2.2.1-4.3.2-6.5.2l-6.5.1-6.5.1c-2.2,0-4.3,0-6.5-.1l-13-.2-13-.6c-4.3-.1-8.7-.5-13-.8-2.2-.1-4.4-.3-6.5-.5a45,45,0,0,1-6.4-1.1c-2.1-.5-4.3-1-6.4-1.4s-4.3-.8-6.4-1c-4.3-.5-8.6-.9-13-1.3-8.6-.8-17.3-1.5-26-2.4l-6.5-.8c-2.1-.3-4.3-.6-6.5-1s-4.3-.8-6.4-1.1l-3.2-.6c-.5-.1-.9-.2-1.3-.3C418.5,410.1,415.5,404.1,415.5,404.1Z" transform="translate(-50.4 -43.3)"/><path class="cls-24" d="M423,427.2s4.7,1.9,6.4,2.8l5.1,2.5,10.2,5.1c6.8,3.4,13.6,6.9,20.3,10.3l10.1,5.2,10.1,5.3,10,5.4c3.3,1.8,6.7,3.6,10,5.4l-.5,1c-3.5-1.5-6.9-3.1-10.4-4.6l-10.4-4.7-10.3-4.8-10.4-4.9c-6.8-3.2-13.7-6.6-20.5-9.9l-10.2-5-5.1-2.5c-1.7-.8-2.9-1.4-3.8-1.8Z" transform="translate(-50.4 -43.3)"/><path class="cls-24" d="M447.3,463.4a14.92,14.92,0,0,1,8.8,2.4l6.8,4.8c2.3,1.5,4.5,3.2,6.9,4.6s4.6,3,7,4.5c4.8,2.9,9.6,5.7,14.5,8.3l7.4,4,7.5,3.7c2.5,1.3,5,2.4,7.6,3.6s5.1,2.4,7.7,3.4l7.7,3.3c2.6,1.1,5.2,2,7.9,3s5.2,2.1,7.9,2.9l8,2.7c2.6,1,5.4,1.7,8.1,2.5s5.4,1.6,8.1,2.5l-.2,1.1c-2.8-.4-5.6-.9-8.4-1.4s-5.7-.9-8.4-1.6c-5.5-1.3-11.1-2.5-16.6-4.1-2.7-.8-5.5-1.5-8.2-2.5l-8.1-2.7c-2.7-.9-5.3-2-8-3s-5.3-2-7.9-3.2l-7.9-3.5-7.7-3.8c-2.6-1.3-5.1-2.7-7.6-4s-5-2.8-7.5-4.2c-5-2.9-9.8-6-14.5-9.2-1.2-.8-2.4-1.7-3.5-2.5s-2.4-1.7-3.5-2.6a15.82,15.82,0,0,1-2.9-3.4,11.09,11.09,0,0,1-1.7-4.7Z" transform="translate(-50.4 -43.3)"/><path class="cls-24" d="M545.4,528.6l13.5-4.8c2.3-.8,4.5-1.6,6.7-2.5s4.4-1.6,6.7-2.5c4.4-1.7,8.8-3.5,13-5.5l3.1-1.5,3-1.6a26.75,26.75,0,0,0,2.8-1.8c.5-.3.8-.7,1.4-.8a1.7,1.7,0,0,1,1,0,8,8,0,0,1,1.5.3l.8.8a3.26,3.26,0,0,1-1.7,3.9c-1.1.7-2.1,1.4-3.2,2l-3.3,1.7-3.3,1.5a139,139,0,0,1-13.6,5c-2.3.7-4.6,1.4-6.9,2l-7,1.8c-4.7,1.1-9.3,2.1-14.1,2.8Z" transform="translate(-50.4 -43.3)"/><path class="cls-24" d="M496.8,370.2a34.12,34.12,0,0,0,7.3-3.3,16.83,16.83,0,0,0,2.9-2.4,12.3,12.3,0,0,0,1.9-3.1,16.74,16.74,0,0,0,.6-7.7,41.57,41.57,0,0,0-2-7.9l1-.5c.3.6.7,1.3,1,1.9s.6,1.3.9,2,.5,1.4.8,2a12.88,12.88,0,0,1,.6,2.1,16.57,16.57,0,0,1-.2,9.1,13.31,13.31,0,0,1-5.9,7.1,13.91,13.91,0,0,1-8.7,1.8Z" transform="translate(-50.4 -43.3)"/><path class="cls-24" d="M375.3,371.7c-.6-.9-1-1.5-1.6-2.5a61.88,61.88,0,0,1-2.8-5.8,52.42,52.42,0,0,1-3.5-12.3,38.68,38.68,0,0,1,.2-12.7,36.26,36.26,0,0,1,4.2-11.8c.5-.9,1.6-.9,1,.5a38.92,38.92,0,0,0-3,11.6,36,36,0,0,0,.9,11.8,49.4,49.4,0,0,0,4.1,11.1q1.35,2.55,3,5.1c1.1,1.6,5.7,6.9,6.8,8.2C381.5,373.7,378.4,372.6,375.3,371.7Z" transform="translate(-50.4 -43.3)"/><path class="cls-24" d="M349.5,357.6c-.4-.9,0-1.7,0-2.6.1-1.8.3-3.6.5-5.4a47.67,47.67,0,0,1,2.7-10.5,38.17,38.17,0,0,1,5.2-9.5,27.22,27.22,0,0,1,7.9-7.2c1.5-.9,1.8-.7.8.8-.5.7-.9,1.4-1.4,2.1-.2.3-.5.7-.7,1l-.6,1.1a15.45,15.45,0,0,0-1.2,2.2,22.88,22.88,0,0,1-1,2.3,51,51,0,0,0-3,9.1,75.15,75.15,0,0,0-1.5,9.5c-.1,1.6-.3,3.2-.3,4.8a23.48,23.48,0,0,0-.1,2.6c0,1.4.3,3.2-1.3,4.1C355.3,362,351.1,358.7,349.5,357.6Z" transform="translate(-50.4 -43.3)"/><path class="cls-24" d="M427.3,523.6a4.68,4.68,0,0,1,1.7.2,2.22,2.22,0,0,1,1.1.5,3.27,3.27,0,0,1,1.1,1.5,34.74,34.74,0,0,0,1.8,3.3c1.2,2.2,2.5,4.3,3.7,6.5s2.6,4.3,3.9,6.4l4.2,6.3a247.89,247.89,0,0,0,18.3,23.9l2.5,2.9,1.2,1.4,1.3,1.4,5.2,5.5c1.7,1.8,3.6,3.5,5.4,5.3l2.7,2.6,2.8,2.5,5.7,5,5.9,4.7c1,.8,2,1.6,3,2.3l3.1,2.2,6.2,4.4-.6,1-6.7-3.8-3.3-1.9c-1.1-.7-2.1-1.4-3.2-2.1l-6.4-4.3-6.1-4.7-3-2.4-2.9-2.5c-1.9-1.7-3.9-3.4-5.8-5.1-3.7-3.6-7.4-7.1-10.8-10.9a222.5,222.5,0,0,1-19.4-23.9l-4.3-6.4c-1.4-2.2-2.8-4.3-4.1-6.5s-2.6-4.4-3.9-6.7c-.6-1.1-1.3-2.3-1.9-3.4s-1.2-2.3.5-4.5Z" transform="translate(-50.4 -43.3)"/><path class="cls-24" d="M487.6,576.2a6.32,6.32,0,0,1,3.6.7,11.38,11.38,0,0,1,2.5,1.8c1.6,1.3,3.4,2.6,5,3.8a49.3,49.3,0,0,0,5.3,3.6c1.9,1.1,3.6,2.3,5.4,3.3a161.17,161.17,0,0,0,22.9,11.1c1,.4,2,.8,3,1.1l3,1.1a62.14,62.14,0,0,0,6.1,2l6.1,1.8c2.1.5,4.2,1,6.2,1.5,4.1,1.1,8.4,1.7,12.6,2.5l1.6.3,1.6.2,3.2.4,6.4.8v1.1c-4.3-.2-8.7-.1-13-.5s-8.7-.9-13-1.6a150.29,150.29,0,0,1-25.4-6.5l-6.2-2.3c-2-.8-4-1.7-6-2.6s-4-1.9-6-2.8a64.54,64.54,0,0,1-5.8-3.1c-1.9-1.1-3.8-2.3-5.7-3.4a66.09,66.09,0,0,1-5.5-3.7c-1.8-1.3-3.6-2.6-5.3-4s-3.6-2.8-3.6-5.9Z" transform="translate(-50.4 -43.3)"/><path class="cls-24" d="M582.1,621.4c2.4-1.1,4.8-2.3,7.1-3.6a67.88,67.88,0,0,0,6.7-4.2,34.75,34.75,0,0,0,5.8-5,17.41,17.41,0,0,0,1.2-1.4,14.31,14.31,0,0,0,1.1-1.5l.9-1.5.3-.8c.1-.3.4-.5,1.6-.4l1.1.4c.9.7,1,1.1.8,1.5l-.5,1a11.78,11.78,0,0,1-1.1,1.9,20.28,20.28,0,0,1-1.3,1.8,10.7,10.7,0,0,1-1.4,1.6,33,33,0,0,1-6.7,5.1c-1.1.7-2.4,1.4-3.6,2s-2.5,1.1-3.8,1.7a50.68,50.68,0,0,1-7.8,2.5Z" transform="translate(-50.4 -43.3)"/><path class="cls-24" d="M582.2,594.2a22.35,22.35,0,0,0,4.1-2.7,14.48,14.48,0,0,0,1.8-1.7c.6-.6,1.2-1.2,1.7-1.8l1.6-1.9,1.4-2a23.92,23.92,0,0,0,1.3-2.1c.4-.7.8-1.4,1.2-2.2a61.3,61.3,0,0,0,4-9.1l1.5-4.7.6-2.4c.1-.8.6-1.5,2.6-2l1.1.3c1.6,1.3,1.6,2.2,1.3,3l-.7,2.5c-.6,1.7-1.1,3.4-1.8,5a56.91,56.91,0,0,1-4.9,9.5c-.5.8-1,1.5-1.5,2.2a17.33,17.33,0,0,1-1.7,2.1l-1.9,2-2,1.8a27.68,27.68,0,0,1-4.5,3.1,15.74,15.74,0,0,1-5.1,1.9Z" transform="translate(-50.4 -43.3)"/><path class="cls-24" d="M427.3,478.9a5.56,5.56,0,0,1,2.2,2.1,20,20,0,0,1,1,2.6l2.1,5.1c1.5,3.4,3.1,6.7,4.7,10A205.1,205.1,0,0,0,448.4,518l3.1,4.5,3.3,4.5c.6.7,1.1,1.5,1.7,2.2l1.8,2.1,1.8,2.1,1.8,2.1a116.81,116.81,0,0,0,16.4,15l-.6.9a84.35,84.35,0,0,1-9.1-6.6l-2.2-1.8a19.58,19.58,0,0,1-2.1-1.8l-4.1-3.9a133,133,0,0,1-14.4-17.4,180.17,180.17,0,0,1-11.7-19.3c-1.7-3.4-3.4-6.8-4.9-10.2-.8-1.7-1.5-3.5-2.3-5.2-.4-.9-.7-1.8-1-2.7a4.71,4.71,0,0,1,.3-3.1Z" transform="translate(-50.4 -43.3)"/><path class="cls-24" d="M464.4,519.1a2.13,2.13,0,0,1,1.5.7l1.1,1.1c.8.7,1.6,1.4,2.3,2.1,1.6,1.4,3.2,2.6,4.8,3.9a76.63,76.63,0,0,0,10.4,6.7l-.5,1a37.68,37.68,0,0,1-5.7-2.8c-1.8-1.1-3.6-2.3-5.4-3.4a61.19,61.19,0,0,1-5-3.9l-2.4-2.1-1.1-1.1a1.72,1.72,0,0,1-.8-1.4Z" transform="translate(-50.4 -43.3)"/><path class="cls-24" d="M588,325.8a1.91,1.91,0,0,0,2.2.1,5.64,5.64,0,0,1,1.2-.4c.3,0,.3,0,.5.2a3,3,0,0,1,.5,1.3,15.81,15.81,0,0,1,.4,3.8c.1,1.3,0,2.7,0,4.1l1.1.3a19.31,19.31,0,0,0,1.2-4.1,13.63,13.63,0,0,0,.2-4.5,6.22,6.22,0,0,0-.9-2.6c-.2-.2-.3-.4-.5-.6a5.55,5.55,0,0,0-.8-.6,4.12,4.12,0,0,0-.8-.3,38.8,38.8,0,0,0-4.8,3Z" transform="translate(-50.4 -43.3)"/><path class="cls-24" d="M648.3,316.8c2.1.9,3.8.2,5.8.3a25.05,25.05,0,0,1,5.5.6,13,13,0,0,1,4.9,2.3,14.7,14.7,0,0,1,3.5,4.3l1.1-.4a13,13,0,0,0-3.2-5.4,16.89,16.89,0,0,0-5.5-3.2,28.17,28.17,0,0,0-3.1-.7l-9.1,1.8Z" transform="translate(-50.4 -43.3)"/><path class="cls-24" d="M672,318.7a23.43,23.43,0,0,0-2.7-4.9,7.55,7.55,0,0,0-1.1-1.4l-2.8.5.3.3a15.58,15.58,0,0,1,1.6,2,28.22,28.22,0,0,1,2.6,4.4,41.4,41.4,0,0,1,1.9,4.9,23.35,23.35,0,0,1,.7,2.5l.6,2.6,1.1-.1a51.36,51.36,0,0,0-.6-5.5A32.38,32.38,0,0,0,672,318.7Z" transform="translate(-50.4 -43.3)"/></g><path class="cls-25" d="M778.7,303.7c4.4-5.1,5.8-6.9,8.3-12.9.5-1,8.5-10.9,7.9-11.5L762.5,248l-19.3,13.3c1.3-1.5,35,42.9,34.7,43.3S778.4,304,778.7,303.7Z" transform="translate(-50.4 -43.3)"/><path class="cls-25" d="M317.9,267.3c-4.1-3.1-8.2-6.2-12.5-9.2-14.1-10.1-40.8,26.5-33.4,35.8a133.33,133.33,0,0,1,9.3,14.2,21.41,21.41,0,0,0,1.3,1.9C287.9,297.1,298.4,279.2,317.9,267.3Z" transform="translate(-50.4 -43.3)"/><path class="cls-26" d="M898.8,129.3c2.3,6.1-.3,22.4-3.8,31.7a78.55,78.55,0,0,1-17.9,27.2l-35.6,20.5s-29.1,41.9-49.4,67.8l2.8,2.7v.3c20.3-25.8,50-68.6,50-68.6l35.6-20.6A79.89,79.89,0,0,0,898.4,163C902.9,151.2,905.9,127.3,898.8,129.3Z" transform="translate(-50.4 -43.3)"/><path class="cls-27" d="M542.9,213.3s24.6,11.5,21.5,30.1-6,25.3-6,25.3" transform="translate(-50.4 -43.3)"/><path class="cls-27" d="M530.3,218.8s15.2,3.4,16.3,8.7,7.9,17.4,3.8,26.1" transform="translate(-50.4 -43.3)"/><path class="cls-28" d="M271.5,284.7c-13.1-17.4-50.9-93.1-50.9-93.1l-32.3-25.4s-4.1-1.1-7.7-18.1c-2.1-9.7-4.2-30-2.8-38.8-7.8-8.2-4.6,28-1.6,42,3.6,17,7.7,18.1,7.7,18.1l32.3,25.4s48.5,96.9,54.7,96.7A15.65,15.65,0,0,1,271.5,284.7Z" transform="translate(-50.4 -43.3)"/></svg>