<?xml version="1.0" encoding="utf-8"?>
<!-- Generator: Adobe Illustrator 22.1.0, SVG Export Plug-In . SVG Version: 6.00 Build 0)  -->
<svg version="1.1" id="Layer_1" xmlns="http://www.w3.org/2000/svg" xmlns:xlink="http://www.w3.org/1999/xlink" x="0px" y="0px"
	 viewBox="0 0 1920 813.5" style="enable-background:new 0 0 1920 813.5;" xml:space="preserve">
<style type="text/css">
	.st0{fill:#F5F7F9;}
</style>
<title>StepsBG</title>
<g>
	<g>
		<path class="st0" d="M1920,45v602c-38.4,2.6-174.9-21.9-356,2c-141.7,18.7-216,74.1-491.8,66.5C871.5,710,747.1,665,530,617
			C207.8,545.8,35.2,683.9,0,686l0.4-534.1H0c151.6-52.1,336.8-87,544.8-55.5c382.6,57.9,662.7-69.3,897.1-29
			C1730,117,1914.6,48.1,1920,45z"/>
	</g>
</g>
<path class="st0" d="M1441.9,67.4C1730,117,1914.6,48.1,1920,45v602"/>
<g>
	<g>
		<path class="st0" d="M1920,45v602c-38.4,2.6-174.9-21.9-356,2c-141.7,18.7-216,74.1-491.8,66.5C871.5,710,747.1,665,530,617
			C207.8,545.8,35.2,683.9,0,686l0.4-534.1H0c151.6-52.1,336.8-87,544.8-55.5c382.6,57.9,661.6-62,897.1-29
			C1681,101,1914.6,48.1,1920,45z"/>
	</g>
</g>
</svg>
