<?xml version="1.0" encoding="utf-8"?>
<!-- Generator: Adobe Illustrator 22.1.0, SVG Export Plug-In . SVG Version: 6.00 Build 0)  -->
<svg version="1.1" id="Layer_1" xmlns="http://www.w3.org/2000/svg" xmlns:xlink="http://www.w3.org/1999/xlink" x="0px" y="0px"
	 viewBox="0 0 1049.9 679.5" style="enable-background:new 0 0 1049.9 679.5;" xml:space="preserve">
<style type="text/css">
	.st0{fill:#9CA8EF;}
	.st1{fill:#D2FAD6;}
	.st2{fill:#503EA7;}
	.st3{fill:#FBBFC8;}
	.st4{fill:#35296F;}
</style>
<title>Artboard 1</title>
<g>
	<polygon class="st0" points="46.2,212.3 77.5,175.9 201.6,175.9 243.2,212.3 253.2,514.8 56.2,502.2 	"/>
	<polygon class="st1" points="272.1,226.1 279.6,514.8 504.2,514.8 496.7,226.1 454,184.7 306.2,184.7 	"/>
	<polygon class="st2" points="524.3,212.3 565.7,175.9 711.3,175.9 747.7,212.3 747.7,506 524.3,506 	"/>
	<polygon class="st3" points="767.8,202.3 805.4,158.4 947.4,153.3 988.6,192.2 988.6,487.2 767.8,497.2 	"/>
	<path class="st2" d="M424.7,447.2c-13.5,7.1-27.3,9.9-43.9,9.9c-40.4,0-74.7-29.6-74.7-76.9c0-50.8,35.2-94.6,89.9-94.6
		c42.9,0,71.7,30.1,71.7,71.2c0,37-20.7,58.6-43.9,58.6c-9.9,0-19-6.7-18.2-21.7h-1c-8.6,14.5-20,21.7-34.7,21.7
		c-14.3,0-26.6-11.6-26.6-31c0-30.6,24.1-58.4,58.4-58.4c10.6,0,20,2.2,26.4,5.2l-8.4,44.6c-3.7,18.7-0.7,27.3,7.4,27.6
		c12.6,0.2,26.6-16.5,26.6-45.1c0-35.7-21.4-61.3-59.6-61.3c-40.1,0-73.9,31.8-73.9,81.8c0,41.1,26.9,66.5,63.3,66.5
		c14,0,27.1-3,37.2-8.6L424.7,447.2z M411.2,340.7c-2.5-0.7-6.7-1.7-12.3-1.7c-21.7,0-39.2,20.5-39.2,44.3
		c0,10.8,5.4,18.7,16.3,18.7c14.3,0,27.3-18.2,30.1-33.5L411.2,340.7z"/>
	<path class="st4" d="M947.4,321.1c0,37.8-62.6,136.9-68.4,136.9s-68.4-99.1-68.4-136.9s30.6-68.4,68.4-68.4
		C916.8,252.7,947.4,283.4,947.4,321.1z M879,289.7c-18.9,0-34.1,15.3-34.1,34.1c0,18.9,15.3,34.1,34.1,34.1
		c18.9,0,34.1-15.3,34.1-34.1C913.2,305,897.9,289.7,879,289.7z"/>
	<path class="st3" d="M727.9,304v-1.8c0-4.2-3.4-7.6-7.6-7.6H555.4c-4.2,0-7.6,3.4-7.6,7.6v1.8l90.1,66.8L727.9,304z"/>
	<g>
		<path class="st3" d="M727.6,422.3c0.2-0.7,0.3-1.3,0.3-2.1V313.5l-58.4,43.3L727.6,422.3z"/>
		<path class="st3" d="M555.3,427.8c0,0,0.1,0,0.1,0h164.9c0.1,0,0.1,0,0.1,0l-58.2-65.7l-24.4,18.1l-24.4-18.1L555.3,427.8z"/>
		<path class="st3" d="M606.2,356.8l-58.4-43.3v106.7c0,0.7,0.1,1.4,0.3,2.1L606.2,356.8z"/>
	</g>
	<polygon class="st1" points="150.3,260.6 146.6,313.5 162.9,313.5 166.6,260.6 	"/>
	<polygon class="st1" points="83.8,437 115.8,395 129,406.2 95.7,450.8 	"/>
	<path class="st1" d="M135.6,408.1L102,455.5h24.5c0,0,19.8-4.6,34.5-32.6c14.7-28,31.1-68.1,33.3-76.6c2.2-8.5,6-24.8,6.9-41.1
		c0.9-16.3,0-24.2,0-24.2l-26.4-20.4l-4.7,54.6c0,0,5.3,3.5,5.3,6c0,2.5,1.3,4.7-8.8,32.9s-17.3,45.2-17.3,45.2s-6,9.7-10,7.8
		S135.6,408.1,135.6,408.1z"/>
</g>
</svg>
