<?xml version="1.0" encoding="utf-8"?>
<!-- Generator: Adobe Illustrator 22.1.0, SVG Export Plug-In . SVG Version: 6.00 Build 0)  -->
<svg version="1.1" id="Layer_1" xmlns="http://www.w3.org/2000/svg" xmlns:xlink="http://www.w3.org/1999/xlink" x="0px" y="0px"
	 viewBox="0 0 1049.9 679.5" style="enable-background:new 0 0 1049.9 679.5;" xml:space="preserve">
<style type="text/css">
	.st0{fill:#DAD8E8;}
	.st1{opacity:0.6;fill:#C7C5D4;enable-background:new    ;}
	.st2{fill:#5D7FAE;}
	.st3{fill:#503EA7;}
	.st4{fill:#9CA8EF;}
	.st5{fill:#323071;}
	.st6{fill:#191839;}
	.st7{fill:#45ADD6;}
	.st8{opacity:0.3;fill:#FFFFFF;enable-background:new    ;}
	.st9{fill:#FFFFFF;}
	.st10{fill:none;stroke:#5D7FAE;stroke-miterlimit:10;}
	.st11{fill:#FCD4DB;}
	.st12{fill:#6FDCCA;}
	.st13{fill:#D2FAD6;}
	.st14{fill:#85B4C7;}
	.st15{fill:#3482A1;}
	.st16{fill:#B5DEEF;}
	.st17{fill:#35296F;}
	.st18{opacity:5.000000e-02;}
	.st19{opacity:0.5;fill:#85B4C7;enable-background:new    ;}
	.st20{opacity:0.6;fill:#45ADD6;enable-background:new    ;}
	.st21{opacity:0.6;fill:#FFFFFF;enable-background:new    ;}
</style>
<title>Artboard 1</title>
<g>
	<path class="st0" d="M903.1,157.6c0,0-22.8,21.8-22.8,39.5c0,6.9,7.4,24.8,11.2,43.7c6.5,32.1-13.3,64.9,2.1,76.1
		c15.4,11.1,28.1-38.2,49.7-42.3c21.6-4.1,51,8.2,80.8-27.1c13.2-15.6,0-49,0-49L903.1,157.6z"/>
	<path class="st1" d="M825.7,211c19.6,1.6,32.6,34.7,28.7,48.7c-3.9,13.9-20.7,76.2-7.8,95.6c16.1,24.4,32.9,47.3,48.6,47.3
		c15.5,0,110.9,36.4,114.8,47.1c3.9,10.7,9.1,61.2-9.1,72.8c-18.2,11.7-41.6,55.7-62.9,54.5c-21.3-1.3-74.5-41.4-87.5-27.8
		c-13,13.5-58.6,25.2-91.5,27.9c-32.9,2.6-208.4-3.9-249,0s-115.9,10.3-163.8,9.1s-77.8-36.3-75.1-51.8
		c2.6-15.5-66.2-35.5-83.1-34.6s-106.3-42-124.4-67.9s-49.3-55.6-42.7-76.4c6.4-20.8,89.5-52.6,99.8-76.8s18.4-76.2,47.4-80.1
		c29-3.9,26.4,66.8,84.1,82.6c57.7,15.8,100.5-38.6,100.5-38.6L825.7,211z"/>
	<path class="st2" d="M919.5,563.9l-48.4-26c-8.1-4.3-11.3-14.6-6.9-22.8l66.1-123.5c4.3-8.1,14.6-11.3,22.8-6.9l48.4,26
		c8.1,4.3,11.3,14.6,6.9,22.8L942.3,557C938,565.1,927.7,568.2,919.5,563.9z"/>
	<circle class="st3" cx="956.8" cy="198.5" r="67.4"/>
	<circle class="st4" cx="956.8" cy="198.5" r="58.4"/>
	<path class="st3" d="M910.5,247.3l-30.2,50.9c0,0,0,15.5,9.1,15.5c9.1,0,21.1-20.8,21.1-20.8l19.8-32.6L910.5,247.3z"/>
	<path class="st2" d="M376,204.9h386.6c0,0,11.4-0.6,39.9,0c28.5,0.6,22.7,26.6,22.7,26.6v70.6c0,0,0,219.7,0,238.1
		s-20.1,15.9-20.1,15.9l-84.2,3.3c0,0-351.4,1.3-382.5,0s-28.5-14-28.5-19.2s0-306.8,0-318.3s6.4-17.1,6.4-17.1H376V204.9z"/>
	<polygon class="st5" points="902.9,238.9 885,290.3 910.5,247.3 	"/>
	<polygon class="st6" points="910.5,247.3 930.2,260.4 923.1,272 903.1,259.7 	"/>
	<path class="st7" d="M1015.1,198.5c0,32.2-26.1,58.4-58.4,58.4c-32.2,0-58.4-26.1-58.4-58.4s4.6,13.3,31.8,30.7
		C977.9,259.7,1015.1,166.2,1015.1,198.5z"/>
	<circle class="st8" cx="982.7" cy="185.5" r="11.7"/>
	<path class="st9" d="M920.1,564.1l-45.3-24.3c-7.9-4.2-10.9-14.1-6.6-22.1l65.8-122.9c4.2-7.9,14.1-10.9,22.1-6.6l45.3,24.3
		c7.9,4.2,10.9,14.1,6.6,22.1L942,557.4C937.8,565.4,928,568.3,920.1,564.1z"/>
	
		<rect x="874.4" y="438.4" transform="matrix(0.4717 -0.8818 0.8818 0.4717 76.9429 1077.4875)" class="st2" width="126.6" height="72.2"/>
	<circle class="st10" cx="902.8" cy="540.2" r="7.7"/>
	<line class="st10" x1="965.9" y1="410.2" x2="977.9" y2="416.2"/>
	<circle class="st10" cx="975" cy="407.1" r="1.3"/>
	<path class="st3" d="M37.6,259.7l85.6,280.5l161.6-47.5c0,0,19,1.7,12.1-24.2c-7-26-76.1-250.7-76.1-250.7s8.7-17.3-36.3-5.2
		c-2.6,0.7-5.5,1.5-8.5,2.4C127.8,228.8,37.6,259.7,37.6,259.7z"/>
	<polygon class="st11" points="177.8,214.5 264.9,499.6 277.8,496.2 190.9,211 	"/>
	<path class="st6" d="M213,211c0,0,82.5,256.6,84.2,263c1.7,6.4,0.7,10.6-0.3,12.3c-1.2,1.8-4,4.6-4,4.6s6.4-3.3,7.2-8.2
		c0.8-5,0.4-7.7-1.7-14.8c-2.1-7.1-76.9-250.8-76.9-250.8S221.4,214.8,213,211z"/>
	<path class="st12" d="M187.4,284.3c0,0,5.5-1.3,5.6,0.1c2.3,30.4,1.9,103.4,1.9,103.4h-13.4C181.4,387.7,185.1,289.9,187.4,284.3z"
		/>
	<path class="st13" d="M188.6,281c0,0,0.9-5.1,1.3-5.1s0.8-0.2,1.1,0.2c0.2,0.4,1.4,4.7,0.9,4.9C191.4,281.1,189.2,281.2,188.6,281z
		"/>
	<path class="st14" d="M188,280c0,0-1.3,4.2-0.7,4.3c0.5,0,6,0.2,6,0c0-0.2,0-3.7-0.4-4c-0.4-0.3-1.4-0.4-3-0.4
		C188.4,279.7,188,280,188,280z"/>
	<path class="st13" d="M182.7,449.1c2.7,0.3,8.1,0.9,8.7-0.1c0.5-0.9,2.2-3.6,1.2-4.9c-2.3-2.7-10-2.6-10.9-0.7
		C180.8,445.3,182.7,449.1,182.7,449.1z"/>
	<path class="st14" d="M181.4,387.7c0,0-1.6,54.6,0,55.4c0.3,0.1,0.8,0.3,1.5,0.4c3.3,0.5,10.1,0.7,10.1,0.7s2.6-56.6,1.7-56.6
		S187.1,386.5,181.4,387.7z"/>
	<path class="st14" d="M183.3,449.7v0.3l0.6,11.9c0,0,3.6,0.4,5.1,0.3c1.5-0.2,2-1.5,2-1.5v-11.2l-7.7-0.1"/>
	<polygon class="st15" points="252.2,93.2 309.4,207.8 370.6,207.8 370.6,184.9 767.1,180.5 767.1,199.1 824.3,200.6 888.2,93.2 	
		"/>
	<polygon class="st16" points="270.9,105.3 325.1,217 382.9,217 382.9,194.7 757.9,190.5 757.9,208.6 812.1,210 872.5,105.3 	"/>
	<polygon class="st17" points="376,184.1 376,222 762.7,222 762.3,180.3 	"/>
	<g class="st18">
	</g>
	<g class="st18">
	</g>
	<path class="st14" d="M626.2,534.2h-118c-8.5,0-15.5-7-15.5-15.5v-76.9c0-8.5,7-15.5,15.5-15.5h118c8.5,0,15.5,7,15.5,15.5v76.9
		C641.7,527.3,634.8,534.2,626.2,534.2z"/>
	<path class="st19" d="M751.9,402.6H381.1c-8.5,0-15.5-7-15.5-15.5v-129c0-8.5,7-15.5,15.5-15.5h370.8c8.5,0,15.5,7,15.5,15.5v129
		C767.4,395.6,760.5,402.6,751.9,402.6z"/>
	<path class="st14" d="M531.7,556.3c0,0-0.2-6.5,9.6-6.5c9.7,0,52.1-2,57.7,2c4.5,3.3,3,4.5,3,4.5H531.7z"/>
	<path class="st15" d="M393.5,258.4h-11.7c-3.2,0-5.8-2.6-5.8-5.8v-0.8c0-3.2,2.6-5.8,5.8-5.8h11.7c3.2,0,5.8,2.6,5.8,5.8v0.8
		C399.3,255.8,396.7,258.4,393.5,258.4z"/>
	<g>
		<path class="st15" d="M421.2,258.4h-11.7c-3.2,0-5.8-2.6-5.8-5.8v-0.8c0-3.2,2.6-5.8,5.8-5.8h11.7c3.2,0,5.8,2.6,5.8,5.8v0.8
			C426.9,255.8,424.4,258.4,421.2,258.4z"/>
		<path class="st15" d="M448.9,258.4h-11.7c-3.2,0-5.8-2.6-5.8-5.8v-0.8c0-3.2,2.6-5.8,5.8-5.8h11.7c3.2,0,5.8,2.6,5.8,5.8v0.8
			C454.7,255.8,452.1,258.4,448.9,258.4z"/>
		<path class="st15" d="M477.4,258.4h-11.7c-3.2,0-5.8-2.6-5.8-5.8v-0.8c0-3.2,2.6-5.8,5.8-5.8h11.7c3.2,0,5.8,2.6,5.8,5.8v0.8
			C483.2,255.8,480.7,258.4,477.4,258.4z"/>
		<path class="st15" d="M504.2,258.4h-11.7c-3.2,0-5.8-2.6-5.8-5.8v-0.8c0-3.2,2.6-5.8,5.8-5.8h11.7c3.2,0,5.8,2.6,5.8,5.8v0.8
			C510,255.8,507.4,258.4,504.2,258.4z"/>
		<path class="st15" d="M532.2,258.4h-11.7c-3.2,0-5.8-2.6-5.8-5.8v-0.8c0-3.2,2.6-5.8,5.8-5.8h11.7c3.2,0,5.8,2.6,5.8,5.8v0.8
			C538,255.8,535.5,258.4,532.2,258.4z"/>
	</g>
	<path class="st15" d="M559.6,258.4h-11.7c-3.2,0-5.8-2.6-5.8-5.8v-0.8c0-3.2,2.6-5.8,5.8-5.8h11.7c3.2,0,5.8,2.6,5.8,5.8v0.8
		C565.4,255.8,562.8,258.4,559.6,258.4z"/>
	<path class="st15" d="M587.3,258.4h-11.7c-3.2,0-5.8-2.6-5.8-5.8v-0.8c0-3.2,2.6-5.8,5.8-5.8h11.7c3.2,0,5.8,2.6,5.8,5.8v0.8
		C593.1,255.8,590.5,258.4,587.3,258.4z"/>
	<g>
		<path class="st15" d="M615.9,258.4h-11.7c-3.2,0-5.8-2.6-5.8-5.8v-0.8c0-3.2,2.6-5.8,5.8-5.8h11.7c3.2,0,5.8,2.6,5.8,5.8v0.8
			C621.7,255.8,619,258.4,615.9,258.4z"/>
		<path class="st15" d="M642.6,258.4h-11.7c-3.2,0-5.8-2.6-5.8-5.8v-0.8c0-3.2,2.6-5.8,5.8-5.8h11.7c3.2,0,5.8,2.6,5.8,5.8v0.8
			C648.4,255.8,645.7,258.4,642.6,258.4z"/>
		<path class="st15" d="M670.7,258.4h-11.7c-3.2,0-5.8-2.6-5.8-5.8v-0.8c0-3.2,2.6-5.8,5.8-5.8h11.7c3.2,0,5.8,2.6,5.8,5.8v0.8
			C676.4,255.8,673.8,258.4,670.7,258.4z"/>
	</g>
	<g>
		<path class="st15" d="M698.4,258.4h-11.7c-3.2,0-5.8-2.6-5.8-5.8v-0.8c0-3.2,2.6-5.8,5.8-5.8h11.7c3.2,0,5.8,2.6,5.8,5.8v0.8
			C704.2,255.8,701.6,258.4,698.4,258.4z"/>
		<path class="st15" d="M725.1,258.4h-11.7c-3.2,0-5.8-2.6-5.8-5.8v-0.8c0-3.2,2.6-5.8,5.8-5.8h11.7c3.2,0,5.8,2.6,5.8,5.8v0.8
			C730.9,255.8,728.3,258.4,725.1,258.4z"/>
		<path class="st15" d="M753.2,258.4h-11.8c-3.2,0-5.8-2.6-5.8-5.8v-0.8c0-3.2,2.6-5.8,5.8-5.8h11.7c3.2,0,5.8,2.6,5.8,5.8v0.8
			C759,255.8,756.4,258.4,753.2,258.4z"/>
	</g>
	<g>
		<path class="st13" d="M395.2,284.9H380c-2.2,0-4-1.8-4-4v-15.2c0-2.2,1.8-4,4-4h15.2c2.2,0,4,1.8,4,4v15.2
			C399.3,283.1,397.5,284.9,395.2,284.9z"/>
		<path class="st13" d="M421.1,284.9h-15.2c-2.2,0-4-1.8-4-4v-15.2c0-2.2,1.8-4,4-4h15.2c2.2,0,4,1.8,4,4v15.2
			C425.3,283.1,423.4,284.9,421.1,284.9z"/>
		<path class="st13" d="M447.7,284.9h-15.2c-2.2,0-4-1.8-4-4v-15.2c0-2.2,1.8-4,4-4h15.2c2.2,0,4,1.8,4,4v15.2
			C451.8,283.1,450,284.9,447.7,284.9z"/>
		<path class="st13" d="M475,284.9h-15.2c-2.2,0-4-1.8-4-4v-15.2c0-2.2,1.8-4,4-4H475c2.2,0,4,1.8,4,4v15.2
			C479,283.1,477.2,284.9,475,284.9z"/>
	</g>
	<g>
		<path class="st13" d="M502.2,284.9H487c-2.2,0-4-1.8-4-4v-15.2c0-2.2,1.8-4,4-4h15.2c2.2,0,4,1.8,4,4v15.2
			C506.2,283.1,504.4,284.9,502.2,284.9z"/>
		<path class="st13" d="M528.1,284.9h-15.2c-2.2,0-4-1.8-4-4v-15.2c0-2.2,1.8-4,4-4h15.2c2.2,0,4,1.8,4,4v15.2
			C532.2,283.1,530.4,284.9,528.1,284.9z"/>
		<path class="st13" d="M554.7,284.9h-15.2c-2.2,0-4-1.8-4-4v-15.2c0-2.2,1.8-4,4-4h15.2c2.2,0,4,1.8,4,4v15.2
			C558.8,283.1,556.9,284.9,554.7,284.9z"/>
		<path class="st13" d="M581.9,284.9h-15.2c-2.2,0-4-1.8-4-4v-15.2c0-2.2,1.8-4,4-4h15.2c2.2,0,4,1.8,4,4v15.2
			C586,283.1,584.1,284.9,581.9,284.9z"/>
	</g>
	<g>
		<path class="st13" d="M435.1,311.5h-15.2c-2.2,0-4-1.8-4-4v-15.2c0-2.2,1.8-4,4-4h15.2c2.2,0,4,1.8,4,4v15.2
			C439.2,309.7,437.3,311.5,435.1,311.5z"/>
		<path class="st13" d="M461,311.5h-15.2c-2.2,0-4-1.8-4-4v-15.2c0-2.2,1.8-4,4-4H461c2.2,0,4,1.8,4,4v15.2
			C465.1,309.7,463.3,311.5,461,311.5z"/>
		<path class="st13" d="M487.6,311.5h-15.2c-2.2,0-4-1.8-4-4v-15.2c0-2.2,1.8-4,4-4h15.2c2.2,0,4,1.8,4,4v15.2
			C491.6,309.7,489.9,311.5,487.6,311.5z"/>
		<path class="st13" d="M514.9,311.5h-15.2c-2.2,0-4-1.8-4-4v-15.2c0-2.2,1.8-4,4-4h15.2c2.2,0,4,1.8,4,4v15.2
			C518.9,309.7,517.1,311.5,514.9,311.5z"/>
	</g>
	<g>
		<path class="st13" d="M442.6,337.8h-15.2c-2.2,0-4-1.8-4-4v-15.2c0-2.2,1.8-4,4-4h15.2c2.2,0,4,1.8,4,4v15.1
			C446.6,336,444.8,337.8,442.6,337.8z"/>
		<path class="st13" d="M468.4,337.8h-15.2c-2.2,0-4-1.8-4-4v-15.2c0-2.2,1.8-4,4-4h15.2c2.2,0,4,1.8,4,4v15.1
			C472.5,336,470.8,337.8,468.4,337.8z"/>
		<path class="st13" d="M495,337.8h-15.2c-2.2,0-4-1.8-4-4v-15.2c0-2.2,1.8-4,4-4H495c2.2,0,4,1.8,4,4v15.1
			C499.1,336,497.2,337.8,495,337.8z"/>
		<path class="st13" d="M522.3,337.8h-15.2c-2.2,0-4-1.8-4-4v-15.2c0-2.2,1.8-4,4-4h15.2c2.2,0,4,1.8,4,4v15.1
			C526.4,336,524.5,337.8,522.3,337.8z"/>
	</g>
	<g>
		<path class="st13" d="M549.2,337.8H534c-2.2,0-4-1.8-4-4v-15.2c0-2.2,1.8-4,4-4h15.2c2.2,0,4,1.8,4,4v15.1
			C553.3,336,551.4,337.8,549.2,337.8z"/>
		<path class="st13" d="M575.1,337.8h-15.2c-2.2,0-4-1.8-4-4v-15.2c0-2.2,1.8-4,4-4h15.2c2.2,0,4,1.8,4,4v15.1
			C579.1,336,577.4,337.8,575.1,337.8z"/>
		<path class="st13" d="M601.7,337.8h-15.2c-2.2,0-4-1.8-4-4v-15.2c0-2.2,1.8-4,4-4h15.2c2.2,0,4,1.8,4,4v15.1
			C605.7,336,604,337.8,601.7,337.8z"/>
		<path class="st13" d="M629,337.8h-15.3c-2.2,0-4-1.8-4-4v-15.2c0-2.2,1.8-4,4-4h15.2c2.2,0,4,1.8,4,4v15.1
			C633,336,631.2,337.8,629,337.8z"/>
	</g>
	<g>
		<path class="st13" d="M563.1,363.8h-15.2c-2.2,0-4-1.8-4-4v-15.2c0-2.2,1.8-4,4-4h15.2c2.2,0,4,1.8,4,4v15.2
			C567.2,361.9,565.3,363.8,563.1,363.8z"/>
		<path class="st13" d="M589.1,363.8h-15.2c-2.2,0-4-1.8-4-4v-15.2c0-2.2,1.8-4,4-4h15.2c2.2,0,4,1.8,4,4v15.2
			C593.1,361.9,591.3,363.8,589.1,363.8z"/>
		<path class="st13" d="M615.7,363.8h-15.2c-2.2,0-4-1.8-4-4v-15.2c0-2.2,1.8-4,4-4h15.2c2.2,0,4,1.8,4,4v15.2
			C619.7,361.9,617.9,363.8,615.7,363.8z"/>
		<path class="st13" d="M642.9,363.8h-15.2c-2.2,0-4-1.8-4-4v-15.2c0-2.2,1.8-4,4-4h15.2c2.2,0,4,1.8,4,4v15.2
			C646.9,361.9,645.1,363.8,642.9,363.8z"/>
	</g>
	<g>
		<path class="st13" d="M456.5,363.8h-15.2c-2.2,0-4-1.8-4-4v-15.2c0-2.2,1.8-4,4-4h15.2c2.2,0,4,1.8,4,4v15.2
			C460.5,361.9,458.7,363.8,456.5,363.8z"/>
		<path class="st13" d="M482.4,363.8h-15.2c-2.2,0-4-1.8-4-4v-15.2c0-2.2,1.8-4,4-4h15.2c2.2,0,4,1.8,4,4v15.2
			C486.5,361.9,484.7,363.8,482.4,363.8z"/>
		<path class="st13" d="M509,363.8h-15.2c-2.2,0-4-1.8-4-4v-15.2c0-2.2,1.8-4,4-4H509c2.2,0,4,1.8,4,4v15.2
			C513.1,361.9,511.2,363.8,509,363.8z"/>
		<path class="st13" d="M536.2,363.8H521c-2.2,0-4-1.8-4-4v-15.2c0-2.2,1.8-4,4-4h15.2c2.2,0,4,1.8,4,4v15.2
			C540.3,361.9,538.4,363.8,536.2,363.8z"/>
	</g>
	<g>
		<path class="st13" d="M399.1,391.4h-15.2c-2.2,0-4-1.8-4-4v-15.2c0-2.2,1.8-4,4-4h15.2c2.2,0,4,1.8,4,4v15.2
			C403.2,389.5,401.3,391.4,399.1,391.4z"/>
		<path class="st13" d="M425,391.4h-15.2c-2.2,0-4-1.8-4-4v-15.2c0-2.2,1.8-4,4-4H425c2.2,0,4,1.8,4,4v15.2
			C429.1,389.5,427.3,391.4,425,391.4z"/>
		<path class="st13" d="M451.6,391.4h-15.2c-2.2,0-4-1.8-4-4v-15.2c0-2.2,1.8-4,4-4h15.2c2.2,0,4,1.8,4,4v15.2
			C455.7,389.5,453.9,391.4,451.6,391.4z"/>
		<path class="st13" d="M478.9,391.4h-15.2c-2.2,0-4-1.8-4-4v-15.2c0-2.2,1.8-4,4-4h15.2c2.2,0,4,1.8,4,4v15.2
			C482.9,389.5,481.1,391.4,478.9,391.4z"/>
	</g>
	<g>
		<path class="st13" d="M542.7,311.5h-15.2c-2.2,0-4-1.8-4-4v-15.2c0-2.2,1.8-4,4-4h15.2c2.2,0,4,1.8,4,4v15.2
			C546.7,309.7,545,311.5,542.7,311.5z"/>
		<path class="st13" d="M568.6,311.5h-15.2c-2.2,0-4-1.8-4-4v-15.2c0-2.2,1.8-4,4-4h15.2c2.2,0,4,1.8,4,4v15.2
			C572.7,309.7,570.8,311.5,568.6,311.5z"/>
		<path class="st13" d="M595.2,311.5H580c-2.2,0-4-1.8-4-4v-15.2c0-2.2,1.8-4,4-4h15.2c2.2,0,4,1.8,4,4v15.2
			C599.3,309.7,597.4,311.5,595.2,311.5z"/>
		<path class="st13" d="M622.4,311.5h-15.2c-2.2,0-4-1.8-4-4v-15.2c0-2.2,1.8-4,4-4h15.2c2.2,0,4,1.8,4,4v15.2
			C626.5,309.7,624.6,311.5,622.4,311.5z"/>
	</g>
	<path class="st13" d="M609.4,284.9h-15.2c-2.2,0-4-1.8-4-4v-15.2c0-2.2,1.8-4,4-4h15.2c2.2,0,4,1.8,4,4v15.2
		C613.6,283.1,611.7,284.9,609.4,284.9z"/>
	<path class="st13" d="M635.4,284.9h-15.2c-2.2,0-4-1.8-4-4v-15.2c0-2.2,1.8-4,4-4h15.2c2.2,0,4,1.8,4,4v15.2
		C639.4,283.1,637.6,284.9,635.4,284.9z"/>
	<path class="st13" d="M662,284.9h-15.2c-2.2,0-4-1.8-4-4v-15.2c0-2.2,1.8-4,4-4H662c2.2,0,4,1.8,4,4v15.2
		C666,283.1,664.2,284.9,662,284.9z"/>
	<path class="st13" d="M689.2,284.9H674c-2.2,0-4-1.8-4-4v-15.2c0-2.2,1.8-4,4-4h15.2c2.2,0,4,1.8,4,4v15.2
		C693.2,283.1,691.5,284.9,689.2,284.9z"/>
	<path class="st13" d="M648.4,311.5h-15.2c-2.2,0-4-1.8-4-4v-15.2c0-2.2,1.8-4,4-4h15.2c2.2,0,4,1.8,4,4v15.2
		C652.4,309.7,650.6,311.5,648.4,311.5z"/>
	<path class="st13" d="M675.6,311.5h-15.2c-2.2,0-4-1.8-4-4v-15.2c0-2.2,1.8-4,4-4h15.2c2.2,0,4,1.8,4,4v15.2
		C679.6,309.7,677.8,311.5,675.6,311.5z"/>
	<path class="st13" d="M716.8,284.9h-15.2c-2.2,0-4-1.8-4-4v-15.2c0-2.2,1.8-4,4-4h15.2c2.2,0,4,1.8,4,4v15.2
		C720.8,283.1,719,284.9,716.8,284.9z"/>
	<path class="st13" d="M702.3,311.5h-15.2c-2.2,0-4-1.8-4-4v-15.2c0-2.2,1.8-4,4-4h15.2c2.2,0,4,1.8,4,4v15.2
		C706.4,309.7,704.5,311.5,702.3,311.5z"/>
	<path class="st13" d="M729.6,311.5h-15.2c-2.2,0-4-1.8-4-4v-15.2c0-2.2,1.8-4,4-4h15.2c2.2,0,4,1.8,4,4v15.2
		C733.6,309.7,731.8,311.5,729.6,311.5z"/>
	<path class="st13" d="M655.8,337.3h-15.2c-2.2,0-4-1.8-4-4v-15.2c0-2.2,1.8-4,4-4h15.2c2.2,0,4,1.8,4,4v15.2
		C659.8,335.5,658,337.3,655.8,337.3z"/>
	<path class="st13" d="M682.5,337.3h-15.2c-2.2,0-4-1.8-4-4v-15.2c0-2.2,1.8-4,4-4h15.2c2.2,0,4,1.8,4,4v15.2
		C686.5,335.5,684.7,337.3,682.5,337.3z"/>
	<path class="st13" d="M709.7,337.3h-15.2c-2.2,0-4-1.8-4-4v-15.2c0-2.2,1.8-4,4-4h15.2c2.2,0,4,1.8,4,4v15.2
		C713.7,335.5,711.9,337.3,709.7,337.3z"/>
	<path class="st13" d="M670.4,363.8h-15.2c-2.2,0-4-1.8-4-4v-15.2c0-2.2,1.8-4,4-4h15.2c2.2,0,4,1.8,4,4v15.2
		C674.5,362,672.7,363.8,670.4,363.8z"/>
	<path class="st13" d="M697.7,363.8h-15.2c-2.2,0-4-1.8-4-4v-15.2c0-2.2,1.8-4,4-4h15.2c2.2,0,4,1.8,4,4v15.2
		C701.7,362,699.9,363.8,697.7,363.8z"/>
	<path class="st13" d="M757.1,311.5h-15.2c-2.2,0-4-1.8-4-4v-15.2c0-2.2,1.8-4,4-4h15.2c2.2,0,4,1.8,4,4v15.2
		C761.2,309.7,759.3,311.5,757.1,311.5z"/>
	<path class="st15" d="M756.9,284.9h-28.7c-2.3,0-4.2-1.9-4.2-4.2v-14.9c0-2.3,1.9-4.2,4.2-4.2h28.7c2.3,0,4.2,1.9,4.2,4.2v14.9
		C761.2,283,759.2,284.9,756.9,284.9z"/>
	<path class="st15" d="M408.8,311.5h-28.7c-2.3,0-4.2-1.9-4.2-4.2v-14.9c0-2.3,1.9-4.2,4.2-4.2h28.7c2.3,0,4.2,1.9,4.2,4.2v14.9
		C413,309.6,411.1,311.5,408.8,311.5z"/>
	<path class="st15" d="M414.1,338.1h-35.1c-2.5,0-4.6-2.1-4.6-4.6v-14.1c0-2.5,2.1-4.6,4.6-4.6h35.1c2.5,0,4.6,2.1,4.6,4.6v14.1
		C418.7,336,416.6,338.1,414.1,338.1z"/>
	<path class="st15" d="M426.4,362.7h-45.7c-2.7,0-5-2.2-5-5v-11.4c0-2.7,2.2-5,5-5h45.7c2.7,0,5,2.2,5,5v11.5
		C431.4,360.5,429.2,362.7,426.4,362.7z"/>
	<path class="st15" d="M611.1,392.5H499.2c-4.5,0-8.2-3.7-8.2-8.2v-9.1c0-4.5,3.7-8.2,8.2-8.2h111.9c4.5,0,8.2,3.7,8.2,8.2v9.1
		C619.4,388.8,615.7,392.5,611.1,392.5z"/>
	<path class="st15" d="M674.2,392.5h-45.4c-3,0-5.5-2.4-5.5-5.5v-14.6c0-3,2.4-5.5,5.5-5.5h45.4c3,0,5.5,2.4,5.5,5.5V387
		C679.6,390,677.2,392.5,674.2,392.5z"/>
	<path class="st15" d="M756.7,337.9h-35.8c-2.5,0-4.5-2-4.5-4.5v-13.1c0-2.5,2-4.5,4.5-4.5h35.8c2.5,0,4.5,2,4.5,4.5v13.1
		C761.2,335.9,759.1,337.9,756.7,337.9z"/>
	<path class="st15" d="M756.3,363.1h-42.3c-2.6,0-4.9-2.2-4.9-4.9v-12.3c0-2.6,2.2-4.9,4.9-4.9h42.3c2.6,0,4.9,2.2,4.9,4.9v12.3
		C761.2,360.9,759,363.1,756.3,363.1z"/>
	<path class="st20" d="M936.7,539.5L915,527.9c0,0,18.8-17.1,25.4-26.3c7.4-10.2,3.6-31.2,6.2-45.3c2.3-12.3,16-33.5,16-33.5
		L991,438L936.7,539.5z"/>
	<polygon class="st21" points="339.7,124.5 383.4,206 430.1,206 430.1,189.7 733.1,186.7 733.1,199.8 776.8,200.9 825.7,124.5 	"/>
	<polygon class="st17" points="376,186.8 376,224.5 762.7,224.5 762.3,182.9 	"/>
</g>
</svg>
