<svg id="Layer_1" data-name="Layer 1" xmlns="http://www.w3.org/2000/svg" viewBox="0 0 2380.55 492.87"><defs><style>.cls-1{fill:#fff;opacity:0.7;isolation:isolate;}</style></defs><title>TestBG</title><path class="cls-1" d="M702.7,558.5c-1.3-.8-2.6-1.7-4-2.5-.3-.2-.3-.3-.2-.6a15.65,15.65,0,0,1,6.1-6.4,16.73,16.73,0,0,1,10.8-1.7,22.89,22.89,0,0,1,7.1,2.8,28.23,28.23,0,0,1,7.1,5.8c3.4,4,4.3,8.4,2.4,13.4a13.08,13.08,0,0,1-6.6,6.9,14.47,14.47,0,0,1-6.3,1.2c-1.9,0-3.9.2-5.8.3a6.41,6.41,0,0,0-4.5,2.5c-.2.2-.3.3-.3.5-.5.5-.5.5-1,.2-2.2-1.4-4.3-2.6-6.6-4-.3-.2-.3-.3-.2-.6,1.9-3.4,4.7-5.7,8.8-6,1.8-.2,3.5-.2,5.3-.5a7.45,7.45,0,0,0,5.6-3.4,5.12,5.12,0,0,0-.2-6.3,7.91,7.91,0,0,0-7.1-3.2,5.59,5.59,0,0,0-4.5,2.3,6.73,6.73,0,0,0-1.1,1.4c-.2.3-.3.3-.6.2-1.4-.8-2.7-1.5-4.2-2.3Z" transform="translate(-436.37 -124.32)"/><path class="cls-1" d="M702.1,582a5.46,5.46,0,0,1,2.6,3.2,3,3,0,0,1-2.6,3.8,5.58,5.58,0,0,1-5.9-2.8,3.5,3.5,0,0,1-.6-2.6,3.44,3.44,0,0,1,3.2-2.6A11.54,11.54,0,0,1,702.1,582Z" transform="translate(-436.37 -124.32)"/><path class="cls-1" d="M1429.4,419.8c.3,1.4.8,2.9,1.1,4.3,0,.3,0,.5-.3.6a16.54,16.54,0,0,1-9.1.6,15.62,15.62,0,0,1-9-5.8,20.71,20.71,0,0,1-3-6.6,24.11,24.11,0,0,1-.8-8.9,13.28,13.28,0,0,1,7.9-11.4,12.75,12.75,0,0,1,9.8-.6,15.69,15.69,0,0,1,5.5,3.1,38.65,38.65,0,0,0,4.5,3.5,5.92,5.92,0,0,0,5,1.1h.6c.6-.2.6-.2.8.6.6,2.5,1.3,4.8,1.9,7.2.2.3,0,.5-.3.6-3.9,1.1-7.5,1.1-10.8-1.5-1.4-1.1-2.7-2.1-4.2-3.1a8.41,8.41,0,0,0-6.6-1.2,5.31,5.31,0,0,0-4.3,4.6,7.74,7.74,0,0,0,2.7,7.1,6.62,6.62,0,0,0,5,1.4,12.5,12.5,0,0,0,1.9-.3c.3,0,.5,0,.5.3a20.33,20.33,0,0,0,1.2,4.4Z" transform="translate(-436.37 -124.32)"/><path class="cls-1" d="M1446.9,403.3a5.25,5.25,0,0,1,.5-4.1,3.31,3.31,0,0,1,4.7-1.1,5.67,5.67,0,0,1,2.4,6,4.25,4.25,0,0,1-1.4,2.3,3.34,3.34,0,0,1-4.2-.3A4.05,4.05,0,0,1,1446.9,403.3Z" transform="translate(-436.37 -124.32)"/><path class="cls-1" d="M795.5,550.7c-.8,1.4-1.4,2.6-2.2,4-.2.3-.3.3-.6.2a16,16,0,0,1-7.2-5.2,14,14,0,0,1-2.6-10,20,20,0,0,1,2.2-6.9,24.21,24.21,0,0,1,5.5-7.2c3.9-3.5,8.5-4.9,13.6-3.4a12.8,12.8,0,0,1,7.7,5.7,14.71,14.71,0,0,1,1.9,5.8c.3,1.8.5,3.7.8,5.5a5.44,5.44,0,0,0,2.9,4,1.33,1.33,0,0,0,.5.3c.6.3.6.3.3.9-1.1,2.1-2.4,4.5-3.5,6.6-.2.3-.3.3-.6.2-3.7-1.5-6.3-4-6.9-8a45.91,45.91,0,0,0-1-5.1,7.38,7.38,0,0,0-4-5.1,5.21,5.21,0,0,0-6.4.8,7.79,7.79,0,0,0-2.9,7.1,5.84,5.84,0,0,0,2.7,4.1,7.64,7.64,0,0,1,1.6,1.1c.3.2.3.3.2.6-.5,1.2-1.3,2.6-2,4Z" transform="translate(-436.37 -124.32)"/><path class="cls-1" d="M820.1,549.3a5.82,5.82,0,0,1,3.2-2.8,3.17,3.17,0,0,1,4.2,2.1,5.74,5.74,0,0,1-2.4,6,4.12,4.12,0,0,1-2.7.8,3.5,3.5,0,0,1-2.9-2.9A5.92,5.92,0,0,1,820.1,549.3Z" transform="translate(-436.37 -124.32)"/><path class="cls-1" d="M587.2,582.9c.2,1.5.3,2.9.5,4.5,0,.3,0,.5-.3.5a17.63,17.63,0,0,1-9.1-.5,15.13,15.13,0,0,1-8-6.9,17.27,17.27,0,0,1-2.1-6.9,24.25,24.25,0,0,1,.3-8.9,12.69,12.69,0,0,1,9.3-10.1,13.28,13.28,0,0,1,9.8.6,18.4,18.4,0,0,1,5,3.8c1.3,1.4,2.6,2.8,3.9,4.1a6.81,6.81,0,0,0,4.8,1.8h.6c.6,0,.6,0,.8.6.3,2.5.6,4.9,1,7.4a.47.47,0,0,1-.5.5c-4,.6-7.5.2-10.4-2.9-1.3-1.2-2.4-2.5-3.7-3.7a7.75,7.75,0,0,0-6.3-2.1,5.51,5.51,0,0,0-5,4.1,7.75,7.75,0,0,0,1.8,7.4,6.14,6.14,0,0,0,4.7,2h1.9a.47.47,0,0,1,.5.5,36.47,36.47,0,0,0,.5,4.2Z" transform="translate(-436.37 -124.32)"/><path class="cls-1" d="M606.8,568.6a4.73,4.73,0,0,1,1-4,3.37,3.37,0,0,1,4.8-.5,5.47,5.47,0,0,1,1.6,6.1,4.54,4.54,0,0,1-1.8,2.1,3.58,3.58,0,0,1-4.2-.8A5.65,5.65,0,0,1,606.8,568.6Z" transform="translate(-436.37 -124.32)"/><path class="cls-1" d="M900.9,569.8c-.3-1.5-.6-2.9-1-4.5,0-.3,0-.5.3-.6a17.63,17.63,0,0,1,9.1-.5,14.7,14.7,0,0,1,8.8,6A21.84,21.84,0,0,1,921,577a22.13,22.13,0,0,1,.6,8.9,13.46,13.46,0,0,1-8,11.2,13.7,13.7,0,0,1-15.1-2.7l-4.3-3.7a6.33,6.33,0,0,0-5-1.2h-.6c-.6,0-.6,0-.8-.6-.6-2.5-1.1-4.8-1.8-7.2-.2-.3,0-.5.3-.6,3.9-1.1,7.5-.9,10.8,1.7,1.3,1.1,2.7,2.1,4.2,3.2a7.75,7.75,0,0,0,6.6,1.4,5.31,5.31,0,0,0,4.3-4.6,7.92,7.92,0,0,0-2.6-7.1,6.38,6.38,0,0,0-4.8-1.4,12.5,12.5,0,0,0-1.9.3c-.3,0-.5,0-.5-.3-.7-1.6-1-3.1-1.5-4.5Z" transform="translate(-436.37 -124.32)"/><path class="cls-1" d="M883.1,586.1a5.25,5.25,0,0,1-.5,4.1,3.2,3.2,0,0,1-4.7.9,5.41,5.41,0,0,1-2.2-6,4.25,4.25,0,0,1,1.4-2.3,3.33,3.33,0,0,1,4.2.3A5.08,5.08,0,0,1,883.1,586.1Z" transform="translate(-436.37 -124.32)"/><path class="cls-1" d="M465.6,588.8c1.3.9,2.4,1.8,3.7,2.8.3.2.3.3.2.6a16.29,16.29,0,0,1-6.7,5.8,15.45,15.45,0,0,1-10.8.6,26.41,26.41,0,0,1-6.7-3.4,25.94,25.94,0,0,1-6.4-6.4c-2.9-4.3-3.4-8.9-1-13.5a12.84,12.84,0,0,1,7.2-6.3,17.09,17.09,0,0,1,6.3-.8,56.2,56.2,0,0,0,5.8.2,6.74,6.74,0,0,0,4.7-2l.5-.5c.5-.5.5-.5,1.1,0,2.1,1.5,4,3.1,6.1,4.5.3.2.3.5.2.6a10.78,10.78,0,0,1-9.5,5.1,46.85,46.85,0,0,0-5.3,0c-2.4.2-4.5.9-5.9,2.9a5.23,5.23,0,0,0-.5,6.3,7.78,7.78,0,0,0,6.7,4,6.17,6.17,0,0,0,4.8-1.8,8.31,8.31,0,0,0,1.3-1.4c.2-.2.3-.3.6,0a16.93,16.93,0,0,0,3.6,2.7Z" transform="translate(-436.37 -124.32)"/><path class="cls-1" d="M468.7,565.5a4.51,4.51,0,0,1-2.2-3.5,3,3,0,0,1,3-3.5,5.81,5.81,0,0,1,5.6,3.2,3.94,3.94,0,0,1,.3,2.6c-.3,1.4-1.9,2.3-3.5,2.3A5.17,5.17,0,0,1,468.7,565.5Z" transform="translate(-436.37 -124.32)"/><path class="cls-1" d="M1241.1,552.4c1.3-.8,2.6-1.7,3.9-2.5q.45-.3.6,0a14.82,14.82,0,0,1,3.7,8,13.23,13.23,0,0,1-2.7,10,20.64,20.64,0,0,1-5.5,5.1,26,26,0,0,1-8.3,3.8,13.8,13.8,0,0,1-13.8-3.2,11.49,11.49,0,0,1-4-8.6,13,13,0,0,1,1.3-6c.6-1.7,1.3-3.5,1.9-5.2a5.65,5.65,0,0,0-.6-4.9,1.33,1.33,0,0,1-.3-.5c-.3-.6-.3-.6.3-.9,2.1-1.4,4.3-2.8,6.4-4.1.3-.2.5-.2.6.2,2.4,3.1,3.5,6.3,2.2,10.1-.6,1.5-1.1,3.2-1.6,4.9a6.79,6.79,0,0,0,1,6.3,5.67,5.67,0,0,0,6.1,2.3,7.49,7.49,0,0,0,5.9-4.9,6,6,0,0,0-.3-4.9,15.05,15.05,0,0,0-1-1.7c-.2-.3-.2-.5.2-.6a46.22,46.22,0,0,0,4-2.7Z" transform="translate(-436.37 -124.32)"/><path class="cls-1" d="M1218.8,542.4a6.36,6.36,0,0,1-4.2,1.1,3.09,3.09,0,0,1-2.6-3.8,5.69,5.69,0,0,1,5-4.1,3.6,3.6,0,0,1,2.7.5,2.92,2.92,0,0,1,1.1,3.8A5.33,5.33,0,0,1,1218.8,542.4Z" transform="translate(-436.37 -124.32)"/><path class="cls-1" d="M1147.7,464.5c1.3-.8,2.7-1.5,4-2.3.3-.2.5-.2.6.2a17.61,17.61,0,0,1,3.4,8.1,13.11,13.11,0,0,1-3.2,9.8,21,21,0,0,1-5.8,4.8,24.1,24.1,0,0,1-8.5,3.4c-5.3,1.1-10,0-13.6-3.8a12.2,12.2,0,0,1-1.9-14.6c.8-1.7,1.6-3.4,2.2-5.1a6,6,0,0,0-.3-4.9.55.55,0,0,1-.2-.5c-.3-.6-.3-.6.3-.9,2.2-1.2,4.3-2.6,6.6-3.8.3-.2.5-.2.6.2,2.2,3.2,3.2,6.4,1.6,10.3-.6,1.5-1.3,3.1-1.9,4.8a7.75,7.75,0,0,0,.6,6.3,5.39,5.39,0,0,0,5.9,2.6,8.18,8.18,0,0,0,6.3-4.6,5.31,5.31,0,0,0-.2-4.9c-.3-.6-.5-1.1-.8-1.7-.2-.3-.2-.5.2-.6,1.5-1.1,2.8-1.8,4.1-2.8Z" transform="translate(-436.37 -124.32)"/><path class="cls-1" d="M1126,453.5a5.31,5.31,0,0,1-4.2.8,3.13,3.13,0,0,1-2.4-4,6.13,6.13,0,0,1,5.3-4,6,6,0,0,1,2.7.6,3.19,3.19,0,0,1,1,4A6.08,6.08,0,0,1,1126,453.5Z" transform="translate(-436.37 -124.32)"/><path class="cls-1" d="M1022.8,483.2c-1.3-.9-2.6-1.8-3.7-2.6-.3-.2-.3-.3-.2-.6,1.8-2.5,3.7-4.8,6.6-6a15.5,15.5,0,0,1,10.8-.9,18.92,18.92,0,0,1,6.7,3.2,24.75,24.75,0,0,1,6.6,6.3c3,4.3,3.7,8.8,1.4,13.5a12.13,12.13,0,0,1-7.1,6.4,16.61,16.61,0,0,1-6.3.9,56.1,56.1,0,0,0-5.8,0,6.44,6.44,0,0,0-4.7,2.1l-.5.5c-.5.5-.5.5-1.1.2-2.1-1.4-4.2-2.9-6.3-4.3-.3-.2-.3-.5-.2-.6,2.2-3.2,5.1-5.4,9.3-5.4a47,47,0,0,0,5.3-.2,7.58,7.58,0,0,0,5.9-3.1,5,5,0,0,0,.2-6.3,8.1,8.1,0,0,0-6.9-3.7,6,6,0,0,0-4.7,2c-.5.5-.8.9-1.3,1.4-.2.2-.3.3-.6,0a11.86,11.86,0,0,0-3.4-2.8Z" transform="translate(-436.37 -124.32)"/><path class="cls-1" d="M1020.2,506.6a5.43,5.43,0,0,1,2.4,3.4,3.27,3.27,0,0,1-2.9,3.7,6.22,6.22,0,0,1-5.8-3.1,3.94,3.94,0,0,1-.3-2.6,3.32,3.32,0,0,1,3.4-2.3A4.68,4.68,0,0,1,1020.2,506.6Z" transform="translate(-436.37 -124.32)"/><path class="cls-1" d="M1255.3,499.8c.2,1.5.3,2.9.5,4.5,0,.3,0,.5-.3.5a17.63,17.63,0,0,1-9.1-.5,15.13,15.13,0,0,1-8-6.9,17.27,17.27,0,0,1-2.1-6.9,24.25,24.25,0,0,1,.3-8.9,12.69,12.69,0,0,1,9.3-10.1,13.28,13.28,0,0,1,9.8.6,18.4,18.4,0,0,1,5,3.8c1.3,1.4,2.6,2.8,3.9,4.1a6.81,6.81,0,0,0,4.8,1.8h.6c.6,0,.6,0,.8.6.3,2.5.6,4.9,1,7.4a.47.47,0,0,1-.5.5c-4,.6-7.5.2-10.4-2.9-1.3-1.2-2.4-2.5-3.7-3.7a7.75,7.75,0,0,0-6.3-2.1c-2.4.4-4.2,1.5-5,4.1a7.75,7.75,0,0,0,1.8,7.4,6.14,6.14,0,0,0,4.7,2h1.9a.47.47,0,0,1,.5.5,16,16,0,0,0,.5,4.2Z" transform="translate(-436.37 -124.32)"/><path class="cls-1" d="M1274.8,485.5a4.73,4.73,0,0,1,1-4,3.37,3.37,0,0,1,4.8-.5,5.47,5.47,0,0,1,1.6,6.1,4.54,4.54,0,0,1-1.8,2.1,3.58,3.58,0,0,1-4.2-.8A5.65,5.65,0,0,1,1274.8,485.5Z" transform="translate(-436.37 -124.32)"/><path class="cls-1" d="M1132.9,560c-.3-1.5-.6-2.9-1-4.5,0-.3,0-.5.3-.6a17.63,17.63,0,0,1,9.1-.5,14.7,14.7,0,0,1,8.8,6,21.84,21.84,0,0,1,2.9,6.8,22.13,22.13,0,0,1,.6,8.9,13.46,13.46,0,0,1-8,11.2,13.7,13.7,0,0,1-15.1-2.7l-4.3-3.7a6.33,6.33,0,0,0-5-1.2h-.6c-.6,0-.6,0-.8-.6-.6-2.5-1.1-4.8-1.8-7.2-.2-.3,0-.5.3-.6,3.9-1.1,7.5-.9,10.8,1.7,1.3,1.1,2.7,2.1,4.2,3.2a7.75,7.75,0,0,0,6.6,1.4,5.31,5.31,0,0,0,4.3-4.6,7.92,7.92,0,0,0-2.6-7.1,6.38,6.38,0,0,0-4.8-1.4,12.5,12.5,0,0,0-1.9.3c-.3,0-.5,0-.5-.3-.7-1.6-1-3.1-1.5-4.5Z" transform="translate(-436.37 -124.32)"/><path class="cls-1" d="M1115.1,576.3a5.25,5.25,0,0,1-.5,4.1,3.2,3.2,0,0,1-4.7.9,5.41,5.41,0,0,1-2.2-6,4.25,4.25,0,0,1,1.4-2.3,3.33,3.33,0,0,1,4.2.3A8.58,8.58,0,0,1,1115.1,576.3Z" transform="translate(-436.37 -124.32)"/><path class="cls-1" d="M1021.2,584.4c-1.1,1.1-2.2,2-3.4,3.1-.2.2-.3.3-.6,0a16.71,16.71,0,0,1-5.1-7.2,13.61,13.61,0,0,1,.8-10.3,19.68,19.68,0,0,1,4.5-5.8,29.26,29.26,0,0,1,7.5-5.1c4.8-2.1,9.6-2,14.1.9a12.25,12.25,0,0,1,5.3,13.8c-.3,1.8-.8,3.7-1,5.5a5.66,5.66,0,0,0,1.4,4.8,1.33,1.33,0,0,1,.3.5c.5.5.5.5-.2,1.1-1.9,1.7-3.7,3.4-5.6,5.2-.3.3-.5.2-.6,0-2.9-2.6-4.7-5.7-4-9.7.3-1.7.6-3.4.8-5.1a6.94,6.94,0,0,0-2.1-6.1,5.38,5.38,0,0,0-6.4-1.2,7.72,7.72,0,0,0-5,5.8,6,6,0,0,0,1.3,4.8c.3.5.8.9,1.1,1.4q.3.45,0,.6a28,28,0,0,0-3.1,3Z" transform="translate(-436.37 -124.32)"/><path class="cls-1" d="M1044.9,590.6a5.44,5.44,0,0,1,4-1.7,3,3,0,0,1,3.2,3.4,5.88,5.88,0,0,1-4.2,4.9,3.16,3.16,0,0,1-2.7-.2,3.24,3.24,0,0,1-1.8-3.7A6.05,6.05,0,0,1,1044.9,590.6Z" transform="translate(-436.37 -124.32)"/><path class="cls-1" d="M928,519.1c1.3.9,2.4,1.8,3.7,2.8.3.2.3.3.2.6a16.29,16.29,0,0,1-6.7,5.8,15.45,15.45,0,0,1-10.8.6,26.41,26.41,0,0,1-6.7-3.4,25.94,25.94,0,0,1-6.4-6.4c-2.9-4.3-3.4-8.9-1-13.5a12.84,12.84,0,0,1,7.2-6.3,17.09,17.09,0,0,1,6.3-.8,56.2,56.2,0,0,0,5.8.2,6.74,6.74,0,0,0,4.7-2l.5-.5c.5-.5.5-.5,1.1,0,2.1,1.5,4,3.1,6.1,4.5.3.2.3.5.2.6a10.78,10.78,0,0,1-9.5,5.1,46.85,46.85,0,0,0-5.3,0c-2.4.2-4.5.9-5.9,2.9a5.23,5.23,0,0,0-.5,6.3,7.78,7.78,0,0,0,6.7,4,6.17,6.17,0,0,0,4.8-1.8,8.31,8.31,0,0,0,1.3-1.4c.2-.2.3-.3.6,0a30.72,30.72,0,0,0,3.6,2.7Z" transform="translate(-436.37 -124.32)"/><path class="cls-1" d="M931.3,495.8a4.51,4.51,0,0,1-2.2-3.5,3,3,0,0,1,3-3.5,5.81,5.81,0,0,1,5.6,3.2,3.94,3.94,0,0,1,.3,2.6c-.3,1.4-1.9,2.3-3.5,2.3A5.35,5.35,0,0,1,931.3,495.8Z" transform="translate(-436.37 -124.32)"/><path class="cls-1" d="M2192.8,305.2c.2-1.5.3-2.9.6-4.5a.47.47,0,0,1,.5-.5,17.89,17.89,0,0,1,8.7,2.5,14.29,14.29,0,0,1,6.1,8.4,19.5,19.5,0,0,1,.3,7.2,23.06,23.06,0,0,1-2.6,8.6c-2.4,4.6-6.1,7.4-11.6,7.8a12.47,12.47,0,0,1-9.3-2.8,14.22,14.22,0,0,1-3.9-4.8c-1-1.7-1.8-3.2-2.9-4.9a6.16,6.16,0,0,0-4.2-2.8c-.2,0-.3-.2-.5-.2-.6-.2-.6-.2-.6-.8.3-2.5.6-4.9,1-7.4a.47.47,0,0,1,.5-.5c4,.3,7.4,1.5,9.5,5.1.8,1.5,1.8,2.9,2.7,4.3a7.74,7.74,0,0,0,5.6,3.4,5.36,5.36,0,0,0,5.8-2.9,7.45,7.45,0,0,0,0-7.5,5.78,5.78,0,0,0-4-2.9c-.6-.2-1.3-.3-1.9-.5-.3,0-.5-.2-.3-.5a23.54,23.54,0,0,0,.5-3.8Z" transform="translate(-436.37 -124.32)"/><path class="cls-1" d="M2158.6,310.7a5.56,5.56,0,0,1-1.9,3.7,3.38,3.38,0,0,1-4.8-.6,5.58,5.58,0,0,1,0-6.3,4.56,4.56,0,0,1,2.2-1.7,3.46,3.46,0,0,1,3.9,1.7A4.45,4.45,0,0,1,2158.6,310.7Z" transform="translate(-436.37 -124.32)"/><path class="cls-1" d="M2464.6,333.2c1.4.3,3,.8,4.5,1.1.3,0,.5.2.3.5a16.35,16.35,0,0,1-3.7,8,15.29,15.29,0,0,1-9.6,4.8,20.83,20.83,0,0,1-7.5-.6,24.3,24.3,0,0,1-8.5-3.5c-4.5-2.8-6.9-6.8-6.6-12a12.19,12.19,0,0,1,4-8.4,17.44,17.44,0,0,1,5.5-3.1c1.8-.6,3.7-1.4,5.5-2a5.66,5.66,0,0,0,3.4-3.7c0-.2.2-.3.2-.5.3-.6.3-.6,1-.5,2.6.6,5,1.2,7.5,1.8.3.2.5.3.3.6-.8,3.8-2.6,6.8-6.6,8.3a34.5,34.5,0,0,0-4.8,2,7.74,7.74,0,0,0-4.3,4.9,5.19,5.19,0,0,0,2.2,5.8,9.13,9.13,0,0,0,7.9,1.1,5.33,5.33,0,0,0,3.5-3.5,5.78,5.78,0,0,0,.6-1.7c.2-.3.3-.3.6-.3,1.4.2,3,.6,4.6.9Z" transform="translate(-436.37 -124.32)"/><path class="cls-1" d="M2457.5,310.7a5.89,5.89,0,0,1-3.5-2.3,3.08,3.08,0,0,1,1.3-4.5,6.32,6.32,0,0,1,6.6.8,4.25,4.25,0,0,1,1.4,2.3,3.1,3.1,0,0,1-2.2,3.4A9.23,9.23,0,0,1,2457.5,310.7Z" transform="translate(-436.37 -124.32)"/><path class="cls-1" d="M2325.9,328.5c1.6-.3,3-.5,4.7-.8.3,0,.5,0,.5.3.6,2.9,1,5.8,0,8.8a14.79,14.79,0,0,1-6.7,8.1,25.63,25.63,0,0,1-7.2,2.5,29,29,0,0,1-9.3.2c-5.3-.9-9.1-3.5-11.1-8.4a11.05,11.05,0,0,1,.2-9.4,14.45,14.45,0,0,1,3.7-4.9,50.32,50.32,0,0,0,4-4,5.69,5.69,0,0,0,1.6-4.8v-.6c0-.6,0-.6.6-.8,2.6-.5,5.1-.8,7.7-1.2.3,0,.5,0,.6.3,1,3.7.5,7.2-2.4,10.1-1.3,1.2-2.4,2.5-3.5,3.7a7.57,7.57,0,0,0-1.8,6.1,5.3,5.3,0,0,0,4.5,4.5,8.12,8.12,0,0,0,7.5-2.1,5.63,5.63,0,0,0,1.8-4.6,5.54,5.54,0,0,0-.2-1.8c0-.3,0-.5.3-.5a32.49,32.49,0,0,0,4.5-.7Z" transform="translate(-436.37 -124.32)"/><path class="cls-1" d="M2310,310.5a4.76,4.76,0,0,1-4.2-.8,3.17,3.17,0,0,1-.8-4.6,6.24,6.24,0,0,1,6.4-1.8,3.64,3.64,0,0,1,2.2,1.5,3.23,3.23,0,0,1-.6,4A4.38,4.38,0,0,1,2310,310.5Z" transform="translate(-436.37 -124.32)"/><path class="cls-1" d="M2156.2,401.2c-1.3-.8-2.6-1.7-4-2.5-.3-.2-.3-.3-.2-.6a15.65,15.65,0,0,1,6.1-6.4,16.73,16.73,0,0,1,10.8-1.7,22.89,22.89,0,0,1,7.1,2.8,28.23,28.23,0,0,1,7.1,5.8c3.4,4,4.3,8.4,2.4,13.4a13.08,13.08,0,0,1-6.6,6.9,14.47,14.47,0,0,1-6.3,1.2c-1.9,0-3.9.2-5.8.3a6.41,6.41,0,0,0-4.5,2.5c-.2.2-.3.3-.3.5-.5.5-.5.5-1,.2-2.2-1.4-4.3-2.6-6.6-4-.3-.2-.3-.3-.2-.6,1.9-3.4,4.7-5.7,8.8-6,1.8-.2,3.5-.2,5.3-.5a7.45,7.45,0,0,0,5.6-3.4,5.12,5.12,0,0,0-.2-6.3,7.91,7.91,0,0,0-7.1-3.2,5.59,5.59,0,0,0-4.5,2.3,6.73,6.73,0,0,0-1.1,1.4c-.2.3-.3.3-.6.2-1.5-.8-2.8-1.6-4.2-2.3Z" transform="translate(-436.37 -124.32)"/><path class="cls-1" d="M2155.5,424.6a5.46,5.46,0,0,1,2.6,3.2,3,3,0,0,1-2.6,3.8,5.58,5.58,0,0,1-5.9-2.8,3.5,3.5,0,0,1-.6-2.6,3.44,3.44,0,0,1,3.2-2.6A21.66,21.66,0,0,1,2155.5,424.6Z" transform="translate(-436.37 -124.32)"/><path class="cls-1" d="M2808.6,141.2c1.3-.8,2.6-1.7,3.9-2.5q.45-.3.6,0a14.82,14.82,0,0,1,3.7,8,13.23,13.23,0,0,1-2.7,10,20.64,20.64,0,0,1-5.5,5.1,26,26,0,0,1-8.3,3.8,13.8,13.8,0,0,1-13.8-3.2,11.49,11.49,0,0,1-4-8.6,13,13,0,0,1,1.3-6c.6-1.7,1.3-3.5,1.9-5.2a5.65,5.65,0,0,0-.6-4.9,1.33,1.33,0,0,1-.3-.5c-.3-.6-.3-.6.3-.9,2.1-1.4,4.3-2.8,6.4-4.1.3-.2.5-.2.6.2,2.4,3.1,3.5,6.3,2.2,10.1-.6,1.5-1.1,3.2-1.6,4.9a6.79,6.79,0,0,0,1,6.3,5.67,5.67,0,0,0,6.1,2.3,7.49,7.49,0,0,0,5.9-4.9,6,6,0,0,0-.3-4.9,15.05,15.05,0,0,0-1-1.7c-.2-.3-.2-.5.2-.6a27.69,27.69,0,0,0,4-2.7Z" transform="translate(-436.37 -124.32)"/><path class="cls-1" d="M2786.5,131.2a6.36,6.36,0,0,1-4.2,1.1,3.09,3.09,0,0,1-2.6-3.8,5.69,5.69,0,0,1,5-4.1,3.6,3.6,0,0,1,2.7.5,2.92,2.92,0,0,1,1.1,3.8A6.18,6.18,0,0,1,2786.5,131.2Z" transform="translate(-436.37 -124.32)"/><path class="cls-1" d="M2097.3,517.8c.3,1.4.8,2.9,1.1,4.3,0,.3,0,.5-.3.6a16.54,16.54,0,0,1-9.1.6,15.62,15.62,0,0,1-9-5.8,20.71,20.71,0,0,1-3-6.6,24.11,24.11,0,0,1-.8-8.9,13.28,13.28,0,0,1,7.9-11.4,12.75,12.75,0,0,1,9.8-.6,15.69,15.69,0,0,1,5.5,3.1,38.65,38.65,0,0,0,4.5,3.5,5.92,5.92,0,0,0,5,1.1h.6c.6-.2.6-.2.8.6.6,2.5,1.3,4.8,1.9,7.2.2.3,0,.5-.3.6-3.9,1.1-7.5,1.1-10.8-1.5-1.4-1.1-2.7-2.1-4.2-3.1a8.41,8.41,0,0,0-6.6-1.2,5.31,5.31,0,0,0-4.3,4.6,7.74,7.74,0,0,0,2.7,7.1,6.62,6.62,0,0,0,5,1.4,12.5,12.5,0,0,0,1.9-.3c.3,0,.5,0,.5.3a24,24,0,0,0,1.2,4.4Z" transform="translate(-436.37 -124.32)"/><path class="cls-1" d="M2114.8,501.2a5.25,5.25,0,0,1,.5-4.1,3.31,3.31,0,0,1,4.7-1.1,5.67,5.67,0,0,1,2.4,6,4.25,4.25,0,0,1-1.4,2.3,3.34,3.34,0,0,1-4.2-.3A3.87,3.87,0,0,1,2114.8,501.2Z" transform="translate(-436.37 -124.32)"/><path class="cls-1" d="M2250.6,428.9c-.5,1.4-.8,2.9-1.3,4.3-.2.3-.2.5-.5.3a17.54,17.54,0,0,1-8.2-3.7,13.8,13.8,0,0,1-4.7-9.4,19.26,19.26,0,0,1,.8-7.2,24.31,24.31,0,0,1,3.9-8.1,14,14,0,0,1,21.5-1.9,13.68,13.68,0,0,1,3,5.4c.6,1.7,1.3,3.5,2.1,5.2a5.49,5.49,0,0,0,3.7,3.4c.2,0,.3.2.5.2.6.3.6.3.5.9-.6,2.5-1.4,4.8-2.1,7.2-.2.3-.3.5-.6.3-3.9-.8-7.1-2.6-8.5-6.4-.6-1.5-1.3-3.2-1.9-4.8a7,7,0,0,0-5-4.1,5.35,5.35,0,0,0-6.1,2,7.45,7.45,0,0,0-1.3,7.4,6,6,0,0,0,3.5,3.5,5.46,5.46,0,0,0,1.8.6c.3.2.3.3.3.6a27.08,27.08,0,0,0-1.4,4.3Z" transform="translate(-436.37 -124.32)"/><path class="cls-1" d="M2274.4,422.7a5.24,5.24,0,0,1,2.6-3.4,3.3,3.3,0,0,1,4.7,1.4,5.51,5.51,0,0,1-1,6.3,3.47,3.47,0,0,1-5.9-1.1A3.64,3.64,0,0,1,2274.4,422.7Z" transform="translate(-436.37 -124.32)"/><path class="cls-1" d="M2399.1,420.4c1.3.8,2.7,1.5,4,2.3.3.2.3.3.2.6a15.66,15.66,0,0,1-5.9,6.6,15,15,0,0,1-10.6,2,20.27,20.27,0,0,1-7.1-2.6,29.9,29.9,0,0,1-7.2-5.5c-3.5-3.8-4.7-8.3-2.9-13.2a12.22,12.22,0,0,1,6.3-7.1,16.11,16.11,0,0,1,6.1-1.5c1.9-.2,3.9-.3,5.8-.6a5.47,5.47,0,0,0,4.3-2.6,1.33,1.33,0,0,0,.3-.5c.5-.5.5-.5,1-.2,2.2,1.2,4.5,2.5,6.7,3.7.3.2.3.3.2.6-1.8,3.4-4.5,5.8-8.7,6.3-1.8.2-3.5.3-5.3.6a7.77,7.77,0,0,0-5.5,3.5c-1.1,2-1.3,4.1.5,6.1a8.8,8.8,0,0,0,7.2,3.1,6.41,6.41,0,0,0,4.5-2.5c.3-.5.8-.9,1.1-1.5.2-.3.3-.3.6-.2a50.59,50.59,0,0,0,4.4,2.6Z" transform="translate(-436.37 -124.32)"/><path class="cls-1" d="M2398.7,396.7a4.76,4.76,0,0,1-2.7-3.2,3.17,3.17,0,0,1,2.4-4,6,6,0,0,1,6.1,2.5,3.5,3.5,0,0,1,.6,2.6,3.09,3.09,0,0,1-3.2,2.6A3.77,3.77,0,0,1,2398.7,396.7Z" transform="translate(-436.37 -124.32)"/><path class="cls-1" d="M2206.4,491.6c.2-1.5.3-2.9.6-4.5a.47.47,0,0,1,.5-.5,17.89,17.89,0,0,1,8.7,2.5,14.29,14.29,0,0,1,6.1,8.4,19.5,19.5,0,0,1,.3,7.2,23.06,23.06,0,0,1-2.6,8.6c-2.4,4.6-6.1,7.4-11.6,7.8a12.47,12.47,0,0,1-9.3-2.8,14.22,14.22,0,0,1-3.9-4.8c-1-1.7-1.8-3.2-2.9-4.9a6.16,6.16,0,0,0-4.2-2.8c-.2,0-.3-.2-.5-.2-.6-.2-.6-.2-.6-.8.3-2.5.6-4.9,1-7.4a.47.47,0,0,1,.5-.5c4,.3,7.4,1.5,9.5,5.1.8,1.5,1.8,2.9,2.7,4.3a7.74,7.74,0,0,0,5.6,3.4,5.36,5.36,0,0,0,5.8-2.9,7.45,7.45,0,0,0,0-7.5,5.78,5.78,0,0,0-4-2.9c-.6-.2-1.3-.3-1.9-.5-.3,0-.5-.2-.3-.5a12,12,0,0,0,.5-3.8Z" transform="translate(-436.37 -124.32)"/><path class="cls-1" d="M2183.9,501.2a5.56,5.56,0,0,1-1.9,3.7,3.38,3.38,0,0,1-4.8-.6,5.58,5.58,0,0,1,0-6.3,4.56,4.56,0,0,1,2.2-1.7,3.46,3.46,0,0,1,3.9,1.7A4.45,4.45,0,0,1,2183.9,501.2Z" transform="translate(-436.37 -124.32)"/><path class="cls-1" d="M2396.3,486.5c1.3-.8,2.7-1.5,4-2.3.3-.2.5-.2.6.2a17.61,17.61,0,0,1,3.4,8.1,13.11,13.11,0,0,1-3.2,9.8,21,21,0,0,1-5.8,4.8,24.1,24.1,0,0,1-8.5,3.4c-5.3,1.1-9.9,0-13.6-3.8a12.2,12.2,0,0,1-1.9-14.6c.8-1.7,1.6-3.4,2.2-5.1a6,6,0,0,0-.3-4.9.55.55,0,0,1-.2-.5c-.3-.6-.3-.6.3-.9,2.2-1.2,4.3-2.6,6.6-3.8.3-.2.5-.2.6.2,2.2,3.2,3.2,6.4,1.6,10.3-.6,1.5-1.3,3.1-1.9,4.8a7.75,7.75,0,0,0,.6,6.3,5.39,5.39,0,0,0,5.9,2.6,8.18,8.18,0,0,0,6.3-4.6,5.31,5.31,0,0,0-.2-4.9c-.3-.6-.5-1.1-.8-1.7-.2-.3-.2-.5.2-.6,1.3-1.1,2.8-1.9,4.1-2.8Z" transform="translate(-436.37 -124.32)"/><path class="cls-1" d="M2374.4,475.4a5.31,5.31,0,0,1-4.2.8,3.13,3.13,0,0,1-2.4-4,6.13,6.13,0,0,1,5.3-4,6,6,0,0,1,2.7.6,3.19,3.19,0,0,1,1,4A6.08,6.08,0,0,1,2374.4,475.4Z" transform="translate(-436.37 -124.32)"/><path class="cls-1" d="M2285.6,496.1c-1.3-.9-2.6-1.8-3.7-2.6-.3-.2-.3-.3-.2-.6,1.8-2.5,3.7-4.8,6.6-6a15.5,15.5,0,0,1,10.8-.9,18.92,18.92,0,0,1,6.7,3.2,24.75,24.75,0,0,1,6.6,6.3c3,4.3,3.7,8.8,1.4,13.5a12.13,12.13,0,0,1-7.1,6.4,16.61,16.61,0,0,1-6.3.9,56.1,56.1,0,0,0-5.8,0,6.44,6.44,0,0,0-4.7,2.1l-.5.5c-.5.5-.5.5-1.1.2-2.1-1.4-4.2-2.9-6.3-4.3-.3-.2-.3-.5-.2-.6,2.2-3.2,5.1-5.4,9.3-5.4a47,47,0,0,0,5.3-.2,7.58,7.58,0,0,0,5.9-3.1,5,5,0,0,0,.2-6.3,8.1,8.1,0,0,0-6.9-3.7,6,6,0,0,0-4.7,2c-.5.5-.8.9-1.3,1.4-.2.2-.3.3-.6,0a8.14,8.14,0,0,0-3.4-2.8Z" transform="translate(-436.37 -124.32)"/><path class="cls-1" d="M2283.2,519.5a5.43,5.43,0,0,1,2.4,3.4,3.27,3.27,0,0,1-2.9,3.7,6.22,6.22,0,0,1-5.8-3.1,3.94,3.94,0,0,1-.3-2.6,3.32,3.32,0,0,1,3.4-2.3A4.62,4.62,0,0,1,2283.2,519.5Z" transform="translate(-436.37 -124.32)"/><path class="cls-1" d="M2564.3,276c-.8,1.4-1.4,2.6-2.2,4-.2.3-.3.3-.6.2a16,16,0,0,1-7.2-5.2,14,14,0,0,1-2.6-10,20,20,0,0,1,2.2-6.9,24.21,24.21,0,0,1,5.5-7.2c3.9-3.5,8.5-4.9,13.6-3.4a12.8,12.8,0,0,1,7.7,5.7,14.71,14.71,0,0,1,1.9,5.8c.3,1.8.5,3.7.8,5.5a5.44,5.44,0,0,0,2.9,4,1.33,1.33,0,0,0,.5.3c.6.3.6.3.3.9-1.1,2.1-2.4,4.5-3.5,6.6-.2.3-.3.3-.6.2-3.7-1.5-6.3-4-6.9-8a45.91,45.91,0,0,0-1-5.1,7.38,7.38,0,0,0-4-5.1,5.21,5.21,0,0,0-6.4.8,7.79,7.79,0,0,0-2.9,7.1,5.84,5.84,0,0,0,2.7,4.1,7.64,7.64,0,0,1,1.6,1.1c.3.2.3.3.2.6a37.29,37.29,0,0,1-2,4Z" transform="translate(-436.37 -124.32)"/><path class="cls-1" d="M2588.9,274.7a5.82,5.82,0,0,1,3.2-2.8,3.17,3.17,0,0,1,4.2,2.1,5.74,5.74,0,0,1-2.4,6,4.12,4.12,0,0,1-2.7.8,3.5,3.5,0,0,1-2.9-2.9A5.75,5.75,0,0,1,2588.9,274.7Z" transform="translate(-436.37 -124.32)"/><path class="cls-1" d="M2490.5,411.5c-.3-1.5-.6-2.9-1-4.5,0-.3,0-.5.3-.6a17.63,17.63,0,0,1,9.1-.5,14.7,14.7,0,0,1,8.8,6,21.84,21.84,0,0,1,2.9,6.8,22.13,22.13,0,0,1,.6,8.9,13.46,13.46,0,0,1-8,11.2,13.7,13.7,0,0,1-15.1-2.7l-4.3-3.7a6.33,6.33,0,0,0-5-1.2h-.6c-.6,0-.6,0-.8-.6-.6-2.5-1.1-4.8-1.8-7.2-.2-.3,0-.5.3-.6,3.9-1.1,7.5-.9,10.8,1.7,1.3,1.1,2.7,2.1,4.2,3.2a7.75,7.75,0,0,0,6.6,1.4,5.31,5.31,0,0,0,4.3-4.6,7.92,7.92,0,0,0-2.6-7.1,6.38,6.38,0,0,0-4.8-1.4,12.5,12.5,0,0,0-1.9.3c-.3,0-.5,0-.5-.3-.7-1.6-1-3.1-1.5-4.5Z" transform="translate(-436.37 -124.32)"/><path class="cls-1" d="M2472.7,427.8a5.25,5.25,0,0,1-.5,4.1,3.2,3.2,0,0,1-4.7.9,5.41,5.41,0,0,1-2.2-6,4.25,4.25,0,0,1,1.4-2.3,3.33,3.33,0,0,1,4.2.3A5.08,5.08,0,0,1,2472.7,427.8Z" transform="translate(-436.37 -124.32)"/><path class="cls-1" d="M2456.6,559.8h-4.7a.47.47,0,0,1-.5-.5,16.32,16.32,0,0,1,1.6-8.6,15.5,15.5,0,0,1,8-6.9,27.1,27.1,0,0,1,16.6.2c5.1,1.7,8.3,4.9,9.5,10a11.71,11.71,0,0,1-1.8,9.2,15.43,15.43,0,0,1-4.5,4.3c-1.6,1.1-3.2,2.1-4.7,3.2a6.28,6.28,0,0,0-2.4,4.3v.6c-.2.6-.2.6-.8.6h-7.7a.47.47,0,0,1-.5-.5c-.2-3.8.8-7.2,4.2-9.5,1.4-1.1,2.9-2,4.2-3.1a7.34,7.34,0,0,0,2.9-5.8,5.14,5.14,0,0,0-3.7-5.1,8.54,8.54,0,0,0-7.9.9,6.32,6.32,0,0,0-2.6,4.3,5.54,5.54,0,0,0-.2,1.8.47.47,0,0,1-.5.5c-1.3.1-2.9.1-4.5.1Z" transform="translate(-436.37 -124.32)"/><path class="cls-1" d="M2469.1,580.1a5.2,5.2,0,0,1,4,1.4,3,3,0,0,1,0,4.6,6.32,6.32,0,0,1-6.6.8,4.74,4.74,0,0,1-1.9-1.8,3.11,3.11,0,0,1,1.3-3.8A4.43,4.43,0,0,1,2469.1,580.1Z" transform="translate(-436.37 -124.32)"/><path class="cls-1" d="M2325.1,582.7c-1.1,1.1-2.2,2-3.4,3.1-.2.2-.3.3-.6,0a16.71,16.71,0,0,1-5.1-7.2,13.61,13.61,0,0,1,.8-10.3,19.68,19.68,0,0,1,4.5-5.8,29.26,29.26,0,0,1,7.5-5.1c4.8-2.1,9.6-2,14.1.9a12.25,12.25,0,0,1,5.3,13.8c-.3,1.8-.8,3.7-1,5.5a5.66,5.66,0,0,0,1.4,4.8,1.33,1.33,0,0,1,.3.5c.5.5.5.5-.2,1.1-1.9,1.7-3.7,3.4-5.6,5.2-.3.3-.5.2-.6,0-2.9-2.6-4.7-5.7-4-9.7.3-1.7.6-3.4.8-5.1a6.94,6.94,0,0,0-2.1-6.1,5.38,5.38,0,0,0-6.4-1.2,7.72,7.72,0,0,0-5,5.8,6,6,0,0,0,1.3,4.8c.3.5.8.9,1.1,1.4q.3.45,0,.6a28,28,0,0,0-3.1,3Z" transform="translate(-436.37 -124.32)"/><path class="cls-1" d="M2348.8,588.9a5.44,5.44,0,0,1,4-1.7,3,3,0,0,1,3.2,3.4,5.88,5.88,0,0,1-4.2,4.9,3.16,3.16,0,0,1-2.7-.2,3.24,3.24,0,0,1-1.8-3.7A4.61,4.61,0,0,1,2348.8,588.9Z" transform="translate(-436.37 -124.32)"/><path class="cls-1" d="M2156.8,580.5c1.1,1.1,2.1,2.2,3.2,3.3.3.2.3.4.1.6a16.12,16.12,0,0,1-7.6,4.6,15.32,15.32,0,0,1-10.7-1.2,25.74,25.74,0,0,1-11.4-11.8c-2.1-4.7-1.9-9.3,1.3-13.5a13.24,13.24,0,0,1,8.2-5,16.65,16.65,0,0,1,6.3.3,57.24,57.24,0,0,0,5.7,1.1,6.4,6.4,0,0,0,4.9-1.2,2.09,2.09,0,0,0,.6-.4c.6-.4.6-.4,1.1.2,1.8,1.9,3.5,3.7,5.3,5.4a.39.39,0,0,1,.1.6c-2.7,2.8-6.1,4.3-10.2,3.4-1.7-.3-3.5-.7-5.2-.9-2.4-.2-4.6.2-6.3,1.9s-2.6,3.6-1.5,6.1a7.57,7.57,0,0,0,6,5,6.24,6.24,0,0,0,5.1-1,6.09,6.09,0,0,0,1.5-1.2c.2-.1.4-.2.6.1a9.27,9.27,0,0,0,2.9,3.6Z" transform="translate(-436.37 -124.32)"/><path class="cls-1" d="M2163.7,558a4.8,4.8,0,0,1-1.6-3.9,3,3,0,0,1,3.6-3,6,6,0,0,1,5,4.1,3.32,3.32,0,0,1-.1,2.6c-.5,1.3-2.3,2-3.9,1.7A4.57,4.57,0,0,1,2163.7,558Z" transform="translate(-436.37 -124.32)"/><path class="cls-1" d="M2767.1,320.2h-4.7a.47.47,0,0,1-.5-.5,16.16,16.16,0,0,1,1.4-8.6,15.5,15.5,0,0,1,8-6.9,21.43,21.43,0,0,1,7.5-1.2,24.78,24.78,0,0,1,9.1,1.2c5.1,1.7,8.5,4.9,9.6,10a11.61,11.61,0,0,1-1.6,9.2,15.43,15.43,0,0,1-4.5,4.3c-1.6,1.1-3.2,2.1-4.7,3.2a6.31,6.31,0,0,0-2.4,4.5v.6c0,.6,0,.6-.8.6-2.6,0-5.1,0-7.7.2a.47.47,0,0,1-.5-.5,10.25,10.25,0,0,1,4.2-9.7c1.4-1.1,2.9-2,4.2-3.1a7.34,7.34,0,0,0,2.9-5.8,5.14,5.14,0,0,0-3.7-5.1,8.54,8.54,0,0,0-7.9.9,6.32,6.32,0,0,0-2.6,4.3,5.54,5.54,0,0,0-.2,1.8.47.47,0,0,1-.5.5c-1.4.1-3,.1-4.6.1Z" transform="translate(-436.37 -124.32)"/><path class="cls-1" d="M2779.8,340.5a5.2,5.2,0,0,1,4,1.4,3,3,0,0,1,0,4.6,6.32,6.32,0,0,1-6.6.8,4.74,4.74,0,0,1-1.9-1.8,3.11,3.11,0,0,1,1.3-3.8A4.28,4.28,0,0,1,2779.8,340.5Z" transform="translate(-436.37 -124.32)"/><path class="cls-1" d="M2659.1,249.5c-1,1.1-2.1,2.3-3,3.4-.2.3-.3.3-.6.2-2.6-1.8-4.7-3.8-5.8-6.8a14.1,14.1,0,0,1-.2-10.3,20,20,0,0,1,3.9-6.3,23.78,23.78,0,0,1,7.1-5.8c4.7-2.6,9.5-2.9,14.1-.5a11.8,11.8,0,0,1,6.1,7.2,17.45,17.45,0,0,1,.5,6c-.2,1.8-.3,3.7-.5,5.5a5.41,5.41,0,0,0,1.9,4.6c.2.2.3.3.3.5.5.5.5.5,0,1.1-1.6,1.8-3.4,3.7-5,5.7-.2.3-.5.3-.6,0-3.2-2.3-5.1-5.2-4.8-9.2a43.61,43.61,0,0,0,.3-5.1,7,7,0,0,0-2.7-5.8,5.37,5.37,0,0,0-6.4-.6c-2.6,1.4-4.2,3.4-4.3,6.3a5.81,5.81,0,0,0,1.6,4.6c.5.5.8.9,1.3,1.4.2.2.3.3,0,.6a12.51,12.51,0,0,0-3.2,3.3Z" transform="translate(-436.37 -124.32)"/><path class="cls-1" d="M2683.3,253.5a6.19,6.19,0,0,1,3.7-2,3.05,3.05,0,0,1,3.5,3.1,5.46,5.46,0,0,1-3.7,5.2,4.24,4.24,0,0,1-2.7.2,3.18,3.18,0,0,1-2.2-3.4A5,5,0,0,1,2683.3,253.5Z" transform="translate(-436.37 -124.32)"/><path class="cls-1" d="M2714.4,328.5c1.6-.3,3-.5,4.7-.8.3,0,.5,0,.5.3.6,2.9,1,5.8,0,8.8a14.79,14.79,0,0,1-6.7,8.1,25.63,25.63,0,0,1-7.2,2.5,29,29,0,0,1-9.3.2c-5.3-.9-9.1-3.5-11.1-8.4a11.05,11.05,0,0,1,.2-9.4,14.45,14.45,0,0,1,3.7-4.9,50.32,50.32,0,0,0,4-4,5.69,5.69,0,0,0,1.6-4.8v-.6c0-.6,0-.6.6-.8,2.6-.5,5.1-.8,7.7-1.2.3,0,.5,0,.6.3,1,3.7.5,7.2-2.4,10.1-1.3,1.2-2.4,2.5-3.5,3.7a7.57,7.57,0,0,0-1.8,6.1,5.3,5.3,0,0,0,4.5,4.5,8.12,8.12,0,0,0,7.5-2.1,5.63,5.63,0,0,0,1.8-4.6,5.54,5.54,0,0,0-.2-1.8c0-.3,0-.5.3-.5a38,38,0,0,0,4.5-.7Z" transform="translate(-436.37 -124.32)"/><path class="cls-1" d="M2698.5,310.5a4.76,4.76,0,0,1-4.2-.8,3.17,3.17,0,0,1-.8-4.6,6.24,6.24,0,0,1,6.4-1.8,3.64,3.64,0,0,1,2.2,1.5,3.23,3.23,0,0,1-.6,4A4.85,4.85,0,0,1,2698.5,310.5Z" transform="translate(-436.37 -124.32)"/><path class="cls-1" d="M2558,366.5c-1.3-.8-2.6-1.7-4-2.5-.3-.2-.3-.3-.2-.6a15.65,15.65,0,0,1,6.1-6.4,16.73,16.73,0,0,1,10.8-1.7,22.89,22.89,0,0,1,7.1,2.8,28.23,28.23,0,0,1,7.1,5.8c3.4,4,4.3,8.4,2.4,13.4a13.08,13.08,0,0,1-6.6,6.9,14.47,14.47,0,0,1-6.3,1.2c-1.9,0-3.9.2-5.8.3a6.41,6.41,0,0,0-4.5,2.5c-.2.2-.3.3-.3.5-.5.5-.5.5-1,.2-2.2-1.4-4.3-2.6-6.6-4-.3-.2-.3-.3-.2-.6,1.9-3.4,4.7-5.7,8.8-6,1.8-.2,3.5-.2,5.3-.5a7.45,7.45,0,0,0,5.6-3.4,5.12,5.12,0,0,0-.2-6.3,7.91,7.91,0,0,0-7.1-3.2,5.59,5.59,0,0,0-4.5,2.3,6.73,6.73,0,0,0-1.1,1.4c-.2.3-.3.3-.6.2-1.4-.8-2.9-1.6-4.2-2.3Z" transform="translate(-436.37 -124.32)"/><path class="cls-1" d="M2557.2,390a5.46,5.46,0,0,1,2.6,3.2,3,3,0,0,1-2.6,3.8,5.58,5.58,0,0,1-5.9-2.8,3.5,3.5,0,0,1-.6-2.6,3.44,3.44,0,0,1,3.2-2.6A10.64,10.64,0,0,1,2557.2,390Z" transform="translate(-436.37 -124.32)"/><path class="cls-1" d="M2778.2,434.3c1.3.8,2.7,1.5,4,2.3.3.2.3.3.2.6a15.66,15.66,0,0,1-5.9,6.6,15,15,0,0,1-10.6,2,20.27,20.27,0,0,1-7.1-2.6,29.9,29.9,0,0,1-7.2-5.5c-3.5-3.8-4.7-8.3-2.9-13.2a12.22,12.22,0,0,1,6.3-7.1,16.11,16.11,0,0,1,6.1-1.5c1.9-.2,3.9-.3,5.8-.6a5.47,5.47,0,0,0,4.3-2.6,1.33,1.33,0,0,0,.3-.5c.5-.5.5-.5,1-.2,2.2,1.2,4.5,2.5,6.7,3.7.3.2.3.3.2.6-1.8,3.4-4.5,5.8-8.7,6.3-1.8.2-3.5.3-5.3.6a7.77,7.77,0,0,0-5.5,3.5c-1.1,2-1.3,4.1.5,6.1a8.8,8.8,0,0,0,7.2,3.1,6.41,6.41,0,0,0,4.5-2.5c.3-.5.8-.9,1.1-1.5.2-.3.3-.3.6-.2a42,42,0,0,0,4.4,2.6Z" transform="translate(-436.37 -124.32)"/><path class="cls-1" d="M2778.1,410.7a4.76,4.76,0,0,1-2.7-3.2,3.17,3.17,0,0,1,2.4-4,6,6,0,0,1,6.1,2.5,3.5,3.5,0,0,1,.6,2.6,3.09,3.09,0,0,1-3.2,2.6A3.62,3.62,0,0,1,2778.1,410.7Z" transform="translate(-436.37 -124.32)"/><path class="cls-1" d="M2530.7,488.5H2526a.47.47,0,0,1-.5-.5,16.16,16.16,0,0,1,1.4-8.6,15.5,15.5,0,0,1,8-6.9,21.43,21.43,0,0,1,7.5-1.2,24.78,24.78,0,0,1,9.1,1.2c5.1,1.7,8.5,4.9,9.6,10a11.61,11.61,0,0,1-1.6,9.2,15.43,15.43,0,0,1-4.5,4.3c-1.6,1.1-3.2,2.1-4.7,3.2a6.31,6.31,0,0,0-2.4,4.5v.6c0,.6,0,.6-.8.6-2.6,0-5.1,0-7.7.2a.47.47,0,0,1-.5-.5,10.25,10.25,0,0,1,4.2-9.7c1.4-1.1,2.9-2,4.2-3.1a7.34,7.34,0,0,0,2.9-5.8,5.14,5.14,0,0,0-3.7-5.1,8.54,8.54,0,0,0-7.9.9,6.32,6.32,0,0,0-2.6,4.3,5.54,5.54,0,0,0-.2,1.8.47.47,0,0,1-.5.5c-1.4.1-3,.1-4.6.1Z" transform="translate(-436.37 -124.32)"/><path class="cls-1" d="M2543.4,508.8a5.2,5.2,0,0,1,4,1.4,3,3,0,0,1,0,4.6,6.32,6.32,0,0,1-6.6.8,4.74,4.74,0,0,1-1.9-1.8,3.11,3.11,0,0,1,1.3-3.8A4.28,4.28,0,0,1,2543.4,508.8Z" transform="translate(-436.37 -124.32)"/><path class="cls-1" d="M2640.8,485.6c.2-1.5.3-2.9.6-4.5a.47.47,0,0,1,.5-.5,17.89,17.89,0,0,1,8.7,2.5,14.29,14.29,0,0,1,6.1,8.4,19.5,19.5,0,0,1,.3,7.2,23.06,23.06,0,0,1-2.6,8.6c-2.4,4.6-6.1,7.4-11.6,7.8a12.47,12.47,0,0,1-9.3-2.8,14.22,14.22,0,0,1-3.9-4.8c-1-1.7-1.8-3.2-2.9-4.9a6.16,6.16,0,0,0-4.2-2.8c-.2,0-.3-.2-.5-.2-.6-.2-.6-.2-.6-.8.3-2.5.6-4.9,1-7.4a.47.47,0,0,1,.5-.5c4,.3,7.4,1.5,9.5,5.1.8,1.5,1.8,2.9,2.7,4.3a7.74,7.74,0,0,0,5.6,3.4,5.36,5.36,0,0,0,5.8-2.9,7.45,7.45,0,0,0,0-7.5,5.78,5.78,0,0,0-4-2.9c-.6-.2-1.3-.3-1.9-.5-.3,0-.5-.2-.3-.5a27.28,27.28,0,0,0,.5-3.8Z" transform="translate(-436.37 -124.32)"/><path class="cls-1" d="M2618.2,495.1a5.56,5.56,0,0,1-1.9,3.7,3.38,3.38,0,0,1-4.8-.6,5.58,5.58,0,0,1,0-6.3,4.56,4.56,0,0,1,2.2-1.7,3.46,3.46,0,0,1,3.9,1.7A5,5,0,0,1,2618.2,495.1Z" transform="translate(-436.37 -124.32)"/><path class="cls-1" d="M2790.2,502.9c1.3-.8,2.7-1.5,4-2.3.3-.2.5-.2.6.2a17.61,17.61,0,0,1,3.4,8.1,13.11,13.11,0,0,1-3.2,9.8,21,21,0,0,1-5.8,4.8,24.1,24.1,0,0,1-8.5,3.4c-5.3,1.1-9.9,0-13.6-3.8a12.2,12.2,0,0,1-1.9-14.6c.8-1.7,1.6-3.4,2.2-5.1a6,6,0,0,0-.3-4.9.55.55,0,0,1-.2-.5c-.3-.6-.3-.6.3-.9,2.2-1.2,4.3-2.6,6.6-3.8.3-.2.5-.2.6.2,2.2,3.2,3.2,6.4,1.6,10.3-.6,1.5-1.3,3.1-1.9,4.8a7.75,7.75,0,0,0,.6,6.3,5.39,5.39,0,0,0,5.9,2.6,8.18,8.18,0,0,0,6.3-4.6,5.31,5.31,0,0,0-.2-4.9c-.3-.6-.5-1.1-.8-1.7-.2-.3-.2-.5.2-.6,1.5-1.1,2.8-1.9,4.1-2.8Z" transform="translate(-436.37 -124.32)"/><path class="cls-1" d="M2768.5,491.8a5.31,5.31,0,0,1-4.2.8,3.13,3.13,0,0,1-2.4-4,6.13,6.13,0,0,1,5.3-4,6,6,0,0,1,2.7.6,3.19,3.19,0,0,1,1,4A6.08,6.08,0,0,1,2768.5,491.8Z" transform="translate(-436.37 -124.32)"/><path class="cls-1" d="M2753.4,214.8c-1.3-.9-2.6-1.8-3.7-2.6-.3-.2-.3-.3-.2-.6,1.8-2.5,3.7-4.8,6.6-6a15.5,15.5,0,0,1,10.8-.9,18.92,18.92,0,0,1,6.7,3.2,24.75,24.75,0,0,1,6.6,6.3c3,4.3,3.7,8.8,1.4,13.5a12.13,12.13,0,0,1-7.1,6.4,16.61,16.61,0,0,1-6.3.9,56.1,56.1,0,0,0-5.8,0,6.44,6.44,0,0,0-4.7,2.1l-.5.5c-.5.5-.5.5-1.1.2-2.1-1.4-4.2-2.9-6.3-4.3-.3-.2-.3-.5-.2-.6,2.2-3.2,5.1-5.4,9.3-5.4a47,47,0,0,0,5.3-.2,7.58,7.58,0,0,0,5.9-3.1,5,5,0,0,0,.2-6.3,8.1,8.1,0,0,0-6.9-3.7,6,6,0,0,0-4.7,2c-.5.5-.8.9-1.3,1.4-.2.2-.3.3-.6,0a11.86,11.86,0,0,0-3.4-2.8Z" transform="translate(-436.37 -124.32)"/><path class="cls-1" d="M2750.8,238.2a5.43,5.43,0,0,1,2.4,3.4,3.27,3.27,0,0,1-2.9,3.7,6.22,6.22,0,0,1-5.8-3.1,3.94,3.94,0,0,1-.3-2.6,3.32,3.32,0,0,1,3.4-2.3A4.68,4.68,0,0,1,2750.8,238.2Z" transform="translate(-436.37 -124.32)"/><path class="cls-1" d="M2717.2,593.4c-1.1,1.1-2.2,2-3.4,3.1-.2.2-.3.3-.6,0a16.71,16.71,0,0,1-5.1-7.2,13.61,13.61,0,0,1,.8-10.3,19.68,19.68,0,0,1,4.5-5.8,29.26,29.26,0,0,1,7.5-5.1c4.8-2.1,9.6-2,14.1.9a12.25,12.25,0,0,1,5.3,13.8c-.3,1.8-.8,3.7-1,5.5a5.66,5.66,0,0,0,1.4,4.8,1.33,1.33,0,0,1,.3.5c.5.5.5.5-.2,1.1-1.9,1.7-3.7,3.4-5.6,5.2-.3.3-.5.2-.6,0-2.9-2.6-4.7-5.7-4-9.7.3-1.7.6-3.4.8-5.1a6.94,6.94,0,0,0-2.1-6.1,5.38,5.38,0,0,0-6.4-1.2,7.72,7.72,0,0,0-5,5.8,6,6,0,0,0,1.3,4.8c.3.5.8.9,1.1,1.4q.3.45,0,.6a21.09,21.09,0,0,0-3.1,3Z" transform="translate(-436.37 -124.32)"/><path class="cls-1" d="M2740.9,599.5a5.44,5.44,0,0,1,4-1.7,3,3,0,0,1,3.2,3.4,5.88,5.88,0,0,1-4.2,4.9,3.16,3.16,0,0,1-2.7-.2,3.24,3.24,0,0,1-1.8-3.7A5.64,5.64,0,0,1,2740.9,599.5Z" transform="translate(-436.37 -124.32)"/><path class="cls-1" d="M2591,606.7c1.3.9,2.4,1.8,3.7,2.8.3.2.3.3.2.6a16.29,16.29,0,0,1-6.7,5.8,15.45,15.45,0,0,1-10.8.6,26.41,26.41,0,0,1-6.7-3.4,25.94,25.94,0,0,1-6.4-6.4c-2.9-4.3-3.4-8.9-1-13.5a12.84,12.84,0,0,1,7.2-6.3,17.09,17.09,0,0,1,6.3-.8,56.2,56.2,0,0,0,5.8.2,6.74,6.74,0,0,0,4.7-2l.5-.5c.5-.5.5-.5,1.1,0,2.1,1.5,4,3.1,6.1,4.5.3.2.3.5.2.6a10.78,10.78,0,0,1-9.5,5.1,46.85,46.85,0,0,0-5.3,0c-2.4.2-4.5.9-5.9,2.9a5.23,5.23,0,0,0-.5,6.3,7.78,7.78,0,0,0,6.7,4,6.17,6.17,0,0,0,4.8-1.8,8.31,8.31,0,0,0,1.3-1.4c.2-.2.3-.3.6,0a24.16,24.16,0,0,0,3.6,2.7Z" transform="translate(-436.37 -124.32)"/><path class="cls-1" d="M2594.2,583.3a4.51,4.51,0,0,1-2.2-3.5,3,3,0,0,1,3-3.5,5.81,5.81,0,0,1,5.6,3.2,3.94,3.94,0,0,1,.3,2.6c-.3,1.4-1.9,2.3-3.5,2.3A4.47,4.47,0,0,1,2594.2,583.3Z" transform="translate(-436.37 -124.32)"/><path class="cls-1" d="M1644.8,414.9c1.3-.8,2.6-1.7,3.9-2.5q.45-.3.6,0a14.82,14.82,0,0,1,3.7,8,13.23,13.23,0,0,1-2.7,10,20.64,20.64,0,0,1-5.5,5.1,26,26,0,0,1-8.3,3.8,13.8,13.8,0,0,1-13.8-3.2,11.49,11.49,0,0,1-4-8.6,13,13,0,0,1,1.3-6c.6-1.7,1.3-3.5,1.9-5.2a5.65,5.65,0,0,0-.6-4.9,1.33,1.33,0,0,1-.3-.5c-.3-.6-.3-.6.3-.9,2.1-1.4,4.3-2.8,6.4-4.1.3-.2.5-.2.6.2,2.4,3.1,3.5,6.3,2.2,10.1-.6,1.5-1.1,3.2-1.6,4.9a6.79,6.79,0,0,0,1,6.3,5.67,5.67,0,0,0,6.1,2.3,7.49,7.49,0,0,0,5.9-4.9,6,6,0,0,0-.3-4.9,15.05,15.05,0,0,0-1-1.7c-.2-.3-.2-.5.2-.6a27.69,27.69,0,0,0,4-2.7Z" transform="translate(-436.37 -124.32)"/><path class="cls-1" d="M1622.7,404.9a6.36,6.36,0,0,1-4.2,1.1,3.09,3.09,0,0,1-2.6-3.8,5.69,5.69,0,0,1,5-4.1,3.6,3.6,0,0,1,2.7.5,2.92,2.92,0,0,1,1.1,3.8A6.93,6.93,0,0,1,1622.7,404.9Z" transform="translate(-436.37 -124.32)"/><path class="cls-1" d="M1554.6,382.3c1.3.8,2.7,1.5,4,2.3.3.2.3.3.2.6a15.66,15.66,0,0,1-5.9,6.6,15,15,0,0,1-10.6,2,20.27,20.27,0,0,1-7.1-2.6,29.9,29.9,0,0,1-7.2-5.5c-3.5-3.8-4.7-8.3-2.9-13.2a12.22,12.22,0,0,1,6.3-7.1,16.11,16.11,0,0,1,6.1-1.5c1.9-.2,3.9-.3,5.8-.6a5.47,5.47,0,0,0,4.3-2.6,1.33,1.33,0,0,0,.3-.5c.5-.5.5-.5,1-.2,2.2,1.2,4.5,2.5,6.7,3.7.3.2.3.3.2.6-1.8,3.4-4.5,5.8-8.7,6.3-1.8.2-3.5.3-5.3.6a7.77,7.77,0,0,0-5.5,3.5c-1.1,2-1.3,4.1.5,6.1a8.8,8.8,0,0,0,7.2,3.1,6.41,6.41,0,0,0,4.5-2.5c.3-.5.8-.9,1.1-1.5.2-.3.3-.3.6-.2a42,42,0,0,0,4.4,2.6Z" transform="translate(-436.37 -124.32)"/><path class="cls-1" d="M1554.3,358.7a4.76,4.76,0,0,1-2.7-3.2,3.17,3.17,0,0,1,2.4-4,6,6,0,0,1,6.1,2.5,3.5,3.5,0,0,1,.6,2.6,3.09,3.09,0,0,1-3.2,2.6A3.77,3.77,0,0,1,1554.3,358.7Z" transform="translate(-436.37 -124.32)"/><path class="cls-1" d="M1392.1,492.8c.2-1.5.3-2.9.6-4.5a.47.47,0,0,1,.5-.5,17.89,17.89,0,0,1,8.7,2.5,14.29,14.29,0,0,1,6.1,8.4,19.5,19.5,0,0,1,.3,7.2,23.06,23.06,0,0,1-2.6,8.6c-2.4,4.6-6.1,7.4-11.6,7.8a12.47,12.47,0,0,1-9.3-2.8,14.22,14.22,0,0,1-3.9-4.8c-1-1.7-1.8-3.2-2.9-4.9a6.16,6.16,0,0,0-4.2-2.8c-.2,0-.3-.2-.5-.2-.6-.2-.6-.2-.6-.8.3-2.5.6-4.9,1-7.4a.47.47,0,0,1,.5-.5c4,.3,7.4,1.5,9.5,5.1.8,1.5,1.8,2.9,2.7,4.3a7.74,7.74,0,0,0,5.6,3.4,5.36,5.36,0,0,0,5.8-2.9,7.45,7.45,0,0,0,0-7.5,5.78,5.78,0,0,0-4-2.9c-.6-.2-1.3-.3-1.9-.5-.3,0-.5-.2-.3-.5a13,13,0,0,0,.5-3.8Z" transform="translate(-436.37 -124.32)"/><path class="cls-1" d="M1369.6,502.3a5.56,5.56,0,0,1-1.9,3.7,3.38,3.38,0,0,1-4.8-.6,5.58,5.58,0,0,1,0-6.3,4.56,4.56,0,0,1,2.2-1.7,3.46,3.46,0,0,1,3.9,1.7A5,5,0,0,1,1369.6,502.3Z" transform="translate(-436.37 -124.32)"/><path class="cls-1" d="M1534.8,492.9c1.3-.8,2.7-1.5,4-2.3.3-.2.5-.2.6.2a17.61,17.61,0,0,1,3.4,8.1,13.11,13.11,0,0,1-3.2,9.8,21,21,0,0,1-5.8,4.8,24.1,24.1,0,0,1-8.5,3.4c-5.3,1.1-9.9,0-13.6-3.8a12.2,12.2,0,0,1-1.9-14.6c.8-1.7,1.6-3.4,2.2-5.1a6,6,0,0,0-.3-4.9.55.55,0,0,1-.2-.5c-.3-.6-.3-.6.3-.9,2.2-1.2,4.3-2.6,6.6-3.8.3-.2.5-.2.6.2,2.2,3.2,3.2,6.4,1.6,10.3-.6,1.5-1.3,3.1-1.9,4.8a7.75,7.75,0,0,0,.6,6.3,5.39,5.39,0,0,0,5.9,2.6,8.18,8.18,0,0,0,6.3-4.6,5.31,5.31,0,0,0-.2-4.9c-.3-.6-.5-1.1-.8-1.7-.2-.3-.2-.5.2-.6a33.19,33.19,0,0,1,4.1-2.8Z" transform="translate(-436.37 -124.32)"/><path class="cls-1" d="M1512.9,481.8a5.31,5.31,0,0,1-4.2.8,3.13,3.13,0,0,1-2.4-4,6.13,6.13,0,0,1,5.3-4,6,6,0,0,1,2.7.6,3.19,3.19,0,0,1,1,4A6.08,6.08,0,0,1,1512.9,481.8Z" transform="translate(-436.37 -124.32)"/><path class="cls-1" d="M1325.2,418.4c-1.3-.9-2.6-1.8-3.7-2.6-.3-.2-.3-.3-.2-.6,1.8-2.5,3.7-4.8,6.6-6a15.5,15.5,0,0,1,10.8-.9,18.92,18.92,0,0,1,6.7,3.2,24.75,24.75,0,0,1,6.6,6.3c3,4.3,3.7,8.8,1.4,13.5a12.13,12.13,0,0,1-7.1,6.4,16.61,16.61,0,0,1-6.3.9,56.1,56.1,0,0,0-5.8,0,6.44,6.44,0,0,0-4.7,2.1l-.5.5c-.5.5-.5.5-1.1.2-2.1-1.4-4.2-2.9-6.3-4.3-.3-.2-.3-.5-.2-.6,2.2-3.2,5.1-5.4,9.3-5.4a47,47,0,0,0,5.3-.2,7.58,7.58,0,0,0,5.9-3.1,5,5,0,0,0,.2-6.3,8.1,8.1,0,0,0-6.9-3.7,6,6,0,0,0-4.7,2c-.5.5-.8.9-1.3,1.4-.2.2-.3.3-.6,0a9.65,9.65,0,0,0-3.4-2.8Z" transform="translate(-436.37 -124.32)"/><path class="cls-1" d="M1322.7,441.7a5.43,5.43,0,0,1,2.4,3.4,3.27,3.27,0,0,1-2.9,3.7,6.22,6.22,0,0,1-5.8-3.1,3.94,3.94,0,0,1-.3-2.6,3.32,3.32,0,0,1,3.4-2.3A5.71,5.71,0,0,1,1322.7,441.7Z" transform="translate(-436.37 -124.32)"/><path class="cls-1" d="M1631.2,518.2c-.8,1.4-1.4,2.6-2.2,4-.2.3-.3.3-.6.2a16,16,0,0,1-7.2-5.2,14,14,0,0,1-2.6-10,20,20,0,0,1,2.2-6.9,24.21,24.21,0,0,1,5.5-7.2c3.9-3.5,8.5-4.9,13.6-3.4a12.8,12.8,0,0,1,7.7,5.7,14.71,14.71,0,0,1,1.9,5.8c.3,1.8.5,3.7.8,5.5a5.44,5.44,0,0,0,2.9,4,1.33,1.33,0,0,0,.5.3c.6.3.6.3.3.9-1.1,2.1-2.4,4.5-3.5,6.6-.2.3-.3.3-.6.2-3.7-1.5-6.3-4-6.9-8a45.91,45.91,0,0,0-1-5.1,7.38,7.38,0,0,0-4-5.1,5.21,5.21,0,0,0-6.4.8,7.79,7.79,0,0,0-2.9,7.1,5.84,5.84,0,0,0,2.7,4.1,7.64,7.64,0,0,1,1.6,1.1c.3.2.3.3.2.6-.6,1.3-1.4,2.6-2,4Z" transform="translate(-436.37 -124.32)"/><path class="cls-1" d="M1655.7,516.8a5.82,5.82,0,0,1,3.2-2.8,3.17,3.17,0,0,1,4.2,2.1,5.74,5.74,0,0,1-2.4,6,4.12,4.12,0,0,1-2.7.8,3.5,3.5,0,0,1-2.9-2.9A7.28,7.28,0,0,1,1655.7,516.8Z" transform="translate(-436.37 -124.32)"/><path class="cls-1" d="M1336.9,587.7c.2,1.5.3,2.9.5,4.5,0,.3,0,.5-.3.5a17.63,17.63,0,0,1-9.1-.5,15.13,15.13,0,0,1-8-6.9,17.27,17.27,0,0,1-2.1-6.9,24.25,24.25,0,0,1,.3-8.9,12.69,12.69,0,0,1,9.3-10.1,13.28,13.28,0,0,1,9.8.6,18.4,18.4,0,0,1,5,3.8c1.3,1.4,2.6,2.8,3.9,4.1a6.81,6.81,0,0,0,4.8,1.8h.6c.6,0,.6,0,.8.6.3,2.5.6,4.9,1,7.4a.47.47,0,0,1-.5.5c-4,.6-7.5.2-10.4-2.9-1.3-1.2-2.4-2.5-3.7-3.7a7.75,7.75,0,0,0-6.3-2.1,5.51,5.51,0,0,0-5,4.1,7.75,7.75,0,0,0,1.8,7.4,6.14,6.14,0,0,0,4.7,2h1.9a.47.47,0,0,1,.5.5,21.76,21.76,0,0,0,.5,4.2Z" transform="translate(-436.37 -124.32)"/><path class="cls-1" d="M1356.5,573.4a4.73,4.73,0,0,1,1-4,3.37,3.37,0,0,1,4.8-.5,5.47,5.47,0,0,1,1.6,6.1,4.54,4.54,0,0,1-1.8,2.1,3.58,3.58,0,0,1-4.2-.8A4.45,4.45,0,0,1,1356.5,573.4Z" transform="translate(-436.37 -124.32)"/><path class="cls-1" d="M1587.5,566.8c-.3-1.5-.6-2.9-1-4.5,0-.3,0-.5.3-.6a17.63,17.63,0,0,1,9.1-.5,14.7,14.7,0,0,1,8.8,6,21.84,21.84,0,0,1,2.9,6.8,22.13,22.13,0,0,1,.6,8.9,13.46,13.46,0,0,1-8,11.2,13.7,13.7,0,0,1-15.1-2.7l-4.3-3.7a6.33,6.33,0,0,0-5-1.2h-.6c-.6,0-.6,0-.8-.6-.6-2.5-1.1-4.8-1.8-7.2-.2-.3,0-.5.3-.6,3.9-1.1,7.5-.9,10.8,1.7,1.3,1.1,2.7,2.1,4.2,3.2a7.75,7.75,0,0,0,6.6,1.4,5.31,5.31,0,0,0,4.3-4.6,7.92,7.92,0,0,0-2.6-7.1,6.38,6.38,0,0,0-4.8-1.4,12.5,12.5,0,0,0-1.9.3c-.3,0-.5,0-.5-.3-.7-1.5-1-3.1-1.5-4.5Z" transform="translate(-436.37 -124.32)"/><path class="cls-1" d="M1569.7,583.1a5.25,5.25,0,0,1-.5,4.1,3.2,3.2,0,0,1-4.7.9,5.41,5.41,0,0,1-2.2-6,4.25,4.25,0,0,1,1.4-2.3,3.33,3.33,0,0,1,4.2.3A5.65,5.65,0,0,1,1569.7,583.1Z" transform="translate(-436.37 -124.32)"/><path class="cls-1" d="M1823.9,304.3h-4.7a.47.47,0,0,1-.5-.5,16.32,16.32,0,0,1,1.6-8.6,15.5,15.5,0,0,1,8-6.9,27.1,27.1,0,0,1,16.6.2c5.1,1.7,8.3,4.9,9.5,10a11.71,11.71,0,0,1-1.8,9.2,15.43,15.43,0,0,1-4.5,4.3c-1.6,1.1-3.2,2.1-4.7,3.2a6.28,6.28,0,0,0-2.4,4.3v.6c-.2.6-.2.6-.8.6h-7.7a.47.47,0,0,1-.5-.5c-.2-3.8.8-7.2,4.2-9.5,1.4-1.1,2.9-2,4.2-3.1a7.34,7.34,0,0,0,2.9-5.8,5.14,5.14,0,0,0-3.7-5.1,8.54,8.54,0,0,0-7.9.9,6.32,6.32,0,0,0-2.6,4.3,5.54,5.54,0,0,0-.2,1.8.47.47,0,0,1-.5.5c-1.3.1-2.9.1-4.5.1Z" transform="translate(-436.37 -124.32)"/><path class="cls-1" d="M1836.4,324.5a5.2,5.2,0,0,1,4,1.4,3,3,0,0,1,0,4.6,6.32,6.32,0,0,1-6.6.8,4.74,4.74,0,0,1-1.9-1.8,3.11,3.11,0,0,1,1.3-3.8A5.1,5.1,0,0,1,1836.4,324.5Z" transform="translate(-436.37 -124.32)"/><path class="cls-1" d="M1458.8,578.2c-1.1,1.1-2.2,2-3.4,3.1-.2.2-.3.3-.6,0a16.71,16.71,0,0,1-5.1-7.2,13.61,13.61,0,0,1,.8-10.3,19.68,19.68,0,0,1,4.5-5.8,29.26,29.26,0,0,1,7.5-5.1c4.8-2.1,9.6-2,14.1.9a12.25,12.25,0,0,1,5.3,13.8c-.3,1.8-.8,3.7-1,5.5a5.66,5.66,0,0,0,1.4,4.8,1.33,1.33,0,0,1,.3.5c.5.5.5.5-.2,1.1-1.9,1.7-3.7,3.4-5.6,5.2-.3.3-.5.2-.6,0-2.9-2.6-4.7-5.7-4-9.7.3-1.7.6-3.4.8-5.1a6.94,6.94,0,0,0-2.1-6.1,5.38,5.38,0,0,0-6.4-1.2,7.72,7.72,0,0,0-5,5.8,6,6,0,0,0,1.3,4.8c.3.5.8.9,1.1,1.4q.3.45,0,.6a40,40,0,0,0-3.1,3Z" transform="translate(-436.37 -124.32)"/><path class="cls-1" d="M1482.6,584.3a5.44,5.44,0,0,1,4-1.7,3,3,0,0,1,3.2,3.4,5.88,5.88,0,0,1-4.2,4.9,3.16,3.16,0,0,1-2.7-.2,3.24,3.24,0,0,1-1.8-3.7A4.64,4.64,0,0,1,1482.6,584.3Z" transform="translate(-436.37 -124.32)"/><path class="cls-1" d="M2036.6,414.2h-4.7a.47.47,0,0,1-.5-.5,16.16,16.16,0,0,1,1.4-8.6,15.5,15.5,0,0,1,8-6.9,21.43,21.43,0,0,1,7.5-1.2,24.78,24.78,0,0,1,9.1,1.2c5.1,1.7,8.5,4.9,9.6,10a11.61,11.61,0,0,1-1.6,9.2,15.43,15.43,0,0,1-4.5,4.3c-1.6,1.1-3.2,2.1-4.7,3.2a6,6,0,0,0-2.4,4.5v.6c0,.6,0,.6-.8.6-2.6,0-5.1,0-7.7.2a.47.47,0,0,1-.5-.5,10.25,10.25,0,0,1,4.2-9.7c1.4-1.1,2.9-2,4.2-3.1a7.34,7.34,0,0,0,2.9-5.8,5.14,5.14,0,0,0-3.7-5.1,8.54,8.54,0,0,0-7.9.9,6.32,6.32,0,0,0-2.6,4.3,5.54,5.54,0,0,0-.2,1.8.47.47,0,0,1-.5.5c-1.3.1-3,.1-4.6.1Z" transform="translate(-436.37 -124.32)"/><path class="cls-1" d="M2049.3,434.4a5.2,5.2,0,0,1,4,1.4,3,3,0,0,1,0,4.6,6.32,6.32,0,0,1-6.6.8,4.74,4.74,0,0,1-1.9-1.8,3.11,3.11,0,0,1,1.3-3.8A5.1,5.1,0,0,1,2049.3,434.4Z" transform="translate(-436.37 -124.32)"/><path class="cls-1" d="M1731.8,313c.2-1.5.3-2.9.6-4.5a.47.47,0,0,1,.5-.5,17.89,17.89,0,0,1,8.7,2.5,14.29,14.29,0,0,1,6.1,8.4,19.5,19.5,0,0,1,.3,7.2,23.06,23.06,0,0,1-2.6,8.6c-2.4,4.6-6.1,7.4-11.6,7.8a12.47,12.47,0,0,1-9.3-2.8,14.22,14.22,0,0,1-3.9-4.8c-1-1.7-1.8-3.2-2.9-4.9a6.16,6.16,0,0,0-4.2-2.8c-.2,0-.3-.2-.5-.2-.6-.2-.6-.2-.6-.8.3-2.5.6-4.9,1-7.4a.47.47,0,0,1,.5-.5c4,.3,7.4,1.5,9.5,5.1.8,1.5,1.8,2.9,2.7,4.3a7.74,7.74,0,0,0,5.6,3.4,5.36,5.36,0,0,0,5.8-2.9,7.45,7.45,0,0,0,0-7.5,5.78,5.78,0,0,0-4-2.9c-.6-.2-1.3-.3-1.9-.5-.3,0-.5-.2-.3-.5a17.54,17.54,0,0,0,.5-3.8Z" transform="translate(-436.37 -124.32)"/><path class="cls-1" d="M1709.3,322.5a5.56,5.56,0,0,1-1.9,3.7,3.38,3.38,0,0,1-4.8-.6,5.58,5.58,0,0,1,0-6.3,4.56,4.56,0,0,1,2.2-1.7,3.46,3.46,0,0,1,3.9,1.7A5,5,0,0,1,1709.3,322.5Z" transform="translate(-436.37 -124.32)"/><path class="cls-1" d="M2060.5,333.2c1.4.3,3,.8,4.5,1.1.3,0,.5.2.3.5a16.35,16.35,0,0,1-3.7,8,15.29,15.29,0,0,1-9.6,4.8,20.83,20.83,0,0,1-7.5-.6,24.3,24.3,0,0,1-8.5-3.5c-4.5-2.8-6.9-6.8-6.6-12a12.19,12.19,0,0,1,4-8.4,17.44,17.44,0,0,1,5.5-3.1c1.8-.6,3.7-1.4,5.5-2a5.66,5.66,0,0,0,3.4-3.7c0-.2.2-.3.2-.5.3-.6.3-.6,1-.5,2.6.6,5,1.2,7.5,1.8.3.2.5.3.3.6-.8,3.8-2.6,6.8-6.6,8.3a34.5,34.5,0,0,0-4.8,2,7.74,7.74,0,0,0-4.3,4.9,5.19,5.19,0,0,0,2.2,5.8,9.13,9.13,0,0,0,7.9,1.1,5.33,5.33,0,0,0,3.5-3.5,5.78,5.78,0,0,0,.6-1.7c.2-.3.3-.3.6-.3,1.5.2,3,.6,4.6.9Z" transform="translate(-436.37 -124.32)"/><path class="cls-1" d="M2053.6,310.7a5.89,5.89,0,0,1-3.5-2.3,3.08,3.08,0,0,1,1.3-4.5,6.32,6.32,0,0,1,6.6.8,4.25,4.25,0,0,1,1.4,2.3,3.1,3.1,0,0,1-2.2,3.4A9.23,9.23,0,0,1,2053.6,310.7Z" transform="translate(-436.37 -124.32)"/><path class="cls-1" d="M1958.2,327.6c1.6-.3,3-.5,4.7-.8.3,0,.5,0,.5.3.6,2.9,1,5.8,0,8.8a14.79,14.79,0,0,1-6.7,8.1,25.63,25.63,0,0,1-7.2,2.5,29,29,0,0,1-9.3.2c-5.3-.9-9.1-3.5-11.1-8.4a11.05,11.05,0,0,1,.2-9.4,14.45,14.45,0,0,1,3.7-4.9,50.32,50.32,0,0,0,4-4,5.69,5.69,0,0,0,1.6-4.8v-.6c0-.6,0-.6.6-.8,2.6-.5,5.1-.8,7.7-1.2.3,0,.5,0,.6.3,1,3.7.5,7.2-2.4,10.1-1.3,1.2-2.4,2.5-3.5,3.7a7.57,7.57,0,0,0-1.8,6.1,5.3,5.3,0,0,0,4.5,4.5,8.12,8.12,0,0,0,7.5-2.1,5.63,5.63,0,0,0,1.8-4.6,5.54,5.54,0,0,0-.2-1.8c0-.3,0-.5.3-.5a38,38,0,0,0,4.5-.7Z" transform="translate(-436.37 -124.32)"/><path class="cls-1" d="M1942.3,309.6a4.76,4.76,0,0,1-4.2-.8,3.17,3.17,0,0,1-.8-4.6,6.24,6.24,0,0,1,6.4-1.8,3.64,3.64,0,0,1,2.2,1.5,3.23,3.23,0,0,1-.6,4A5.38,5.38,0,0,1,1942.3,309.6Z" transform="translate(-436.37 -124.32)"/><path class="cls-1" d="M2676.3,406.6c1.3-.8,2.6-1.7,3.9-2.5q.45-.3.6,0a14.82,14.82,0,0,1,3.7,8,13.23,13.23,0,0,1-2.7,10,20.64,20.64,0,0,1-5.5,5.1,26,26,0,0,1-8.3,3.8,13.8,13.8,0,0,1-13.8-3.2,11.49,11.49,0,0,1-4-8.6,13,13,0,0,1,1.3-6c.6-1.7,1.3-3.5,1.9-5.2a5.65,5.65,0,0,0-.6-4.9,1.33,1.33,0,0,1-.3-.5c-.3-.6-.3-.6.3-.9,2.1-1.4,4.3-2.8,6.4-4.1.3-.2.5-.2.6.2,2.4,3.1,3.5,6.3,2.2,10.1-.6,1.5-1.1,3.2-1.6,4.9a6.79,6.79,0,0,0,1,6.3,5.67,5.67,0,0,0,6.1,2.3,7.49,7.49,0,0,0,5.9-4.9,6,6,0,0,0-.3-4.9,15.05,15.05,0,0,0-1-1.7c-.2-.3-.2-.5.2-.6a35.06,35.06,0,0,0,4-2.7Z" transform="translate(-436.37 -124.32)"/><path class="cls-1" d="M2654,396.7a6.36,6.36,0,0,1-4.2,1.1,3.09,3.09,0,0,1-2.6-3.8,5.69,5.69,0,0,1,5-4.1,3.6,3.6,0,0,1,2.7.5,2.92,2.92,0,0,1,1.1,3.8A6.72,6.72,0,0,1,2654,396.7Z" transform="translate(-436.37 -124.32)"/><path class="cls-1" d="M1718,413.5c.3,1.4.8,2.9,1.1,4.3,0,.3,0,.5-.3.6a16.54,16.54,0,0,1-9.1.6,15.62,15.62,0,0,1-9-5.8,20.71,20.71,0,0,1-3-6.6,24.11,24.11,0,0,1-.8-8.9,13.28,13.28,0,0,1,7.9-11.4,12.75,12.75,0,0,1,9.8-.6,15.69,15.69,0,0,1,5.5,3.1,38.65,38.65,0,0,0,4.5,3.5,5.92,5.92,0,0,0,5,1.1h.6c.6-.2.6-.2.8.6.6,2.5,1.3,4.8,1.9,7.2.2.3,0,.5-.3.6-3.9,1.1-7.5,1.1-10.8-1.5-1.4-1.1-2.7-2.1-4.2-3.1a8.41,8.41,0,0,0-6.6-1.2,5.31,5.31,0,0,0-4.3,4.6,7.74,7.74,0,0,0,2.7,7.1,6.62,6.62,0,0,0,5,1.4,12.5,12.5,0,0,0,1.9-.3c.3,0,.5,0,.5.3.4,1.5.8,3,1.2,4.4Z" transform="translate(-436.37 -124.32)"/><path class="cls-1" d="M1735.5,396.9a5.25,5.25,0,0,1,.5-4.1,3.31,3.31,0,0,1,4.7-1.1,5.67,5.67,0,0,1,2.4,6,4.25,4.25,0,0,1-1.4,2.3,3.34,3.34,0,0,1-4.2-.3A5.44,5.44,0,0,1,1735.5,396.9Z" transform="translate(-436.37 -124.32)"/><path class="cls-1" d="M1940.2,451.2c-.5,1.4-.8,2.9-1.3,4.3-.2.3-.2.5-.5.3a17.54,17.54,0,0,1-8.2-3.7,13.8,13.8,0,0,1-4.7-9.4,19.26,19.26,0,0,1,.8-7.2,24.31,24.31,0,0,1,3.9-8.1,14,14,0,0,1,21.5-1.9,13.68,13.68,0,0,1,3,5.4c.6,1.7,1.3,3.5,2.1,5.2a5.49,5.49,0,0,0,3.7,3.4c.2,0,.3.2.5.2.6.3.6.3.5.9-.6,2.5-1.4,4.8-2.1,7.2-.2.3-.3.5-.6.3-3.9-.8-7.1-2.6-8.5-6.4-.6-1.5-1.3-3.2-1.9-4.8a7,7,0,0,0-5-4.1,5.35,5.35,0,0,0-6.1,2,7.45,7.45,0,0,0-1.3,7.4,6,6,0,0,0,3.5,3.5,5.46,5.46,0,0,0,1.8.6c.3.2.3.3.3.6a30.87,30.87,0,0,0-1.4,4.3Z" transform="translate(-436.37 -124.32)"/><path class="cls-1" d="M1964,445.1a5.24,5.24,0,0,1,2.6-3.4,3.3,3.3,0,0,1,4.7,1.4,5.51,5.51,0,0,1-1,6.3,3.47,3.47,0,0,1-5.9-1.1A4.45,4.45,0,0,1,1964,445.1Z" transform="translate(-436.37 -124.32)"/><path class="cls-1" d="M1839.8,422.9c1.3.8,2.7,1.5,4,2.3.3.2.3.3.2.6a15.66,15.66,0,0,1-5.9,6.6,15,15,0,0,1-10.6,2,20.27,20.27,0,0,1-7.1-2.6,29.9,29.9,0,0,1-7.2-5.5c-3.5-3.8-4.7-8.3-2.9-13.2a12.22,12.22,0,0,1,6.3-7.1,16.11,16.11,0,0,1,6.1-1.5c1.9-.2,3.9-.3,5.8-.6a5.47,5.47,0,0,0,4.3-2.6,1.33,1.33,0,0,0,.3-.5c.5-.5.5-.5,1-.2,2.2,1.2,4.5,2.5,6.7,3.7.3.2.3.3.2.6-1.8,3.4-4.5,5.8-8.7,6.3-1.8.2-3.5.3-5.3.6a7.77,7.77,0,0,0-5.5,3.5c-1.1,2-1.3,4.1.5,6.1a8.8,8.8,0,0,0,7.2,3.1,6.41,6.41,0,0,0,4.5-2.5c.3-.5.8-.9,1.1-1.5.2-.3.3-.3.6-.2a33.74,33.74,0,0,0,4.4,2.6Z" transform="translate(-436.37 -124.32)"/><path class="cls-1" d="M1839.6,399.3a4.76,4.76,0,0,1-2.7-3.2,3.17,3.17,0,0,1,2.4-4,6,6,0,0,1,6.1,2.5,3.5,3.5,0,0,1,.6,2.6,3.09,3.09,0,0,1-3.2,2.6A3.67,3.67,0,0,1,1839.6,399.3Z" transform="translate(-436.37 -124.32)"/><path class="cls-1" d="M1712.1,500.7h-4.7a.47.47,0,0,1-.5-.5,16.16,16.16,0,0,1,1.4-8.6,15.5,15.5,0,0,1,8-6.9,21.43,21.43,0,0,1,7.5-1.2,24.78,24.78,0,0,1,9.1,1.2c5.1,1.7,8.5,4.9,9.6,10a11.61,11.61,0,0,1-1.6,9.2,15.43,15.43,0,0,1-4.5,4.3c-1.6,1.1-3.2,2.1-4.7,3.2a6.31,6.31,0,0,0-2.4,4.5v.6c0,.6,0,.6-.8.6-2.6,0-5.1,0-7.7.2a.47.47,0,0,1-.5-.5,10.25,10.25,0,0,1,4.2-9.7c1.4-1.1,2.9-2,4.2-3.1a7.34,7.34,0,0,0,2.9-5.8,5.14,5.14,0,0,0-3.7-5.1,8.54,8.54,0,0,0-7.9.9,6.32,6.32,0,0,0-2.6,4.3,5.54,5.54,0,0,0-.2,1.8.47.47,0,0,1-.5.5c-1.4.1-3,.1-4.6.1Z" transform="translate(-436.37 -124.32)"/><path class="cls-1" d="M1724.7,521a5.2,5.2,0,0,1,4,1.4,3,3,0,0,1,0,4.6,6.32,6.32,0,0,1-6.6.8,4.74,4.74,0,0,1-1.9-1.8,3.11,3.11,0,0,1,1.3-3.8A4.59,4.59,0,0,1,1724.7,521Z" transform="translate(-436.37 -124.32)"/><path class="cls-1" d="M2015.8,514.2c1.3-.8,2.7-1.5,4-2.3.3-.2.5-.2.6.2a17.61,17.61,0,0,1,3.4,8.1,13.11,13.11,0,0,1-3.2,9.8,21,21,0,0,1-5.8,4.8,24.1,24.1,0,0,1-8.5,3.4c-5.3,1.1-9.9,0-13.6-3.8a12.2,12.2,0,0,1-1.9-14.6c.8-1.7,1.6-3.4,2.2-5.1a6,6,0,0,0-.3-4.9.55.55,0,0,1-.2-.5c-.3-.6-.3-.6.3-.9,2.2-1.2,4.3-2.6,6.6-3.8.3-.2.5-.2.6.2,2.2,3.2,3.2,6.4,1.6,10.3-.6,1.5-1.3,3.1-1.9,4.8a7.75,7.75,0,0,0,.6,6.3,5.39,5.39,0,0,0,5.9,2.6,8.18,8.18,0,0,0,6.3-4.6,5.31,5.31,0,0,0-.2-4.9c-.3-.6-.5-1.1-.8-1.7-.2-.3-.2-.5.2-.6,1.5-1.2,2.8-1.9,4.1-2.8Z" transform="translate(-436.37 -124.32)"/><path class="cls-1" d="M1994.1,503.1a5.31,5.31,0,0,1-4.2.8,3.13,3.13,0,0,1-2.4-4,6.13,6.13,0,0,1,5.3-4,6,6,0,0,1,2.7.6,3.19,3.19,0,0,1,1,4A6.08,6.08,0,0,1,1994.1,503.1Z" transform="translate(-436.37 -124.32)"/><path class="cls-1" d="M1857.1,513.3c-1.3-.9-2.6-1.8-3.7-2.6-.3-.2-.3-.3-.2-.6,1.8-2.5,3.7-4.8,6.6-6a15.5,15.5,0,0,1,10.8-.9,18.92,18.92,0,0,1,6.7,3.2,24.75,24.75,0,0,1,6.6,6.3c3,4.3,3.7,8.8,1.4,13.5a12.13,12.13,0,0,1-7.1,6.4,16.61,16.61,0,0,1-6.3.9,56.1,56.1,0,0,0-5.8,0,6.44,6.44,0,0,0-4.7,2.1l-.5.5c-.5.5-.5.5-1.1.2-2.1-1.4-4.2-2.9-6.3-4.3-.3-.2-.3-.5-.2-.6,2.2-3.2,5.1-5.4,9.3-5.4a47,47,0,0,0,5.3-.2,7.58,7.58,0,0,0,5.9-3.1,5,5,0,0,0,.2-6.3,8.1,8.1,0,0,0-6.9-3.7,6,6,0,0,0-4.7,2c-.5.5-.8.9-1.3,1.4-.2.2-.3.3-.6,0a11.86,11.86,0,0,0-3.4-2.8Z" transform="translate(-436.37 -124.32)"/><path class="cls-1" d="M1854.6,536.7a5.43,5.43,0,0,1,2.4,3.4,3.27,3.27,0,0,1-2.9,3.7,6.22,6.22,0,0,1-5.8-3.1,3.94,3.94,0,0,1-.3-2.6,3.32,3.32,0,0,1,3.4-2.3A4.35,4.35,0,0,1,1854.6,536.7Z" transform="translate(-436.37 -124.32)"/><path class="cls-1" d="M1942.9,561.6c-.3-1.5-.6-2.9-1-4.5,0-.3,0-.5.3-.6a17.63,17.63,0,0,1,9.1-.5,14.7,14.7,0,0,1,8.8,6,21.84,21.84,0,0,1,2.9,6.8,22.13,22.13,0,0,1,.6,8.9,13.46,13.46,0,0,1-8,11.2,13.7,13.7,0,0,1-15.1-2.7l-4.3-3.7a6.33,6.33,0,0,0-5-1.2h-.6c-.6,0-.6,0-.8-.6-.6-2.5-1.1-4.8-1.8-7.2-.2-.3,0-.5.3-.6,3.9-1.1,7.5-.9,10.8,1.7,1.3,1.1,2.7,2.1,4.2,3.2a7.75,7.75,0,0,0,6.6,1.4,5.31,5.31,0,0,0,4.3-4.6,7.92,7.92,0,0,0-2.6-7.1,6.38,6.38,0,0,0-4.8-1.4,12.5,12.5,0,0,0-1.9.3c-.3,0-.5,0-.5-.3-.7-1.6-1-3.2-1.5-4.5Z" transform="translate(-436.37 -124.32)"/><path class="cls-1" d="M1925.1,577.8a5.25,5.25,0,0,1-.5,4.1,3.2,3.2,0,0,1-4.7.9,5.41,5.41,0,0,1-2.2-6,4.25,4.25,0,0,1,1.4-2.3,3.33,3.33,0,0,1,4.2.3A8,8,0,0,1,1925.1,577.8Z" transform="translate(-436.37 -124.32)"/><path class="cls-1" d="M1757.8,582.8c1.3.9,2.4,1.8,3.7,2.8.3.2.3.3.2.6a16.29,16.29,0,0,1-6.7,5.8,15.45,15.45,0,0,1-10.8.6,26.41,26.41,0,0,1-6.7-3.4,25.94,25.94,0,0,1-6.4-6.4c-2.9-4.3-3.4-8.9-1-13.5a12.84,12.84,0,0,1,7.2-6.3,17.09,17.09,0,0,1,6.3-.8,56.2,56.2,0,0,0,5.8.2,6.74,6.74,0,0,0,4.7-2l.5-.5c.5-.5.5-.5,1.1,0,2.1,1.5,4,3.1,6.1,4.5.3.2.3.5.2.6a10.78,10.78,0,0,1-9.5,5.1,46.85,46.85,0,0,0-5.3,0c-2.4.2-4.5.9-5.9,2.9a5.23,5.23,0,0,0-.5,6.3,7.78,7.78,0,0,0,6.7,4,6.17,6.17,0,0,0,4.8-1.8,8.31,8.31,0,0,0,1.3-1.4c.2-.2.3-.3.6,0a24.16,24.16,0,0,0,3.6,2.7Z" transform="translate(-436.37 -124.32)"/><path class="cls-1" d="M1761,559.4a4.51,4.51,0,0,1-2.2-3.5,3,3,0,0,1,3-3.5,5.81,5.81,0,0,1,5.6,3.2,3.94,3.94,0,0,1,.3,2.6c-.3,1.4-1.9,2.3-3.5,2.3A4.47,4.47,0,0,1,1761,559.4Z" transform="translate(-436.37 -124.32)"/></svg>