<?xml version="1.0" encoding="utf-8"?>
<!-- Generator: Adobe Illustrator 22.1.0, SVG Export Plug-In . SVG Version: 6.00 Build 0)  -->
<svg version="1.1" id="Layer_1" xmlns="http://www.w3.org/2000/svg" xmlns:xlink="http://www.w3.org/1999/xlink" x="0px" y="0px"
	 viewBox="0 0 2842.3 619" style="enable-background:new 0 0 2842.3 619;" xml:space="preserve">
<style type="text/css">
	.st0{opacity:0.7;fill:#FFFFFF;}
</style>
<path class="st0" d="M702.7,558.5c-1.3-0.8-2.6-1.7-4-2.5c-0.3-0.2-0.3-0.3-0.2-0.6c1.4-2.6,3.4-4.9,6.1-6.4
	c3.4-1.8,6.9-2.3,10.8-1.7c2.6,0.5,4.8,1.5,7.1,2.8c2.7,1.5,5,3.5,7.1,5.8c3.4,4,4.3,8.4,2.4,13.4c-1.3,3.1-3.5,5.4-6.6,6.9
	c-1.9,0.9-4,1.2-6.3,1.2c-1.9,0-3.9,0.2-5.8,0.3c-1.9,0.2-3.4,1.1-4.5,2.5c-0.2,0.2-0.3,0.3-0.3,0.5c-0.5,0.5-0.5,0.5-1,0.2
	c-2.2-1.4-4.3-2.6-6.6-4c-0.3-0.2-0.3-0.3-0.2-0.6c1.9-3.4,4.7-5.7,8.8-6c1.8-0.2,3.5-0.2,5.3-0.5c2.4-0.3,4.3-1.4,5.6-3.4
	c1.3-2,1.4-4.1-0.2-6.3c-1.8-2.3-4.2-3.4-7.1-3.2c-1.9,0-3.4,0.9-4.5,2.3c-0.5,0.5-0.8,0.9-1.1,1.4c-0.2,0.3-0.3,0.3-0.6,0.2
	C705.5,560,704.2,559.3,702.7,558.5C702.9,558.5,702.9,558.5,702.7,558.5z"/>
<path class="st0" d="M702.1,582c1.3,0.8,2.2,1.8,2.6,3.2c0.5,1.8-0.6,3.5-2.6,3.8c-2.2,0.5-5-0.8-5.9-2.8c-0.5-0.8-0.8-1.7-0.6-2.6
	c0.3-1.4,1.6-2.5,3.2-2.6C700,581.2,701.1,581.5,702.1,582z"/>
<path class="st0" d="M1429.4,419.8c0.3,1.4,0.8,2.9,1.1,4.3c0,0.3,0,0.5-0.3,0.6c-3,0.9-5.9,1.4-9.1,0.6c-3.7-0.9-6.7-2.8-9-5.8
	c-1.4-2-2.4-4.3-3-6.6c-0.8-2.9-1.1-5.8-0.8-8.9c0.5-5.1,3-9.1,7.9-11.4c3-1.5,6.4-1.7,9.8-0.6c2.1,0.6,3.9,1.8,5.5,3.1
	c1.4,1.2,2.9,2.5,4.5,3.5c1.4,1.1,3.2,1.5,5,1.1c0.2,0,0.3,0,0.6,0c0.6-0.2,0.6-0.2,0.8,0.6c0.6,2.5,1.3,4.8,1.9,7.2
	c0.2,0.3,0,0.5-0.3,0.6c-3.9,1.1-7.5,1.1-10.8-1.5c-1.4-1.1-2.7-2.1-4.2-3.1c-1.9-1.2-4.2-1.8-6.6-1.2c-2.2,0.6-4,2-4.3,4.6
	c-0.3,2.8,0.5,5.2,2.7,7.1c1.4,1.2,3,1.5,5,1.4c0.6,0,1.3-0.2,1.9-0.3c0.3,0,0.5,0,0.5,0.3C1428.4,416.9,1428.9,418.5,1429.4,419.8
	C1429.2,419.8,1429.4,419.8,1429.4,419.8z"/>
<path class="st0" d="M1446.9,403.3c-0.3-1.5-0.3-2.9,0.5-4.1c1-1.7,3-2.1,4.7-1.1c1.9,1.2,3,3.8,2.4,6c-0.3,0.9-0.6,1.7-1.4,2.3
	c-1.3,0.9-2.9,0.8-4.2-0.3C1447.7,405.3,1447,404.3,1446.9,403.3z"/>
<path class="st0" d="M795.5,550.7c-0.8,1.4-1.4,2.6-2.2,4c-0.2,0.3-0.3,0.3-0.6,0.2c-2.9-1.2-5.5-2.8-7.2-5.2c-2.2-3.1-3-6.4-2.6-10
	c0.3-2.5,1.1-4.8,2.2-6.9c1.4-2.8,3.2-5.1,5.5-7.2c3.9-3.5,8.5-4.9,13.6-3.4c3.4,0.9,5.9,2.9,7.7,5.7c1.1,1.8,1.6,3.7,1.9,5.8
	c0.3,1.8,0.5,3.7,0.8,5.5c0.3,1.8,1.3,3.1,2.9,4c0.2,0.2,0.3,0.2,0.5,0.3c0.6,0.3,0.6,0.3,0.3,0.9c-1.1,2.1-2.4,4.5-3.5,6.6
	c-0.2,0.3-0.3,0.3-0.6,0.2c-3.7-1.5-6.3-4-6.9-8c-0.3-1.7-0.5-3.4-1-5.1c-0.6-2.3-1.8-4-4-5.1c-2.1-1.1-4.3-1.1-6.4,0.8
	c-2.2,1.8-3.2,4.3-2.9,7.1c0.2,1.8,1.3,3.1,2.7,4.1c0.5,0.3,1.1,0.6,1.6,1.1c0.3,0.2,0.3,0.3,0.2,0.6
	C797,547.9,796.2,549.3,795.5,550.7C795.5,550.5,795.5,550.7,795.5,550.7z"/>
<path class="st0" d="M820.1,549.3c0.8-1.4,1.8-2.3,3.2-2.8c1.9-0.6,3.7,0.3,4.2,2.1c0.6,2.1-0.5,4.8-2.4,6c-0.8,0.5-1.6,0.9-2.7,0.8
	c-1.4-0.2-2.7-1.4-2.9-2.9C819.4,551.5,819.6,550.2,820.1,549.3z"/>
<path class="st0" d="M587.2,582.9c0.2,1.5,0.3,2.9,0.5,4.5c0,0.3,0,0.5-0.3,0.5c-3,0.5-6.1,0.6-9.1-0.5c-3.5-1.4-6.3-3.7-8-6.9
	c-1.3-2.1-1.8-4.6-2.1-6.9c-0.5-2.9-0.3-6,0.3-8.9c1.1-5.1,4.2-8.6,9.3-10.1c3.4-1.1,6.6-0.8,9.8,0.6c1.9,0.9,3.5,2.3,5,3.8
	c1.3,1.4,2.6,2.8,3.9,4.1c1.3,1.2,2.9,1.8,4.8,1.8c0.2,0,0.3,0,0.6,0c0.6,0,0.6,0,0.8,0.6c0.3,2.5,0.6,4.9,1,7.4
	c0,0.3-0.2,0.5-0.5,0.5c-4,0.6-7.5,0.2-10.4-2.9c-1.3-1.2-2.4-2.5-3.7-3.7c-1.8-1.5-3.9-2.5-6.3-2.1c-2.4,0.3-4.2,1.5-5,4.1
	c-0.6,2.8-0.2,5.2,1.8,7.4c1.3,1.4,2.9,2,4.7,2c0.6,0,1.3,0,1.9,0c0.3,0,0.5,0.2,0.5,0.5C586.8,580,586.9,581.3,587.2,582.9
	L587.2,582.9z"/>
<path class="st0" d="M606.8,568.6c-0.2-1.5,0-2.9,1-4c1.3-1.5,3.2-1.7,4.8-0.5c1.8,1.4,2.4,4.1,1.6,6.1c-0.3,0.9-1,1.5-1.8,2.1
	c-1.3,0.8-3,0.3-4.2-0.8C607.5,570.8,607,569.7,606.8,568.6z"/>
<path class="st0" d="M900.9,569.8c-0.3-1.5-0.6-2.9-1-4.5c0-0.3,0-0.5,0.3-0.6c3-0.9,6.1-1.2,9.1-0.5c3.7,0.9,6.6,2.9,8.8,6
	c1.4,2,2.2,4.3,2.9,6.8c0.8,2.9,1,5.8,0.6,8.9c-0.6,5.1-3.2,8.9-8,11.2c-3.2,1.4-6.4,1.5-9.8,0.5c-2.1-0.6-3.7-1.8-5.3-3.2
	c-1.4-1.2-2.9-2.5-4.3-3.7c-1.4-1.1-3.2-1.5-5-1.2c-0.2,0-0.3,0-0.6,0c-0.6,0-0.6,0-0.8-0.6c-0.6-2.5-1.1-4.8-1.8-7.2
	c-0.2-0.3,0-0.5,0.3-0.6c3.9-1.1,7.5-0.9,10.8,1.7c1.3,1.1,2.7,2.1,4.2,3.2c1.9,1.4,4.2,2,6.6,1.4c2.2-0.6,4-2,4.3-4.6
	c0.3-2.8-0.5-5.2-2.6-7.1c-1.4-1.2-3-1.5-4.8-1.4c-0.6,0-1.3,0.2-1.9,0.3c-0.3,0-0.5,0-0.5-0.3C901.7,572.7,901.4,571.2,900.9,569.8
	C901.1,569.8,900.9,569.8,900.9,569.8z"/>
<path class="st0" d="M883.1,586.1c0.3,1.5,0.3,2.9-0.5,4.1c-1.1,1.7-3,2-4.7,0.9c-1.9-1.2-2.9-3.8-2.2-6c0.3-0.9,0.6-1.7,1.4-2.3
	c1.3-0.9,3-0.8,4.2,0.3C882.3,584.1,883,585,883.1,586.1z"/>
<path class="st0" d="M465.6,588.8c1.3,0.9,2.4,1.8,3.7,2.8c0.3,0.2,0.3,0.3,0.2,0.6c-1.8,2.5-3.9,4.6-6.7,5.8
	c-3.5,1.5-7.1,1.7-10.8,0.6c-2.4-0.8-4.7-2-6.7-3.4c-2.6-1.8-4.7-4-6.4-6.4c-2.9-4.3-3.4-8.9-1-13.5c1.4-2.9,4-5.1,7.2-6.3
	c2.1-0.8,4.2-0.8,6.3-0.8c1.9,0.2,3.9,0.2,5.8,0.2c1.9,0,3.4-0.8,4.7-2c0.2-0.2,0.3-0.3,0.5-0.5c0.5-0.5,0.5-0.5,1.1,0
	c2.1,1.5,4,3.1,6.1,4.5c0.3,0.2,0.3,0.5,0.2,0.6c-2.2,3.2-5.3,5.2-9.5,5.1c-1.8,0-3.5-0.2-5.3,0c-2.4,0.2-4.5,0.9-5.9,2.9
	c-1.4,1.8-1.9,4-0.5,6.3c1.4,2.5,3.7,3.8,6.7,4c1.9,0.2,3.4-0.6,4.8-1.8c0.5-0.5,1-0.9,1.3-1.4c0.2-0.2,0.3-0.3,0.6,0
	C463,587.1,464.2,588,465.6,588.8C465.4,589,465.4,589,465.6,588.8z"/>
<path class="st0" d="M468.7,565.5c-1.3-0.9-2.1-2-2.2-3.5c-0.3-1.8,1-3.4,3-3.5c2.2-0.2,4.8,1.2,5.6,3.2c0.3,0.9,0.6,1.7,0.3,2.6
	c-0.3,1.4-1.9,2.3-3.5,2.3C470.7,566.6,469.6,566.2,468.7,565.5z"/>
<path class="st0" d="M1241.1,552.4c1.3-0.8,2.6-1.7,3.9-2.5c0.3-0.2,0.5-0.2,0.6,0c1.9,2.3,3.4,4.9,3.7,8c0.5,3.7-0.5,7.1-2.7,10
	c-1.4,2-3.4,3.7-5.5,5.1c-2.6,1.7-5.3,3.1-8.3,3.8c-5.1,1.4-9.8,0.5-13.8-3.2c-2.6-2.3-3.9-5.2-4-8.6c-0.2-2,0.5-4,1.3-6
	c0.6-1.7,1.3-3.5,1.9-5.2c0.6-1.7,0.3-3.4-0.6-4.9c-0.2-0.2-0.2-0.3-0.3-0.5c-0.3-0.6-0.3-0.6,0.3-0.9c2.1-1.4,4.3-2.8,6.4-4.1
	c0.3-0.2,0.5-0.2,0.6,0.2c2.4,3.1,3.5,6.3,2.2,10.1c-0.6,1.5-1.1,3.2-1.6,4.9c-0.6,2.1-0.5,4.5,1,6.3c1.3,1.8,3.4,2.9,6.1,2.3
	c2.9-0.6,5-2.3,5.9-4.9c0.6-1.7,0.5-3.4-0.3-4.9c-0.3-0.6-0.6-1.1-1-1.7c-0.2-0.3-0.2-0.5,0.2-0.6
	C1238.6,554.2,1239.9,553.3,1241.1,552.4L1241.1,552.4z"/>
<path class="st0" d="M1218.8,542.4c-1.3,0.9-2.7,1.2-4.2,1.1c-1.9-0.3-3-2-2.6-3.8c0.5-2.1,2.7-4,5-4.1c1-0.2,1.9,0,2.7,0.5
	c1.3,0.8,1.8,2.5,1.1,3.8C1220.4,540.8,1219.8,541.8,1218.8,542.4z"/>
<path class="st0" d="M1147.7,464.5c1.3-0.8,2.7-1.5,4-2.3c0.3-0.2,0.5-0.2,0.6,0.2c1.8,2.5,3,5.1,3.4,8.1c0.3,3.7-0.8,6.9-3.2,9.8
	c-1.6,2-3.5,3.4-5.8,4.8c-2.6,1.7-5.5,2.8-8.5,3.4c-5.3,1.1-10,0-13.6-3.8c-2.4-2.5-3.5-5.4-3.5-8.8c0-2,0.6-4,1.6-5.8
	c0.8-1.7,1.6-3.4,2.2-5.1c0.6-1.7,0.5-3.4-0.3-4.9c-0.2-0.2-0.2-0.3-0.2-0.5c-0.3-0.6-0.3-0.6,0.3-0.9c2.2-1.2,4.3-2.6,6.6-3.8
	c0.3-0.2,0.5-0.2,0.6,0.2c2.2,3.2,3.2,6.4,1.6,10.3c-0.6,1.5-1.3,3.1-1.9,4.8c-0.6,2.1-0.6,4.3,0.6,6.3c1.3,2,3.2,3.1,5.9,2.6
	c2.9-0.5,5-2,6.3-4.6c0.8-1.7,0.6-3.2-0.2-4.9c-0.3-0.6-0.5-1.1-0.8-1.7c-0.2-0.3-0.2-0.5,0.2-0.6
	C1145.1,466.2,1146.4,465.5,1147.7,464.5L1147.7,464.5z"/>
<path class="st0" d="M1126,453.5c-1.4,0.8-2.7,1.2-4.2,0.8c-1.9-0.5-2.9-2.1-2.4-4c0.6-2.1,2.9-3.8,5.3-4c1,0,1.9,0.2,2.7,0.6
	c1.3,0.8,1.6,2.5,1,4C1127.8,452.1,1127,452.9,1126,453.5z"/>
<path class="st0" d="M1022.8,483.2c-1.3-0.9-2.6-1.8-3.7-2.6c-0.3-0.2-0.3-0.3-0.2-0.6c1.8-2.5,3.7-4.8,6.6-6
	c3.5-1.7,7.1-1.8,10.8-0.9c2.6,0.6,4.7,1.8,6.7,3.2c2.6,1.7,4.8,3.8,6.6,6.3c3,4.3,3.7,8.8,1.4,13.5c-1.4,3.1-3.9,5.2-7.1,6.4
	c-1.9,0.8-4.2,0.9-6.3,0.9c-1.9,0-3.9-0.2-5.8,0c-1.9,0-3.4,0.8-4.7,2.1c-0.2,0.2-0.3,0.3-0.5,0.5c-0.5,0.5-0.5,0.5-1.1,0.2
	c-2.1-1.4-4.2-2.9-6.3-4.3c-0.3-0.2-0.3-0.5-0.2-0.6c2.2-3.2,5.1-5.4,9.3-5.4c1.8,0,3.5,0,5.3-0.2c2.4-0.2,4.5-1.1,5.9-3.1
	c1.4-1.8,1.8-4,0.2-6.3s-3.9-3.7-6.9-3.7c-1.9,0-3.4,0.6-4.7,2c-0.5,0.5-0.8,0.9-1.3,1.4c-0.2,0.2-0.3,0.3-0.6,0
	C1025.4,484.9,1024.1,484,1022.8,483.2C1022.8,483.1,1022.8,483.2,1022.8,483.2z"/>
<path class="st0" d="M1020.2,506.6c1.3,0.9,2.1,2,2.4,3.4c0.3,1.8-1,3.4-2.9,3.7c-2.2,0.3-4.8-1.2-5.8-3.1c-0.3-0.9-0.6-1.7-0.3-2.6
	c0.3-1.4,1.8-2.3,3.4-2.3C1018.3,505.6,1019.4,506,1020.2,506.6z"/>
<path class="st0" d="M1255.3,499.8c0.2,1.5,0.3,2.9,0.5,4.5c0,0.3,0,0.5-0.3,0.5c-3,0.5-6.1,0.6-9.1-0.5c-3.5-1.4-6.3-3.7-8-6.9
	c-1.3-2.1-1.8-4.6-2.1-6.9c-0.5-2.9-0.3-6,0.3-8.9c1.1-5.1,4.2-8.6,9.3-10.1c3.4-1.1,6.6-0.8,9.8,0.6c1.9,0.9,3.5,2.3,5,3.8
	c1.3,1.4,2.6,2.8,3.9,4.1c1.3,1.2,2.9,1.8,4.8,1.8c0.2,0,0.3,0,0.6,0c0.6,0,0.6,0,0.8,0.6c0.3,2.5,0.6,4.9,1,7.4
	c0,0.3-0.2,0.5-0.5,0.5c-4,0.6-7.5,0.2-10.4-2.9c-1.3-1.2-2.4-2.5-3.7-3.7c-1.8-1.5-3.9-2.5-6.3-2.1s-4.2,1.5-5,4.1
	c-0.6,2.8-0.2,5.2,1.8,7.4c1.3,1.4,2.9,2,4.7,2c0.6,0,1.3,0,1.9,0c0.3,0,0.5,0.2,0.5,0.5C1254.8,496.9,1254.9,498.3,1255.3,499.8
	C1255.1,499.8,1255.1,499.8,1255.3,499.8z"/>
<path class="st0" d="M1274.8,485.5c-0.2-1.5,0-2.9,1-4c1.3-1.5,3.2-1.7,4.8-0.5c1.8,1.4,2.4,4.1,1.6,6.1c-0.3,0.9-1,1.5-1.8,2.1
	c-1.3,0.8-3,0.3-4.2-0.8C1275.5,487.7,1275,486.6,1274.8,485.5z"/>
<path class="st0" d="M1132.9,560c-0.3-1.5-0.6-2.9-1-4.5c0-0.3,0-0.5,0.3-0.6c3-0.9,6.1-1.2,9.1-0.5c3.7,0.9,6.6,2.9,8.8,6
	c1.4,2,2.2,4.3,2.9,6.8c0.8,2.9,1,5.8,0.6,8.9c-0.6,5.1-3.2,8.9-8,11.2c-3.2,1.4-6.4,1.5-9.8,0.5c-2.1-0.6-3.7-1.8-5.3-3.2
	c-1.4-1.2-2.9-2.5-4.3-3.7c-1.4-1.1-3.2-1.5-5-1.2c-0.2,0-0.3,0-0.6,0c-0.6,0-0.6,0-0.8-0.6c-0.6-2.5-1.1-4.8-1.8-7.2
	c-0.2-0.3,0-0.5,0.3-0.6c3.9-1.1,7.5-0.9,10.8,1.7c1.3,1.1,2.7,2.1,4.2,3.2c1.9,1.4,4.2,2,6.6,1.4c2.2-0.6,4-2,4.3-4.6
	c0.3-2.8-0.5-5.2-2.6-7.1c-1.4-1.2-3-1.5-4.8-1.4c-0.6,0-1.3,0.2-1.9,0.3c-0.3,0-0.5,0-0.5-0.3
	C1133.7,562.9,1133.4,561.4,1132.9,560L1132.9,560z"/>
<path class="st0" d="M1115.1,576.3c0.3,1.5,0.3,2.9-0.5,4.1c-1.1,1.7-3,2-4.7,0.9c-1.9-1.2-2.9-3.8-2.2-6c0.3-0.9,0.6-1.7,1.4-2.3
	c1.3-0.9,3-0.8,4.2,0.3C1114.1,574.3,1114.8,575.2,1115.1,576.3z"/>
<path class="st0" d="M1021.2,584.4c-1.1,1.1-2.2,2-3.4,3.1c-0.2,0.2-0.3,0.3-0.6,0c-2.2-2-4.2-4.3-5.1-7.2
	c-1.1-3.5-0.8-7.1,0.8-10.3c1.1-2.3,2.7-4.1,4.5-5.8c2.2-2.1,4.8-3.8,7.5-5.1c4.8-2.1,9.6-2,14.1,0.9c2.9,1.8,4.7,4.5,5.5,7.8
	c0.5,2,0.3,4-0.2,6c-0.3,1.8-0.8,3.7-1,5.5c-0.3,1.8,0.2,3.4,1.4,4.8c0.2,0.2,0.2,0.3,0.3,0.5c0.5,0.5,0.5,0.5-0.2,1.1
	c-1.9,1.7-3.7,3.4-5.6,5.2c-0.3,0.3-0.5,0.2-0.6,0c-2.9-2.6-4.7-5.7-4-9.7c0.3-1.7,0.6-3.4,0.8-5.1c0.2-2.3-0.3-4.5-2.1-6.1
	c-1.6-1.7-3.9-2.3-6.4-1.2c-2.7,1.1-4.5,3.1-5,5.8c-0.3,1.7,0.2,3.4,1.3,4.8c0.3,0.5,0.8,0.9,1.1,1.4c0.2,0.3,0.2,0.5,0,0.6
	C1023.4,582.1,1022.3,583.2,1021.2,584.4C1021.2,584.3,1021.2,584.3,1021.2,584.4z"/>
<path class="st0" d="M1044.9,590.6c1.1-1.1,2.4-1.7,4-1.7c1.9,0,3.4,1.4,3.2,3.4c-0.2,2.1-1.9,4.3-4.2,4.9c-1,0.3-1.9,0.3-2.7-0.2
	c-1.4-0.6-2.1-2.1-1.8-3.7C1043.7,592.4,1044.1,591.3,1044.9,590.6z"/>
<path class="st0" d="M928,519.1c1.3,0.9,2.4,1.8,3.7,2.8c0.3,0.2,0.3,0.3,0.2,0.6c-1.8,2.5-3.9,4.6-6.7,5.8
	c-3.5,1.5-7.1,1.7-10.8,0.6c-2.4-0.8-4.7-2-6.7-3.4c-2.6-1.8-4.7-4-6.4-6.4c-2.9-4.3-3.4-8.9-1-13.5c1.4-2.9,4-5.1,7.2-6.3
	c2.1-0.8,4.2-0.8,6.3-0.8c1.9,0.2,3.9,0.2,5.8,0.2c1.9,0,3.4-0.8,4.7-2c0.2-0.2,0.3-0.3,0.5-0.5c0.5-0.5,0.5-0.5,1.1,0
	c2.1,1.5,4,3.1,6.1,4.5c0.3,0.2,0.3,0.5,0.2,0.6c-2.2,3.2-5.3,5.2-9.5,5.1c-1.8,0-3.5-0.2-5.3,0c-2.4,0.2-4.5,0.9-5.9,2.9
	c-1.4,1.8-1.9,4-0.5,6.3c1.4,2.5,3.7,3.8,6.7,4c1.9,0.2,3.4-0.6,4.8-1.8c0.5-0.5,1-0.9,1.3-1.4c0.2-0.2,0.3-0.3,0.6,0
	C925.5,517.4,926.8,518.3,928,519.1C928,519.3,928,519.3,928,519.1z"/>
<path class="st0" d="M931.3,495.8c-1.3-0.9-2.1-2-2.2-3.5c-0.3-1.8,1-3.4,3-3.5c2.2-0.2,4.8,1.2,5.6,3.2c0.3,0.9,0.6,1.7,0.3,2.6
	c-0.3,1.4-1.9,2.3-3.5,2.3C933.2,496.8,932.1,496.5,931.3,495.8z"/>
<path class="st0" d="M2162.3,314.5c0.2-1.5,0.3-2.9,0.6-4.5c0-0.3,0.2-0.5,0.5-0.5c3,0.2,6.1,0.8,8.7,2.5c3.2,2.1,5.1,4.9,6.1,8.4
	c0.6,2.5,0.6,4.8,0.3,7.2c-0.3,2.9-1.1,5.8-2.6,8.6c-2.4,4.6-6.1,7.4-11.6,7.8c-3.5,0.3-6.6-0.6-9.3-2.8c-1.6-1.2-2.9-2.9-3.9-4.8
	c-1-1.7-1.8-3.2-2.9-4.9c-1-1.5-2.4-2.5-4.2-2.8c-0.2,0-0.3-0.2-0.5-0.2c-0.6-0.2-0.6-0.2-0.6-0.8c0.3-2.5,0.6-4.9,1-7.4
	c0-0.3,0.2-0.5,0.5-0.5c4,0.3,7.4,1.5,9.5,5.1c0.8,1.5,1.8,2.9,2.7,4.3c1.3,1.8,3.2,3.2,5.6,3.4c2.4,0.3,4.5-0.5,5.8-2.9
	c1.3-2.5,1.4-5.1,0-7.5c-0.8-1.5-2.2-2.5-4-2.9c-0.6-0.2-1.3-0.3-1.9-0.5c-0.3,0-0.5-0.2-0.3-0.5
	C2162,317.5,2162.2,316.1,2162.3,314.5L2162.3,314.5z"/>
<path class="st0" d="M2139.7,324.1c-0.2,1.5-0.8,2.8-1.9,3.7c-1.6,1.2-3.5,0.9-4.8-0.6c-1.3-1.7-1.3-4.6,0-6.3
	c0.6-0.8,1.3-1.4,2.2-1.7c1.4-0.5,3,0.3,3.9,1.7C2139.7,321.8,2139.9,323,2139.7,324.1z"/>
<path class="st0" d="M2464.6,333.2c1.4,0.3,3,0.8,4.5,1.1c0.3,0,0.5,0.2,0.3,0.5c-0.6,2.9-1.6,5.7-3.7,8c-2.6,2.8-5.8,4.3-9.6,4.8
	c-2.6,0.3-5.1,0-7.5-0.6c-3-0.6-5.9-1.8-8.5-3.5c-4.5-2.8-6.9-6.8-6.6-12c0.2-3.4,1.6-6.1,4-8.4c1.6-1.4,3.4-2.3,5.5-3.1
	c1.8-0.6,3.7-1.4,5.5-2c1.8-0.8,2.9-2,3.4-3.7c0-0.2,0.2-0.3,0.2-0.5c0.3-0.6,0.3-0.6,1-0.5c2.6,0.6,5,1.2,7.5,1.8
	c0.3,0.2,0.5,0.3,0.3,0.6c-0.8,3.8-2.6,6.8-6.6,8.3c-1.6,0.6-3.4,1.2-4.8,2c-2.1,1.1-3.7,2.6-4.3,4.9c-0.5,2.1,0,4.3,2.2,5.8
	c2.4,1.5,5,2,7.9,1.1c1.8-0.6,2.9-1.8,3.5-3.5c0.3-0.6,0.5-1.1,0.6-1.7c0.2-0.3,0.3-0.3,0.6-0.3
	C2461.4,332.5,2463,332.9,2464.6,333.2C2464.4,333.2,2464.6,333.2,2464.6,333.2z"/>
<path class="st0" d="M2457.5,310.7c-1.6-0.5-2.7-1.1-3.5-2.3c-1-1.7-0.5-3.5,1.3-4.5c1.9-1.1,5-0.6,6.6,0.8c0.6,0.6,1.3,1.4,1.4,2.3
	c0.2,1.4-0.6,2.9-2.2,3.4C2459.7,310.8,2458.6,310.8,2457.5,310.7z"/>
<path class="st0" d="M2368.1,236.3c-1,1.1-2.1,2.3-3,3.4c-0.2,0.3-0.3,0.3-0.6,0.2c-2.6-1.8-4.7-3.8-5.8-6.8
	c-1.4-3.4-1.4-6.9-0.2-10.3c0.8-2.3,2.2-4.3,3.9-6.3c1.9-2.3,4.3-4.3,7.1-5.8c4.7-2.6,9.5-2.9,14.1-0.5c3,1.5,5.1,4,6.1,7.2
	c0.6,2,0.6,4,0.5,6c-0.2,1.8-0.3,3.7-0.5,5.5c-0.2,1.8,0.6,3.4,1.9,4.6c0.2,0.2,0.3,0.3,0.3,0.5c0.5,0.5,0.5,0.5,0,1.1
	c-1.6,1.8-3.4,3.7-5,5.7c-0.2,0.3-0.5,0.3-0.6,0c-3.2-2.3-5.1-5.2-4.8-9.2c0.2-1.7,0.3-3.4,0.3-5.1c0-2.3-0.8-4.3-2.7-5.8
	c-1.8-1.4-4-2-6.4-0.6c-2.6,1.4-4.2,3.4-4.3,6.3c-0.2,1.8,0.5,3.4,1.6,4.6c0.5,0.5,0.8,0.9,1.3,1.4c0.2,0.2,0.3,0.3,0,0.6
	C2370,233.8,2369,235,2368.1,236.3C2368.1,236.1,2368.1,236.1,2368.1,236.3z"/>
<path class="st0" d="M2392.3,240.2c1.1-1.1,2.2-1.8,3.7-2c1.9-0.2,3.5,1.1,3.5,3.1c0.2,2.1-1.6,4.6-3.7,5.2c-1,0.3-1.8,0.5-2.7,0.2
	c-1.4-0.5-2.4-1.8-2.2-3.4C2391.2,242.1,2391.6,241,2392.3,240.2z"/>
<path class="st0" d="M2307.9,328.5c1.6-0.3,3-0.5,4.7-0.8c0.3,0,0.5,0,0.5,0.3c0.6,2.9,1,5.8,0,8.8c-1.1,3.5-3.5,6.1-6.7,8.1
	c-2.2,1.2-4.7,2-7.2,2.5c-3,0.6-6.3,0.6-9.3,0.2c-5.3-0.9-9.1-3.5-11.1-8.4c-1.3-3.1-1.3-6.3,0.2-9.4c0.8-1.8,2.1-3.5,3.7-4.9
	c1.4-1.2,2.7-2.6,4-4c1.3-1.4,1.8-2.9,1.6-4.8c0-0.2,0-0.3,0-0.6c0-0.6,0-0.6,0.6-0.8c2.6-0.5,5.1-0.8,7.7-1.2c0.3,0,0.5,0,0.6,0.3
	c1,3.7,0.5,7.2-2.4,10.1c-1.3,1.2-2.4,2.5-3.5,3.7c-1.4,1.8-2.2,3.8-1.8,6.1c0.5,2.3,1.8,4,4.5,4.5c2.9,0.6,5.5-0.2,7.5-2.1
	c1.3-1.2,1.9-2.8,1.8-4.6c0-0.6,0-1.2-0.2-1.8c0-0.3,0-0.5,0.3-0.5C2304.9,329.1,2306.5,328.8,2307.9,328.5
	C2308.1,328.5,2308.1,328.5,2307.9,328.5z"/>
<path class="st0" d="M2292,310.5c-1.6,0.3-3,0.2-4.2-0.8c-1.6-1.1-1.9-3.1-0.8-4.6c1.3-1.7,4.2-2.5,6.4-1.8c1,0.3,1.8,0.8,2.2,1.5
	c0.8,1.2,0.5,2.9-0.6,4C2294.3,309.7,2293.2,310.4,2292,310.5z"/>
<path class="st0" d="M2156.2,401.2c-1.3-0.8-2.6-1.7-4-2.5c-0.3-0.2-0.3-0.3-0.2-0.6c1.4-2.6,3.4-4.9,6.1-6.4
	c3.4-1.8,6.9-2.3,10.8-1.7c2.6,0.5,4.8,1.5,7.1,2.8c2.7,1.5,5,3.5,7.1,5.8c3.4,4,4.3,8.4,2.4,13.4c-1.3,3.1-3.5,5.4-6.6,6.9
	c-1.9,0.9-4,1.2-6.3,1.2c-1.9,0-3.9,0.2-5.8,0.3c-1.9,0.2-3.4,1.1-4.5,2.5c-0.2,0.2-0.3,0.3-0.3,0.5c-0.5,0.5-0.5,0.5-1,0.2
	c-2.2-1.4-4.3-2.6-6.6-4c-0.3-0.2-0.3-0.3-0.2-0.6c1.9-3.4,4.7-5.7,8.8-6c1.8-0.2,3.5-0.2,5.3-0.5c2.4-0.3,4.3-1.4,5.6-3.4
	c1.3-2,1.4-4.1-0.2-6.3c-1.8-2.3-4.2-3.4-7.1-3.2c-1.9,0-3.4,0.9-4.5,2.3c-0.5,0.5-0.8,0.9-1.1,1.4c-0.2,0.3-0.3,0.3-0.6,0.2
	C2158.9,402.7,2157.6,401.9,2156.2,401.2C2156.3,401.2,2156.3,401.2,2156.2,401.2z"/>
<path class="st0" d="M2155.5,424.6c1.3,0.8,2.2,1.8,2.6,3.2c0.5,1.8-0.6,3.5-2.6,3.8c-2.2,0.5-5-0.8-5.9-2.8
	c-0.5-0.8-0.8-1.7-0.6-2.6c0.3-1.4,1.6-2.5,3.2-2.6C2153.4,423.9,2154.6,424.2,2155.5,424.6z"/>
<path class="st0" d="M2808.6,141.2c1.3-0.8,2.6-1.7,3.9-2.5c0.3-0.2,0.5-0.2,0.6,0c1.9,2.3,3.4,4.9,3.7,8c0.5,3.7-0.5,7.1-2.7,10
	c-1.4,2-3.4,3.7-5.5,5.1c-2.6,1.7-5.3,3.1-8.3,3.8c-5.1,1.4-9.8,0.5-13.8-3.2c-2.6-2.3-3.9-5.2-4-8.6c-0.2-2,0.5-4,1.3-6
	c0.6-1.7,1.3-3.5,1.9-5.2c0.6-1.7,0.3-3.4-0.6-4.9c-0.2-0.2-0.2-0.3-0.3-0.5c-0.3-0.6-0.3-0.6,0.3-0.9c2.1-1.4,4.3-2.8,6.4-4.1
	c0.3-0.2,0.5-0.2,0.6,0.2c2.4,3.1,3.5,6.3,2.2,10.1c-0.6,1.5-1.1,3.2-1.6,4.9c-0.6,2.1-0.5,4.5,1,6.3c1.3,1.8,3.4,2.9,6.1,2.3
	c2.9-0.6,5-2.3,5.9-4.9c0.6-1.7,0.5-3.4-0.3-4.9c-0.3-0.6-0.6-1.1-1-1.7c-0.2-0.3-0.2-0.5,0.2-0.6
	C2806.2,143,2807.5,142.1,2808.6,141.2C2808.8,141.2,2808.8,141.2,2808.6,141.2z"/>
<path class="st0" d="M2786.5,131.2c-1.3,0.9-2.7,1.2-4.2,1.1c-1.9-0.3-3-2-2.6-3.8c0.5-2.1,2.7-4,5-4.1c1-0.2,1.9,0,2.7,0.5
	c1.3,0.8,1.8,2.5,1.1,3.8C2788.1,129.7,2787.3,130.6,2786.5,131.2z"/>
<path class="st0" d="M2097.3,517.8c0.3,1.4,0.8,2.9,1.1,4.3c0,0.3,0,0.5-0.3,0.6c-3,0.9-5.9,1.4-9.1,0.6c-3.7-0.9-6.7-2.8-9-5.8
	c-1.4-2-2.4-4.3-3-6.6c-0.8-2.9-1.1-5.8-0.8-8.9c0.5-5.1,3-9.1,7.9-11.4c3-1.5,6.4-1.7,9.8-0.6c2.1,0.6,3.9,1.8,5.5,3.1
	c1.4,1.2,2.9,2.5,4.5,3.5c1.4,1.1,3.2,1.5,5,1.1c0.2,0,0.3,0,0.6,0c0.6-0.2,0.6-0.2,0.8,0.6c0.6,2.5,1.3,4.8,1.9,7.2
	c0.2,0.3,0,0.5-0.3,0.6c-3.9,1.1-7.5,1.1-10.8-1.5c-1.4-1.1-2.7-2.1-4.2-3.1c-1.9-1.2-4.2-1.8-6.6-1.2c-2.2,0.6-4,2-4.3,4.6
	c-0.3,2.8,0.5,5.2,2.7,7.1c1.4,1.2,3,1.5,5,1.4c0.6,0,1.3-0.2,1.9-0.3c0.3,0,0.5,0,0.5,0.3C2096.3,514.8,2096.8,516.4,2097.3,517.8
	C2097.1,517.8,2097.3,517.8,2097.3,517.8z"/>
<path class="st0" d="M2114.8,501.2c-0.3-1.5-0.3-2.9,0.5-4.1c1-1.7,3-2.1,4.7-1.1c1.9,1.2,3,3.8,2.4,6c-0.3,0.9-0.6,1.7-1.4,2.3
	c-1.3,0.9-2.9,0.8-4.2-0.3C2115.6,503.2,2114.9,502.3,2114.8,501.2z"/>
<path class="st0" d="M2250.6,428.9c-0.5,1.4-0.8,2.9-1.3,4.3c-0.2,0.3-0.2,0.5-0.5,0.3c-3-0.6-5.9-1.7-8.2-3.7
	c-2.9-2.5-4.3-5.7-4.7-9.4c-0.3-2.5,0.2-4.9,0.8-7.2c0.8-2.9,2.1-5.7,3.9-8.1c3-4.3,7.2-6.4,12.7-6c3.5,0.2,6.4,1.7,8.8,4.1
	c1.4,1.5,2.4,3.4,3,5.4c0.6,1.7,1.3,3.5,2.1,5.2c0.6,1.7,1.9,2.8,3.7,3.4c0.2,0,0.3,0.2,0.5,0.2c0.6,0.3,0.6,0.3,0.5,0.9
	c-0.6,2.5-1.4,4.8-2.1,7.2c-0.2,0.3-0.3,0.5-0.6,0.3c-3.9-0.8-7.1-2.6-8.5-6.4c-0.6-1.5-1.3-3.2-1.9-4.8c-1-2-2.6-3.7-5-4.1
	c-2.2-0.6-4.5-0.2-6.1,2c-1.8,2.3-2.2,4.8-1.3,7.4c0.6,1.7,1.9,2.8,3.5,3.5c0.6,0.3,1.1,0.5,1.8,0.6c0.3,0.2,0.3,0.3,0.3,0.6
	C2251.4,426,2251,427.3,2250.6,428.9C2250.5,428.9,2250.6,428.9,2250.6,428.9z"/>
<path class="st0" d="M2274.4,422.7c0.5-1.5,1.1-2.6,2.6-3.4c1.8-0.9,3.7-0.5,4.7,1.4c1.1,1.8,0.6,4.8-1,6.3
	c-0.6,0.6-1.4,1.2-2.4,1.2c-1.4,0.2-2.9-0.8-3.5-2.3C2274.1,424.9,2274.1,423.8,2274.4,422.7z"/>
<path class="st0" d="M2399.1,420.4c1.3,0.8,2.7,1.5,4,2.3c0.3,0.2,0.3,0.3,0.2,0.6c-1.4,2.6-3.2,5.1-5.9,6.6c-3.2,2-6.7,2.6-10.6,2
	c-2.6-0.3-4.8-1.4-7.1-2.6c-2.7-1.4-5.1-3.4-7.2-5.5c-3.5-3.8-4.7-8.3-2.9-13.2c1.1-3.2,3.2-5.5,6.3-7.1c1.9-0.9,4-1.4,6.1-1.5
	c1.9-0.2,3.9-0.3,5.8-0.6c1.9-0.2,3.4-1.1,4.3-2.6c0.2-0.2,0.2-0.3,0.3-0.5c0.5-0.5,0.5-0.5,1-0.2c2.2,1.2,4.5,2.5,6.7,3.7
	c0.3,0.2,0.3,0.3,0.2,0.6c-1.8,3.4-4.5,5.8-8.7,6.3c-1.8,0.2-3.5,0.3-5.3,0.6c-2.4,0.5-4.3,1.5-5.5,3.5c-1.1,2-1.3,4.1,0.5,6.1
	c1.8,2.1,4.3,3.2,7.2,3.1c1.9-0.2,3.4-1.1,4.5-2.5c0.3-0.5,0.8-0.9,1.1-1.5c0.2-0.3,0.3-0.3,0.6-0.2
	C2396.2,418.8,2397.6,419.6,2399.1,420.4C2398.9,420.4,2398.9,420.4,2399.1,420.4z"/>
<path class="st0" d="M2398.7,396.7c-1.4-0.8-2.4-1.7-2.7-3.2c-0.5-1.8,0.5-3.5,2.4-4c2.2-0.5,5,0.6,6.1,2.5c0.5,0.8,0.8,1.7,0.6,2.6
	c-0.2,1.4-1.4,2.6-3.2,2.6C2401,397.6,2399.7,397.3,2398.7,396.7z"/>
<path class="st0" d="M2206.4,491.6c0.2-1.5,0.3-2.9,0.6-4.5c0-0.3,0.2-0.5,0.5-0.5c3,0.2,6.1,0.8,8.7,2.5c3.2,2.1,5.1,4.9,6.1,8.4
	c0.6,2.5,0.6,4.8,0.3,7.2c-0.3,2.9-1.1,5.8-2.6,8.6c-2.4,4.6-6.1,7.4-11.6,7.8c-3.5,0.3-6.6-0.6-9.3-2.8c-1.6-1.2-2.9-2.9-3.9-4.8
	c-1-1.7-1.8-3.2-2.9-4.9c-1-1.5-2.4-2.5-4.2-2.8c-0.2,0-0.3-0.2-0.5-0.2c-0.6-0.2-0.6-0.2-0.6-0.8c0.3-2.5,0.6-4.9,1-7.4
	c0-0.3,0.2-0.5,0.5-0.5c4,0.3,7.4,1.5,9.5,5.1c0.8,1.5,1.8,2.9,2.7,4.3c1.3,1.8,3.2,3.2,5.6,3.4c2.4,0.3,4.5-0.5,5.8-2.9
	c1.3-2.5,1.4-5.1,0-7.5c-0.8-1.5-2.2-2.5-4-2.9c-0.6-0.2-1.3-0.3-1.9-0.5c-0.3,0-0.5-0.2-0.3-0.5
	C2206.2,494.6,2206.4,493.2,2206.4,491.6C2206.5,491.6,2206.5,491.6,2206.4,491.6z"/>
<path class="st0" d="M2183.9,501.2c-0.2,1.5-0.8,2.8-1.9,3.7c-1.6,1.2-3.5,0.9-4.8-0.6c-1.3-1.7-1.3-4.6,0-6.3
	c0.6-0.8,1.3-1.4,2.2-1.7c1.4-0.5,3,0.3,3.9,1.7C2183.9,498.9,2184.1,500.1,2183.9,501.2z"/>
<path class="st0" d="M2396.3,486.5c1.3-0.8,2.7-1.5,4-2.3c0.3-0.2,0.5-0.2,0.6,0.2c1.8,2.5,3,5.1,3.4,8.1c0.3,3.7-0.8,6.9-3.2,9.8
	c-1.6,2-3.5,3.4-5.8,4.8c-2.6,1.7-5.5,2.8-8.5,3.4c-5.3,1.1-9.9,0-13.6-3.8c-2.4-2.5-3.5-5.4-3.5-8.8c0-2,0.6-4,1.6-5.8
	c0.8-1.7,1.6-3.4,2.2-5.1c0.6-1.7,0.5-3.4-0.3-4.9c-0.2-0.2-0.2-0.3-0.2-0.5c-0.3-0.6-0.3-0.6,0.3-0.9c2.2-1.2,4.3-2.6,6.6-3.8
	c0.3-0.2,0.5-0.2,0.6,0.2c2.2,3.2,3.2,6.4,1.6,10.3c-0.6,1.5-1.3,3.1-1.9,4.8c-0.6,2.1-0.6,4.3,0.6,6.3c1.3,2,3.2,3.1,5.9,2.6
	c2.9-0.5,5-2,6.3-4.6c0.8-1.7,0.6-3.2-0.2-4.9c-0.3-0.6-0.5-1.1-0.8-1.7c-0.2-0.3-0.2-0.5,0.2-0.6
	C2393.5,488.2,2395,487.4,2396.3,486.5L2396.3,486.5z"/>
<path class="st0" d="M2374.4,475.4c-1.4,0.8-2.7,1.2-4.2,0.8c-1.9-0.5-2.9-2.1-2.4-4c0.6-2.1,2.9-3.8,5.3-4c1,0,1.9,0.2,2.7,0.6
	c1.3,0.8,1.6,2.5,1,4C2376.2,474,2375.4,474.8,2374.4,475.4z"/>
<path class="st0" d="M2285.6,496.1c-1.3-0.9-2.6-1.8-3.7-2.6c-0.3-0.2-0.3-0.3-0.2-0.6c1.8-2.5,3.7-4.8,6.6-6
	c3.5-1.7,7.1-1.8,10.8-0.9c2.6,0.6,4.7,1.8,6.7,3.2c2.6,1.7,4.8,3.8,6.6,6.3c3,4.3,3.7,8.8,1.4,13.5c-1.4,3.1-3.9,5.2-7.1,6.4
	c-1.9,0.8-4.2,0.9-6.3,0.9c-1.9,0-3.9-0.2-5.8,0c-1.9,0-3.4,0.8-4.7,2.1c-0.2,0.2-0.3,0.3-0.5,0.5c-0.5,0.5-0.5,0.5-1.1,0.2
	c-2.1-1.4-4.2-2.9-6.3-4.3c-0.3-0.2-0.3-0.5-0.2-0.6c2.2-3.2,5.1-5.4,9.3-5.4c1.8,0,3.5,0,5.3-0.2c2.4-0.2,4.5-1.1,5.9-3.1
	c1.4-1.8,1.8-4,0.2-6.3c-1.6-2.3-3.9-3.7-6.9-3.7c-1.9,0-3.4,0.6-4.7,2c-0.5,0.5-0.8,0.9-1.3,1.4c-0.2,0.2-0.3,0.3-0.6,0
	C2288.4,497.8,2287.1,496.9,2285.6,496.1C2285.8,496,2285.6,496.1,2285.6,496.1z"/>
<path class="st0" d="M2283.2,519.5c1.3,0.9,2.1,2,2.4,3.4c0.3,1.8-1,3.4-2.9,3.7c-2.2,0.3-4.8-1.2-5.8-3.1c-0.3-0.9-0.6-1.7-0.3-2.6
	c0.3-1.4,1.8-2.3,3.4-2.3C2281.1,518.5,2282.3,518.8,2283.2,519.5z"/>
<path class="st0" d="M2564.3,276c-0.8,1.4-1.4,2.6-2.2,4c-0.2,0.3-0.3,0.3-0.6,0.2c-2.9-1.2-5.5-2.8-7.2-5.2c-2.2-3.1-3-6.4-2.6-10
	c0.3-2.5,1.1-4.8,2.2-6.9c1.4-2.8,3.2-5.1,5.5-7.2c3.9-3.5,8.5-4.9,13.6-3.4c3.4,0.9,5.9,2.9,7.7,5.7c1.1,1.8,1.6,3.7,1.9,5.8
	c0.3,1.8,0.5,3.7,0.8,5.5c0.3,1.8,1.3,3.1,2.9,4c0.2,0.2,0.3,0.2,0.5,0.3c0.6,0.3,0.6,0.3,0.3,0.9c-1.1,2.1-2.4,4.5-3.5,6.6
	c-0.2,0.3-0.3,0.3-0.6,0.2c-3.7-1.5-6.3-4-6.9-8c-0.3-1.7-0.5-3.4-1-5.1c-0.6-2.3-1.8-4-4-5.1c-2.1-1.1-4.3-1.1-6.4,0.8
	c-2.2,1.8-3.2,4.3-2.9,7.1c0.2,1.8,1.3,3.1,2.7,4.1c0.5,0.3,1.1,0.6,1.6,1.1c0.3,0.2,0.3,0.3,0.2,0.6
	C2565.8,273.3,2565,274.7,2564.3,276C2564.3,275.9,2564.3,276,2564.3,276z"/>
<path class="st0" d="M2588.9,274.7c0.8-1.4,1.8-2.3,3.2-2.8c1.9-0.6,3.7,0.3,4.2,2.1c0.6,2.1-0.5,4.8-2.4,6
	c-0.8,0.5-1.6,0.9-2.7,0.8c-1.4-0.2-2.7-1.4-2.9-2.9C2588.2,276.8,2588.4,275.6,2588.9,274.7z"/>
<path class="st0" d="M2557.8,178.1c0.2,1.5,0.3,2.9,0.5,4.5c0,0.3,0,0.5-0.3,0.5c-3,0.5-6.1,0.6-9.1-0.5c-3.5-1.4-6.3-3.7-8-6.9
	c-1.3-2.1-1.8-4.6-2.1-6.9c-0.5-2.9-0.3-6,0.3-8.9c1.1-5.1,4.2-8.6,9.3-10.1c3.4-1.1,6.6-0.8,9.8,0.6c1.9,0.9,3.5,2.3,5,3.8
	c1.3,1.4,2.6,2.8,3.9,4.1c1.3,1.2,2.9,1.8,4.8,1.8c0.2,0,0.3,0,0.6,0c0.6,0,0.6,0,0.8,0.6c0.3,2.5,0.6,4.9,1,7.4
	c0,0.3-0.2,0.5-0.5,0.5c-4,0.6-7.5,0.2-10.4-2.9c-1.3-1.2-2.4-2.5-3.7-3.7c-1.8-1.5-3.9-2.5-6.3-2.1c-2.4,0.3-4.2,1.5-5,4.1
	c-0.6,2.8-0.2,5.2,1.8,7.4c1.3,1.4,2.9,2,4.7,2c0.6,0,1.3,0,1.9,0c0.3,0,0.5,0.2,0.5,0.5C2557.3,175.2,2557.4,176.6,2557.8,178.1
	L2557.8,178.1z"/>
<path class="st0" d="M2577.3,163.8c-0.2-1.5,0-2.9,1-4c1.3-1.5,3.2-1.7,4.8-0.5c1.8,1.4,2.4,4.1,1.6,6.1c-0.3,0.9-1,1.5-1.8,2.1
	c-1.3,0.8-3,0.3-4.2-0.8C2578,166,2577.5,164.9,2577.3,163.8z"/>
<path class="st0" d="M2490.5,411.5c-0.3-1.5-0.6-2.9-1-4.5c0-0.3,0-0.5,0.3-0.6c3-0.9,6.1-1.2,9.1-0.5c3.7,0.9,6.6,2.9,8.8,6
	c1.4,2,2.2,4.3,2.9,6.8c0.8,2.9,1,5.8,0.6,8.9c-0.6,5.1-3.2,8.9-8,11.2c-3.2,1.4-6.4,1.5-9.8,0.5c-2.1-0.6-3.7-1.8-5.3-3.2
	c-1.4-1.2-2.9-2.5-4.3-3.7c-1.4-1.1-3.2-1.5-5-1.2c-0.2,0-0.3,0-0.6,0c-0.6,0-0.6,0-0.8-0.6c-0.6-2.5-1.1-4.8-1.8-7.2
	c-0.2-0.3,0-0.5,0.3-0.6c3.9-1.1,7.5-0.9,10.8,1.7c1.3,1.1,2.7,2.1,4.2,3.2c1.9,1.4,4.2,2,6.6,1.4c2.2-0.6,4-2,4.3-4.6
	c0.3-2.8-0.5-5.2-2.6-7.1c-1.4-1.2-3-1.5-4.8-1.4c-0.6,0-1.3,0.2-1.9,0.3c-0.3,0-0.5,0-0.5-0.3
	C2491.3,414.4,2491,412.9,2490.5,411.5C2490.7,411.5,2490.5,411.5,2490.5,411.5z"/>
<path class="st0" d="M2472.7,427.8c0.3,1.5,0.3,2.9-0.5,4.1c-1.1,1.7-3,2-4.7,0.9c-1.9-1.2-2.9-3.8-2.2-6c0.3-0.9,0.6-1.7,1.4-2.3
	c1.3-0.9,3-0.8,4.2,0.3C2471.9,425.8,2472.6,426.7,2472.7,427.8z"/>
<path class="st0" d="M2456.6,559.8c-1.6,0-3,0-4.7,0c-0.3,0-0.5-0.2-0.5-0.5c-0.2-2.9,0.2-5.8,1.6-8.6c1.8-3.2,4.5-5.5,8-6.9
	c2.4-0.9,5-1.2,7.5-1.2c3.2-0.2,6.3,0.3,9.1,1.4c5.1,1.7,8.3,4.9,9.5,10c0.6,3.2,0.2,6.3-1.8,9.2c-1.1,1.7-2.7,3.1-4.5,4.3
	c-1.6,1.1-3.2,2.1-4.7,3.2c-1.4,1.1-2.2,2.6-2.4,4.3c0,0.2,0,0.3,0,0.6c-0.2,0.6-0.2,0.6-0.8,0.6c-2.6,0-5.1,0-7.7,0
	c-0.3,0-0.5-0.2-0.5-0.5c-0.2-3.8,0.8-7.2,4.2-9.5c1.4-1.1,2.9-2,4.2-3.1c1.8-1.5,2.9-3.4,2.9-5.8c0-2.3-1.1-4.1-3.7-5.1
	c-2.7-0.9-5.5-0.8-7.9,0.9c-1.6,1.1-2.2,2.5-2.6,4.3c-0.2,0.6-0.2,1.2-0.2,1.8c0,0.3-0.2,0.5-0.5,0.5
	C2459.8,559.8,2458.2,559.8,2456.6,559.8L2456.6,559.8z"/>
<path class="st0" d="M2469.1,580.1c1.6,0,2.9,0.3,4,1.4c1.4,1.4,1.4,3.2,0,4.6c-1.6,1.5-4.7,1.8-6.6,0.8c-0.8-0.5-1.6-1.1-1.9-1.8
	c-0.6-1.4,0-2.9,1.3-3.8C2466.8,580.4,2468,580.1,2469.1,580.1z"/>
<path class="st0" d="M2325.1,582.7c-1.1,1.1-2.2,2-3.4,3.1c-0.2,0.2-0.3,0.3-0.6,0c-2.2-2-4.2-4.3-5.1-7.2
	c-1.1-3.5-0.8-7.1,0.8-10.3c1.1-2.3,2.7-4.1,4.5-5.8c2.2-2.1,4.8-3.8,7.5-5.1c4.8-2.1,9.6-2,14.1,0.9c2.9,1.8,4.7,4.5,5.5,7.8
	c0.5,2,0.3,4-0.2,6c-0.3,1.8-0.8,3.7-1,5.5c-0.3,1.8,0.2,3.4,1.4,4.8c0.2,0.2,0.2,0.3,0.3,0.5c0.5,0.5,0.5,0.5-0.2,1.1
	c-1.9,1.7-3.7,3.4-5.6,5.2c-0.3,0.3-0.5,0.2-0.6,0c-2.9-2.6-4.7-5.7-4-9.7c0.3-1.7,0.6-3.4,0.8-5.1c0.2-2.3-0.3-4.5-2.1-6.1
	c-1.6-1.7-3.9-2.3-6.4-1.2c-2.7,1.1-4.5,3.1-5,5.8c-0.3,1.7,0.2,3.4,1.3,4.8c0.3,0.5,0.8,0.9,1.1,1.4c0.2,0.3,0.2,0.5,0,0.6
	C2327.3,580.4,2326.2,581.5,2325.1,582.7C2325.1,582.6,2325.1,582.6,2325.1,582.7z"/>
<path class="st0" d="M2348.8,588.9c1.1-1.1,2.4-1.7,4-1.7c1.9,0,3.4,1.4,3.2,3.4c-0.2,2.1-1.9,4.3-4.2,4.9c-1,0.3-1.9,0.3-2.7-0.2
	c-1.4-0.6-2.1-2.1-1.8-3.7C2347.4,590.7,2348,589.6,2348.8,588.9z"/>
<path class="st0" d="M2156.8,580.5c1.1,1.1,2.1,2.2,3.2,3.3c0.3,0.2,0.3,0.4,0.1,0.6c-2.1,2.1-4.6,3.9-7.6,4.6
	c-3.7,0.9-7.2,0.5-10.7-1.2c-2.2-1.2-4.3-2.7-6.1-4.4c-2.2-2.2-3.9-4.7-5.3-7.4c-2.1-4.7-1.9-9.3,1.3-13.5c1.9-2.6,4.8-4.3,8.2-5
	c2.2-0.4,4.2-0.1,6.3,0.3c1.9,0.5,3.8,0.8,5.7,1.1c1.9,0.3,3.5-0.2,4.9-1.2c0.2-0.1,0.4-0.2,0.6-0.4c0.6-0.4,0.6-0.4,1.1,0.2
	c1.8,1.9,3.5,3.7,5.3,5.4c0.3,0.2,0.2,0.5,0.1,0.6c-2.7,2.8-6.1,4.3-10.2,3.4c-1.7-0.3-3.5-0.7-5.2-0.9c-2.4-0.2-4.6,0.2-6.3,1.9
	c-1.7,1.6-2.6,3.6-1.5,6.1c1,2.7,3,4.4,6,5c1.9,0.5,3.4,0,5.1-1c0.6-0.4,1.1-0.7,1.5-1.2c0.2-0.1,0.4-0.2,0.6,0.1
	C2154.6,578.4,2155.5,579.5,2156.8,580.5C2156.6,580.7,2156.6,580.7,2156.8,580.5z"/>
<path class="st0" d="M2163.7,558c-1.1-1.1-1.7-2.3-1.6-3.9c0-1.9,1.5-3.2,3.6-3c2.2,0.2,4.5,2,5,4.1c0.2,1,0.4,1.8-0.1,2.6
	c-0.5,1.3-2.3,2-3.9,1.7C2165.6,559.4,2164.5,558.9,2163.7,558z"/>
<path class="st0" d="M2767.1,320.2c-1.6,0-3,0-4.7,0c-0.3,0-0.5-0.2-0.5-0.5c-0.2-2.9,0-5.8,1.4-8.6c1.8-3.2,4.5-5.5,8-6.9
	c2.4-0.9,5-1.2,7.5-1.2c3.2-0.2,6.3,0.3,9.1,1.2c5.1,1.7,8.5,4.9,9.6,10c0.8,3.2,0.2,6.3-1.6,9.2c-1.1,1.7-2.7,3.1-4.5,4.3
	c-1.6,1.1-3.2,2.1-4.7,3.2c-1.4,1.1-2.2,2.6-2.4,4.5c0,0.2,0,0.3,0,0.6c0,0.6,0,0.6-0.8,0.6c-2.6,0-5.1,0-7.7,0.2
	c-0.3,0-0.5-0.2-0.5-0.5c-0.3-3.8,0.8-7.2,4.2-9.7c1.4-1.1,2.9-2,4.2-3.1c1.8-1.5,2.9-3.4,2.9-5.8c0-2.3-1.1-4.1-3.7-5.1
	c-2.7-0.9-5.5-0.8-7.9,0.9c-1.6,1.1-2.2,2.5-2.6,4.3c-0.2,0.6-0.2,1.2-0.2,1.8c0,0.3-0.2,0.5-0.5,0.5
	C2770.3,320.2,2768.7,320.2,2767.1,320.2L2767.1,320.2z"/>
<path class="st0" d="M2779.8,340.5c1.6,0,2.9,0.3,4,1.4c1.4,1.4,1.4,3.2,0,4.6c-1.6,1.5-4.7,1.8-6.6,0.8c-0.8-0.5-1.6-1.1-1.9-1.8
	c-0.6-1.4,0-2.9,1.3-3.8C2777.5,340.8,2778.6,340.5,2779.8,340.5z"/>
<path class="st0" d="M2659.1,249.5c-1,1.1-2.1,2.3-3,3.4c-0.2,0.3-0.3,0.3-0.6,0.2c-2.6-1.8-4.7-3.8-5.8-6.8
	c-1.4-3.4-1.4-6.9-0.2-10.3c0.8-2.3,2.2-4.3,3.9-6.3c1.9-2.3,4.3-4.3,7.1-5.8c4.7-2.6,9.5-2.9,14.1-0.5c3,1.5,5.1,4,6.1,7.2
	c0.6,2,0.6,4,0.5,6c-0.2,1.8-0.3,3.7-0.5,5.5s0.6,3.4,1.9,4.6c0.2,0.2,0.3,0.3,0.3,0.5c0.5,0.5,0.5,0.5,0,1.1
	c-1.6,1.8-3.4,3.7-5,5.7c-0.2,0.3-0.5,0.3-0.6,0c-3.2-2.3-5.1-5.2-4.8-9.2c0.2-1.7,0.3-3.4,0.3-5.1c0-2.3-0.8-4.3-2.7-5.8
	c-1.8-1.4-4-2-6.4-0.6c-2.6,1.4-4.2,3.4-4.3,6.3c-0.2,1.8,0.5,3.4,1.6,4.6c0.5,0.5,0.8,0.9,1.3,1.4c0.2,0.2,0.3,0.3,0,0.6
	C2661,247.1,2659.9,248.3,2659.1,249.5C2658.9,249.4,2658.9,249.4,2659.1,249.5z"/>
<path class="st0" d="M2683.3,253.5c1.1-1.1,2.2-1.8,3.7-2c1.9-0.2,3.5,1.1,3.5,3.1c0.2,2.1-1.6,4.6-3.7,5.2c-1,0.3-1.8,0.5-2.7,0.2
	c-1.4-0.5-2.4-1.8-2.2-3.4C2682,255.4,2682.5,254.3,2683.3,253.5z"/>
<path class="st0" d="M2714.4,328.5c1.6-0.3,3-0.5,4.7-0.8c0.3,0,0.5,0,0.5,0.3c0.6,2.9,1,5.8,0,8.8c-1.1,3.5-3.5,6.1-6.7,8.1
	c-2.2,1.2-4.7,2-7.2,2.5c-3,0.6-6.3,0.6-9.3,0.2c-5.3-0.9-9.1-3.5-11.1-8.4c-1.3-3.1-1.3-6.3,0.2-9.4c0.8-1.8,2.1-3.5,3.7-4.9
	c1.4-1.2,2.7-2.6,4-4c1.3-1.4,1.8-2.9,1.6-4.8c0-0.2,0-0.3,0-0.6c0-0.6,0-0.6,0.6-0.8c2.6-0.5,5.1-0.8,7.7-1.2c0.3,0,0.5,0,0.6,0.3
	c1,3.7,0.5,7.2-2.4,10.1c-1.3,1.2-2.4,2.5-3.5,3.7c-1.4,1.8-2.2,3.8-1.8,6.1c0.5,2.3,1.8,4,4.5,4.5c2.9,0.6,5.5-0.2,7.5-2.1
	c1.3-1.2,1.9-2.8,1.8-4.6c0-0.6,0-1.2-0.2-1.8c0-0.3,0-0.5,0.3-0.5C2711.4,329.1,2712.8,328.8,2714.4,328.5L2714.4,328.5z"/>
<path class="st0" d="M2698.5,310.5c-1.6,0.3-3,0.2-4.2-0.8c-1.6-1.1-1.9-3.1-0.8-4.6c1.3-1.7,4.2-2.5,6.4-1.8c1,0.3,1.8,0.8,2.2,1.5
	c0.8,1.2,0.5,2.9-0.6,4C2700.6,309.7,2699.7,310.4,2698.5,310.5z"/>
<path class="st0" d="M2558,366.5c-1.3-0.8-2.6-1.7-4-2.5c-0.3-0.2-0.3-0.3-0.2-0.6c1.4-2.6,3.4-4.9,6.1-6.4
	c3.4-1.8,6.9-2.3,10.8-1.7c2.6,0.5,4.8,1.5,7.1,2.8c2.7,1.5,5,3.5,7.1,5.8c3.4,4,4.3,8.4,2.4,13.4c-1.3,3.1-3.5,5.4-6.6,6.9
	c-1.9,0.9-4,1.2-6.3,1.2c-1.9,0-3.9,0.2-5.8,0.3c-1.9,0.2-3.4,1.1-4.5,2.5c-0.2,0.2-0.3,0.3-0.3,0.5c-0.5,0.5-0.5,0.5-1,0.2
	c-2.2-1.4-4.3-2.6-6.6-4c-0.3-0.2-0.3-0.3-0.2-0.6c1.9-3.4,4.7-5.7,8.8-6c1.8-0.2,3.5-0.2,5.3-0.5c2.4-0.3,4.3-1.4,5.6-3.4
	c1.3-2,1.4-4.1-0.2-6.3c-1.8-2.3-4.2-3.4-7.1-3.2c-1.9,0-3.4,0.9-4.5,2.3c-0.5,0.5-0.8,0.9-1.1,1.4c-0.2,0.3-0.3,0.3-0.6,0.2
	C2560.8,368,2559.3,367.2,2558,366.5L2558,366.5z"/>
<path class="st0" d="M2557.2,390c1.3,0.8,2.2,1.8,2.6,3.2c0.5,1.8-0.6,3.5-2.6,3.8c-2.2,0.5-5-0.8-5.9-2.8c-0.5-0.8-0.8-1.7-0.6-2.6
	c0.3-1.4,1.6-2.5,3.2-2.6C2555.1,389.2,2556.3,389.5,2557.2,390z"/>
<path class="st0" d="M2778.2,434.3c1.3,0.8,2.7,1.5,4,2.3c0.3,0.2,0.3,0.3,0.2,0.6c-1.4,2.6-3.2,5.1-5.9,6.6c-3.2,2-6.7,2.6-10.6,2
	c-2.6-0.3-4.8-1.4-7.1-2.6c-2.7-1.4-5.1-3.4-7.2-5.5c-3.5-3.8-4.7-8.3-2.9-13.2c1.1-3.2,3.2-5.5,6.3-7.1c1.9-0.9,4-1.4,6.1-1.5
	c1.9-0.2,3.9-0.3,5.8-0.6c1.9-0.2,3.4-1.1,4.3-2.6c0.2-0.2,0.2-0.3,0.3-0.5c0.5-0.5,0.5-0.5,1-0.2c2.2,1.2,4.5,2.5,6.7,3.7
	c0.3,0.2,0.3,0.3,0.2,0.6c-1.8,3.4-4.5,5.8-8.7,6.3c-1.8,0.2-3.5,0.3-5.3,0.6c-2.4,0.5-4.3,1.5-5.5,3.5c-1.1,2-1.3,4.1,0.5,6.1
	c1.8,2.1,4.3,3.2,7.2,3.1c1.9-0.2,3.4-1.1,4.5-2.5c0.3-0.5,0.8-0.9,1.1-1.5c0.2-0.3,0.3-0.3,0.6-0.2
	C2775.3,432.8,2776.8,433.5,2778.2,434.3L2778.2,434.3z"/>
<path class="st0" d="M2778.1,410.7c-1.4-0.8-2.4-1.7-2.7-3.2c-0.5-1.8,0.5-3.5,2.4-4c2.2-0.5,5,0.6,6.1,2.5c0.5,0.8,0.8,1.7,0.6,2.6
	c-0.2,1.4-1.4,2.6-3.2,2.6C2780.2,411.6,2779,411.3,2778.1,410.7z"/>
<path class="st0" d="M2530.7,488.5c-1.6,0-3,0-4.7,0c-0.3,0-0.5-0.2-0.5-0.5c-0.2-2.9,0-5.8,1.4-8.6c1.8-3.2,4.5-5.5,8-6.9
	c2.4-0.9,5-1.2,7.5-1.2c3.2-0.2,6.3,0.3,9.1,1.2c5.1,1.7,8.5,4.9,9.6,10c0.8,3.2,0.2,6.3-1.6,9.2c-1.1,1.7-2.7,3.1-4.5,4.3
	c-1.6,1.1-3.2,2.1-4.7,3.2c-1.4,1.1-2.2,2.6-2.4,4.5c0,0.2,0,0.3,0,0.6c0,0.6,0,0.6-0.8,0.6c-2.6,0-5.1,0-7.7,0.2
	c-0.3,0-0.5-0.2-0.5-0.5c-0.3-3.8,0.8-7.2,4.2-9.7c1.4-1.1,2.9-2,4.2-3.1c1.8-1.5,2.9-3.4,2.9-5.8c0-2.3-1.1-4.1-3.7-5.1
	c-2.7-0.9-5.5-0.8-7.9,0.9c-1.6,1.1-2.2,2.5-2.6,4.3c-0.2,0.6-0.2,1.2-0.2,1.8c0,0.3-0.2,0.5-0.5,0.5
	C2533.9,488.5,2532.3,488.5,2530.7,488.5L2530.7,488.5z"/>
<path class="st0" d="M2543.4,508.8c1.6,0,2.9,0.3,4,1.4c1.4,1.4,1.4,3.2,0,4.6c-1.6,1.5-4.7,1.8-6.6,0.8c-0.8-0.5-1.6-1.1-1.9-1.8
	c-0.6-1.4,0-2.9,1.3-3.8C2541.1,509.1,2542.2,508.8,2543.4,508.8z"/>
<path class="st0" d="M2640.8,485.6c0.2-1.5,0.3-2.9,0.6-4.5c0-0.3,0.2-0.5,0.5-0.5c3,0.2,6.1,0.8,8.7,2.5c3.2,2.1,5.1,4.9,6.1,8.4
	c0.6,2.5,0.6,4.8,0.3,7.2c-0.3,2.9-1.1,5.8-2.6,8.6c-2.4,4.6-6.1,7.4-11.6,7.8c-3.5,0.3-6.6-0.6-9.3-2.8c-1.6-1.2-2.9-2.9-3.9-4.8
	c-1-1.7-1.8-3.2-2.9-4.9c-1-1.5-2.4-2.5-4.2-2.8c-0.2,0-0.3-0.2-0.5-0.2c-0.6-0.2-0.6-0.2-0.6-0.8c0.3-2.5,0.6-4.9,1-7.4
	c0-0.3,0.2-0.5,0.5-0.5c4,0.3,7.4,1.5,9.5,5.1c0.8,1.5,1.8,2.9,2.7,4.3c1.3,1.8,3.2,3.2,5.6,3.4c2.4,0.3,4.5-0.5,5.8-2.9
	c1.3-2.5,1.4-5.1,0-7.5c-0.8-1.5-2.2-2.5-4-2.9c-0.6-0.2-1.3-0.3-1.9-0.5c-0.3,0-0.5-0.2-0.3-0.5
	C2640.5,488.5,2640.7,487.1,2640.8,485.6L2640.8,485.6z"/>
<path class="st0" d="M2618.2,495.1c-0.2,1.5-0.8,2.8-1.9,3.7c-1.6,1.2-3.5,0.9-4.8-0.6c-1.3-1.7-1.3-4.6,0-6.3
	c0.6-0.8,1.3-1.4,2.2-1.7c1.4-0.5,3,0.3,3.9,1.7C2618.2,492.8,2618.3,494,2618.2,495.1z"/>
<path class="st0" d="M2790.2,502.9c1.3-0.8,2.7-1.5,4-2.3c0.3-0.2,0.5-0.2,0.6,0.2c1.8,2.5,3,5.1,3.4,8.1c0.3,3.7-0.8,6.9-3.2,9.8
	c-1.6,2-3.5,3.4-5.8,4.8c-2.6,1.7-5.5,2.8-8.5,3.4c-5.3,1.1-9.9,0-13.6-3.8c-2.4-2.5-3.5-5.4-3.5-8.8c0-2,0.6-4,1.6-5.8
	c0.8-1.7,1.6-3.4,2.2-5.1c0.6-1.7,0.5-3.4-0.3-4.9c-0.2-0.2-0.2-0.3-0.2-0.5c-0.3-0.6-0.3-0.6,0.3-0.9c2.2-1.2,4.3-2.6,6.6-3.8
	c0.3-0.2,0.5-0.2,0.6,0.2c2.2,3.2,3.2,6.4,1.6,10.3c-0.6,1.5-1.3,3.1-1.9,4.8c-0.6,2.1-0.6,4.3,0.6,6.3c1.3,2,3.2,3.1,5.9,2.6
	c2.9-0.5,5-2,6.3-4.6c0.8-1.7,0.6-3.2-0.2-4.9c-0.3-0.6-0.5-1.1-0.8-1.7c-0.2-0.3-0.2-0.5,0.2-0.6
	C2787.6,504.6,2788.9,503.8,2790.2,502.9L2790.2,502.9z"/>
<path class="st0" d="M2768.5,491.8c-1.4,0.8-2.7,1.2-4.2,0.8c-1.9-0.5-2.9-2.1-2.4-4c0.6-2.1,2.9-3.8,5.3-4c1,0,1.9,0.2,2.7,0.6
	c1.3,0.8,1.6,2.5,1,4C2770.3,490.4,2769.5,491.2,2768.5,491.8z"/>
<path class="st0" d="M2753.4,214.8c-1.3-0.9-2.6-1.8-3.7-2.6c-0.3-0.2-0.3-0.3-0.2-0.6c1.8-2.5,3.7-4.8,6.6-6
	c3.5-1.7,7.1-1.8,10.8-0.9c2.6,0.6,4.7,1.8,6.7,3.2c2.6,1.7,4.8,3.8,6.6,6.3c3,4.3,3.7,8.8,1.4,13.5c-1.4,3.1-3.9,5.2-7.1,6.4
	c-1.9,0.8-4.2,0.9-6.3,0.9c-1.9,0-3.9-0.2-5.8,0c-1.9,0-3.4,0.8-4.7,2.1c-0.2,0.2-0.3,0.3-0.5,0.5c-0.5,0.5-0.5,0.5-1.1,0.2
	c-2.1-1.4-4.2-2.9-6.3-4.3c-0.3-0.2-0.3-0.5-0.2-0.6c2.2-3.2,5.1-5.4,9.3-5.4c1.8,0,3.5,0,5.3-0.2c2.4-0.2,4.5-1.1,5.9-3.1
	c1.4-1.8,1.8-4,0.2-6.3c-1.6-2.3-3.9-3.7-6.9-3.7c-1.9,0-3.4,0.6-4.7,2c-0.5,0.5-0.8,0.9-1.3,1.4c-0.2,0.2-0.3,0.3-0.6,0
	C2756,216.5,2754.7,215.6,2753.4,214.8C2753.4,214.7,2753.4,214.8,2753.4,214.8z"/>
<path class="st0" d="M2750.8,238.2c1.3,0.9,2.1,2,2.4,3.4c0.3,1.8-1,3.4-2.9,3.7c-2.2,0.3-4.8-1.2-5.8-3.1c-0.3-0.9-0.6-1.7-0.3-2.6
	c0.3-1.4,1.8-2.3,3.4-2.3C2748.9,237.2,2750,237.6,2750.8,238.2z"/>
<path class="st0" d="M2717.2,593.4c-1.1,1.1-2.2,2-3.4,3.1c-0.2,0.2-0.3,0.3-0.6,0c-2.2-2-4.2-4.3-5.1-7.2
	c-1.1-3.5-0.8-7.1,0.8-10.3c1.1-2.3,2.7-4.1,4.5-5.8c2.2-2.1,4.8-3.8,7.5-5.1c4.8-2.1,9.6-2,14.1,0.9c2.9,1.8,4.7,4.5,5.5,7.8
	c0.5,2,0.3,4-0.2,6c-0.3,1.8-0.8,3.7-1,5.5c-0.3,1.8,0.2,3.4,1.4,4.8c0.2,0.2,0.2,0.3,0.3,0.5c0.5,0.5,0.5,0.5-0.2,1.1
	c-1.9,1.7-3.7,3.4-5.6,5.2c-0.3,0.3-0.5,0.2-0.6,0c-2.9-2.6-4.7-5.7-4-9.7c0.3-1.7,0.6-3.4,0.8-5.1c0.2-2.3-0.3-4.5-2.1-6.1
	c-1.6-1.7-3.9-2.3-6.4-1.2c-2.7,1.1-4.5,3.1-5,5.8c-0.3,1.7,0.2,3.4,1.3,4.8c0.3,0.5,0.8,0.9,1.1,1.4c0.2,0.3,0.2,0.5,0,0.6
	C2719.4,591.1,2718.3,592.1,2717.2,593.4C2717.2,593.2,2717.2,593.2,2717.2,593.4z"/>
<path class="st0" d="M2740.9,599.5c1.1-1.1,2.4-1.7,4-1.7c1.9,0,3.4,1.4,3.2,3.4c-0.2,2.1-1.9,4.3-4.2,4.9c-1,0.3-1.9,0.3-2.7-0.2
	c-1.4-0.6-2.1-2.1-1.8-3.7C2739.6,601.3,2740.1,600.3,2740.9,599.5z"/>
<path class="st0" d="M2591,606.7c1.3,0.9,2.4,1.8,3.7,2.8c0.3,0.2,0.3,0.3,0.2,0.6c-1.8,2.5-3.9,4.6-6.7,5.8
	c-3.5,1.5-7.1,1.7-10.8,0.6c-2.4-0.8-4.7-2-6.7-3.4c-2.6-1.8-4.7-4-6.4-6.4c-2.9-4.3-3.4-8.9-1-13.5c1.4-2.9,4-5.1,7.2-6.3
	c2.1-0.8,4.2-0.8,6.3-0.8c1.9,0.2,3.9,0.2,5.8,0.2s3.4-0.8,4.7-2c0.2-0.2,0.3-0.3,0.5-0.5c0.5-0.5,0.5-0.5,1.1,0
	c2.1,1.5,4,3.1,6.1,4.5c0.3,0.2,0.3,0.5,0.2,0.6c-2.2,3.2-5.3,5.2-9.5,5.1c-1.8,0-3.5-0.2-5.3,0c-2.4,0.2-4.5,0.9-5.9,2.9
	c-1.4,1.8-1.9,4-0.5,6.3c1.4,2.5,3.7,3.8,6.7,4c1.9,0.2,3.4-0.6,4.8-1.8c0.5-0.5,1-0.9,1.3-1.4c0.2-0.2,0.3-0.3,0.6,0
	C2588.5,605,2589.7,605.9,2591,606.7C2591,606.8,2591,606.8,2591,606.7z"/>
<path class="st0" d="M2594.2,583.3c-1.3-0.9-2.1-2-2.2-3.5c-0.3-1.8,1-3.4,3-3.5c2.2-0.2,4.8,1.2,5.6,3.2c0.3,0.9,0.6,1.7,0.3,2.6
	c-0.3,1.4-1.9,2.3-3.5,2.3C2596.2,584.4,2595,584.1,2594.2,583.3z"/>
<path class="st0" d="M1644.8,414.9c1.3-0.8,2.6-1.7,3.9-2.5c0.3-0.2,0.5-0.2,0.6,0c1.9,2.3,3.4,4.9,3.7,8c0.5,3.7-0.5,7.1-2.7,10
	c-1.4,2-3.4,3.7-5.5,5.1c-2.6,1.7-5.3,3.1-8.3,3.8c-5.1,1.4-9.8,0.5-13.8-3.2c-2.6-2.3-3.9-5.2-4-8.6c-0.2-2,0.5-4,1.3-6
	c0.6-1.7,1.3-3.5,1.9-5.2c0.6-1.7,0.3-3.4-0.6-4.9c-0.2-0.2-0.2-0.3-0.3-0.5c-0.3-0.6-0.3-0.6,0.3-0.9c2.1-1.4,4.3-2.8,6.4-4.1
	c0.3-0.2,0.5-0.2,0.6,0.2c2.4,3.1,3.5,6.3,2.2,10.1c-0.6,1.5-1.1,3.2-1.6,4.9c-0.6,2.1-0.5,4.5,1,6.3c1.3,1.8,3.4,2.9,6.1,2.3
	c2.9-0.6,5-2.3,5.9-4.9c0.6-1.7,0.5-3.4-0.3-4.9c-0.3-0.6-0.6-1.1-1-1.7c-0.2-0.3-0.2-0.5,0.2-0.6
	C1642.4,416.7,1643.7,415.8,1644.8,414.9C1645,414.9,1645,414.9,1644.8,414.9z"/>
<path class="st0" d="M1622.7,404.9c-1.3,0.9-2.7,1.2-4.2,1.1c-1.9-0.3-3-2-2.6-3.8c0.5-2.1,2.7-4,5-4.1c1-0.2,1.9,0,2.7,0.5
	c1.3,0.8,1.8,2.5,1.1,3.8C1624.3,403.3,1623.5,404.3,1622.7,404.9z"/>
<path class="st0" d="M1554.6,382.3c1.3,0.8,2.7,1.5,4,2.3c0.3,0.2,0.3,0.3,0.2,0.6c-1.4,2.6-3.2,5.1-5.9,6.6c-3.2,2-6.7,2.6-10.6,2
	c-2.6-0.3-4.8-1.4-7.1-2.6c-2.7-1.4-5.1-3.4-7.2-5.5c-3.5-3.8-4.7-8.3-2.9-13.2c1.1-3.2,3.2-5.5,6.3-7.1c1.9-0.9,4-1.4,6.1-1.5
	c1.9-0.2,3.9-0.3,5.8-0.6c1.9-0.2,3.4-1.1,4.3-2.6c0.2-0.2,0.2-0.3,0.3-0.5c0.5-0.5,0.5-0.5,1-0.2c2.2,1.2,4.5,2.5,6.7,3.7
	c0.3,0.2,0.3,0.3,0.2,0.6c-1.8,3.4-4.5,5.8-8.7,6.3c-1.8,0.2-3.5,0.3-5.3,0.6c-2.4,0.5-4.3,1.5-5.5,3.5c-1.1,2-1.3,4.1,0.5,6.1
	c1.8,2.1,4.3,3.2,7.2,3.1c1.9-0.2,3.4-1.1,4.5-2.5c0.3-0.5,0.8-0.9,1.1-1.5c0.2-0.3,0.3-0.3,0.6-0.2
	C1551.7,380.8,1553.2,381.5,1554.6,382.3C1554.5,382.3,1554.5,382.3,1554.6,382.3z"/>
<path class="st0" d="M1554.3,358.7c-1.4-0.8-2.4-1.7-2.7-3.2c-0.5-1.8,0.5-3.5,2.4-4c2.2-0.5,5,0.6,6.1,2.5c0.5,0.8,0.8,1.7,0.6,2.6
	c-0.2,1.4-1.4,2.6-3.2,2.6C1556.6,359.6,1555.3,359.3,1554.3,358.7z"/>
<path class="st0" d="M1392.1,492.8c0.2-1.5,0.3-2.9,0.6-4.5c0-0.3,0.2-0.5,0.5-0.5c3,0.2,6.1,0.8,8.7,2.5c3.2,2.1,5.1,4.9,6.1,8.4
	c0.6,2.5,0.6,4.8,0.3,7.2c-0.3,2.9-1.1,5.8-2.6,8.6c-2.4,4.6-6.1,7.4-11.6,7.8c-3.5,0.3-6.6-0.6-9.3-2.8c-1.6-1.2-2.9-2.9-3.9-4.8
	c-1-1.7-1.8-3.2-2.9-4.9c-1-1.5-2.4-2.5-4.2-2.8c-0.2,0-0.3-0.2-0.5-0.2c-0.6-0.2-0.6-0.2-0.6-0.8c0.3-2.5,0.6-4.9,1-7.4
	c0-0.3,0.2-0.5,0.5-0.5c4,0.3,7.4,1.5,9.5,5.1c0.8,1.5,1.8,2.9,2.7,4.3c1.3,1.8,3.2,3.2,5.6,3.4c2.4,0.3,4.5-0.5,5.8-2.9
	c1.3-2.5,1.4-5.1,0-7.5c-0.8-1.5-2.2-2.5-4-2.9c-0.6-0.2-1.3-0.3-1.9-0.5c-0.3,0-0.5-0.2-0.3-0.5
	C1391.9,495.7,1392.1,494.3,1392.1,492.8C1392.2,492.8,1392.2,492.8,1392.1,492.8z"/>
<path class="st0" d="M1369.6,502.3c-0.2,1.5-0.8,2.8-1.9,3.7c-1.6,1.2-3.5,0.9-4.8-0.6c-1.3-1.7-1.3-4.6,0-6.3
	c0.6-0.8,1.3-1.4,2.2-1.7c1.4-0.5,3,0.3,3.9,1.7C1369.6,500,1369.7,501.2,1369.6,502.3z"/>
<path class="st0" d="M1534.8,492.9c1.3-0.8,2.7-1.5,4-2.3c0.3-0.2,0.5-0.2,0.6,0.2c1.8,2.5,3,5.1,3.4,8.1c0.3,3.7-0.8,6.9-3.2,9.8
	c-1.6,2-3.5,3.4-5.8,4.8c-2.6,1.7-5.5,2.8-8.5,3.4c-5.3,1.1-9.9,0-13.6-3.8c-2.4-2.5-3.5-5.4-3.5-8.8c0-2,0.6-4,1.6-5.8
	c0.8-1.7,1.6-3.4,2.2-5.1c0.6-1.7,0.5-3.4-0.3-4.9c-0.2-0.2-0.2-0.3-0.2-0.5c-0.3-0.6-0.3-0.6,0.3-0.9c2.2-1.2,4.3-2.6,6.6-3.8
	c0.3-0.2,0.5-0.2,0.6,0.2c2.2,3.2,3.2,6.4,1.6,10.3c-0.6,1.5-1.3,3.1-1.9,4.8c-0.6,2.1-0.6,4.3,0.6,6.3c1.3,2,3.2,3.1,5.9,2.6
	c2.9-0.5,5-2,6.3-4.6c0.8-1.7,0.6-3.2-0.2-4.9c-0.3-0.6-0.5-1.1-0.8-1.7c-0.2-0.3-0.2-0.5,0.2-0.6
	C1532,494.5,1533.5,493.8,1534.8,492.9L1534.8,492.9z"/>
<path class="st0" d="M1512.9,481.8c-1.4,0.8-2.7,1.2-4.2,0.8c-1.9-0.5-2.9-2.1-2.4-4c0.6-2.1,2.9-3.8,5.3-4c1,0,1.9,0.2,2.7,0.6
	c1.3,0.8,1.6,2.5,1,4C1514.7,480.4,1513.9,481.2,1512.9,481.8z"/>
<path class="st0" d="M1325.2,418.4c-1.3-0.9-2.6-1.8-3.7-2.6c-0.3-0.2-0.3-0.3-0.2-0.6c1.8-2.5,3.7-4.8,6.6-6
	c3.5-1.7,7.1-1.8,10.8-0.9c2.6,0.6,4.7,1.8,6.7,3.2c2.6,1.7,4.8,3.8,6.6,6.3c3,4.3,3.7,8.8,1.4,13.5c-1.4,3.1-3.9,5.2-7.1,6.4
	c-1.9,0.8-4.2,0.9-6.3,0.9c-1.9,0-3.9-0.2-5.8,0c-1.9,0-3.4,0.8-4.7,2.1c-0.2,0.2-0.3,0.3-0.5,0.5c-0.5,0.5-0.5,0.5-1.1,0.2
	c-2.1-1.4-4.2-2.9-6.3-4.3c-0.3-0.2-0.3-0.5-0.2-0.6c2.2-3.2,5.1-5.4,9.3-5.4c1.8,0,3.5,0,5.3-0.2c2.4-0.2,4.5-1.1,5.9-3.1
	c1.4-1.8,1.8-4,0.2-6.3c-1.6-2.3-3.9-3.7-6.9-3.7c-1.9,0-3.4,0.6-4.7,2c-0.5,0.5-0.8,0.9-1.3,1.4c-0.2,0.2-0.3,0.3-0.6,0
	C1327.9,420.1,1326.6,419.2,1325.2,418.4C1325.3,418.3,1325.2,418.4,1325.2,418.4z"/>
<path class="st0" d="M1322.7,441.7c1.3,0.9,2.1,2,2.4,3.4c0.3,1.8-1,3.4-2.9,3.7c-2.2,0.3-4.8-1.2-5.8-3.1c-0.3-0.9-0.6-1.7-0.3-2.6
	c0.3-1.4,1.8-2.3,3.4-2.3C1320.7,440.8,1321.8,441.1,1322.7,441.7z"/>
<path class="st0" d="M1631.2,518.2c-0.8,1.4-1.4,2.6-2.2,4c-0.2,0.3-0.3,0.3-0.6,0.2c-2.9-1.2-5.5-2.8-7.2-5.2
	c-2.2-3.1-3-6.4-2.6-10c0.3-2.5,1.1-4.8,2.2-6.9c1.4-2.8,3.2-5.1,5.5-7.2c3.9-3.5,8.5-4.9,13.6-3.4c3.4,0.9,5.9,2.9,7.7,5.7
	c1.1,1.8,1.6,3.7,1.9,5.8c0.3,1.8,0.5,3.7,0.8,5.5c0.3,1.8,1.3,3.1,2.9,4c0.2,0.2,0.3,0.2,0.5,0.3c0.6,0.3,0.6,0.3,0.3,0.9
	c-1.1,2.1-2.4,4.5-3.5,6.6c-0.2,0.3-0.3,0.3-0.6,0.2c-3.7-1.5-6.3-4-6.9-8c-0.3-1.7-0.5-3.4-1-5.1c-0.6-2.3-1.8-4-4-5.1
	c-2.1-1.1-4.3-1.1-6.4,0.8c-2.2,1.8-3.2,4.3-2.9,7.1c0.2,1.8,1.3,3.1,2.7,4.1c0.5,0.3,1.1,0.6,1.6,1.1c0.3,0.2,0.3,0.3,0.2,0.6
	C1632.6,515.5,1631.8,516.8,1631.2,518.2C1631.2,518.1,1631.2,518.2,1631.2,518.2z"/>
<path class="st0" d="M1655.7,516.8c0.8-1.4,1.8-2.3,3.2-2.8c1.9-0.6,3.7,0.3,4.2,2.1c0.6,2.1-0.5,4.8-2.4,6
	c-0.8,0.5-1.6,0.9-2.7,0.8c-1.4-0.2-2.7-1.4-2.9-2.9C1655.1,519,1655.2,517.8,1655.7,516.8z"/>
<path class="st0" d="M1336.9,587.7c0.2,1.5,0.3,2.9,0.5,4.5c0,0.3,0,0.5-0.3,0.5c-3,0.5-6.1,0.6-9.1-0.5c-3.5-1.4-6.3-3.7-8-6.9
	c-1.3-2.1-1.8-4.6-2.1-6.9c-0.5-2.9-0.3-6,0.3-8.9c1.1-5.1,4.2-8.6,9.3-10.1c3.4-1.1,6.6-0.8,9.8,0.6c1.9,0.9,3.5,2.3,5,3.8
	c1.3,1.4,2.6,2.8,3.9,4.1c1.3,1.2,2.9,1.8,4.8,1.8c0.2,0,0.3,0,0.6,0c0.6,0,0.6,0,0.8,0.6c0.3,2.5,0.6,4.9,1,7.4
	c0,0.3-0.2,0.5-0.5,0.5c-4,0.6-7.5,0.2-10.4-2.9c-1.3-1.2-2.4-2.5-3.7-3.7c-1.8-1.5-3.9-2.5-6.3-2.1c-2.4,0.3-4.2,1.5-5,4.1
	c-0.6,2.8-0.2,5.2,1.8,7.4c1.3,1.4,2.9,2,4.7,2c0.6,0,1.3,0,1.9,0c0.3,0,0.5,0.2,0.5,0.5C1336.4,584.8,1336.6,586.2,1336.9,587.7
	L1336.9,587.7z"/>
<path class="st0" d="M1356.5,573.4c-0.2-1.5,0-2.9,1-4c1.3-1.5,3.2-1.7,4.8-0.5c1.8,1.4,2.4,4.1,1.6,6.1c-0.3,0.9-1,1.5-1.8,2.1
	c-1.3,0.8-3,0.3-4.2-0.8C1357.1,575.6,1356.6,574.5,1356.5,573.4z"/>
<path class="st0" d="M1587.5,566.8c-0.3-1.5-0.6-2.9-1-4.5c0-0.3,0-0.5,0.3-0.6c3-0.9,6.1-1.2,9.1-0.5c3.7,0.9,6.6,2.9,8.8,6
	c1.4,2,2.2,4.3,2.9,6.8c0.8,2.9,1,5.8,0.6,8.9c-0.6,5.1-3.2,8.9-8,11.2c-3.2,1.4-6.4,1.5-9.8,0.5c-2.1-0.6-3.7-1.8-5.3-3.2
	c-1.4-1.2-2.9-2.5-4.3-3.7c-1.4-1.1-3.2-1.5-5-1.2c-0.2,0-0.3,0-0.6,0c-0.6,0-0.6,0-0.8-0.6c-0.6-2.5-1.1-4.8-1.8-7.2
	c-0.2-0.3,0-0.5,0.3-0.6c3.9-1.1,7.5-0.9,10.8,1.7c1.3,1.1,2.7,2.1,4.2,3.2c1.9,1.4,4.2,2,6.6,1.4c2.2-0.6,4-2,4.3-4.6
	c0.3-2.8-0.5-5.2-2.6-7.1c-1.4-1.2-3-1.5-4.8-1.4c-0.6,0-1.3,0.2-1.9,0.3c-0.3,0-0.5,0-0.5-0.3
	C1588.3,569.8,1588,568.2,1587.5,566.8C1587.7,566.8,1587.5,566.8,1587.5,566.8z"/>
<path class="st0" d="M1569.7,583.1c0.3,1.5,0.3,2.9-0.5,4.1c-1.1,1.7-3,2-4.7,0.9c-1.9-1.2-2.9-3.8-2.2-6c0.3-0.9,0.6-1.7,1.4-2.3
	c1.3-0.9,3-0.8,4.2,0.3C1568.9,581.1,1569.5,582,1569.7,583.1z"/>
<path class="st0" d="M1823.9,304.3c-1.6,0-3,0-4.7,0c-0.3,0-0.5-0.2-0.5-0.5c-0.2-2.9,0.2-5.8,1.6-8.6c1.8-3.2,4.5-5.5,8-6.9
	c2.4-0.9,5-1.2,7.5-1.2c3.2-0.2,6.3,0.3,9.1,1.4c5.1,1.7,8.3,4.9,9.5,10c0.6,3.2,0.2,6.3-1.8,9.2c-1.1,1.7-2.7,3.1-4.5,4.3
	c-1.6,1.1-3.2,2.1-4.7,3.2c-1.4,1.1-2.2,2.6-2.4,4.3c0,0.2,0,0.3,0,0.6c-0.2,0.6-0.2,0.6-0.8,0.6c-2.6,0-5.1,0-7.7,0
	c-0.3,0-0.5-0.2-0.5-0.5c-0.2-3.8,0.8-7.2,4.2-9.5c1.4-1.1,2.9-2,4.2-3.1c1.8-1.5,2.9-3.4,2.9-5.8c0-2.3-1.1-4.1-3.7-5.1
	c-2.7-0.9-5.5-0.8-7.9,0.9c-1.6,1.1-2.2,2.5-2.6,4.3c-0.2,0.6-0.2,1.2-0.2,1.8c0,0.3-0.2,0.5-0.5,0.5
	C1827.1,304.3,1825.5,304.3,1823.9,304.3L1823.9,304.3z"/>
<path class="st0" d="M1836.4,324.5c1.6,0,2.9,0.3,4,1.4c1.4,1.4,1.4,3.2,0,4.6c-1.6,1.5-4.7,1.8-6.6,0.8c-0.8-0.5-1.6-1.1-1.9-1.8
	c-0.6-1.4,0-2.9,1.3-3.8C1834.2,324.9,1835.3,324.5,1836.4,324.5z"/>
<path class="st0" d="M1458.8,578.2c-1.1,1.1-2.2,2-3.4,3.1c-0.2,0.2-0.3,0.3-0.6,0c-2.2-2-4.2-4.3-5.1-7.2
	c-1.1-3.5-0.8-7.1,0.8-10.3c1.1-2.3,2.7-4.1,4.5-5.8c2.2-2.1,4.8-3.8,7.5-5.1c4.8-2.1,9.6-2,14.1,0.9c2.9,1.8,4.7,4.5,5.5,7.8
	c0.5,2,0.3,4-0.2,6c-0.3,1.8-0.8,3.7-1,5.5c-0.3,1.8,0.2,3.4,1.4,4.8c0.2,0.2,0.2,0.3,0.3,0.5c0.5,0.5,0.5,0.5-0.2,1.1
	c-1.9,1.7-3.7,3.4-5.6,5.2c-0.3,0.3-0.5,0.2-0.6,0c-2.9-2.6-4.7-5.7-4-9.7c0.3-1.7,0.6-3.4,0.8-5.1c0.2-2.3-0.3-4.5-2.1-6.1
	c-1.6-1.7-3.9-2.3-6.4-1.2c-2.7,1.1-4.5,3.1-5,5.8c-0.3,1.7,0.2,3.4,1.3,4.8c0.3,0.5,0.8,0.9,1.1,1.4c0.2,0.3,0.2,0.5,0,0.6
	C1461.1,575.9,1460,576.9,1458.8,578.2C1458.8,578,1458.8,578,1458.8,578.2z"/>
<path class="st0" d="M1482.6,584.3c1.1-1.1,2.4-1.7,4-1.7c1.9,0,3.4,1.4,3.2,3.4c-0.2,2.1-1.9,4.3-4.2,4.9c-1,0.3-1.9,0.3-2.7-0.2
	c-1.4-0.6-2.1-2.1-1.8-3.7C1481.1,586.2,1481.8,585.1,1482.6,584.3z"/>
<path class="st0" d="M2036.6,414.2c-1.6,0-3,0-4.7,0c-0.3,0-0.5-0.2-0.5-0.5c-0.2-2.9,0-5.8,1.4-8.6c1.8-3.2,4.5-5.5,8-6.9
	c2.4-0.9,5-1.2,7.5-1.2c3.2-0.2,6.3,0.3,9.1,1.2c5.1,1.7,8.5,4.9,9.6,10c0.8,3.2,0.2,6.3-1.6,9.2c-1.1,1.7-2.7,3.1-4.5,4.3
	c-1.6,1.1-3.2,2.1-4.7,3.2s-2.2,2.6-2.4,4.5c0,0.2,0,0.3,0,0.6c0,0.6,0,0.6-0.8,0.6c-2.6,0-5.1,0-7.7,0.2c-0.3,0-0.5-0.2-0.5-0.5
	c-0.3-3.8,0.8-7.2,4.2-9.7c1.4-1.1,2.9-2,4.2-3.1c1.8-1.5,2.9-3.4,2.9-5.8c0-2.3-1.1-4.1-3.7-5.1c-2.7-0.9-5.5-0.8-7.9,0.9
	c-1.6,1.1-2.2,2.5-2.6,4.3c-0.2,0.6-0.2,1.2-0.2,1.8c0,0.3-0.2,0.5-0.5,0.5C2039.9,414.2,2038.2,414.2,2036.6,414.2L2036.6,414.2z"
	/>
<path class="st0" d="M2049.3,434.4c1.6,0,2.9,0.3,4,1.4c1.4,1.4,1.4,3.2,0,4.6c-1.6,1.5-4.7,1.8-6.6,0.8c-0.8-0.5-1.6-1.1-1.9-1.8
	c-0.6-1.4,0-2.9,1.3-3.8C2047.1,434.8,2048.2,434.4,2049.3,434.4z"/>
<path class="st0" d="M1731.8,313c0.2-1.5,0.3-2.9,0.6-4.5c0-0.3,0.2-0.5,0.5-0.5c3,0.2,6.1,0.8,8.7,2.5c3.2,2.1,5.1,4.9,6.1,8.4
	c0.6,2.5,0.6,4.8,0.3,7.2c-0.3,2.9-1.1,5.8-2.6,8.6c-2.4,4.6-6.1,7.4-11.6,7.8c-3.5,0.3-6.6-0.6-9.3-2.8c-1.6-1.2-2.9-2.9-3.9-4.8
	c-1-1.7-1.8-3.2-2.9-4.9c-1-1.5-2.4-2.5-4.2-2.8c-0.2,0-0.3-0.2-0.5-0.2c-0.6-0.2-0.6-0.2-0.6-0.8c0.3-2.5,0.6-4.9,1-7.4
	c0-0.3,0.2-0.5,0.5-0.5c4,0.3,7.4,1.5,9.5,5.1c0.8,1.5,1.8,2.9,2.7,4.3c1.3,1.8,3.2,3.2,5.6,3.4c2.4,0.3,4.5-0.5,5.8-2.9
	c1.3-2.5,1.4-5.1,0-7.5c-0.8-1.5-2.2-2.5-4-2.9c-0.6-0.2-1.3-0.3-1.9-0.5c-0.3,0-0.5-0.2-0.3-0.5
	C1731.5,315.9,1731.8,314.5,1731.8,313C1732,313,1731.8,313,1731.8,313z"/>
<path class="st0" d="M1709.3,322.5c-0.2,1.5-0.8,2.8-1.9,3.7c-1.6,1.2-3.5,0.9-4.8-0.6c-1.3-1.7-1.3-4.6,0-6.3
	c0.6-0.8,1.3-1.4,2.2-1.7c1.4-0.5,3,0.3,3.9,1.7C1709.2,320.2,1709.5,321.4,1709.3,322.5z"/>
<path class="st0" d="M2060.5,333.2c1.4,0.3,3,0.8,4.5,1.1c0.3,0,0.5,0.2,0.3,0.5c-0.6,2.9-1.6,5.7-3.7,8c-2.6,2.8-5.8,4.3-9.6,4.8
	c-2.6,0.3-5.1,0-7.5-0.6c-3-0.6-5.9-1.8-8.5-3.5c-4.5-2.8-6.9-6.8-6.6-12c0.2-3.4,1.6-6.1,4-8.4c1.6-1.4,3.4-2.3,5.5-3.1
	c1.8-0.6,3.7-1.4,5.5-2c1.8-0.8,2.9-2,3.4-3.7c0-0.2,0.2-0.3,0.2-0.5c0.3-0.6,0.3-0.6,1-0.5c2.6,0.6,5,1.2,7.5,1.8
	c0.3,0.2,0.5,0.3,0.3,0.6c-0.8,3.8-2.6,6.8-6.6,8.3c-1.6,0.6-3.4,1.2-4.8,2c-2.1,1.1-3.7,2.6-4.3,4.9c-0.5,2.1,0,4.3,2.2,5.8
	c2.4,1.5,5,2,7.9,1.1c1.8-0.6,2.9-1.8,3.5-3.5c0.3-0.6,0.5-1.1,0.6-1.7c0.2-0.3,0.3-0.3,0.6-0.3
	C2057.4,332.5,2058.9,332.9,2060.5,333.2L2060.5,333.2z"/>
<path class="st0" d="M2053.6,310.7c-1.6-0.5-2.7-1.1-3.5-2.3c-1-1.7-0.5-3.5,1.3-4.5c1.9-1.1,5-0.6,6.6,0.8c0.6,0.6,1.3,1.4,1.4,2.3
	c0.2,1.4-0.6,2.9-2.2,3.4C2055.8,310.8,2054.7,310.8,2053.6,310.7z"/>
<path class="st0" d="M1958.2,327.6c1.6-0.3,3-0.5,4.7-0.8c0.3,0,0.5,0,0.5,0.3c0.6,2.9,1,5.8,0,8.8c-1.1,3.5-3.5,6.1-6.7,8.1
	c-2.2,1.2-4.7,2-7.2,2.5c-3,0.6-6.3,0.6-9.3,0.2c-5.3-0.9-9.1-3.5-11.1-8.4c-1.3-3.1-1.3-6.3,0.2-9.4c0.8-1.8,2.1-3.5,3.7-4.9
	c1.4-1.2,2.7-2.6,4-4c1.3-1.4,1.8-2.9,1.6-4.8c0-0.2,0-0.3,0-0.6c0-0.6,0-0.6,0.6-0.8c2.6-0.5,5.1-0.8,7.7-1.2c0.3,0,0.5,0,0.6,0.3
	c1,3.7,0.5,7.2-2.4,10.1c-1.3,1.2-2.4,2.5-3.5,3.7c-1.4,1.8-2.2,3.8-1.8,6.1c0.5,2.3,1.8,4,4.5,4.5c2.9,0.6,5.5-0.2,7.5-2.1
	c1.3-1.2,1.9-2.8,1.8-4.6c0-0.6,0-1.2-0.2-1.8c0-0.3,0-0.5,0.3-0.5C1955.2,328.2,1956.6,327.9,1958.2,327.6L1958.2,327.6z"/>
<path class="st0" d="M1942.3,309.6c-1.6,0.3-3,0.2-4.2-0.8c-1.6-1.1-1.9-3.1-0.8-4.6c1.3-1.7,4.2-2.5,6.4-1.8c1,0.3,1.8,0.8,2.2,1.5
	c0.8,1.2,0.5,2.9-0.6,4C1944.4,308.8,1943.5,309.4,1942.3,309.6z"/>
<path class="st0" d="M2676.3,406.6c1.3-0.8,2.6-1.7,3.9-2.5c0.3-0.2,0.5-0.2,0.6,0c1.9,2.3,3.4,4.9,3.7,8c0.5,3.7-0.5,7.1-2.7,10
	c-1.4,2-3.4,3.7-5.5,5.1c-2.6,1.7-5.3,3.1-8.3,3.8c-5.1,1.4-9.8,0.5-13.8-3.2c-2.6-2.3-3.9-5.2-4-8.6c-0.2-2,0.5-4,1.3-6
	c0.6-1.7,1.3-3.5,1.9-5.2c0.6-1.7,0.3-3.4-0.6-4.9c-0.2-0.2-0.2-0.3-0.3-0.5c-0.3-0.6-0.3-0.6,0.3-0.9c2.1-1.4,4.3-2.8,6.4-4.1
	c0.3-0.2,0.5-0.2,0.6,0.2c2.4,3.1,3.5,6.3,2.2,10.1c-0.6,1.5-1.1,3.2-1.6,4.9c-0.6,2.1-0.5,4.5,1,6.3c1.3,1.8,3.4,2.9,6.1,2.3
	c2.9-0.6,5-2.3,5.9-4.9c0.6-1.7,0.5-3.4-0.3-4.9c-0.3-0.6-0.6-1.1-1-1.7c-0.2-0.3-0.2-0.5,0.2-0.6
	C2673.7,408.5,2675,407.6,2676.3,406.6L2676.3,406.6z"/>
<path class="st0" d="M2654,396.7c-1.3,0.9-2.7,1.2-4.2,1.1c-1.9-0.3-3-2-2.6-3.8c0.5-2.1,2.7-4,5-4.1c1-0.2,1.9,0,2.7,0.5
	c1.3,0.8,1.8,2.5,1.1,3.8C2655.6,395.1,2654.9,396,2654,396.7z"/>
<path class="st0" d="M1718,413.5c0.3,1.4,0.8,2.9,1.1,4.3c0,0.3,0,0.5-0.3,0.6c-3,0.9-5.9,1.4-9.1,0.6c-3.7-0.9-6.7-2.8-9-5.8
	c-1.4-2-2.4-4.3-3-6.6c-0.8-2.9-1.1-5.8-0.8-8.9c0.5-5.1,3-9.1,7.9-11.4c3-1.5,6.4-1.7,9.8-0.6c2.1,0.6,3.9,1.8,5.5,3.1
	c1.4,1.2,2.9,2.5,4.5,3.5c1.4,1.1,3.2,1.5,5,1.1c0.2,0,0.3,0,0.6,0c0.6-0.2,0.6-0.2,0.8,0.6c0.6,2.5,1.3,4.8,1.9,7.2
	c0.2,0.3,0,0.5-0.3,0.6c-3.9,1.1-7.5,1.1-10.8-1.5c-1.4-1.1-2.7-2.1-4.2-3.1c-1.9-1.2-4.2-1.8-6.6-1.2c-2.2,0.6-4,2-4.3,4.6
	c-0.3,2.8,0.5,5.2,2.7,7.1c1.4,1.2,3,1.5,5,1.4c0.6,0,1.3-0.2,1.9-0.3c0.3,0,0.5,0,0.5,0.3C1717.2,410.6,1717.6,412.1,1718,413.5
	L1718,413.5z"/>
<path class="st0" d="M1735.5,396.9c-0.3-1.5-0.3-2.9,0.5-4.1c1-1.7,3-2.1,4.7-1.1c1.9,1.2,3,3.8,2.4,6c-0.3,0.9-0.6,1.7-1.4,2.3
	c-1.3,0.9-2.9,0.8-4.2-0.3C1736.5,398.9,1735.8,398,1735.5,396.9z"/>
<path class="st0" d="M1940.2,451.2c-0.5,1.4-0.8,2.9-1.3,4.3c-0.2,0.3-0.2,0.5-0.5,0.3c-3-0.6-5.9-1.7-8.2-3.7
	c-2.9-2.5-4.3-5.7-4.7-9.4c-0.3-2.5,0.2-4.9,0.8-7.2c0.8-2.9,2.1-5.7,3.9-8.1c3-4.3,7.2-6.4,12.7-6c3.5,0.2,6.4,1.7,8.8,4.1
	c1.4,1.5,2.4,3.4,3,5.4c0.6,1.7,1.3,3.5,2.1,5.2c0.6,1.7,1.9,2.8,3.7,3.4c0.2,0,0.3,0.2,0.5,0.2c0.6,0.3,0.6,0.3,0.5,0.9
	c-0.6,2.5-1.4,4.8-2.1,7.2c-0.2,0.3-0.3,0.5-0.6,0.3c-3.9-0.8-7.1-2.6-8.5-6.4c-0.6-1.5-1.3-3.2-1.9-4.8c-1-2-2.6-3.7-5-4.1
	c-2.2-0.6-4.5-0.2-6.1,2c-1.8,2.3-2.2,4.8-1.3,7.4c0.6,1.7,1.9,2.8,3.5,3.5c0.6,0.3,1.1,0.5,1.8,0.6c0.3,0.2,0.3,0.3,0.3,0.6
	C1941,448.3,1940.6,449.7,1940.2,451.2L1940.2,451.2z"/>
<path class="st0" d="M1964,445.1c0.5-1.5,1.1-2.6,2.6-3.4c1.8-0.9,3.7-0.5,4.7,1.4c1.1,1.8,0.6,4.8-1,6.3c-0.6,0.6-1.4,1.2-2.4,1.2
	c-1.4,0.2-2.9-0.8-3.5-2.3C1963.8,447.3,1963.8,446.2,1964,445.1z"/>
<path class="st0" d="M1839.8,422.9c1.3,0.8,2.7,1.5,4,2.3c0.3,0.2,0.3,0.3,0.2,0.6c-1.4,2.6-3.2,5.1-5.9,6.6c-3.2,2-6.7,2.6-10.6,2
	c-2.6-0.3-4.8-1.4-7.1-2.6c-2.7-1.4-5.1-3.4-7.2-5.5c-3.5-3.8-4.7-8.3-2.9-13.2c1.1-3.2,3.2-5.5,6.3-7.1c1.9-0.9,4-1.4,6.1-1.5
	c1.9-0.2,3.9-0.3,5.8-0.6c1.9-0.2,3.4-1.1,4.3-2.6c0.2-0.2,0.2-0.3,0.3-0.5c0.5-0.5,0.5-0.5,1-0.2c2.2,1.2,4.5,2.5,6.7,3.7
	c0.3,0.2,0.3,0.3,0.2,0.6c-1.8,3.4-4.5,5.8-8.7,6.3c-1.8,0.2-3.5,0.3-5.3,0.6c-2.4,0.5-4.3,1.5-5.5,3.5c-1.1,2-1.3,4.1,0.5,6.1
	c1.8,2.1,4.3,3.2,7.2,3.1c1.9-0.2,3.4-1.1,4.5-2.5c0.3-0.5,0.8-0.9,1.1-1.5c0.2-0.3,0.3-0.3,0.6-0.2
	C1836.9,421.4,1838.3,422.1,1839.8,422.9L1839.8,422.9z"/>
<path class="st0" d="M1839.6,399.3c-1.4-0.8-2.4-1.7-2.7-3.2c-0.5-1.8,0.5-3.5,2.4-4c2.2-0.5,5,0.6,6.1,2.5c0.5,0.8,0.8,1.7,0.6,2.6
	c-0.2,1.4-1.4,2.6-3.2,2.6C1841.7,400.2,1840.6,399.9,1839.6,399.3z"/>
<path class="st0" d="M1712.1,500.7c-1.6,0-3,0-4.7,0c-0.3,0-0.5-0.2-0.5-0.5c-0.2-2.9,0-5.8,1.4-8.6c1.8-3.2,4.5-5.5,8-6.9
	c2.4-0.9,5-1.2,7.5-1.2c3.2-0.2,6.3,0.3,9.1,1.2c5.1,1.7,8.5,4.9,9.6,10c0.8,3.2,0.2,6.3-1.6,9.2c-1.1,1.7-2.7,3.1-4.5,4.3
	c-1.6,1.1-3.2,2.1-4.7,3.2c-1.4,1.1-2.2,2.6-2.4,4.5c0,0.2,0,0.3,0,0.6c0,0.6,0,0.6-0.8,0.6c-2.6,0-5.1,0-7.7,0.2
	c-0.3,0-0.5-0.2-0.5-0.5c-0.3-3.8,0.8-7.2,4.2-9.7c1.4-1.1,2.9-2,4.2-3.1c1.8-1.5,2.9-3.4,2.9-5.8c0-2.3-1.1-4.1-3.7-5.1
	c-2.7-0.9-5.5-0.8-7.9,0.9c-1.6,1.1-2.2,2.5-2.6,4.3c-0.2,0.6-0.2,1.2-0.2,1.8c0,0.3-0.2,0.5-0.5,0.5
	C1715.3,500.7,1713.7,500.7,1712.1,500.7L1712.1,500.7z"/>
<path class="st0" d="M1724.7,521c1.6,0,2.9,0.3,4,1.4c1.4,1.4,1.4,3.2,0,4.6c-1.6,1.5-4.7,1.8-6.6,0.8c-0.8-0.5-1.6-1.1-1.9-1.8
	c-0.6-1.4,0-2.9,1.3-3.8C1722.5,521.3,1723.6,521,1724.7,521z"/>
<path class="st0" d="M2015.8,514.2c1.3-0.8,2.7-1.5,4-2.3c0.3-0.2,0.5-0.2,0.6,0.2c1.8,2.5,3,5.1,3.4,8.1c0.3,3.7-0.8,6.9-3.2,9.8
	c-1.6,2-3.5,3.4-5.8,4.8c-2.6,1.7-5.5,2.8-8.5,3.4c-5.3,1.1-9.9,0-13.6-3.8c-2.4-2.5-3.5-5.4-3.5-8.8c0-2,0.6-4,1.6-5.8
	c0.8-1.7,1.6-3.4,2.2-5.1c0.6-1.7,0.5-3.4-0.3-4.9c-0.2-0.2-0.2-0.3-0.2-0.5c-0.3-0.6-0.3-0.6,0.3-0.9c2.2-1.2,4.3-2.6,6.6-3.8
	c0.3-0.2,0.5-0.2,0.6,0.2c2.2,3.2,3.2,6.4,1.6,10.3c-0.6,1.5-1.3,3.1-1.9,4.8c-0.6,2.1-0.6,4.3,0.6,6.3c1.3,2,3.2,3.1,5.9,2.6
	c2.9-0.5,5-2,6.3-4.6c0.8-1.7,0.6-3.2-0.2-4.9c-0.3-0.6-0.5-1.1-0.8-1.7c-0.2-0.3-0.2-0.5,0.2-0.6
	C2013.2,515.8,2014.5,515.1,2015.8,514.2L2015.8,514.2z"/>
<path class="st0" d="M1994.1,503.1c-1.4,0.8-2.7,1.2-4.2,0.8c-1.9-0.5-2.9-2.1-2.4-4c0.6-2.1,2.9-3.8,5.3-4c1,0,1.9,0.2,2.7,0.6
	c1.3,0.8,1.6,2.5,1,4C1995.9,501.7,1995.1,502.5,1994.1,503.1z"/>
<path class="st0" d="M1857.1,513.3c-1.3-0.9-2.6-1.8-3.7-2.6c-0.3-0.2-0.3-0.3-0.2-0.6c1.8-2.5,3.7-4.8,6.6-6
	c3.5-1.7,7.1-1.8,10.8-0.9c2.6,0.6,4.7,1.8,6.7,3.2c2.6,1.7,4.8,3.8,6.6,6.3c3,4.3,3.7,8.8,1.4,13.5c-1.4,3.1-3.9,5.2-7.1,6.4
	c-1.9,0.8-4.2,0.9-6.3,0.9c-1.9,0-3.9-0.2-5.8,0c-1.9,0-3.4,0.8-4.7,2.1c-0.2,0.2-0.3,0.3-0.5,0.5c-0.5,0.5-0.5,0.5-1.1,0.2
	c-2.1-1.4-4.2-2.9-6.3-4.3c-0.3-0.2-0.3-0.5-0.2-0.6c2.2-3.2,5.1-5.4,9.3-5.4c1.8,0,3.5,0,5.3-0.2c2.4-0.2,4.5-1.1,5.9-3.1
	c1.4-1.8,1.8-4,0.2-6.3s-3.9-3.7-6.9-3.7c-1.9,0-3.4,0.6-4.7,2c-0.5,0.5-0.8,0.9-1.3,1.4c-0.2,0.2-0.3,0.3-0.6,0
	C1859.7,515,1858.4,514.1,1857.1,513.3C1857.1,513.2,1857.1,513.3,1857.1,513.3z"/>
<path class="st0" d="M1854.6,536.7c1.3,0.9,2.1,2,2.4,3.4c0.3,1.8-1,3.4-2.9,3.7c-2.2,0.3-4.8-1.2-5.8-3.1c-0.3-0.9-0.6-1.7-0.3-2.6
	c0.3-1.4,1.8-2.3,3.4-2.3C1852.6,535.7,1853.8,536,1854.6,536.7z"/>
<path class="st0" d="M1942.9,561.6c-0.3-1.5-0.6-2.9-1-4.5c0-0.3,0-0.5,0.3-0.6c3-0.9,6.1-1.2,9.1-0.5c3.7,0.9,6.6,2.9,8.8,6
	c1.4,2,2.2,4.3,2.9,6.8c0.8,2.9,1,5.8,0.6,8.9c-0.6,5.1-3.2,8.9-8,11.2c-3.2,1.4-6.4,1.5-9.8,0.5c-2.1-0.6-3.7-1.8-5.3-3.2
	c-1.4-1.2-2.9-2.5-4.3-3.7c-1.4-1.1-3.2-1.5-5-1.2c-0.2,0-0.3,0-0.6,0c-0.6,0-0.6,0-0.8-0.6c-0.6-2.5-1.1-4.8-1.8-7.2
	c-0.2-0.3,0-0.5,0.3-0.6c3.9-1.1,7.5-0.9,10.8,1.7c1.3,1.1,2.7,2.1,4.2,3.2c1.9,1.4,4.2,2,6.6,1.4c2.2-0.6,4-2,4.3-4.6
	c0.3-2.8-0.5-5.2-2.6-7.1c-1.4-1.2-3-1.5-4.8-1.4c-0.6,0-1.3,0.2-1.9,0.3c-0.3,0-0.5,0-0.5-0.3
	C1943.7,564.5,1943.4,562.9,1942.9,561.6L1942.9,561.6z"/>
<path class="st0" d="M1925.1,577.8c0.3,1.5,0.3,2.9-0.5,4.1c-1.1,1.7-3,2-4.7,0.9c-1.9-1.2-2.9-3.8-2.2-6c0.3-0.9,0.6-1.7,1.4-2.3
	c1.3-0.9,3-0.8,4.2,0.3C1924.2,575.8,1924.8,576.8,1925.1,577.8z"/>
<path class="st0" d="M1757.8,582.8c1.3,0.9,2.4,1.8,3.7,2.8c0.3,0.2,0.3,0.3,0.2,0.6c-1.8,2.5-3.9,4.6-6.7,5.8
	c-3.5,1.5-7.1,1.7-10.8,0.6c-2.4-0.8-4.7-2-6.7-3.4c-2.6-1.8-4.7-4-6.4-6.4c-2.9-4.3-3.4-8.9-1-13.5c1.4-2.9,4-5.1,7.2-6.3
	c2.1-0.8,4.2-0.8,6.3-0.8c1.9,0.2,3.9,0.2,5.8,0.2s3.4-0.8,4.7-2c0.2-0.2,0.3-0.3,0.5-0.5c0.5-0.5,0.5-0.5,1.1,0
	c2.1,1.5,4,3.1,6.1,4.5c0.3,0.2,0.3,0.5,0.2,0.6c-2.2,3.2-5.3,5.2-9.5,5.1c-1.8,0-3.5-0.2-5.3,0c-2.4,0.2-4.5,0.9-5.9,2.9
	c-1.4,1.8-1.9,4-0.5,6.3c1.4,2.5,3.7,3.8,6.7,4c1.9,0.2,3.4-0.6,4.8-1.8c0.5-0.5,1-0.9,1.3-1.4c0.2-0.2,0.3-0.3,0.6,0
	C1755.3,581.1,1756.5,582,1757.8,582.8C1757.8,582.9,1757.8,582.9,1757.8,582.8z"/>
<path class="st0" d="M1761,559.4c-1.3-0.9-2.1-2-2.2-3.5c-0.3-1.8,1-3.4,3-3.5c2.2-0.2,4.8,1.2,5.6,3.2c0.3,0.9,0.6,1.7,0.3,2.6
	c-0.3,1.4-1.9,2.3-3.5,2.3C1763,560.5,1761.8,560.2,1761,559.4z"/>
</svg>
